<svg id="Capa_1" enable-background="new 0 0 496.959 496.959" height="512" viewBox="0 0 496.959 496.959" width="512" xmlns="http://www.w3.org/2000/svg"><g><g id="XMLID_277_"><g><path d="m489.1 183.104c15.06 23.99 7.83 55.65-16.17 70.72l-15.04 9.45-64.71 29.56-48.36-60.91 63.64-58.76 9.92-6.23c8.48-5.32 17.91-7.86 27.23-7.86 17.06 0 33.74 8.51 43.49 24.03zm-22.68 32.02c1.26-5.55.3-11.25-2.73-16.07-3.92-6.25-10.68-9.98-18.08-9.98-3.98 0-7.88 1.13-11.28 3.27l-10.52 6.61-40.18 29.79 22.69 27.23 39.27-20.41 11.39-7.15c4.82-3.03 8.17-7.75 9.44-13.29z" fill="{COLOR1}"/></g></g><g id="XMLID_275_"><g><path d="m156.49 200.604-38.07 111.32-80.17-49.17-14.22-8.93c-15.52-9.75-24.03-26.43-24.03-43.49 0-9.32 2.54-18.75 7.86-27.23 15.07-24 46.73-31.23 70.72-16.17l9.2 5.78zm-52.49 64.6 20.19-52.49-51.77-14.22-9.79-6.15c-3.4-2.14-7.3-3.27-11.28-3.27-7.4 0-14.16 3.73-18.08 9.98-3.03 4.82-3.99 10.52-2.73 16.07 1.27 5.54 4.62 10.26 9.44 13.29l10.65 6.69z" fill="{COLOR1}"/></g></g><path d="m444.96 234.464-49.47-83.07s-22.278-34.969-23.613-34.383c-1.336.586-260.458 0-260.458 0l-10.949 34.383-49.47 83.07c-12.66 21.26-19.35 45.54-19.35 70.28v17.21c0 78.26 63.44 141.7 141.7 141.7h149.26c78.26 0 141.7-63.44 141.7-141.7v-17.21c0-24.74-6.69-49.02-19.35-70.28z" fill="#e19974"/><g fill="{COLOR1}"><path d="m372.321 117.267c-.211-.193-.366-.29-.444-.256-.286.126-12.438.198-31.343.233 10.805.011 21.5.019 31.787.023z"/><path d="m118.802 321.954v-17.21c0-24.74 6.69-49.02 19.35-70.28l49.47-83.07 10.897-34.22c-47.946-.074-87.101-.163-87.101-.163l-10.949 34.383-49.469 83.07c-12.66 21.26-19.35 45.54-19.35 70.28v17.21c0 78.26 63.44 141.7 141.7 141.7h87.152c-78.26 0-141.7-63.44-141.7-141.7z"/></g><g><g id="XMLID_270_"><g><path d="m426.07 61.984v46.32c0 7.48-2.91 14.65-8.12 20.01l-22.46 23.08h-295.02l-22.46-23.08c-5.21-5.36-8.12-12.53-8.12-20.01v-46.32c0-15.84 12.84-28.68 28.68-28.68h298.82c15.84 0 28.68 12.84 28.68 28.68z" fill="red"/></g></g><path d="m158.58 108.304v-46.32c0-15.84 12.84-28.68 28.68-28.68h-88.69c-15.84 0-28.68 12.84-28.68 28.68v46.32c0 7.48 2.91 14.65 8.12 20.01l22.46 23.08h88.69l-22.46-23.08c-5.21-5.36-8.12-12.53-8.12-20.01z" fill="{COLOR1+}"/><g id="XMLID_272_"><g><path d="m426.07 73.884v34.42c0 1.52-.12 3.02-.36 4.5l-.96-.17h-354.53c-.22-1.42-.33-2.87-.33-4.33v-34.42h.33z" fill="{COLOR1-}"/></g></g><g><path d="m116.489 366.726h-77.613c1.71 5.138 3.708 10.143 5.972 15h71.642c4.143 0 7.5-3.357 7.5-7.5s-3.359-7.5-7.501-7.5z" fill="{COLOR1}"/></g></g><path d="m158.58 108.304v-34.42h-88.36-.33v34.42c0 1.46.11 2.91.33 4.33h88.691c-.217-1.424-.331-2.871-.331-4.33z" fill="{COLOR1-}"/></g></svg>