<svg version="1.1" id="Capa_1" xmlns="http://www.w3.org/2000/svg" xmlns:xlink="http://www.w3.org/1999/xlink" x="0px" y="0px"
	 viewBox="0 0 512 512" {classStyle}>
<path style="fill:{COLOR1};" d="M309.376,512H202.624c-28.315,0-52.604-20.189-57.781-48.027l-22.887-123.072h268.089
	l-22.887,123.072C361.98,491.811,337.691,512,309.376,512z"/>
<path style="fill:{COLOR1};" d="M338.192,340.902l-22.887,123.072C310.128,491.811,285.838,512,257.523,512h51.853
	c28.315,0,52.604-20.189,57.781-48.027l22.887-123.072h-51.852V340.902z"/>
<path style="fill:{COLOR1-};" d="M394.718,368.559H117.282c-11.242,0-20.356-9.114-20.356-20.356l0,0
	c0-11.242,9.114-20.356,20.356-20.356h277.437c11.242,0,20.356,9.114,20.356,20.356l0,0
	C415.074,359.445,405.961,368.559,394.718,368.559z"/>
<path style="fill:{COLOR1-};" d="M394.718,327.846h-32.614v40.712h32.614c11.242,0,20.356-9.114,20.356-20.356l0,0
	C415.075,336.96,405.961,327.846,394.718,327.846z"/>
</svg>
