<svg id="flat" height="512" viewBox="0 0 512 512" width="512" xmlns="http://www.w3.org/2000/svg"><path d="m192 264h128v32h-128z" fill="#b1712c"/><path d="m48 264h144v64h-144z" fill="#b1712c"/><path d="m48 288h144v16h-144z" fill="#a36522"/><path d="m40 328h144v64h-144z" fill="#d69651"/><path d="m40 352h144v16h-144z" fill="#c78640"/><path d="m200 296h112v72h-112z" fill="#a36522"/><path d="m208 368h96v48h-96z" fill="#c78640"/><path d="m176 264h32v64h-32z" fill="#c78640"/><path d="m488 264h-464l40-48 16-104h352l16 104z" fill="#b1712c"/><path d="m488 264h-464l40-48h384z" fill="#a36522"/><path d="m384 144v72h-80v-72l40-48z" fill="#c78640"/><path d="m324 152h16v16h-16z" fill="#b1712c"/><path d="m348 152h16v16h-16z" fill="#b1712c"/><path d="m324 176h16v16h-16z" fill="#b1712c"/><path d="m348 176h16v16h-16z" fill="#b1712c"/><path d="m208 144v72h-80v-72l40-48z" fill="#c78640"/><path d="m226.02051 173.31445-58.02051-65.27245-58.02051 65.27246-11.959-10.6289 64-72a7.99957 7.99957 0 0 1 11.959 0l64 72z" fill="#e3a15b"/><g fill="#b1712c"><path d="m148 152h16v16h-16z"/><path d="m172 152h16v16h-16z"/><path d="m148 176h16v16h-16z"/><path d="m172 176h16v16h-16z"/><path d="m88 328h32v88h-56z"/></g><path d="m88 264h32v64h-32z" fill="#c78640"/><path d="m176 328h32v88h-56z" fill="#b1712c"/><path d="m402.02051 173.31445-58.02051-65.27245-58.02051 65.27246-11.959-10.6289 64-72a7.99957 7.99957 0 0 1 11.959 0l64 72z" fill="#e3a15b"/><path d="m208 384h96v16h-96z" fill="#b1712c"/><path d="m248 296h16v72h-16z" fill="#91591c"/><path d="m320 264h144v64h-144z" fill="#b1712c"/><path d="m320 288h144v16h-144z" fill="#a36522"/><path d="m328 328h144v64h-144z" fill="#d69651"/><path d="m328 352h144v16h-144z" fill="#c78640"/><path d="m304 264h32v64h-32z" fill="#c78640"/><path d="m424 328h-32v88h56z" fill="#b1712c"/><path d="m392 264h32v64h-32z" fill="#c78640"/><path d="m336 328h-32v88h56z" fill="#b1712c"/></svg>