<?xml version="1.0" encoding="iso-8859-1"?>
<!-- Generator: Adobe Illustrator 19.0.0, SVG Export Plug-In . SVG Version: 6.00 Build 0)  -->
<svg version="1.1" id="Capa_1" xmlns="http://www.w3.org/2000/svg" xmlns:xlink="http://www.w3.org/1999/xlink" x="0px" y="0px"
	 viewBox="0 0 503.344 503.344" style="enable-background:new 0 0 503.344 503.344;" xml:space="preserve">
<g>
	<circle style="fill:#D75E72;" cx="251.672" cy="165.055" r="164.881"/>
	<path style="fill:#7F5B53;" d="M394.532,218.855c-2.06-1.131-4.5-1.346-6.726-0.592c-2.226,0.754-4.033,2.407-4.982,4.557
		L281.127,432.738h-17.614l48.504-165.399c1.508-4.791-0.971-9.928-5.661-11.727c-2.253-0.708-4.699-0.456-6.76,0.698
		c-2.061,1.154-3.555,3.107-4.129,5.398l-43.792,149.339l-43.792-149.339c-0.576-2.29-2.07-4.242-4.131-5.395
		c-2.061-1.154-4.505-1.407-6.759-0.701c-4.689,1.799-7.169,6.936-5.661,11.727l48.504,165.399h-17.703l-106.847-219.39
		c-0.98-2.136-2.813-3.76-5.05-4.477c-2.238-0.717-4.674-0.46-6.712,0.708c-4.277,2.675-5.797,8.176-3.5,12.667l109.309,224.286
		c1.409,2.948,4.365,4.845,7.631,4.896h69.423c3.318-0.054,6.311-2.008,7.695-5.024l104.135-214.941
		C400.445,226.942,398.846,221.466,394.532,218.855L394.532,218.855z"/>
	<g>
		<path style="fill:#802D40;" d="M251.672,329.763c-43.731,0.005-85.672-17.365-116.594-48.288
			c-30.922-30.922-48.292-72.863-48.288-116.594c0-1.996,0.087-3.992,0.174-5.988c1.302,13.104,51.894,11.715,51.894-2.69h0.174
			c-0.087,2.864-0.174,5.814-0.174,8.678c0,4.599,0.087,9.112,0.434,13.538v0.174C143.979,263.29,192.488,329.763,251.672,329.763z"
			/>
		<path style="fill:#802D40;" d="M416.553,164.882c0.042,90.12-72.34,163.546-162.452,164.795
			c57.708-1.736,104.656-66.647,109.776-149.435c-0.087-0.087-0.087-0.087,0-0.174c0-0.174,0.087-0.347,0.087-0.521v-0.174
			c0-0.347,0.087-0.607,0.087-0.955c0.347-4.426,0.434-8.938,0.434-13.538c0-2.864-0.087-5.814-0.174-8.678h0.174
			c0,14.405,50.94,15.534,51.894,2.083C416.467,160.456,416.553,162.712,416.553,164.882z"/>
	</g>
	<g>
		<path style="fill:#D1D4D1;" d="M251.672,329.763c-0.811,0.014-1.622-0.014-2.43-0.087
			c-58.055-1.736-105.351-67.515-109.95-151.083c2.343,14.405,60.312,11.802,60.312-5.033h0.087
			c0.087,5.467,0.26,10.847,0.521,16.228c-0.087,0.087,0,0.174,0,0.26v0.434C204.117,269.451,225.725,329.763,251.672,329.763z"/>
		<path style="fill:#D1D4D1;" d="M363.878,180.242c-3.721,60.167-37.775,148.641-110.384,149.435
			c20.515-2.272,30.332-33.283,35.315-49.312c9.983-34.718,14.981-70.679,14.844-106.804
			C304.855,194.181,362.501,181.618,363.878,180.242z"/>
	</g>
	<path style="fill:#802D40;" d="M303.132,190.482c-1.033,27.241-4.947,54.295-11.676,80.712
		c-4.613,17.241-10.717,36.922-23.368,50.152c-26.505,27.717-47.206-20.616-53.463-40.637
		c-8.586-29.348-13.429-59.664-14.413-90.227C205.286,220.896,299.882,209.967,303.132,190.482z"/>
	<path style="fill:#FDD7AD;" d="M199.604,433.92H303.74c4.793,0,8.678,3.885,8.678,8.678v34.712
		c0,14.378-11.656,26.034-26.034,26.034H216.96c-14.378,0-26.034-11.656-26.034-26.034v-34.712
		C190.926,437.806,194.812,433.92,199.604,433.92z"/>
	<g>
		<path style="fill:#AF8066;" d="M234.316,433.899v34.712h-43.39v-26.034c0.014-4.787,3.891-8.664,8.678-8.678H234.316z"/>
		<path style="fill:#AF8066;" d="M312.418,442.577v26.034h-43.39v-34.712h34.712C308.527,433.913,312.404,437.79,312.418,442.577z"
			/>
	</g>
	<rect x="234.316" y="433.899" style="fill:#CB9080;" width="34.712" height="34.712"/>
	<path style="fill:#D75E72;" d="M303.74,164.882c0,2.864,0,5.814-0.087,8.678c-0.087,5.467-0.26,10.847-0.521,16.228
		c0.087,0.087,0,0.174,0,0.26v0.347h-0.087l-0.26,1.562c-0.174,0.955-0.347,1.822-0.521,2.69c-0.009,0.066-0.04,0.127-0.087,0.174
		c-0.174,0.694-0.347,1.302-0.521,1.909c-0.008,0.254-0.099,0.498-0.26,0.694c0.014,0.15-0.017,0.301-0.087,0.434
		c-0.018,0.184-0.077,0.362-0.174,0.521c-0.016,0.268-0.075,0.532-0.174,0.781h-0.087v0.174c-0.174,0.434-0.347,0.868-0.521,1.215
		c-0.07,0.199-0.128,0.402-0.174,0.607c-0.067,0.069-0.099,0.165-0.087,0.26c-0.087,0.087-0.174,0.174-0.174,0.26
		c-0.26,0.694-0.521,1.302-0.781,1.909c-0.066,0.069-0.098,0.165-0.086,0.26c-0.087,0.26-0.174,0.434-0.26,0.694h-0.087v0.087
		c0,0.087-0.087,0.087-0.087,0.174l-0.087,0.087v0.087l-0.087,0.087c0,0.087,0,0.087-0.087,0.174
		c-0.353,0.779-0.759,1.533-1.215,2.256c-0.062,0.255-0.181,0.492-0.347,0.694c-0.429,0.819-0.922,1.602-1.475,2.343
		c-0.154,0.3-0.328,0.59-0.521,0.868h-0.086v0.087c-0.118,0.194-0.264,0.37-0.434,0.521c-0.383,0.669-0.819,1.308-1.302,1.909
		c-0.087,0.087-0.174,0.26-0.26,0.347c-0.087,0.087-0.087,0.174-0.174,0.174c-0.152,0.247-0.327,0.479-0.521,0.694
		c-1.881,2.328-3.972,4.478-6.248,6.422l-0.087,0.086h-0.087c-0.39,0.399-0.827,0.749-1.302,1.042
		c-0.072,0.203-0.231,0.362-0.434,0.434c-0.087,0.087-0.174,0.174-0.26,0.174c-0.238,0.229-0.5,0.433-0.781,0.607
		c-0.183,0.195-0.387,0.369-0.607,0.521h-0.087l-1.041,0.781c-0.458,0.368-0.952,0.688-1.475,0.955
		c-0.284,0.252-0.606,0.457-0.955,0.607c-2.701,1.647-5.548,3.041-8.504,4.165c-1.041,0.347-2.083,0.781-3.124,1.041h-0.087
		c-0.434,0.174-0.781,0.26-1.128,0.434c-4.611,1.253-9.367,1.895-14.145,1.909c-1.623,0-3.246-0.087-4.86-0.26
		c-0.955-0.087-1.909-0.174-2.864-0.347c-0.868-0.087-1.822-0.26-2.69-0.434c-0.781-0.174-1.562-0.347-2.256-0.521h-0.174
		c-0.023,0-0.046-0.008-0.062-0.025c-0.016-0.016-0.025-0.039-0.025-0.062h-0.087c-3.318-0.874-6.544-2.065-9.633-3.558
		c-0.22-0.082-0.425-0.199-0.607-0.347c-1.789-0.832-3.503-1.82-5.12-2.951h-0.087c-0.086-0.087-0.174-0.087-0.26-0.174v-0.087
		h-0.087c-0.087,0-0.087,0-0.174-0.087c-0.531-0.288-1.026-0.637-1.475-1.041c-0.309-0.173-0.6-0.376-0.868-0.607
		c-1.333-0.997-2.607-2.069-3.818-3.211c-0.434-0.347-0.868-0.868-1.388-1.302c-0.507-0.449-0.971-0.942-1.388-1.475
		c-0.855-0.855-1.666-1.753-2.43-2.69c-0.086-0.086-0.174-0.26-0.347-0.434c-0.087-0.087-0.087-0.174-0.174-0.174
		c-0.995-1.281-1.922-2.614-2.777-3.992c-0.553-0.741-1.046-1.524-1.475-2.343c-0.174-0.26-0.26-0.434-0.434-0.694
		c-0.434-0.781-0.781-1.475-1.128-2.256c-0.167-0.266-0.285-0.56-0.347-0.868c-0.087-0.087-0.174-0.174-0.174-0.26
		c-0.347-0.868-0.781-1.649-1.041-2.43c-0.267-0.504-0.499-1.026-0.694-1.562l-0.26-0.781v-0.174h-0.087
		c-0.087-0.347-0.174-0.607-0.26-0.955c0-0.087-0.086-0.26-0.086-0.347c-0.07-0.133-0.1-0.284-0.087-0.434
		c-0.339-0.842-0.601-1.714-0.781-2.603c-0.047-0.047-0.078-0.108-0.087-0.174c-0.174-0.868-0.347-1.736-0.521-2.69l-0.26-1.562
		h-0.087v-0.347c0-0.087-0.087-0.174,0-0.26c-0.26-5.38-0.434-10.761-0.521-16.228c-0.087-2.864-0.087-5.814-0.087-8.678
		c0-91.032,23.344-164.881,52.068-164.881C280.397,0.001,303.74,73.85,303.74,164.882z"/>
	<path style="fill:#E6E7E8;" d="M364.486,164.882c0,4.599-0.087,9.112-0.434,13.538c0,0.347-0.087,0.607-0.087,0.955v0.174
		c0,0.174-0.087,0.347-0.087,0.521c-0.087,0.087-0.087,0.087,0,0.174c-0.087,0.087-0.087,0.087-0.087,0.174v0.087h-0.087v0.347
		h-0.087l-0.26,1.302c-0.087,0-0.087,0-0.087,0.087c-0.266,0.943-0.584,1.87-0.955,2.777c-0.347,0.781-0.694,1.562-1.128,2.343
		c-0.347,0.781-0.781,1.475-1.215,2.256c-0.107,0.099-0.195,0.217-0.26,0.347l-0.087,0.087c0,0.087-0.087,0.174-0.174,0.26
		c-0.268,0.496-0.588,0.961-0.955,1.388c-0.521,0.694-1.041,1.302-1.562,1.996l-0.781,0.781c-0.215,0.302-0.479,0.566-0.781,0.781
		l-0.26,0.26c-0.521,0.521-1.128,1.041-1.649,1.475c-0.161,0.094-0.307,0.211-0.434,0.347h-0.087
		c-0.49,0.48-1.045,0.889-1.649,1.215c0,0.023-0.009,0.046-0.025,0.062c-0.016,0.016-0.039,0.025-0.062,0.025
		c0,0.087,0,0.087-0.086,0.087c-0.174,0.087-0.347,0.26-0.521,0.26c-0.371,0.31-0.779,0.572-1.215,0.781
		c-0.087,0.087-0.174,0.174-0.26,0.174c-0.308,0.192-0.627,0.366-0.955,0.521c-1.008,0.535-2.052,0.999-3.124,1.388
		c-0.174,0.087-0.434,0.174-0.607,0.26c-1.29,0.507-2.627,0.885-3.992,1.128c-0.13,0.079-0.284,0.11-0.434,0.087
		c-1.938,0.421-3.918,0.625-5.901,0.607c-8.057,0.006-15.786-3.192-21.483-8.889c-5.697-5.697-8.895-13.426-8.889-21.483h-0.087
		c0.087-2.864,0.087-5.814,0.087-8.678C303.74,73.849,280.397,0,251.673,0c0.868,0,1.822,0,2.69,0.087
		c59.097,1.996,106.999,70.465,109.95,156.117C364.399,159.068,364.486,162.018,364.486,164.882z"/>
	<path style="fill:#D75E72;" d="M416.38,158.287c-1.092,13.923-12.995,24.493-26.949,23.933
		c-13.955-0.56-24.972-12.05-24.945-26.016h-0.174C361.362,70.552,313.459,2.083,254.362,0.087
		C341.799,1.455,412.928,70.907,416.38,158.287L416.38,158.287z"/>
	<path style="fill:#E6E7E8;" d="M199.604,164.882c0,2.864,0,5.814,0.087,8.678h-0.087c0.003,15.794-12.101,28.953-27.84,30.267
		s-29.857-9.658-32.472-25.233v-0.174c-0.347-4.426-0.434-8.938-0.434-13.538c0-2.864,0.087-5.814,0.174-8.678
		C142.069,69.251,191.36,0,251.672,0C222.948,0,199.604,73.85,199.604,164.882z"/>
	<path style="fill:#D75E72;" d="M251.672,0c-60.312,0-109.603,69.25-112.64,156.203h-0.174c0.01,13.852-10.835,25.283-24.669,26
		c-13.834,0.717-25.803-9.531-27.225-23.31c-0.087-0.174-0.087-0.26,0-0.347v-0.087c-0.087-0.087-0.087-0.087,0-0.174
		C90.459,69.858,163.174-0.023,251.672,0z"/>
</g>
<g>
</g>
<g>
</g>
<g>
</g>
<g>
</g>
<g>
</g>
<g>
</g>
<g>
</g>
<g>
</g>
<g>
</g>
<g>
</g>
<g>
</g>
<g>
</g>
<g>
</g>
<g>
</g>
<g>
</g>
</svg>
