<svg height="512pt" viewBox="-100 0 512 512" width="512pt" xmlns="http://www.w3.org/2000/svg"><path d="m26.035156 174.644531h260.335938v320h-260.335938zm0 0" fill="#35495e"/><path d="m251.660156 225.628906v208.269532c0 4.792968-3.882812 8.679687-8.675781 8.679687h-173.5625c-4.789063 0-8.675781-3.886719-8.675781-8.679687v-208.269532c0-4.792968 3.886718-8.679687 8.675781-8.679687h173.5625c4.792969 0 8.675781 3.886719 8.675781 8.679687zm0 0" fill="#f0c419"/><path d="m246.367188 217.644531c-42.433594 3.902344-159.933594 27.507813-185.621094 170.261719v-162.277344c0-4.792968 3.886718-8.679687 8.675781-8.679687h173.5625c1.160156.003906 2.3125.238281 3.382813.695312zm0 0" fill="#f3d55b"/><path d="m17.355469 477.289062h277.695312c9.585938 0 17.355469 7.769532 17.355469 17.355469v17.355469h-312.40625v-17.355469c0-9.585937 7.769531-17.355469 17.355469-17.355469zm0 0" fill="#2c3e50"/><path d="m8.679688 147.527344h295.050781c4.792969 0 8.675781 3.882812 8.675781 8.675781v8.679687c0 9.582032-7.769531 17.355469-17.355469 17.355469h-277.695312c-9.585938 0-17.355469-7.773437-17.355469-17.355469v-8.679687c0-4.792969 3.886719-8.675781 8.679688-8.675781zm0 0" fill="#2c3e50"/><path d="m156.203125 364.472656c-4.792969 0-8.675781-3.882812-8.675781-8.675781v-34.710937c0-4.792969 3.882812-8.679688 8.675781-8.679688s8.679687 3.886719 8.679687 8.679688v34.710937c0 4.792969-3.886718 8.675781-8.679687 8.675781zm0 0" fill="#b19046"/><path d="m156.203125 121.492188c-33.546875 0-60.746094-27.199219-60.746094-60.746094 0-33.550782 27.199219-60.746094 60.746094-60.746094 33.550781 0 60.746094 27.195312 60.746094 60.746094-.039063 33.53125-27.210938 60.707031-60.746094 60.746094zm0-104.136719c-23.964844 0-43.390625 19.425781-43.390625 43.390625s19.425781 43.390625 43.390625 43.390625 43.390625-19.425781 43.390625-43.390625c-.027344-23.953125-19.4375-43.363282-43.390625-43.390625zm0 0" fill="#95a5a5"/><path d="m156.203125 112.8125c14.378906 0 26.035156 11.65625 26.035156 26.035156v8.679688h-52.070312v-8.679688c0-14.378906 11.65625-26.035156 26.035156-26.035156zm0 0" fill="#7f8c8d"/><path d="m182.238281 300.257812c-1.589843 12.855469-13.144531 22.097657-26.035156 20.828126-12.890625 1.269531-24.441406-7.972657-26.035156-20.828126 0-11.5 26.035156-48.597656 26.035156-48.597656s26.035156 37.097656 26.035156 48.597656zm0 0" fill="#f29c1f"/><path d="m199.59375 373.152344v69.425781h-86.78125v-69.425781c.03125-9.574219 7.785156-17.328125 17.355469-17.355469h52.070312c9.574219.027344 17.328125 7.78125 17.355469 17.355469zm0 0" fill="#f9eab0"/><g fill="#cbb292"><path d="m173.558594 355.796875v26.035156c0 4.792969-3.882813 8.675781-8.675782 8.675781-4.792968 0-8.679687-3.882812-8.679687-8.675781v-26.035156zm0 0"/><path d="m164.882812 416.542969c-1.136718-.015625-2.253906-.25-3.300781-.695313-2.179687-.789062-3.894531-2.503906-4.683593-4.6875-.925782-2.097656-.925782-4.492187 0-6.59375.4375-1.050781 1.054687-2.019531 1.820312-2.863281.832031-.785156 1.804688-1.402344 2.863281-1.824219 3.234375-1.355468 6.964844-.636718 9.460938 1.824219 1.585937 1.664063 2.484375 3.863281 2.515625 6.160156-.011719 1.136719-.25 2.253907-.695313 3.296875-.417969 1.0625-1.035156 2.035156-1.820312 2.867188-1.664063 1.582031-3.863281 2.480468-6.160157 2.515625zm0 0"/></g></svg>