<svg class="relie" xmlns="http://www.w3.org/2000/svg" viewBox="0 0 100 100" preserveAspectRatio="xMidYMid meet" x="0" y="0" overflow="visible" xmlns:xlink="http://www.w3.org/1999/xlink">

		<defs>  <g id="leaf1" transform="skewX(-18) skewY(-18)"><path d="M 0,0 
					q 0.25375 0.0025 0.125,0.8525 q 0.385 0.13 0.125,1.144 q 0.26 0.2575 -0.125,0.7535 q 0.38625 0.00375 0.125,0.7205 q 0.00625 0.0025 -0.25,1 
					M 0,0 
					q -0.25375 0.0025 -0.125,0.8525 q -0.385 0.13 -0.125,1.144 q -0.26 0.2575 0.125,0.7535 q -0.38625 0.00375 -0.125,0.7205 q -0.00625 0.0025 0.25,1 " 
					stroke-width ="0.2" /></g>  <g id="leaf2" transform="skewX(-18) skewY(-18)"><path d="M 0,0 
					q 0.5075 0.005 0.25,1.705 q 0.77 0.26 0.25,2.288 q 0.52 0.515 -0.25,1.507 q 0.7725 0.0075 0.25,1.441 q 0.0125 0.005 -0.5,1 
					M 0,0 
					q -0.5075 0.005 -0.25,1.705 q -0.77 0.26 -0.25,2.288 q -0.52 0.515 0.25,1.507 q -0.7725 0.0075 -0.25,1.441 q -0.0125 0.005 0.5,1 " 
					stroke-width ="0.2" /></g>  <g id="leaf3" transform="skewX(11) skewY(11)"><path d="M 0,0 
					q 0.76125 0.0075 0.375,2.5575 q 1.155 0.39 0.375,3.432 q 0.78 0.7725 -0.375,2.2605 q 1.15875 0.01125 0.375,2.1615 q 0.01875 0.0075 -0.75,1 
					M 0,0 
					q -0.76125 0.0075 -0.375,2.5575 q -1.155 0.39 -0.375,3.432 q -0.78 0.7725 0.375,2.2605 q -1.15875 0.01125 -0.375,2.1615 q -0.01875 0.0075 0.75,1 " 
					stroke-width ="0.2" /></g>  <g id="leaf4" transform="skewX(16) skewY(16)"><path d="M 0,0 
					q 1.015 0.01 0.5,3.41 q 1.54 0.52 0.5,4.576 q 1.04 1.03 -0.5,3.014 q 1.545 0.015 0.5,2.882 q 0.025 0.01 -1,1 
					M 0,0 
					q -1.015 0.01 -0.5,3.41 q -1.54 0.52 -0.5,4.576 q -1.04 1.03 0.5,3.014 q -1.545 0.015 -0.5,2.882 q -0.025 0.01 1,1 " 
					stroke-width ="0.2" /></g>  <g id="leaf5" transform="skewX(-11) skewY(-11)"><path d="M 0,0 
					q 1.26875 0.0125 0.625,4.2625 q 1.925 0.65 0.625,5.72 q 1.3 1.2875 -0.625,3.7675 q 1.93125 0.01875 0.625,3.6025 q 0.03125 0.0125 -1.25,1 
					M 0,0 
					q -1.26875 0.0125 -0.625,4.2625 q -1.925 0.65 -0.625,5.72 q -1.3 1.2875 0.625,3.7675 q -1.93125 0.01875 -0.625,3.6025 q -0.03125 0.0125 1.25,1 " 
					stroke-width ="0.2" /></g>  <g id="leaf6" transform="skewX(-7) skewY(-7)"><path d="M 0,0 
					q 1.5225 0.015 0.75,5.115 q 2.31 0.78 0.75,6.864 q 1.56 1.545 -0.75,4.521 q 2.3175 0.0225 0.75,4.323 q 0.0375 0.015 -1.5,1 
					M 0,0 
					q -1.5225 0.015 -0.75,5.115 q -2.31 0.78 -0.75,6.864 q -1.56 1.545 0.75,4.521 q -2.3175 0.0225 -0.75,4.323 q -0.0375 0.015 1.5,1 " 
					stroke-width ="0.2" /></g>  <g id="leaf7" transform="skewX(4) skewY(4)"><path d="M 0,0 
					q 1.77625 0.0175 0.875,5.9675 q 2.695 0.91 0.875,8.008 q 1.82 1.8025 -0.875,5.2745 q 2.70375 0.02625 0.875,5.0435 q 0.04375 0.0175 -1.75,1 
					M 0,0 
					q -1.77625 0.0175 -0.875,5.9675 q -2.695 0.91 -0.875,8.008 q -1.82 1.8025 0.875,5.2745 q -2.70375 0.02625 -0.875,5.0435 q -0.04375 0.0175 1.75,1 " 
					stroke-width ="0.2" /></g>  <g id="leaf8" transform="skewX(-20) skewY(-20)"><path d="M 0,0 
					q 2.03 0.02 1,6.82 q 3.08 1.04 1,9.152 q 2.08 2.06 -1,6.028 q 3.09 0.03 1,5.764 q 0.05 0.02 -2,1 
					M 0,0 
					q -2.03 0.02 -1,6.82 q -3.08 1.04 -1,9.152 q -2.08 2.06 1,6.028 q -3.09 0.03 -1,5.764 q -0.05 0.02 2,1 " 
					stroke-width ="0.2" /></g><g id="flower1"><path d="M 0,1.25 
						q 0.05 0.05 0.125,0.41666666666667 q 0.175 0.05 0.25,0.41666666666667 q 0.05 0.05 -0.375,1 
						M 0,1.25 
						q -0.05 0.05 -0.125,0.41666666666667 q -0.175 0.05 -0.25,0.41666666666667 q -0.05 0.05 0.375,1 " 
						transform="rotate(0 0,1.25 )"
						stroke-width ="0.1"
						fill="rgb(49,132,48)"
						/><path d="M 0,1.25 
						q 0.05 0.05 0.125,0.41666666666667 q 0.175 0.05 0.25,0.41666666666667 q 0.05 0.05 -0.375,1 
						M 0,1.25 
						q -0.05 0.05 -0.125,0.41666666666667 q -0.175 0.05 -0.25,0.41666666666667 q -0.05 0.05 0.375,1 " 
						transform="rotate(36 0,1.25 )"
						stroke-width ="0.1"
						fill="rgb(50.5,117.5,53.5)"
						/><path d="M 0,1.25 
						q 0.05 0.05 0.125,0.41666666666667 q 0.175 0.05 0.25,0.41666666666667 q 0.05 0.05 -0.375,1 
						M 0,1.25 
						q -0.05 0.05 -0.125,0.41666666666667 q -0.175 0.05 -0.25,0.41666666666667 q -0.05 0.05 0.375,1 " 
						transform="rotate(72 0,1.25 )"
						stroke-width ="0.1"
						fill="rgb(47,121,52)"
						/><path d="M 0,1.25 
						q 0.05 0.05 0.125,0.41666666666667 q 0.175 0.05 0.25,0.41666666666667 q 0.05 0.05 -0.375,1 
						M 0,1.25 
						q -0.05 0.05 -0.125,0.41666666666667 q -0.175 0.05 -0.25,0.41666666666667 q -0.05 0.05 0.375,1 " 
						transform="rotate(108 0,1.25 )"
						stroke-width ="0.1"
						fill="rgb(57.5,118.5,36.5)"
						/></g><g id="flower2"><path d="M 0,2.5 
						q 0.1 0.1 0.25,0.83333333333333 q 0.35 0.1 0.5,0.83333333333333 q 0.1 0.1 -0.75,1 
						M 0,2.5 
						q -0.1 0.1 -0.25,0.83333333333333 q -0.35 0.1 -0.5,0.83333333333333 q -0.1 0.1 0.75,1 " 
						transform="rotate(0 0,2.5 )"
						stroke-width ="0.1"
						fill="rgb(64,128,43)"
						/><circle cx="0" cy="2.5" r="0.95" fill="rgb(82,172,125)"/><circle cx="0.04" cy="2.54" r="0.63333333333333" fill="rgb(95.5,187.5,138.5)"/><path d="M 0,2.5 
						q 0.1 0.1 0.25,0.83333333333333 q 0.35 0.1 0.5,0.83333333333333 q 0.1 0.1 -0.75,1 
						M 0,2.5 
						q -0.1 0.1 -0.25,0.83333333333333 q -0.35 0.1 -0.5,0.83333333333333 q -0.1 0.1 0.75,1 " 
						transform="rotate(72 0,2.5 )"
						stroke-width ="0.1"
						fill="rgb(54.5,116.5,46.5)"
						/><circle cx="0" cy="2.5" r="0.95" fill="rgb(82,172,125)"/><circle cx="-0.07" cy="2.58" r="0.63333333333333" fill="rgb(95.5,187.5,138.5)"/><path d="M 0,2.5 
						q 0.1 0.1 0.25,0.83333333333333 q 0.35 0.1 0.5,0.83333333333333 q 0.1 0.1 -0.75,1 
						M 0,2.5 
						q -0.1 0.1 -0.25,0.83333333333333 q -0.35 0.1 -0.5,0.83333333333333 q -0.1 0.1 0.75,1 " 
						transform="rotate(144 0,2.5 )"
						stroke-width ="0.1"
						fill="rgb(60,130,45)"
						/><circle cx="0" cy="2.5" r="0.95" fill="rgb(82,172,125)"/><circle cx="0.03" cy="2.58" r="0.63333333333333" fill="rgb(95.5,187.5,138.5)"/><path d="M 0,2.5 
						q 0.1 0.1 0.25,0.83333333333333 q 0.35 0.1 0.5,0.83333333333333 q 0.1 0.1 -0.75,1 
						M 0,2.5 
						q -0.1 0.1 -0.25,0.83333333333333 q -0.35 0.1 -0.5,0.83333333333333 q -0.1 0.1 0.75,1 " 
						transform="rotate(216 0,2.5 )"
						stroke-width ="0.1"
						fill="rgb(46.5,114.5,41.5)"
						/><circle cx="0" cy="2.5" r="0.95" fill="rgb(82,172,125)"/><circle cx="-0.06" cy="2.48" r="0.63333333333333" fill="rgb(95.5,187.5,138.5)"/><path d="M 0,2.5 
						q 0.1 0.1 0.25,0.83333333333333 q 0.35 0.1 0.5,0.83333333333333 q 0.1 0.1 -0.75,1 
						M 0,2.5 
						q -0.1 0.1 -0.25,0.83333333333333 q -0.35 0.1 -0.5,0.83333333333333 q -0.1 0.1 0.75,1 " 
						transform="rotate(288 0,2.5 )"
						stroke-width ="0.1"
						fill="rgb(45,124,41)"
						/><circle cx="0" cy="2.5" r="0.95" fill="rgb(82,172,125)"/><circle cx="0.04" cy="2.51" r="0.63333333333333" fill="rgb(95.5,187.5,138.5)"/><path d="M 0,2.5 
						q 0.1 0.1 0.25,0.83333333333333 q 0.35 0.1 0.5,0.83333333333333 q 0.1 0.1 -0.75,1 
						M 0,2.5 
						q -0.1 0.1 -0.25,0.83333333333333 q -0.35 0.1 -0.5,0.83333333333333 q -0.1 0.1 0.75,1 " 
						transform="rotate(360 0,2.5 )"
						stroke-width ="0.1"
						fill="rgb(47.5,110.5,43.5)"
						/><circle cx="0" cy="2.5" r="0.95" fill="rgb(82,172,125)"/><circle cx="-0.1" cy="2.4" r="0.63333333333333" fill="rgb(95.5,187.5,138.5)"/><path d="M 0,2.5 
						q 0.1 0.1 0.25,0.83333333333333 q 0.35 0.1 0.5,0.83333333333333 q 0.1 0.1 -0.75,1 
						M 0,2.5 
						q -0.1 0.1 -0.25,0.83333333333333 q -0.35 0.1 -0.5,0.83333333333333 q -0.1 0.1 0.75,1 " 
						transform="rotate(432 0,2.5 )"
						stroke-width ="0.1"
						fill="rgb(42,109,28)"
						/><circle cx="0" cy="2.5" r="0.95" fill="rgb(82,172,125)"/><circle cx="0.02" cy="2.53" r="0.63333333333333" fill="rgb(95.5,187.5,138.5)"/><path d="M 0,2.5 
						q 0.1 0.1 0.25,0.83333333333333 q 0.35 0.1 0.5,0.83333333333333 q 0.1 0.1 -0.75,1 
						M 0,2.5 
						q -0.1 0.1 -0.25,0.83333333333333 q -0.35 0.1 -0.5,0.83333333333333 q -0.1 0.1 0.75,1 " 
						transform="rotate(504 0,2.5 )"
						stroke-width ="0.1"
						fill="rgb(38.5,109.5,35.5)"
						/><circle cx="0" cy="2.5" r="0.95" fill="rgb(82,172,125)"/><circle cx="0.1" cy="2.49" r="0.63333333333333" fill="rgb(95.5,187.5,138.5)"/><path d="M 0,2.5 
						q 0.1 0.1 0.25,0.83333333333333 q 0.35 0.1 0.5,0.83333333333333 q 0.1 0.1 -0.75,1 
						M 0,2.5 
						q -0.1 0.1 -0.25,0.83333333333333 q -0.35 0.1 -0.5,0.83333333333333 q -0.1 0.1 0.75,1 " 
						transform="rotate(576 0,2.5 )"
						stroke-width ="0.1"
						fill="rgb(35,116,27)"
						/><circle cx="0" cy="2.5" r="0.95" fill="rgb(82,172,125)"/><circle cx="0.1" cy="2.53" r="0.63333333333333" fill="rgb(95.5,187.5,138.5)"/><path d="M 0,2.5 
						q 0.1 0.1 0.25,0.83333333333333 q 0.35 0.1 0.5,0.83333333333333 q 0.1 0.1 -0.75,1 
						M 0,2.5 
						q -0.1 0.1 -0.25,0.83333333333333 q -0.35 0.1 -0.5,0.83333333333333 q -0.1 0.1 0.75,1 " 
						transform="rotate(648 0,2.5 )"
						stroke-width ="0.1"
						fill="rgb(28.5,112.5,30.5)"
						/><circle cx="0" cy="2.5" r="0.95" fill="rgb(82,172,125)"/><circle cx="0.08" cy="2.56" r="0.63333333333333" fill="rgb(95.5,187.5,138.5)"/><path d="M 0,2.5 
						q 0.1 0.1 0.25,0.83333333333333 q 0.35 0.1 0.5,0.83333333333333 q 0.1 0.1 -0.75,1 
						M 0,2.5 
						q -0.1 0.1 -0.25,0.83333333333333 q -0.35 0.1 -0.5,0.83333333333333 q -0.1 0.1 0.75,1 " 
						transform="rotate(720 0,2.5 )"
						stroke-width ="0.1"
						fill="rgb(37,97,23)"
						/><circle cx="0" cy="2.5" r="0.95" fill="rgb(82,172,125)"/><circle cx="0.03" cy="2.5" r="0.63333333333333" fill="rgb(95.5,187.5,138.5)"/><path d="M 0,2.5 
						q 0.1 0.1 0.25,0.83333333333333 q 0.35 0.1 0.5,0.83333333333333 q 0.1 0.1 -0.75,1 
						M 0,2.5 
						q -0.1 0.1 -0.25,0.83333333333333 q -0.35 0.1 -0.5,0.83333333333333 q -0.1 0.1 0.75,1 " 
						transform="rotate(792 0,2.5 )"
						stroke-width ="0.1"
						fill="rgb(20.5,97.5,17.5)"
						/><circle cx="0" cy="2.5" r="0.95" fill="rgb(82,172,125)"/><circle cx="-0.04" cy="2.55" r="0.63333333333333" fill="rgb(95.5,187.5,138.5)"/><path d="M 0,2.5 
						q 0.1 0.1 0.25,0.83333333333333 q 0.35 0.1 0.5,0.83333333333333 q 0.1 0.1 -0.75,1 
						M 0,2.5 
						q -0.1 0.1 -0.25,0.83333333333333 q -0.35 0.1 -0.5,0.83333333333333 q -0.1 0.1 0.75,1 " 
						transform="rotate(864 0,2.5 )"
						stroke-width ="0.1"
						fill="rgb(26,98,27)"
						/><circle cx="0" cy="2.5" r="0.95" fill="rgb(82,172,125)"/><circle cx="-0.02" cy="2.56" r="0.63333333333333" fill="rgb(95.5,187.5,138.5)"/><path d="M 0,2.5 
						q 0.1 0.1 0.25,0.83333333333333 q 0.35 0.1 0.5,0.83333333333333 q 0.1 0.1 -0.75,1 
						M 0,2.5 
						q -0.1 0.1 -0.25,0.83333333333333 q -0.35 0.1 -0.5,0.83333333333333 q -0.1 0.1 0.75,1 " 
						transform="rotate(936 0,2.5 )"
						stroke-width ="0.1"
						fill="rgb(17.5,92.5,9.5)"
						/><circle cx="0" cy="2.5" r="0.95" fill="rgb(82,172,125)"/><circle cx="-0.03" cy="2.44" r="0.63333333333333" fill="rgb(95.5,187.5,138.5)"/><path d="M 0,2.5 
						q 0.1 0.1 0.25,0.83333333333333 q 0.35 0.1 0.5,0.83333333333333 q 0.1 0.1 -0.75,1 
						M 0,2.5 
						q -0.1 0.1 -0.25,0.83333333333333 q -0.35 0.1 -0.5,0.83333333333333 q -0.1 0.1 0.75,1 " 
						transform="rotate(1008 0,2.5 )"
						stroke-width ="0.1"
						fill="rgb(13,92,22)"
						/><circle cx="0" cy="2.5" r="0.95" fill="rgb(82,172,125)"/><circle cx="0.05" cy="2.54" r="0.63333333333333" fill="rgb(95.5,187.5,138.5)"/><path d="M 0,2.5 
						q 0.1 0.1 0.25,0.83333333333333 q 0.35 0.1 0.5,0.83333333333333 q 0.1 0.1 -0.75,1 
						M 0,2.5 
						q -0.1 0.1 -0.25,0.83333333333333 q -0.35 0.1 -0.5,0.83333333333333 q -0.1 0.1 0.75,1 " 
						transform="rotate(1080 0,2.5 )"
						stroke-width ="0.1"
						fill="rgb(21.5,93.5,21.5)"
						/><circle cx="0" cy="2.5" r="0.95" fill="rgb(82,172,125)"/><circle cx="0.08" cy="2.51" r="0.63333333333333" fill="rgb(95.5,187.5,138.5)"/></g><g id="flower3"><path d="M 0,3.75 
						q 0.15 0.15 0.375,1.25 q 0.525 0.15 0.75,1.25 q 0.15 0.15 -1.125,1.25 
						M 0,3.75 
						q -0.15 0.15 -0.375,1.25 q -0.525 0.15 -0.75,1.25 q -0.15 0.15 1.125,1.25 " 
						transform="rotate(0 0,3.75 )"
						stroke-width ="0.1"
						fill="rgb(57,133,44)"
						/><circle cx="0" cy="3.75" r="1.425" fill="rgb(80,174,121)"/><circle cx="0.06" cy="3.81" r="0.95" fill="rgb(102.5,183.5,135.5)"/><path d="M 0,3.75 
						q 0.15 0.15 0.375,1.25 q 0.525 0.15 0.75,1.25 q 0.15 0.15 -1.125,1.25 
						M 0,3.75 
						q -0.15 0.15 -0.375,1.25 q -0.525 0.15 -0.75,1.25 q -0.15 0.15 1.125,1.25 " 
						transform="rotate(72 0,3.75 )"
						stroke-width ="0.1"
						fill="rgb(64.5,131.5,41.5)"
						/><circle cx="0" cy="3.75" r="1.425" fill="rgb(80,174,121)"/><circle cx="0.04" cy="3.7" r="0.95" fill="rgb(102.5,183.5,135.5)"/><path d="M 0,3.75 
						q 0.15 0.15 0.375,1.25 q 0.525 0.15 0.75,1.25 q 0.15 0.15 -1.125,1.25 
						M 0,3.75 
						q -0.15 0.15 -0.375,1.25 q -0.525 0.15 -0.75,1.25 q -0.15 0.15 1.125,1.25 " 
						transform="rotate(144 0,3.75 )"
						stroke-width ="0.1"
						fill="rgb(45,130,41)"
						/><circle cx="0" cy="3.75" r="1.425" fill="rgb(80,174,121)"/><circle cx="-0.04" cy="3.83" r="0.95" fill="rgb(102.5,183.5,135.5)"/><path d="M 0,3.75 
						q 0.15 0.15 0.375,1.25 q 0.525 0.15 0.75,1.25 q 0.15 0.15 -1.125,1.25 
						M 0,3.75 
						q -0.15 0.15 -0.375,1.25 q -0.525 0.15 -0.75,1.25 q -0.15 0.15 1.125,1.25 " 
						transform="rotate(216 0,3.75 )"
						stroke-width ="0.1"
						fill="rgb(44.5,113.5,33.5)"
						/><circle cx="0" cy="3.75" r="1.425" fill="rgb(80,174,121)"/><circle cx="0.01" cy="3.77" r="0.95" fill="rgb(102.5,183.5,135.5)"/><path d="M 0,3.75 
						q 0.15 0.15 0.375,1.25 q 0.525 0.15 0.75,1.25 q 0.15 0.15 -1.125,1.25 
						M 0,3.75 
						q -0.15 0.15 -0.375,1.25 q -0.525 0.15 -0.75,1.25 q -0.15 0.15 1.125,1.25 " 
						transform="rotate(288 0,3.75 )"
						stroke-width ="0.1"
						fill="rgb(48,122,38)"
						/><circle cx="0" cy="3.75" r="1.425" fill="rgb(80,174,121)"/><circle cx="-0.04" cy="3.77" r="0.95" fill="rgb(102.5,183.5,135.5)"/><path d="M 0,3.75 
						q 0.15 0.15 0.375,1.25 q 0.525 0.15 0.75,1.25 q 0.15 0.15 -1.125,1.25 
						M 0,3.75 
						q -0.15 0.15 -0.375,1.25 q -0.525 0.15 -0.75,1.25 q -0.15 0.15 1.125,1.25 " 
						transform="rotate(360 0,3.75 )"
						stroke-width ="0.1"
						fill="rgb(47.5,106.5,35.5)"
						/><circle cx="0" cy="3.75" r="1.425" fill="rgb(80,174,121)"/><circle cx="-0.08" cy="3.79" r="0.95" fill="rgb(102.5,183.5,135.5)"/><path d="M 0,3.75 
						q 0.15 0.15 0.375,1.25 q 0.525 0.15 0.75,1.25 q 0.15 0.15 -1.125,1.25 
						M 0,3.75 
						q -0.15 0.15 -0.375,1.25 q -0.525 0.15 -0.75,1.25 q -0.15 0.15 1.125,1.25 " 
						transform="rotate(432 0,3.75 )"
						stroke-width ="0.1"
						fill="rgb(38,109,24)"
						/><circle cx="0" cy="3.75" r="1.425" fill="rgb(80,174,121)"/><circle cx="-0.04" cy="3.69" r="0.95" fill="rgb(102.5,183.5,135.5)"/><path d="M 0,3.75 
						q 0.15 0.15 0.375,1.25 q 0.525 0.15 0.75,1.25 q 0.15 0.15 -1.125,1.25 
						M 0,3.75 
						q -0.15 0.15 -0.375,1.25 q -0.525 0.15 -0.75,1.25 q -0.15 0.15 1.125,1.25 " 
						transform="rotate(504 0,3.75 )"
						stroke-width ="0.1"
						fill="rgb(48.5,104.5,40.5)"
						/><circle cx="0" cy="3.75" r="1.425" fill="rgb(80,174,121)"/><circle cx="-0.05" cy="3.7" r="0.95" fill="rgb(102.5,183.5,135.5)"/><path d="M 0,3.75 
						q 0.15 0.15 0.375,1.25 q 0.525 0.15 0.75,1.25 q 0.15 0.15 -1.125,1.25 
						M 0,3.75 
						q -0.15 0.15 -0.375,1.25 q -0.525 0.15 -0.75,1.25 q -0.15 0.15 1.125,1.25 " 
						transform="rotate(576 0,3.75 )"
						stroke-width ="0.1"
						fill="rgb(33,104,29)"
						/><circle cx="0" cy="3.75" r="1.425" fill="rgb(80,174,121)"/><circle cx="0.05" cy="3.67" r="0.95" fill="rgb(102.5,183.5,135.5)"/><path d="M 0,3.75 
						q 0.15 0.15 0.375,1.25 q 0.525 0.15 0.75,1.25 q 0.15 0.15 -1.125,1.25 
						M 0,3.75 
						q -0.15 0.15 -0.375,1.25 q -0.525 0.15 -0.75,1.25 q -0.15 0.15 1.125,1.25 " 
						transform="rotate(648 0,3.75 )"
						stroke-width ="0.1"
						fill="rgb(34.5,103.5,17.5)"
						/><circle cx="0" cy="3.75" r="1.425" fill="rgb(80,174,121)"/><circle cx="0.05" cy="3.7" r="0.95" fill="rgb(102.5,183.5,135.5)"/><path d="M 0,3.75 
						q 0.15 0.15 0.375,1.25 q 0.525 0.15 0.75,1.25 q 0.15 0.15 -1.125,1.25 
						M 0,3.75 
						q -0.15 0.15 -0.375,1.25 q -0.525 0.15 -0.75,1.25 q -0.15 0.15 1.125,1.25 " 
						transform="rotate(720 0,3.75 )"
						stroke-width ="0.1"
						fill="rgb(28,94,26)"
						/><circle cx="0" cy="3.75" r="1.425" fill="rgb(80,174,121)"/><circle cx="0.07" cy="3.84" r="0.95" fill="rgb(102.5,183.5,135.5)"/><path d="M 0,3.75 
						q 0.15 0.15 0.375,1.25 q 0.525 0.15 0.75,1.25 q 0.15 0.15 -1.125,1.25 
						M 0,3.75 
						q -0.15 0.15 -0.375,1.25 q -0.525 0.15 -0.75,1.25 q -0.15 0.15 1.125,1.25 " 
						transform="rotate(792 0,3.75 )"
						stroke-width ="0.1"
						fill="rgb(39.5,109.5,13.5)"
						/><circle cx="0" cy="3.75" r="1.425" fill="rgb(80,174,121)"/><circle cx="-0.07" cy="3.85" r="0.95" fill="rgb(102.5,183.5,135.5)"/><path d="M 0,3.75 
						q 0.15 0.15 0.375,1.25 q 0.525 0.15 0.75,1.25 q 0.15 0.15 -1.125,1.25 
						M 0,3.75 
						q -0.15 0.15 -0.375,1.25 q -0.525 0.15 -0.75,1.25 q -0.15 0.15 1.125,1.25 " 
						transform="rotate(864 0,3.75 )"
						stroke-width ="0.1"
						fill="rgb(34,103,10)"
						/><circle cx="0" cy="3.75" r="1.425" fill="rgb(80,174,121)"/><circle cx="-0.08" cy="3.83" r="0.95" fill="rgb(102.5,183.5,135.5)"/><path d="M 0,3.75 
						q 0.15 0.15 0.375,1.25 q 0.525 0.15 0.75,1.25 q 0.15 0.15 -1.125,1.25 
						M 0,3.75 
						q -0.15 0.15 -0.375,1.25 q -0.525 0.15 -0.75,1.25 q -0.15 0.15 1.125,1.25 " 
						transform="rotate(936 0,3.75 )"
						stroke-width ="0.1"
						fill="rgb(29.5,93.5,10.5)"
						/><circle cx="0" cy="3.75" r="1.425" fill="rgb(80,174,121)"/><circle cx="-0.09" cy="3.74" r="0.95" fill="rgb(102.5,183.5,135.5)"/><path d="M 0,3.75 
						q 0.15 0.15 0.375,1.25 q 0.525 0.15 0.75,1.25 q 0.15 0.15 -1.125,1.25 
						M 0,3.75 
						q -0.15 0.15 -0.375,1.25 q -0.525 0.15 -0.75,1.25 q -0.15 0.15 1.125,1.25 " 
						transform="rotate(1008 0,3.75 )"
						stroke-width ="0.1"
						fill="rgb(16,83,22)"
						/><circle cx="0" cy="3.75" r="1.425" fill="rgb(80,174,121)"/><circle cx="0.07" cy="3.74" r="0.95" fill="rgb(102.5,183.5,135.5)"/><path d="M 0,3.75 
						q 0.15 0.15 0.375,1.25 q 0.525 0.15 0.75,1.25 q 0.15 0.15 -1.125,1.25 
						M 0,3.75 
						q -0.15 0.15 -0.375,1.25 q -0.525 0.15 -0.75,1.25 q -0.15 0.15 1.125,1.25 " 
						transform="rotate(1080 0,3.75 )"
						stroke-width ="0.1"
						fill="rgb(18.5,90.5,2.5)"
						/><circle cx="0" cy="3.75" r="1.425" fill="rgb(80,174,121)"/><circle cx="0" cy="3.74" r="0.95" fill="rgb(102.5,183.5,135.5)"/></g><g id="flower4"><path d="M 0,5 
						q 0.2 0.2 0.5,1.6666666666667 q 0.7 0.2 1,1.6666666666667 q 0.2 0.2 -1.5,1.6666666666667 
						M 0,5 
						q -0.2 0.2 -0.5,1.6666666666667 q -0.7 0.2 -1,1.6666666666667 q -0.2 0.2 1.5,1.6666666666667 " 
						transform="rotate(0 0,5 )"
						stroke-width ="0.1"
						fill="rgb(60,128,48)"
						/><path d="M 0,5 
						q 0.2 0.2 0.5,1.6666666666667 q 0.7 0.2 1,1.6666666666667 q 0.2 0.2 -1.5,1.6666666666667 
						M 0,5 
						q -0.2 0.2 -0.5,1.6666666666667 q -0.7 0.2 -1,1.6666666666667 q -0.2 0.2 1.5,1.6666666666667 " 
						transform="rotate(36 0,5 )"
						stroke-width ="0.1"
						fill="rgb(53.5,115.5,45.5)"
						/><path d="M 0,5 
						q 0.2 0.2 0.5,1.6666666666667 q 0.7 0.2 1,1.6666666666667 q 0.2 0.2 -1.5,1.6666666666667 
						M 0,5 
						q -0.2 0.2 -0.5,1.6666666666667 q -0.7 0.2 -1,1.6666666666667 q -0.2 0.2 1.5,1.6666666666667 " 
						transform="rotate(72 0,5 )"
						stroke-width ="0.1"
						fill="rgb(62,127,40)"
						/><path d="M 0,5 
						q 0.2 0.2 0.5,1.6666666666667 q 0.7 0.2 1,1.6666666666667 q 0.2 0.2 -1.5,1.6666666666667 
						M 0,5 
						q -0.2 0.2 -0.5,1.6666666666667 q -0.7 0.2 -1,1.6666666666667 q -0.2 0.2 1.5,1.6666666666667 " 
						transform="rotate(108 0,5 )"
						stroke-width ="0.1"
						fill="rgb(49.5,126.5,37.5)"
						/></g><g id="flower5"><path d="M 0,6.25 
						q 0.25 0.25 0.625,2.0833333333333 q 0.875 0.25 1.25,2.0833333333333 q 0.25 0.25 -1.875,2.0833333333333 
						M 0,6.25 
						q -0.25 0.25 -0.625,2.0833333333333 q -0.875 0.25 -1.25,2.0833333333333 q -0.25 0.25 1.875,2.0833333333333 " 
						transform="rotate(0 0,6.25 )"
						stroke-width ="0.1"
						fill="rgb(48,119,50)"
						/><path d="M 0,6.25 
						q 0.25 0.25 0.625,2.0833333333333 q 0.875 0.25 1.25,2.0833333333333 q 0.25 0.25 -1.875,2.0833333333333 
						M 0,6.25 
						q -0.25 0.25 -0.625,2.0833333333333 q -0.875 0.25 -1.25,2.0833333333333 q -0.25 0.25 1.875,2.0833333333333 " 
						transform="rotate(36 0,6.25 )"
						stroke-width ="0.1"
						fill="rgb(49.5,121.5,39.5)"
						/><path d="M 0,6.25 
						q 0.25 0.25 0.625,2.0833333333333 q 0.875 0.25 1.25,2.0833333333333 q 0.25 0.25 -1.875,2.0833333333333 
						M 0,6.25 
						q -0.25 0.25 -0.625,2.0833333333333 q -0.875 0.25 -1.25,2.0833333333333 q -0.25 0.25 1.875,2.0833333333333 " 
						transform="rotate(72 0,6.25 )"
						stroke-width ="0.1"
						fill="rgb(45,114,49)"
						/><path d="M 0,6.25 
						q 0.25 0.25 0.625,2.0833333333333 q 0.875 0.25 1.25,2.0833333333333 q 0.25 0.25 -1.875,2.0833333333333 
						M 0,6.25 
						q -0.25 0.25 -0.625,2.0833333333333 q -0.875 0.25 -1.25,2.0833333333333 q -0.25 0.25 1.875,2.0833333333333 " 
						transform="rotate(108 0,6.25 )"
						stroke-width ="0.1"
						fill="rgb(46.5,109.5,38.5)"
						/></g><g id="flower6"><path d="M 0,7.5 
						q 0.3 0.3 0.75,2.5 q 1.05 0.3 1.5,2.5 q 0.3 0.3 -2.25,2.5 
						M 0,7.5 
						q -0.3 0.3 -0.75,2.5 q -1.05 0.3 -1.5,2.5 q -0.3 0.3 2.25,2.5 " 
						transform="rotate(0 0,7.5 )"
						stroke-width ="0.1"
						fill="rgb(67,135,49)"
						/><circle cx="0" cy="7.5" r="2.85" fill="rgb(84,172,127)"/><circle cx="-0.04" cy="7.4" r="1.9" fill="rgb(89.5,183.5,133.5)"/><path d="M 0,7.5 
						q 0.3 0.3 0.75,2.5 q 1.05 0.3 1.5,2.5 q 0.3 0.3 -2.25,2.5 
						M 0,7.5 
						q -0.3 0.3 -0.75,2.5 q -1.05 0.3 -1.5,2.5 q -0.3 0.3 2.25,2.5 " 
						transform="rotate(72 0,7.5 )"
						stroke-width ="0.1"
						fill="rgb(47.5,134.5,54.5)"
						/><circle cx="0" cy="7.5" r="2.85" fill="rgb(84,172,127)"/><circle cx="-0.07" cy="7.44" r="1.9" fill="rgb(89.5,183.5,133.5)"/><path d="M 0,7.5 
						q 0.3 0.3 0.75,2.5 q 1.05 0.3 1.5,2.5 q 0.3 0.3 -2.25,2.5 
						M 0,7.5 
						q -0.3 0.3 -0.75,2.5 q -1.05 0.3 -1.5,2.5 q -0.3 0.3 2.25,2.5 " 
						transform="rotate(144 0,7.5 )"
						stroke-width ="0.1"
						fill="rgb(57,116,38)"
						/><circle cx="0" cy="7.5" r="2.85" fill="rgb(84,172,127)"/><circle cx="0.02" cy="7.55" r="1.9" fill="rgb(89.5,183.5,133.5)"/><path d="M 0,7.5 
						q 0.3 0.3 0.75,2.5 q 1.05 0.3 1.5,2.5 q 0.3 0.3 -2.25,2.5 
						M 0,7.5 
						q -0.3 0.3 -0.75,2.5 q -1.05 0.3 -1.5,2.5 q -0.3 0.3 2.25,2.5 " 
						transform="rotate(216 0,7.5 )"
						stroke-width ="0.1"
						fill="rgb(43.5,126.5,37.5)"
						/><circle cx="0" cy="7.5" r="2.85" fill="rgb(84,172,127)"/><circle cx="0.04" cy="7.57" r="1.9" fill="rgb(89.5,183.5,133.5)"/><path d="M 0,7.5 
						q 0.3 0.3 0.75,2.5 q 1.05 0.3 1.5,2.5 q 0.3 0.3 -2.25,2.5 
						M 0,7.5 
						q -0.3 0.3 -0.75,2.5 q -1.05 0.3 -1.5,2.5 q -0.3 0.3 2.25,2.5 " 
						transform="rotate(288 0,7.5 )"
						stroke-width ="0.1"
						fill="rgb(38,124,34)"
						/><circle cx="0" cy="7.5" r="2.85" fill="rgb(84,172,127)"/><circle cx="0.02" cy="7.43" r="1.9" fill="rgb(89.5,183.5,133.5)"/><path d="M 0,7.5 
						q 0.3 0.3 0.75,2.5 q 1.05 0.3 1.5,2.5 q 0.3 0.3 -2.25,2.5 
						M 0,7.5 
						q -0.3 0.3 -0.75,2.5 q -1.05 0.3 -1.5,2.5 q -0.3 0.3 2.25,2.5 " 
						transform="rotate(360 0,7.5 )"
						stroke-width ="0.1"
						fill="rgb(43.5,116.5,31.5)"
						/><circle cx="0" cy="7.5" r="2.85" fill="rgb(84,172,127)"/><circle cx="-0.01" cy="7.55" r="1.9" fill="rgb(89.5,183.5,133.5)"/><path d="M 0,7.5 
						q 0.3 0.3 0.75,2.5 q 1.05 0.3 1.5,2.5 q 0.3 0.3 -2.25,2.5 
						M 0,7.5 
						q -0.3 0.3 -0.75,2.5 q -1.05 0.3 -1.5,2.5 q -0.3 0.3 2.25,2.5 " 
						transform="rotate(432 0,7.5 )"
						stroke-width ="0.1"
						fill="rgb(49,104,40)"
						/><circle cx="0" cy="7.5" r="2.85" fill="rgb(84,172,127)"/><circle cx="-0.09" cy="7.47" r="1.9" fill="rgb(89.5,183.5,133.5)"/><path d="M 0,7.5 
						q 0.3 0.3 0.75,2.5 q 1.05 0.3 1.5,2.5 q 0.3 0.3 -2.25,2.5 
						M 0,7.5 
						q -0.3 0.3 -0.75,2.5 q -1.05 0.3 -1.5,2.5 q -0.3 0.3 2.25,2.5 " 
						transform="rotate(504 0,7.5 )"
						stroke-width ="0.1"
						fill="rgb(37.5,113.5,25.5)"
						/><circle cx="0" cy="7.5" r="2.85" fill="rgb(84,172,127)"/><circle cx="0.1" cy="7.43" r="1.9" fill="rgb(89.5,183.5,133.5)"/><path d="M 0,7.5 
						q 0.3 0.3 0.75,2.5 q 1.05 0.3 1.5,2.5 q 0.3 0.3 -2.25,2.5 
						M 0,7.5 
						q -0.3 0.3 -0.75,2.5 q -1.05 0.3 -1.5,2.5 q -0.3 0.3 2.25,2.5 " 
						transform="rotate(576 0,7.5 )"
						stroke-width ="0.1"
						fill="rgb(29,106,30)"
						/><circle cx="0" cy="7.5" r="2.85" fill="rgb(84,172,127)"/><circle cx="0.01" cy="7.55" r="1.9" fill="rgb(89.5,183.5,133.5)"/><path d="M 0,7.5 
						q 0.3 0.3 0.75,2.5 q 1.05 0.3 1.5,2.5 q 0.3 0.3 -2.25,2.5 
						M 0,7.5 
						q -0.3 0.3 -0.75,2.5 q -1.05 0.3 -1.5,2.5 q -0.3 0.3 2.25,2.5 " 
						transform="rotate(648 0,7.5 )"
						stroke-width ="0.1"
						fill="rgb(40.5,96.5,29.5)"
						/><circle cx="0" cy="7.5" r="2.85" fill="rgb(84,172,127)"/><circle cx="-0.01" cy="7.47" r="1.9" fill="rgb(89.5,183.5,133.5)"/><path d="M 0,7.5 
						q 0.3 0.3 0.75,2.5 q 1.05 0.3 1.5,2.5 q 0.3 0.3 -2.25,2.5 
						M 0,7.5 
						q -0.3 0.3 -0.75,2.5 q -1.05 0.3 -1.5,2.5 q -0.3 0.3 2.25,2.5 " 
						transform="rotate(720 0,7.5 )"
						stroke-width ="0.1"
						fill="rgb(42,97,15)"
						/><circle cx="0" cy="7.5" r="2.85" fill="rgb(84,172,127)"/><circle cx="-0.07" cy="7.42" r="1.9" fill="rgb(89.5,183.5,133.5)"/><path d="M 0,7.5 
						q 0.3 0.3 0.75,2.5 q 1.05 0.3 1.5,2.5 q 0.3 0.3 -2.25,2.5 
						M 0,7.5 
						q -0.3 0.3 -0.75,2.5 q -1.05 0.3 -1.5,2.5 q -0.3 0.3 2.25,2.5 " 
						transform="rotate(792 0,7.5 )"
						stroke-width ="0.1"
						fill="rgb(29.5,92.5,13.5)"
						/><circle cx="0" cy="7.5" r="2.85" fill="rgb(84,172,127)"/><circle cx="-0.02" cy="7.52" r="1.9" fill="rgb(89.5,183.5,133.5)"/><path d="M 0,7.5 
						q 0.3 0.3 0.75,2.5 q 1.05 0.3 1.5,2.5 q 0.3 0.3 -2.25,2.5 
						M 0,7.5 
						q -0.3 0.3 -0.75,2.5 q -1.05 0.3 -1.5,2.5 q -0.3 0.3 2.25,2.5 " 
						transform="rotate(864 0,7.5 )"
						stroke-width ="0.1"
						fill="rgb(34,98,17)"
						/><circle cx="0" cy="7.5" r="2.85" fill="rgb(84,172,127)"/><circle cx="-0.08" cy="7.59" r="1.9" fill="rgb(89.5,183.5,133.5)"/><path d="M 0,7.5 
						q 0.3 0.3 0.75,2.5 q 1.05 0.3 1.5,2.5 q 0.3 0.3 -2.25,2.5 
						M 0,7.5 
						q -0.3 0.3 -0.75,2.5 q -1.05 0.3 -1.5,2.5 q -0.3 0.3 2.25,2.5 " 
						transform="rotate(936 0,7.5 )"
						stroke-width ="0.1"
						fill="rgb(24.5,100.5,21.5)"
						/><circle cx="0" cy="7.5" r="2.85" fill="rgb(84,172,127)"/><circle cx="-0.09" cy="7.41" r="1.9" fill="rgb(89.5,183.5,133.5)"/><path d="M 0,7.5 
						q 0.3 0.3 0.75,2.5 q 1.05 0.3 1.5,2.5 q 0.3 0.3 -2.25,2.5 
						M 0,7.5 
						q -0.3 0.3 -0.75,2.5 q -1.05 0.3 -1.5,2.5 q -0.3 0.3 2.25,2.5 " 
						transform="rotate(1008 0,7.5 )"
						stroke-width ="0.1"
						fill="rgb(32,87,7)"
						/><circle cx="0" cy="7.5" r="2.85" fill="rgb(84,172,127)"/><circle cx="-0.06" cy="7.54" r="1.9" fill="rgb(89.5,183.5,133.5)"/><path d="M 0,7.5 
						q 0.3 0.3 0.75,2.5 q 1.05 0.3 1.5,2.5 q 0.3 0.3 -2.25,2.5 
						M 0,7.5 
						q -0.3 0.3 -0.75,2.5 q -1.05 0.3 -1.5,2.5 q -0.3 0.3 2.25,2.5 " 
						transform="rotate(1080 0,7.5 )"
						stroke-width ="0.1"
						fill="rgb(12.5,84.5,8.5)"
						/><circle cx="0" cy="7.5" r="2.85" fill="rgb(84,172,127)"/><circle cx="0.01" cy="7.57" r="1.9" fill="rgb(89.5,183.5,133.5)"/></g><g id="flower7"><path d="M 0,8.75 
						q 0.35 0.35 0.875,2.9166666666667 q 1.225 0.35 1.75,2.9166666666667 q 0.35 0.35 -2.625,2.9166666666667 
						M 0,8.75 
						q -0.35 0.35 -0.875,2.9166666666667 q -1.225 0.35 -1.75,2.9166666666667 q -0.35 0.35 2.625,2.9166666666667 " 
						transform="rotate(0 0,8.75 )"
						stroke-width ="0.1"
						fill="rgb(59,136,54)"
						/><path d="M 0,8.75 
						q 0.35 0.35 0.875,2.9166666666667 q 1.225 0.35 1.75,2.9166666666667 q 0.35 0.35 -2.625,2.9166666666667 
						M 0,8.75 
						q -0.35 0.35 -0.875,2.9166666666667 q -1.225 0.35 -1.75,2.9166666666667 q -0.35 0.35 2.625,2.9166666666667 " 
						transform="rotate(36 0,8.75 )"
						stroke-width ="0.1"
						fill="rgb(48.5,115.5,46.5)"
						/><path d="M 0,8.75 
						q 0.35 0.35 0.875,2.9166666666667 q 1.225 0.35 1.75,2.9166666666667 q 0.35 0.35 -2.625,2.9166666666667 
						M 0,8.75 
						q -0.35 0.35 -0.875,2.9166666666667 q -1.225 0.35 -1.75,2.9166666666667 q -0.35 0.35 2.625,2.9166666666667 " 
						transform="rotate(72 0,8.75 )"
						stroke-width ="0.1"
						fill="rgb(50,116,35)"
						/><path d="M 0,8.75 
						q 0.35 0.35 0.875,2.9166666666667 q 1.225 0.35 1.75,2.9166666666667 q 0.35 0.35 -2.625,2.9166666666667 
						M 0,8.75 
						q -0.35 0.35 -0.875,2.9166666666667 q -1.225 0.35 -1.75,2.9166666666667 q -0.35 0.35 2.625,2.9166666666667 " 
						transform="rotate(108 0,8.75 )"
						stroke-width ="0.1"
						fill="rgb(45.5,120.5,51.5)"
						/></g><g id="flower8"><path d="M 0,10 
						q 0.4 0.4 1,3.3333333333333 q 1.4 0.4 2,3.3333333333333 q 0.4 0.4 -3,3.3333333333333 
						M 0,10 
						q -0.4 0.4 -1,3.3333333333333 q -1.4 0.4 -2,3.3333333333333 q -0.4 0.4 3,3.3333333333333 " 
						transform="rotate(0 0,10 )"
						stroke-width ="0.1"
						fill="rgb(67,125,56)"
						/><path d="M 0,10 
						q 0.4 0.4 1,3.3333333333333 q 1.4 0.4 2,3.3333333333333 q 0.4 0.4 -3,3.3333333333333 
						M 0,10 
						q -0.4 0.4 -1,3.3333333333333 q -1.4 0.4 -2,3.3333333333333 q -0.4 0.4 3,3.3333333333333 " 
						transform="rotate(36 0,10 )"
						stroke-width ="0.1"
						fill="rgb(52.5,119.5,44.5)"
						/><path d="M 0,10 
						q 0.4 0.4 1,3.3333333333333 q 1.4 0.4 2,3.3333333333333 q 0.4 0.4 -3,3.3333333333333 
						M 0,10 
						q -0.4 0.4 -1,3.3333333333333 q -1.4 0.4 -2,3.3333333333333 q -0.4 0.4 3,3.3333333333333 " 
						transform="rotate(72 0,10 )"
						stroke-width ="0.1"
						fill="rgb(49,112,35)"
						/><path d="M 0,10 
						q 0.4 0.4 1,3.3333333333333 q 1.4 0.4 2,3.3333333333333 q 0.4 0.4 -3,3.3333333333333 
						M 0,10 
						q -0.4 0.4 -1,3.3333333333333 q -1.4 0.4 -2,3.3333333333333 q -0.4 0.4 3,3.3333333333333 " 
						transform="rotate(108 0,10 )"
						stroke-width ="0.1"
						fill="rgb(45.5,112.5,46.5)"
						/></g></defs>
				<g class="fullPlant">
					<g>
					<path d ="M 43,91 
					q -4 -18.81 -5.28,-36.972" fill ="none" stroke ="rgb(186.5,4.5,37.5)" stroke-width ="1.638"/></g><circle cx="37.72" cy="54.028" r="0.819" fill="rgb(186.5,4.5,37.5)"/><use xlink:href="#leaf4"
						x="43" y="91" 
						transform="rotate(143 43.52 91.44)" 	
						fill="rgb(92,92,190)" /><use xlink:href="#leaf4"
						x="43" y="91" 
						transform="rotate(151 43 91)" 	
						fill="rgb(86,100,203)" /><use xlink:href="#flower5" id="fleur00"
						x="37.72" y="44.028" transform="rotate(176 37.72 54.028)" />
					<g>
					<path d ="M 56,91 
					q 4 -29.53 -6.684,-44.316" fill ="none" stroke ="rgb(185,4,38)" stroke-width ="1.638"/></g><circle cx="49.316" cy="46.684" r="0.819" fill="rgb(185,4,38)"/><use xlink:href="#leaf4"
						x="56" y="91" 
						transform="rotate(153 56.07 91.16)" 	
						fill="rgb(113,93,193)" /><use xlink:href="#leaf7"
						x="56" y="91" 
						transform="rotate(220 56 91)" 	
						fill="rgb(92,86,191)" /><use xlink:href="#flower5" id="fleur10"
						x="49.316" y="36.684" transform="rotate(170 49.316 46.684)" />
					<g>
					<path d ="M 50,91 
					q -4 -33.83 -3.204,-29.916" fill ="none" stroke ="rgb(184.5,4.5,36.5)" stroke-width ="1.638"/></g><circle cx="46.796" cy="61.084" r="0.819" fill="rgb(184.5,4.5,36.5)"/><use xlink:href="#leaf6"
						x="50" y="91" 
						transform="rotate(141 50 91)" 	
						fill="rgb(93,83,194)" /><use xlink:href="#leaf3"
						x="50" y="91" 
						transform="rotate(136 50.31 91.36)" 	
						fill="rgb(109,99,225)" /><use xlink:href="#flower7" id="fleur20"
						x="46.796" y="51.084" transform="rotate(90 46.796 61.084)" />
					<g>
					<path d ="M 58,91 
					q 4 -26.01 6.9,-33.252" fill ="none" stroke ="rgb(184,6,39)" stroke-width ="1.638"/></g><circle cx="64.9" cy="57.748" r="0.819" fill="rgb(184,6,39)"/><use xlink:href="#leaf6"
						x="58" y="91" 
						transform="rotate(143 58 91)" 	
						fill="rgb(88,97,191)" /><use xlink:href="#leaf5"
						x="58" y="91" 
						transform="rotate(145 58 91)" 	
						fill="rgb(119,92,202)" /><use xlink:href="#flower6" id="fleur30"
						x="64.9" y="47.748" transform="rotate(135 64.9 57.748)" /></g>
				</svg>