<svg class="relie" xmlns="http://www.w3.org/2000/svg" viewBox="0 0 100 100" preserveAspectRatio="xMidYMid meet" x="0" y="0" overflow="visible" xmlns:xlink="http://www.w3.org/1999/xlink">

		<defs>  <g id="leaf1" transform="skewX(6) skewY(6)"><path d="M 0,0 
					q 0.00625 0.38625 0.125,0.6875 q 0.00125 0.38625 -0.125,1 
					M 0,0 
					q -0.00625 0.38625 -0.125,0.6875 q -0.00125 0.38625 0.125,1 " 
					stroke-width ="0.2" /></g>  <g id="leaf2" transform="skewX(9) skewY(9)"><path d="M 0,0 
					q 0.0125 0.7725 0.25,1.375 q 0.0025 0.7725 -0.25,1.375 
					M 0,0 
					q -0.0125 0.7725 -0.25,1.375 q -0.0025 0.7725 0.25,1.375 " 
					stroke-width ="0.2" /></g>  <g id="leaf3" transform="skewX(12) skewY(12)"><path d="M 0,0 
					q 0.01875 1.15875 0.375,2.0625 q 0.00375 1.15875 -0.375,2.0625 
					M 0,0 
					q -0.01875 1.15875 -0.375,2.0625 q -0.00375 1.15875 0.375,2.0625 " 
					stroke-width ="0.2" /></g>  <g id="leaf4" transform="skewX(-14) skewY(-14)"><path d="M 0,0 
					q 0.025 1.545 0.5,2.75 q 0.005 1.545 -0.5,2.75 
					M 0,0 
					q -0.025 1.545 -0.5,2.75 q -0.005 1.545 0.5,2.75 " 
					stroke-width ="0.2" /></g>  <g id="leaf5" transform="skewX(16) skewY(16)"><path d="M 0,0 
					q 0.03125 1.93125 0.625,3.4375 q 0.00625 1.93125 -0.625,3.4375 
					M 0,0 
					q -0.03125 1.93125 -0.625,3.4375 q -0.00625 1.93125 0.625,3.4375 " 
					stroke-width ="0.2" /></g>  <g id="leaf6" transform="skewX(13) skewY(13)"><path d="M 0,0 
					q 0.0375 2.3175 0.75,4.125 q 0.0075 2.3175 -0.75,4.125 
					M 0,0 
					q -0.0375 2.3175 -0.75,4.125 q -0.0075 2.3175 0.75,4.125 " 
					stroke-width ="0.2" /></g>  <g id="leaf7" transform="skewX(-20) skewY(-20)"><path d="M 0,0 
					q 0.04375 2.70375 0.875,4.8125 q 0.00875 2.70375 -0.875,4.8125 
					M 0,0 
					q -0.04375 2.70375 -0.875,4.8125 q -0.00875 2.70375 0.875,4.8125 " 
					stroke-width ="0.2" /></g>  <g id="leaf8" transform="skewX(-13) skewY(-13)"><path d="M 0,0 
					q 0.05 3.09 1,5.5 q 0.01 3.09 -1,5.5 
					M 0,0 
					q -0.05 3.09 -1,5.5 q -0.01 3.09 1,5.5 " 
					stroke-width ="0.2" /></g><g id="flower1" transform="skewX(10) skewY(10)">
						<path d="M 0,0
						Q 1.41,0.1875 0,0.39375"
						stroke="rgb(72,10,62)" 
						fill="transparent"
						stroke-width ="0.3" /><path d="M 0,0.39375 
						q 0.37875 -0.225 0.3875,0.075 q 0.37875 0.20875 0.0125,0.15 q 0.37875 0.2825 -0.125,0.075 q 0.37875 0.2475 -0.125,0.0375 q 0.37875 0.25375 -0.15,1 
						M 0,0.39375 
						q -0.37875 -0.225 -0.3875,0.075 q -0.37875 0.20875 -0.0125,0.15 q -0.37875 0.2825 0.125,0.075 q -0.37875 0.2475 0.125,0.0375 q -0.37875 0.25375 0.15,1 " 
						transform="rotate(0 0,0.39375 )"
						stroke-width ="0.1"
						fill="rgb(165,30,86)"
						/><circle cx="0" cy="0.39375" r="0" fill="rgb(97,172,39)"/><circle cx="-0.05" cy="0.44375" r="0" fill="rgb(113.5,179.5,51.5)"/><path d="M 0,0.39375 
						q 0.37875 -0.225 0.3875,0.075 q 0.37875 0.20875 0.0125,0.15 q 0.37875 0.2825 -0.125,0.075 q 0.37875 0.2475 -0.125,0.0375 q 0.37875 0.25375 -0.15,1 
						M 0,0.39375 
						q -0.37875 -0.225 -0.3875,0.075 q -0.37875 0.20875 -0.0125,0.15 q -0.37875 0.2825 0.125,0.075 q -0.37875 0.2475 0.125,0.0375 q -0.37875 0.25375 0.15,1 " 
						transform="rotate(65.454545454545 0,0.39375 )"
						stroke-width ="0.1"
						fill="rgb(164.5,33.5,98.5)"
						/><circle cx="0" cy="0.39375" r="0" fill="rgb(97,172,39)"/><circle cx="0.09" cy="0.48375" r="0" fill="rgb(113.5,179.5,51.5)"/><path d="M 0,0.39375 
						q 0.37875 -0.225 0.3875,0.075 q 0.37875 0.20875 0.0125,0.15 q 0.37875 0.2825 -0.125,0.075 q 0.37875 0.2475 -0.125,0.0375 q 0.37875 0.25375 -0.15,1 
						M 0,0.39375 
						q -0.37875 -0.225 -0.3875,0.075 q -0.37875 0.20875 -0.0125,0.15 q -0.37875 0.2825 0.125,0.075 q -0.37875 0.2475 0.125,0.0375 q -0.37875 0.25375 0.15,1 " 
						transform="rotate(130.90909090909 0,0.39375 )"
						stroke-width ="0.1"
						fill="rgb(165,21,99)"
						/><circle cx="0" cy="0.39375" r="0" fill="rgb(97,172,39)"/><circle cx="-0.09" cy="0.33375" r="0" fill="rgb(113.5,179.5,51.5)"/><path d="M 0,0.39375 
						q 0.37875 -0.225 0.3875,0.075 q 0.37875 0.20875 0.0125,0.15 q 0.37875 0.2825 -0.125,0.075 q 0.37875 0.2475 -0.125,0.0375 q 0.37875 0.25375 -0.15,1 
						M 0,0.39375 
						q -0.37875 -0.225 -0.3875,0.075 q -0.37875 0.20875 -0.0125,0.15 q -0.37875 0.2825 0.125,0.075 q -0.37875 0.2475 0.125,0.0375 q -0.37875 0.25375 0.15,1 " 
						transform="rotate(196.36363636364 0,0.39375 )"
						stroke-width ="0.1"
						fill="rgb(158.5,26.5,79.5)"
						/><circle cx="0" cy="0.39375" r="0" fill="rgb(97,172,39)"/><circle cx="0.08" cy="0.45375" r="0" fill="rgb(113.5,179.5,51.5)"/><path d="M 0,0.39375 
						q 0.37875 -0.225 0.3875,0.075 q 0.37875 0.20875 0.0125,0.15 q 0.37875 0.2825 -0.125,0.075 q 0.37875 0.2475 -0.125,0.0375 q 0.37875 0.25375 -0.15,1 
						M 0,0.39375 
						q -0.37875 -0.225 -0.3875,0.075 q -0.37875 0.20875 -0.0125,0.15 q -0.37875 0.2825 0.125,0.075 q -0.37875 0.2475 0.125,0.0375 q -0.37875 0.25375 0.15,1 " 
						transform="rotate(261.81818181818 0,0.39375 )"
						stroke-width ="0.1"
						fill="rgb(159,17,79)"
						/><circle cx="0" cy="0.39375" r="0" fill="rgb(97,172,39)"/><circle cx="-0.06" cy="0.39375" r="0" fill="rgb(113.5,179.5,51.5)"/><path d="M 0,0.39375 
						q 0.37875 -0.225 0.3875,0.075 q 0.37875 0.20875 0.0125,0.15 q 0.37875 0.2825 -0.125,0.075 q 0.37875 0.2475 -0.125,0.0375 q 0.37875 0.25375 -0.15,1 
						M 0,0.39375 
						q -0.37875 -0.225 -0.3875,0.075 q -0.37875 0.20875 -0.0125,0.15 q -0.37875 0.2825 0.125,0.075 q -0.37875 0.2475 0.125,0.0375 q -0.37875 0.25375 0.15,1 " 
						transform="rotate(327.27272727273 0,0.39375 )"
						stroke-width ="0.1"
						fill="rgb(145.5,28.5,79.5)"
						/><circle cx="0" cy="0.39375" r="0" fill="rgb(97,172,39)"/><circle cx="0.1" cy="0.48375" r="0" fill="rgb(113.5,179.5,51.5)"/><path d="M 0,0.39375 
						q 0.37875 -0.225 0.3875,0.075 q 0.37875 0.20875 0.0125,0.15 q 0.37875 0.2825 -0.125,0.075 q 0.37875 0.2475 -0.125,0.0375 q 0.37875 0.25375 -0.15,1 
						M 0,0.39375 
						q -0.37875 -0.225 -0.3875,0.075 q -0.37875 0.20875 -0.0125,0.15 q -0.37875 0.2825 0.125,0.075 q -0.37875 0.2475 0.125,0.0375 q -0.37875 0.25375 0.15,1 " 
						transform="rotate(392.72727272727 0,0.39375 )"
						stroke-width ="0.1"
						fill="rgb(146,14,73)"
						/><circle cx="0" cy="0.39375" r="0" fill="rgb(97,172,39)"/><circle cx="-0.01" cy="0.37375" r="0" fill="rgb(113.5,179.5,51.5)"/><path d="M 0,0.39375 
						q 0.37875 -0.225 0.3875,0.075 q 0.37875 0.20875 0.0125,0.15 q 0.37875 0.2825 -0.125,0.075 q 0.37875 0.2475 -0.125,0.0375 q 0.37875 0.25375 -0.15,1 
						M 0,0.39375 
						q -0.37875 -0.225 -0.3875,0.075 q -0.37875 0.20875 -0.0125,0.15 q -0.37875 0.2825 0.125,0.075 q -0.37875 0.2475 0.125,0.0375 q -0.37875 0.25375 0.15,1 " 
						transform="rotate(458.18181818182 0,0.39375 )"
						stroke-width ="0.1"
						fill="rgb(145.5,6.5,81.5)"
						/><circle cx="0" cy="0.39375" r="0" fill="rgb(97,172,39)"/><circle cx="0.06" cy="0.40375" r="0" fill="rgb(113.5,179.5,51.5)"/><path d="M 0,0.39375 
						q 0.37875 -0.225 0.3875,0.075 q 0.37875 0.20875 0.0125,0.15 q 0.37875 0.2825 -0.125,0.075 q 0.37875 0.2475 -0.125,0.0375 q 0.37875 0.25375 -0.15,1 
						M 0,0.39375 
						q -0.37875 -0.225 -0.3875,0.075 q -0.37875 0.20875 -0.0125,0.15 q -0.37875 0.2825 0.125,0.075 q -0.37875 0.2475 0.125,0.0375 q -0.37875 0.25375 0.15,1 " 
						transform="rotate(523.63636363636 0,0.39375 )"
						stroke-width ="0.1"
						fill="rgb(138,8,71)"
						/><circle cx="0" cy="0.39375" r="0" fill="rgb(97,172,39)"/><circle cx="-0.06" cy="0.47375" r="0" fill="rgb(113.5,179.5,51.5)"/><path d="M 0,0.39375 
						q 0.37875 -0.225 0.3875,0.075 q 0.37875 0.20875 0.0125,0.15 q 0.37875 0.2825 -0.125,0.075 q 0.37875 0.2475 -0.125,0.0375 q 0.37875 0.25375 -0.15,1 
						M 0,0.39375 
						q -0.37875 -0.225 -0.3875,0.075 q -0.37875 0.20875 -0.0125,0.15 q -0.37875 0.2825 0.125,0.075 q -0.37875 0.2475 0.125,0.0375 q -0.37875 0.25375 0.15,1 " 
						transform="rotate(589.09090909091 0,0.39375 )"
						stroke-width ="0.1"
						fill="rgb(153.5,9.5,74.5)"
						/><circle cx="0" cy="0.39375" r="0" fill="rgb(97,172,39)"/><circle cx="0.1" cy="0.30375" r="0" fill="rgb(113.5,179.5,51.5)"/><path d="M 0,0.39375 
						q 0.37875 -0.225 0.3875,0.075 q 0.37875 0.20875 0.0125,0.15 q 0.37875 0.2825 -0.125,0.075 q 0.37875 0.2475 -0.125,0.0375 q 0.37875 0.25375 -0.15,1 
						M 0,0.39375 
						q -0.37875 -0.225 -0.3875,0.075 q -0.37875 0.20875 -0.0125,0.15 q -0.37875 0.2825 0.125,0.075 q -0.37875 0.2475 0.125,0.0375 q -0.37875 0.25375 0.15,1 " 
						transform="rotate(654.54545454545 0,0.39375 )"
						stroke-width ="0.1"
						fill="rgb(145,2,77)"
						/><circle cx="0" cy="0.39375" r="0" fill="rgb(97,172,39)"/><circle cx="0" cy="0.48375" r="0" fill="rgb(113.5,179.5,51.5)"/><path d="M 0,0.39375 
						q 0.37875 -0.225 0.3875,0.075 q 0.37875 0.20875 0.0125,0.15 q 0.37875 0.2825 -0.125,0.075 q 0.37875 0.2475 -0.125,0.0375 q 0.37875 0.25375 -0.15,1 
						M 0,0.39375 
						q -0.37875 -0.225 -0.3875,0.075 q -0.37875 0.20875 -0.0125,0.15 q -0.37875 0.2825 0.125,0.075 q -0.37875 0.2475 0.125,0.0375 q -0.37875 0.25375 0.15,1 " 
						transform="rotate(720 0,0.39375 )"
						stroke-width ="0.1"
						fill="rgb(146.5,3.5,61.5)"
						/><circle cx="0" cy="0.39375" r="0" fill="rgb(97,172,39)"/><circle cx="-0.02" cy="0.30375" r="0" fill="rgb(113.5,179.5,51.5)"/></g><g id="flower2" transform="skewX(-1) skewY(-1)">
						<path d="M 0,0
						Q -0.7,0.375 0,0.7875"
						stroke="rgb(72,10,62)" 
						fill="transparent"
						stroke-width ="0.3" /><path d="M 0,0.7875 
						q 0.7575 -0.45 0.575,0.15 q 0.7575 0.4175 0.025,0.3 q 0.7575 0.565 -0.25,0.15 q 0.7575 0.495 -0.25,0.075 q 1.0075 0.5075 -0.1,1 
						M 0,0.7875 
						q -0.7575 -0.45 -0.575,0.15 q -0.7575 0.4175 -0.025,0.3 q -0.7575 0.565 0.25,0.15 q -0.7575 0.495 0.25,0.075 q -1.0075 0.5075 0.1,1 " 
						transform="rotate(0 0,0.7875 )"
						stroke-width ="0.1"
						fill="rgb(169,32,101)"
						/><path d="M 0,0.7875 
						q 0.7575 -0.45 0.575,0.15 q 0.7575 0.4175 0.025,0.3 q 0.7575 0.565 -0.25,0.15 q 0.7575 0.495 -0.25,0.075 q 1.0075 0.5075 -0.1,1 
						M 0,0.7875 
						q -0.7575 -0.45 -0.575,0.15 q -0.7575 0.4175 -0.025,0.3 q -0.7575 0.565 0.25,0.15 q -0.7575 0.495 0.25,0.075 q -1.0075 0.5075 0.1,1 " 
						transform="rotate(19.636363636364 0,0.7875 )"
						stroke-width ="0.1"
						fill="rgb(162.5,27.5,95.5)"
						/><path d="M 0,0.7875 
						q 0.7575 -0.45 0.575,0.15 q 0.7575 0.4175 0.025,0.3 q 0.7575 0.565 -0.25,0.15 q 0.7575 0.495 -0.25,0.075 q 1.0075 0.5075 -0.1,1 
						M 0,0.7875 
						q -0.7575 -0.45 -0.575,0.15 q -0.7575 0.4175 -0.025,0.3 q -0.7575 0.565 0.25,0.15 q -0.7575 0.495 0.25,0.075 q -1.0075 0.5075 0.1,1 " 
						transform="rotate(39.272727272727 0,0.7875 )"
						stroke-width ="0.1"
						fill="rgb(171,30,87)"
						/></g><g id="flower3" transform="skewX(6) skewY(6)">
						<path d="M 0,0
						Q 0.07,0.5625 0,1.18125"
						stroke="rgb(72,10,62)" 
						fill="transparent"
						stroke-width ="0.3" /><path d="M 0,1.18125 
						q 1.13625 -0.675 0.7625,0.225 q 1.13625 0.62625 0.0375,0.45 q 1.13625 0.8475 -0.375,0.225 q 1.13625 0.7425 -0.375,0.1125 q 1.51125 0.76125 -0.05,1 
						M 0,1.18125 
						q -1.13625 -0.675 -0.7625,0.225 q -1.13625 0.62625 -0.0375,0.45 q -1.13625 0.8475 0.375,0.225 q -1.13625 0.7425 0.375,0.1125 q -1.51125 0.76125 0.05,1 " 
						transform="rotate(0 0,1.18125 )"
						stroke-width ="0.1"
						fill="rgb(165,22,86)"
						/><path d="M 0,1.18125 
						q 1.13625 -0.675 0.7625,0.225 q 1.13625 0.62625 0.0375,0.45 q 1.13625 0.8475 -0.375,0.225 q 1.13625 0.7425 -0.375,0.1125 q 1.51125 0.76125 -0.05,1 
						M 0,1.18125 
						q -1.13625 -0.675 -0.7625,0.225 q -1.13625 0.62625 -0.0375,0.45 q -1.13625 0.8475 0.375,0.225 q -1.13625 0.7425 0.375,0.1125 q -1.51125 0.76125 0.05,1 " 
						transform="rotate(19.636363636364 0,1.18125 )"
						stroke-width ="0.1"
						fill="rgb(166.5,34.5,95.5)"
						/><path d="M 0,1.18125 
						q 1.13625 -0.675 0.7625,0.225 q 1.13625 0.62625 0.0375,0.45 q 1.13625 0.8475 -0.375,0.225 q 1.13625 0.7425 -0.375,0.1125 q 1.51125 0.76125 -0.05,1 
						M 0,1.18125 
						q -1.13625 -0.675 -0.7625,0.225 q -1.13625 0.62625 -0.0375,0.45 q -1.13625 0.8475 0.375,0.225 q -1.13625 0.7425 0.375,0.1125 q -1.51125 0.76125 0.05,1 " 
						transform="rotate(39.272727272727 0,1.18125 )"
						stroke-width ="0.1"
						fill="rgb(159,25,96)"
						/></g><g id="flower4" transform="skewX(-5) skewY(-5)">
						<path d="M 0,0
						Q 0.26,0.75 0,1.575"
						stroke="rgb(72,10,62)" 
						fill="transparent"
						stroke-width ="0.3" /><path d="M 0,1.575 
						q 1.515 -0.9 0.95,0.3 q 1.515 0.835 0.05,0.6 q 1.515 1.13 -0.5,0.3 q 2.015 0.99 1,0.15 q 1.515 1.015 -1.5,1 
						M 0,1.575 
						q -1.515 -0.9 -0.95,0.3 q -1.515 0.835 -0.05,0.6 q -1.515 1.13 0.5,0.3 q -2.015 0.99 -1,0.15 q -1.515 1.015 1.5,1 " 
						transform="rotate(0 0,1.575 )"
						stroke-width ="0.1"
						fill="rgb(162,32,85)"
						/><circle cx="0" cy="1.575" r="0" fill="rgb(98,177,45)"/><circle cx="0.06" cy="1.665" r="0" fill="rgb(115.5,183.5,45.5)"/><path d="M 0,1.575 
						q 1.515 -0.9 0.95,0.3 q 1.515 0.835 0.05,0.6 q 1.515 1.13 -0.5,0.3 q 2.015 0.99 1,0.15 q 1.515 1.015 -1.5,1 
						M 0,1.575 
						q -1.515 -0.9 -0.95,0.3 q -1.515 0.835 -0.05,0.6 q -1.515 1.13 0.5,0.3 q -2.015 0.99 -1,0.15 q -1.515 1.015 1.5,1 " 
						transform="rotate(65.454545454545 0,1.575 )"
						stroke-width ="0.1"
						fill="rgb(167.5,31.5,88.5)"
						/><circle cx="0" cy="1.575" r="0" fill="rgb(98,177,45)"/><circle cx="0.01" cy="1.635" r="0" fill="rgb(115.5,183.5,45.5)"/><path d="M 0,1.575 
						q 1.515 -0.9 0.95,0.3 q 1.515 0.835 0.05,0.6 q 1.515 1.13 -0.5,0.3 q 2.015 0.99 1,0.15 q 1.515 1.015 -1.5,1 
						M 0,1.575 
						q -1.515 -0.9 -0.95,0.3 q -1.515 0.835 -0.05,0.6 q -1.515 1.13 0.5,0.3 q -2.015 0.99 -1,0.15 q -1.515 1.015 1.5,1 " 
						transform="rotate(130.90909090909 0,1.575 )"
						stroke-width ="0.1"
						fill="rgb(173,34,99)"
						/><circle cx="0" cy="1.575" r="0" fill="rgb(98,177,45)"/><circle cx="0.07" cy="1.565" r="0" fill="rgb(115.5,183.5,45.5)"/><path d="M 0,1.575 
						q 1.515 -0.9 0.95,0.3 q 1.515 0.835 0.05,0.6 q 1.515 1.13 -0.5,0.3 q 2.015 0.99 1,0.15 q 1.515 1.015 -1.5,1 
						M 0,1.575 
						q -1.515 -0.9 -0.95,0.3 q -1.515 0.835 -0.05,0.6 q -1.515 1.13 0.5,0.3 q -2.015 0.99 -1,0.15 q -1.515 1.015 1.5,1 " 
						transform="rotate(196.36363636364 0,1.575 )"
						stroke-width ="0.1"
						fill="rgb(160.5,28.5,78.5)"
						/><circle cx="0" cy="1.575" r="0" fill="rgb(98,177,45)"/><circle cx="0" cy="1.475" r="0" fill="rgb(115.5,183.5,45.5)"/><path d="M 0,1.575 
						q 1.515 -0.9 0.95,0.3 q 1.515 0.835 0.05,0.6 q 1.515 1.13 -0.5,0.3 q 2.015 0.99 1,0.15 q 1.515 1.015 -1.5,1 
						M 0,1.575 
						q -1.515 -0.9 -0.95,0.3 q -1.515 0.835 -0.05,0.6 q -1.515 1.13 0.5,0.3 q -2.015 0.99 -1,0.15 q -1.515 1.015 1.5,1 " 
						transform="rotate(261.81818181818 0,1.575 )"
						stroke-width ="0.1"
						fill="rgb(167,25,80)"
						/><circle cx="0" cy="1.575" r="0" fill="rgb(98,177,45)"/><circle cx="-0.01" cy="1.645" r="0" fill="rgb(115.5,183.5,45.5)"/><path d="M 0,1.575 
						q 1.515 -0.9 0.95,0.3 q 1.515 0.835 0.05,0.6 q 1.515 1.13 -0.5,0.3 q 2.015 0.99 1,0.15 q 1.515 1.015 -1.5,1 
						M 0,1.575 
						q -1.515 -0.9 -0.95,0.3 q -1.515 0.835 -0.05,0.6 q -1.515 1.13 0.5,0.3 q -2.015 0.99 -1,0.15 q -1.515 1.015 1.5,1 " 
						transform="rotate(327.27272727273 0,1.575 )"
						stroke-width ="0.1"
						fill="rgb(151.5,19.5,86.5)"
						/><circle cx="0" cy="1.575" r="0" fill="rgb(98,177,45)"/><circle cx="-0.06" cy="1.495" r="0" fill="rgb(115.5,183.5,45.5)"/><path d="M 0,1.575 
						q 1.515 -0.9 0.95,0.3 q 1.515 0.835 0.05,0.6 q 1.515 1.13 -0.5,0.3 q 2.015 0.99 1,0.15 q 1.515 1.015 -1.5,1 
						M 0,1.575 
						q -1.515 -0.9 -0.95,0.3 q -1.515 0.835 -0.05,0.6 q -1.515 1.13 0.5,0.3 q -2.015 0.99 -1,0.15 q -1.515 1.015 1.5,1 " 
						transform="rotate(392.72727272727 0,1.575 )"
						stroke-width ="0.1"
						fill="rgb(152,10,78)"
						/><circle cx="0" cy="1.575" r="0" fill="rgb(98,177,45)"/><circle cx="-0.03" cy="1.495" r="0" fill="rgb(115.5,183.5,45.5)"/><path d="M 0,1.575 
						q 1.515 -0.9 0.95,0.3 q 1.515 0.835 0.05,0.6 q 1.515 1.13 -0.5,0.3 q 2.015 0.99 1,0.15 q 1.515 1.015 -1.5,1 
						M 0,1.575 
						q -1.515 -0.9 -0.95,0.3 q -1.515 0.835 -0.05,0.6 q -1.515 1.13 0.5,0.3 q -2.015 0.99 -1,0.15 q -1.515 1.015 1.5,1 " 
						transform="rotate(458.18181818182 0,1.575 )"
						stroke-width ="0.1"
						fill="rgb(150.5,8.5,81.5)"
						/><circle cx="0" cy="1.575" r="0" fill="rgb(98,177,45)"/><circle cx="-0.05" cy="1.545" r="0" fill="rgb(115.5,183.5,45.5)"/><path d="M 0,1.575 
						q 1.515 -0.9 0.95,0.3 q 1.515 0.835 0.05,0.6 q 1.515 1.13 -0.5,0.3 q 2.015 0.99 1,0.15 q 1.515 1.015 -1.5,1 
						M 0,1.575 
						q -1.515 -0.9 -0.95,0.3 q -1.515 0.835 -0.05,0.6 q -1.515 1.13 0.5,0.3 q -2.015 0.99 -1,0.15 q -1.515 1.015 1.5,1 " 
						transform="rotate(523.63636363636 0,1.575 )"
						stroke-width ="0.1"
						fill="rgb(155,10,73)"
						/><circle cx="0" cy="1.575" r="0" fill="rgb(98,177,45)"/><circle cx="0.07" cy="1.555" r="0" fill="rgb(115.5,183.5,45.5)"/><path d="M 0,1.575 
						q 1.515 -0.9 0.95,0.3 q 1.515 0.835 0.05,0.6 q 1.515 1.13 -0.5,0.3 q 2.015 0.99 1,0.15 q 1.515 1.015 -1.5,1 
						M 0,1.575 
						q -1.515 -0.9 -0.95,0.3 q -1.515 0.835 -0.05,0.6 q -1.515 1.13 0.5,0.3 q -2.015 0.99 -1,0.15 q -1.515 1.015 1.5,1 " 
						transform="rotate(589.09090909091 0,1.575 )"
						stroke-width ="0.1"
						fill="rgb(147.5,1.5,69.5)"
						/><circle cx="0" cy="1.575" r="0" fill="rgb(98,177,45)"/><circle cx="-0.03" cy="1.595" r="0" fill="rgb(115.5,183.5,45.5)"/><path d="M 0,1.575 
						q 1.515 -0.9 0.95,0.3 q 1.515 0.835 0.05,0.6 q 1.515 1.13 -0.5,0.3 q 2.015 0.99 1,0.15 q 1.515 1.015 -1.5,1 
						M 0,1.575 
						q -1.515 -0.9 -0.95,0.3 q -1.515 0.835 -0.05,0.6 q -1.515 1.13 0.5,0.3 q -2.015 0.99 -1,0.15 q -1.515 1.015 1.5,1 " 
						transform="rotate(654.54545454545 0,1.575 )"
						stroke-width ="0.1"
						fill="rgb(147,0,74)"
						/><circle cx="0" cy="1.575" r="0" fill="rgb(98,177,45)"/><circle cx="-0.04" cy="1.655" r="0" fill="rgb(115.5,183.5,45.5)"/><path d="M 0,1.575 
						q 1.515 -0.9 0.95,0.3 q 1.515 0.835 0.05,0.6 q 1.515 1.13 -0.5,0.3 q 2.015 0.99 1,0.15 q 1.515 1.015 -1.5,1 
						M 0,1.575 
						q -1.515 -0.9 -0.95,0.3 q -1.515 0.835 -0.05,0.6 q -1.515 1.13 0.5,0.3 q -2.015 0.99 -1,0.15 q -1.515 1.015 1.5,1 " 
						transform="rotate(720 0,1.575 )"
						stroke-width ="0.1"
						fill="rgb(150.5,1.5,76.5)"
						/><circle cx="0" cy="1.575" r="0" fill="rgb(98,177,45)"/><circle cx="0.04" cy="1.575" r="0" fill="rgb(115.5,183.5,45.5)"/></g><g id="flower5" transform="skewX(-2) skewY(-2)">
						<path d="M 0,0
						Q 1.19,0.9375 0,1.96875"
						stroke="rgb(72,10,62)" 
						fill="transparent"
						stroke-width ="0.3" /><path d="M 0,1.96875 
						q 1.89375 -1.125 1.1375,0.375 q 1.89375 1.04375 0.0625,0.75 q 1.89375 1.4125 -0.625,0.375 q 2.51875 1.2375 1.25,0.1875 q 1.89375 1.26875 -1.825,1 
						M 0,1.96875 
						q -1.89375 -1.125 -1.1375,0.375 q -1.89375 1.04375 -0.0625,0.75 q -1.89375 1.4125 0.625,0.375 q -2.51875 1.2375 -1.25,0.1875 q -1.89375 1.26875 1.825,1 " 
						transform="rotate(0 0,1.96875 )"
						stroke-width ="0.1"
						fill="rgb(165,25,87)"
						/><path d="M 0,1.96875 
						q 1.89375 -1.125 1.1375,0.375 q 1.89375 1.04375 0.0625,0.75 q 1.89375 1.4125 -0.625,0.375 q 2.51875 1.2375 1.25,0.1875 q 1.89375 1.26875 -1.825,1 
						M 0,1.96875 
						q -1.89375 -1.125 -1.1375,0.375 q -1.89375 1.04375 -0.0625,0.75 q -1.89375 1.4125 0.625,0.375 q -2.51875 1.2375 -1.25,0.1875 q -1.89375 1.26875 1.825,1 " 
						transform="rotate(19.636363636364 0,1.96875 )"
						stroke-width ="0.1"
						fill="rgb(172.5,20.5,82.5)"
						/><path d="M 0,1.96875 
						q 1.89375 -1.125 1.1375,0.375 q 1.89375 1.04375 0.0625,0.75 q 1.89375 1.4125 -0.625,0.375 q 2.51875 1.2375 1.25,0.1875 q 1.89375 1.26875 -1.825,1 
						M 0,1.96875 
						q -1.89375 -1.125 -1.1375,0.375 q -1.89375 1.04375 -0.0625,0.75 q -1.89375 1.4125 0.625,0.375 q -2.51875 1.2375 -1.25,0.1875 q -1.89375 1.26875 1.825,1 " 
						transform="rotate(39.272727272727 0,1.96875 )"
						stroke-width ="0.1"
						fill="rgb(173,33,99)"
						/></g><g id="flower6" transform="skewX(3) skewY(3)">
						<path d="M 0,0
						Q 0.43,1.125 0,2.3625"
						stroke="rgb(72,10,62)" 
						fill="transparent"
						stroke-width ="0.3" /><path d="M 0,2.3625 
						q 2.2725 -1.35 1.325,0.45 q 2.2725 1.2525 0.075,0.9 q 2.2725 1.695 -0.75,0.45 q 3.0225 1.485 1.5,0.225 q 2.2725 1.5225 -2.15,1 
						M 0,2.3625 
						q -2.2725 -1.35 -1.325,0.45 q -2.2725 1.2525 -0.075,0.9 q -2.2725 1.695 0.75,0.45 q -3.0225 1.485 -1.5,0.225 q -2.2725 1.5225 2.15,1 " 
						transform="rotate(0 0,2.3625 )"
						stroke-width ="0.1"
						fill="rgb(160,35,90)"
						/><path d="M 0,2.3625 
						q 2.2725 -1.35 1.325,0.45 q 2.2725 1.2525 0.075,0.9 q 2.2725 1.695 -0.75,0.45 q 3.0225 1.485 1.5,0.225 q 2.2725 1.5225 -2.15,1 
						M 0,2.3625 
						q -2.2725 -1.35 -1.325,0.45 q -2.2725 1.2525 -0.075,0.9 q -2.2725 1.695 0.75,0.45 q -3.0225 1.485 -1.5,0.225 q -2.2725 1.5225 2.15,1 " 
						transform="rotate(19.636363636364 0,2.3625 )"
						stroke-width ="0.1"
						fill="rgb(162.5,34.5,89.5)"
						/><path d="M 0,2.3625 
						q 2.2725 -1.35 1.325,0.45 q 2.2725 1.2525 0.075,0.9 q 2.2725 1.695 -0.75,0.45 q 3.0225 1.485 1.5,0.225 q 2.2725 1.5225 -2.15,1 
						M 0,2.3625 
						q -2.2725 -1.35 -1.325,0.45 q -2.2725 1.2525 -0.075,0.9 q -2.2725 1.695 0.75,0.45 q -3.0225 1.485 -1.5,0.225 q -2.2725 1.5225 2.15,1 " 
						transform="rotate(39.272727272727 0,2.3625 )"
						stroke-width ="0.1"
						fill="rgb(166,31,84)"
						/></g><g id="flower7" transform="skewX(8) skewY(8)">
						<path d="M 0,0
						Q -0.71,1.3125 0,2.75625"
						stroke="rgb(72,10,62)" 
						fill="transparent"
						stroke-width ="0.3" /><path d="M 0,2.75625 
						q 2.65125 -1.575 1.5125,0.525 q 2.65125 1.46125 0.0875,1.05 q 2.65125 1.9775 -0.875,0.525 q 3.52625 1.7325 1.75,0.2625 q 2.65125 1.77625 -2.475,1 
						M 0,2.75625 
						q -2.65125 -1.575 -1.5125,0.525 q -2.65125 1.46125 -0.0875,1.05 q -2.65125 1.9775 0.875,0.525 q -3.52625 1.7325 -1.75,0.2625 q -2.65125 1.77625 2.475,1 " 
						transform="rotate(0 0,2.75625 )"
						stroke-width ="0.1"
						fill="rgb(177,36,86)"
						/><path d="M 0,2.75625 
						q 2.65125 -1.575 1.5125,0.525 q 2.65125 1.46125 0.0875,1.05 q 2.65125 1.9775 -0.875,0.525 q 3.52625 1.7325 1.75,0.2625 q 2.65125 1.77625 -2.475,1 
						M 0,2.75625 
						q -2.65125 -1.575 -1.5125,0.525 q -2.65125 1.46125 -0.0875,1.05 q -2.65125 1.9775 0.875,0.525 q -3.52625 1.7325 -1.75,0.2625 q -2.65125 1.77625 2.475,1 " 
						transform="rotate(19.636363636364 0,2.75625 )"
						stroke-width ="0.1"
						fill="rgb(167.5,24.5,85.5)"
						/><path d="M 0,2.75625 
						q 2.65125 -1.575 1.5125,0.525 q 2.65125 1.46125 0.0875,1.05 q 2.65125 1.9775 -0.875,0.525 q 3.52625 1.7325 1.75,0.2625 q 2.65125 1.77625 -2.475,1 
						M 0,2.75625 
						q -2.65125 -1.575 -1.5125,0.525 q -2.65125 1.46125 -0.0875,1.05 q -2.65125 1.9775 0.875,0.525 q -3.52625 1.7325 -1.75,0.2625 q -2.65125 1.77625 2.475,1 " 
						transform="rotate(39.272727272727 0,2.75625 )"
						stroke-width ="0.1"
						fill="rgb(161,31,88)"
						/></g><g id="flower8" transform="skewX(-6) skewY(-6)">
						<path d="M 0,0
						Q 1.05,1.5 0,3.15"
						stroke="rgb(72,10,62)" 
						fill="transparent"
						stroke-width ="0.3" /><path d="M 0,3.15 
						q 3.03 -1.8 1.7,0.6 q 3.03 1.67 0.1,1.2 q 3.03 2.26 -1,0.6 q 4.03 1.98 2,0.3 q 3.03 2.03 -2.8,1 
						M 0,3.15 
						q -3.03 -1.8 -1.7,0.6 q -3.03 1.67 -0.1,1.2 q -3.03 2.26 1,0.6 q -4.03 1.98 -2,0.3 q -3.03 2.03 2.8,1 " 
						transform="rotate(0 0,3.15 )"
						stroke-width ="0.1"
						fill="rgb(170,33,100)"
						/><path d="M 0,3.15 
						q 3.03 -1.8 1.7,0.6 q 3.03 1.67 0.1,1.2 q 3.03 2.26 -1,0.6 q 4.03 1.98 2,0.3 q 3.03 2.03 -2.8,1 
						M 0,3.15 
						q -3.03 -1.8 -1.7,0.6 q -3.03 1.67 -0.1,1.2 q -3.03 2.26 1,0.6 q -4.03 1.98 -2,0.3 q -3.03 2.03 2.8,1 " 
						transform="rotate(19.636363636364 0,3.15 )"
						stroke-width ="0.1"
						fill="rgb(169.5,21.5,89.5)"
						/><path d="M 0,3.15 
						q 3.03 -1.8 1.7,0.6 q 3.03 1.67 0.1,1.2 q 3.03 2.26 -1,0.6 q 4.03 1.98 2,0.3 q 3.03 2.03 -2.8,1 
						M 0,3.15 
						q -3.03 -1.8 -1.7,0.6 q -3.03 1.67 -0.1,1.2 q -3.03 2.26 1,0.6 q -4.03 1.98 -2,0.3 q -3.03 2.03 2.8,1 " 
						transform="rotate(39.272727272727 0,3.15 )"
						stroke-width ="0.1"
						fill="rgb(153,24,92)"
						/></g></defs>
				<g class="fullPlant">
					<g>
					<path d ="M 48,91 
					a 99 495 19.21 0 0 -6.168,-22.068" fill ="none" stroke ="rgb(74.5,5.5,65.5)" stroke-width ="2.718"/></g><circle cx="41.832" cy="68.932" r="0.6795" stroke="rgb(79.5,10.5,70.5)" fill="rgb(74.5,5.5,65.5)"/><use xlink:href="#leaf2"
						x="41.832" y="68.932" 
						transform="rotate(-101 42.002 69.542)" 	
						fill="rgb(55,172,216)" /><use xlink:href="#leaf1"
						x="41.832" y="68.932" 
						transform="rotate(7 42.552 69.842)" 	
						fill="rgb(72,168,214)" /><use xlink:href="#leaf3"
						x="41.832" y="68.932" 
						transform="rotate(83 41.832 68.932)" 	
						fill="rgb(43,186,192)" /><use xlink:href="#leaf1"
						x="41.832" y="68.932" 
						transform="rotate(162 41.832 68.932)" 	
						fill="rgb(60,182,212)" /><use xlink:href="#leaf2"
						x="41.832" y="68.932" 
						transform="rotate(-148 41.832 68.932)" 	
						fill="rgb(41,162,192)" /><use xlink:href="#leaf3"
						x="41.832" y="68.932" 
						transform="rotate(-153 41.832 68.932)" 	
						fill="rgb(65,187,191)" /><use xlink:href="#leaf2"
						x="41.832" y="68.932" 
						transform="rotate(-44 41.832 68.932)" 	
						fill="rgb(41,177,184)" /><use xlink:href="#leaf1"
						x="41.832" y="68.932" 
						transform="rotate(-154 41.832 68.932)" 	
						fill="rgb(38,173,188)" /><use xlink:href="#leaf3"
						x="41.832" y="68.932" 
						transform="rotate(163 41.832 68.932)" 	
						fill="rgb(57,164,197)" />
					<g>
					<path d ="M 41.832,68.932 
					a 87 870 4.53 0 1 2.832,-10.74" fill ="none" stroke ="rgb(76.5,6.5,67.5)" stroke-width ="1.359"/></g><circle cx="44.664" cy="58.192" r="0.33975" stroke="rgb(81.5,11.5,72.5)" fill="rgb(76.5,6.5,67.5)"/><use xlink:href="#leaf1"
						x="44.664" y="58.192" 
						transform="rotate(121 44.664 58.192)" 	
						fill="rgb(39,189,184)" /><use xlink:href="#leaf2"
						x="44.664" y="58.192" 
						transform="rotate(144 45.364 58.802)" 	
						fill="rgb(48,192,181)" /><use xlink:href="#leaf2"
						x="44.664" y="58.192" 
						transform="rotate(-131 44.664 58.192)" 	
						fill="rgb(43,157,187)" /><use xlink:href="#leaf1"
						x="44.664" y="58.192" 
						transform="rotate(119 44.664 58.192)" 	
						fill="rgb(46,160,217)" />
					<g>
					<path d ="M 41.832,68.932 
					a 100 300 17.37 0 0 8.724,5.52" fill ="none" stroke ="rgb(79.5,6.5,70.5)" stroke-width ="1.359"/></g><circle cx="50.556" cy="74.452" r="0.33975" stroke="rgb(84.5,11.5,75.5)" fill="rgb(79.5,6.5,70.5)"/><use xlink:href="#leaf3"
						x="50.556" y="74.452" 
						transform="rotate(-135 50.556 74.452)" 	
						fill="rgb(45,183,216)" /><use xlink:href="#leaf3"
						x="50.556" y="74.452" 
						transform="rotate(-48 51.516 74.722)" 	
						fill="rgb(68,179,217)" /><use xlink:href="#leaf1"
						x="50.556" y="74.452" 
						transform="rotate(-81 50.556 74.452)" 	
						fill="rgb(71,194,186)" /><use xlink:href="#leaf4"
						x="50.556" y="74.452" 
						transform="rotate(-47 50.556 74.452)" 	
						fill="rgb(46,194,194)" /><use xlink:href="#leaf3"
						x="50.556" y="74.452" 
						transform="rotate(37 51.366 75.202)" 	
						fill="rgb(39,157,179)" /><use xlink:href="#leaf3"
						x="50.556" y="74.452" 
						transform="rotate(-156 51.216 75.142)" 	
						fill="rgb(66,174,205)" /><use xlink:href="#leaf2"
						x="50.556" y="74.452" 
						transform="rotate(168 51.196 74.692)" 	
						fill="rgb(39,169,198)" /><use xlink:href="#leaf1"
						x="50.556" y="74.452" 
						transform="rotate(-35 50.726 75.122)" 	
						fill="rgb(78,177,194)" />
					<g>
					<path d ="M 41.832,68.932 
					a 55 330 -10.41 0 0 10.968,-5.16" fill ="none" stroke ="rgb(78.5,9.5,71.5)" stroke-width ="1.359"/></g><circle cx="52.8" cy="63.772" r="0.33975" stroke="rgb(83.5,14.5,76.5)" fill="rgb(78.5,9.5,71.5)"/><use xlink:href="#leaf1"
						x="52.8" y="63.772" 
						transform="rotate(-144 53.07 64.752)" 	
						fill="rgb(60,194,177)" /><use xlink:href="#leaf2"
						x="52.8" y="63.772" 
						transform="rotate(-20 52.8 63.772)" 	
						fill="rgb(66,161,195)" /><use xlink:href="#leaf4"
						x="52.8" y="63.772" 
						transform="rotate(-104 53.33 63.822)" 	
						fill="rgb(70,184,186)" /><use xlink:href="#leaf4"
						x="52.8" y="63.772" 
						transform="rotate(173 53.46 64.592)" 	
						fill="rgb(50,174,200)" /><use xlink:href="#leaf1"
						x="52.8" y="63.772" 
						transform="rotate(-73 52.8 63.772)" 	
						fill="rgb(43,182,178)" /><use xlink:href="#leaf4"
						x="52.8" y="63.772" 
						transform="rotate(-99 52.8 63.772)" 	
						fill="rgb(60,187,190)" /><use xlink:href="#flower4" id="fleur30"
							x="52.8" y="63.772" 
							transform="rotate(-8 52.8 63.772)" />
					<g>
					<path d ="M 52.8,63.772 
					a 61 122 17.27 0 0 7.188,-9.78" fill ="none" stroke ="rgb(78,10,73)" stroke-width ="0.906"/></g><circle cx="59.988" cy="53.992" r="0.2265" stroke="rgb(83,15,78)" fill="rgb(78,10,73)"/><use xlink:href="#leaf1"
						x="59.988" y="53.992" 
						transform="rotate(164 59.988 53.992)" 	
						fill="rgb(51,159,196)" /><use xlink:href="#leaf1"
						x="59.988" y="53.992" 
						transform="rotate(113 60.948 54.152)" 	
						fill="rgb(42,178,217)" /><use xlink:href="#leaf5"
						x="59.988" y="53.992" 
						transform="rotate(-82 59.988 53.992)" 	
						fill="rgb(78,164,186)" /><use xlink:href="#leaf4"
						x="59.988" y="53.992" 
						transform="rotate(2 59.988 53.992)" 	
						fill="rgb(38,194,196)" /><use xlink:href="#leaf4"
						x="59.988" y="53.992" 
						transform="rotate(-146 60.168 54.852)" 	
						fill="rgb(59,171,203)" /><use xlink:href="#leaf1"
						x="59.988" y="53.992" 
						transform="rotate(-121 59.988 53.992)" 	
						fill="rgb(43,194,193)" /><use xlink:href="#leaf5"
						x="59.988" y="53.992" 
						transform="rotate(25 59.988 53.992)" 	
						fill="rgb(77,177,195)" /><use xlink:href="#leaf1"
						x="59.988" y="53.992" 
						transform="rotate(100 59.988 53.992)" 	
						fill="rgb(69,175,206)" /><use xlink:href="#leaf2"
						x="59.988" y="53.992" 
						transform="rotate(-169 59.988 53.992)" 	
						fill="rgb(41,170,178)" /><use xlink:href="#leaf5"
						x="59.988" y="53.992" 
						transform="rotate(-65 60.378 54.512)" 	
						fill="rgb(58,162,199)" /><use xlink:href="#leaf5"
						x="59.988" y="53.992" 
						transform="rotate(28 59.988 53.992)" 	
						fill="rgb(47,168,217)" /><use xlink:href="#leaf3"
						x="59.988" y="53.992" 
						transform="rotate(-166 60.398 54.282)" 	
						fill="rgb(51,166,206)" /><use xlink:href="#leaf3"
						x="59.988" y="53.992" 
						transform="rotate(161 59.988 53.992)" 	
						fill="rgb(50,172,197)" /><use xlink:href="#leaf3"
						x="59.988" y="53.992" 
						transform="rotate(80 59.988 53.992)" 	
						fill="rgb(60,156,206)" />
					<g>
					<path d ="M 52.8,63.772 
					a 70 70 16.21 0 1 -11.88,-8.796" fill ="none" stroke ="rgb(80.5,13.5,75.5)" stroke-width ="0.906"/></g><circle cx="40.92" cy="54.976" r="0.2265" stroke="rgb(85.5,18.5,80.5)" fill="rgb(80.5,13.5,75.5)"/><use xlink:href="#leaf2"
						x="40.92" y="54.976" 
						transform="rotate(-22 41.41 55.456)" 	
						fill="rgb(54,163,198)" /><use xlink:href="#leaf5"
						x="40.92" y="54.976" 
						transform="rotate(12 41.13 55.286)" 	
						fill="rgb(71,168,215)" /><use xlink:href="#leaf5"
						x="40.92" y="54.976" 
						transform="rotate(77 41.23 54.976)" 	
						fill="rgb(63,157,207)" /><use xlink:href="#leaf1"
						x="40.92" y="54.976" 
						transform="rotate(-61 41.49 55.206)" 	
						fill="rgb(40,185,186)" /><use xlink:href="#leaf1"
						x="40.92" y="54.976" 
						transform="rotate(-77 41.18 55.076)" 	
						fill="rgb(57,189,191)" /><use xlink:href="#leaf3"
						x="40.92" y="54.976" 
						transform="rotate(-56 40.92 54.976)" 	
						fill="rgb(40,158,181)" /><use xlink:href="#leaf1"
						x="40.92" y="54.976" 
						transform="rotate(4 40.92 54.976)" 	
						fill="rgb(73,160,181)" /><use xlink:href="#leaf2"
						x="40.92" y="54.976" 
						transform="rotate(-120 41.51 55.366)" 	
						fill="rgb(71,179,212)" /><use xlink:href="#leaf4"
						x="40.92" y="54.976" 
						transform="rotate(147 40.92 54.976)" 	
						fill="rgb(73,167,204)" /><use xlink:href="#leaf2"
						x="40.92" y="54.976" 
						transform="rotate(103 40.92 54.976)" 	
						fill="rgb(44,190,214)" /><use xlink:href="#leaf1"
						x="40.92" y="54.976" 
						transform="rotate(63 41.3 55.646)" 	
						fill="rgb(55,166,201)" /><use xlink:href="#leaf1"
						x="40.92" y="54.976" 
						transform="rotate(-116 41.35 55.086)" 	
						fill="rgb(62,171,213)" />
					<g>
					<path d ="M 41.832,68.932 
					a 79 79 -4.61 0 1 12.876,1.416" fill ="none" stroke ="rgb(80.5,12.5,76.5)" stroke-width ="1.359"/></g><circle cx="54.708" cy="70.348" r="0.33975" stroke="rgb(85.5,17.5,81.5)" fill="rgb(80.5,12.5,76.5)"/><use xlink:href="#leaf3"
						x="54.708" y="70.348" 
						transform="rotate(40 54.708 70.348)" 	
						fill="rgb(38,172,208)" /><use xlink:href="#leaf1"
						x="54.708" y="70.348" 
						transform="rotate(102 55.688 71.218)" 	
						fill="rgb(63,180,204)" /><use xlink:href="#leaf3"
						x="54.708" y="70.348" 
						transform="rotate(148 54.708 70.348)" 	
						fill="rgb(54,193,190)" /><use xlink:href="#leaf1"
						x="54.708" y="70.348" 
						transform="rotate(-84 54.708 70.348)" 	
						fill="rgb(38,182,192)" /><use xlink:href="#leaf1"
						x="54.708" y="70.348" 
						transform="rotate(115 54.708 70.348)" 	
						fill="rgb(39,168,208)" /><use xlink:href="#leaf3"
						x="54.708" y="70.348" 
						transform="rotate(-53 54.798 70.818)" 	
						fill="rgb(52,190,188)" /><use xlink:href="#leaf4"
						x="54.708" y="70.348" 
						transform="rotate(-141 54.708 70.348)" 	
						fill="rgb(78,179,201)" /><use xlink:href="#leaf4"
						x="54.708" y="70.348" 
						transform="rotate(2 54.708 70.348)" 	
						fill="rgb(63,183,195)" /><use xlink:href="#leaf1"
						x="54.708" y="70.348" 
						transform="rotate(162 54.708 70.348)" 	
						fill="rgb(58,166,203)" /><use xlink:href="#leaf1"
						x="54.708" y="70.348" 
						transform="rotate(72 55.078 70.828)" 	
						fill="rgb(38,182,204)" /><use xlink:href="#leaf4"
						x="54.708" y="70.348" 
						transform="rotate(113 54.708 70.348)" 	
						fill="rgb(54,170,186)" /><use xlink:href="#leaf3"
						x="54.708" y="70.348" 
						transform="rotate(44 54.708 70.348)" 	
						fill="rgb(38,175,199)" /><use xlink:href="#leaf1"
						x="54.708" y="70.348" 
						transform="rotate(-70 54.978 70.508)" 	
						fill="rgb(38,158,183)" /><use xlink:href="#leaf2"
						x="54.708" y="70.348" 
						transform="rotate(-14 54.838 70.438)" 	
						fill="rgb(51,157,197)" />
					<g>
					<path d ="M 54.708,70.348 
					a 50 400 3.60 0 0 -2.532,-3.144" fill ="none" stroke ="rgb(80,15,77)" stroke-width ="0.906"/></g><circle cx="52.176" cy="67.204" r="0.2265" stroke="rgb(85,20,82)" fill="rgb(80,15,77)"/><use xlink:href="#leaf5"
						x="52.176" y="67.204" 
						transform="rotate(39 52.246 67.444)" 	
						fill="rgb(70,193,182)" /><use xlink:href="#leaf2"
						x="52.176" y="67.204" 
						transform="rotate(175 52.176 67.204)" 	
						fill="rgb(60,162,179)" /><use xlink:href="#leaf3"
						x="52.176" y="67.204" 
						transform="rotate(19 53.136 67.794)" 	
						fill="rgb(48,192,202)" /><use xlink:href="#leaf2"
						x="52.176" y="67.204" 
						transform="rotate(-78 52.186 68.144)" 	
						fill="rgb(61,192,179)" /><use xlink:href="#leaf5"
						x="52.176" y="67.204" 
						transform="rotate(2 52.176 67.204)" 	
						fill="rgb(40,194,208)" /><use xlink:href="#leaf2"
						x="52.176" y="67.204" 
						transform="rotate(28 52.176 67.204)" 	
						fill="rgb(49,186,209)" /><use xlink:href="#leaf1"
						x="52.176" y="67.204" 
						transform="rotate(-146 52.796 67.694)" 	
						fill="rgb(62,183,193)" /><use xlink:href="#leaf3"
						x="52.176" y="67.204" 
						transform="rotate(-2 52.176 67.204)" 	
						fill="rgb(46,175,207)" /><use xlink:href="#leaf2"
						x="52.176" y="67.204" 
						transform="rotate(-147 52.176 67.204)" 	
						fill="rgb(71,160,184)" /><use xlink:href="#leaf1"
						x="52.176" y="67.204" 
						transform="rotate(113 52.176 67.204)" 	
						fill="rgb(59,162,206)" /><use xlink:href="#leaf2"
						x="52.176" y="67.204" 
						transform="rotate(-170 52.176 67.204)" 	
						fill="rgb(70,163,186)" /><use xlink:href="#leaf5"
						x="52.176" y="67.204" 
						transform="rotate(-107 52.636 67.914)" 	
						fill="rgb(61,177,199)" /><use xlink:href="#leaf4"
						x="52.176" y="67.204" 
						transform="rotate(-103 52.526 67.924)" 	
						fill="rgb(61,181,198)" /><use xlink:href="#leaf5"
						x="52.176" y="67.204" 
						transform="rotate(73 52.176 67.204)" 	
						fill="rgb(67,186,214)" /><use xlink:href="#flower5" id="fleur70"
							x="52.176" y="67.204" 
							transform="rotate(158 52.176 67.204)" />
					<g>
					<path d ="M 54.708,70.348 
					a 55 110 -13.44 0 0 9,-8.88" fill ="none" stroke ="rgb(79.5,16.5,78.5)" stroke-width ="0.906"/></g><circle cx="63.708" cy="61.468" r="0.2265" stroke="rgb(84.5,21.5,83.5)" fill="rgb(79.5,16.5,78.5)"/><use xlink:href="#leaf5"
						x="63.708" y="61.468" 
						transform="rotate(87 63.928 62.408)" 	
						fill="rgb(62,178,215)" /><use xlink:href="#leaf4"
						x="63.708" y="61.468" 
						transform="rotate(83 63.708 61.468)" 	
						fill="rgb(51,162,191)" /><use xlink:href="#leaf5"
						x="63.708" y="61.468" 
						transform="rotate(-143 63.708 61.468)" 	
						fill="rgb(44,171,201)" /><use xlink:href="#leaf3"
						x="63.708" y="61.468" 
						transform="rotate(-35 63.708 61.468)" 	
						fill="rgb(63,171,189)" /><use xlink:href="#leaf5"
						x="63.708" y="61.468" 
						transform="rotate(-153 63.708 61.468)" 	
						fill="rgb(78,164,193)" /><use xlink:href="#leaf2"
						x="63.708" y="61.468" 
						transform="rotate(-56 63.708 61.468)" 	
						fill="rgb(45,194,206)" /><use xlink:href="#leaf3"
						x="63.708" y="61.468" 
						transform="rotate(78 64.148 62.148)" 	
						fill="rgb(38,194,181)" /><use xlink:href="#leaf5"
						x="63.708" y="61.468" 
						transform="rotate(160 64.058 62.348)" 	
						fill="rgb(75,181,216)" /><use xlink:href="#flower5" id="fleur80"
							x="63.708" y="61.468" 
							transform="rotate(22 64.356 61.852)" />
					<g>
					<path d ="M 54.708,70.348 
					a 90 630 17.9 0 1 -2.364,-4.38" fill ="none" stroke ="rgb(79,19,82)" stroke-width ="0.906"/></g><circle cx="52.344" cy="65.968" r="0.2265" stroke="rgb(84,24,87)" fill="rgb(79,19,82)"/><use xlink:href="#leaf4"
						x="52.344" y="65.968" 
						transform="rotate(128 53.044 66.928)" 	
						fill="rgb(49,193,204)" /><use xlink:href="#leaf5"
						x="52.344" y="65.968" 
						transform="rotate(-161 52.394 66.208)" 	
						fill="rgb(50,158,178)" /><use xlink:href="#leaf1"
						x="52.344" y="65.968" 
						transform="rotate(12 52.344 65.968)" 	
						fill="rgb(69,192,180)" /><use xlink:href="#leaf3"
						x="52.344" y="65.968" 
						transform="rotate(-66 52.344 65.968)" 	
						fill="rgb(73,180,200)" /><use xlink:href="#leaf3"
						x="52.344" y="65.968" 
						transform="rotate(-58 52.924 66.258)" 	
						fill="rgb(57,195,197)" /><use xlink:href="#leaf2"
						x="52.344" y="65.968" 
						transform="rotate(175 52.344 65.968)" 	
						fill="rgb(70,196,211)" /><use xlink:href="#leaf1"
						x="52.344" y="65.968" 
						transform="rotate(123 53.264 66.328)" 	
						fill="rgb(62,191,217)" /><use xlink:href="#leaf3"
						x="52.344" y="65.968" 
						transform="rotate(130 52.544 66.488)" 	
						fill="rgb(54,177,202)" /><use xlink:href="#leaf5"
						x="52.344" y="65.968" 
						transform="rotate(64 52.924 66.778)" 	
						fill="rgb(52,189,207)" /><use xlink:href="#leaf2"
						x="52.344" y="65.968" 
						transform="rotate(-130 52.344 65.968)" 	
						fill="rgb(54,156,207)" /><use xlink:href="#flower2" id="fleur90"
							x="52.344" y="65.968" 
							transform="rotate(125 52.344 65.968)" />
					<g>
					<path d ="M 52.344,65.968 
					a 92 644 -18.14 0 0 -1.764,-1.5" fill ="none" stroke ="rgb(80,23,86)" stroke-width ="0.6795"/></g><circle cx="50.58" cy="64.468" r="0.169875" stroke="rgb(85,28,91)" fill="rgb(80,23,86)"/><use xlink:href="#leaf6"
						x="50.58" y="64.468" 
						transform="rotate(-145 51.49 64.788)" 	
						fill="rgb(58,194,198)" /><use xlink:href="#leaf6"
						x="50.58" y="64.468" 
						transform="rotate(-117 50.58 64.468)" 	
						fill="rgb(73,189,217)" /><use xlink:href="#leaf2"
						x="50.58" y="64.468" 
						transform="rotate(-151 51.3 65.148)" 	
						fill="rgb(58,174,194)" /><use xlink:href="#leaf3"
						x="50.58" y="64.468" 
						transform="rotate(-44 50.67 64.838)" 	
						fill="rgb(44,167,201)" /><use xlink:href="#leaf2"
						x="50.58" y="64.468" 
						transform="rotate(119 50.58 64.468)" 	
						fill="rgb(73,187,208)" /><use xlink:href="#leaf3"
						x="50.58" y="64.468" 
						transform="rotate(23 50.58 64.468)" 	
						fill="rgb(68,174,214)" /><use xlink:href="#leaf4"
						x="50.58" y="64.468" 
						transform="rotate(-29 50.58 64.468)" 	
						fill="rgb(48,162,204)" /><use xlink:href="#leaf3"
						x="50.58" y="64.468" 
						transform="rotate(30 50.58 64.468)" 	
						fill="rgb(69,186,193)" /><use xlink:href="#leaf6"
						x="50.58" y="64.468" 
						transform="rotate(144 51.31 65.198)" 	
						fill="rgb(52,161,186)" /><use xlink:href="#leaf3"
						x="50.58" y="64.468" 
						transform="rotate(75 50.58 64.468)" 	
						fill="rgb(75,196,192)" /><use xlink:href="#leaf5"
						x="50.58" y="64.468" 
						transform="rotate(180 50.58 64.468)" 	
						fill="rgb(44,156,187)" /><use xlink:href="#leaf3"
						x="50.58" y="64.468" 
						transform="rotate(40 50.58 64.468)" 	
						fill="rgb(68,191,179)" /><use xlink:href="#leaf6"
						x="50.58" y="64.468" 
						transform="rotate(64 50.58 64.818)" 	
						fill="rgb(67,166,189)" /><use xlink:href="#leaf3"
						x="50.58" y="64.468" 
						transform="rotate(-174 51.08 64.678)" 	
						fill="rgb(41,160,187)" />
					<g>
					<path d ="M 52.344,65.968 
					a 55 55 -19.5 0 1 -4.188,-8.568" fill ="none" stroke ="rgb(80,23,86)" stroke-width ="0.6795"/></g><circle cx="48.156" cy="57.4" r="0.169875" stroke="rgb(85,28,91)" fill="rgb(80,23,86)"/><use xlink:href="#leaf6"
						x="48.156" y="57.4" 
						transform="rotate(175 48.156 57.4)" 	
						fill="rgb(54,166,209)" /><use xlink:href="#leaf6"
						x="48.156" y="57.4" 
						transform="rotate(39 48.366 57.61)" 	
						fill="rgb(47,169,185)" /><use xlink:href="#leaf3"
						x="48.156" y="57.4" 
						transform="rotate(-108 49.066 58.12)" 	
						fill="rgb(62,169,178)" /><use xlink:href="#leaf5"
						x="48.156" y="57.4" 
						transform="rotate(73 48.156 57.4)" 	
						fill="rgb(65,193,208)" /><use xlink:href="#leaf5"
						x="48.156" y="57.4" 
						transform="rotate(124 48.406 57.46)" 	
						fill="rgb(72,175,184)" /><use xlink:href="#leaf4"
						x="48.156" y="57.4" 
						transform="rotate(-168 48.586 57.94)" 	
						fill="rgb(53,173,188)" /><use xlink:href="#leaf3"
						x="48.156" y="57.4" 
						transform="rotate(-88 48.156 57.4)" 	
						fill="rgb(78,191,187)" /><use xlink:href="#leaf6"
						x="48.156" y="57.4" 
						transform="rotate(-46 48.366 58.38)" 	
						fill="rgb(49,188,209)" /><use xlink:href="#leaf6"
						x="48.156" y="57.4" 
						transform="rotate(172 48.156 57.4)" 	
						fill="rgb(71,162,196)" /><use xlink:href="#leaf4"
						x="48.156" y="57.4" 
						transform="rotate(-40 48.986 57.54)" 	
						fill="rgb(62,159,205)" />
					<g>
					<path d ="M 52.344,65.968 
					a 99 990 17.4 0 1 1.824,5.772" fill ="none" stroke ="rgb(84,24,90)" stroke-width ="0.6795"/></g><circle cx="54.168" cy="71.74" r="0.169875" stroke="rgb(89,29,95)" fill="rgb(84,24,90)"/><use xlink:href="#leaf4"
						x="54.168" y="71.74" 
						transform="rotate(-147 54.708 72.39)" 	
						fill="rgb(69,196,199)" /><use xlink:href="#leaf4"
						x="54.168" y="71.74" 
						transform="rotate(157 54.168 71.74)" 	
						fill="rgb(61,183,177)" /><use xlink:href="#leaf5"
						x="54.168" y="71.74" 
						transform="rotate(-21 54.908 71.97)" 	
						fill="rgb(68,157,195)" /><use xlink:href="#leaf6"
						x="54.168" y="71.74" 
						transform="rotate(-114 54.258 72.64)" 	
						fill="rgb(71,160,182)" /><use xlink:href="#leaf2"
						x="54.168" y="71.74" 
						transform="rotate(124 55.098 72.53)" 	
						fill="rgb(69,168,183)" /><use xlink:href="#leaf6"
						x="54.168" y="71.74" 
						transform="rotate(105 54.628 71.94)" 	
						fill="rgb(38,189,194)" /><use xlink:href="#leaf5"
						x="54.168" y="71.74" 
						transform="rotate(6 54.168 71.74)" 	
						fill="rgb(72,189,207)" /><use xlink:href="#leaf2"
						x="54.168" y="71.74" 
						transform="rotate(105 54.468 71.84)" 	
						fill="rgb(40,159,206)" /><use xlink:href="#leaf2"
						x="54.168" y="71.74" 
						transform="rotate(64 54.168 71.74)" 	
						fill="rgb(53,194,181)" /><use xlink:href="#leaf2"
						x="54.168" y="71.74" 
						transform="rotate(-132 54.168 71.74)" 	
						fill="rgb(39,193,191)" /><use xlink:href="#leaf4"
						x="54.168" y="71.74" 
						transform="rotate(-154 54.168 71.74)" 	
						fill="rgb(70,160,215)" /><use xlink:href="#leaf6"
						x="54.168" y="71.74" 
						transform="rotate(92 54.668 72.36)" 	
						fill="rgb(67,196,178)" /><use xlink:href="#leaf2"
						x="54.168" y="71.74" 
						transform="rotate(-155 54.168 71.74)" 	
						fill="rgb(48,185,179)" /><use xlink:href="#leaf5"
						x="54.168" y="71.74" 
						transform="rotate(150 54.168 71.74)" 	
						fill="rgb(73,174,180)" /><use xlink:href="#flower5" id="fleur120"
							x="54.168" y="71.74" 
							transform="rotate(74 55.212 72.148)" /><use xlink:href="#flower5" id="fleur121"
							x="54.168" y="71.74" 
							transform="rotate(-32 54.168 71.74)" />
					<g>
					<path d ="M 54.168,71.74 
					a 60 240 -2.46 0 0 7.596,-2.676" fill ="none" stroke ="rgb(86.5,24.5,90.5)" stroke-width ="0.5436"/></g><circle cx="61.764" cy="69.064" r="0.1359" stroke="rgb(91.5,29.5,95.5)" fill="rgb(86.5,24.5,90.5)"/><use xlink:href="#leaf5"
						x="61.764" y="69.064" 
						transform="rotate(-29 62.694 69.384)" 	
						fill="rgb(50,175,216)" /><use xlink:href="#leaf5"
						x="61.764" y="69.064" 
						transform="rotate(52 61.894 69.294)" 	
						fill="rgb(69,164,178)" /><use xlink:href="#leaf6"
						x="61.764" y="69.064" 
						transform="rotate(110 62.164 69.724)" 	
						fill="rgb(57,184,201)" /><use xlink:href="#leaf7"
						x="61.764" y="69.064" 
						transform="rotate(137 62.424 69.864)" 	
						fill="rgb(76,182,201)" /><use xlink:href="#leaf5"
						x="61.764" y="69.064" 
						transform="rotate(27 61.764 69.064)" 	
						fill="rgb(74,192,185)" /><use xlink:href="#leaf3"
						x="61.764" y="69.064" 
						transform="rotate(93 62.444 69.914)" 	
						fill="rgb(55,172,177)" /><use xlink:href="#leaf5"
						x="61.764" y="69.064" 
						transform="rotate(171 61.944 69.764)" 	
						fill="rgb(76,180,184)" /><use xlink:href="#leaf3"
						x="61.764" y="69.064" 
						transform="rotate(-51 61.764 69.064)" 	
						fill="rgb(59,185,186)" /><use xlink:href="#leaf5"
						x="61.764" y="69.064" 
						transform="rotate(108 61.764 69.064)" 	
						fill="rgb(66,179,189)" /><use xlink:href="#leaf5"
						x="61.764" y="69.064" 
						transform="rotate(35 62.064 69.534)" 	
						fill="rgb(48,175,202)" /></g>
				</svg>