<svg class="relie" xmlns="http://www.w3.org/2000/svg" viewBox="0 0 100 100" preserveAspectRatio="xMidYMid meet" x="0" y="0" overflow="visible" xmlns:xlink="http://www.w3.org/1999/xlink">

		<defs>  <g id="leaf1" transform="skewX(-5) skewY(-5)"><path d="M 0,0 
					q 0.1325 0.13125 0.125,1.5625 q 0.1325 0.37625 -0.125,1.5625 
					M 0,0 
					q -0.1325 0.13125 -0.125,1.5625 q -0.1325 0.37625 0.125,1.5625 " 
					stroke-width ="0.2" /></g>  <g id="leaf2" transform="skewX(-6) skewY(-6)"><path d="M 0,0 
					q 0.265 0.2625 0.25,3.125 q 0.265 0.7525 -0.25,3.125 
					M 0,0 
					q -0.265 0.2625 -0.25,3.125 q -0.265 0.7525 0.25,3.125 " 
					stroke-width ="0.2" /></g>  <g id="leaf3" transform="skewX(0) skewY(0)"><path d="M 0,0 
					q 0.3975 0.39375 0.375,4.6875 q 0.3975 1.12875 -0.375,4.6875 
					M 0,0 
					q -0.3975 0.39375 -0.375,4.6875 q -0.3975 1.12875 0.375,4.6875 " 
					stroke-width ="0.2" /></g>  <g id="leaf4" transform="skewX(15) skewY(15)"><path d="M 0,0 
					q 0.53 0.525 0.5,6.25 q 0.53 1.505 -0.5,6.25 
					M 0,0 
					q -0.53 0.525 -0.5,6.25 q -0.53 1.505 0.5,6.25 " 
					stroke-width ="0.2" /></g>  <g id="leaf5" transform="skewX(14) skewY(14)"><path d="M 0,0 
					q 0.6625 0.65625 0.625,7.8125 q 0.6625 1.88125 -0.625,7.8125 
					M 0,0 
					q -0.6625 0.65625 -0.625,7.8125 q -0.6625 1.88125 0.625,7.8125 " 
					stroke-width ="0.2" /></g>  <g id="leaf6" transform="skewX(-11) skewY(-11)"><path d="M 0,0 
					q 0.795 0.7875 0.75,9.375 q 0.795 2.2575 -0.75,9.375 
					M 0,0 
					q -0.795 0.7875 -0.75,9.375 q -0.795 2.2575 0.75,9.375 " 
					stroke-width ="0.2" /></g>  <g id="leaf7" transform="skewX(-15) skewY(-15)"><path d="M 0,0 
					q 0.9275 0.91875 0.875,10.9375 q 0.9275 2.63375 -0.875,10.9375 
					M 0,0 
					q -0.9275 0.91875 -0.875,10.9375 q -0.9275 2.63375 0.875,10.9375 " 
					stroke-width ="0.2" /></g>  <g id="leaf8" transform="skewX(7) skewY(7)"><path d="M 0,0 
					q 1.06 1.05 1,12.5 q 1.06 3.01 -1,12.5 
					M 0,0 
					q -1.06 1.05 -1,12.5 q -1.06 3.01 1,12.5 " 
					stroke-width ="0.2" /></g><g id="flower1"><path d="M 0,1.5 
						q -0.30875 -0.34 0.125,0.5 q 0.3325 0.30875 0.25,0.5 q 0.2025 0.305 -0.375,1 
						M 0,1.5 
						q 0.30875 -0.34 -0.125,0.5 q -0.3325 0.30875 -0.25,0.5 q -0.2025 0.305 0.375,1 " 
						transform="rotate(0 0,1.5 )"
						stroke-width ="0.1"
						fill="rgb(186,75,0)"
						/><circle cx="0" cy="1.5" r="0.48" fill="rgb(13,46,162)"/><circle cx="0.08" cy="1.46" r="0.32" fill="rgb(31.5,55.5,163.5)"/><path d="M 0,1.5 
						q -0.30875 -0.34 0.125,0.5 q 0.3325 0.30875 0.25,0.5 q 0.2025 0.305 -0.375,1 
						M 0,1.5 
						q 0.30875 -0.34 -0.125,0.5 q -0.3325 0.30875 -0.25,0.5 q -0.2025 0.305 0.375,1 " 
						transform="rotate(32.727272727273 0,1.5 )"
						stroke-width ="0.1"
						fill="rgb(167.5,73.5,9.5)"
						/><circle cx="0" cy="1.5" r="0.48" fill="rgb(13,46,162)"/><circle cx="-0.05" cy="1.51" r="0.32" fill="rgb(31.5,55.5,163.5)"/><path d="M 0,1.5 
						q -0.30875 -0.34 0.125,0.5 q 0.3325 0.30875 0.25,0.5 q 0.2025 0.305 -0.375,1 
						M 0,1.5 
						q 0.30875 -0.34 -0.125,0.5 q -0.3325 0.30875 -0.25,0.5 q -0.2025 0.305 0.375,1 " 
						transform="rotate(65.454545454545 0,1.5 )"
						stroke-width ="0.1"
						fill="rgb(174,64,6)"
						/><circle cx="0" cy="1.5" r="0.48" fill="rgb(13,46,162)"/><circle cx="0" cy="1.49" r="0.32" fill="rgb(31.5,55.5,163.5)"/><path d="M 0,1.5 
						q -0.30875 -0.34 0.125,0.5 q 0.3325 0.30875 0.25,0.5 q 0.2025 0.305 -0.375,1 
						M 0,1.5 
						q 0.30875 -0.34 -0.125,0.5 q -0.3325 0.30875 -0.25,0.5 q -0.2025 0.305 0.375,1 " 
						transform="rotate(98.181818181818 0,1.5 )"
						stroke-width ="0.1"
						fill="rgb(170.5,66.5,0)"
						/><circle cx="0" cy="1.5" r="0.48" fill="rgb(13,46,162)"/><circle cx="0.1" cy="1.58" r="0.32" fill="rgb(31.5,55.5,163.5)"/><path d="M 0,1.5 
						q -0.30875 -0.34 0.125,0.5 q 0.3325 0.30875 0.25,0.5 q 0.2025 0.305 -0.375,1 
						M 0,1.5 
						q 0.30875 -0.34 -0.125,0.5 q -0.3325 0.30875 -0.25,0.5 q -0.2025 0.305 0.375,1 " 
						transform="rotate(130.90909090909 0,1.5 )"
						stroke-width ="0.1"
						fill="rgb(172,52,0)"
						/><circle cx="0" cy="1.5" r="0.48" fill="rgb(13,46,162)"/><circle cx="-0.02" cy="1.55" r="0.32" fill="rgb(31.5,55.5,163.5)"/><path d="M 0,1.5 
						q -0.30875 -0.34 0.125,0.5 q 0.3325 0.30875 0.25,0.5 q 0.2025 0.305 -0.375,1 
						M 0,1.5 
						q 0.30875 -0.34 -0.125,0.5 q -0.3325 0.30875 -0.25,0.5 q -0.2025 0.305 0.375,1 " 
						transform="rotate(163.63636363636 0,1.5 )"
						stroke-width ="0.1"
						fill="rgb(156.5,51.5,0)"
						/><circle cx="0" cy="1.5" r="0.48" fill="rgb(13,46,162)"/><circle cx="-0.09" cy="1.55" r="0.32" fill="rgb(31.5,55.5,163.5)"/><path d="M 0,1.5 
						q -0.30875 -0.34 0.125,0.5 q 0.3325 0.30875 0.25,0.5 q 0.2025 0.305 -0.375,1 
						M 0,1.5 
						q 0.30875 -0.34 -0.125,0.5 q -0.3325 0.30875 -0.25,0.5 q -0.2025 0.305 0.375,1 " 
						transform="rotate(196.36363636364 0,1.5 )"
						stroke-width ="0.1"
						fill="rgb(155,47,0)"
						/><circle cx="0" cy="1.5" r="0.48" fill="rgb(13,46,162)"/><circle cx="0.06" cy="1.4" r="0.32" fill="rgb(31.5,55.5,163.5)"/><path d="M 0,1.5 
						q -0.30875 -0.34 0.125,0.5 q 0.3325 0.30875 0.25,0.5 q 0.2025 0.305 -0.375,1 
						M 0,1.5 
						q 0.30875 -0.34 -0.125,0.5 q -0.3325 0.30875 -0.25,0.5 q -0.2025 0.305 0.375,1 " 
						transform="rotate(229.09090909091 0,1.5 )"
						stroke-width ="0.1"
						fill="rgb(167.5,61.5,0)"
						/><circle cx="0" cy="1.5" r="0.48" fill="rgb(13,46,162)"/><circle cx="-0.05" cy="1.47" r="0.32" fill="rgb(31.5,55.5,163.5)"/><path d="M 0,1.5 
						q -0.30875 -0.34 0.125,0.5 q 0.3325 0.30875 0.25,0.5 q 0.2025 0.305 -0.375,1 
						M 0,1.5 
						q 0.30875 -0.34 -0.125,0.5 q -0.3325 0.30875 -0.25,0.5 q -0.2025 0.305 0.375,1 " 
						transform="rotate(261.81818181818 0,1.5 )"
						stroke-width ="0.1"
						fill="rgb(165,42,0)"
						/><circle cx="0" cy="1.5" r="0.48" fill="rgb(13,46,162)"/><circle cx="0.03" cy="1.41" r="0.32" fill="rgb(31.5,55.5,163.5)"/><path d="M 0,1.5 
						q -0.30875 -0.34 0.125,0.5 q 0.3325 0.30875 0.25,0.5 q 0.2025 0.305 -0.375,1 
						M 0,1.5 
						q 0.30875 -0.34 -0.125,0.5 q -0.3325 0.30875 -0.25,0.5 q -0.2025 0.305 0.375,1 " 
						transform="rotate(294.54545454545 0,1.5 )"
						stroke-width ="0.1"
						fill="rgb(161.5,56.5,0)"
						/><circle cx="0" cy="1.5" r="0.48" fill="rgb(13,46,162)"/><circle cx="0.06" cy="1.42" r="0.32" fill="rgb(31.5,55.5,163.5)"/><path d="M 0,1.5 
						q -0.30875 -0.34 0.125,0.5 q 0.3325 0.30875 0.25,0.5 q 0.2025 0.305 -0.375,1 
						M 0,1.5 
						q 0.30875 -0.34 -0.125,0.5 q -0.3325 0.30875 -0.25,0.5 q -0.2025 0.305 0.375,1 " 
						transform="rotate(327.27272727273 0,1.5 )"
						stroke-width ="0.1"
						fill="rgb(149,35,0)"
						/><circle cx="0" cy="1.5" r="0.48" fill="rgb(13,46,162)"/><circle cx="-0.02" cy="1.51" r="0.32" fill="rgb(31.5,55.5,163.5)"/><path d="M 0,1.5 
						q -0.30875 -0.34 0.125,0.5 q 0.3325 0.30875 0.25,0.5 q 0.2025 0.305 -0.375,1 
						M 0,1.5 
						q 0.30875 -0.34 -0.125,0.5 q -0.3325 0.30875 -0.25,0.5 q -0.2025 0.305 0.375,1 " 
						transform="rotate(360 0,1.5 )"
						stroke-width ="0.1"
						fill="rgb(150.5,43.5,0)"
						/><circle cx="0" cy="1.5" r="0.48" fill="rgb(13,46,162)"/><circle cx="0.07" cy="1.43" r="0.32" fill="rgb(31.5,55.5,163.5)"/></g><g id="flower2"><path d="M 0,3 
						q -0.6175 -0.68 0.25,1 q 0.665 0.6175 0.5,1 q 0.405 0.61 -0.75,1 
						M 0,3 
						q 0.6175 -0.68 -0.25,1 q -0.665 0.6175 -0.5,1 q -0.405 0.61 0.75,1 " 
						transform="rotate(0 0,3 )"
						stroke-width ="0.1"
						fill="rgb(188,73,8)"
						/><path d="M 0,3 
						q -0.6175 -0.68 0.25,1 q 0.665 0.6175 0.5,1 q 0.405 0.61 -0.75,1 
						M 0,3 
						q 0.6175 -0.68 -0.25,1 q -0.665 0.6175 -0.5,1 q -0.405 0.61 0.75,1 " 
						transform="rotate(16.363636363636 0,3 )"
						stroke-width ="0.1"
						fill="rgb(173.5,67.5,2.5)"
						/><path d="M 0,3 
						q -0.6175 -0.68 0.25,1 q 0.665 0.6175 0.5,1 q 0.405 0.61 -0.75,1 
						M 0,3 
						q 0.6175 -0.68 -0.25,1 q -0.665 0.6175 -0.5,1 q -0.405 0.61 0.75,1 " 
						transform="rotate(32.727272727273 0,3 )"
						stroke-width ="0.1"
						fill="rgb(167,58,5)"
						/></g><g id="flower3"><path d="M 0,4.5 
						q -0.92625 -1.02 0.375,1.5 q 0.9975 0.92625 0.75,1.5 q 0.6075 0.915 -1.125,1.5 
						M 0,4.5 
						q 0.92625 -1.02 -0.375,1.5 q -0.9975 0.92625 -0.75,1.5 q -0.6075 0.915 1.125,1.5 " 
						transform="rotate(0 0,4.5 )"
						stroke-width ="0.1"
						fill="rgb(172,67,12)"
						/><path d="M 0,4.5 
						q -0.92625 -1.02 0.375,1.5 q 0.9975 0.92625 0.75,1.5 q 0.6075 0.915 -1.125,1.5 
						M 0,4.5 
						q 0.92625 -1.02 -0.375,1.5 q -0.9975 0.92625 -0.75,1.5 q -0.6075 0.915 1.125,1.5 " 
						transform="rotate(16.363636363636 0,4.5 )"
						stroke-width ="0.1"
						fill="rgb(176.5,67.5,4.5)"
						/><path d="M 0,4.5 
						q -0.92625 -1.02 0.375,1.5 q 0.9975 0.92625 0.75,1.5 q 0.6075 0.915 -1.125,1.5 
						M 0,4.5 
						q 0.92625 -1.02 -0.375,1.5 q -0.9975 0.92625 -0.75,1.5 q -0.6075 0.915 1.125,1.5 " 
						transform="rotate(32.727272727273 0,4.5 )"
						stroke-width ="0.1"
						fill="rgb(173,70,7)"
						/></g><g id="flower4"><path d="M 0,6 
						q -1.235 -1.36 0.5,2 q 1.33 1.235 1,2 q 0.81 1.22 -1.5,2 
						M 0,6 
						q 1.235 -1.36 -0.5,2 q -1.33 1.235 -1,2 q -0.81 1.22 1.5,2 " 
						transform="rotate(0 0,6 )"
						stroke-width ="0.1"
						fill="rgb(168,75,8)"
						/><circle cx="0" cy="6" r="1.92" fill="rgb(10,50,162)"/><circle cx="0.01" cy="6.05" r="1.28" fill="rgb(14.5,53.5,179.5)"/><path d="M 0,6 
						q -1.235 -1.36 0.5,2 q 1.33 1.235 1,2 q 0.81 1.22 -1.5,2 
						M 0,6 
						q 1.235 -1.36 -0.5,2 q -1.33 1.235 -1,2 q -0.81 1.22 1.5,2 " 
						transform="rotate(32.727272727273 0,6 )"
						stroke-width ="0.1"
						fill="rgb(175.5,65.5,0)"
						/><circle cx="0" cy="6" r="1.92" fill="rgb(10,50,162)"/><circle cx="0.02" cy="6" r="1.28" fill="rgb(14.5,53.5,179.5)"/><path d="M 0,6 
						q -1.235 -1.36 0.5,2 q 1.33 1.235 1,2 q 0.81 1.22 -1.5,2 
						M 0,6 
						q 1.235 -1.36 -0.5,2 q -1.33 1.235 -1,2 q -0.81 1.22 1.5,2 " 
						transform="rotate(65.454545454545 0,6 )"
						stroke-width ="0.1"
						fill="rgb(180,66,2)"
						/><circle cx="0" cy="6" r="1.92" fill="rgb(10,50,162)"/><circle cx="-0.05" cy="6.1" r="1.28" fill="rgb(14.5,53.5,179.5)"/><path d="M 0,6 
						q -1.235 -1.36 0.5,2 q 1.33 1.235 1,2 q 0.81 1.22 -1.5,2 
						M 0,6 
						q 1.235 -1.36 -0.5,2 q -1.33 1.235 -1,2 q -0.81 1.22 1.5,2 " 
						transform="rotate(98.181818181818 0,6 )"
						stroke-width ="0.1"
						fill="rgb(169.5,53.5,0)"
						/><circle cx="0" cy="6" r="1.92" fill="rgb(10,50,162)"/><circle cx="-0.08" cy="6.01" r="1.28" fill="rgb(14.5,53.5,179.5)"/><path d="M 0,6 
						q -1.235 -1.36 0.5,2 q 1.33 1.235 1,2 q 0.81 1.22 -1.5,2 
						M 0,6 
						q 1.235 -1.36 -0.5,2 q -1.33 1.235 -1,2 q -0.81 1.22 1.5,2 " 
						transform="rotate(130.90909090909 0,6 )"
						stroke-width ="0.1"
						fill="rgb(169,68,0)"
						/><circle cx="0" cy="6" r="1.92" fill="rgb(10,50,162)"/><circle cx="0.09" cy="5.92" r="1.28" fill="rgb(14.5,53.5,179.5)"/><path d="M 0,6 
						q -1.235 -1.36 0.5,2 q 1.33 1.235 1,2 q 0.81 1.22 -1.5,2 
						M 0,6 
						q 1.235 -1.36 -0.5,2 q -1.33 1.235 -1,2 q -0.81 1.22 1.5,2 " 
						transform="rotate(163.63636363636 0,6 )"
						stroke-width ="0.1"
						fill="rgb(174.5,51.5,0)"
						/><circle cx="0" cy="6" r="1.92" fill="rgb(10,50,162)"/><circle cx="-0.05" cy="5.92" r="1.28" fill="rgb(14.5,53.5,179.5)"/><path d="M 0,6 
						q -1.235 -1.36 0.5,2 q 1.33 1.235 1,2 q 0.81 1.22 -1.5,2 
						M 0,6 
						q 1.235 -1.36 -0.5,2 q -1.33 1.235 -1,2 q -0.81 1.22 1.5,2 " 
						transform="rotate(196.36363636364 0,6 )"
						stroke-width ="0.1"
						fill="rgb(164,62,0)"
						/><circle cx="0" cy="6" r="1.92" fill="rgb(10,50,162)"/><circle cx="0.04" cy="6.02" r="1.28" fill="rgb(14.5,53.5,179.5)"/><path d="M 0,6 
						q -1.235 -1.36 0.5,2 q 1.33 1.235 1,2 q 0.81 1.22 -1.5,2 
						M 0,6 
						q 1.235 -1.36 -0.5,2 q -1.33 1.235 -1,2 q -0.81 1.22 1.5,2 " 
						transform="rotate(229.09090909091 0,6 )"
						stroke-width ="0.1"
						fill="rgb(160.5,52.5,0)"
						/><circle cx="0" cy="6" r="1.92" fill="rgb(10,50,162)"/><circle cx="0.01" cy="5.92" r="1.28" fill="rgb(14.5,53.5,179.5)"/><path d="M 0,6 
						q -1.235 -1.36 0.5,2 q 1.33 1.235 1,2 q 0.81 1.22 -1.5,2 
						M 0,6 
						q 1.235 -1.36 -0.5,2 q -1.33 1.235 -1,2 q -0.81 1.22 1.5,2 " 
						transform="rotate(261.81818181818 0,6 )"
						stroke-width ="0.1"
						fill="rgb(154,43,0)"
						/><circle cx="0" cy="6" r="1.92" fill="rgb(10,50,162)"/><circle cx="-0.04" cy="6.09" r="1.28" fill="rgb(14.5,53.5,179.5)"/><path d="M 0,6 
						q -1.235 -1.36 0.5,2 q 1.33 1.235 1,2 q 0.81 1.22 -1.5,2 
						M 0,6 
						q 1.235 -1.36 -0.5,2 q -1.33 1.235 -1,2 q -0.81 1.22 1.5,2 " 
						transform="rotate(294.54545454545 0,6 )"
						stroke-width ="0.1"
						fill="rgb(154.5,39.5,0)"
						/><circle cx="0" cy="6" r="1.92" fill="rgb(10,50,162)"/><circle cx="0.04" cy="5.94" r="1.28" fill="rgb(14.5,53.5,179.5)"/><path d="M 0,6 
						q -1.235 -1.36 0.5,2 q 1.33 1.235 1,2 q 0.81 1.22 -1.5,2 
						M 0,6 
						q 1.235 -1.36 -0.5,2 q -1.33 1.235 -1,2 q -0.81 1.22 1.5,2 " 
						transform="rotate(327.27272727273 0,6 )"
						stroke-width ="0.1"
						fill="rgb(146,35,0)"
						/><circle cx="0" cy="6" r="1.92" fill="rgb(10,50,162)"/><circle cx="-0.07" cy="6.08" r="1.28" fill="rgb(14.5,53.5,179.5)"/><path d="M 0,6 
						q -1.235 -1.36 0.5,2 q 1.33 1.235 1,2 q 0.81 1.22 -1.5,2 
						M 0,6 
						q 1.235 -1.36 -0.5,2 q -1.33 1.235 -1,2 q -0.81 1.22 1.5,2 " 
						transform="rotate(360 0,6 )"
						stroke-width ="0.1"
						fill="rgb(159.5,49.5,0)"
						/><circle cx="0" cy="6" r="1.92" fill="rgb(10,50,162)"/><circle cx="-0.08" cy="6.02" r="1.28" fill="rgb(14.5,53.5,179.5)"/></g><g id="flower5"><path d="M 0,7.5 
						q -1.54375 -1.7 0.625,2.5 q 1.6625 1.54375 1.25,2.5 q 1.0125 1.525 -1.875,2.5 
						M 0,7.5 
						q 1.54375 -1.7 -0.625,2.5 q -1.6625 1.54375 -1.25,2.5 q -1.0125 1.525 1.875,2.5 " 
						transform="rotate(0 0,7.5 )"
						stroke-width ="0.1"
						fill="rgb(174,62,8)"
						/><circle cx="0" cy="7.5" r="2.4" fill="rgb(16,48,159)"/><circle cx="-0.02" cy="7.44" r="1.6" fill="rgb(27.5,55.5,181.5)"/><path d="M 0,7.5 
						q -1.54375 -1.7 0.625,2.5 q 1.6625 1.54375 1.25,2.5 q 1.0125 1.525 -1.875,2.5 
						M 0,7.5 
						q 1.54375 -1.7 -0.625,2.5 q -1.6625 1.54375 -1.25,2.5 q -1.0125 1.525 1.875,2.5 " 
						transform="rotate(32.727272727273 0,7.5 )"
						stroke-width ="0.1"
						fill="rgb(173.5,67.5,7.5)"
						/><circle cx="0" cy="7.5" r="2.4" fill="rgb(16,48,159)"/><circle cx="0.09" cy="7.53" r="1.6" fill="rgb(27.5,55.5,181.5)"/><path d="M 0,7.5 
						q -1.54375 -1.7 0.625,2.5 q 1.6625 1.54375 1.25,2.5 q 1.0125 1.525 -1.875,2.5 
						M 0,7.5 
						q 1.54375 -1.7 -0.625,2.5 q -1.6625 1.54375 -1.25,2.5 q -1.0125 1.525 1.875,2.5 " 
						transform="rotate(65.454545454545 0,7.5 )"
						stroke-width ="0.1"
						fill="rgb(172,65,5)"
						/><circle cx="0" cy="7.5" r="2.4" fill="rgb(16,48,159)"/><circle cx="0.09" cy="7.57" r="1.6" fill="rgb(27.5,55.5,181.5)"/><path d="M 0,7.5 
						q -1.54375 -1.7 0.625,2.5 q 1.6625 1.54375 1.25,2.5 q 1.0125 1.525 -1.875,2.5 
						M 0,7.5 
						q 1.54375 -1.7 -0.625,2.5 q -1.6625 1.54375 -1.25,2.5 q -1.0125 1.525 1.875,2.5 " 
						transform="rotate(98.181818181818 0,7.5 )"
						stroke-width ="0.1"
						fill="rgb(169.5,72.5,0)"
						/><circle cx="0" cy="7.5" r="2.4" fill="rgb(16,48,159)"/><circle cx="0" cy="7.4" r="1.6" fill="rgb(27.5,55.5,181.5)"/><path d="M 0,7.5 
						q -1.54375 -1.7 0.625,2.5 q 1.6625 1.54375 1.25,2.5 q 1.0125 1.525 -1.875,2.5 
						M 0,7.5 
						q 1.54375 -1.7 -0.625,2.5 q -1.6625 1.54375 -1.25,2.5 q -1.0125 1.525 1.875,2.5 " 
						transform="rotate(130.90909090909 0,7.5 )"
						stroke-width ="0.1"
						fill="rgb(177,60,3)"
						/><circle cx="0" cy="7.5" r="2.4" fill="rgb(16,48,159)"/><circle cx="-0.07" cy="7.51" r="1.6" fill="rgb(27.5,55.5,181.5)"/><path d="M 0,7.5 
						q -1.54375 -1.7 0.625,2.5 q 1.6625 1.54375 1.25,2.5 q 1.0125 1.525 -1.875,2.5 
						M 0,7.5 
						q 1.54375 -1.7 -0.625,2.5 q -1.6625 1.54375 -1.25,2.5 q -1.0125 1.525 1.875,2.5 " 
						transform="rotate(163.63636363636 0,7.5 )"
						stroke-width ="0.1"
						fill="rgb(161.5,59.5,0)"
						/><circle cx="0" cy="7.5" r="2.4" fill="rgb(16,48,159)"/><circle cx="0.02" cy="7.42" r="1.6" fill="rgb(27.5,55.5,181.5)"/><path d="M 0,7.5 
						q -1.54375 -1.7 0.625,2.5 q 1.6625 1.54375 1.25,2.5 q 1.0125 1.525 -1.875,2.5 
						M 0,7.5 
						q 1.54375 -1.7 -0.625,2.5 q -1.6625 1.54375 -1.25,2.5 q -1.0125 1.525 1.875,2.5 " 
						transform="rotate(196.36363636364 0,7.5 )"
						stroke-width ="0.1"
						fill="rgb(154,60,0)"
						/><circle cx="0" cy="7.5" r="2.4" fill="rgb(16,48,159)"/><circle cx="-0.09" cy="7.48" r="1.6" fill="rgb(27.5,55.5,181.5)"/><path d="M 0,7.5 
						q -1.54375 -1.7 0.625,2.5 q 1.6625 1.54375 1.25,2.5 q 1.0125 1.525 -1.875,2.5 
						M 0,7.5 
						q 1.54375 -1.7 -0.625,2.5 q -1.6625 1.54375 -1.25,2.5 q -1.0125 1.525 1.875,2.5 " 
						transform="rotate(229.09090909091 0,7.5 )"
						stroke-width ="0.1"
						fill="rgb(156.5,47.5,0)"
						/><circle cx="0" cy="7.5" r="2.4" fill="rgb(16,48,159)"/><circle cx="0.04" cy="7.41" r="1.6" fill="rgb(27.5,55.5,181.5)"/><path d="M 0,7.5 
						q -1.54375 -1.7 0.625,2.5 q 1.6625 1.54375 1.25,2.5 q 1.0125 1.525 -1.875,2.5 
						M 0,7.5 
						q 1.54375 -1.7 -0.625,2.5 q -1.6625 1.54375 -1.25,2.5 q -1.0125 1.525 1.875,2.5 " 
						transform="rotate(261.81818181818 0,7.5 )"
						stroke-width ="0.1"
						fill="rgb(153,48,0)"
						/><circle cx="0" cy="7.5" r="2.4" fill="rgb(16,48,159)"/><circle cx="0.04" cy="7.59" r="1.6" fill="rgb(27.5,55.5,181.5)"/><path d="M 0,7.5 
						q -1.54375 -1.7 0.625,2.5 q 1.6625 1.54375 1.25,2.5 q 1.0125 1.525 -1.875,2.5 
						M 0,7.5 
						q 1.54375 -1.7 -0.625,2.5 q -1.6625 1.54375 -1.25,2.5 q -1.0125 1.525 1.875,2.5 " 
						transform="rotate(294.54545454545 0,7.5 )"
						stroke-width ="0.1"
						fill="rgb(148.5,57.5,0)"
						/><circle cx="0" cy="7.5" r="2.4" fill="rgb(16,48,159)"/><circle cx="0.01" cy="7.56" r="1.6" fill="rgb(27.5,55.5,181.5)"/><path d="M 0,7.5 
						q -1.54375 -1.7 0.625,2.5 q 1.6625 1.54375 1.25,2.5 q 1.0125 1.525 -1.875,2.5 
						M 0,7.5 
						q 1.54375 -1.7 -0.625,2.5 q -1.6625 1.54375 -1.25,2.5 q -1.0125 1.525 1.875,2.5 " 
						transform="rotate(327.27272727273 0,7.5 )"
						stroke-width ="0.1"
						fill="rgb(153,38,0)"
						/><circle cx="0" cy="7.5" r="2.4" fill="rgb(16,48,159)"/><circle cx="-0.04" cy="7.6" r="1.6" fill="rgb(27.5,55.5,181.5)"/><path d="M 0,7.5 
						q -1.54375 -1.7 0.625,2.5 q 1.6625 1.54375 1.25,2.5 q 1.0125 1.525 -1.875,2.5 
						M 0,7.5 
						q 1.54375 -1.7 -0.625,2.5 q -1.6625 1.54375 -1.25,2.5 q -1.0125 1.525 1.875,2.5 " 
						transform="rotate(360 0,7.5 )"
						stroke-width ="0.1"
						fill="rgb(148.5,33.5,0)"
						/><circle cx="0" cy="7.5" r="2.4" fill="rgb(16,48,159)"/><circle cx="-0.08" cy="7.54" r="1.6" fill="rgb(27.5,55.5,181.5)"/></g><g id="flower6"><path d="M 0,9 
						q -1.8525 -2.04 0.75,3 q 1.995 1.8525 1.5,3 q 1.215 1.83 -2.25,3 
						M 0,9 
						q 1.8525 -2.04 -0.75,3 q -1.995 1.8525 -1.5,3 q -1.215 1.83 2.25,3 " 
						transform="rotate(0 0,9 )"
						stroke-width ="0.1"
						fill="rgb(186,60,7)"
						/><circle cx="0" cy="9" r="2.88" fill="rgb(14,49,157)"/><circle cx="-0.06" cy="8.91" r="1.92" fill="rgb(32.5,68.5,168.5)"/><path d="M 0,9 
						q -1.8525 -2.04 0.75,3 q 1.995 1.8525 1.5,3 q 1.215 1.83 -2.25,3 
						M 0,9 
						q 1.8525 -2.04 -0.75,3 q -1.995 1.8525 -1.5,3 q -1.215 1.83 2.25,3 " 
						transform="rotate(32.727272727273 0,9 )"
						stroke-width ="0.1"
						fill="rgb(182.5,60.5,0)"
						/><circle cx="0" cy="9" r="2.88" fill="rgb(14,49,157)"/><circle cx="0.06" cy="8.97" r="1.92" fill="rgb(32.5,68.5,168.5)"/><path d="M 0,9 
						q -1.8525 -2.04 0.75,3 q 1.995 1.8525 1.5,3 q 1.215 1.83 -2.25,3 
						M 0,9 
						q 1.8525 -2.04 -0.75,3 q -1.995 1.8525 -1.5,3 q -1.215 1.83 2.25,3 " 
						transform="rotate(65.454545454545 0,9 )"
						stroke-width ="0.1"
						fill="rgb(176,65,1)"
						/><circle cx="0" cy="9" r="2.88" fill="rgb(14,49,157)"/><circle cx="-0.1" cy="8.99" r="1.92" fill="rgb(32.5,68.5,168.5)"/><path d="M 0,9 
						q -1.8525 -2.04 0.75,3 q 1.995 1.8525 1.5,3 q 1.215 1.83 -2.25,3 
						M 0,9 
						q 1.8525 -2.04 -0.75,3 q -1.995 1.8525 -1.5,3 q -1.215 1.83 2.25,3 " 
						transform="rotate(98.181818181818 0,9 )"
						stroke-width ="0.1"
						fill="rgb(161.5,61.5,0)"
						/><circle cx="0" cy="9" r="2.88" fill="rgb(14,49,157)"/><circle cx="0.08" cy="9.09" r="1.92" fill="rgb(32.5,68.5,168.5)"/><path d="M 0,9 
						q -1.8525 -2.04 0.75,3 q 1.995 1.8525 1.5,3 q 1.215 1.83 -2.25,3 
						M 0,9 
						q 1.8525 -2.04 -0.75,3 q -1.995 1.8525 -1.5,3 q -1.215 1.83 2.25,3 " 
						transform="rotate(130.90909090909 0,9 )"
						stroke-width ="0.1"
						fill="rgb(158,57,0)"
						/><circle cx="0" cy="9" r="2.88" fill="rgb(14,49,157)"/><circle cx="-0.04" cy="9.06" r="1.92" fill="rgb(32.5,68.5,168.5)"/><path d="M 0,9 
						q -1.8525 -2.04 0.75,3 q 1.995 1.8525 1.5,3 q 1.215 1.83 -2.25,3 
						M 0,9 
						q 1.8525 -2.04 -0.75,3 q -1.995 1.8525 -1.5,3 q -1.215 1.83 2.25,3 " 
						transform="rotate(163.63636363636 0,9 )"
						stroke-width ="0.1"
						fill="rgb(174.5,67.5,0)"
						/><circle cx="0" cy="9" r="2.88" fill="rgb(14,49,157)"/><circle cx="0.05" cy="8.99" r="1.92" fill="rgb(32.5,68.5,168.5)"/><path d="M 0,9 
						q -1.8525 -2.04 0.75,3 q 1.995 1.8525 1.5,3 q 1.215 1.83 -2.25,3 
						M 0,9 
						q 1.8525 -2.04 -0.75,3 q -1.995 1.8525 -1.5,3 q -1.215 1.83 2.25,3 " 
						transform="rotate(196.36363636364 0,9 )"
						stroke-width ="0.1"
						fill="rgb(168,63,0)"
						/><circle cx="0" cy="9" r="2.88" fill="rgb(14,49,157)"/><circle cx="-0.04" cy="9.07" r="1.92" fill="rgb(32.5,68.5,168.5)"/><path d="M 0,9 
						q -1.8525 -2.04 0.75,3 q 1.995 1.8525 1.5,3 q 1.215 1.83 -2.25,3 
						M 0,9 
						q 1.8525 -2.04 -0.75,3 q -1.995 1.8525 -1.5,3 q -1.215 1.83 2.25,3 " 
						transform="rotate(229.09090909091 0,9 )"
						stroke-width ="0.1"
						fill="rgb(159.5,51.5,0)"
						/><circle cx="0" cy="9" r="2.88" fill="rgb(14,49,157)"/><circle cx="0.07" cy="9.08" r="1.92" fill="rgb(32.5,68.5,168.5)"/><path d="M 0,9 
						q -1.8525 -2.04 0.75,3 q 1.995 1.8525 1.5,3 q 1.215 1.83 -2.25,3 
						M 0,9 
						q 1.8525 -2.04 -0.75,3 q -1.995 1.8525 -1.5,3 q -1.215 1.83 2.25,3 " 
						transform="rotate(261.81818181818 0,9 )"
						stroke-width ="0.1"
						fill="rgb(164,51,0)"
						/><circle cx="0" cy="9" r="2.88" fill="rgb(14,49,157)"/><circle cx="0.09" cy="9.05" r="1.92" fill="rgb(32.5,68.5,168.5)"/><path d="M 0,9 
						q -1.8525 -2.04 0.75,3 q 1.995 1.8525 1.5,3 q 1.215 1.83 -2.25,3 
						M 0,9 
						q 1.8525 -2.04 -0.75,3 q -1.995 1.8525 -1.5,3 q -1.215 1.83 2.25,3 " 
						transform="rotate(294.54545454545 0,9 )"
						stroke-width ="0.1"
						fill="rgb(161.5,44.5,0)"
						/><circle cx="0" cy="9" r="2.88" fill="rgb(14,49,157)"/><circle cx="0" cy="9.06" r="1.92" fill="rgb(32.5,68.5,168.5)"/><path d="M 0,9 
						q -1.8525 -2.04 0.75,3 q 1.995 1.8525 1.5,3 q 1.215 1.83 -2.25,3 
						M 0,9 
						q 1.8525 -2.04 -0.75,3 q -1.995 1.8525 -1.5,3 q -1.215 1.83 2.25,3 " 
						transform="rotate(327.27272727273 0,9 )"
						stroke-width ="0.1"
						fill="rgb(162,37,0)"
						/><circle cx="0" cy="9" r="2.88" fill="rgb(14,49,157)"/><circle cx="-0.07" cy="8.97" r="1.92" fill="rgb(32.5,68.5,168.5)"/><path d="M 0,9 
						q -1.8525 -2.04 0.75,3 q 1.995 1.8525 1.5,3 q 1.215 1.83 -2.25,3 
						M 0,9 
						q 1.8525 -2.04 -0.75,3 q -1.995 1.8525 -1.5,3 q -1.215 1.83 2.25,3 " 
						transform="rotate(360 0,9 )"
						stroke-width ="0.1"
						fill="rgb(149.5,45.5,0)"
						/><circle cx="0" cy="9" r="2.88" fill="rgb(14,49,157)"/><circle cx="0" cy="8.95" r="1.92" fill="rgb(32.5,68.5,168.5)"/></g><g id="flower7"><path d="M 0,10.5 
						q -2.16125 -2.38 0.875,3.5 q 2.3275 2.16125 1.75,3.5 q 1.4175 2.135 -2.625,3.5 
						M 0,10.5 
						q 2.16125 -2.38 -0.875,3.5 q -2.3275 2.16125 -1.75,3.5 q -1.4175 2.135 2.625,3.5 " 
						transform="rotate(0 0,10.5 )"
						stroke-width ="0.1"
						fill="rgb(181,68,8)"
						/><path d="M 0,10.5 
						q -2.16125 -2.38 0.875,3.5 q 2.3275 2.16125 1.75,3.5 q 1.4175 2.135 -2.625,3.5 
						M 0,10.5 
						q 2.16125 -2.38 -0.875,3.5 q -2.3275 2.16125 -1.75,3.5 q -1.4175 2.135 2.625,3.5 " 
						transform="rotate(16.363636363636 0,10.5 )"
						stroke-width ="0.1"
						fill="rgb(185.5,68.5,5.5)"
						/><path d="M 0,10.5 
						q -2.16125 -2.38 0.875,3.5 q 2.3275 2.16125 1.75,3.5 q 1.4175 2.135 -2.625,3.5 
						M 0,10.5 
						q 2.16125 -2.38 -0.875,3.5 q -2.3275 2.16125 -1.75,3.5 q -1.4175 2.135 2.625,3.5 " 
						transform="rotate(32.727272727273 0,10.5 )"
						stroke-width ="0.1"
						fill="rgb(178,73,0)"
						/></g><g id="flower8"><path d="M 0,12 
						q -2.47 -2.72 1,4 q 2.66 2.47 2,4 q 1.62 2.44 -3,4 
						M 0,12 
						q 2.47 -2.72 -1,4 q -2.66 2.47 -2,4 q -1.62 2.44 3,4 " 
						transform="rotate(0 0,12 )"
						stroke-width ="0.1"
						fill="rgb(187,73,0)"
						/><path d="M 0,12 
						q -2.47 -2.72 1,4 q 2.66 2.47 2,4 q 1.62 2.44 -3,4 
						M 0,12 
						q 2.47 -2.72 -1,4 q -2.66 2.47 -2,4 q -1.62 2.44 3,4 " 
						transform="rotate(16.363636363636 0,12 )"
						stroke-width ="0.1"
						fill="rgb(185.5,58.5,8.5)"
						/><path d="M 0,12 
						q -2.47 -2.72 1,4 q 2.66 2.47 2,4 q 1.62 2.44 -3,4 
						M 0,12 
						q 2.47 -2.72 -1,4 q -2.66 2.47 -2,4 q -1.62 2.44 3,4 " 
						transform="rotate(32.727272727273 0,12 )"
						stroke-width ="0.1"
						fill="rgb(169,60,0)"
						/></g></defs>
				<g class="fullPlant">
					<g>
					<path d ="M 57,91 
					q -0.61 -32.65 -9.492,-33.9" fill ="none" stroke ="rgb(22.5,87.5,186.5)" stroke-width ="1.62"/></g><circle cx="47.508" cy="57.1" r="0.81" fill="rgb(22.5,87.5,186.5)"/><use xlink:href="#leaf4"
						x="57" y="91" 
						transform="rotate(211 57.69 91.97)" 	
						fill="rgb(66,233,82)" /><use xlink:href="#leaf4"
						x="57" y="91" 
						transform="rotate(221 57 91)" 	
						fill="rgb(77,202,73)" /><use xlink:href="#flower6" id="fleur00"
						x="47.508" y="45.1" transform="rotate(119 47.508 57.1)" />
					<g>
					<path d ="M 53,91 
					q 0.61 -35.81 -4.932,-45.492" fill ="none" stroke ="rgb(22,88,189)" stroke-width ="1.62"/></g><circle cx="48.068" cy="45.508" r="0.81" fill="rgb(22,88,189)"/><use xlink:href="#leaf3"
						x="53" y="91" 
						transform="rotate(141 53 91)" 	
						fill="rgb(81,229,88)" /><use xlink:href="#leaf5"
						x="53" y="91" 
						transform="rotate(222 53.25 91.3)" 	
						fill="rgb(77,223,60)" /><use xlink:href="#flower6" id="fleur10"
						x="48.068" y="33.508" transform="rotate(91 48.068 45.508)" /></g>
				</svg>