<svg class="relie" xmlns="http://www.w3.org/2000/svg" viewBox="0 0 100 100" preserveAspectRatio="xMidYMid meet" x="0" y="0" overflow="visible" xmlns:xlink="http://www.w3.org/1999/xlink">

		<defs>  <g id="leaf1" transform="skewX(2) skewY(2)"><path d="M 0,0 
					q 0.01 0.01 0.125,1.51875 q 0.01 0.01 0.125,0.66375 q 0.01 0.01 -0.25,1.1925 
					M 0,0 
					q -0.01 0.01 -0.125,1.51875 q -0.01 0.01 -0.125,0.66375 q -0.01 0.01 0.25,1.1925 " 
					stroke-width ="0.2" /></g>  <g id="leaf2" transform="skewX(-3) skewY(-3)"><path d="M 0,0 
					q 0.02 0.02 0.25,3.0375 q 0.02 0.02 0.25,1.3275 q 0.02 0.02 -0.5,2.385 
					M 0,0 
					q -0.02 0.02 -0.25,3.0375 q -0.02 0.02 -0.25,1.3275 q -0.02 0.02 0.5,2.385 " 
					stroke-width ="0.2" /></g>  <g id="leaf3" transform="skewX(-4) skewY(-4)"><path d="M 0,0 
					q 0.03 0.03 0.375,4.55625 q 0.03 0.03 0.375,1.99125 q 0.03 0.03 -0.75,3.5775 
					M 0,0 
					q -0.03 0.03 -0.375,4.55625 q -0.03 0.03 -0.375,1.99125 q -0.03 0.03 0.75,3.5775 " 
					stroke-width ="0.2" /></g>  <g id="leaf4" transform="skewX(10) skewY(10)"><path d="M 0,0 
					q 0.04 0.04 0.5,6.075 q 0.04 0.04 0.5,2.655 q 0.04 0.04 -1,4.77 
					M 0,0 
					q -0.04 0.04 -0.5,6.075 q -0.04 0.04 -0.5,2.655 q -0.04 0.04 1,4.77 " 
					stroke-width ="0.2" /></g>  <g id="leaf5" transform="skewX(9) skewY(9)"><path d="M 0,0 
					q 0.05 0.05 0.625,7.59375 q 0.05 0.05 0.625,3.31875 q 0.05 0.05 -1.25,5.9625 
					M 0,0 
					q -0.05 0.05 -0.625,7.59375 q -0.05 0.05 -0.625,3.31875 q -0.05 0.05 1.25,5.9625 " 
					stroke-width ="0.2" /></g>  <g id="leaf6" transform="skewX(-12) skewY(-12)"><path d="M 0,0 
					q 0.06 0.06 0.75,9.1125 q 0.06 0.06 0.75,3.9825 q 0.06 0.06 -1.5,7.155 
					M 0,0 
					q -0.06 0.06 -0.75,9.1125 q -0.06 0.06 -0.75,3.9825 q -0.06 0.06 1.5,7.155 " 
					stroke-width ="0.2" /></g>  <g id="leaf7" transform="skewX(1) skewY(1)"><path d="M 0,0 
					q 0.07 0.07 0.875,10.63125 q 0.07 0.07 0.875,4.64625 q 0.07 0.07 -1.75,8.3475 
					M 0,0 
					q -0.07 0.07 -0.875,10.63125 q -0.07 0.07 -0.875,4.64625 q -0.07 0.07 1.75,8.3475 " 
					stroke-width ="0.2" /></g>  <g id="leaf8" transform="skewX(-4) skewY(-4)"><path d="M 0,0 
					q 0.08 0.08 1,12.15 q 0.08 0.08 1,5.31 q 0.08 0.08 -2,9.54 
					M 0,0 
					q -0.08 0.08 -1,12.15 q -0.08 0.08 -1,5.31 q -0.08 0.08 2,9.54 " 
					stroke-width ="0.2" /></g><g id="flower1"><path d="M 0,1.625 
						q 0 0.0875 0,1.625 
						M 0,1.625 
						q -0 0.0875 0,1.625 " 
						transform="rotate(0 0,1.625 )"
						stroke-width ="0.1"
						fill="rgb(24,46,50)"
						/><circle cx="0" cy="1.625" r="0.73125" fill="rgb(170,80,54)"/><circle cx="-0.01" cy="1.645" r="0.4875" fill="rgb(180.5,86.5,65.5)"/><path d="M 0,1.625 
						q 0 0.0875 0,1.625 
						M 0,1.625 
						q -0 0.0875 0,1.625 " 
						transform="rotate(216 0,1.625 )"
						stroke-width ="0.1"
						fill="rgb(29.5,35.5,63.5)"
						/><circle cx="0" cy="1.625" r="0.73125" fill="rgb(170,80,54)"/><circle cx="0.08" cy="1.545" r="0.4875" fill="rgb(180.5,86.5,65.5)"/><path d="M 0,1.625 
						q 0 0.0875 0,1.625 
						M 0,1.625 
						q -0 0.0875 0,1.625 " 
						transform="rotate(432 0,1.625 )"
						stroke-width ="0.1"
						fill="rgb(22,34,46)"
						/><circle cx="0" cy="1.625" r="0.73125" fill="rgb(170,80,54)"/><circle cx="0.02" cy="1.585" r="0.4875" fill="rgb(180.5,86.5,65.5)"/><path d="M 0,1.625 
						q 0 0.0875 0,1.625 
						M 0,1.625 
						q -0 0.0875 0,1.625 " 
						transform="rotate(648 0,1.625 )"
						stroke-width ="0.1"
						fill="rgb(9.5,32.5,55.5)"
						/><circle cx="0" cy="1.625" r="0.73125" fill="rgb(170,80,54)"/><circle cx="-0.1" cy="1.685" r="0.4875" fill="rgb(180.5,86.5,65.5)"/><path d="M 0,1.625 
						q 0 0.0875 0,1.625 
						M 0,1.625 
						q -0 0.0875 0,1.625 " 
						transform="rotate(864 0,1.625 )"
						stroke-width ="0.1"
						fill="rgb(22,24,52)"
						/><circle cx="0" cy="1.625" r="0.73125" fill="rgb(170,80,54)"/><circle cx="-0.06" cy="1.685" r="0.4875" fill="rgb(180.5,86.5,65.5)"/><path d="M 0,1.625 
						q 0 0.0875 0,1.625 
						M 0,1.625 
						q -0 0.0875 0,1.625 " 
						transform="rotate(1080 0,1.625 )"
						stroke-width ="0.1"
						fill="rgb(0,24.5,49.5)"
						/><circle cx="0" cy="1.625" r="0.73125" fill="rgb(170,80,54)"/><circle cx="-0.03" cy="1.615" r="0.4875" fill="rgb(180.5,86.5,65.5)"/></g><g id="flower2"><path d="M 0,3.25 
						q 0 0.175 0,3.25 
						M 0,3.25 
						q -0 0.175 0,3.25 " 
						transform="rotate(0 0,3.25 )"
						stroke-width ="0.1"
						fill="rgb(30,32,55)"
						/><path d="M 0,3.25 
						q 0 0.175 0,3.25 
						M 0,3.25 
						q -0 0.175 0,3.25 " 
						transform="rotate(108 0,3.25 )"
						stroke-width ="0.1"
						fill="rgb(16.5,40.5,52.5)"
						/></g><g id="flower3"><path d="M 0,4.875 
						q 0 0.2625 0,4.875 
						M 0,4.875 
						q -0 0.2625 0,4.875 " 
						transform="rotate(0 0,4.875 )"
						stroke-width ="0.1"
						fill="rgb(29,27,59)"
						/><circle cx="0" cy="4.875" r="2.19375" fill="rgb(165,75,54)"/><circle cx="-0.09" cy="4.815" r="1.4625" fill="rgb(183.5,93.5,61.5)"/><path d="M 0,4.875 
						q 0 0.2625 0,4.875 
						M 0,4.875 
						q -0 0.2625 0,4.875 " 
						transform="rotate(216 0,4.875 )"
						stroke-width ="0.1"
						fill="rgb(21.5,42.5,58.5)"
						/><circle cx="0" cy="4.875" r="2.19375" fill="rgb(165,75,54)"/><circle cx="0.04" cy="4.935" r="1.4625" fill="rgb(183.5,93.5,61.5)"/><path d="M 0,4.875 
						q 0 0.2625 0,4.875 
						M 0,4.875 
						q -0 0.2625 0,4.875 " 
						transform="rotate(432 0,4.875 )"
						stroke-width ="0.1"
						fill="rgb(19,31,61)"
						/><circle cx="0" cy="4.875" r="2.19375" fill="rgb(165,75,54)"/><circle cx="-0.07" cy="4.975" r="1.4625" fill="rgb(183.5,93.5,61.5)"/><path d="M 0,4.875 
						q 0 0.2625 0,4.875 
						M 0,4.875 
						q -0 0.2625 0,4.875 " 
						transform="rotate(648 0,4.875 )"
						stroke-width ="0.1"
						fill="rgb(9.5,34.5,60.5)"
						/><circle cx="0" cy="4.875" r="2.19375" fill="rgb(165,75,54)"/><circle cx="-0.1" cy="4.805" r="1.4625" fill="rgb(183.5,93.5,61.5)"/><path d="M 0,4.875 
						q 0 0.2625 0,4.875 
						M 0,4.875 
						q -0 0.2625 0,4.875 " 
						transform="rotate(864 0,4.875 )"
						stroke-width ="0.1"
						fill="rgb(21,22,53)"
						/><circle cx="0" cy="4.875" r="2.19375" fill="rgb(165,75,54)"/><circle cx="0.09" cy="4.875" r="1.4625" fill="rgb(183.5,93.5,61.5)"/><path d="M 0,4.875 
						q 0 0.2625 0,4.875 
						M 0,4.875 
						q -0 0.2625 0,4.875 " 
						transform="rotate(1080 0,4.875 )"
						stroke-width ="0.1"
						fill="rgb(7.5,20.5,42.5)"
						/><circle cx="0" cy="4.875" r="2.19375" fill="rgb(165,75,54)"/><circle cx="0.01" cy="4.835" r="1.4625" fill="rgb(183.5,93.5,61.5)"/></g><g id="flower4"><path d="M 0,6.5 
						q 0 0.35 0,6.5 
						M 0,6.5 
						q -0 0.35 0,6.5 " 
						transform="rotate(0 0,6.5 )"
						stroke-width ="0.1"
						fill="rgb(32,46,65)"
						/><circle cx="0" cy="6.5" r="2.925" fill="rgb(165,75,52)"/><circle cx="0.06" cy="6.53" r="1.95" fill="rgb(184.5,82.5,70.5)"/><path d="M 0,6.5 
						q 0 0.35 0,6.5 
						M 0,6.5 
						q -0 0.35 0,6.5 " 
						transform="rotate(216 0,6.5 )"
						stroke-width ="0.1"
						fill="rgb(13.5,34.5,61.5)"
						/><circle cx="0" cy="6.5" r="2.925" fill="rgb(165,75,52)"/><circle cx="0" cy="6.58" r="1.95" fill="rgb(184.5,82.5,70.5)"/><path d="M 0,6.5 
						q 0 0.35 0,6.5 
						M 0,6.5 
						q -0 0.35 0,6.5 " 
						transform="rotate(432 0,6.5 )"
						stroke-width ="0.1"
						fill="rgb(7,29,51)"
						/><circle cx="0" cy="6.5" r="2.925" fill="rgb(165,75,52)"/><circle cx="0.02" cy="6.6" r="1.95" fill="rgb(184.5,82.5,70.5)"/><path d="M 0,6.5 
						q 0 0.35 0,6.5 
						M 0,6.5 
						q -0 0.35 0,6.5 " 
						transform="rotate(648 0,6.5 )"
						stroke-width ="0.1"
						fill="rgb(9.5,24.5,55.5)"
						/><circle cx="0" cy="6.5" r="2.925" fill="rgb(165,75,52)"/><circle cx="-0.01" cy="6.51" r="1.95" fill="rgb(184.5,82.5,70.5)"/><path d="M 0,6.5 
						q 0 0.35 0,6.5 
						M 0,6.5 
						q -0 0.35 0,6.5 " 
						transform="rotate(864 0,6.5 )"
						stroke-width ="0.1"
						fill="rgb(16,31,39)"
						/><circle cx="0" cy="6.5" r="2.925" fill="rgb(165,75,52)"/><circle cx="-0.04" cy="6.45" r="1.95" fill="rgb(184.5,82.5,70.5)"/><path d="M 0,6.5 
						q 0 0.35 0,6.5 
						M 0,6.5 
						q -0 0.35 0,6.5 " 
						transform="rotate(1080 0,6.5 )"
						stroke-width ="0.1"
						fill="rgb(8.5,31.5,56.5)"
						/><circle cx="0" cy="6.5" r="2.925" fill="rgb(165,75,52)"/><circle cx="-0.08" cy="6.51" r="1.95" fill="rgb(184.5,82.5,70.5)"/></g><g id="flower5"><path d="M 0,8.125 
						q 0 0.4375 0,8.125 
						M 0,8.125 
						q -0 0.4375 0,8.125 " 
						transform="rotate(0 0,8.125 )"
						stroke-width ="0.1"
						fill="rgb(25,42,49)"
						/><circle cx="0" cy="8.125" r="3.65625" fill="rgb(164,78,58)"/><circle cx="-0.06" cy="8.075" r="2.4375" fill="rgb(171.5,94.5,69.5)"/><path d="M 0,8.125 
						q 0 0.4375 0,8.125 
						M 0,8.125 
						q -0 0.4375 0,8.125 " 
						transform="rotate(216 0,8.125 )"
						stroke-width ="0.1"
						fill="rgb(10.5,31.5,55.5)"
						/><circle cx="0" cy="8.125" r="3.65625" fill="rgb(164,78,58)"/><circle cx="0.06" cy="8.055" r="2.4375" fill="rgb(171.5,94.5,69.5)"/><path d="M 0,8.125 
						q 0 0.4375 0,8.125 
						M 0,8.125 
						q -0 0.4375 0,8.125 " 
						transform="rotate(432 0,8.125 )"
						stroke-width ="0.1"
						fill="rgb(10,23,56)"
						/><circle cx="0" cy="8.125" r="3.65625" fill="rgb(164,78,58)"/><circle cx="-0.06" cy="8.075" r="2.4375" fill="rgb(171.5,94.5,69.5)"/><path d="M 0,8.125 
						q 0 0.4375 0,8.125 
						M 0,8.125 
						q -0 0.4375 0,8.125 " 
						transform="rotate(648 0,8.125 )"
						stroke-width ="0.1"
						fill="rgb(11.5,30.5,58.5)"
						/><circle cx="0" cy="8.125" r="3.65625" fill="rgb(164,78,58)"/><circle cx="0.1" cy="8.105" r="2.4375" fill="rgb(171.5,94.5,69.5)"/><path d="M 0,8.125 
						q 0 0.4375 0,8.125 
						M 0,8.125 
						q -0 0.4375 0,8.125 " 
						transform="rotate(864 0,8.125 )"
						stroke-width ="0.1"
						fill="rgb(17,35,50)"
						/><circle cx="0" cy="8.125" r="3.65625" fill="rgb(164,78,58)"/><circle cx="-0.07" cy="8.165" r="2.4375" fill="rgb(171.5,94.5,69.5)"/><path d="M 0,8.125 
						q 0 0.4375 0,8.125 
						M 0,8.125 
						q -0 0.4375 0,8.125 " 
						transform="rotate(1080 0,8.125 )"
						stroke-width ="0.1"
						fill="rgb(8.5,20.5,53.5)"
						/><circle cx="0" cy="8.125" r="3.65625" fill="rgb(164,78,58)"/><circle cx="0.03" cy="8.085" r="2.4375" fill="rgb(171.5,94.5,69.5)"/></g><g id="flower6"><path d="M 0,9.75 
						q 0 0.525 0,9.75 
						M 0,9.75 
						q -0 0.525 0,9.75 " 
						transform="rotate(0 0,9.75 )"
						stroke-width ="0.1"
						fill="rgb(22,45,51)"
						/><circle cx="0" cy="9.75" r="4.3875" fill="rgb(168,72,59)"/><circle cx="0.06" cy="9.85" r="2.925" fill="rgb(184.5,97.5,69.5)"/><path d="M 0,9.75 
						q 0 0.525 0,9.75 
						M 0,9.75 
						q -0 0.525 0,9.75 " 
						transform="rotate(216 0,9.75 )"
						stroke-width ="0.1"
						fill="rgb(29.5,35.5,58.5)"
						/><circle cx="0" cy="9.75" r="4.3875" fill="rgb(168,72,59)"/><circle cx="-0.06" cy="9.77" r="2.925" fill="rgb(184.5,97.5,69.5)"/><path d="M 0,9.75 
						q 0 0.525 0,9.75 
						M 0,9.75 
						q -0 0.525 0,9.75 " 
						transform="rotate(432 0,9.75 )"
						stroke-width ="0.1"
						fill="rgb(10,22,44)"
						/><circle cx="0" cy="9.75" r="4.3875" fill="rgb(168,72,59)"/><circle cx="0.01" cy="9.8" r="2.925" fill="rgb(184.5,97.5,69.5)"/><path d="M 0,9.75 
						q 0 0.525 0,9.75 
						M 0,9.75 
						q -0 0.525 0,9.75 " 
						transform="rotate(648 0,9.75 )"
						stroke-width ="0.1"
						fill="rgb(16.5,39.5,59.5)"
						/><circle cx="0" cy="9.75" r="4.3875" fill="rgb(168,72,59)"/><circle cx="-0.08" cy="9.71" r="2.925" fill="rgb(184.5,97.5,69.5)"/><path d="M 0,9.75 
						q 0 0.525 0,9.75 
						M 0,9.75 
						q -0 0.525 0,9.75 " 
						transform="rotate(864 0,9.75 )"
						stroke-width ="0.1"
						fill="rgb(21,29,58)"
						/><circle cx="0" cy="9.75" r="4.3875" fill="rgb(168,72,59)"/><circle cx="-0.02" cy="9.79" r="2.925" fill="rgb(184.5,97.5,69.5)"/><path d="M 0,9.75 
						q 0 0.525 0,9.75 
						M 0,9.75 
						q -0 0.525 0,9.75 " 
						transform="rotate(1080 0,9.75 )"
						stroke-width ="0.1"
						fill="rgb(2.5,22.5,55.5)"
						/><circle cx="0" cy="9.75" r="4.3875" fill="rgb(168,72,59)"/><circle cx="0.01" cy="9.69" r="2.925" fill="rgb(184.5,97.5,69.5)"/></g><g id="flower7"><path d="M 0,11.375 
						q 0 0.6125 0,11.375 
						M 0,11.375 
						q -0 0.6125 0,11.375 " 
						transform="rotate(0 0,11.375 )"
						stroke-width ="0.1"
						fill="rgb(16,31,65)"
						/><circle cx="0" cy="11.375" r="5.11875" fill="rgb(164,75,52)"/><circle cx="0.09" cy="11.425" r="3.4125" fill="rgb(177.5,83.5,56.5)"/><path d="M 0,11.375 
						q 0 0.6125 0,11.375 
						M 0,11.375 
						q -0 0.6125 0,11.375 " 
						transform="rotate(216 0,11.375 )"
						stroke-width ="0.1"
						fill="rgb(16.5,25.5,48.5)"
						/><circle cx="0" cy="11.375" r="5.11875" fill="rgb(164,75,52)"/><circle cx="-0.03" cy="11.315" r="3.4125" fill="rgb(177.5,83.5,56.5)"/><path d="M 0,11.375 
						q 0 0.6125 0,11.375 
						M 0,11.375 
						q -0 0.6125 0,11.375 " 
						transform="rotate(432 0,11.375 )"
						stroke-width ="0.1"
						fill="rgb(7,24,54)"
						/><circle cx="0" cy="11.375" r="5.11875" fill="rgb(164,75,52)"/><circle cx="-0.03" cy="11.435" r="3.4125" fill="rgb(177.5,83.5,56.5)"/><path d="M 0,11.375 
						q 0 0.6125 0,11.375 
						M 0,11.375 
						q -0 0.6125 0,11.375 " 
						transform="rotate(648 0,11.375 )"
						stroke-width ="0.1"
						fill="rgb(20.5,38.5,56.5)"
						/><circle cx="0" cy="11.375" r="5.11875" fill="rgb(164,75,52)"/><circle cx="-0.05" cy="11.475" r="3.4125" fill="rgb(177.5,83.5,56.5)"/><path d="M 0,11.375 
						q 0 0.6125 0,11.375 
						M 0,11.375 
						q -0 0.6125 0,11.375 " 
						transform="rotate(864 0,11.375 )"
						stroke-width ="0.1"
						fill="rgb(10,37,56)"
						/><circle cx="0" cy="11.375" r="5.11875" fill="rgb(164,75,52)"/><circle cx="0.05" cy="11.285" r="3.4125" fill="rgb(177.5,83.5,56.5)"/><path d="M 0,11.375 
						q 0 0.6125 0,11.375 
						M 0,11.375 
						q -0 0.6125 0,11.375 " 
						transform="rotate(1080 0,11.375 )"
						stroke-width ="0.1"
						fill="rgb(19.5,22.5,46.5)"
						/><circle cx="0" cy="11.375" r="5.11875" fill="rgb(164,75,52)"/><circle cx="-0.07" cy="11.475" r="3.4125" fill="rgb(177.5,83.5,56.5)"/></g><g id="flower8"><path d="M 0,13 
						q 0 0.7 0,13 
						M 0,13 
						q 0 0.7 0,13 " 
						transform="rotate(0 0,13 )"
						stroke-width ="0.1"
						fill="rgb(21,40,49)"
						/><path d="M 0,13 
						q 0 0.7 0,13 
						M 0,13 
						q 0 0.7 0,13 " 
						transform="rotate(108 0,13 )"
						stroke-width ="0.1"
						fill="rgb(12.5,35.5,64.5)"
						/></g></defs>
				<g class="fullPlant">
					<g>
					<path d ="M 52,91 
					q 1.65 -32.11 -3.06,-45.012" fill ="none" stroke ="rgb(184.5,73.5,57.5)" stroke-width ="1.44"/></g><circle cx="48.94" cy="45.988" r="0.72" fill="rgb(184.5,73.5,57.5)"/><use xlink:href="#leaf6"
						x="52" y="91" 
						transform="rotate(207 52 91)" 	
						fill="rgb(177,86,176)" /><use xlink:href="#leaf5"
						x="52" y="91" 
						transform="rotate(154 52 91)" 	
						fill="rgb(169,104,147)" /><use xlink:href="#flower7" id="fleur00"
						x="48.94" y="32.988" transform="rotate(133 48.94 45.988)" />
					<g>
					<path d ="M 45,91 
					q -1.65 -30.67 3.324,-39.564" fill ="none" stroke ="rgb(187,74,58)" stroke-width ="1.44"/></g><circle cx="48.324" cy="51.436" r="0.72" fill="rgb(187,74,58)"/><use xlink:href="#leaf4"
						x="45" y="91" 
						transform="rotate(208 45.12 91.26)" 	
						fill="rgb(164,80,174)" /><use xlink:href="#leaf6"
						x="45" y="91" 
						transform="rotate(209 45 91)" 	
						fill="rgb(151,101,144)" /><use xlink:href="#flower7" id="fleur10"
						x="48.324" y="38.436" transform="rotate(118 48.324 51.436)" />
					<g>
					<path d ="M 42,91 
					q 1.65 -42.2 -10.524,-38.88" fill ="none" stroke ="rgb(188.5,73.5,56.5)" stroke-width ="1.44"/></g><circle cx="31.476" cy="52.12" r="0.72" fill="rgb(188.5,73.5,56.5)"/><use xlink:href="#leaf5"
						x="42" y="91" 
						transform="rotate(205 42.55 91.47)" 	
						fill="rgb(173,88,147)" /><use xlink:href="#leaf7"
						x="42" y="91" 
						transform="rotate(212 42 91.45)" 	
						fill="rgb(156,82,167)" /><use xlink:href="#flower7" id="fleur20"
						x="31.476" y="39.12" transform="rotate(140 31.476 52.12)" />
					<g>
					<path d ="M 52,91 
					q -1.65 -20.98 -6.744,-36.216" fill ="none" stroke ="rgb(189,75,57)" stroke-width ="1.44"/></g><circle cx="45.256" cy="54.784" r="0.72" fill="rgb(189,75,57)"/><use xlink:href="#leaf3"
						x="52" y="91" 
						transform="rotate(148 52.9 91.83)" 	
						fill="rgb(152,99,157)" /><use xlink:href="#leaf4"
						x="52" y="91" 
						transform="rotate(142 52 91)" 	
						fill="rgb(168,82,179)" /><use xlink:href="#flower5" id="fleur30"
						x="45.256" y="41.784" transform="rotate(139 45.256 54.784)" /></g>
				</svg>