<svg class="relie" xmlns="http://www.w3.org/2000/svg" viewBox="0 0 100 100" preserveAspectRatio="xMidYMid meet" x="0" y="0" overflow="visible" xmlns:xlink="http://www.w3.org/1999/xlink">

		<defs>  <g id="leaf1" transform="skewX(16) skewY(16)"><path d="M 0,0 
					q 0.13375 0.12875 0.125,0.5325 q 0.26 0.12875 -0.125,1 
					M 0,0 
					q -0.13375 0.12875 -0.125,0.5325 q -0.26 0.12875 0.125,1 " 
					stroke-width ="0.2" /></g>  <g id="leaf2" transform="skewX(-15) skewY(-15)"><path d="M 0,0 
					q 0.2675 0.2575 0.25,1.065 q 0.52 0.2575 -0.25,1.935 
					M 0,0 
					q -0.2675 0.2575 -0.25,1.065 q -0.52 0.2575 0.25,1.935 " 
					stroke-width ="0.2" /></g>  <g id="leaf3" transform="skewX(3) skewY(3)"><path d="M 0,0 
					q 0.40125 0.38625 0.375,1.5975 q 0.78 0.38625 -0.375,2.9025 
					M 0,0 
					q -0.40125 0.38625 -0.375,1.5975 q -0.78 0.38625 0.375,2.9025 " 
					stroke-width ="0.2" /></g>  <g id="leaf4" transform="skewX(12) skewY(12)"><path d="M 0,0 
					q 0.535 0.515 0.5,2.13 q 1.04 0.515 -0.5,3.87 
					M 0,0 
					q -0.535 0.515 -0.5,2.13 q -1.04 0.515 0.5,3.87 " 
					stroke-width ="0.2" /></g>  <g id="leaf5" transform="skewX(12) skewY(12)"><path d="M 0,0 
					q 0.66875 0.64375 0.625,2.6625 q 1.3 0.64375 -0.625,4.8375 
					M 0,0 
					q -0.66875 0.64375 -0.625,2.6625 q -1.3 0.64375 0.625,4.8375 " 
					stroke-width ="0.2" /></g>  <g id="leaf6" transform="skewX(5) skewY(5)"><path d="M 0,0 
					q 0.8025 0.7725 0.75,3.195 q 1.56 0.7725 -0.75,5.805 
					M 0,0 
					q -0.8025 0.7725 -0.75,3.195 q -1.56 0.7725 0.75,5.805 " 
					stroke-width ="0.2" /></g>  <g id="leaf7" transform="skewX(-11) skewY(-11)"><path d="M 0,0 
					q 0.93625 0.90125 0.875,3.7275 q 1.82 0.90125 -0.875,6.7725 
					M 0,0 
					q -0.93625 0.90125 -0.875,3.7275 q -1.82 0.90125 0.875,6.7725 " 
					stroke-width ="0.2" /></g>  <g id="leaf8" transform="skewX(-16) skewY(-16)"><path d="M 0,0 
					q 1.07 1.03 1,4.26 q 2.08 1.03 -1,7.74 
					M 0,0 
					q -1.07 1.03 -1,4.26 q -2.08 1.03 1,7.74 " 
					stroke-width ="0.2" /></g><g id="flower1" transform="skewX(3) skewY(3)">
						<path d="M 0,0
						Q -0.98,0.1875 0,0.53625"
						stroke="rgb(7,9,16)" 
						fill="transparent"
						stroke-width ="0.3" /><path d="M 0,0.53625 
						q 0.0125 0.1125 0.3875,0.1171875 q 0.025 0.1 -0.125,0.1453125 q 0.05 0.0125 -0.125,0.1903125 q 0.025 0.025 -0.1375,1 
						M 0,0.53625 
						q -0.0125 0.1125 -0.3875,0.1171875 q -0.025 0.1 0.125,0.1453125 q -0.05 0.0125 0.125,0.1903125 q -0.025 0.025 0.1375,1 " 
						transform="rotate(0 0,0.53625 )"
						stroke-width ="0.1"
						fill="rgb(178,100,178)"
						/><circle cx="0" cy="0.53625" r="0.1575" fill="rgb(187,95,171)"/><circle cx="0.09" cy="0.52625" r="0.105" fill="rgb(200.5,104.5,190.5)"/><path d="M 0,0.53625 
						q 0.0125 0.1125 0.3875,0.1171875 q 0.025 0.1 -0.125,0.1453125 q 0.05 0.0125 -0.125,0.1903125 q 0.025 0.025 -0.1375,1 
						M 0,0.53625 
						q -0.0125 0.1125 -0.3875,0.1171875 q -0.025 0.1 0.125,0.1453125 q -0.05 0.0125 0.125,0.1903125 q -0.025 0.025 0.1375,1 " 
						transform="rotate(51.428571428571 0,0.53625 )"
						stroke-width ="0.1"
						fill="rgb(176.5,94.5,179.5)"
						/><circle cx="0" cy="0.53625" r="0.1575" fill="rgb(187,95,171)"/><circle cx="-0.01" cy="0.57625" r="0.105" fill="rgb(200.5,104.5,190.5)"/><path d="M 0,0.53625 
						q 0.0125 0.1125 0.3875,0.1171875 q 0.025 0.1 -0.125,0.1453125 q 0.05 0.0125 -0.125,0.1903125 q 0.025 0.025 -0.1375,1 
						M 0,0.53625 
						q -0.0125 0.1125 -0.3875,0.1171875 q -0.025 0.1 0.125,0.1453125 q -0.05 0.0125 0.125,0.1903125 q -0.025 0.025 0.1375,1 " 
						transform="rotate(102.85714285714 0,0.53625 )"
						stroke-width ="0.1"
						fill="rgb(168,84,170)"
						/><circle cx="0" cy="0.53625" r="0.1575" fill="rgb(187,95,171)"/><circle cx="0.1" cy="0.50625" r="0.105" fill="rgb(200.5,104.5,190.5)"/><path d="M 0,0.53625 
						q 0.0125 0.1125 0.3875,0.1171875 q 0.025 0.1 -0.125,0.1453125 q 0.05 0.0125 -0.125,0.1903125 q 0.025 0.025 -0.1375,1 
						M 0,0.53625 
						q -0.0125 0.1125 -0.3875,0.1171875 q -0.025 0.1 0.125,0.1453125 q -0.05 0.0125 0.125,0.1903125 q -0.025 0.025 0.1375,1 " 
						transform="rotate(154.28571428571 0,0.53625 )"
						stroke-width ="0.1"
						fill="rgb(165.5,85.5,183.5)"
						/><circle cx="0" cy="0.53625" r="0.1575" fill="rgb(187,95,171)"/><circle cx="0.02" cy="0.60625" r="0.105" fill="rgb(200.5,104.5,190.5)"/><path d="M 0,0.53625 
						q 0.0125 0.1125 0.3875,0.1171875 q 0.025 0.1 -0.125,0.1453125 q 0.05 0.0125 -0.125,0.1903125 q 0.025 0.025 -0.1375,1 
						M 0,0.53625 
						q -0.0125 0.1125 -0.3875,0.1171875 q -0.025 0.1 0.125,0.1453125 q -0.05 0.0125 0.125,0.1903125 q -0.025 0.025 0.1375,1 " 
						transform="rotate(205.71428571429 0,0.53625 )"
						stroke-width ="0.1"
						fill="rgb(165,85,173)"
						/><circle cx="0" cy="0.53625" r="0.1575" fill="rgb(187,95,171)"/><circle cx="0.01" cy="0.51625" r="0.105" fill="rgb(200.5,104.5,190.5)"/><path d="M 0,0.53625 
						q 0.0125 0.1125 0.3875,0.1171875 q 0.025 0.1 -0.125,0.1453125 q 0.05 0.0125 -0.125,0.1903125 q 0.025 0.025 -0.1375,1 
						M 0,0.53625 
						q -0.0125 0.1125 -0.3875,0.1171875 q -0.025 0.1 0.125,0.1453125 q -0.05 0.0125 0.125,0.1903125 q -0.025 0.025 0.1375,1 " 
						transform="rotate(257.14285714286 0,0.53625 )"
						stroke-width ="0.1"
						fill="rgb(154.5,76.5,178.5)"
						/><circle cx="0" cy="0.53625" r="0.1575" fill="rgb(187,95,171)"/><circle cx="0.1" cy="0.54625" r="0.105" fill="rgb(200.5,104.5,190.5)"/><path d="M 0,0.53625 
						q 0.0125 0.1125 0.3875,0.1171875 q 0.025 0.1 -0.125,0.1453125 q 0.05 0.0125 -0.125,0.1903125 q 0.025 0.025 -0.1375,1 
						M 0,0.53625 
						q -0.0125 0.1125 -0.3875,0.1171875 q -0.025 0.1 0.125,0.1453125 q -0.05 0.0125 0.125,0.1903125 q -0.025 0.025 0.1375,1 " 
						transform="rotate(308.57142857143 0,0.53625 )"
						stroke-width ="0.1"
						fill="rgb(145,78,159)"
						/><circle cx="0" cy="0.53625" r="0.1575" fill="rgb(187,95,171)"/><circle cx="0.02" cy="0.53625" r="0.105" fill="rgb(200.5,104.5,190.5)"/><path d="M 0,0.53625 
						q 0.0125 0.1125 0.3875,0.1171875 q 0.025 0.1 -0.125,0.1453125 q 0.05 0.0125 -0.125,0.1903125 q 0.025 0.025 -0.1375,1 
						M 0,0.53625 
						q -0.0125 0.1125 -0.3875,0.1171875 q -0.025 0.1 0.125,0.1453125 q -0.05 0.0125 0.125,0.1903125 q -0.025 0.025 0.1375,1 " 
						transform="rotate(360 0,0.53625 )"
						stroke-width ="0.1"
						fill="rgb(142.5,83.5,175.5)"
						/><circle cx="0" cy="0.53625" r="0.1575" fill="rgb(187,95,171)"/><circle cx="0.05" cy="0.53625" r="0.105" fill="rgb(200.5,104.5,190.5)"/><path d="M 0,0.53625 
						q 0.0125 0.1125 0.3875,0.1171875 q 0.025 0.1 -0.125,0.1453125 q 0.05 0.0125 -0.125,0.1903125 q 0.025 0.025 -0.1375,1 
						M 0,0.53625 
						q -0.0125 0.1125 -0.3875,0.1171875 q -0.025 0.1 0.125,0.1453125 q -0.05 0.0125 0.125,0.1903125 q -0.025 0.025 0.1375,1 " 
						transform="rotate(411.42857142857 0,0.53625 )"
						stroke-width ="0.1"
						fill="rgb(150,69,163)"
						/><circle cx="0" cy="0.53625" r="0.1575" fill="rgb(187,95,171)"/><circle cx="0.01" cy="0.51625" r="0.105" fill="rgb(200.5,104.5,190.5)"/><path d="M 0,0.53625 
						q 0.0125 0.1125 0.3875,0.1171875 q 0.025 0.1 -0.125,0.1453125 q 0.05 0.0125 -0.125,0.1903125 q 0.025 0.025 -0.1375,1 
						M 0,0.53625 
						q -0.0125 0.1125 -0.3875,0.1171875 q -0.025 0.1 0.125,0.1453125 q -0.05 0.0125 0.125,0.1903125 q -0.025 0.025 0.1375,1 " 
						transform="rotate(462.85714285714 0,0.53625 )"
						stroke-width ="0.1"
						fill="rgb(140.5,82.5,163.5)"
						/><circle cx="0" cy="0.53625" r="0.1575" fill="rgb(187,95,171)"/><circle cx="-0.04" cy="0.46625" r="0.105" fill="rgb(200.5,104.5,190.5)"/><path d="M 0,0.53625 
						q 0.0125 0.1125 0.3875,0.1171875 q 0.025 0.1 -0.125,0.1453125 q 0.05 0.0125 -0.125,0.1903125 q 0.025 0.025 -0.1375,1 
						M 0,0.53625 
						q -0.0125 0.1125 -0.3875,0.1171875 q -0.025 0.1 0.125,0.1453125 q -0.05 0.0125 0.125,0.1903125 q -0.025 0.025 0.1375,1 " 
						transform="rotate(514.28571428571 0,0.53625 )"
						stroke-width ="0.1"
						fill="rgb(153,67,149)"
						/><circle cx="0" cy="0.53625" r="0.1575" fill="rgb(187,95,171)"/><circle cx="-0.05" cy="0.58625" r="0.105" fill="rgb(200.5,104.5,190.5)"/><path d="M 0,0.53625 
						q 0.0125 0.1125 0.3875,0.1171875 q 0.025 0.1 -0.125,0.1453125 q 0.05 0.0125 -0.125,0.1903125 q 0.025 0.025 -0.1375,1 
						M 0,0.53625 
						q -0.0125 0.1125 -0.3875,0.1171875 q -0.025 0.1 0.125,0.1453125 q -0.05 0.0125 0.125,0.1903125 q -0.025 0.025 0.1375,1 " 
						transform="rotate(565.71428571429 0,0.53625 )"
						stroke-width ="0.1"
						fill="rgb(138.5,64.5,148.5)"
						/><circle cx="0" cy="0.53625" r="0.1575" fill="rgb(187,95,171)"/><circle cx="0" cy="0.62625" r="0.105" fill="rgb(200.5,104.5,190.5)"/><path d="M 0,0.53625 
						q 0.0125 0.1125 0.3875,0.1171875 q 0.025 0.1 -0.125,0.1453125 q 0.05 0.0125 -0.125,0.1903125 q 0.025 0.025 -0.1375,1 
						M 0,0.53625 
						q -0.0125 0.1125 -0.3875,0.1171875 q -0.025 0.1 0.125,0.1453125 q -0.05 0.0125 0.125,0.1903125 q -0.025 0.025 0.1375,1 " 
						transform="rotate(617.14285714286 0,0.53625 )"
						stroke-width ="0.1"
						fill="rgb(148,76,151)"
						/><circle cx="0" cy="0.53625" r="0.1575" fill="rgb(187,95,171)"/><circle cx="0.01" cy="0.49625" r="0.105" fill="rgb(200.5,104.5,190.5)"/><path d="M 0,0.53625 
						q 0.0125 0.1125 0.3875,0.1171875 q 0.025 0.1 -0.125,0.1453125 q 0.05 0.0125 -0.125,0.1903125 q 0.025 0.025 -0.1375,1 
						M 0,0.53625 
						q -0.0125 0.1125 -0.3875,0.1171875 q -0.025 0.1 0.125,0.1453125 q -0.05 0.0125 0.125,0.1903125 q -0.025 0.025 0.1375,1 " 
						transform="rotate(668.57142857143 0,0.53625 )"
						stroke-width ="0.1"
						fill="rgb(139.5,69.5,149.5)"
						/><circle cx="0" cy="0.53625" r="0.1575" fill="rgb(187,95,171)"/><circle cx="-0.08" cy="0.61625" r="0.105" fill="rgb(200.5,104.5,190.5)"/><path d="M 0,0.53625 
						q 0.0125 0.1125 0.3875,0.1171875 q 0.025 0.1 -0.125,0.1453125 q 0.05 0.0125 -0.125,0.1903125 q 0.025 0.025 -0.1375,1 
						M 0,0.53625 
						q -0.0125 0.1125 -0.3875,0.1171875 q -0.025 0.1 0.125,0.1453125 q -0.05 0.0125 0.125,0.1903125 q -0.025 0.025 0.1375,1 " 
						transform="rotate(720 0,0.53625 )"
						stroke-width ="0.1"
						fill="rgb(143,61,153)"
						/><circle cx="0" cy="0.53625" r="0.1575" fill="rgb(187,95,171)"/><circle cx="0.04" cy="0.60625" r="0.105" fill="rgb(200.5,104.5,190.5)"/></g><g id="flower2" transform="skewX(2) skewY(2)">
						<path d="M 0,0
						Q 1.43,0.375 0,1.0725"
						stroke="rgb(7,9,16)" 
						fill="transparent"
						stroke-width ="0.3" /><path d="M 0,1.0725 
						q 0.025 0.225 0.575,0.234375 q 0.05 0.2 -0.25,0.290625 q 0.1 0.025 -0.25,0.380625 q 0.3 0.05 -0.075,1 
						M 0,1.0725 
						q -0.025 0.225 -0.575,0.234375 q -0.05 0.2 0.25,0.290625 q -0.1 0.025 0.25,0.380625 q -0.3 0.05 0.075,1 " 
						transform="rotate(0 0,1.0725 )"
						stroke-width ="0.1"
						fill="rgb(174,88,182)"
						/><circle cx="0" cy="1.0725" r="0.315" fill="rgb(182,98,177)"/><circle cx="-0.07" cy="1.0925" r="0.21" fill="rgb(187.5,106.5,188.5)"/><path d="M 0,1.0725 
						q 0.025 0.225 0.575,0.234375 q 0.05 0.2 -0.25,0.290625 q 0.1 0.025 -0.25,0.380625 q 0.3 0.05 -0.075,1 
						M 0,1.0725 
						q -0.025 0.225 -0.575,0.234375 q -0.05 0.2 0.25,0.290625 q -0.1 0.025 0.25,0.380625 q -0.3 0.05 0.075,1 " 
						transform="rotate(51.428571428571 0,1.0725 )"
						stroke-width ="0.1"
						fill="rgb(174.5,93.5,174.5)"
						/><circle cx="0" cy="1.0725" r="0.315" fill="rgb(182,98,177)"/><circle cx="0.1" cy="1.1325" r="0.21" fill="rgb(187.5,106.5,188.5)"/><path d="M 0,1.0725 
						q 0.025 0.225 0.575,0.234375 q 0.05 0.2 -0.25,0.290625 q 0.1 0.025 -0.25,0.380625 q 0.3 0.05 -0.075,1 
						M 0,1.0725 
						q -0.025 0.225 -0.575,0.234375 q -0.05 0.2 0.25,0.290625 q -0.1 0.025 0.25,0.380625 q -0.3 0.05 0.075,1 " 
						transform="rotate(102.85714285714 0,1.0725 )"
						stroke-width ="0.1"
						fill="rgb(155,87,188)"
						/><circle cx="0" cy="1.0725" r="0.315" fill="rgb(182,98,177)"/><circle cx="-0.04" cy="1.0125" r="0.21" fill="rgb(187.5,106.5,188.5)"/><path d="M 0,1.0725 
						q 0.025 0.225 0.575,0.234375 q 0.05 0.2 -0.25,0.290625 q 0.1 0.025 -0.25,0.380625 q 0.3 0.05 -0.075,1 
						M 0,1.0725 
						q -0.025 0.225 -0.575,0.234375 q -0.05 0.2 0.25,0.290625 q -0.1 0.025 0.25,0.380625 q -0.3 0.05 0.075,1 " 
						transform="rotate(154.28571428571 0,1.0725 )"
						stroke-width ="0.1"
						fill="rgb(171.5,97.5,185.5)"
						/><circle cx="0" cy="1.0725" r="0.315" fill="rgb(182,98,177)"/><circle cx="0.01" cy="1.0825" r="0.21" fill="rgb(187.5,106.5,188.5)"/><path d="M 0,1.0725 
						q 0.025 0.225 0.575,0.234375 q 0.05 0.2 -0.25,0.290625 q 0.1 0.025 -0.25,0.380625 q 0.3 0.05 -0.075,1 
						M 0,1.0725 
						q -0.025 0.225 -0.575,0.234375 q -0.05 0.2 0.25,0.290625 q -0.1 0.025 0.25,0.380625 q -0.3 0.05 0.075,1 " 
						transform="rotate(205.71428571429 0,1.0725 )"
						stroke-width ="0.1"
						fill="rgb(163,86,172)"
						/><circle cx="0" cy="1.0725" r="0.315" fill="rgb(182,98,177)"/><circle cx="0.07" cy="1.1525" r="0.21" fill="rgb(187.5,106.5,188.5)"/><path d="M 0,1.0725 
						q 0.025 0.225 0.575,0.234375 q 0.05 0.2 -0.25,0.290625 q 0.1 0.025 -0.25,0.380625 q 0.3 0.05 -0.075,1 
						M 0,1.0725 
						q -0.025 0.225 -0.575,0.234375 q -0.05 0.2 0.25,0.290625 q -0.1 0.025 0.25,0.380625 q -0.3 0.05 0.075,1 " 
						transform="rotate(257.14285714286 0,1.0725 )"
						stroke-width ="0.1"
						fill="rgb(152.5,74.5,170.5)"
						/><circle cx="0" cy="1.0725" r="0.315" fill="rgb(182,98,177)"/><circle cx="0.03" cy="1.1125" r="0.21" fill="rgb(187.5,106.5,188.5)"/><path d="M 0,1.0725 
						q 0.025 0.225 0.575,0.234375 q 0.05 0.2 -0.25,0.290625 q 0.1 0.025 -0.25,0.380625 q 0.3 0.05 -0.075,1 
						M 0,1.0725 
						q -0.025 0.225 -0.575,0.234375 q -0.05 0.2 0.25,0.290625 q -0.1 0.025 0.25,0.380625 q -0.3 0.05 0.075,1 " 
						transform="rotate(308.57142857143 0,1.0725 )"
						stroke-width ="0.1"
						fill="rgb(147,86,171)"
						/><circle cx="0" cy="1.0725" r="0.315" fill="rgb(182,98,177)"/><circle cx="0.09" cy="1.0225" r="0.21" fill="rgb(187.5,106.5,188.5)"/><path d="M 0,1.0725 
						q 0.025 0.225 0.575,0.234375 q 0.05 0.2 -0.25,0.290625 q 0.1 0.025 -0.25,0.380625 q 0.3 0.05 -0.075,1 
						M 0,1.0725 
						q -0.025 0.225 -0.575,0.234375 q -0.05 0.2 0.25,0.290625 q -0.1 0.025 0.25,0.380625 q -0.3 0.05 0.075,1 " 
						transform="rotate(360 0,1.0725 )"
						stroke-width ="0.1"
						fill="rgb(148.5,77.5,169.5)"
						/><circle cx="0" cy="1.0725" r="0.315" fill="rgb(182,98,177)"/><circle cx="0.06" cy="1.0525" r="0.21" fill="rgb(187.5,106.5,188.5)"/><path d="M 0,1.0725 
						q 0.025 0.225 0.575,0.234375 q 0.05 0.2 -0.25,0.290625 q 0.1 0.025 -0.25,0.380625 q 0.3 0.05 -0.075,1 
						M 0,1.0725 
						q -0.025 0.225 -0.575,0.234375 q -0.05 0.2 0.25,0.290625 q -0.1 0.025 0.25,0.380625 q -0.3 0.05 0.075,1 " 
						transform="rotate(411.42857142857 0,1.0725 )"
						stroke-width ="0.1"
						fill="rgb(156,72,156)"
						/><circle cx="0" cy="1.0725" r="0.315" fill="rgb(182,98,177)"/><circle cx="-0.02" cy="0.9825" r="0.21" fill="rgb(187.5,106.5,188.5)"/><path d="M 0,1.0725 
						q 0.025 0.225 0.575,0.234375 q 0.05 0.2 -0.25,0.290625 q 0.1 0.025 -0.25,0.380625 q 0.3 0.05 -0.075,1 
						M 0,1.0725 
						q -0.025 0.225 -0.575,0.234375 q -0.05 0.2 0.25,0.290625 q -0.1 0.025 0.25,0.380625 q -0.3 0.05 0.075,1 " 
						transform="rotate(462.85714285714 0,1.0725 )"
						stroke-width ="0.1"
						fill="rgb(143.5,66.5,166.5)"
						/><circle cx="0" cy="1.0725" r="0.315" fill="rgb(182,98,177)"/><circle cx="0.06" cy="1.1125" r="0.21" fill="rgb(187.5,106.5,188.5)"/><path d="M 0,1.0725 
						q 0.025 0.225 0.575,0.234375 q 0.05 0.2 -0.25,0.290625 q 0.1 0.025 -0.25,0.380625 q 0.3 0.05 -0.075,1 
						M 0,1.0725 
						q -0.025 0.225 -0.575,0.234375 q -0.05 0.2 0.25,0.290625 q -0.1 0.025 0.25,0.380625 q -0.3 0.05 0.075,1 " 
						transform="rotate(514.28571428571 0,1.0725 )"
						stroke-width ="0.1"
						fill="rgb(151,61,164)"
						/><circle cx="0" cy="1.0725" r="0.315" fill="rgb(182,98,177)"/><circle cx="-0.01" cy="1.1525" r="0.21" fill="rgb(187.5,106.5,188.5)"/><path d="M 0,1.0725 
						q 0.025 0.225 0.575,0.234375 q 0.05 0.2 -0.25,0.290625 q 0.1 0.025 -0.25,0.380625 q 0.3 0.05 -0.075,1 
						M 0,1.0725 
						q -0.025 0.225 -0.575,0.234375 q -0.05 0.2 0.25,0.290625 q -0.1 0.025 0.25,0.380625 q -0.3 0.05 0.075,1 " 
						transform="rotate(565.71428571429 0,1.0725 )"
						stroke-width ="0.1"
						fill="rgb(145.5,68.5,152.5)"
						/><circle cx="0" cy="1.0725" r="0.315" fill="rgb(182,98,177)"/><circle cx="0.03" cy="1.0425" r="0.21" fill="rgb(187.5,106.5,188.5)"/><path d="M 0,1.0725 
						q 0.025 0.225 0.575,0.234375 q 0.05 0.2 -0.25,0.290625 q 0.1 0.025 -0.25,0.380625 q 0.3 0.05 -0.075,1 
						M 0,1.0725 
						q -0.025 0.225 -0.575,0.234375 q -0.05 0.2 0.25,0.290625 q -0.1 0.025 0.25,0.380625 q -0.3 0.05 0.075,1 " 
						transform="rotate(617.14285714286 0,1.0725 )"
						stroke-width ="0.1"
						fill="rgb(144,71,148)"
						/><circle cx="0" cy="1.0725" r="0.315" fill="rgb(182,98,177)"/><circle cx="0.05" cy="1.0925" r="0.21" fill="rgb(187.5,106.5,188.5)"/><path d="M 0,1.0725 
						q 0.025 0.225 0.575,0.234375 q 0.05 0.2 -0.25,0.290625 q 0.1 0.025 -0.25,0.380625 q 0.3 0.05 -0.075,1 
						M 0,1.0725 
						q -0.025 0.225 -0.575,0.234375 q -0.05 0.2 0.25,0.290625 q -0.1 0.025 0.25,0.380625 q -0.3 0.05 0.075,1 " 
						transform="rotate(668.57142857143 0,1.0725 )"
						stroke-width ="0.1"
						fill="rgb(137.5,58.5,152.5)"
						/><circle cx="0" cy="1.0725" r="0.315" fill="rgb(182,98,177)"/><circle cx="-0.1" cy="1.0825" r="0.21" fill="rgb(187.5,106.5,188.5)"/><path d="M 0,1.0725 
						q 0.025 0.225 0.575,0.234375 q 0.05 0.2 -0.25,0.290625 q 0.1 0.025 -0.25,0.380625 q 0.3 0.05 -0.075,1 
						M 0,1.0725 
						q -0.025 0.225 -0.575,0.234375 q -0.05 0.2 0.25,0.290625 q -0.1 0.025 0.25,0.380625 q -0.3 0.05 0.075,1 " 
						transform="rotate(720 0,1.0725 )"
						stroke-width ="0.1"
						fill="rgb(132,65,143)"
						/><circle cx="0" cy="1.0725" r="0.315" fill="rgb(182,98,177)"/><circle cx="-0.04" cy="1.1525" r="0.21" fill="rgb(187.5,106.5,188.5)"/></g><g id="flower3" transform="skewX(10) skewY(10)">
						<path d="M 0,0
						Q 0.31,0.5625 0,1.60875"
						stroke="rgb(7,9,16)" 
						fill="transparent"
						stroke-width ="0.3" /><path d="M 0,1.60875 
						q 0.0375 0.3375 0.7625,0.3515625 q 0.075 0.3 -0.375,0.4359375 q 0.15 0.0375 -0.375,0.5709375 q 0.45 0.075 -0.0125,1 
						M 0,1.60875 
						q -0.0375 0.3375 -0.7625,0.3515625 q -0.075 0.3 0.375,0.4359375 q -0.15 0.0375 0.375,0.5709375 q -0.45 0.075 0.0125,1 " 
						transform="rotate(0 0,1.60875 )"
						stroke-width ="0.1"
						fill="rgb(168,105,175)"
						/><circle cx="0" cy="1.60875" r="0.4725" fill="rgb(187,98,173)"/><circle cx="0.01" cy="1.65875" r="0.315" fill="rgb(204.5,103.5,177.5)"/><path d="M 0,1.60875 
						q 0.0375 0.3375 0.7625,0.3515625 q 0.075 0.3 -0.375,0.4359375 q 0.15 0.0375 -0.375,0.5709375 q 0.45 0.075 -0.0125,1 
						M 0,1.60875 
						q -0.0375 0.3375 -0.7625,0.3515625 q -0.075 0.3 0.375,0.4359375 q -0.15 0.0375 0.375,0.5709375 q -0.45 0.075 0.0125,1 " 
						transform="rotate(51.428571428571 0,1.60875 )"
						stroke-width ="0.1"
						fill="rgb(164.5,87.5,181.5)"
						/><circle cx="0" cy="1.60875" r="0.4725" fill="rgb(187,98,173)"/><circle cx="0.1" cy="1.54875" r="0.315" fill="rgb(204.5,103.5,177.5)"/><path d="M 0,1.60875 
						q 0.0375 0.3375 0.7625,0.3515625 q 0.075 0.3 -0.375,0.4359375 q 0.15 0.0375 -0.375,0.5709375 q 0.45 0.075 -0.0125,1 
						M 0,1.60875 
						q -0.0375 0.3375 -0.7625,0.3515625 q -0.075 0.3 0.375,0.4359375 q -0.15 0.0375 0.375,0.5709375 q -0.45 0.075 0.0125,1 " 
						transform="rotate(102.85714285714 0,1.60875 )"
						stroke-width ="0.1"
						fill="rgb(161,93,170)"
						/><circle cx="0" cy="1.60875" r="0.4725" fill="rgb(187,98,173)"/><circle cx="-0.08" cy="1.52875" r="0.315" fill="rgb(204.5,103.5,177.5)"/><path d="M 0,1.60875 
						q 0.0375 0.3375 0.7625,0.3515625 q 0.075 0.3 -0.375,0.4359375 q 0.15 0.0375 -0.375,0.5709375 q 0.45 0.075 -0.0125,1 
						M 0,1.60875 
						q -0.0375 0.3375 -0.7625,0.3515625 q -0.075 0.3 0.375,0.4359375 q -0.15 0.0375 0.375,0.5709375 q -0.45 0.075 0.0125,1 " 
						transform="rotate(154.28571428571 0,1.60875 )"
						stroke-width ="0.1"
						fill="rgb(157.5,94.5,184.5)"
						/><circle cx="0" cy="1.60875" r="0.4725" fill="rgb(187,98,173)"/><circle cx="-0.09" cy="1.50875" r="0.315" fill="rgb(204.5,103.5,177.5)"/><path d="M 0,1.60875 
						q 0.0375 0.3375 0.7625,0.3515625 q 0.075 0.3 -0.375,0.4359375 q 0.15 0.0375 -0.375,0.5709375 q 0.45 0.075 -0.0125,1 
						M 0,1.60875 
						q -0.0375 0.3375 -0.7625,0.3515625 q -0.075 0.3 0.375,0.4359375 q -0.15 0.0375 0.375,0.5709375 q -0.45 0.075 0.0125,1 " 
						transform="rotate(205.71428571429 0,1.60875 )"
						stroke-width ="0.1"
						fill="rgb(151,91,168)"
						/><circle cx="0" cy="1.60875" r="0.4725" fill="rgb(187,98,173)"/><circle cx="0.02" cy="1.62875" r="0.315" fill="rgb(204.5,103.5,177.5)"/><path d="M 0,1.60875 
						q 0.0375 0.3375 0.7625,0.3515625 q 0.075 0.3 -0.375,0.4359375 q 0.15 0.0375 -0.375,0.5709375 q 0.45 0.075 -0.0125,1 
						M 0,1.60875 
						q -0.0375 0.3375 -0.7625,0.3515625 q -0.075 0.3 0.375,0.4359375 q -0.15 0.0375 0.375,0.5709375 q -0.45 0.075 0.0125,1 " 
						transform="rotate(257.14285714286 0,1.60875 )"
						stroke-width ="0.1"
						fill="rgb(156.5,81.5,167.5)"
						/><circle cx="0" cy="1.60875" r="0.4725" fill="rgb(187,98,173)"/><circle cx="0" cy="1.63875" r="0.315" fill="rgb(204.5,103.5,177.5)"/><path d="M 0,1.60875 
						q 0.0375 0.3375 0.7625,0.3515625 q 0.075 0.3 -0.375,0.4359375 q 0.15 0.0375 -0.375,0.5709375 q 0.45 0.075 -0.0125,1 
						M 0,1.60875 
						q -0.0375 0.3375 -0.7625,0.3515625 q -0.075 0.3 0.375,0.4359375 q -0.15 0.0375 0.375,0.5709375 q -0.45 0.075 0.0125,1 " 
						transform="rotate(308.57142857143 0,1.60875 )"
						stroke-width ="0.1"
						fill="rgb(150,73,164)"
						/><circle cx="0" cy="1.60875" r="0.4725" fill="rgb(187,98,173)"/><circle cx="0.03" cy="1.57875" r="0.315" fill="rgb(204.5,103.5,177.5)"/><path d="M 0,1.60875 
						q 0.0375 0.3375 0.7625,0.3515625 q 0.075 0.3 -0.375,0.4359375 q 0.15 0.0375 -0.375,0.5709375 q 0.45 0.075 -0.0125,1 
						M 0,1.60875 
						q -0.0375 0.3375 -0.7625,0.3515625 q -0.075 0.3 0.375,0.4359375 q -0.15 0.0375 0.375,0.5709375 q -0.45 0.075 0.0125,1 " 
						transform="rotate(360 0,1.60875 )"
						stroke-width ="0.1"
						fill="rgb(141.5,68.5,174.5)"
						/><circle cx="0" cy="1.60875" r="0.4725" fill="rgb(187,98,173)"/><circle cx="0.03" cy="1.59875" r="0.315" fill="rgb(204.5,103.5,177.5)"/><path d="M 0,1.60875 
						q 0.0375 0.3375 0.7625,0.3515625 q 0.075 0.3 -0.375,0.4359375 q 0.15 0.0375 -0.375,0.5709375 q 0.45 0.075 -0.0125,1 
						M 0,1.60875 
						q -0.0375 0.3375 -0.7625,0.3515625 q -0.075 0.3 0.375,0.4359375 q -0.15 0.0375 0.375,0.5709375 q -0.45 0.075 0.0125,1 " 
						transform="rotate(411.42857142857 0,1.60875 )"
						stroke-width ="0.1"
						fill="rgb(153,77,165)"
						/><circle cx="0" cy="1.60875" r="0.4725" fill="rgb(187,98,173)"/><circle cx="0.1" cy="1.59875" r="0.315" fill="rgb(204.5,103.5,177.5)"/><path d="M 0,1.60875 
						q 0.0375 0.3375 0.7625,0.3515625 q 0.075 0.3 -0.375,0.4359375 q 0.15 0.0375 -0.375,0.5709375 q 0.45 0.075 -0.0125,1 
						M 0,1.60875 
						q -0.0375 0.3375 -0.7625,0.3515625 q -0.075 0.3 0.375,0.4359375 q -0.15 0.0375 0.375,0.5709375 q -0.45 0.075 0.0125,1 " 
						transform="rotate(462.85714285714 0,1.60875 )"
						stroke-width ="0.1"
						fill="rgb(155.5,75.5,155.5)"
						/><circle cx="0" cy="1.60875" r="0.4725" fill="rgb(187,98,173)"/><circle cx="0.02" cy="1.51875" r="0.315" fill="rgb(204.5,103.5,177.5)"/><path d="M 0,1.60875 
						q 0.0375 0.3375 0.7625,0.3515625 q 0.075 0.3 -0.375,0.4359375 q 0.15 0.0375 -0.375,0.5709375 q 0.45 0.075 -0.0125,1 
						M 0,1.60875 
						q -0.0375 0.3375 -0.7625,0.3515625 q -0.075 0.3 0.375,0.4359375 q -0.15 0.0375 0.375,0.5709375 q -0.45 0.075 0.0125,1 " 
						transform="rotate(514.28571428571 0,1.60875 )"
						stroke-width ="0.1"
						fill="rgb(146,65,167)"
						/><circle cx="0" cy="1.60875" r="0.4725" fill="rgb(187,98,173)"/><circle cx="0.08" cy="1.62875" r="0.315" fill="rgb(204.5,103.5,177.5)"/><path d="M 0,1.60875 
						q 0.0375 0.3375 0.7625,0.3515625 q 0.075 0.3 -0.375,0.4359375 q 0.15 0.0375 -0.375,0.5709375 q 0.45 0.075 -0.0125,1 
						M 0,1.60875 
						q -0.0375 0.3375 -0.7625,0.3515625 q -0.075 0.3 0.375,0.4359375 q -0.15 0.0375 0.375,0.5709375 q -0.45 0.075 0.0125,1 " 
						transform="rotate(565.71428571429 0,1.60875 )"
						stroke-width ="0.1"
						fill="rgb(149.5,70.5,162.5)"
						/><circle cx="0" cy="1.60875" r="0.4725" fill="rgb(187,98,173)"/><circle cx="0.01" cy="1.63875" r="0.315" fill="rgb(204.5,103.5,177.5)"/><path d="M 0,1.60875 
						q 0.0375 0.3375 0.7625,0.3515625 q 0.075 0.3 -0.375,0.4359375 q 0.15 0.0375 -0.375,0.5709375 q 0.45 0.075 -0.0125,1 
						M 0,1.60875 
						q -0.0375 0.3375 -0.7625,0.3515625 q -0.075 0.3 0.375,0.4359375 q -0.15 0.0375 0.375,0.5709375 q -0.45 0.075 0.0125,1 " 
						transform="rotate(617.14285714286 0,1.60875 )"
						stroke-width ="0.1"
						fill="rgb(142,58,154)"
						/><circle cx="0" cy="1.60875" r="0.4725" fill="rgb(187,98,173)"/><circle cx="-0.1" cy="1.64875" r="0.315" fill="rgb(204.5,103.5,177.5)"/><path d="M 0,1.60875 
						q 0.0375 0.3375 0.7625,0.3515625 q 0.075 0.3 -0.375,0.4359375 q 0.15 0.0375 -0.375,0.5709375 q 0.45 0.075 -0.0125,1 
						M 0,1.60875 
						q -0.0375 0.3375 -0.7625,0.3515625 q -0.075 0.3 0.375,0.4359375 q -0.15 0.0375 0.375,0.5709375 q -0.45 0.075 0.0125,1 " 
						transform="rotate(668.57142857143 0,1.60875 )"
						stroke-width ="0.1"
						fill="rgb(137.5,54.5,158.5)"
						/><circle cx="0" cy="1.60875" r="0.4725" fill="rgb(187,98,173)"/><circle cx="-0.07" cy="1.67875" r="0.315" fill="rgb(204.5,103.5,177.5)"/><path d="M 0,1.60875 
						q 0.0375 0.3375 0.7625,0.3515625 q 0.075 0.3 -0.375,0.4359375 q 0.15 0.0375 -0.375,0.5709375 q 0.45 0.075 -0.0125,1 
						M 0,1.60875 
						q -0.0375 0.3375 -0.7625,0.3515625 q -0.075 0.3 0.375,0.4359375 q -0.15 0.0375 0.375,0.5709375 q -0.45 0.075 0.0125,1 " 
						transform="rotate(720 0,1.60875 )"
						stroke-width ="0.1"
						fill="rgb(124,69,155)"
						/><circle cx="0" cy="1.60875" r="0.4725" fill="rgb(187,98,173)"/><circle cx="-0.07" cy="1.63875" r="0.315" fill="rgb(204.5,103.5,177.5)"/></g><g id="flower4" transform="skewX(4) skewY(4)">
						<path d="M 0,0
						Q 0.03,0.75 0,2.145"
						stroke="rgb(7,9,16)" 
						fill="transparent"
						stroke-width ="0.3" /><path d="M 0,2.145 
						q 0.05 0.45 0.95,0.46875 q 0.1 0.4 -0.5,0.58125 q 0.7 0.05 1,0.76125 q 0.1 0.1 -1.45,1 
						M 0,2.145 
						q -0.05 0.45 -0.95,0.46875 q -0.1 0.4 0.5,0.58125 q -0.7 0.05 -1,0.76125 q -0.1 0.1 1.45,1 " 
						transform="rotate(0 0,2.145 )"
						stroke-width ="0.1"
						fill="rgb(165,103,176)"
						/><circle cx="0" cy="2.145" r="0.63" fill="rgb(187,100,174)"/><circle cx="-0.1" cy="2.075" r="0.42" fill="rgb(204.5,109.5,184.5)"/><path d="M 0,2.145 
						q 0.05 0.45 0.95,0.46875 q 0.1 0.4 -0.5,0.58125 q 0.7 0.05 1,0.76125 q 0.1 0.1 -1.45,1 
						M 0,2.145 
						q -0.05 0.45 -0.95,0.46875 q -0.1 0.4 0.5,0.58125 q -0.7 0.05 -1,0.76125 q -0.1 0.1 1.45,1 " 
						transform="rotate(51.428571428571 0,2.145 )"
						stroke-width ="0.1"
						fill="rgb(176.5,96.5,179.5)"
						/><circle cx="0" cy="2.145" r="0.63" fill="rgb(187,100,174)"/><circle cx="0" cy="2.055" r="0.42" fill="rgb(204.5,109.5,184.5)"/><path d="M 0,2.145 
						q 0.05 0.45 0.95,0.46875 q 0.1 0.4 -0.5,0.58125 q 0.7 0.05 1,0.76125 q 0.1 0.1 -1.45,1 
						M 0,2.145 
						q -0.05 0.45 -0.95,0.46875 q -0.1 0.4 0.5,0.58125 q -0.7 0.05 -1,0.76125 q -0.1 0.1 1.45,1 " 
						transform="rotate(102.85714285714 0,2.145 )"
						stroke-width ="0.1"
						fill="rgb(166,95,185)"
						/><circle cx="0" cy="2.145" r="0.63" fill="rgb(187,100,174)"/><circle cx="-0.04" cy="2.095" r="0.42" fill="rgb(204.5,109.5,184.5)"/><path d="M 0,2.145 
						q 0.05 0.45 0.95,0.46875 q 0.1 0.4 -0.5,0.58125 q 0.7 0.05 1,0.76125 q 0.1 0.1 -1.45,1 
						M 0,2.145 
						q -0.05 0.45 -0.95,0.46875 q -0.1 0.4 0.5,0.58125 q -0.7 0.05 -1,0.76125 q -0.1 0.1 1.45,1 " 
						transform="rotate(154.28571428571 0,2.145 )"
						stroke-width ="0.1"
						fill="rgb(170.5,85.5,184.5)"
						/><circle cx="0" cy="2.145" r="0.63" fill="rgb(187,100,174)"/><circle cx="-0.08" cy="2.075" r="0.42" fill="rgb(204.5,109.5,184.5)"/><path d="M 0,2.145 
						q 0.05 0.45 0.95,0.46875 q 0.1 0.4 -0.5,0.58125 q 0.7 0.05 1,0.76125 q 0.1 0.1 -1.45,1 
						M 0,2.145 
						q -0.05 0.45 -0.95,0.46875 q -0.1 0.4 0.5,0.58125 q -0.7 0.05 -1,0.76125 q -0.1 0.1 1.45,1 " 
						transform="rotate(205.71428571429 0,2.145 )"
						stroke-width ="0.1"
						fill="rgb(150,86,163)"
						/><circle cx="0" cy="2.145" r="0.63" fill="rgb(187,100,174)"/><circle cx="-0.05" cy="2.175" r="0.42" fill="rgb(204.5,109.5,184.5)"/><path d="M 0,2.145 
						q 0.05 0.45 0.95,0.46875 q 0.1 0.4 -0.5,0.58125 q 0.7 0.05 1,0.76125 q 0.1 0.1 -1.45,1 
						M 0,2.145 
						q -0.05 0.45 -0.95,0.46875 q -0.1 0.4 0.5,0.58125 q -0.7 0.05 -1,0.76125 q -0.1 0.1 1.45,1 " 
						transform="rotate(257.14285714286 0,2.145 )"
						stroke-width ="0.1"
						fill="rgb(164.5,75.5,169.5)"
						/><circle cx="0" cy="2.145" r="0.63" fill="rgb(187,100,174)"/><circle cx="-0.1" cy="2.185" r="0.42" fill="rgb(204.5,109.5,184.5)"/><path d="M 0,2.145 
						q 0.05 0.45 0.95,0.46875 q 0.1 0.4 -0.5,0.58125 q 0.7 0.05 1,0.76125 q 0.1 0.1 -1.45,1 
						M 0,2.145 
						q -0.05 0.45 -0.95,0.46875 q -0.1 0.4 0.5,0.58125 q -0.7 0.05 -1,0.76125 q -0.1 0.1 1.45,1 " 
						transform="rotate(308.57142857143 0,2.145 )"
						stroke-width ="0.1"
						fill="rgb(151,71,160)"
						/><circle cx="0" cy="2.145" r="0.63" fill="rgb(187,100,174)"/><circle cx="0.08" cy="2.225" r="0.42" fill="rgb(204.5,109.5,184.5)"/><path d="M 0,2.145 
						q 0.05 0.45 0.95,0.46875 q 0.1 0.4 -0.5,0.58125 q 0.7 0.05 1,0.76125 q 0.1 0.1 -1.45,1 
						M 0,2.145 
						q -0.05 0.45 -0.95,0.46875 q -0.1 0.4 0.5,0.58125 q -0.7 0.05 -1,0.76125 q -0.1 0.1 1.45,1 " 
						transform="rotate(360 0,2.145 )"
						stroke-width ="0.1"
						fill="rgb(145.5,74.5,171.5)"
						/><circle cx="0" cy="2.145" r="0.63" fill="rgb(187,100,174)"/><circle cx="-0.08" cy="2.205" r="0.42" fill="rgb(204.5,109.5,184.5)"/><path d="M 0,2.145 
						q 0.05 0.45 0.95,0.46875 q 0.1 0.4 -0.5,0.58125 q 0.7 0.05 1,0.76125 q 0.1 0.1 -1.45,1 
						M 0,2.145 
						q -0.05 0.45 -0.95,0.46875 q -0.1 0.4 0.5,0.58125 q -0.7 0.05 -1,0.76125 q -0.1 0.1 1.45,1 " 
						transform="rotate(411.42857142857 0,2.145 )"
						stroke-width ="0.1"
						fill="rgb(141,83,166)"
						/><circle cx="0" cy="2.145" r="0.63" fill="rgb(187,100,174)"/><circle cx="0.01" cy="2.085" r="0.42" fill="rgb(204.5,109.5,184.5)"/><path d="M 0,2.145 
						q 0.05 0.45 0.95,0.46875 q 0.1 0.4 -0.5,0.58125 q 0.7 0.05 1,0.76125 q 0.1 0.1 -1.45,1 
						M 0,2.145 
						q -0.05 0.45 -0.95,0.46875 q -0.1 0.4 0.5,0.58125 q -0.7 0.05 -1,0.76125 q -0.1 0.1 1.45,1 " 
						transform="rotate(462.85714285714 0,2.145 )"
						stroke-width ="0.1"
						fill="rgb(144.5,74.5,166.5)"
						/><circle cx="0" cy="2.145" r="0.63" fill="rgb(187,100,174)"/><circle cx="-0.08" cy="2.085" r="0.42" fill="rgb(204.5,109.5,184.5)"/><path d="M 0,2.145 
						q 0.05 0.45 0.95,0.46875 q 0.1 0.4 -0.5,0.58125 q 0.7 0.05 1,0.76125 q 0.1 0.1 -1.45,1 
						M 0,2.145 
						q -0.05 0.45 -0.95,0.46875 q -0.1 0.4 0.5,0.58125 q -0.7 0.05 -1,0.76125 q -0.1 0.1 1.45,1 " 
						transform="rotate(514.28571428571 0,2.145 )"
						stroke-width ="0.1"
						fill="rgb(135,77,151)"
						/><circle cx="0" cy="2.145" r="0.63" fill="rgb(187,100,174)"/><circle cx="0.03" cy="2.115" r="0.42" fill="rgb(204.5,109.5,184.5)"/><path d="M 0,2.145 
						q 0.05 0.45 0.95,0.46875 q 0.1 0.4 -0.5,0.58125 q 0.7 0.05 1,0.76125 q 0.1 0.1 -1.45,1 
						M 0,2.145 
						q -0.05 0.45 -0.95,0.46875 q -0.1 0.4 0.5,0.58125 q -0.7 0.05 -1,0.76125 q -0.1 0.1 1.45,1 " 
						transform="rotate(565.71428571429 0,2.145 )"
						stroke-width ="0.1"
						fill="rgb(145.5,59.5,148.5)"
						/><circle cx="0" cy="2.145" r="0.63" fill="rgb(187,100,174)"/><circle cx="0.07" cy="2.105" r="0.42" fill="rgb(204.5,109.5,184.5)"/><path d="M 0,2.145 
						q 0.05 0.45 0.95,0.46875 q 0.1 0.4 -0.5,0.58125 q 0.7 0.05 1,0.76125 q 0.1 0.1 -1.45,1 
						M 0,2.145 
						q -0.05 0.45 -0.95,0.46875 q -0.1 0.4 0.5,0.58125 q -0.7 0.05 -1,0.76125 q -0.1 0.1 1.45,1 " 
						transform="rotate(617.14285714286 0,2.145 )"
						stroke-width ="0.1"
						fill="rgb(149,65,155)"
						/><circle cx="0" cy="2.145" r="0.63" fill="rgb(187,100,174)"/><circle cx="0.01" cy="2.145" r="0.42" fill="rgb(204.5,109.5,184.5)"/><path d="M 0,2.145 
						q 0.05 0.45 0.95,0.46875 q 0.1 0.4 -0.5,0.58125 q 0.7 0.05 1,0.76125 q 0.1 0.1 -1.45,1 
						M 0,2.145 
						q -0.05 0.45 -0.95,0.46875 q -0.1 0.4 0.5,0.58125 q -0.7 0.05 -1,0.76125 q -0.1 0.1 1.45,1 " 
						transform="rotate(668.57142857143 0,2.145 )"
						stroke-width ="0.1"
						fill="rgb(128.5,63.5,159.5)"
						/><circle cx="0" cy="2.145" r="0.63" fill="rgb(187,100,174)"/><circle cx="0.08" cy="2.055" r="0.42" fill="rgb(204.5,109.5,184.5)"/><path d="M 0,2.145 
						q 0.05 0.45 0.95,0.46875 q 0.1 0.4 -0.5,0.58125 q 0.7 0.05 1,0.76125 q 0.1 0.1 -1.45,1 
						M 0,2.145 
						q -0.05 0.45 -0.95,0.46875 q -0.1 0.4 0.5,0.58125 q -0.7 0.05 -1,0.76125 q -0.1 0.1 1.45,1 " 
						transform="rotate(720 0,2.145 )"
						stroke-width ="0.1"
						fill="rgb(144,69,144)"
						/><circle cx="0" cy="2.145" r="0.63" fill="rgb(187,100,174)"/><circle cx="0.03" cy="2.135" r="0.42" fill="rgb(204.5,109.5,184.5)"/></g><g id="flower5" transform="skewX(-9) skewY(-9)">
						<path d="M 0,0
						Q 0.5,0.9375 0,2.68125"
						stroke="rgb(7,9,16)" 
						fill="transparent"
						stroke-width ="0.3" /><path d="M 0,2.68125 
						q 0.0625 0.5625 1.1375,0.5859375 q 0.125 0.5 -0.625,0.7265625 q 0.875 0.0625 1.25,0.9515625 q 0.125 0.125 -1.7625,1 
						M 0,2.68125 
						q -0.0625 0.5625 -1.1375,0.5859375 q -0.125 0.5 0.625,0.7265625 q -0.875 0.0625 -1.25,0.9515625 q -0.125 0.125 1.7625,1 " 
						transform="rotate(0 0,2.68125 )"
						stroke-width ="0.1"
						fill="rgb(177,86,182)"
						/><circle cx="0" cy="2.68125" r="0.7875" fill="rgb(182,94,172)"/><circle cx="-0.01" cy="2.73125" r="0.525" fill="rgb(197.5,100.5,191.5)"/><path d="M 0,2.68125 
						q 0.0625 0.5625 1.1375,0.5859375 q 0.125 0.5 -0.625,0.7265625 q 0.875 0.0625 1.25,0.9515625 q 0.125 0.125 -1.7625,1 
						M 0,2.68125 
						q -0.0625 0.5625 -1.1375,0.5859375 q -0.125 0.5 0.625,0.7265625 q -0.875 0.0625 -1.25,0.9515625 q -0.125 0.125 1.7625,1 " 
						transform="rotate(51.428571428571 0,2.68125 )"
						stroke-width ="0.1"
						fill="rgb(169.5,91.5,186.5)"
						/><circle cx="0" cy="2.68125" r="0.7875" fill="rgb(182,94,172)"/><circle cx="-0.02" cy="2.66125" r="0.525" fill="rgb(197.5,100.5,191.5)"/><path d="M 0,2.68125 
						q 0.0625 0.5625 1.1375,0.5859375 q 0.125 0.5 -0.625,0.7265625 q 0.875 0.0625 1.25,0.9515625 q 0.125 0.125 -1.7625,1 
						M 0,2.68125 
						q -0.0625 0.5625 -1.1375,0.5859375 q -0.125 0.5 0.625,0.7265625 q -0.875 0.0625 -1.25,0.9515625 q -0.125 0.125 1.7625,1 " 
						transform="rotate(102.85714285714 0,2.68125 )"
						stroke-width ="0.1"
						fill="rgb(168,88,179)"
						/><circle cx="0" cy="2.68125" r="0.7875" fill="rgb(182,94,172)"/><circle cx="0.08" cy="2.66125" r="0.525" fill="rgb(197.5,100.5,191.5)"/><path d="M 0,2.68125 
						q 0.0625 0.5625 1.1375,0.5859375 q 0.125 0.5 -0.625,0.7265625 q 0.875 0.0625 1.25,0.9515625 q 0.125 0.125 -1.7625,1 
						M 0,2.68125 
						q -0.0625 0.5625 -1.1375,0.5859375 q -0.125 0.5 0.625,0.7265625 q -0.875 0.0625 -1.25,0.9515625 q -0.125 0.125 1.7625,1 " 
						transform="rotate(154.28571428571 0,2.68125 )"
						stroke-width ="0.1"
						fill="rgb(171.5,95.5,169.5)"
						/><circle cx="0" cy="2.68125" r="0.7875" fill="rgb(182,94,172)"/><circle cx="0.02" cy="2.71125" r="0.525" fill="rgb(197.5,100.5,191.5)"/><path d="M 0,2.68125 
						q 0.0625 0.5625 1.1375,0.5859375 q 0.125 0.5 -0.625,0.7265625 q 0.875 0.0625 1.25,0.9515625 q 0.125 0.125 -1.7625,1 
						M 0,2.68125 
						q -0.0625 0.5625 -1.1375,0.5859375 q -0.125 0.5 0.625,0.7265625 q -0.875 0.0625 -1.25,0.9515625 q -0.125 0.125 1.7625,1 " 
						transform="rotate(205.71428571429 0,2.68125 )"
						stroke-width ="0.1"
						fill="rgb(165,92,177)"
						/><circle cx="0" cy="2.68125" r="0.7875" fill="rgb(182,94,172)"/><circle cx="-0.03" cy="2.78125" r="0.525" fill="rgb(197.5,100.5,191.5)"/><path d="M 0,2.68125 
						q 0.0625 0.5625 1.1375,0.5859375 q 0.125 0.5 -0.625,0.7265625 q 0.875 0.0625 1.25,0.9515625 q 0.125 0.125 -1.7625,1 
						M 0,2.68125 
						q -0.0625 0.5625 -1.1375,0.5859375 q -0.125 0.5 0.625,0.7265625 q -0.875 0.0625 -1.25,0.9515625 q -0.125 0.125 1.7625,1 " 
						transform="rotate(257.14285714286 0,2.68125 )"
						stroke-width ="0.1"
						fill="rgb(153.5,90.5,164.5)"
						/><circle cx="0" cy="2.68125" r="0.7875" fill="rgb(182,94,172)"/><circle cx="-0.05" cy="2.66125" r="0.525" fill="rgb(197.5,100.5,191.5)"/><path d="M 0,2.68125 
						q 0.0625 0.5625 1.1375,0.5859375 q 0.125 0.5 -0.625,0.7265625 q 0.875 0.0625 1.25,0.9515625 q 0.125 0.125 -1.7625,1 
						M 0,2.68125 
						q -0.0625 0.5625 -1.1375,0.5859375 q -0.125 0.5 0.625,0.7265625 q -0.875 0.0625 -1.25,0.9515625 q -0.125 0.125 1.7625,1 " 
						transform="rotate(308.57142857143 0,2.68125 )"
						stroke-width ="0.1"
						fill="rgb(158,88,162)"
						/><circle cx="0" cy="2.68125" r="0.7875" fill="rgb(182,94,172)"/><circle cx="0" cy="2.71125" r="0.525" fill="rgb(197.5,100.5,191.5)"/><path d="M 0,2.68125 
						q 0.0625 0.5625 1.1375,0.5859375 q 0.125 0.5 -0.625,0.7265625 q 0.875 0.0625 1.25,0.9515625 q 0.125 0.125 -1.7625,1 
						M 0,2.68125 
						q -0.0625 0.5625 -1.1375,0.5859375 q -0.125 0.5 0.625,0.7265625 q -0.875 0.0625 -1.25,0.9515625 q -0.125 0.125 1.7625,1 " 
						transform="rotate(360 0,2.68125 )"
						stroke-width ="0.1"
						fill="rgb(144.5,78.5,169.5)"
						/><circle cx="0" cy="2.68125" r="0.7875" fill="rgb(182,94,172)"/><circle cx="0.09" cy="2.63125" r="0.525" fill="rgb(197.5,100.5,191.5)"/><path d="M 0,2.68125 
						q 0.0625 0.5625 1.1375,0.5859375 q 0.125 0.5 -0.625,0.7265625 q 0.875 0.0625 1.25,0.9515625 q 0.125 0.125 -1.7625,1 
						M 0,2.68125 
						q -0.0625 0.5625 -1.1375,0.5859375 q -0.125 0.5 0.625,0.7265625 q -0.875 0.0625 -1.25,0.9515625 q -0.125 0.125 1.7625,1 " 
						transform="rotate(411.42857142857 0,2.68125 )"
						stroke-width ="0.1"
						fill="rgb(151,73,158)"
						/><circle cx="0" cy="2.68125" r="0.7875" fill="rgb(182,94,172)"/><circle cx="-0.08" cy="2.67125" r="0.525" fill="rgb(197.5,100.5,191.5)"/><path d="M 0,2.68125 
						q 0.0625 0.5625 1.1375,0.5859375 q 0.125 0.5 -0.625,0.7265625 q 0.875 0.0625 1.25,0.9515625 q 0.125 0.125 -1.7625,1 
						M 0,2.68125 
						q -0.0625 0.5625 -1.1375,0.5859375 q -0.125 0.5 0.625,0.7265625 q -0.875 0.0625 -1.25,0.9515625 q -0.125 0.125 1.7625,1 " 
						transform="rotate(462.85714285714 0,2.68125 )"
						stroke-width ="0.1"
						fill="rgb(146.5,69.5,155.5)"
						/><circle cx="0" cy="2.68125" r="0.7875" fill="rgb(182,94,172)"/><circle cx="0.04" cy="2.65125" r="0.525" fill="rgb(197.5,100.5,191.5)"/><path d="M 0,2.68125 
						q 0.0625 0.5625 1.1375,0.5859375 q 0.125 0.5 -0.625,0.7265625 q 0.875 0.0625 1.25,0.9515625 q 0.125 0.125 -1.7625,1 
						M 0,2.68125 
						q -0.0625 0.5625 -1.1375,0.5859375 q -0.125 0.5 0.625,0.7265625 q -0.875 0.0625 -1.25,0.9515625 q -0.125 0.125 1.7625,1 " 
						transform="rotate(514.28571428571 0,2.68125 )"
						stroke-width ="0.1"
						fill="rgb(153,62,159)"
						/><circle cx="0" cy="2.68125" r="0.7875" fill="rgb(182,94,172)"/><circle cx="0.03" cy="2.68125" r="0.525" fill="rgb(197.5,100.5,191.5)"/><path d="M 0,2.68125 
						q 0.0625 0.5625 1.1375,0.5859375 q 0.125 0.5 -0.625,0.7265625 q 0.875 0.0625 1.25,0.9515625 q 0.125 0.125 -1.7625,1 
						M 0,2.68125 
						q -0.0625 0.5625 -1.1375,0.5859375 q -0.125 0.5 0.625,0.7265625 q -0.875 0.0625 -1.25,0.9515625 q -0.125 0.125 1.7625,1 " 
						transform="rotate(565.71428571429 0,2.68125 )"
						stroke-width ="0.1"
						fill="rgb(146.5,63.5,155.5)"
						/><circle cx="0" cy="2.68125" r="0.7875" fill="rgb(182,94,172)"/><circle cx="0.03" cy="2.75125" r="0.525" fill="rgb(197.5,100.5,191.5)"/><path d="M 0,2.68125 
						q 0.0625 0.5625 1.1375,0.5859375 q 0.125 0.5 -0.625,0.7265625 q 0.875 0.0625 1.25,0.9515625 q 0.125 0.125 -1.7625,1 
						M 0,2.68125 
						q -0.0625 0.5625 -1.1375,0.5859375 q -0.125 0.5 0.625,0.7265625 q -0.875 0.0625 -1.25,0.9515625 q -0.125 0.125 1.7625,1 " 
						transform="rotate(617.14285714286 0,2.68125 )"
						stroke-width ="0.1"
						fill="rgb(136,72,149)"
						/><circle cx="0" cy="2.68125" r="0.7875" fill="rgb(182,94,172)"/><circle cx="0.08" cy="2.67125" r="0.525" fill="rgb(197.5,100.5,191.5)"/><path d="M 0,2.68125 
						q 0.0625 0.5625 1.1375,0.5859375 q 0.125 0.5 -0.625,0.7265625 q 0.875 0.0625 1.25,0.9515625 q 0.125 0.125 -1.7625,1 
						M 0,2.68125 
						q -0.0625 0.5625 -1.1375,0.5859375 q -0.125 0.5 0.625,0.7265625 q -0.875 0.0625 -1.25,0.9515625 q -0.125 0.125 1.7625,1 " 
						transform="rotate(668.57142857143 0,2.68125 )"
						stroke-width ="0.1"
						fill="rgb(131.5,72.5,147.5)"
						/><circle cx="0" cy="2.68125" r="0.7875" fill="rgb(182,94,172)"/><circle cx="0.02" cy="2.58125" r="0.525" fill="rgb(197.5,100.5,191.5)"/><path d="M 0,2.68125 
						q 0.0625 0.5625 1.1375,0.5859375 q 0.125 0.5 -0.625,0.7265625 q 0.875 0.0625 1.25,0.9515625 q 0.125 0.125 -1.7625,1 
						M 0,2.68125 
						q -0.0625 0.5625 -1.1375,0.5859375 q -0.125 0.5 0.625,0.7265625 q -0.875 0.0625 -1.25,0.9515625 q -0.125 0.125 1.7625,1 " 
						transform="rotate(720 0,2.68125 )"
						stroke-width ="0.1"
						fill="rgb(126,59,158)"
						/><circle cx="0" cy="2.68125" r="0.7875" fill="rgb(182,94,172)"/><circle cx="0.01" cy="2.74125" r="0.525" fill="rgb(197.5,100.5,191.5)"/></g><g id="flower6" transform="skewX(-5) skewY(-5)">
						<path d="M 0,0
						Q 0.03,1.125 0,3.2175"
						stroke="rgb(7,9,16)" 
						fill="transparent"
						stroke-width ="0.3" /><path d="M 0,3.2175 
						q 0.075 0.675 1.325,0.703125 q 0.15 0.6 -0.75,0.871875 q 1.05 0.075 1.5,1.141875 q 0.15 0.15 -2.075,1 
						M 0,3.2175 
						q -0.075 0.675 -1.325,0.703125 q -0.15 0.6 0.75,0.871875 q -1.05 0.075 -1.5,1.141875 q -0.15 0.15 2.075,1 " 
						transform="rotate(0 0,3.2175 )"
						stroke-width ="0.1"
						fill="rgb(176,93,187)"
						/><circle cx="0" cy="3.2175" r="0.945" fill="rgb(185,100,177)"/><circle cx="-0.09" cy="3.1675" r="0.63" fill="rgb(205.5,116.5,176.5)"/><path d="M 0,3.2175 
						q 0.075 0.675 1.325,0.703125 q 0.15 0.6 -0.75,0.871875 q 1.05 0.075 1.5,1.141875 q 0.15 0.15 -2.075,1 
						M 0,3.2175 
						q -0.075 0.675 -1.325,0.703125 q -0.15 0.6 0.75,0.871875 q -1.05 0.075 -1.5,1.141875 q -0.15 0.15 2.075,1 " 
						transform="rotate(51.428571428571 0,3.2175 )"
						stroke-width ="0.1"
						fill="rgb(157.5,88.5,187.5)"
						/><circle cx="0" cy="3.2175" r="0.945" fill="rgb(185,100,177)"/><circle cx="-0.02" cy="3.2175" r="0.63" fill="rgb(205.5,116.5,176.5)"/><path d="M 0,3.2175 
						q 0.075 0.675 1.325,0.703125 q 0.15 0.6 -0.75,0.871875 q 1.05 0.075 1.5,1.141875 q 0.15 0.15 -2.075,1 
						M 0,3.2175 
						q -0.075 0.675 -1.325,0.703125 q -0.15 0.6 0.75,0.871875 q -1.05 0.075 -1.5,1.141875 q -0.15 0.15 2.075,1 " 
						transform="rotate(102.85714285714 0,3.2175 )"
						stroke-width ="0.1"
						fill="rgb(168,84,187)"
						/><circle cx="0" cy="3.2175" r="0.945" fill="rgb(185,100,177)"/><circle cx="-0.04" cy="3.3175" r="0.63" fill="rgb(205.5,116.5,176.5)"/><path d="M 0,3.2175 
						q 0.075 0.675 1.325,0.703125 q 0.15 0.6 -0.75,0.871875 q 1.05 0.075 1.5,1.141875 q 0.15 0.15 -2.075,1 
						M 0,3.2175 
						q -0.075 0.675 -1.325,0.703125 q -0.15 0.6 0.75,0.871875 q -1.05 0.075 -1.5,1.141875 q -0.15 0.15 2.075,1 " 
						transform="rotate(154.28571428571 0,3.2175 )"
						stroke-width ="0.1"
						fill="rgb(159.5,97.5,185.5)"
						/><circle cx="0" cy="3.2175" r="0.945" fill="rgb(185,100,177)"/><circle cx="0.09" cy="3.2775" r="0.63" fill="rgb(205.5,116.5,176.5)"/><path d="M 0,3.2175 
						q 0.075 0.675 1.325,0.703125 q 0.15 0.6 -0.75,0.871875 q 1.05 0.075 1.5,1.141875 q 0.15 0.15 -2.075,1 
						M 0,3.2175 
						q -0.075 0.675 -1.325,0.703125 q -0.15 0.6 0.75,0.871875 q -1.05 0.075 -1.5,1.141875 q -0.15 0.15 2.075,1 " 
						transform="rotate(205.71428571429 0,3.2175 )"
						stroke-width ="0.1"
						fill="rgb(153,90,174)"
						/><circle cx="0" cy="3.2175" r="0.945" fill="rgb(185,100,177)"/><circle cx="0" cy="3.1475" r="0.63" fill="rgb(205.5,116.5,176.5)"/><path d="M 0,3.2175 
						q 0.075 0.675 1.325,0.703125 q 0.15 0.6 -0.75,0.871875 q 1.05 0.075 1.5,1.141875 q 0.15 0.15 -2.075,1 
						M 0,3.2175 
						q -0.075 0.675 -1.325,0.703125 q -0.15 0.6 0.75,0.871875 q -1.05 0.075 -1.5,1.141875 q -0.15 0.15 2.075,1 " 
						transform="rotate(257.14285714286 0,3.2175 )"
						stroke-width ="0.1"
						fill="rgb(150.5,93.5,178.5)"
						/><circle cx="0" cy="3.2175" r="0.945" fill="rgb(185,100,177)"/><circle cx="0.09" cy="3.2375" r="0.63" fill="rgb(205.5,116.5,176.5)"/><path d="M 0,3.2175 
						q 0.075 0.675 1.325,0.703125 q 0.15 0.6 -0.75,0.871875 q 1.05 0.075 1.5,1.141875 q 0.15 0.15 -2.075,1 
						M 0,3.2175 
						q -0.075 0.675 -1.325,0.703125 q -0.15 0.6 0.75,0.871875 q -1.05 0.075 -1.5,1.141875 q -0.15 0.15 2.075,1 " 
						transform="rotate(308.57142857143 0,3.2175 )"
						stroke-width ="0.1"
						fill="rgb(152,81,165)"
						/><circle cx="0" cy="3.2175" r="0.945" fill="rgb(185,100,177)"/><circle cx="0.03" cy="3.1775" r="0.63" fill="rgb(205.5,116.5,176.5)"/><path d="M 0,3.2175 
						q 0.075 0.675 1.325,0.703125 q 0.15 0.6 -0.75,0.871875 q 1.05 0.075 1.5,1.141875 q 0.15 0.15 -2.075,1 
						M 0,3.2175 
						q -0.075 0.675 -1.325,0.703125 q -0.15 0.6 0.75,0.871875 q -1.05 0.075 -1.5,1.141875 q -0.15 0.15 2.075,1 " 
						transform="rotate(360 0,3.2175 )"
						stroke-width ="0.1"
						fill="rgb(146.5,71.5,173.5)"
						/><circle cx="0" cy="3.2175" r="0.945" fill="rgb(185,100,177)"/><circle cx="0" cy="3.2975" r="0.63" fill="rgb(205.5,116.5,176.5)"/><path d="M 0,3.2175 
						q 0.075 0.675 1.325,0.703125 q 0.15 0.6 -0.75,0.871875 q 1.05 0.075 1.5,1.141875 q 0.15 0.15 -2.075,1 
						M 0,3.2175 
						q -0.075 0.675 -1.325,0.703125 q -0.15 0.6 0.75,0.871875 q -1.05 0.075 -1.5,1.141875 q -0.15 0.15 2.075,1 " 
						transform="rotate(411.42857142857 0,3.2175 )"
						stroke-width ="0.1"
						fill="rgb(145,82,171)"
						/><circle cx="0" cy="3.2175" r="0.945" fill="rgb(185,100,177)"/><circle cx="-0.05" cy="3.2075" r="0.63" fill="rgb(205.5,116.5,176.5)"/><path d="M 0,3.2175 
						q 0.075 0.675 1.325,0.703125 q 0.15 0.6 -0.75,0.871875 q 1.05 0.075 1.5,1.141875 q 0.15 0.15 -2.075,1 
						M 0,3.2175 
						q -0.075 0.675 -1.325,0.703125 q -0.15 0.6 0.75,0.871875 q -1.05 0.075 -1.5,1.141875 q -0.15 0.15 2.075,1 " 
						transform="rotate(462.85714285714 0,3.2175 )"
						stroke-width ="0.1"
						fill="rgb(153.5,68.5,162.5)"
						/><circle cx="0" cy="3.2175" r="0.945" fill="rgb(185,100,177)"/><circle cx="0.08" cy="3.1875" r="0.63" fill="rgb(205.5,116.5,176.5)"/><path d="M 0,3.2175 
						q 0.075 0.675 1.325,0.703125 q 0.15 0.6 -0.75,0.871875 q 1.05 0.075 1.5,1.141875 q 0.15 0.15 -2.075,1 
						M 0,3.2175 
						q -0.075 0.675 -1.325,0.703125 q -0.15 0.6 0.75,0.871875 q -1.05 0.075 -1.5,1.141875 q -0.15 0.15 2.075,1 " 
						transform="rotate(514.28571428571 0,3.2175 )"
						stroke-width ="0.1"
						fill="rgb(152,72,148)"
						/><circle cx="0" cy="3.2175" r="0.945" fill="rgb(185,100,177)"/><circle cx="-0.04" cy="3.2375" r="0.63" fill="rgb(205.5,116.5,176.5)"/><path d="M 0,3.2175 
						q 0.075 0.675 1.325,0.703125 q 0.15 0.6 -0.75,0.871875 q 1.05 0.075 1.5,1.141875 q 0.15 0.15 -2.075,1 
						M 0,3.2175 
						q -0.075 0.675 -1.325,0.703125 q -0.15 0.6 0.75,0.871875 q -1.05 0.075 -1.5,1.141875 q -0.15 0.15 2.075,1 " 
						transform="rotate(565.71428571429 0,3.2175 )"
						stroke-width ="0.1"
						fill="rgb(151.5,59.5,153.5)"
						/><circle cx="0" cy="3.2175" r="0.945" fill="rgb(185,100,177)"/><circle cx="-0.1" cy="3.2475" r="0.63" fill="rgb(205.5,116.5,176.5)"/><path d="M 0,3.2175 
						q 0.075 0.675 1.325,0.703125 q 0.15 0.6 -0.75,0.871875 q 1.05 0.075 1.5,1.141875 q 0.15 0.15 -2.075,1 
						M 0,3.2175 
						q -0.075 0.675 -1.325,0.703125 q -0.15 0.6 0.75,0.871875 q -1.05 0.075 -1.5,1.141875 q -0.15 0.15 2.075,1 " 
						transform="rotate(617.14285714286 0,3.2175 )"
						stroke-width ="0.1"
						fill="rgb(133,67,160)"
						/><circle cx="0" cy="3.2175" r="0.945" fill="rgb(185,100,177)"/><circle cx="-0.07" cy="3.1375" r="0.63" fill="rgb(205.5,116.5,176.5)"/><path d="M 0,3.2175 
						q 0.075 0.675 1.325,0.703125 q 0.15 0.6 -0.75,0.871875 q 1.05 0.075 1.5,1.141875 q 0.15 0.15 -2.075,1 
						M 0,3.2175 
						q -0.075 0.675 -1.325,0.703125 q -0.15 0.6 0.75,0.871875 q -1.05 0.075 -1.5,1.141875 q -0.15 0.15 2.075,1 " 
						transform="rotate(668.57142857143 0,3.2175 )"
						stroke-width ="0.1"
						fill="rgb(131.5,60.5,158.5)"
						/><circle cx="0" cy="3.2175" r="0.945" fill="rgb(185,100,177)"/><circle cx="-0.05" cy="3.1575" r="0.63" fill="rgb(205.5,116.5,176.5)"/><path d="M 0,3.2175 
						q 0.075 0.675 1.325,0.703125 q 0.15 0.6 -0.75,0.871875 q 1.05 0.075 1.5,1.141875 q 0.15 0.15 -2.075,1 
						M 0,3.2175 
						q -0.075 0.675 -1.325,0.703125 q -0.15 0.6 0.75,0.871875 q -1.05 0.075 -1.5,1.141875 q -0.15 0.15 2.075,1 " 
						transform="rotate(720 0,3.2175 )"
						stroke-width ="0.1"
						fill="rgb(141,60,144)"
						/><circle cx="0" cy="3.2175" r="0.945" fill="rgb(185,100,177)"/><circle cx="0.09" cy="3.1375" r="0.63" fill="rgb(205.5,116.5,176.5)"/></g><g id="flower7" transform="skewX(8) skewY(8)">
						<path d="M 0,0
						Q 0.33,1.3125 0,3.75375"
						stroke="rgb(7,9,16)" 
						fill="transparent"
						stroke-width ="0.3" /><path d="M 0,3.75375 
						q 0.0875 0.7875 1.5125,0.8203125 q 0.175 0.7 -0.875,1.0171875 q 1.225 0.0875 1.75,1.3321875 q 0.175 0.175 -2.3875,1 
						M 0,3.75375 
						q -0.0875 0.7875 -1.5125,0.8203125 q -0.175 0.7 0.875,1.0171875 q -1.225 0.0875 -1.75,1.3321875 q -0.175 0.175 2.3875,1 " 
						transform="rotate(0 0,3.75375 )"
						stroke-width ="0.1"
						fill="rgb(170,91,189)"
						/><circle cx="0" cy="3.75375" r="1.1025" fill="rgb(185,93,172)"/><circle cx="0.03" cy="3.79375" r="0.735" fill="rgb(204.5,113.5,175.5)"/><path d="M 0,3.75375 
						q 0.0875 0.7875 1.5125,0.8203125 q 0.175 0.7 -0.875,1.0171875 q 1.225 0.0875 1.75,1.3321875 q 0.175 0.175 -2.3875,1 
						M 0,3.75375 
						q -0.0875 0.7875 -1.5125,0.8203125 q -0.175 0.7 0.875,1.0171875 q -1.225 0.0875 -1.75,1.3321875 q -0.175 0.175 2.3875,1 " 
						transform="rotate(51.428571428571 0,3.75375 )"
						stroke-width ="0.1"
						fill="rgb(156.5,88.5,179.5)"
						/><circle cx="0" cy="3.75375" r="1.1025" fill="rgb(185,93,172)"/><circle cx="-0.09" cy="3.74375" r="0.735" fill="rgb(204.5,113.5,175.5)"/><path d="M 0,3.75375 
						q 0.0875 0.7875 1.5125,0.8203125 q 0.175 0.7 -0.875,1.0171875 q 1.225 0.0875 1.75,1.3321875 q 0.175 0.175 -2.3875,1 
						M 0,3.75375 
						q -0.0875 0.7875 -1.5125,0.8203125 q -0.175 0.7 0.875,1.0171875 q -1.225 0.0875 -1.75,1.3321875 q -0.175 0.175 2.3875,1 " 
						transform="rotate(102.85714285714 0,3.75375 )"
						stroke-width ="0.1"
						fill="rgb(167,98,179)"
						/><circle cx="0" cy="3.75375" r="1.1025" fill="rgb(185,93,172)"/><circle cx="0.07" cy="3.82375" r="0.735" fill="rgb(204.5,113.5,175.5)"/><path d="M 0,3.75375 
						q 0.0875 0.7875 1.5125,0.8203125 q 0.175 0.7 -0.875,1.0171875 q 1.225 0.0875 1.75,1.3321875 q 0.175 0.175 -2.3875,1 
						M 0,3.75375 
						q -0.0875 0.7875 -1.5125,0.8203125 q -0.175 0.7 0.875,1.0171875 q -1.225 0.0875 -1.75,1.3321875 q -0.175 0.175 2.3875,1 " 
						transform="rotate(154.28571428571 0,3.75375 )"
						stroke-width ="0.1"
						fill="rgb(170.5,96.5,174.5)"
						/><circle cx="0" cy="3.75375" r="1.1025" fill="rgb(185,93,172)"/><circle cx="-0.09" cy="3.65375" r="0.735" fill="rgb(204.5,113.5,175.5)"/><path d="M 0,3.75375 
						q 0.0875 0.7875 1.5125,0.8203125 q 0.175 0.7 -0.875,1.0171875 q 1.225 0.0875 1.75,1.3321875 q 0.175 0.175 -2.3875,1 
						M 0,3.75375 
						q -0.0875 0.7875 -1.5125,0.8203125 q -0.175 0.7 0.875,1.0171875 q -1.225 0.0875 -1.75,1.3321875 q -0.175 0.175 2.3875,1 " 
						transform="rotate(205.71428571429 0,3.75375 )"
						stroke-width ="0.1"
						fill="rgb(153,95,169)"
						/><circle cx="0" cy="3.75375" r="1.1025" fill="rgb(185,93,172)"/><circle cx="0" cy="3.79375" r="0.735" fill="rgb(204.5,113.5,175.5)"/><path d="M 0,3.75375 
						q 0.0875 0.7875 1.5125,0.8203125 q 0.175 0.7 -0.875,1.0171875 q 1.225 0.0875 1.75,1.3321875 q 0.175 0.175 -2.3875,1 
						M 0,3.75375 
						q -0.0875 0.7875 -1.5125,0.8203125 q -0.175 0.7 0.875,1.0171875 q -1.225 0.0875 -1.75,1.3321875 q -0.175 0.175 2.3875,1 " 
						transform="rotate(257.14285714286 0,3.75375 )"
						stroke-width ="0.1"
						fill="rgb(154.5,91.5,168.5)"
						/><circle cx="0" cy="3.75375" r="1.1025" fill="rgb(185,93,172)"/><circle cx="0.04" cy="3.77375" r="0.735" fill="rgb(204.5,113.5,175.5)"/><path d="M 0,3.75375 
						q 0.0875 0.7875 1.5125,0.8203125 q 0.175 0.7 -0.875,1.0171875 q 1.225 0.0875 1.75,1.3321875 q 0.175 0.175 -2.3875,1 
						M 0,3.75375 
						q -0.0875 0.7875 -1.5125,0.8203125 q -0.175 0.7 0.875,1.0171875 q -1.225 0.0875 -1.75,1.3321875 q -0.175 0.175 2.3875,1 " 
						transform="rotate(308.57142857143 0,3.75375 )"
						stroke-width ="0.1"
						fill="rgb(157,91,169)"
						/><circle cx="0" cy="3.75375" r="1.1025" fill="rgb(185,93,172)"/><circle cx="-0.01" cy="3.75375" r="0.735" fill="rgb(204.5,113.5,175.5)"/><path d="M 0,3.75375 
						q 0.0875 0.7875 1.5125,0.8203125 q 0.175 0.7 -0.875,1.0171875 q 1.225 0.0875 1.75,1.3321875 q 0.175 0.175 -2.3875,1 
						M 0,3.75375 
						q -0.0875 0.7875 -1.5125,0.8203125 q -0.175 0.7 0.875,1.0171875 q -1.225 0.0875 -1.75,1.3321875 q -0.175 0.175 2.3875,1 " 
						transform="rotate(360 0,3.75375 )"
						stroke-width ="0.1"
						fill="rgb(153.5,75.5,165.5)"
						/><circle cx="0" cy="3.75375" r="1.1025" fill="rgb(185,93,172)"/><circle cx="0.09" cy="3.73375" r="0.735" fill="rgb(204.5,113.5,175.5)"/><path d="M 0,3.75375 
						q 0.0875 0.7875 1.5125,0.8203125 q 0.175 0.7 -0.875,1.0171875 q 1.225 0.0875 1.75,1.3321875 q 0.175 0.175 -2.3875,1 
						M 0,3.75375 
						q -0.0875 0.7875 -1.5125,0.8203125 q -0.175 0.7 0.875,1.0171875 q -1.225 0.0875 -1.75,1.3321875 q -0.175 0.175 2.3875,1 " 
						transform="rotate(411.42857142857 0,3.75375 )"
						stroke-width ="0.1"
						fill="rgb(145,73,169)"
						/><circle cx="0" cy="3.75375" r="1.1025" fill="rgb(185,93,172)"/><circle cx="0.07" cy="3.74375" r="0.735" fill="rgb(204.5,113.5,175.5)"/><path d="M 0,3.75375 
						q 0.0875 0.7875 1.5125,0.8203125 q 0.175 0.7 -0.875,1.0171875 q 1.225 0.0875 1.75,1.3321875 q 0.175 0.175 -2.3875,1 
						M 0,3.75375 
						q -0.0875 0.7875 -1.5125,0.8203125 q -0.175 0.7 0.875,1.0171875 q -1.225 0.0875 -1.75,1.3321875 q -0.175 0.175 2.3875,1 " 
						transform="rotate(462.85714285714 0,3.75375 )"
						stroke-width ="0.1"
						fill="rgb(136.5,71.5,150.5)"
						/><circle cx="0" cy="3.75375" r="1.1025" fill="rgb(185,93,172)"/><circle cx="0.04" cy="3.76375" r="0.735" fill="rgb(204.5,113.5,175.5)"/><path d="M 0,3.75375 
						q 0.0875 0.7875 1.5125,0.8203125 q 0.175 0.7 -0.875,1.0171875 q 1.225 0.0875 1.75,1.3321875 q 0.175 0.175 -2.3875,1 
						M 0,3.75375 
						q -0.0875 0.7875 -1.5125,0.8203125 q -0.175 0.7 0.875,1.0171875 q -1.225 0.0875 -1.75,1.3321875 q -0.175 0.175 2.3875,1 " 
						transform="rotate(514.28571428571 0,3.75375 )"
						stroke-width ="0.1"
						fill="rgb(141,61,150)"
						/><circle cx="0" cy="3.75375" r="1.1025" fill="rgb(185,93,172)"/><circle cx="-0.04" cy="3.69375" r="0.735" fill="rgb(204.5,113.5,175.5)"/><path d="M 0,3.75375 
						q 0.0875 0.7875 1.5125,0.8203125 q 0.175 0.7 -0.875,1.0171875 q 1.225 0.0875 1.75,1.3321875 q 0.175 0.175 -2.3875,1 
						M 0,3.75375 
						q -0.0875 0.7875 -1.5125,0.8203125 q -0.175 0.7 0.875,1.0171875 q -1.225 0.0875 -1.75,1.3321875 q -0.175 0.175 2.3875,1 " 
						transform="rotate(565.71428571429 0,3.75375 )"
						stroke-width ="0.1"
						fill="rgb(144.5,68.5,159.5)"
						/><circle cx="0" cy="3.75375" r="1.1025" fill="rgb(185,93,172)"/><circle cx="-0.09" cy="3.73375" r="0.735" fill="rgb(204.5,113.5,175.5)"/><path d="M 0,3.75375 
						q 0.0875 0.7875 1.5125,0.8203125 q 0.175 0.7 -0.875,1.0171875 q 1.225 0.0875 1.75,1.3321875 q 0.175 0.175 -2.3875,1 
						M 0,3.75375 
						q -0.0875 0.7875 -1.5125,0.8203125 q -0.175 0.7 0.875,1.0171875 q -1.225 0.0875 -1.75,1.3321875 q -0.175 0.175 2.3875,1 " 
						transform="rotate(617.14285714286 0,3.75375 )"
						stroke-width ="0.1"
						fill="rgb(130,56,163)"
						/><circle cx="0" cy="3.75375" r="1.1025" fill="rgb(185,93,172)"/><circle cx="0.06" cy="3.65375" r="0.735" fill="rgb(204.5,113.5,175.5)"/><path d="M 0,3.75375 
						q 0.0875 0.7875 1.5125,0.8203125 q 0.175 0.7 -0.875,1.0171875 q 1.225 0.0875 1.75,1.3321875 q 0.175 0.175 -2.3875,1 
						M 0,3.75375 
						q -0.0875 0.7875 -1.5125,0.8203125 q -0.175 0.7 0.875,1.0171875 q -1.225 0.0875 -1.75,1.3321875 q -0.175 0.175 2.3875,1 " 
						transform="rotate(668.57142857143 0,3.75375 )"
						stroke-width ="0.1"
						fill="rgb(127.5,70.5,151.5)"
						/><circle cx="0" cy="3.75375" r="1.1025" fill="rgb(185,93,172)"/><circle cx="0.01" cy="3.79375" r="0.735" fill="rgb(204.5,113.5,175.5)"/><path d="M 0,3.75375 
						q 0.0875 0.7875 1.5125,0.8203125 q 0.175 0.7 -0.875,1.0171875 q 1.225 0.0875 1.75,1.3321875 q 0.175 0.175 -2.3875,1 
						M 0,3.75375 
						q -0.0875 0.7875 -1.5125,0.8203125 q -0.175 0.7 0.875,1.0171875 q -1.225 0.0875 -1.75,1.3321875 q -0.175 0.175 2.3875,1 " 
						transform="rotate(720 0,3.75375 )"
						stroke-width ="0.1"
						fill="rgb(135,55,148)"
						/><circle cx="0" cy="3.75375" r="1.1025" fill="rgb(185,93,172)"/><circle cx="0" cy="3.74375" r="0.735" fill="rgb(204.5,113.5,175.5)"/></g><g id="flower8" transform="skewX(-1) skewY(-1)">
						<path d="M 0,0
						Q 1.12,1.5 0,4.29"
						stroke="rgb(7,9,16)" 
						fill="transparent"
						stroke-width ="0.3" /><path d="M 0,4.29 
						q 0.1 0.9 1.7,0.9375 q 0.2 0.8 -1,1.1625 q 1.4 0.1 2,1.5225 q 0.2 0.2 -2.7,1 
						M 0,4.29 
						q -0.1 0.9 -1.7,0.9375 q -0.2 0.8 1,1.1625 q -1.4 0.1 -2,1.5225 q -0.2 0.2 2.7,1 " 
						transform="rotate(0 0,4.29 )"
						stroke-width ="0.1"
						fill="rgb(172,89,177)"
						/><circle cx="0" cy="4.29" r="1.26" fill="rgb(189,101,177)"/><circle cx="0.06" cy="4.37" r="0.84" fill="rgb(189.5,103.5,178.5)"/><path d="M 0,4.29 
						q 0.1 0.9 1.7,0.9375 q 0.2 0.8 -1,1.1625 q 1.4 0.1 2,1.5225 q 0.2 0.2 -2.7,1 
						M 0,4.29 
						q -0.1 0.9 -1.7,0.9375 q -0.2 0.8 1,1.1625 q -1.4 0.1 -2,1.5225 q -0.2 0.2 2.7,1 " 
						transform="rotate(51.428571428571 0,4.29 )"
						stroke-width ="0.1"
						fill="rgb(172.5,96.5,187.5)"
						/><circle cx="0" cy="4.29" r="1.26" fill="rgb(189,101,177)"/><circle cx="-0.09" cy="4.2" r="0.84" fill="rgb(189.5,103.5,178.5)"/><path d="M 0,4.29 
						q 0.1 0.9 1.7,0.9375 q 0.2 0.8 -1,1.1625 q 1.4 0.1 2,1.5225 q 0.2 0.2 -2.7,1 
						M 0,4.29 
						q -0.1 0.9 -1.7,0.9375 q -0.2 0.8 1,1.1625 q -1.4 0.1 -2,1.5225 q -0.2 0.2 2.7,1 " 
						transform="rotate(102.85714285714 0,4.29 )"
						stroke-width ="0.1"
						fill="rgb(160,100,170)"
						/><circle cx="0" cy="4.29" r="1.26" fill="rgb(189,101,177)"/><circle cx="-0.03" cy="4.34" r="0.84" fill="rgb(189.5,103.5,178.5)"/><path d="M 0,4.29 
						q 0.1 0.9 1.7,0.9375 q 0.2 0.8 -1,1.1625 q 1.4 0.1 2,1.5225 q 0.2 0.2 -2.7,1 
						M 0,4.29 
						q -0.1 0.9 -1.7,0.9375 q -0.2 0.8 1,1.1625 q -1.4 0.1 -2,1.5225 q -0.2 0.2 2.7,1 " 
						transform="rotate(154.28571428571 0,4.29 )"
						stroke-width ="0.1"
						fill="rgb(153.5,97.5,180.5)"
						/><circle cx="0" cy="4.29" r="1.26" fill="rgb(189,101,177)"/><circle cx="0.08" cy="4.25" r="0.84" fill="rgb(189.5,103.5,178.5)"/><path d="M 0,4.29 
						q 0.1 0.9 1.7,0.9375 q 0.2 0.8 -1,1.1625 q 1.4 0.1 2,1.5225 q 0.2 0.2 -2.7,1 
						M 0,4.29 
						q -0.1 0.9 -1.7,0.9375 q -0.2 0.8 1,1.1625 q -1.4 0.1 -2,1.5225 q -0.2 0.2 2.7,1 " 
						transform="rotate(205.71428571429 0,4.29 )"
						stroke-width ="0.1"
						fill="rgb(169,83,182)"
						/><circle cx="0" cy="4.29" r="1.26" fill="rgb(189,101,177)"/><circle cx="0.06" cy="4.28" r="0.84" fill="rgb(189.5,103.5,178.5)"/><path d="M 0,4.29 
						q 0.1 0.9 1.7,0.9375 q 0.2 0.8 -1,1.1625 q 1.4 0.1 2,1.5225 q 0.2 0.2 -2.7,1 
						M 0,4.29 
						q -0.1 0.9 -1.7,0.9375 q -0.2 0.8 1,1.1625 q -1.4 0.1 -2,1.5225 q -0.2 0.2 2.7,1 " 
						transform="rotate(257.14285714286 0,4.29 )"
						stroke-width ="0.1"
						fill="rgb(164.5,76.5,167.5)"
						/><circle cx="0" cy="4.29" r="1.26" fill="rgb(189,101,177)"/><circle cx="-0.02" cy="4.33" r="0.84" fill="rgb(189.5,103.5,178.5)"/><path d="M 0,4.29 
						q 0.1 0.9 1.7,0.9375 q 0.2 0.8 -1,1.1625 q 1.4 0.1 2,1.5225 q 0.2 0.2 -2.7,1 
						M 0,4.29 
						q -0.1 0.9 -1.7,0.9375 q -0.2 0.8 1,1.1625 q -1.4 0.1 -2,1.5225 q -0.2 0.2 2.7,1 " 
						transform="rotate(308.57142857143 0,4.29 )"
						stroke-width ="0.1"
						fill="rgb(157,87,175)"
						/><circle cx="0" cy="4.29" r="1.26" fill="rgb(189,101,177)"/><circle cx="-0.05" cy="4.38" r="0.84" fill="rgb(189.5,103.5,178.5)"/><path d="M 0,4.29 
						q 0.1 0.9 1.7,0.9375 q 0.2 0.8 -1,1.1625 q 1.4 0.1 2,1.5225 q 0.2 0.2 -2.7,1 
						M 0,4.29 
						q -0.1 0.9 -1.7,0.9375 q -0.2 0.8 1,1.1625 q -1.4 0.1 -2,1.5225 q -0.2 0.2 2.7,1 " 
						transform="rotate(360 0,4.29 )"
						stroke-width ="0.1"
						fill="rgb(154.5,75.5,173.5)"
						/><circle cx="0" cy="4.29" r="1.26" fill="rgb(189,101,177)"/><circle cx="0.02" cy="4.37" r="0.84" fill="rgb(189.5,103.5,178.5)"/><path d="M 0,4.29 
						q 0.1 0.9 1.7,0.9375 q 0.2 0.8 -1,1.1625 q 1.4 0.1 2,1.5225 q 0.2 0.2 -2.7,1 
						M 0,4.29 
						q -0.1 0.9 -1.7,0.9375 q -0.2 0.8 1,1.1625 q -1.4 0.1 -2,1.5225 q -0.2 0.2 2.7,1 " 
						transform="rotate(411.42857142857 0,4.29 )"
						stroke-width ="0.1"
						fill="rgb(157,66,166)"
						/><circle cx="0" cy="4.29" r="1.26" fill="rgb(189,101,177)"/><circle cx="0.06" cy="4.29" r="0.84" fill="rgb(189.5,103.5,178.5)"/><path d="M 0,4.29 
						q 0.1 0.9 1.7,0.9375 q 0.2 0.8 -1,1.1625 q 1.4 0.1 2,1.5225 q 0.2 0.2 -2.7,1 
						M 0,4.29 
						q -0.1 0.9 -1.7,0.9375 q -0.2 0.8 1,1.1625 q -1.4 0.1 -2,1.5225 q -0.2 0.2 2.7,1 " 
						transform="rotate(462.85714285714 0,4.29 )"
						stroke-width ="0.1"
						fill="rgb(149.5,80.5,170.5)"
						/><circle cx="0" cy="4.29" r="1.26" fill="rgb(189,101,177)"/><circle cx="0.09" cy="4.24" r="0.84" fill="rgb(189.5,103.5,178.5)"/><path d="M 0,4.29 
						q 0.1 0.9 1.7,0.9375 q 0.2 0.8 -1,1.1625 q 1.4 0.1 2,1.5225 q 0.2 0.2 -2.7,1 
						M 0,4.29 
						q -0.1 0.9 -1.7,0.9375 q -0.2 0.8 1,1.1625 q -1.4 0.1 -2,1.5225 q -0.2 0.2 2.7,1 " 
						transform="rotate(514.28571428571 0,4.29 )"
						stroke-width ="0.1"
						fill="rgb(147,70,160)"
						/><circle cx="0" cy="4.29" r="1.26" fill="rgb(189,101,177)"/><circle cx="-0.04" cy="4.3" r="0.84" fill="rgb(189.5,103.5,178.5)"/><path d="M 0,4.29 
						q 0.1 0.9 1.7,0.9375 q 0.2 0.8 -1,1.1625 q 1.4 0.1 2,1.5225 q 0.2 0.2 -2.7,1 
						M 0,4.29 
						q -0.1 0.9 -1.7,0.9375 q -0.2 0.8 1,1.1625 q -1.4 0.1 -2,1.5225 q -0.2 0.2 2.7,1 " 
						transform="rotate(565.71428571429 0,4.29 )"
						stroke-width ="0.1"
						fill="rgb(136.5,71.5,150.5)"
						/><circle cx="0" cy="4.29" r="1.26" fill="rgb(189,101,177)"/><circle cx="0.01" cy="4.26" r="0.84" fill="rgb(189.5,103.5,178.5)"/><path d="M 0,4.29 
						q 0.1 0.9 1.7,0.9375 q 0.2 0.8 -1,1.1625 q 1.4 0.1 2,1.5225 q 0.2 0.2 -2.7,1 
						M 0,4.29 
						q -0.1 0.9 -1.7,0.9375 q -0.2 0.8 1,1.1625 q -1.4 0.1 -2,1.5225 q -0.2 0.2 2.7,1 " 
						transform="rotate(617.14285714286 0,4.29 )"
						stroke-width ="0.1"
						fill="rgb(133,74,162)"
						/><circle cx="0" cy="4.29" r="1.26" fill="rgb(189,101,177)"/><circle cx="-0.03" cy="4.35" r="0.84" fill="rgb(189.5,103.5,178.5)"/><path d="M 0,4.29 
						q 0.1 0.9 1.7,0.9375 q 0.2 0.8 -1,1.1625 q 1.4 0.1 2,1.5225 q 0.2 0.2 -2.7,1 
						M 0,4.29 
						q -0.1 0.9 -1.7,0.9375 q -0.2 0.8 1,1.1625 q -1.4 0.1 -2,1.5225 q -0.2 0.2 2.7,1 " 
						transform="rotate(668.57142857143 0,4.29 )"
						stroke-width ="0.1"
						fill="rgb(146.5,66.5,157.5)"
						/><circle cx="0" cy="4.29" r="1.26" fill="rgb(189,101,177)"/><circle cx="0.01" cy="4.32" r="0.84" fill="rgb(189.5,103.5,178.5)"/><path d="M 0,4.29 
						q 0.1 0.9 1.7,0.9375 q 0.2 0.8 -1,1.1625 q 1.4 0.1 2,1.5225 q 0.2 0.2 -2.7,1 
						M 0,4.29 
						q -0.1 0.9 -1.7,0.9375 q -0.2 0.8 1,1.1625 q -1.4 0.1 -2,1.5225 q -0.2 0.2 2.7,1 " 
						transform="rotate(720 0,4.29 )"
						stroke-width ="0.1"
						fill="rgb(142,53,142)"
						/><circle cx="0" cy="4.29" r="1.26" fill="rgb(189,101,177)"/><circle cx="-0.1" cy="4.22" r="0.84" fill="rgb(189.5,103.5,178.5)"/></g></defs>
				<g class="fullPlant">
					<g>
					<path d ="M 55,91 
					a 75 300 -8.49 0 0 2.076,-13.404" fill ="none" stroke ="rgb(3.5,2.5,13.5)" stroke-width ="4.284"/></g><circle cx="57.076" cy="77.596" r="1.071" stroke="rgb(8.5,7.5,18.5)" fill="rgb(3.5,2.5,13.5)"/><use xlink:href="#leaf3"
						x="57.076" y="77.596" 
						transform="rotate(-88 57.986 77.826)" 	
						fill="rgb(189,25,55)" /><use xlink:href="#leaf1"
						x="57.076" y="77.596" 
						transform="rotate(145 57.676 78.446)" 	
						fill="rgb(219,7,55)" /><use xlink:href="#leaf3"
						x="57.076" y="77.596" 
						transform="rotate(-136 57.076 77.596)" 	
						fill="rgb(223,2,56)" /><use xlink:href="#leaf1"
						x="57.076" y="77.596" 
						transform="rotate(-13 57.546 78.096)" 	
						fill="rgb(199,8,45)" /><use xlink:href="#leaf1"
						x="57.076" y="77.596" 
						transform="rotate(-75 57.076 77.596)" 	
						fill="rgb(211,3,56)" /><use xlink:href="#leaf1"
						x="57.076" y="77.596" 
						transform="rotate(166 57.076 77.596)" 	
						fill="rgb(200,25,53)" /><use xlink:href="#leaf1"
						x="57.076" y="77.596" 
						transform="rotate(-68 57.326 77.696)" 	
						fill="rgb(201,0,44)" /><use xlink:href="#leaf1"
						x="57.076" y="77.596" 
						transform="rotate(-176 57.836 78.316)" 	
						fill="rgb(226,16,78)" /><use xlink:href="#leaf2"
						x="57.076" y="77.596" 
						transform="rotate(-38 57.426 77.866)" 	
						fill="rgb(199,14,72)" /><use xlink:href="#leaf2"
						x="57.076" y="77.596" 
						transform="rotate(68 58.046 77.986)" 	
						fill="rgb(188,5,74)" /><use xlink:href="#leaf2"
						x="57.076" y="77.596" 
						transform="rotate(85 57.076 77.596)" 	
						fill="rgb(188,24,62)" />
					<g>
					<path d ="M 55,91 
					a 57 171 -1.12 0 1 10.596,-22.944" fill ="none" stroke ="rgb(6,5,13)" stroke-width ="4.284"/></g><circle cx="65.596" cy="68.056" r="1.071" stroke="rgb(11,10,18)" fill="rgb(6,5,13)"/><use xlink:href="#leaf2"
						x="65.596" y="68.056" 
						transform="rotate(16 65.596 68.056)" 	
						fill="rgb(223,18,78)" /><use xlink:href="#leaf2"
						x="65.596" y="68.056" 
						transform="rotate(32 65.956 68.116)" 	
						fill="rgb(221,23,58)" /><use xlink:href="#leaf1"
						x="65.596" y="68.056" 
						transform="rotate(-97 66.396 68.206)" 	
						fill="rgb(221,11,49)" /><use xlink:href="#leaf2"
						x="65.596" y="68.056" 
						transform="rotate(-58 66.166 68.896)" 	
						fill="rgb(207,33,52)" /><use xlink:href="#leaf1"
						x="65.596" y="68.056" 
						transform="rotate(152 65.836 68.556)" 	
						fill="rgb(219,11,77)" /><use xlink:href="#leaf2"
						x="65.596" y="68.056" 
						transform="rotate(57 65.746 68.846)" 	
						fill="rgb(214,35,60)" /><use xlink:href="#leaf2"
						x="65.596" y="68.056" 
						transform="rotate(42 65.596 68.056)" 	
						fill="rgb(208,0,61)" /><use xlink:href="#leaf3"
						x="65.596" y="68.056" 
						transform="rotate(118 66.266 68.876)" 	
						fill="rgb(219,27,60)" />
					<g>
					<path d ="M 57.076,77.596 
					a 89 267 -13.28 0 1 -13.104,-1.44" fill ="none" stroke ="rgb(5,5,16)" stroke-width ="2.142"/></g><circle cx="43.972" cy="76.156" r="0.5355" stroke="rgb(10,10,21)" fill="rgb(5,5,16)"/><use xlink:href="#leaf1"
						x="43.972" y="76.156" 
						transform="rotate(-149 43.972 76.156)" 	
						fill="rgb(192,23,61)" /><use xlink:href="#leaf1"
						x="43.972" y="76.156" 
						transform="rotate(-86 44.682 76.576)" 	
						fill="rgb(205,32,61)" /><use xlink:href="#leaf1"
						x="43.972" y="76.156" 
						transform="rotate(-107 44.842 76.516)" 	
						fill="rgb(217,29,45)" /><use xlink:href="#leaf1"
						x="43.972" y="76.156" 
						transform="rotate(100 43.972 76.166)" 	
						fill="rgb(208,8,73)" /><use xlink:href="#leaf1"
						x="43.972" y="76.156" 
						transform="rotate(-32 44.332 77.136)" 	
						fill="rgb(194,23,59)" /><use xlink:href="#leaf1"
						x="43.972" y="76.156" 
						transform="rotate(53 44.722 77.036)" 	
						fill="rgb(188,4,65)" /><use xlink:href="#leaf1"
						x="43.972" y="76.156" 
						transform="rotate(-83 44.662 76.546)" 	
						fill="rgb(202,1,40)" /><use xlink:href="#leaf2"
						x="43.972" y="76.156" 
						transform="rotate(-114 43.972 76.156)" 	
						fill="rgb(203,2,75)" /><use xlink:href="#flower2" id="fleur20"
							x="43.972" y="76.156" 
							transform="rotate(157 43.972 76.156)" /><use xlink:href="#flower2" id="fleur21"
							x="43.972" y="76.156" 
							transform="rotate(70 44.584 76.228)" /><use xlink:href="#flower2" id="fleur22"
							x="43.972" y="76.156" 
							transform="rotate(-50 44.32 76.42)" /><use xlink:href="#flower2" id="fleur23"
							x="43.972" y="76.156" 
							transform="rotate(-161 44.476 76.828)" />
					<g>
					<path d ="M 65.596,68.056 
					a 85 425 17.12 0 0 -3.72,-1.968" fill ="none" stroke ="rgb(8,8,16)" stroke-width ="2.142"/></g><circle cx="61.876" cy="66.088" r="0.5355" stroke="rgb(13,13,21)" fill="rgb(8,8,16)"/><use xlink:href="#leaf2"
						x="61.876" y="66.088" 
						transform="rotate(-166 61.876 66.088)" 	
						fill="rgb(202,15,58)" /><use xlink:href="#leaf1"
						x="61.876" y="66.088" 
						transform="rotate(-97 61.876 66.088)" 	
						fill="rgb(191,27,62)" /><use xlink:href="#leaf3"
						x="61.876" y="66.088" 
						transform="rotate(126 62.076 66.508)" 	
						fill="rgb(192,9,79)" /><use xlink:href="#leaf3"
						x="61.876" y="66.088" 
						transform="rotate(-128 61.876 66.088)" 	
						fill="rgb(206,31,72)" /><use xlink:href="#leaf1"
						x="61.876" y="66.088" 
						transform="rotate(-32 61.946 66.178)" 	
						fill="rgb(224,27,44)" /><use xlink:href="#flower1" id="fleur30"
							x="61.876" y="66.088" 
							transform="rotate(147 62.68 66.76)" /><use xlink:href="#flower1" id="fleur31"
							x="61.876" y="66.088" 
							transform="rotate(-41 61.876 66.088)" />
					<g>
					<path d ="M 65.596,68.056 
					a 87 696 -19.6 0 1 3.252,-5.292" fill ="none" stroke ="rgb(11,9,17)" stroke-width ="2.142"/></g><circle cx="68.848" cy="62.764" r="0.5355" stroke="rgb(16,14,22)" fill="rgb(11,9,17)"/><use xlink:href="#leaf1"
						x="68.848" y="62.764" 
						transform="rotate(-93 69.528 62.944)" 	
						fill="rgb(219,6,50)" /><use xlink:href="#leaf1"
						x="68.848" y="62.764" 
						transform="rotate(91 68.848 62.764)" 	
						fill="rgb(195,20,48)" /><use xlink:href="#leaf1"
						x="68.848" y="62.764" 
						transform="rotate(-20 69.408 62.854)" 	
						fill="rgb(220,33,59)" /><use xlink:href="#leaf1"
						x="68.848" y="62.764" 
						transform="rotate(-34 68.848 62.764)" 	
						fill="rgb(191,27,42)" />
					<g>
					<path d ="M 61.876,66.088 
					a 77 616 -16.4 0 1 11.916,4.512" fill ="none" stroke ="rgb(14.5,12.5,19.5)" stroke-width ="1.428"/></g><circle cx="73.792" cy="70.6" r="0.357" stroke="rgb(19.5,17.5,24.5)" fill="rgb(14.5,12.5,19.5)"/><use xlink:href="#leaf2"
						x="73.792" y="70.6" 
						transform="rotate(-60 74.282 71.16)" 	
						fill="rgb(211,1,58)" /><use xlink:href="#leaf3"
						x="73.792" y="70.6" 
						transform="rotate(-58 73.792 70.6)" 	
						fill="rgb(200,19,77)" /><use xlink:href="#leaf1"
						x="73.792" y="70.6" 
						transform="rotate(-131 74.482 70.77)" 	
						fill="rgb(194,16,52)" /><use xlink:href="#leaf3"
						x="73.792" y="70.6" 
						transform="rotate(-38 73.792 70.6)" 	
						fill="rgb(197,5,77)" /><use xlink:href="#leaf4"
						x="73.792" y="70.6" 
						transform="rotate(162 74.142 70.87)" 	
						fill="rgb(197,31,45)" /><use xlink:href="#leaf2"
						x="73.792" y="70.6" 
						transform="rotate(112 73.792 70.6)" 	
						fill="rgb(224,1,52)" /><use xlink:href="#leaf4"
						x="73.792" y="70.6" 
						transform="rotate(-48 73.792 70.78)" 	
						fill="rgb(190,9,69)" /><use xlink:href="#leaf1"
						x="73.792" y="70.6" 
						transform="rotate(-88 73.872 71.47)" 	
						fill="rgb(202,34,68)" /><use xlink:href="#leaf5"
						x="73.792" y="70.6" 
						transform="rotate(10 74.042 71.04)" 	
						fill="rgb(224,13,64)" /><use xlink:href="#leaf3"
						x="73.792" y="70.6" 
						transform="rotate(14 73.792 70.6)" 	
						fill="rgb(202,17,50)" /><use xlink:href="#leaf1"
						x="73.792" y="70.6" 
						transform="rotate(138 73.792 70.6)" 	
						fill="rgb(212,21,55)" /><use xlink:href="#leaf4"
						x="73.792" y="70.6" 
						transform="rotate(88 73.792 70.6)" 	
						fill="rgb(190,19,65)" /><use xlink:href="#leaf3"
						x="73.792" y="70.6" 
						transform="rotate(158 74.202 71.21)" 	
						fill="rgb(206,9,42)" /><use xlink:href="#leaf5"
						x="73.792" y="70.6" 
						transform="rotate(-136 73.792 70.6)" 	
						fill="rgb(211,31,51)" /><use xlink:href="#flower5" id="fleur50"
							x="73.792" y="70.6" 
							transform="rotate(9 73.924 71.38)" /><use xlink:href="#flower5" id="fleur51"
							x="73.792" y="70.6" 
							transform="rotate(157 73.792 70.6)" /><use xlink:href="#flower5" id="fleur52"
							x="73.792" y="70.6" 
							transform="rotate(141 74.896 71.44)" /><use xlink:href="#flower5" id="fleur53"
							x="73.792" y="70.6" 
							transform="rotate(-116 73.792 70.6)" />
					<g>
					<path d ="M 61.876,66.088 
					a 58 348 0.83 0 0 -11.82,5.484" fill ="none" stroke ="rgb(17,13,19)" stroke-width ="1.428"/></g><circle cx="50.056" cy="71.572" r="0.357" stroke="rgb(22,18,24)" fill="rgb(17,13,19)"/><use xlink:href="#leaf2"
						x="50.056" y="71.572" 
						transform="rotate(-177 50.056 71.572)" 	
						fill="rgb(192,6,60)" /><use xlink:href="#leaf2"
						x="50.056" y="71.572" 
						transform="rotate(37 50.256 72.342)" 	
						fill="rgb(213,6,54)" /><use xlink:href="#leaf4"
						x="50.056" y="71.572" 
						transform="rotate(-145 50.776 72.562)" 	
						fill="rgb(195,6,41)" /><use xlink:href="#leaf3"
						x="50.056" y="71.572" 
						transform="rotate(-82 50.956 71.632)" 	
						fill="rgb(210,8,61)" /><use xlink:href="#leaf1"
						x="50.056" y="71.572" 
						transform="rotate(-69 50.396 72.432)" 	
						fill="rgb(228,32,60)" /><use xlink:href="#leaf5"
						x="50.056" y="71.572" 
						transform="rotate(174 50.976 71.862)" 	
						fill="rgb(208,28,67)" /><use xlink:href="#leaf3"
						x="50.056" y="71.572" 
						transform="rotate(-151 50.266 71.692)" 	
						fill="rgb(203,10,56)" /><use xlink:href="#leaf5"
						x="50.056" y="71.572" 
						transform="rotate(-69 50.986 72.222)" 	
						fill="rgb(212,23,41)" /><use xlink:href="#leaf3"
						x="50.056" y="71.572" 
						transform="rotate(-32 50.576 72.302)" 	
						fill="rgb(214,21,47)" /><use xlink:href="#leaf1"
						x="50.056" y="71.572" 
						transform="rotate(65 50.056 71.572)" 	
						fill="rgb(211,18,45)" /><use xlink:href="#leaf5"
						x="50.056" y="71.572" 
						transform="rotate(86 50.926 71.592)" 	
						fill="rgb(206,28,75)" /><use xlink:href="#leaf1"
						x="50.056" y="71.572" 
						transform="rotate(37 50.056 71.572)" 	
						fill="rgb(209,15,53)" /><use xlink:href="#flower1" id="fleur60"
							x="50.056" y="71.572" 
							transform="rotate(-32 50.056 71.572)" /><use xlink:href="#flower1" id="fleur61"
							x="50.056" y="71.572" 
							transform="rotate(-137 50.896 72.568)" /><use xlink:href="#flower1" id="fleur62"
							x="50.056" y="71.572" 
							transform="rotate(108 50.524 71.704)" /><use xlink:href="#flower1" id="fleur63"
							x="50.056" y="71.572" 
							transform="rotate(67 50.44 72.16)" />
					<g>
					<path d ="M 55,91 
					a 69 621 -8.71 0 1 -2.64,-20.532" fill ="none" stroke ="rgb(15.5,14.5,21.5)" stroke-width ="4.284"/></g><circle cx="52.36" cy="70.468" r="1.071" stroke="rgb(20.5,19.5,26.5)" fill="rgb(15.5,14.5,21.5)"/><use xlink:href="#leaf3"
						x="52.36" y="70.468" 
						transform="rotate(-43 52.82 71.258)" 	
						fill="rgb(209,3,74)" /><use xlink:href="#leaf3"
						x="52.36" y="70.468" 
						transform="rotate(161 53.3 70.648)" 	
						fill="rgb(208,0,69)" /><use xlink:href="#leaf1"
						x="52.36" y="70.468" 
						transform="rotate(90 53.06 70.698)" 	
						fill="rgb(223,5,74)" /><use xlink:href="#leaf1"
						x="52.36" y="70.468" 
						transform="rotate(-102 52.6 71.028)" 	
						fill="rgb(209,21,63)" /><use xlink:href="#leaf1"
						x="52.36" y="70.468" 
						transform="rotate(-39 53.25 71.078)" 	
						fill="rgb(198,34,56)" />
					<g>
					<path d ="M 55,91 
					a 84 420 -18.22 0 1 -5.688,-18.792" fill ="none" stroke ="rgb(16,13,24)" stroke-width ="4.284"/></g><circle cx="49.312" cy="72.208" r="1.071" stroke="rgb(21,18,29)" fill="rgb(16,13,24)"/><use xlink:href="#leaf3"
						x="49.312" y="72.208" 
						transform="rotate(-31 49.312 72.208)" 	
						fill="rgb(198,0,65)" /><use xlink:href="#leaf2"
						x="49.312" y="72.208" 
						transform="rotate(-120 49.312 72.208)" 	
						fill="rgb(223,35,75)" /><use xlink:href="#leaf3"
						x="49.312" y="72.208" 
						transform="rotate(178 49.642 72.608)" 	
						fill="rgb(212,10,54)" /><use xlink:href="#leaf1"
						x="49.312" y="72.208" 
						transform="rotate(69 50.022 72.298)" 	
						fill="rgb(219,9,60)" /><use xlink:href="#leaf2"
						x="49.312" y="72.208" 
						transform="rotate(-82 49.312 72.208)" 	
						fill="rgb(226,0,68)" /><use xlink:href="#leaf2"
						x="49.312" y="72.208" 
						transform="rotate(-70 49.312 72.208)" 	
						fill="rgb(196,0,61)" /><use xlink:href="#leaf2"
						x="49.312" y="72.208" 
						transform="rotate(37 49.552 72.968)" 	
						fill="rgb(223,20,47)" /><use xlink:href="#leaf3"
						x="49.312" y="72.208" 
						transform="rotate(115 49.312 72.208)" 	
						fill="rgb(215,18,42)" /><use xlink:href="#leaf3"
						x="49.312" y="72.208" 
						transform="rotate(-39 50.282 72.208)" 	
						fill="rgb(190,34,67)" />
					<g>
					<path d ="M 49.312,72.208 
					a 72 216 7.29 0 1 12.18,2.256" fill ="none" stroke ="rgb(16,15,26)" stroke-width ="2.142"/></g><circle cx="61.492" cy="74.464" r="0.5355" stroke="rgb(21,20,31)" fill="rgb(16,15,26)"/><use xlink:href="#leaf1"
						x="61.492" y="74.464" 
						transform="rotate(130 62.382 74.874)" 	
						fill="rgb(200,31,48)" /><use xlink:href="#leaf3"
						x="61.492" y="74.464" 
						transform="rotate(63 62.482 75.164)" 	
						fill="rgb(205,0,58)" /><use xlink:href="#leaf2"
						x="61.492" y="74.464" 
						transform="rotate(151 61.842 74.674)" 	
						fill="rgb(214,0,79)" /><use xlink:href="#leaf3"
						x="61.492" y="74.464" 
						transform="rotate(-141 61.622 75.154)" 	
						fill="rgb(227,32,79)" /><use xlink:href="#leaf3"
						x="61.492" y="74.464" 
						transform="rotate(-138 62.452 75.234)" 	
						fill="rgb(214,13,41)" /><use xlink:href="#flower3" id="fleur90"
							x="61.492" y="74.464" 
							transform="rotate(132 61.492 74.464)" /><use xlink:href="#flower3" id="fleur91"
							x="61.492" y="74.464" 
							transform="rotate(162 62.668 75.136)" />
					<g>
					<path d ="M 49.312,72.208 
					a 86 258 -19.76 0 1 -1.56,3.768" fill ="none" stroke ="rgb(19,16,26)" stroke-width ="2.142"/></g><circle cx="47.752" cy="75.976" r="0.5355" stroke="rgb(24,21,31)" fill="rgb(19,16,26)"/><use xlink:href="#leaf2"
						x="47.752" y="75.976" 
						transform="rotate(-70 47.752 75.976)" 	
						fill="rgb(220,13,60)" /><use xlink:href="#leaf3"
						x="47.752" y="75.976" 
						transform="rotate(-142 47.752 75.976)" 	
						fill="rgb(197,25,49)" /><use xlink:href="#leaf1"
						x="47.752" y="75.976" 
						transform="rotate(136 48.062 76.616)" 	
						fill="rgb(218,4,73)" /><use xlink:href="#leaf1"
						x="47.752" y="75.976" 
						transform="rotate(171 47.752 75.976)" 	
						fill="rgb(218,0,44)" /><use xlink:href="#leaf4"
						x="47.752" y="75.976" 
						transform="rotate(169 47.852 76.686)" 	
						fill="rgb(189,24,49)" /><use xlink:href="#leaf2"
						x="47.752" y="75.976" 
						transform="rotate(128 47.752 75.976)" 	
						fill="rgb(213,34,62)" /><use xlink:href="#leaf2"
						x="47.752" y="75.976" 
						transform="rotate(138 47.752 75.976)" 	
						fill="rgb(219,18,62)" /><use xlink:href="#leaf2"
						x="47.752" y="75.976" 
						transform="rotate(38 48.732 76.806)" 	
						fill="rgb(226,13,50)" /><use xlink:href="#leaf1"
						x="47.752" y="75.976" 
						transform="rotate(29 48.242 76.206)" 	
						fill="rgb(226,1,44)" /><use xlink:href="#flower1" id="fleur100"
							x="47.752" y="75.976" 
							transform="rotate(18 47.992 76.324)" /><use xlink:href="#flower1" id="fleur101"
							x="47.752" y="75.976" 
							transform="rotate(55 48.664 77.116)" />
					<g>
					<path d ="M 47.752,75.976 
					a 64 512 -8.15 0 1 3.852,-7.776" fill ="none" stroke ="rgb(21.5,16.5,29.5)" stroke-width ="1.428"/></g><circle cx="51.604" cy="68.2" r="0.357" stroke="rgb(26.5,21.5,34.5)" fill="rgb(21.5,16.5,29.5)"/><use xlink:href="#leaf5"
						x="51.604" y="68.2" 
						transform="rotate(-169 51.814 68.82)" 	
						fill="rgb(207,15,52)" /><use xlink:href="#leaf2"
						x="51.604" y="68.2" 
						transform="rotate(74 52.414 69.17)" 	
						fill="rgb(209,5,41)" /><use xlink:href="#leaf1"
						x="51.604" y="68.2" 
						transform="rotate(-127 51.604 68.2)" 	
						fill="rgb(204,31,50)" /><use xlink:href="#leaf1"
						x="51.604" y="68.2" 
						transform="rotate(-161 52.224 68.76)" 	
						fill="rgb(189,28,79)" /><use xlink:href="#leaf1"
						x="51.604" y="68.2" 
						transform="rotate(96 51.884 68.35)" 	
						fill="rgb(208,23,70)" /><use xlink:href="#leaf5"
						x="51.604" y="68.2" 
						transform="rotate(160 51.774 68.86)" 	
						fill="rgb(213,15,50)" /><use xlink:href="#leaf1"
						x="51.604" y="68.2" 
						transform="rotate(145 51.604 68.2)" 	
						fill="rgb(196,7,70)" /><use xlink:href="#leaf4"
						x="51.604" y="68.2" 
						transform="rotate(169 52.354 68.21)" 	
						fill="rgb(222,12,43)" /><use xlink:href="#leaf1"
						x="51.604" y="68.2" 
						transform="rotate(-88 51.604 68.2)" 	
						fill="rgb(226,16,77)" /><use xlink:href="#leaf2"
						x="51.604" y="68.2" 
						transform="rotate(146 52.064 69.16)" 	
						fill="rgb(220,32,49)" /><use xlink:href="#leaf2"
						x="51.604" y="68.2" 
						transform="rotate(0 51.604 68.2)" 	
						fill="rgb(209,0,68)" /><use xlink:href="#leaf4"
						x="51.604" y="68.2" 
						transform="rotate(124 51.624 68.36)" 	
						fill="rgb(216,17,61)" />
					<g>
					<path d ="M 47.752,75.976 
					a 66 132 -5.39 0 1 0.996,-8.832" fill ="none" stroke ="rgb(22,20,29)" stroke-width ="1.428"/></g><circle cx="48.748" cy="67.144" r="0.357" stroke="rgb(27,25,34)" fill="rgb(22,20,29)"/><use xlink:href="#leaf2"
						x="48.748" y="67.144" 
						transform="rotate(-89 48.748 67.144)" 	
						fill="rgb(188,26,73)" /><use xlink:href="#leaf5"
						x="48.748" y="67.144" 
						transform="rotate(53 48.748 67.144)" 	
						fill="rgb(219,12,63)" /><use xlink:href="#leaf5"
						x="48.748" y="67.144" 
						transform="rotate(99 48.748 67.144)" 	
						fill="rgb(224,11,76)" /><use xlink:href="#leaf2"
						x="48.748" y="67.144" 
						transform="rotate(-120 49.058 67.624)" 	
						fill="rgb(215,12,66)" /><use xlink:href="#leaf5"
						x="48.748" y="67.144" 
						transform="rotate(127 49.348 67.224)" 	
						fill="rgb(205,10,43)" /><use xlink:href="#leaf2"
						x="48.748" y="67.144" 
						transform="rotate(69 49.468 67.244)" 	
						fill="rgb(217,20,49)" /><use xlink:href="#leaf1"
						x="48.748" y="67.144" 
						transform="rotate(-162 48.748 67.144)" 	
						fill="rgb(228,22,42)" /><use xlink:href="#leaf4"
						x="48.748" y="67.144" 
						transform="rotate(16 48.748 67.144)" 	
						fill="rgb(211,13,72)" /><use xlink:href="#leaf4"
						x="48.748" y="67.144" 
						transform="rotate(65 48.748 67.144)" 	
						fill="rgb(192,18,60)" /><use xlink:href="#flower4" id="fleur120"
							x="48.748" y="67.144" 
							transform="rotate(-36 49.636 68.08)" /><use xlink:href="#flower4" id="fleur121"
							x="48.748" y="67.144" 
							transform="rotate(-142 49.168 67.696)" /><use xlink:href="#flower4" id="fleur122"
							x="48.748" y="67.144" 
							transform="rotate(136 48.748 67.144)" /><use xlink:href="#flower4" id="fleur123"
							x="48.748" y="67.144" 
							transform="rotate(103 49 67.54)" /><use xlink:href="#flower4" id="fleur124"
							x="48.748" y="67.144" 
							transform="rotate(21 48.748 67.144)" />
					<g>
					<path d ="M 48.748,67.144 
					a 57 456 -12.25 0 0 1.452,2.76" fill ="none" stroke ="rgb(26,21,29)" stroke-width ="1.071"/></g><circle cx="50.2" cy="69.904" r="0.26775" stroke="rgb(31,26,34)" fill="rgb(26,21,29)"/><use xlink:href="#leaf5"
						x="50.2" y="69.904" 
						transform="rotate(86 50.37 70.664)" 	
						fill="rgb(188,4,53)" /><use xlink:href="#leaf2"
						x="50.2" y="69.904" 
						transform="rotate(9 50.2 69.904)" 	
						fill="rgb(210,9,65)" /><use xlink:href="#leaf2"
						x="50.2" y="69.904" 
						transform="rotate(152 50.2 69.904)" 	
						fill="rgb(203,22,65)" /><use xlink:href="#leaf2"
						x="50.2" y="69.904" 
						transform="rotate(-159 50.43 70.444)" 	
						fill="rgb(196,26,79)" /><use xlink:href="#leaf2"
						x="50.2" y="69.904" 
						transform="rotate(-70 50.2 69.904)" 	
						fill="rgb(204,2,49)" /><use xlink:href="#leaf6"
						x="50.2" y="69.904" 
						transform="rotate(71 51.06 69.964)" 	
						fill="rgb(208,28,43)" /><use xlink:href="#leaf4"
						x="50.2" y="69.904" 
						transform="rotate(-68 50.2 69.904)" 	
						fill="rgb(204,5,65)" /><use xlink:href="#leaf5"
						x="50.2" y="69.904" 
						transform="rotate(142 50.2 69.904)" 	
						fill="rgb(222,5,44)" /><use xlink:href="#flower5" id="fleur130"
							x="50.2" y="69.904" 
							transform="rotate(38 50.584 70.996)" /><use xlink:href="#flower5" id="fleur131"
							x="50.2" y="69.904" 
							transform="rotate(76 50.2 69.904)" /><use xlink:href="#flower5" id="fleur132"
							x="50.2" y="69.904" 
							transform="rotate(-165 50.632 70.024)" /><use xlink:href="#flower5" id="fleur133"
							x="50.2" y="69.904" 
							transform="rotate(-37 50.584 70.924)" />
					<g>
					<path d ="M 49.312,72.208 
					a 56 504 -16.32 0 1 -4.596,-7.764" fill ="none" stroke ="rgb(26,23,30)" stroke-width ="2.142"/></g><circle cx="44.716" cy="64.444" r="0.5355" stroke="rgb(31,28,35)" fill="rgb(26,23,30)"/><use xlink:href="#leaf2"
						x="44.716" y="64.444" 
						transform="rotate(126 45.206 65.254)" 	
						fill="rgb(201,4,80)" /><use xlink:href="#leaf3"
						x="44.716" y="64.444" 
						transform="rotate(-124 45.496 65.134)" 	
						fill="rgb(214,0,63)" /><use xlink:href="#leaf3"
						x="44.716" y="64.444" 
						transform="rotate(-45 45.426 65.214)" 	
						fill="rgb(210,30,45)" /><use xlink:href="#leaf4"
						x="44.716" y="64.444" 
						transform="rotate(133 44.846 64.754)" 	
						fill="rgb(198,13,57)" /><use xlink:href="#leaf1"
						x="44.716" y="64.444" 
						transform="rotate(98 44.716 64.444)" 	
						fill="rgb(219,14,52)" /><use xlink:href="#leaf3"
						x="44.716" y="64.444" 
						transform="rotate(-52 44.856 64.504)" 	
						fill="rgb(197,4,80)" /><use xlink:href="#leaf3"
						x="44.716" y="64.444" 
						transform="rotate(140 45.666 65.384)" 	
						fill="rgb(217,0,65)" /><use xlink:href="#leaf4"
						x="44.716" y="64.444" 
						transform="rotate(-176 44.716 64.444)" 	
						fill="rgb(212,18,46)" /><use xlink:href="#leaf1"
						x="44.716" y="64.444" 
						transform="rotate(-173 45.396 64.664)" 	
						fill="rgb(221,16,52)" /><use xlink:href="#leaf4"
						x="44.716" y="64.444" 
						transform="rotate(-17 44.986 65.414)" 	
						fill="rgb(201,28,56)" /><use xlink:href="#leaf1"
						x="44.716" y="64.444" 
						transform="rotate(-129 44.716 64.444)" 	
						fill="rgb(224,0,72)" /><use xlink:href="#flower1" id="fleur140"
							x="44.716" y="64.444" 
							transform="rotate(161 45.244 65.308)" /><use xlink:href="#flower1" id="fleur141"
							x="44.716" y="64.444" 
							transform="rotate(-110 45.1 65.524)" /><use xlink:href="#flower1" id="fleur142"
							x="44.716" y="64.444" 
							transform="rotate(-34 45.304 64.828)" /><use xlink:href="#flower1" id="fleur143"
							x="44.716" y="64.444" 
							transform="rotate(30 45.256 64.768)" />
					<g>
					<path d ="M 68.848,62.764 
					a 77 154 1.35 0 1 -8.868,-2.1" fill ="none" stroke ="rgb(25.5,25.5,33.5)" stroke-width ="1.428"/></g><circle cx="59.98" cy="60.664" r="0.357" stroke="rgb(30.5,30.5,38.5)" fill="rgb(25.5,25.5,33.5)"/><use xlink:href="#leaf4"
						x="59.98" y="60.664" 
						transform="rotate(146 60.46 61.434)" 	
						fill="rgb(192,21,58)" /><use xlink:href="#leaf1"
						x="59.98" y="60.664" 
						transform="rotate(166 59.98 60.664)" 	
						fill="rgb(209,29,76)" /><use xlink:href="#leaf5"
						x="59.98" y="60.664" 
						transform="rotate(-156 59.98 60.664)" 	
						fill="rgb(208,18,78)" /><use xlink:href="#leaf1"
						x="59.98" y="60.664" 
						transform="rotate(-1 59.98 60.664)" 	
						fill="rgb(191,0,64)" /><use xlink:href="#leaf1"
						x="59.98" y="60.664" 
						transform="rotate(-57 60.02 60.824)" 	
						fill="rgb(204,1,40)" /><use xlink:href="#leaf3"
						x="59.98" y="60.664" 
						transform="rotate(-24 60.76 61.284)" 	
						fill="rgb(206,0,71)" /><use xlink:href="#leaf4"
						x="59.98" y="60.664" 
						transform="rotate(-30 59.98 60.664)" 	
						fill="rgb(222,0,60)" /><use xlink:href="#leaf1"
						x="59.98" y="60.664" 
						transform="rotate(65 59.98 60.664)" 	
						fill="rgb(223,4,47)" /><use xlink:href="#leaf5"
						x="59.98" y="60.664" 
						transform="rotate(147 60 61.044)" 	
						fill="rgb(220,2,44)" /><use xlink:href="#flower5" id="fleur150"
							x="59.98" y="60.664" 
							transform="rotate(-96 60.604 60.772)" /><use xlink:href="#flower5" id="fleur151"
							x="59.98" y="60.664" 
							transform="rotate(92 60.544 61.576)" /></g>
				</svg>