<svg class="relie" xmlns="http://www.w3.org/2000/svg" viewBox="0 0 100 100" preserveAspectRatio="xMidYMid meet" x="0" y="0" overflow="visible" xmlns:xlink="http://www.w3.org/1999/xlink">

		<defs>  <g id="leaf1" transform="skewX(-6) skewY(-6)"><path d="M 0,0 
					q 0.3775 0.26125 0.455,0.8125 q 0.3775 0.38125 -0.12625,0.8125 q 0.3775 0.1325 -0.0625,0.8125 q 0.3775 0.38375 -0.26625,1 
					M 0,0 
					q -0.3775 0.26125 -0.455,0.8125 q -0.3775 0.38125 0.12625,0.8125 q -0.3775 0.1325 0.0625,0.8125 q -0.3775 0.38375 0.26625,1 " 
					stroke-width ="0.2" /></g>  <g id="leaf2" transform="skewX(12) skewY(12)"><path d="M 0,0 
					q 0.755 0.5225 0.71,1.625 q 0.755 0.7625 -0.2525,1.625 q 0.755 0.265 -0.125,1.625 q 0.755 0.7675 -0.3325,1.625 
					M 0,0 
					q -0.755 0.5225 -0.71,1.625 q -0.755 0.7625 0.2525,1.625 q -0.755 0.265 0.125,1.625 q -0.755 0.7675 0.3325,1.625 " 
					stroke-width ="0.2" /></g>  <g id="leaf3" transform="skewX(-8) skewY(-8)"><path d="M 0,0 
					q 1.1325 0.78375 0.965,2.4375 q 1.1325 1.14375 -0.37875,2.4375 q 1.1325 0.3975 -0.1875,2.4375 q 1.1325 1.15125 -0.39875,2.4375 
					M 0,0 
					q -1.1325 0.78375 -0.965,2.4375 q -1.1325 1.14375 0.37875,2.4375 q -1.1325 0.3975 0.1875,2.4375 q -1.1325 1.15125 0.39875,2.4375 " 
					stroke-width ="0.2" /></g>  <g id="leaf4" transform="skewX(-10) skewY(-10)"><path d="M 0,0 
					q 1.51 1.045 1.22,3.25 q 1.51 1.525 -0.505,3.25 q 1.51 0.53 -0.25,3.25 q 1.51 1.535 -0.465,3.25 
					M 0,0 
					q -1.51 1.045 -1.22,3.25 q -1.51 1.525 0.505,3.25 q -1.51 0.53 0.25,3.25 q -1.51 1.535 0.465,3.25 " 
					stroke-width ="0.2" /></g>  <g id="leaf5" transform="skewX(-6) skewY(-6)"><path d="M 0,0 
					q 1.8875 1.30625 1.475,4.0625 q 1.8875 1.90625 -0.63125,4.0625 q 1.8875 0.6625 -0.3125,4.0625 q 1.8875 1.91875 -0.53125,4.0625 
					M 0,0 
					q -1.8875 1.30625 -1.475,4.0625 q -1.8875 1.90625 0.63125,4.0625 q -1.8875 0.6625 0.3125,4.0625 q -1.8875 1.91875 0.53125,4.0625 " 
					stroke-width ="0.2" /></g>  <g id="leaf6" transform="skewX(12) skewY(12)"><path d="M 0,0 
					q 2.265 1.5675 1.73,4.875 q 2.265 2.2875 -0.7575,4.875 q 2.265 0.795 -0.375,4.875 q 3.015 2.3025 -0.5975,4.875 
					M 0,0 
					q -2.265 1.5675 -1.73,4.875 q -2.265 2.2875 0.7575,4.875 q -2.265 0.795 0.375,4.875 q -3.015 2.3025 0.5975,4.875 " 
					stroke-width ="0.2" /></g>  <g id="leaf7" transform="skewX(19) skewY(19)"><path d="M 0,0 
					q 2.6425 1.82875 1.985,5.6875 q 2.6425 2.66875 -0.88375,5.6875 q 2.6425 0.9275 -0.4375,5.6875 q 3.5175 2.68625 -0.66375,5.6875 
					M 0,0 
					q -2.6425 1.82875 -1.985,5.6875 q -2.6425 2.66875 0.88375,5.6875 q -2.6425 0.9275 0.4375,5.6875 q -3.5175 2.68625 0.66375,5.6875 " 
					stroke-width ="0.2" /></g>  <g id="leaf8" transform="skewX(2) skewY(2)"><path d="M 0,0 
					q 3.02 2.09 2.24,6.5 q 3.02 3.05 -1.01,6.5 q 3.02 1.06 -0.5,6.5 q 4.02 3.07 -0.73,6.5 
					M 0,0 
					q -3.02 2.09 -2.24,6.5 q -3.02 3.05 1.01,6.5 q -3.02 1.06 0.5,6.5 q -4.02 3.07 0.73,6.5 " 
					stroke-width ="0.2" /></g><g id="flower1"><path d="M 0,0.25 
						q 0.2025 0.2025 0.18375,0.083333333333333 q 0.2025 0.2025 -0.0725,0.083333333333333 q 0.3275 0.2025 -0.11125,1 
						M 0,0.25 
						q -0.2025 0.2025 -0.18375,0.083333333333333 q -0.2025 0.2025 0.0725,0.083333333333333 q -0.3275 0.2025 0.11125,1 " 
						transform="rotate(0 0,0.25 )"
						stroke-width ="0.1"
						fill="rgb(98,139,172)"
						/><path d="M 0,0.25 
						q 0.2025 0.2025 0.18375,0.083333333333333 q 0.2025 0.2025 -0.0725,0.083333333333333 q 0.3275 0.2025 -0.11125,1 
						M 0,0.25 
						q -0.2025 0.2025 -0.18375,0.083333333333333 q -0.2025 0.2025 0.0725,0.083333333333333 q -0.3275 0.2025 0.11125,1 " 
						transform="rotate(38.571428571429 0,0.25 )"
						stroke-width ="0.1"
						fill="rgb(102.5,147.5,165.5)"
						/><path d="M 0,0.25 
						q 0.2025 0.2025 0.18375,0.083333333333333 q 0.2025 0.2025 -0.0725,0.083333333333333 q 0.3275 0.2025 -0.11125,1 
						M 0,0.25 
						q -0.2025 0.2025 -0.18375,0.083333333333333 q -0.2025 0.2025 0.0725,0.083333333333333 q -0.3275 0.2025 0.11125,1 " 
						transform="rotate(77.142857142857 0,0.25 )"
						stroke-width ="0.1"
						fill="rgb(97,145,150)"
						/><path d="M 0,0.25 
						q 0.2025 0.2025 0.18375,0.083333333333333 q 0.2025 0.2025 -0.0725,0.083333333333333 q 0.3275 0.2025 -0.11125,1 
						M 0,0.25 
						q -0.2025 0.2025 -0.18375,0.083333333333333 q -0.2025 0.2025 0.0725,0.083333333333333 q -0.3275 0.2025 0.11125,1 " 
						transform="rotate(115.71428571429 0,0.25 )"
						stroke-width ="0.1"
						fill="rgb(85.5,140.5,147.5)"
						/></g><g id="flower2"><path d="M 0,0.5 
						q 0.405 0.405 0.3675,0.16666666666667 q 0.405 0.405 -0.145,0.16666666666667 q 0.655 0.405 -0.2225,1 
						M 0,0.5 
						q -0.405 0.405 -0.3675,0.16666666666667 q -0.405 0.405 0.145,0.16666666666667 q -0.655 0.405 0.2225,1 " 
						transform="rotate(0 0,0.5 )"
						stroke-width ="0.1"
						fill="rgb(104,153,172)"
						/><circle cx="0" cy="0.5" r="0.015" fill="rgb(216,124,227)"/><circle cx="-0.08" cy="0.56" r="0.01" fill="rgb(217.5,142.5,242.5)"/><path d="M 0,0.5 
						q 0.405 0.405 0.3675,0.16666666666667 q 0.405 0.405 -0.145,0.16666666666667 q 0.655 0.405 -0.2225,1 
						M 0,0.5 
						q -0.405 0.405 -0.3675,0.16666666666667 q -0.405 0.405 0.145,0.16666666666667 q -0.655 0.405 0.2225,1 " 
						transform="rotate(77.142857142857 0,0.5 )"
						stroke-width ="0.1"
						fill="rgb(101.5,148.5,151.5)"
						/><circle cx="0" cy="0.5" r="0.015" fill="rgb(216,124,227)"/><circle cx="-0.03" cy="0.43" r="0.01" fill="rgb(217.5,142.5,242.5)"/><path d="M 0,0.5 
						q 0.405 0.405 0.3675,0.16666666666667 q 0.405 0.405 -0.145,0.16666666666667 q 0.655 0.405 -0.2225,1 
						M 0,0.5 
						q -0.405 0.405 -0.3675,0.16666666666667 q -0.405 0.405 0.145,0.16666666666667 q -0.655 0.405 0.2225,1 " 
						transform="rotate(154.28571428571 0,0.5 )"
						stroke-width ="0.1"
						fill="rgb(85,137,158)"
						/><circle cx="0" cy="0.5" r="0.015" fill="rgb(216,124,227)"/><circle cx="0.06" cy="0.41" r="0.01" fill="rgb(217.5,142.5,242.5)"/><path d="M 0,0.5 
						q 0.405 0.405 0.3675,0.16666666666667 q 0.405 0.405 -0.145,0.16666666666667 q 0.655 0.405 -0.2225,1 
						M 0,0.5 
						q -0.405 0.405 -0.3675,0.16666666666667 q -0.405 0.405 0.145,0.16666666666667 q -0.655 0.405 0.2225,1 " 
						transform="rotate(231.42857142857 0,0.5 )"
						stroke-width ="0.1"
						fill="rgb(82.5,135.5,155.5)"
						/><circle cx="0" cy="0.5" r="0.015" fill="rgb(216,124,227)"/><circle cx="-0.05" cy="0.5" r="0.01" fill="rgb(217.5,142.5,242.5)"/><path d="M 0,0.5 
						q 0.405 0.405 0.3675,0.16666666666667 q 0.405 0.405 -0.145,0.16666666666667 q 0.655 0.405 -0.2225,1 
						M 0,0.5 
						q -0.405 0.405 -0.3675,0.16666666666667 q -0.405 0.405 0.145,0.16666666666667 q -0.655 0.405 0.2225,1 " 
						transform="rotate(308.57142857143 0,0.5 )"
						stroke-width ="0.1"
						fill="rgb(90,132,153)"
						/><circle cx="0" cy="0.5" r="0.015" fill="rgb(216,124,227)"/><circle cx="0.01" cy="0.45" r="0.01" fill="rgb(217.5,142.5,242.5)"/><path d="M 0,0.5 
						q 0.405 0.405 0.3675,0.16666666666667 q 0.405 0.405 -0.145,0.16666666666667 q 0.655 0.405 -0.2225,1 
						M 0,0.5 
						q -0.405 0.405 -0.3675,0.16666666666667 q -0.405 0.405 0.145,0.16666666666667 q -0.655 0.405 0.2225,1 " 
						transform="rotate(385.71428571429 0,0.5 )"
						stroke-width ="0.1"
						fill="rgb(83.5,139.5,154.5)"
						/><circle cx="0" cy="0.5" r="0.015" fill="rgb(216,124,227)"/><circle cx="0.08" cy="0.48" r="0.01" fill="rgb(217.5,142.5,242.5)"/><path d="M 0,0.5 
						q 0.405 0.405 0.3675,0.16666666666667 q 0.405 0.405 -0.145,0.16666666666667 q 0.655 0.405 -0.2225,1 
						M 0,0.5 
						q -0.405 0.405 -0.3675,0.16666666666667 q -0.405 0.405 0.145,0.16666666666667 q -0.655 0.405 0.2225,1 " 
						transform="rotate(462.85714285714 0,0.5 )"
						stroke-width ="0.1"
						fill="rgb(82,122,143)"
						/><circle cx="0" cy="0.5" r="0.015" fill="rgb(216,124,227)"/><circle cx="0.07" cy="0.52" r="0.01" fill="rgb(217.5,142.5,242.5)"/><path d="M 0,0.5 
						q 0.405 0.405 0.3675,0.16666666666667 q 0.405 0.405 -0.145,0.16666666666667 q 0.655 0.405 -0.2225,1 
						M 0,0.5 
						q -0.405 0.405 -0.3675,0.16666666666667 q -0.405 0.405 0.145,0.16666666666667 q -0.655 0.405 0.2225,1 " 
						transform="rotate(540 0,0.5 )"
						stroke-width ="0.1"
						fill="rgb(76.5,121.5,155.5)"
						/><circle cx="0" cy="0.5" r="0.015" fill="rgb(216,124,227)"/><circle cx="-0.04" cy="0.47" r="0.01" fill="rgb(217.5,142.5,242.5)"/><path d="M 0,0.5 
						q 0.405 0.405 0.3675,0.16666666666667 q 0.405 0.405 -0.145,0.16666666666667 q 0.655 0.405 -0.2225,1 
						M 0,0.5 
						q -0.405 0.405 -0.3675,0.16666666666667 q -0.405 0.405 0.145,0.16666666666667 q -0.655 0.405 0.2225,1 " 
						transform="rotate(617.14285714286 0,0.5 )"
						stroke-width ="0.1"
						fill="rgb(68,130,141)"
						/><circle cx="0" cy="0.5" r="0.015" fill="rgb(216,124,227)"/><circle cx="0.06" cy="0.56" r="0.01" fill="rgb(217.5,142.5,242.5)"/><path d="M 0,0.5 
						q 0.405 0.405 0.3675,0.16666666666667 q 0.405 0.405 -0.145,0.16666666666667 q 0.655 0.405 -0.2225,1 
						M 0,0.5 
						q -0.405 0.405 -0.3675,0.16666666666667 q -0.405 0.405 0.145,0.16666666666667 q -0.655 0.405 0.2225,1 " 
						transform="rotate(694.28571428571 0,0.5 )"
						stroke-width ="0.1"
						fill="rgb(68.5,127.5,148.5)"
						/><circle cx="0" cy="0.5" r="0.015" fill="rgb(216,124,227)"/><circle cx="0.05" cy="0.45" r="0.01" fill="rgb(217.5,142.5,242.5)"/><path d="M 0,0.5 
						q 0.405 0.405 0.3675,0.16666666666667 q 0.405 0.405 -0.145,0.16666666666667 q 0.655 0.405 -0.2225,1 
						M 0,0.5 
						q -0.405 0.405 -0.3675,0.16666666666667 q -0.405 0.405 0.145,0.16666666666667 q -0.655 0.405 0.2225,1 " 
						transform="rotate(771.42857142857 0,0.5 )"
						stroke-width ="0.1"
						fill="rgb(78,124,130)"
						/><circle cx="0" cy="0.5" r="0.015" fill="rgb(216,124,227)"/><circle cx="-0.07" cy="0.54" r="0.01" fill="rgb(217.5,142.5,242.5)"/><path d="M 0,0.5 
						q 0.405 0.405 0.3675,0.16666666666667 q 0.405 0.405 -0.145,0.16666666666667 q 0.655 0.405 -0.2225,1 
						M 0,0.5 
						q -0.405 0.405 -0.3675,0.16666666666667 q -0.405 0.405 0.145,0.16666666666667 q -0.655 0.405 0.2225,1 " 
						transform="rotate(848.57142857143 0,0.5 )"
						stroke-width ="0.1"
						fill="rgb(79.5,113.5,143.5)"
						/><circle cx="0" cy="0.5" r="0.015" fill="rgb(216,124,227)"/><circle cx="-0.06" cy="0.56" r="0.01" fill="rgb(217.5,142.5,242.5)"/><path d="M 0,0.5 
						q 0.405 0.405 0.3675,0.16666666666667 q 0.405 0.405 -0.145,0.16666666666667 q 0.655 0.405 -0.2225,1 
						M 0,0.5 
						q -0.405 0.405 -0.3675,0.16666666666667 q -0.405 0.405 0.145,0.16666666666667 q -0.655 0.405 0.2225,1 " 
						transform="rotate(925.71428571429 0,0.5 )"
						stroke-width ="0.1"
						fill="rgb(69,105,139)"
						/><circle cx="0" cy="0.5" r="0.015" fill="rgb(216,124,227)"/><circle cx="-0.06" cy="0.57" r="0.01" fill="rgb(217.5,142.5,242.5)"/><path d="M 0,0.5 
						q 0.405 0.405 0.3675,0.16666666666667 q 0.405 0.405 -0.145,0.16666666666667 q 0.655 0.405 -0.2225,1 
						M 0,0.5 
						q -0.405 0.405 -0.3675,0.16666666666667 q -0.405 0.405 0.145,0.16666666666667 q -0.655 0.405 0.2225,1 " 
						transform="rotate(1002.8571428571 0,0.5 )"
						stroke-width ="0.1"
						fill="rgb(59.5,110.5,126.5)"
						/><circle cx="0" cy="0.5" r="0.015" fill="rgb(216,124,227)"/><circle cx="0.08" cy="0.59" r="0.01" fill="rgb(217.5,142.5,242.5)"/><path d="M 0,0.5 
						q 0.405 0.405 0.3675,0.16666666666667 q 0.405 0.405 -0.145,0.16666666666667 q 0.655 0.405 -0.2225,1 
						M 0,0.5 
						q -0.405 0.405 -0.3675,0.16666666666667 q -0.405 0.405 0.145,0.16666666666667 q -0.655 0.405 0.2225,1 " 
						transform="rotate(1080 0,0.5 )"
						stroke-width ="0.1"
						fill="rgb(68,109,134)"
						/><circle cx="0" cy="0.5" r="0.015" fill="rgb(216,124,227)"/><circle cx="-0.04" cy="0.45" r="0.01" fill="rgb(217.5,142.5,242.5)"/></g><g id="flower3"><path d="M 0,0.75 
						q 0.6075 0.6075 0.55125,0.25 q 0.6075 0.6075 -0.2175,0.25 q 0.9825 0.6075 -0.33375,1 
						M 0,0.75 
						q -0.6075 0.6075 -0.55125,0.25 q -0.6075 0.6075 0.2175,0.25 q -0.9825 0.6075 0.33375,1 " 
						transform="rotate(0 0,0.75 )"
						stroke-width ="0.1"
						fill="rgb(94,153,165)"
						/><path d="M 0,0.75 
						q 0.6075 0.6075 0.55125,0.25 q 0.6075 0.6075 -0.2175,0.25 q 0.9825 0.6075 -0.33375,1 
						M 0,0.75 
						q -0.6075 0.6075 -0.55125,0.25 q -0.6075 0.6075 0.2175,0.25 q -0.9825 0.6075 0.33375,1 " 
						transform="rotate(38.571428571429 0,0.75 )"
						stroke-width ="0.1"
						fill="rgb(100.5,134.5,162.5)"
						/><path d="M 0,0.75 
						q 0.6075 0.6075 0.55125,0.25 q 0.6075 0.6075 -0.2175,0.25 q 0.9825 0.6075 -0.33375,1 
						M 0,0.75 
						q -0.6075 0.6075 -0.55125,0.25 q -0.6075 0.6075 0.2175,0.25 q -0.9825 0.6075 0.33375,1 " 
						transform="rotate(77.142857142857 0,0.75 )"
						stroke-width ="0.1"
						fill="rgb(102,144,165)"
						/><path d="M 0,0.75 
						q 0.6075 0.6075 0.55125,0.25 q 0.6075 0.6075 -0.2175,0.25 q 0.9825 0.6075 -0.33375,1 
						M 0,0.75 
						q -0.6075 0.6075 -0.55125,0.25 q -0.6075 0.6075 0.2175,0.25 q -0.9825 0.6075 0.33375,1 " 
						transform="rotate(115.71428571429 0,0.75 )"
						stroke-width ="0.1"
						fill="rgb(89.5,126.5,145.5)"
						/></g><g id="flower4"><path d="M 0,1 
						q 0.81 0.81 0.735,0.33333333333333 q 0.81 0.81 -0.29,0.33333333333333 q 1.31 0.81 -0.445,1 
						M 0,1 
						q -0.81 0.81 -0.735,0.33333333333333 q -0.81 0.81 0.29,0.33333333333333 q -1.31 0.81 0.445,1 " 
						transform="rotate(0 0,1 )"
						stroke-width ="0.1"
						fill="rgb(99,143,160)"
						/><path d="M 0,1 
						q 0.81 0.81 0.735,0.33333333333333 q 0.81 0.81 -0.29,0.33333333333333 q 1.31 0.81 -0.445,1 
						M 0,1 
						q -0.81 0.81 -0.735,0.33333333333333 q -0.81 0.81 0.29,0.33333333333333 q -1.31 0.81 0.445,1 " 
						transform="rotate(38.571428571429 0,1 )"
						stroke-width ="0.1"
						fill="rgb(90.5,149.5,157.5)"
						/><path d="M 0,1 
						q 0.81 0.81 0.735,0.33333333333333 q 0.81 0.81 -0.29,0.33333333333333 q 1.31 0.81 -0.445,1 
						M 0,1 
						q -0.81 0.81 -0.735,0.33333333333333 q -0.81 0.81 0.29,0.33333333333333 q -1.31 0.81 0.445,1 " 
						transform="rotate(77.142857142857 0,1 )"
						stroke-width ="0.1"
						fill="rgb(98,141,166)"
						/><path d="M 0,1 
						q 0.81 0.81 0.735,0.33333333333333 q 0.81 0.81 -0.29,0.33333333333333 q 1.31 0.81 -0.445,1 
						M 0,1 
						q -0.81 0.81 -0.735,0.33333333333333 q -0.81 0.81 0.29,0.33333333333333 q -1.31 0.81 0.445,1 " 
						transform="rotate(115.71428571429 0,1 )"
						stroke-width ="0.1"
						fill="rgb(87.5,145.5,153.5)"
						/></g><g id="flower5"><path d="M 0,1.25 
						q 1.0125 1.0125 0.91875,0.41666666666667 q 1.0125 1.0125 -0.3625,0.41666666666667 q 1.6375 1.0125 -0.55625,1 
						M 0,1.25 
						q -1.0125 1.0125 -0.91875,0.41666666666667 q -1.0125 1.0125 0.3625,0.41666666666667 q -1.6375 1.0125 0.55625,1 " 
						transform="rotate(0 0,1.25 )"
						stroke-width ="0.1"
						fill="rgb(106,151,169)"
						/><path d="M 0,1.25 
						q 1.0125 1.0125 0.91875,0.41666666666667 q 1.0125 1.0125 -0.3625,0.41666666666667 q 1.6375 1.0125 -0.55625,1 
						M 0,1.25 
						q -1.0125 1.0125 -0.91875,0.41666666666667 q -1.0125 1.0125 0.3625,0.41666666666667 q -1.6375 1.0125 0.55625,1 " 
						transform="rotate(38.571428571429 0,1.25 )"
						stroke-width ="0.1"
						fill="rgb(103.5,142.5,158.5)"
						/><path d="M 0,1.25 
						q 1.0125 1.0125 0.91875,0.41666666666667 q 1.0125 1.0125 -0.3625,0.41666666666667 q 1.6375 1.0125 -0.55625,1 
						M 0,1.25 
						q -1.0125 1.0125 -0.91875,0.41666666666667 q -1.0125 1.0125 0.3625,0.41666666666667 q -1.6375 1.0125 0.55625,1 " 
						transform="rotate(77.142857142857 0,1.25 )"
						stroke-width ="0.1"
						fill="rgb(96,132,156)"
						/><path d="M 0,1.25 
						q 1.0125 1.0125 0.91875,0.41666666666667 q 1.0125 1.0125 -0.3625,0.41666666666667 q 1.6375 1.0125 -0.55625,1 
						M 0,1.25 
						q -1.0125 1.0125 -0.91875,0.41666666666667 q -1.0125 1.0125 0.3625,0.41666666666667 q -1.6375 1.0125 0.55625,1 " 
						transform="rotate(115.71428571429 0,1.25 )"
						stroke-width ="0.1"
						fill="rgb(93.5,129.5,151.5)"
						/></g><g id="flower6"><path d="M 0,1.5 
						q 1.215 1.215 1.1025,0.5 q 1.215 1.215 -0.435,0.5 q 1.965 1.215 -0.6675,1 
						M 0,1.5 
						q -1.215 1.215 -1.1025,0.5 q -1.215 1.215 0.435,0.5 q -1.965 1.215 0.6675,1 " 
						transform="rotate(0 0,1.5 )"
						stroke-width ="0.1"
						fill="rgb(105,145,172)"
						/><path d="M 0,1.5 
						q 1.215 1.215 1.1025,0.5 q 1.215 1.215 -0.435,0.5 q 1.965 1.215 -0.6675,1 
						M 0,1.5 
						q -1.215 1.215 -1.1025,0.5 q -1.215 1.215 0.435,0.5 q -1.965 1.215 0.6675,1 " 
						transform="rotate(38.571428571429 0,1.5 )"
						stroke-width ="0.1"
						fill="rgb(95.5,147.5,164.5)"
						/><path d="M 0,1.5 
						q 1.215 1.215 1.1025,0.5 q 1.215 1.215 -0.435,0.5 q 1.965 1.215 -0.6675,1 
						M 0,1.5 
						q -1.215 1.215 -1.1025,0.5 q -1.215 1.215 0.435,0.5 q -1.965 1.215 0.6675,1 " 
						transform="rotate(77.142857142857 0,1.5 )"
						stroke-width ="0.1"
						fill="rgb(102,137,161)"
						/><path d="M 0,1.5 
						q 1.215 1.215 1.1025,0.5 q 1.215 1.215 -0.435,0.5 q 1.965 1.215 -0.6675,1 
						M 0,1.5 
						q -1.215 1.215 -1.1025,0.5 q -1.215 1.215 0.435,0.5 q -1.965 1.215 0.6675,1 " 
						transform="rotate(115.71428571429 0,1.5 )"
						stroke-width ="0.1"
						fill="rgb(89.5,130.5,164.5)"
						/></g><g id="flower7"><path d="M 0,1.75 
						q 1.4175 1.4175 1.28625,0.58333333333333 q 1.4175 1.4175 -0.5075,0.58333333333333 q 2.2925 1.4175 -0.77875,1 
						M 0,1.75 
						q -1.4175 1.4175 -1.28625,0.58333333333333 q -1.4175 1.4175 0.5075,0.58333333333333 q -2.2925 1.4175 0.77875,1 " 
						transform="rotate(0 0,1.75 )"
						stroke-width ="0.1"
						fill="rgb(104,146,158)"
						/><path d="M 0,1.75 
						q 1.4175 1.4175 1.28625,0.58333333333333 q 1.4175 1.4175 -0.5075,0.58333333333333 q 2.2925 1.4175 -0.77875,1 
						M 0,1.75 
						q -1.4175 1.4175 -1.28625,0.58333333333333 q -1.4175 1.4175 0.5075,0.58333333333333 q -2.2925 1.4175 0.77875,1 " 
						transform="rotate(38.571428571429 0,1.75 )"
						stroke-width ="0.1"
						fill="rgb(96.5,139.5,165.5)"
						/><path d="M 0,1.75 
						q 1.4175 1.4175 1.28625,0.58333333333333 q 1.4175 1.4175 -0.5075,0.58333333333333 q 2.2925 1.4175 -0.77875,1 
						M 0,1.75 
						q -1.4175 1.4175 -1.28625,0.58333333333333 q -1.4175 1.4175 0.5075,0.58333333333333 q -2.2925 1.4175 0.77875,1 " 
						transform="rotate(77.142857142857 0,1.75 )"
						stroke-width ="0.1"
						fill="rgb(99,133,157)"
						/><path d="M 0,1.75 
						q 1.4175 1.4175 1.28625,0.58333333333333 q 1.4175 1.4175 -0.5075,0.58333333333333 q 2.2925 1.4175 -0.77875,1 
						M 0,1.75 
						q -1.4175 1.4175 -1.28625,0.58333333333333 q -1.4175 1.4175 0.5075,0.58333333333333 q -2.2925 1.4175 0.77875,1 " 
						transform="rotate(115.71428571429 0,1.75 )"
						stroke-width ="0.1"
						fill="rgb(91.5,125.5,162.5)"
						/></g><g id="flower8"><path d="M 0,2 
						q 1.62 1.62 1.47,0.66666666666667 q 1.62 1.62 -0.58,0.66666666666667 q 2.62 1.62 -0.89,1 
						M 0,2 
						q -1.62 1.62 -1.47,0.66666666666667 q -1.62 1.62 0.58,0.66666666666667 q -2.62 1.62 0.89,1 " 
						transform="rotate(0 0,2 )"
						stroke-width ="0.1"
						fill="rgb(104,142,168)"
						/><path d="M 0,2 
						q 1.62 1.62 1.47,0.66666666666667 q 1.62 1.62 -0.58,0.66666666666667 q 2.62 1.62 -0.89,1 
						M 0,2 
						q -1.62 1.62 -1.47,0.66666666666667 q -1.62 1.62 0.58,0.66666666666667 q -2.62 1.62 0.89,1 " 
						transform="rotate(38.571428571429 0,2 )"
						stroke-width ="0.1"
						fill="rgb(101.5,145.5,156.5)"
						/><path d="M 0,2 
						q 1.62 1.62 1.47,0.66666666666667 q 1.62 1.62 -0.58,0.66666666666667 q 2.62 1.62 -0.89,1 
						M 0,2 
						q -1.62 1.62 -1.47,0.66666666666667 q -1.62 1.62 0.58,0.66666666666667 q -2.62 1.62 0.89,1 " 
						transform="rotate(77.142857142857 0,2 )"
						stroke-width ="0.1"
						fill="rgb(84,148,165)"
						/><path d="M 0,2 
						q 1.62 1.62 1.47,0.66666666666667 q 1.62 1.62 -0.58,0.66666666666667 q 2.62 1.62 -0.89,1 
						M 0,2 
						q -1.62 1.62 -1.47,0.66666666666667 q -1.62 1.62 0.58,0.66666666666667 q -2.62 1.62 0.89,1 " 
						transform="rotate(115.71428571429 0,2 )"
						stroke-width ="0.1"
						fill="rgb(97.5,127.5,157.5)"
						/></g></defs>
				<g class="fullPlant">
					<g>
					<path d ="M 57,91 
					q -8.64 -42.19 1.152,-42.948" fill ="none" stroke ="rgb(180.5,124.5,60.5)" stroke-width ="1.026"/></g><circle cx="58.152" cy="48.052" r="0.513" fill="rgb(180.5,124.5,60.5)"/><use xlink:href="#leaf3"
						x="57" y="91" 
						transform="rotate(145 57.95 91.07)" 	
						fill="rgb(104,119,25)" /><use xlink:href="#leaf4"
						x="57" y="91" 
						transform="rotate(216 57.06 91.76)" 	
						fill="rgb(103,116,23)" /><use xlink:href="#flower6" id="fleur00"
						x="58.152" y="46.052" transform="rotate(172 58.152 48.052)" /></g>
				</svg>