<svg class="relie" xmlns="http://www.w3.org/2000/svg" viewBox="0 0 100 100" preserveAspectRatio="xMidYMid meet" x="0" y="0" overflow="visible" xmlns:xlink="http://www.w3.org/1999/xlink">

		<defs>  <g id="leaf1" transform="skewX(-4) skewY(-4)"><path d="M 0,0 
					q 0.27 0.38625 0,3.5 
					M 0,0 
					q -0.27 0.38625 0,3.5 " 
					stroke-width ="0.2" /></g>  <g id="leaf2" transform="skewX(-18) skewY(-18)"><path d="M 0,0 
					q 0.54 0.7725 0,7 
					M 0,0 
					q -0.54 0.7725 0,7 " 
					stroke-width ="0.2" /></g>  <g id="leaf3" transform="skewX(0) skewY(0)"><path d="M 0,0 
					q 0.81 1.15875 0,10.5 
					M 0,0 
					q -0.81 1.15875 0,10.5 " 
					stroke-width ="0.2" /></g>  <g id="leaf4" transform="skewX(-10) skewY(-10)"><path d="M 0,0 
					q 1.08 1.545 0,14 
					M 0,0 
					q -1.08 1.545 0,14 " 
					stroke-width ="0.2" /></g>  <g id="leaf5" transform="skewX(19) skewY(19)"><path d="M 0,0 
					q 1.35 1.93125 0,17.5 
					M 0,0 
					q -1.35 1.93125 0,17.5 " 
					stroke-width ="0.2" /></g>  <g id="leaf6" transform="skewX(-18) skewY(-18)"><path d="M 0,0 
					q 1.62 2.3175 0,21 
					M 0,0 
					q -1.62 2.3175 0,21 " 
					stroke-width ="0.2" /></g>  <g id="leaf7" transform="skewX(-13) skewY(-13)"><path d="M 0,0 
					q 1.89 2.70375 0,24.5 
					M 0,0 
					q -1.89 2.70375 0,24.5 " 
					stroke-width ="0.2" /></g>  <g id="leaf8" transform="skewX(-2) skewY(-2)"><path d="M 0,0 
					q 2.16 3.09 0,28 
					M 0,0 
					q -2.16 3.09 0,28 " 
					stroke-width ="0.2" /></g><g id="flower1"><path d="M 0,1.25 
						q 0.1075 0.05375 0,1.25 
						M 0,1.25 
						q -0.1075 0.05375 0,1.25 " 
						transform="rotate(0 0,1.25 )"
						stroke-width ="0.1"
						fill="rgb(8,120,45)"
						/><circle cx="0" cy="1.25" r="0.0375" fill="rgb(18,142,18)"/><circle cx="-0.05" cy="1.21" r="0.025" fill="rgb(39.5,154.5,32.5)"/><path d="M 0,1.25 
						q 0.1075 0.05375 0,1.25 
						M 0,1.25 
						q -0.1075 0.05375 0,1.25 " 
						transform="rotate(51.428571428571 0,1.25 )"
						stroke-width ="0.1"
						fill="rgb(0.5,135.5,36.5)"
						/><circle cx="0" cy="1.25" r="0.0375" fill="rgb(18,142,18)"/><circle cx="-0.04" cy="1.27" r="0.025" fill="rgb(39.5,154.5,32.5)"/><path d="M 0,1.25 
						q 0.1075 0.05375 0,1.25 
						M 0,1.25 
						q -0.1075 0.05375 0,1.25 " 
						transform="rotate(102.85714285714 0,1.25 )"
						stroke-width ="0.1"
						fill="rgb(0,124,45)"
						/><circle cx="0" cy="1.25" r="0.0375" fill="rgb(18,142,18)"/><circle cx="-0.01" cy="1.26" r="0.025" fill="rgb(39.5,154.5,32.5)"/><path d="M 0,1.25 
						q 0.1075 0.05375 0,1.25 
						M 0,1.25 
						q -0.1075 0.05375 0,1.25 " 
						transform="rotate(154.28571428571 0,1.25 )"
						stroke-width ="0.1"
						fill="rgb(0,127.5,36.5)"
						/><circle cx="0" cy="1.25" r="0.0375" fill="rgb(18,142,18)"/><circle cx="0.07" cy="1.29" r="0.025" fill="rgb(39.5,154.5,32.5)"/><path d="M 0,1.25 
						q 0.1075 0.05375 0,1.25 
						M 0,1.25 
						q -0.1075 0.05375 0,1.25 " 
						transform="rotate(205.71428571429 0,1.25 )"
						stroke-width ="0.1"
						fill="rgb(0,127,32)"
						/><circle cx="0" cy="1.25" r="0.0375" fill="rgb(18,142,18)"/><circle cx="-0.07" cy="1.34" r="0.025" fill="rgb(39.5,154.5,32.5)"/><path d="M 0,1.25 
						q 0.1075 0.05375 0,1.25 
						M 0,1.25 
						q -0.1075 0.05375 0,1.25 " 
						transform="rotate(257.14285714286 0,1.25 )"
						stroke-width ="0.1"
						fill="rgb(1.5,107.5,25.5)"
						/><circle cx="0" cy="1.25" r="0.0375" fill="rgb(18,142,18)"/><circle cx="0.03" cy="1.15" r="0.025" fill="rgb(39.5,154.5,32.5)"/><path d="M 0,1.25 
						q 0.1075 0.05375 0,1.25 
						M 0,1.25 
						q -0.1075 0.05375 0,1.25 " 
						transform="rotate(308.57142857143 0,1.25 )"
						stroke-width ="0.1"
						fill="rgb(0,106,27)"
						/><circle cx="0" cy="1.25" r="0.0375" fill="rgb(18,142,18)"/><circle cx="0" cy="1.25" r="0.025" fill="rgb(39.5,154.5,32.5)"/><path d="M 0,1.25 
						q 0.1075 0.05375 0,1.25 
						M 0,1.25 
						q -0.1075 0.05375 0,1.25 " 
						transform="rotate(360 0,1.25 )"
						stroke-width ="0.1"
						fill="rgb(0,116.5,18.5)"
						/><circle cx="0" cy="1.25" r="0.0375" fill="rgb(18,142,18)"/><circle cx="0" cy="1.33" r="0.025" fill="rgb(39.5,154.5,32.5)"/></g><g id="flower2"><path d="M 0,2.5 
						q 0.215 0.1075 0,2.5 
						M 0,2.5 
						q -0.215 0.1075 0,2.5 " 
						transform="rotate(0 0,2.5 )"
						stroke-width ="0.1"
						fill="rgb(13,123,38)"
						/><circle cx="0" cy="2.5" r="0.075" fill="rgb(23,139,16)"/><circle cx="0.02" cy="2.51" r="0.05" fill="rgb(26.5,154.5,31.5)"/><path d="M 0,2.5 
						q 0.215 0.1075 0,2.5 
						M 0,2.5 
						q -0.215 0.1075 0,2.5 " 
						transform="rotate(51.428571428571 0,2.5 )"
						stroke-width ="0.1"
						fill="rgb(11.5,126.5,40.5)"
						/><circle cx="0" cy="2.5" r="0.075" fill="rgb(23,139,16)"/><circle cx="0.05" cy="2.48" r="0.05" fill="rgb(26.5,154.5,31.5)"/><path d="M 0,2.5 
						q 0.215 0.1075 0,2.5 
						M 0,2.5 
						q -0.215 0.1075 0,2.5 " 
						transform="rotate(102.85714285714 0,2.5 )"
						stroke-width ="0.1"
						fill="rgb(6,124,38)"
						/><circle cx="0" cy="2.5" r="0.075" fill="rgb(23,139,16)"/><circle cx="0.1" cy="2.57" r="0.05" fill="rgb(26.5,154.5,31.5)"/><path d="M 0,2.5 
						q 0.215 0.1075 0,2.5 
						M 0,2.5 
						q -0.215 0.1075 0,2.5 " 
						transform="rotate(154.28571428571 0,2.5 )"
						stroke-width ="0.1"
						fill="rgb(0,113.5,28.5)"
						/><circle cx="0" cy="2.5" r="0.075" fill="rgb(23,139,16)"/><circle cx="-0.04" cy="2.57" r="0.05" fill="rgb(26.5,154.5,31.5)"/><path d="M 0,2.5 
						q 0.215 0.1075 0,2.5 
						M 0,2.5 
						q -0.215 0.1075 0,2.5 " 
						transform="rotate(205.71428571429 0,2.5 )"
						stroke-width ="0.1"
						fill="rgb(0,114,28)"
						/><circle cx="0" cy="2.5" r="0.075" fill="rgb(23,139,16)"/><circle cx="-0.05" cy="2.58" r="0.05" fill="rgb(26.5,154.5,31.5)"/><path d="M 0,2.5 
						q 0.215 0.1075 0,2.5 
						M 0,2.5 
						q -0.215 0.1075 0,2.5 " 
						transform="rotate(257.14285714286 0,2.5 )"
						stroke-width ="0.1"
						fill="rgb(0,109.5,36.5)"
						/><circle cx="0" cy="2.5" r="0.075" fill="rgb(23,139,16)"/><circle cx="0.09" cy="2.45" r="0.05" fill="rgb(26.5,154.5,31.5)"/><path d="M 0,2.5 
						q 0.215 0.1075 0,2.5 
						M 0,2.5 
						q -0.215 0.1075 0,2.5 " 
						transform="rotate(308.57142857143 0,2.5 )"
						stroke-width ="0.1"
						fill="rgb(0,120,26)"
						/><circle cx="0" cy="2.5" r="0.075" fill="rgb(23,139,16)"/><circle cx="-0.05" cy="2.6" r="0.05" fill="rgb(26.5,154.5,31.5)"/><path d="M 0,2.5 
						q 0.215 0.1075 0,2.5 
						M 0,2.5 
						q -0.215 0.1075 0,2.5 " 
						transform="rotate(360 0,2.5 )"
						stroke-width ="0.1"
						fill="rgb(0,120.5,22.5)"
						/><circle cx="0" cy="2.5" r="0.075" fill="rgb(23,139,16)"/><circle cx="-0.07" cy="2.51" r="0.05" fill="rgb(26.5,154.5,31.5)"/></g><g id="flower3"><path d="M 0,3.75 
						q 0.3225 0.16125 0,3.75 
						M 0,3.75 
						q -0.3225 0.16125 0,3.75 " 
						transform="rotate(0 0,3.75 )"
						stroke-width ="0.1"
						fill="rgb(0,126,41)"
						/><path d="M 0,3.75 
						q 0.3225 0.16125 0,3.75 
						M 0,3.75 
						q -0.3225 0.16125 0,3.75 " 
						transform="rotate(25.714285714286 0,3.75 )"
						stroke-width ="0.1"
						fill="rgb(7.5,135.5,35.5)"
						/></g><g id="flower4"><path d="M 0,5 
						q 0.43 0.215 0,5 
						M 0,5 
						q -0.43 0.215 0,5 " 
						transform="rotate(0 0,5 )"
						stroke-width ="0.1"
						fill="rgb(3,123,48)"
						/><circle cx="0" cy="5" r="0.15" fill="rgb(23,136,21)"/><circle cx="0.04" cy="4.98" r="0.1" fill="rgb(43.5,141.5,28.5)"/><path d="M 0,5 
						q 0.43 0.215 0,5 
						M 0,5 
						q -0.43 0.215 0,5 " 
						transform="rotate(51.428571428571 0,5 )"
						stroke-width ="0.1"
						fill="rgb(9.5,135.5,31.5)"
						/><circle cx="0" cy="5" r="0.15" fill="rgb(23,136,21)"/><circle cx="0.01" cy="4.96" r="0.1" fill="rgb(43.5,141.5,28.5)"/><path d="M 0,5 
						q 0.43 0.215 0,5 
						M 0,5 
						q -0.43 0.215 0,5 " 
						transform="rotate(102.85714285714 0,5 )"
						stroke-width ="0.1"
						fill="rgb(2,127,45)"
						/><circle cx="0" cy="5" r="0.15" fill="rgb(23,136,21)"/><circle cx="0.01" cy="4.93" r="0.1" fill="rgb(43.5,141.5,28.5)"/><path d="M 0,5 
						q 0.43 0.215 0,5 
						M 0,5 
						q -0.43 0.215 0,5 " 
						transform="rotate(154.28571428571 0,5 )"
						stroke-width ="0.1"
						fill="rgb(2.5,118.5,46.5)"
						/><circle cx="0" cy="5" r="0.15" fill="rgb(23,136,21)"/><circle cx="0.07" cy="5" r="0.1" fill="rgb(43.5,141.5,28.5)"/><path d="M 0,5 
						q 0.43 0.215 0,5 
						M 0,5 
						q -0.43 0.215 0,5 " 
						transform="rotate(205.71428571429 0,5 )"
						stroke-width ="0.1"
						fill="rgb(1,126,27)"
						/><circle cx="0" cy="5" r="0.15" fill="rgb(23,136,21)"/><circle cx="0.06" cy="4.93" r="0.1" fill="rgb(43.5,141.5,28.5)"/><path d="M 0,5 
						q 0.43 0.215 0,5 
						M 0,5 
						q -0.43 0.215 0,5 " 
						transform="rotate(257.14285714286 0,5 )"
						stroke-width ="0.1"
						fill="rgb(0,115.5,28.5)"
						/><circle cx="0" cy="5" r="0.15" fill="rgb(23,136,21)"/><circle cx="0.02" cy="5.02" r="0.1" fill="rgb(43.5,141.5,28.5)"/><path d="M 0,5 
						q 0.43 0.215 0,5 
						M 0,5 
						q -0.43 0.215 0,5 " 
						transform="rotate(308.57142857143 0,5 )"
						stroke-width ="0.1"
						fill="rgb(0,103,34)"
						/><circle cx="0" cy="5" r="0.15" fill="rgb(23,136,21)"/><circle cx="0.07" cy="4.9" r="0.1" fill="rgb(43.5,141.5,28.5)"/><path d="M 0,5 
						q 0.43 0.215 0,5 
						M 0,5 
						q -0.43 0.215 0,5 " 
						transform="rotate(360 0,5 )"
						stroke-width ="0.1"
						fill="rgb(0,111.5,35.5)"
						/><circle cx="0" cy="5" r="0.15" fill="rgb(23,136,21)"/><circle cx="0.02" cy="4.95" r="0.1" fill="rgb(43.5,141.5,28.5)"/></g><g id="flower5"><path d="M 0,6.25 
						q 0.5375 0.26875 0,6.25 
						M 0,6.25 
						q -0.5375 0.26875 0,6.25 " 
						transform="rotate(0 0,6.25 )"
						stroke-width ="0.1"
						fill="rgb(9,127,52)"
						/><circle cx="0" cy="6.25" r="0.1875" fill="rgb(20,134,22)"/><circle cx="0.07" cy="6.35" r="0.125" fill="rgb(25.5,154.5,38.5)"/><path d="M 0,6.25 
						q 0.5375 0.26875 0,6.25 
						M 0,6.25 
						q -0.5375 0.26875 0,6.25 " 
						transform="rotate(51.428571428571 0,6.25 )"
						stroke-width ="0.1"
						fill="rgb(0,134.5,49.5)"
						/><circle cx="0" cy="6.25" r="0.1875" fill="rgb(20,134,22)"/><circle cx="0" cy="6.3" r="0.125" fill="rgb(25.5,154.5,38.5)"/><path d="M 0,6.25 
						q 0.5375 0.26875 0,6.25 
						M 0,6.25 
						q -0.5375 0.26875 0,6.25 " 
						transform="rotate(102.85714285714 0,6.25 )"
						stroke-width ="0.1"
						fill="rgb(8,113,49)"
						/><circle cx="0" cy="6.25" r="0.1875" fill="rgb(20,134,22)"/><circle cx="0.07" cy="6.27" r="0.125" fill="rgb(25.5,154.5,38.5)"/><path d="M 0,6.25 
						q 0.5375 0.26875 0,6.25 
						M 0,6.25 
						q -0.5375 0.26875 0,6.25 " 
						transform="rotate(154.28571428571 0,6.25 )"
						stroke-width ="0.1"
						fill="rgb(5.5,130.5,30.5)"
						/><circle cx="0" cy="6.25" r="0.1875" fill="rgb(20,134,22)"/><circle cx="0.06" cy="6.19" r="0.125" fill="rgb(25.5,154.5,38.5)"/><path d="M 0,6.25 
						q 0.5375 0.26875 0,6.25 
						M 0,6.25 
						q -0.5375 0.26875 0,6.25 " 
						transform="rotate(205.71428571429 0,6.25 )"
						stroke-width ="0.1"
						fill="rgb(0,112,25)"
						/><circle cx="0" cy="6.25" r="0.1875" fill="rgb(20,134,22)"/><circle cx="0.02" cy="6.21" r="0.125" fill="rgb(25.5,154.5,38.5)"/><path d="M 0,6.25 
						q 0.5375 0.26875 0,6.25 
						M 0,6.25 
						q -0.5375 0.26875 0,6.25 " 
						transform="rotate(257.14285714286 0,6.25 )"
						stroke-width ="0.1"
						fill="rgb(0.5,108.5,29.5)"
						/><circle cx="0" cy="6.25" r="0.1875" fill="rgb(20,134,22)"/><circle cx="0.1" cy="6.29" r="0.125" fill="rgb(25.5,154.5,38.5)"/><path d="M 0,6.25 
						q 0.5375 0.26875 0,6.25 
						M 0,6.25 
						q -0.5375 0.26875 0,6.25 " 
						transform="rotate(308.57142857143 0,6.25 )"
						stroke-width ="0.1"
						fill="rgb(0,105,20)"
						/><circle cx="0" cy="6.25" r="0.1875" fill="rgb(20,134,22)"/><circle cx="-0.05" cy="6.35" r="0.125" fill="rgb(25.5,154.5,38.5)"/><path d="M 0,6.25 
						q 0.5375 0.26875 0,6.25 
						M 0,6.25 
						q -0.5375 0.26875 0,6.25 " 
						transform="rotate(360 0,6.25 )"
						stroke-width ="0.1"
						fill="rgb(0,108.5,32.5)"
						/><circle cx="0" cy="6.25" r="0.1875" fill="rgb(20,134,22)"/><circle cx="-0.05" cy="6.35" r="0.125" fill="rgb(25.5,154.5,38.5)"/></g><g id="flower6"><path d="M 0,7.5 
						q 0.645 0.3225 0,7.5 
						M 0,7.5 
						q -0.645 0.3225 0,7.5 " 
						transform="rotate(0 0,7.5 )"
						stroke-width ="0.1"
						fill="rgb(8,120,54)"
						/><circle cx="0" cy="7.5" r="0.225" fill="rgb(18,142,14)"/><circle cx="-0.09" cy="7.45" r="0.15" fill="rgb(33.5,157.5,38.5)"/><path d="M 0,7.5 
						q 0.645 0.3225 0,7.5 
						M 0,7.5 
						q -0.645 0.3225 0,7.5 " 
						transform="rotate(51.428571428571 0,7.5 )"
						stroke-width ="0.1"
						fill="rgb(0,118.5,51.5)"
						/><circle cx="0" cy="7.5" r="0.225" fill="rgb(18,142,14)"/><circle cx="-0.01" cy="7.52" r="0.15" fill="rgb(33.5,157.5,38.5)"/><path d="M 0,7.5 
						q 0.645 0.3225 0,7.5 
						M 0,7.5 
						q -0.645 0.3225 0,7.5 " 
						transform="rotate(102.85714285714 0,7.5 )"
						stroke-width ="0.1"
						fill="rgb(2,130,34)"
						/><circle cx="0" cy="7.5" r="0.225" fill="rgb(18,142,14)"/><circle cx="-0.08" cy="7.54" r="0.15" fill="rgb(33.5,157.5,38.5)"/><path d="M 0,7.5 
						q 0.645 0.3225 0,7.5 
						M 0,7.5 
						q -0.645 0.3225 0,7.5 " 
						transform="rotate(154.28571428571 0,7.5 )"
						stroke-width ="0.1"
						fill="rgb(0.5,119.5,35.5)"
						/><circle cx="0" cy="7.5" r="0.225" fill="rgb(18,142,14)"/><circle cx="-0.04" cy="7.47" r="0.15" fill="rgb(33.5,157.5,38.5)"/><path d="M 0,7.5 
						q 0.645 0.3225 0,7.5 
						M 0,7.5 
						q -0.645 0.3225 0,7.5 " 
						transform="rotate(205.71428571429 0,7.5 )"
						stroke-width ="0.1"
						fill="rgb(0,124,31)"
						/><circle cx="0" cy="7.5" r="0.225" fill="rgb(18,142,14)"/><circle cx="-0.07" cy="7.58" r="0.15" fill="rgb(33.5,157.5,38.5)"/><path d="M 0,7.5 
						q 0.645 0.3225 0,7.5 
						M 0,7.5 
						q -0.645 0.3225 0,7.5 " 
						transform="rotate(257.14285714286 0,7.5 )"
						stroke-width ="0.1"
						fill="rgb(0,108.5,35.5)"
						/><circle cx="0" cy="7.5" r="0.225" fill="rgb(18,142,14)"/><circle cx="-0.1" cy="7.59" r="0.15" fill="rgb(33.5,157.5,38.5)"/><path d="M 0,7.5 
						q 0.645 0.3225 0,7.5 
						M 0,7.5 
						q -0.645 0.3225 0,7.5 " 
						transform="rotate(308.57142857143 0,7.5 )"
						stroke-width ="0.1"
						fill="rgb(0,106,19)"
						/><circle cx="0" cy="7.5" r="0.225" fill="rgb(18,142,14)"/><circle cx="0.02" cy="7.45" r="0.15" fill="rgb(33.5,157.5,38.5)"/><path d="M 0,7.5 
						q 0.645 0.3225 0,7.5 
						M 0,7.5 
						q -0.645 0.3225 0,7.5 " 
						transform="rotate(360 0,7.5 )"
						stroke-width ="0.1"
						fill="rgb(0,114.5,19.5)"
						/><circle cx="0" cy="7.5" r="0.225" fill="rgb(18,142,14)"/><circle cx="-0.04" cy="7.51" r="0.15" fill="rgb(33.5,157.5,38.5)"/></g><g id="flower7"><path d="M 0,8.75 
						q 0.7525 0.37625 0,8.75 
						M 0,8.75 
						q -0.7525 0.37625 0,8.75 " 
						transform="rotate(0 0,8.75 )"
						stroke-width ="0.1"
						fill="rgb(0,136,52)"
						/><path d="M 0,8.75 
						q 0.7525 0.37625 0,8.75 
						M 0,8.75 
						q -0.7525 0.37625 0,8.75 " 
						transform="rotate(25.714285714286 0,8.75 )"
						stroke-width ="0.1"
						fill="rgb(5.5,132.5,47.5)"
						/></g><g id="flower8"><path d="M 0,10 
						q 0.86 0.43 0,10 
						M 0,10 
						q -0.86 0.43 0,10 " 
						transform="rotate(0 0,10 )"
						stroke-width ="0.1"
						fill="rgb(12,122,50)"
						/><path d="M 0,10 
						q 0.86 0.43 0,10 
						M 0,10 
						q -0.86 0.43 0,10 " 
						transform="rotate(25.714285714286 0,10 )"
						stroke-width ="0.1"
						fill="rgb(0,131.5,41.5)"
						/></g></defs>
				<g class="fullPlant">
					<g>
					<path d ="M 50,91 
					q 1.6 -25.67 2.04,-26.004" fill ="none" stroke ="rgb(156.5,198.5,31.5)" stroke-width ="1.71"/></g><circle cx="52.04" cy="64.996" r="0.855" fill="rgb(156.5,198.5,31.5)"/><use xlink:href="#leaf4"
						x="50" y="91" 
						transform="rotate(139 50 91)" 	
						fill="rgb(137,91,63)" /><use xlink:href="#leaf7"
						x="50" y="91" 
						transform="rotate(153 50 91)" 	
						fill="rgb(137,89,58)" /><use xlink:href="#flower6" id="fleur00"
						x="52.04" y="54.996" transform="rotate(120 52.04 64.996)" /></g>
				</svg>