<svg class="relie" xmlns="http://www.w3.org/2000/svg" viewBox="0 0 100 100" preserveAspectRatio="xMidYMid meet" x="0" y="0" overflow="visible" xmlns:xlink="http://www.w3.org/1999/xlink">

		<defs>  <g id="leaf1" transform="skewX(17) skewY(17)"><path d="M 0,0 
					q 0.2725 0.13625 0,3.25 
					M 0,0 
					q -0.2725 0.13625 0,3.25 " 
					stroke-width ="0.2" /></g>  <g id="leaf2" transform="skewX(-2) skewY(-2)"><path d="M 0,0 
					q 0.545 0.2725 0,6.5 
					M 0,0 
					q -0.545 0.2725 0,6.5 " 
					stroke-width ="0.2" /></g>  <g id="leaf3" transform="skewX(9) skewY(9)"><path d="M 0,0 
					q 0.8175 0.40875 0,9.75 
					M 0,0 
					q -0.8175 0.40875 0,9.75 " 
					stroke-width ="0.2" /></g>  <g id="leaf4" transform="skewX(18) skewY(18)"><path d="M 0,0 
					q 1.09 0.545 0,13 
					M 0,0 
					q -1.09 0.545 0,13 " 
					stroke-width ="0.2" /></g>  <g id="leaf5" transform="skewX(-20) skewY(-20)"><path d="M 0,0 
					q 1.3625 0.68125 0,16.25 
					M 0,0 
					q -1.3625 0.68125 0,16.25 " 
					stroke-width ="0.2" /></g>  <g id="leaf6" transform="skewX(18) skewY(18)"><path d="M 0,0 
					q 1.635 0.8175 0,19.5 
					M 0,0 
					q -1.635 0.8175 0,19.5 " 
					stroke-width ="0.2" /></g>  <g id="leaf7" transform="skewX(-2) skewY(-2)"><path d="M 0,0 
					q 1.9075 0.95375 0,22.75 
					M 0,0 
					q -1.9075 0.95375 0,22.75 " 
					stroke-width ="0.2" /></g>  <g id="leaf8" transform="skewX(7) skewY(7)"><path d="M 0,0 
					q 2.18 1.09 0,26 
					M 0,0 
					q -2.18 1.09 0,26 " 
					stroke-width ="0.2" /></g><g id="flower1"><path d="M 0,0.625 
						q 0.41625 0.41625 0.2375,0.3125 q 0.41625 0.41625 0.025,0.3125 q 0.41625 0.41625 -0.0125,0.03125 q 0.41625 0.41625 -0.25,1 
						M 0,0.625 
						q -0.41625 0.41625 -0.2375,0.3125 q -0.41625 0.41625 -0.025,0.3125 q -0.41625 0.41625 0.0125,0.03125 q -0.41625 0.41625 0.25,1 " 
						transform="rotate(0 0,0.625 )"
						stroke-width ="0.1"
						fill="rgb(1,38,16)"
						/><path d="M 0,0.625 
						q 0.41625 0.41625 0.2375,0.3125 q 0.41625 0.41625 0.025,0.3125 q 0.41625 0.41625 -0.0125,0.03125 q 0.41625 0.41625 -0.25,1 
						M 0,0.625 
						q -0.41625 0.41625 -0.2375,0.3125 q -0.41625 0.41625 -0.025,0.3125 q -0.41625 0.41625 0.0125,0.03125 q -0.41625 0.41625 0.25,1 " 
						transform="rotate(12.857142857143 0,0.625 )"
						stroke-width ="0.1"
						fill="rgb(1.5,33.5,3.5)"
						/><path d="M 0,0.625 
						q 0.41625 0.41625 0.2375,0.3125 q 0.41625 0.41625 0.025,0.3125 q 0.41625 0.41625 -0.0125,0.03125 q 0.41625 0.41625 -0.25,1 
						M 0,0.625 
						q -0.41625 0.41625 -0.2375,0.3125 q -0.41625 0.41625 -0.025,0.3125 q -0.41625 0.41625 0.0125,0.03125 q -0.41625 0.41625 0.25,1 " 
						transform="rotate(25.714285714286 0,0.625 )"
						stroke-width ="0.1"
						fill="rgb(9,22,1)"
						/><path d="M 0,0.625 
						q 0.41625 0.41625 0.2375,0.3125 q 0.41625 0.41625 0.025,0.3125 q 0.41625 0.41625 -0.0125,0.03125 q 0.41625 0.41625 -0.25,1 
						M 0,0.625 
						q -0.41625 0.41625 -0.2375,0.3125 q -0.41625 0.41625 -0.025,0.3125 q -0.41625 0.41625 0.0125,0.03125 q -0.41625 0.41625 0.25,1 " 
						transform="rotate(38.571428571429 0,0.625 )"
						stroke-width ="0.1"
						fill="rgb(2.5,13.5,0)"
						/></g><g id="flower2"><path d="M 0,1.25 
						q 0.8325 0.8325 0.275,0.625 q 0.8325 0.8325 0.05,0.625 q 0.8325 0.8325 -0.025,0.0625 q 0.8325 0.8325 -0.3,1 
						M 0,1.25 
						q -0.8325 0.8325 -0.275,0.625 q -0.8325 0.8325 -0.05,0.625 q -0.8325 0.8325 0.025,0.0625 q -0.8325 0.8325 0.3,1 " 
						transform="rotate(0 0,1.25 )"
						stroke-width ="0.1"
						fill="rgb(13,38,15)"
						/><circle cx="0" cy="1.25" r="0.1625" fill="rgb(88,56,225)"/><circle cx="-0.1" cy="1.3" r="0.10833333333333" fill="rgb(95.5,71.5,231.5)"/><path d="M 0,1.25 
						q 0.8325 0.8325 0.275,0.625 q 0.8325 0.8325 0.05,0.625 q 0.8325 0.8325 -0.025,0.0625 q 0.8325 0.8325 -0.3,1 
						M 0,1.25 
						q -0.8325 0.8325 -0.275,0.625 q -0.8325 0.8325 -0.05,0.625 q -0.8325 0.8325 0.025,0.0625 q -0.8325 0.8325 0.3,1 " 
						transform="rotate(25.714285714286 0,1.25 )"
						stroke-width ="0.1"
						fill="rgb(0.5,19.5,18.5)"
						/><circle cx="0" cy="1.25" r="0.1625" fill="rgb(88,56,225)"/><circle cx="-0.07" cy="1.16" r="0.10833333333333" fill="rgb(95.5,71.5,231.5)"/><path d="M 0,1.25 
						q 0.8325 0.8325 0.275,0.625 q 0.8325 0.8325 0.05,0.625 q 0.8325 0.8325 -0.025,0.0625 q 0.8325 0.8325 -0.3,1 
						M 0,1.25 
						q -0.8325 0.8325 -0.275,0.625 q -0.8325 0.8325 -0.05,0.625 q -0.8325 0.8325 0.025,0.0625 q -0.8325 0.8325 0.3,1 " 
						transform="rotate(51.428571428571 0,1.25 )"
						stroke-width ="0.1"
						fill="rgb(1,33,12)"
						/><circle cx="0" cy="1.25" r="0.1625" fill="rgb(88,56,225)"/><circle cx="0.08" cy="1.17" r="0.10833333333333" fill="rgb(95.5,71.5,231.5)"/><path d="M 0,1.25 
						q 0.8325 0.8325 0.275,0.625 q 0.8325 0.8325 0.05,0.625 q 0.8325 0.8325 -0.025,0.0625 q 0.8325 0.8325 -0.3,1 
						M 0,1.25 
						q -0.8325 0.8325 -0.275,0.625 q -0.8325 0.8325 -0.05,0.625 q -0.8325 0.8325 0.025,0.0625 q -0.8325 0.8325 0.3,1 " 
						transform="rotate(77.142857142857 0,1.25 )"
						stroke-width ="0.1"
						fill="rgb(0,32.5,5.5)"
						/><circle cx="0" cy="1.25" r="0.1625" fill="rgb(88,56,225)"/><circle cx="-0.03" cy="1.28" r="0.10833333333333" fill="rgb(95.5,71.5,231.5)"/><path d="M 0,1.25 
						q 0.8325 0.8325 0.275,0.625 q 0.8325 0.8325 0.05,0.625 q 0.8325 0.8325 -0.025,0.0625 q 0.8325 0.8325 -0.3,1 
						M 0,1.25 
						q -0.8325 0.8325 -0.275,0.625 q -0.8325 0.8325 -0.05,0.625 q -0.8325 0.8325 0.025,0.0625 q -0.8325 0.8325 0.3,1 " 
						transform="rotate(102.85714285714 0,1.25 )"
						stroke-width ="0.1"
						fill="rgb(0,18,3)"
						/><circle cx="0" cy="1.25" r="0.1625" fill="rgb(88,56,225)"/><circle cx="0" cy="1.32" r="0.10833333333333" fill="rgb(95.5,71.5,231.5)"/><path d="M 0,1.25 
						q 0.8325 0.8325 0.275,0.625 q 0.8325 0.8325 0.05,0.625 q 0.8325 0.8325 -0.025,0.0625 q 0.8325 0.8325 -0.3,1 
						M 0,1.25 
						q -0.8325 0.8325 -0.275,0.625 q -0.8325 0.8325 -0.05,0.625 q -0.8325 0.8325 0.025,0.0625 q -0.8325 0.8325 0.3,1 " 
						transform="rotate(128.57142857143 0,1.25 )"
						stroke-width ="0.1"
						fill="rgb(0,14.5,0)"
						/><circle cx="0" cy="1.25" r="0.1625" fill="rgb(88,56,225)"/><circle cx="-0.06" cy="1.18" r="0.10833333333333" fill="rgb(95.5,71.5,231.5)"/><path d="M 0,1.25 
						q 0.8325 0.8325 0.275,0.625 q 0.8325 0.8325 0.05,0.625 q 0.8325 0.8325 -0.025,0.0625 q 0.8325 0.8325 -0.3,1 
						M 0,1.25 
						q -0.8325 0.8325 -0.275,0.625 q -0.8325 0.8325 -0.05,0.625 q -0.8325 0.8325 0.025,0.0625 q -0.8325 0.8325 0.3,1 " 
						transform="rotate(154.28571428571 0,1.25 )"
						stroke-width ="0.1"
						fill="rgb(0,21,0)"
						/><circle cx="0" cy="1.25" r="0.1625" fill="rgb(88,56,225)"/><circle cx="0.09" cy="1.17" r="0.10833333333333" fill="rgb(95.5,71.5,231.5)"/><path d="M 0,1.25 
						q 0.8325 0.8325 0.275,0.625 q 0.8325 0.8325 0.05,0.625 q 0.8325 0.8325 -0.025,0.0625 q 0.8325 0.8325 -0.3,1 
						M 0,1.25 
						q -0.8325 0.8325 -0.275,0.625 q -0.8325 0.8325 -0.05,0.625 q -0.8325 0.8325 0.025,0.0625 q -0.8325 0.8325 0.3,1 " 
						transform="rotate(180 0,1.25 )"
						stroke-width ="0.1"
						fill="rgb(0,9.5,0)"
						/><circle cx="0" cy="1.25" r="0.1625" fill="rgb(88,56,225)"/><circle cx="0.07" cy="1.3" r="0.10833333333333" fill="rgb(95.5,71.5,231.5)"/><path d="M 0,1.25 
						q 0.8325 0.8325 0.275,0.625 q 0.8325 0.8325 0.05,0.625 q 0.8325 0.8325 -0.025,0.0625 q 0.8325 0.8325 -0.3,1 
						M 0,1.25 
						q -0.8325 0.8325 -0.275,0.625 q -0.8325 0.8325 -0.05,0.625 q -0.8325 0.8325 0.025,0.0625 q -0.8325 0.8325 0.3,1 " 
						transform="rotate(205.71428571429 0,1.25 )"
						stroke-width ="0.1"
						fill="rgb(0,4,0)"
						/><circle cx="0" cy="1.25" r="0.1625" fill="rgb(88,56,225)"/><circle cx="-0.01" cy="1.18" r="0.10833333333333" fill="rgb(95.5,71.5,231.5)"/><path d="M 0,1.25 
						q 0.8325 0.8325 0.275,0.625 q 0.8325 0.8325 0.05,0.625 q 0.8325 0.8325 -0.025,0.0625 q 0.8325 0.8325 -0.3,1 
						M 0,1.25 
						q -0.8325 0.8325 -0.275,0.625 q -0.8325 0.8325 -0.05,0.625 q -0.8325 0.8325 0.025,0.0625 q -0.8325 0.8325 0.3,1 " 
						transform="rotate(231.42857142857 0,1.25 )"
						stroke-width ="0.1"
						fill="rgb(0,5.5,0)"
						/><circle cx="0" cy="1.25" r="0.1625" fill="rgb(88,56,225)"/><circle cx="-0.06" cy="1.29" r="0.10833333333333" fill="rgb(95.5,71.5,231.5)"/><path d="M 0,1.25 
						q 0.8325 0.8325 0.275,0.625 q 0.8325 0.8325 0.05,0.625 q 0.8325 0.8325 -0.025,0.0625 q 0.8325 0.8325 -0.3,1 
						M 0,1.25 
						q -0.8325 0.8325 -0.275,0.625 q -0.8325 0.8325 -0.05,0.625 q -0.8325 0.8325 0.025,0.0625 q -0.8325 0.8325 0.3,1 " 
						transform="rotate(257.14285714286 0,1.25 )"
						stroke-width ="0.1"
						fill="rgb(0,6,0)"
						/><circle cx="0" cy="1.25" r="0.1625" fill="rgb(88,56,225)"/><circle cx="-0.09" cy="1.25" r="0.10833333333333" fill="rgb(95.5,71.5,231.5)"/><path d="M 0,1.25 
						q 0.8325 0.8325 0.275,0.625 q 0.8325 0.8325 0.05,0.625 q 0.8325 0.8325 -0.025,0.0625 q 0.8325 0.8325 -0.3,1 
						M 0,1.25 
						q -0.8325 0.8325 -0.275,0.625 q -0.8325 0.8325 -0.05,0.625 q -0.8325 0.8325 0.025,0.0625 q -0.8325 0.8325 0.3,1 " 
						transform="rotate(282.85714285714 0,1.25 )"
						stroke-width ="0.1"
						fill="rgb(0,11.5,0)"
						/><circle cx="0" cy="1.25" r="0.1625" fill="rgb(88,56,225)"/><circle cx="0.05" cy="1.27" r="0.10833333333333" fill="rgb(95.5,71.5,231.5)"/><path d="M 0,1.25 
						q 0.8325 0.8325 0.275,0.625 q 0.8325 0.8325 0.05,0.625 q 0.8325 0.8325 -0.025,0.0625 q 0.8325 0.8325 -0.3,1 
						M 0,1.25 
						q -0.8325 0.8325 -0.275,0.625 q -0.8325 0.8325 -0.05,0.625 q -0.8325 0.8325 0.025,0.0625 q -0.8325 0.8325 0.3,1 " 
						transform="rotate(308.57142857143 0,1.25 )"
						stroke-width ="0.1"
						fill="rgb(0,7,0)"
						/><circle cx="0" cy="1.25" r="0.1625" fill="rgb(88,56,225)"/><circle cx="0.07" cy="1.31" r="0.10833333333333" fill="rgb(95.5,71.5,231.5)"/><path d="M 0,1.25 
						q 0.8325 0.8325 0.275,0.625 q 0.8325 0.8325 0.05,0.625 q 0.8325 0.8325 -0.025,0.0625 q 0.8325 0.8325 -0.3,1 
						M 0,1.25 
						q -0.8325 0.8325 -0.275,0.625 q -0.8325 0.8325 -0.05,0.625 q -0.8325 0.8325 0.025,0.0625 q -0.8325 0.8325 0.3,1 " 
						transform="rotate(334.28571428571 0,1.25 )"
						stroke-width ="0.1"
						fill="rgb(0,0,0)"
						/><circle cx="0" cy="1.25" r="0.1625" fill="rgb(88,56,225)"/><circle cx="0.08" cy="1.22" r="0.10833333333333" fill="rgb(95.5,71.5,231.5)"/><path d="M 0,1.25 
						q 0.8325 0.8325 0.275,0.625 q 0.8325 0.8325 0.05,0.625 q 0.8325 0.8325 -0.025,0.0625 q 0.8325 0.8325 -0.3,1 
						M 0,1.25 
						q -0.8325 0.8325 -0.275,0.625 q -0.8325 0.8325 -0.05,0.625 q -0.8325 0.8325 0.025,0.0625 q -0.8325 0.8325 0.3,1 " 
						transform="rotate(360 0,1.25 )"
						stroke-width ="0.1"
						fill="rgb(0,1,0)"
						/><circle cx="0" cy="1.25" r="0.1625" fill="rgb(88,56,225)"/><circle cx="0.09" cy="1.32" r="0.10833333333333" fill="rgb(95.5,71.5,231.5)"/></g><g id="flower3"><path d="M 0,1.875 
						q 1.24875 1.24875 0.3125,0.9375 q 1.24875 1.24875 0.075,0.9375 q 1.24875 1.24875 -0.0375,0.09375 q 1.24875 1.24875 -0.35,1 
						M 0,1.875 
						q -1.24875 1.24875 -0.3125,0.9375 q -1.24875 1.24875 -0.075,0.9375 q -1.24875 1.24875 0.0375,0.09375 q -1.24875 1.24875 0.35,1 " 
						transform="rotate(0 0,1.875 )"
						stroke-width ="0.1"
						fill="rgb(13,35,12)"
						/><path d="M 0,1.875 
						q 1.24875 1.24875 0.3125,0.9375 q 1.24875 1.24875 0.075,0.9375 q 1.24875 1.24875 -0.0375,0.09375 q 1.24875 1.24875 -0.35,1 
						M 0,1.875 
						q -1.24875 1.24875 -0.3125,0.9375 q -1.24875 1.24875 -0.075,0.9375 q -1.24875 1.24875 0.0375,0.09375 q -1.24875 1.24875 0.35,1 " 
						transform="rotate(12.857142857143 0,1.875 )"
						stroke-width ="0.1"
						fill="rgb(0.5,25.5,18.5)"
						/><path d="M 0,1.875 
						q 1.24875 1.24875 0.3125,0.9375 q 1.24875 1.24875 0.075,0.9375 q 1.24875 1.24875 -0.0375,0.09375 q 1.24875 1.24875 -0.35,1 
						M 0,1.875 
						q -1.24875 1.24875 -0.3125,0.9375 q -1.24875 1.24875 -0.075,0.9375 q -1.24875 1.24875 0.0375,0.09375 q -1.24875 1.24875 0.35,1 " 
						transform="rotate(25.714285714286 0,1.875 )"
						stroke-width ="0.1"
						fill="rgb(0,24,11)"
						/><path d="M 0,1.875 
						q 1.24875 1.24875 0.3125,0.9375 q 1.24875 1.24875 0.075,0.9375 q 1.24875 1.24875 -0.0375,0.09375 q 1.24875 1.24875 -0.35,1 
						M 0,1.875 
						q -1.24875 1.24875 -0.3125,0.9375 q -1.24875 1.24875 -0.075,0.9375 q -1.24875 1.24875 0.0375,0.09375 q -1.24875 1.24875 0.35,1 " 
						transform="rotate(38.571428571429 0,1.875 )"
						stroke-width ="0.1"
						fill="rgb(0,20.5,0)"
						/></g><g id="flower4"><path d="M 0,2.5 
						q 1.665 1.665 0.35,1.25 q 1.665 1.665 0.1,1.25 q 1.665 1.665 -0.05,0.125 q 1.665 1.665 -0.4,1 
						M 0,2.5 
						q -1.665 1.665 -0.35,1.25 q -1.665 1.665 -0.1,1.25 q -1.665 1.665 0.05,0.125 q -1.665 1.665 0.4,1 " 
						transform="rotate(0 0,2.5 )"
						stroke-width ="0.1"
						fill="rgb(13,37,7)"
						/><path d="M 0,2.5 
						q 1.665 1.665 0.35,1.25 q 1.665 1.665 0.1,1.25 q 1.665 1.665 -0.05,0.125 q 1.665 1.665 -0.4,1 
						M 0,2.5 
						q -1.665 1.665 -0.35,1.25 q -1.665 1.665 -0.1,1.25 q -1.665 1.665 0.05,0.125 q -1.665 1.665 0.4,1 " 
						transform="rotate(12.857142857143 0,2.5 )"
						stroke-width ="0.1"
						fill="rgb(0,30.5,3.5)"
						/><path d="M 0,2.5 
						q 1.665 1.665 0.35,1.25 q 1.665 1.665 0.1,1.25 q 1.665 1.665 -0.05,0.125 q 1.665 1.665 -0.4,1 
						M 0,2.5 
						q -1.665 1.665 -0.35,1.25 q -1.665 1.665 -0.1,1.25 q -1.665 1.665 0.05,0.125 q -1.665 1.665 0.4,1 " 
						transform="rotate(25.714285714286 0,2.5 )"
						stroke-width ="0.1"
						fill="rgb(0,32,3)"
						/><path d="M 0,2.5 
						q 1.665 1.665 0.35,1.25 q 1.665 1.665 0.1,1.25 q 1.665 1.665 -0.05,0.125 q 1.665 1.665 -0.4,1 
						M 0,2.5 
						q -1.665 1.665 -0.35,1.25 q -1.665 1.665 -0.1,1.25 q -1.665 1.665 0.05,0.125 q -1.665 1.665 0.4,1 " 
						transform="rotate(38.571428571429 0,2.5 )"
						stroke-width ="0.1"
						fill="rgb(0,29.5,3.5)"
						/></g><g id="flower5"><path d="M 0,3.125 
						q 2.08125 2.08125 0.3875,1.5625 q 2.08125 2.08125 0.125,1.5625 q 2.08125 2.08125 -0.0625,0.15625 q 2.08125 2.08125 -0.45,1 
						M 0,3.125 
						q -2.08125 2.08125 -0.3875,1.5625 q -2.08125 2.08125 -0.125,1.5625 q -2.08125 2.08125 0.0625,0.15625 q -2.08125 2.08125 0.45,1 " 
						transform="rotate(0 0,3.125 )"
						stroke-width ="0.1"
						fill="rgb(8,34,5)"
						/><path d="M 0,3.125 
						q 2.08125 2.08125 0.3875,1.5625 q 2.08125 2.08125 0.125,1.5625 q 2.08125 2.08125 -0.0625,0.15625 q 2.08125 2.08125 -0.45,1 
						M 0,3.125 
						q -2.08125 2.08125 -0.3875,1.5625 q -2.08125 2.08125 -0.125,1.5625 q -2.08125 2.08125 0.0625,0.15625 q -2.08125 2.08125 0.45,1 " 
						transform="rotate(12.857142857143 0,3.125 )"
						stroke-width ="0.1"
						fill="rgb(11.5,32.5,5.5)"
						/><path d="M 0,3.125 
						q 2.08125 2.08125 0.3875,1.5625 q 2.08125 2.08125 0.125,1.5625 q 2.08125 2.08125 -0.0625,0.15625 q 2.08125 2.08125 -0.45,1 
						M 0,3.125 
						q -2.08125 2.08125 -0.3875,1.5625 q -2.08125 2.08125 -0.125,1.5625 q -2.08125 2.08125 0.0625,0.15625 q -2.08125 2.08125 0.45,1 " 
						transform="rotate(25.714285714286 0,3.125 )"
						stroke-width ="0.1"
						fill="rgb(5,32,0)"
						/><path d="M 0,3.125 
						q 2.08125 2.08125 0.3875,1.5625 q 2.08125 2.08125 0.125,1.5625 q 2.08125 2.08125 -0.0625,0.15625 q 2.08125 2.08125 -0.45,1 
						M 0,3.125 
						q -2.08125 2.08125 -0.3875,1.5625 q -2.08125 2.08125 -0.125,1.5625 q -2.08125 2.08125 0.0625,0.15625 q -2.08125 2.08125 0.45,1 " 
						transform="rotate(38.571428571429 0,3.125 )"
						stroke-width ="0.1"
						fill="rgb(0,13.5,10.5)"
						/></g><g id="flower6"><path d="M 0,3.75 
						q 2.4975 2.4975 0.425,1.875 q 2.4975 2.4975 0.15,1.875 q 2.4975 2.4975 -0.075,0.1875 q 2.4975 2.4975 -0.5,1 
						M 0,3.75 
						q -2.4975 2.4975 -0.425,1.875 q -2.4975 2.4975 -0.15,1.875 q -2.4975 2.4975 0.075,0.1875 q -2.4975 2.4975 0.5,1 " 
						transform="rotate(0 0,3.75 )"
						stroke-width ="0.1"
						fill="rgb(5,36,4)"
						/><path d="M 0,3.75 
						q 2.4975 2.4975 0.425,1.875 q 2.4975 2.4975 0.15,1.875 q 2.4975 2.4975 -0.075,0.1875 q 2.4975 2.4975 -0.5,1 
						M 0,3.75 
						q -2.4975 2.4975 -0.425,1.875 q -2.4975 2.4975 -0.15,1.875 q -2.4975 2.4975 0.075,0.1875 q -2.4975 2.4975 0.5,1 " 
						transform="rotate(12.857142857143 0,3.75 )"
						stroke-width ="0.1"
						fill="rgb(0.5,20.5,12.5)"
						/><path d="M 0,3.75 
						q 2.4975 2.4975 0.425,1.875 q 2.4975 2.4975 0.15,1.875 q 2.4975 2.4975 -0.075,0.1875 q 2.4975 2.4975 -0.5,1 
						M 0,3.75 
						q -2.4975 2.4975 -0.425,1.875 q -2.4975 2.4975 -0.15,1.875 q -2.4975 2.4975 0.075,0.1875 q -2.4975 2.4975 0.5,1 " 
						transform="rotate(25.714285714286 0,3.75 )"
						stroke-width ="0.1"
						fill="rgb(0,21,8)"
						/><path d="M 0,3.75 
						q 2.4975 2.4975 0.425,1.875 q 2.4975 2.4975 0.15,1.875 q 2.4975 2.4975 -0.075,0.1875 q 2.4975 2.4975 -0.5,1 
						M 0,3.75 
						q -2.4975 2.4975 -0.425,1.875 q -2.4975 2.4975 -0.15,1.875 q -2.4975 2.4975 0.075,0.1875 q -2.4975 2.4975 0.5,1 " 
						transform="rotate(38.571428571429 0,3.75 )"
						stroke-width ="0.1"
						fill="rgb(1.5,30.5,7.5)"
						/></g><g id="flower7"><path d="M 0,4.375 
						q 2.91375 2.91375 0.4625,2.1875 q 2.91375 2.91375 0.175,2.1875 q 2.91375 2.91375 -0.0875,0.21875 q 2.91375 2.91375 -0.55,1 
						M 0,4.375 
						q -2.91375 2.91375 -0.4625,2.1875 q -2.91375 2.91375 -0.175,2.1875 q -2.91375 2.91375 0.0875,0.21875 q -2.91375 2.91375 0.55,1 " 
						transform="rotate(0 0,4.375 )"
						stroke-width ="0.1"
						fill="rgb(2,31,21)"
						/><circle cx="0" cy="4.375" r="0.56875" fill="rgb(89,53,218)"/><circle cx="-0.06" cy="4.465" r="0.37916666666667" fill="rgb(106.5,73.5,232.5)"/><path d="M 0,4.375 
						q 2.91375 2.91375 0.4625,2.1875 q 2.91375 2.91375 0.175,2.1875 q 2.91375 2.91375 -0.0875,0.21875 q 2.91375 2.91375 -0.55,1 
						M 0,4.375 
						q -2.91375 2.91375 -0.4625,2.1875 q -2.91375 2.91375 -0.175,2.1875 q -2.91375 2.91375 0.0875,0.21875 q -2.91375 2.91375 0.55,1 " 
						transform="rotate(25.714285714286 0,4.375 )"
						stroke-width ="0.1"
						fill="rgb(4.5,29.5,0)"
						/><circle cx="0" cy="4.375" r="0.56875" fill="rgb(89,53,218)"/><circle cx="-0.08" cy="4.395" r="0.37916666666667" fill="rgb(106.5,73.5,232.5)"/><path d="M 0,4.375 
						q 2.91375 2.91375 0.4625,2.1875 q 2.91375 2.91375 0.175,2.1875 q 2.91375 2.91375 -0.0875,0.21875 q 2.91375 2.91375 -0.55,1 
						M 0,4.375 
						q -2.91375 2.91375 -0.4625,2.1875 q -2.91375 2.91375 -0.175,2.1875 q -2.91375 2.91375 0.0875,0.21875 q -2.91375 2.91375 0.55,1 " 
						transform="rotate(51.428571428571 0,4.375 )"
						stroke-width ="0.1"
						fill="rgb(0,18,1)"
						/><circle cx="0" cy="4.375" r="0.56875" fill="rgb(89,53,218)"/><circle cx="-0.06" cy="4.295" r="0.37916666666667" fill="rgb(106.5,73.5,232.5)"/><path d="M 0,4.375 
						q 2.91375 2.91375 0.4625,2.1875 q 2.91375 2.91375 0.175,2.1875 q 2.91375 2.91375 -0.0875,0.21875 q 2.91375 2.91375 -0.55,1 
						M 0,4.375 
						q -2.91375 2.91375 -0.4625,2.1875 q -2.91375 2.91375 -0.175,2.1875 q -2.91375 2.91375 0.0875,0.21875 q -2.91375 2.91375 0.55,1 " 
						transform="rotate(77.142857142857 0,4.375 )"
						stroke-width ="0.1"
						fill="rgb(0,19.5,13.5)"
						/><circle cx="0" cy="4.375" r="0.56875" fill="rgb(89,53,218)"/><circle cx="0.09" cy="4.465" r="0.37916666666667" fill="rgb(106.5,73.5,232.5)"/><path d="M 0,4.375 
						q 2.91375 2.91375 0.4625,2.1875 q 2.91375 2.91375 0.175,2.1875 q 2.91375 2.91375 -0.0875,0.21875 q 2.91375 2.91375 -0.55,1 
						M 0,4.375 
						q -2.91375 2.91375 -0.4625,2.1875 q -2.91375 2.91375 -0.175,2.1875 q -2.91375 2.91375 0.0875,0.21875 q -2.91375 2.91375 0.55,1 " 
						transform="rotate(102.85714285714 0,4.375 )"
						stroke-width ="0.1"
						fill="rgb(0,13,0)"
						/><circle cx="0" cy="4.375" r="0.56875" fill="rgb(89,53,218)"/><circle cx="-0.03" cy="4.365" r="0.37916666666667" fill="rgb(106.5,73.5,232.5)"/><path d="M 0,4.375 
						q 2.91375 2.91375 0.4625,2.1875 q 2.91375 2.91375 0.175,2.1875 q 2.91375 2.91375 -0.0875,0.21875 q 2.91375 2.91375 -0.55,1 
						M 0,4.375 
						q -2.91375 2.91375 -0.4625,2.1875 q -2.91375 2.91375 -0.175,2.1875 q -2.91375 2.91375 0.0875,0.21875 q -2.91375 2.91375 0.55,1 " 
						transform="rotate(128.57142857143 0,4.375 )"
						stroke-width ="0.1"
						fill="rgb(0,20.5,0)"
						/><circle cx="0" cy="4.375" r="0.56875" fill="rgb(89,53,218)"/><circle cx="-0.07" cy="4.435" r="0.37916666666667" fill="rgb(106.5,73.5,232.5)"/><path d="M 0,4.375 
						q 2.91375 2.91375 0.4625,2.1875 q 2.91375 2.91375 0.175,2.1875 q 2.91375 2.91375 -0.0875,0.21875 q 2.91375 2.91375 -0.55,1 
						M 0,4.375 
						q -2.91375 2.91375 -0.4625,2.1875 q -2.91375 2.91375 -0.175,2.1875 q -2.91375 2.91375 0.0875,0.21875 q -2.91375 2.91375 0.55,1 " 
						transform="rotate(154.28571428571 0,4.375 )"
						stroke-width ="0.1"
						fill="rgb(0,21,2)"
						/><circle cx="0" cy="4.375" r="0.56875" fill="rgb(89,53,218)"/><circle cx="-0.03" cy="4.345" r="0.37916666666667" fill="rgb(106.5,73.5,232.5)"/><path d="M 0,4.375 
						q 2.91375 2.91375 0.4625,2.1875 q 2.91375 2.91375 0.175,2.1875 q 2.91375 2.91375 -0.0875,0.21875 q 2.91375 2.91375 -0.55,1 
						M 0,4.375 
						q -2.91375 2.91375 -0.4625,2.1875 q -2.91375 2.91375 -0.175,2.1875 q -2.91375 2.91375 0.0875,0.21875 q -2.91375 2.91375 0.55,1 " 
						transform="rotate(180 0,4.375 )"
						stroke-width ="0.1"
						fill="rgb(0,16.5,0)"
						/><circle cx="0" cy="4.375" r="0.56875" fill="rgb(89,53,218)"/><circle cx="-0.04" cy="4.365" r="0.37916666666667" fill="rgb(106.5,73.5,232.5)"/><path d="M 0,4.375 
						q 2.91375 2.91375 0.4625,2.1875 q 2.91375 2.91375 0.175,2.1875 q 2.91375 2.91375 -0.0875,0.21875 q 2.91375 2.91375 -0.55,1 
						M 0,4.375 
						q -2.91375 2.91375 -0.4625,2.1875 q -2.91375 2.91375 -0.175,2.1875 q -2.91375 2.91375 0.0875,0.21875 q -2.91375 2.91375 0.55,1 " 
						transform="rotate(205.71428571429 0,4.375 )"
						stroke-width ="0.1"
						fill="rgb(0,3,0)"
						/><circle cx="0" cy="4.375" r="0.56875" fill="rgb(89,53,218)"/><circle cx="0.02" cy="4.385" r="0.37916666666667" fill="rgb(106.5,73.5,232.5)"/><path d="M 0,4.375 
						q 2.91375 2.91375 0.4625,2.1875 q 2.91375 2.91375 0.175,2.1875 q 2.91375 2.91375 -0.0875,0.21875 q 2.91375 2.91375 -0.55,1 
						M 0,4.375 
						q -2.91375 2.91375 -0.4625,2.1875 q -2.91375 2.91375 -0.175,2.1875 q -2.91375 2.91375 0.0875,0.21875 q -2.91375 2.91375 0.55,1 " 
						transform="rotate(231.42857142857 0,4.375 )"
						stroke-width ="0.1"
						fill="rgb(0,15.5,0)"
						/><circle cx="0" cy="4.375" r="0.56875" fill="rgb(89,53,218)"/><circle cx="0.09" cy="4.355" r="0.37916666666667" fill="rgb(106.5,73.5,232.5)"/><path d="M 0,4.375 
						q 2.91375 2.91375 0.4625,2.1875 q 2.91375 2.91375 0.175,2.1875 q 2.91375 2.91375 -0.0875,0.21875 q 2.91375 2.91375 -0.55,1 
						M 0,4.375 
						q -2.91375 2.91375 -0.4625,2.1875 q -2.91375 2.91375 -0.175,2.1875 q -2.91375 2.91375 0.0875,0.21875 q -2.91375 2.91375 0.55,1 " 
						transform="rotate(257.14285714286 0,4.375 )"
						stroke-width ="0.1"
						fill="rgb(0,0,0)"
						/><circle cx="0" cy="4.375" r="0.56875" fill="rgb(89,53,218)"/><circle cx="0.06" cy="4.385" r="0.37916666666667" fill="rgb(106.5,73.5,232.5)"/><path d="M 0,4.375 
						q 2.91375 2.91375 0.4625,2.1875 q 2.91375 2.91375 0.175,2.1875 q 2.91375 2.91375 -0.0875,0.21875 q 2.91375 2.91375 -0.55,1 
						M 0,4.375 
						q -2.91375 2.91375 -0.4625,2.1875 q -2.91375 2.91375 -0.175,2.1875 q -2.91375 2.91375 0.0875,0.21875 q -2.91375 2.91375 0.55,1 " 
						transform="rotate(282.85714285714 0,4.375 )"
						stroke-width ="0.1"
						fill="rgb(0,12.5,0)"
						/><circle cx="0" cy="4.375" r="0.56875" fill="rgb(89,53,218)"/><circle cx="-0.08" cy="4.275" r="0.37916666666667" fill="rgb(106.5,73.5,232.5)"/><path d="M 0,4.375 
						q 2.91375 2.91375 0.4625,2.1875 q 2.91375 2.91375 0.175,2.1875 q 2.91375 2.91375 -0.0875,0.21875 q 2.91375 2.91375 -0.55,1 
						M 0,4.375 
						q -2.91375 2.91375 -0.4625,2.1875 q -2.91375 2.91375 -0.175,2.1875 q -2.91375 2.91375 0.0875,0.21875 q -2.91375 2.91375 0.55,1 " 
						transform="rotate(308.57142857143 0,4.375 )"
						stroke-width ="0.1"
						fill="rgb(0,9,0)"
						/><circle cx="0" cy="4.375" r="0.56875" fill="rgb(89,53,218)"/><circle cx="0.07" cy="4.425" r="0.37916666666667" fill="rgb(106.5,73.5,232.5)"/><path d="M 0,4.375 
						q 2.91375 2.91375 0.4625,2.1875 q 2.91375 2.91375 0.175,2.1875 q 2.91375 2.91375 -0.0875,0.21875 q 2.91375 2.91375 -0.55,1 
						M 0,4.375 
						q -2.91375 2.91375 -0.4625,2.1875 q -2.91375 2.91375 -0.175,2.1875 q -2.91375 2.91375 0.0875,0.21875 q -2.91375 2.91375 0.55,1 " 
						transform="rotate(334.28571428571 0,4.375 )"
						stroke-width ="0.1"
						fill="rgb(0,3.5,0)"
						/><circle cx="0" cy="4.375" r="0.56875" fill="rgb(89,53,218)"/><circle cx="0.1" cy="4.415" r="0.37916666666667" fill="rgb(106.5,73.5,232.5)"/><path d="M 0,4.375 
						q 2.91375 2.91375 0.4625,2.1875 q 2.91375 2.91375 0.175,2.1875 q 2.91375 2.91375 -0.0875,0.21875 q 2.91375 2.91375 -0.55,1 
						M 0,4.375 
						q -2.91375 2.91375 -0.4625,2.1875 q -2.91375 2.91375 -0.175,2.1875 q -2.91375 2.91375 0.0875,0.21875 q -2.91375 2.91375 0.55,1 " 
						transform="rotate(360 0,4.375 )"
						stroke-width ="0.1"
						fill="rgb(0,0,0)"
						/><circle cx="0" cy="4.375" r="0.56875" fill="rgb(89,53,218)"/><circle cx="-0.06" cy="4.475" r="0.37916666666667" fill="rgb(106.5,73.5,232.5)"/></g><g id="flower8"><path d="M 0,5 
						q 3.33 3.33 0.5,2.5 q 3.33 3.33 0.2,2.5 q 3.33 3.33 -0.1,0.25 q 3.33 3.33 -0.6,1 
						M 0,5 
						q -3.33 3.33 -0.5,2.5 q -3.33 3.33 -0.2,2.5 q -3.33 3.33 0.1,0.25 q -3.33 3.33 0.6,1 " 
						transform="rotate(0 0,5 )"
						stroke-width ="0.1"
						fill="rgb(4,35,6)"
						/><circle cx="0" cy="5" r="0.65" fill="rgb(92,53,224)"/><circle cx="0.09" cy="4.92" r="0.43333333333333" fill="rgb(91.5,54.5,228.5)"/><path d="M 0,5 
						q 3.33 3.33 0.5,2.5 q 3.33 3.33 0.2,2.5 q 3.33 3.33 -0.1,0.25 q 3.33 3.33 -0.6,1 
						M 0,5 
						q -3.33 3.33 -0.5,2.5 q -3.33 3.33 -0.2,2.5 q -3.33 3.33 0.1,0.25 q -3.33 3.33 0.6,1 " 
						transform="rotate(25.714285714286 0,5 )"
						stroke-width ="0.1"
						fill="rgb(7.5,26.5,9.5)"
						/><circle cx="0" cy="5" r="0.65" fill="rgb(92,53,224)"/><circle cx="0.02" cy="5.01" r="0.43333333333333" fill="rgb(91.5,54.5,228.5)"/><path d="M 0,5 
						q 3.33 3.33 0.5,2.5 q 3.33 3.33 0.2,2.5 q 3.33 3.33 -0.1,0.25 q 3.33 3.33 -0.6,1 
						M 0,5 
						q -3.33 3.33 -0.5,2.5 q -3.33 3.33 -0.2,2.5 q -3.33 3.33 0.1,0.25 q -3.33 3.33 0.6,1 " 
						transform="rotate(51.428571428571 0,5 )"
						stroke-width ="0.1"
						fill="rgb(4,26,13)"
						/><circle cx="0" cy="5" r="0.65" fill="rgb(92,53,224)"/><circle cx="0.05" cy="5.03" r="0.43333333333333" fill="rgb(91.5,54.5,228.5)"/><path d="M 0,5 
						q 3.33 3.33 0.5,2.5 q 3.33 3.33 0.2,2.5 q 3.33 3.33 -0.1,0.25 q 3.33 3.33 -0.6,1 
						M 0,5 
						q -3.33 3.33 -0.5,2.5 q -3.33 3.33 -0.2,2.5 q -3.33 3.33 0.1,0.25 q -3.33 3.33 0.6,1 " 
						transform="rotate(77.142857142857 0,5 )"
						stroke-width ="0.1"
						fill="rgb(0,20.5,0)"
						/><circle cx="0" cy="5" r="0.65" fill="rgb(92,53,224)"/><circle cx="-0.04" cy="5.1" r="0.43333333333333" fill="rgb(91.5,54.5,228.5)"/><path d="M 0,5 
						q 3.33 3.33 0.5,2.5 q 3.33 3.33 0.2,2.5 q 3.33 3.33 -0.1,0.25 q 3.33 3.33 -0.6,1 
						M 0,5 
						q -3.33 3.33 -0.5,2.5 q -3.33 3.33 -0.2,2.5 q -3.33 3.33 0.1,0.25 q -3.33 3.33 0.6,1 " 
						transform="rotate(102.85714285714 0,5 )"
						stroke-width ="0.1"
						fill="rgb(0,25,10)"
						/><circle cx="0" cy="5" r="0.65" fill="rgb(92,53,224)"/><circle cx="-0.04" cy="5.1" r="0.43333333333333" fill="rgb(91.5,54.5,228.5)"/><path d="M 0,5 
						q 3.33 3.33 0.5,2.5 q 3.33 3.33 0.2,2.5 q 3.33 3.33 -0.1,0.25 q 3.33 3.33 -0.6,1 
						M 0,5 
						q -3.33 3.33 -0.5,2.5 q -3.33 3.33 -0.2,2.5 q -3.33 3.33 0.1,0.25 q -3.33 3.33 0.6,1 " 
						transform="rotate(128.57142857143 0,5 )"
						stroke-width ="0.1"
						fill="rgb(0,20.5,5.5)"
						/><circle cx="0" cy="5" r="0.65" fill="rgb(92,53,224)"/><circle cx="0.09" cy="5.04" r="0.43333333333333" fill="rgb(91.5,54.5,228.5)"/><path d="M 0,5 
						q 3.33 3.33 0.5,2.5 q 3.33 3.33 0.2,2.5 q 3.33 3.33 -0.1,0.25 q 3.33 3.33 -0.6,1 
						M 0,5 
						q -3.33 3.33 -0.5,2.5 q -3.33 3.33 -0.2,2.5 q -3.33 3.33 0.1,0.25 q -3.33 3.33 0.6,1 " 
						transform="rotate(154.28571428571 0,5 )"
						stroke-width ="0.1"
						fill="rgb(0,11,0)"
						/><circle cx="0" cy="5" r="0.65" fill="rgb(92,53,224)"/><circle cx="-0.01" cy="4.92" r="0.43333333333333" fill="rgb(91.5,54.5,228.5)"/><path d="M 0,5 
						q 3.33 3.33 0.5,2.5 q 3.33 3.33 0.2,2.5 q 3.33 3.33 -0.1,0.25 q 3.33 3.33 -0.6,1 
						M 0,5 
						q -3.33 3.33 -0.5,2.5 q -3.33 3.33 -0.2,2.5 q -3.33 3.33 0.1,0.25 q -3.33 3.33 0.6,1 " 
						transform="rotate(180 0,5 )"
						stroke-width ="0.1"
						fill="rgb(0,17.5,0)"
						/><circle cx="0" cy="5" r="0.65" fill="rgb(92,53,224)"/><circle cx="0.08" cy="4.95" r="0.43333333333333" fill="rgb(91.5,54.5,228.5)"/><path d="M 0,5 
						q 3.33 3.33 0.5,2.5 q 3.33 3.33 0.2,2.5 q 3.33 3.33 -0.1,0.25 q 3.33 3.33 -0.6,1 
						M 0,5 
						q -3.33 3.33 -0.5,2.5 q -3.33 3.33 -0.2,2.5 q -3.33 3.33 0.1,0.25 q -3.33 3.33 0.6,1 " 
						transform="rotate(205.71428571429 0,5 )"
						stroke-width ="0.1"
						fill="rgb(0,20,0)"
						/><circle cx="0" cy="5" r="0.65" fill="rgb(92,53,224)"/><circle cx="0.07" cy="5.03" r="0.43333333333333" fill="rgb(91.5,54.5,228.5)"/><path d="M 0,5 
						q 3.33 3.33 0.5,2.5 q 3.33 3.33 0.2,2.5 q 3.33 3.33 -0.1,0.25 q 3.33 3.33 -0.6,1 
						M 0,5 
						q -3.33 3.33 -0.5,2.5 q -3.33 3.33 -0.2,2.5 q -3.33 3.33 0.1,0.25 q -3.33 3.33 0.6,1 " 
						transform="rotate(231.42857142857 0,5 )"
						stroke-width ="0.1"
						fill="rgb(0,0,0)"
						/><circle cx="0" cy="5" r="0.65" fill="rgb(92,53,224)"/><circle cx="0.08" cy="4.93" r="0.43333333333333" fill="rgb(91.5,54.5,228.5)"/><path d="M 0,5 
						q 3.33 3.33 0.5,2.5 q 3.33 3.33 0.2,2.5 q 3.33 3.33 -0.1,0.25 q 3.33 3.33 -0.6,1 
						M 0,5 
						q -3.33 3.33 -0.5,2.5 q -3.33 3.33 -0.2,2.5 q -3.33 3.33 0.1,0.25 q -3.33 3.33 0.6,1 " 
						transform="rotate(257.14285714286 0,5 )"
						stroke-width ="0.1"
						fill="rgb(0,12,0)"
						/><circle cx="0" cy="5" r="0.65" fill="rgb(92,53,224)"/><circle cx="-0.01" cy="4.97" r="0.43333333333333" fill="rgb(91.5,54.5,228.5)"/><path d="M 0,5 
						q 3.33 3.33 0.5,2.5 q 3.33 3.33 0.2,2.5 q 3.33 3.33 -0.1,0.25 q 3.33 3.33 -0.6,1 
						M 0,5 
						q -3.33 3.33 -0.5,2.5 q -3.33 3.33 -0.2,2.5 q -3.33 3.33 0.1,0.25 q -3.33 3.33 0.6,1 " 
						transform="rotate(282.85714285714 0,5 )"
						stroke-width ="0.1"
						fill="rgb(0,0,0)"
						/><circle cx="0" cy="5" r="0.65" fill="rgb(92,53,224)"/><circle cx="-0.07" cy="4.98" r="0.43333333333333" fill="rgb(91.5,54.5,228.5)"/><path d="M 0,5 
						q 3.33 3.33 0.5,2.5 q 3.33 3.33 0.2,2.5 q 3.33 3.33 -0.1,0.25 q 3.33 3.33 -0.6,1 
						M 0,5 
						q -3.33 3.33 -0.5,2.5 q -3.33 3.33 -0.2,2.5 q -3.33 3.33 0.1,0.25 q -3.33 3.33 0.6,1 " 
						transform="rotate(308.57142857143 0,5 )"
						stroke-width ="0.1"
						fill="rgb(0,8,0)"
						/><circle cx="0" cy="5" r="0.65" fill="rgb(92,53,224)"/><circle cx="-0.07" cy="4.98" r="0.43333333333333" fill="rgb(91.5,54.5,228.5)"/><path d="M 0,5 
						q 3.33 3.33 0.5,2.5 q 3.33 3.33 0.2,2.5 q 3.33 3.33 -0.1,0.25 q 3.33 3.33 -0.6,1 
						M 0,5 
						q -3.33 3.33 -0.5,2.5 q -3.33 3.33 -0.2,2.5 q -3.33 3.33 0.1,0.25 q -3.33 3.33 0.6,1 " 
						transform="rotate(334.28571428571 0,5 )"
						stroke-width ="0.1"
						fill="rgb(0,6.5,0)"
						/><circle cx="0" cy="5" r="0.65" fill="rgb(92,53,224)"/><circle cx="0" cy="5.05" r="0.43333333333333" fill="rgb(91.5,54.5,228.5)"/><path d="M 0,5 
						q 3.33 3.33 0.5,2.5 q 3.33 3.33 0.2,2.5 q 3.33 3.33 -0.1,0.25 q 3.33 3.33 -0.6,1 
						M 0,5 
						q -3.33 3.33 -0.5,2.5 q -3.33 3.33 -0.2,2.5 q -3.33 3.33 0.1,0.25 q -3.33 3.33 0.6,1 " 
						transform="rotate(360 0,5 )"
						stroke-width ="0.1"
						fill="rgb(0,1,0)"
						/><circle cx="0" cy="5" r="0.65" fill="rgb(92,53,224)"/><circle cx="-0.05" cy="5.02" r="0.43333333333333" fill="rgb(91.5,54.5,228.5)"/></g></defs>
				<g class="fullPlant">
					<g>
					<path d ="M 45,91 
					q 6.26 -19.55 9.312,-29.22" fill ="none" stroke ="rgb(139.5,141.5,160.5)" stroke-width ="1.44"/></g><circle cx="54.312" cy="61.78" r="0.72" fill="rgb(139.5,141.5,160.5)"/><use xlink:href="#leaf5"
						x="45" y="91" 
						transform="rotate(212 45.74 91.25)" 	
						fill="rgb(107,115,150)" /><use xlink:href="#leaf7"
						x="45" y="91" 
						transform="rotate(141 45.8 91.96)" 	
						fill="rgb(89,120,168)" /><use xlink:href="#flower6" id="fleur00"
						x="54.312" y="56.78" transform="rotate(142 54.312 61.78)" />
					<g>
					<path d ="M 55,91 
					q -6.26 -35.93 6.852,-39.396" fill ="none" stroke ="rgb(141,140,162)" stroke-width ="1.44"/></g><circle cx="61.852" cy="51.604" r="0.72" fill="rgb(141,140,162)"/><use xlink:href="#leaf4"
						x="55" y="91" 
						transform="rotate(149 55 91)" 	
						fill="rgb(88,99,167)" /><use xlink:href="#leaf4"
						x="55" y="91" 
						transform="rotate(205 55.64 91.95)" 	
						fill="rgb(92,96,147)" /><use xlink:href="#flower5" id="fleur10"
						x="61.852" y="46.604" transform="rotate(134 61.852 51.604)" />
					<g>
					<path d ="M 54,91 
					q 6.26 -14.54 -3.36,-24.408" fill ="none" stroke ="rgb(143.5,138.5,161.5)" stroke-width ="1.44"/></g><circle cx="50.64" cy="66.592" r="0.72" fill="rgb(143.5,138.5,161.5)"/><use xlink:href="#leaf5"
						x="54" y="91" 
						transform="rotate(153 54.25 91.06)" 	
						fill="rgb(106,107,139)" /><use xlink:href="#leaf5"
						x="54" y="91" 
						transform="rotate(154 54 91)" 	
						fill="rgb(99,109,133)" /><use xlink:href="#flower5" id="fleur20"
						x="50.64" y="61.592" transform="rotate(176 50.64 66.592)" />
					<g>
					<path d ="M 53,91 
					q -6.26 -31.99 0.84,-36.828" fill ="none" stroke ="rgb(143,140,161)" stroke-width ="1.44"/></g><circle cx="53.84" cy="54.172" r="0.72" fill="rgb(143,140,161)"/><use xlink:href="#leaf4"
						x="53" y="91" 
						transform="rotate(149 53 91)" 	
						fill="rgb(75,123,134)" /><use xlink:href="#leaf5"
						x="53" y="91" 
						transform="rotate(148 53.56 91.03)" 	
						fill="rgb(92,94,167)" /><use xlink:href="#flower7" id="fleur30"
						x="53.84" y="49.172" transform="rotate(167 53.84 54.172)" /></g>
				</svg>