<svg class="relie" xmlns="http://www.w3.org/2000/svg" viewBox="0 0 100 100" preserveAspectRatio="xMidYMid meet" x="0" y="0" overflow="visible" xmlns:xlink="http://www.w3.org/1999/xlink">

		<defs>  <g id="leaf1" transform="skewX(12) skewY(12)"><path d="M 0,0 
					q 0.075 0.075 0.125,2.90875 q 0.075 0.1 -0.125,1 
					M 0,0 
					q -0.075 0.075 -0.125,2.90875 q -0.075 0.1 0.125,1 " 
					stroke-width ="0.2" /></g>  <g id="leaf2" transform="skewX(-20) skewY(-20)"><path d="M 0,0 
					q 0.15 0.15 0.25,5.8175 q 0.15 0.2 -0.25,1 
					M 0,0 
					q -0.15 0.15 -0.25,5.8175 q -0.15 0.2 0.25,1 " 
					stroke-width ="0.2" /></g>  <g id="leaf3" transform="skewX(2) skewY(2)"><path d="M 0,0 
					q 0.225 0.225 0.375,8.72625 q 0.225 0.3 -0.375,1.02375 
					M 0,0 
					q -0.225 0.225 -0.375,8.72625 q -0.225 0.3 0.375,1.02375 " 
					stroke-width ="0.2" /></g>  <g id="leaf4" transform="skewX(16) skewY(16)"><path d="M 0,0 
					q 0.3 0.3 0.5,11.635 q 0.3 0.4 -0.5,1.365 
					M 0,0 
					q -0.3 0.3 -0.5,11.635 q -0.3 0.4 0.5,1.365 " 
					stroke-width ="0.2" /></g>  <g id="leaf5" transform="skewX(16) skewY(16)"><path d="M 0,0 
					q 0.375 0.375 0.625,14.54375 q 0.375 0.5 -0.625,1.70625 
					M 0,0 
					q -0.375 0.375 -0.625,14.54375 q -0.375 0.5 0.625,1.70625 " 
					stroke-width ="0.2" /></g>  <g id="leaf6" transform="skewX(-15) skewY(-15)"><path d="M 0,0 
					q 0.45 0.45 0.75,17.4525 q 0.45 0.6 -0.75,2.0475 
					M 0,0 
					q -0.45 0.45 -0.75,17.4525 q -0.45 0.6 0.75,2.0475 " 
					stroke-width ="0.2" /></g>  <g id="leaf7" transform="skewX(-11) skewY(-11)"><path d="M 0,0 
					q 0.525 0.525 0.875,20.36125 q 0.525 0.7 -0.875,2.38875 
					M 0,0 
					q -0.525 0.525 -0.875,20.36125 q -0.525 0.7 0.875,2.38875 " 
					stroke-width ="0.2" /></g>  <g id="leaf8" transform="skewX(-19) skewY(-19)"><path d="M 0,0 
					q 0.6 0.6 1,23.27 q 0.6 0.8 -1,2.73 
					M 0,0 
					q -0.6 0.6 -1,23.27 q -0.6 0.8 1,2.73 " 
					stroke-width ="0.2" /></g><g id="flower1"><path d="M 0,0.25 
						q -0.24875 0.03875 0.12,0.050833333333333 q 0.37375 0.02625 0.36875,0.0725 q -0.24875 0.28375 -0.48875,1 
						M 0,0.25 
						q 0.24875 0.03875 -0.12,0.050833333333333 q -0.37375 0.02625 -0.36875,0.0725 q 0.24875 0.28375 0.48875,1 " 
						transform="rotate(0 0,0.25 )"
						stroke-width ="0.1"
						fill="rgb(25,0,164)"
						/><path d="M 0,0.25 
						q -0.24875 0.03875 0.12,0.050833333333333 q 0.37375 0.02625 0.36875,0.0725 q -0.24875 0.28375 -0.48875,1 
						M 0,0.25 
						q 0.24875 0.03875 -0.12,0.050833333333333 q -0.37375 0.02625 -0.36875,0.0725 q 0.24875 0.28375 0.48875,1 " 
						transform="rotate(77.142857142857 0,0.25 )"
						stroke-width ="0.1"
						fill="rgb(24.5,0,160.5)"
						/></g><g id="flower2"><path d="M 0,0.5 
						q -0.4975 0.0775 0.24,0.10166666666667 q 0.7475 0.0525 0.7375,0.145 q -0.4975 0.5675 -0.9775,1 
						M 0,0.5 
						q 0.4975 0.0775 -0.24,0.10166666666667 q -0.7475 0.0525 -0.7375,0.145 q 0.4975 0.5675 0.9775,1 " 
						transform="rotate(0 0,0.5 )"
						stroke-width ="0.1"
						fill="rgb(14,0,175)"
						/><path d="M 0,0.5 
						q -0.4975 0.0775 0.24,0.10166666666667 q 0.7475 0.0525 0.7375,0.145 q -0.4975 0.5675 -0.9775,1 
						M 0,0.5 
						q 0.4975 0.0775 -0.24,0.10166666666667 q -0.7475 0.0525 -0.7375,0.145 q 0.4975 0.5675 0.9775,1 " 
						transform="rotate(77.142857142857 0,0.5 )"
						stroke-width ="0.1"
						fill="rgb(15.5,0,160.5)"
						/></g><g id="flower3"><path d="M 0,0.75 
						q -0.74625 0.11625 0.36,0.1525 q 1.12125 0.07875 1.10625,0.2175 q -0.74625 0.85125 -1.46625,1 
						M 0,0.75 
						q 0.74625 0.11625 -0.36,0.1525 q -1.12125 0.07875 -1.10625,0.2175 q 0.74625 0.85125 1.46625,1 " 
						transform="rotate(0 0,0.75 )"
						stroke-width ="0.1"
						fill="rgb(15,5,164)"
						/><path d="M 0,0.75 
						q -0.74625 0.11625 0.36,0.1525 q 1.12125 0.07875 1.10625,0.2175 q -0.74625 0.85125 -1.46625,1 
						M 0,0.75 
						q 0.74625 0.11625 -0.36,0.1525 q -1.12125 0.07875 -1.10625,0.2175 q 0.74625 0.85125 1.46625,1 " 
						transform="rotate(77.142857142857 0,0.75 )"
						stroke-width ="0.1"
						fill="rgb(12.5,4.5,175.5)"
						/></g><g id="flower4"><path d="M 0,1 
						q -0.995 0.155 0.48,0.20333333333333 q 1.495 0.105 1.475,0.29 q -0.995 1.135 -1.955,1 
						M 0,1 
						q 0.995 0.155 -0.48,0.20333333333333 q -1.495 0.105 -1.475,0.29 q 0.995 1.135 1.955,1 " 
						transform="rotate(0 0,1 )"
						stroke-width ="0.1"
						fill="rgb(29,3,182)"
						/><path d="M 0,1 
						q -0.995 0.155 0.48,0.20333333333333 q 1.495 0.105 1.475,0.29 q -0.995 1.135 -1.955,1 
						M 0,1 
						q 0.995 0.155 -0.48,0.20333333333333 q -1.495 0.105 -1.475,0.29 q 0.995 1.135 1.955,1 " 
						transform="rotate(77.142857142857 0,1 )"
						stroke-width ="0.1"
						fill="rgb(17.5,6.5,168.5)"
						/></g><g id="flower5"><path d="M 0,1.25 
						q -1.24375 0.19375 0.6,0.25416666666667 q 1.86875 0.13125 1.84375,0.3625 q -1.24375 1.41875 -2.44375,1 
						M 0,1.25 
						q 1.24375 0.19375 -0.6,0.25416666666667 q -1.86875 0.13125 -1.84375,0.3625 q 1.24375 1.41875 2.44375,1 " 
						transform="rotate(0 0,1.25 )"
						stroke-width ="0.1"
						fill="rgb(16,11,178)"
						/><circle cx="0" cy="1.25" r="0.1" fill="rgb(189,108,161)"/><circle cx="-0.07" cy="1.21" r="0.066666666666667" fill="rgb(204.5,110.5,179.5)"/><path d="M 0,1.25 
						q -1.24375 0.19375 0.6,0.25416666666667 q 1.86875 0.13125 1.84375,0.3625 q -1.24375 1.41875 -2.44375,1 
						M 0,1.25 
						q 1.24375 0.19375 -0.6,0.25416666666667 q -1.86875 0.13125 -1.84375,0.3625 q 1.24375 1.41875 2.44375,1 " 
						transform="rotate(154.28571428571 0,1.25 )"
						stroke-width ="0.1"
						fill="rgb(9.5,0,172.5)"
						/><circle cx="0" cy="1.25" r="0.1" fill="rgb(189,108,161)"/><circle cx="-0.08" cy="1.3" r="0.066666666666667" fill="rgb(204.5,110.5,179.5)"/><path d="M 0,1.25 
						q -1.24375 0.19375 0.6,0.25416666666667 q 1.86875 0.13125 1.84375,0.3625 q -1.24375 1.41875 -2.44375,1 
						M 0,1.25 
						q 1.24375 0.19375 -0.6,0.25416666666667 q -1.86875 0.13125 -1.84375,0.3625 q 1.24375 1.41875 2.44375,1 " 
						transform="rotate(308.57142857143 0,1.25 )"
						stroke-width ="0.1"
						fill="rgb(21,0,163)"
						/><circle cx="0" cy="1.25" r="0.1" fill="rgb(189,108,161)"/><circle cx="0.09" cy="1.23" r="0.066666666666667" fill="rgb(204.5,110.5,179.5)"/><path d="M 0,1.25 
						q -1.24375 0.19375 0.6,0.25416666666667 q 1.86875 0.13125 1.84375,0.3625 q -1.24375 1.41875 -2.44375,1 
						M 0,1.25 
						q 1.24375 0.19375 -0.6,0.25416666666667 q -1.86875 0.13125 -1.84375,0.3625 q 1.24375 1.41875 2.44375,1 " 
						transform="rotate(462.85714285714 0,1.25 )"
						stroke-width ="0.1"
						fill="rgb(10.5,1.5,164.5)"
						/><circle cx="0" cy="1.25" r="0.1" fill="rgb(189,108,161)"/><circle cx="-0.08" cy="1.29" r="0.066666666666667" fill="rgb(204.5,110.5,179.5)"/><path d="M 0,1.25 
						q -1.24375 0.19375 0.6,0.25416666666667 q 1.86875 0.13125 1.84375,0.3625 q -1.24375 1.41875 -2.44375,1 
						M 0,1.25 
						q 1.24375 0.19375 -0.6,0.25416666666667 q -1.86875 0.13125 -1.84375,0.3625 q 1.24375 1.41875 2.44375,1 " 
						transform="rotate(617.14285714286 0,1.25 )"
						stroke-width ="0.1"
						fill="rgb(0,0,171)"
						/><circle cx="0" cy="1.25" r="0.1" fill="rgb(189,108,161)"/><circle cx="-0.04" cy="1.24" r="0.066666666666667" fill="rgb(204.5,110.5,179.5)"/><path d="M 0,1.25 
						q -1.24375 0.19375 0.6,0.25416666666667 q 1.86875 0.13125 1.84375,0.3625 q -1.24375 1.41875 -2.44375,1 
						M 0,1.25 
						q 1.24375 0.19375 -0.6,0.25416666666667 q -1.86875 0.13125 -1.84375,0.3625 q 1.24375 1.41875 2.44375,1 " 
						transform="rotate(771.42857142857 0,1.25 )"
						stroke-width ="0.1"
						fill="rgb(9.5,0,157.5)"
						/><circle cx="0" cy="1.25" r="0.1" fill="rgb(189,108,161)"/><circle cx="0" cy="1.33" r="0.066666666666667" fill="rgb(204.5,110.5,179.5)"/><path d="M 0,1.25 
						q -1.24375 0.19375 0.6,0.25416666666667 q 1.86875 0.13125 1.84375,0.3625 q -1.24375 1.41875 -2.44375,1 
						M 0,1.25 
						q 1.24375 0.19375 -0.6,0.25416666666667 q -1.86875 0.13125 -1.84375,0.3625 q 1.24375 1.41875 2.44375,1 " 
						transform="rotate(925.71428571429 0,1.25 )"
						stroke-width ="0.1"
						fill="rgb(15,0,160)"
						/><circle cx="0" cy="1.25" r="0.1" fill="rgb(189,108,161)"/><circle cx="-0.01" cy="1.19" r="0.066666666666667" fill="rgb(204.5,110.5,179.5)"/><path d="M 0,1.25 
						q -1.24375 0.19375 0.6,0.25416666666667 q 1.86875 0.13125 1.84375,0.3625 q -1.24375 1.41875 -2.44375,1 
						M 0,1.25 
						q 1.24375 0.19375 -0.6,0.25416666666667 q -1.86875 0.13125 -1.84375,0.3625 q 1.24375 1.41875 2.44375,1 " 
						transform="rotate(1080 0,1.25 )"
						stroke-width ="0.1"
						fill="rgb(0,0,163.5)"
						/><circle cx="0" cy="1.25" r="0.1" fill="rgb(189,108,161)"/><circle cx="-0.04" cy="1.17" r="0.066666666666667" fill="rgb(204.5,110.5,179.5)"/></g><g id="flower6"><path d="M 0,1.5 
						q -1.4925 0.2325 0.72,0.305 q 2.2425 0.1575 2.2125,0.435 q -1.4925 1.7025 -2.9325,1 
						M 0,1.5 
						q 1.4925 0.2325 -0.72,0.305 q -2.2425 0.1575 -2.2125,0.435 q 1.4925 1.7025 2.9325,1 " 
						transform="rotate(0 0,1.5 )"
						stroke-width ="0.1"
						fill="rgb(11,1,177)"
						/><path d="M 0,1.5 
						q -1.4925 0.2325 0.72,0.305 q 2.2425 0.1575 2.2125,0.435 q -1.4925 1.7025 -2.9325,1 
						M 0,1.5 
						q 1.4925 0.2325 -0.72,0.305 q -2.2425 0.1575 -2.2125,0.435 q 1.4925 1.7025 2.9325,1 " 
						transform="rotate(77.142857142857 0,1.5 )"
						stroke-width ="0.1"
						fill="rgb(13.5,0,164.5)"
						/></g><g id="flower7"><path d="M 0,1.75 
						q -1.74125 0.27125 0.84,0.35583333333333 q 2.61625 0.18375 2.58125,0.5075 q -1.74125 1.98625 -3.42125,1 
						M 0,1.75 
						q 1.74125 0.27125 -0.84,0.35583333333333 q -2.61625 0.18375 -2.58125,0.5075 q 1.74125 1.98625 3.42125,1 " 
						transform="rotate(0 0,1.75 )"
						stroke-width ="0.1"
						fill="rgb(20,1,181)"
						/><circle cx="0" cy="1.75" r="0.14" fill="rgb(192,108,162)"/><circle cx="-0.05" cy="1.78" r="0.093333333333333" fill="rgb(209.5,127.5,167.5)"/><path d="M 0,1.75 
						q -1.74125 0.27125 0.84,0.35583333333333 q 2.61625 0.18375 2.58125,0.5075 q -1.74125 1.98625 -3.42125,1 
						M 0,1.75 
						q 1.74125 0.27125 -0.84,0.35583333333333 q -2.61625 0.18375 -2.58125,0.5075 q 1.74125 1.98625 3.42125,1 " 
						transform="rotate(154.28571428571 0,1.75 )"
						stroke-width ="0.1"
						fill="rgb(11.5,0,168.5)"
						/><circle cx="0" cy="1.75" r="0.14" fill="rgb(192,108,162)"/><circle cx="-0.06" cy="1.76" r="0.093333333333333" fill="rgb(209.5,127.5,167.5)"/><path d="M 0,1.75 
						q -1.74125 0.27125 0.84,0.35583333333333 q 2.61625 0.18375 2.58125,0.5075 q -1.74125 1.98625 -3.42125,1 
						M 0,1.75 
						q 1.74125 0.27125 -0.84,0.35583333333333 q -2.61625 0.18375 -2.58125,0.5075 q 1.74125 1.98625 3.42125,1 " 
						transform="rotate(308.57142857143 0,1.75 )"
						stroke-width ="0.1"
						fill="rgb(25,0,170)"
						/><circle cx="0" cy="1.75" r="0.14" fill="rgb(192,108,162)"/><circle cx="-0.02" cy="1.72" r="0.093333333333333" fill="rgb(209.5,127.5,167.5)"/><path d="M 0,1.75 
						q -1.74125 0.27125 0.84,0.35583333333333 q 2.61625 0.18375 2.58125,0.5075 q -1.74125 1.98625 -3.42125,1 
						M 0,1.75 
						q 1.74125 0.27125 -0.84,0.35583333333333 q -2.61625 0.18375 -2.58125,0.5075 q 1.74125 1.98625 3.42125,1 " 
						transform="rotate(462.85714285714 0,1.75 )"
						stroke-width ="0.1"
						fill="rgb(2.5,0,163.5)"
						/><circle cx="0" cy="1.75" r="0.14" fill="rgb(192,108,162)"/><circle cx="-0.02" cy="1.85" r="0.093333333333333" fill="rgb(209.5,127.5,167.5)"/><path d="M 0,1.75 
						q -1.74125 0.27125 0.84,0.35583333333333 q 2.61625 0.18375 2.58125,0.5075 q -1.74125 1.98625 -3.42125,1 
						M 0,1.75 
						q 1.74125 0.27125 -0.84,0.35583333333333 q -2.61625 0.18375 -2.58125,0.5075 q 1.74125 1.98625 3.42125,1 " 
						transform="rotate(617.14285714286 0,1.75 )"
						stroke-width ="0.1"
						fill="rgb(14,0,161)"
						/><circle cx="0" cy="1.75" r="0.14" fill="rgb(192,108,162)"/><circle cx="0.09" cy="1.73" r="0.093333333333333" fill="rgb(209.5,127.5,167.5)"/><path d="M 0,1.75 
						q -1.74125 0.27125 0.84,0.35583333333333 q 2.61625 0.18375 2.58125,0.5075 q -1.74125 1.98625 -3.42125,1 
						M 0,1.75 
						q 1.74125 0.27125 -0.84,0.35583333333333 q -2.61625 0.18375 -2.58125,0.5075 q 1.74125 1.98625 3.42125,1 " 
						transform="rotate(771.42857142857 0,1.75 )"
						stroke-width ="0.1"
						fill="rgb(9.5,0,156.5)"
						/><circle cx="0" cy="1.75" r="0.14" fill="rgb(192,108,162)"/><circle cx="0.08" cy="1.77" r="0.093333333333333" fill="rgb(209.5,127.5,167.5)"/><path d="M 0,1.75 
						q -1.74125 0.27125 0.84,0.35583333333333 q 2.61625 0.18375 2.58125,0.5075 q -1.74125 1.98625 -3.42125,1 
						M 0,1.75 
						q 1.74125 0.27125 -0.84,0.35583333333333 q -2.61625 0.18375 -2.58125,0.5075 q 1.74125 1.98625 3.42125,1 " 
						transform="rotate(925.71428571429 0,1.75 )"
						stroke-width ="0.1"
						fill="rgb(3,0,153)"
						/><circle cx="0" cy="1.75" r="0.14" fill="rgb(192,108,162)"/><circle cx="0.08" cy="1.83" r="0.093333333333333" fill="rgb(209.5,127.5,167.5)"/><path d="M 0,1.75 
						q -1.74125 0.27125 0.84,0.35583333333333 q 2.61625 0.18375 2.58125,0.5075 q -1.74125 1.98625 -3.42125,1 
						M 0,1.75 
						q 1.74125 0.27125 -0.84,0.35583333333333 q -2.61625 0.18375 -2.58125,0.5075 q 1.74125 1.98625 3.42125,1 " 
						transform="rotate(1080 0,1.75 )"
						stroke-width ="0.1"
						fill="rgb(1.5,0,146.5)"
						/><circle cx="0" cy="1.75" r="0.14" fill="rgb(192,108,162)"/><circle cx="-0.08" cy="1.7" r="0.093333333333333" fill="rgb(209.5,127.5,167.5)"/></g><g id="flower8"><path d="M 0,2 
						q -1.99 0.31 0.96,0.40666666666667 q 2.99 0.21 2.95,0.58 q -1.99 2.27 -3.91,1.0133333333333 
						M 0,2 
						q 1.99 0.31 -0.96,0.40666666666667 q -2.99 0.21 -2.95,0.58 q 1.99 2.27 3.91,1.0133333333333 " 
						transform="rotate(0 0,2 )"
						stroke-width ="0.1"
						fill="rgb(12,8,172)"
						/><path d="M 0,2 
						q -1.99 0.31 0.96,0.40666666666667 q 2.99 0.21 2.95,0.58 q -1.99 2.27 -3.91,1.0133333333333 
						M 0,2 
						q 1.99 0.31 -0.96,0.40666666666667 q -2.99 0.21 -2.95,0.58 q 1.99 2.27 3.91,1.0133333333333 " 
						transform="rotate(77.142857142857 0,2 )"
						stroke-width ="0.1"
						fill="rgb(21.5,0,168.5)"
						/></g></defs>
				<g class="fullPlant">
					<g>
					<path d ="M 51,91 
					q -7.64 -41.49 -2.088,-46.308" fill ="none" stroke ="rgb(127.5,5.5,12.5)" stroke-width ="1.674"/></g><circle cx="48.912" cy="44.692" r="0.837" fill="rgb(127.5,5.5,12.5)"/><use xlink:href="#leaf7"
						x="51" y="91" 
						transform="rotate(206 51.45 91.86)" 	
						fill="rgb(206,210,2)" /><use xlink:href="#leaf4"
						x="51" y="91" 
						transform="rotate(216 51.77 91.79)" 	
						fill="rgb(199,212,33)" /><use xlink:href="#flower6" id="fleur00"
						x="48.912" y="42.692" transform="rotate(180 48.912 44.692)" />
					<g>
					<path d ="M 53,91 
					q 7.64 -7.56 -9.324,-28.992" fill ="none" stroke ="rgb(126,6,15)" stroke-width ="1.674"/></g><circle cx="43.676" cy="62.008" r="0.837" fill="rgb(126,6,15)"/><use xlink:href="#leaf4"
						x="53" y="91" 
						transform="rotate(224 53.95 91.91)" 	
						fill="rgb(181,210,23)" /><use xlink:href="#leaf4"
						x="53" y="91" 
						transform="rotate(212 53 91)" 	
						fill="rgb(184,215,2)" /><use xlink:href="#flower5" id="fleur10"
						x="43.676" y="60.008" transform="rotate(140 43.676 62.008)" />
					<g>
					<path d ="M 47,91 
					q -7.64 -44.48 9.024,-48.336" fill ="none" stroke ="rgb(124.5,4.5,15.5)" stroke-width ="1.674"/></g><circle cx="56.024" cy="42.664" r="0.837" fill="rgb(124.5,4.5,15.5)"/><use xlink:href="#leaf4"
						x="47" y="91" 
						transform="rotate(223 47.57 91.88)" 	
						fill="rgb(220,232,18)" /><use xlink:href="#leaf6"
						x="47" y="91" 
						transform="rotate(221 47.3 91.59)" 	
						fill="rgb(182,225,0)" /><use xlink:href="#flower7" id="fleur20"
						x="56.024" y="40.664" transform="rotate(159 56.024 42.664)" />
					<g>
					<path d ="M 41,91 
					q 7.64 -8.71 1.416,-30.372" fill ="none" stroke ="rgb(123,7,14)" stroke-width ="1.674"/></g><circle cx="42.416" cy="60.628" r="0.837" fill="rgb(123,7,14)"/><use xlink:href="#leaf7"
						x="41" y="91" 
						transform="rotate(148 41 91)" 	
						fill="rgb(221,237,0)" /><use xlink:href="#leaf7"
						x="41" y="91" 
						transform="rotate(214 41 91)" 	
						fill="rgb(204,226,5)" /><use xlink:href="#flower5" id="fleur30"
						x="42.416" y="58.628" transform="rotate(150 42.416 60.628)" /></g>
				</svg>