<svg class="relie" xmlns="http://www.w3.org/2000/svg" viewBox="0 0 100 100" preserveAspectRatio="xMidYMid meet" x="0" y="0" overflow="visible" xmlns:xlink="http://www.w3.org/1999/xlink">

		<defs>  <g id="leaf1" transform="skewX(19) skewY(19)"><path d="M 0,0 
					q 0.2575 0.3825 0.3875,0.15277777777778 q 0.2575 0.13375 0.3875,0.15277777777778 q 0.2575 0.25125 0.125,0.15277777777778 q 0.2575 0.25625 0.125,0.15277777777778 q 0.2575 0.13625 -0.125,0.15277777777778 q 0.2575 0.38 -0.125,0.15277777777778 q 0.2575 0.25625 -0.125,0.15277777777778 q 0.2575 0.12875 -0.0625,0.15277777777778 q 0.2575 0.38125 -0.5875,1 
					M 0,0 
					q -0.2575 0.3825 -0.3875,0.15277777777778 q -0.2575 0.13375 -0.3875,0.15277777777778 q -0.2575 0.25125 -0.125,0.15277777777778 q -0.2575 0.25625 -0.125,0.15277777777778 q -0.2575 0.13625 0.125,0.15277777777778 q -0.2575 0.38 0.125,0.15277777777778 q -0.2575 0.25625 0.125,0.15277777777778 q -0.2575 0.12875 0.0625,0.15277777777778 q -0.2575 0.38125 0.5875,1 " 
					stroke-width ="0.2" /></g>  <g id="leaf2" transform="skewX(-7) skewY(-7)"><path d="M 0,0 
					q 0.515 0.765 0.575,0.30555555555556 q 0.515 0.2675 0.575,0.30555555555556 q 0.515 0.5025 0.25,0.30555555555556 q 0.515 0.5125 0.25,0.30555555555556 q 0.515 0.2725 -0.25,0.30555555555556 q 0.515 0.76 -0.25,0.30555555555556 q 0.515 0.5125 -0.25,0.30555555555556 q 0.515 0.2575 -0.125,0.30555555555556 q 0.515 0.7625 -0.775,1 
					M 0,0 
					q -0.515 0.765 -0.575,0.30555555555556 q -0.515 0.2675 -0.575,0.30555555555556 q -0.515 0.5025 -0.25,0.30555555555556 q -0.515 0.5125 -0.25,0.30555555555556 q -0.515 0.2725 0.25,0.30555555555556 q -0.515 0.76 0.25,0.30555555555556 q -0.515 0.5125 0.25,0.30555555555556 q -0.515 0.2575 0.125,0.30555555555556 q -0.515 0.7625 0.775,1 " 
					stroke-width ="0.2" /></g>  <g id="leaf3" transform="skewX(9) skewY(9)"><path d="M 0,0 
					q 0.7725 1.1475 0.7625,0.45833333333333 q 0.7725 0.40125 0.7625,0.45833333333333 q 0.7725 0.75375 0.375,0.45833333333333 q 0.7725 0.76875 0.375,0.45833333333333 q 0.7725 0.40875 -0.375,0.45833333333333 q 0.7725 1.14 -0.375,0.45833333333333 q 0.7725 0.76875 -0.375,0.45833333333333 q 0.7725 0.38625 -0.1875,0.45833333333333 q 0.7725 1.14375 -0.9625,1 
					M 0,0 
					q -0.7725 1.1475 -0.7625,0.45833333333333 q -0.7725 0.40125 -0.7625,0.45833333333333 q -0.7725 0.75375 -0.375,0.45833333333333 q -0.7725 0.76875 -0.375,0.45833333333333 q -0.7725 0.40875 0.375,0.45833333333333 q -0.7725 1.14 0.375,0.45833333333333 q -0.7725 0.76875 0.375,0.45833333333333 q -0.7725 0.38625 0.1875,0.45833333333333 q -0.7725 1.14375 0.9625,1 " 
					stroke-width ="0.2" /></g>  <g id="leaf4" transform="skewX(1) skewY(1)"><path d="M 0,0 
					q 1.03 1.53 0.95,0.61111111111111 q 1.03 0.535 0.95,0.61111111111111 q 1.03 1.005 0.5,0.61111111111111 q 1.03 1.025 0.5,0.61111111111111 q 1.03 0.545 -0.5,0.61111111111111 q 1.03 1.52 -0.5,0.61111111111111 q 1.03 1.025 -0.5,0.61111111111111 q 1.03 0.515 -0.25,0.61111111111111 q 1.03 1.525 -1.15,1 
					M 0,0 
					q -1.03 1.53 -0.95,0.61111111111111 q -1.03 0.535 -0.95,0.61111111111111 q -1.03 1.005 -0.5,0.61111111111111 q -1.03 1.025 -0.5,0.61111111111111 q -1.03 0.545 0.5,0.61111111111111 q -1.03 1.52 0.5,0.61111111111111 q -1.03 1.025 0.5,0.61111111111111 q -1.03 0.515 0.25,0.61111111111111 q -1.03 1.525 1.15,1 " 
					stroke-width ="0.2" /></g>  <g id="leaf5" transform="skewX(12) skewY(12)"><path d="M 0,0 
					q 1.2875 1.9125 1.1375,0.76388888888889 q 1.2875 0.66875 1.1375,0.76388888888889 q 1.2875 1.25625 0.625,0.76388888888889 q 1.2875 1.28125 0.625,0.76388888888889 q 1.2875 0.68125 -0.625,0.76388888888889 q 1.2875 1.9 -0.625,0.76388888888889 q 1.2875 1.28125 -0.625,0.76388888888889 q 1.2875 0.64375 -0.3125,0.76388888888889 q 1.2875 1.90625 -1.3375,1 
					M 0,0 
					q -1.2875 1.9125 -1.1375,0.76388888888889 q -1.2875 0.66875 -1.1375,0.76388888888889 q -1.2875 1.25625 -0.625,0.76388888888889 q -1.2875 1.28125 -0.625,0.76388888888889 q -1.2875 0.68125 0.625,0.76388888888889 q -1.2875 1.9 0.625,0.76388888888889 q -1.2875 1.28125 0.625,0.76388888888889 q -1.2875 0.64375 0.3125,0.76388888888889 q -1.2875 1.90625 1.3375,1 " 
					stroke-width ="0.2" /></g>  <g id="leaf6" transform="skewX(-13) skewY(-13)"><path d="M 0,0 
					q 1.545 2.295 1.325,0.91666666666667 q 1.545 0.8025 1.325,0.91666666666667 q 1.545 1.5075 0.75,0.91666666666667 q 1.545 1.5375 0.75,0.91666666666667 q 1.545 0.8175 -0.75,0.91666666666667 q 1.545 2.28 -0.75,0.91666666666667 q 1.545 1.5375 -0.75,0.91666666666667 q 1.545 0.7725 -0.375,0.91666666666667 q 1.545 2.2875 -1.525,1 
					M 0,0 
					q -1.545 2.295 -1.325,0.91666666666667 q -1.545 0.8025 -1.325,0.91666666666667 q -1.545 1.5075 -0.75,0.91666666666667 q -1.545 1.5375 -0.75,0.91666666666667 q -1.545 0.8175 0.75,0.91666666666667 q -1.545 2.28 0.75,0.91666666666667 q -1.545 1.5375 0.75,0.91666666666667 q -1.545 0.7725 0.375,0.91666666666667 q -1.545 2.2875 1.525,1 " 
					stroke-width ="0.2" /></g>  <g id="leaf7" transform="skewX(15) skewY(15)"><path d="M 0,0 
					q 1.8025 2.6775 1.5125,1.0694444444444 q 1.8025 0.93625 1.5125,1.0694444444444 q 1.8025 1.75875 0.875,1.0694444444444 q 1.8025 1.79375 0.875,1.0694444444444 q 1.8025 0.95375 -0.875,1.0694444444444 q 1.8025 2.66 -0.875,1.0694444444444 q 1.8025 1.79375 -0.875,1.0694444444444 q 1.8025 0.90125 -0.4375,1.0694444444444 q 1.8025 2.66875 -1.7125,1.0694444444444 
					M 0,0 
					q -1.8025 2.6775 -1.5125,1.0694444444444 q -1.8025 0.93625 -1.5125,1.0694444444444 q -1.8025 1.75875 -0.875,1.0694444444444 q -1.8025 1.79375 -0.875,1.0694444444444 q -1.8025 0.95375 0.875,1.0694444444444 q -1.8025 2.66 0.875,1.0694444444444 q -1.8025 1.79375 0.875,1.0694444444444 q -1.8025 0.90125 0.4375,1.0694444444444 q -1.8025 2.66875 1.7125,1.0694444444444 " 
					stroke-width ="0.2" /></g>  <g id="leaf8" transform="skewX(18) skewY(18)"><path d="M 0,0 
					q 2.06 3.06 1.7,1.2222222222222 q 2.06 1.07 1.7,1.2222222222222 q 2.06 2.01 1,1.2222222222222 q 2.06 2.05 1,1.2222222222222 q 2.06 1.09 -1,1.2222222222222 q 2.06 3.04 -1,1.2222222222222 q 2.06 2.05 -1,1.2222222222222 q 2.06 1.03 -0.5,1.2222222222222 q 2.06 3.05 -1.9,1.2222222222222 
					M 0,0 
					q -2.06 3.06 -1.7,1.2222222222222 q -2.06 1.07 -1.7,1.2222222222222 q -2.06 2.01 -1,1.2222222222222 q -2.06 2.05 -1,1.2222222222222 q -2.06 1.09 1,1.2222222222222 q -2.06 3.04 1,1.2222222222222 q -2.06 2.05 1,1.2222222222222 q -2.06 1.03 0.5,1.2222222222222 q -2.06 3.05 1.9,1.2222222222222 " 
					stroke-width ="0.2" /></g><g id="flower1" transform="skewX(-5) skewY(-5)">
						<path d="M 0,0
						Q 0.08,0.3125 0,0.95625"
						stroke="rgb(14,57,125)" 
						fill="transparent"
						stroke-width ="0.3" /><path d="M 0,0.95625 
						q -0.36625 0.48875 0.3875,0.125 q 0.43125 0.48875 0.0125,0.25 q 0.01625 0.48875 -0.125,0.125 q -0.1925 0.48875 -0.125,0.0625 q 0.2725 0.48875 -0.15,1 
						M 0,0.95625 
						q 0.36625 0.48875 -0.3875,0.125 q -0.43125 0.48875 -0.0125,0.25 q -0.01625 0.48875 0.125,0.125 q 0.1925 0.48875 0.125,0.0625 q -0.2725 0.48875 0.15,1 " 
						transform="rotate(0 0,0.95625 )"
						stroke-width ="0.1"
						fill="rgb(45,202,216)"
						/><circle cx="0" cy="0.95625" r="0.26875" fill="rgb(48,19,64)"/><circle cx="0.01" cy="0.89625" r="0.17916666666667" fill="rgb(50.5,31.5,69.5)"/><path d="M 0,0.95625 
						q -0.36625 0.48875 0.3875,0.125 q 0.43125 0.48875 0.0125,0.25 q 0.01625 0.48875 -0.125,0.125 q -0.1925 0.48875 -0.125,0.0625 q 0.2725 0.48875 -0.15,1 
						M 0,0.95625 
						q 0.36625 0.48875 -0.3875,0.125 q -0.43125 0.48875 -0.0125,0.25 q -0.01625 0.48875 0.125,0.125 q 0.1925 0.48875 0.125,0.0625 q -0.2725 0.48875 0.15,1 " 
						transform="rotate(120 0,0.95625 )"
						stroke-width ="0.1"
						fill="rgb(44.5,185.5,200.5)"
						/><circle cx="0" cy="0.95625" r="0.26875" fill="rgb(48,19,64)"/><circle cx="0.04" cy="1.04625" r="0.17916666666667" fill="rgb(50.5,31.5,69.5)"/><path d="M 0,0.95625 
						q -0.36625 0.48875 0.3875,0.125 q 0.43125 0.48875 0.0125,0.25 q 0.01625 0.48875 -0.125,0.125 q -0.1925 0.48875 -0.125,0.0625 q 0.2725 0.48875 -0.15,1 
						M 0,0.95625 
						q 0.36625 0.48875 -0.3875,0.125 q -0.43125 0.48875 -0.0125,0.25 q -0.01625 0.48875 0.125,0.125 q 0.1925 0.48875 0.125,0.0625 q -0.2725 0.48875 0.15,1 " 
						transform="rotate(240 0,0.95625 )"
						stroke-width ="0.1"
						fill="rgb(39,186,208)"
						/><circle cx="0" cy="0.95625" r="0.26875" fill="rgb(48,19,64)"/><circle cx="0.08" cy="0.91625" r="0.17916666666667" fill="rgb(50.5,31.5,69.5)"/><path d="M 0,0.95625 
						q -0.36625 0.48875 0.3875,0.125 q 0.43125 0.48875 0.0125,0.25 q 0.01625 0.48875 -0.125,0.125 q -0.1925 0.48875 -0.125,0.0625 q 0.2725 0.48875 -0.15,1 
						M 0,0.95625 
						q 0.36625 0.48875 -0.3875,0.125 q -0.43125 0.48875 -0.0125,0.25 q -0.01625 0.48875 0.125,0.125 q 0.1925 0.48875 0.125,0.0625 q -0.2725 0.48875 0.15,1 " 
						transform="rotate(360 0,0.95625 )"
						stroke-width ="0.1"
						fill="rgb(39.5,191.5,211.5)"
						/><circle cx="0" cy="0.95625" r="0.26875" fill="rgb(48,19,64)"/><circle cx="0.07" cy="1.02625" r="0.17916666666667" fill="rgb(50.5,31.5,69.5)"/><path d="M 0,0.95625 
						q -0.36625 0.48875 0.3875,0.125 q 0.43125 0.48875 0.0125,0.25 q 0.01625 0.48875 -0.125,0.125 q -0.1925 0.48875 -0.125,0.0625 q 0.2725 0.48875 -0.15,1 
						M 0,0.95625 
						q 0.36625 0.48875 -0.3875,0.125 q -0.43125 0.48875 -0.0125,0.25 q -0.01625 0.48875 0.125,0.125 q 0.1925 0.48875 0.125,0.0625 q -0.2725 0.48875 0.15,1 " 
						transform="rotate(480 0,0.95625 )"
						stroke-width ="0.1"
						fill="rgb(36,192,210)"
						/><circle cx="0" cy="0.95625" r="0.26875" fill="rgb(48,19,64)"/><circle cx="0.07" cy="1.03625" r="0.17916666666667" fill="rgb(50.5,31.5,69.5)"/><path d="M 0,0.95625 
						q -0.36625 0.48875 0.3875,0.125 q 0.43125 0.48875 0.0125,0.25 q 0.01625 0.48875 -0.125,0.125 q -0.1925 0.48875 -0.125,0.0625 q 0.2725 0.48875 -0.15,1 
						M 0,0.95625 
						q 0.36625 0.48875 -0.3875,0.125 q -0.43125 0.48875 -0.0125,0.25 q -0.01625 0.48875 0.125,0.125 q 0.1925 0.48875 0.125,0.0625 q -0.2725 0.48875 0.15,1 " 
						transform="rotate(600 0,0.95625 )"
						stroke-width ="0.1"
						fill="rgb(34.5,178.5,198.5)"
						/><circle cx="0" cy="0.95625" r="0.26875" fill="rgb(48,19,64)"/><circle cx="0.02" cy="0.99625" r="0.17916666666667" fill="rgb(50.5,31.5,69.5)"/><path d="M 0,0.95625 
						q -0.36625 0.48875 0.3875,0.125 q 0.43125 0.48875 0.0125,0.25 q 0.01625 0.48875 -0.125,0.125 q -0.1925 0.48875 -0.125,0.0625 q 0.2725 0.48875 -0.15,1 
						M 0,0.95625 
						q 0.36625 0.48875 -0.3875,0.125 q -0.43125 0.48875 -0.0125,0.25 q -0.01625 0.48875 0.125,0.125 q 0.1925 0.48875 0.125,0.0625 q -0.2725 0.48875 0.15,1 " 
						transform="rotate(720 0,0.95625 )"
						stroke-width ="0.1"
						fill="rgb(36,171,189)"
						/><circle cx="0" cy="0.95625" r="0.26875" fill="rgb(48,19,64)"/><circle cx="-0.06" cy="1.02625" r="0.17916666666667" fill="rgb(50.5,31.5,69.5)"/></g><g id="flower2" transform="skewX(-6) skewY(-6)">
						<path d="M 0,0
						Q 0.3,0.625 0,1.9125"
						stroke="rgb(14,57,125)" 
						fill="transparent"
						stroke-width ="0.3" /><path d="M 0,1.9125 
						q -0.7325 0.9775 0.575,0.25 q 0.8625 0.9775 0.025,0.5 q 0.0325 0.9775 -0.25,0.25 q -0.385 0.9775 -0.25,0.125 q 0.795 0.9775 -0.1,1 
						M 0,1.9125 
						q 0.7325 0.9775 -0.575,0.25 q -0.8625 0.9775 -0.025,0.5 q -0.0325 0.9775 0.25,0.25 q 0.385 0.9775 0.25,0.125 q -0.795 0.9775 0.1,1 " 
						transform="rotate(0 0,1.9125 )"
						stroke-width ="0.1"
						fill="rgb(43,201,207)"
						/><circle cx="0" cy="1.9125" r="0.5375" fill="rgb(46,21,67)"/><circle cx="-0.04" cy="1.8825" r="0.35833333333333" fill="rgb(53.5,28.5,85.5)"/><path d="M 0,1.9125 
						q -0.7325 0.9775 0.575,0.25 q 0.8625 0.9775 0.025,0.5 q 0.0325 0.9775 -0.25,0.25 q -0.385 0.9775 -0.25,0.125 q 0.795 0.9775 -0.1,1 
						M 0,1.9125 
						q 0.7325 0.9775 -0.575,0.25 q -0.8625 0.9775 -0.025,0.5 q -0.0325 0.9775 0.25,0.25 q 0.385 0.9775 0.25,0.125 q -0.795 0.9775 0.1,1 " 
						transform="rotate(120 0,1.9125 )"
						stroke-width ="0.1"
						fill="rgb(36.5,195.5,201.5)"
						/><circle cx="0" cy="1.9125" r="0.5375" fill="rgb(46,21,67)"/><circle cx="-0.08" cy="1.9825" r="0.35833333333333" fill="rgb(53.5,28.5,85.5)"/><path d="M 0,1.9125 
						q -0.7325 0.9775 0.575,0.25 q 0.8625 0.9775 0.025,0.5 q 0.0325 0.9775 -0.25,0.25 q -0.385 0.9775 -0.25,0.125 q 0.795 0.9775 -0.1,1 
						M 0,1.9125 
						q 0.7325 0.9775 -0.575,0.25 q -0.8625 0.9775 -0.025,0.5 q -0.0325 0.9775 0.25,0.25 q 0.385 0.9775 0.25,0.125 q -0.795 0.9775 0.1,1 " 
						transform="rotate(240 0,1.9125 )"
						stroke-width ="0.1"
						fill="rgb(42,193,216)"
						/><circle cx="0" cy="1.9125" r="0.5375" fill="rgb(46,21,67)"/><circle cx="-0.05" cy="1.9925" r="0.35833333333333" fill="rgb(53.5,28.5,85.5)"/><path d="M 0,1.9125 
						q -0.7325 0.9775 0.575,0.25 q 0.8625 0.9775 0.025,0.5 q 0.0325 0.9775 -0.25,0.25 q -0.385 0.9775 -0.25,0.125 q 0.795 0.9775 -0.1,1 
						M 0,1.9125 
						q 0.7325 0.9775 -0.575,0.25 q -0.8625 0.9775 -0.025,0.5 q -0.0325 0.9775 0.25,0.25 q 0.385 0.9775 0.25,0.125 q -0.795 0.9775 0.1,1 " 
						transform="rotate(360 0,1.9125 )"
						stroke-width ="0.1"
						fill="rgb(38.5,192.5,194.5)"
						/><circle cx="0" cy="1.9125" r="0.5375" fill="rgb(46,21,67)"/><circle cx="0.04" cy="1.8925" r="0.35833333333333" fill="rgb(53.5,28.5,85.5)"/><path d="M 0,1.9125 
						q -0.7325 0.9775 0.575,0.25 q 0.8625 0.9775 0.025,0.5 q 0.0325 0.9775 -0.25,0.25 q -0.385 0.9775 -0.25,0.125 q 0.795 0.9775 -0.1,1 
						M 0,1.9125 
						q 0.7325 0.9775 -0.575,0.25 q -0.8625 0.9775 -0.025,0.5 q -0.0325 0.9775 0.25,0.25 q 0.385 0.9775 0.25,0.125 q -0.795 0.9775 0.1,1 " 
						transform="rotate(480 0,1.9125 )"
						stroke-width ="0.1"
						fill="rgb(35,175,205)"
						/><circle cx="0" cy="1.9125" r="0.5375" fill="rgb(46,21,67)"/><circle cx="0.06" cy="1.8525" r="0.35833333333333" fill="rgb(53.5,28.5,85.5)"/><path d="M 0,1.9125 
						q -0.7325 0.9775 0.575,0.25 q 0.8625 0.9775 0.025,0.5 q 0.0325 0.9775 -0.25,0.25 q -0.385 0.9775 -0.25,0.125 q 0.795 0.9775 -0.1,1 
						M 0,1.9125 
						q 0.7325 0.9775 -0.575,0.25 q -0.8625 0.9775 -0.025,0.5 q -0.0325 0.9775 0.25,0.25 q 0.385 0.9775 0.25,0.125 q -0.795 0.9775 0.1,1 " 
						transform="rotate(600 0,1.9125 )"
						stroke-width ="0.1"
						fill="rgb(29.5,184.5,204.5)"
						/><circle cx="0" cy="1.9125" r="0.5375" fill="rgb(46,21,67)"/><circle cx="-0.05" cy="1.9625" r="0.35833333333333" fill="rgb(53.5,28.5,85.5)"/><path d="M 0,1.9125 
						q -0.7325 0.9775 0.575,0.25 q 0.8625 0.9775 0.025,0.5 q 0.0325 0.9775 -0.25,0.25 q -0.385 0.9775 -0.25,0.125 q 0.795 0.9775 -0.1,1 
						M 0,1.9125 
						q 0.7325 0.9775 -0.575,0.25 q -0.8625 0.9775 -0.025,0.5 q -0.0325 0.9775 0.25,0.25 q 0.385 0.9775 0.25,0.125 q -0.795 0.9775 0.1,1 " 
						transform="rotate(720 0,1.9125 )"
						stroke-width ="0.1"
						fill="rgb(35,169,195)"
						/><circle cx="0" cy="1.9125" r="0.5375" fill="rgb(46,21,67)"/><circle cx="0.01" cy="1.9025" r="0.35833333333333" fill="rgb(53.5,28.5,85.5)"/></g><g id="flower3" transform="skewX(-9) skewY(-9)">
						<path d="M 0,0
						Q -0.92,0.9375 0,2.86875"
						stroke="rgb(14,57,125)" 
						fill="transparent"
						stroke-width ="0.3" /><path d="M 0,2.86875 
						q -1.09875 1.46625 0.7625,0.375 q 1.29375 1.46625 0.0375,0.75 q 0.04875 1.46625 -0.375,0.375 q -0.5775 1.46625 -0.375,0.1875 q 1.1925 1.46625 -0.05,1 
						M 0,2.86875 
						q 1.09875 1.46625 -0.7625,0.375 q -1.29375 1.46625 -0.0375,0.75 q -0.04875 1.46625 0.375,0.375 q 0.5775 1.46625 0.375,0.1875 q -1.1925 1.46625 0.05,1 " 
						transform="rotate(0 0,2.86875 )"
						stroke-width ="0.1"
						fill="rgb(38,191,204)"
						/><path d="M 0,2.86875 
						q -1.09875 1.46625 0.7625,0.375 q 1.29375 1.46625 0.0375,0.75 q 0.04875 1.46625 -0.375,0.375 q -0.5775 1.46625 -0.375,0.1875 q 1.1925 1.46625 -0.05,1 
						M 0,2.86875 
						q 1.09875 1.46625 -0.7625,0.375 q -1.29375 1.46625 -0.0375,0.75 q -0.04875 1.46625 0.375,0.375 q 0.5775 1.46625 0.375,0.1875 q -1.1925 1.46625 0.05,1 " 
						transform="rotate(36 0,2.86875 )"
						stroke-width ="0.1"
						fill="rgb(35.5,182.5,199.5)"
						/></g><g id="flower4" transform="skewX(2) skewY(2)">
						<path d="M 0,0
						Q 1.29,1.25 0,3.825"
						stroke="rgb(14,57,125)" 
						fill="transparent"
						stroke-width ="0.3" /><path d="M 0,3.825 
						q -1.465 1.955 0.95,0.5 q 1.725 1.955 0.05,1 q 0.065 1.955 -0.5,0.5 q 1.27 1.955 1,0.25 q 1.09 1.955 -1.5,1 
						M 0,3.825 
						q 1.465 1.955 -0.95,0.5 q -1.725 1.955 -0.05,1 q -0.065 1.955 0.5,0.5 q -1.27 1.955 -1,0.25 q -1.09 1.955 1.5,1 " 
						transform="rotate(0 0,3.825 )"
						stroke-width ="0.1"
						fill="rgb(51,188,218)"
						/><path d="M 0,3.825 
						q -1.465 1.955 0.95,0.5 q 1.725 1.955 0.05,1 q 0.065 1.955 -0.5,0.5 q 1.27 1.955 1,0.25 q 1.09 1.955 -1.5,1 
						M 0,3.825 
						q 1.465 1.955 -0.95,0.5 q -1.725 1.955 -0.05,1 q -0.065 1.955 0.5,0.5 q -1.27 1.955 -1,0.25 q -1.09 1.955 1.5,1 " 
						transform="rotate(36 0,3.825 )"
						stroke-width ="0.1"
						fill="rgb(49.5,195.5,213.5)"
						/></g><g id="flower5" transform="skewX(-9) skewY(-9)">
						<path d="M 0,0
						Q -0.61,1.5625 0,4.78125"
						stroke="rgb(14,57,125)" 
						fill="transparent"
						stroke-width ="0.3" /><path d="M 0,4.78125 
						q -1.83125 2.44375 1.1375,0.625 q 2.15625 2.44375 0.0625,1.25 q 0.08125 2.44375 -0.625,0.625 q 1.5875 2.44375 1.25,0.3125 q 1.3625 2.44375 -1.825,1 
						M 0,4.78125 
						q 1.83125 2.44375 -1.1375,0.625 q -2.15625 2.44375 -0.0625,1.25 q -0.08125 2.44375 0.625,0.625 q -1.5875 2.44375 -1.25,0.3125 q -1.3625 2.44375 1.825,1 " 
						transform="rotate(0 0,4.78125 )"
						stroke-width ="0.1"
						fill="rgb(43,197,208)"
						/><path d="M 0,4.78125 
						q -1.83125 2.44375 1.1375,0.625 q 2.15625 2.44375 0.0625,1.25 q 0.08125 2.44375 -0.625,0.625 q 1.5875 2.44375 1.25,0.3125 q 1.3625 2.44375 -1.825,1 
						M 0,4.78125 
						q 1.83125 2.44375 -1.1375,0.625 q -2.15625 2.44375 -0.0625,1.25 q -0.08125 2.44375 0.625,0.625 q -1.5875 2.44375 -1.25,0.3125 q -1.3625 2.44375 1.825,1 " 
						transform="rotate(36 0,4.78125 )"
						stroke-width ="0.1"
						fill="rgb(46.5,181.5,200.5)"
						/></g><g id="flower6" transform="skewX(-8) skewY(-8)">
						<path d="M 0,0
						Q -0.66,1.875 0,5.7375"
						stroke="rgb(14,57,125)" 
						fill="transparent"
						stroke-width ="0.3" /><path d="M 0,5.7375 
						q -2.1975 2.9325 1.325,0.75 q 2.5875 2.9325 0.075,1.5 q 0.0975 2.9325 -0.75,0.75 q 1.905 2.9325 1.5,0.375 q 1.635 2.9325 -2.15,1 
						M 0,5.7375 
						q 2.1975 2.9325 -1.325,0.75 q -2.5875 2.9325 -0.075,1.5 q -0.0975 2.9325 0.75,0.75 q -1.905 2.9325 -1.5,0.375 q -1.635 2.9325 2.15,1 " 
						transform="rotate(0 0,5.7375 )"
						stroke-width ="0.1"
						fill="rgb(40,204,214)"
						/><circle cx="0" cy="5.7375" r="1.6125" fill="rgb(46,17,67)"/><circle cx="-0.03" cy="5.6975" r="1.075" fill="rgb(62.5,38.5,68.5)"/><path d="M 0,5.7375 
						q -2.1975 2.9325 1.325,0.75 q 2.5875 2.9325 0.075,1.5 q 0.0975 2.9325 -0.75,0.75 q 1.905 2.9325 1.5,0.375 q 1.635 2.9325 -2.15,1 
						M 0,5.7375 
						q 2.1975 2.9325 -1.325,0.75 q -2.5875 2.9325 -0.075,1.5 q -0.0975 2.9325 0.75,0.75 q -1.905 2.9325 -1.5,0.375 q -1.635 2.9325 2.15,1 " 
						transform="rotate(120 0,5.7375 )"
						stroke-width ="0.1"
						fill="rgb(52.5,181.5,215.5)"
						/><circle cx="0" cy="5.7375" r="1.6125" fill="rgb(46,17,67)"/><circle cx="0.04" cy="5.6875" r="1.075" fill="rgb(62.5,38.5,68.5)"/><path d="M 0,5.7375 
						q -2.1975 2.9325 1.325,0.75 q 2.5875 2.9325 0.075,1.5 q 0.0975 2.9325 -0.75,0.75 q 1.905 2.9325 1.5,0.375 q 1.635 2.9325 -2.15,1 
						M 0,5.7375 
						q 2.1975 2.9325 -1.325,0.75 q -2.5875 2.9325 -0.075,1.5 q -0.0975 2.9325 0.75,0.75 q -1.905 2.9325 -1.5,0.375 q -1.635 2.9325 2.15,1 " 
						transform="rotate(240 0,5.7375 )"
						stroke-width ="0.1"
						fill="rgb(48,197,211)"
						/><circle cx="0" cy="5.7375" r="1.6125" fill="rgb(46,17,67)"/><circle cx="-0.09" cy="5.7875" r="1.075" fill="rgb(62.5,38.5,68.5)"/><path d="M 0,5.7375 
						q -2.1975 2.9325 1.325,0.75 q 2.5875 2.9325 0.075,1.5 q 0.0975 2.9325 -0.75,0.75 q 1.905 2.9325 1.5,0.375 q 1.635 2.9325 -2.15,1 
						M 0,5.7375 
						q 2.1975 2.9325 -1.325,0.75 q -2.5875 2.9325 -0.075,1.5 q -0.0975 2.9325 0.75,0.75 q -1.905 2.9325 -1.5,0.375 q -1.635 2.9325 2.15,1 " 
						transform="rotate(360 0,5.7375 )"
						stroke-width ="0.1"
						fill="rgb(32.5,184.5,206.5)"
						/><circle cx="0" cy="5.7375" r="1.6125" fill="rgb(46,17,67)"/><circle cx="-0.01" cy="5.6375" r="1.075" fill="rgb(62.5,38.5,68.5)"/><path d="M 0,5.7375 
						q -2.1975 2.9325 1.325,0.75 q 2.5875 2.9325 0.075,1.5 q 0.0975 2.9325 -0.75,0.75 q 1.905 2.9325 1.5,0.375 q 1.635 2.9325 -2.15,1 
						M 0,5.7375 
						q 2.1975 2.9325 -1.325,0.75 q -2.5875 2.9325 -0.075,1.5 q -0.0975 2.9325 0.75,0.75 q -1.905 2.9325 -1.5,0.375 q -1.635 2.9325 2.15,1 " 
						transform="rotate(480 0,5.7375 )"
						stroke-width ="0.1"
						fill="rgb(39,183,197)"
						/><circle cx="0" cy="5.7375" r="1.6125" fill="rgb(46,17,67)"/><circle cx="0.08" cy="5.6675" r="1.075" fill="rgb(62.5,38.5,68.5)"/><path d="M 0,5.7375 
						q -2.1975 2.9325 1.325,0.75 q 2.5875 2.9325 0.075,1.5 q 0.0975 2.9325 -0.75,0.75 q 1.905 2.9325 1.5,0.375 q 1.635 2.9325 -2.15,1 
						M 0,5.7375 
						q 2.1975 2.9325 -1.325,0.75 q -2.5875 2.9325 -0.075,1.5 q -0.0975 2.9325 0.75,0.75 q -1.905 2.9325 -1.5,0.375 q -1.635 2.9325 2.15,1 " 
						transform="rotate(600 0,5.7375 )"
						stroke-width ="0.1"
						fill="rgb(33.5,174.5,190.5)"
						/><circle cx="0" cy="5.7375" r="1.6125" fill="rgb(46,17,67)"/><circle cx="-0.04" cy="5.7975" r="1.075" fill="rgb(62.5,38.5,68.5)"/><path d="M 0,5.7375 
						q -2.1975 2.9325 1.325,0.75 q 2.5875 2.9325 0.075,1.5 q 0.0975 2.9325 -0.75,0.75 q 1.905 2.9325 1.5,0.375 q 1.635 2.9325 -2.15,1 
						M 0,5.7375 
						q 2.1975 2.9325 -1.325,0.75 q -2.5875 2.9325 -0.075,1.5 q -0.0975 2.9325 0.75,0.75 q -1.905 2.9325 -1.5,0.375 q -1.635 2.9325 2.15,1 " 
						transform="rotate(720 0,5.7375 )"
						stroke-width ="0.1"
						fill="rgb(25,187,193)"
						/><circle cx="0" cy="5.7375" r="1.6125" fill="rgb(46,17,67)"/><circle cx="-0.07" cy="5.6875" r="1.075" fill="rgb(62.5,38.5,68.5)"/></g><g id="flower7" transform="skewX(-7) skewY(-7)">
						<path d="M 0,0
						Q 0.1,2.1875 0,6.69375"
						stroke="rgb(14,57,125)" 
						fill="transparent"
						stroke-width ="0.3" /><path d="M 0,6.69375 
						q -2.56375 3.42125 1.5125,0.875 q 3.01875 3.42125 0.0875,1.75 q 0.11375 3.42125 -0.875,0.875 q 2.2225 3.42125 1.75,0.4375 q 1.9075 3.42125 -2.475,1 
						M 0,6.69375 
						q 2.56375 3.42125 -1.5125,0.875 q -3.01875 3.42125 -0.0875,1.75 q -0.11375 3.42125 0.875,0.875 q -2.2225 3.42125 -1.75,0.4375 q -1.9075 3.42125 2.475,1 " 
						transform="rotate(0 0,6.69375 )"
						stroke-width ="0.1"
						fill="rgb(51,189,221)"
						/><path d="M 0,6.69375 
						q -2.56375 3.42125 1.5125,0.875 q 3.01875 3.42125 0.0875,1.75 q 0.11375 3.42125 -0.875,0.875 q 2.2225 3.42125 1.75,0.4375 q 1.9075 3.42125 -2.475,1 
						M 0,6.69375 
						q 2.56375 3.42125 -1.5125,0.875 q -3.01875 3.42125 -0.0875,1.75 q -0.11375 3.42125 0.875,0.875 q -2.2225 3.42125 -1.75,0.4375 q -1.9075 3.42125 2.475,1 " 
						transform="rotate(36 0,6.69375 )"
						stroke-width ="0.1"
						fill="rgb(41.5,197.5,206.5)"
						/></g><g id="flower8" transform="skewX(-3) skewY(-3)">
						<path d="M 0,0
						Q 0.35,2.5 0,7.65"
						stroke="rgb(14,57,125)" 
						fill="transparent"
						stroke-width ="0.3" /><path d="M 0,7.65 
						q -2.93 3.91 1.7,1 q 3.45 3.91 0.1,2 q 0.13 3.91 -1,1 q 2.54 3.91 2,0.5 q 2.18 3.91 -2.8,1 
						M 0,7.65 
						q 2.93 3.91 -1.7,1 q -3.45 3.91 -0.1,2 q -0.13 3.91 1,1 q -2.54 3.91 -2,0.5 q -2.18 3.91 2.8,1 " 
						transform="rotate(0 0,7.65 )"
						stroke-width ="0.1"
						fill="rgb(37,193,213)"
						/><path d="M 0,7.65 
						q -2.93 3.91 1.7,1 q 3.45 3.91 0.1,2 q 0.13 3.91 -1,1 q 2.54 3.91 2,0.5 q 2.18 3.91 -2.8,1 
						M 0,7.65 
						q 2.93 3.91 -1.7,1 q -3.45 3.91 -0.1,2 q -0.13 3.91 1,1 q -2.54 3.91 -2,0.5 q -2.18 3.91 2.8,1 " 
						transform="rotate(36 0,7.65 )"
						stroke-width ="0.1"
						fill="rgb(38.5,198.5,209.5)"
						/></g></defs>
				<g class="fullPlant">
					<g>
					<path d ="M 48,91 
					a 82 492 -19.98 0 0 3.528,-17.352" fill ="none" stroke ="rgb(10.5,51.5,127.5)" stroke-width ="3.366"/></g><circle cx="51.528" cy="73.648" r="0.8415" stroke="rgb(15.5,56.5,132.5)" fill="rgb(10.5,51.5,127.5)"/><use xlink:href="#leaf1"
						x="51.528" y="73.648" 
						transform="rotate(141 51.678 73.748)" 	
						fill="rgb(203,30,55)" /><use xlink:href="#leaf2"
						x="51.528" y="73.648" 
						transform="rotate(-173 51.528 73.648)" 	
						fill="rgb(224,24,44)" /><use xlink:href="#leaf3"
						x="51.528" y="73.648" 
						transform="rotate(-76 51.668 74.128)" 	
						fill="rgb(203,37,69)" /><use xlink:href="#leaf3"
						x="51.528" y="73.648" 
						transform="rotate(-131 51.528 73.648)" 	
						fill="rgb(219,33,68)" /><use xlink:href="#leaf2"
						x="51.528" y="73.648" 
						transform="rotate(-103 51.528 73.648)" 	
						fill="rgb(191,19,68)" /><use xlink:href="#leaf1"
						x="51.528" y="73.648" 
						transform="rotate(-164 52.488 74.398)" 	
						fill="rgb(219,33,77)" />
					<g>
					<path d ="M 51.528,73.648 
					a 62 248 3.21 0 0 9.312,-9.888" fill ="none" stroke ="rgb(13.5,50.5,127.5)" stroke-width ="1.683"/></g><circle cx="60.84" cy="63.76" r="0.42075" stroke="rgb(18.5,55.5,132.5)" fill="rgb(13.5,50.5,127.5)"/><use xlink:href="#leaf2"
						x="60.84" y="63.76" 
						transform="rotate(174 61.05 64.18)" 	
						fill="rgb(197,19,61)" /><use xlink:href="#leaf1"
						x="60.84" y="63.76" 
						transform="rotate(-145 60.84 63.76)" 	
						fill="rgb(198,32,51)" /><use xlink:href="#leaf3"
						x="60.84" y="63.76" 
						transform="rotate(95 61.45 64.41)" 	
						fill="rgb(217,32,67)" /><use xlink:href="#leaf1"
						x="60.84" y="63.76" 
						transform="rotate(-130 60.84 63.76)" 	
						fill="rgb(224,43,47)" /><use xlink:href="#leaf1"
						x="60.84" y="63.76" 
						transform="rotate(-78 60.88 64.48)" 	
						fill="rgb(191,19,38)" /><use xlink:href="#leaf2"
						x="60.84" y="63.76" 
						transform="rotate(175 61 64.47)" 	
						fill="rgb(222,39,67)" /><use xlink:href="#leaf3"
						x="60.84" y="63.76" 
						transform="rotate(25 61.33 64.71)" 	
						fill="rgb(193,30,41)" /><use xlink:href="#leaf1"
						x="60.84" y="63.76" 
						transform="rotate(-72 61 64.45)" 	
						fill="rgb(209,39,52)" /><use xlink:href="#leaf1"
						x="60.84" y="63.76" 
						transform="rotate(47 60.84 63.76)" 	
						fill="rgb(203,15,55)" /><use xlink:href="#leaf1"
						x="60.84" y="63.76" 
						transform="rotate(27 60.84 63.76)" 	
						fill="rgb(189,25,45)" />
					<g>
					<path d ="M 51.528,73.648 
					a 75 375 0.29 0 1 4.116,1.5" fill ="none" stroke ="rgb(12.5,52.5,128.5)" stroke-width ="1.683"/></g><circle cx="55.644" cy="75.148" r="0.42075" stroke="rgb(17.5,57.5,133.5)" fill="rgb(12.5,52.5,128.5)"/><use xlink:href="#leaf2"
						x="55.644" y="75.148" 
						transform="rotate(-180 56.344 75.618)" 	
						fill="rgb(205,5,38)" /><use xlink:href="#leaf1"
						x="55.644" y="75.148" 
						transform="rotate(-122 56.624 75.828)" 	
						fill="rgb(206,15,55)" /><use xlink:href="#leaf1"
						x="55.644" y="75.148" 
						transform="rotate(-82 56.114 75.808)" 	
						fill="rgb(227,40,41)" /><use xlink:href="#leaf4"
						x="55.644" y="75.148" 
						transform="rotate(-16 55.644 75.148)" 	
						fill="rgb(213,35,69)" /><use xlink:href="#leaf2"
						x="55.644" y="75.148" 
						transform="rotate(95 55.854 75.598)" 	
						fill="rgb(221,42,44)" /><use xlink:href="#leaf2"
						x="55.644" y="75.148" 
						transform="rotate(83 56.534 75.408)" 	
						fill="rgb(226,11,68)" /><use xlink:href="#leaf1"
						x="55.644" y="75.148" 
						transform="rotate(62 56.134 75.718)" 	
						fill="rgb(197,29,39)" /><use xlink:href="#leaf4"
						x="55.644" y="75.148" 
						transform="rotate(-152 55.644 75.148)" 	
						fill="rgb(220,38,48)" /><use xlink:href="#leaf1"
						x="55.644" y="75.148" 
						transform="rotate(147 55.644 75.148)" 	
						fill="rgb(192,13,47)" /><use xlink:href="#leaf1"
						x="55.644" y="75.148" 
						transform="rotate(30 56.134 75.328)" 	
						fill="rgb(224,12,56)" /><use xlink:href="#leaf2"
						x="55.644" y="75.148" 
						transform="rotate(-3 56.424 75.598)" 	
						fill="rgb(208,18,71)" /><use xlink:href="#leaf1"
						x="55.644" y="75.148" 
						transform="rotate(-117 55.644 75.148)" 	
						fill="rgb(211,30,74)" />
					<g>
					<path d ="M 51.528,73.648 
					a 73 219 3.31 0 1 11.544,1.452" fill ="none" stroke ="rgb(13.5,52.5,130.5)" stroke-width ="1.683"/></g><circle cx="63.072" cy="75.1" r="0.42075" stroke="rgb(18.5,57.5,135.5)" fill="rgb(13.5,52.5,130.5)"/><use xlink:href="#leaf3"
						x="63.072" y="75.1" 
						transform="rotate(122 63.602 75.3)" 	
						fill="rgb(212,20,70)" /><use xlink:href="#leaf4"
						x="63.072" y="75.1" 
						transform="rotate(60 63.072 75.1)" 	
						fill="rgb(203,4,66)" /><use xlink:href="#leaf1"
						x="63.072" y="75.1" 
						transform="rotate(173 63.412 75.44)" 	
						fill="rgb(207,11,74)" /><use xlink:href="#leaf2"
						x="63.072" y="75.1" 
						transform="rotate(49 63.592 75.29)" 	
						fill="rgb(188,4,64)" /><use xlink:href="#leaf2"
						x="63.072" y="75.1" 
						transform="rotate(150 63.072 75.1)" 	
						fill="rgb(209,25,69)" /><use xlink:href="#leaf1"
						x="63.072" y="75.1" 
						transform="rotate(-19 63.342 75.36)" 	
						fill="rgb(203,18,49)" /><use xlink:href="#leaf2"
						x="63.072" y="75.1" 
						transform="rotate(80 63.072 75.1)" 	
						fill="rgb(219,4,56)" /><use xlink:href="#leaf3"
						x="63.072" y="75.1" 
						transform="rotate(-165 63.862 75.28)" 	
						fill="rgb(203,8,57)" /><use xlink:href="#leaf1"
						x="63.072" y="75.1" 
						transform="rotate(-28 63.072 75.1)" 	
						fill="rgb(215,34,43)" /><use xlink:href="#leaf1"
						x="63.072" y="75.1" 
						transform="rotate(-125 63.732 76.03)" 	
						fill="rgb(199,35,71)" /><use xlink:href="#flower1" id="fleur30"
							x="63.072" y="75.1" 
							transform="rotate(-46 63.252 75.196)" />
					<g>
					<path d ="M 63.072,75.1 
					a 74 370 -7.43 0 0 4.92,1.08" fill ="none" stroke ="rgb(16,53,132)" stroke-width ="1.122"/></g><circle cx="67.992" cy="76.18" r="0.2805" stroke="rgb(21,58,137)" fill="rgb(16,53,132)"/><use xlink:href="#leaf3"
						x="67.992" y="76.18" 
						transform="rotate(-87 67.992 76.18)" 	
						fill="rgb(200,13,39)" /><use xlink:href="#leaf4"
						x="67.992" y="76.18" 
						transform="rotate(-99 68.002 76.53)" 	
						fill="rgb(219,3,64)" /><use xlink:href="#leaf3"
						x="67.992" y="76.18" 
						transform="rotate(-80 67.992 76.18)" 	
						fill="rgb(189,15,58)" /><use xlink:href="#leaf1"
						x="67.992" y="76.18" 
						transform="rotate(83 67.992 76.18)" 	
						fill="rgb(209,13,67)" /><use xlink:href="#leaf5"
						x="67.992" y="76.18" 
						transform="rotate(159 67.992 76.18)" 	
						fill="rgb(207,26,57)" /><use xlink:href="#leaf1"
						x="67.992" y="76.18" 
						transform="rotate(-128 67.992 76.18)" 	
						fill="rgb(188,17,46)" /><use xlink:href="#leaf1"
						x="67.992" y="76.18" 
						transform="rotate(-151 68.222 76.73)" 	
						fill="rgb(198,12,71)" /><use xlink:href="#leaf3"
						x="67.992" y="76.18" 
						transform="rotate(1 68.102 76.24)" 	
						fill="rgb(193,11,73)" /><use xlink:href="#leaf4"
						x="67.992" y="76.18" 
						transform="rotate(-174 67.992 76.18)" 	
						fill="rgb(201,32,49)" /><use xlink:href="#leaf1"
						x="67.992" y="76.18" 
						transform="rotate(44 67.992 76.18)" 	
						fill="rgb(227,4,67)" />
					<g>
					<path d ="M 63.072,75.1 
					a 80 400 -12.69 0 0 -2.568,-3.276" fill ="none" stroke ="rgb(16.5,53.5,134.5)" stroke-width ="1.122"/></g><circle cx="60.504" cy="71.824" r="0.2805" stroke="rgb(21.5,58.5,139.5)" fill="rgb(16.5,53.5,134.5)"/><use xlink:href="#leaf4"
						x="60.504" y="71.824" 
						transform="rotate(-33 60.504 71.824)" 	
						fill="rgb(190,13,45)" /><use xlink:href="#leaf2"
						x="60.504" y="71.824" 
						transform="rotate(-121 60.504 71.824)" 	
						fill="rgb(225,27,69)" /><use xlink:href="#leaf3"
						x="60.504" y="71.824" 
						transform="rotate(97 61.384 72.324)" 	
						fill="rgb(195,10,44)" /><use xlink:href="#leaf2"
						x="60.504" y="71.824" 
						transform="rotate(152 60.504 71.824)" 	
						fill="rgb(209,16,70)" /><use xlink:href="#leaf5"
						x="60.504" y="71.824" 
						transform="rotate(-92 60.614 72.154)" 	
						fill="rgb(208,20,44)" /><use xlink:href="#leaf3"
						x="60.504" y="71.824" 
						transform="rotate(26 61.464 72.714)" 	
						fill="rgb(225,11,57)" /><use xlink:href="#leaf3"
						x="60.504" y="71.824" 
						transform="rotate(-131 60.834 72.064)" 	
						fill="rgb(189,25,60)" /><use xlink:href="#leaf3"
						x="60.504" y="71.824" 
						transform="rotate(-26 60.554 71.854)" 	
						fill="rgb(200,43,71)" /><use xlink:href="#leaf5"
						x="60.504" y="71.824" 
						transform="rotate(-71 60.504 71.824)" 	
						fill="rgb(189,30,78)" /><use xlink:href="#leaf3"
						x="60.504" y="71.824" 
						transform="rotate(105 60.504 71.824)" 	
						fill="rgb(221,17,68)" /><use xlink:href="#leaf2"
						x="60.504" y="71.824" 
						transform="rotate(-82 61.464 72.394)" 	
						fill="rgb(210,25,57)" /><use xlink:href="#leaf3"
						x="60.504" y="71.824" 
						transform="rotate(132 60.904 71.824)" 	
						fill="rgb(211,10,39)" /><use xlink:href="#flower3" id="fleur50"
							x="60.504" y="71.824" 
							transform="rotate(-161 61.368 71.944)" />
					<g>
					<path d ="M 63.072,75.1 
					a 100 300 7.26 0 1 7.416,-2.268" fill ="none" stroke ="rgb(18,54,137)" stroke-width ="1.122"/></g><circle cx="70.488" cy="72.832" r="0.2805" stroke="rgb(23,59,142)" fill="rgb(18,54,137)"/><use xlink:href="#leaf1"
						x="70.488" y="72.832" 
						transform="rotate(17 71.218 73.492)" 	
						fill="rgb(216,17,54)" /><use xlink:href="#leaf5"
						x="70.488" y="72.832" 
						transform="rotate(41 71.128 73.032)" 	
						fill="rgb(223,21,43)" /><use xlink:href="#leaf5"
						x="70.488" y="72.832" 
						transform="rotate(-49 70.488 72.832)" 	
						fill="rgb(213,43,75)" /><use xlink:href="#leaf2"
						x="70.488" y="72.832" 
						transform="rotate(48 70.488 72.832)" 	
						fill="rgb(196,17,43)" /><use xlink:href="#leaf2"
						x="70.488" y="72.832" 
						transform="rotate(162 71.348 73.782)" 	
						fill="rgb(202,29,46)" /><use xlink:href="#leaf1"
						x="70.488" y="72.832" 
						transform="rotate(57 70.488 72.832)" 	
						fill="rgb(223,18,45)" /><use xlink:href="#leaf3"
						x="70.488" y="72.832" 
						transform="rotate(143 70.658 73.422)" 	
						fill="rgb(188,19,74)" /><use xlink:href="#leaf4"
						x="70.488" y="72.832" 
						transform="rotate(-113 70.488 72.832)" 	
						fill="rgb(190,6,57)" /><use xlink:href="#leaf1"
						x="70.488" y="72.832" 
						transform="rotate(-142 70.488 72.832)" 	
						fill="rgb(190,9,70)" /><use xlink:href="#leaf3"
						x="70.488" y="72.832" 
						transform="rotate(11 70.488 72.832)" 	
						fill="rgb(211,42,60)" /><use xlink:href="#leaf4"
						x="70.488" y="72.832" 
						transform="rotate(-150 71.358 72.882)" 	
						fill="rgb(215,14,52)" /><use xlink:href="#flower4" id="fleur60"
							x="70.488" y="72.832" 
							transform="rotate(143 70.488 72.832)" />
					<g>
					<path d ="M 70.488,72.832 
					a 86 258 20.49 0 0 -9.108,-1.68" fill ="none" stroke ="rgb(22,58,139)" stroke-width ="0.8415"/></g><circle cx="61.38" cy="71.152" r="0.210375" stroke="rgb(27,63,144)" fill="rgb(22,58,139)"/><use xlink:href="#leaf6"
						x="61.38" y="71.152" 
						transform="rotate(12 62.14 71.512)" 	
						fill="rgb(221,28,75)" /><use xlink:href="#leaf3"
						x="61.38" y="71.152" 
						transform="rotate(-154 61.43 71.492)" 	
						fill="rgb(223,26,57)" /><use xlink:href="#leaf4"
						x="61.38" y="71.152" 
						transform="rotate(-24 62.18 71.262)" 	
						fill="rgb(209,4,52)" /><use xlink:href="#leaf5"
						x="61.38" y="71.152" 
						transform="rotate(56 62.29 71.232)" 	
						fill="rgb(196,43,47)" /><use xlink:href="#leaf5"
						x="61.38" y="71.152" 
						transform="rotate(69 62.13 71.332)" 	
						fill="rgb(207,9,71)" /><use xlink:href="#leaf3"
						x="61.38" y="71.152" 
						transform="rotate(113 61.53 71.642)" 	
						fill="rgb(192,19,72)" />
					<g>
					<path d ="M 70.488,72.832 
					a 62 372 6.83 0 0 -10.476,-3.576" fill ="none" stroke ="rgb(22,61,142)" stroke-width ="0.8415"/></g><circle cx="60.012" cy="69.256" r="0.210375" stroke="rgb(27,66,147)" fill="rgb(22,61,142)"/><use xlink:href="#leaf6"
						x="60.012" y="69.256" 
						transform="rotate(-81 60.022 69.336)" 	
						fill="rgb(193,24,40)" /><use xlink:href="#leaf5"
						x="60.012" y="69.256" 
						transform="rotate(-140 60.012 69.676)" 	
						fill="rgb(218,13,38)" /><use xlink:href="#leaf5"
						x="60.012" y="69.256" 
						transform="rotate(-132 60.302 69.906)" 	
						fill="rgb(204,40,57)" /><use xlink:href="#leaf3"
						x="60.012" y="69.256" 
						transform="rotate(-145 60.012 69.256)" 	
						fill="rgb(216,37,59)" /><use xlink:href="#leaf5"
						x="60.012" y="69.256" 
						transform="rotate(-4 60.012 69.256)" 	
						fill="rgb(198,3,66)" /><use xlink:href="#leaf6"
						x="60.012" y="69.256" 
						transform="rotate(-53 60.962 70.186)" 	
						fill="rgb(217,27,43)" /><use xlink:href="#leaf3"
						x="60.012" y="69.256" 
						transform="rotate(32 60.012 69.256)" 	
						fill="rgb(205,27,50)" /><use xlink:href="#leaf3"
						x="60.012" y="69.256" 
						transform="rotate(-101 60.012 69.256)" 	
						fill="rgb(194,13,55)" /><use xlink:href="#leaf3"
						x="60.012" y="69.256" 
						transform="rotate(-82 60.012 69.256)" 	
						fill="rgb(224,9,38)" /><use xlink:href="#leaf2"
						x="60.012" y="69.256" 
						transform="rotate(141 60.502 69.826)" 	
						fill="rgb(188,23,49)" /><use xlink:href="#leaf5"
						x="60.012" y="69.256" 
						transform="rotate(102 60.012 69.256)" 	
						fill="rgb(196,12,65)" /><use xlink:href="#flower5" id="fleur80"
							x="60.012" y="69.256" 
							transform="rotate(-88 60.012 69.256)" /><use xlink:href="#flower5" id="fleur81"
							x="60.012" y="69.256" 
							transform="rotate(135 60.012 69.256)" />
					<g>
					<path d ="M 70.488,72.832 
					a 75 75 -3.89 0 1 -6.984,1.44" fill ="none" stroke ="rgb(24,65,146)" stroke-width ="0.8415"/></g><circle cx="63.504" cy="74.272" r="0.210375" stroke="rgb(29,70,151)" fill="rgb(24,65,146)"/><use xlink:href="#leaf4"
						x="63.504" y="74.272" 
						transform="rotate(148 63.504 74.272)" 	
						fill="rgb(187,12,75)" /><use xlink:href="#leaf4"
						x="63.504" y="74.272" 
						transform="rotate(-123 63.504 74.272)" 	
						fill="rgb(222,19,64)" /><use xlink:href="#leaf4"
						x="63.504" y="74.272" 
						transform="rotate(177 63.504 74.272)" 	
						fill="rgb(195,4,71)" /><use xlink:href="#leaf5"
						x="63.504" y="74.272" 
						transform="rotate(148 63.854 75.252)" 	
						fill="rgb(203,27,63)" /><use xlink:href="#leaf3"
						x="63.504" y="74.272" 
						transform="rotate(-15 64.134 74.992)" 	
						fill="rgb(205,35,52)" /><use xlink:href="#leaf5"
						x="63.504" y="74.272" 
						transform="rotate(24 64.484 74.962)" 	
						fill="rgb(219,13,52)" /><use xlink:href="#leaf2"
						x="63.504" y="74.272" 
						transform="rotate(164 63.644 74.522)" 	
						fill="rgb(187,34,42)" /><use xlink:href="#leaf4"
						x="63.504" y="74.272" 
						transform="rotate(-156 63.974 74.492)" 	
						fill="rgb(193,14,50)" /><use xlink:href="#leaf5"
						x="63.504" y="74.272" 
						transform="rotate(94 63.664 74.302)" 	
						fill="rgb(212,34,53)" /><use xlink:href="#leaf5"
						x="63.504" y="74.272" 
						transform="rotate(-58 63.504 74.272)" 	
						fill="rgb(190,4,66)" /><use xlink:href="#leaf2"
						x="63.504" y="74.272" 
						transform="rotate(10 63.504 74.272)" 	
						fill="rgb(203,26,77)" /><use xlink:href="#leaf3"
						x="63.504" y="74.272" 
						transform="rotate(-7 63.504 74.272)" 	
						fill="rgb(226,13,77)" /><use xlink:href="#flower3" id="fleur90"
							x="63.504" y="74.272" 
							transform="rotate(-107 63.684 74.896)" /><use xlink:href="#flower3" id="fleur91"
							x="63.504" y="74.272" 
							transform="rotate(-123 63.504 74.272)" />
					<g>
					<path d ="M 63.504,74.272 
					a 74 370 16.60 0 1 3.48,5.988" fill ="none" stroke ="rgb(28.5,68.5,147.5)" stroke-width ="0.6732"/></g><circle cx="66.984" cy="80.26" r="0.1683" stroke="rgb(33.5,73.5,152.5)" fill="rgb(28.5,68.5,147.5)"/><use xlink:href="#leaf4"
						x="66.984" y="80.26" 
						transform="rotate(-19 67.854 80.41)" 	
						fill="rgb(193,38,63)" /><use xlink:href="#leaf5"
						x="66.984" y="80.26" 
						transform="rotate(-93 67.064 80.64)" 	
						fill="rgb(187,4,64)" /><use xlink:href="#leaf4"
						x="66.984" y="80.26" 
						transform="rotate(50 67.124 81.1)" 	
						fill="rgb(197,15,68)" /><use xlink:href="#leaf6"
						x="66.984" y="80.26" 
						transform="rotate(-56 66.984 80.26)" 	
						fill="rgb(197,34,73)" /><use xlink:href="#leaf6"
						x="66.984" y="80.26" 
						transform="rotate(116 67.434 80.26)" 	
						fill="rgb(226,16,77)" /><use xlink:href="#leaf7"
						x="66.984" y="80.26" 
						transform="rotate(-175 66.984 80.26)" 	
						fill="rgb(188,21,39)" /><use xlink:href="#leaf7"
						x="66.984" y="80.26" 
						transform="rotate(52 67.054 81.24)" 	
						fill="rgb(190,13,75)" /><use xlink:href="#leaf7"
						x="66.984" y="80.26" 
						transform="rotate(172 66.984 80.26)" 	
						fill="rgb(188,30,46)" /><use xlink:href="#flower7" id="fleur100"
							x="66.984" y="80.26" 
							transform="rotate(20 67.716 80.788)" /><use xlink:href="#flower7" id="fleur101"
							x="66.984" y="80.26" 
							transform="rotate(-53 67.236 80.764)" />
					<g>
					<path d ="M 66.984,80.26 
					a 84 672 -8.38 0 1 -6.648,-6.396" fill ="none" stroke ="rgb(33.5,72.5,151.5)" stroke-width ="0.561"/></g><circle cx="60.336" cy="73.864" r="0.14025" stroke="rgb(38.5,77.5,156.5)" fill="rgb(33.5,72.5,151.5)"/><use xlink:href="#leaf5"
						x="60.336" y="73.864" 
						transform="rotate(-16 61.276 74.294)" 	
						fill="rgb(192,13,44)" /><use xlink:href="#leaf4"
						x="60.336" y="73.864" 
						transform="rotate(56 61.206 74.324)" 	
						fill="rgb(211,22,46)" /><use xlink:href="#leaf6"
						x="60.336" y="73.864" 
						transform="rotate(30 60.466 73.924)" 	
						fill="rgb(199,26,58)" /><use xlink:href="#leaf7"
						x="60.336" y="73.864" 
						transform="rotate(13 61.146 74.444)" 	
						fill="rgb(196,37,75)" /><use xlink:href="#leaf5"
						x="60.336" y="73.864" 
						transform="rotate(160 60.336 73.864)" 	
						fill="rgb(207,4,51)" /><use xlink:href="#leaf5"
						x="60.336" y="73.864" 
						transform="rotate(-5 61.096 74.684)" 	
						fill="rgb(213,31,51)" /><use xlink:href="#leaf4"
						x="60.336" y="73.864" 
						transform="rotate(69 60.666 74.254)" 	
						fill="rgb(203,42,75)" /><use xlink:href="#leaf8"
						x="60.336" y="73.864" 
						transform="rotate(112 60.836 74.474)" 	
						fill="rgb(212,17,78)" /><use xlink:href="#leaf5"
						x="60.336" y="73.864" 
						transform="rotate(135 60.336 73.864)" 	
						fill="rgb(190,39,58)" /><use xlink:href="#leaf6"
						x="60.336" y="73.864" 
						transform="rotate(-164 60.426 74.854)" 	
						fill="rgb(200,7,62)" /><use xlink:href="#leaf4"
						x="60.336" y="73.864" 
						transform="rotate(26 60.866 74.054)" 	
						fill="rgb(196,25,75)" /><use xlink:href="#leaf5"
						x="60.336" y="73.864" 
						transform="rotate(44 61.056 74.404)" 	
						fill="rgb(220,14,72)" /><use xlink:href="#leaf4"
						x="60.336" y="73.864" 
						transform="rotate(146 60.586 74.544)" 	
						fill="rgb(220,17,53)" /><use xlink:href="#leaf6"
						x="60.336" y="73.864" 
						transform="rotate(-35 60.706 74.224)" 	
						fill="rgb(224,38,40)" /><use xlink:href="#flower6" id="fleur110"
							x="60.336" y="73.864" 
							transform="rotate(-39 60.336 73.864)" /><use xlink:href="#flower6" id="fleur111"
							x="60.336" y="73.864" 
							transform="rotate(126 60.336 73.864)" />
					<g>
					<path d ="M 67.992,76.18 
					a 50 400 5.99 0 0 12.888,-3.516" fill ="none" stroke ="rgb(36.5,76.5,152.5)" stroke-width ="0.8415"/></g><circle cx="80.88" cy="72.664" r="0.210375" stroke="rgb(41.5,81.5,157.5)" fill="rgb(36.5,76.5,152.5)"/><use xlink:href="#leaf2"
						x="80.88" y="72.664" 
						transform="rotate(-152 80.88 72.664)" 	
						fill="rgb(202,34,72)" /><use xlink:href="#leaf2"
						x="80.88" y="72.664" 
						transform="rotate(74 80.88 72.664)" 	
						fill="rgb(194,27,39)" /><use xlink:href="#leaf6"
						x="80.88" y="72.664" 
						transform="rotate(101 80.88 72.664)" 	
						fill="rgb(212,41,75)" /><use xlink:href="#leaf3"
						x="80.88" y="72.664" 
						transform="rotate(143 81.12 72.784)" 	
						fill="rgb(225,37,49)" /><use xlink:href="#leaf3"
						x="80.88" y="72.664" 
						transform="rotate(-70 80.88 72.664)" 	
						fill="rgb(188,10,39)" /><use xlink:href="#leaf4"
						x="80.88" y="72.664" 
						transform="rotate(-5 80.88 72.664)" 	
						fill="rgb(214,36,48)" /><use xlink:href="#leaf6"
						x="80.88" y="72.664" 
						transform="rotate(142 81.42 73.034)" 	
						fill="rgb(213,32,69)" /><use xlink:href="#leaf6"
						x="80.88" y="72.664" 
						transform="rotate(160 81.29 72.814)" 	
						fill="rgb(213,27,56)" /><use xlink:href="#leaf6"
						x="80.88" y="72.664" 
						transform="rotate(39 81.87 73.144)" 	
						fill="rgb(211,13,66)" /><use xlink:href="#leaf5"
						x="80.88" y="72.664" 
						transform="rotate(5 80.88 72.664)" 	
						fill="rgb(187,38,46)" />
					<g>
					<path d ="M 80.88,72.664 
					a 54 270 20.50 0 1 10.308,2.928" fill ="none" stroke ="rgb(37,78,155)" stroke-width ="0.6732"/></g><circle cx="91.188" cy="75.592" r="0.1683" stroke="rgb(42,83,160)" fill="rgb(37,78,155)"/><use xlink:href="#leaf3"
						x="91.188" y="75.592" 
						transform="rotate(-23 91.188 75.592)" 	
						fill="rgb(199,8,41)" /><use xlink:href="#leaf7"
						x="91.188" y="75.592" 
						transform="rotate(117 91.468 75.752)" 	
						fill="rgb(207,42,77)" /><use xlink:href="#leaf4"
						x="91.188" y="75.592" 
						transform="rotate(57 92.118 76.022)" 	
						fill="rgb(204,32,63)" /><use xlink:href="#leaf3"
						x="91.188" y="75.592" 
						transform="rotate(176 91.548 75.652)" 	
						fill="rgb(225,24,47)" /><use xlink:href="#leaf7"
						x="91.188" y="75.592" 
						transform="rotate(95 91.188 75.592)" 	
						fill="rgb(206,38,50)" /><use xlink:href="#flower7" id="fleur130"
							x="91.188" y="75.592" 
							transform="rotate(108 91.908 76.552)" /><use xlink:href="#flower7" id="fleur131"
							x="91.188" y="75.592" 
							transform="rotate(-167 92.34 75.784)" />
					<g>
					<path d ="M 55.644,75.148 
					a 56 224 -9.61 0 0 -8.88,-10.26" fill ="none" stroke ="rgb(39.5,81.5,154.5)" stroke-width ="1.122"/></g><circle cx="46.764" cy="64.888" r="0.2805" stroke="rgb(44.5,86.5,159.5)" fill="rgb(39.5,81.5,154.5)"/><use xlink:href="#leaf1"
						x="46.764" y="64.888" 
						transform="rotate(-120 46.764 64.888)" 	
						fill="rgb(198,12,73)" /><use xlink:href="#leaf2"
						x="46.764" y="64.888" 
						transform="rotate(162 47.294 65.768)" 	
						fill="rgb(193,20,75)" /><use xlink:href="#leaf4"
						x="46.764" y="64.888" 
						transform="rotate(60 47.584 65.338)" 	
						fill="rgb(192,32,47)" /><use xlink:href="#leaf2"
						x="46.764" y="64.888" 
						transform="rotate(55 47.414 65.488)" 	
						fill="rgb(190,17,65)" /><use xlink:href="#leaf4"
						x="46.764" y="64.888" 
						transform="rotate(62 46.764 64.888)" 	
						fill="rgb(197,34,65)" /><use xlink:href="#leaf1"
						x="46.764" y="64.888" 
						transform="rotate(-90 46.764 64.888)" 	
						fill="rgb(221,41,59)" /><use xlink:href="#leaf5"
						x="46.764" y="64.888" 
						transform="rotate(148 46.764 64.888)" 	
						fill="rgb(201,31,71)" /><use xlink:href="#leaf1"
						x="46.764" y="64.888" 
						transform="rotate(52 46.914 65.638)" 	
						fill="rgb(194,16,59)" /><use xlink:href="#leaf1"
						x="46.764" y="64.888" 
						transform="rotate(-100 46.764 64.888)" 	
						fill="rgb(224,40,48)" /><use xlink:href="#leaf4"
						x="46.764" y="64.888" 
						transform="rotate(-42 47.134 65.728)" 	
						fill="rgb(198,33,40)" /><use xlink:href="#leaf4"
						x="46.764" y="64.888" 
						transform="rotate(-98 47.484 65.198)" 	
						fill="rgb(212,19,45)" /><use xlink:href="#flower4" id="fleur140"
							x="46.764" y="64.888" 
							transform="rotate(-22 46.764 64.888)" /><use xlink:href="#flower4" id="fleur141"
							x="46.764" y="64.888" 
							transform="rotate(-81 46.764 64.888)" />
					<g>
					<path d ="M 55.644,75.148 
					a 59 531 5.30 0 1 -9.588,-5.004" fill ="none" stroke ="rgb(40,81,154)" stroke-width ="1.122"/></g><circle cx="46.056" cy="70.144" r="0.2805" stroke="rgb(45,86,159)" fill="rgb(40,81,154)"/><use xlink:href="#leaf2"
						x="46.056" y="70.144" 
						transform="rotate(-12 46.426 70.354)" 	
						fill="rgb(200,19,40)" /><use xlink:href="#leaf4"
						x="46.056" y="70.144" 
						transform="rotate(-40 46.056 70.144)" 	
						fill="rgb(190,10,40)" /><use xlink:href="#leaf5"
						x="46.056" y="70.144" 
						transform="rotate(-108 46.896 70.684)" 	
						fill="rgb(195,39,72)" /><use xlink:href="#leaf2"
						x="46.056" y="70.144" 
						transform="rotate(179 46.606 70.174)" 	
						fill="rgb(206,9,77)" /><use xlink:href="#leaf5"
						x="46.056" y="70.144" 
						transform="rotate(30 46.276 70.374)" 	
						fill="rgb(220,11,73)" /><use xlink:href="#leaf1"
						x="46.056" y="70.144" 
						transform="rotate(100 46.056 70.144)" 	
						fill="rgb(220,42,74)" /><use xlink:href="#leaf5"
						x="46.056" y="70.144" 
						transform="rotate(37 46.056 70.144)" 	
						fill="rgb(198,6,59)" /><use xlink:href="#leaf5"
						x="46.056" y="70.144" 
						transform="rotate(-57 46.056 70.144)" 	
						fill="rgb(191,11,42)" /><use xlink:href="#leaf3"
						x="46.056" y="70.144" 
						transform="rotate(109 46.056 70.144)" 	
						fill="rgb(206,18,71)" /><use xlink:href="#leaf4"
						x="46.056" y="70.144" 
						transform="rotate(103 47.016 70.294)" 	
						fill="rgb(192,19,54)" /><use xlink:href="#leaf4"
						x="46.056" y="70.144" 
						transform="rotate(21 46.726 70.784)" 	
						fill="rgb(194,43,38)" /><use xlink:href="#flower4" id="fleur150"
							x="46.056" y="70.144" 
							transform="rotate(32 47.112 70.9)" /><use xlink:href="#flower4" id="fleur151"
							x="46.056" y="70.144" 
							transform="rotate(-110 46.056 70.144)" />
					<g>
					<path d ="M 46.056,70.144 
					a 58 174 -10.58 0 1 -9.444,5.448" fill ="none" stroke ="rgb(41,83,155)" stroke-width ="0.8415"/></g><circle cx="36.612" cy="75.592" r="0.210375" stroke="rgb(46,88,160)" fill="rgb(41,83,155)"/><use xlink:href="#leaf2"
						x="36.612" y="75.592" 
						transform="rotate(-179 36.612 75.592)" 	
						fill="rgb(199,35,73)" /><use xlink:href="#leaf2"
						x="36.612" y="75.592" 
						transform="rotate(115 36.612 75.592)" 	
						fill="rgb(195,35,40)" /><use xlink:href="#leaf5"
						x="36.612" y="75.592" 
						transform="rotate(-110 36.772 76.072)" 	
						fill="rgb(190,30,78)" /><use xlink:href="#leaf4"
						x="36.612" y="75.592" 
						transform="rotate(1 37.342 75.792)" 	
						fill="rgb(194,16,54)" /><use xlink:href="#leaf2"
						x="36.612" y="75.592" 
						transform="rotate(69 37.412 76.072)" 	
						fill="rgb(190,35,62)" /><use xlink:href="#leaf4"
						x="36.612" y="75.592" 
						transform="rotate(-25 36.612 75.592)" 	
						fill="rgb(194,30,61)" /><use xlink:href="#leaf2"
						x="36.612" y="75.592" 
						transform="rotate(-33 37.352 75.732)" 	
						fill="rgb(215,23,40)" /><use xlink:href="#leaf2"
						x="36.612" y="75.592" 
						transform="rotate(-65 36.612 75.592)" 	
						fill="rgb(189,8,70)" /><use xlink:href="#flower2" id="fleur160"
							x="36.612" y="75.592" 
							transform="rotate(112 36.612 75.676)" /><use xlink:href="#flower2" id="fleur161"
							x="36.612" y="75.592" 
							transform="rotate(-20 36.612 75.592)" /><use xlink:href="#flower2" id="fleur162"
							x="36.612" y="75.592" 
							transform="rotate(7 36.84 76.36)" /><use xlink:href="#flower2" id="fleur163"
							x="36.612" y="75.592" 
							transform="rotate(-96 37.404 76.456)" /></g>
				</svg>