<svg class="relie" xmlns="http://www.w3.org/2000/svg" viewBox="0 0 100 100" preserveAspectRatio="xMidYMid meet" x="0" y="0" overflow="visible" xmlns:xlink="http://www.w3.org/1999/xlink">

		<defs>  <g id="leaf1" transform="skewX(2) skewY(2)"><path d="M 0,0 
					q 0.38 0.38375 0.17375,0.3125 q 0.255 0.38375 -0.16625,0.3125 q 0.13625 0.38375 0.125,0.3125 q 0.385 0.38375 -0.1325,1 
					M 0,0 
					q -0.38 0.38375 -0.17375,0.3125 q -0.255 0.38375 0.16625,0.3125 q -0.13625 0.38375 -0.125,0.3125 q -0.385 0.38375 0.1325,1 " 
					stroke-width ="0.2" /></g>  <g id="leaf2" transform="skewX(-19) skewY(-19)"><path d="M 0,0 
					q 0.76 0.7675 0.3475,0.625 q 0.51 0.7675 -0.3325,0.625 q 0.2725 0.7675 0.25,0.625 q 0.77 0.7675 -0.265,1 
					M 0,0 
					q -0.76 0.7675 -0.3475,0.625 q -0.51 0.7675 0.3325,0.625 q -0.2725 0.7675 -0.25,0.625 q -0.77 0.7675 0.265,1 " 
					stroke-width ="0.2" /></g>  <g id="leaf3" transform="skewX(10) skewY(10)"><path d="M 0,0 
					q 1.14 1.15125 0.52125,0.9375 q 0.765 1.15125 -0.49875,0.9375 q 0.40875 1.15125 0.375,0.9375 q 1.155 1.15125 -0.3975,1 
					M 0,0 
					q -1.14 1.15125 -0.52125,0.9375 q -0.765 1.15125 0.49875,0.9375 q -0.40875 1.15125 -0.375,0.9375 q -1.155 1.15125 0.3975,1 " 
					stroke-width ="0.2" /></g>  <g id="leaf4" transform="skewX(19) skewY(19)"><path d="M 0,0 
					q 1.52 1.535 0.695,1.25 q 1.02 1.535 -0.665,1.25 q 0.545 1.535 0.5,1.25 q 1.54 1.535 -0.53,1.25 
					M 0,0 
					q -1.52 1.535 -0.695,1.25 q -1.02 1.535 0.665,1.25 q -0.545 1.535 -0.5,1.25 q -1.54 1.535 0.53,1.25 " 
					stroke-width ="0.2" /></g>  <g id="leaf5" transform="skewX(5) skewY(5)"><path d="M 0,0 
					q 1.9 1.91875 0.86875,1.5625 q 1.275 1.91875 -0.83125,1.5625 q 0.68125 1.91875 0.625,1.5625 q 1.925 1.91875 -0.6625,1.5625 
					M 0,0 
					q -1.9 1.91875 -0.86875,1.5625 q -1.275 1.91875 0.83125,1.5625 q -0.68125 1.91875 -0.625,1.5625 q -1.925 1.91875 0.6625,1.5625 " 
					stroke-width ="0.2" /></g>  <g id="leaf6" transform="skewX(3) skewY(3)"><path d="M 0,0 
					q 2.28 2.3025 1.0425,1.875 q 1.53 2.3025 -0.9975,1.875 q 0.8175 2.3025 0.75,1.875 q 2.31 2.3025 -0.795,1.875 
					M 0,0 
					q -2.28 2.3025 -1.0425,1.875 q -1.53 2.3025 0.9975,1.875 q -0.8175 2.3025 -0.75,1.875 q -2.31 2.3025 0.795,1.875 " 
					stroke-width ="0.2" /></g>  <g id="leaf7" transform="skewX(-9) skewY(-9)"><path d="M 0,0 
					q 2.66 2.68625 1.21625,2.1875 q 1.785 2.68625 -1.16375,2.1875 q 0.95375 2.68625 0.875,2.1875 q 2.695 2.68625 -0.9275,2.1875 
					M 0,0 
					q -2.66 2.68625 -1.21625,2.1875 q -1.785 2.68625 1.16375,2.1875 q -0.95375 2.68625 -0.875,2.1875 q -2.695 2.68625 0.9275,2.1875 " 
					stroke-width ="0.2" /></g>  <g id="leaf8" transform="skewX(2) skewY(2)"><path d="M 0,0 
					q 3.04 3.07 1.39,2.5 q 2.04 3.07 -1.33,2.5 q 1.09 3.07 1,2.5 q 3.08 3.07 -1.06,2.5 
					M 0,0 
					q -3.04 3.07 -1.39,2.5 q -2.04 3.07 1.33,2.5 q -1.09 3.07 -1,2.5 q -3.08 3.07 1.06,2.5 " 
					stroke-width ="0.2" /></g><g id="flower1" transform="skewX(0) skewY(0)">
						<path d="M 0,0
						Q 0.14,0.3125 0,1.50625"
						stroke="rgb(19,172,63)" 
						fill="transparent"
						stroke-width ="0.3" /><path d="M 0,1.50625 
						q -0.15625 -0.15125 0.19875,0.15625 q 0.11125 -0.15125 -0.18875,0.15625 q 0.395 -0.15125 0.3175,0.15625 q 0.215 -0.15125 -0.3275,1 
						M 0,1.50625 
						q 0.15625 -0.15125 -0.19875,0.15625 q -0.11125 -0.15125 0.18875,0.15625 q -0.395 -0.15125 -0.3175,0.15625 q -0.215 -0.15125 0.3275,1 " 
						transform="rotate(0 0,1.50625 )"
						stroke-width ="0.1"
						fill="rgb(95,114,132)"
						/><path d="M 0,1.50625 
						q -0.15625 -0.15125 0.19875,0.15625 q 0.11125 -0.15125 -0.18875,0.15625 q 0.395 -0.15125 0.3175,0.15625 q 0.215 -0.15125 -0.3275,1 
						M 0,1.50625 
						q 0.15625 -0.15125 -0.19875,0.15625 q -0.11125 -0.15125 0.18875,0.15625 q -0.395 -0.15125 -0.3175,0.15625 q -0.215 -0.15125 0.3275,1 " 
						transform="rotate(15.428571428571 0,1.50625 )"
						stroke-width ="0.1"
						fill="rgb(94.5,126.5,133.5)"
						/></g><g id="flower2" transform="skewX(5) skewY(5)">
						<path d="M 0,0
						Q -1,0.625 0,3.0125"
						stroke="rgb(19,172,63)" 
						fill="transparent"
						stroke-width ="0.3" /><path d="M 0,3.0125 
						q -0.3125 -0.3025 0.3975,0.3125 q 0.2225 -0.3025 -0.3775,0.3125 q 0.79 -0.3025 0.635,0.3125 q 0.43 -0.3025 -0.655,1 
						M 0,3.0125 
						q 0.3125 -0.3025 -0.3975,0.3125 q -0.2225 -0.3025 0.3775,0.3125 q -0.79 -0.3025 -0.635,0.3125 q -0.43 -0.3025 0.655,1 " 
						transform="rotate(0 0,3.0125 )"
						stroke-width ="0.1"
						fill="rgb(104,130,119)"
						/><path d="M 0,3.0125 
						q -0.3125 -0.3025 0.3975,0.3125 q 0.2225 -0.3025 -0.3775,0.3125 q 0.79 -0.3025 0.635,0.3125 q 0.43 -0.3025 -0.655,1 
						M 0,3.0125 
						q 0.3125 -0.3025 -0.3975,0.3125 q -0.2225 -0.3025 0.3775,0.3125 q -0.79 -0.3025 -0.635,0.3125 q -0.43 -0.3025 0.655,1 " 
						transform="rotate(15.428571428571 0,3.0125 )"
						stroke-width ="0.1"
						fill="rgb(87.5,111.5,114.5)"
						/></g><g id="flower3" transform="skewX(8) skewY(8)">
						<path d="M 0,0
						Q 0.22,0.9375 0,4.51875"
						stroke="rgb(19,172,63)" 
						fill="transparent"
						stroke-width ="0.3" /><path d="M 0,4.51875 
						q -0.46875 -0.45375 0.59625,0.46875 q 0.33375 -0.45375 -0.56625,0.46875 q 1.185 -0.45375 0.9525,0.46875 q 0.645 -0.45375 -0.9825,1 
						M 0,4.51875 
						q 0.46875 -0.45375 -0.59625,0.46875 q -0.33375 -0.45375 0.56625,0.46875 q -1.185 -0.45375 -0.9525,0.46875 q -0.645 -0.45375 0.9825,1 " 
						transform="rotate(0 0,4.51875 )"
						stroke-width ="0.1"
						fill="rgb(94,116,127)"
						/><circle cx="0" cy="4.51875" r="0.35625" fill="rgb(174,127,79)"/><circle cx="-0.09" cy="4.56875" r="0.2375" fill="rgb(184.5,142.5,85.5)"/><path d="M 0,4.51875 
						q -0.46875 -0.45375 0.59625,0.46875 q 0.33375 -0.45375 -0.56625,0.46875 q 1.185 -0.45375 0.9525,0.46875 q 0.645 -0.45375 -0.9825,1 
						M 0,4.51875 
						q 0.46875 -0.45375 -0.59625,0.46875 q -0.33375 -0.45375 0.56625,0.46875 q -1.185 -0.45375 -0.9525,0.46875 q -0.645 -0.45375 0.9825,1 " 
						transform="rotate(51.428571428571 0,4.51875 )"
						stroke-width ="0.1"
						fill="rgb(93.5,113.5,126.5)"
						/><circle cx="0" cy="4.51875" r="0.35625" fill="rgb(174,127,79)"/><circle cx="0.08" cy="4.59875" r="0.2375" fill="rgb(184.5,142.5,85.5)"/><path d="M 0,4.51875 
						q -0.46875 -0.45375 0.59625,0.46875 q 0.33375 -0.45375 -0.56625,0.46875 q 1.185 -0.45375 0.9525,0.46875 q 0.645 -0.45375 -0.9825,1 
						M 0,4.51875 
						q 0.46875 -0.45375 -0.59625,0.46875 q -0.33375 -0.45375 0.56625,0.46875 q -1.185 -0.45375 -0.9525,0.46875 q -0.645 -0.45375 0.9825,1 " 
						transform="rotate(102.85714285714 0,4.51875 )"
						stroke-width ="0.1"
						fill="rgb(99,124,123)"
						/><circle cx="0" cy="4.51875" r="0.35625" fill="rgb(174,127,79)"/><circle cx="0.02" cy="4.58875" r="0.2375" fill="rgb(184.5,142.5,85.5)"/><path d="M 0,4.51875 
						q -0.46875 -0.45375 0.59625,0.46875 q 0.33375 -0.45375 -0.56625,0.46875 q 1.185 -0.45375 0.9525,0.46875 q 0.645 -0.45375 -0.9825,1 
						M 0,4.51875 
						q 0.46875 -0.45375 -0.59625,0.46875 q -0.33375 -0.45375 0.56625,0.46875 q -1.185 -0.45375 -0.9525,0.46875 q -0.645 -0.45375 0.9825,1 " 
						transform="rotate(154.28571428571 0,4.51875 )"
						stroke-width ="0.1"
						fill="rgb(86.5,120.5,117.5)"
						/><circle cx="0" cy="4.51875" r="0.35625" fill="rgb(174,127,79)"/><circle cx="0.08" cy="4.44875" r="0.2375" fill="rgb(184.5,142.5,85.5)"/><path d="M 0,4.51875 
						q -0.46875 -0.45375 0.59625,0.46875 q 0.33375 -0.45375 -0.56625,0.46875 q 1.185 -0.45375 0.9525,0.46875 q 0.645 -0.45375 -0.9825,1 
						M 0,4.51875 
						q 0.46875 -0.45375 -0.59625,0.46875 q -0.33375 -0.45375 0.56625,0.46875 q -1.185 -0.45375 -0.9525,0.46875 q -0.645 -0.45375 0.9825,1 " 
						transform="rotate(205.71428571429 0,4.51875 )"
						stroke-width ="0.1"
						fill="rgb(91,115,109)"
						/><circle cx="0" cy="4.51875" r="0.35625" fill="rgb(174,127,79)"/><circle cx="-0.04" cy="4.43875" r="0.2375" fill="rgb(184.5,142.5,85.5)"/><path d="M 0,4.51875 
						q -0.46875 -0.45375 0.59625,0.46875 q 0.33375 -0.45375 -0.56625,0.46875 q 1.185 -0.45375 0.9525,0.46875 q 0.645 -0.45375 -0.9825,1 
						M 0,4.51875 
						q 0.46875 -0.45375 -0.59625,0.46875 q -0.33375 -0.45375 0.56625,0.46875 q -1.185 -0.45375 -0.9525,0.46875 q -0.645 -0.45375 0.9825,1 " 
						transform="rotate(257.14285714286 0,4.51875 )"
						stroke-width ="0.1"
						fill="rgb(87.5,113.5,120.5)"
						/><circle cx="0" cy="4.51875" r="0.35625" fill="rgb(174,127,79)"/><circle cx="0.05" cy="4.45875" r="0.2375" fill="rgb(184.5,142.5,85.5)"/><path d="M 0,4.51875 
						q -0.46875 -0.45375 0.59625,0.46875 q 0.33375 -0.45375 -0.56625,0.46875 q 1.185 -0.45375 0.9525,0.46875 q 0.645 -0.45375 -0.9825,1 
						M 0,4.51875 
						q 0.46875 -0.45375 -0.59625,0.46875 q -0.33375 -0.45375 0.56625,0.46875 q -1.185 -0.45375 -0.9525,0.46875 q -0.645 -0.45375 0.9825,1 " 
						transform="rotate(308.57142857143 0,4.51875 )"
						stroke-width ="0.1"
						fill="rgb(94,102,105)"
						/><circle cx="0" cy="4.51875" r="0.35625" fill="rgb(174,127,79)"/><circle cx="-0.1" cy="4.51875" r="0.2375" fill="rgb(184.5,142.5,85.5)"/><path d="M 0,4.51875 
						q -0.46875 -0.45375 0.59625,0.46875 q 0.33375 -0.45375 -0.56625,0.46875 q 1.185 -0.45375 0.9525,0.46875 q 0.645 -0.45375 -0.9825,1 
						M 0,4.51875 
						q 0.46875 -0.45375 -0.59625,0.46875 q -0.33375 -0.45375 0.56625,0.46875 q -1.185 -0.45375 -0.9525,0.46875 q -0.645 -0.45375 0.9825,1 " 
						transform="rotate(360 0,4.51875 )"
						stroke-width ="0.1"
						fill="rgb(81.5,108.5,113.5)"
						/><circle cx="0" cy="4.51875" r="0.35625" fill="rgb(174,127,79)"/><circle cx="-0.03" cy="4.46875" r="0.2375" fill="rgb(184.5,142.5,85.5)"/></g><g id="flower4" transform="skewX(4) skewY(4)">
						<path d="M 0,0
						Q 1.11,1.25 0,6.025"
						stroke="rgb(19,172,63)" 
						fill="transparent"
						stroke-width ="0.3" /><path d="M 0,6.025 
						q -0.625 -0.605 0.795,0.625 q 0.445 -0.605 -0.755,0.625 q 1.58 -0.605 1.27,0.625 q 0.86 -0.605 -1.31,1 
						M 0,6.025 
						q 0.625 -0.605 -0.795,0.625 q -0.445 -0.605 0.755,0.625 q -1.58 -0.605 -1.27,0.625 q -0.86 -0.605 1.31,1 " 
						transform="rotate(0 0,6.025 )"
						stroke-width ="0.1"
						fill="rgb(99,114,131)"
						/><path d="M 0,6.025 
						q -0.625 -0.605 0.795,0.625 q 0.445 -0.605 -0.755,0.625 q 1.58 -0.605 1.27,0.625 q 0.86 -0.605 -1.31,1 
						M 0,6.025 
						q 0.625 -0.605 -0.795,0.625 q -0.445 -0.605 0.755,0.625 q -1.58 -0.605 -1.27,0.625 q -0.86 -0.605 1.31,1 " 
						transform="rotate(15.428571428571 0,6.025 )"
						stroke-width ="0.1"
						fill="rgb(93.5,114.5,121.5)"
						/></g><g id="flower5" transform="skewX(-9) skewY(-9)">
						<path d="M 0,0
						Q 0.26,1.5625 0,7.53125"
						stroke="rgb(19,172,63)" 
						fill="transparent"
						stroke-width ="0.3" /><path d="M 0,7.53125 
						q -0.78125 -0.75625 0.99375,0.78125 q 0.55625 -0.75625 -0.94375,0.78125 q 1.975 -0.75625 1.5875,0.78125 q 1.075 -0.75625 -1.6375,1 
						M 0,7.53125 
						q 0.78125 -0.75625 -0.99375,0.78125 q -0.55625 -0.75625 0.94375,0.78125 q -1.975 -0.75625 -1.5875,0.78125 q -1.075 -0.75625 1.6375,1 " 
						transform="rotate(0 0,7.53125 )"
						stroke-width ="0.1"
						fill="rgb(95,125,123)"
						/><path d="M 0,7.53125 
						q -0.78125 -0.75625 0.99375,0.78125 q 0.55625 -0.75625 -0.94375,0.78125 q 1.975 -0.75625 1.5875,0.78125 q 1.075 -0.75625 -1.6375,1 
						M 0,7.53125 
						q 0.78125 -0.75625 -0.99375,0.78125 q -0.55625 -0.75625 0.94375,0.78125 q -1.975 -0.75625 -1.5875,0.78125 q -1.075 -0.75625 1.6375,1 " 
						transform="rotate(15.428571428571 0,7.53125 )"
						stroke-width ="0.1"
						fill="rgb(94.5,111.5,128.5)"
						/></g><g id="flower6" transform="skewX(3) skewY(3)">
						<path d="M 0,0
						Q 0.35,1.875 0,9.0375"
						stroke="rgb(19,172,63)" 
						fill="transparent"
						stroke-width ="0.3" /><path d="M 0,9.0375 
						q -0.9375 -0.9075 1.1925,0.9375 q 0.6675 -0.9075 -1.1325,0.9375 q 2.37 -0.9075 1.905,0.9375 q 1.29 -0.9075 -1.965,1 
						M 0,9.0375 
						q 0.9375 -0.9075 -1.1925,0.9375 q -0.6675 -0.9075 1.1325,0.9375 q -2.37 -0.9075 -1.905,0.9375 q -1.29 -0.9075 1.965,1 " 
						transform="rotate(0 0,9.0375 )"
						stroke-width ="0.1"
						fill="rgb(100,116,122)"
						/><path d="M 0,9.0375 
						q -0.9375 -0.9075 1.1925,0.9375 q 0.6675 -0.9075 -1.1325,0.9375 q 2.37 -0.9075 1.905,0.9375 q 1.29 -0.9075 -1.965,1 
						M 0,9.0375 
						q 0.9375 -0.9075 -1.1925,0.9375 q -0.6675 -0.9075 1.1325,0.9375 q -2.37 -0.9075 -1.905,0.9375 q -1.29 -0.9075 1.965,1 " 
						transform="rotate(15.428571428571 0,9.0375 )"
						stroke-width ="0.1"
						fill="rgb(100.5,119.5,118.5)"
						/></g><g id="flower7" transform="skewX(6) skewY(6)">
						<path d="M 0,0
						Q 1.2,2.1875 0,10.54375"
						stroke="rgb(19,172,63)" 
						fill="transparent"
						stroke-width ="0.3" /><path d="M 0,10.54375 
						q -1.09375 -1.05875 1.39125,1.09375 q 0.77875 -1.05875 -1.32125,1.09375 q 2.765 -1.05875 2.2225,1.09375 q 1.505 -1.05875 -2.2925,1.09375 
						M 0,10.54375 
						q 1.09375 -1.05875 -1.39125,1.09375 q -0.77875 -1.05875 1.32125,1.09375 q -2.765 -1.05875 -2.2225,1.09375 q -1.505 -1.05875 2.2925,1.09375 " 
						transform="rotate(0 0,10.54375 )"
						stroke-width ="0.1"
						fill="rgb(90,119,136)"
						/><path d="M 0,10.54375 
						q -1.09375 -1.05875 1.39125,1.09375 q 0.77875 -1.05875 -1.32125,1.09375 q 2.765 -1.05875 2.2225,1.09375 q 1.505 -1.05875 -2.2925,1.09375 
						M 0,10.54375 
						q 1.09375 -1.05875 -1.39125,1.09375 q -0.77875 -1.05875 1.32125,1.09375 q -2.765 -1.05875 -2.2225,1.09375 q -1.505 -1.05875 2.2925,1.09375 " 
						transform="rotate(15.428571428571 0,10.54375 )"
						stroke-width ="0.1"
						fill="rgb(95.5,125.5,126.5)"
						/></g><g id="flower8" transform="skewX(-10) skewY(-10)">
						<path d="M 0,0
						Q -0.67,2.5 0,12.05"
						stroke="rgb(19,172,63)" 
						fill="transparent"
						stroke-width ="0.3" /><path d="M 0,12.05 
						q -1.25 -1.21 1.59,1.25 q 0.89 -1.21 -1.51,1.25 q 3.16 -1.21 2.54,1.25 q 1.72 -1.21 -2.62,1.25 
						M 0,12.05 
						q 1.25 -1.21 -1.59,1.25 q -0.89 -1.21 1.51,1.25 q -3.16 -1.21 -2.54,1.25 q -1.72 -1.21 2.62,1.25 " 
						transform="rotate(0 0,12.05 )"
						stroke-width ="0.1"
						fill="rgb(102,127,128)"
						/><path d="M 0,12.05 
						q -1.25 -1.21 1.59,1.25 q 0.89 -1.21 -1.51,1.25 q 3.16 -1.21 2.54,1.25 q 1.72 -1.21 -2.62,1.25 
						M 0,12.05 
						q 1.25 -1.21 -1.59,1.25 q -0.89 -1.21 1.51,1.25 q -3.16 -1.21 -2.54,1.25 q -1.72 -1.21 2.62,1.25 " 
						transform="rotate(15.428571428571 0,12.05 )"
						stroke-width ="0.1"
						fill="rgb(89.5,125.5,123.5)"
						/></g></defs>
				<g class="fullPlant">
					<g>
					<path d ="M 53,91 
					a 61 122 20.8 0 0 -4.008,-19.56" fill ="none" stroke ="rgb(13.5,171.5,60.5)" stroke-width ="2.25"/></g><circle cx="48.992" cy="71.44" r="0.5625" stroke="rgb(18.5,176.5,65.5)" fill="rgb(13.5,171.5,60.5)"/><use xlink:href="#leaf1"
						x="48.992" y="71.44" 
						transform="rotate(82 48.992 71.44)" 	
						fill="rgb(67,132,17)" /><use xlink:href="#leaf1"
						x="48.992" y="71.44" 
						transform="rotate(16 48.992 71.44)" 	
						fill="rgb(32,138,18)" /><use xlink:href="#leaf1"
						x="48.992" y="71.44" 
						transform="rotate(-134 48.992 71.44)" 	
						fill="rgb(32,120,33)" /><use xlink:href="#leaf3"
						x="48.992" y="71.44" 
						transform="rotate(27 48.992 71.44)" 	
						fill="rgb(51,124,7)" /><use xlink:href="#leaf1"
						x="48.992" y="71.44" 
						transform="rotate(-22 48.992 71.44)" 	
						fill="rgb(58,137,6)" />
					<g>
					<path d ="M 48.992,71.44 
					a 79 553 7.96 0 0 -12.276,-2.052" fill ="none" stroke ="rgb(15.5,174.5,62.5)" stroke-width ="1.125"/></g><circle cx="36.716" cy="69.388" r="0.28125" stroke="rgb(20.5,179.5,67.5)" fill="rgb(15.5,174.5,62.5)"/><use xlink:href="#leaf1"
						x="36.716" y="69.388" 
						transform="rotate(26 37.706 69.618)" 	
						fill="rgb(40,118,24)" /><use xlink:href="#leaf3"
						x="36.716" y="69.388" 
						transform="rotate(-113 37.156 70.358)" 	
						fill="rgb(48,142,8)" /><use xlink:href="#leaf1"
						x="36.716" y="69.388" 
						transform="rotate(119 36.946 70.028)" 	
						fill="rgb(54,116,35)" /><use xlink:href="#leaf2"
						x="36.716" y="69.388" 
						transform="rotate(65 36.716 69.388)" 	
						fill="rgb(57,136,15)" /><use xlink:href="#leaf1"
						x="36.716" y="69.388" 
						transform="rotate(91 36.806 70.008)" 	
						fill="rgb(53,120,23)" /><use xlink:href="#leaf2"
						x="36.716" y="69.388" 
						transform="rotate(-84 36.756 69.428)" 	
						fill="rgb(45,123,34)" /><use xlink:href="#leaf4"
						x="36.716" y="69.388" 
						transform="rotate(179 36.856 69.978)" 	
						fill="rgb(31,140,37)" /><use xlink:href="#leaf2"
						x="36.716" y="69.388" 
						transform="rotate(6 36.716 69.388)" 	
						fill="rgb(37,118,33)" /><use xlink:href="#leaf4"
						x="36.716" y="69.388" 
						transform="rotate(-117 37.446 70.358)" 	
						fill="rgb(66,132,15)" />
					<g>
					<path d ="M 48.992,71.44 
					a 56 448 -15.97 0 0 11.856,3.348" fill ="none" stroke ="rgb(18.5,177.5,62.5)" stroke-width ="1.125"/></g><circle cx="60.848" cy="74.788" r="0.28125" stroke="rgb(23.5,182.5,67.5)" fill="rgb(18.5,177.5,62.5)"/><use xlink:href="#leaf1"
						x="60.848" y="74.788" 
						transform="rotate(39 60.888 75.168)" 	
						fill="rgb(30,148,7)" /><use xlink:href="#leaf4"
						x="60.848" y="74.788" 
						transform="rotate(178 60.848 74.788)" 	
						fill="rgb(51,127,1)" /><use xlink:href="#leaf3"
						x="60.848" y="74.788" 
						transform="rotate(-59 61.428 75.688)" 	
						fill="rgb(53,122,19)" /><use xlink:href="#leaf1"
						x="60.848" y="74.788" 
						transform="rotate(19 60.848 74.788)" 	
						fill="rgb(55,137,4)" /><use xlink:href="#leaf4"
						x="60.848" y="74.788" 
						transform="rotate(41 60.848 74.788)" 	
						fill="rgb(53,137,9)" /><use xlink:href="#leaf3"
						x="60.848" y="74.788" 
						transform="rotate(161 61.268 75.748)" 	
						fill="rgb(29,121,1)" /><use xlink:href="#leaf3"
						x="60.848" y="74.788" 
						transform="rotate(147 60.898 75.078)" 	
						fill="rgb(46,143,23)" /><use xlink:href="#leaf2"
						x="60.848" y="74.788" 
						transform="rotate(75 61.268 74.878)" 	
						fill="rgb(54,122,11)" /><use xlink:href="#leaf1"
						x="60.848" y="74.788" 
						transform="rotate(174 60.848 74.788)" 	
						fill="rgb(47,119,19)" /><use xlink:href="#leaf1"
						x="60.848" y="74.788" 
						transform="rotate(-131 60.848 74.788)" 	
						fill="rgb(66,142,13)" /><use xlink:href="#leaf4"
						x="60.848" y="74.788" 
						transform="rotate(-39 61.688 75.768)" 	
						fill="rgb(37,137,23)" /><use xlink:href="#leaf1"
						x="60.848" y="74.788" 
						transform="rotate(109 60.848 74.788)" 	
						fill="rgb(31,144,28)" />
					<g>
					<path d ="M 48.992,71.44 
					a 53 265 -15.45 0 0 -4.62,-6.48" fill ="none" stroke ="rgb(17.5,180.5,64.5)" stroke-width ="1.125"/></g><circle cx="44.372" cy="64.96" r="0.28125" stroke="rgb(22.5,185.5,69.5)" fill="rgb(17.5,180.5,64.5)"/><use xlink:href="#leaf1"
						x="44.372" y="64.96" 
						transform="rotate(160 45.192 65.63)" 	
						fill="rgb(48,155,22)" /><use xlink:href="#leaf4"
						x="44.372" y="64.96" 
						transform="rotate(111 44.372 64.96)" 	
						fill="rgb(58,128,14)" /><use xlink:href="#leaf4"
						x="44.372" y="64.96" 
						transform="rotate(-77 45.332 65.87)" 	
						fill="rgb(65,147,32)" /><use xlink:href="#leaf3"
						x="44.372" y="64.96" 
						transform="rotate(25 44.442 65.6)" 	
						fill="rgb(55,132,30)" /><use xlink:href="#leaf1"
						x="44.372" y="64.96" 
						transform="rotate(-172 44.782 65.11)" 	
						fill="rgb(53,130,37)" /><use xlink:href="#leaf1"
						x="44.372" y="64.96" 
						transform="rotate(-111 44.772 65.8)" 	
						fill="rgb(39,152,14)" />
					<g>
					<path d ="M 44.372,64.96 
					a 84 588 -18.55 0 1 -9.276,3.96" fill ="none" stroke ="rgb(19,180,64)" stroke-width ="0.75"/></g><circle cx="35.096" cy="68.92" r="0.1875" stroke="rgb(24,185,69)" fill="rgb(19,180,64)"/><use xlink:href="#leaf1"
						x="35.096" y="68.92" 
						transform="rotate(44 35.096 68.92)" 	
						fill="rgb(51,118,25)" /><use xlink:href="#leaf5"
						x="35.096" y="68.92" 
						transform="rotate(-154 35.096 68.92)" 	
						fill="rgb(67,118,21)" /><use xlink:href="#leaf5"
						x="35.096" y="68.92" 
						transform="rotate(79 35.846 69.73)" 	
						fill="rgb(37,148,6)" /><use xlink:href="#leaf4"
						x="35.096" y="68.92" 
						transform="rotate(-96 35.816 69.44)" 	
						fill="rgb(40,145,1)" /><use xlink:href="#leaf4"
						x="35.096" y="68.92" 
						transform="rotate(-4 35.096 68.92)" 	
						fill="rgb(30,144,0)" /><use xlink:href="#leaf4"
						x="35.096" y="68.92" 
						transform="rotate(-168 35.096 68.92)" 	
						fill="rgb(65,121,36)" /><use xlink:href="#leaf2"
						x="35.096" y="68.92" 
						transform="rotate(60 35.096 68.92)" 	
						fill="rgb(37,119,6)" /><use xlink:href="#leaf5"
						x="35.096" y="68.92" 
						transform="rotate(-93 35.096 68.92)" 	
						fill="rgb(37,133,16)" /><use xlink:href="#leaf1"
						x="35.096" y="68.92" 
						transform="rotate(-30 35.226 69.14)" 	
						fill="rgb(53,141,7)" /><use xlink:href="#leaf1"
						x="35.096" y="68.92" 
						transform="rotate(-41 35.446 69.44)" 	
						fill="rgb(64,144,1)" />
					<g>
					<path d ="M 44.372,64.96 
					a 67 201 -3.42 0 1 2.052,-7.44" fill ="none" stroke ="rgb(19.5,183.5,66.5)" stroke-width ="0.75"/></g><circle cx="46.424" cy="57.52" r="0.1875" stroke="rgb(24.5,188.5,71.5)" fill="rgb(19.5,183.5,66.5)"/><use xlink:href="#leaf4"
						x="46.424" y="57.52" 
						transform="rotate(4 46.424 57.52)" 	
						fill="rgb(59,137,39)" /><use xlink:href="#leaf4"
						x="46.424" y="57.52" 
						transform="rotate(82 46.824 57.91)" 	
						fill="rgb(47,144,32)" /><use xlink:href="#leaf1"
						x="46.424" y="57.52" 
						transform="rotate(-97 47.214 57.75)" 	
						fill="rgb(66,152,13)" /><use xlink:href="#leaf4"
						x="46.424" y="57.52" 
						transform="rotate(61 46.424 57.52)" 	
						fill="rgb(38,138,6)" /><use xlink:href="#leaf5"
						x="46.424" y="57.52" 
						transform="rotate(25 46.424 57.52)" 	
						fill="rgb(51,126,25)" /><use xlink:href="#leaf2"
						x="46.424" y="57.52" 
						transform="rotate(-156 46.424 57.52)" 	
						fill="rgb(41,137,9)" /><use xlink:href="#leaf5"
						x="46.424" y="57.52" 
						transform="rotate(-161 47.244 58.27)" 	
						fill="rgb(56,138,22)" /><use xlink:href="#leaf1"
						x="46.424" y="57.52" 
						transform="rotate(-66 46.684 58.09)" 	
						fill="rgb(40,122,13)" /><use xlink:href="#leaf2"
						x="46.424" y="57.52" 
						transform="rotate(-88 46.694 58.47)" 	
						fill="rgb(35,140,27)" /><use xlink:href="#leaf2"
						x="46.424" y="57.52" 
						transform="rotate(95 46.424 57.52)" 	
						fill="rgb(60,153,25)" /><use xlink:href="#leaf4"
						x="46.424" y="57.52" 
						transform="rotate(128 46.424 57.52)" 	
						fill="rgb(47,154,34)" /><use xlink:href="#leaf1"
						x="46.424" y="57.52" 
						transform="rotate(-160 47.044 58)" 	
						fill="rgb(38,137,30)" />
					<g>
					<path d ="M 46.424,57.52 
					a 91 637 -14.95 0 1 -9.744,5.988" fill ="none" stroke ="rgb(23.5,187.5,67.5)" stroke-width ="0.5625"/></g><circle cx="36.68" cy="63.508" r="0.140625" stroke="rgb(28.5,192.5,72.5)" fill="rgb(23.5,187.5,67.5)"/><use xlink:href="#leaf2"
						x="36.68" y="63.508" 
						transform="rotate(-42 37.2 63.618)" 	
						fill="rgb(65,140,22)" /><use xlink:href="#leaf3"
						x="36.68" y="63.508" 
						transform="rotate(-138 36.68 63.508)" 	
						fill="rgb(54,130,11)" /><use xlink:href="#leaf2"
						x="36.68" y="63.508" 
						transform="rotate(-17 37.52 64.288)" 	
						fill="rgb(53,116,21)" /><use xlink:href="#leaf2"
						x="36.68" y="63.508" 
						transform="rotate(-9 36.68 63.508)" 	
						fill="rgb(66,126,18)" /><use xlink:href="#leaf6"
						x="36.68" y="63.508" 
						transform="rotate(136 36.68 63.508)" 	
						fill="rgb(48,144,4)" /><use xlink:href="#leaf6"
						x="36.68" y="63.508" 
						transform="rotate(69 36.68 63.508)" 	
						fill="rgb(33,156,35)" /><use xlink:href="#leaf2"
						x="36.68" y="63.508" 
						transform="rotate(-177 36.68 63.508)" 	
						fill="rgb(31,123,22)" /><use xlink:href="#leaf6"
						x="36.68" y="63.508" 
						transform="rotate(47 36.68 63.508)" 	
						fill="rgb(41,151,23)" /><use xlink:href="#leaf4"
						x="36.68" y="63.508" 
						transform="rotate(-107 36.68 63.508)" 	
						fill="rgb(66,144,33)" />
					<g>
					<path d ="M 46.424,57.52 
					a 67 402 -20.9 0 1 6.936,5.484" fill ="none" stroke ="rgb(23.5,190.5,69.5)" stroke-width ="0.5625"/></g><circle cx="53.36" cy="63.004" r="0.140625" stroke="rgb(28.5,195.5,74.5)" fill="rgb(23.5,190.5,69.5)"/><use xlink:href="#leaf2"
						x="53.36" y="63.004" 
						transform="rotate(-22 53.36 63.004)" 	
						fill="rgb(28,117,38)" /><use xlink:href="#leaf4"
						x="53.36" y="63.004" 
						transform="rotate(-105 53.42 63.024)" 	
						fill="rgb(51,143,24)" /><use xlink:href="#leaf5"
						x="53.36" y="63.004" 
						transform="rotate(168 54.11 63.674)" 	
						fill="rgb(58,126,31)" /><use xlink:href="#leaf4"
						x="53.36" y="63.004" 
						transform="rotate(161 53.67 63.144)" 	
						fill="rgb(28,131,9)" /><use xlink:href="#leaf6"
						x="53.36" y="63.004" 
						transform="rotate(-82 53.36 63.004)" 	
						fill="rgb(44,140,32)" /><use xlink:href="#leaf6"
						x="53.36" y="63.004" 
						transform="rotate(14 53.36 63.004)" 	
						fill="rgb(55,151,35)" /><use xlink:href="#leaf2"
						x="53.36" y="63.004" 
						transform="rotate(-179 53.36 63.004)" 	
						fill="rgb(44,150,10)" /><use xlink:href="#leaf5"
						x="53.36" y="63.004" 
						transform="rotate(180 54.21 63.434)" 	
						fill="rgb(63,134,7)" /><use xlink:href="#leaf4"
						x="53.36" y="63.004" 
						transform="rotate(5 54.13 63.244)" 	
						fill="rgb(66,144,18)" /><use xlink:href="#leaf2"
						x="53.36" y="63.004" 
						transform="rotate(-115 53.44 63.874)" 	
						fill="rgb(51,139,35)" /><use xlink:href="#leaf2"
						x="53.36" y="63.004" 
						transform="rotate(131 54.18 63.894)" 	
						fill="rgb(54,118,1)" />
					<g>
					<path d ="M 46.424,57.52 
					a 80 720 14.15 0 0 9.756,3.984" fill ="none" stroke ="rgb(23.5,192.5,69.5)" stroke-width ="0.5625"/></g><circle cx="56.18" cy="61.504" r="0.140625" stroke="rgb(28.5,197.5,74.5)" fill="rgb(23.5,192.5,69.5)"/><use xlink:href="#leaf6"
						x="56.18" y="61.504" 
						transform="rotate(103 56.24 62.104)" 	
						fill="rgb(65,117,14)" /><use xlink:href="#leaf3"
						x="56.18" y="61.504" 
						transform="rotate(47 56.18 61.504)" 	
						fill="rgb(62,119,9)" /><use xlink:href="#leaf6"
						x="56.18" y="61.504" 
						transform="rotate(-141 56.18 61.504)" 	
						fill="rgb(66,133,20)" /><use xlink:href="#leaf3"
						x="56.18" y="61.504" 
						transform="rotate(26 56.33 61.984)" 	
						fill="rgb(64,139,16)" /><use xlink:href="#leaf5"
						x="56.18" y="61.504" 
						transform="rotate(-59 57.07 62.104)" 	
						fill="rgb(51,145,37)" /><use xlink:href="#leaf3"
						x="56.18" y="61.504" 
						transform="rotate(118 56.2 61.584)" 	
						fill="rgb(49,136,3)" /><use xlink:href="#leaf4"
						x="56.18" y="61.504" 
						transform="rotate(-111 56.98 61.524)" 	
						fill="rgb(51,129,11)" /><use xlink:href="#leaf3"
						x="56.18" y="61.504" 
						transform="rotate(-109 56.96 61.874)" 	
						fill="rgb(37,123,24)" /><use xlink:href="#leaf2"
						x="56.18" y="61.504" 
						transform="rotate(-121 56.57 61.754)" 	
						fill="rgb(58,134,14)" /><use xlink:href="#leaf2"
						x="56.18" y="61.504" 
						transform="rotate(19 56.18 61.504)" 	
						fill="rgb(45,141,34)" /><use xlink:href="#leaf6"
						x="56.18" y="61.504" 
						transform="rotate(17 56.18 61.504)" 	
						fill="rgb(38,129,21)" />
					<g>
					<path d ="M 46.424,57.52 
					a 71 568 -14.96 0 1 10.152,-3.768" fill ="none" stroke ="rgb(27.5,193.5,73.5)" stroke-width ="0.5625"/></g><circle cx="56.576" cy="53.752" r="0.140625" stroke="rgb(32.5,198.5,78.5)" fill="rgb(27.5,193.5,73.5)"/><use xlink:href="#leaf5"
						x="56.576" y="53.752" 
						transform="rotate(-42 56.576 53.752)" 	
						fill="rgb(48,127,33)" /><use xlink:href="#leaf3"
						x="56.576" y="53.752" 
						transform="rotate(92 56.776 54.192)" 	
						fill="rgb(60,141,12)" /><use xlink:href="#leaf2"
						x="56.576" y="53.752" 
						transform="rotate(-64 57.476 54.682)" 	
						fill="rgb(29,141,19)" /><use xlink:href="#leaf5"
						x="56.576" y="53.752" 
						transform="rotate(143 56.576 53.752)" 	
						fill="rgb(36,156,5)" /><use xlink:href="#leaf3"
						x="56.576" y="53.752" 
						transform="rotate(-99 56.576 53.752)" 	
						fill="rgb(43,118,26)" /><use xlink:href="#flower3" id="fleur90"
							x="56.576" y="53.752" 
							transform="rotate(-76 56.852 54.256)" />
					<g>
					<path d ="M 46.424,57.52 
					a 78 156 8.58 0 1 -3.78,-5.964" fill ="none" stroke ="rgb(31.5,197.5,77.5)" stroke-width ="0.5625"/></g><circle cx="42.644" cy="51.556" r="0.140625" stroke="rgb(36.5,202.5,82.5)" fill="rgb(31.5,197.5,77.5)"/><use xlink:href="#leaf2"
						x="42.644" y="51.556" 
						transform="rotate(-164 42.644 51.556)" 	
						fill="rgb(60,134,18)" /><use xlink:href="#leaf3"
						x="42.644" y="51.556" 
						transform="rotate(113 42.644 51.556)" 	
						fill="rgb(64,153,24)" /><use xlink:href="#leaf4"
						x="42.644" y="51.556" 
						transform="rotate(-110 42.644 51.556)" 	
						fill="rgb(32,131,16)" /><use xlink:href="#leaf6"
						x="42.644" y="51.556" 
						transform="rotate(42 42.924 51.786)" 	
						fill="rgb(35,128,28)" /><use xlink:href="#flower6" id="fleur100"
							x="42.644" y="51.556" 
							transform="rotate(-142 42.644 51.556)" />
					<g>
					<path d ="M 42.644,51.556 
					a 53 159 -18.23 0 0 -8.676,-3" fill ="none" stroke ="rgb(33,199,78)" stroke-width ="0.45"/></g><circle cx="33.968" cy="48.556" r="0.1125" stroke="rgb(38,204,83)" fill="rgb(33,199,78)"/><use xlink:href="#leaf5"
						x="33.968" y="48.556" 
						transform="rotate(-143 33.968 48.556)" 	
						fill="rgb(62,127,38)" /><use xlink:href="#leaf7"
						x="33.968" y="48.556" 
						transform="rotate(127 33.968 48.556)" 	
						fill="rgb(37,133,22)" /><use xlink:href="#leaf3"
						x="33.968" y="48.556" 
						transform="rotate(-126 33.968 48.556)" 	
						fill="rgb(43,156,37)" /><use xlink:href="#leaf5"
						x="33.968" y="48.556" 
						transform="rotate(76 34.188 48.756)" 	
						fill="rgb(58,154,5)" /><use xlink:href="#leaf7"
						x="33.968" y="48.556" 
						transform="rotate(21 33.968 48.556)" 	
						fill="rgb(28,146,7)" /><use xlink:href="#flower7" id="fleur110"
							x="33.968" y="48.556" 
							transform="rotate(-120 34.664 49.588)" />
					<g>
					<path d ="M 56.576,53.752 
					a 71 284 8.86 0 0 2.892,-10.164" fill ="none" stroke ="rgb(37.5,199.5,79.5)" stroke-width ="0.45"/></g><circle cx="59.468" cy="43.588" r="0.1125" stroke="rgb(42.5,204.5,84.5)" fill="rgb(37.5,199.5,79.5)"/><use xlink:href="#leaf5"
						x="59.468" y="43.588" 
						transform="rotate(-28 59.698 44.228)" 	
						fill="rgb(57,127,1)" /><use xlink:href="#leaf4"
						x="59.468" y="43.588" 
						transform="rotate(65 59.588 43.958)" 	
						fill="rgb(57,118,24)" /><use xlink:href="#leaf3"
						x="59.468" y="43.588" 
						transform="rotate(-155 59.678 43.928)" 	
						fill="rgb(38,142,30)" /><use xlink:href="#leaf7"
						x="59.468" y="43.588" 
						transform="rotate(136 60.058 44.018)" 	
						fill="rgb(42,149,1)" /><use xlink:href="#leaf3"
						x="59.468" y="43.588" 
						transform="rotate(71 59.468 43.588)" 	
						fill="rgb(29,151,18)" />
					<g>
					<path d ="M 46.424,57.52 
					a 57 57 1.38 0 0 -6.972,-7.068" fill ="none" stroke ="rgb(40.5,202.5,80.5)" stroke-width ="0.5625"/></g><circle cx="39.452" cy="50.452" r="0.140625" stroke="rgb(45.5,207.5,85.5)" fill="rgb(40.5,202.5,80.5)"/><use xlink:href="#leaf2"
						x="39.452" y="50.452" 
						transform="rotate(-4 39.962 51.362)" 	
						fill="rgb(53,145,32)" /><use xlink:href="#leaf2"
						x="39.452" y="50.452" 
						transform="rotate(-180 39.932 51.122)" 	
						fill="rgb(49,124,16)" /><use xlink:href="#leaf3"
						x="39.452" y="50.452" 
						transform="rotate(-120 40.332 50.982)" 	
						fill="rgb(43,117,24)" /><use xlink:href="#leaf4"
						x="39.452" y="50.452" 
						transform="rotate(173 39.452 50.452)" 	
						fill="rgb(61,147,14)" /><use xlink:href="#leaf4"
						x="39.452" y="50.452" 
						transform="rotate(-113 39.802 50.552)" 	
						fill="rgb(48,138,5)" /><use xlink:href="#leaf3"
						x="39.452" y="50.452" 
						transform="rotate(3 39.452 50.452)" 	
						fill="rgb(50,129,25)" /><use xlink:href="#leaf3"
						x="39.452" y="50.452" 
						transform="rotate(-11 39.852 51.002)" 	
						fill="rgb(36,123,16)" /><use xlink:href="#leaf5"
						x="39.452" y="50.452" 
						transform="rotate(-136 39.752 50.692)" 	
						fill="rgb(57,116,0)" /><use xlink:href="#leaf3"
						x="39.452" y="50.452" 
						transform="rotate(151 39.672 50.872)" 	
						fill="rgb(67,130,15)" /><use xlink:href="#leaf4"
						x="39.452" y="50.452" 
						transform="rotate(-11 39.452 50.452)" 	
						fill="rgb(36,130,18)" /><use xlink:href="#leaf4"
						x="39.452" y="50.452" 
						transform="rotate(43 39.452 50.452)" 	
						fill="rgb(44,138,2)" /><use xlink:href="#leaf4"
						x="39.452" y="50.452" 
						transform="rotate(39 39.452 50.452)" 	
						fill="rgb(50,116,0)" /><use xlink:href="#flower4" id="fleur130"
							x="39.452" y="50.452" 
							transform="rotate(-48 39.884 50.776)" />
					<g>
					<path d ="M 33.968,48.556 
					a 72 144 -14.88 0 1 -1.404,-6.624" fill ="none" stroke ="rgb(42.5,206.5,81.5)" stroke-width ="0.375"/></g><circle cx="32.564" cy="41.932" r="0.09375" stroke="rgb(47.5,211.5,86.5)" fill="rgb(42.5,206.5,81.5)"/><use xlink:href="#leaf6"
						x="32.564" y="41.932" 
						transform="rotate(6 32.564 41.932)" 	
						fill="rgb(66,119,13)" /><use xlink:href="#leaf6"
						x="32.564" y="41.932" 
						transform="rotate(-173 32.564 41.932)" 	
						fill="rgb(61,146,23)" /><use xlink:href="#leaf6"
						x="32.564" y="41.932" 
						transform="rotate(115 32.564 41.932)" 	
						fill="rgb(57,138,18)" /><use xlink:href="#leaf4"
						x="32.564" y="41.932" 
						transform="rotate(-98 32.564 41.932)" 	
						fill="rgb(34,117,39)" /><use xlink:href="#flower4" id="fleur140"
							x="32.564" y="41.932" 
							transform="rotate(-83 32.564 41.932)" /><use xlink:href="#flower4" id="fleur141"
							x="32.564" y="41.932" 
							transform="rotate(165 32.564 41.932)" />
					<g>
					<path d ="M 59.468,43.588 
					a 88 616 0.39 0 0 -5.856,5.04" fill ="none" stroke ="rgb(46.5,208.5,82.5)" stroke-width ="0.375"/></g><circle cx="53.612" cy="48.628" r="0.09375" stroke="rgb(51.5,213.5,87.5)" fill="rgb(46.5,208.5,82.5)"/><use xlink:href="#leaf6"
						x="53.612" y="48.628" 
						transform="rotate(120 54.472 49.448)" 	
						fill="rgb(45,148,13)" /><use xlink:href="#leaf8"
						x="53.612" y="48.628" 
						transform="rotate(-149 53.612 48.628)" 	
						fill="rgb(66,142,9)" /><use xlink:href="#leaf7"
						x="53.612" y="48.628" 
						transform="rotate(-46 53.612 48.628)" 	
						fill="rgb(39,141,24)" /><use xlink:href="#leaf6"
						x="53.612" y="48.628" 
						transform="rotate(-58 53.612 48.628)" 	
						fill="rgb(35,136,9)" /><use xlink:href="#leaf6"
						x="53.612" y="48.628" 
						transform="rotate(-46 53.612 48.628)" 	
						fill="rgb(45,118,26)" /><use xlink:href="#leaf6"
						x="53.612" y="48.628" 
						transform="rotate(-75 53.962 48.788)" 	
						fill="rgb(31,138,37)" /><use xlink:href="#flower6" id="fleur150"
							x="53.612" y="48.628" 
							transform="rotate(-133 54.416 48.664)" /><use xlink:href="#flower6" id="fleur151"
							x="53.612" y="48.628" 
							transform="rotate(-141 53.612 48.628)" />
					<g>
					<path d ="M 53,91 
					a 57 114 11.85 0 1 2.1,-18.096" fill ="none" stroke ="rgb(46,211,81)" stroke-width ="2.25"/></g><circle cx="55.1" cy="72.904" r="0.5625" stroke="rgb(51,216,86)" fill="rgb(46,211,81)"/><use xlink:href="#leaf2"
						x="55.1" y="72.904" 
						transform="rotate(-130 55.1 72.904)" 	
						fill="rgb(62,117,5)" /><use xlink:href="#leaf1"
						x="55.1" y="72.904" 
						transform="rotate(124 55.44 72.984)" 	
						fill="rgb(56,131,16)" /><use xlink:href="#leaf1"
						x="55.1" y="72.904" 
						transform="rotate(-16 55.72 72.984)" 	
						fill="rgb(31,130,4)" /><use xlink:href="#leaf2"
						x="55.1" y="72.904" 
						transform="rotate(34 55.83 73.574)" 	
						fill="rgb(29,145,4)" /><use xlink:href="#leaf3"
						x="55.1" y="72.904" 
						transform="rotate(144 55.1 72.904)" 	
						fill="rgb(61,119,19)" /><use xlink:href="#leaf1"
						x="55.1" y="72.904" 
						transform="rotate(111 55.63 73.244)" 	
						fill="rgb(58,129,27)" />
					<g>
					<path d ="M 53,91 
					a 96 960 -7.8 0 1 -1.824,-17.292" fill ="none" stroke ="rgb(45.5,213.5,82.5)" stroke-width ="2.25"/></g><circle cx="51.176" cy="73.708" r="0.5625" stroke="rgb(50.5,218.5,87.5)" fill="rgb(45.5,213.5,82.5)"/><use xlink:href="#leaf1"
						x="51.176" y="73.708" 
						transform="rotate(-114 51.356 73.788)" 	
						fill="rgb(28,144,33)" /><use xlink:href="#leaf1"
						x="51.176" y="73.708" 
						transform="rotate(-47 51.176 73.708)" 	
						fill="rgb(43,129,16)" /><use xlink:href="#leaf1"
						x="51.176" y="73.708" 
						transform="rotate(-16 51.176 73.708)" 	
						fill="rgb(49,119,33)" /><use xlink:href="#leaf1"
						x="51.176" y="73.708" 
						transform="rotate(-29 52.146 74.208)" 	
						fill="rgb(37,137,38)" /><use xlink:href="#leaf1"
						x="51.176" y="73.708" 
						transform="rotate(-48 51.176 73.708)" 	
						fill="rgb(52,131,25)" /><use xlink:href="#leaf1"
						x="51.176" y="73.708" 
						transform="rotate(39 51.176 73.708)" 	
						fill="rgb(54,146,26)" /><use xlink:href="#leaf2"
						x="51.176" y="73.708" 
						transform="rotate(-114 52.166 73.928)" 	
						fill="rgb(46,152,1)" /><use xlink:href="#leaf3"
						x="51.176" y="73.708" 
						transform="rotate(-77 52.036 74.398)" 	
						fill="rgb(53,126,4)" />
					<g>
					<path d ="M 53,91 
					a 93 93 -8.63 0 1 9.132,-22.008" fill ="none" stroke ="rgb(47,215,85)" stroke-width ="2.25"/></g><circle cx="62.132" cy="68.992" r="0.5625" stroke="rgb(52,220,90)" fill="rgb(47,215,85)"/><use xlink:href="#leaf1"
						x="62.132" y="68.992" 
						transform="rotate(-140 62.132 68.992)" 	
						fill="rgb(29,144,26)" /><use xlink:href="#leaf1"
						x="62.132" y="68.992" 
						transform="rotate(77 62.132 68.992)" 	
						fill="rgb(38,116,1)" /><use xlink:href="#leaf1"
						x="62.132" y="68.992" 
						transform="rotate(149 62.132 68.992)" 	
						fill="rgb(42,155,14)" /><use xlink:href="#leaf1"
						x="62.132" y="68.992" 
						transform="rotate(-102 62.132 68.992)" 	
						fill="rgb(57,151,25)" /><use xlink:href="#leaf1"
						x="62.132" y="68.992" 
						transform="rotate(77 62.132 68.992)" 	
						fill="rgb(50,133,10)" /><use xlink:href="#leaf1"
						x="62.132" y="68.992" 
						transform="rotate(-119 62.792 69.912)" 	
						fill="rgb(47,127,10)" /><use xlink:href="#leaf3"
						x="62.132" y="68.992" 
						transform="rotate(-14 62.702 69.212)" 	
						fill="rgb(67,142,6)" /><use xlink:href="#leaf1"
						x="62.132" y="68.992" 
						transform="rotate(11 62.132 68.992)" 	
						fill="rgb(48,123,32)" /><use xlink:href="#leaf3"
						x="62.132" y="68.992" 
						transform="rotate(131 62.132 68.992)" 	
						fill="rgb(38,130,34)" />
					<g>
					<path d ="M 53,91 
					a 54 162 11.6 0 1 -11.064,-15.18" fill ="none" stroke ="rgb(47.5,215.5,83.5)" stroke-width ="2.25"/></g><circle cx="41.936" cy="75.82" r="0.5625" stroke="rgb(52.5,220.5,88.5)" fill="rgb(47.5,215.5,83.5)"/><use xlink:href="#leaf2"
						x="41.936" y="75.82" 
						transform="rotate(-109 42.186 76.81)" 	
						fill="rgb(63,131,7)" /><use xlink:href="#leaf3"
						x="41.936" y="75.82" 
						transform="rotate(-170 41.936 75.82)" 	
						fill="rgb(68,142,11)" /><use xlink:href="#leaf3"
						x="41.936" y="75.82" 
						transform="rotate(62 41.936 75.82)" 	
						fill="rgb(68,150,11)" /><use xlink:href="#leaf2"
						x="41.936" y="75.82" 
						transform="rotate(7 41.936 75.82)" 	
						fill="rgb(45,136,32)" /><use xlink:href="#leaf1"
						x="41.936" y="75.82" 
						transform="rotate(21 41.936 75.82)" 	
						fill="rgb(65,128,36)" /><use xlink:href="#leaf1"
						x="41.936" y="75.82" 
						transform="rotate(0 41.936 75.82)" 	
						fill="rgb(36,140,3)" /><use xlink:href="#leaf1"
						x="41.936" y="75.82" 
						transform="rotate(-168 42.186 75.97)" 	
						fill="rgb(60,118,13)" /><use xlink:href="#leaf2"
						x="41.936" y="75.82" 
						transform="rotate(63 41.946 76.66)" 	
						fill="rgb(31,133,38)" /><use xlink:href="#leaf2"
						x="41.936" y="75.82" 
						transform="rotate(-29 42.416 76.33)" 	
						fill="rgb(29,153,25)" />
					<g>
					<path d ="M 53,91 
					a 67 134 -20.5 0 0 4.392,-13.872" fill ="none" stroke ="rgb(47,216,85)" stroke-width ="2.25"/></g><circle cx="57.392" cy="77.128" r="0.5625" stroke="rgb(52,221,90)" fill="rgb(47,216,85)"/><use xlink:href="#leaf1"
						x="57.392" y="77.128" 
						transform="rotate(-172 57.392 77.128)" 	
						fill="rgb(32,146,12)" /><use xlink:href="#leaf1"
						x="57.392" y="77.128" 
						transform="rotate(-26 57.392 77.128)" 	
						fill="rgb(53,152,23)" /><use xlink:href="#leaf2"
						x="57.392" y="77.128" 
						transform="rotate(119 57.392 77.128)" 	
						fill="rgb(31,151,39)" /><use xlink:href="#leaf2"
						x="57.392" y="77.128" 
						transform="rotate(41 57.622 77.718)" 	
						fill="rgb(53,155,24)" /><use xlink:href="#leaf2"
						x="57.392" y="77.128" 
						transform="rotate(-17 57.392 77.128)" 	
						fill="rgb(59,145,24)" /><use xlink:href="#leaf1"
						x="57.392" y="77.128" 
						transform="rotate(-62 57.822 77.778)" 	
						fill="rgb(42,117,7)" /><use xlink:href="#leaf2"
						x="57.392" y="77.128" 
						transform="rotate(-1 58.282 77.658)" 	
						fill="rgb(35,133,8)" /><use xlink:href="#leaf1"
						x="57.392" y="77.128" 
						transform="rotate(23 58.342 77.378)" 	
						fill="rgb(40,119,34)" />
					<g>
					<path d ="M 57.392,77.128 
					a 80 640 8.61 0 0 -3.9,-7.632" fill ="none" stroke ="rgb(50,218,88)" stroke-width ="1.125"/></g><circle cx="53.492" cy="69.496" r="0.28125" stroke="rgb(55,223,93)" fill="rgb(50,218,88)"/><use xlink:href="#leaf2"
						x="53.492" y="69.496" 
						transform="rotate(-105 53.492 69.496)" 	
						fill="rgb(65,155,30)" /><use xlink:href="#leaf4"
						x="53.492" y="69.496" 
						transform="rotate(132 53.492 69.496)" 	
						fill="rgb(30,152,0)" /><use xlink:href="#leaf2"
						x="53.492" y="69.496" 
						transform="rotate(-165 53.492 69.496)" 	
						fill="rgb(56,117,0)" /><use xlink:href="#leaf2"
						x="53.492" y="69.496" 
						transform="rotate(93 53.492 69.496)" 	
						fill="rgb(38,138,19)" /><use xlink:href="#leaf1"
						x="53.492" y="69.496" 
						transform="rotate(9 54.382 70.406)" 	
						fill="rgb(62,124,39)" /><use xlink:href="#leaf4"
						x="53.492" y="69.496" 
						transform="rotate(2 53.492 69.496)" 	
						fill="rgb(52,153,17)" /><use xlink:href="#leaf2"
						x="53.492" y="69.496" 
						transform="rotate(-25 53.492 69.496)" 	
						fill="rgb(62,133,31)" /><use xlink:href="#leaf3"
						x="53.492" y="69.496" 
						transform="rotate(-126 53.492 69.496)" 	
						fill="rgb(33,154,30)" /><use xlink:href="#leaf3"
						x="53.492" y="69.496" 
						transform="rotate(-69 53.492 69.496)" 	
						fill="rgb(54,156,16)" /><use xlink:href="#leaf2"
						x="53.492" y="69.496" 
						transform="rotate(14 53.492 69.496)" 	
						fill="rgb(33,119,22)" /><use xlink:href="#leaf1"
						x="53.492" y="69.496" 
						transform="rotate(-75 53.492 69.496)" 	
						fill="rgb(61,155,4)" />
					<g>
					<path d ="M 57.392,77.128 
					a 73 292 2.88 0 1 -2.076,-6.708" fill ="none" stroke ="rgb(52,220,88)" stroke-width ="1.125"/></g><circle cx="55.316" cy="70.42" r="0.28125" stroke="rgb(57,225,93)" fill="rgb(52,220,88)"/><use xlink:href="#leaf4"
						x="55.316" y="70.42" 
						transform="rotate(163 55.956 70.96)" 	
						fill="rgb(39,123,18)" /><use xlink:href="#leaf1"
						x="55.316" y="70.42" 
						transform="rotate(-159 55.576 70.58)" 	
						fill="rgb(38,152,8)" /><use xlink:href="#leaf4"
						x="55.316" y="70.42" 
						transform="rotate(-77 56.146 71.25)" 	
						fill="rgb(52,152,1)" /><use xlink:href="#leaf4"
						x="55.316" y="70.42" 
						transform="rotate(86 55.696 71.32)" 	
						fill="rgb(57,152,33)" /><use xlink:href="#leaf1"
						x="55.316" y="70.42" 
						transform="rotate(-137 56.086 70.86)" 	
						fill="rgb(32,156,10)" /></g>
				</svg>