<svg class="relie" xmlns="http://www.w3.org/2000/svg" viewBox="0 0 100 100" preserveAspectRatio="xMidYMid meet" x="0" y="0" overflow="visible" xmlns:xlink="http://www.w3.org/1999/xlink">

		<defs>  <g id="leaf1" transform="skewX(4) skewY(4)"><path d="M 0,0 
					q 0.38 0.005 0.125,1.22625 q 0.38 0.25125 0.125,0.6525 q 0.38 0.25875 -0.25,1.49625 
					M 0,0 
					q -0.38 0.005 -0.125,1.22625 q -0.38 0.25125 -0.125,0.6525 q -0.38 0.25875 0.25,1.49625 " 
					stroke-width ="0.2" /></g>  <g id="leaf2" transform="skewX(-17) skewY(-17)"><path d="M 0,0 
					q 0.76 0.01 0.25,2.4525 q 0.76 0.5025 0.25,1.305 q 0.76 0.5175 -0.5,2.9925 
					M 0,0 
					q -0.76 0.01 -0.25,2.4525 q -0.76 0.5025 -0.25,1.305 q -0.76 0.5175 0.5,2.9925 " 
					stroke-width ="0.2" /></g>  <g id="leaf3" transform="skewX(-10) skewY(-10)"><path d="M 0,0 
					q 1.14 0.015 0.375,3.67875 q 1.14 0.75375 0.375,1.9575 q 1.14 0.77625 -0.75,4.48875 
					M 0,0 
					q -1.14 0.015 -0.375,3.67875 q -1.14 0.75375 -0.375,1.9575 q -1.14 0.77625 0.75,4.48875 " 
					stroke-width ="0.2" /></g>  <g id="leaf4" transform="skewX(15) skewY(15)"><path d="M 0,0 
					q 1.52 0.02 0.5,4.905 q 1.52 1.005 0.5,2.61 q 1.52 1.035 -1,5.985 
					M 0,0 
					q -1.52 0.02 -0.5,4.905 q -1.52 1.005 -0.5,2.61 q -1.52 1.035 1,5.985 " 
					stroke-width ="0.2" /></g>  <g id="leaf5" transform="skewX(-14) skewY(-14)"><path d="M 0,0 
					q 1.9 0.025 0.625,6.13125 q 1.9 1.25625 0.625,3.2625 q 1.9 1.29375 -1.25,7.48125 
					M 0,0 
					q -1.9 0.025 -0.625,6.13125 q -1.9 1.25625 -0.625,3.2625 q -1.9 1.29375 1.25,7.48125 " 
					stroke-width ="0.2" /></g>  <g id="leaf6" transform="skewX(18) skewY(18)"><path d="M 0,0 
					q 2.28 0.03 0.75,7.3575 q 2.28 1.5075 0.75,3.915 q 2.28 1.5525 -1.5,8.9775 
					M 0,0 
					q -2.28 0.03 -0.75,7.3575 q -2.28 1.5075 -0.75,3.915 q -2.28 1.5525 1.5,8.9775 " 
					stroke-width ="0.2" /></g>  <g id="leaf7" transform="skewX(10) skewY(10)"><path d="M 0,0 
					q 2.66 0.035 0.875,8.58375 q 2.66 1.75875 0.875,4.5675 q 2.66 1.81125 -1.75,10.47375 
					M 0,0 
					q -2.66 0.035 -0.875,8.58375 q -2.66 1.75875 -0.875,4.5675 q -2.66 1.81125 1.75,10.47375 " 
					stroke-width ="0.2" /></g>  <g id="leaf8" transform="skewX(-2) skewY(-2)"><path d="M 0,0 
					q 3.04 0.04 1,9.81 q 3.04 2.01 1,5.22 q 3.04 2.07 -2,11.97 
					M 0,0 
					q -3.04 0.04 -1,9.81 q -3.04 2.01 -1,5.22 q -3.04 2.07 2,11.97 " 
					stroke-width ="0.2" /></g><g id="flower1"><path d="M 0,1.625 
						q 0.215 -0.0675 0.25,0.8125 q -0.0175 -0.0675 -0.25,1 
						M 0,1.625 
						q -0.215 -0.0675 -0.25,0.8125 q 0.0175 -0.0675 0.25,1 " 
						transform="rotate(0 0,1.625 )"
						stroke-width ="0.1"
						fill="rgb(92,3,61)"
						/><path d="M 0,1.625 
						q 0.215 -0.0675 0.25,0.8125 q -0.0175 -0.0675 -0.25,1 
						M 0,1.625 
						q -0.215 -0.0675 -0.25,0.8125 q 0.0175 -0.0675 0.25,1 " 
						transform="rotate(18 0,1.625 )"
						stroke-width ="0.1"
						fill="rgb(76.5,0,75.5)"
						/><path d="M 0,1.625 
						q 0.215 -0.0675 0.25,0.8125 q -0.0175 -0.0675 -0.25,1 
						M 0,1.625 
						q -0.215 -0.0675 -0.25,0.8125 q 0.0175 -0.0675 0.25,1 " 
						transform="rotate(36 0,1.625 )"
						stroke-width ="0.1"
						fill="rgb(75,4,62)"
						/></g><g id="flower2"><path d="M 0,3.25 
						q 0.43 -0.135 0.5,1.625 q -0.035 -0.135 -0.5,1.625 
						M 0,3.25 
						q -0.43 -0.135 -0.5,1.625 q 0.035 -0.135 0.5,1.625 " 
						transform="rotate(0 0,3.25 )"
						stroke-width ="0.1"
						fill="rgb(97,2,60)"
						/><circle cx="0" cy="3.25" r="0.8775" fill="rgb(86,96,8)"/><circle cx="0.07" cy="3.25" r="0.585" fill="rgb(95.5,112.5,21.5)"/><path d="M 0,3.25 
						q 0.43 -0.135 0.5,1.625 q -0.035 -0.135 -0.5,1.625 
						M 0,3.25 
						q -0.43 -0.135 -0.5,1.625 q 0.035 -0.135 0.5,1.625 " 
						transform="rotate(36 0,3.25 )"
						stroke-width ="0.1"
						fill="rgb(85.5,0,62.5)"
						/><circle cx="0" cy="3.25" r="0.8775" fill="rgb(86,96,8)"/><circle cx="0.09" cy="3.15" r="0.585" fill="rgb(95.5,112.5,21.5)"/><path d="M 0,3.25 
						q 0.43 -0.135 0.5,1.625 q -0.035 -0.135 -0.5,1.625 
						M 0,3.25 
						q -0.43 -0.135 -0.5,1.625 q 0.035 -0.135 0.5,1.625 " 
						transform="rotate(72 0,3.25 )"
						stroke-width ="0.1"
						fill="rgb(77,0,57)"
						/><circle cx="0" cy="3.25" r="0.8775" fill="rgb(86,96,8)"/><circle cx="0.09" cy="3.22" r="0.585" fill="rgb(95.5,112.5,21.5)"/><path d="M 0,3.25 
						q 0.43 -0.135 0.5,1.625 q -0.035 -0.135 -0.5,1.625 
						M 0,3.25 
						q -0.43 -0.135 -0.5,1.625 q 0.035 -0.135 0.5,1.625 " 
						transform="rotate(108 0,3.25 )"
						stroke-width ="0.1"
						fill="rgb(89.5,3.5,66.5)"
						/><circle cx="0" cy="3.25" r="0.8775" fill="rgb(86,96,8)"/><circle cx="0.06" cy="3.32" r="0.585" fill="rgb(95.5,112.5,21.5)"/><path d="M 0,3.25 
						q 0.43 -0.135 0.5,1.625 q -0.035 -0.135 -0.5,1.625 
						M 0,3.25 
						q -0.43 -0.135 -0.5,1.625 q 0.035 -0.135 0.5,1.625 " 
						transform="rotate(144 0,3.25 )"
						stroke-width ="0.1"
						fill="rgb(81,0,60)"
						/><circle cx="0" cy="3.25" r="0.8775" fill="rgb(86,96,8)"/><circle cx="0.04" cy="3.21" r="0.585" fill="rgb(95.5,112.5,21.5)"/><path d="M 0,3.25 
						q 0.43 -0.135 0.5,1.625 q -0.035 -0.135 -0.5,1.625 
						M 0,3.25 
						q -0.43 -0.135 -0.5,1.625 q 0.035 -0.135 0.5,1.625 " 
						transform="rotate(180 0,3.25 )"
						stroke-width ="0.1"
						fill="rgb(75.5,0,62.5)"
						/><circle cx="0" cy="3.25" r="0.8775" fill="rgb(86,96,8)"/><circle cx="0.1" cy="3.3" r="0.585" fill="rgb(95.5,112.5,21.5)"/><path d="M 0,3.25 
						q 0.43 -0.135 0.5,1.625 q -0.035 -0.135 -0.5,1.625 
						M 0,3.25 
						q -0.43 -0.135 -0.5,1.625 q 0.035 -0.135 0.5,1.625 " 
						transform="rotate(216 0,3.25 )"
						stroke-width ="0.1"
						fill="rgb(77,0,59)"
						/><circle cx="0" cy="3.25" r="0.8775" fill="rgb(86,96,8)"/><circle cx="0.03" cy="3.19" r="0.585" fill="rgb(95.5,112.5,21.5)"/><path d="M 0,3.25 
						q 0.43 -0.135 0.5,1.625 q -0.035 -0.135 -0.5,1.625 
						M 0,3.25 
						q -0.43 -0.135 -0.5,1.625 q 0.035 -0.135 0.5,1.625 " 
						transform="rotate(252 0,3.25 )"
						stroke-width ="0.1"
						fill="rgb(74.5,0,44.5)"
						/><circle cx="0" cy="3.25" r="0.8775" fill="rgb(86,96,8)"/><circle cx="-0.07" cy="3.25" r="0.585" fill="rgb(95.5,112.5,21.5)"/><path d="M 0,3.25 
						q 0.43 -0.135 0.5,1.625 q -0.035 -0.135 -0.5,1.625 
						M 0,3.25 
						q -0.43 -0.135 -0.5,1.625 q 0.035 -0.135 0.5,1.625 " 
						transform="rotate(288 0,3.25 )"
						stroke-width ="0.1"
						fill="rgb(66,0,48)"
						/><circle cx="0" cy="3.25" r="0.8775" fill="rgb(86,96,8)"/><circle cx="0.09" cy="3.23" r="0.585" fill="rgb(95.5,112.5,21.5)"/><path d="M 0,3.25 
						q 0.43 -0.135 0.5,1.625 q -0.035 -0.135 -0.5,1.625 
						M 0,3.25 
						q -0.43 -0.135 -0.5,1.625 q 0.035 -0.135 0.5,1.625 " 
						transform="rotate(324 0,3.25 )"
						stroke-width ="0.1"
						fill="rgb(68.5,0,40.5)"
						/><circle cx="0" cy="3.25" r="0.8775" fill="rgb(86,96,8)"/><circle cx="0.02" cy="3.26" r="0.585" fill="rgb(95.5,112.5,21.5)"/><path d="M 0,3.25 
						q 0.43 -0.135 0.5,1.625 q -0.035 -0.135 -0.5,1.625 
						M 0,3.25 
						q -0.43 -0.135 -0.5,1.625 q 0.035 -0.135 0.5,1.625 " 
						transform="rotate(360 0,3.25 )"
						stroke-width ="0.1"
						fill="rgb(69,0,47)"
						/><circle cx="0" cy="3.25" r="0.8775" fill="rgb(86,96,8)"/><circle cx="0.06" cy="3.17" r="0.585" fill="rgb(95.5,112.5,21.5)"/></g><g id="flower3"><path d="M 0,4.875 
						q 0.645 -0.2025 0.75,2.4375 q -0.0525 -0.2025 -0.75,2.4375 
						M 0,4.875 
						q -0.645 -0.2025 -0.75,2.4375 q 0.0525 -0.2025 0.75,2.4375 " 
						transform="rotate(0 0,4.875 )"
						stroke-width ="0.1"
						fill="rgb(84,0,69)"
						/><circle cx="0" cy="4.875" r="1.31625" fill="rgb(86,96,9)"/><circle cx="0.06" cy="4.855" r="0.8775" fill="rgb(87.5,101.5,18.5)"/><path d="M 0,4.875 
						q 0.645 -0.2025 0.75,2.4375 q -0.0525 -0.2025 -0.75,2.4375 
						M 0,4.875 
						q -0.645 -0.2025 -0.75,2.4375 q 0.0525 -0.2025 0.75,2.4375 " 
						transform="rotate(36 0,4.875 )"
						stroke-width ="0.1"
						fill="rgb(89.5,6.5,69.5)"
						/><circle cx="0" cy="4.875" r="1.31625" fill="rgb(86,96,9)"/><circle cx="0.01" cy="4.795" r="0.8775" fill="rgb(87.5,101.5,18.5)"/><path d="M 0,4.875 
						q 0.645 -0.2025 0.75,2.4375 q -0.0525 -0.2025 -0.75,2.4375 
						M 0,4.875 
						q -0.645 -0.2025 -0.75,2.4375 q 0.0525 -0.2025 0.75,2.4375 " 
						transform="rotate(72 0,4.875 )"
						stroke-width ="0.1"
						fill="rgb(72,6,68)"
						/><circle cx="0" cy="4.875" r="1.31625" fill="rgb(86,96,9)"/><circle cx="-0.06" cy="4.945" r="0.8775" fill="rgb(87.5,101.5,18.5)"/><path d="M 0,4.875 
						q 0.645 -0.2025 0.75,2.4375 q -0.0525 -0.2025 -0.75,2.4375 
						M 0,4.875 
						q -0.645 -0.2025 -0.75,2.4375 q 0.0525 -0.2025 0.75,2.4375 " 
						transform="rotate(108 0,4.875 )"
						stroke-width ="0.1"
						fill="rgb(74.5,0,56.5)"
						/><circle cx="0" cy="4.875" r="1.31625" fill="rgb(86,96,9)"/><circle cx="-0.06" cy="4.975" r="0.8775" fill="rgb(87.5,101.5,18.5)"/><path d="M 0,4.875 
						q 0.645 -0.2025 0.75,2.4375 q -0.0525 -0.2025 -0.75,2.4375 
						M 0,4.875 
						q -0.645 -0.2025 -0.75,2.4375 q 0.0525 -0.2025 0.75,2.4375 " 
						transform="rotate(144 0,4.875 )"
						stroke-width ="0.1"
						fill="rgb(85,0,68)"
						/><circle cx="0" cy="4.875" r="1.31625" fill="rgb(86,96,9)"/><circle cx="-0.08" cy="4.965" r="0.8775" fill="rgb(87.5,101.5,18.5)"/><path d="M 0,4.875 
						q 0.645 -0.2025 0.75,2.4375 q -0.0525 -0.2025 -0.75,2.4375 
						M 0,4.875 
						q -0.645 -0.2025 -0.75,2.4375 q 0.0525 -0.2025 0.75,2.4375 " 
						transform="rotate(180 0,4.875 )"
						stroke-width ="0.1"
						fill="rgb(76.5,0,50.5)"
						/><circle cx="0" cy="4.875" r="1.31625" fill="rgb(86,96,9)"/><circle cx="-0.03" cy="4.855" r="0.8775" fill="rgb(87.5,101.5,18.5)"/><path d="M 0,4.875 
						q 0.645 -0.2025 0.75,2.4375 q -0.0525 -0.2025 -0.75,2.4375 
						M 0,4.875 
						q -0.645 -0.2025 -0.75,2.4375 q 0.0525 -0.2025 0.75,2.4375 " 
						transform="rotate(216 0,4.875 )"
						stroke-width ="0.1"
						fill="rgb(82,0,62)"
						/><circle cx="0" cy="4.875" r="1.31625" fill="rgb(86,96,9)"/><circle cx="-0.05" cy="4.935" r="0.8775" fill="rgb(87.5,101.5,18.5)"/><path d="M 0,4.875 
						q 0.645 -0.2025 0.75,2.4375 q -0.0525 -0.2025 -0.75,2.4375 
						M 0,4.875 
						q -0.645 -0.2025 -0.75,2.4375 q 0.0525 -0.2025 0.75,2.4375 " 
						transform="rotate(252 0,4.875 )"
						stroke-width ="0.1"
						fill="rgb(79.5,0,48.5)"
						/><circle cx="0" cy="4.875" r="1.31625" fill="rgb(86,96,9)"/><circle cx="0.04" cy="4.865" r="0.8775" fill="rgb(87.5,101.5,18.5)"/><path d="M 0,4.875 
						q 0.645 -0.2025 0.75,2.4375 q -0.0525 -0.2025 -0.75,2.4375 
						M 0,4.875 
						q -0.645 -0.2025 -0.75,2.4375 q 0.0525 -0.2025 0.75,2.4375 " 
						transform="rotate(288 0,4.875 )"
						stroke-width ="0.1"
						fill="rgb(76,0,52)"
						/><circle cx="0" cy="4.875" r="1.31625" fill="rgb(86,96,9)"/><circle cx="-0.02" cy="4.795" r="0.8775" fill="rgb(87.5,101.5,18.5)"/><path d="M 0,4.875 
						q 0.645 -0.2025 0.75,2.4375 q -0.0525 -0.2025 -0.75,2.4375 
						M 0,4.875 
						q -0.645 -0.2025 -0.75,2.4375 q 0.0525 -0.2025 0.75,2.4375 " 
						transform="rotate(324 0,4.875 )"
						stroke-width ="0.1"
						fill="rgb(58.5,0,41.5)"
						/><circle cx="0" cy="4.875" r="1.31625" fill="rgb(86,96,9)"/><circle cx="-0.1" cy="4.935" r="0.8775" fill="rgb(87.5,101.5,18.5)"/><path d="M 0,4.875 
						q 0.645 -0.2025 0.75,2.4375 q -0.0525 -0.2025 -0.75,2.4375 
						M 0,4.875 
						q -0.645 -0.2025 -0.75,2.4375 q 0.0525 -0.2025 0.75,2.4375 " 
						transform="rotate(360 0,4.875 )"
						stroke-width ="0.1"
						fill="rgb(62,0,38)"
						/><circle cx="0" cy="4.875" r="1.31625" fill="rgb(86,96,9)"/><circle cx="0.06" cy="4.915" r="0.8775" fill="rgb(87.5,101.5,18.5)"/></g><g id="flower4"><path d="M 0,6.5 
						q 0.86 -0.27 1,3.25 q -0.07 -0.27 -1,3.25 
						M 0,6.5 
						q -0.86 -0.27 -1,3.25 q 0.07 -0.27 1,3.25 " 
						transform="rotate(0 0,6.5 )"
						stroke-width ="0.1"
						fill="rgb(84,0,75)"
						/><circle cx="0" cy="6.5" r="1.755" fill="rgb(85,96,11)"/><circle cx="0.08" cy="6.45" r="1.17" fill="rgb(101.5,99.5,14.5)"/><path d="M 0,6.5 
						q 0.86 -0.27 1,3.25 q -0.07 -0.27 -1,3.25 
						M 0,6.5 
						q -0.86 -0.27 -1,3.25 q 0.07 -0.27 1,3.25 " 
						transform="rotate(36 0,6.5 )"
						stroke-width ="0.1"
						fill="rgb(82.5,0,75.5)"
						/><circle cx="0" cy="6.5" r="1.755" fill="rgb(85,96,11)"/><circle cx="0.02" cy="6.42" r="1.17" fill="rgb(101.5,99.5,14.5)"/><path d="M 0,6.5 
						q 0.86 -0.27 1,3.25 q -0.07 -0.27 -1,3.25 
						M 0,6.5 
						q -0.86 -0.27 -1,3.25 q 0.07 -0.27 1,3.25 " 
						transform="rotate(72 0,6.5 )"
						stroke-width ="0.1"
						fill="rgb(90,1,73)"
						/><circle cx="0" cy="6.5" r="1.755" fill="rgb(85,96,11)"/><circle cx="0.09" cy="6.58" r="1.17" fill="rgb(101.5,99.5,14.5)"/><path d="M 0,6.5 
						q 0.86 -0.27 1,3.25 q -0.07 -0.27 -1,3.25 
						M 0,6.5 
						q -0.86 -0.27 -1,3.25 q 0.07 -0.27 1,3.25 " 
						transform="rotate(108 0,6.5 )"
						stroke-width ="0.1"
						fill="rgb(71.5,0,68.5)"
						/><circle cx="0" cy="6.5" r="1.755" fill="rgb(85,96,11)"/><circle cx="-0.08" cy="6.45" r="1.17" fill="rgb(101.5,99.5,14.5)"/><path d="M 0,6.5 
						q 0.86 -0.27 1,3.25 q -0.07 -0.27 -1,3.25 
						M 0,6.5 
						q -0.86 -0.27 -1,3.25 q 0.07 -0.27 1,3.25 " 
						transform="rotate(144 0,6.5 )"
						stroke-width ="0.1"
						fill="rgb(82,0,53)"
						/><circle cx="0" cy="6.5" r="1.755" fill="rgb(85,96,11)"/><circle cx="-0.03" cy="6.47" r="1.17" fill="rgb(101.5,99.5,14.5)"/><path d="M 0,6.5 
						q 0.86 -0.27 1,3.25 q -0.07 -0.27 -1,3.25 
						M 0,6.5 
						q -0.86 -0.27 -1,3.25 q 0.07 -0.27 1,3.25 " 
						transform="rotate(180 0,6.5 )"
						stroke-width ="0.1"
						fill="rgb(65.5,0,64.5)"
						/><circle cx="0" cy="6.5" r="1.755" fill="rgb(85,96,11)"/><circle cx="-0.05" cy="6.49" r="1.17" fill="rgb(101.5,99.5,14.5)"/><path d="M 0,6.5 
						q 0.86 -0.27 1,3.25 q -0.07 -0.27 -1,3.25 
						M 0,6.5 
						q -0.86 -0.27 -1,3.25 q 0.07 -0.27 1,3.25 " 
						transform="rotate(216 0,6.5 )"
						stroke-width ="0.1"
						fill="rgb(67,0,55)"
						/><circle cx="0" cy="6.5" r="1.755" fill="rgb(85,96,11)"/><circle cx="0.09" cy="6.42" r="1.17" fill="rgb(101.5,99.5,14.5)"/><path d="M 0,6.5 
						q 0.86 -0.27 1,3.25 q -0.07 -0.27 -1,3.25 
						M 0,6.5 
						q -0.86 -0.27 -1,3.25 q 0.07 -0.27 1,3.25 " 
						transform="rotate(252 0,6.5 )"
						stroke-width ="0.1"
						fill="rgb(60.5,0,48.5)"
						/><circle cx="0" cy="6.5" r="1.755" fill="rgb(85,96,11)"/><circle cx="0.06" cy="6.5" r="1.17" fill="rgb(101.5,99.5,14.5)"/><path d="M 0,6.5 
						q 0.86 -0.27 1,3.25 q -0.07 -0.27 -1,3.25 
						M 0,6.5 
						q -0.86 -0.27 -1,3.25 q 0.07 -0.27 1,3.25 " 
						transform="rotate(288 0,6.5 )"
						stroke-width ="0.1"
						fill="rgb(60,0,46)"
						/><circle cx="0" cy="6.5" r="1.755" fill="rgb(85,96,11)"/><circle cx="-0.01" cy="6.42" r="1.17" fill="rgb(101.5,99.5,14.5)"/><path d="M 0,6.5 
						q 0.86 -0.27 1,3.25 q -0.07 -0.27 -1,3.25 
						M 0,6.5 
						q -0.86 -0.27 -1,3.25 q 0.07 -0.27 1,3.25 " 
						transform="rotate(324 0,6.5 )"
						stroke-width ="0.1"
						fill="rgb(72.5,0,48.5)"
						/><circle cx="0" cy="6.5" r="1.755" fill="rgb(85,96,11)"/><circle cx="0.01" cy="6.49" r="1.17" fill="rgb(101.5,99.5,14.5)"/><path d="M 0,6.5 
						q 0.86 -0.27 1,3.25 q -0.07 -0.27 -1,3.25 
						M 0,6.5 
						q -0.86 -0.27 -1,3.25 q 0.07 -0.27 1,3.25 " 
						transform="rotate(360 0,6.5 )"
						stroke-width ="0.1"
						fill="rgb(57,0,41)"
						/><circle cx="0" cy="6.5" r="1.755" fill="rgb(85,96,11)"/><circle cx="0.03" cy="6.55" r="1.17" fill="rgb(101.5,99.5,14.5)"/></g><g id="flower5"><path d="M 0,8.125 
						q 1.075 -0.3375 1.25,4.0625 q -0.0875 -0.3375 -1.25,4.0625 
						M 0,8.125 
						q -1.075 -0.3375 -1.25,4.0625 q 0.0875 -0.3375 1.25,4.0625 " 
						transform="rotate(0 0,8.125 )"
						stroke-width ="0.1"
						fill="rgb(79,0,61)"
						/><circle cx="0" cy="8.125" r="2.19375" fill="rgb(85,98,12)"/><circle cx="0.04" cy="8.035" r="1.4625" fill="rgb(86.5,115.5,20.5)"/><path d="M 0,8.125 
						q 1.075 -0.3375 1.25,4.0625 q -0.0875 -0.3375 -1.25,4.0625 
						M 0,8.125 
						q -1.075 -0.3375 -1.25,4.0625 q 0.0875 -0.3375 1.25,4.0625 " 
						transform="rotate(36 0,8.125 )"
						stroke-width ="0.1"
						fill="rgb(76.5,5.5,65.5)"
						/><circle cx="0" cy="8.125" r="2.19375" fill="rgb(85,98,12)"/><circle cx="0.04" cy="8.125" r="1.4625" fill="rgb(86.5,115.5,20.5)"/><path d="M 0,8.125 
						q 1.075 -0.3375 1.25,4.0625 q -0.0875 -0.3375 -1.25,4.0625 
						M 0,8.125 
						q -1.075 -0.3375 -1.25,4.0625 q 0.0875 -0.3375 1.25,4.0625 " 
						transform="rotate(72 0,8.125 )"
						stroke-width ="0.1"
						fill="rgb(75,0,71)"
						/><circle cx="0" cy="8.125" r="2.19375" fill="rgb(85,98,12)"/><circle cx="0.03" cy="8.085" r="1.4625" fill="rgb(86.5,115.5,20.5)"/><path d="M 0,8.125 
						q 1.075 -0.3375 1.25,4.0625 q -0.0875 -0.3375 -1.25,4.0625 
						M 0,8.125 
						q -1.075 -0.3375 -1.25,4.0625 q 0.0875 -0.3375 1.25,4.0625 " 
						transform="rotate(108 0,8.125 )"
						stroke-width ="0.1"
						fill="rgb(89.5,3.5,64.5)"
						/><circle cx="0" cy="8.125" r="2.19375" fill="rgb(85,98,12)"/><circle cx="0.03" cy="8.025" r="1.4625" fill="rgb(86.5,115.5,20.5)"/><path d="M 0,8.125 
						q 1.075 -0.3375 1.25,4.0625 q -0.0875 -0.3375 -1.25,4.0625 
						M 0,8.125 
						q -1.075 -0.3375 -1.25,4.0625 q 0.0875 -0.3375 1.25,4.0625 " 
						transform="rotate(144 0,8.125 )"
						stroke-width ="0.1"
						fill="rgb(83,0,57)"
						/><circle cx="0" cy="8.125" r="2.19375" fill="rgb(85,98,12)"/><circle cx="0.06" cy="8.115" r="1.4625" fill="rgb(86.5,115.5,20.5)"/><path d="M 0,8.125 
						q 1.075 -0.3375 1.25,4.0625 q -0.0875 -0.3375 -1.25,4.0625 
						M 0,8.125 
						q -1.075 -0.3375 -1.25,4.0625 q 0.0875 -0.3375 1.25,4.0625 " 
						transform="rotate(180 0,8.125 )"
						stroke-width ="0.1"
						fill="rgb(72.5,0,64.5)"
						/><circle cx="0" cy="8.125" r="2.19375" fill="rgb(85,98,12)"/><circle cx="0.08" cy="8.225" r="1.4625" fill="rgb(86.5,115.5,20.5)"/><path d="M 0,8.125 
						q 1.075 -0.3375 1.25,4.0625 q -0.0875 -0.3375 -1.25,4.0625 
						M 0,8.125 
						q -1.075 -0.3375 -1.25,4.0625 q 0.0875 -0.3375 1.25,4.0625 " 
						transform="rotate(216 0,8.125 )"
						stroke-width ="0.1"
						fill="rgb(74,0,64)"
						/><circle cx="0" cy="8.125" r="2.19375" fill="rgb(85,98,12)"/><circle cx="-0.05" cy="8.145" r="1.4625" fill="rgb(86.5,115.5,20.5)"/><path d="M 0,8.125 
						q 1.075 -0.3375 1.25,4.0625 q -0.0875 -0.3375 -1.25,4.0625 
						M 0,8.125 
						q -1.075 -0.3375 -1.25,4.0625 q 0.0875 -0.3375 1.25,4.0625 " 
						transform="rotate(252 0,8.125 )"
						stroke-width ="0.1"
						fill="rgb(72.5,0,51.5)"
						/><circle cx="0" cy="8.125" r="2.19375" fill="rgb(85,98,12)"/><circle cx="0.09" cy="8.135" r="1.4625" fill="rgb(86.5,115.5,20.5)"/><path d="M 0,8.125 
						q 1.075 -0.3375 1.25,4.0625 q -0.0875 -0.3375 -1.25,4.0625 
						M 0,8.125 
						q -1.075 -0.3375 -1.25,4.0625 q 0.0875 -0.3375 1.25,4.0625 " 
						transform="rotate(288 0,8.125 )"
						stroke-width ="0.1"
						fill="rgb(57,0,49)"
						/><circle cx="0" cy="8.125" r="2.19375" fill="rgb(85,98,12)"/><circle cx="-0.02" cy="8.175" r="1.4625" fill="rgb(86.5,115.5,20.5)"/><path d="M 0,8.125 
						q 1.075 -0.3375 1.25,4.0625 q -0.0875 -0.3375 -1.25,4.0625 
						M 0,8.125 
						q -1.075 -0.3375 -1.25,4.0625 q 0.0875 -0.3375 1.25,4.0625 " 
						transform="rotate(324 0,8.125 )"
						stroke-width ="0.1"
						fill="rgb(71.5,0,49.5)"
						/><circle cx="0" cy="8.125" r="2.19375" fill="rgb(85,98,12)"/><circle cx="-0.09" cy="8.175" r="1.4625" fill="rgb(86.5,115.5,20.5)"/><path d="M 0,8.125 
						q 1.075 -0.3375 1.25,4.0625 q -0.0875 -0.3375 -1.25,4.0625 
						M 0,8.125 
						q -1.075 -0.3375 -1.25,4.0625 q 0.0875 -0.3375 1.25,4.0625 " 
						transform="rotate(360 0,8.125 )"
						stroke-width ="0.1"
						fill="rgb(64,0,43)"
						/><circle cx="0" cy="8.125" r="2.19375" fill="rgb(85,98,12)"/><circle cx="-0.05" cy="8.195" r="1.4625" fill="rgb(86.5,115.5,20.5)"/></g><g id="flower6"><path d="M 0,9.75 
						q 1.29 -0.405 1.5,4.875 q -0.105 -0.405 -1.5,4.875 
						M 0,9.75 
						q -1.29 -0.405 -1.5,4.875 q 0.105 -0.405 1.5,4.875 " 
						transform="rotate(0 0,9.75 )"
						stroke-width ="0.1"
						fill="rgb(93,0,71)"
						/><path d="M 0,9.75 
						q 1.29 -0.405 1.5,4.875 q -0.105 -0.405 -1.5,4.875 
						M 0,9.75 
						q -1.29 -0.405 -1.5,4.875 q 0.105 -0.405 1.5,4.875 " 
						transform="rotate(18 0,9.75 )"
						stroke-width ="0.1"
						fill="rgb(93.5,6.5,76.5)"
						/><path d="M 0,9.75 
						q 1.29 -0.405 1.5,4.875 q -0.105 -0.405 -1.5,4.875 
						M 0,9.75 
						q -1.29 -0.405 -1.5,4.875 q 0.105 -0.405 1.5,4.875 " 
						transform="rotate(36 0,9.75 )"
						stroke-width ="0.1"
						fill="rgb(88,2,67)"
						/></g><g id="flower7"><path d="M 0,11.375 
						q 1.505 -0.4725 1.75,5.6875 q -0.1225 -0.4725 -1.75,5.6875 
						M 0,11.375 
						q -1.505 -0.4725 -1.75,5.6875 q 0.1225 -0.4725 1.75,5.6875 " 
						transform="rotate(0 0,11.375 )"
						stroke-width ="0.1"
						fill="rgb(80,1,67)"
						/><circle cx="0" cy="11.375" r="3.07125" fill="rgb(88,94,8)"/><circle cx="0.02" cy="11.335" r="2.0475" fill="rgb(103.5,118.5,23.5)"/><path d="M 0,11.375 
						q 1.505 -0.4725 1.75,5.6875 q -0.1225 -0.4725 -1.75,5.6875 
						M 0,11.375 
						q -1.505 -0.4725 -1.75,5.6875 q 0.1225 -0.4725 1.75,5.6875 " 
						transform="rotate(36 0,11.375 )"
						stroke-width ="0.1"
						fill="rgb(81.5,0,62.5)"
						/><circle cx="0" cy="11.375" r="3.07125" fill="rgb(88,94,8)"/><circle cx="-0.07" cy="11.435" r="2.0475" fill="rgb(103.5,118.5,23.5)"/><path d="M 0,11.375 
						q 1.505 -0.4725 1.75,5.6875 q -0.1225 -0.4725 -1.75,5.6875 
						M 0,11.375 
						q -1.505 -0.4725 -1.75,5.6875 q 0.1225 -0.4725 1.75,5.6875 " 
						transform="rotate(72 0,11.375 )"
						stroke-width ="0.1"
						fill="rgb(90,0,73)"
						/><circle cx="0" cy="11.375" r="3.07125" fill="rgb(88,94,8)"/><circle cx="0.02" cy="11.405" r="2.0475" fill="rgb(103.5,118.5,23.5)"/><path d="M 0,11.375 
						q 1.505 -0.4725 1.75,5.6875 q -0.1225 -0.4725 -1.75,5.6875 
						M 0,11.375 
						q -1.505 -0.4725 -1.75,5.6875 q 0.1225 -0.4725 1.75,5.6875 " 
						transform="rotate(108 0,11.375 )"
						stroke-width ="0.1"
						fill="rgb(76.5,0,69.5)"
						/><circle cx="0" cy="11.375" r="3.07125" fill="rgb(88,94,8)"/><circle cx="-0.02" cy="11.325" r="2.0475" fill="rgb(103.5,118.5,23.5)"/><path d="M 0,11.375 
						q 1.505 -0.4725 1.75,5.6875 q -0.1225 -0.4725 -1.75,5.6875 
						M 0,11.375 
						q -1.505 -0.4725 -1.75,5.6875 q 0.1225 -0.4725 1.75,5.6875 " 
						transform="rotate(144 0,11.375 )"
						stroke-width ="0.1"
						fill="rgb(67,0,49)"
						/><circle cx="0" cy="11.375" r="3.07125" fill="rgb(88,94,8)"/><circle cx="0.07" cy="11.365" r="2.0475" fill="rgb(103.5,118.5,23.5)"/><path d="M 0,11.375 
						q 1.505 -0.4725 1.75,5.6875 q -0.1225 -0.4725 -1.75,5.6875 
						M 0,11.375 
						q -1.505 -0.4725 -1.75,5.6875 q 0.1225 -0.4725 1.75,5.6875 " 
						transform="rotate(180 0,11.375 )"
						stroke-width ="0.1"
						fill="rgb(73.5,0,47.5)"
						/><circle cx="0" cy="11.375" r="3.07125" fill="rgb(88,94,8)"/><circle cx="0.09" cy="11.275" r="2.0475" fill="rgb(103.5,118.5,23.5)"/><path d="M 0,11.375 
						q 1.505 -0.4725 1.75,5.6875 q -0.1225 -0.4725 -1.75,5.6875 
						M 0,11.375 
						q -1.505 -0.4725 -1.75,5.6875 q 0.1225 -0.4725 1.75,5.6875 " 
						transform="rotate(216 0,11.375 )"
						stroke-width ="0.1"
						fill="rgb(64,0,60)"
						/><circle cx="0" cy="11.375" r="3.07125" fill="rgb(88,94,8)"/><circle cx="-0.05" cy="11.275" r="2.0475" fill="rgb(103.5,118.5,23.5)"/><path d="M 0,11.375 
						q 1.505 -0.4725 1.75,5.6875 q -0.1225 -0.4725 -1.75,5.6875 
						M 0,11.375 
						q -1.505 -0.4725 -1.75,5.6875 q 0.1225 -0.4725 1.75,5.6875 " 
						transform="rotate(252 0,11.375 )"
						stroke-width ="0.1"
						fill="rgb(68.5,0,46.5)"
						/><circle cx="0" cy="11.375" r="3.07125" fill="rgb(88,94,8)"/><circle cx="-0.08" cy="11.405" r="2.0475" fill="rgb(103.5,118.5,23.5)"/><path d="M 0,11.375 
						q 1.505 -0.4725 1.75,5.6875 q -0.1225 -0.4725 -1.75,5.6875 
						M 0,11.375 
						q -1.505 -0.4725 -1.75,5.6875 q 0.1225 -0.4725 1.75,5.6875 " 
						transform="rotate(288 0,11.375 )"
						stroke-width ="0.1"
						fill="rgb(62,0,51)"
						/><circle cx="0" cy="11.375" r="3.07125" fill="rgb(88,94,8)"/><circle cx="-0.06" cy="11.435" r="2.0475" fill="rgb(103.5,118.5,23.5)"/><path d="M 0,11.375 
						q 1.505 -0.4725 1.75,5.6875 q -0.1225 -0.4725 -1.75,5.6875 
						M 0,11.375 
						q -1.505 -0.4725 -1.75,5.6875 q 0.1225 -0.4725 1.75,5.6875 " 
						transform="rotate(324 0,11.375 )"
						stroke-width ="0.1"
						fill="rgb(66.5,0,56.5)"
						/><circle cx="0" cy="11.375" r="3.07125" fill="rgb(88,94,8)"/><circle cx="-0.01" cy="11.285" r="2.0475" fill="rgb(103.5,118.5,23.5)"/><path d="M 0,11.375 
						q 1.505 -0.4725 1.75,5.6875 q -0.1225 -0.4725 -1.75,5.6875 
						M 0,11.375 
						q -1.505 -0.4725 -1.75,5.6875 q 0.1225 -0.4725 1.75,5.6875 " 
						transform="rotate(360 0,11.375 )"
						stroke-width ="0.1"
						fill="rgb(62,0,50)"
						/><circle cx="0" cy="11.375" r="3.07125" fill="rgb(88,94,8)"/><circle cx="0.02" cy="11.385" r="2.0475" fill="rgb(103.5,118.5,23.5)"/></g><g id="flower8"><path d="M 0,13 
						q 1.72 -0.54 2,6.5 q -0.14 -0.54 -2,6.5 
						M 0,13 
						q -1.72 -0.54 -2,6.5 q 0.14 -0.54 2,6.5 " 
						transform="rotate(0 0,13 )"
						stroke-width ="0.1"
						fill="rgb(87,7,69)"
						/><circle cx="0" cy="13" r="3.51" fill="rgb(88,99,11)"/><circle cx="-0.06" cy="12.93" r="2.34" fill="rgb(102.5,99.5,23.5)"/><path d="M 0,13 
						q 1.72 -0.54 2,6.5 q -0.14 -0.54 -2,6.5 
						M 0,13 
						q -1.72 -0.54 -2,6.5 q 0.14 -0.54 2,6.5 " 
						transform="rotate(36 0,13 )"
						stroke-width ="0.1"
						fill="rgb(88.5,0,64.5)"
						/><circle cx="0" cy="13" r="3.51" fill="rgb(88,99,11)"/><circle cx="0.02" cy="12.98" r="2.34" fill="rgb(102.5,99.5,23.5)"/><path d="M 0,13 
						q 1.72 -0.54 2,6.5 q -0.14 -0.54 -2,6.5 
						M 0,13 
						q -1.72 -0.54 -2,6.5 q 0.14 -0.54 2,6.5 " 
						transform="rotate(72 0,13 )"
						stroke-width ="0.1"
						fill="rgb(88,6,68)"
						/><circle cx="0" cy="13" r="3.51" fill="rgb(88,99,11)"/><circle cx="0.05" cy="12.98" r="2.34" fill="rgb(102.5,99.5,23.5)"/><path d="M 0,13 
						q 1.72 -0.54 2,6.5 q -0.14 -0.54 -2,6.5 
						M 0,13 
						q -1.72 -0.54 -2,6.5 q 0.14 -0.54 2,6.5 " 
						transform="rotate(108 0,13 )"
						stroke-width ="0.1"
						fill="rgb(81.5,0,56.5)"
						/><circle cx="0" cy="13" r="3.51" fill="rgb(88,99,11)"/><circle cx="0.1" cy="13.09" r="2.34" fill="rgb(102.5,99.5,23.5)"/><path d="M 0,13 
						q 1.72 -0.54 2,6.5 q -0.14 -0.54 -2,6.5 
						M 0,13 
						q -1.72 -0.54 -2,6.5 q 0.14 -0.54 2,6.5 " 
						transform="rotate(144 0,13 )"
						stroke-width ="0.1"
						fill="rgb(76,0,49)"
						/><circle cx="0" cy="13" r="3.51" fill="rgb(88,99,11)"/><circle cx="0.07" cy="13.07" r="2.34" fill="rgb(102.5,99.5,23.5)"/><path d="M 0,13 
						q 1.72 -0.54 2,6.5 q -0.14 -0.54 -2,6.5 
						M 0,13 
						q -1.72 -0.54 -2,6.5 q 0.14 -0.54 2,6.5 " 
						transform="rotate(180 0,13 )"
						stroke-width ="0.1"
						fill="rgb(72.5,0,58.5)"
						/><circle cx="0" cy="13" r="3.51" fill="rgb(88,99,11)"/><circle cx="-0.02" cy="12.9" r="2.34" fill="rgb(102.5,99.5,23.5)"/><path d="M 0,13 
						q 1.72 -0.54 2,6.5 q -0.14 -0.54 -2,6.5 
						M 0,13 
						q -1.72 -0.54 -2,6.5 q 0.14 -0.54 2,6.5 " 
						transform="rotate(216 0,13 )"
						stroke-width ="0.1"
						fill="rgb(75,0,52)"
						/><circle cx="0" cy="13" r="3.51" fill="rgb(88,99,11)"/><circle cx="0.05" cy="12.91" r="2.34" fill="rgb(102.5,99.5,23.5)"/><path d="M 0,13 
						q 1.72 -0.54 2,6.5 q -0.14 -0.54 -2,6.5 
						M 0,13 
						q -1.72 -0.54 -2,6.5 q 0.14 -0.54 2,6.5 " 
						transform="rotate(252 0,13 )"
						stroke-width ="0.1"
						fill="rgb(79.5,0,50.5)"
						/><circle cx="0" cy="13" r="3.51" fill="rgb(88,99,11)"/><circle cx="-0.06" cy="12.92" r="2.34" fill="rgb(102.5,99.5,23.5)"/><path d="M 0,13 
						q 1.72 -0.54 2,6.5 q -0.14 -0.54 -2,6.5 
						M 0,13 
						q -1.72 -0.54 -2,6.5 q 0.14 -0.54 2,6.5 " 
						transform="rotate(288 0,13 )"
						stroke-width ="0.1"
						fill="rgb(72,0,52)"
						/><circle cx="0" cy="13" r="3.51" fill="rgb(88,99,11)"/><circle cx="-0.01" cy="12.98" r="2.34" fill="rgb(102.5,99.5,23.5)"/><path d="M 0,13 
						q 1.72 -0.54 2,6.5 q -0.14 -0.54 -2,6.5 
						M 0,13 
						q -1.72 -0.54 -2,6.5 q 0.14 -0.54 2,6.5 " 
						transform="rotate(324 0,13 )"
						stroke-width ="0.1"
						fill="rgb(68.5,0,53.5)"
						/><circle cx="0" cy="13" r="3.51" fill="rgb(88,99,11)"/><circle cx="0.02" cy="13.03" r="2.34" fill="rgb(102.5,99.5,23.5)"/><path d="M 0,13 
						q 1.72 -0.54 2,6.5 q -0.14 -0.54 -2,6.5 
						M 0,13 
						q -1.72 -0.54 -2,6.5 q 0.14 -0.54 2,6.5 " 
						transform="rotate(360 0,13 )"
						stroke-width ="0.1"
						fill="rgb(64,0,49)"
						/><circle cx="0" cy="13" r="3.51" fill="rgb(88,99,11)"/><circle cx="0.07" cy="12.94" r="2.34" fill="rgb(102.5,99.5,23.5)"/></g></defs>
				<g class="fullPlant">
					<g>
					<path d ="M 52,91 
					q 0.82 -38.52 -2.976,-35.184" fill ="none" stroke ="rgb(93.5,129.5,18.5)" stroke-width ="1.044"/></g><circle cx="49.024" cy="55.816" r="0.522" fill="rgb(93.5,129.5,18.5)"/><use xlink:href="#leaf6"
						x="52" y="91" 
						transform="rotate(216 52 91)" 	
						fill="rgb(172,110,164)" /><use xlink:href="#leaf3"
						x="52" y="91" 
						transform="rotate(138 52 91)" 	
						fill="rgb(171,110,161)" /><use xlink:href="#flower5" id="fleur00"
						x="49.024" y="42.816" transform="rotate(179 49.024 55.816)" /></g>
				</svg>