<svg class="relie" xmlns="http://www.w3.org/2000/svg" viewBox="0 0 100 100" preserveAspectRatio="xMidYMid meet" x="0" y="0" overflow="visible" xmlns:xlink="http://www.w3.org/1999/xlink">

		<defs>  <g id="leaf1" transform="skewX(6) skewY(6)"><path d="M 0,0 
					q 0.2675 0.00125 0,2.75 
					M 0,0 
					q -0.2675 0.00125 0,2.75 " 
					stroke-width ="0.2" /></g>  <g id="leaf2" transform="skewX(11) skewY(11)"><path d="M 0,0 
					q 0.535 0.0025 0,5.5 
					M 0,0 
					q -0.535 0.0025 0,5.5 " 
					stroke-width ="0.2" /></g>  <g id="leaf3" transform="skewX(16) skewY(16)"><path d="M 0,0 
					q 0.8025 0.00375 0,8.25 
					M 0,0 
					q -0.8025 0.00375 0,8.25 " 
					stroke-width ="0.2" /></g>  <g id="leaf4" transform="skewX(-9) skewY(-9)"><path d="M 0,0 
					q 1.07 0.005 0,11 
					M 0,0 
					q -1.07 0.005 0,11 " 
					stroke-width ="0.2" /></g>  <g id="leaf5" transform="skewX(8) skewY(8)"><path d="M 0,0 
					q 1.3375 0.00625 0,13.75 
					M 0,0 
					q -1.3375 0.00625 0,13.75 " 
					stroke-width ="0.2" /></g>  <g id="leaf6" transform="skewX(0) skewY(0)"><path d="M 0,0 
					q 1.605 0.0075 0,16.5 
					M 0,0 
					q -1.605 0.0075 0,16.5 " 
					stroke-width ="0.2" /></g>  <g id="leaf7" transform="skewX(1) skewY(1)"><path d="M 0,0 
					q 1.8725 0.00875 0,19.25 
					M 0,0 
					q -1.8725 0.00875 0,19.25 " 
					stroke-width ="0.2" /></g>  <g id="leaf8" transform="skewX(-4) skewY(-4)"><path d="M 0,0 
					q 2.14 0.01 0,22 
					M 0,0 
					q -2.14 0.01 0,22 " 
					stroke-width ="0.2" /></g><g id="flower1"><path d="M 0,0.5 
						q 0.27125 0.14625 0.1925,0.25 q 0.27125 0.14625 -0.1925,1 
						M 0,0.5 
						q -0.27125 0.14625 -0.1925,0.25 q -0.27125 0.14625 0.1925,1 " 
						transform="rotate(0 0,0.5 )"
						stroke-width ="0.1"
						fill="rgb(1,72,45)"
						/><path d="M 0,0.5 
						q 0.27125 0.14625 0.1925,0.25 q 0.27125 0.14625 -0.1925,1 
						M 0,0.5 
						q -0.27125 0.14625 -0.1925,0.25 q -0.27125 0.14625 0.1925,1 " 
						transform="rotate(67.5 0,0.5 )"
						stroke-width ="0.1"
						fill="rgb(10.5,76.5,39.5)"
						/><path d="M 0,0.5 
						q 0.27125 0.14625 0.1925,0.25 q 0.27125 0.14625 -0.1925,1 
						M 0,0.5 
						q -0.27125 0.14625 -0.1925,0.25 q -0.27125 0.14625 0.1925,1 " 
						transform="rotate(135 0,0.5 )"
						stroke-width ="0.1"
						fill="rgb(0,72,48)"
						/></g><g id="flower2"><path d="M 0,1 
						q 0.5425 0.2925 0.385,0.5 q 0.5425 0.2925 -0.385,1 
						M 0,1 
						q -0.5425 0.2925 -0.385,0.5 q -0.5425 0.2925 0.385,1 " 
						transform="rotate(0 0,1 )"
						stroke-width ="0.1"
						fill="rgb(8,76,40)"
						/><circle cx="0" cy="1" r="0.35" fill="rgb(221,26,134)"/><circle cx="-0.06" cy="0.91" r="0.23333333333333" fill="rgb(224.5,47.5,154.5)"/><path d="M 0,1 
						q 0.5425 0.2925 0.385,0.5 q 0.5425 0.2925 -0.385,1 
						M 0,1 
						q -0.5425 0.2925 -0.385,0.5 q -0.5425 0.2925 0.385,1 " 
						transform="rotate(135 0,1 )"
						stroke-width ="0.1"
						fill="rgb(2.5,72.5,38.5)"
						/><circle cx="0" cy="1" r="0.35" fill="rgb(221,26,134)"/><circle cx="-0.08" cy="1.08" r="0.23333333333333" fill="rgb(224.5,47.5,154.5)"/><path d="M 0,1 
						q 0.5425 0.2925 0.385,0.5 q 0.5425 0.2925 -0.385,1 
						M 0,1 
						q -0.5425 0.2925 -0.385,0.5 q -0.5425 0.2925 0.385,1 " 
						transform="rotate(270 0,1 )"
						stroke-width ="0.1"
						fill="rgb(4,77,43)"
						/><circle cx="0" cy="1" r="0.35" fill="rgb(221,26,134)"/><circle cx="0.03" cy="0.94" r="0.23333333333333" fill="rgb(224.5,47.5,154.5)"/><path d="M 0,1 
						q 0.5425 0.2925 0.385,0.5 q 0.5425 0.2925 -0.385,1 
						M 0,1 
						q -0.5425 0.2925 -0.385,0.5 q -0.5425 0.2925 0.385,1 " 
						transform="rotate(405 0,1 )"
						stroke-width ="0.1"
						fill="rgb(0,69.5,31.5)"
						/><circle cx="0" cy="1" r="0.35" fill="rgb(221,26,134)"/><circle cx="-0.06" cy="0.93" r="0.23333333333333" fill="rgb(224.5,47.5,154.5)"/><path d="M 0,1 
						q 0.5425 0.2925 0.385,0.5 q 0.5425 0.2925 -0.385,1 
						M 0,1 
						q -0.5425 0.2925 -0.385,0.5 q -0.5425 0.2925 0.385,1 " 
						transform="rotate(540 0,1 )"
						stroke-width ="0.1"
						fill="rgb(0,68,39)"
						/><circle cx="0" cy="1" r="0.35" fill="rgb(221,26,134)"/><circle cx="0.1" cy="1.09" r="0.23333333333333" fill="rgb(224.5,47.5,154.5)"/><path d="M 0,1 
						q 0.5425 0.2925 0.385,0.5 q 0.5425 0.2925 -0.385,1 
						M 0,1 
						q -0.5425 0.2925 -0.385,0.5 q -0.5425 0.2925 0.385,1 " 
						transform="rotate(675 0,1 )"
						stroke-width ="0.1"
						fill="rgb(0,51.5,31.5)"
						/><circle cx="0" cy="1" r="0.35" fill="rgb(221,26,134)"/><circle cx="0.02" cy="1.05" r="0.23333333333333" fill="rgb(224.5,47.5,154.5)"/><path d="M 0,1 
						q 0.5425 0.2925 0.385,0.5 q 0.5425 0.2925 -0.385,1 
						M 0,1 
						q -0.5425 0.2925 -0.385,0.5 q -0.5425 0.2925 0.385,1 " 
						transform="rotate(810 0,1 )"
						stroke-width ="0.1"
						fill="rgb(0,69,29)"
						/><circle cx="0" cy="1" r="0.35" fill="rgb(221,26,134)"/><circle cx="0.1" cy="0.99" r="0.23333333333333" fill="rgb(224.5,47.5,154.5)"/><path d="M 0,1 
						q 0.5425 0.2925 0.385,0.5 q 0.5425 0.2925 -0.385,1 
						M 0,1 
						q -0.5425 0.2925 -0.385,0.5 q -0.5425 0.2925 0.385,1 " 
						transform="rotate(945 0,1 )"
						stroke-width ="0.1"
						fill="rgb(0,57.5,26.5)"
						/><circle cx="0" cy="1" r="0.35" fill="rgb(221,26,134)"/><circle cx="0.04" cy="1.06" r="0.23333333333333" fill="rgb(224.5,47.5,154.5)"/><path d="M 0,1 
						q 0.5425 0.2925 0.385,0.5 q 0.5425 0.2925 -0.385,1 
						M 0,1 
						q -0.5425 0.2925 -0.385,0.5 q -0.5425 0.2925 0.385,1 " 
						transform="rotate(1080 0,1 )"
						stroke-width ="0.1"
						fill="rgb(0,46,26)"
						/><circle cx="0" cy="1" r="0.35" fill="rgb(221,26,134)"/><circle cx="-0.01" cy="1.09" r="0.23333333333333" fill="rgb(224.5,47.5,154.5)"/></g><g id="flower3"><path d="M 0,1.5 
						q 0.81375 0.43875 0.5775,0.75 q 0.81375 0.43875 -0.5775,1 
						M 0,1.5 
						q -0.81375 0.43875 -0.5775,0.75 q -0.81375 0.43875 0.5775,1 " 
						transform="rotate(0 0,1.5 )"
						stroke-width ="0.1"
						fill="rgb(0,83,52)"
						/><circle cx="0" cy="1.5" r="0.525" fill="rgb(220,27,135)"/><circle cx="-0.09" cy="1.41" r="0.35" fill="rgb(239.5,38.5,136.5)"/><path d="M 0,1.5 
						q 0.81375 0.43875 0.5775,0.75 q 0.81375 0.43875 -0.5775,1 
						M 0,1.5 
						q -0.81375 0.43875 -0.5775,0.75 q -0.81375 0.43875 0.5775,1 " 
						transform="rotate(135 0,1.5 )"
						stroke-width ="0.1"
						fill="rgb(14.5,76.5,46.5)"
						/><circle cx="0" cy="1.5" r="0.525" fill="rgb(220,27,135)"/><circle cx="0.06" cy="1.43" r="0.35" fill="rgb(239.5,38.5,136.5)"/><path d="M 0,1.5 
						q 0.81375 0.43875 0.5775,0.75 q 0.81375 0.43875 -0.5775,1 
						M 0,1.5 
						q -0.81375 0.43875 -0.5775,0.75 q -0.81375 0.43875 0.5775,1 " 
						transform="rotate(270 0,1.5 )"
						stroke-width ="0.1"
						fill="rgb(8,79,43)"
						/><circle cx="0" cy="1.5" r="0.525" fill="rgb(220,27,135)"/><circle cx="0.1" cy="1.41" r="0.35" fill="rgb(239.5,38.5,136.5)"/><path d="M 0,1.5 
						q 0.81375 0.43875 0.5775,0.75 q 0.81375 0.43875 -0.5775,1 
						M 0,1.5 
						q -0.81375 0.43875 -0.5775,0.75 q -0.81375 0.43875 0.5775,1 " 
						transform="rotate(405 0,1.5 )"
						stroke-width ="0.1"
						fill="rgb(3.5,66.5,31.5)"
						/><circle cx="0" cy="1.5" r="0.525" fill="rgb(220,27,135)"/><circle cx="0.07" cy="1.57" r="0.35" fill="rgb(239.5,38.5,136.5)"/><path d="M 0,1.5 
						q 0.81375 0.43875 0.5775,0.75 q 0.81375 0.43875 -0.5775,1 
						M 0,1.5 
						q -0.81375 0.43875 -0.5775,0.75 q -0.81375 0.43875 0.5775,1 " 
						transform="rotate(540 0,1.5 )"
						stroke-width ="0.1"
						fill="rgb(0,66,36)"
						/><circle cx="0" cy="1.5" r="0.525" fill="rgb(220,27,135)"/><circle cx="-0.08" cy="1.46" r="0.35" fill="rgb(239.5,38.5,136.5)"/><path d="M 0,1.5 
						q 0.81375 0.43875 0.5775,0.75 q 0.81375 0.43875 -0.5775,1 
						M 0,1.5 
						q -0.81375 0.43875 -0.5775,0.75 q -0.81375 0.43875 0.5775,1 " 
						transform="rotate(675 0,1.5 )"
						stroke-width ="0.1"
						fill="rgb(4.5,63.5,28.5)"
						/><circle cx="0" cy="1.5" r="0.525" fill="rgb(220,27,135)"/><circle cx="0.08" cy="1.56" r="0.35" fill="rgb(239.5,38.5,136.5)"/><path d="M 0,1.5 
						q 0.81375 0.43875 0.5775,0.75 q 0.81375 0.43875 -0.5775,1 
						M 0,1.5 
						q -0.81375 0.43875 -0.5775,0.75 q -0.81375 0.43875 0.5775,1 " 
						transform="rotate(810 0,1.5 )"
						stroke-width ="0.1"
						fill="rgb(0,52,25)"
						/><circle cx="0" cy="1.5" r="0.525" fill="rgb(220,27,135)"/><circle cx="0.06" cy="1.56" r="0.35" fill="rgb(239.5,38.5,136.5)"/><path d="M 0,1.5 
						q 0.81375 0.43875 0.5775,0.75 q 0.81375 0.43875 -0.5775,1 
						M 0,1.5 
						q -0.81375 0.43875 -0.5775,0.75 q -0.81375 0.43875 0.5775,1 " 
						transform="rotate(945 0,1.5 )"
						stroke-width ="0.1"
						fill="rgb(0,64.5,24.5)"
						/><circle cx="0" cy="1.5" r="0.525" fill="rgb(220,27,135)"/><circle cx="-0.03" cy="1.45" r="0.35" fill="rgb(239.5,38.5,136.5)"/><path d="M 0,1.5 
						q 0.81375 0.43875 0.5775,0.75 q 0.81375 0.43875 -0.5775,1 
						M 0,1.5 
						q -0.81375 0.43875 -0.5775,0.75 q -0.81375 0.43875 0.5775,1 " 
						transform="rotate(1080 0,1.5 )"
						stroke-width ="0.1"
						fill="rgb(0,52,23)"
						/><circle cx="0" cy="1.5" r="0.525" fill="rgb(220,27,135)"/><circle cx="0.08" cy="1.48" r="0.35" fill="rgb(239.5,38.5,136.5)"/></g><g id="flower4"><path d="M 0,2 
						q 1.085 0.585 0.77,1 q 1.085 0.585 -0.77,1 
						M 0,2 
						q -1.085 0.585 -0.77,1 q -1.085 0.585 0.77,1 " 
						transform="rotate(0 0,2 )"
						stroke-width ="0.1"
						fill="rgb(13,72,38)"
						/><circle cx="0" cy="2" r="0.7" fill="rgb(220,30,131)"/><circle cx="0.05" cy="1.98" r="0.46666666666667" fill="rgb(223.5,45.5,154.5)"/><path d="M 0,2 
						q 1.085 0.585 0.77,1 q 1.085 0.585 -0.77,1 
						M 0,2 
						q -1.085 0.585 -0.77,1 q -1.085 0.585 0.77,1 " 
						transform="rotate(135 0,2 )"
						stroke-width ="0.1"
						fill="rgb(15.5,68.5,34.5)"
						/><circle cx="0" cy="2" r="0.7" fill="rgb(220,30,131)"/><circle cx="-0.01" cy="2.02" r="0.46666666666667" fill="rgb(223.5,45.5,154.5)"/><path d="M 0,2 
						q 1.085 0.585 0.77,1 q 1.085 0.585 -0.77,1 
						M 0,2 
						q -1.085 0.585 -0.77,1 q -1.085 0.585 0.77,1 " 
						transform="rotate(270 0,2 )"
						stroke-width ="0.1"
						fill="rgb(4,61,36)"
						/><circle cx="0" cy="2" r="0.7" fill="rgb(220,30,131)"/><circle cx="0" cy="2.01" r="0.46666666666667" fill="rgb(223.5,45.5,154.5)"/><path d="M 0,2 
						q 1.085 0.585 0.77,1 q 1.085 0.585 -0.77,1 
						M 0,2 
						q -1.085 0.585 -0.77,1 q -1.085 0.585 0.77,1 " 
						transform="rotate(405 0,2 )"
						stroke-width ="0.1"
						fill="rgb(4.5,63.5,36.5)"
						/><circle cx="0" cy="2" r="0.7" fill="rgb(220,30,131)"/><circle cx="-0.07" cy="1.92" r="0.46666666666667" fill="rgb(223.5,45.5,154.5)"/><path d="M 0,2 
						q 1.085 0.585 0.77,1 q 1.085 0.585 -0.77,1 
						M 0,2 
						q -1.085 0.585 -0.77,1 q -1.085 0.585 0.77,1 " 
						transform="rotate(540 0,2 )"
						stroke-width ="0.1"
						fill="rgb(1,56,32)"
						/><circle cx="0" cy="2" r="0.7" fill="rgb(220,30,131)"/><circle cx="-0.01" cy="2.02" r="0.46666666666667" fill="rgb(223.5,45.5,154.5)"/><path d="M 0,2 
						q 1.085 0.585 0.77,1 q 1.085 0.585 -0.77,1 
						M 0,2 
						q -1.085 0.585 -0.77,1 q -1.085 0.585 0.77,1 " 
						transform="rotate(675 0,2 )"
						stroke-width ="0.1"
						fill="rgb(4.5,54.5,22.5)"
						/><circle cx="0" cy="2" r="0.7" fill="rgb(220,30,131)"/><circle cx="-0.02" cy="1.96" r="0.46666666666667" fill="rgb(223.5,45.5,154.5)"/><path d="M 0,2 
						q 1.085 0.585 0.77,1 q 1.085 0.585 -0.77,1 
						M 0,2 
						q -1.085 0.585 -0.77,1 q -1.085 0.585 0.77,1 " 
						transform="rotate(810 0,2 )"
						stroke-width ="0.1"
						fill="rgb(0,50,33)"
						/><circle cx="0" cy="2" r="0.7" fill="rgb(220,30,131)"/><circle cx="-0.09" cy="2" r="0.46666666666667" fill="rgb(223.5,45.5,154.5)"/><path d="M 0,2 
						q 1.085 0.585 0.77,1 q 1.085 0.585 -0.77,1 
						M 0,2 
						q -1.085 0.585 -0.77,1 q -1.085 0.585 0.77,1 " 
						transform="rotate(945 0,2 )"
						stroke-width ="0.1"
						fill="rgb(0,64.5,20.5)"
						/><circle cx="0" cy="2" r="0.7" fill="rgb(220,30,131)"/><circle cx="-0.1" cy="1.91" r="0.46666666666667" fill="rgb(223.5,45.5,154.5)"/><path d="M 0,2 
						q 1.085 0.585 0.77,1 q 1.085 0.585 -0.77,1 
						M 0,2 
						q -1.085 0.585 -0.77,1 q -1.085 0.585 0.77,1 " 
						transform="rotate(1080 0,2 )"
						stroke-width ="0.1"
						fill="rgb(0,62,13)"
						/><circle cx="0" cy="2" r="0.7" fill="rgb(220,30,131)"/><circle cx="-0.04" cy="1.93" r="0.46666666666667" fill="rgb(223.5,45.5,154.5)"/></g><g id="flower5"><path d="M 0,2.5 
						q 1.35625 0.73125 0.9625,1.25 q 1.35625 0.73125 -0.9625,1.25 
						M 0,2.5 
						q -1.35625 0.73125 -0.9625,1.25 q -1.35625 0.73125 0.9625,1.25 " 
						transform="rotate(0 0,2.5 )"
						stroke-width ="0.1"
						fill="rgb(5,82,42)"
						/><path d="M 0,2.5 
						q 1.35625 0.73125 0.9625,1.25 q 1.35625 0.73125 -0.9625,1.25 
						M 0,2.5 
						q -1.35625 0.73125 -0.9625,1.25 q -1.35625 0.73125 0.9625,1.25 " 
						transform="rotate(67.5 0,2.5 )"
						stroke-width ="0.1"
						fill="rgb(0,71.5,43.5)"
						/><path d="M 0,2.5 
						q 1.35625 0.73125 0.9625,1.25 q 1.35625 0.73125 -0.9625,1.25 
						M 0,2.5 
						q -1.35625 0.73125 -0.9625,1.25 q -1.35625 0.73125 0.9625,1.25 " 
						transform="rotate(135 0,2.5 )"
						stroke-width ="0.1"
						fill="rgb(0,78,41)"
						/></g><g id="flower6"><path d="M 0,3 
						q 1.6275 0.8775 1.155,1.5 q 1.6275 0.8775 -1.155,1.5 
						M 0,3 
						q -1.6275 0.8775 -1.155,1.5 q -1.6275 0.8775 1.155,1.5 " 
						transform="rotate(0 0,3 )"
						stroke-width ="0.1"
						fill="rgb(16,77,35)"
						/><circle cx="0" cy="3" r="1.05" fill="rgb(223,34,134)"/><circle cx="0.02" cy="3.06" r="0.7" fill="rgb(233.5,48.5,142.5)"/><path d="M 0,3 
						q 1.6275 0.8775 1.155,1.5 q 1.6275 0.8775 -1.155,1.5 
						M 0,3 
						q -1.6275 0.8775 -1.155,1.5 q -1.6275 0.8775 1.155,1.5 " 
						transform="rotate(135 0,3 )"
						stroke-width ="0.1"
						fill="rgb(16.5,63.5,48.5)"
						/><circle cx="0" cy="3" r="1.05" fill="rgb(223,34,134)"/><circle cx="0.07" cy="3.1" r="0.7" fill="rgb(233.5,48.5,142.5)"/><path d="M 0,3 
						q 1.6275 0.8775 1.155,1.5 q 1.6275 0.8775 -1.155,1.5 
						M 0,3 
						q -1.6275 0.8775 -1.155,1.5 q -1.6275 0.8775 1.155,1.5 " 
						transform="rotate(270 0,3 )"
						stroke-width ="0.1"
						fill="rgb(6,79,33)"
						/><circle cx="0" cy="3" r="1.05" fill="rgb(223,34,134)"/><circle cx="0.03" cy="3.05" r="0.7" fill="rgb(233.5,48.5,142.5)"/><path d="M 0,3 
						q 1.6275 0.8775 1.155,1.5 q 1.6275 0.8775 -1.155,1.5 
						M 0,3 
						q -1.6275 0.8775 -1.155,1.5 q -1.6275 0.8775 1.155,1.5 " 
						transform="rotate(405 0,3 )"
						stroke-width ="0.1"
						fill="rgb(0,61.5,25.5)"
						/><circle cx="0" cy="3" r="1.05" fill="rgb(223,34,134)"/><circle cx="-0.07" cy="3.1" r="0.7" fill="rgb(233.5,48.5,142.5)"/><path d="M 0,3 
						q 1.6275 0.8775 1.155,1.5 q 1.6275 0.8775 -1.155,1.5 
						M 0,3 
						q -1.6275 0.8775 -1.155,1.5 q -1.6275 0.8775 1.155,1.5 " 
						transform="rotate(540 0,3 )"
						stroke-width ="0.1"
						fill="rgb(0,55,33)"
						/><circle cx="0" cy="3" r="1.05" fill="rgb(223,34,134)"/><circle cx="-0.1" cy="3" r="0.7" fill="rgb(233.5,48.5,142.5)"/><path d="M 0,3 
						q 1.6275 0.8775 1.155,1.5 q 1.6275 0.8775 -1.155,1.5 
						M 0,3 
						q -1.6275 0.8775 -1.155,1.5 q -1.6275 0.8775 1.155,1.5 " 
						transform="rotate(675 0,3 )"
						stroke-width ="0.1"
						fill="rgb(0,53.5,37.5)"
						/><circle cx="0" cy="3" r="1.05" fill="rgb(223,34,134)"/><circle cx="0.06" cy="2.97" r="0.7" fill="rgb(233.5,48.5,142.5)"/><path d="M 0,3 
						q 1.6275 0.8775 1.155,1.5 q 1.6275 0.8775 -1.155,1.5 
						M 0,3 
						q -1.6275 0.8775 -1.155,1.5 q -1.6275 0.8775 1.155,1.5 " 
						transform="rotate(810 0,3 )"
						stroke-width ="0.1"
						fill="rgb(0,69,35)"
						/><circle cx="0" cy="3" r="1.05" fill="rgb(223,34,134)"/><circle cx="0.1" cy="2.91" r="0.7" fill="rgb(233.5,48.5,142.5)"/><path d="M 0,3 
						q 1.6275 0.8775 1.155,1.5 q 1.6275 0.8775 -1.155,1.5 
						M 0,3 
						q -1.6275 0.8775 -1.155,1.5 q -1.6275 0.8775 1.155,1.5 " 
						transform="rotate(945 0,3 )"
						stroke-width ="0.1"
						fill="rgb(0,63.5,27.5)"
						/><circle cx="0" cy="3" r="1.05" fill="rgb(223,34,134)"/><circle cx="-0.08" cy="2.93" r="0.7" fill="rgb(233.5,48.5,142.5)"/><path d="M 0,3 
						q 1.6275 0.8775 1.155,1.5 q 1.6275 0.8775 -1.155,1.5 
						M 0,3 
						q -1.6275 0.8775 -1.155,1.5 q -1.6275 0.8775 1.155,1.5 " 
						transform="rotate(1080 0,3 )"
						stroke-width ="0.1"
						fill="rgb(0,59,21)"
						/><circle cx="0" cy="3" r="1.05" fill="rgb(223,34,134)"/><circle cx="0.1" cy="3.01" r="0.7" fill="rgb(233.5,48.5,142.5)"/></g><g id="flower7"><path d="M 0,3.5 
						q 1.89875 1.02375 1.3475,1.75 q 1.89875 1.02375 -1.3475,1.75 
						M 0,3.5 
						q -1.89875 1.02375 -1.3475,1.75 q -1.89875 1.02375 1.3475,1.75 " 
						transform="rotate(0 0,3.5 )"
						stroke-width ="0.1"
						fill="rgb(15,80,33)"
						/><circle cx="0" cy="3.5" r="1.225" fill="rgb(217,26,130)"/><circle cx="0" cy="3.4" r="0.81666666666667" fill="rgb(239.5,46.5,138.5)"/><path d="M 0,3.5 
						q 1.89875 1.02375 1.3475,1.75 q 1.89875 1.02375 -1.3475,1.75 
						M 0,3.5 
						q -1.89875 1.02375 -1.3475,1.75 q -1.89875 1.02375 1.3475,1.75 " 
						transform="rotate(135 0,3.5 )"
						stroke-width ="0.1"
						fill="rgb(16.5,79.5,40.5)"
						/><circle cx="0" cy="3.5" r="1.225" fill="rgb(217,26,130)"/><circle cx="0" cy="3.59" r="0.81666666666667" fill="rgb(239.5,46.5,138.5)"/><path d="M 0,3.5 
						q 1.89875 1.02375 1.3475,1.75 q 1.89875 1.02375 -1.3475,1.75 
						M 0,3.5 
						q -1.89875 1.02375 -1.3475,1.75 q -1.89875 1.02375 1.3475,1.75 " 
						transform="rotate(270 0,3.5 )"
						stroke-width ="0.1"
						fill="rgb(0,67,29)"
						/><circle cx="0" cy="3.5" r="1.225" fill="rgb(217,26,130)"/><circle cx="0.01" cy="3.46" r="0.81666666666667" fill="rgb(239.5,46.5,138.5)"/><path d="M 0,3.5 
						q 1.89875 1.02375 1.3475,1.75 q 1.89875 1.02375 -1.3475,1.75 
						M 0,3.5 
						q -1.89875 1.02375 -1.3475,1.75 q -1.89875 1.02375 1.3475,1.75 " 
						transform="rotate(405 0,3.5 )"
						stroke-width ="0.1"
						fill="rgb(9.5,57.5,38.5)"
						/><circle cx="0" cy="3.5" r="1.225" fill="rgb(217,26,130)"/><circle cx="-0.06" cy="3.54" r="0.81666666666667" fill="rgb(239.5,46.5,138.5)"/><path d="M 0,3.5 
						q 1.89875 1.02375 1.3475,1.75 q 1.89875 1.02375 -1.3475,1.75 
						M 0,3.5 
						q -1.89875 1.02375 -1.3475,1.75 q -1.89875 1.02375 1.3475,1.75 " 
						transform="rotate(540 0,3.5 )"
						stroke-width ="0.1"
						fill="rgb(9,55,30)"
						/><circle cx="0" cy="3.5" r="1.225" fill="rgb(217,26,130)"/><circle cx="-0.02" cy="3.53" r="0.81666666666667" fill="rgb(239.5,46.5,138.5)"/><path d="M 0,3.5 
						q 1.89875 1.02375 1.3475,1.75 q 1.89875 1.02375 -1.3475,1.75 
						M 0,3.5 
						q -1.89875 1.02375 -1.3475,1.75 q -1.89875 1.02375 1.3475,1.75 " 
						transform="rotate(675 0,3.5 )"
						stroke-width ="0.1"
						fill="rgb(0,51.5,29.5)"
						/><circle cx="0" cy="3.5" r="1.225" fill="rgb(217,26,130)"/><circle cx="-0.02" cy="3.59" r="0.81666666666667" fill="rgb(239.5,46.5,138.5)"/><path d="M 0,3.5 
						q 1.89875 1.02375 1.3475,1.75 q 1.89875 1.02375 -1.3475,1.75 
						M 0,3.5 
						q -1.89875 1.02375 -1.3475,1.75 q -1.89875 1.02375 1.3475,1.75 " 
						transform="rotate(810 0,3.5 )"
						stroke-width ="0.1"
						fill="rgb(0,57,29)"
						/><circle cx="0" cy="3.5" r="1.225" fill="rgb(217,26,130)"/><circle cx="-0.07" cy="3.53" r="0.81666666666667" fill="rgb(239.5,46.5,138.5)"/><path d="M 0,3.5 
						q 1.89875 1.02375 1.3475,1.75 q 1.89875 1.02375 -1.3475,1.75 
						M 0,3.5 
						q -1.89875 1.02375 -1.3475,1.75 q -1.89875 1.02375 1.3475,1.75 " 
						transform="rotate(945 0,3.5 )"
						stroke-width ="0.1"
						fill="rgb(0,47.5,18.5)"
						/><circle cx="0" cy="3.5" r="1.225" fill="rgb(217,26,130)"/><circle cx="-0.01" cy="3.6" r="0.81666666666667" fill="rgb(239.5,46.5,138.5)"/><path d="M 0,3.5 
						q 1.89875 1.02375 1.3475,1.75 q 1.89875 1.02375 -1.3475,1.75 
						M 0,3.5 
						q -1.89875 1.02375 -1.3475,1.75 q -1.89875 1.02375 1.3475,1.75 " 
						transform="rotate(1080 0,3.5 )"
						stroke-width ="0.1"
						fill="rgb(0,59,21)"
						/><circle cx="0" cy="3.5" r="1.225" fill="rgb(217,26,130)"/><circle cx="0.06" cy="3.54" r="0.81666666666667" fill="rgb(239.5,46.5,138.5)"/></g><g id="flower8"><path d="M 0,4 
						q 2.17 1.17 1.54,2 q 2.17 1.17 -1.54,2 
						M 0,4 
						q -2.17 1.17 -1.54,2 q -2.17 1.17 1.54,2 " 
						transform="rotate(0 0,4 )"
						stroke-width ="0.1"
						fill="rgb(6,73,35)"
						/><circle cx="0" cy="4" r="1.4" fill="rgb(219,28,134)"/><circle cx="0.07" cy="3.95" r="0.93333333333333" fill="rgb(233.5,40.5,146.5)"/><path d="M 0,4 
						q 2.17 1.17 1.54,2 q 2.17 1.17 -1.54,2 
						M 0,4 
						q -2.17 1.17 -1.54,2 q -2.17 1.17 1.54,2 " 
						transform="rotate(135 0,4 )"
						stroke-width ="0.1"
						fill="rgb(1.5,67.5,43.5)"
						/><circle cx="0" cy="4" r="1.4" fill="rgb(219,28,134)"/><circle cx="0.09" cy="3.91" r="0.93333333333333" fill="rgb(233.5,40.5,146.5)"/><path d="M 0,4 
						q 2.17 1.17 1.54,2 q 2.17 1.17 -1.54,2 
						M 0,4 
						q -2.17 1.17 -1.54,2 q -2.17 1.17 1.54,2 " 
						transform="rotate(270 0,4 )"
						stroke-width ="0.1"
						fill="rgb(0,69,34)"
						/><circle cx="0" cy="4" r="1.4" fill="rgb(219,28,134)"/><circle cx="0.02" cy="4.04" r="0.93333333333333" fill="rgb(233.5,40.5,146.5)"/><path d="M 0,4 
						q 2.17 1.17 1.54,2 q 2.17 1.17 -1.54,2 
						M 0,4 
						q -2.17 1.17 -1.54,2 q -2.17 1.17 1.54,2 " 
						transform="rotate(405 0,4 )"
						stroke-width ="0.1"
						fill="rgb(7.5,64.5,45.5)"
						/><circle cx="0" cy="4" r="1.4" fill="rgb(219,28,134)"/><circle cx="0.04" cy="4.1" r="0.93333333333333" fill="rgb(233.5,40.5,146.5)"/><path d="M 0,4 
						q 2.17 1.17 1.54,2 q 2.17 1.17 -1.54,2 
						M 0,4 
						q -2.17 1.17 -1.54,2 q -2.17 1.17 1.54,2 " 
						transform="rotate(540 0,4 )"
						stroke-width ="0.1"
						fill="rgb(0,60,37)"
						/><circle cx="0" cy="4" r="1.4" fill="rgb(219,28,134)"/><circle cx="-0.1" cy="3.92" r="0.93333333333333" fill="rgb(233.5,40.5,146.5)"/><path d="M 0,4 
						q 2.17 1.17 1.54,2 q 2.17 1.17 -1.54,2 
						M 0,4 
						q -2.17 1.17 -1.54,2 q -2.17 1.17 1.54,2 " 
						transform="rotate(675 0,4 )"
						stroke-width ="0.1"
						fill="rgb(1.5,53.5,20.5)"
						/><circle cx="0" cy="4" r="1.4" fill="rgb(219,28,134)"/><circle cx="-0.04" cy="4.04" r="0.93333333333333" fill="rgb(233.5,40.5,146.5)"/><path d="M 0,4 
						q 2.17 1.17 1.54,2 q 2.17 1.17 -1.54,2 
						M 0,4 
						q -2.17 1.17 -1.54,2 q -2.17 1.17 1.54,2 " 
						transform="rotate(810 0,4 )"
						stroke-width ="0.1"
						fill="rgb(1,54,38)"
						/><circle cx="0" cy="4" r="1.4" fill="rgb(219,28,134)"/><circle cx="-0.06" cy="3.99" r="0.93333333333333" fill="rgb(233.5,40.5,146.5)"/><path d="M 0,4 
						q 2.17 1.17 1.54,2 q 2.17 1.17 -1.54,2 
						M 0,4 
						q -2.17 1.17 -1.54,2 q -2.17 1.17 1.54,2 " 
						transform="rotate(945 0,4 )"
						stroke-width ="0.1"
						fill="rgb(0,65.5,18.5)"
						/><circle cx="0" cy="4" r="1.4" fill="rgb(219,28,134)"/><circle cx="0.07" cy="4.1" r="0.93333333333333" fill="rgb(233.5,40.5,146.5)"/><path d="M 0,4 
						q 2.17 1.17 1.54,2 q 2.17 1.17 -1.54,2 
						M 0,4 
						q -2.17 1.17 -1.54,2 q -2.17 1.17 1.54,2 " 
						transform="rotate(1080 0,4 )"
						stroke-width ="0.1"
						fill="rgb(0,47,28)"
						/><circle cx="0" cy="4" r="1.4" fill="rgb(219,28,134)"/><circle cx="0.02" cy="3.9" r="0.93333333333333" fill="rgb(233.5,40.5,146.5)"/></g></defs>
				<g class="fullPlant">
					<g>
					<path d ="M 47,91 
					q -12.2 -49.21 -8.52,-48.972" fill ="none" stroke ="rgb(10.5,153.5,101.5)" stroke-width ="1.332"/></g><circle cx="38.48" cy="42.028" r="0.666" fill="rgb(10.5,153.5,101.5)"/><use xlink:href="#leaf3"
						x="47" y="91" 
						transform="rotate(213 47 91)" 	
						fill="rgb(137,187,97)" /><use xlink:href="#leaf7"
						x="47" y="91" 
						transform="rotate(139 47.2 91.87)" 	
						fill="rgb(109,188,109)" /><use xlink:href="#flower7" id="fleur00"
						x="38.48" y="38.028" transform="rotate(169 38.48 42.028)" />
					<g>
					<path d ="M 53,91 
					q 12.2 -22.59 7.68,-26.868" fill ="none" stroke ="rgb(9,154,103)" stroke-width ="1.332"/></g><circle cx="60.68" cy="64.132" r="0.666" fill="rgb(9,154,103)"/><use xlink:href="#leaf4"
						x="53" y="91" 
						transform="rotate(210 53.48 91.45)" 	
						fill="rgb(103,197,95)" /><use xlink:href="#leaf3"
						x="53" y="91" 
						transform="rotate(140 53 91)" 	
						fill="rgb(132,190,79)" /><use xlink:href="#flower6" id="fleur10"
						x="60.68" y="60.132" transform="rotate(93 60.68 64.132)" />
					<g>
					<path d ="M 54,91 
					q -12.2 -20.67 -8.28,-47.724" fill ="none" stroke ="rgb(7.5,155.5,105.5)" stroke-width ="1.332"/></g><circle cx="45.72" cy="43.276" r="0.666" fill="rgb(7.5,155.5,105.5)"/><use xlink:href="#leaf7"
						x="54" y="91" 
						transform="rotate(136 54.26 91.93)" 	
						fill="rgb(141,196,83)" /><use xlink:href="#leaf7"
						x="54" y="91" 
						transform="rotate(206 54.3 91.22)" 	
						fill="rgb(141,204,80)" /><use xlink:href="#flower7" id="fleur20"
						x="45.72" y="39.276" transform="rotate(115 45.72 43.276)" />
					<g>
					<path d ="M 57,91 
					q 12.2 -27.36 -1.548,-29.592" fill ="none" stroke ="rgb(8,157,104)" stroke-width ="1.332"/></g><circle cx="55.452" cy="61.408" r="0.666" fill="rgb(8,157,104)"/><use xlink:href="#leaf6"
						x="57" y="91" 
						transform="rotate(136 57.5 91.32)" 	
						fill="rgb(108,187,98)" /><use xlink:href="#leaf6"
						x="57" y="91" 
						transform="rotate(143 57 91)" 	
						fill="rgb(132,198,75)" /><use xlink:href="#flower6" id="fleur30"
						x="55.452" y="57.408" transform="rotate(102 55.452 61.408)" /></g>
				</svg>