<svg class="relie" xmlns="http://www.w3.org/2000/svg" viewBox="0 0 100 100" preserveAspectRatio="xMidYMid meet" x="0" y="0" overflow="visible" xmlns:xlink="http://www.w3.org/1999/xlink">

		<defs>  <g id="leaf1" transform="skewX(15) skewY(15)"><path d="M 0,0 
					q 0.75 0.135 0,1.5 
					M 0,0 
					q -0.75 0.135 0,1.5 " 
					stroke-width ="0.2" /></g>  <g id="leaf2" transform="skewX(19) skewY(19)"><path d="M 0,0 
					q 1.5 0.27 0,3 
					M 0,0 
					q -1.5 0.27 0,3 " 
					stroke-width ="0.2" /></g>  <g id="leaf3" transform="skewX(12) skewY(12)"><path d="M 0,0 
					q 2.25 0.405 0,4.5 
					M 0,0 
					q -2.25 0.405 0,4.5 " 
					stroke-width ="0.2" /></g>  <g id="leaf4" transform="skewX(-19) skewY(-19)"><path d="M 0,0 
					q 3 0.54 0,6 
					M 0,0 
					q -3 0.54 0,6 " 
					stroke-width ="0.2" /></g>  <g id="leaf5" transform="skewX(1) skewY(1)"><path d="M 0,0 
					q 3.75 0.675 0,7.5 
					M 0,0 
					q -3.75 0.675 0,7.5 " 
					stroke-width ="0.2" /></g>  <g id="leaf6" transform="skewX(-6) skewY(-6)"><path d="M 0,0 
					q 4.5 0.81 0,9 
					M 0,0 
					q -4.5 0.81 0,9 " 
					stroke-width ="0.2" /></g>  <g id="leaf7" transform="skewX(-14) skewY(-14)"><path d="M 0,0 
					q 5.25 0.945 0,10.5 
					M 0,0 
					q -5.25 0.945 0,10.5 " 
					stroke-width ="0.2" /></g>  <g id="leaf8" transform="skewX(10) skewY(10)"><path d="M 0,0 
					q 6 1.08 0,12 
					M 0,0 
					q -6 1.08 0,12 " 
					stroke-width ="0.2" /></g><g id="flower1" transform="skewX(6) skewY(6)">
						<path d="M 0,0
						Q 1.25,0.1875 0,0.72"
						stroke="rgb(193,27,104)" 
						fill="transparent"
						stroke-width ="0.3" /><path d="M 0,0.72 
						q 0.0875 0.025 0.494375,0.1771875 q 0.025 0.1 -0.0775,0.1275 q 0.0625 0.1125 -0.07125,0.0796875 q 0.0125 0.075 -0.345625,1 
						M 0,0.72 
						q -0.0875 0.025 -0.494375,0.1771875 q -0.025 0.1 0.0775,0.1275 q -0.0625 0.1125 0.07125,0.0796875 q -0.0125 0.075 0.345625,1 " 
						transform="rotate(0 0,0.72 )"
						stroke-width ="0.1"
						fill="rgb(174,92,133)"
						/><path d="M 0,0.72 
						q 0.0875 0.025 0.494375,0.1771875 q 0.025 0.1 -0.0775,0.1275 q 0.0625 0.1125 -0.07125,0.0796875 q 0.0125 0.075 -0.345625,1 
						M 0,0.72 
						q -0.0875 0.025 -0.494375,0.1771875 q -0.025 0.1 0.0775,0.1275 q -0.0625 0.1125 0.07125,0.0796875 q -0.0125 0.075 0.345625,1 " 
						transform="rotate(24.923076923077 0,0.72 )"
						stroke-width ="0.1"
						fill="rgb(164.5,102.5,145.5)"
						/><path d="M 0,0.72 
						q 0.0875 0.025 0.494375,0.1771875 q 0.025 0.1 -0.0775,0.1275 q 0.0625 0.1125 -0.07125,0.0796875 q 0.0125 0.075 -0.345625,1 
						M 0,0.72 
						q -0.0875 0.025 -0.494375,0.1771875 q -0.025 0.1 0.0775,0.1275 q -0.0625 0.1125 0.07125,0.0796875 q -0.0125 0.075 0.345625,1 " 
						transform="rotate(49.846153846154 0,0.72 )"
						stroke-width ="0.1"
						fill="rgb(167,102,135)"
						/><path d="M 0,0.72 
						q 0.0875 0.025 0.494375,0.1771875 q 0.025 0.1 -0.0775,0.1275 q 0.0625 0.1125 -0.07125,0.0796875 q 0.0125 0.075 -0.345625,1 
						M 0,0.72 
						q -0.0875 0.025 -0.494375,0.1771875 q -0.025 0.1 0.0775,0.1275 q -0.0625 0.1125 0.07125,0.0796875 q -0.0125 0.075 0.345625,1 " 
						transform="rotate(74.769230769231 0,0.72 )"
						stroke-width ="0.1"
						fill="rgb(171.5,92.5,130.5)"
						/></g><g id="flower2" transform="skewX(3) skewY(3)">
						<path d="M 0,0
						Q -0.64,0.375 0,1.44"
						stroke="rgb(193,27,104)" 
						fill="transparent"
						stroke-width ="0.3" /><path d="M 0,1.44 
						q 0.175 0.05 0.78875,0.354375 q 0.05 0.2 -0.155,0.255 q 0.125 0.225 -0.1425,0.159375 q 0.025 0.15 -0.49125,1 
						M 0,1.44 
						q -0.175 0.05 -0.78875,0.354375 q -0.05 0.2 0.155,0.255 q -0.125 0.225 0.1425,0.159375 q -0.025 0.15 0.49125,1 " 
						transform="rotate(0 0,1.44 )"
						stroke-width ="0.1"
						fill="rgb(163,91,145)"
						/><path d="M 0,1.44 
						q 0.175 0.05 0.78875,0.354375 q 0.05 0.2 -0.155,0.255 q 0.125 0.225 -0.1425,0.159375 q 0.025 0.15 -0.49125,1 
						M 0,1.44 
						q -0.175 0.05 -0.78875,0.354375 q -0.05 0.2 0.155,0.255 q -0.125 0.225 0.1425,0.159375 q -0.025 0.15 0.49125,1 " 
						transform="rotate(24.923076923077 0,1.44 )"
						stroke-width ="0.1"
						fill="rgb(157.5,98.5,139.5)"
						/><path d="M 0,1.44 
						q 0.175 0.05 0.78875,0.354375 q 0.05 0.2 -0.155,0.255 q 0.125 0.225 -0.1425,0.159375 q 0.025 0.15 -0.49125,1 
						M 0,1.44 
						q -0.175 0.05 -0.78875,0.354375 q -0.05 0.2 0.155,0.255 q -0.125 0.225 0.1425,0.159375 q -0.025 0.15 0.49125,1 " 
						transform="rotate(49.846153846154 0,1.44 )"
						stroke-width ="0.1"
						fill="rgb(171,99,126)"
						/><path d="M 0,1.44 
						q 0.175 0.05 0.78875,0.354375 q 0.05 0.2 -0.155,0.255 q 0.125 0.225 -0.1425,0.159375 q 0.025 0.15 -0.49125,1 
						M 0,1.44 
						q -0.175 0.05 -0.78875,0.354375 q -0.05 0.2 0.155,0.255 q -0.125 0.225 0.1425,0.159375 q -0.025 0.15 0.49125,1 " 
						transform="rotate(74.769230769231 0,1.44 )"
						stroke-width ="0.1"
						fill="rgb(167.5,83.5,126.5)"
						/></g><g id="flower3" transform="skewX(-3) skewY(-3)">
						<path d="M 0,0
						Q 0.31,0.5625 0,2.16"
						stroke="rgb(193,27,104)" 
						fill="transparent"
						stroke-width ="0.3" /><path d="M 0,2.16 
						q 0.2625 0.075 1.083125,0.5315625 q 0.075 0.3 -0.2325,0.3825 q 0.1875 0.3375 -0.21375,0.2390625 q 0.0375 0.225 -0.636875,1 
						M 0,2.16 
						q -0.2625 0.075 -1.083125,0.5315625 q -0.075 0.3 0.2325,0.3825 q -0.1875 0.3375 0.21375,0.2390625 q -0.0375 0.225 0.636875,1 " 
						transform="rotate(0 0,2.16 )"
						stroke-width ="0.1"
						fill="rgb(164,92,146)"
						/><path d="M 0,2.16 
						q 0.2625 0.075 1.083125,0.5315625 q 0.075 0.3 -0.2325,0.3825 q 0.1875 0.3375 -0.21375,0.2390625 q 0.0375 0.225 -0.636875,1 
						M 0,2.16 
						q -0.2625 0.075 -1.083125,0.5315625 q -0.075 0.3 0.2325,0.3825 q -0.1875 0.3375 0.21375,0.2390625 q -0.0375 0.225 0.636875,1 " 
						transform="rotate(24.923076923077 0,2.16 )"
						stroke-width ="0.1"
						fill="rgb(164.5,90.5,146.5)"
						/><path d="M 0,2.16 
						q 0.2625 0.075 1.083125,0.5315625 q 0.075 0.3 -0.2325,0.3825 q 0.1875 0.3375 -0.21375,0.2390625 q 0.0375 0.225 -0.636875,1 
						M 0,2.16 
						q -0.2625 0.075 -1.083125,0.5315625 q -0.075 0.3 0.2325,0.3825 q -0.1875 0.3375 0.21375,0.2390625 q -0.0375 0.225 0.636875,1 " 
						transform="rotate(49.846153846154 0,2.16 )"
						stroke-width ="0.1"
						fill="rgb(166,101,128)"
						/><path d="M 0,2.16 
						q 0.2625 0.075 1.083125,0.5315625 q 0.075 0.3 -0.2325,0.3825 q 0.1875 0.3375 -0.21375,0.2390625 q 0.0375 0.225 -0.636875,1 
						M 0,2.16 
						q -0.2625 0.075 -1.083125,0.5315625 q -0.075 0.3 0.2325,0.3825 q -0.1875 0.3375 0.21375,0.2390625 q -0.0375 0.225 0.636875,1 " 
						transform="rotate(74.769230769231 0,2.16 )"
						stroke-width ="0.1"
						fill="rgb(169.5,98.5,128.5)"
						/></g><g id="flower4" transform="skewX(-6) skewY(-6)">
						<path d="M 0,0
						Q 1.23,0.75 0,2.88"
						stroke="rgb(193,27,104)" 
						fill="transparent"
						stroke-width ="0.3" /><path d="M 0,2.88 
						q 0.35 0.1 1.3775,0.70875 q 0.1 0.4 -0.31,0.51 q 0.25 0.45 -0.285,0.31875 q 0.05 0.3 -0.7825,1 
						M 0,2.88 
						q -0.35 0.1 -1.3775,0.70875 q -0.1 0.4 0.31,0.51 q -0.25 0.45 0.285,0.31875 q -0.05 0.3 0.7825,1 " 
						transform="rotate(0 0,2.88 )"
						stroke-width ="0.1"
						fill="rgb(172,100,145)"
						/><circle cx="0" cy="2.88" r="0.6" fill="rgb(136,179,8)"/><circle cx="-0.09" cy="2.97" r="0.4" fill="rgb(137.5,188.5,16.5)"/><path d="M 0,2.88 
						q 0.35 0.1 1.3775,0.70875 q 0.1 0.4 -0.31,0.51 q 0.25 0.45 -0.285,0.31875 q 0.05 0.3 -0.7825,1 
						M 0,2.88 
						q -0.35 0.1 -1.3775,0.70875 q -0.1 0.4 0.31,0.51 q -0.25 0.45 0.285,0.31875 q -0.05 0.3 0.7825,1 " 
						transform="rotate(83.076923076923 0,2.88 )"
						stroke-width ="0.1"
						fill="rgb(176.5,99.5,128.5)"
						/><circle cx="0" cy="2.88" r="0.6" fill="rgb(136,179,8)"/><circle cx="0.07" cy="2.81" r="0.4" fill="rgb(137.5,188.5,16.5)"/><path d="M 0,2.88 
						q 0.35 0.1 1.3775,0.70875 q 0.1 0.4 -0.31,0.51 q 0.25 0.45 -0.285,0.31875 q 0.05 0.3 -0.7825,1 
						M 0,2.88 
						q -0.35 0.1 -1.3775,0.70875 q -0.1 0.4 0.31,0.51 q -0.25 0.45 0.285,0.31875 q -0.05 0.3 0.7825,1 " 
						transform="rotate(166.15384615385 0,2.88 )"
						stroke-width ="0.1"
						fill="rgb(156,89,138)"
						/><circle cx="0" cy="2.88" r="0.6" fill="rgb(136,179,8)"/><circle cx="0.05" cy="2.87" r="0.4" fill="rgb(137.5,188.5,16.5)"/><path d="M 0,2.88 
						q 0.35 0.1 1.3775,0.70875 q 0.1 0.4 -0.31,0.51 q 0.25 0.45 -0.285,0.31875 q 0.05 0.3 -0.7825,1 
						M 0,2.88 
						q -0.35 0.1 -1.3775,0.70875 q -0.1 0.4 0.31,0.51 q -0.25 0.45 0.285,0.31875 q -0.05 0.3 0.7825,1 " 
						transform="rotate(249.23076923077 0,2.88 )"
						stroke-width ="0.1"
						fill="rgb(169.5,87.5,123.5)"
						/><circle cx="0" cy="2.88" r="0.6" fill="rgb(136,179,8)"/><circle cx="-0.05" cy="2.87" r="0.4" fill="rgb(137.5,188.5,16.5)"/><path d="M 0,2.88 
						q 0.35 0.1 1.3775,0.70875 q 0.1 0.4 -0.31,0.51 q 0.25 0.45 -0.285,0.31875 q 0.05 0.3 -0.7825,1 
						M 0,2.88 
						q -0.35 0.1 -1.3775,0.70875 q -0.1 0.4 0.31,0.51 q -0.25 0.45 0.285,0.31875 q -0.05 0.3 0.7825,1 " 
						transform="rotate(332.30769230769 0,2.88 )"
						stroke-width ="0.1"
						fill="rgb(159,94,133)"
						/><circle cx="0" cy="2.88" r="0.6" fill="rgb(136,179,8)"/><circle cx="0.04" cy="2.81" r="0.4" fill="rgb(137.5,188.5,16.5)"/><path d="M 0,2.88 
						q 0.35 0.1 1.3775,0.70875 q 0.1 0.4 -0.31,0.51 q 0.25 0.45 -0.285,0.31875 q 0.05 0.3 -0.7825,1 
						M 0,2.88 
						q -0.35 0.1 -1.3775,0.70875 q -0.1 0.4 0.31,0.51 q -0.25 0.45 0.285,0.31875 q -0.05 0.3 0.7825,1 " 
						transform="rotate(415.38461538462 0,2.88 )"
						stroke-width ="0.1"
						fill="rgb(162.5,87.5,136.5)"
						/><circle cx="0" cy="2.88" r="0.6" fill="rgb(136,179,8)"/><circle cx="0" cy="2.89" r="0.4" fill="rgb(137.5,188.5,16.5)"/><path d="M 0,2.88 
						q 0.35 0.1 1.3775,0.70875 q 0.1 0.4 -0.31,0.51 q 0.25 0.45 -0.285,0.31875 q 0.05 0.3 -0.7825,1 
						M 0,2.88 
						q -0.35 0.1 -1.3775,0.70875 q -0.1 0.4 0.31,0.51 q -0.25 0.45 0.285,0.31875 q -0.05 0.3 0.7825,1 " 
						transform="rotate(498.46153846154 0,2.88 )"
						stroke-width ="0.1"
						fill="rgb(154,78,119)"
						/><circle cx="0" cy="2.88" r="0.6" fill="rgb(136,179,8)"/><circle cx="-0.03" cy="2.93" r="0.4" fill="rgb(137.5,188.5,16.5)"/><path d="M 0,2.88 
						q 0.35 0.1 1.3775,0.70875 q 0.1 0.4 -0.31,0.51 q 0.25 0.45 -0.285,0.31875 q 0.05 0.3 -0.7825,1 
						M 0,2.88 
						q -0.35 0.1 -1.3775,0.70875 q -0.1 0.4 0.31,0.51 q -0.25 0.45 0.285,0.31875 q -0.05 0.3 0.7825,1 " 
						transform="rotate(581.53846153846 0,2.88 )"
						stroke-width ="0.1"
						fill="rgb(156.5,76.5,129.5)"
						/><circle cx="0" cy="2.88" r="0.6" fill="rgb(136,179,8)"/><circle cx="0.09" cy="2.92" r="0.4" fill="rgb(137.5,188.5,16.5)"/><path d="M 0,2.88 
						q 0.35 0.1 1.3775,0.70875 q 0.1 0.4 -0.31,0.51 q 0.25 0.45 -0.285,0.31875 q 0.05 0.3 -0.7825,1 
						M 0,2.88 
						q -0.35 0.1 -1.3775,0.70875 q -0.1 0.4 0.31,0.51 q -0.25 0.45 0.285,0.31875 q -0.05 0.3 0.7825,1 " 
						transform="rotate(664.61538461538 0,2.88 )"
						stroke-width ="0.1"
						fill="rgb(142,85,116)"
						/><circle cx="0" cy="2.88" r="0.6" fill="rgb(136,179,8)"/><circle cx="-0.09" cy="2.98" r="0.4" fill="rgb(137.5,188.5,16.5)"/><path d="M 0,2.88 
						q 0.35 0.1 1.3775,0.70875 q 0.1 0.4 -0.31,0.51 q 0.25 0.45 -0.285,0.31875 q 0.05 0.3 -0.7825,1 
						M 0,2.88 
						q -0.35 0.1 -1.3775,0.70875 q -0.1 0.4 0.31,0.51 q -0.25 0.45 0.285,0.31875 q -0.05 0.3 0.7825,1 " 
						transform="rotate(747.69230769231 0,2.88 )"
						stroke-width ="0.1"
						fill="rgb(137.5,84.5,124.5)"
						/><circle cx="0" cy="2.88" r="0.6" fill="rgb(136,179,8)"/><circle cx="0.05" cy="2.91" r="0.4" fill="rgb(137.5,188.5,16.5)"/><path d="M 0,2.88 
						q 0.35 0.1 1.3775,0.70875 q 0.1 0.4 -0.31,0.51 q 0.25 0.45 -0.285,0.31875 q 0.05 0.3 -0.7825,1 
						M 0,2.88 
						q -0.35 0.1 -1.3775,0.70875 q -0.1 0.4 0.31,0.51 q -0.25 0.45 0.285,0.31875 q -0.05 0.3 0.7825,1 " 
						transform="rotate(830.76923076923 0,2.88 )"
						stroke-width ="0.1"
						fill="rgb(136,68,125)"
						/><circle cx="0" cy="2.88" r="0.6" fill="rgb(136,179,8)"/><circle cx="-0.08" cy="2.95" r="0.4" fill="rgb(137.5,188.5,16.5)"/><path d="M 0,2.88 
						q 0.35 0.1 1.3775,0.70875 q 0.1 0.4 -0.31,0.51 q 0.25 0.45 -0.285,0.31875 q 0.05 0.3 -0.7825,1 
						M 0,2.88 
						q -0.35 0.1 -1.3775,0.70875 q -0.1 0.4 0.31,0.51 q -0.25 0.45 0.285,0.31875 q -0.05 0.3 0.7825,1 " 
						transform="rotate(913.84615384615 0,2.88 )"
						stroke-width ="0.1"
						fill="rgb(149.5,64.5,111.5)"
						/><circle cx="0" cy="2.88" r="0.6" fill="rgb(136,179,8)"/><circle cx="0" cy="2.85" r="0.4" fill="rgb(137.5,188.5,16.5)"/><path d="M 0,2.88 
						q 0.35 0.1 1.3775,0.70875 q 0.1 0.4 -0.31,0.51 q 0.25 0.45 -0.285,0.31875 q 0.05 0.3 -0.7825,1 
						M 0,2.88 
						q -0.35 0.1 -1.3775,0.70875 q -0.1 0.4 0.31,0.51 q -0.25 0.45 0.285,0.31875 q -0.05 0.3 0.7825,1 " 
						transform="rotate(996.92307692308 0,2.88 )"
						stroke-width ="0.1"
						fill="rgb(135,78,108)"
						/><circle cx="0" cy="2.88" r="0.6" fill="rgb(136,179,8)"/><circle cx="-0.09" cy="2.95" r="0.4" fill="rgb(137.5,188.5,16.5)"/><path d="M 0,2.88 
						q 0.35 0.1 1.3775,0.70875 q 0.1 0.4 -0.31,0.51 q 0.25 0.45 -0.285,0.31875 q 0.05 0.3 -0.7825,1 
						M 0,2.88 
						q -0.35 0.1 -1.3775,0.70875 q -0.1 0.4 0.31,0.51 q -0.25 0.45 0.285,0.31875 q -0.05 0.3 0.7825,1 " 
						transform="rotate(1080 0,2.88 )"
						stroke-width ="0.1"
						fill="rgb(128.5,72.5,106.5)"
						/><circle cx="0" cy="2.88" r="0.6" fill="rgb(136,179,8)"/><circle cx="0.1" cy="2.98" r="0.4" fill="rgb(137.5,188.5,16.5)"/></g><g id="flower5" transform="skewX(-6) skewY(-6)">
						<path d="M 0,0
						Q 1.13,0.9375 0,3.6"
						stroke="rgb(193,27,104)" 
						fill="transparent"
						stroke-width ="0.3" /><path d="M 0,3.6 
						q 0.4375 0.125 1.671875,0.8859375 q 0.125 0.5 -0.3875,0.6375 q 0.3125 0.5625 -0.35625,0.3984375 q 0.0625 0.375 -0.928125,1 
						M 0,3.6 
						q -0.4375 0.125 -1.671875,0.8859375 q -0.125 0.5 0.3875,0.6375 q -0.3125 0.5625 0.35625,0.3984375 q -0.0625 0.375 0.928125,1 " 
						transform="rotate(0 0,3.6 )"
						stroke-width ="0.1"
						fill="rgb(159,105,150)"
						/><circle cx="0" cy="3.6" r="0.75" fill="rgb(136,172,6)"/><circle cx="-0.1" cy="3.54" r="0.5" fill="rgb(150.5,180.5,24.5)"/><path d="M 0,3.6 
						q 0.4375 0.125 1.671875,0.8859375 q 0.125 0.5 -0.3875,0.6375 q 0.3125 0.5625 -0.35625,0.3984375 q 0.0625 0.375 -0.928125,1 
						M 0,3.6 
						q -0.4375 0.125 -1.671875,0.8859375 q -0.125 0.5 0.3875,0.6375 q -0.3125 0.5625 0.35625,0.3984375 q -0.0625 0.375 0.928125,1 " 
						transform="rotate(83.076923076923 0,3.6 )"
						stroke-width ="0.1"
						fill="rgb(174.5,96.5,148.5)"
						/><circle cx="0" cy="3.6" r="0.75" fill="rgb(136,172,6)"/><circle cx="0.02" cy="3.62" r="0.5" fill="rgb(150.5,180.5,24.5)"/><path d="M 0,3.6 
						q 0.4375 0.125 1.671875,0.8859375 q 0.125 0.5 -0.3875,0.6375 q 0.3125 0.5625 -0.35625,0.3984375 q 0.0625 0.375 -0.928125,1 
						M 0,3.6 
						q -0.4375 0.125 -1.671875,0.8859375 q -0.125 0.5 0.3875,0.6375 q -0.3125 0.5625 0.35625,0.3984375 q -0.0625 0.375 0.928125,1 " 
						transform="rotate(166.15384615385 0,3.6 )"
						stroke-width ="0.1"
						fill="rgb(158,87,137)"
						/><circle cx="0" cy="3.6" r="0.75" fill="rgb(136,172,6)"/><circle cx="-0.05" cy="3.57" r="0.5" fill="rgb(150.5,180.5,24.5)"/><path d="M 0,3.6 
						q 0.4375 0.125 1.671875,0.8859375 q 0.125 0.5 -0.3875,0.6375 q 0.3125 0.5625 -0.35625,0.3984375 q 0.0625 0.375 -0.928125,1 
						M 0,3.6 
						q -0.4375 0.125 -1.671875,0.8859375 q -0.125 0.5 0.3875,0.6375 q -0.3125 0.5625 0.35625,0.3984375 q -0.0625 0.375 0.928125,1 " 
						transform="rotate(249.23076923077 0,3.6 )"
						stroke-width ="0.1"
						fill="rgb(166.5,94.5,137.5)"
						/><circle cx="0" cy="3.6" r="0.75" fill="rgb(136,172,6)"/><circle cx="0.1" cy="3.65" r="0.5" fill="rgb(150.5,180.5,24.5)"/><path d="M 0,3.6 
						q 0.4375 0.125 1.671875,0.8859375 q 0.125 0.5 -0.3875,0.6375 q 0.3125 0.5625 -0.35625,0.3984375 q 0.0625 0.375 -0.928125,1 
						M 0,3.6 
						q -0.4375 0.125 -1.671875,0.8859375 q -0.125 0.5 0.3875,0.6375 q -0.3125 0.5625 0.35625,0.3984375 q -0.0625 0.375 0.928125,1 " 
						transform="rotate(332.30769230769 0,3.6 )"
						stroke-width ="0.1"
						fill="rgb(166,79,131)"
						/><circle cx="0" cy="3.6" r="0.75" fill="rgb(136,172,6)"/><circle cx="-0.05" cy="3.7" r="0.5" fill="rgb(150.5,180.5,24.5)"/><path d="M 0,3.6 
						q 0.4375 0.125 1.671875,0.8859375 q 0.125 0.5 -0.3875,0.6375 q 0.3125 0.5625 -0.35625,0.3984375 q 0.0625 0.375 -0.928125,1 
						M 0,3.6 
						q -0.4375 0.125 -1.671875,0.8859375 q -0.125 0.5 0.3875,0.6375 q -0.3125 0.5625 0.35625,0.3984375 q -0.0625 0.375 0.928125,1 " 
						transform="rotate(415.38461538462 0,3.6 )"
						stroke-width ="0.1"
						fill="rgb(150.5,76.5,122.5)"
						/><circle cx="0" cy="3.6" r="0.75" fill="rgb(136,172,6)"/><circle cx="0.06" cy="3.64" r="0.5" fill="rgb(150.5,180.5,24.5)"/><path d="M 0,3.6 
						q 0.4375 0.125 1.671875,0.8859375 q 0.125 0.5 -0.3875,0.6375 q 0.3125 0.5625 -0.35625,0.3984375 q 0.0625 0.375 -0.928125,1 
						M 0,3.6 
						q -0.4375 0.125 -1.671875,0.8859375 q -0.125 0.5 0.3875,0.6375 q -0.3125 0.5625 0.35625,0.3984375 q -0.0625 0.375 0.928125,1 " 
						transform="rotate(498.46153846154 0,3.6 )"
						stroke-width ="0.1"
						fill="rgb(151,81,132)"
						/><circle cx="0" cy="3.6" r="0.75" fill="rgb(136,172,6)"/><circle cx="-0.1" cy="3.61" r="0.5" fill="rgb(150.5,180.5,24.5)"/><path d="M 0,3.6 
						q 0.4375 0.125 1.671875,0.8859375 q 0.125 0.5 -0.3875,0.6375 q 0.3125 0.5625 -0.35625,0.3984375 q 0.0625 0.375 -0.928125,1 
						M 0,3.6 
						q -0.4375 0.125 -1.671875,0.8859375 q -0.125 0.5 0.3875,0.6375 q -0.3125 0.5625 0.35625,0.3984375 q -0.0625 0.375 0.928125,1 " 
						transform="rotate(581.53846153846 0,3.6 )"
						stroke-width ="0.1"
						fill="rgb(150.5,81.5,118.5)"
						/><circle cx="0" cy="3.6" r="0.75" fill="rgb(136,172,6)"/><circle cx="0.01" cy="3.59" r="0.5" fill="rgb(150.5,180.5,24.5)"/><path d="M 0,3.6 
						q 0.4375 0.125 1.671875,0.8859375 q 0.125 0.5 -0.3875,0.6375 q 0.3125 0.5625 -0.35625,0.3984375 q 0.0625 0.375 -0.928125,1 
						M 0,3.6 
						q -0.4375 0.125 -1.671875,0.8859375 q -0.125 0.5 0.3875,0.6375 q -0.3125 0.5625 0.35625,0.3984375 q -0.0625 0.375 0.928125,1 " 
						transform="rotate(664.61538461538 0,3.6 )"
						stroke-width ="0.1"
						fill="rgb(157,83,124)"
						/><circle cx="0" cy="3.6" r="0.75" fill="rgb(136,172,6)"/><circle cx="-0.09" cy="3.62" r="0.5" fill="rgb(150.5,180.5,24.5)"/><path d="M 0,3.6 
						q 0.4375 0.125 1.671875,0.8859375 q 0.125 0.5 -0.3875,0.6375 q 0.3125 0.5625 -0.35625,0.3984375 q 0.0625 0.375 -0.928125,1 
						M 0,3.6 
						q -0.4375 0.125 -1.671875,0.8859375 q -0.125 0.5 0.3875,0.6375 q -0.3125 0.5625 0.35625,0.3984375 q -0.0625 0.375 0.928125,1 " 
						transform="rotate(747.69230769231 0,3.6 )"
						stroke-width ="0.1"
						fill="rgb(143.5,75.5,123.5)"
						/><circle cx="0" cy="3.6" r="0.75" fill="rgb(136,172,6)"/><circle cx="0.05" cy="3.66" r="0.5" fill="rgb(150.5,180.5,24.5)"/><path d="M 0,3.6 
						q 0.4375 0.125 1.671875,0.8859375 q 0.125 0.5 -0.3875,0.6375 q 0.3125 0.5625 -0.35625,0.3984375 q 0.0625 0.375 -0.928125,1 
						M 0,3.6 
						q -0.4375 0.125 -1.671875,0.8859375 q -0.125 0.5 0.3875,0.6375 q -0.3125 0.5625 0.35625,0.3984375 q -0.0625 0.375 0.928125,1 " 
						transform="rotate(830.76923076923 0,3.6 )"
						stroke-width ="0.1"
						fill="rgb(134,66,107)"
						/><circle cx="0" cy="3.6" r="0.75" fill="rgb(136,172,6)"/><circle cx="-0.03" cy="3.59" r="0.5" fill="rgb(150.5,180.5,24.5)"/><path d="M 0,3.6 
						q 0.4375 0.125 1.671875,0.8859375 q 0.125 0.5 -0.3875,0.6375 q 0.3125 0.5625 -0.35625,0.3984375 q 0.0625 0.375 -0.928125,1 
						M 0,3.6 
						q -0.4375 0.125 -1.671875,0.8859375 q -0.125 0.5 0.3875,0.6375 q -0.3125 0.5625 0.35625,0.3984375 q -0.0625 0.375 0.928125,1 " 
						transform="rotate(913.84615384615 0,3.6 )"
						stroke-width ="0.1"
						fill="rgb(131.5,71.5,113.5)"
						/><circle cx="0" cy="3.6" r="0.75" fill="rgb(136,172,6)"/><circle cx="-0.1" cy="3.65" r="0.5" fill="rgb(150.5,180.5,24.5)"/><path d="M 0,3.6 
						q 0.4375 0.125 1.671875,0.8859375 q 0.125 0.5 -0.3875,0.6375 q 0.3125 0.5625 -0.35625,0.3984375 q 0.0625 0.375 -0.928125,1 
						M 0,3.6 
						q -0.4375 0.125 -1.671875,0.8859375 q -0.125 0.5 0.3875,0.6375 q -0.3125 0.5625 0.35625,0.3984375 q -0.0625 0.375 0.928125,1 " 
						transform="rotate(996.92307692308 0,3.6 )"
						stroke-width ="0.1"
						fill="rgb(139,64,112)"
						/><circle cx="0" cy="3.6" r="0.75" fill="rgb(136,172,6)"/><circle cx="-0.04" cy="3.69" r="0.5" fill="rgb(150.5,180.5,24.5)"/><path d="M 0,3.6 
						q 0.4375 0.125 1.671875,0.8859375 q 0.125 0.5 -0.3875,0.6375 q 0.3125 0.5625 -0.35625,0.3984375 q 0.0625 0.375 -0.928125,1 
						M 0,3.6 
						q -0.4375 0.125 -1.671875,0.8859375 q -0.125 0.5 0.3875,0.6375 q -0.3125 0.5625 0.35625,0.3984375 q -0.0625 0.375 0.928125,1 " 
						transform="rotate(1080 0,3.6 )"
						stroke-width ="0.1"
						fill="rgb(130.5,59.5,114.5)"
						/><circle cx="0" cy="3.6" r="0.75" fill="rgb(136,172,6)"/><circle cx="-0.09" cy="3.58" r="0.5" fill="rgb(150.5,180.5,24.5)"/></g><g id="flower6" transform="skewX(-2) skewY(-2)">
						<path d="M 0,0
						Q 1.42,1.125 0,4.32"
						stroke="rgb(193,27,104)" 
						fill="transparent"
						stroke-width ="0.3" /><path d="M 0,4.32 
						q 0.525 0.15 1.96625,1.063125 q 0.15 0.6 -0.465,0.765 q 0.375 0.675 -0.4275,0.478125 q 0.075 0.45 -1.07375,1 
						M 0,4.32 
						q -0.525 0.15 -1.96625,1.063125 q -0.15 0.6 0.465,0.765 q -0.375 0.675 0.4275,0.478125 q -0.075 0.45 1.07375,1 " 
						transform="rotate(0 0,4.32 )"
						stroke-width ="0.1"
						fill="rgb(172,101,145)"
						/><circle cx="0" cy="4.32" r="0.9" fill="rgb(132,180,11)"/><circle cx="0.06" cy="4.23" r="0.6" fill="rgb(141.5,192.5,15.5)"/><path d="M 0,4.32 
						q 0.525 0.15 1.96625,1.063125 q 0.15 0.6 -0.465,0.765 q 0.375 0.675 -0.4275,0.478125 q 0.075 0.45 -1.07375,1 
						M 0,4.32 
						q -0.525 0.15 -1.96625,1.063125 q -0.15 0.6 0.465,0.765 q -0.375 0.675 0.4275,0.478125 q -0.075 0.45 1.07375,1 " 
						transform="rotate(83.076923076923 0,4.32 )"
						stroke-width ="0.1"
						fill="rgb(174.5,91.5,137.5)"
						/><circle cx="0" cy="4.32" r="0.9" fill="rgb(132,180,11)"/><circle cx="0.04" cy="4.32" r="0.6" fill="rgb(141.5,192.5,15.5)"/><path d="M 0,4.32 
						q 0.525 0.15 1.96625,1.063125 q 0.15 0.6 -0.465,0.765 q 0.375 0.675 -0.4275,0.478125 q 0.075 0.45 -1.07375,1 
						M 0,4.32 
						q -0.525 0.15 -1.96625,1.063125 q -0.15 0.6 0.465,0.765 q -0.375 0.675 0.4275,0.478125 q -0.075 0.45 1.07375,1 " 
						transform="rotate(166.15384615385 0,4.32 )"
						stroke-width ="0.1"
						fill="rgb(174,87,138)"
						/><circle cx="0" cy="4.32" r="0.9" fill="rgb(132,180,11)"/><circle cx="-0.08" cy="4.38" r="0.6" fill="rgb(141.5,192.5,15.5)"/><path d="M 0,4.32 
						q 0.525 0.15 1.96625,1.063125 q 0.15 0.6 -0.465,0.765 q 0.375 0.675 -0.4275,0.478125 q 0.075 0.45 -1.07375,1 
						M 0,4.32 
						q -0.525 0.15 -1.96625,1.063125 q -0.15 0.6 0.465,0.765 q -0.375 0.675 0.4275,0.478125 q -0.075 0.45 1.07375,1 " 
						transform="rotate(249.23076923077 0,4.32 )"
						stroke-width ="0.1"
						fill="rgb(155.5,97.5,141.5)"
						/><circle cx="0" cy="4.32" r="0.9" fill="rgb(132,180,11)"/><circle cx="-0.1" cy="4.24" r="0.6" fill="rgb(141.5,192.5,15.5)"/><path d="M 0,4.32 
						q 0.525 0.15 1.96625,1.063125 q 0.15 0.6 -0.465,0.765 q 0.375 0.675 -0.4275,0.478125 q 0.075 0.45 -1.07375,1 
						M 0,4.32 
						q -0.525 0.15 -1.96625,1.063125 q -0.15 0.6 0.465,0.765 q -0.375 0.675 0.4275,0.478125 q -0.075 0.45 1.07375,1 " 
						transform="rotate(332.30769230769 0,4.32 )"
						stroke-width ="0.1"
						fill="rgb(151,94,130)"
						/><circle cx="0" cy="4.32" r="0.9" fill="rgb(132,180,11)"/><circle cx="0.1" cy="4.41" r="0.6" fill="rgb(141.5,192.5,15.5)"/><path d="M 0,4.32 
						q 0.525 0.15 1.96625,1.063125 q 0.15 0.6 -0.465,0.765 q 0.375 0.675 -0.4275,0.478125 q 0.075 0.45 -1.07375,1 
						M 0,4.32 
						q -0.525 0.15 -1.96625,1.063125 q -0.15 0.6 0.465,0.765 q -0.375 0.675 0.4275,0.478125 q -0.075 0.45 1.07375,1 " 
						transform="rotate(415.38461538462 0,4.32 )"
						stroke-width ="0.1"
						fill="rgb(163.5,91.5,121.5)"
						/><circle cx="0" cy="4.32" r="0.9" fill="rgb(132,180,11)"/><circle cx="-0.1" cy="4.41" r="0.6" fill="rgb(141.5,192.5,15.5)"/><path d="M 0,4.32 
						q 0.525 0.15 1.96625,1.063125 q 0.15 0.6 -0.465,0.765 q 0.375 0.675 -0.4275,0.478125 q 0.075 0.45 -1.07375,1 
						M 0,4.32 
						q -0.525 0.15 -1.96625,1.063125 q -0.15 0.6 0.465,0.765 q -0.375 0.675 0.4275,0.478125 q -0.075 0.45 1.07375,1 " 
						transform="rotate(498.46153846154 0,4.32 )"
						stroke-width ="0.1"
						fill="rgb(156,79,128)"
						/><circle cx="0" cy="4.32" r="0.9" fill="rgb(132,180,11)"/><circle cx="-0.08" cy="4.34" r="0.6" fill="rgb(141.5,192.5,15.5)"/><path d="M 0,4.32 
						q 0.525 0.15 1.96625,1.063125 q 0.15 0.6 -0.465,0.765 q 0.375 0.675 -0.4275,0.478125 q 0.075 0.45 -1.07375,1 
						M 0,4.32 
						q -0.525 0.15 -1.96625,1.063125 q -0.15 0.6 0.465,0.765 q -0.375 0.675 0.4275,0.478125 q -0.075 0.45 1.07375,1 " 
						transform="rotate(581.53846153846 0,4.32 )"
						stroke-width ="0.1"
						fill="rgb(153.5,80.5,113.5)"
						/><circle cx="0" cy="4.32" r="0.9" fill="rgb(132,180,11)"/><circle cx="-0.09" cy="4.26" r="0.6" fill="rgb(141.5,192.5,15.5)"/><path d="M 0,4.32 
						q 0.525 0.15 1.96625,1.063125 q 0.15 0.6 -0.465,0.765 q 0.375 0.675 -0.4275,0.478125 q 0.075 0.45 -1.07375,1 
						M 0,4.32 
						q -0.525 0.15 -1.96625,1.063125 q -0.15 0.6 0.465,0.765 q -0.375 0.675 0.4275,0.478125 q -0.075 0.45 1.07375,1 " 
						transform="rotate(664.61538461538 0,4.32 )"
						stroke-width ="0.1"
						fill="rgb(139,75,123)"
						/><circle cx="0" cy="4.32" r="0.9" fill="rgb(132,180,11)"/><circle cx="0.08" cy="4.41" r="0.6" fill="rgb(141.5,192.5,15.5)"/><path d="M 0,4.32 
						q 0.525 0.15 1.96625,1.063125 q 0.15 0.6 -0.465,0.765 q 0.375 0.675 -0.4275,0.478125 q 0.075 0.45 -1.07375,1 
						M 0,4.32 
						q -0.525 0.15 -1.96625,1.063125 q -0.15 0.6 0.465,0.765 q -0.375 0.675 0.4275,0.478125 q -0.075 0.45 1.07375,1 " 
						transform="rotate(747.69230769231 0,4.32 )"
						stroke-width ="0.1"
						fill="rgb(137.5,67.5,117.5)"
						/><circle cx="0" cy="4.32" r="0.9" fill="rgb(132,180,11)"/><circle cx="0.06" cy="4.23" r="0.6" fill="rgb(141.5,192.5,15.5)"/><path d="M 0,4.32 
						q 0.525 0.15 1.96625,1.063125 q 0.15 0.6 -0.465,0.765 q 0.375 0.675 -0.4275,0.478125 q 0.075 0.45 -1.07375,1 
						M 0,4.32 
						q -0.525 0.15 -1.96625,1.063125 q -0.15 0.6 0.465,0.765 q -0.375 0.675 0.4275,0.478125 q -0.075 0.45 1.07375,1 " 
						transform="rotate(830.76923076923 0,4.32 )"
						stroke-width ="0.1"
						fill="rgb(138,83,125)"
						/><circle cx="0" cy="4.32" r="0.9" fill="rgb(132,180,11)"/><circle cx="-0.08" cy="4.36" r="0.6" fill="rgb(141.5,192.5,15.5)"/><path d="M 0,4.32 
						q 0.525 0.15 1.96625,1.063125 q 0.15 0.6 -0.465,0.765 q 0.375 0.675 -0.4275,0.478125 q 0.075 0.45 -1.07375,1 
						M 0,4.32 
						q -0.525 0.15 -1.96625,1.063125 q -0.15 0.6 0.465,0.765 q -0.375 0.675 0.4275,0.478125 q -0.075 0.45 1.07375,1 " 
						transform="rotate(913.84615384615 0,4.32 )"
						stroke-width ="0.1"
						fill="rgb(144.5,61.5,115.5)"
						/><circle cx="0" cy="4.32" r="0.9" fill="rgb(132,180,11)"/><circle cx="0.08" cy="4.39" r="0.6" fill="rgb(141.5,192.5,15.5)"/><path d="M 0,4.32 
						q 0.525 0.15 1.96625,1.063125 q 0.15 0.6 -0.465,0.765 q 0.375 0.675 -0.4275,0.478125 q 0.075 0.45 -1.07375,1 
						M 0,4.32 
						q -0.525 0.15 -1.96625,1.063125 q -0.15 0.6 0.465,0.765 q -0.375 0.675 0.4275,0.478125 q -0.075 0.45 1.07375,1 " 
						transform="rotate(996.92307692308 0,4.32 )"
						stroke-width ="0.1"
						fill="rgb(143,65,114)"
						/><circle cx="0" cy="4.32" r="0.9" fill="rgb(132,180,11)"/><circle cx="-0.04" cy="4.35" r="0.6" fill="rgb(141.5,192.5,15.5)"/><path d="M 0,4.32 
						q 0.525 0.15 1.96625,1.063125 q 0.15 0.6 -0.465,0.765 q 0.375 0.675 -0.4275,0.478125 q 0.075 0.45 -1.07375,1 
						M 0,4.32 
						q -0.525 0.15 -1.96625,1.063125 q -0.15 0.6 0.465,0.765 q -0.375 0.675 0.4275,0.478125 q -0.075 0.45 1.07375,1 " 
						transform="rotate(1080 0,4.32 )"
						stroke-width ="0.1"
						fill="rgb(142.5,64.5,99.5)"
						/><circle cx="0" cy="4.32" r="0.9" fill="rgb(132,180,11)"/><circle cx="-0.01" cy="4.4" r="0.6" fill="rgb(141.5,192.5,15.5)"/></g><g id="flower7" transform="skewX(-5) skewY(-5)">
						<path d="M 0,0
						Q -0.88,1.3125 0,5.04"
						stroke="rgb(193,27,104)" 
						fill="transparent"
						stroke-width ="0.3" /><path d="M 0,5.04 
						q 0.6125 0.175 2.260625,1.2403125 q 0.175 0.7 -0.5425,0.8925 q 0.4375 0.7875 -0.49875,0.5578125 q 0.0875 0.525 -1.219375,1 
						M 0,5.04 
						q -0.6125 0.175 -2.260625,1.2403125 q -0.175 0.7 0.5425,0.8925 q -0.4375 0.7875 0.49875,0.5578125 q -0.0875 0.525 1.219375,1 " 
						transform="rotate(0 0,5.04 )"
						stroke-width ="0.1"
						fill="rgb(164,91,136)"
						/><circle cx="0" cy="5.04" r="1.05" fill="rgb(134,179,8)"/><circle cx="-0.01" cy="5" r="0.7" fill="rgb(140.5,190.5,21.5)"/><path d="M 0,5.04 
						q 0.6125 0.175 2.260625,1.2403125 q 0.175 0.7 -0.5425,0.8925 q 0.4375 0.7875 -0.49875,0.5578125 q 0.0875 0.525 -1.219375,1 
						M 0,5.04 
						q -0.6125 0.175 -2.260625,1.2403125 q -0.175 0.7 0.5425,0.8925 q -0.4375 0.7875 0.49875,0.5578125 q -0.0875 0.525 1.219375,1 " 
						transform="rotate(83.076923076923 0,5.04 )"
						stroke-width ="0.1"
						fill="rgb(164.5,100.5,132.5)"
						/><circle cx="0" cy="5.04" r="1.05" fill="rgb(134,179,8)"/><circle cx="-0.1" cy="4.95" r="0.7" fill="rgb(140.5,190.5,21.5)"/><path d="M 0,5.04 
						q 0.6125 0.175 2.260625,1.2403125 q 0.175 0.7 -0.5425,0.8925 q 0.4375 0.7875 -0.49875,0.5578125 q 0.0875 0.525 -1.219375,1 
						M 0,5.04 
						q -0.6125 0.175 -2.260625,1.2403125 q -0.175 0.7 0.5425,0.8925 q -0.4375 0.7875 0.49875,0.5578125 q -0.0875 0.525 1.219375,1 " 
						transform="rotate(166.15384615385 0,5.04 )"
						stroke-width ="0.1"
						fill="rgb(156,104,129)"
						/><circle cx="0" cy="5.04" r="1.05" fill="rgb(134,179,8)"/><circle cx="0.07" cy="5.11" r="0.7" fill="rgb(140.5,190.5,21.5)"/><path d="M 0,5.04 
						q 0.6125 0.175 2.260625,1.2403125 q 0.175 0.7 -0.5425,0.8925 q 0.4375 0.7875 -0.49875,0.5578125 q 0.0875 0.525 -1.219375,1 
						M 0,5.04 
						q -0.6125 0.175 -2.260625,1.2403125 q -0.175 0.7 0.5425,0.8925 q -0.4375 0.7875 0.49875,0.5578125 q -0.0875 0.525 1.219375,1 " 
						transform="rotate(249.23076923077 0,5.04 )"
						stroke-width ="0.1"
						fill="rgb(153.5,98.5,141.5)"
						/><circle cx="0" cy="5.04" r="1.05" fill="rgb(134,179,8)"/><circle cx="-0.08" cy="5.1" r="0.7" fill="rgb(140.5,190.5,21.5)"/><path d="M 0,5.04 
						q 0.6125 0.175 2.260625,1.2403125 q 0.175 0.7 -0.5425,0.8925 q 0.4375 0.7875 -0.49875,0.5578125 q 0.0875 0.525 -1.219375,1 
						M 0,5.04 
						q -0.6125 0.175 -2.260625,1.2403125 q -0.175 0.7 0.5425,0.8925 q -0.4375 0.7875 0.49875,0.5578125 q -0.0875 0.525 1.219375,1 " 
						transform="rotate(332.30769230769 0,5.04 )"
						stroke-width ="0.1"
						fill="rgb(153,80,135)"
						/><circle cx="0" cy="5.04" r="1.05" fill="rgb(134,179,8)"/><circle cx="-0.04" cy="5.06" r="0.7" fill="rgb(140.5,190.5,21.5)"/><path d="M 0,5.04 
						q 0.6125 0.175 2.260625,1.2403125 q 0.175 0.7 -0.5425,0.8925 q 0.4375 0.7875 -0.49875,0.5578125 q 0.0875 0.525 -1.219375,1 
						M 0,5.04 
						q -0.6125 0.175 -2.260625,1.2403125 q -0.175 0.7 0.5425,0.8925 q -0.4375 0.7875 0.49875,0.5578125 q -0.0875 0.525 1.219375,1 " 
						transform="rotate(415.38461538462 0,5.04 )"
						stroke-width ="0.1"
						fill="rgb(163.5,80.5,133.5)"
						/><circle cx="0" cy="5.04" r="1.05" fill="rgb(134,179,8)"/><circle cx="-0.03" cy="5.05" r="0.7" fill="rgb(140.5,190.5,21.5)"/><path d="M 0,5.04 
						q 0.6125 0.175 2.260625,1.2403125 q 0.175 0.7 -0.5425,0.8925 q 0.4375 0.7875 -0.49875,0.5578125 q 0.0875 0.525 -1.219375,1 
						M 0,5.04 
						q -0.6125 0.175 -2.260625,1.2403125 q -0.175 0.7 0.5425,0.8925 q -0.4375 0.7875 0.49875,0.5578125 q -0.0875 0.525 1.219375,1 " 
						transform="rotate(498.46153846154 0,5.04 )"
						stroke-width ="0.1"
						fill="rgb(148,78,119)"
						/><circle cx="0" cy="5.04" r="1.05" fill="rgb(134,179,8)"/><circle cx="-0.02" cy="5.02" r="0.7" fill="rgb(140.5,190.5,21.5)"/><path d="M 0,5.04 
						q 0.6125 0.175 2.260625,1.2403125 q 0.175 0.7 -0.5425,0.8925 q 0.4375 0.7875 -0.49875,0.5578125 q 0.0875 0.525 -1.219375,1 
						M 0,5.04 
						q -0.6125 0.175 -2.260625,1.2403125 q -0.175 0.7 0.5425,0.8925 q -0.4375 0.7875 0.49875,0.5578125 q -0.0875 0.525 1.219375,1 " 
						transform="rotate(581.53846153846 0,5.04 )"
						stroke-width ="0.1"
						fill="rgb(149.5,84.5,130.5)"
						/><circle cx="0" cy="5.04" r="1.05" fill="rgb(134,179,8)"/><circle cx="-0.09" cy="4.94" r="0.7" fill="rgb(140.5,190.5,21.5)"/><path d="M 0,5.04 
						q 0.6125 0.175 2.260625,1.2403125 q 0.175 0.7 -0.5425,0.8925 q 0.4375 0.7875 -0.49875,0.5578125 q 0.0875 0.525 -1.219375,1 
						M 0,5.04 
						q -0.6125 0.175 -2.260625,1.2403125 q -0.175 0.7 0.5425,0.8925 q -0.4375 0.7875 0.49875,0.5578125 q -0.0875 0.525 1.219375,1 " 
						transform="rotate(664.61538461538 0,5.04 )"
						stroke-width ="0.1"
						fill="rgb(140,73,124)"
						/><circle cx="0" cy="5.04" r="1.05" fill="rgb(134,179,8)"/><circle cx="0.1" cy="5" r="0.7" fill="rgb(140.5,190.5,21.5)"/><path d="M 0,5.04 
						q 0.6125 0.175 2.260625,1.2403125 q 0.175 0.7 -0.5425,0.8925 q 0.4375 0.7875 -0.49875,0.5578125 q 0.0875 0.525 -1.219375,1 
						M 0,5.04 
						q -0.6125 0.175 -2.260625,1.2403125 q -0.175 0.7 0.5425,0.8925 q -0.4375 0.7875 0.49875,0.5578125 q -0.0875 0.525 1.219375,1 " 
						transform="rotate(747.69230769231 0,5.04 )"
						stroke-width ="0.1"
						fill="rgb(139.5,74.5,123.5)"
						/><circle cx="0" cy="5.04" r="1.05" fill="rgb(134,179,8)"/><circle cx="0.04" cy="4.99" r="0.7" fill="rgb(140.5,190.5,21.5)"/><path d="M 0,5.04 
						q 0.6125 0.175 2.260625,1.2403125 q 0.175 0.7 -0.5425,0.8925 q 0.4375 0.7875 -0.49875,0.5578125 q 0.0875 0.525 -1.219375,1 
						M 0,5.04 
						q -0.6125 0.175 -2.260625,1.2403125 q -0.175 0.7 0.5425,0.8925 q -0.4375 0.7875 0.49875,0.5578125 q -0.0875 0.525 1.219375,1 " 
						transform="rotate(830.76923076923 0,5.04 )"
						stroke-width ="0.1"
						fill="rgb(147,79,124)"
						/><circle cx="0" cy="5.04" r="1.05" fill="rgb(134,179,8)"/><circle cx="0.02" cy="5.05" r="0.7" fill="rgb(140.5,190.5,21.5)"/><path d="M 0,5.04 
						q 0.6125 0.175 2.260625,1.2403125 q 0.175 0.7 -0.5425,0.8925 q 0.4375 0.7875 -0.49875,0.5578125 q 0.0875 0.525 -1.219375,1 
						M 0,5.04 
						q -0.6125 0.175 -2.260625,1.2403125 q -0.175 0.7 0.5425,0.8925 q -0.4375 0.7875 0.49875,0.5578125 q -0.0875 0.525 1.219375,1 " 
						transform="rotate(913.84615384615 0,5.04 )"
						stroke-width ="0.1"
						fill="rgb(137.5,77.5,104.5)"
						/><circle cx="0" cy="5.04" r="1.05" fill="rgb(134,179,8)"/><circle cx="-0.02" cy="5.12" r="0.7" fill="rgb(140.5,190.5,21.5)"/><path d="M 0,5.04 
						q 0.6125 0.175 2.260625,1.2403125 q 0.175 0.7 -0.5425,0.8925 q 0.4375 0.7875 -0.49875,0.5578125 q 0.0875 0.525 -1.219375,1 
						M 0,5.04 
						q -0.6125 0.175 -2.260625,1.2403125 q -0.175 0.7 0.5425,0.8925 q -0.4375 0.7875 0.49875,0.5578125 q -0.0875 0.525 1.219375,1 " 
						transform="rotate(996.92307692308 0,5.04 )"
						stroke-width ="0.1"
						fill="rgb(141,63,111)"
						/><circle cx="0" cy="5.04" r="1.05" fill="rgb(134,179,8)"/><circle cx="0.04" cy="5.09" r="0.7" fill="rgb(140.5,190.5,21.5)"/><path d="M 0,5.04 
						q 0.6125 0.175 2.260625,1.2403125 q 0.175 0.7 -0.5425,0.8925 q 0.4375 0.7875 -0.49875,0.5578125 q 0.0875 0.525 -1.219375,1 
						M 0,5.04 
						q -0.6125 0.175 -2.260625,1.2403125 q -0.175 0.7 0.5425,0.8925 q -0.4375 0.7875 0.49875,0.5578125 q -0.0875 0.525 1.219375,1 " 
						transform="rotate(1080 0,5.04 )"
						stroke-width ="0.1"
						fill="rgb(133.5,65.5,115.5)"
						/><circle cx="0" cy="5.04" r="1.05" fill="rgb(134,179,8)"/><circle cx="-0.1" cy="5.13" r="0.7" fill="rgb(140.5,190.5,21.5)"/></g><g id="flower8" transform="skewX(10) skewY(10)">
						<path d="M 0,0
						Q 1.13,1.5 0,5.76"
						stroke="rgb(193,27,104)" 
						fill="transparent"
						stroke-width ="0.3" /><path d="M 0,5.76 
						q 0.7 0.2 2.555,1.4175 q 0.2 0.8 -0.62,1.02 q 0.5 0.9 -0.57,0.6375 q 0.1 0.6 -1.365,1 
						M 0,5.76 
						q -0.7 0.2 -2.555,1.4175 q -0.2 0.8 0.62,1.02 q -0.5 0.9 0.57,0.6375 q -0.1 0.6 1.365,1 " 
						transform="rotate(0 0,5.76 )"
						stroke-width ="0.1"
						fill="rgb(165,94,134)"
						/><circle cx="0" cy="5.76" r="1.2" fill="rgb(136,180,8)"/><circle cx="-0.09" cy="5.77" r="0.8" fill="rgb(151.5,179.5,23.5)"/><path d="M 0,5.76 
						q 0.7 0.2 2.555,1.4175 q 0.2 0.8 -0.62,1.02 q 0.5 0.9 -0.57,0.6375 q 0.1 0.6 -1.365,1 
						M 0,5.76 
						q -0.7 0.2 -2.555,1.4175 q -0.2 0.8 0.62,1.02 q -0.5 0.9 0.57,0.6375 q -0.1 0.6 1.365,1 " 
						transform="rotate(83.076923076923 0,5.76 )"
						stroke-width ="0.1"
						fill="rgb(168.5,102.5,134.5)"
						/><circle cx="0" cy="5.76" r="1.2" fill="rgb(136,180,8)"/><circle cx="-0.06" cy="5.76" r="0.8" fill="rgb(151.5,179.5,23.5)"/><path d="M 0,5.76 
						q 0.7 0.2 2.555,1.4175 q 0.2 0.8 -0.62,1.02 q 0.5 0.9 -0.57,0.6375 q 0.1 0.6 -1.365,1 
						M 0,5.76 
						q -0.7 0.2 -2.555,1.4175 q -0.2 0.8 0.62,1.02 q -0.5 0.9 0.57,0.6375 q -0.1 0.6 1.365,1 " 
						transform="rotate(166.15384615385 0,5.76 )"
						stroke-width ="0.1"
						fill="rgb(155,103,145)"
						/><circle cx="0" cy="5.76" r="1.2" fill="rgb(136,180,8)"/><circle cx="0.04" cy="5.74" r="0.8" fill="rgb(151.5,179.5,23.5)"/><path d="M 0,5.76 
						q 0.7 0.2 2.555,1.4175 q 0.2 0.8 -0.62,1.02 q 0.5 0.9 -0.57,0.6375 q 0.1 0.6 -1.365,1 
						M 0,5.76 
						q -0.7 0.2 -2.555,1.4175 q -0.2 0.8 0.62,1.02 q -0.5 0.9 0.57,0.6375 q -0.1 0.6 1.365,1 " 
						transform="rotate(249.23076923077 0,5.76 )"
						stroke-width ="0.1"
						fill="rgb(151.5,84.5,132.5)"
						/><circle cx="0" cy="5.76" r="1.2" fill="rgb(136,180,8)"/><circle cx="0.05" cy="5.85" r="0.8" fill="rgb(151.5,179.5,23.5)"/><path d="M 0,5.76 
						q 0.7 0.2 2.555,1.4175 q 0.2 0.8 -0.62,1.02 q 0.5 0.9 -0.57,0.6375 q 0.1 0.6 -1.365,1 
						M 0,5.76 
						q -0.7 0.2 -2.555,1.4175 q -0.2 0.8 0.62,1.02 q -0.5 0.9 0.57,0.6375 q -0.1 0.6 1.365,1 " 
						transform="rotate(332.30769230769 0,5.76 )"
						stroke-width ="0.1"
						fill="rgb(151,93,124)"
						/><circle cx="0" cy="5.76" r="1.2" fill="rgb(136,180,8)"/><circle cx="0.1" cy="5.66" r="0.8" fill="rgb(151.5,179.5,23.5)"/><path d="M 0,5.76 
						q 0.7 0.2 2.555,1.4175 q 0.2 0.8 -0.62,1.02 q 0.5 0.9 -0.57,0.6375 q 0.1 0.6 -1.365,1 
						M 0,5.76 
						q -0.7 0.2 -2.555,1.4175 q -0.2 0.8 0.62,1.02 q -0.5 0.9 0.57,0.6375 q -0.1 0.6 1.365,1 " 
						transform="rotate(415.38461538462 0,5.76 )"
						stroke-width ="0.1"
						fill="rgb(166.5,96.5,128.5)"
						/><circle cx="0" cy="5.76" r="1.2" fill="rgb(136,180,8)"/><circle cx="-0.06" cy="5.79" r="0.8" fill="rgb(151.5,179.5,23.5)"/><path d="M 0,5.76 
						q 0.7 0.2 2.555,1.4175 q 0.2 0.8 -0.62,1.02 q 0.5 0.9 -0.57,0.6375 q 0.1 0.6 -1.365,1 
						M 0,5.76 
						q -0.7 0.2 -2.555,1.4175 q -0.2 0.8 0.62,1.02 q -0.5 0.9 0.57,0.6375 q -0.1 0.6 1.365,1 " 
						transform="rotate(498.46153846154 0,5.76 )"
						stroke-width ="0.1"
						fill="rgb(147,93,117)"
						/><circle cx="0" cy="5.76" r="1.2" fill="rgb(136,180,8)"/><circle cx="-0.04" cy="5.78" r="0.8" fill="rgb(151.5,179.5,23.5)"/><path d="M 0,5.76 
						q 0.7 0.2 2.555,1.4175 q 0.2 0.8 -0.62,1.02 q 0.5 0.9 -0.57,0.6375 q 0.1 0.6 -1.365,1 
						M 0,5.76 
						q -0.7 0.2 -2.555,1.4175 q -0.2 0.8 0.62,1.02 q -0.5 0.9 0.57,0.6375 q -0.1 0.6 1.365,1 " 
						transform="rotate(581.53846153846 0,5.76 )"
						stroke-width ="0.1"
						fill="rgb(142.5,90.5,123.5)"
						/><circle cx="0" cy="5.76" r="1.2" fill="rgb(136,180,8)"/><circle cx="-0.03" cy="5.71" r="0.8" fill="rgb(151.5,179.5,23.5)"/><path d="M 0,5.76 
						q 0.7 0.2 2.555,1.4175 q 0.2 0.8 -0.62,1.02 q 0.5 0.9 -0.57,0.6375 q 0.1 0.6 -1.365,1 
						M 0,5.76 
						q -0.7 0.2 -2.555,1.4175 q -0.2 0.8 0.62,1.02 q -0.5 0.9 0.57,0.6375 q -0.1 0.6 1.365,1 " 
						transform="rotate(664.61538461538 0,5.76 )"
						stroke-width ="0.1"
						fill="rgb(140,70,114)"
						/><circle cx="0" cy="5.76" r="1.2" fill="rgb(136,180,8)"/><circle cx="0.05" cy="5.7" r="0.8" fill="rgb(151.5,179.5,23.5)"/><path d="M 0,5.76 
						q 0.7 0.2 2.555,1.4175 q 0.2 0.8 -0.62,1.02 q 0.5 0.9 -0.57,0.6375 q 0.1 0.6 -1.365,1 
						M 0,5.76 
						q -0.7 0.2 -2.555,1.4175 q -0.2 0.8 0.62,1.02 q -0.5 0.9 0.57,0.6375 q -0.1 0.6 1.365,1 " 
						transform="rotate(747.69230769231 0,5.76 )"
						stroke-width ="0.1"
						fill="rgb(146.5,76.5,120.5)"
						/><circle cx="0" cy="5.76" r="1.2" fill="rgb(136,180,8)"/><circle cx="-0.06" cy="5.71" r="0.8" fill="rgb(151.5,179.5,23.5)"/><path d="M 0,5.76 
						q 0.7 0.2 2.555,1.4175 q 0.2 0.8 -0.62,1.02 q 0.5 0.9 -0.57,0.6375 q 0.1 0.6 -1.365,1 
						M 0,5.76 
						q -0.7 0.2 -2.555,1.4175 q -0.2 0.8 0.62,1.02 q -0.5 0.9 0.57,0.6375 q -0.1 0.6 1.365,1 " 
						transform="rotate(830.76923076923 0,5.76 )"
						stroke-width ="0.1"
						fill="rgb(154,77,114)"
						/><circle cx="0" cy="5.76" r="1.2" fill="rgb(136,180,8)"/><circle cx="-0.09" cy="5.73" r="0.8" fill="rgb(151.5,179.5,23.5)"/><path d="M 0,5.76 
						q 0.7 0.2 2.555,1.4175 q 0.2 0.8 -0.62,1.02 q 0.5 0.9 -0.57,0.6375 q 0.1 0.6 -1.365,1 
						M 0,5.76 
						q -0.7 0.2 -2.555,1.4175 q -0.2 0.8 0.62,1.02 q -0.5 0.9 0.57,0.6375 q -0.1 0.6 1.365,1 " 
						transform="rotate(913.84615384615 0,5.76 )"
						stroke-width ="0.1"
						fill="rgb(133.5,67.5,103.5)"
						/><circle cx="0" cy="5.76" r="1.2" fill="rgb(136,180,8)"/><circle cx="0.03" cy="5.75" r="0.8" fill="rgb(151.5,179.5,23.5)"/><path d="M 0,5.76 
						q 0.7 0.2 2.555,1.4175 q 0.2 0.8 -0.62,1.02 q 0.5 0.9 -0.57,0.6375 q 0.1 0.6 -1.365,1 
						M 0,5.76 
						q -0.7 0.2 -2.555,1.4175 q -0.2 0.8 0.62,1.02 q -0.5 0.9 0.57,0.6375 q -0.1 0.6 1.365,1 " 
						transform="rotate(996.92307692308 0,5.76 )"
						stroke-width ="0.1"
						fill="rgb(145,61,108)"
						/><circle cx="0" cy="5.76" r="1.2" fill="rgb(136,180,8)"/><circle cx="0.08" cy="5.67" r="0.8" fill="rgb(151.5,179.5,23.5)"/><path d="M 0,5.76 
						q 0.7 0.2 2.555,1.4175 q 0.2 0.8 -0.62,1.02 q 0.5 0.9 -0.57,0.6375 q 0.1 0.6 -1.365,1 
						M 0,5.76 
						q -0.7 0.2 -2.555,1.4175 q -0.2 0.8 0.62,1.02 q -0.5 0.9 0.57,0.6375 q -0.1 0.6 1.365,1 " 
						transform="rotate(1080 0,5.76 )"
						stroke-width ="0.1"
						fill="rgb(143.5,68.5,105.5)"
						/><circle cx="0" cy="5.76" r="1.2" fill="rgb(136,180,8)"/><circle cx="0.02" cy="5.85" r="0.8" fill="rgb(151.5,179.5,23.5)"/></g></defs>
				<g class="fullPlant">
					<g>
					<path d ="M 46,91 
					a 94 752 16.91 0 1 -6.132,-18.936" fill ="none" stroke ="rgb(192.5,26.5,98.5)" stroke-width ="2.88"/></g><circle cx="39.868" cy="72.064" r="0.72" stroke="rgb(197.5,31.5,103.5)" fill="rgb(192.5,26.5,98.5)"/><use xlink:href="#leaf1"
						x="39.868" y="72.064" 
						transform="rotate(-113 39.868 72.064)" 	
						fill="rgb(26,207,41)" /><use xlink:href="#leaf1"
						x="39.868" y="72.064" 
						transform="rotate(62 39.868 72.064)" 	
						fill="rgb(23,235,23)" /><use xlink:href="#leaf1"
						x="39.868" y="72.064" 
						transform="rotate(104 40.538 72.504)" 	
						fill="rgb(21,234,5)" /><use xlink:href="#leaf1"
						x="39.868" y="72.064" 
						transform="rotate(-115 40.828 72.684)" 	
						fill="rgb(28,202,4)" /><use xlink:href="#leaf1"
						x="39.868" y="72.064" 
						transform="rotate(139 39.868 72.064)" 	
						fill="rgb(46,210,38)" /><use xlink:href="#leaf2"
						x="39.868" y="72.064" 
						transform="rotate(163 39.868 72.064)" 	
						fill="rgb(31,222,2)" /><use xlink:href="#leaf1"
						x="39.868" y="72.064" 
						transform="rotate(127 40.848 72.074)" 	
						fill="rgb(31,226,37)" /><use xlink:href="#leaf3"
						x="39.868" y="72.064" 
						transform="rotate(-140 39.868 72.064)" 	
						fill="rgb(40,238,12)" /><use xlink:href="#leaf1"
						x="39.868" y="72.064" 
						transform="rotate(71 40.108 72.134)" 	
						fill="rgb(56,222,31)" />
					<g>
					<path d ="M 39.868,72.064 
					a 95 475 16.30 0 0 12.864,-3.912" fill ="none" stroke ="rgb(195.5,25.5,100.5)" stroke-width ="1.44"/></g><circle cx="52.732" cy="68.152" r="0.36" stroke="rgb(200.5,30.5,105.5)" fill="rgb(195.5,25.5,100.5)"/><use xlink:href="#leaf4"
						x="52.732" y="68.152" 
						transform="rotate(-153 52.762 69.012)" 	
						fill="rgb(57,241,3)" /><use xlink:href="#leaf4"
						x="52.732" y="68.152" 
						transform="rotate(-170 52.732 68.152)" 	
						fill="rgb(38,204,7)" /><use xlink:href="#leaf3"
						x="52.732" y="68.152" 
						transform="rotate(-140 53.562 68.532)" 	
						fill="rgb(51,225,1)" /><use xlink:href="#leaf1"
						x="52.732" y="68.152" 
						transform="rotate(-66 53.522 68.312)" 	
						fill="rgb(33,227,38)" /><use xlink:href="#leaf3"
						x="52.732" y="68.152" 
						transform="rotate(-142 53.342 68.562)" 	
						fill="rgb(55,229,39)" /><use xlink:href="#leaf1"
						x="52.732" y="68.152" 
						transform="rotate(47 52.732 68.152)" 	
						fill="rgb(23,224,32)" /><use xlink:href="#flower1" id="fleur10"
							x="52.732" y="68.152" 
							transform="rotate(-63 53.104 69.292)" /><use xlink:href="#flower1" id="fleur11"
							x="52.732" y="68.152" 
							transform="rotate(126 52.732 68.152)" />
					<g>
					<path d ="M 39.868,72.064 
					a 78 546 16.25 0 0 7.344,-9.54" fill ="none" stroke ="rgb(194.5,28.5,102.5)" stroke-width ="1.44"/></g><circle cx="47.212" cy="62.524" r="0.36" stroke="rgb(199.5,33.5,107.5)" fill="rgb(194.5,28.5,102.5)"/><use xlink:href="#leaf3"
						x="47.212" y="62.524" 
						transform="rotate(-155 47.212 62.524)" 	
						fill="rgb(26,206,29)" /><use xlink:href="#leaf2"
						x="47.212" y="62.524" 
						transform="rotate(-5 47.212 62.524)" 	
						fill="rgb(36,224,20)" /><use xlink:href="#leaf3"
						x="47.212" y="62.524" 
						transform="rotate(-67 47.352 63.384)" 	
						fill="rgb(52,229,7)" /><use xlink:href="#leaf1"
						x="47.212" y="62.524" 
						transform="rotate(155 47.212 62.524)" 	
						fill="rgb(49,211,16)" /><use xlink:href="#leaf1"
						x="47.212" y="62.524" 
						transform="rotate(170 47.212 62.524)" 	
						fill="rgb(45,236,19)" /><use xlink:href="#leaf2"
						x="47.212" y="62.524" 
						transform="rotate(105 47.212 62.524)" 	
						fill="rgb(38,234,8)" /><use xlink:href="#leaf4"
						x="47.212" y="62.524" 
						transform="rotate(-99 47.212 62.524)" 	
						fill="rgb(46,218,8)" /><use xlink:href="#leaf1"
						x="47.212" y="62.524" 
						transform="rotate(-120 47.212 62.524)" 	
						fill="rgb(19,230,39)" /><use xlink:href="#leaf4"
						x="47.212" y="62.524" 
						transform="rotate(60 47.212 62.524)" 	
						fill="rgb(47,228,7)" /><use xlink:href="#leaf1"
						x="47.212" y="62.524" 
						transform="rotate(-33 47.582 62.934)" 	
						fill="rgb(30,219,34)" /><use xlink:href="#leaf3"
						x="47.212" y="62.524" 
						transform="rotate(15 47.212 62.524)" 	
						fill="rgb(18,202,15)" /><use xlink:href="#leaf1"
						x="47.212" y="62.524" 
						transform="rotate(164 47.852 62.554)" 	
						fill="rgb(53,206,16)" />
					<g>
					<path d ="M 39.868,72.064 
					a 81 486 -13.4 0 1 3.384,-8.268" fill ="none" stroke ="rgb(194.5,28.5,105.5)" stroke-width ="1.44"/></g><circle cx="43.252" cy="63.796" r="0.36" stroke="rgb(199.5,33.5,110.5)" fill="rgb(194.5,28.5,105.5)"/><use xlink:href="#leaf2"
						x="43.252" y="63.796" 
						transform="rotate(160 43.352 64.536)" 	
						fill="rgb(30,222,27)" /><use xlink:href="#leaf1"
						x="43.252" y="63.796" 
						transform="rotate(34 43.592 64.346)" 	
						fill="rgb(23,234,38)" /><use xlink:href="#leaf3"
						x="43.252" y="63.796" 
						transform="rotate(114 43.252 63.796)" 	
						fill="rgb(19,225,34)" /><use xlink:href="#leaf1"
						x="43.252" y="63.796" 
						transform="rotate(-16 43.752 63.856)" 	
						fill="rgb(24,239,10)" /><use xlink:href="#leaf2"
						x="43.252" y="63.796" 
						transform="rotate(168 44.092 64.726)" 	
						fill="rgb(54,234,3)" /><use xlink:href="#flower2" id="fleur30"
							x="43.252" y="63.796" 
							transform="rotate(82 43.252 63.796)" />
					<g>
					<path d ="M 39.868,72.064 
					a 83 166 -13.58 0 0 4.38,-5.076" fill ="none" stroke ="rgb(194.5,30.5,106.5)" stroke-width ="1.44"/></g><circle cx="44.248" cy="66.988" r="0.36" stroke="rgb(199.5,35.5,111.5)" fill="rgb(194.5,30.5,106.5)"/><use xlink:href="#leaf3"
						x="44.248" y="66.988" 
						transform="rotate(16 44.338 67.318)" 	
						fill="rgb(49,205,37)" /><use xlink:href="#leaf4"
						x="44.248" y="66.988" 
						transform="rotate(-34 44.608 67.868)" 	
						fill="rgb(42,232,9)" /><use xlink:href="#leaf2"
						x="44.248" y="66.988" 
						transform="rotate(-79 44.248 66.988)" 	
						fill="rgb(34,221,12)" /><use xlink:href="#leaf2"
						x="44.248" y="66.988" 
						transform="rotate(151 44.648 67.378)" 	
						fill="rgb(48,234,6)" /><use xlink:href="#leaf1"
						x="44.248" y="66.988" 
						transform="rotate(78 44.248 66.988)" 	
						fill="rgb(48,208,8)" /><use xlink:href="#leaf4"
						x="44.248" y="66.988" 
						transform="rotate(-90 44.858 67.068)" 	
						fill="rgb(24,212,24)" /><use xlink:href="#leaf3"
						x="44.248" y="66.988" 
						transform="rotate(126 44.928 67.258)" 	
						fill="rgb(49,217,25)" /><use xlink:href="#leaf1"
						x="44.248" y="66.988" 
						transform="rotate(-119 44.248 66.988)" 	
						fill="rgb(40,226,9)" /><use xlink:href="#leaf4"
						x="44.248" y="66.988" 
						transform="rotate(-26 44.948 67.438)" 	
						fill="rgb(46,206,39)" /><use xlink:href="#leaf3"
						x="44.248" y="66.988" 
						transform="rotate(-81 44.558 67.048)" 	
						fill="rgb(45,222,7)" /><use xlink:href="#leaf1"
						x="44.248" y="66.988" 
						transform="rotate(176 44.998 67.308)" 	
						fill="rgb(58,242,30)" /><use xlink:href="#leaf4"
						x="44.248" y="66.988" 
						transform="rotate(73 44.918 67.188)" 	
						fill="rgb(53,235,33)" /><use xlink:href="#flower4" id="fleur40"
							x="44.248" y="66.988" 
							transform="rotate(170 44.248 66.988)" />
					<g>
					<path d ="M 46,91 
					a 52 364 -1.3 0 1 8.784,-21.552" fill ="none" stroke ="rgb(193,33,106)" stroke-width ="2.88"/></g><circle cx="54.784" cy="69.448" r="0.72" stroke="rgb(198,38,111)" fill="rgb(193,33,106)"/><use xlink:href="#leaf2"
						x="54.784" y="69.448" 
						transform="rotate(139 55.454 70.188)" 	
						fill="rgb(58,220,13)" /><use xlink:href="#leaf1"
						x="54.784" y="69.448" 
						transform="rotate(-28 55.714 70.288)" 	
						fill="rgb(28,205,39)" /><use xlink:href="#leaf1"
						x="54.784" y="69.448" 
						transform="rotate(168 54.784 69.448)" 	
						fill="rgb(19,227,14)" /><use xlink:href="#leaf2"
						x="54.784" y="69.448" 
						transform="rotate(159 54.784 69.448)" 	
						fill="rgb(56,240,9)" /><use xlink:href="#leaf3"
						x="54.784" y="69.448" 
						transform="rotate(-122 54.884 69.988)" 	
						fill="rgb(40,202,33)" /><use xlink:href="#leaf1"
						x="54.784" y="69.448" 
						transform="rotate(33 55.314 70.398)" 	
						fill="rgb(57,205,22)" /><use xlink:href="#leaf1"
						x="54.784" y="69.448" 
						transform="rotate(-149 55.694 70.408)" 	
						fill="rgb(45,235,18)" /><use xlink:href="#leaf3"
						x="54.784" y="69.448" 
						transform="rotate(-154 54.784 69.448)" 	
						fill="rgb(19,212,2)" /><use xlink:href="#leaf3"
						x="54.784" y="69.448" 
						transform="rotate(-94 54.784 69.448)" 	
						fill="rgb(42,235,4)" /><use xlink:href="#leaf1"
						x="54.784" y="69.448" 
						transform="rotate(-163 55.314 70.128)" 	
						fill="rgb(55,236,16)" /><use xlink:href="#leaf2"
						x="54.784" y="69.448" 
						transform="rotate(67 55.444 70.158)" 	
						fill="rgb(23,205,10)" /><use xlink:href="#leaf1"
						x="54.784" y="69.448" 
						transform="rotate(123 55.444 70.188)" 	
						fill="rgb(25,227,20)" /><use xlink:href="#leaf1"
						x="54.784" y="69.448" 
						transform="rotate(-47 54.784 69.448)" 	
						fill="rgb(39,236,25)" /><use xlink:href="#leaf2"
						x="54.784" y="69.448" 
						transform="rotate(129 55.604 69.878)" 	
						fill="rgb(18,204,15)" /><use xlink:href="#leaf1"
						x="54.784" y="69.448" 
						transform="rotate(132 55.724 69.578)" 	
						fill="rgb(24,204,16)" />
					<g>
					<path d ="M 46,91 
					a 98 686 -18.57 0 1 2.796,-14.652" fill ="none" stroke ="rgb(195.5,31.5,108.5)" stroke-width ="2.88"/></g><circle cx="48.796" cy="76.348" r="0.72" stroke="rgb(200.5,36.5,113.5)" fill="rgb(195.5,31.5,108.5)"/><use xlink:href="#leaf1"
						x="48.796" y="76.348" 
						transform="rotate(92 48.796 76.348)" 	
						fill="rgb(27,236,37)" /><use xlink:href="#leaf3"
						x="48.796" y="76.348" 
						transform="rotate(-127 49.126 77.148)" 	
						fill="rgb(39,233,20)" /><use xlink:href="#leaf2"
						x="48.796" y="76.348" 
						transform="rotate(-57 49.766 76.498)" 	
						fill="rgb(46,203,10)" /><use xlink:href="#leaf1"
						x="48.796" y="76.348" 
						transform="rotate(122 49.786 77.078)" 	
						fill="rgb(46,223,33)" /><use xlink:href="#leaf2"
						x="48.796" y="76.348" 
						transform="rotate(43 48.796 76.348)" 	
						fill="rgb(31,235,31)" /><use xlink:href="#leaf2"
						x="48.796" y="76.348" 
						transform="rotate(150 48.796 76.348)" 	
						fill="rgb(52,218,6)" /><use xlink:href="#leaf2"
						x="48.796" y="76.348" 
						transform="rotate(-137 49.166 77.318)" 	
						fill="rgb(24,205,39)" /><use xlink:href="#leaf3"
						x="48.796" y="76.348" 
						transform="rotate(23 48.796 76.348)" 	
						fill="rgb(36,236,8)" />
					<g>
					<path d ="M 46,91 
					a 61 549 -1.99 0 1 -5.436,-21.888" fill ="none" stroke ="rgb(197,31,107)" stroke-width ="2.88"/></g><circle cx="40.564" cy="69.112" r="0.72" stroke="rgb(202,36,112)" fill="rgb(197,31,107)"/><use xlink:href="#leaf3"
						x="40.564" y="69.112" 
						transform="rotate(-11 40.564 69.112)" 	
						fill="rgb(37,233,40)" /><use xlink:href="#leaf1"
						x="40.564" y="69.112" 
						transform="rotate(148 41.014 69.742)" 	
						fill="rgb(27,207,6)" /><use xlink:href="#leaf2"
						x="40.564" y="69.112" 
						transform="rotate(-67 41.404 69.392)" 	
						fill="rgb(28,202,1)" /><use xlink:href="#leaf3"
						x="40.564" y="69.112" 
						transform="rotate(118 41.394 69.942)" 	
						fill="rgb(37,220,26)" /><use xlink:href="#leaf1"
						x="40.564" y="69.112" 
						transform="rotate(76 40.564 69.112)" 	
						fill="rgb(31,205,12)" /><use xlink:href="#leaf1"
						x="40.564" y="69.112" 
						transform="rotate(-153 40.564 70.032)" 	
						fill="rgb(24,204,25)" /><use xlink:href="#leaf1"
						x="40.564" y="69.112" 
						transform="rotate(-153 40.564 69.112)" 	
						fill="rgb(36,216,7)" /><use xlink:href="#leaf1"
						x="40.564" y="69.112" 
						transform="rotate(63 40.564 69.112)" 	
						fill="rgb(57,216,36)" /><use xlink:href="#leaf2"
						x="40.564" y="69.112" 
						transform="rotate(-27 40.564 69.112)" 	
						fill="rgb(58,219,24)" /><use xlink:href="#leaf1"
						x="40.564" y="69.112" 
						transform="rotate(20 41.034 69.392)" 	
						fill="rgb(46,234,30)" /><use xlink:href="#leaf1"
						x="40.564" y="69.112" 
						transform="rotate(53 40.944 69.152)" 	
						fill="rgb(49,223,26)" /><use xlink:href="#leaf2"
						x="40.564" y="69.112" 
						transform="rotate(105 41.304 70.072)" 	
						fill="rgb(21,235,1)" /><use xlink:href="#leaf3"
						x="40.564" y="69.112" 
						transform="rotate(-171 40.564 69.112)" 	
						fill="rgb(53,219,1)" /><use xlink:href="#leaf3"
						x="40.564" y="69.112" 
						transform="rotate(51 41.484 69.672)" 	
						fill="rgb(52,229,17)" /><use xlink:href="#leaf1"
						x="40.564" y="69.112" 
						transform="rotate(108 40.564 69.112)" 	
						fill="rgb(27,204,19)" />
					<g>
					<path d ="M 46,91 
					a 52 156 -20.43 0 1 -4.596,-16.344" fill ="none" stroke ="rgb(195.5,30.5,105.5)" stroke-width ="2.88"/></g><circle cx="41.404" cy="74.656" r="0.72" stroke="rgb(200.5,35.5,110.5)" fill="rgb(195.5,30.5,105.5)"/><use xlink:href="#leaf2"
						x="41.404" y="74.656" 
						transform="rotate(-153 42.354 75.006)" 	
						fill="rgb(22,225,39)" /><use xlink:href="#leaf3"
						x="41.404" y="74.656" 
						transform="rotate(139 41.404 74.656)" 	
						fill="rgb(30,239,14)" /><use xlink:href="#leaf2"
						x="41.404" y="74.656" 
						transform="rotate(-109 41.854 74.676)" 	
						fill="rgb(53,212,33)" /><use xlink:href="#leaf2"
						x="41.404" y="74.656" 
						transform="rotate(-73 41.404 74.656)" 	
						fill="rgb(24,209,7)" /><use xlink:href="#leaf1"
						x="41.404" y="74.656" 
						transform="rotate(-15 41.794 75.336)" 	
						fill="rgb(23,211,11)" /><use xlink:href="#leaf1"
						x="41.404" y="74.656" 
						transform="rotate(-45 41.404 74.656)" 	
						fill="rgb(31,205,36)" />
					<g>
					<path d ="M 41.404,74.656 
					a 87 609 4.27 0 1 -4.236,-2.76" fill ="none" stroke ="rgb(195.5,31.5,105.5)" stroke-width ="1.44"/></g><circle cx="37.168" cy="71.896" r="0.36" stroke="rgb(200.5,36.5,110.5)" fill="rgb(195.5,31.5,105.5)"/><use xlink:href="#leaf1"
						x="37.168" y="71.896" 
						transform="rotate(-14 37.748 72.856)" 	
						fill="rgb(55,209,18)" /><use xlink:href="#leaf4"
						x="37.168" y="71.896" 
						transform="rotate(165 37.428 72.556)" 	
						fill="rgb(42,227,9)" /><use xlink:href="#leaf4"
						x="37.168" y="71.896" 
						transform="rotate(174 37.678 72.606)" 	
						fill="rgb(58,209,13)" /><use xlink:href="#leaf1"
						x="37.168" y="71.896" 
						transform="rotate(17 37.168 71.896)" 	
						fill="rgb(51,231,26)" /><use xlink:href="#leaf1"
						x="37.168" y="71.896" 
						transform="rotate(-161 37.208 72.136)" 	
						fill="rgb(25,211,27)" /><use xlink:href="#leaf4"
						x="37.168" y="71.896" 
						transform="rotate(-86 37.168 71.896)" 	
						fill="rgb(18,235,20)" /><use xlink:href="#leaf2"
						x="37.168" y="71.896" 
						transform="rotate(-111 37.988 72.696)" 	
						fill="rgb(36,204,38)" /><use xlink:href="#leaf1"
						x="37.168" y="71.896" 
						transform="rotate(-61 37.878 72.076)" 	
						fill="rgb(41,209,17)" /><use xlink:href="#leaf1"
						x="37.168" y="71.896" 
						transform="rotate(-121 37.658 72.436)" 	
						fill="rgb(33,209,35)" /><use xlink:href="#leaf3"
						x="37.168" y="71.896" 
						transform="rotate(-3 37.168 71.896)" 	
						fill="rgb(56,211,32)" /><use xlink:href="#leaf2"
						x="37.168" y="71.896" 
						transform="rotate(-156 37.168 71.896)" 	
						fill="rgb(26,227,33)" />
					<g>
					<path d ="M 41.404,74.656 
					a 63 378 -5.5 0 0 4.308,-4.176" fill ="none" stroke ="rgb(194.5,31.5,107.5)" stroke-width ="1.44"/></g><circle cx="45.712" cy="70.48" r="0.36" stroke="rgb(199.5,36.5,112.5)" fill="rgb(194.5,31.5,107.5)"/><use xlink:href="#leaf1"
						x="45.712" y="70.48" 
						transform="rotate(-114 46.652 71.19)" 	
						fill="rgb(32,226,13)" /><use xlink:href="#leaf2"
						x="45.712" y="70.48" 
						transform="rotate(-103 46.372 70.68)" 	
						fill="rgb(44,219,7)" /><use xlink:href="#leaf1"
						x="45.712" y="70.48" 
						transform="rotate(-90 45.822 70.81)" 	
						fill="rgb(54,231,24)" /><use xlink:href="#leaf1"
						x="45.712" y="70.48" 
						transform="rotate(116 45.712 70.48)" 	
						fill="rgb(21,213,22)" /><use xlink:href="#leaf2"
						x="45.712" y="70.48" 
						transform="rotate(-24 46.442 70.81)" 	
						fill="rgb(44,205,23)" /><use xlink:href="#leaf2"
						x="45.712" y="70.48" 
						transform="rotate(127 46.072 71.4)" 	
						fill="rgb(33,240,24)" />
					<g>
					<path d ="M 41.404,74.656 
					a 65 195 6.98 0 0 12.864,-7.968" fill ="none" stroke ="rgb(195.5,32.5,107.5)" stroke-width ="1.44"/></g><circle cx="54.268" cy="66.688" r="0.36" stroke="rgb(200.5,37.5,112.5)" fill="rgb(195.5,32.5,107.5)"/><use xlink:href="#leaf3"
						x="54.268" y="66.688" 
						transform="rotate(23 54.318 66.698)" 	
						fill="rgb(27,236,33)" /><use xlink:href="#leaf3"
						x="54.268" y="66.688" 
						transform="rotate(23 54.728 66.758)" 	
						fill="rgb(37,241,41)" /><use xlink:href="#leaf1"
						x="54.268" y="66.688" 
						transform="rotate(167 55.098 67.158)" 	
						fill="rgb(33,205,20)" /><use xlink:href="#leaf1"
						x="54.268" y="66.688" 
						transform="rotate(126 54.268 66.688)" 	
						fill="rgb(30,241,30)" /><use xlink:href="#leaf1"
						x="54.268" y="66.688" 
						transform="rotate(-149 54.478 66.938)" 	
						fill="rgb(21,235,9)" /><use xlink:href="#leaf1"
						x="54.268" y="66.688" 
						transform="rotate(67 54.268 66.688)" 	
						fill="rgb(21,235,21)" /><use xlink:href="#leaf1"
						x="54.268" y="66.688" 
						transform="rotate(-34 54.268 66.688)" 	
						fill="rgb(27,241,22)" /><use xlink:href="#leaf2"
						x="54.268" y="66.688" 
						transform="rotate(172 54.708 66.698)" 	
						fill="rgb(53,212,22)" /><use xlink:href="#leaf1"
						x="54.268" y="66.688" 
						transform="rotate(87 54.268 66.688)" 	
						fill="rgb(49,205,33)" /><use xlink:href="#leaf1"
						x="54.268" y="66.688" 
						transform="rotate(-9 54.338 67.238)" 	
						fill="rgb(38,242,22)" /><use xlink:href="#leaf1"
						x="54.268" y="66.688" 
						transform="rotate(16 54.268 66.688)" 	
						fill="rgb(24,227,25)" /><use xlink:href="#flower1" id="fleur110"
							x="54.268" y="66.688" 
							transform="rotate(-100 54.268 66.688)" />
					<g>
					<path d ="M 41.404,74.656 
					a 60 120 12.99 0 0 -12.864,-4.728" fill ="none" stroke ="rgb(196.5,31.5,108.5)" stroke-width ="1.44"/></g><circle cx="28.54" cy="69.928" r="0.36" stroke="rgb(201.5,36.5,113.5)" fill="rgb(196.5,31.5,108.5)"/><use xlink:href="#leaf3"
						x="28.54" y="69.928" 
						transform="rotate(-103 28.54 69.928)" 	
						fill="rgb(21,211,8)" /><use xlink:href="#leaf2"
						x="28.54" y="69.928" 
						transform="rotate(175 29.41 70.508)" 	
						fill="rgb(21,241,33)" /><use xlink:href="#leaf1"
						x="28.54" y="69.928" 
						transform="rotate(111 28.87 70.208)" 	
						fill="rgb(56,209,2)" /><use xlink:href="#leaf1"
						x="28.54" y="69.928" 
						transform="rotate(-92 28.54 69.928)" 	
						fill="rgb(29,229,23)" /><use xlink:href="#leaf4"
						x="28.54" y="69.928" 
						transform="rotate(103 28.61 70.278)" 	
						fill="rgb(33,220,6)" /><use xlink:href="#leaf3"
						x="28.54" y="69.928" 
						transform="rotate(-158 28.54 69.928)" 	
						fill="rgb(19,217,14)" /><use xlink:href="#leaf1"
						x="28.54" y="69.928" 
						transform="rotate(-168 28.54 69.928)" 	
						fill="rgb(30,219,11)" /><use xlink:href="#leaf1"
						x="28.54" y="69.928" 
						transform="rotate(-104 28.54 69.928)" 	
						fill="rgb(20,219,23)" /><use xlink:href="#leaf1"
						x="28.54" y="69.928" 
						transform="rotate(-73 29.17 70.418)" 	
						fill="rgb(32,239,20)" /><use xlink:href="#leaf4"
						x="28.54" y="69.928" 
						transform="rotate(-127 28.93 70.358)" 	
						fill="rgb(55,239,12)" /><use xlink:href="#leaf1"
						x="28.54" y="69.928" 
						transform="rotate(128 28.54 69.928)" 	
						fill="rgb(44,215,41)" /><use xlink:href="#flower1" id="fleur120"
							x="28.54" y="69.928" 
							transform="rotate(-141 28.78 71.068)" /><use xlink:href="#flower1" id="fleur121"
							x="28.54" y="69.928" 
							transform="rotate(170 28.54 69.928)" />
					<g>
					<path d ="M 28.54,69.928 
					a 50 100 19.14 0 0 12.252,-2.856" fill ="none" stroke ="rgb(198,34,112)" stroke-width ="0.96"/></g><circle cx="40.792" cy="67.072" r="0.24" stroke="rgb(203,39,117)" fill="rgb(198,34,112)"/><use xlink:href="#leaf3"
						x="40.792" y="67.072" 
						transform="rotate(118 40.892 67.102)" 	
						fill="rgb(22,215,1)" /><use xlink:href="#leaf1"
						x="40.792" y="67.072" 
						transform="rotate(81 40.912 67.222)" 	
						fill="rgb(23,216,2)" /><use xlink:href="#leaf2"
						x="40.792" y="67.072" 
						transform="rotate(98 41.142 67.862)" 	
						fill="rgb(35,229,15)" /><use xlink:href="#leaf5"
						x="40.792" y="67.072" 
						transform="rotate(-176 40.792 67.072)" 	
						fill="rgb(52,210,30)" /><use xlink:href="#leaf4"
						x="40.792" y="67.072" 
						transform="rotate(-168 41.172 67.132)" 	
						fill="rgb(18,217,24)" /><use xlink:href="#leaf5"
						x="40.792" y="67.072" 
						transform="rotate(-8 41.462 67.522)" 	
						fill="rgb(55,214,30)" /><use xlink:href="#leaf5"
						x="40.792" y="67.072" 
						transform="rotate(-35 40.792 67.072)" 	
						fill="rgb(41,215,11)" /><use xlink:href="#leaf3"
						x="40.792" y="67.072" 
						transform="rotate(150 41.662 67.572)" 	
						fill="rgb(44,220,30)" /><use xlink:href="#leaf5"
						x="40.792" y="67.072" 
						transform="rotate(40 41.492 67.612)" 	
						fill="rgb(41,233,23)" /><use xlink:href="#leaf3"
						x="40.792" y="67.072" 
						transform="rotate(69 40.792 67.072)" 	
						fill="rgb(39,240,38)" /><use xlink:href="#leaf2"
						x="40.792" y="67.072" 
						transform="rotate(-166 40.792 67.072)" 	
						fill="rgb(23,208,2)" /><use xlink:href="#leaf3"
						x="40.792" y="67.072" 
						transform="rotate(124 41.002 67.142)" 	
						fill="rgb(26,203,6)" /><use xlink:href="#leaf2"
						x="40.792" y="67.072" 
						transform="rotate(-24 41.662 67.882)" 	
						fill="rgb(45,235,13)" /><use xlink:href="#leaf4"
						x="40.792" y="67.072" 
						transform="rotate(-178 40.862 67.682)" 	
						fill="rgb(36,221,33)" /><use xlink:href="#flower4" id="fleur130"
							x="40.792" y="67.072" 
							transform="rotate(61 41.248 67.948)" /><use xlink:href="#flower4" id="fleur131"
							x="40.792" y="67.072" 
							transform="rotate(-79 40.792 67.072)" />
					<g>
					<path d ="M 28.54,69.928 
					a 89 890 7.62 0 1 -3.816,-5.04" fill ="none" stroke ="rgb(201.5,35.5,113.5)" stroke-width ="0.96"/></g><circle cx="24.724" cy="64.888" r="0.24" stroke="rgb(206.5,40.5,118.5)" fill="rgb(201.5,35.5,113.5)"/><use xlink:href="#leaf1"
						x="24.724" y="64.888" 
						transform="rotate(-143 24.724 64.888)" 	
						fill="rgb(51,218,25)" /><use xlink:href="#leaf2"
						x="24.724" y="64.888" 
						transform="rotate(-1 24.974 65.518)" 	
						fill="rgb(33,217,11)" /><use xlink:href="#leaf5"
						x="24.724" y="64.888" 
						transform="rotate(50 24.724 64.888)" 	
						fill="rgb(35,234,6)" /><use xlink:href="#leaf1"
						x="24.724" y="64.888" 
						transform="rotate(-151 25.554 65.118)" 	
						fill="rgb(18,234,41)" /><use xlink:href="#leaf4"
						x="24.724" y="64.888" 
						transform="rotate(-176 24.724 64.888)" 	
						fill="rgb(41,211,17)" /><use xlink:href="#leaf1"
						x="24.724" y="64.888" 
						transform="rotate(40 25.714 65.148)" 	
						fill="rgb(43,202,11)" /><use xlink:href="#flower1" id="fleur140"
							x="24.724" y="64.888" 
							transform="rotate(-102 24.916 65.572)" />
					<g>
					<path d ="M 28.54,69.928 
					a 63 63 7.64 0 1 -10.356,-4.152" fill ="none" stroke ="rgb(203,37,113)" stroke-width ="0.96"/></g><circle cx="18.184" cy="65.776" r="0.24" stroke="rgb(208,42,118)" fill="rgb(203,37,113)"/><use xlink:href="#leaf2"
						x="18.184" y="65.776" 
						transform="rotate(100 19.084 65.886)" 	
						fill="rgb(49,240,10)" /><use xlink:href="#leaf1"
						x="18.184" y="65.776" 
						transform="rotate(31 18.184 65.776)" 	
						fill="rgb(22,223,14)" /><use xlink:href="#leaf2"
						x="18.184" y="65.776" 
						transform="rotate(-126 19.174 66.246)" 	
						fill="rgb(45,209,26)" /><use xlink:href="#leaf4"
						x="18.184" y="65.776" 
						transform="rotate(74 18.194 66.436)" 	
						fill="rgb(57,205,6)" /><use xlink:href="#flower4" id="fleur150"
							x="18.184" y="65.776" 
							transform="rotate(-109 19.108 66.304)" /><use xlink:href="#flower4" id="fleur151"
							x="18.184" y="65.776" 
							transform="rotate(43 18.184 65.776)" /><use xlink:href="#flower4" id="fleur152"
							x="18.184" y="65.776" 
							transform="rotate(-162 19.336 66.52)" /><use xlink:href="#flower4" id="fleur153"
							x="18.184" y="65.776" 
							transform="rotate(59 18.184 65.776)" />
					<g>
					<path d ="M 28.54,69.928 
					a 55 440 3.52 0 0 -7.332,-3.192" fill ="none" stroke ="rgb(204.5,36.5,116.5)" stroke-width ="0.96"/></g><circle cx="21.208" cy="66.736" r="0.24" stroke="rgb(209.5,41.5,121.5)" fill="rgb(204.5,36.5,116.5)"/><use xlink:href="#leaf1"
						x="21.208" y="66.736" 
						transform="rotate(35 21.998 67.576)" 	
						fill="rgb(24,218,1)" /><use xlink:href="#leaf2"
						x="21.208" y="66.736" 
						transform="rotate(115 21.368 67.146)" 	
						fill="rgb(55,229,41)" /><use xlink:href="#leaf2"
						x="21.208" y="66.736" 
						transform="rotate(47 21.498 66.996)" 	
						fill="rgb(29,237,17)" /><use xlink:href="#leaf5"
						x="21.208" y="66.736" 
						transform="rotate(-7 21.898 66.836)" 	
						fill="rgb(27,220,33)" /><use xlink:href="#leaf1"
						x="21.208" y="66.736" 
						transform="rotate(166 21.208 66.736)" 	
						fill="rgb(22,238,34)" /><use xlink:href="#leaf1"
						x="21.208" y="66.736" 
						transform="rotate(152 21.208 66.736)" 	
						fill="rgb(30,226,29)" /><use xlink:href="#leaf5"
						x="21.208" y="66.736" 
						transform="rotate(-152 21.208 66.736)" 	
						fill="rgb(25,222,32)" /><use xlink:href="#leaf4"
						x="21.208" y="66.736" 
						transform="rotate(177 22.138 67.176)" 	
						fill="rgb(33,222,28)" /><use xlink:href="#leaf4"
						x="21.208" y="66.736" 
						transform="rotate(-122 21.208 66.736)" 	
						fill="rgb(49,207,14)" /><use xlink:href="#leaf1"
						x="21.208" y="66.736" 
						transform="rotate(99 21.208 66.736)" 	
						fill="rgb(55,209,10)" /><use xlink:href="#leaf1"
						x="21.208" y="66.736" 
						transform="rotate(150 21.598 67.566)" 	
						fill="rgb(57,229,34)" />
					<g>
					<path d ="M 40.792,67.072 
					a 100 900 -7.50 0 1 -7.368,0.888" fill ="none" stroke ="rgb(204.5,40.5,117.5)" stroke-width ="0.72"/></g><circle cx="33.424" cy="67.96" r="0.18" stroke="rgb(209.5,45.5,122.5)" fill="rgb(204.5,40.5,117.5)"/><use xlink:href="#leaf5"
						x="33.424" y="67.96" 
						transform="rotate(-126 34.254 68.14)" 	
						fill="rgb(51,224,7)" /><use xlink:href="#leaf4"
						x="33.424" y="67.96" 
						transform="rotate(139 33.424 67.96)" 	
						fill="rgb(49,216,16)" /><use xlink:href="#leaf3"
						x="33.424" y="67.96" 
						transform="rotate(-22 33.424 67.96)" 	
						fill="rgb(26,223,13)" /><use xlink:href="#leaf3"
						x="33.424" y="67.96" 
						transform="rotate(122 34.384 68.93)" 	
						fill="rgb(44,238,32)" /><use xlink:href="#leaf2"
						x="33.424" y="67.96" 
						transform="rotate(167 33.424 67.96)" 	
						fill="rgb(38,240,14)" /><use xlink:href="#leaf4"
						x="33.424" y="67.96" 
						transform="rotate(-7 33.424 67.96)" 	
						fill="rgb(41,241,33)" /><use xlink:href="#leaf5"
						x="33.424" y="67.96" 
						transform="rotate(111 33.424 67.96)" 	
						fill="rgb(57,205,22)" /><use xlink:href="#leaf6"
						x="33.424" y="67.96" 
						transform="rotate(-127 33.424 67.96)" 	
						fill="rgb(45,221,19)" /><use xlink:href="#leaf3"
						x="33.424" y="67.96" 
						transform="rotate(88 34.214 68.81)" 	
						fill="rgb(34,214,40)" /><use xlink:href="#leaf3"
						x="33.424" y="67.96" 
						transform="rotate(-127 33.424 67.96)" 	
						fill="rgb(40,225,41)" /><use xlink:href="#leaf4"
						x="33.424" y="67.96" 
						transform="rotate(33 33.784 68.59)" 	
						fill="rgb(32,210,14)" /><use xlink:href="#leaf6"
						x="33.424" y="67.96" 
						transform="rotate(-90 34.204 67.99)" 	
						fill="rgb(53,210,31)" /><use xlink:href="#leaf2"
						x="33.424" y="67.96" 
						transform="rotate(128 33.804 68.66)" 	
						fill="rgb(52,221,10)" /><use xlink:href="#leaf6"
						x="33.424" y="67.96" 
						transform="rotate(123 33.424 67.96)" 	
						fill="rgb(47,235,12)" /><use xlink:href="#leaf3"
						x="33.424" y="67.96" 
						transform="rotate(41 33.424 67.96)" 	
						fill="rgb(20,233,21)" /><use xlink:href="#flower3" id="fleur170"
							x="33.424" y="67.96" 
							transform="rotate(68 34.54 68.74)" /><use xlink:href="#flower3" id="fleur171"
							x="33.424" y="67.96" 
							transform="rotate(-52 33.424 67.96)" /><use xlink:href="#flower3" id="fleur172"
							x="33.424" y="67.96" 
							transform="rotate(-149 33.736 69.136)" /><use xlink:href="#flower3" id="fleur173"
							x="33.424" y="67.96" 
							transform="rotate(118 33.82 68.62)" /><use xlink:href="#flower3" id="fleur174"
							x="33.424" y="67.96" 
							transform="rotate(61 33.424 67.96)" />
					<g>
					<path d ="M 40.792,67.072 
					a 94 846 -8.92 0 0 -4.2,-5.388" fill ="none" stroke ="rgb(205.5,41.5,121.5)" stroke-width ="0.72"/></g><circle cx="36.592" cy="61.684" r="0.18" stroke="rgb(210.5,46.5,126.5)" fill="rgb(205.5,41.5,121.5)"/><use xlink:href="#leaf5"
						x="36.592" y="61.684" 
						transform="rotate(74 36.592 61.684)" 	
						fill="rgb(30,218,14)" /><use xlink:href="#leaf4"
						x="36.592" y="61.684" 
						transform="rotate(-107 36.592 61.684)" 	
						fill="rgb(24,241,25)" /><use xlink:href="#leaf6"
						x="36.592" y="61.684" 
						transform="rotate(-149 36.592 61.684)" 	
						fill="rgb(26,211,15)" /><use xlink:href="#leaf5"
						x="36.592" y="61.684" 
						transform="rotate(-165 36.592 61.684)" 	
						fill="rgb(36,238,15)" /><use xlink:href="#leaf5"
						x="36.592" y="61.684" 
						transform="rotate(-137 37.222 61.724)" 	
						fill="rgb(56,235,3)" /><use xlink:href="#leaf2"
						x="36.592" y="61.684" 
						transform="rotate(-156 36.592 61.684)" 	
						fill="rgb(54,208,1)" /><use xlink:href="#leaf4"
						x="36.592" y="61.684" 
						transform="rotate(21 36.592 61.684)" 	
						fill="rgb(29,229,21)" /><use xlink:href="#leaf4"
						x="36.592" y="61.684" 
						transform="rotate(121 37.262 62.094)" 	
						fill="rgb(34,204,30)" /><use xlink:href="#leaf2"
						x="36.592" y="61.684" 
						transform="rotate(-66 36.692 62.434)" 	
						fill="rgb(26,219,11)" /><use xlink:href="#flower2" id="fleur180"
							x="36.592" y="61.684" 
							transform="rotate(167 36.592 61.684)" /><use xlink:href="#flower2" id="fleur181"
							x="36.592" y="61.684" 
							transform="rotate(165 36.592 61.684)" />
					<g>
					<path d ="M 40.792,67.072 
					a 78 390 12.36 0 1 -4.032,-6.636" fill ="none" stroke ="rgb(207.5,41.5,125.5)" stroke-width ="0.72"/></g><circle cx="36.76" cy="60.436" r="0.18" stroke="rgb(212.5,46.5,130.5)" fill="rgb(207.5,41.5,125.5)"/><use xlink:href="#leaf5"
						x="36.76" y="60.436" 
						transform="rotate(-16 37.64 60.956)" 	
						fill="rgb(26,230,38)" /><use xlink:href="#leaf2"
						x="36.76" y="60.436" 
						transform="rotate(58 37.55 60.916)" 	
						fill="rgb(47,241,30)" /><use xlink:href="#leaf4"
						x="36.76" y="60.436" 
						transform="rotate(-7 36.76 60.436)" 	
						fill="rgb(26,220,21)" /><use xlink:href="#leaf4"
						x="36.76" y="60.436" 
						transform="rotate(153 37.18 60.766)" 	
						fill="rgb(19,238,26)" /><use xlink:href="#leaf2"
						x="36.76" y="60.436" 
						transform="rotate(-43 37.43 60.666)" 	
						fill="rgb(33,208,21)" /><use xlink:href="#leaf5"
						x="36.76" y="60.436" 
						transform="rotate(-133 37.49 60.926)" 	
						fill="rgb(41,209,30)" /><use xlink:href="#leaf2"
						x="36.76" y="60.436" 
						transform="rotate(-46 36.76 60.436)" 	
						fill="rgb(58,207,16)" /><use xlink:href="#leaf4"
						x="36.76" y="60.436" 
						transform="rotate(164 36.76 60.436)" 	
						fill="rgb(19,212,32)" /><use xlink:href="#leaf4"
						x="36.76" y="60.436" 
						transform="rotate(-55 37.42 61.256)" 	
						fill="rgb(49,241,7)" /><use xlink:href="#leaf2"
						x="36.76" y="60.436" 
						transform="rotate(165 36.86 61.296)" 	
						fill="rgb(55,234,10)" /><use xlink:href="#flower2" id="fleur190"
							x="36.76" y="60.436" 
							transform="rotate(1 36.76 60.436)" /><use xlink:href="#flower2" id="fleur191"
							x="36.76" y="60.436" 
							transform="rotate(90 37.696 61.072)" /><use xlink:href="#flower2" id="fleur192"
							x="36.76" y="60.436" 
							transform="rotate(-89 37.396 60.64)" /><use xlink:href="#flower2" id="fleur193"
							x="36.76" y="60.436" 
							transform="rotate(-159 36.76 60.436)" /><use xlink:href="#flower2" id="fleur194"
							x="36.76" y="60.436" 
							transform="rotate(7 36.76 60.436)" /><use xlink:href="#flower2" id="fleur195"
							x="36.76" y="60.436" 
							transform="rotate(167 36.76 60.436)" />
					<g>
					<path d ="M 40.792,67.072 
					a 100 800 -1.99 0 1 11.16,1.908" fill ="none" stroke ="rgb(209.5,45.5,129.5)" stroke-width ="0.72"/></g><circle cx="51.952" cy="68.98" r="0.18" stroke="rgb(214.5,50.5,134.5)" fill="rgb(209.5,45.5,129.5)"/><use xlink:href="#leaf2"
						x="51.952" y="68.98" 
						transform="rotate(-65 52.032 68.98)" 	
						fill="rgb(46,226,25)" /><use xlink:href="#leaf2"
						x="51.952" y="68.98" 
						transform="rotate(-22 52.142 69.2)" 	
						fill="rgb(32,207,33)" /><use xlink:href="#leaf5"
						x="51.952" y="68.98" 
						transform="rotate(117 51.952 68.98)" 	
						fill="rgb(21,208,21)" /><use xlink:href="#leaf3"
						x="51.952" y="68.98" 
						transform="rotate(82 51.952 68.98)" 	
						fill="rgb(40,238,10)" /><use xlink:href="#leaf4"
						x="51.952" y="68.98" 
						transform="rotate(-31 51.952 68.98)" 	
						fill="rgb(32,205,1)" />
					<g>
					<path d ="M 51.952,68.98 
					a 61 61 -20.21 0 1 -13.092,3.552" fill ="none" stroke ="rgb(213,48,133)" stroke-width ="0.576"/></g><circle cx="38.86" cy="72.532" r="0.144" stroke="rgb(218,53,138)" fill="rgb(213,48,133)"/><use xlink:href="#leaf3"
						x="38.86" y="72.532" 
						transform="rotate(53 38.86 72.532)" 	
						fill="rgb(34,211,13)" /><use xlink:href="#leaf4"
						x="38.86" y="72.532" 
						transform="rotate(85 38.86 72.532)" 	
						fill="rgb(53,239,1)" /><use xlink:href="#leaf7"
						x="38.86" y="72.532" 
						transform="rotate(8 39.64 72.982)" 	
						fill="rgb(20,242,5)" /><use xlink:href="#leaf3"
						x="38.86" y="72.532" 
						transform="rotate(-104 38.86 72.532)" 	
						fill="rgb(47,218,13)" /><use xlink:href="#leaf3"
						x="38.86" y="72.532" 
						transform="rotate(-41 38.86 72.532)" 	
						fill="rgb(34,213,35)" /><use xlink:href="#leaf5"
						x="38.86" y="72.532" 
						transform="rotate(125 38.86 72.532)" 	
						fill="rgb(36,202,2)" /><use xlink:href="#leaf3"
						x="38.86" y="72.532" 
						transform="rotate(-46 39.55 73.182)" 	
						fill="rgb(49,202,32)" /><use xlink:href="#leaf7"
						x="38.86" y="72.532" 
						transform="rotate(79 38.86 72.532)" 	
						fill="rgb(41,234,33)" /><use xlink:href="#leaf7"
						x="38.86" y="72.532" 
						transform="rotate(-134 38.86 72.532)" 	
						fill="rgb(26,231,30)" /><use xlink:href="#leaf7"
						x="38.86" y="72.532" 
						transform="rotate(-23 38.86 72.532)" 	
						fill="rgb(26,222,39)" /><use xlink:href="#leaf5"
						x="38.86" y="72.532" 
						transform="rotate(-53 38.86 72.532)" 	
						fill="rgb(43,242,11)" /><use xlink:href="#leaf7"
						x="38.86" y="72.532" 
						transform="rotate(-163 38.86 72.532)" 	
						fill="rgb(45,231,19)" /><use xlink:href="#flower7" id="fleur210"
							x="38.86" y="72.532" 
							transform="rotate(12 39.196 72.844)" /><use xlink:href="#flower7" id="fleur211"
							x="38.86" y="72.532" 
							transform="rotate(73 39.844 72.532)" /><use xlink:href="#flower7" id="fleur212"
							x="38.86" y="72.532" 
							transform="rotate(-179 39.136 72.628)" /><use xlink:href="#flower7" id="fleur213"
							x="38.86" y="72.532" 
							transform="rotate(56 39.808 73.696)" /><use xlink:href="#flower7" id="fleur214"
							x="38.86" y="72.532" 
							transform="rotate(72 38.908 73.132)" /><use xlink:href="#flower7" id="fleur215"
							x="38.86" y="72.532" 
							transform="rotate(-154 39.46 73.3)" />
					<g>
					<path d ="M 40.564,69.112 
					a 71 497 -4.7 0 0 13.152,0.396" fill ="none" stroke ="rgb(215,48,134)" stroke-width ="1.44"/></g><circle cx="53.716" cy="69.508" r="0.36" stroke="rgb(220,53,139)" fill="rgb(215,48,134)"/><use xlink:href="#leaf4"
						x="53.716" y="69.508" 
						transform="rotate(-169 53.716 69.508)" 	
						fill="rgb(33,242,31)" /><use xlink:href="#leaf4"
						x="53.716" y="69.508" 
						transform="rotate(74 53.716 69.508)" 	
						fill="rgb(31,225,39)" /><use xlink:href="#leaf4"
						x="53.716" y="69.508" 
						transform="rotate(-132 53.716 69.508)" 	
						fill="rgb(43,220,38)" /><use xlink:href="#leaf1"
						x="53.716" y="69.508" 
						transform="rotate(-25 53.716 69.508)" 	
						fill="rgb(27,238,19)" /><use xlink:href="#leaf3"
						x="53.716" y="69.508" 
						transform="rotate(-25 54.116 70.178)" 	
						fill="rgb(39,218,39)" /><use xlink:href="#leaf4"
						x="53.716" y="69.508" 
						transform="rotate(-75 53.716 69.508)" 	
						fill="rgb(27,204,35)" /><use xlink:href="#leaf1"
						x="53.716" y="69.508" 
						transform="rotate(48 53.716 69.508)" 	
						fill="rgb(19,220,25)" /><use xlink:href="#leaf4"
						x="53.716" y="69.508" 
						transform="rotate(-12 54.356 70.358)" 	
						fill="rgb(54,205,38)" /><use xlink:href="#leaf1"
						x="53.716" y="69.508" 
						transform="rotate(-136 53.716 69.508)" 	
						fill="rgb(33,226,9)" /><use xlink:href="#leaf4"
						x="53.716" y="69.508" 
						transform="rotate(-59 54.686 70.378)" 	
						fill="rgb(22,216,16)" /><use xlink:href="#leaf2"
						x="53.716" y="69.508" 
						transform="rotate(-158 53.716 69.508)" 	
						fill="rgb(35,231,29)" /><use xlink:href="#leaf2"
						x="53.716" y="69.508" 
						transform="rotate(-25 53.716 69.508)" 	
						fill="rgb(26,228,26)" />
					<g>
					<path d ="M 40.564,69.112 
					a 95 855 1.15 0 0 5.16,-9.228" fill ="none" stroke ="rgb(214,48,136)" stroke-width ="1.44"/></g><circle cx="45.724" cy="59.884" r="0.36" stroke="rgb(219,53,141)" fill="rgb(214,48,136)"/><use xlink:href="#leaf2"
						x="45.724" y="59.884" 
						transform="rotate(155 46.254 60.554)" 	
						fill="rgb(24,204,5)" /><use xlink:href="#leaf2"
						x="45.724" y="59.884" 
						transform="rotate(96 45.984 60.574)" 	
						fill="rgb(51,236,40)" /><use xlink:href="#leaf4"
						x="45.724" y="59.884" 
						transform="rotate(-130 46.654 59.914)" 	
						fill="rgb(22,235,16)" /><use xlink:href="#leaf2"
						x="45.724" y="59.884" 
						transform="rotate(58 46.584 60.424)" 	
						fill="rgb(19,227,8)" /><use xlink:href="#leaf1"
						x="45.724" y="59.884" 
						transform="rotate(-39 45.724 59.884)" 	
						fill="rgb(20,228,10)" /><use xlink:href="#leaf2"
						x="45.724" y="59.884" 
						transform="rotate(-162 45.724 59.884)" 	
						fill="rgb(23,240,38)" /><use xlink:href="#leaf1"
						x="45.724" y="59.884" 
						transform="rotate(-1 46.354 60.554)" 	
						fill="rgb(25,220,6)" /><use xlink:href="#leaf1"
						x="45.724" y="59.884" 
						transform="rotate(-73 45.724 59.884)" 	
						fill="rgb(58,241,35)" /><use xlink:href="#leaf3"
						x="45.724" y="59.884" 
						transform="rotate(-80 45.964 60.504)" 	
						fill="rgb(31,223,33)" /><use xlink:href="#leaf2"
						x="45.724" y="59.884" 
						transform="rotate(101 46.604 60.104)" 	
						fill="rgb(20,210,19)" /><use xlink:href="#leaf3"
						x="45.724" y="59.884" 
						transform="rotate(178 45.724 59.884)" 	
						fill="rgb(43,208,38)" />
					<g>
					<path d ="M 40.564,69.112 
					a 71 497 -3.99 0 0 -8.88,3.528" fill ="none" stroke ="rgb(215,50,135)" stroke-width ="1.44"/></g><circle cx="31.684" cy="72.64" r="0.36" stroke="rgb(220,55,140)" fill="rgb(215,50,135)"/><use xlink:href="#leaf1"
						x="31.684" y="72.64" 
						transform="rotate(-72 32.234 72.94)" 	
						fill="rgb(31,232,2)" /><use xlink:href="#leaf1"
						x="31.684" y="72.64" 
						transform="rotate(-106 32.104 73.16)" 	
						fill="rgb(26,222,14)" /><use xlink:href="#leaf3"
						x="31.684" y="72.64" 
						transform="rotate(-27 32.274 73.48)" 	
						fill="rgb(35,220,40)" /><use xlink:href="#leaf4"
						x="31.684" y="72.64" 
						transform="rotate(-104 31.684 72.64)" 	
						fill="rgb(39,204,34)" /><use xlink:href="#leaf1"
						x="31.684" y="72.64" 
						transform="rotate(-82 31.684 72.64)" 	
						fill="rgb(20,203,25)" /><use xlink:href="#leaf1"
						x="31.684" y="72.64" 
						transform="rotate(91 31.684 72.64)" 	
						fill="rgb(41,218,15)" /><use xlink:href="#leaf3"
						x="31.684" y="72.64" 
						transform="rotate(-57 32.584 72.72)" 	
						fill="rgb(42,217,13)" /><use xlink:href="#leaf4"
						x="31.684" y="72.64" 
						transform="rotate(-101 32.564 73.08)" 	
						fill="rgb(32,234,31)" />
					<g>
					<path d ="M 31.684,72.64 
					a 100 300 2.68 0 1 -4.092,-5.184" fill ="none" stroke ="rgb(215.5,49.5,134.5)" stroke-width ="0.96"/></g><circle cx="27.592" cy="67.456" r="0.24" stroke="rgb(220.5,54.5,139.5)" fill="rgb(215.5,49.5,134.5)"/><use xlink:href="#leaf1"
						x="27.592" y="67.456" 
						transform="rotate(-149 28.122 68.416)" 	
						fill="rgb(56,242,41)" /><use xlink:href="#leaf4"
						x="27.592" y="67.456" 
						transform="rotate(-48 27.592 67.456)" 	
						fill="rgb(56,223,39)" /><use xlink:href="#leaf2"
						x="27.592" y="67.456" 
						transform="rotate(-63 28.182 67.946)" 	
						fill="rgb(34,202,37)" /><use xlink:href="#leaf4"
						x="27.592" y="67.456" 
						transform="rotate(155 28.452 67.946)" 	
						fill="rgb(19,212,4)" /><use xlink:href="#leaf5"
						x="27.592" y="67.456" 
						transform="rotate(16 27.622 68.196)" 	
						fill="rgb(19,212,40)" />
					<g>
					<path d ="M 31.684,72.64 
					a 79 711 6.70 0 0 -6.36,0.492" fill ="none" stroke ="rgb(215,52,135)" stroke-width ="0.96"/></g><circle cx="25.324" cy="73.132" r="0.24" stroke="rgb(220,57,140)" fill="rgb(215,52,135)"/><use xlink:href="#leaf4"
						x="25.324" y="73.132" 
						transform="rotate(-113 25.324 73.132)" 	
						fill="rgb(53,204,13)" /><use xlink:href="#leaf4"
						x="25.324" y="73.132" 
						transform="rotate(-97 25.364 73.692)" 	
						fill="rgb(39,220,27)" /><use xlink:href="#leaf2"
						x="25.324" y="73.132" 
						transform="rotate(-74 25.714 73.382)" 	
						fill="rgb(40,209,31)" /><use xlink:href="#leaf4"
						x="25.324" y="73.132" 
						transform="rotate(141 25.324 73.132)" 	
						fill="rgb(58,203,25)" /><use xlink:href="#leaf1"
						x="25.324" y="73.132" 
						transform="rotate(114 25.324 73.132)" 	
						fill="rgb(34,229,10)" /><use xlink:href="#flower1" id="fleur260"
							x="25.324" y="73.132" 
							transform="rotate(-161 26.296 74.296)" /><use xlink:href="#flower1" id="fleur261"
							x="25.324" y="73.132" 
							transform="rotate(137 26.296 73.456)" /><use xlink:href="#flower1" id="fleur262"
							x="25.324" y="73.132" 
							transform="rotate(110 26.284 74.164)" /><use xlink:href="#flower1" id="fleur263"
							x="25.324" y="73.132" 
							transform="rotate(-121 26.368 73.468)" /><use xlink:href="#flower1" id="fleur264"
							x="25.324" y="73.132" 
							transform="rotate(-173 25.324 73.132)" />
					<g>
					<path d ="M 31.684,72.64 
					a 74 74 -1.14 0 1 10.14,-8.304" fill ="none" stroke ="rgb(216.5,52.5,137.5)" stroke-width ="0.96"/></g><circle cx="41.824" cy="64.336" r="0.24" stroke="rgb(221.5,57.5,142.5)" fill="rgb(216.5,52.5,137.5)"/><use xlink:href="#leaf2"
						x="41.824" y="64.336" 
						transform="rotate(81 42.134 64.486)" 	
						fill="rgb(54,226,8)" /><use xlink:href="#leaf5"
						x="41.824" y="64.336" 
						transform="rotate(162 41.824 64.336)" 	
						fill="rgb(57,237,22)" /><use xlink:href="#leaf1"
						x="41.824" y="64.336" 
						transform="rotate(100 42.474 64.876)" 	
						fill="rgb(23,217,16)" /><use xlink:href="#leaf5"
						x="41.824" y="64.336" 
						transform="rotate(-142 41.824 64.336)" 	
						fill="rgb(21,218,8)" /><use xlink:href="#flower5" id="fleur270"
							x="41.824" y="64.336" 
							transform="rotate(117 41.824 64.336)" /><use xlink:href="#flower5" id="fleur271"
							x="41.824" y="64.336" 
							transform="rotate(2 41.824 64.336)" /><use xlink:href="#flower5" id="fleur272"
							x="41.824" y="64.336" 
							transform="rotate(12 41.824 64.336)" /><use xlink:href="#flower5" id="fleur273"
							x="41.824" y="64.336" 
							transform="rotate(-175 41.956 64.6)" />
					<g>
					<path d ="M 31.684,72.64 
					a 87 435 10.49 0 0 -7.032,-4.092" fill ="none" stroke ="rgb(216,53,141)" stroke-width ="0.96"/></g><circle cx="24.652" cy="68.548" r="0.24" stroke="rgb(221,58,146)" fill="rgb(216,53,141)"/><use xlink:href="#leaf1"
						x="24.652" y="68.548" 
						transform="rotate(-56 24.652 68.548)" 	
						fill="rgb(46,236,11)" /><use xlink:href="#leaf3"
						x="24.652" y="68.548" 
						transform="rotate(-61 24.652 68.548)" 	
						fill="rgb(33,238,13)" /><use xlink:href="#leaf3"
						x="24.652" y="68.548" 
						transform="rotate(-11 24.652 68.548)" 	
						fill="rgb(43,242,33)" /><use xlink:href="#leaf1"
						x="24.652" y="68.548" 
						transform="rotate(89 24.652 68.548)" 	
						fill="rgb(49,229,15)" /><use xlink:href="#leaf4"
						x="24.652" y="68.548" 
						transform="rotate(-80 25.132 68.708)" 	
						fill="rgb(25,212,14)" /><use xlink:href="#leaf5"
						x="24.652" y="68.548" 
						transform="rotate(-56 25.132 69.518)" 	
						fill="rgb(43,203,23)" /><use xlink:href="#leaf5"
						x="24.652" y="68.548" 
						transform="rotate(-180 24.652 68.548)" 	
						fill="rgb(57,236,9)" /><use xlink:href="#leaf2"
						x="24.652" y="68.548" 
						transform="rotate(120 24.652 68.548)" 	
						fill="rgb(58,221,23)" /><use xlink:href="#leaf4"
						x="24.652" y="68.548" 
						transform="rotate(-138 25.322 69.078)" 	
						fill="rgb(46,204,9)" /><use xlink:href="#leaf2"
						x="24.652" y="68.548" 
						transform="rotate(6 24.652 68.548)" 	
						fill="rgb(25,208,26)" /><use xlink:href="#leaf1"
						x="24.652" y="68.548" 
						transform="rotate(-114 25.202 68.578)" 	
						fill="rgb(58,225,29)" /><use xlink:href="#leaf4"
						x="24.652" y="68.548" 
						transform="rotate(19 24.812 69.098)" 	
						fill="rgb(42,210,40)" /><use xlink:href="#leaf5"
						x="24.652" y="68.548" 
						transform="rotate(-82 24.652 68.548)" 	
						fill="rgb(25,219,37)" /><use xlink:href="#leaf2"
						x="24.652" y="68.548" 
						transform="rotate(-102 24.652 68.548)" 	
						fill="rgb(38,226,30)" /><use xlink:href="#flower2" id="fleur280"
							x="24.652" y="68.548" 
							transform="rotate(101 25.588 69.628)" /><use xlink:href="#flower2" id="fleur281"
							x="24.652" y="68.548" 
							transform="rotate(79 24.652 68.548)" /><use xlink:href="#flower2" id="fleur282"
							x="24.652" y="68.548" 
							transform="rotate(-121 24.652 68.548)" /><use xlink:href="#flower2" id="fleur283"
							x="24.652" y="68.548" 
							transform="rotate(170 25.048 68.968)" /><use xlink:href="#flower2" id="fleur284"
							x="24.652" y="68.548" 
							transform="rotate(115 25.588 69.196)" />
					<g>
					<path d ="M 24.652,68.548 
					a 59 590 -14.20 0 1 -4.656,0.912" fill ="none" stroke ="rgb(217,56,142)" stroke-width ="0.72"/></g><circle cx="19.996" cy="69.46" r="0.18" stroke="rgb(222,61,147)" fill="rgb(217,56,142)"/><use xlink:href="#leaf6"
						x="19.996" y="69.46" 
						transform="rotate(24 20.276 70.17)" 	
						fill="rgb(21,216,33)" /><use xlink:href="#leaf5"
						x="19.996" y="69.46" 
						transform="rotate(34 19.996 69.46)" 	
						fill="rgb(30,206,14)" /><use xlink:href="#leaf3"
						x="19.996" y="69.46" 
						transform="rotate(10 19.996 69.46)" 	
						fill="rgb(37,233,16)" /><use xlink:href="#leaf4"
						x="19.996" y="69.46" 
						transform="rotate(-150 19.996 69.46)" 	
						fill="rgb(41,225,18)" />
					<g>
					<path d ="M 24.652,68.548 
					a 74 740 -11.90 0 0 0.48,2.004" fill ="none" stroke ="rgb(218,58,142)" stroke-width ="0.72"/></g><circle cx="25.132" cy="70.552" r="0.18" stroke="rgb(223,63,147)" fill="rgb(218,58,142)"/><use xlink:href="#leaf3"
						x="25.132" y="70.552" 
						transform="rotate(-80 25.132 70.552)" 	
						fill="rgb(30,205,41)" /><use xlink:href="#leaf4"
						x="25.132" y="70.552" 
						transform="rotate(158 26.112 70.762)" 	
						fill="rgb(26,203,23)" /><use xlink:href="#leaf5"
						x="25.132" y="70.552" 
						transform="rotate(-178 25.962 70.742)" 	
						fill="rgb(23,218,32)" /><use xlink:href="#leaf5"
						x="25.132" y="70.552" 
						transform="rotate(148 25.592 71.492)" 	
						fill="rgb(54,232,25)" /><use xlink:href="#leaf6"
						x="25.132" y="70.552" 
						transform="rotate(-100 25.792 70.772)" 	
						fill="rgb(34,230,22)" /><use xlink:href="#leaf4"
						x="25.132" y="70.552" 
						transform="rotate(-97 25.132 70.552)" 	
						fill="rgb(37,218,38)" /><use xlink:href="#leaf6"
						x="25.132" y="70.552" 
						transform="rotate(117 25.132 70.552)" 	
						fill="rgb(36,241,21)" /><use xlink:href="#leaf2"
						x="25.132" y="70.552" 
						transform="rotate(-86 25.132 70.552)" 	
						fill="rgb(28,224,29)" /><use xlink:href="#leaf5"
						x="25.132" y="70.552" 
						transform="rotate(130 25.132 70.552)" 	
						fill="rgb(29,230,16)" /><use xlink:href="#leaf6"
						x="25.132" y="70.552" 
						transform="rotate(-156 25.132 70.552)" 	
						fill="rgb(41,226,36)" /><use xlink:href="#leaf2"
						x="25.132" y="70.552" 
						transform="rotate(88 25.422 71.362)" 	
						fill="rgb(40,232,9)" /><use xlink:href="#leaf5"
						x="25.132" y="70.552" 
						transform="rotate(-66 25.132 70.552)" 	
						fill="rgb(47,202,6)" /><use xlink:href="#flower5" id="fleur300"
							x="25.132" y="70.552" 
							transform="rotate(79 25.132 70.552)" /><use xlink:href="#flower5" id="fleur301"
							x="25.132" y="70.552" 
							transform="rotate(180 25.132 70.552)" /><use xlink:href="#flower5" id="fleur302"
							x="25.132" y="70.552" 
							transform="rotate(3 25.912 71.056)" /><use xlink:href="#flower5" id="fleur303"
							x="25.132" y="70.552" 
							transform="rotate(-51 25.132 70.552)" /></g>
				</svg>