<svg class="relie" xmlns="http://www.w3.org/2000/svg" viewBox="0 0 100 100" preserveAspectRatio="xMidYMid meet" x="0" y="0" overflow="visible" xmlns:xlink="http://www.w3.org/1999/xlink">

		<defs>  <g id="leaf1" transform="skewX(5) skewY(5)"><path d="M 0,0 
					q 0.25625 0.1325 0.125,1 q 0.26125 0.1325 0.3125,0.15 q 0.00125 0.1325 -0.4375,1.85 
					M 0,0 
					q -0.25625 0.1325 -0.125,1 q -0.26125 0.1325 -0.3125,0.15 q -0.00125 0.1325 0.4375,1.85 " 
					stroke-width ="0.2" /></g>  <g id="leaf2" transform="skewX(-1) skewY(-1)"><path d="M 0,0 
					q 0.5125 0.265 0.25,2 q 0.5225 0.265 0.625,0.3 q 0.0025 0.265 -0.875,3.7 
					M 0,0 
					q -0.5125 0.265 -0.25,2 q -0.5225 0.265 -0.625,0.3 q -0.0025 0.265 0.875,3.7 " 
					stroke-width ="0.2" /></g>  <g id="leaf3" transform="skewX(-4) skewY(-4)"><path d="M 0,0 
					q 0.76875 0.3975 0.375,3 q 0.78375 0.3975 0.9375,0.45 q 0.00375 0.3975 -1.3125,5.55 
					M 0,0 
					q -0.76875 0.3975 -0.375,3 q -0.78375 0.3975 -0.9375,0.45 q -0.00375 0.3975 1.3125,5.55 " 
					stroke-width ="0.2" /></g>  <g id="leaf4" transform="skewX(19) skewY(19)"><path d="M 0,0 
					q 1.025 0.53 0.5,4 q 1.045 0.53 1.25,0.6 q 0.005 0.53 -1.75,7.4 
					M 0,0 
					q -1.025 0.53 -0.5,4 q -1.045 0.53 -1.25,0.6 q -0.005 0.53 1.75,7.4 " 
					stroke-width ="0.2" /></g>  <g id="leaf5" transform="skewX(19) skewY(19)"><path d="M 0,0 
					q 1.28125 0.6625 0.625,5 q 1.30625 0.6625 1.5625,0.75 q 0.00625 0.6625 -2.1875,9.25 
					M 0,0 
					q -1.28125 0.6625 -0.625,5 q -1.30625 0.6625 -1.5625,0.75 q -0.00625 0.6625 2.1875,9.25 " 
					stroke-width ="0.2" /></g>  <g id="leaf6" transform="skewX(5) skewY(5)"><path d="M 0,0 
					q 1.5375 0.795 0.75,6 q 1.5675 0.795 1.875,0.9 q 0.0075 0.795 -2.625,11.1 
					M 0,0 
					q -1.5375 0.795 -0.75,6 q -1.5675 0.795 -1.875,0.9 q -0.0075 0.795 2.625,11.1 " 
					stroke-width ="0.2" /></g>  <g id="leaf7" transform="skewX(17) skewY(17)"><path d="M 0,0 
					q 1.79375 0.9275 0.875,7 q 1.82875 0.9275 2.1875,1.05 q 0.00875 0.9275 -3.0625,12.95 
					M 0,0 
					q -1.79375 0.9275 -0.875,7 q -1.82875 0.9275 -2.1875,1.05 q -0.00875 0.9275 3.0625,12.95 " 
					stroke-width ="0.2" /></g>  <g id="leaf8" transform="skewX(6) skewY(6)"><path d="M 0,0 
					q 2.05 1.06 1,8 q 2.09 1.06 2.5,1.2 q 0.01 1.06 -3.5,14.8 
					M 0,0 
					q -2.05 1.06 -1,8 q -2.09 1.06 -2.5,1.2 q -0.01 1.06 3.5,14.8 " 
					stroke-width ="0.2" /></g><g id="flower1"><path d="M 0,0.5 
						q 0.13875 0.49625 0.125,0.16666666666667 q 0.36875 0.49625 0.3125,0.025 q 0.20375 0.49625 -0.4375,1 
						M 0,0.5 
						q -0.13875 0.49625 -0.125,0.16666666666667 q -0.36875 0.49625 -0.3125,0.025 q -0.20375 0.49625 0.4375,1 " 
						transform="rotate(0 0,0.5 )"
						stroke-width ="0.1"
						fill="rgb(156,189,85)"
						/><path d="M 0,0.5 
						q 0.13875 0.49625 0.125,0.16666666666667 q 0.36875 0.49625 0.3125,0.025 q 0.20375 0.49625 -0.4375,1 
						M 0,0.5 
						q -0.13875 0.49625 -0.125,0.16666666666667 q -0.36875 0.49625 -0.3125,0.025 q -0.20375 0.49625 0.4375,1 " 
						transform="rotate(36 0,0.5 )"
						stroke-width ="0.1"
						fill="rgb(148.5,192.5,97.5)"
						/><path d="M 0,0.5 
						q 0.13875 0.49625 0.125,0.16666666666667 q 0.36875 0.49625 0.3125,0.025 q 0.20375 0.49625 -0.4375,1 
						M 0,0.5 
						q -0.13875 0.49625 -0.125,0.16666666666667 q -0.36875 0.49625 -0.3125,0.025 q -0.20375 0.49625 0.4375,1 " 
						transform="rotate(72 0,0.5 )"
						stroke-width ="0.1"
						fill="rgb(157,199,84)"
						/></g><g id="flower2"><path d="M 0,1 
						q 0.2775 0.9925 0.25,0.33333333333333 q 0.7375 0.9925 0.625,0.05 q 0.4075 0.9925 -0.875,1 
						M 0,1 
						q -0.2775 0.9925 -0.25,0.33333333333333 q -0.7375 0.9925 -0.625,0.05 q -0.4075 0.9925 0.875,1 " 
						transform="rotate(0 0,1 )"
						stroke-width ="0.1"
						fill="rgb(150,195,86)"
						/><circle cx="0" cy="1" r="0.12" fill="rgb(88,181,13)"/><circle cx="-0.02" cy="0.98" r="0.08" fill="rgb(103.5,201.5,16.5)"/><path d="M 0,1 
						q 0.2775 0.9925 0.25,0.33333333333333 q 0.7375 0.9925 0.625,0.05 q 0.4075 0.9925 -0.875,1 
						M 0,1 
						q -0.2775 0.9925 -0.25,0.33333333333333 q -0.7375 0.9925 -0.625,0.05 q -0.4075 0.9925 0.875,1 " 
						transform="rotate(72 0,1 )"
						stroke-width ="0.1"
						fill="rgb(157.5,195.5,92.5)"
						/><circle cx="0" cy="1" r="0.12" fill="rgb(88,181,13)"/><circle cx="0.09" cy="0.96" r="0.08" fill="rgb(103.5,201.5,16.5)"/><path d="M 0,1 
						q 0.2775 0.9925 0.25,0.33333333333333 q 0.7375 0.9925 0.625,0.05 q 0.4075 0.9925 -0.875,1 
						M 0,1 
						q -0.2775 0.9925 -0.25,0.33333333333333 q -0.7375 0.9925 -0.625,0.05 q -0.4075 0.9925 0.875,1 " 
						transform="rotate(144 0,1 )"
						stroke-width ="0.1"
						fill="rgb(143,179,88)"
						/><circle cx="0" cy="1" r="0.12" fill="rgb(88,181,13)"/><circle cx="-0.06" cy="1.1" r="0.08" fill="rgb(103.5,201.5,16.5)"/><path d="M 0,1 
						q 0.2775 0.9925 0.25,0.33333333333333 q 0.7375 0.9925 0.625,0.05 q 0.4075 0.9925 -0.875,1 
						M 0,1 
						q -0.2775 0.9925 -0.25,0.33333333333333 q -0.7375 0.9925 -0.625,0.05 q -0.4075 0.9925 0.875,1 " 
						transform="rotate(216 0,1 )"
						stroke-width ="0.1"
						fill="rgb(137.5,180.5,79.5)"
						/><circle cx="0" cy="1" r="0.12" fill="rgb(88,181,13)"/><circle cx="0.04" cy="1.05" r="0.08" fill="rgb(103.5,201.5,16.5)"/><path d="M 0,1 
						q 0.2775 0.9925 0.25,0.33333333333333 q 0.7375 0.9925 0.625,0.05 q 0.4075 0.9925 -0.875,1 
						M 0,1 
						q -0.2775 0.9925 -0.25,0.33333333333333 q -0.7375 0.9925 -0.625,0.05 q -0.4075 0.9925 0.875,1 " 
						transform="rotate(288 0,1 )"
						stroke-width ="0.1"
						fill="rgb(152,194,88)"
						/><circle cx="0" cy="1" r="0.12" fill="rgb(88,181,13)"/><circle cx="-0.08" cy="1.09" r="0.08" fill="rgb(103.5,201.5,16.5)"/><path d="M 0,1 
						q 0.2775 0.9925 0.25,0.33333333333333 q 0.7375 0.9925 0.625,0.05 q 0.4075 0.9925 -0.875,1 
						M 0,1 
						q -0.2775 0.9925 -0.25,0.33333333333333 q -0.7375 0.9925 -0.625,0.05 q -0.4075 0.9925 0.875,1 " 
						transform="rotate(360 0,1 )"
						stroke-width ="0.1"
						fill="rgb(131.5,186.5,80.5)"
						/><circle cx="0" cy="1" r="0.12" fill="rgb(88,181,13)"/><circle cx="0.02" cy="1.05" r="0.08" fill="rgb(103.5,201.5,16.5)"/><path d="M 0,1 
						q 0.2775 0.9925 0.25,0.33333333333333 q 0.7375 0.9925 0.625,0.05 q 0.4075 0.9925 -0.875,1 
						M 0,1 
						q -0.2775 0.9925 -0.25,0.33333333333333 q -0.7375 0.9925 -0.625,0.05 q -0.4075 0.9925 0.875,1 " 
						transform="rotate(432 0,1 )"
						stroke-width ="0.1"
						fill="rgb(146,187,73)"
						/><circle cx="0" cy="1" r="0.12" fill="rgb(88,181,13)"/><circle cx="0.07" cy="1.09" r="0.08" fill="rgb(103.5,201.5,16.5)"/><path d="M 0,1 
						q 0.2775 0.9925 0.25,0.33333333333333 q 0.7375 0.9925 0.625,0.05 q 0.4075 0.9925 -0.875,1 
						M 0,1 
						q -0.2775 0.9925 -0.25,0.33333333333333 q -0.7375 0.9925 -0.625,0.05 q -0.4075 0.9925 0.875,1 " 
						transform="rotate(504 0,1 )"
						stroke-width ="0.1"
						fill="rgb(124.5,177.5,81.5)"
						/><circle cx="0" cy="1" r="0.12" fill="rgb(88,181,13)"/><circle cx="0.04" cy="0.9" r="0.08" fill="rgb(103.5,201.5,16.5)"/><path d="M 0,1 
						q 0.2775 0.9925 0.25,0.33333333333333 q 0.7375 0.9925 0.625,0.05 q 0.4075 0.9925 -0.875,1 
						M 0,1 
						q -0.2775 0.9925 -0.25,0.33333333333333 q -0.7375 0.9925 -0.625,0.05 q -0.4075 0.9925 0.875,1 " 
						transform="rotate(576 0,1 )"
						stroke-width ="0.1"
						fill="rgb(127,173,61)"
						/><circle cx="0" cy="1" r="0.12" fill="rgb(88,181,13)"/><circle cx="-0.02" cy="0.95" r="0.08" fill="rgb(103.5,201.5,16.5)"/><path d="M 0,1 
						q 0.2775 0.9925 0.25,0.33333333333333 q 0.7375 0.9925 0.625,0.05 q 0.4075 0.9925 -0.875,1 
						M 0,1 
						q -0.2775 0.9925 -0.25,0.33333333333333 q -0.7375 0.9925 -0.625,0.05 q -0.4075 0.9925 0.875,1 " 
						transform="rotate(648 0,1 )"
						stroke-width ="0.1"
						fill="rgb(122.5,166.5,78.5)"
						/><circle cx="0" cy="1" r="0.12" fill="rgb(88,181,13)"/><circle cx="-0.02" cy="1.02" r="0.08" fill="rgb(103.5,201.5,16.5)"/><path d="M 0,1 
						q 0.2775 0.9925 0.25,0.33333333333333 q 0.7375 0.9925 0.625,0.05 q 0.4075 0.9925 -0.875,1 
						M 0,1 
						q -0.2775 0.9925 -0.25,0.33333333333333 q -0.7375 0.9925 -0.625,0.05 q -0.4075 0.9925 0.875,1 " 
						transform="rotate(720 0,1 )"
						stroke-width ="0.1"
						fill="rgb(125,178,63)"
						/><circle cx="0" cy="1" r="0.12" fill="rgb(88,181,13)"/><circle cx="0.04" cy="1.08" r="0.08" fill="rgb(103.5,201.5,16.5)"/></g><g id="flower3"><path d="M 0,1.5 
						q 0.41625 1.48875 0.375,0.5 q 1.10625 1.48875 0.9375,0.075 q 0.61125 1.48875 -1.3125,1 
						M 0,1.5 
						q -0.41625 1.48875 -0.375,0.5 q -1.10625 1.48875 -0.9375,0.075 q -0.61125 1.48875 1.3125,1 " 
						transform="rotate(0 0,1.5 )"
						stroke-width ="0.1"
						fill="rgb(162,190,87)"
						/><circle cx="0" cy="1.5" r="0.18" fill="rgb(91,181,9)"/><circle cx="-0.06" cy="1.47" r="0.12" fill="rgb(110.5,189.5,22.5)"/><path d="M 0,1.5 
						q 0.41625 1.48875 0.375,0.5 q 1.10625 1.48875 0.9375,0.075 q 0.61125 1.48875 -1.3125,1 
						M 0,1.5 
						q -0.41625 1.48875 -0.375,0.5 q -1.10625 1.48875 -0.9375,0.075 q -0.61125 1.48875 1.3125,1 " 
						transform="rotate(72 0,1.5 )"
						stroke-width ="0.1"
						fill="rgb(139.5,196.5,80.5)"
						/><circle cx="0" cy="1.5" r="0.18" fill="rgb(91,181,9)"/><circle cx="0.08" cy="1.43" r="0.12" fill="rgb(110.5,189.5,22.5)"/><path d="M 0,1.5 
						q 0.41625 1.48875 0.375,0.5 q 1.10625 1.48875 0.9375,0.075 q 0.61125 1.48875 -1.3125,1 
						M 0,1.5 
						q -0.41625 1.48875 -0.375,0.5 q -1.10625 1.48875 -0.9375,0.075 q -0.61125 1.48875 1.3125,1 " 
						transform="rotate(144 0,1.5 )"
						stroke-width ="0.1"
						fill="rgb(152,186,94)"
						/><circle cx="0" cy="1.5" r="0.18" fill="rgb(91,181,9)"/><circle cx="-0.05" cy="1.42" r="0.12" fill="rgb(110.5,189.5,22.5)"/><path d="M 0,1.5 
						q 0.41625 1.48875 0.375,0.5 q 1.10625 1.48875 0.9375,0.075 q 0.61125 1.48875 -1.3125,1 
						M 0,1.5 
						q -0.41625 1.48875 -0.375,0.5 q -1.10625 1.48875 -0.9375,0.075 q -0.61125 1.48875 1.3125,1 " 
						transform="rotate(216 0,1.5 )"
						stroke-width ="0.1"
						fill="rgb(150.5,189.5,80.5)"
						/><circle cx="0" cy="1.5" r="0.18" fill="rgb(91,181,9)"/><circle cx="-0.08" cy="1.53" r="0.12" fill="rgb(110.5,189.5,22.5)"/><path d="M 0,1.5 
						q 0.41625 1.48875 0.375,0.5 q 1.10625 1.48875 0.9375,0.075 q 0.61125 1.48875 -1.3125,1 
						M 0,1.5 
						q -0.41625 1.48875 -0.375,0.5 q -1.10625 1.48875 -0.9375,0.075 q -0.61125 1.48875 1.3125,1 " 
						transform="rotate(288 0,1.5 )"
						stroke-width ="0.1"
						fill="rgb(151,176,80)"
						/><circle cx="0" cy="1.5" r="0.18" fill="rgb(91,181,9)"/><circle cx="0.03" cy="1.49" r="0.12" fill="rgb(110.5,189.5,22.5)"/><path d="M 0,1.5 
						q 0.41625 1.48875 0.375,0.5 q 1.10625 1.48875 0.9375,0.075 q 0.61125 1.48875 -1.3125,1 
						M 0,1.5 
						q -0.41625 1.48875 -0.375,0.5 q -1.10625 1.48875 -0.9375,0.075 q -0.61125 1.48875 1.3125,1 " 
						transform="rotate(360 0,1.5 )"
						stroke-width ="0.1"
						fill="rgb(135.5,184.5,69.5)"
						/><circle cx="0" cy="1.5" r="0.18" fill="rgb(91,181,9)"/><circle cx="0" cy="1.45" r="0.12" fill="rgb(110.5,189.5,22.5)"/><path d="M 0,1.5 
						q 0.41625 1.48875 0.375,0.5 q 1.10625 1.48875 0.9375,0.075 q 0.61125 1.48875 -1.3125,1 
						M 0,1.5 
						q -0.41625 1.48875 -0.375,0.5 q -1.10625 1.48875 -0.9375,0.075 q -0.61125 1.48875 1.3125,1 " 
						transform="rotate(432 0,1.5 )"
						stroke-width ="0.1"
						fill="rgb(147,181,73)"
						/><circle cx="0" cy="1.5" r="0.18" fill="rgb(91,181,9)"/><circle cx="0.01" cy="1.49" r="0.12" fill="rgb(110.5,189.5,22.5)"/><path d="M 0,1.5 
						q 0.41625 1.48875 0.375,0.5 q 1.10625 1.48875 0.9375,0.075 q 0.61125 1.48875 -1.3125,1 
						M 0,1.5 
						q -0.41625 1.48875 -0.375,0.5 q -1.10625 1.48875 -0.9375,0.075 q -0.61125 1.48875 1.3125,1 " 
						transform="rotate(504 0,1.5 )"
						stroke-width ="0.1"
						fill="rgb(136.5,176.5,67.5)"
						/><circle cx="0" cy="1.5" r="0.18" fill="rgb(91,181,9)"/><circle cx="-0.07" cy="1.54" r="0.12" fill="rgb(110.5,189.5,22.5)"/><path d="M 0,1.5 
						q 0.41625 1.48875 0.375,0.5 q 1.10625 1.48875 0.9375,0.075 q 0.61125 1.48875 -1.3125,1 
						M 0,1.5 
						q -0.41625 1.48875 -0.375,0.5 q -1.10625 1.48875 -0.9375,0.075 q -0.61125 1.48875 1.3125,1 " 
						transform="rotate(576 0,1.5 )"
						stroke-width ="0.1"
						fill="rgb(141,172,80)"
						/><circle cx="0" cy="1.5" r="0.18" fill="rgb(91,181,9)"/><circle cx="-0.09" cy="1.56" r="0.12" fill="rgb(110.5,189.5,22.5)"/><path d="M 0,1.5 
						q 0.41625 1.48875 0.375,0.5 q 1.10625 1.48875 0.9375,0.075 q 0.61125 1.48875 -1.3125,1 
						M 0,1.5 
						q -0.41625 1.48875 -0.375,0.5 q -1.10625 1.48875 -0.9375,0.075 q -0.61125 1.48875 1.3125,1 " 
						transform="rotate(648 0,1.5 )"
						stroke-width ="0.1"
						fill="rgb(134.5,165.5,76.5)"
						/><circle cx="0" cy="1.5" r="0.18" fill="rgb(91,181,9)"/><circle cx="0" cy="1.46" r="0.12" fill="rgb(110.5,189.5,22.5)"/><path d="M 0,1.5 
						q 0.41625 1.48875 0.375,0.5 q 1.10625 1.48875 0.9375,0.075 q 0.61125 1.48875 -1.3125,1 
						M 0,1.5 
						q -0.41625 1.48875 -0.375,0.5 q -1.10625 1.48875 -0.9375,0.075 q -0.61125 1.48875 1.3125,1 " 
						transform="rotate(720 0,1.5 )"
						stroke-width ="0.1"
						fill="rgb(125,164,67)"
						/><circle cx="0" cy="1.5" r="0.18" fill="rgb(91,181,9)"/><circle cx="0.01" cy="1.49" r="0.12" fill="rgb(110.5,189.5,22.5)"/></g><g id="flower4"><path d="M 0,2 
						q 0.555 1.985 0.5,0.66666666666667 q 1.475 1.985 1.25,0.1 q 0.815 1.985 -1.75,1.2333333333333 
						M 0,2 
						q -0.555 1.985 -0.5,0.66666666666667 q -1.475 1.985 -1.25,0.1 q -0.815 1.985 1.75,1.2333333333333 " 
						transform="rotate(0 0,2 )"
						stroke-width ="0.1"
						fill="rgb(142,190,97)"
						/><circle cx="0" cy="2" r="0.24" fill="rgb(87,183,14)"/><circle cx="0.1" cy="2" r="0.16" fill="rgb(93.5,197.5,29.5)"/><path d="M 0,2 
						q 0.555 1.985 0.5,0.66666666666667 q 1.475 1.985 1.25,0.1 q 0.815 1.985 -1.75,1.2333333333333 
						M 0,2 
						q -0.555 1.985 -0.5,0.66666666666667 q -1.475 1.985 -1.25,0.1 q -0.815 1.985 1.75,1.2333333333333 " 
						transform="rotate(72 0,2 )"
						stroke-width ="0.1"
						fill="rgb(145.5,186.5,95.5)"
						/><circle cx="0" cy="2" r="0.24" fill="rgb(87,183,14)"/><circle cx="-0.02" cy="2" r="0.16" fill="rgb(93.5,197.5,29.5)"/><path d="M 0,2 
						q 0.555 1.985 0.5,0.66666666666667 q 1.475 1.985 1.25,0.1 q 0.815 1.985 -1.75,1.2333333333333 
						M 0,2 
						q -0.555 1.985 -0.5,0.66666666666667 q -1.475 1.985 -1.25,0.1 q -0.815 1.985 1.75,1.2333333333333 " 
						transform="rotate(144 0,2 )"
						stroke-width ="0.1"
						fill="rgb(156,199,90)"
						/><circle cx="0" cy="2" r="0.24" fill="rgb(87,183,14)"/><circle cx="-0.02" cy="1.94" r="0.16" fill="rgb(93.5,197.5,29.5)"/><path d="M 0,2 
						q 0.555 1.985 0.5,0.66666666666667 q 1.475 1.985 1.25,0.1 q 0.815 1.985 -1.75,1.2333333333333 
						M 0,2 
						q -0.555 1.985 -0.5,0.66666666666667 q -1.475 1.985 -1.25,0.1 q -0.815 1.985 1.75,1.2333333333333 " 
						transform="rotate(216 0,2 )"
						stroke-width ="0.1"
						fill="rgb(135.5,194.5,82.5)"
						/><circle cx="0" cy="2" r="0.24" fill="rgb(87,183,14)"/><circle cx="-0.09" cy="1.99" r="0.16" fill="rgb(93.5,197.5,29.5)"/><path d="M 0,2 
						q 0.555 1.985 0.5,0.66666666666667 q 1.475 1.985 1.25,0.1 q 0.815 1.985 -1.75,1.2333333333333 
						M 0,2 
						q -0.555 1.985 -0.5,0.66666666666667 q -1.475 1.985 -1.25,0.1 q -0.815 1.985 1.75,1.2333333333333 " 
						transform="rotate(288 0,2 )"
						stroke-width ="0.1"
						fill="rgb(144,194,82)"
						/><circle cx="0" cy="2" r="0.24" fill="rgb(87,183,14)"/><circle cx="-0.07" cy="1.95" r="0.16" fill="rgb(93.5,197.5,29.5)"/><path d="M 0,2 
						q 0.555 1.985 0.5,0.66666666666667 q 1.475 1.985 1.25,0.1 q 0.815 1.985 -1.75,1.2333333333333 
						M 0,2 
						q -0.555 1.985 -0.5,0.66666666666667 q -1.475 1.985 -1.25,0.1 q -0.815 1.985 1.75,1.2333333333333 " 
						transform="rotate(360 0,2 )"
						stroke-width ="0.1"
						fill="rgb(137.5,176.5,74.5)"
						/><circle cx="0" cy="2" r="0.24" fill="rgb(87,183,14)"/><circle cx="0.08" cy="1.92" r="0.16" fill="rgb(93.5,197.5,29.5)"/><path d="M 0,2 
						q 0.555 1.985 0.5,0.66666666666667 q 1.475 1.985 1.25,0.1 q 0.815 1.985 -1.75,1.2333333333333 
						M 0,2 
						q -0.555 1.985 -0.5,0.66666666666667 q -1.475 1.985 -1.25,0.1 q -0.815 1.985 1.75,1.2333333333333 " 
						transform="rotate(432 0,2 )"
						stroke-width ="0.1"
						fill="rgb(129,183,75)"
						/><circle cx="0" cy="2" r="0.24" fill="rgb(87,183,14)"/><circle cx="0.03" cy="2.04" r="0.16" fill="rgb(93.5,197.5,29.5)"/><path d="M 0,2 
						q 0.555 1.985 0.5,0.66666666666667 q 1.475 1.985 1.25,0.1 q 0.815 1.985 -1.75,1.2333333333333 
						M 0,2 
						q -0.555 1.985 -0.5,0.66666666666667 q -1.475 1.985 -1.25,0.1 q -0.815 1.985 1.75,1.2333333333333 " 
						transform="rotate(504 0,2 )"
						stroke-width ="0.1"
						fill="rgb(143.5,176.5,78.5)"
						/><circle cx="0" cy="2" r="0.24" fill="rgb(87,183,14)"/><circle cx="0.04" cy="1.94" r="0.16" fill="rgb(93.5,197.5,29.5)"/><path d="M 0,2 
						q 0.555 1.985 0.5,0.66666666666667 q 1.475 1.985 1.25,0.1 q 0.815 1.985 -1.75,1.2333333333333 
						M 0,2 
						q -0.555 1.985 -0.5,0.66666666666667 q -1.475 1.985 -1.25,0.1 q -0.815 1.985 1.75,1.2333333333333 " 
						transform="rotate(576 0,2 )"
						stroke-width ="0.1"
						fill="rgb(136,167,70)"
						/><circle cx="0" cy="2" r="0.24" fill="rgb(87,183,14)"/><circle cx="-0.03" cy="2" r="0.16" fill="rgb(93.5,197.5,29.5)"/><path d="M 0,2 
						q 0.555 1.985 0.5,0.66666666666667 q 1.475 1.985 1.25,0.1 q 0.815 1.985 -1.75,1.2333333333333 
						M 0,2 
						q -0.555 1.985 -0.5,0.66666666666667 q -1.475 1.985 -1.25,0.1 q -0.815 1.985 1.75,1.2333333333333 " 
						transform="rotate(648 0,2 )"
						stroke-width ="0.1"
						fill="rgb(133.5,181.5,71.5)"
						/><circle cx="0" cy="2" r="0.24" fill="rgb(87,183,14)"/><circle cx="0" cy="1.91" r="0.16" fill="rgb(93.5,197.5,29.5)"/><path d="M 0,2 
						q 0.555 1.985 0.5,0.66666666666667 q 1.475 1.985 1.25,0.1 q 0.815 1.985 -1.75,1.2333333333333 
						M 0,2 
						q -0.555 1.985 -0.5,0.66666666666667 q -1.475 1.985 -1.25,0.1 q -0.815 1.985 1.75,1.2333333333333 " 
						transform="rotate(720 0,2 )"
						stroke-width ="0.1"
						fill="rgb(118,179,63)"
						/><circle cx="0" cy="2" r="0.24" fill="rgb(87,183,14)"/><circle cx="-0.05" cy="1.92" r="0.16" fill="rgb(93.5,197.5,29.5)"/></g><g id="flower5"><path d="M 0,2.5 
						q 0.69375 2.48125 0.625,0.83333333333333 q 1.84375 2.48125 1.5625,0.125 q 1.01875 2.48125 -2.1875,1.5416666666667 
						M 0,2.5 
						q -0.69375 2.48125 -0.625,0.83333333333333 q -1.84375 2.48125 -1.5625,0.125 q -1.01875 2.48125 2.1875,1.5416666666667 " 
						transform="rotate(0 0,2.5 )"
						stroke-width ="0.1"
						fill="rgb(153,203,93)"
						/><path d="M 0,2.5 
						q 0.69375 2.48125 0.625,0.83333333333333 q 1.84375 2.48125 1.5625,0.125 q 1.01875 2.48125 -2.1875,1.5416666666667 
						M 0,2.5 
						q -0.69375 2.48125 -0.625,0.83333333333333 q -1.84375 2.48125 -1.5625,0.125 q -1.01875 2.48125 2.1875,1.5416666666667 " 
						transform="rotate(36 0,2.5 )"
						stroke-width ="0.1"
						fill="rgb(141.5,181.5,95.5)"
						/><path d="M 0,2.5 
						q 0.69375 2.48125 0.625,0.83333333333333 q 1.84375 2.48125 1.5625,0.125 q 1.01875 2.48125 -2.1875,1.5416666666667 
						M 0,2.5 
						q -0.69375 2.48125 -0.625,0.83333333333333 q -1.84375 2.48125 -1.5625,0.125 q -1.01875 2.48125 2.1875,1.5416666666667 " 
						transform="rotate(72 0,2.5 )"
						stroke-width ="0.1"
						fill="rgb(155,189,83)"
						/></g><g id="flower6"><path d="M 0,3 
						q 0.8325 2.9775 0.75,1 q 2.2125 2.9775 1.875,0.15 q 1.2225 2.9775 -2.625,1.85 
						M 0,3 
						q -0.8325 2.9775 -0.75,1 q -2.2125 2.9775 -1.875,0.15 q -1.2225 2.9775 2.625,1.85 " 
						transform="rotate(0 0,3 )"
						stroke-width ="0.1"
						fill="rgb(157,187,99)"
						/><path d="M 0,3 
						q 0.8325 2.9775 0.75,1 q 2.2125 2.9775 1.875,0.15 q 1.2225 2.9775 -2.625,1.85 
						M 0,3 
						q -0.8325 2.9775 -0.75,1 q -2.2125 2.9775 -1.875,0.15 q -1.2225 2.9775 2.625,1.85 " 
						transform="rotate(36 0,3 )"
						stroke-width ="0.1"
						fill="rgb(154.5,181.5,92.5)"
						/><path d="M 0,3 
						q 0.8325 2.9775 0.75,1 q 2.2125 2.9775 1.875,0.15 q 1.2225 2.9775 -2.625,1.85 
						M 0,3 
						q -0.8325 2.9775 -0.75,1 q -2.2125 2.9775 -1.875,0.15 q -1.2225 2.9775 2.625,1.85 " 
						transform="rotate(72 0,3 )"
						stroke-width ="0.1"
						fill="rgb(152,179,88)"
						/></g><g id="flower7"><path d="M 0,3.5 
						q 0.97125 3.47375 0.875,1.1666666666667 q 2.58125 3.47375 2.1875,0.175 q 1.42625 3.47375 -3.0625,2.1583333333333 
						M 0,3.5 
						q -0.97125 3.47375 -0.875,1.1666666666667 q -2.58125 3.47375 -2.1875,0.175 q -1.42625 3.47375 3.0625,2.1583333333333 " 
						transform="rotate(0 0,3.5 )"
						stroke-width ="0.1"
						fill="rgb(156,192,84)"
						/><circle cx="0" cy="3.5" r="0.42" fill="rgb(88,182,6)"/><circle cx="-0.01" cy="3.58" r="0.28" fill="rgb(102.5,194.5,13.5)"/><path d="M 0,3.5 
						q 0.97125 3.47375 0.875,1.1666666666667 q 2.58125 3.47375 2.1875,0.175 q 1.42625 3.47375 -3.0625,2.1583333333333 
						M 0,3.5 
						q -0.97125 3.47375 -0.875,1.1666666666667 q -2.58125 3.47375 -2.1875,0.175 q -1.42625 3.47375 3.0625,2.1583333333333 " 
						transform="rotate(72 0,3.5 )"
						stroke-width ="0.1"
						fill="rgb(143.5,187.5,98.5)"
						/><circle cx="0" cy="3.5" r="0.42" fill="rgb(88,182,6)"/><circle cx="0.01" cy="3.48" r="0.28" fill="rgb(102.5,194.5,13.5)"/><path d="M 0,3.5 
						q 0.97125 3.47375 0.875,1.1666666666667 q 2.58125 3.47375 2.1875,0.175 q 1.42625 3.47375 -3.0625,2.1583333333333 
						M 0,3.5 
						q -0.97125 3.47375 -0.875,1.1666666666667 q -2.58125 3.47375 -2.1875,0.175 q -1.42625 3.47375 3.0625,2.1583333333333 " 
						transform="rotate(144 0,3.5 )"
						stroke-width ="0.1"
						fill="rgb(151,196,93)"
						/><circle cx="0" cy="3.5" r="0.42" fill="rgb(88,182,6)"/><circle cx="0.03" cy="3.59" r="0.28" fill="rgb(102.5,194.5,13.5)"/><path d="M 0,3.5 
						q 0.97125 3.47375 0.875,1.1666666666667 q 2.58125 3.47375 2.1875,0.175 q 1.42625 3.47375 -3.0625,2.1583333333333 
						M 0,3.5 
						q -0.97125 3.47375 -0.875,1.1666666666667 q -2.58125 3.47375 -2.1875,0.175 q -1.42625 3.47375 3.0625,2.1583333333333 " 
						transform="rotate(216 0,3.5 )"
						stroke-width ="0.1"
						fill="rgb(148.5,184.5,88.5)"
						/><circle cx="0" cy="3.5" r="0.42" fill="rgb(88,182,6)"/><circle cx="0.03" cy="3.46" r="0.28" fill="rgb(102.5,194.5,13.5)"/><path d="M 0,3.5 
						q 0.97125 3.47375 0.875,1.1666666666667 q 2.58125 3.47375 2.1875,0.175 q 1.42625 3.47375 -3.0625,2.1583333333333 
						M 0,3.5 
						q -0.97125 3.47375 -0.875,1.1666666666667 q -2.58125 3.47375 -2.1875,0.175 q -1.42625 3.47375 3.0625,2.1583333333333 " 
						transform="rotate(288 0,3.5 )"
						stroke-width ="0.1"
						fill="rgb(146,179,77)"
						/><circle cx="0" cy="3.5" r="0.42" fill="rgb(88,182,6)"/><circle cx="-0.03" cy="3.56" r="0.28" fill="rgb(102.5,194.5,13.5)"/><path d="M 0,3.5 
						q 0.97125 3.47375 0.875,1.1666666666667 q 2.58125 3.47375 2.1875,0.175 q 1.42625 3.47375 -3.0625,2.1583333333333 
						M 0,3.5 
						q -0.97125 3.47375 -0.875,1.1666666666667 q -2.58125 3.47375 -2.1875,0.175 q -1.42625 3.47375 3.0625,2.1583333333333 " 
						transform="rotate(360 0,3.5 )"
						stroke-width ="0.1"
						fill="rgb(138.5,175.5,75.5)"
						/><circle cx="0" cy="3.5" r="0.42" fill="rgb(88,182,6)"/><circle cx="0.07" cy="3.59" r="0.28" fill="rgb(102.5,194.5,13.5)"/><path d="M 0,3.5 
						q 0.97125 3.47375 0.875,1.1666666666667 q 2.58125 3.47375 2.1875,0.175 q 1.42625 3.47375 -3.0625,2.1583333333333 
						M 0,3.5 
						q -0.97125 3.47375 -0.875,1.1666666666667 q -2.58125 3.47375 -2.1875,0.175 q -1.42625 3.47375 3.0625,2.1583333333333 " 
						transform="rotate(432 0,3.5 )"
						stroke-width ="0.1"
						fill="rgb(144,180,80)"
						/><circle cx="0" cy="3.5" r="0.42" fill="rgb(88,182,6)"/><circle cx="-0.08" cy="3.56" r="0.28" fill="rgb(102.5,194.5,13.5)"/><path d="M 0,3.5 
						q 0.97125 3.47375 0.875,1.1666666666667 q 2.58125 3.47375 2.1875,0.175 q 1.42625 3.47375 -3.0625,2.1583333333333 
						M 0,3.5 
						q -0.97125 3.47375 -0.875,1.1666666666667 q -2.58125 3.47375 -2.1875,0.175 q -1.42625 3.47375 3.0625,2.1583333333333 " 
						transform="rotate(504 0,3.5 )"
						stroke-width ="0.1"
						fill="rgb(127.5,180.5,63.5)"
						/><circle cx="0" cy="3.5" r="0.42" fill="rgb(88,182,6)"/><circle cx="0.02" cy="3.57" r="0.28" fill="rgb(102.5,194.5,13.5)"/><path d="M 0,3.5 
						q 0.97125 3.47375 0.875,1.1666666666667 q 2.58125 3.47375 2.1875,0.175 q 1.42625 3.47375 -3.0625,2.1583333333333 
						M 0,3.5 
						q -0.97125 3.47375 -0.875,1.1666666666667 q -2.58125 3.47375 -2.1875,0.175 q -1.42625 3.47375 3.0625,2.1583333333333 " 
						transform="rotate(576 0,3.5 )"
						stroke-width ="0.1"
						fill="rgb(134,176,64)"
						/><circle cx="0" cy="3.5" r="0.42" fill="rgb(88,182,6)"/><circle cx="0.08" cy="3.57" r="0.28" fill="rgb(102.5,194.5,13.5)"/><path d="M 0,3.5 
						q 0.97125 3.47375 0.875,1.1666666666667 q 2.58125 3.47375 2.1875,0.175 q 1.42625 3.47375 -3.0625,2.1583333333333 
						M 0,3.5 
						q -0.97125 3.47375 -0.875,1.1666666666667 q -2.58125 3.47375 -2.1875,0.175 q -1.42625 3.47375 3.0625,2.1583333333333 " 
						transform="rotate(648 0,3.5 )"
						stroke-width ="0.1"
						fill="rgb(119.5,180.5,75.5)"
						/><circle cx="0" cy="3.5" r="0.42" fill="rgb(88,182,6)"/><circle cx="-0.09" cy="3.58" r="0.28" fill="rgb(102.5,194.5,13.5)"/><path d="M 0,3.5 
						q 0.97125 3.47375 0.875,1.1666666666667 q 2.58125 3.47375 2.1875,0.175 q 1.42625 3.47375 -3.0625,2.1583333333333 
						M 0,3.5 
						q -0.97125 3.47375 -0.875,1.1666666666667 q -2.58125 3.47375 -2.1875,0.175 q -1.42625 3.47375 3.0625,2.1583333333333 " 
						transform="rotate(720 0,3.5 )"
						stroke-width ="0.1"
						fill="rgb(130,163,69)"
						/><circle cx="0" cy="3.5" r="0.42" fill="rgb(88,182,6)"/><circle cx="-0.04" cy="3.59" r="0.28" fill="rgb(102.5,194.5,13.5)"/></g><g id="flower8"><path d="M 0,4 
						q 1.11 3.97 1,1.3333333333333 q 2.95 3.97 2.5,0.2 q 1.63 3.97 -3.5,2.4666666666667 
						M 0,4 
						q -1.11 3.97 -1,1.3333333333333 q -2.95 3.97 -2.5,0.2 q -1.63 3.97 3.5,2.4666666666667 " 
						transform="rotate(0 0,4 )"
						stroke-width ="0.1"
						fill="rgb(147,202,92)"
						/><path d="M 0,4 
						q 1.11 3.97 1,1.3333333333333 q 2.95 3.97 2.5,0.2 q 1.63 3.97 -3.5,2.4666666666667 
						M 0,4 
						q -1.11 3.97 -1,1.3333333333333 q -2.95 3.97 -2.5,0.2 q -1.63 3.97 3.5,2.4666666666667 " 
						transform="rotate(36 0,4 )"
						stroke-width ="0.1"
						fill="rgb(150.5,196.5,88.5)"
						/><path d="M 0,4 
						q 1.11 3.97 1,1.3333333333333 q 2.95 3.97 2.5,0.2 q 1.63 3.97 -3.5,2.4666666666667 
						M 0,4 
						q -1.11 3.97 -1,1.3333333333333 q -2.95 3.97 -2.5,0.2 q -1.63 3.97 3.5,2.4666666666667 " 
						transform="rotate(72 0,4 )"
						stroke-width ="0.1"
						fill="rgb(140,186,91)"
						/></g></defs>
				<g class="fullPlant">
					<g>
					<path d ="M 40,91 
					q -9.91 -34.83 -9.732,-38.196" fill ="none" stroke ="rgb(46.5,11.5,37.5)" stroke-width ="1.35"/></g><circle cx="30.268" cy="52.804" r="0.675" fill="rgb(46.5,11.5,37.5)"/><use xlink:href="#leaf6"
						x="40" y="91" 
						transform="rotate(213 40 91)" 	
						fill="rgb(50,132,138)" /><use xlink:href="#leaf7"
						x="40" y="91" 
						transform="rotate(211 40 91)" 	
						fill="rgb(55,151,124)" /><use xlink:href="#flower6" id="fleur00"
						x="30.268" y="48.804" transform="rotate(153 30.268 52.804)" />
					<g>
					<path d ="M 41,91 
					q 9.91 -23.93 7.056,-27.396" fill ="none" stroke ="rgb(47,10,37)" stroke-width ="1.35"/></g><circle cx="48.056" cy="63.604" r="0.675" fill="rgb(47,10,37)"/><use xlink:href="#leaf7"
						x="41" y="91" 
						transform="rotate(136 41 91)" 	
						fill="rgb(49,114,113)" /><use xlink:href="#leaf5"
						x="41" y="91" 
						transform="rotate(155 41 91)" 	
						fill="rgb(55,123,124)" /><use xlink:href="#flower7" id="fleur10"
						x="48.056" y="59.604" transform="rotate(91 48.056 63.604)" /></g>
				</svg>