<svg class="relie" xmlns="http://www.w3.org/2000/svg" viewBox="0 0 100 100" preserveAspectRatio="xMidYMid meet" x="0" y="0" overflow="visible" xmlns:xlink="http://www.w3.org/1999/xlink">

		<defs>  <g id="leaf1" transform="skewX(-10) skewY(-10)"><path d="M 0,0 
					q 0.01125 0.01125 0.575,0.375 q 0.01125 0.01125 0.5,0.375 q 0.01125 0.01125 -0.125,0.375 q 0.01125 0.01125 -0.125,0.375 q 0.01125 0.01125 -0.825,1 
					M 0,0 
					q -0.01125 0.01125 -0.575,0.375 q -0.01125 0.01125 -0.5,0.375 q -0.01125 0.01125 0.125,0.375 q -0.01125 0.01125 0.125,0.375 q -0.01125 0.01125 0.825,1 " 
					stroke-width ="0.2" /></g>  <g id="leaf2" transform="skewX(1) skewY(1)"><path d="M 0,0 
					q 0.0225 0.0225 0.95,0.75 q 0.0225 0.0225 1,0.75 q 0.0225 0.0225 -0.25,0.75 q 0.0225 0.0225 -0.25,0.75 q 0.0225 0.0225 -1.45,1 
					M 0,0 
					q -0.0225 0.0225 -0.95,0.75 q -0.0225 0.0225 -1,0.75 q -0.0225 0.0225 0.25,0.75 q -0.0225 0.0225 0.25,0.75 q -0.0225 0.0225 1.45,1 " 
					stroke-width ="0.2" /></g>  <g id="leaf3" transform="skewX(2) skewY(2)"><path d="M 0,0 
					q 0.03375 0.03375 1.325,1.125 q 0.03375 0.03375 1.5,1.125 q 0.03375 0.03375 -0.375,1.125 q 0.03375 0.03375 -0.375,1.125 q 0.03375 0.03375 -2.075,1.125 
					M 0,0 
					q -0.03375 0.03375 -1.325,1.125 q -0.03375 0.03375 -1.5,1.125 q -0.03375 0.03375 0.375,1.125 q -0.03375 0.03375 0.375,1.125 q -0.03375 0.03375 2.075,1.125 " 
					stroke-width ="0.2" /></g>  <g id="leaf4" transform="skewX(4) skewY(4)"><path d="M 0,0 
					q 0.045 0.045 1.7,1.5 q 0.045 0.045 2,1.5 q 0.045 0.045 -0.5,1.5 q 0.045 0.045 -0.5,1.5 q 0.045 0.045 -2.7,1.5 
					M 0,0 
					q -0.045 0.045 -1.7,1.5 q -0.045 0.045 -2,1.5 q -0.045 0.045 0.5,1.5 q -0.045 0.045 0.5,1.5 q -0.045 0.045 2.7,1.5 " 
					stroke-width ="0.2" /></g>  <g id="leaf5" transform="skewX(-12) skewY(-12)"><path d="M 0,0 
					q 0.05625 0.05625 2.075,1.875 q 0.05625 0.05625 2.5,1.875 q 0.05625 0.05625 -0.625,1.875 q 0.05625 0.05625 -0.625,1.875 q 0.05625 0.05625 -3.325,1.875 
					M 0,0 
					q -0.05625 0.05625 -2.075,1.875 q -0.05625 0.05625 -2.5,1.875 q -0.05625 0.05625 0.625,1.875 q -0.05625 0.05625 0.625,1.875 q -0.05625 0.05625 3.325,1.875 " 
					stroke-width ="0.2" /></g>  <g id="leaf6" transform="skewX(19) skewY(19)"><path d="M 0,0 
					q 0.0675 0.0675 2.45,2.25 q 0.0675 0.0675 3,2.25 q 0.0675 0.0675 -0.75,2.25 q 0.0675 0.0675 -0.75,2.25 q 0.0675 0.0675 -3.95,2.25 
					M 0,0 
					q -0.0675 0.0675 -2.45,2.25 q -0.0675 0.0675 -3,2.25 q -0.0675 0.0675 0.75,2.25 q -0.0675 0.0675 0.75,2.25 q -0.0675 0.0675 3.95,2.25 " 
					stroke-width ="0.2" /></g>  <g id="leaf7" transform="skewX(-10) skewY(-10)"><path d="M 0,0 
					q 0.07875 0.07875 2.825,2.625 q 0.07875 0.07875 3.5,2.625 q 0.07875 0.07875 -0.875,2.625 q 0.07875 0.07875 -0.875,2.625 q 0.07875 0.07875 -4.575,2.625 
					M 0,0 
					q -0.07875 0.07875 -2.825,2.625 q -0.07875 0.07875 -3.5,2.625 q -0.07875 0.07875 0.875,2.625 q -0.07875 0.07875 0.875,2.625 q -0.07875 0.07875 4.575,2.625 " 
					stroke-width ="0.2" /></g>  <g id="leaf8" transform="skewX(-5) skewY(-5)"><path d="M 0,0 
					q 0.09 0.09 3.2,3 q 0.09 0.09 4,3 q 0.09 0.09 -1,3 q 0.09 0.09 -1,3 q 0.09 0.09 -5.2,3 
					M 0,0 
					q -0.09 0.09 -3.2,3 q -0.09 0.09 -4,3 q -0.09 0.09 1,3 q -0.09 0.09 1,3 q -0.09 0.09 5.2,3 " 
					stroke-width ="0.2" /></g><g id="flower1" transform="skewX(3) skewY(3)">
						<path d="M 0,0
						Q 0.37,0.375 0,1.755"
						stroke="rgb(98,201,10)" 
						fill="transparent"
						stroke-width ="0.3" /><path d="M 0,1.755 
						q 0.0875 0.1 0.575,0.1875 q 0.0375 0.0125 0.5,0.1875 q 0.1125 0.1125 -0.125,0.1875 q 0.1125 0.075 -0.95,1 
						M 0,1.755 
						q -0.0875 0.1 -0.575,0.1875 q -0.0375 0.0125 -0.5,0.1875 q -0.1125 0.1125 0.125,0.1875 q -0.1125 0.075 0.95,1 " 
						transform="rotate(0 0,1.755 )"
						stroke-width ="0.1"
						fill="rgb(167,222,202)"
						/><path d="M 0,1.755 
						q 0.0875 0.1 0.575,0.1875 q 0.0375 0.0125 0.5,0.1875 q 0.1125 0.1125 -0.125,0.1875 q 0.1125 0.075 -0.95,1 
						M 0,1.755 
						q -0.0875 0.1 -0.575,0.1875 q -0.0375 0.0125 -0.5,0.1875 q -0.1125 0.1125 0.125,0.1875 q -0.1125 0.075 0.95,1 " 
						transform="rotate(36 0,1.755 )"
						stroke-width ="0.1"
						fill="rgb(165.5,208.5,214.5)"
						/></g><g id="flower2" transform="skewX(-8) skewY(-8)">
						<path d="M 0,0
						Q 1.26,0.75 0,3.51"
						stroke="rgb(98,201,10)" 
						fill="transparent"
						stroke-width ="0.3" /><path d="M 0,3.51 
						q 0.175 0.2 0.95,0.375 q 0.075 0.025 1,0.375 q 0.225 0.225 -0.25,0.375 q 0.225 0.15 -1.7,1 
						M 0,3.51 
						q -0.175 0.2 -0.95,0.375 q -0.075 0.025 -1,0.375 q -0.225 0.225 0.25,0.375 q -0.225 0.15 1.7,1 " 
						transform="rotate(0 0,3.51 )"
						stroke-width ="0.1"
						fill="rgb(180,209,210)"
						/><path d="M 0,3.51 
						q 0.175 0.2 0.95,0.375 q 0.075 0.025 1,0.375 q 0.225 0.225 -0.25,0.375 q 0.225 0.15 -1.7,1 
						M 0,3.51 
						q -0.175 0.2 -0.95,0.375 q -0.075 0.025 -1,0.375 q -0.225 0.225 0.25,0.375 q -0.225 0.15 1.7,1 " 
						transform="rotate(36 0,3.51 )"
						stroke-width ="0.1"
						fill="rgb(173.5,211.5,208.5)"
						/></g><g id="flower3" transform="skewX(4) skewY(4)">
						<path d="M 0,0
						Q 0.39,1.125 0,5.265"
						stroke="rgb(98,201,10)" 
						fill="transparent"
						stroke-width ="0.3" /><path d="M 0,5.265 
						q 0.2625 0.3 1.325,0.5625 q 0.1125 0.0375 1.5,0.5625 q 0.3375 0.3375 -0.375,0.5625 q 0.3375 0.225 -2.45,1 
						M 0,5.265 
						q -0.2625 0.3 -1.325,0.5625 q -0.1125 0.0375 -1.5,0.5625 q -0.3375 0.3375 0.375,0.5625 q -0.3375 0.225 2.45,1 " 
						transform="rotate(0 0,5.265 )"
						stroke-width ="0.1"
						fill="rgb(168,212,204)"
						/><circle cx="0" cy="5.265" r="0.7875" fill="rgb(82,68,70)"/><circle cx="0.02" cy="5.285" r="0.525" fill="rgb(87.5,79.5,74.5)"/><path d="M 0,5.265 
						q 0.2625 0.3 1.325,0.5625 q 0.1125 0.0375 1.5,0.5625 q 0.3375 0.3375 -0.375,0.5625 q 0.3375 0.225 -2.45,1 
						M 0,5.265 
						q -0.2625 0.3 -1.325,0.5625 q -0.1125 0.0375 -1.5,0.5625 q -0.3375 0.3375 0.375,0.5625 q -0.3375 0.225 2.45,1 " 
						transform="rotate(120 0,5.265 )"
						stroke-width ="0.1"
						fill="rgb(163.5,209.5,201.5)"
						/><circle cx="0" cy="5.265" r="0.7875" fill="rgb(82,68,70)"/><circle cx="0.1" cy="5.175" r="0.525" fill="rgb(87.5,79.5,74.5)"/><path d="M 0,5.265 
						q 0.2625 0.3 1.325,0.5625 q 0.1125 0.0375 1.5,0.5625 q 0.3375 0.3375 -0.375,0.5625 q 0.3375 0.225 -2.45,1 
						M 0,5.265 
						q -0.2625 0.3 -1.325,0.5625 q -0.1125 0.0375 -1.5,0.5625 q -0.3375 0.3375 0.375,0.5625 q -0.3375 0.225 2.45,1 " 
						transform="rotate(240 0,5.265 )"
						stroke-width ="0.1"
						fill="rgb(167,215,197)"
						/><circle cx="0" cy="5.265" r="0.7875" fill="rgb(82,68,70)"/><circle cx="0.04" cy="5.305" r="0.525" fill="rgb(87.5,79.5,74.5)"/><path d="M 0,5.265 
						q 0.2625 0.3 1.325,0.5625 q 0.1125 0.0375 1.5,0.5625 q 0.3375 0.3375 -0.375,0.5625 q 0.3375 0.225 -2.45,1 
						M 0,5.265 
						q -0.2625 0.3 -1.325,0.5625 q -0.1125 0.0375 -1.5,0.5625 q -0.3375 0.3375 0.375,0.5625 q -0.3375 0.225 2.45,1 " 
						transform="rotate(360 0,5.265 )"
						stroke-width ="0.1"
						fill="rgb(171.5,207.5,193.5)"
						/><circle cx="0" cy="5.265" r="0.7875" fill="rgb(82,68,70)"/><circle cx="0" cy="5.295" r="0.525" fill="rgb(87.5,79.5,74.5)"/><path d="M 0,5.265 
						q 0.2625 0.3 1.325,0.5625 q 0.1125 0.0375 1.5,0.5625 q 0.3375 0.3375 -0.375,0.5625 q 0.3375 0.225 -2.45,1 
						M 0,5.265 
						q -0.2625 0.3 -1.325,0.5625 q -0.1125 0.0375 -1.5,0.5625 q -0.3375 0.3375 0.375,0.5625 q -0.3375 0.225 2.45,1 " 
						transform="rotate(480 0,5.265 )"
						stroke-width ="0.1"
						fill="rgb(154,201,196)"
						/><circle cx="0" cy="5.265" r="0.7875" fill="rgb(82,68,70)"/><circle cx="-0.06" cy="5.205" r="0.525" fill="rgb(87.5,79.5,74.5)"/><path d="M 0,5.265 
						q 0.2625 0.3 1.325,0.5625 q 0.1125 0.0375 1.5,0.5625 q 0.3375 0.3375 -0.375,0.5625 q 0.3375 0.225 -2.45,1 
						M 0,5.265 
						q -0.2625 0.3 -1.325,0.5625 q -0.1125 0.0375 -1.5,0.5625 q -0.3375 0.3375 0.375,0.5625 q -0.3375 0.225 2.45,1 " 
						transform="rotate(600 0,5.265 )"
						stroke-width ="0.1"
						fill="rgb(155.5,207.5,194.5)"
						/><circle cx="0" cy="5.265" r="0.7875" fill="rgb(82,68,70)"/><circle cx="-0.07" cy="5.215" r="0.525" fill="rgb(87.5,79.5,74.5)"/><path d="M 0,5.265 
						q 0.2625 0.3 1.325,0.5625 q 0.1125 0.0375 1.5,0.5625 q 0.3375 0.3375 -0.375,0.5625 q 0.3375 0.225 -2.45,1 
						M 0,5.265 
						q -0.2625 0.3 -1.325,0.5625 q -0.1125 0.0375 -1.5,0.5625 q -0.3375 0.3375 0.375,0.5625 q -0.3375 0.225 2.45,1 " 
						transform="rotate(720 0,5.265 )"
						stroke-width ="0.1"
						fill="rgb(152,197,200)"
						/><circle cx="0" cy="5.265" r="0.7875" fill="rgb(82,68,70)"/><circle cx="0" cy="5.265" r="0.525" fill="rgb(87.5,79.5,74.5)"/></g><g id="flower4" transform="skewX(1) skewY(1)">
						<path d="M 0,0
						Q 1.49,1.5 0,7.02"
						stroke="rgb(98,201,10)" 
						fill="transparent"
						stroke-width ="0.3" /><path d="M 0,7.02 
						q 0.35 0.4 1.7,0.75 q 0.15 0.05 2,0.75 q 0.45 0.45 -0.5,0.75 q 0.45 0.3 -3.2,1 
						M 0,7.02 
						q -0.35 0.4 -1.7,0.75 q -0.15 0.05 -2,0.75 q -0.45 0.45 0.5,0.75 q -0.45 0.3 3.2,1 " 
						transform="rotate(0 0,7.02 )"
						stroke-width ="0.1"
						fill="rgb(177,212,201)"
						/><circle cx="0" cy="7.02" r="1.05" fill="rgb(81,65,70)"/><circle cx="0" cy="6.98" r="0.7" fill="rgb(83.5,76.5,75.5)"/><path d="M 0,7.02 
						q 0.35 0.4 1.7,0.75 q 0.15 0.05 2,0.75 q 0.45 0.45 -0.5,0.75 q 0.45 0.3 -3.2,1 
						M 0,7.02 
						q -0.35 0.4 -1.7,0.75 q -0.15 0.05 -2,0.75 q -0.45 0.45 0.5,0.75 q -0.45 0.3 3.2,1 " 
						transform="rotate(120 0,7.02 )"
						stroke-width ="0.1"
						fill="rgb(162.5,207.5,204.5)"
						/><circle cx="0" cy="7.02" r="1.05" fill="rgb(81,65,70)"/><circle cx="0.01" cy="6.93" r="0.7" fill="rgb(83.5,76.5,75.5)"/><path d="M 0,7.02 
						q 0.35 0.4 1.7,0.75 q 0.15 0.05 2,0.75 q 0.45 0.45 -0.5,0.75 q 0.45 0.3 -3.2,1 
						M 0,7.02 
						q -0.35 0.4 -1.7,0.75 q -0.15 0.05 -2,0.75 q -0.45 0.45 0.5,0.75 q -0.45 0.3 3.2,1 " 
						transform="rotate(240 0,7.02 )"
						stroke-width ="0.1"
						fill="rgb(166,203,197)"
						/><circle cx="0" cy="7.02" r="1.05" fill="rgb(81,65,70)"/><circle cx="0.04" cy="6.94" r="0.7" fill="rgb(83.5,76.5,75.5)"/><path d="M 0,7.02 
						q 0.35 0.4 1.7,0.75 q 0.15 0.05 2,0.75 q 0.45 0.45 -0.5,0.75 q 0.45 0.3 -3.2,1 
						M 0,7.02 
						q -0.35 0.4 -1.7,0.75 q -0.15 0.05 -2,0.75 q -0.45 0.45 0.5,0.75 q -0.45 0.3 3.2,1 " 
						transform="rotate(360 0,7.02 )"
						stroke-width ="0.1"
						fill="rgb(162.5,202.5,196.5)"
						/><circle cx="0" cy="7.02" r="1.05" fill="rgb(81,65,70)"/><circle cx="-0.03" cy="7.07" r="0.7" fill="rgb(83.5,76.5,75.5)"/><path d="M 0,7.02 
						q 0.35 0.4 1.7,0.75 q 0.15 0.05 2,0.75 q 0.45 0.45 -0.5,0.75 q 0.45 0.3 -3.2,1 
						M 0,7.02 
						q -0.35 0.4 -1.7,0.75 q -0.15 0.05 -2,0.75 q -0.45 0.45 0.5,0.75 q -0.45 0.3 3.2,1 " 
						transform="rotate(480 0,7.02 )"
						stroke-width ="0.1"
						fill="rgb(172,196,198)"
						/><circle cx="0" cy="7.02" r="1.05" fill="rgb(81,65,70)"/><circle cx="-0.08" cy="6.95" r="0.7" fill="rgb(83.5,76.5,75.5)"/><path d="M 0,7.02 
						q 0.35 0.4 1.7,0.75 q 0.15 0.05 2,0.75 q 0.45 0.45 -0.5,0.75 q 0.45 0.3 -3.2,1 
						M 0,7.02 
						q -0.35 0.4 -1.7,0.75 q -0.15 0.05 -2,0.75 q -0.45 0.45 0.5,0.75 q -0.45 0.3 3.2,1 " 
						transform="rotate(600 0,7.02 )"
						stroke-width ="0.1"
						fill="rgb(160.5,211.5,196.5)"
						/><circle cx="0" cy="7.02" r="1.05" fill="rgb(81,65,70)"/><circle cx="-0.01" cy="6.99" r="0.7" fill="rgb(83.5,76.5,75.5)"/><path d="M 0,7.02 
						q 0.35 0.4 1.7,0.75 q 0.15 0.05 2,0.75 q 0.45 0.45 -0.5,0.75 q 0.45 0.3 -3.2,1 
						M 0,7.02 
						q -0.35 0.4 -1.7,0.75 q -0.15 0.05 -2,0.75 q -0.45 0.45 0.5,0.75 q -0.45 0.3 3.2,1 " 
						transform="rotate(720 0,7.02 )"
						stroke-width ="0.1"
						fill="rgb(157,202,186)"
						/><circle cx="0" cy="7.02" r="1.05" fill="rgb(81,65,70)"/><circle cx="-0.06" cy="6.94" r="0.7" fill="rgb(83.5,76.5,75.5)"/></g><g id="flower5" transform="skewX(3) skewY(3)">
						<path d="M 0,0
						Q 1.41,1.875 0,8.775"
						stroke="rgb(98,201,10)" 
						fill="transparent"
						stroke-width ="0.3" /><path d="M 0,8.775 
						q 0.4375 0.5 2.075,0.9375 q 0.1875 0.0625 2.5,0.9375 q 0.5625 0.5625 -0.625,0.9375 q 0.5625 0.375 -3.95,1 
						M 0,8.775 
						q -0.4375 0.5 -2.075,0.9375 q -0.1875 0.0625 -2.5,0.9375 q -0.5625 0.5625 0.625,0.9375 q -0.5625 0.375 3.95,1 " 
						transform="rotate(0 0,8.775 )"
						stroke-width ="0.1"
						fill="rgb(167,223,202)"
						/><path d="M 0,8.775 
						q 0.4375 0.5 2.075,0.9375 q 0.1875 0.0625 2.5,0.9375 q 0.5625 0.5625 -0.625,0.9375 q 0.5625 0.375 -3.95,1 
						M 0,8.775 
						q -0.4375 0.5 -2.075,0.9375 q -0.1875 0.0625 -2.5,0.9375 q -0.5625 0.5625 0.625,0.9375 q -0.5625 0.375 3.95,1 " 
						transform="rotate(36 0,8.775 )"
						stroke-width ="0.1"
						fill="rgb(178.5,211.5,205.5)"
						/></g><g id="flower6" transform="skewX(1) skewY(1)">
						<path d="M 0,0
						Q 1.25,2.25 0,10.53"
						stroke="rgb(98,201,10)" 
						fill="transparent"
						stroke-width ="0.3" /><path d="M 0,10.53 
						q 0.525 0.6 2.45,1.125 q 0.225 0.075 3,1.125 q 0.675 0.675 -0.75,1.125 q 0.675 0.45 -4.7,1.125 
						M 0,10.53 
						q -0.525 0.6 -2.45,1.125 q -0.225 0.075 -3,1.125 q -0.675 0.675 0.75,1.125 q -0.675 0.45 4.7,1.125 " 
						transform="rotate(0 0,10.53 )"
						stroke-width ="0.1"
						fill="rgb(179,215,198)"
						/><path d="M 0,10.53 
						q 0.525 0.6 2.45,1.125 q 0.225 0.075 3,1.125 q 0.675 0.675 -0.75,1.125 q 0.675 0.45 -4.7,1.125 
						M 0,10.53 
						q -0.525 0.6 -2.45,1.125 q -0.225 0.075 -3,1.125 q -0.675 0.675 0.75,1.125 q -0.675 0.45 4.7,1.125 " 
						transform="rotate(36 0,10.53 )"
						stroke-width ="0.1"
						fill="rgb(170.5,221.5,207.5)"
						/></g><g id="flower7" transform="skewX(8) skewY(8)">
						<path d="M 0,0
						Q 0.11,2.625 0,12.285"
						stroke="rgb(98,201,10)" 
						fill="transparent"
						stroke-width ="0.3" /><path d="M 0,12.285 
						q 0.6125 0.7 2.825,1.3125 q 0.2625 0.0875 3.5,1.3125 q 0.7875 0.7875 -0.875,1.3125 q 0.7875 0.525 -5.45,1.3125 
						M 0,12.285 
						q -0.6125 0.7 -2.825,1.3125 q -0.2625 0.0875 -3.5,1.3125 q -0.7875 0.7875 0.875,1.3125 q -0.7875 0.525 5.45,1.3125 " 
						transform="rotate(0 0,12.285 )"
						stroke-width ="0.1"
						fill="rgb(180,210,206)"
						/><circle cx="0" cy="12.285" r="1.8375" fill="rgb(74,64,71)"/><circle cx="0.02" cy="12.315" r="1.225" fill="rgb(93.5,76.5,86.5)"/><path d="M 0,12.285 
						q 0.6125 0.7 2.825,1.3125 q 0.2625 0.0875 3.5,1.3125 q 0.7875 0.7875 -0.875,1.3125 q 0.7875 0.525 -5.45,1.3125 
						M 0,12.285 
						q -0.6125 0.7 -2.825,1.3125 q -0.2625 0.0875 -3.5,1.3125 q -0.7875 0.7875 0.875,1.3125 q -0.7875 0.525 5.45,1.3125 " 
						transform="rotate(120 0,12.285 )"
						stroke-width ="0.1"
						fill="rgb(174.5,221.5,199.5)"
						/><circle cx="0" cy="12.285" r="1.8375" fill="rgb(74,64,71)"/><circle cx="-0.04" cy="12.205" r="1.225" fill="rgb(93.5,76.5,86.5)"/><path d="M 0,12.285 
						q 0.6125 0.7 2.825,1.3125 q 0.2625 0.0875 3.5,1.3125 q 0.7875 0.7875 -0.875,1.3125 q 0.7875 0.525 -5.45,1.3125 
						M 0,12.285 
						q -0.6125 0.7 -2.825,1.3125 q -0.2625 0.0875 -3.5,1.3125 q -0.7875 0.7875 0.875,1.3125 q -0.7875 0.525 5.45,1.3125 " 
						transform="rotate(240 0,12.285 )"
						stroke-width ="0.1"
						fill="rgb(162,204,195)"
						/><circle cx="0" cy="12.285" r="1.8375" fill="rgb(74,64,71)"/><circle cx="0.03" cy="12.205" r="1.225" fill="rgb(93.5,76.5,86.5)"/><path d="M 0,12.285 
						q 0.6125 0.7 2.825,1.3125 q 0.2625 0.0875 3.5,1.3125 q 0.7875 0.7875 -0.875,1.3125 q 0.7875 0.525 -5.45,1.3125 
						M 0,12.285 
						q -0.6125 0.7 -2.825,1.3125 q -0.2625 0.0875 -3.5,1.3125 q -0.7875 0.7875 0.875,1.3125 q -0.7875 0.525 5.45,1.3125 " 
						transform="rotate(360 0,12.285 )"
						stroke-width ="0.1"
						fill="rgb(176.5,211.5,191.5)"
						/><circle cx="0" cy="12.285" r="1.8375" fill="rgb(74,64,71)"/><circle cx="0.01" cy="12.205" r="1.225" fill="rgb(93.5,76.5,86.5)"/><path d="M 0,12.285 
						q 0.6125 0.7 2.825,1.3125 q 0.2625 0.0875 3.5,1.3125 q 0.7875 0.7875 -0.875,1.3125 q 0.7875 0.525 -5.45,1.3125 
						M 0,12.285 
						q -0.6125 0.7 -2.825,1.3125 q -0.2625 0.0875 -3.5,1.3125 q -0.7875 0.7875 0.875,1.3125 q -0.7875 0.525 5.45,1.3125 " 
						transform="rotate(480 0,12.285 )"
						stroke-width ="0.1"
						fill="rgb(171,197,188)"
						/><circle cx="0" cy="12.285" r="1.8375" fill="rgb(74,64,71)"/><circle cx="-0.09" cy="12.265" r="1.225" fill="rgb(93.5,76.5,86.5)"/><path d="M 0,12.285 
						q 0.6125 0.7 2.825,1.3125 q 0.2625 0.0875 3.5,1.3125 q 0.7875 0.7875 -0.875,1.3125 q 0.7875 0.525 -5.45,1.3125 
						M 0,12.285 
						q -0.6125 0.7 -2.825,1.3125 q -0.2625 0.0875 -3.5,1.3125 q -0.7875 0.7875 0.875,1.3125 q -0.7875 0.525 5.45,1.3125 " 
						transform="rotate(600 0,12.285 )"
						stroke-width ="0.1"
						fill="rgb(159.5,211.5,196.5)"
						/><circle cx="0" cy="12.285" r="1.8375" fill="rgb(74,64,71)"/><circle cx="-0.01" cy="12.365" r="1.225" fill="rgb(93.5,76.5,86.5)"/><path d="M 0,12.285 
						q 0.6125 0.7 2.825,1.3125 q 0.2625 0.0875 3.5,1.3125 q 0.7875 0.7875 -0.875,1.3125 q 0.7875 0.525 -5.45,1.3125 
						M 0,12.285 
						q -0.6125 0.7 -2.825,1.3125 q -0.2625 0.0875 -3.5,1.3125 q -0.7875 0.7875 0.875,1.3125 q -0.7875 0.525 5.45,1.3125 " 
						transform="rotate(720 0,12.285 )"
						stroke-width ="0.1"
						fill="rgb(155,203,182)"
						/><circle cx="0" cy="12.285" r="1.8375" fill="rgb(74,64,71)"/><circle cx="-0.09" cy="12.305" r="1.225" fill="rgb(93.5,76.5,86.5)"/></g><g id="flower8" transform="skewX(8) skewY(8)">
						<path d="M 0,0
						Q -0.59,3 0,14.04"
						stroke="rgb(98,201,10)" 
						fill="transparent"
						stroke-width ="0.3" /><path d="M 0,14.04 
						q 0.7 0.8 3.2,1.5 q 0.3 0.1 4,1.5 q 0.9 0.9 -1,1.5 q 0.9 0.6 -6.2,1.5 
						M 0,14.04 
						q -0.7 0.8 -3.2,1.5 q -0.3 0.1 -4,1.5 q -0.9 0.9 1,1.5 q -0.9 0.6 6.2,1.5 " 
						transform="rotate(0 0,14.04 )"
						stroke-width ="0.1"
						fill="rgb(168,219,207)"
						/><circle cx="0" cy="14.04" r="2.1" fill="rgb(75,70,68)"/><circle cx="0.09" cy="14.02" r="1.4" fill="rgb(83.5,86.5,73.5)"/><path d="M 0,14.04 
						q 0.7 0.8 3.2,1.5 q 0.3 0.1 4,1.5 q 0.9 0.9 -1,1.5 q 0.9 0.6 -6.2,1.5 
						M 0,14.04 
						q -0.7 0.8 -3.2,1.5 q -0.3 0.1 -4,1.5 q -0.9 0.9 1,1.5 q -0.9 0.6 6.2,1.5 " 
						transform="rotate(120 0,14.04 )"
						stroke-width ="0.1"
						fill="rgb(170.5,207.5,201.5)"
						/><circle cx="0" cy="14.04" r="2.1" fill="rgb(75,70,68)"/><circle cx="0.01" cy="14.1" r="1.4" fill="rgb(83.5,86.5,73.5)"/><path d="M 0,14.04 
						q 0.7 0.8 3.2,1.5 q 0.3 0.1 4,1.5 q 0.9 0.9 -1,1.5 q 0.9 0.6 -6.2,1.5 
						M 0,14.04 
						q -0.7 0.8 -3.2,1.5 q -0.3 0.1 -4,1.5 q -0.9 0.9 1,1.5 q -0.9 0.6 6.2,1.5 " 
						transform="rotate(240 0,14.04 )"
						stroke-width ="0.1"
						fill="rgb(167,217,192)"
						/><circle cx="0" cy="14.04" r="2.1" fill="rgb(75,70,68)"/><circle cx="0.06" cy="14.1" r="1.4" fill="rgb(83.5,86.5,73.5)"/><path d="M 0,14.04 
						q 0.7 0.8 3.2,1.5 q 0.3 0.1 4,1.5 q 0.9 0.9 -1,1.5 q 0.9 0.6 -6.2,1.5 
						M 0,14.04 
						q -0.7 0.8 -3.2,1.5 q -0.3 0.1 -4,1.5 q -0.9 0.9 1,1.5 q -0.9 0.6 6.2,1.5 " 
						transform="rotate(360 0,14.04 )"
						stroke-width ="0.1"
						fill="rgb(167.5,197.5,203.5)"
						/><circle cx="0" cy="14.04" r="2.1" fill="rgb(75,70,68)"/><circle cx="0.06" cy="14" r="1.4" fill="rgb(83.5,86.5,73.5)"/><path d="M 0,14.04 
						q 0.7 0.8 3.2,1.5 q 0.3 0.1 4,1.5 q 0.9 0.9 -1,1.5 q 0.9 0.6 -6.2,1.5 
						M 0,14.04 
						q -0.7 0.8 -3.2,1.5 q -0.3 0.1 -4,1.5 q -0.9 0.9 1,1.5 q -0.9 0.6 6.2,1.5 " 
						transform="rotate(480 0,14.04 )"
						stroke-width ="0.1"
						fill="rgb(170,200,194)"
						/><circle cx="0" cy="14.04" r="2.1" fill="rgb(75,70,68)"/><circle cx="0.03" cy="13.94" r="1.4" fill="rgb(83.5,86.5,73.5)"/><path d="M 0,14.04 
						q 0.7 0.8 3.2,1.5 q 0.3 0.1 4,1.5 q 0.9 0.9 -1,1.5 q 0.9 0.6 -6.2,1.5 
						M 0,14.04 
						q -0.7 0.8 -3.2,1.5 q -0.3 0.1 -4,1.5 q -0.9 0.9 1,1.5 q -0.9 0.6 6.2,1.5 " 
						transform="rotate(600 0,14.04 )"
						stroke-width ="0.1"
						fill="rgb(164.5,203.5,187.5)"
						/><circle cx="0" cy="14.04" r="2.1" fill="rgb(75,70,68)"/><circle cx="-0.08" cy="14.05" r="1.4" fill="rgb(83.5,86.5,73.5)"/><path d="M 0,14.04 
						q 0.7 0.8 3.2,1.5 q 0.3 0.1 4,1.5 q 0.9 0.9 -1,1.5 q 0.9 0.6 -6.2,1.5 
						M 0,14.04 
						q -0.7 0.8 -3.2,1.5 q -0.3 0.1 -4,1.5 q -0.9 0.9 1,1.5 q -0.9 0.6 6.2,1.5 " 
						transform="rotate(720 0,14.04 )"
						stroke-width ="0.1"
						fill="rgb(162,207,196)"
						/><circle cx="0" cy="14.04" r="2.1" fill="rgb(75,70,68)"/><circle cx="-0.06" cy="14.03" r="1.4" fill="rgb(83.5,86.5,73.5)"/></g></defs>
				<g class="fullPlant">
					<g>
					<path d ="M 50,91 
					a 82 410 -11.34 0 1 -2.688,-24.336" fill ="none" stroke ="rgb(95.5,195.5,2.5)" stroke-width ="3.492"/></g><circle cx="47.312" cy="66.664" r="0.873" stroke="rgb(100.5,200.5,7.5)" fill="rgb(95.5,195.5,2.5)"/><use xlink:href="#leaf3"
						x="47.312" y="66.664" 
						transform="rotate(-7 47.312 66.664)" 	
						fill="rgb(105,194,91)" /><use xlink:href="#leaf1"
						x="47.312" y="66.664" 
						transform="rotate(-153 47.312 66.664)" 	
						fill="rgb(101,194,89)" /><use xlink:href="#leaf1"
						x="47.312" y="66.664" 
						transform="rotate(70 48.192 67.414)" 	
						fill="rgb(137,186,91)" /><use xlink:href="#leaf1"
						x="47.312" y="66.664" 
						transform="rotate(52 47.512 67.424)" 	
						fill="rgb(119,183,77)" /><use xlink:href="#leaf3"
						x="47.312" y="66.664" 
						transform="rotate(-36 47.842 67.154)" 	
						fill="rgb(114,211,93)" /><use xlink:href="#leaf1"
						x="47.312" y="66.664" 
						transform="rotate(178 47.312 66.664)" 	
						fill="rgb(122,171,83)" /><use xlink:href="#leaf1"
						x="47.312" y="66.664" 
						transform="rotate(153 47.312 66.664)" 	
						fill="rgb(121,205,87)" /><use xlink:href="#leaf3"
						x="47.312" y="66.664" 
						transform="rotate(-84 47.972 67.574)" 	
						fill="rgb(127,173,109)" /><use xlink:href="#leaf1"
						x="47.312" y="66.664" 
						transform="rotate(-110 47.312 66.664)" 	
						fill="rgb(130,201,82)" /><use xlink:href="#leaf1"
						x="47.312" y="66.664" 
						transform="rotate(-39 47.442 66.824)" 	
						fill="rgb(107,182,85)" /><use xlink:href="#leaf2"
						x="47.312" y="66.664" 
						transform="rotate(-149 47.992 66.984)" 	
						fill="rgb(121,188,90)" /><use xlink:href="#leaf1"
						x="47.312" y="66.664" 
						transform="rotate(-169 47.312 66.664)" 	
						fill="rgb(102,206,99)" /><use xlink:href="#leaf2"
						x="47.312" y="66.664" 
						transform="rotate(91 47.312 66.664)" 	
						fill="rgb(100,200,91)" /><use xlink:href="#leaf3"
						x="47.312" y="66.664" 
						transform="rotate(-99 47.312 66.664)" 	
						fill="rgb(131,195,109)" /><use xlink:href="#leaf3"
						x="47.312" y="66.664" 
						transform="rotate(126 48.012 66.864)" 	
						fill="rgb(106,174,106)" /><use xlink:href="#leaf2"
						x="47.312" y="66.664" 
						transform="rotate(-109 47.852 67.124)" 	
						fill="rgb(128,171,74)" /><use xlink:href="#leaf3"
						x="47.312" y="66.664" 
						transform="rotate(155 47.992 66.814)" 	
						fill="rgb(113,198,82)" /><use xlink:href="#leaf1"
						x="47.312" y="66.664" 
						transform="rotate(-147 47.382 66.724)" 	
						fill="rgb(111,180,85)" />
					<g>
					<path d ="M 47.312,66.664 
					a 92 184 -12.24 0 1 1.32,-4.224" fill ="none" stroke ="rgb(96.5,194.5,2.5)" stroke-width ="1.746"/></g><circle cx="48.632" cy="62.44" r="0.4365" stroke="rgb(101.5,199.5,7.5)" fill="rgb(96.5,194.5,2.5)"/><use xlink:href="#leaf2"
						x="48.632" y="62.44" 
						transform="rotate(165 48.632 62.44)" 	
						fill="rgb(135,197,75)" /><use xlink:href="#leaf1"
						x="48.632" y="62.44" 
						transform="rotate(-36 48.632 62.44)" 	
						fill="rgb(117,202,85)" /><use xlink:href="#leaf4"
						x="48.632" y="62.44" 
						transform="rotate(-140 49.112 62.93)" 	
						fill="rgb(107,172,99)" /><use xlink:href="#leaf1"
						x="48.632" y="62.44" 
						transform="rotate(-30 48.632 62.44)" 	
						fill="rgb(105,191,99)" /><use xlink:href="#leaf1"
						x="48.632" y="62.44" 
						transform="rotate(-16 48.632 62.44)" 	
						fill="rgb(112,190,95)" /><use xlink:href="#leaf2"
						x="48.632" y="62.44" 
						transform="rotate(-140 49.222 62.55)" 	
						fill="rgb(125,176,78)" /><use xlink:href="#leaf3"
						x="48.632" y="62.44" 
						transform="rotate(144 49.482 62.8)" 	
						fill="rgb(101,192,100)" /><use xlink:href="#leaf3"
						x="48.632" y="62.44" 
						transform="rotate(63 48.632 62.44)" 	
						fill="rgb(123,197,102)" /><use xlink:href="#leaf4"
						x="48.632" y="62.44" 
						transform="rotate(-168 48.632 62.44)" 	
						fill="rgb(123,190,88)" /><use xlink:href="#leaf4"
						x="48.632" y="62.44" 
						transform="rotate(155 48.632 62.44)" 	
						fill="rgb(139,204,100)" /><use xlink:href="#leaf3"
						x="48.632" y="62.44" 
						transform="rotate(162 48.762 62.98)" 	
						fill="rgb(100,175,96)" /><use xlink:href="#flower3" id="fleur10"
							x="48.632" y="62.44" 
							transform="rotate(37 48.872 62.644)" /><use xlink:href="#flower3" id="fleur11"
							x="48.632" y="62.44" 
							transform="rotate(-52 49.664 62.536)" />
					<g>
					<path d ="M 48.632,62.44 
					a 56 392 -6.94 0 0 6.996,-6.276" fill ="none" stroke ="rgb(100,194,4)" stroke-width ="1.164"/></g><circle cx="55.628" cy="56.164" r="0.291" stroke="rgb(105,199,9)" fill="rgb(100,194,4)"/><use xlink:href="#leaf2"
						x="55.628" y="56.164" 
						transform="rotate(126 55.628 56.164)" 	
						fill="rgb(101,197,75)" /><use xlink:href="#leaf3"
						x="55.628" y="56.164" 
						transform="rotate(92 55.628 56.164)" 	
						fill="rgb(139,197,109)" /><use xlink:href="#leaf2"
						x="55.628" y="56.164" 
						transform="rotate(145 55.628 56.164)" 	
						fill="rgb(133,183,93)" /><use xlink:href="#leaf4"
						x="55.628" y="56.164" 
						transform="rotate(50 55.628 56.164)" 	
						fill="rgb(113,189,110)" /><use xlink:href="#leaf2"
						x="55.628" y="56.164" 
						transform="rotate(96 55.628 56.164)" 	
						fill="rgb(136,204,84)" /><use xlink:href="#leaf5"
						x="55.628" y="56.164" 
						transform="rotate(112 56.068 56.264)" 	
						fill="rgb(126,200,77)" /><use xlink:href="#leaf1"
						x="55.628" y="56.164" 
						transform="rotate(-155 55.628 56.164)" 	
						fill="rgb(132,207,102)" /><use xlink:href="#leaf2"
						x="55.628" y="56.164" 
						transform="rotate(-88 55.628 56.164)" 	
						fill="rgb(109,174,91)" /><use xlink:href="#leaf5"
						x="55.628" y="56.164" 
						transform="rotate(-179 55.628 56.164)" 	
						fill="rgb(116,206,110)" /><use xlink:href="#leaf5"
						x="55.628" y="56.164" 
						transform="rotate(101 55.628 56.164)" 	
						fill="rgb(127,210,77)" /><use xlink:href="#leaf4"
						x="55.628" y="56.164" 
						transform="rotate(38 55.738 56.554)" 	
						fill="rgb(103,183,83)" /><use xlink:href="#leaf5"
						x="55.628" y="56.164" 
						transform="rotate(-114 56.388 56.164)" 	
						fill="rgb(106,190,107)" /><use xlink:href="#leaf4"
						x="55.628" y="56.164" 
						transform="rotate(157 55.628 56.164)" 	
						fill="rgb(121,171,111)" /><use xlink:href="#leaf4"
						x="55.628" y="56.164" 
						transform="rotate(-23 55.988 56.654)" 	
						fill="rgb(107,200,90)" /><use xlink:href="#leaf4"
						x="55.628" y="56.164" 
						transform="rotate(92 56.538 56.584)" 	
						fill="rgb(132,194,107)" /><use xlink:href="#leaf2"
						x="55.628" y="56.164" 
						transform="rotate(152 55.628 56.164)" 	
						fill="rgb(117,193,85)" /><use xlink:href="#leaf5"
						x="55.628" y="56.164" 
						transform="rotate(-28 55.628 56.164)" 	
						fill="rgb(108,189,76)" /><use xlink:href="#leaf5"
						x="55.628" y="56.164" 
						transform="rotate(-140 55.948 56.534)" 	
						fill="rgb(131,174,104)" /><use xlink:href="#flower5" id="fleur20"
							x="55.628" y="56.164" 
							transform="rotate(145 55.832 57.136)" />
					<g>
					<path d ="M 55.628,56.164 
					a 80 720 -19.47 0 1 -3.396,0.996" fill ="none" stroke ="rgb(100,194,8)" stroke-width ="0.873"/></g><circle cx="52.232" cy="57.16" r="0.21825" stroke="rgb(105,199,13)" fill="rgb(100,194,8)"/><use xlink:href="#leaf4"
						x="52.232" y="57.16" 
						transform="rotate(127 52.792 57.97)" 	
						fill="rgb(106,205,82)" /><use xlink:href="#leaf5"
						x="52.232" y="57.16" 
						transform="rotate(2 52.472 57.17)" 	
						fill="rgb(103,176,104)" /><use xlink:href="#leaf6"
						x="52.232" y="57.16" 
						transform="rotate(-131 52.882 57.76)" 	
						fill="rgb(125,179,94)" /><use xlink:href="#leaf5"
						x="52.232" y="57.16" 
						transform="rotate(69 52.232 57.16)" 	
						fill="rgb(131,185,99)" /><use xlink:href="#leaf3"
						x="52.232" y="57.16" 
						transform="rotate(-32 53.072 57.43)" 	
						fill="rgb(104,209,86)" /><use xlink:href="#leaf4"
						x="52.232" y="57.16" 
						transform="rotate(112 52.232 57.16)" 	
						fill="rgb(135,179,82)" /><use xlink:href="#leaf2"
						x="52.232" y="57.16" 
						transform="rotate(-90 52.232 57.16)" 	
						fill="rgb(121,200,76)" /><use xlink:href="#leaf2"
						x="52.232" y="57.16" 
						transform="rotate(166 52.452 57.98)" 	
						fill="rgb(139,188,95)" /><use xlink:href="#leaf4"
						x="52.232" y="57.16" 
						transform="rotate(-18 52.232 57.16)" 	
						fill="rgb(105,181,90)" /><use xlink:href="#leaf3"
						x="52.232" y="57.16" 
						transform="rotate(-153 52.232 57.16)" 	
						fill="rgb(139,173,71)" /><use xlink:href="#leaf4"
						x="52.232" y="57.16" 
						transform="rotate(-144 52.232 57.16)" 	
						fill="rgb(116,198,81)" /><use xlink:href="#leaf5"
						x="52.232" y="57.16" 
						transform="rotate(-164 52.232 57.16)" 	
						fill="rgb(120,184,104)" /><use xlink:href="#leaf4"
						x="52.232" y="57.16" 
						transform="rotate(-135 52.472 58.02)" 	
						fill="rgb(128,191,100)" /><use xlink:href="#leaf2"
						x="52.232" y="57.16" 
						transform="rotate(-79 52.232 57.16)" 	
						fill="rgb(116,195,94)" /><use xlink:href="#leaf6"
						x="52.232" y="57.16" 
						transform="rotate(95 53.212 57.45)" 	
						fill="rgb(138,192,100)" /><use xlink:href="#flower6" id="fleur30"
							x="52.232" y="57.16" 
							transform="rotate(-104 52.46 57.196)" /><use xlink:href="#flower6" id="fleur31"
							x="52.232" y="57.16" 
							transform="rotate(152 52.232 57.16)" /><use xlink:href="#flower6" id="fleur32"
							x="52.232" y="57.16" 
							transform="rotate(144 53.42 57.952)" /><use xlink:href="#flower6" id="fleur33"
							x="52.232" y="57.16" 
							transform="rotate(-10 52.952 57.82)" />
					<g>
					<path d ="M 52.232,57.16 
					a 83 664 -18.92 0 0 -6.42,1.32" fill ="none" stroke ="rgb(102.5,197.5,8.5)" stroke-width ="0.6984"/></g><circle cx="45.812" cy="58.48" r="0.1746" stroke="rgb(107.5,202.5,13.5)" fill="rgb(102.5,197.5,8.5)"/><use xlink:href="#leaf6"
						x="45.812" y="58.48" 
						transform="rotate(-107 45.812 58.48)" 	
						fill="rgb(130,194,86)" /><use xlink:href="#leaf6"
						x="45.812" y="58.48" 
						transform="rotate(-20 46.232 59.2)" 	
						fill="rgb(103,182,110)" /><use xlink:href="#leaf5"
						x="45.812" y="58.48" 
						transform="rotate(81 45.812 58.48)" 	
						fill="rgb(104,204,93)" /><use xlink:href="#leaf5"
						x="45.812" y="58.48" 
						transform="rotate(79 46.242 59.13)" 	
						fill="rgb(129,196,88)" /><use xlink:href="#leaf5"
						x="45.812" y="58.48" 
						transform="rotate(154 46.322 58.96)" 	
						fill="rgb(135,201,103)" /><use xlink:href="#leaf5"
						x="45.812" y="58.48" 
						transform="rotate(-20 45.812 58.48)" 	
						fill="rgb(124,188,88)" /><use xlink:href="#leaf3"
						x="45.812" y="58.48" 
						transform="rotate(12 46.472 58.7)" 	
						fill="rgb(126,194,73)" /><use xlink:href="#leaf3"
						x="45.812" y="58.48" 
						transform="rotate(123 45.812 58.48)" 	
						fill="rgb(100,179,107)" /><use xlink:href="#leaf6"
						x="45.812" y="58.48" 
						transform="rotate(-148 45.812 58.48)" 	
						fill="rgb(114,175,86)" /><use xlink:href="#leaf4"
						x="45.812" y="58.48" 
						transform="rotate(15 45.952 59.44)" 	
						fill="rgb(135,200,84)" /><use xlink:href="#flower4" id="fleur40"
							x="45.812" y="58.48" 
							transform="rotate(-160 46.448 59.608)" /><use xlink:href="#flower4" id="fleur41"
							x="45.812" y="58.48" 
							transform="rotate(-103 45.812 58.48)" /><use xlink:href="#flower4" id="fleur42"
							x="45.812" y="58.48" 
							transform="rotate(-43 45.86 59.632)" /><use xlink:href="#flower4" id="fleur43"
							x="45.812" y="58.48" 
							transform="rotate(38 46.028 58.96)" /><use xlink:href="#flower4" id="fleur44"
							x="45.812" y="58.48" 
							transform="rotate(171 45.812 58.48)" />
					<g>
					<path d ="M 45.812,58.48 
					a 75 525 -7.9 0 1 -8.856,-3.792" fill ="none" stroke ="rgb(103.5,200.5,11.5)" stroke-width ="0.582"/></g><circle cx="36.956" cy="54.688" r="0.1455" stroke="rgb(108.5,205.5,16.5)" fill="rgb(103.5,200.5,11.5)"/><use xlink:href="#leaf6"
						x="36.956" y="54.688" 
						transform="rotate(-129 37.926 55.188)" 	
						fill="rgb(115,180,86)" /><use xlink:href="#leaf8"
						x="36.956" y="54.688" 
						transform="rotate(45 37.116 54.978)" 	
						fill="rgb(112,199,109)" /><use xlink:href="#leaf4"
						x="36.956" y="54.688" 
						transform="rotate(-86 37.466 55.378)" 	
						fill="rgb(139,197,93)" /><use xlink:href="#leaf4"
						x="36.956" y="54.688" 
						transform="rotate(151 37.856 55.438)" 	
						fill="rgb(118,201,100)" /><use xlink:href="#leaf7"
						x="36.956" y="54.688" 
						transform="rotate(-38 36.956 54.688)" 	
						fill="rgb(138,190,111)" /><use xlink:href="#leaf5"
						x="36.956" y="54.688" 
						transform="rotate(-43 36.956 54.688)" 	
						fill="rgb(124,197,71)" /><use xlink:href="#leaf7"
						x="36.956" y="54.688" 
						transform="rotate(50 36.956 54.688)" 	
						fill="rgb(120,208,96)" /><use xlink:href="#leaf5"
						x="36.956" y="54.688" 
						transform="rotate(-55 36.956 54.688)" 	
						fill="rgb(134,209,106)" /><use xlink:href="#leaf8"
						x="36.956" y="54.688" 
						transform="rotate(-151 37.776 54.758)" 	
						fill="rgb(113,197,76)" /><use xlink:href="#leaf7"
						x="36.956" y="54.688" 
						transform="rotate(-41 36.956 54.688)" 	
						fill="rgb(136,175,98)" /><use xlink:href="#leaf8"
						x="36.956" y="54.688" 
						transform="rotate(-147 36.956 54.688)" 	
						fill="rgb(139,195,93)" /><use xlink:href="#leaf5"
						x="36.956" y="54.688" 
						transform="rotate(163 36.956 54.688)" 	
						fill="rgb(140,206,74)" /><use xlink:href="#leaf7"
						x="36.956" y="54.688" 
						transform="rotate(29 37.796 54.888)" 	
						fill="rgb(140,176,82)" /><use xlink:href="#leaf7"
						x="36.956" y="54.688" 
						transform="rotate(106 37.076 55.388)" 	
						fill="rgb(106,174,72)" /><use xlink:href="#leaf4"
						x="36.956" y="54.688" 
						transform="rotate(46 36.956 54.688)" 	
						fill="rgb(137,198,99)" /><use xlink:href="#leaf6"
						x="36.956" y="54.688" 
						transform="rotate(-13 37.056 55.528)" 	
						fill="rgb(127,175,106)" /><use xlink:href="#flower6" id="fleur50"
							x="36.956" y="54.688" 
							transform="rotate(101 37.844 55.432)" /><use xlink:href="#flower6" id="fleur51"
							x="36.956" y="54.688" 
							transform="rotate(152 37.112 54.844)" /><use xlink:href="#flower6" id="fleur52"
							x="36.956" y="54.688" 
							transform="rotate(174 36.956 54.688)" /><use xlink:href="#flower6" id="fleur53"
							x="36.956" y="54.688" 
							transform="rotate(54 37.172 55.012)" /><use xlink:href="#flower6" id="fleur54"
							x="36.956" y="54.688" 
							transform="rotate(12 37.472 55.828)" /><use xlink:href="#flower6" id="fleur55"
							x="36.956" y="54.688" 
							transform="rotate(-119 37.412 55.336)" /><use xlink:href="#flower6" id="fleur56"
							x="36.956" y="54.688" 
							transform="rotate(-119 36.956 54.688)" />
					<g>
					<path d ="M 47.312,66.664 
					a 58 522 -10.7 0 1 9.336,-1.92" fill ="none" stroke ="rgb(106.5,201.5,11.5)" stroke-width ="1.746"/></g><circle cx="56.648" cy="64.744" r="0.4365" stroke="rgb(111.5,206.5,16.5)" fill="rgb(106.5,201.5,11.5)"/><use xlink:href="#leaf1"
						x="56.648" y="64.744" 
						transform="rotate(-151 56.648 64.744)" 	
						fill="rgb(106,185,92)" /><use xlink:href="#leaf1"
						x="56.648" y="64.744" 
						transform="rotate(-25 56.988 65.614)" 	
						fill="rgb(138,193,105)" /><use xlink:href="#leaf1"
						x="56.648" y="64.744" 
						transform="rotate(85 56.788 64.834)" 	
						fill="rgb(111,192,101)" /><use xlink:href="#leaf1"
						x="56.648" y="64.744" 
						transform="rotate(63 56.648 64.744)" 	
						fill="rgb(110,201,106)" /><use xlink:href="#leaf1"
						x="56.648" y="64.744" 
						transform="rotate(-141 56.648 64.744)" 	
						fill="rgb(101,171,88)" /><use xlink:href="#leaf3"
						x="56.648" y="64.744" 
						transform="rotate(84 56.648 64.744)" 	
						fill="rgb(118,204,84)" /><use xlink:href="#leaf3"
						x="56.648" y="64.744" 
						transform="rotate(28 57.608 65.144)" 	
						fill="rgb(119,195,89)" /><use xlink:href="#leaf2"
						x="56.648" y="64.744" 
						transform="rotate(-159 56.648 64.744)" 	
						fill="rgb(118,193,83)" /><use xlink:href="#leaf1"
						x="56.648" y="64.744" 
						transform="rotate(51 56.648 64.744)" 	
						fill="rgb(116,200,93)" /><use xlink:href="#leaf1"
						x="56.648" y="64.744" 
						transform="rotate(-158 56.648 64.744)" 	
						fill="rgb(102,211,89)" /><use xlink:href="#leaf3"
						x="56.648" y="64.744" 
						transform="rotate(-12 56.908 65.484)" 	
						fill="rgb(123,182,76)" /><use xlink:href="#leaf1"
						x="56.648" y="64.744" 
						transform="rotate(-131 57.308 64.944)" 	
						fill="rgb(129,205,110)" /><use xlink:href="#leaf4"
						x="56.648" y="64.744" 
						transform="rotate(-139 56.648 64.744)" 	
						fill="rgb(140,173,75)" /><use xlink:href="#leaf1"
						x="56.648" y="64.744" 
						transform="rotate(-134 56.648 64.744)" 	
						fill="rgb(128,183,75)" /><use xlink:href="#leaf4"
						x="56.648" y="64.744" 
						transform="rotate(139 56.648 64.744)" 	
						fill="rgb(140,200,90)" /><use xlink:href="#leaf4"
						x="56.648" y="64.744" 
						transform="rotate(102 57.458 65.664)" 	
						fill="rgb(117,192,81)" /><use xlink:href="#leaf1"
						x="56.648" y="64.744" 
						transform="rotate(-92 56.648 64.744)" 	
						fill="rgb(137,174,98)" /><use xlink:href="#flower1" id="fleur60"
							x="56.648" y="64.744" 
							transform="rotate(98 56.648 64.744)" />
					<g>
					<path d ="M 56.648,64.744 
					a 89 445 8.12 0 1 -7.752,-9.096" fill ="none" stroke ="rgb(108,204,13)" stroke-width ="1.164"/></g><circle cx="48.896" cy="55.648" r="0.291" stroke="rgb(113,209,18)" fill="rgb(108,204,13)"/><use xlink:href="#leaf2"
						x="48.896" y="55.648" 
						transform="rotate(75 48.896 55.648)" 	
						fill="rgb(110,178,103)" /><use xlink:href="#leaf1"
						x="48.896" y="55.648" 
						transform="rotate(159 48.896 55.648)" 	
						fill="rgb(109,189,98)" /><use xlink:href="#leaf4"
						x="48.896" y="55.648" 
						transform="rotate(135 49.766 56.548)" 	
						fill="rgb(132,210,97)" /><use xlink:href="#leaf3"
						x="48.896" y="55.648" 
						transform="rotate(-23 48.926 56.418)" 	
						fill="rgb(104,179,77)" /><use xlink:href="#leaf4"
						x="48.896" y="55.648" 
						transform="rotate(-24 48.896 55.648)" 	
						fill="rgb(101,173,91)" /><use xlink:href="#leaf5"
						x="48.896" y="55.648" 
						transform="rotate(-81 49.406 55.768)" 	
						fill="rgb(124,200,107)" /><use xlink:href="#leaf2"
						x="48.896" y="55.648" 
						transform="rotate(-168 48.896 55.648)" 	
						fill="rgb(104,194,89)" /><use xlink:href="#leaf3"
						x="48.896" y="55.648" 
						transform="rotate(-65 48.896 55.648)" 	
						fill="rgb(108,208,73)" />
					<g>
					<path d ="M 56.648,64.744 
					a 93 93 20.14 0 0 -12.144,-8.904" fill ="none" stroke ="rgb(108.5,205.5,12.5)" stroke-width ="1.164"/></g><circle cx="44.504" cy="55.84" r="0.291" stroke="rgb(113.5,210.5,17.5)" fill="rgb(108.5,205.5,12.5)"/><use xlink:href="#leaf5"
						x="44.504" y="55.84" 
						transform="rotate(133 44.744 56.59)" 	
						fill="rgb(110,196,89)" /><use xlink:href="#leaf3"
						x="44.504" y="55.84" 
						transform="rotate(-63 44.504 55.84)" 	
						fill="rgb(118,204,80)" /><use xlink:href="#leaf2"
						x="44.504" y="55.84" 
						transform="rotate(146 44.544 55.97)" 	
						fill="rgb(107,207,96)" /><use xlink:href="#leaf4"
						x="44.504" y="55.84" 
						transform="rotate(-41 44.504 55.84)" 	
						fill="rgb(136,205,83)" /><use xlink:href="#leaf2"
						x="44.504" y="55.84" 
						transform="rotate(-56 45.294 55.89)" 	
						fill="rgb(113,209,71)" /><use xlink:href="#leaf4"
						x="44.504" y="55.84" 
						transform="rotate(6 44.784 56.39)" 	
						fill="rgb(115,198,71)" /><use xlink:href="#leaf1"
						x="44.504" y="55.84" 
						transform="rotate(131 45.284 56.17)" 	
						fill="rgb(105,199,106)" /><use xlink:href="#leaf1"
						x="44.504" y="55.84" 
						transform="rotate(-79 45.064 55.97)" 	
						fill="rgb(134,191,87)" /><use xlink:href="#leaf5"
						x="44.504" y="55.84" 
						transform="rotate(108 45.374 56.32)" 	
						fill="rgb(115,171,84)" /><use xlink:href="#leaf1"
						x="44.504" y="55.84" 
						transform="rotate(-156 44.504 55.84)" 	
						fill="rgb(121,192,95)" /><use xlink:href="#flower1" id="fleur80"
							x="44.504" y="55.84" 
							transform="rotate(-36 44.504 55.84)" />
					<g>
					<path d ="M 56.648,64.744 
					a 62 186 7.29 0 1 4.272,-1.572" fill ="none" stroke ="rgb(109,209,12)" stroke-width ="1.164"/></g><circle cx="60.92" cy="63.172" r="0.291" stroke="rgb(114,214,17)" fill="rgb(109,209,12)"/><use xlink:href="#leaf3"
						x="60.92" y="63.172" 
						transform="rotate(-169 61 63.972)" 	
						fill="rgb(100,173,71)" /><use xlink:href="#leaf3"
						x="60.92" y="63.172" 
						transform="rotate(-134 60.92 63.172)" 	
						fill="rgb(131,188,74)" /><use xlink:href="#leaf1"
						x="60.92" y="63.172" 
						transform="rotate(176 61.25 63.552)" 	
						fill="rgb(132,207,90)" /><use xlink:href="#leaf3"
						x="60.92" y="63.172" 
						transform="rotate(-155 60.92 63.172)" 	
						fill="rgb(121,177,86)" /><use xlink:href="#leaf3"
						x="60.92" y="63.172" 
						transform="rotate(-32 60.92 63.172)" 	
						fill="rgb(119,199,99)" /><use xlink:href="#leaf5"
						x="60.92" y="63.172" 
						transform="rotate(-164 61.32 63.232)" 	
						fill="rgb(128,186,84)" /><use xlink:href="#leaf5"
						x="60.92" y="63.172" 
						transform="rotate(151 61.47 63.852)" 	
						fill="rgb(137,198,87)" /><use xlink:href="#leaf3"
						x="60.92" y="63.172" 
						transform="rotate(-115 61 64.122)" 	
						fill="rgb(105,176,79)" /><use xlink:href="#flower3" id="fleur90"
							x="60.92" y="63.172" 
							transform="rotate(98 60.92 63.172)" /><use xlink:href="#flower3" id="fleur91"
							x="60.92" y="63.172" 
							transform="rotate(86 60.92 63.172)" /><use xlink:href="#flower3" id="fleur92"
							x="60.92" y="63.172" 
							transform="rotate(85 60.92 64.06)" /><use xlink:href="#flower3" id="fleur93"
							x="60.92" y="63.172" 
							transform="rotate(-26 60.92 63.172)" />
					<g>
					<path d ="M 60.92,63.172 
					a 69 483 -1.68 0 0 -1.908,2.304" fill ="none" stroke ="rgb(109,210,14)" stroke-width ="0.873"/></g><circle cx="59.012" cy="65.476" r="0.21825" stroke="rgb(114,215,19)" fill="rgb(109,210,14)"/><use xlink:href="#leaf5"
						x="59.012" y="65.476" 
						transform="rotate(-7 59.622 66.406)" 	
						fill="rgb(127,200,107)" /><use xlink:href="#leaf2"
						x="59.012" y="65.476" 
						transform="rotate(-56 59.012 65.476)" 	
						fill="rgb(125,194,92)" /><use xlink:href="#leaf3"
						x="59.012" y="65.476" 
						transform="rotate(-91 59.012 65.476)" 	
						fill="rgb(137,207,83)" /><use xlink:href="#leaf6"
						x="59.012" y="65.476" 
						transform="rotate(-37 59.012 65.476)" 	
						fill="rgb(138,201,103)" /><use xlink:href="#leaf5"
						x="59.012" y="65.476" 
						transform="rotate(-157 59.012 65.476)" 	
						fill="rgb(106,185,79)" /><use xlink:href="#leaf2"
						x="59.012" y="65.476" 
						transform="rotate(-69 59.632 66.376)" 	
						fill="rgb(113,209,76)" /><use xlink:href="#leaf4"
						x="59.012" y="65.476" 
						transform="rotate(-111 59.782 65.946)" 	
						fill="rgb(109,199,91)" /><use xlink:href="#leaf2"
						x="59.012" y="65.476" 
						transform="rotate(-34 59.822 65.586)" 	
						fill="rgb(135,181,110)" /><use xlink:href="#leaf6"
						x="59.012" y="65.476" 
						transform="rotate(-178 59.662 65.746)" 	
						fill="rgb(124,180,109)" /><use xlink:href="#leaf2"
						x="59.012" y="65.476" 
						transform="rotate(-60 59.012 65.476)" 	
						fill="rgb(135,206,93)" /><use xlink:href="#leaf5"
						x="59.012" y="65.476" 
						transform="rotate(19 59.872 65.976)" 	
						fill="rgb(110,172,95)" /><use xlink:href="#leaf6"
						x="59.012" y="65.476" 
						transform="rotate(-129 59.012 65.476)" 	
						fill="rgb(108,201,103)" /><use xlink:href="#leaf2"
						x="59.012" y="65.476" 
						transform="rotate(-64 59.012 65.476)" 	
						fill="rgb(102,182,102)" /><use xlink:href="#leaf5"
						x="59.012" y="65.476" 
						transform="rotate(-149 59.072 66.076)" 	
						fill="rgb(138,180,80)" /><use xlink:href="#leaf2"
						x="59.012" y="65.476" 
						transform="rotate(173 59.472 65.716)" 	
						fill="rgb(119,174,104)" /><use xlink:href="#leaf6"
						x="59.012" y="65.476" 
						transform="rotate(-170 59.012 65.476)" 	
						fill="rgb(113,185,99)" /><use xlink:href="#flower6" id="fleur100"
							x="59.012" y="65.476" 
							transform="rotate(62 60.08 65.968)" />
					<g>
					<path d ="M 60.92,63.172 
					a 79 474 7.98 0 0 1.524,-2.148" fill ="none" stroke ="rgb(112,211,18)" stroke-width ="0.873"/></g><circle cx="62.444" cy="61.024" r="0.21825" stroke="rgb(117,216,23)" fill="rgb(112,211,18)"/><use xlink:href="#leaf4"
						x="62.444" y="61.024" 
						transform="rotate(-107 62.444 61.024)" 	
						fill="rgb(135,178,72)" /><use xlink:href="#leaf5"
						x="62.444" y="61.024" 
						transform="rotate(-67 62.804 61.734)" 	
						fill="rgb(109,186,73)" /><use xlink:href="#leaf3"
						x="62.444" y="61.024" 
						transform="rotate(8 62.444 61.024)" 	
						fill="rgb(130,199,80)" /><use xlink:href="#leaf5"
						x="62.444" y="61.024" 
						transform="rotate(-113 62.444 61.024)" 	
						fill="rgb(140,181,73)" /><use xlink:href="#leaf6"
						x="62.444" y="61.024" 
						transform="rotate(-24 63.364 61.154)" 	
						fill="rgb(134,200,87)" /><use xlink:href="#leaf5"
						x="62.444" y="61.024" 
						transform="rotate(3 62.444 61.024)" 	
						fill="rgb(104,177,101)" /><use xlink:href="#leaf4"
						x="62.444" y="61.024" 
						transform="rotate(-134 63.274 61.074)" 	
						fill="rgb(136,194,80)" /><use xlink:href="#leaf5"
						x="62.444" y="61.024" 
						transform="rotate(122 62.664 61.414)" 	
						fill="rgb(130,211,107)" /><use xlink:href="#leaf5"
						x="62.444" y="61.024" 
						transform="rotate(-42 62.574 61.394)" 	
						fill="rgb(111,205,106)" /><use xlink:href="#leaf4"
						x="62.444" y="61.024" 
						transform="rotate(-58 62.844 61.214)" 	
						fill="rgb(137,204,96)" /><use xlink:href="#leaf5"
						x="62.444" y="61.024" 
						transform="rotate(-70 62.444 61.024)" 	
						fill="rgb(132,200,91)" /><use xlink:href="#leaf4"
						x="62.444" y="61.024" 
						transform="rotate(-143 62.704 61.364)" 	
						fill="rgb(112,172,104)" /><use xlink:href="#leaf2"
						x="62.444" y="61.024" 
						transform="rotate(-32 62.764 61.324)" 	
						fill="rgb(117,171,76)" /><use xlink:href="#leaf6"
						x="62.444" y="61.024" 
						transform="rotate(93 62.444 61.024)" 	
						fill="rgb(135,178,74)" />
					<g>
					<path d ="M 60.92,63.172 
					a 90 720 10.19 0 1 -3.024,-7.62" fill ="none" stroke ="rgb(114,213,20)" stroke-width ="0.873"/></g><circle cx="57.896" cy="55.552" r="0.21825" stroke="rgb(119,218,25)" fill="rgb(114,213,20)"/><use xlink:href="#leaf6"
						x="57.896" y="55.552" 
						transform="rotate(-66 57.896 55.552)" 	
						fill="rgb(133,206,80)" /><use xlink:href="#leaf5"
						x="57.896" y="55.552" 
						transform="rotate(-140 57.896 55.552)" 	
						fill="rgb(124,191,111)" /><use xlink:href="#leaf4"
						x="57.896" y="55.552" 
						transform="rotate(67 57.896 55.552)" 	
						fill="rgb(109,182,97)" /><use xlink:href="#leaf5"
						x="57.896" y="55.552" 
						transform="rotate(73 58.886 55.652)" 	
						fill="rgb(124,179,86)" /><use xlink:href="#leaf4"
						x="57.896" y="55.552" 
						transform="rotate(89 58.126 56.002)" 	
						fill="rgb(135,184,94)" /><use xlink:href="#leaf2"
						x="57.896" y="55.552" 
						transform="rotate(47 58.676 55.632)" 	
						fill="rgb(115,184,96)" /><use xlink:href="#leaf4"
						x="57.896" y="55.552" 
						transform="rotate(-11 57.896 55.552)" 	
						fill="rgb(124,179,110)" /><use xlink:href="#leaf6"
						x="57.896" y="55.552" 
						transform="rotate(-45 57.896 55.552)" 	
						fill="rgb(140,177,73)" /><use xlink:href="#leaf6"
						x="57.896" y="55.552" 
						transform="rotate(-170 57.896 55.552)" 	
						fill="rgb(121,177,108)" /><use xlink:href="#leaf5"
						x="57.896" y="55.552" 
						transform="rotate(-168 57.896 55.552)" 	
						fill="rgb(119,205,91)" /><use xlink:href="#leaf4"
						x="57.896" y="55.552" 
						transform="rotate(42 58.646 56.112)" 	
						fill="rgb(111,181,71)" /><use xlink:href="#leaf4"
						x="57.896" y="55.552" 
						transform="rotate(-7 58.156 55.752)" 	
						fill="rgb(129,173,93)" /><use xlink:href="#flower4" id="fleur120"
							x="57.896" y="55.552" 
							transform="rotate(-3 58.136 56.716)" /><use xlink:href="#flower4" id="fleur121"
							x="57.896" y="55.552" 
							transform="rotate(-157 58.112 55.78)" /><use xlink:href="#flower4" id="fleur122"
							x="57.896" y="55.552" 
							transform="rotate(135 57.896 55.552)" /><use xlink:href="#flower4" id="fleur123"
							x="57.896" y="55.552" 
							transform="rotate(-43 57.896 55.552)" />
					<g>
					<path d ="M 60.92,63.172 
					a 96 864 -4.45 0 0 6.468,-4.56" fill ="none" stroke ="rgb(117,214,23)" stroke-width ="0.873"/></g><circle cx="67.388" cy="58.612" r="0.21825" stroke="rgb(122,219,28)" fill="rgb(117,214,23)"/><use xlink:href="#leaf4"
						x="67.388" y="58.612" 
						transform="rotate(-58 67.788 58.792)" 	
						fill="rgb(122,188,94)" /><use xlink:href="#leaf6"
						x="67.388" y="58.612" 
						transform="rotate(9 68.088 59.412)" 	
						fill="rgb(123,193,94)" /><use xlink:href="#leaf5"
						x="67.388" y="58.612" 
						transform="rotate(-57 68.348 58.622)" 	
						fill="rgb(140,207,97)" /><use xlink:href="#leaf3"
						x="67.388" y="58.612" 
						transform="rotate(-46 68.308 59.532)" 	
						fill="rgb(101,197,104)" /><use xlink:href="#leaf4"
						x="67.388" y="58.612" 
						transform="rotate(-13 68.228 59.062)" 	
						fill="rgb(117,183,109)" /><use xlink:href="#leaf6"
						x="67.388" y="58.612" 
						transform="rotate(176 67.388 58.612)" 	
						fill="rgb(128,174,86)" /><use xlink:href="#leaf3"
						x="67.388" y="58.612" 
						transform="rotate(-66 67.388 58.612)" 	
						fill="rgb(101,183,105)" /><use xlink:href="#leaf4"
						x="67.388" y="58.612" 
						transform="rotate(-65 67.388 58.612)" 	
						fill="rgb(100,200,94)" /><use xlink:href="#leaf4"
						x="67.388" y="58.612" 
						transform="rotate(-2 67.388 58.612)" 	
						fill="rgb(108,186,77)" /><use xlink:href="#leaf5"
						x="67.388" y="58.612" 
						transform="rotate(171 67.578 59.412)" 	
						fill="rgb(104,206,101)" /><use xlink:href="#leaf2"
						x="67.388" y="58.612" 
						transform="rotate(64 68.198 59.042)" 	
						fill="rgb(111,176,111)" /><use xlink:href="#leaf5"
						x="67.388" y="58.612" 
						transform="rotate(1 67.388 58.612)" 	
						fill="rgb(138,197,93)" /><use xlink:href="#leaf5"
						x="67.388" y="58.612" 
						transform="rotate(-98 68.228 58.972)" 	
						fill="rgb(118,207,77)" /><use xlink:href="#leaf6"
						x="67.388" y="58.612" 
						transform="rotate(-70 67.878 58.802)" 	
						fill="rgb(110,176,76)" /><use xlink:href="#leaf6"
						x="67.388" y="58.612" 
						transform="rotate(95 67.758 58.712)" 	
						fill="rgb(123,189,82)" /><use xlink:href="#flower6" id="fleur130"
							x="67.388" y="58.612" 
							transform="rotate(-143 67.388 58.612)" />
					<g>
					<path d ="M 60.92,63.172 
					a 93 186 -14.63 0 1 0.168,4.392" fill ="none" stroke ="rgb(121,216,25)" stroke-width ="0.873"/></g><circle cx="61.088" cy="67.564" r="0.21825" stroke="rgb(126,221,30)" fill="rgb(121,216,25)"/><use xlink:href="#leaf3"
						x="61.088" y="67.564" 
						transform="rotate(-175 61.088 67.564)" 	
						fill="rgb(110,206,79)" /><use xlink:href="#leaf6"
						x="61.088" y="67.564" 
						transform="rotate(56 61.458 68.464)" 	
						fill="rgb(112,201,80)" /><use xlink:href="#leaf4"
						x="61.088" y="67.564" 
						transform="rotate(-116 61.088 67.564)" 	
						fill="rgb(124,204,85)" /><use xlink:href="#leaf4"
						x="61.088" y="67.564" 
						transform="rotate(-155 61.698 67.564)" 	
						fill="rgb(104,179,102)" /><use xlink:href="#leaf5"
						x="61.088" y="67.564" 
						transform="rotate(-173 61.438 68.194)" 	
						fill="rgb(114,190,96)" /><use xlink:href="#leaf5"
						x="61.088" y="67.564" 
						transform="rotate(166 61.408 68.044)" 	
						fill="rgb(123,211,101)" /><use xlink:href="#leaf2"
						x="61.088" y="67.564" 
						transform="rotate(-66 61.428 68.184)" 	
						fill="rgb(103,202,73)" /><use xlink:href="#leaf4"
						x="61.088" y="67.564" 
						transform="rotate(43 61.088 67.564)" 	
						fill="rgb(116,174,101)" /><use xlink:href="#leaf3"
						x="61.088" y="67.564" 
						transform="rotate(-86 61.088 67.564)" 	
						fill="rgb(131,202,74)" /><use xlink:href="#leaf3"
						x="61.088" y="67.564" 
						transform="rotate(142 61.478 68.374)" 	
						fill="rgb(109,197,94)" /><use xlink:href="#leaf2"
						x="61.088" y="67.564" 
						transform="rotate(38 61.998 67.924)" 	
						fill="rgb(134,195,88)" /><use xlink:href="#leaf6"
						x="61.088" y="67.564" 
						transform="rotate(-138 61.088 67.564)" 	
						fill="rgb(103,179,99)" /><use xlink:href="#leaf3"
						x="61.088" y="67.564" 
						transform="rotate(9 61.088 67.564)" 	
						fill="rgb(116,188,103)" /><use xlink:href="#leaf4"
						x="61.088" y="67.564" 
						transform="rotate(-67 61.388 68.394)" 	
						fill="rgb(137,182,80)" /><use xlink:href="#leaf2"
						x="61.088" y="67.564" 
						transform="rotate(-174 61.088 67.564)" 	
						fill="rgb(140,199,96)" /><use xlink:href="#leaf2"
						x="61.088" y="67.564" 
						transform="rotate(-144 61.478 67.594)" 	
						fill="rgb(130,185,92)" /><use xlink:href="#leaf6"
						x="61.088" y="67.564" 
						transform="rotate(36 61.088 67.564)" 	
						fill="rgb(115,195,88)" /><use xlink:href="#leaf4"
						x="61.088" y="67.564" 
						transform="rotate(151 61.228 67.634)" 	
						fill="rgb(102,178,72)" /><use xlink:href="#flower4" id="fleur140"
							x="61.088" y="67.564" 
							transform="rotate(-53 61.088 67.564)" /><use xlink:href="#flower4" id="fleur141"
							x="61.088" y="67.564" 
							transform="rotate(-85 61.088 67.564)" />
					<g>
					<path d ="M 60.92,63.172 
					a 86 774 8.88 0 1 -11.76,-3.552" fill ="none" stroke ="rgb(121,216,29)" stroke-width ="0.873"/></g><circle cx="49.16" cy="59.62" r="0.21825" stroke="rgb(126,221,34)" fill="rgb(121,216,29)"/><use xlink:href="#leaf6"
						x="49.16" y="59.62" 
						transform="rotate(-150 49.7 60.11)" 	
						fill="rgb(114,198,100)" /><use xlink:href="#leaf4"
						x="49.16" y="59.62" 
						transform="rotate(53 49.16 59.62)" 	
						fill="rgb(137,201,96)" /><use xlink:href="#leaf6"
						x="49.16" y="59.62" 
						transform="rotate(-77 49.16 59.62)" 	
						fill="rgb(123,188,71)" /><use xlink:href="#leaf2"
						x="49.16" y="59.62" 
						transform="rotate(-40 49.16 59.62)" 	
						fill="rgb(133,200,99)" /><use xlink:href="#flower2" id="fleur150"
							x="49.16" y="59.62" 
							transform="rotate(-168 49.16 59.62)" />
					<g>
					<path d ="M 49.16,59.62 
					a 82 492 5.64 0 1 -8.16,0.492" fill ="none" stroke ="rgb(121.5,219.5,29.5)" stroke-width ="0.6984"/></g><circle cx="41" cy="60.112" r="0.1746" stroke="rgb(126.5,224.5,34.5)" fill="rgb(121.5,219.5,29.5)"/><use xlink:href="#leaf3"
						x="41" y="60.112" 
						transform="rotate(-6 41.58 60.502)" 	
						fill="rgb(110,190,89)" /><use xlink:href="#leaf3"
						x="41" y="60.112" 
						transform="rotate(-95 41.97 60.782)" 	
						fill="rgb(112,208,89)" /><use xlink:href="#leaf5"
						x="41" y="60.112" 
						transform="rotate(26 41 60.112)" 	
						fill="rgb(118,194,72)" /><use xlink:href="#leaf7"
						x="41" y="60.112" 
						transform="rotate(-107 41.23 60.732)" 	
						fill="rgb(140,182,105)" /><use xlink:href="#leaf5"
						x="41" y="60.112" 
						transform="rotate(148 41.89 60.422)" 	
						fill="rgb(130,189,104)" /><use xlink:href="#leaf4"
						x="41" y="60.112" 
						transform="rotate(-62 41 60.112)" 	
						fill="rgb(126,178,75)" /><use xlink:href="#leaf5"
						x="41" y="60.112" 
						transform="rotate(28 41 60.112)" 	
						fill="rgb(102,180,108)" /><use xlink:href="#leaf7"
						x="41" y="60.112" 
						transform="rotate(12 41.31 60.752)" 	
						fill="rgb(102,199,71)" /><use xlink:href="#leaf6"
						x="41" y="60.112" 
						transform="rotate(-71 41 60.112)" 	
						fill="rgb(101,203,93)" /><use xlink:href="#leaf3"
						x="41" y="60.112" 
						transform="rotate(-148 41 60.112)" 	
						fill="rgb(100,208,72)" /><use xlink:href="#leaf3"
						x="41" y="60.112" 
						transform="rotate(-101 41.99 60.852)" 	
						fill="rgb(113,184,73)" /><use xlink:href="#leaf4"
						x="41" y="60.112" 
						transform="rotate(14 41 60.112)" 	
						fill="rgb(104,206,75)" /><use xlink:href="#leaf6"
						x="41" y="60.112" 
						transform="rotate(-106 41.89 60.882)" 	
						fill="rgb(124,206,95)" /><use xlink:href="#leaf7"
						x="41" y="60.112" 
						transform="rotate(59 41.56 60.282)" 	
						fill="rgb(140,210,99)" /><use xlink:href="#flower7" id="fleur160"
							x="41" y="60.112" 
							transform="rotate(49 41 60.112)" /><use xlink:href="#flower7" id="fleur161"
							x="41" y="60.112" 
							transform="rotate(-131 41 60.112)" /><use xlink:href="#flower7" id="fleur162"
							x="41" y="60.112" 
							transform="rotate(-23 41 60.112)" /><use xlink:href="#flower7" id="fleur163"
							x="41" y="60.112" 
							transform="rotate(-12 41 60.112)" /><use xlink:href="#flower7" id="fleur164"
							x="41" y="60.112" 
							transform="rotate(-90 41.816 60.82)" /><use xlink:href="#flower7" id="fleur165"
							x="41" y="60.112" 
							transform="rotate(58 41 60.112)" />
					<g>
					<path d ="M 55.628,56.164 
					a 75 150 0.68 0 1 -8.7,-1.32" fill ="none" stroke ="rgb(125.5,221.5,33.5)" stroke-width ="0.873"/></g><circle cx="46.928" cy="54.844" r="0.21825" stroke="rgb(130.5,226.5,38.5)" fill="rgb(125.5,221.5,33.5)"/><use xlink:href="#leaf6"
						x="46.928" y="54.844" 
						transform="rotate(58 46.928 54.844)" 	
						fill="rgb(113,182,94)" /><use xlink:href="#leaf6"
						x="46.928" y="54.844" 
						transform="rotate(-3 47.558 55.254)" 	
						fill="rgb(116,180,76)" /><use xlink:href="#leaf2"
						x="46.928" y="54.844" 
						transform="rotate(-102 47.168 55.004)" 	
						fill="rgb(113,188,98)" /><use xlink:href="#leaf5"
						x="46.928" y="54.844" 
						transform="rotate(-29 46.928 54.844)" 	
						fill="rgb(136,204,104)" /><use xlink:href="#leaf4"
						x="46.928" y="54.844" 
						transform="rotate(-119 46.928 54.844)" 	
						fill="rgb(133,205,79)" /><use xlink:href="#leaf4"
						x="46.928" y="54.844" 
						transform="rotate(-12 46.928 54.844)" 	
						fill="rgb(109,171,89)" /><use xlink:href="#leaf3"
						x="46.928" y="54.844" 
						transform="rotate(45 47.528 55.464)" 	
						fill="rgb(126,175,83)" /><use xlink:href="#leaf6"
						x="46.928" y="54.844" 
						transform="rotate(-49 46.928 54.844)" 	
						fill="rgb(127,173,76)" /><use xlink:href="#leaf4"
						x="46.928" y="54.844" 
						transform="rotate(-130 47.138 55.184)" 	
						fill="rgb(104,173,96)" /><use xlink:href="#leaf6"
						x="46.928" y="54.844" 
						transform="rotate(-97 47.918 55.604)" 	
						fill="rgb(119,177,77)" /><use xlink:href="#leaf3"
						x="46.928" y="54.844" 
						transform="rotate(-32 46.998 55.044)" 	
						fill="rgb(101,171,74)" /><use xlink:href="#flower3" id="fleur170"
							x="46.928" y="54.844" 
							transform="rotate(-67 47.564 55.984)" /><use xlink:href="#flower3" id="fleur171"
							x="46.928" y="54.844" 
							transform="rotate(86 46.928 54.844)" />
					<g>
					<path d ="M 55.628,56.164 
					a 50 250 13.67 0 0 -4.224,-7.992" fill ="none" stroke ="rgb(126.5,225.5,33.5)" stroke-width ="0.873"/></g><circle cx="51.404" cy="48.172" r="0.21825" stroke="rgb(131.5,230.5,38.5)" fill="rgb(126.5,225.5,33.5)"/><use xlink:href="#leaf2"
						x="51.404" y="48.172" 
						transform="rotate(117 51.404 48.172)" 	
						fill="rgb(121,188,96)" /><use xlink:href="#leaf2"
						x="51.404" y="48.172" 
						transform="rotate(-55 52.344 48.582)" 	
						fill="rgb(137,171,100)" /><use xlink:href="#leaf5"
						x="51.404" y="48.172" 
						transform="rotate(97 52.104 48.402)" 	
						fill="rgb(129,173,72)" /><use xlink:href="#leaf5"
						x="51.404" y="48.172" 
						transform="rotate(179 51.424 48.372)" 	
						fill="rgb(134,205,77)" /><use xlink:href="#leaf5"
						x="51.404" y="48.172" 
						transform="rotate(-124 51.404 48.172)" 	
						fill="rgb(106,198,106)" /><use xlink:href="#leaf6"
						x="51.404" y="48.172" 
						transform="rotate(-105 51.404 48.172)" 	
						fill="rgb(109,195,80)" /><use xlink:href="#leaf4"
						x="51.404" y="48.172" 
						transform="rotate(105 51.404 48.172)" 	
						fill="rgb(137,180,78)" /><use xlink:href="#leaf5"
						x="51.404" y="48.172" 
						transform="rotate(-27 51.404 48.172)" 	
						fill="rgb(107,172,103)" /><use xlink:href="#leaf5"
						x="51.404" y="48.172" 
						transform="rotate(-87 52.324 48.222)" 	
						fill="rgb(117,199,100)" /><use xlink:href="#leaf5"
						x="51.404" y="48.172" 
						transform="rotate(-156 51.404 48.172)" 	
						fill="rgb(114,208,103)" /><use xlink:href="#leaf2"
						x="51.404" y="48.172" 
						transform="rotate(170 52.024 48.582)" 	
						fill="rgb(136,192,78)" /><use xlink:href="#leaf6"
						x="51.404" y="48.172" 
						transform="rotate(97 51.994 48.502)" 	
						fill="rgb(133,184,82)" /></g>
				</svg>