<svg class="relie" xmlns="http://www.w3.org/2000/svg" viewBox="0 0 100 100" preserveAspectRatio="xMidYMid meet" x="0" y="0" overflow="visible" xmlns:xlink="http://www.w3.org/1999/xlink">

		<defs>  <g id="leaf1" transform="skewX(10) skewY(10)"><path d="M 0,0 
					q 0.00375 0.12625 0.486875,0.675 q 0.00375 0.00375 0.23,0.675 q 0.00375 0.0075 -0.2175,0.675 q 0.00375 0.25375 -0.07875,0.675 q 0.00375 0.3775 -0.420625,1 
					M 0,0 
					q -0.00375 0.12625 -0.486875,0.675 q -0.00375 0.00375 -0.23,0.675 q -0.00375 0.0075 0.2175,0.675 q -0.00375 0.25375 0.07875,0.675 q -0.00375 0.3775 0.420625,1 " 
					stroke-width ="0.2" /></g>  <g id="leaf2" transform="skewX(3) skewY(3)"><path d="M 0,0 
					q 0.0075 0.2525 0.77375,1.35 q 0.0075 0.0075 0.46,1.35 q 0.0075 0.015 -0.435,1.35 q 0.0075 0.5075 -0.1575,1.35 q 0.0075 0.755 -0.64125,1.35 
					M 0,0 
					q -0.0075 0.2525 -0.77375,1.35 q -0.0075 0.0075 -0.46,1.35 q -0.0075 0.015 0.435,1.35 q -0.0075 0.5075 0.1575,1.35 q -0.0075 0.755 0.64125,1.35 " 
					stroke-width ="0.2" /></g>  <g id="leaf3" transform="skewX(-19) skewY(-19)"><path d="M 0,0 
					q 0.01125 0.37875 1.060625,2.025 q 0.01125 0.01125 0.69,2.025 q 0.01125 0.0225 -0.6525,2.025 q 0.01125 0.76125 -0.23625,2.025 q 0.01125 1.1325 -0.861875,2.025 
					M 0,0 
					q -0.01125 0.37875 -1.060625,2.025 q -0.01125 0.01125 -0.69,2.025 q -0.01125 0.0225 0.6525,2.025 q -0.01125 0.76125 0.23625,2.025 q -0.01125 1.1325 0.861875,2.025 " 
					stroke-width ="0.2" /></g>  <g id="leaf4" transform="skewX(-13) skewY(-13)"><path d="M 0,0 
					q 0.015 0.505 1.3475,2.7 q 0.015 0.015 0.92,2.7 q 0.015 0.03 -0.87,2.7 q 0.015 1.015 -0.315,2.7 q 0.015 1.51 -1.0825,2.7 
					M 0,0 
					q -0.015 0.505 -1.3475,2.7 q -0.015 0.015 -0.92,2.7 q -0.015 0.03 0.87,2.7 q -0.015 1.015 0.315,2.7 q -0.015 1.51 1.0825,2.7 " 
					stroke-width ="0.2" /></g>  <g id="leaf5" transform="skewX(-1) skewY(-1)"><path d="M 0,0 
					q 0.01875 0.63125 1.634375,3.375 q 0.01875 0.01875 1.15,3.375 q 0.01875 0.0375 -1.0875,3.375 q 0.01875 1.26875 -0.39375,3.375 q 0.01875 1.8875 -1.303125,3.375 
					M 0,0 
					q -0.01875 0.63125 -1.634375,3.375 q -0.01875 0.01875 -1.15,3.375 q -0.01875 0.0375 1.0875,3.375 q -0.01875 1.26875 0.39375,3.375 q -0.01875 1.8875 1.303125,3.375 " 
					stroke-width ="0.2" /></g>  <g id="leaf6" transform="skewX(-3) skewY(-3)"><path d="M 0,0 
					q 0.0225 0.7575 1.92125,4.05 q 0.0225 0.0225 1.38,4.05 q 0.0225 0.045 -1.305,4.05 q 0.0225 1.5225 -0.4725,4.05 q 0.0225 2.265 -1.52375,4.05 
					M 0,0 
					q -0.0225 0.7575 -1.92125,4.05 q -0.0225 0.0225 -1.38,4.05 q -0.0225 0.045 1.305,4.05 q -0.0225 1.5225 0.4725,4.05 q -0.0225 2.265 1.52375,4.05 " 
					stroke-width ="0.2" /></g>  <g id="leaf7" transform="skewX(-3) skewY(-3)"><path d="M 0,0 
					q 0.02625 0.88375 2.208125,4.725 q 0.02625 0.02625 1.61,4.725 q 0.02625 0.0525 -1.5225,4.725 q 0.02625 1.77625 -0.55125,4.725 q 0.02625 2.6425 -1.744375,4.725 
					M 0,0 
					q -0.02625 0.88375 -2.208125,4.725 q -0.02625 0.02625 -1.61,4.725 q -0.02625 0.0525 1.5225,4.725 q -0.02625 1.77625 0.55125,4.725 q -0.02625 2.6425 1.744375,4.725 " 
					stroke-width ="0.2" /></g>  <g id="leaf8" transform="skewX(19) skewY(19)"><path d="M 0,0 
					q 0.03 1.01 2.495,5.4 q 0.03 0.03 1.84,5.4 q 0.03 0.06 -1.74,5.4 q 0.03 2.03 -0.63,5.4 q 0.03 3.02 -1.965,5.4 
					M 0,0 
					q -0.03 1.01 -2.495,5.4 q -0.03 0.03 -1.84,5.4 q -0.03 0.06 1.74,5.4 q -0.03 2.03 0.63,5.4 q -0.03 3.02 1.965,5.4 " 
					stroke-width ="0.2" /></g><g id="flower1"><path d="M 0,0.5 
						q 0.27 0.15375 0.4175,0.125 q 0.27 -0.33125 -0.23625,0.125 q 0.27 0.0825 -0.08375,0.125 q 0.27 0.37625 -0.0975,1 
						M 0,0.5 
						q -0.27 0.15375 -0.4175,0.125 q -0.27 -0.33125 0.23625,0.125 q -0.27 0.0825 0.08375,0.125 q -0.27 0.37625 0.0975,1 " 
						transform="rotate(0 0,0.5 )"
						stroke-width ="0.1"
						fill="rgb(194,28,103)"
						/><circle cx="0" cy="0.5" r="0.2" fill="rgb(98,13,23)"/><circle cx="-0.04" cy="0.5" r="0.13333333333333" fill="rgb(120.5,16.5,28.5)"/><path d="M 0,0.5 
						q 0.27 0.15375 0.4175,0.125 q 0.27 -0.33125 -0.23625,0.125 q 0.27 0.0825 -0.08375,0.125 q 0.27 0.37625 -0.0975,1 
						M 0,0.5 
						q -0.27 0.15375 -0.4175,0.125 q -0.27 -0.33125 0.23625,0.125 q -0.27 0.0825 0.08375,0.125 q -0.27 0.37625 0.0975,1 " 
						transform="rotate(72 0,0.5 )"
						stroke-width ="0.1"
						fill="rgb(200.5,24.5,101.5)"
						/><circle cx="0" cy="0.5" r="0.2" fill="rgb(98,13,23)"/><circle cx="0.06" cy="0.57" r="0.13333333333333" fill="rgb(120.5,16.5,28.5)"/><path d="M 0,0.5 
						q 0.27 0.15375 0.4175,0.125 q 0.27 -0.33125 -0.23625,0.125 q 0.27 0.0825 -0.08375,0.125 q 0.27 0.37625 -0.0975,1 
						M 0,0.5 
						q -0.27 0.15375 -0.4175,0.125 q -0.27 -0.33125 0.23625,0.125 q -0.27 0.0825 0.08375,0.125 q -0.27 0.37625 0.0975,1 " 
						transform="rotate(144 0,0.5 )"
						stroke-width ="0.1"
						fill="rgb(195,27,82)"
						/><circle cx="0" cy="0.5" r="0.2" fill="rgb(98,13,23)"/><circle cx="0" cy="0.6" r="0.13333333333333" fill="rgb(120.5,16.5,28.5)"/><path d="M 0,0.5 
						q 0.27 0.15375 0.4175,0.125 q 0.27 -0.33125 -0.23625,0.125 q 0.27 0.0825 -0.08375,0.125 q 0.27 0.37625 -0.0975,1 
						M 0,0.5 
						q -0.27 0.15375 -0.4175,0.125 q -0.27 -0.33125 0.23625,0.125 q -0.27 0.0825 0.08375,0.125 q -0.27 0.37625 0.0975,1 " 
						transform="rotate(216 0,0.5 )"
						stroke-width ="0.1"
						fill="rgb(182.5,19.5,84.5)"
						/><circle cx="0" cy="0.5" r="0.2" fill="rgb(98,13,23)"/><circle cx="0.07" cy="0.45" r="0.13333333333333" fill="rgb(120.5,16.5,28.5)"/><path d="M 0,0.5 
						q 0.27 0.15375 0.4175,0.125 q 0.27 -0.33125 -0.23625,0.125 q 0.27 0.0825 -0.08375,0.125 q 0.27 0.37625 -0.0975,1 
						M 0,0.5 
						q -0.27 0.15375 -0.4175,0.125 q -0.27 -0.33125 0.23625,0.125 q -0.27 0.0825 0.08375,0.125 q -0.27 0.37625 0.0975,1 " 
						transform="rotate(288 0,0.5 )"
						stroke-width ="0.1"
						fill="rgb(175,16,87)"
						/><circle cx="0" cy="0.5" r="0.2" fill="rgb(98,13,23)"/><circle cx="-0.1" cy="0.58" r="0.13333333333333" fill="rgb(120.5,16.5,28.5)"/><path d="M 0,0.5 
						q 0.27 0.15375 0.4175,0.125 q 0.27 -0.33125 -0.23625,0.125 q 0.27 0.0825 -0.08375,0.125 q 0.27 0.37625 -0.0975,1 
						M 0,0.5 
						q -0.27 0.15375 -0.4175,0.125 q -0.27 -0.33125 0.23625,0.125 q -0.27 0.0825 0.08375,0.125 q -0.27 0.37625 0.0975,1 " 
						transform="rotate(360 0,0.5 )"
						stroke-width ="0.1"
						fill="rgb(183.5,16.5,73.5)"
						/><circle cx="0" cy="0.5" r="0.2" fill="rgb(98,13,23)"/><circle cx="-0.01" cy="0.51" r="0.13333333333333" fill="rgb(120.5,16.5,28.5)"/><path d="M 0,0.5 
						q 0.27 0.15375 0.4175,0.125 q 0.27 -0.33125 -0.23625,0.125 q 0.27 0.0825 -0.08375,0.125 q 0.27 0.37625 -0.0975,1 
						M 0,0.5 
						q -0.27 0.15375 -0.4175,0.125 q -0.27 -0.33125 0.23625,0.125 q -0.27 0.0825 0.08375,0.125 q -0.27 0.37625 0.0975,1 " 
						transform="rotate(432 0,0.5 )"
						stroke-width ="0.1"
						fill="rgb(183,16,81)"
						/><circle cx="0" cy="0.5" r="0.2" fill="rgb(98,13,23)"/><circle cx="-0.08" cy="0.4" r="0.13333333333333" fill="rgb(120.5,16.5,28.5)"/><path d="M 0,0.5 
						q 0.27 0.15375 0.4175,0.125 q 0.27 -0.33125 -0.23625,0.125 q 0.27 0.0825 -0.08375,0.125 q 0.27 0.37625 -0.0975,1 
						M 0,0.5 
						q -0.27 0.15375 -0.4175,0.125 q -0.27 -0.33125 0.23625,0.125 q -0.27 0.0825 0.08375,0.125 q -0.27 0.37625 0.0975,1 " 
						transform="rotate(504 0,0.5 )"
						stroke-width ="0.1"
						fill="rgb(173.5,17.5,78.5)"
						/><circle cx="0" cy="0.5" r="0.2" fill="rgb(98,13,23)"/><circle cx="0.04" cy="0.5" r="0.13333333333333" fill="rgb(120.5,16.5,28.5)"/><path d="M 0,0.5 
						q 0.27 0.15375 0.4175,0.125 q 0.27 -0.33125 -0.23625,0.125 q 0.27 0.0825 -0.08375,0.125 q 0.27 0.37625 -0.0975,1 
						M 0,0.5 
						q -0.27 0.15375 -0.4175,0.125 q -0.27 -0.33125 0.23625,0.125 q -0.27 0.0825 0.08375,0.125 q -0.27 0.37625 0.0975,1 " 
						transform="rotate(576 0,0.5 )"
						stroke-width ="0.1"
						fill="rgb(169,0,79)"
						/><circle cx="0" cy="0.5" r="0.2" fill="rgb(98,13,23)"/><circle cx="0.1" cy="0.5" r="0.13333333333333" fill="rgb(120.5,16.5,28.5)"/><path d="M 0,0.5 
						q 0.27 0.15375 0.4175,0.125 q 0.27 -0.33125 -0.23625,0.125 q 0.27 0.0825 -0.08375,0.125 q 0.27 0.37625 -0.0975,1 
						M 0,0.5 
						q -0.27 0.15375 -0.4175,0.125 q -0.27 -0.33125 0.23625,0.125 q -0.27 0.0825 0.08375,0.125 q -0.27 0.37625 0.0975,1 " 
						transform="rotate(648 0,0.5 )"
						stroke-width ="0.1"
						fill="rgb(168.5,12.5,81.5)"
						/><circle cx="0" cy="0.5" r="0.2" fill="rgb(98,13,23)"/><circle cx="-0.05" cy="0.41" r="0.13333333333333" fill="rgb(120.5,16.5,28.5)"/><path d="M 0,0.5 
						q 0.27 0.15375 0.4175,0.125 q 0.27 -0.33125 -0.23625,0.125 q 0.27 0.0825 -0.08375,0.125 q 0.27 0.37625 -0.0975,1 
						M 0,0.5 
						q -0.27 0.15375 -0.4175,0.125 q -0.27 -0.33125 0.23625,0.125 q -0.27 0.0825 0.08375,0.125 q -0.27 0.37625 0.0975,1 " 
						transform="rotate(720 0,0.5 )"
						stroke-width ="0.1"
						fill="rgb(161,0,80)"
						/><circle cx="0" cy="0.5" r="0.2" fill="rgb(98,13,23)"/><circle cx="0.1" cy="0.44" r="0.13333333333333" fill="rgb(120.5,16.5,28.5)"/></g><g id="flower2"><path d="M 0,1 
						q 0.54 0.3075 0.635,0.25 q 0.54 -0.6625 -0.4725,0.25 q 0.79 0.165 0.4175,0.25 q 0.54 0.7525 -0.58,1 
						M 0,1 
						q -0.54 0.3075 -0.635,0.25 q -0.54 -0.6625 0.4725,0.25 q -0.79 0.165 -0.4175,0.25 q -0.54 0.7525 0.58,1 " 
						transform="rotate(0 0,1 )"
						stroke-width ="0.1"
						fill="rgb(192,23,94)"
						/><path d="M 0,1 
						q 0.54 0.3075 0.635,0.25 q 0.54 -0.6625 -0.4725,0.25 q 0.79 0.165 0.4175,0.25 q 0.54 0.7525 -0.58,1 
						M 0,1 
						q -0.54 0.3075 -0.635,0.25 q -0.54 -0.6625 0.4725,0.25 q -0.79 0.165 -0.4175,0.25 q -0.54 0.7525 0.58,1 " 
						transform="rotate(36 0,1 )"
						stroke-width ="0.1"
						fill="rgb(202.5,14.5,92.5)"
						/><path d="M 0,1 
						q 0.54 0.3075 0.635,0.25 q 0.54 -0.6625 -0.4725,0.25 q 0.79 0.165 0.4175,0.25 q 0.54 0.7525 -0.58,1 
						M 0,1 
						q -0.54 0.3075 -0.635,0.25 q -0.54 -0.6625 0.4725,0.25 q -0.79 0.165 -0.4175,0.25 q -0.54 0.7525 0.58,1 " 
						transform="rotate(72 0,1 )"
						stroke-width ="0.1"
						fill="rgb(187,19,82)"
						/></g><g id="flower3"><path d="M 0,1.5 
						q 0.81 0.46125 0.8525,0.375 q 0.81 -0.99375 -0.70875,0.375 q 1.185 0.2475 0.62625,0.375 q 0.81 1.12875 -0.77,1 
						M 0,1.5 
						q -0.81 0.46125 -0.8525,0.375 q -0.81 -0.99375 0.70875,0.375 q -1.185 0.2475 -0.62625,0.375 q -0.81 1.12875 0.77,1 " 
						transform="rotate(0 0,1.5 )"
						stroke-width ="0.1"
						fill="rgb(195,24,90)"
						/><circle cx="0" cy="1.5" r="0.6" fill="rgb(104,11,20)"/><circle cx="-0.01" cy="1.52" r="0.4" fill="rgb(104.5,32.5,33.5)"/><path d="M 0,1.5 
						q 0.81 0.46125 0.8525,0.375 q 0.81 -0.99375 -0.70875,0.375 q 1.185 0.2475 0.62625,0.375 q 0.81 1.12875 -0.77,1 
						M 0,1.5 
						q -0.81 0.46125 -0.8525,0.375 q -0.81 -0.99375 0.70875,0.375 q -1.185 0.2475 -0.62625,0.375 q -0.81 1.12875 0.77,1 " 
						transform="rotate(72 0,1.5 )"
						stroke-width ="0.1"
						fill="rgb(200.5,16.5,90.5)"
						/><circle cx="0" cy="1.5" r="0.6" fill="rgb(104,11,20)"/><circle cx="-0.1" cy="1.46" r="0.4" fill="rgb(104.5,32.5,33.5)"/><path d="M 0,1.5 
						q 0.81 0.46125 0.8525,0.375 q 0.81 -0.99375 -0.70875,0.375 q 1.185 0.2475 0.62625,0.375 q 0.81 1.12875 -0.77,1 
						M 0,1.5 
						q -0.81 0.46125 -0.8525,0.375 q -0.81 -0.99375 0.70875,0.375 q -1.185 0.2475 -0.62625,0.375 q -0.81 1.12875 0.77,1 " 
						transform="rotate(144 0,1.5 )"
						stroke-width ="0.1"
						fill="rgb(183,11,99)"
						/><circle cx="0" cy="1.5" r="0.6" fill="rgb(104,11,20)"/><circle cx="-0.04" cy="1.56" r="0.4" fill="rgb(104.5,32.5,33.5)"/><path d="M 0,1.5 
						q 0.81 0.46125 0.8525,0.375 q 0.81 -0.99375 -0.70875,0.375 q 1.185 0.2475 0.62625,0.375 q 0.81 1.12875 -0.77,1 
						M 0,1.5 
						q -0.81 0.46125 -0.8525,0.375 q -0.81 -0.99375 0.70875,0.375 q -1.185 0.2475 -0.62625,0.375 q -0.81 1.12875 0.77,1 " 
						transform="rotate(216 0,1.5 )"
						stroke-width ="0.1"
						fill="rgb(177.5,14.5,97.5)"
						/><circle cx="0" cy="1.5" r="0.6" fill="rgb(104,11,20)"/><circle cx="-0.08" cy="1.5" r="0.4" fill="rgb(104.5,32.5,33.5)"/><path d="M 0,1.5 
						q 0.81 0.46125 0.8525,0.375 q 0.81 -0.99375 -0.70875,0.375 q 1.185 0.2475 0.62625,0.375 q 0.81 1.12875 -0.77,1 
						M 0,1.5 
						q -0.81 0.46125 -0.8525,0.375 q -0.81 -0.99375 0.70875,0.375 q -1.185 0.2475 -0.62625,0.375 q -0.81 1.12875 0.77,1 " 
						transform="rotate(288 0,1.5 )"
						stroke-width ="0.1"
						fill="rgb(187,20,77)"
						/><circle cx="0" cy="1.5" r="0.6" fill="rgb(104,11,20)"/><circle cx="0.07" cy="1.52" r="0.4" fill="rgb(104.5,32.5,33.5)"/><path d="M 0,1.5 
						q 0.81 0.46125 0.8525,0.375 q 0.81 -0.99375 -0.70875,0.375 q 1.185 0.2475 0.62625,0.375 q 0.81 1.12875 -0.77,1 
						M 0,1.5 
						q -0.81 0.46125 -0.8525,0.375 q -0.81 -0.99375 0.70875,0.375 q -1.185 0.2475 -0.62625,0.375 q -0.81 1.12875 0.77,1 " 
						transform="rotate(360 0,1.5 )"
						stroke-width ="0.1"
						fill="rgb(187.5,5.5,90.5)"
						/><circle cx="0" cy="1.5" r="0.6" fill="rgb(104,11,20)"/><circle cx="-0.08" cy="1.5" r="0.4" fill="rgb(104.5,32.5,33.5)"/><path d="M 0,1.5 
						q 0.81 0.46125 0.8525,0.375 q 0.81 -0.99375 -0.70875,0.375 q 1.185 0.2475 0.62625,0.375 q 0.81 1.12875 -0.77,1 
						M 0,1.5 
						q -0.81 0.46125 -0.8525,0.375 q -0.81 -0.99375 0.70875,0.375 q -1.185 0.2475 -0.62625,0.375 q -0.81 1.12875 0.77,1 " 
						transform="rotate(432 0,1.5 )"
						stroke-width ="0.1"
						fill="rgb(178,16,79)"
						/><circle cx="0" cy="1.5" r="0.6" fill="rgb(104,11,20)"/><circle cx="-0.03" cy="1.52" r="0.4" fill="rgb(104.5,32.5,33.5)"/><path d="M 0,1.5 
						q 0.81 0.46125 0.8525,0.375 q 0.81 -0.99375 -0.70875,0.375 q 1.185 0.2475 0.62625,0.375 q 0.81 1.12875 -0.77,1 
						M 0,1.5 
						q -0.81 0.46125 -0.8525,0.375 q -0.81 -0.99375 0.70875,0.375 q -1.185 0.2475 -0.62625,0.375 q -0.81 1.12875 0.77,1 " 
						transform="rotate(504 0,1.5 )"
						stroke-width ="0.1"
						fill="rgb(173.5,5.5,72.5)"
						/><circle cx="0" cy="1.5" r="0.6" fill="rgb(104,11,20)"/><circle cx="-0.04" cy="1.54" r="0.4" fill="rgb(104.5,32.5,33.5)"/><path d="M 0,1.5 
						q 0.81 0.46125 0.8525,0.375 q 0.81 -0.99375 -0.70875,0.375 q 1.185 0.2475 0.62625,0.375 q 0.81 1.12875 -0.77,1 
						M 0,1.5 
						q -0.81 0.46125 -0.8525,0.375 q -0.81 -0.99375 0.70875,0.375 q -1.185 0.2475 -0.62625,0.375 q -0.81 1.12875 0.77,1 " 
						transform="rotate(576 0,1.5 )"
						stroke-width ="0.1"
						fill="rgb(166,1,70)"
						/><circle cx="0" cy="1.5" r="0.6" fill="rgb(104,11,20)"/><circle cx="-0.01" cy="1.53" r="0.4" fill="rgb(104.5,32.5,33.5)"/><path d="M 0,1.5 
						q 0.81 0.46125 0.8525,0.375 q 0.81 -0.99375 -0.70875,0.375 q 1.185 0.2475 0.62625,0.375 q 0.81 1.12875 -0.77,1 
						M 0,1.5 
						q -0.81 0.46125 -0.8525,0.375 q -0.81 -0.99375 0.70875,0.375 q -1.185 0.2475 -0.62625,0.375 q -0.81 1.12875 0.77,1 " 
						transform="rotate(648 0,1.5 )"
						stroke-width ="0.1"
						fill="rgb(174.5,1.5,79.5)"
						/><circle cx="0" cy="1.5" r="0.6" fill="rgb(104,11,20)"/><circle cx="-0.09" cy="1.42" r="0.4" fill="rgb(104.5,32.5,33.5)"/><path d="M 0,1.5 
						q 0.81 0.46125 0.8525,0.375 q 0.81 -0.99375 -0.70875,0.375 q 1.185 0.2475 0.62625,0.375 q 0.81 1.12875 -0.77,1 
						M 0,1.5 
						q -0.81 0.46125 -0.8525,0.375 q -0.81 -0.99375 0.70875,0.375 q -1.185 0.2475 -0.62625,0.375 q -0.81 1.12875 0.77,1 " 
						transform="rotate(720 0,1.5 )"
						stroke-width ="0.1"
						fill="rgb(160,6,65)"
						/><circle cx="0" cy="1.5" r="0.6" fill="rgb(104,11,20)"/><circle cx="-0.07" cy="1.49" r="0.4" fill="rgb(104.5,32.5,33.5)"/></g><g id="flower4"><path d="M 0,2 
						q 1.08 0.615 1.07,0.5 q 1.08 -1.325 -0.945,0.5 q 1.58 0.33 0.835,0.5 q 1.08 1.505 -0.96,1 
						M 0,2 
						q -1.08 0.615 -1.07,0.5 q -1.08 -1.325 0.945,0.5 q -1.58 0.33 -0.835,0.5 q -1.08 1.505 0.96,1 " 
						transform="rotate(0 0,2 )"
						stroke-width ="0.1"
						fill="rgb(187,30,95)"
						/><circle cx="0" cy="2" r="0.8" fill="rgb(103,15,22)"/><circle cx="-0.07" cy="2.03" r="0.53333333333333" fill="rgb(104.5,25.5,40.5)"/><path d="M 0,2 
						q 1.08 0.615 1.07,0.5 q 1.08 -1.325 -0.945,0.5 q 1.58 0.33 0.835,0.5 q 1.08 1.505 -0.96,1 
						M 0,2 
						q -1.08 0.615 -1.07,0.5 q -1.08 -1.325 0.945,0.5 q -1.58 0.33 -0.835,0.5 q -1.08 1.505 0.96,1 " 
						transform="rotate(72 0,2 )"
						stroke-width ="0.1"
						fill="rgb(184.5,27.5,94.5)"
						/><circle cx="0" cy="2" r="0.8" fill="rgb(103,15,22)"/><circle cx="-0.06" cy="1.94" r="0.53333333333333" fill="rgb(104.5,25.5,40.5)"/><path d="M 0,2 
						q 1.08 0.615 1.07,0.5 q 1.08 -1.325 -0.945,0.5 q 1.58 0.33 0.835,0.5 q 1.08 1.505 -0.96,1 
						M 0,2 
						q -1.08 0.615 -1.07,0.5 q -1.08 -1.325 0.945,0.5 q -1.58 0.33 -0.835,0.5 q -1.08 1.505 0.96,1 " 
						transform="rotate(144 0,2 )"
						stroke-width ="0.1"
						fill="rgb(188,20,85)"
						/><circle cx="0" cy="2" r="0.8" fill="rgb(103,15,22)"/><circle cx="0.02" cy="2.07" r="0.53333333333333" fill="rgb(104.5,25.5,40.5)"/><path d="M 0,2 
						q 1.08 0.615 1.07,0.5 q 1.08 -1.325 -0.945,0.5 q 1.58 0.33 0.835,0.5 q 1.08 1.505 -0.96,1 
						M 0,2 
						q -1.08 0.615 -1.07,0.5 q -1.08 -1.325 0.945,0.5 q -1.58 0.33 -0.835,0.5 q -1.08 1.505 0.96,1 " 
						transform="rotate(216 0,2 )"
						stroke-width ="0.1"
						fill="rgb(180.5,24.5,84.5)"
						/><circle cx="0" cy="2" r="0.8" fill="rgb(103,15,22)"/><circle cx="0" cy="2.06" r="0.53333333333333" fill="rgb(104.5,25.5,40.5)"/><path d="M 0,2 
						q 1.08 0.615 1.07,0.5 q 1.08 -1.325 -0.945,0.5 q 1.58 0.33 0.835,0.5 q 1.08 1.505 -0.96,1 
						M 0,2 
						q -1.08 0.615 -1.07,0.5 q -1.08 -1.325 0.945,0.5 q -1.58 0.33 -0.835,0.5 q -1.08 1.505 0.96,1 " 
						transform="rotate(288 0,2 )"
						stroke-width ="0.1"
						fill="rgb(178,23,86)"
						/><circle cx="0" cy="2" r="0.8" fill="rgb(103,15,22)"/><circle cx="-0.04" cy="2.09" r="0.53333333333333" fill="rgb(104.5,25.5,40.5)"/><path d="M 0,2 
						q 1.08 0.615 1.07,0.5 q 1.08 -1.325 -0.945,0.5 q 1.58 0.33 0.835,0.5 q 1.08 1.505 -0.96,1 
						M 0,2 
						q -1.08 0.615 -1.07,0.5 q -1.08 -1.325 0.945,0.5 q -1.58 0.33 -0.835,0.5 q -1.08 1.505 0.96,1 " 
						transform="rotate(360 0,2 )"
						stroke-width ="0.1"
						fill="rgb(174.5,9.5,82.5)"
						/><circle cx="0" cy="2" r="0.8" fill="rgb(103,15,22)"/><circle cx="-0.07" cy="2" r="0.53333333333333" fill="rgb(104.5,25.5,40.5)"/><path d="M 0,2 
						q 1.08 0.615 1.07,0.5 q 1.08 -1.325 -0.945,0.5 q 1.58 0.33 0.835,0.5 q 1.08 1.505 -0.96,1 
						M 0,2 
						q -1.08 0.615 -1.07,0.5 q -1.08 -1.325 0.945,0.5 q -1.58 0.33 -0.835,0.5 q -1.08 1.505 0.96,1 " 
						transform="rotate(432 0,2 )"
						stroke-width ="0.1"
						fill="rgb(179,18,81)"
						/><circle cx="0" cy="2" r="0.8" fill="rgb(103,15,22)"/><circle cx="-0.06" cy="1.96" r="0.53333333333333" fill="rgb(104.5,25.5,40.5)"/><path d="M 0,2 
						q 1.08 0.615 1.07,0.5 q 1.08 -1.325 -0.945,0.5 q 1.58 0.33 0.835,0.5 q 1.08 1.505 -0.96,1 
						M 0,2 
						q -1.08 0.615 -1.07,0.5 q -1.08 -1.325 0.945,0.5 q -1.58 0.33 -0.835,0.5 q -1.08 1.505 0.96,1 " 
						transform="rotate(504 0,2 )"
						stroke-width ="0.1"
						fill="rgb(179.5,4.5,68.5)"
						/><circle cx="0" cy="2" r="0.8" fill="rgb(103,15,22)"/><circle cx="0.06" cy="2.07" r="0.53333333333333" fill="rgb(104.5,25.5,40.5)"/><path d="M 0,2 
						q 1.08 0.615 1.07,0.5 q 1.08 -1.325 -0.945,0.5 q 1.58 0.33 0.835,0.5 q 1.08 1.505 -0.96,1 
						M 0,2 
						q -1.08 0.615 -1.07,0.5 q -1.08 -1.325 0.945,0.5 q -1.58 0.33 -0.835,0.5 q -1.08 1.505 0.96,1 " 
						transform="rotate(576 0,2 )"
						stroke-width ="0.1"
						fill="rgb(183,0,83)"
						/><circle cx="0" cy="2" r="0.8" fill="rgb(103,15,22)"/><circle cx="0.04" cy="2.07" r="0.53333333333333" fill="rgb(104.5,25.5,40.5)"/><path d="M 0,2 
						q 1.08 0.615 1.07,0.5 q 1.08 -1.325 -0.945,0.5 q 1.58 0.33 0.835,0.5 q 1.08 1.505 -0.96,1 
						M 0,2 
						q -1.08 0.615 -1.07,0.5 q -1.08 -1.325 0.945,0.5 q -1.58 0.33 -0.835,0.5 q -1.08 1.505 0.96,1 " 
						transform="rotate(648 0,2 )"
						stroke-width ="0.1"
						fill="rgb(171.5,3.5,68.5)"
						/><circle cx="0" cy="2" r="0.8" fill="rgb(103,15,22)"/><circle cx="0" cy="2.1" r="0.53333333333333" fill="rgb(104.5,25.5,40.5)"/><path d="M 0,2 
						q 1.08 0.615 1.07,0.5 q 1.08 -1.325 -0.945,0.5 q 1.58 0.33 0.835,0.5 q 1.08 1.505 -0.96,1 
						M 0,2 
						q -1.08 0.615 -1.07,0.5 q -1.08 -1.325 0.945,0.5 q -1.58 0.33 -0.835,0.5 q -1.08 1.505 0.96,1 " 
						transform="rotate(720 0,2 )"
						stroke-width ="0.1"
						fill="rgb(160,0,72)"
						/><circle cx="0" cy="2" r="0.8" fill="rgb(103,15,22)"/><circle cx="-0.07" cy="2.09" r="0.53333333333333" fill="rgb(104.5,25.5,40.5)"/></g><g id="flower5"><path d="M 0,2.5 
						q 1.35 0.76875 1.2875,0.625 q 1.35 -1.65625 -1.18125,0.625 q 1.975 0.4125 1.04375,0.625 q 1.35 1.88125 -1.15,1 
						M 0,2.5 
						q -1.35 0.76875 -1.2875,0.625 q -1.35 -1.65625 1.18125,0.625 q -1.975 0.4125 -1.04375,0.625 q -1.35 1.88125 1.15,1 " 
						transform="rotate(0 0,2.5 )"
						stroke-width ="0.1"
						fill="rgb(202,35,96)"
						/><circle cx="0" cy="2.5" r="1" fill="rgb(101,10,28)"/><circle cx="0.07" cy="2.49" r="0.66666666666667" fill="rgb(117.5,30.5,31.5)"/><path d="M 0,2.5 
						q 1.35 0.76875 1.2875,0.625 q 1.35 -1.65625 -1.18125,0.625 q 1.975 0.4125 1.04375,0.625 q 1.35 1.88125 -1.15,1 
						M 0,2.5 
						q -1.35 0.76875 -1.2875,0.625 q -1.35 -1.65625 1.18125,0.625 q -1.975 0.4125 -1.04375,0.625 q -1.35 1.88125 1.15,1 " 
						transform="rotate(72 0,2.5 )"
						stroke-width ="0.1"
						fill="rgb(202.5,32.5,90.5)"
						/><circle cx="0" cy="2.5" r="1" fill="rgb(101,10,28)"/><circle cx="0.03" cy="2.49" r="0.66666666666667" fill="rgb(117.5,30.5,31.5)"/><path d="M 0,2.5 
						q 1.35 0.76875 1.2875,0.625 q 1.35 -1.65625 -1.18125,0.625 q 1.975 0.4125 1.04375,0.625 q 1.35 1.88125 -1.15,1 
						M 0,2.5 
						q -1.35 0.76875 -1.2875,0.625 q -1.35 -1.65625 1.18125,0.625 q -1.975 0.4125 -1.04375,0.625 q -1.35 1.88125 1.15,1 " 
						transform="rotate(144 0,2.5 )"
						stroke-width ="0.1"
						fill="rgb(200,28,82)"
						/><circle cx="0" cy="2.5" r="1" fill="rgb(101,10,28)"/><circle cx="0.1" cy="2.45" r="0.66666666666667" fill="rgb(117.5,30.5,31.5)"/><path d="M 0,2.5 
						q 1.35 0.76875 1.2875,0.625 q 1.35 -1.65625 -1.18125,0.625 q 1.975 0.4125 1.04375,0.625 q 1.35 1.88125 -1.15,1 
						M 0,2.5 
						q -1.35 0.76875 -1.2875,0.625 q -1.35 -1.65625 1.18125,0.625 q -1.975 0.4125 -1.04375,0.625 q -1.35 1.88125 1.15,1 " 
						transform="rotate(216 0,2.5 )"
						stroke-width ="0.1"
						fill="rgb(178.5,25.5,97.5)"
						/><circle cx="0" cy="2.5" r="1" fill="rgb(101,10,28)"/><circle cx="-0.01" cy="2.54" r="0.66666666666667" fill="rgb(117.5,30.5,31.5)"/><path d="M 0,2.5 
						q 1.35 0.76875 1.2875,0.625 q 1.35 -1.65625 -1.18125,0.625 q 1.975 0.4125 1.04375,0.625 q 1.35 1.88125 -1.15,1 
						M 0,2.5 
						q -1.35 0.76875 -1.2875,0.625 q -1.35 -1.65625 1.18125,0.625 q -1.975 0.4125 -1.04375,0.625 q -1.35 1.88125 1.15,1 " 
						transform="rotate(288 0,2.5 )"
						stroke-width ="0.1"
						fill="rgb(189,18,92)"
						/><circle cx="0" cy="2.5" r="1" fill="rgb(101,10,28)"/><circle cx="-0.09" cy="2.48" r="0.66666666666667" fill="rgb(117.5,30.5,31.5)"/><path d="M 0,2.5 
						q 1.35 0.76875 1.2875,0.625 q 1.35 -1.65625 -1.18125,0.625 q 1.975 0.4125 1.04375,0.625 q 1.35 1.88125 -1.15,1 
						M 0,2.5 
						q -1.35 0.76875 -1.2875,0.625 q -1.35 -1.65625 1.18125,0.625 q -1.975 0.4125 -1.04375,0.625 q -1.35 1.88125 1.15,1 " 
						transform="rotate(360 0,2.5 )"
						stroke-width ="0.1"
						fill="rgb(174.5,17.5,90.5)"
						/><circle cx="0" cy="2.5" r="1" fill="rgb(101,10,28)"/><circle cx="0.03" cy="2.49" r="0.66666666666667" fill="rgb(117.5,30.5,31.5)"/><path d="M 0,2.5 
						q 1.35 0.76875 1.2875,0.625 q 1.35 -1.65625 -1.18125,0.625 q 1.975 0.4125 1.04375,0.625 q 1.35 1.88125 -1.15,1 
						M 0,2.5 
						q -1.35 0.76875 -1.2875,0.625 q -1.35 -1.65625 1.18125,0.625 q -1.975 0.4125 -1.04375,0.625 q -1.35 1.88125 1.15,1 " 
						transform="rotate(432 0,2.5 )"
						stroke-width ="0.1"
						fill="rgb(182,20,82)"
						/><circle cx="0" cy="2.5" r="1" fill="rgb(101,10,28)"/><circle cx="0.07" cy="2.49" r="0.66666666666667" fill="rgb(117.5,30.5,31.5)"/><path d="M 0,2.5 
						q 1.35 0.76875 1.2875,0.625 q 1.35 -1.65625 -1.18125,0.625 q 1.975 0.4125 1.04375,0.625 q 1.35 1.88125 -1.15,1 
						M 0,2.5 
						q -1.35 0.76875 -1.2875,0.625 q -1.35 -1.65625 1.18125,0.625 q -1.975 0.4125 -1.04375,0.625 q -1.35 1.88125 1.15,1 " 
						transform="rotate(504 0,2.5 )"
						stroke-width ="0.1"
						fill="rgb(177.5,0.5,74.5)"
						/><circle cx="0" cy="2.5" r="1" fill="rgb(101,10,28)"/><circle cx="0.05" cy="2.46" r="0.66666666666667" fill="rgb(117.5,30.5,31.5)"/><path d="M 0,2.5 
						q 1.35 0.76875 1.2875,0.625 q 1.35 -1.65625 -1.18125,0.625 q 1.975 0.4125 1.04375,0.625 q 1.35 1.88125 -1.15,1 
						M 0,2.5 
						q -1.35 0.76875 -1.2875,0.625 q -1.35 -1.65625 1.18125,0.625 q -1.975 0.4125 -1.04375,0.625 q -1.35 1.88125 1.15,1 " 
						transform="rotate(576 0,2.5 )"
						stroke-width ="0.1"
						fill="rgb(185,1,82)"
						/><circle cx="0" cy="2.5" r="1" fill="rgb(101,10,28)"/><circle cx="-0.06" cy="2.6" r="0.66666666666667" fill="rgb(117.5,30.5,31.5)"/><path d="M 0,2.5 
						q 1.35 0.76875 1.2875,0.625 q 1.35 -1.65625 -1.18125,0.625 q 1.975 0.4125 1.04375,0.625 q 1.35 1.88125 -1.15,1 
						M 0,2.5 
						q -1.35 0.76875 -1.2875,0.625 q -1.35 -1.65625 1.18125,0.625 q -1.975 0.4125 -1.04375,0.625 q -1.35 1.88125 1.15,1 " 
						transform="rotate(648 0,2.5 )"
						stroke-width ="0.1"
						fill="rgb(167.5,0,73.5)"
						/><circle cx="0" cy="2.5" r="1" fill="rgb(101,10,28)"/><circle cx="0" cy="2.41" r="0.66666666666667" fill="rgb(117.5,30.5,31.5)"/><path d="M 0,2.5 
						q 1.35 0.76875 1.2875,0.625 q 1.35 -1.65625 -1.18125,0.625 q 1.975 0.4125 1.04375,0.625 q 1.35 1.88125 -1.15,1 
						M 0,2.5 
						q -1.35 0.76875 -1.2875,0.625 q -1.35 -1.65625 1.18125,0.625 q -1.975 0.4125 -1.04375,0.625 q -1.35 1.88125 1.15,1 " 
						transform="rotate(720 0,2.5 )"
						stroke-width ="0.1"
						fill="rgb(175,2,72)"
						/><circle cx="0" cy="2.5" r="1" fill="rgb(101,10,28)"/><circle cx="-0.07" cy="2.53" r="0.66666666666667" fill="rgb(117.5,30.5,31.5)"/></g><g id="flower6"><path d="M 0,3 
						q 1.62 0.9225 1.505,0.75 q 1.62 -1.9875 -1.4175,0.75 q 2.37 0.495 1.2525,0.75 q 1.62 2.2575 -1.34,1 
						M 0,3 
						q -1.62 0.9225 -1.505,0.75 q -1.62 -1.9875 1.4175,0.75 q -2.37 0.495 -1.2525,0.75 q -1.62 2.2575 1.34,1 " 
						transform="rotate(0 0,3 )"
						stroke-width ="0.1"
						fill="rgb(203,27,89)"
						/><path d="M 0,3 
						q 1.62 0.9225 1.505,0.75 q 1.62 -1.9875 -1.4175,0.75 q 2.37 0.495 1.2525,0.75 q 1.62 2.2575 -1.34,1 
						M 0,3 
						q -1.62 0.9225 -1.505,0.75 q -1.62 -1.9875 1.4175,0.75 q -2.37 0.495 -1.2525,0.75 q -1.62 2.2575 1.34,1 " 
						transform="rotate(36 0,3 )"
						stroke-width ="0.1"
						fill="rgb(190.5,16.5,91.5)"
						/><path d="M 0,3 
						q 1.62 0.9225 1.505,0.75 q 1.62 -1.9875 -1.4175,0.75 q 2.37 0.495 1.2525,0.75 q 1.62 2.2575 -1.34,1 
						M 0,3 
						q -1.62 0.9225 -1.505,0.75 q -1.62 -1.9875 1.4175,0.75 q -2.37 0.495 -1.2525,0.75 q -1.62 2.2575 1.34,1 " 
						transform="rotate(72 0,3 )"
						stroke-width ="0.1"
						fill="rgb(185,24,93)"
						/></g><g id="flower7"><path d="M 0,3.5 
						q 1.89 1.07625 1.7225,0.875 q 1.89 -2.31875 -1.65375,0.875 q 2.765 0.5775 1.46125,0.875 q 1.89 2.63375 -1.53,1 
						M 0,3.5 
						q -1.89 1.07625 -1.7225,0.875 q -1.89 -2.31875 1.65375,0.875 q -2.765 0.5775 -1.46125,0.875 q -1.89 2.63375 1.53,1 " 
						transform="rotate(0 0,3.5 )"
						stroke-width ="0.1"
						fill="rgb(198,18,98)"
						/><circle cx="0" cy="3.5" r="1.4" fill="rgb(102,10,26)"/><circle cx="-0.04" cy="3.58" r="0.93333333333333" fill="rgb(122.5,31.5,26.5)"/><path d="M 0,3.5 
						q 1.89 1.07625 1.7225,0.875 q 1.89 -2.31875 -1.65375,0.875 q 2.765 0.5775 1.46125,0.875 q 1.89 2.63375 -1.53,1 
						M 0,3.5 
						q -1.89 1.07625 -1.7225,0.875 q -1.89 -2.31875 1.65375,0.875 q -2.765 0.5775 -1.46125,0.875 q -1.89 2.63375 1.53,1 " 
						transform="rotate(72 0,3.5 )"
						stroke-width ="0.1"
						fill="rgb(185.5,27.5,87.5)"
						/><circle cx="0" cy="3.5" r="1.4" fill="rgb(102,10,26)"/><circle cx="0.04" cy="3.54" r="0.93333333333333" fill="rgb(122.5,31.5,26.5)"/><path d="M 0,3.5 
						q 1.89 1.07625 1.7225,0.875 q 1.89 -2.31875 -1.65375,0.875 q 2.765 0.5775 1.46125,0.875 q 1.89 2.63375 -1.53,1 
						M 0,3.5 
						q -1.89 1.07625 -1.7225,0.875 q -1.89 -2.31875 1.65375,0.875 q -2.765 0.5775 -1.46125,0.875 q -1.89 2.63375 1.53,1 " 
						transform="rotate(144 0,3.5 )"
						stroke-width ="0.1"
						fill="rgb(197,14,89)"
						/><circle cx="0" cy="3.5" r="1.4" fill="rgb(102,10,26)"/><circle cx="-0.04" cy="3.49" r="0.93333333333333" fill="rgb(122.5,31.5,26.5)"/><path d="M 0,3.5 
						q 1.89 1.07625 1.7225,0.875 q 1.89 -2.31875 -1.65375,0.875 q 2.765 0.5775 1.46125,0.875 q 1.89 2.63375 -1.53,1 
						M 0,3.5 
						q -1.89 1.07625 -1.7225,0.875 q -1.89 -2.31875 1.65375,0.875 q -2.765 0.5775 -1.46125,0.875 q -1.89 2.63375 1.53,1 " 
						transform="rotate(216 0,3.5 )"
						stroke-width ="0.1"
						fill="rgb(192.5,17.5,94.5)"
						/><circle cx="0" cy="3.5" r="1.4" fill="rgb(102,10,26)"/><circle cx="0.01" cy="3.55" r="0.93333333333333" fill="rgb(122.5,31.5,26.5)"/><path d="M 0,3.5 
						q 1.89 1.07625 1.7225,0.875 q 1.89 -2.31875 -1.65375,0.875 q 2.765 0.5775 1.46125,0.875 q 1.89 2.63375 -1.53,1 
						M 0,3.5 
						q -1.89 1.07625 -1.7225,0.875 q -1.89 -2.31875 1.65375,0.875 q -2.765 0.5775 -1.46125,0.875 q -1.89 2.63375 1.53,1 " 
						transform="rotate(288 0,3.5 )"
						stroke-width ="0.1"
						fill="rgb(195,22,94)"
						/><circle cx="0" cy="3.5" r="1.4" fill="rgb(102,10,26)"/><circle cx="0.04" cy="3.49" r="0.93333333333333" fill="rgb(122.5,31.5,26.5)"/><path d="M 0,3.5 
						q 1.89 1.07625 1.7225,0.875 q 1.89 -2.31875 -1.65375,0.875 q 2.765 0.5775 1.46125,0.875 q 1.89 2.63375 -1.53,1 
						M 0,3.5 
						q -1.89 1.07625 -1.7225,0.875 q -1.89 -2.31875 1.65375,0.875 q -2.765 0.5775 -1.46125,0.875 q -1.89 2.63375 1.53,1 " 
						transform="rotate(360 0,3.5 )"
						stroke-width ="0.1"
						fill="rgb(177.5,17.5,90.5)"
						/><circle cx="0" cy="3.5" r="1.4" fill="rgb(102,10,26)"/><circle cx="0.08" cy="3.59" r="0.93333333333333" fill="rgb(122.5,31.5,26.5)"/><path d="M 0,3.5 
						q 1.89 1.07625 1.7225,0.875 q 1.89 -2.31875 -1.65375,0.875 q 2.765 0.5775 1.46125,0.875 q 1.89 2.63375 -1.53,1 
						M 0,3.5 
						q -1.89 1.07625 -1.7225,0.875 q -1.89 -2.31875 1.65375,0.875 q -2.765 0.5775 -1.46125,0.875 q -1.89 2.63375 1.53,1 " 
						transform="rotate(432 0,3.5 )"
						stroke-width ="0.1"
						fill="rgb(175,19,87)"
						/><circle cx="0" cy="3.5" r="1.4" fill="rgb(102,10,26)"/><circle cx="-0.06" cy="3.58" r="0.93333333333333" fill="rgb(122.5,31.5,26.5)"/><path d="M 0,3.5 
						q 1.89 1.07625 1.7225,0.875 q 1.89 -2.31875 -1.65375,0.875 q 2.765 0.5775 1.46125,0.875 q 1.89 2.63375 -1.53,1 
						M 0,3.5 
						q -1.89 1.07625 -1.7225,0.875 q -1.89 -2.31875 1.65375,0.875 q -2.765 0.5775 -1.46125,0.875 q -1.89 2.63375 1.53,1 " 
						transform="rotate(504 0,3.5 )"
						stroke-width ="0.1"
						fill="rgb(180.5,8.5,79.5)"
						/><circle cx="0" cy="3.5" r="1.4" fill="rgb(102,10,26)"/><circle cx="0.08" cy="3.58" r="0.93333333333333" fill="rgb(122.5,31.5,26.5)"/><path d="M 0,3.5 
						q 1.89 1.07625 1.7225,0.875 q 1.89 -2.31875 -1.65375,0.875 q 2.765 0.5775 1.46125,0.875 q 1.89 2.63375 -1.53,1 
						M 0,3.5 
						q -1.89 1.07625 -1.7225,0.875 q -1.89 -2.31875 1.65375,0.875 q -2.765 0.5775 -1.46125,0.875 q -1.89 2.63375 1.53,1 " 
						transform="rotate(576 0,3.5 )"
						stroke-width ="0.1"
						fill="rgb(184,13,85)"
						/><circle cx="0" cy="3.5" r="1.4" fill="rgb(102,10,26)"/><circle cx="-0.02" cy="3.49" r="0.93333333333333" fill="rgb(122.5,31.5,26.5)"/><path d="M 0,3.5 
						q 1.89 1.07625 1.7225,0.875 q 1.89 -2.31875 -1.65375,0.875 q 2.765 0.5775 1.46125,0.875 q 1.89 2.63375 -1.53,1 
						M 0,3.5 
						q -1.89 1.07625 -1.7225,0.875 q -1.89 -2.31875 1.65375,0.875 q -2.765 0.5775 -1.46125,0.875 q -1.89 2.63375 1.53,1 " 
						transform="rotate(648 0,3.5 )"
						stroke-width ="0.1"
						fill="rgb(168.5,0,65.5)"
						/><circle cx="0" cy="3.5" r="1.4" fill="rgb(102,10,26)"/><circle cx="0.06" cy="3.42" r="0.93333333333333" fill="rgb(122.5,31.5,26.5)"/><path d="M 0,3.5 
						q 1.89 1.07625 1.7225,0.875 q 1.89 -2.31875 -1.65375,0.875 q 2.765 0.5775 1.46125,0.875 q 1.89 2.63375 -1.53,1 
						M 0,3.5 
						q -1.89 1.07625 -1.7225,0.875 q -1.89 -2.31875 1.65375,0.875 q -2.765 0.5775 -1.46125,0.875 q -1.89 2.63375 1.53,1 " 
						transform="rotate(720 0,3.5 )"
						stroke-width ="0.1"
						fill="rgb(178,0,65)"
						/><circle cx="0" cy="3.5" r="1.4" fill="rgb(102,10,26)"/><circle cx="-0.02" cy="3.47" r="0.93333333333333" fill="rgb(122.5,31.5,26.5)"/></g><g id="flower8"><path d="M 0,4 
						q 2.16 1.23 1.94,1 q 2.16 -2.65 -1.89,1 q 3.16 0.66 1.67,1 q 2.16 3.01 -1.72,1 
						M 0,4 
						q -2.16 1.23 -1.94,1 q -2.16 -2.65 1.89,1 q -3.16 0.66 -1.67,1 q -2.16 3.01 1.72,1 " 
						transform="rotate(0 0,4 )"
						stroke-width ="0.1"
						fill="rgb(192,19,91)"
						/><circle cx="0" cy="4" r="1.6" fill="rgb(106,18,21)"/><circle cx="-0.06" cy="4.05" r="1.0666666666667" fill="rgb(106.5,19.5,26.5)"/><path d="M 0,4 
						q 2.16 1.23 1.94,1 q 2.16 -2.65 -1.89,1 q 3.16 0.66 1.67,1 q 2.16 3.01 -1.72,1 
						M 0,4 
						q -2.16 1.23 -1.94,1 q -2.16 -2.65 1.89,1 q -3.16 0.66 -1.67,1 q -2.16 3.01 1.72,1 " 
						transform="rotate(72 0,4 )"
						stroke-width ="0.1"
						fill="rgb(185.5,24.5,83.5)"
						/><circle cx="0" cy="4" r="1.6" fill="rgb(106,18,21)"/><circle cx="-0.04" cy="3.96" r="1.0666666666667" fill="rgb(106.5,19.5,26.5)"/><path d="M 0,4 
						q 2.16 1.23 1.94,1 q 2.16 -2.65 -1.89,1 q 3.16 0.66 1.67,1 q 2.16 3.01 -1.72,1 
						M 0,4 
						q -2.16 1.23 -1.94,1 q -2.16 -2.65 1.89,1 q -3.16 0.66 -1.67,1 q -2.16 3.01 1.72,1 " 
						transform="rotate(144 0,4 )"
						stroke-width ="0.1"
						fill="rgb(185,29,96)"
						/><circle cx="0" cy="4" r="1.6" fill="rgb(106,18,21)"/><circle cx="0.09" cy="3.93" r="1.0666666666667" fill="rgb(106.5,19.5,26.5)"/><path d="M 0,4 
						q 2.16 1.23 1.94,1 q 2.16 -2.65 -1.89,1 q 3.16 0.66 1.67,1 q 2.16 3.01 -1.72,1 
						M 0,4 
						q -2.16 1.23 -1.94,1 q -2.16 -2.65 1.89,1 q -3.16 0.66 -1.67,1 q -2.16 3.01 1.72,1 " 
						transform="rotate(216 0,4 )"
						stroke-width ="0.1"
						fill="rgb(191.5,7.5,87.5)"
						/><circle cx="0" cy="4" r="1.6" fill="rgb(106,18,21)"/><circle cx="-0.01" cy="4.01" r="1.0666666666667" fill="rgb(106.5,19.5,26.5)"/><path d="M 0,4 
						q 2.16 1.23 1.94,1 q 2.16 -2.65 -1.89,1 q 3.16 0.66 1.67,1 q 2.16 3.01 -1.72,1 
						M 0,4 
						q -2.16 1.23 -1.94,1 q -2.16 -2.65 1.89,1 q -3.16 0.66 -1.67,1 q -2.16 3.01 1.72,1 " 
						transform="rotate(288 0,4 )"
						stroke-width ="0.1"
						fill="rgb(192,18,92)"
						/><circle cx="0" cy="4" r="1.6" fill="rgb(106,18,21)"/><circle cx="0.06" cy="4.08" r="1.0666666666667" fill="rgb(106.5,19.5,26.5)"/><path d="M 0,4 
						q 2.16 1.23 1.94,1 q 2.16 -2.65 -1.89,1 q 3.16 0.66 1.67,1 q 2.16 3.01 -1.72,1 
						M 0,4 
						q -2.16 1.23 -1.94,1 q -2.16 -2.65 1.89,1 q -3.16 0.66 -1.67,1 q -2.16 3.01 1.72,1 " 
						transform="rotate(360 0,4 )"
						stroke-width ="0.1"
						fill="rgb(192.5,2.5,89.5)"
						/><circle cx="0" cy="4" r="1.6" fill="rgb(106,18,21)"/><circle cx="-0.01" cy="3.94" r="1.0666666666667" fill="rgb(106.5,19.5,26.5)"/><path d="M 0,4 
						q 2.16 1.23 1.94,1 q 2.16 -2.65 -1.89,1 q 3.16 0.66 1.67,1 q 2.16 3.01 -1.72,1 
						M 0,4 
						q -2.16 1.23 -1.94,1 q -2.16 -2.65 1.89,1 q -3.16 0.66 -1.67,1 q -2.16 3.01 1.72,1 " 
						transform="rotate(432 0,4 )"
						stroke-width ="0.1"
						fill="rgb(174,18,84)"
						/><circle cx="0" cy="4" r="1.6" fill="rgb(106,18,21)"/><circle cx="0.1" cy="4" r="1.0666666666667" fill="rgb(106.5,19.5,26.5)"/><path d="M 0,4 
						q 2.16 1.23 1.94,1 q 2.16 -2.65 -1.89,1 q 3.16 0.66 1.67,1 q 2.16 3.01 -1.72,1 
						M 0,4 
						q -2.16 1.23 -1.94,1 q -2.16 -2.65 1.89,1 q -3.16 0.66 -1.67,1 q -2.16 3.01 1.72,1 " 
						transform="rotate(504 0,4 )"
						stroke-width ="0.1"
						fill="rgb(171.5,9.5,69.5)"
						/><circle cx="0" cy="4" r="1.6" fill="rgb(106,18,21)"/><circle cx="-0.01" cy="4.04" r="1.0666666666667" fill="rgb(106.5,19.5,26.5)"/><path d="M 0,4 
						q 2.16 1.23 1.94,1 q 2.16 -2.65 -1.89,1 q 3.16 0.66 1.67,1 q 2.16 3.01 -1.72,1 
						M 0,4 
						q -2.16 1.23 -1.94,1 q -2.16 -2.65 1.89,1 q -3.16 0.66 -1.67,1 q -2.16 3.01 1.72,1 " 
						transform="rotate(576 0,4 )"
						stroke-width ="0.1"
						fill="rgb(169,14,72)"
						/><circle cx="0" cy="4" r="1.6" fill="rgb(106,18,21)"/><circle cx="-0.08" cy="4.07" r="1.0666666666667" fill="rgb(106.5,19.5,26.5)"/><path d="M 0,4 
						q 2.16 1.23 1.94,1 q 2.16 -2.65 -1.89,1 q 3.16 0.66 1.67,1 q 2.16 3.01 -1.72,1 
						M 0,4 
						q -2.16 1.23 -1.94,1 q -2.16 -2.65 1.89,1 q -3.16 0.66 -1.67,1 q -2.16 3.01 1.72,1 " 
						transform="rotate(648 0,4 )"
						stroke-width ="0.1"
						fill="rgb(166.5,0,83.5)"
						/><circle cx="0" cy="4" r="1.6" fill="rgb(106,18,21)"/><circle cx="-0.07" cy="3.9" r="1.0666666666667" fill="rgb(106.5,19.5,26.5)"/><path d="M 0,4 
						q 2.16 1.23 1.94,1 q 2.16 -2.65 -1.89,1 q 3.16 0.66 1.67,1 q 2.16 3.01 -1.72,1 
						M 0,4 
						q -2.16 1.23 -1.94,1 q -2.16 -2.65 1.89,1 q -3.16 0.66 -1.67,1 q -2.16 3.01 1.72,1 " 
						transform="rotate(720 0,4 )"
						stroke-width ="0.1"
						fill="rgb(170,0,76)"
						/><circle cx="0" cy="4" r="1.6" fill="rgb(106,18,21)"/><circle cx="-0.01" cy="4.04" r="1.0666666666667" fill="rgb(106.5,19.5,26.5)"/></g></defs>
				<g class="fullPlant">
					<g>
					<path d ="M 54,91 
					q -0.78 -23.3 1.584,-35.52" fill ="none" stroke ="rgb(190.5,91.5,172.5)" stroke-width ="1.638"/></g><circle cx="55.584" cy="55.48" r="0.819" fill="rgb(190.5,91.5,172.5)"/><use xlink:href="#leaf7"
						x="54" y="91" 
						transform="rotate(143 54 91)" 	
						fill="rgb(80,7,33)" /><use xlink:href="#leaf4"
						x="54" y="91" 
						transform="rotate(152 54.02 91.01)" 	
						fill="rgb(67,9,35)" /><use xlink:href="#flower7" id="fleur00"
						x="55.584" y="51.48" transform="rotate(98 55.584 55.48)" />
					<g>
					<path d ="M 53,91 
					q 0.78 -26.04 -10.428,-44.208" fill ="none" stroke ="rgb(191,92,175)" stroke-width ="1.638"/></g><circle cx="42.572" cy="46.792" r="0.819" fill="rgb(191,92,175)"/><use xlink:href="#leaf4"
						x="53" y="91" 
						transform="rotate(212 53.91 91.24)" 	
						fill="rgb(95,41,52)" /><use xlink:href="#leaf3"
						x="53" y="91" 
						transform="rotate(208 53.52 91.87)" 	
						fill="rgb(82,26,50)" /><use xlink:href="#flower6" id="fleur10"
						x="42.572" y="42.792" transform="rotate(124 42.572 46.792)" />
					<g>
					<path d ="M 56,91 
					q -0.78 -24.5 -6.768,-46.68" fill ="none" stroke ="rgb(189.5,92.5,177.5)" stroke-width ="1.638"/></g><circle cx="49.232" cy="44.32" r="0.819" fill="rgb(189.5,92.5,177.5)"/><use xlink:href="#leaf5"
						x="56" y="91" 
						transform="rotate(221 56 91)" 	
						fill="rgb(102,20,44)" /><use xlink:href="#leaf3"
						x="56" y="91" 
						transform="rotate(224 56.94 91.06)" 	
						fill="rgb(103,5,54)" /><use xlink:href="#flower5" id="fleur20"
						x="49.232" y="40.32" transform="rotate(144 49.232 44.32)" />
					<g>
					<path d ="M 57,91 
					q 0.78 -18.39 -2.988,-31.548" fill ="none" stroke ="rgb(188,95,179)" stroke-width ="1.638"/></g><circle cx="54.012" cy="59.452" r="0.819" fill="rgb(188,95,179)"/><use xlink:href="#leaf6"
						x="57" y="91" 
						transform="rotate(224 57.53 91.17)" 	
						fill="rgb(75,29,40)" /><use xlink:href="#leaf5"
						x="57" y="91" 
						transform="rotate(218 57 91)" 	
						fill="rgb(96,13,42)" /><use xlink:href="#flower7" id="fleur30"
						x="54.012" y="55.452" transform="rotate(166 54.012 59.452)" /></g>
				</svg>