<svg class="relie" xmlns="http://www.w3.org/2000/svg" viewBox="0 0 100 100" preserveAspectRatio="xMidYMid meet" x="0" y="0" overflow="visible" xmlns:xlink="http://www.w3.org/1999/xlink">

		<defs>  <g id="leaf1" transform="skewX(3) skewY(3)"><path d="M 0,0 
					q 0.1275 0.1275 0.125,2.755 q 0.1275 0.1275 -0.125,1 
					M 0,0 
					q -0.1275 0.1275 -0.125,2.755 q -0.1275 0.1275 0.125,1 " 
					stroke-width ="0.2" /></g>  <g id="leaf2" transform="skewX(20) skewY(20)"><path d="M 0,0 
					q 0.255 0.255 0.25,5.51 q 0.255 0.255 -0.25,1.74 
					M 0,0 
					q -0.255 0.255 -0.25,5.51 q -0.255 0.255 0.25,1.74 " 
					stroke-width ="0.2" /></g>  <g id="leaf3" transform="skewX(20) skewY(20)"><path d="M 0,0 
					q 0.3825 0.3825 0.375,8.265 q 0.3825 0.3825 -0.375,2.61 
					M 0,0 
					q -0.3825 0.3825 -0.375,8.265 q -0.3825 0.3825 0.375,2.61 " 
					stroke-width ="0.2" /></g>  <g id="leaf4" transform="skewX(-18) skewY(-18)"><path d="M 0,0 
					q 0.51 0.51 0.5,11.02 q 0.51 0.51 -0.5,3.48 
					M 0,0 
					q -0.51 0.51 -0.5,11.02 q -0.51 0.51 0.5,3.48 " 
					stroke-width ="0.2" /></g>  <g id="leaf5" transform="skewX(2) skewY(2)"><path d="M 0,0 
					q 0.6375 0.6375 0.625,13.775 q 0.6375 0.6375 -0.625,4.35 
					M 0,0 
					q -0.6375 0.6375 -0.625,13.775 q -0.6375 0.6375 0.625,4.35 " 
					stroke-width ="0.2" /></g>  <g id="leaf6" transform="skewX(-13) skewY(-13)"><path d="M 0,0 
					q 0.765 0.765 0.75,16.53 q 0.765 0.765 -0.75,5.22 
					M 0,0 
					q -0.765 0.765 -0.75,16.53 q -0.765 0.765 0.75,5.22 " 
					stroke-width ="0.2" /></g>  <g id="leaf7" transform="skewX(-3) skewY(-3)"><path d="M 0,0 
					q 0.8925 0.8925 0.875,19.285 q 0.8925 0.8925 -0.875,6.09 
					M 0,0 
					q -0.8925 0.8925 -0.875,19.285 q -0.8925 0.8925 0.875,6.09 " 
					stroke-width ="0.2" /></g>  <g id="leaf8" transform="skewX(11) skewY(11)"><path d="M 0,0 
					q 1.02 1.02 1,22.04 q 1.02 1.02 -1,6.96 
					M 0,0 
					q -1.02 1.02 -1,22.04 q -1.02 1.02 1,6.96 " 
					stroke-width ="0.2" /></g><g id="flower1"><path d="M 0,1.375 
						q 0 0.0875 0.11375,0.350625 q 0.1875 0.05 0.38375,0.570625 q 0.1125 0.0375 -0.15625,0.6634375 q 0.0125 0.075 -0.34125,1 
						M 0,1.375 
						q -0 0.0875 -0.11375,0.350625 q -0.1875 0.05 -0.38375,0.570625 q -0.1125 0.0375 0.15625,0.6634375 q -0.0125 0.075 0.34125,1 " 
						transform="rotate(0 0,1.375 )"
						stroke-width ="0.1"
						fill="rgb(215,162,113)"
						/><path d="M 0,1.375 
						q 0 0.0875 0.11375,0.350625 q 0.1875 0.05 0.38375,0.570625 q 0.1125 0.0375 -0.15625,0.6634375 q 0.0125 0.075 -0.34125,1 
						M 0,1.375 
						q -0 0.0875 -0.11375,0.350625 q -0.1875 0.05 -0.38375,0.570625 q -0.1125 0.0375 0.15625,0.6634375 q -0.0125 0.075 0.34125,1 " 
						transform="rotate(67.5 0,1.375 )"
						stroke-width ="0.1"
						fill="rgb(218.5,155.5,118.5)"
						/><path d="M 0,1.375 
						q 0 0.0875 0.11375,0.350625 q 0.1875 0.05 0.38375,0.570625 q 0.1125 0.0375 -0.15625,0.6634375 q 0.0125 0.075 -0.34125,1 
						M 0,1.375 
						q -0 0.0875 -0.11375,0.350625 q -0.1875 0.05 -0.38375,0.570625 q -0.1125 0.0375 0.15625,0.6634375 q -0.0125 0.075 0.34125,1 " 
						transform="rotate(135 0,1.375 )"
						stroke-width ="0.1"
						fill="rgb(210,155,107)"
						/></g><g id="flower2"><path d="M 0,2.75 
						q 0 0.175 0.2275,0.70125 q 0.375 0.1 0.7675,1.14125 q 0.225 0.075 -0.3125,1.326875 q 0.025 0.15 -0.6825,1 
						M 0,2.75 
						q -0 0.175 -0.2275,0.70125 q -0.375 0.1 -0.7675,1.14125 q -0.225 0.075 0.3125,1.326875 q -0.025 0.15 0.6825,1 " 
						transform="rotate(0 0,2.75 )"
						stroke-width ="0.1"
						fill="rgb(215,164,116)"
						/><path d="M 0,2.75 
						q 0 0.175 0.2275,0.70125 q 0.375 0.1 0.7675,1.14125 q 0.225 0.075 -0.3125,1.326875 q 0.025 0.15 -0.6825,1 
						M 0,2.75 
						q -0 0.175 -0.2275,0.70125 q -0.375 0.1 -0.7675,1.14125 q -0.225 0.075 0.3125,1.326875 q -0.025 0.15 0.6825,1 " 
						transform="rotate(67.5 0,2.75 )"
						stroke-width ="0.1"
						fill="rgb(223.5,164.5,113.5)"
						/><path d="M 0,2.75 
						q 0 0.175 0.2275,0.70125 q 0.375 0.1 0.7675,1.14125 q 0.225 0.075 -0.3125,1.326875 q 0.025 0.15 -0.6825,1 
						M 0,2.75 
						q -0 0.175 -0.2275,0.70125 q -0.375 0.1 -0.7675,1.14125 q -0.225 0.075 0.3125,1.326875 q -0.025 0.15 0.6825,1 " 
						transform="rotate(135 0,2.75 )"
						stroke-width ="0.1"
						fill="rgb(209,155,105)"
						/></g><g id="flower3"><path d="M 0,4.125 
						q 0 0.2625 0.34125,1.051875 q 0.5625 0.15 1.15125,1.711875 q 0.3375 0.1125 -0.46875,1.9903125 q 0.0375 0.225 -1.02375,1 
						M 0,4.125 
						q -0 0.2625 -0.34125,1.051875 q -0.5625 0.15 -1.15125,1.711875 q -0.3375 0.1125 0.46875,1.9903125 q -0.0375 0.225 1.02375,1 " 
						transform="rotate(0 0,4.125 )"
						stroke-width ="0.1"
						fill="rgb(208,158,128)"
						/><path d="M 0,4.125 
						q 0 0.2625 0.34125,1.051875 q 0.5625 0.15 1.15125,1.711875 q 0.3375 0.1125 -0.46875,1.9903125 q 0.0375 0.225 -1.02375,1 
						M 0,4.125 
						q -0 0.2625 -0.34125,1.051875 q -0.5625 0.15 -1.15125,1.711875 q -0.3375 0.1125 0.46875,1.9903125 q -0.0375 0.225 1.02375,1 " 
						transform="rotate(67.5 0,4.125 )"
						stroke-width ="0.1"
						fill="rgb(215.5,170.5,115.5)"
						/><path d="M 0,4.125 
						q 0 0.2625 0.34125,1.051875 q 0.5625 0.15 1.15125,1.711875 q 0.3375 0.1125 -0.46875,1.9903125 q 0.0375 0.225 -1.02375,1 
						M 0,4.125 
						q -0 0.2625 -0.34125,1.051875 q -0.5625 0.15 -1.15125,1.711875 q -0.3375 0.1125 0.46875,1.9903125 q -0.0375 0.225 1.02375,1 " 
						transform="rotate(135 0,4.125 )"
						stroke-width ="0.1"
						fill="rgb(218,156,111)"
						/></g><g id="flower4"><path d="M 0,5.5 
						q 0 0.35 0.455,1.4025 q 0.75 0.2 1.535,2.2825 q 0.45 0.15 -0.625,2.65375 q 0.05 0.3 -1.365,1 
						M 0,5.5 
						q -0 0.35 -0.455,1.4025 q -0.75 0.2 -1.535,2.2825 q -0.45 0.15 0.625,2.65375 q -0.05 0.3 1.365,1 " 
						transform="rotate(0 0,5.5 )"
						stroke-width ="0.1"
						fill="rgb(217,164,113)"
						/><circle cx="0" cy="5.5" r="0.385" fill="rgb(163,60,40)"/><circle cx="0.08" cy="5.6" r="0.25666666666667" fill="rgb(174.5,68.5,52.5)"/><path d="M 0,5.5 
						q 0 0.35 0.455,1.4025 q 0.75 0.2 1.535,2.2825 q 0.45 0.15 -0.625,2.65375 q 0.05 0.3 -1.365,1 
						M 0,5.5 
						q -0 0.35 -0.455,1.4025 q -0.75 0.2 -1.535,2.2825 q -0.45 0.15 0.625,2.65375 q -0.05 0.3 1.365,1 " 
						transform="rotate(135 0,5.5 )"
						stroke-width ="0.1"
						fill="rgb(213.5,157.5,109.5)"
						/><circle cx="0" cy="5.5" r="0.385" fill="rgb(163,60,40)"/><circle cx="-0.04" cy="5.52" r="0.25666666666667" fill="rgb(174.5,68.5,52.5)"/><path d="M 0,5.5 
						q 0 0.35 0.455,1.4025 q 0.75 0.2 1.535,2.2825 q 0.45 0.15 -0.625,2.65375 q 0.05 0.3 -1.365,1 
						M 0,5.5 
						q -0 0.35 -0.455,1.4025 q -0.75 0.2 -1.535,2.2825 q -0.45 0.15 0.625,2.65375 q -0.05 0.3 1.365,1 " 
						transform="rotate(270 0,5.5 )"
						stroke-width ="0.1"
						fill="rgb(207,155,109)"
						/><circle cx="0" cy="5.5" r="0.385" fill="rgb(163,60,40)"/><circle cx="-0.05" cy="5.49" r="0.25666666666667" fill="rgb(174.5,68.5,52.5)"/><path d="M 0,5.5 
						q 0 0.35 0.455,1.4025 q 0.75 0.2 1.535,2.2825 q 0.45 0.15 -0.625,2.65375 q 0.05 0.3 -1.365,1 
						M 0,5.5 
						q -0 0.35 -0.455,1.4025 q -0.75 0.2 -1.535,2.2825 q -0.45 0.15 0.625,2.65375 q -0.05 0.3 1.365,1 " 
						transform="rotate(405 0,5.5 )"
						stroke-width ="0.1"
						fill="rgb(206.5,168.5,114.5)"
						/><circle cx="0" cy="5.5" r="0.385" fill="rgb(163,60,40)"/><circle cx="0.09" cy="5.41" r="0.25666666666667" fill="rgb(174.5,68.5,52.5)"/><path d="M 0,5.5 
						q 0 0.35 0.455,1.4025 q 0.75 0.2 1.535,2.2825 q 0.45 0.15 -0.625,2.65375 q 0.05 0.3 -1.365,1 
						M 0,5.5 
						q -0 0.35 -0.455,1.4025 q -0.75 0.2 -1.535,2.2825 q -0.45 0.15 0.625,2.65375 q -0.05 0.3 1.365,1 " 
						transform="rotate(540 0,5.5 )"
						stroke-width ="0.1"
						fill="rgb(211,159,116)"
						/><circle cx="0" cy="5.5" r="0.385" fill="rgb(163,60,40)"/><circle cx="-0.08" cy="5.46" r="0.25666666666667" fill="rgb(174.5,68.5,52.5)"/><path d="M 0,5.5 
						q 0 0.35 0.455,1.4025 q 0.75 0.2 1.535,2.2825 q 0.45 0.15 -0.625,2.65375 q 0.05 0.3 -1.365,1 
						M 0,5.5 
						q -0 0.35 -0.455,1.4025 q -0.75 0.2 -1.535,2.2825 q -0.45 0.15 0.625,2.65375 q -0.05 0.3 1.365,1 " 
						transform="rotate(675 0,5.5 )"
						stroke-width ="0.1"
						fill="rgb(196.5,153.5,110.5)"
						/><circle cx="0" cy="5.5" r="0.385" fill="rgb(163,60,40)"/><circle cx="-0.08" cy="5.51" r="0.25666666666667" fill="rgb(174.5,68.5,52.5)"/><path d="M 0,5.5 
						q 0 0.35 0.455,1.4025 q 0.75 0.2 1.535,2.2825 q 0.45 0.15 -0.625,2.65375 q 0.05 0.3 -1.365,1 
						M 0,5.5 
						q -0 0.35 -0.455,1.4025 q -0.75 0.2 -1.535,2.2825 q -0.45 0.15 0.625,2.65375 q -0.05 0.3 1.365,1 " 
						transform="rotate(810 0,5.5 )"
						stroke-width ="0.1"
						fill="rgb(199,145,101)"
						/><circle cx="0" cy="5.5" r="0.385" fill="rgb(163,60,40)"/><circle cx="0.08" cy="5.4" r="0.25666666666667" fill="rgb(174.5,68.5,52.5)"/><path d="M 0,5.5 
						q 0 0.35 0.455,1.4025 q 0.75 0.2 1.535,2.2825 q 0.45 0.15 -0.625,2.65375 q 0.05 0.3 -1.365,1 
						M 0,5.5 
						q -0 0.35 -0.455,1.4025 q -0.75 0.2 -1.535,2.2825 q -0.45 0.15 0.625,2.65375 q -0.05 0.3 1.365,1 " 
						transform="rotate(945 0,5.5 )"
						stroke-width ="0.1"
						fill="rgb(199.5,142.5,93.5)"
						/><circle cx="0" cy="5.5" r="0.385" fill="rgb(163,60,40)"/><circle cx="0.06" cy="5.59" r="0.25666666666667" fill="rgb(174.5,68.5,52.5)"/><path d="M 0,5.5 
						q 0 0.35 0.455,1.4025 q 0.75 0.2 1.535,2.2825 q 0.45 0.15 -0.625,2.65375 q 0.05 0.3 -1.365,1 
						M 0,5.5 
						q -0 0.35 -0.455,1.4025 q -0.75 0.2 -1.535,2.2825 q -0.45 0.15 0.625,2.65375 q -0.05 0.3 1.365,1 " 
						transform="rotate(1080 0,5.5 )"
						stroke-width ="0.1"
						fill="rgb(198,155,97)"
						/><circle cx="0" cy="5.5" r="0.385" fill="rgb(163,60,40)"/><circle cx="-0.09" cy="5.49" r="0.25666666666667" fill="rgb(174.5,68.5,52.5)"/></g><g id="flower5"><path d="M 0,6.875 
						q 0 0.4375 0.56875,1.753125 q 0.9375 0.25 1.91875,2.853125 q 0.5625 0.1875 -0.78125,3.3171875 q 0.0625 0.375 -1.70625,1 
						M 0,6.875 
						q -0 0.4375 -0.56875,1.753125 q -0.9375 0.25 -1.91875,2.853125 q -0.5625 0.1875 0.78125,3.3171875 q -0.0625 0.375 1.70625,1 " 
						transform="rotate(0 0,6.875 )"
						stroke-width ="0.1"
						fill="rgb(223,167,112)"
						/><circle cx="0" cy="6.875" r="0.48125" fill="rgb(162,60,45)"/><circle cx="0.04" cy="6.925" r="0.32083333333333" fill="rgb(186.5,73.5,53.5)"/><path d="M 0,6.875 
						q 0 0.4375 0.56875,1.753125 q 0.9375 0.25 1.91875,2.853125 q 0.5625 0.1875 -0.78125,3.3171875 q 0.0625 0.375 -1.70625,1 
						M 0,6.875 
						q -0 0.4375 -0.56875,1.753125 q -0.9375 0.25 -1.91875,2.853125 q -0.5625 0.1875 0.78125,3.3171875 q -0.0625 0.375 1.70625,1 " 
						transform="rotate(135 0,6.875 )"
						stroke-width ="0.1"
						fill="rgb(206.5,155.5,124.5)"
						/><circle cx="0" cy="6.875" r="0.48125" fill="rgb(162,60,45)"/><circle cx="-0.08" cy="6.875" r="0.32083333333333" fill="rgb(186.5,73.5,53.5)"/><path d="M 0,6.875 
						q 0 0.4375 0.56875,1.753125 q 0.9375 0.25 1.91875,2.853125 q 0.5625 0.1875 -0.78125,3.3171875 q 0.0625 0.375 -1.70625,1 
						M 0,6.875 
						q -0 0.4375 -0.56875,1.753125 q -0.9375 0.25 -1.91875,2.853125 q -0.5625 0.1875 0.78125,3.3171875 q -0.0625 0.375 1.70625,1 " 
						transform="rotate(270 0,6.875 )"
						stroke-width ="0.1"
						fill="rgb(208,164,121)"
						/><circle cx="0" cy="6.875" r="0.48125" fill="rgb(162,60,45)"/><circle cx="0.04" cy="6.885" r="0.32083333333333" fill="rgb(186.5,73.5,53.5)"/><path d="M 0,6.875 
						q 0 0.4375 0.56875,1.753125 q 0.9375 0.25 1.91875,2.853125 q 0.5625 0.1875 -0.78125,3.3171875 q 0.0625 0.375 -1.70625,1 
						M 0,6.875 
						q -0 0.4375 -0.56875,1.753125 q -0.9375 0.25 -1.91875,2.853125 q -0.5625 0.1875 0.78125,3.3171875 q -0.0625 0.375 1.70625,1 " 
						transform="rotate(405 0,6.875 )"
						stroke-width ="0.1"
						fill="rgb(206.5,161.5,109.5)"
						/><circle cx="0" cy="6.875" r="0.48125" fill="rgb(162,60,45)"/><circle cx="0.04" cy="6.825" r="0.32083333333333" fill="rgb(186.5,73.5,53.5)"/><path d="M 0,6.875 
						q 0 0.4375 0.56875,1.753125 q 0.9375 0.25 1.91875,2.853125 q 0.5625 0.1875 -0.78125,3.3171875 q 0.0625 0.375 -1.70625,1 
						M 0,6.875 
						q -0 0.4375 -0.56875,1.753125 q -0.9375 0.25 -1.91875,2.853125 q -0.5625 0.1875 0.78125,3.3171875 q -0.0625 0.375 1.70625,1 " 
						transform="rotate(540 0,6.875 )"
						stroke-width ="0.1"
						fill="rgb(202,160,100)"
						/><circle cx="0" cy="6.875" r="0.48125" fill="rgb(162,60,45)"/><circle cx="-0.04" cy="6.895" r="0.32083333333333" fill="rgb(186.5,73.5,53.5)"/><path d="M 0,6.875 
						q 0 0.4375 0.56875,1.753125 q 0.9375 0.25 1.91875,2.853125 q 0.5625 0.1875 -0.78125,3.3171875 q 0.0625 0.375 -1.70625,1 
						M 0,6.875 
						q -0 0.4375 -0.56875,1.753125 q -0.9375 0.25 -1.91875,2.853125 q -0.5625 0.1875 0.78125,3.3171875 q -0.0625 0.375 1.70625,1 " 
						transform="rotate(675 0,6.875 )"
						stroke-width ="0.1"
						fill="rgb(198.5,156.5,102.5)"
						/><circle cx="0" cy="6.875" r="0.48125" fill="rgb(162,60,45)"/><circle cx="-0.08" cy="6.905" r="0.32083333333333" fill="rgb(186.5,73.5,53.5)"/><path d="M 0,6.875 
						q 0 0.4375 0.56875,1.753125 q 0.9375 0.25 1.91875,2.853125 q 0.5625 0.1875 -0.78125,3.3171875 q 0.0625 0.375 -1.70625,1 
						M 0,6.875 
						q -0 0.4375 -0.56875,1.753125 q -0.9375 0.25 -1.91875,2.853125 q -0.5625 0.1875 0.78125,3.3171875 q -0.0625 0.375 1.70625,1 " 
						transform="rotate(810 0,6.875 )"
						stroke-width ="0.1"
						fill="rgb(204,149,112)"
						/><circle cx="0" cy="6.875" r="0.48125" fill="rgb(162,60,45)"/><circle cx="0.07" cy="6.835" r="0.32083333333333" fill="rgb(186.5,73.5,53.5)"/><path d="M 0,6.875 
						q 0 0.4375 0.56875,1.753125 q 0.9375 0.25 1.91875,2.853125 q 0.5625 0.1875 -0.78125,3.3171875 q 0.0625 0.375 -1.70625,1 
						M 0,6.875 
						q -0 0.4375 -0.56875,1.753125 q -0.9375 0.25 -1.91875,2.853125 q -0.5625 0.1875 0.78125,3.3171875 q -0.0625 0.375 1.70625,1 " 
						transform="rotate(945 0,6.875 )"
						stroke-width ="0.1"
						fill="rgb(199.5,148.5,99.5)"
						/><circle cx="0" cy="6.875" r="0.48125" fill="rgb(162,60,45)"/><circle cx="0.1" cy="6.935" r="0.32083333333333" fill="rgb(186.5,73.5,53.5)"/><path d="M 0,6.875 
						q 0 0.4375 0.56875,1.753125 q 0.9375 0.25 1.91875,2.853125 q 0.5625 0.1875 -0.78125,3.3171875 q 0.0625 0.375 -1.70625,1 
						M 0,6.875 
						q -0 0.4375 -0.56875,1.753125 q -0.9375 0.25 -1.91875,2.853125 q -0.5625 0.1875 0.78125,3.3171875 q -0.0625 0.375 1.70625,1 " 
						transform="rotate(1080 0,6.875 )"
						stroke-width ="0.1"
						fill="rgb(206,137,103)"
						/><circle cx="0" cy="6.875" r="0.48125" fill="rgb(162,60,45)"/><circle cx="-0.1" cy="6.805" r="0.32083333333333" fill="rgb(186.5,73.5,53.5)"/></g><g id="flower6"><path d="M 0,8.25 
						q 0 0.525 0.6825,2.10375 q 1.125 0.3 2.3025,3.42375 q 0.675 0.225 -0.9375,3.980625 q 0.075 0.45 -2.0475,1 
						M 0,8.25 
						q -0 0.525 -0.6825,2.10375 q -1.125 0.3 -2.3025,3.42375 q -0.675 0.225 0.9375,3.980625 q -0.075 0.45 2.0475,1 " 
						transform="rotate(0 0,8.25 )"
						stroke-width ="0.1"
						fill="rgb(209,159,127)"
						/><path d="M 0,8.25 
						q 0 0.525 0.6825,2.10375 q 1.125 0.3 2.3025,3.42375 q 0.675 0.225 -0.9375,3.980625 q 0.075 0.45 -2.0475,1 
						M 0,8.25 
						q -0 0.525 -0.6825,2.10375 q -1.125 0.3 -2.3025,3.42375 q -0.675 0.225 0.9375,3.980625 q -0.075 0.45 2.0475,1 " 
						transform="rotate(67.5 0,8.25 )"
						stroke-width ="0.1"
						fill="rgb(214.5,162.5,112.5)"
						/><path d="M 0,8.25 
						q 0 0.525 0.6825,2.10375 q 1.125 0.3 2.3025,3.42375 q 0.675 0.225 -0.9375,3.980625 q 0.075 0.45 -2.0475,1 
						M 0,8.25 
						q -0 0.525 -0.6825,2.10375 q -1.125 0.3 -2.3025,3.42375 q -0.675 0.225 0.9375,3.980625 q -0.075 0.45 2.0475,1 " 
						transform="rotate(135 0,8.25 )"
						stroke-width ="0.1"
						fill="rgb(213,154,110)"
						/></g><g id="flower7"><path d="M 0,9.625 
						q 0 0.6125 0.79625,2.454375 q 1.3125 0.35 2.68625,3.994375 q 0.7875 0.2625 -1.09375,4.6440625 q 0.0875 0.525 -2.38875,1 
						M 0,9.625 
						q -0 0.6125 -0.79625,2.454375 q -1.3125 0.35 -2.68625,3.994375 q -0.7875 0.2625 1.09375,4.6440625 q -0.0875 0.525 2.38875,1 " 
						transform="rotate(0 0,9.625 )"
						stroke-width ="0.1"
						fill="rgb(223,158,123)"
						/><path d="M 0,9.625 
						q 0 0.6125 0.79625,2.454375 q 1.3125 0.35 2.68625,3.994375 q 0.7875 0.2625 -1.09375,4.6440625 q 0.0875 0.525 -2.38875,1 
						M 0,9.625 
						q -0 0.6125 -0.79625,2.454375 q -1.3125 0.35 -2.68625,3.994375 q -0.7875 0.2625 1.09375,4.6440625 q -0.0875 0.525 2.38875,1 " 
						transform="rotate(67.5 0,9.625 )"
						stroke-width ="0.1"
						fill="rgb(218.5,160.5,115.5)"
						/><path d="M 0,9.625 
						q 0 0.6125 0.79625,2.454375 q 1.3125 0.35 2.68625,3.994375 q 0.7875 0.2625 -1.09375,4.6440625 q 0.0875 0.525 -2.38875,1 
						M 0,9.625 
						q -0 0.6125 -0.79625,2.454375 q -1.3125 0.35 -2.68625,3.994375 q -0.7875 0.2625 1.09375,4.6440625 q -0.0875 0.525 2.38875,1 " 
						transform="rotate(135 0,9.625 )"
						stroke-width ="0.1"
						fill="rgb(211,157,108)"
						/></g><g id="flower8"><path d="M 0,11 
						q 0 0.7 0.91,2.805 q 1.5 0.4 3.07,4.565 q 0.9 0.3 -1.25,5.3075 q 0.1 0.6 -2.73,1 
						M 0,11 
						q 0 0.7 -0.91,2.805 q -1.5 0.4 -3.07,4.565 q -0.9 0.3 1.25,5.3075 q -0.1 0.6 2.73,1 " 
						transform="rotate(0 0,11 )"
						stroke-width ="0.1"
						fill="rgb(226,165,110)"
						/><path d="M 0,11 
						q 0 0.7 0.91,2.805 q 1.5 0.4 3.07,4.565 q 0.9 0.3 -1.25,5.3075 q 0.1 0.6 -2.73,1 
						M 0,11 
						q 0 0.7 -0.91,2.805 q -1.5 0.4 -3.07,4.565 q -0.9 0.3 1.25,5.3075 q -0.1 0.6 2.73,1 " 
						transform="rotate(67.5 0,11 )"
						stroke-width ="0.1"
						fill="rgb(212.5,170.5,110.5)"
						/><path d="M 0,11 
						q 0 0.7 0.91,2.805 q 1.5 0.4 3.07,4.565 q 0.9 0.3 -1.25,5.3075 q 0.1 0.6 -2.73,1 
						M 0,11 
						q 0 0.7 -0.91,2.805 q -1.5 0.4 -3.07,4.565 q -0.9 0.3 1.25,5.3075 q -0.1 0.6 2.73,1 " 
						transform="rotate(135 0,11 )"
						stroke-width ="0.1"
						fill="rgb(205,159,123)"
						/></g></defs>
				<g class="fullPlant">
					<g>
					<path d ="M 45,91 
					q -2.2 -10.3 6.48,-32.16" fill ="none" stroke ="rgb(29.5,81.5,113.5)" stroke-width ="1.224"/></g><circle cx="51.48" cy="58.84" r="0.612" fill="rgb(29.5,81.5,113.5)"/><use xlink:href="#leaf7"
						x="45" y="91" 
						transform="rotate(145 45.87 91.49)" 	
						fill="rgb(67,92,154)" /><use xlink:href="#leaf6"
						x="45" y="91" 
						transform="rotate(151 45.37 91.6)" 	
						fill="rgb(78,93,159)" /><use xlink:href="#flower7" id="fleur00"
						x="51.48" y="47.84" transform="rotate(134 51.48 58.84)" />
					<g>
					<path d ="M 40,91 
					q 2.2 -10.9 7.452,-29.04" fill ="none" stroke ="rgb(32,81,115)" stroke-width ="1.224"/></g><circle cx="47.452" cy="61.96" r="0.612" fill="rgb(32,81,115)"/><use xlink:href="#leaf4"
						x="40" y="91" 
						transform="rotate(149 40 91)" 	
						fill="rgb(63,115,158)" /><use xlink:href="#leaf3"
						x="40" y="91" 
						transform="rotate(149 40.28 91.19)" 	
						fill="rgb(72,112,156)" /><use xlink:href="#flower6" id="fleur10"
						x="47.452" y="50.96" transform="rotate(110 47.452 61.96)" />
					<g>
					<path d ="M 52,91 
					q -2.2 -42.41 5.724,-40.692" fill ="none" stroke ="rgb(31.5,80.5,116.5)" stroke-width ="1.224"/></g><circle cx="57.724" cy="50.308" r="0.612" fill="rgb(31.5,80.5,116.5)"/><use xlink:href="#leaf7"
						x="52" y="91" 
						transform="rotate(219 52.2 91.27)" 	
						fill="rgb(91,101,160)" /><use xlink:href="#leaf3"
						x="52" y="91" 
						transform="rotate(150 52.34 91.36)" 	
						fill="rgb(70,108,138)" /><use xlink:href="#flower6" id="fleur20"
						x="57.724" y="39.308" transform="rotate(117 57.724 50.308)" />
					<g>
					<path d ="M 59,91 
					q 2.2 -38.89 10.056,-40.188" fill ="none" stroke ="rgb(34,79,117)" stroke-width ="1.224"/></g><circle cx="69.056" cy="50.812" r="0.612" fill="rgb(34,79,117)"/><use xlink:href="#leaf5"
						x="59" y="91" 
						transform="rotate(209 59.79 91.1)" 	
						fill="rgb(79,80,144)" /><use xlink:href="#leaf6"
						x="59" y="91" 
						transform="rotate(142 59.39 91.25)" 	
						fill="rgb(72,107,143)" /><use xlink:href="#flower5" id="fleur30"
						x="69.056" y="39.812" transform="rotate(139 69.056 50.812)" /></g>
				</svg>