<svg class="relie" xmlns="http://www.w3.org/2000/svg" viewBox="0 0 100 100" preserveAspectRatio="xMidYMid meet" x="0" y="0" overflow="visible" xmlns:xlink="http://www.w3.org/1999/xlink">

		<defs>  <g id="leaf1" transform="skewX(15) skewY(15)"><path d="M 0,0 
					q 0.3825 0.13375 0.125,1.17 q 0.3775 0.01125 -0.125,1 
					M 0,0 
					q -0.3825 0.13375 -0.125,1.17 q -0.3775 0.01125 0.125,1 " 
					stroke-width ="0.2" /></g>  <g id="leaf2" transform="skewX(7) skewY(7)"><path d="M 0,0 
					q 0.765 0.2675 0.25,2.34 q 0.755 0.0225 -0.25,1 
					M 0,0 
					q -0.765 0.2675 -0.25,2.34 q -0.755 0.0225 0.25,1 " 
					stroke-width ="0.2" /></g>  <g id="leaf3" transform="skewX(-1) skewY(-1)"><path d="M 0,0 
					q 1.1475 0.40125 0.375,3.51 q 1.1325 0.03375 -0.375,1 
					M 0,0 
					q -1.1475 0.40125 -0.375,3.51 q -1.1325 0.03375 0.375,1 " 
					stroke-width ="0.2" /></g>  <g id="leaf4" transform="skewX(13) skewY(13)"><path d="M 0,0 
					q 1.53 0.535 0.5,4.68 q 1.51 0.045 -0.5,1.32 
					M 0,0 
					q -1.53 0.535 -0.5,4.68 q -1.51 0.045 0.5,1.32 " 
					stroke-width ="0.2" /></g>  <g id="leaf5" transform="skewX(-12) skewY(-12)"><path d="M 0,0 
					q 1.9125 0.66875 0.625,5.85 q 1.8875 0.05625 -0.625,1.65 
					M 0,0 
					q -1.9125 0.66875 -0.625,5.85 q -1.8875 0.05625 0.625,1.65 " 
					stroke-width ="0.2" /></g>  <g id="leaf6" transform="skewX(-13) skewY(-13)"><path d="M 0,0 
					q 2.295 0.8025 0.75,7.02 q 2.265 0.0675 -0.75,1.98 
					M 0,0 
					q -2.295 0.8025 -0.75,7.02 q -2.265 0.0675 0.75,1.98 " 
					stroke-width ="0.2" /></g>  <g id="leaf7" transform="skewX(11) skewY(11)"><path d="M 0,0 
					q 2.6775 0.93625 0.875,8.19 q 2.6425 0.07875 -0.875,2.31 
					M 0,0 
					q -2.6775 0.93625 -0.875,8.19 q -2.6425 0.07875 0.875,2.31 " 
					stroke-width ="0.2" /></g>  <g id="leaf8" transform="skewX(-6) skewY(-6)"><path d="M 0,0 
					q 3.06 1.07 1,9.36 q 3.02 0.09 -1,2.64 
					M 0,0 
					q -3.06 1.07 -1,9.36 q -3.02 0.09 1,2.64 " 
					stroke-width ="0.2" /></g><g id="flower1" transform="skewX(10) skewY(10)">
						<path d="M 0,0
						Q 1.17,0.25 0,0.94"
						stroke="rgb(162,190,49)" 
						fill="transparent"
						stroke-width ="0.3" /><path d="M 0,0.94 
						q 0.075 0.1125 0.125,0.16666666666667 q 0.225 0.05 0.25,0.16666666666667 q 0.0375 0.0625 -0.375,1 
						M 0,0.94 
						q -0.075 0.1125 -0.125,0.16666666666667 q -0.225 0.05 -0.25,0.16666666666667 q -0.0375 0.0625 0.375,1 " 
						transform="rotate(0 0,0.94 )"
						stroke-width ="0.1"
						fill="rgb(10,35,82)"
						/><path d="M 0,0.94 
						q 0.075 0.1125 0.125,0.16666666666667 q 0.225 0.05 0.25,0.16666666666667 q 0.0375 0.0625 -0.375,1 
						M 0,0.94 
						q -0.075 0.1125 -0.125,0.16666666666667 q -0.225 0.05 -0.25,0.16666666666667 q -0.0375 0.0625 0.375,1 " 
						transform="rotate(27 0,0.94 )"
						stroke-width ="0.1"
						fill="rgb(7.5,30.5,64.5)"
						/><path d="M 0,0.94 
						q 0.075 0.1125 0.125,0.16666666666667 q 0.225 0.05 0.25,0.16666666666667 q 0.0375 0.0625 -0.375,1 
						M 0,0.94 
						q -0.075 0.1125 -0.125,0.16666666666667 q -0.225 0.05 -0.25,0.16666666666667 q -0.0375 0.0625 0.375,1 " 
						transform="rotate(54 0,0.94 )"
						stroke-width ="0.1"
						fill="rgb(9,22,64)"
						/><path d="M 0,0.94 
						q 0.075 0.1125 0.125,0.16666666666667 q 0.225 0.05 0.25,0.16666666666667 q 0.0375 0.0625 -0.375,1 
						M 0,0.94 
						q -0.075 0.1125 -0.125,0.16666666666667 q -0.225 0.05 -0.25,0.16666666666667 q -0.0375 0.0625 0.375,1 " 
						transform="rotate(81 0,0.94 )"
						stroke-width ="0.1"
						fill="rgb(8.5,36.5,65.5)"
						/></g><g id="flower2" transform="skewX(8) skewY(8)">
						<path d="M 0,0
						Q -0.51,0.5 0,1.88"
						stroke="rgb(162,190,49)" 
						fill="transparent"
						stroke-width ="0.3" /><path d="M 0,1.88 
						q 0.15 0.225 0.25,0.33333333333333 q 0.45 0.1 0.5,0.33333333333333 q 0.075 0.125 -0.75,1 
						M 0,1.88 
						q -0.15 0.225 -0.25,0.33333333333333 q -0.45 0.1 -0.5,0.33333333333333 q -0.075 0.125 0.75,1 " 
						transform="rotate(0 0,1.88 )"
						stroke-width ="0.1"
						fill="rgb(19,26,76)"
						/><path d="M 0,1.88 
						q 0.15 0.225 0.25,0.33333333333333 q 0.45 0.1 0.5,0.33333333333333 q 0.075 0.125 -0.75,1 
						M 0,1.88 
						q -0.15 0.225 -0.25,0.33333333333333 q -0.45 0.1 -0.5,0.33333333333333 q -0.075 0.125 0.75,1 " 
						transform="rotate(27 0,1.88 )"
						stroke-width ="0.1"
						fill="rgb(9.5,23.5,65.5)"
						/><path d="M 0,1.88 
						q 0.15 0.225 0.25,0.33333333333333 q 0.45 0.1 0.5,0.33333333333333 q 0.075 0.125 -0.75,1 
						M 0,1.88 
						q -0.15 0.225 -0.25,0.33333333333333 q -0.45 0.1 -0.5,0.33333333333333 q -0.075 0.125 0.75,1 " 
						transform="rotate(54 0,1.88 )"
						stroke-width ="0.1"
						fill="rgb(14,30,65)"
						/><path d="M 0,1.88 
						q 0.15 0.225 0.25,0.33333333333333 q 0.45 0.1 0.5,0.33333333333333 q 0.075 0.125 -0.75,1 
						M 0,1.88 
						q -0.15 0.225 -0.25,0.33333333333333 q -0.45 0.1 -0.5,0.33333333333333 q -0.075 0.125 0.75,1 " 
						transform="rotate(81 0,1.88 )"
						stroke-width ="0.1"
						fill="rgb(4.5,26.5,64.5)"
						/></g><g id="flower3" transform="skewX(-6) skewY(-6)">
						<path d="M 0,0
						Q 0.12,0.75 0,2.82"
						stroke="rgb(162,190,49)" 
						fill="transparent"
						stroke-width ="0.3" /><path d="M 0,2.82 
						q 0.225 0.3375 0.375,0.5 q 0.675 0.15 0.75,0.5 q 0.1125 0.1875 -1.125,1 
						M 0,2.82 
						q -0.225 0.3375 -0.375,0.5 q -0.675 0.15 -0.75,0.5 q -0.1125 0.1875 1.125,1 " 
						transform="rotate(0 0,2.82 )"
						stroke-width ="0.1"
						fill="rgb(10,31,85)"
						/><circle cx="0" cy="2.82" r="0.54" fill="rgb(0,70,74)"/><circle cx="0.02" cy="2.9" r="0.36" fill="rgb(16.5,79.5,84.5)"/><path d="M 0,2.82 
						q 0.225 0.3375 0.375,0.5 q 0.675 0.15 0.75,0.5 q 0.1125 0.1875 -1.125,1 
						M 0,2.82 
						q -0.225 0.3375 -0.375,0.5 q -0.675 0.15 -0.75,0.5 q -0.1125 0.1875 1.125,1 " 
						transform="rotate(90 0,2.82 )"
						stroke-width ="0.1"
						fill="rgb(5.5,35.5,79.5)"
						/><circle cx="0" cy="2.82" r="0.54" fill="rgb(0,70,74)"/><circle cx="-0.09" cy="2.79" r="0.36" fill="rgb(16.5,79.5,84.5)"/><path d="M 0,2.82 
						q 0.225 0.3375 0.375,0.5 q 0.675 0.15 0.75,0.5 q 0.1125 0.1875 -1.125,1 
						M 0,2.82 
						q -0.225 0.3375 -0.375,0.5 q -0.675 0.15 -0.75,0.5 q -0.1125 0.1875 1.125,1 " 
						transform="rotate(180 0,2.82 )"
						stroke-width ="0.1"
						fill="rgb(0,21,82)"
						/><circle cx="0" cy="2.82" r="0.54" fill="rgb(0,70,74)"/><circle cx="0.02" cy="2.78" r="0.36" fill="rgb(16.5,79.5,84.5)"/><path d="M 0,2.82 
						q 0.225 0.3375 0.375,0.5 q 0.675 0.15 0.75,0.5 q 0.1125 0.1875 -1.125,1 
						M 0,2.82 
						q -0.225 0.3375 -0.375,0.5 q -0.675 0.15 -0.75,0.5 q -0.1125 0.1875 1.125,1 " 
						transform="rotate(270 0,2.82 )"
						stroke-width ="0.1"
						fill="rgb(0,19.5,61.5)"
						/><circle cx="0" cy="2.82" r="0.54" fill="rgb(0,70,74)"/><circle cx="-0.1" cy="2.74" r="0.36" fill="rgb(16.5,79.5,84.5)"/><path d="M 0,2.82 
						q 0.225 0.3375 0.375,0.5 q 0.675 0.15 0.75,0.5 q 0.1125 0.1875 -1.125,1 
						M 0,2.82 
						q -0.225 0.3375 -0.375,0.5 q -0.675 0.15 -0.75,0.5 q -0.1125 0.1875 1.125,1 " 
						transform="rotate(360 0,2.82 )"
						stroke-width ="0.1"
						fill="rgb(2,32,62)"
						/><circle cx="0" cy="2.82" r="0.54" fill="rgb(0,70,74)"/><circle cx="-0.01" cy="2.85" r="0.36" fill="rgb(16.5,79.5,84.5)"/><path d="M 0,2.82 
						q 0.225 0.3375 0.375,0.5 q 0.675 0.15 0.75,0.5 q 0.1125 0.1875 -1.125,1 
						M 0,2.82 
						q -0.225 0.3375 -0.375,0.5 q -0.675 0.15 -0.75,0.5 q -0.1125 0.1875 1.125,1 " 
						transform="rotate(450 0,2.82 )"
						stroke-width ="0.1"
						fill="rgb(8.5,17.5,62.5)"
						/><circle cx="0" cy="2.82" r="0.54" fill="rgb(0,70,74)"/><circle cx="0" cy="2.9" r="0.36" fill="rgb(16.5,79.5,84.5)"/><path d="M 0,2.82 
						q 0.225 0.3375 0.375,0.5 q 0.675 0.15 0.75,0.5 q 0.1125 0.1875 -1.125,1 
						M 0,2.82 
						q -0.225 0.3375 -0.375,0.5 q -0.675 0.15 -0.75,0.5 q -0.1125 0.1875 1.125,1 " 
						transform="rotate(540 0,2.82 )"
						stroke-width ="0.1"
						fill="rgb(0,26,70)"
						/><circle cx="0" cy="2.82" r="0.54" fill="rgb(0,70,74)"/><circle cx="-0.02" cy="2.74" r="0.36" fill="rgb(16.5,79.5,84.5)"/><path d="M 0,2.82 
						q 0.225 0.3375 0.375,0.5 q 0.675 0.15 0.75,0.5 q 0.1125 0.1875 -1.125,1 
						M 0,2.82 
						q -0.225 0.3375 -0.375,0.5 q -0.675 0.15 -0.75,0.5 q -0.1125 0.1875 1.125,1 " 
						transform="rotate(630 0,2.82 )"
						stroke-width ="0.1"
						fill="rgb(0,10.5,65.5)"
						/><circle cx="0" cy="2.82" r="0.54" fill="rgb(0,70,74)"/><circle cx="0.04" cy="2.73" r="0.36" fill="rgb(16.5,79.5,84.5)"/><path d="M 0,2.82 
						q 0.225 0.3375 0.375,0.5 q 0.675 0.15 0.75,0.5 q 0.1125 0.1875 -1.125,1 
						M 0,2.82 
						q -0.225 0.3375 -0.375,0.5 q -0.675 0.15 -0.75,0.5 q -0.1125 0.1875 1.125,1 " 
						transform="rotate(720 0,2.82 )"
						stroke-width ="0.1"
						fill="rgb(0,22,65)"
						/><circle cx="0" cy="2.82" r="0.54" fill="rgb(0,70,74)"/><circle cx="-0.05" cy="2.83" r="0.36" fill="rgb(16.5,79.5,84.5)"/><path d="M 0,2.82 
						q 0.225 0.3375 0.375,0.5 q 0.675 0.15 0.75,0.5 q 0.1125 0.1875 -1.125,1 
						M 0,2.82 
						q -0.225 0.3375 -0.375,0.5 q -0.675 0.15 -0.75,0.5 q -0.1125 0.1875 1.125,1 " 
						transform="rotate(810 0,2.82 )"
						stroke-width ="0.1"
						fill="rgb(0,4.5,60.5)"
						/><circle cx="0" cy="2.82" r="0.54" fill="rgb(0,70,74)"/><circle cx="0.1" cy="2.77" r="0.36" fill="rgb(16.5,79.5,84.5)"/><path d="M 0,2.82 
						q 0.225 0.3375 0.375,0.5 q 0.675 0.15 0.75,0.5 q 0.1125 0.1875 -1.125,1 
						M 0,2.82 
						q -0.225 0.3375 -0.375,0.5 q -0.675 0.15 -0.75,0.5 q -0.1125 0.1875 1.125,1 " 
						transform="rotate(900 0,2.82 )"
						stroke-width ="0.1"
						fill="rgb(0,14,47)"
						/><circle cx="0" cy="2.82" r="0.54" fill="rgb(0,70,74)"/><circle cx="-0.04" cy="2.77" r="0.36" fill="rgb(16.5,79.5,84.5)"/><path d="M 0,2.82 
						q 0.225 0.3375 0.375,0.5 q 0.675 0.15 0.75,0.5 q 0.1125 0.1875 -1.125,1 
						M 0,2.82 
						q -0.225 0.3375 -0.375,0.5 q -0.675 0.15 -0.75,0.5 q -0.1125 0.1875 1.125,1 " 
						transform="rotate(990 0,2.82 )"
						stroke-width ="0.1"
						fill="rgb(0,10.5,44.5)"
						/><circle cx="0" cy="2.82" r="0.54" fill="rgb(0,70,74)"/><circle cx="-0.09" cy="2.79" r="0.36" fill="rgb(16.5,79.5,84.5)"/><path d="M 0,2.82 
						q 0.225 0.3375 0.375,0.5 q 0.675 0.15 0.75,0.5 q 0.1125 0.1875 -1.125,1 
						M 0,2.82 
						q -0.225 0.3375 -0.375,0.5 q -0.675 0.15 -0.75,0.5 q -0.1125 0.1875 1.125,1 " 
						transform="rotate(1080 0,2.82 )"
						stroke-width ="0.1"
						fill="rgb(0,7,41)"
						/><circle cx="0" cy="2.82" r="0.54" fill="rgb(0,70,74)"/><circle cx="-0.07" cy="2.89" r="0.36" fill="rgb(16.5,79.5,84.5)"/></g><g id="flower4" transform="skewX(3) skewY(3)">
						<path d="M 0,0
						Q -0.54,1 0,3.76"
						stroke="rgb(162,190,49)" 
						fill="transparent"
						stroke-width ="0.3" /><path d="M 0,3.76 
						q 0.3 0.45 0.5,0.66666666666667 q 0.9 0.2 1,0.66666666666667 q 0.15 0.25 -1.5,1 
						M 0,3.76 
						q -0.3 0.45 -0.5,0.66666666666667 q -0.9 0.2 -1,0.66666666666667 q -0.15 0.25 1.5,1 " 
						transform="rotate(0 0,3.76 )"
						stroke-width ="0.1"
						fill="rgb(11,37,84)"
						/><path d="M 0,3.76 
						q 0.3 0.45 0.5,0.66666666666667 q 0.9 0.2 1,0.66666666666667 q 0.15 0.25 -1.5,1 
						M 0,3.76 
						q -0.3 0.45 -0.5,0.66666666666667 q -0.9 0.2 -1,0.66666666666667 q -0.15 0.25 1.5,1 " 
						transform="rotate(27 0,3.76 )"
						stroke-width ="0.1"
						fill="rgb(9.5,39.5,73.5)"
						/><path d="M 0,3.76 
						q 0.3 0.45 0.5,0.66666666666667 q 0.9 0.2 1,0.66666666666667 q 0.15 0.25 -1.5,1 
						M 0,3.76 
						q -0.3 0.45 -0.5,0.66666666666667 q -0.9 0.2 -1,0.66666666666667 q -0.15 0.25 1.5,1 " 
						transform="rotate(54 0,3.76 )"
						stroke-width ="0.1"
						fill="rgb(5,35,80)"
						/><path d="M 0,3.76 
						q 0.3 0.45 0.5,0.66666666666667 q 0.9 0.2 1,0.66666666666667 q 0.15 0.25 -1.5,1 
						M 0,3.76 
						q -0.3 0.45 -0.5,0.66666666666667 q -0.9 0.2 -1,0.66666666666667 q -0.15 0.25 1.5,1 " 
						transform="rotate(81 0,3.76 )"
						stroke-width ="0.1"
						fill="rgb(4.5,27.5,59.5)"
						/></g><g id="flower5" transform="skewX(-6) skewY(-6)">
						<path d="M 0,0
						Q 0.49,1.25 0,4.7"
						stroke="rgb(162,190,49)" 
						fill="transparent"
						stroke-width ="0.3" /><path d="M 0,4.7 
						q 0.375 0.5625 0.625,0.83333333333333 q 1.125 0.25 1.25,0.83333333333333 q 0.1875 0.3125 -1.875,1 
						M 0,4.7 
						q -0.375 0.5625 -0.625,0.83333333333333 q -1.125 0.25 -1.25,0.83333333333333 q -0.1875 0.3125 1.875,1 " 
						transform="rotate(0 0,4.7 )"
						stroke-width ="0.1"
						fill="rgb(9,31,74)"
						/><path d="M 0,4.7 
						q 0.375 0.5625 0.625,0.83333333333333 q 1.125 0.25 1.25,0.83333333333333 q 0.1875 0.3125 -1.875,1 
						M 0,4.7 
						q -0.375 0.5625 -0.625,0.83333333333333 q -1.125 0.25 -1.25,0.83333333333333 q -0.1875 0.3125 1.875,1 " 
						transform="rotate(27 0,4.7 )"
						stroke-width ="0.1"
						fill="rgb(8.5,29.5,77.5)"
						/><path d="M 0,4.7 
						q 0.375 0.5625 0.625,0.83333333333333 q 1.125 0.25 1.25,0.83333333333333 q 0.1875 0.3125 -1.875,1 
						M 0,4.7 
						q -0.375 0.5625 -0.625,0.83333333333333 q -1.125 0.25 -1.25,0.83333333333333 q -0.1875 0.3125 1.875,1 " 
						transform="rotate(54 0,4.7 )"
						stroke-width ="0.1"
						fill="rgb(0,25,68)"
						/><path d="M 0,4.7 
						q 0.375 0.5625 0.625,0.83333333333333 q 1.125 0.25 1.25,0.83333333333333 q 0.1875 0.3125 -1.875,1 
						M 0,4.7 
						q -0.375 0.5625 -0.625,0.83333333333333 q -1.125 0.25 -1.25,0.83333333333333 q -0.1875 0.3125 1.875,1 " 
						transform="rotate(81 0,4.7 )"
						stroke-width ="0.1"
						fill="rgb(7.5,32.5,59.5)"
						/></g><g id="flower6" transform="skewX(-9) skewY(-9)">
						<path d="M 0,0
						Q -0.89,1.5 0,5.64"
						stroke="rgb(162,190,49)" 
						fill="transparent"
						stroke-width ="0.3" /><path d="M 0,5.64 
						q 0.45 0.675 0.75,1 q 1.35 0.3 1.5,1 q 0.225 0.375 -2.25,1 
						M 0,5.64 
						q -0.45 0.675 -0.75,1 q -1.35 0.3 -1.5,1 q -0.225 0.375 2.25,1 " 
						transform="rotate(0 0,5.64 )"
						stroke-width ="0.1"
						fill="rgb(19,27,83)"
						/><circle cx="0" cy="5.64" r="1.08" fill="rgb(0,63,75)"/><circle cx="0.02" cy="5.64" r="0.72" fill="rgb(16.5,71.5,79.5)"/><path d="M 0,5.64 
						q 0.45 0.675 0.75,1 q 1.35 0.3 1.5,1 q 0.225 0.375 -2.25,1 
						M 0,5.64 
						q -0.45 0.675 -0.75,1 q -1.35 0.3 -1.5,1 q -0.225 0.375 2.25,1 " 
						transform="rotate(90 0,5.64 )"
						stroke-width ="0.1"
						fill="rgb(13.5,28.5,76.5)"
						/><circle cx="0" cy="5.64" r="1.08" fill="rgb(0,63,75)"/><circle cx="0.02" cy="5.73" r="0.72" fill="rgb(16.5,71.5,79.5)"/><path d="M 0,5.64 
						q 0.45 0.675 0.75,1 q 1.35 0.3 1.5,1 q 0.225 0.375 -2.25,1 
						M 0,5.64 
						q -0.45 0.675 -0.75,1 q -1.35 0.3 -1.5,1 q -0.225 0.375 2.25,1 " 
						transform="rotate(180 0,5.64 )"
						stroke-width ="0.1"
						fill="rgb(7,24,74)"
						/><circle cx="0" cy="5.64" r="1.08" fill="rgb(0,63,75)"/><circle cx="-0.02" cy="5.68" r="0.72" fill="rgb(16.5,71.5,79.5)"/><path d="M 0,5.64 
						q 0.45 0.675 0.75,1 q 1.35 0.3 1.5,1 q 0.225 0.375 -2.25,1 
						M 0,5.64 
						q -0.45 0.675 -0.75,1 q -1.35 0.3 -1.5,1 q -0.225 0.375 2.25,1 " 
						transform="rotate(270 0,5.64 )"
						stroke-width ="0.1"
						fill="rgb(0,35.5,70.5)"
						/><circle cx="0" cy="5.64" r="1.08" fill="rgb(0,63,75)"/><circle cx="-0.04" cy="5.58" r="0.72" fill="rgb(16.5,71.5,79.5)"/><path d="M 0,5.64 
						q 0.45 0.675 0.75,1 q 1.35 0.3 1.5,1 q 0.225 0.375 -2.25,1 
						M 0,5.64 
						q -0.45 0.675 -0.75,1 q -1.35 0.3 -1.5,1 q -0.225 0.375 2.25,1 " 
						transform="rotate(360 0,5.64 )"
						stroke-width ="0.1"
						fill="rgb(0,31,71)"
						/><circle cx="0" cy="5.64" r="1.08" fill="rgb(0,63,75)"/><circle cx="0.04" cy="5.54" r="0.72" fill="rgb(16.5,71.5,79.5)"/><path d="M 0,5.64 
						q 0.45 0.675 0.75,1 q 1.35 0.3 1.5,1 q 0.225 0.375 -2.25,1 
						M 0,5.64 
						q -0.45 0.675 -0.75,1 q -1.35 0.3 -1.5,1 q -0.225 0.375 2.25,1 " 
						transform="rotate(450 0,5.64 )"
						stroke-width ="0.1"
						fill="rgb(7.5,30.5,68.5)"
						/><circle cx="0" cy="5.64" r="1.08" fill="rgb(0,63,75)"/><circle cx="0.04" cy="5.61" r="0.72" fill="rgb(16.5,71.5,79.5)"/><path d="M 0,5.64 
						q 0.45 0.675 0.75,1 q 1.35 0.3 1.5,1 q 0.225 0.375 -2.25,1 
						M 0,5.64 
						q -0.45 0.675 -0.75,1 q -1.35 0.3 -1.5,1 q -0.225 0.375 2.25,1 " 
						transform="rotate(540 0,5.64 )"
						stroke-width ="0.1"
						fill="rgb(4,26,55)"
						/><circle cx="0" cy="5.64" r="1.08" fill="rgb(0,63,75)"/><circle cx="0.04" cy="5.55" r="0.72" fill="rgb(16.5,71.5,79.5)"/><path d="M 0,5.64 
						q 0.45 0.675 0.75,1 q 1.35 0.3 1.5,1 q 0.225 0.375 -2.25,1 
						M 0,5.64 
						q -0.45 0.675 -0.75,1 q -1.35 0.3 -1.5,1 q -0.225 0.375 2.25,1 " 
						transform="rotate(630 0,5.64 )"
						stroke-width ="0.1"
						fill="rgb(0,8.5,59.5)"
						/><circle cx="0" cy="5.64" r="1.08" fill="rgb(0,63,75)"/><circle cx="0.03" cy="5.66" r="0.72" fill="rgb(16.5,71.5,79.5)"/><path d="M 0,5.64 
						q 0.45 0.675 0.75,1 q 1.35 0.3 1.5,1 q 0.225 0.375 -2.25,1 
						M 0,5.64 
						q -0.45 0.675 -0.75,1 q -1.35 0.3 -1.5,1 q -0.225 0.375 2.25,1 " 
						transform="rotate(720 0,5.64 )"
						stroke-width ="0.1"
						fill="rgb(0,21,57)"
						/><circle cx="0" cy="5.64" r="1.08" fill="rgb(0,63,75)"/><circle cx="-0.03" cy="5.6" r="0.72" fill="rgb(16.5,71.5,79.5)"/><path d="M 0,5.64 
						q 0.45 0.675 0.75,1 q 1.35 0.3 1.5,1 q 0.225 0.375 -2.25,1 
						M 0,5.64 
						q -0.45 0.675 -0.75,1 q -1.35 0.3 -1.5,1 q -0.225 0.375 2.25,1 " 
						transform="rotate(810 0,5.64 )"
						stroke-width ="0.1"
						fill="rgb(0,18.5,50.5)"
						/><circle cx="0" cy="5.64" r="1.08" fill="rgb(0,63,75)"/><circle cx="-0.06" cy="5.66" r="0.72" fill="rgb(16.5,71.5,79.5)"/><path d="M 0,5.64 
						q 0.45 0.675 0.75,1 q 1.35 0.3 1.5,1 q 0.225 0.375 -2.25,1 
						M 0,5.64 
						q -0.45 0.675 -0.75,1 q -1.35 0.3 -1.5,1 q -0.225 0.375 2.25,1 " 
						transform="rotate(900 0,5.64 )"
						stroke-width ="0.1"
						fill="rgb(0,2,42)"
						/><circle cx="0" cy="5.64" r="1.08" fill="rgb(0,63,75)"/><circle cx="-0.04" cy="5.56" r="0.72" fill="rgb(16.5,71.5,79.5)"/><path d="M 0,5.64 
						q 0.45 0.675 0.75,1 q 1.35 0.3 1.5,1 q 0.225 0.375 -2.25,1 
						M 0,5.64 
						q -0.45 0.675 -0.75,1 q -1.35 0.3 -1.5,1 q -0.225 0.375 2.25,1 " 
						transform="rotate(990 0,5.64 )"
						stroke-width ="0.1"
						fill="rgb(0,6.5,54.5)"
						/><circle cx="0" cy="5.64" r="1.08" fill="rgb(0,63,75)"/><circle cx="0" cy="5.58" r="0.72" fill="rgb(16.5,71.5,79.5)"/><path d="M 0,5.64 
						q 0.45 0.675 0.75,1 q 1.35 0.3 1.5,1 q 0.225 0.375 -2.25,1 
						M 0,5.64 
						q -0.45 0.675 -0.75,1 q -1.35 0.3 -1.5,1 q -0.225 0.375 2.25,1 " 
						transform="rotate(1080 0,5.64 )"
						stroke-width ="0.1"
						fill="rgb(0,2,50)"
						/><circle cx="0" cy="5.64" r="1.08" fill="rgb(0,63,75)"/><circle cx="-0.04" cy="5.54" r="0.72" fill="rgb(16.5,71.5,79.5)"/></g><g id="flower7" transform="skewX(9) skewY(9)">
						<path d="M 0,0
						Q 1.06,1.75 0,6.58"
						stroke="rgb(162,190,49)" 
						fill="transparent"
						stroke-width ="0.3" /><path d="M 0,6.58 
						q 0.525 0.7875 0.875,1.1666666666667 q 1.575 0.35 1.75,1.1666666666667 q 0.2625 0.4375 -2.625,1.1666666666667 
						M 0,6.58 
						q -0.525 0.7875 -0.875,1.1666666666667 q -1.575 0.35 -1.75,1.1666666666667 q -0.2625 0.4375 2.625,1.1666666666667 " 
						transform="rotate(0 0,6.58 )"
						stroke-width ="0.1"
						fill="rgb(14,40,67)"
						/><path d="M 0,6.58 
						q 0.525 0.7875 0.875,1.1666666666667 q 1.575 0.35 1.75,1.1666666666667 q 0.2625 0.4375 -2.625,1.1666666666667 
						M 0,6.58 
						q -0.525 0.7875 -0.875,1.1666666666667 q -1.575 0.35 -1.75,1.1666666666667 q -0.2625 0.4375 2.625,1.1666666666667 " 
						transform="rotate(27 0,6.58 )"
						stroke-width ="0.1"
						fill="rgb(6.5,32.5,68.5)"
						/><path d="M 0,6.58 
						q 0.525 0.7875 0.875,1.1666666666667 q 1.575 0.35 1.75,1.1666666666667 q 0.2625 0.4375 -2.625,1.1666666666667 
						M 0,6.58 
						q -0.525 0.7875 -0.875,1.1666666666667 q -1.575 0.35 -1.75,1.1666666666667 q -0.2625 0.4375 2.625,1.1666666666667 " 
						transform="rotate(54 0,6.58 )"
						stroke-width ="0.1"
						fill="rgb(13,23,77)"
						/><path d="M 0,6.58 
						q 0.525 0.7875 0.875,1.1666666666667 q 1.575 0.35 1.75,1.1666666666667 q 0.2625 0.4375 -2.625,1.1666666666667 
						M 0,6.58 
						q -0.525 0.7875 -0.875,1.1666666666667 q -1.575 0.35 -1.75,1.1666666666667 q -0.2625 0.4375 2.625,1.1666666666667 " 
						transform="rotate(81 0,6.58 )"
						stroke-width ="0.1"
						fill="rgb(0,19.5,70.5)"
						/></g><g id="flower8" transform="skewX(1) skewY(1)">
						<path d="M 0,0
						Q 1,2 0,7.52"
						stroke="rgb(162,190,49)" 
						fill="transparent"
						stroke-width ="0.3" /><path d="M 0,7.52 
						q 0.6 0.9 1,1.3333333333333 q 1.8 0.4 2,1.3333333333333 q 0.3 0.5 -3,1.3333333333333 
						M 0,7.52 
						q -0.6 0.9 -1,1.3333333333333 q -1.8 0.4 -2,1.3333333333333 q -0.3 0.5 3,1.3333333333333 " 
						transform="rotate(0 0,7.52 )"
						stroke-width ="0.1"
						fill="rgb(5,43,74)"
						/><circle cx="0" cy="7.52" r="1.44" fill="rgb(1,69,76)"/><circle cx="-0.04" cy="7.45" r="0.96" fill="rgb(21.5,87.5,94.5)"/><path d="M 0,7.52 
						q 0.6 0.9 1,1.3333333333333 q 1.8 0.4 2,1.3333333333333 q 0.3 0.5 -3,1.3333333333333 
						M 0,7.52 
						q -0.6 0.9 -1,1.3333333333333 q -1.8 0.4 -2,1.3333333333333 q -0.3 0.5 3,1.3333333333333 " 
						transform="rotate(90 0,7.52 )"
						stroke-width ="0.1"
						fill="rgb(18.5,42.5,65.5)"
						/><circle cx="0" cy="7.52" r="1.44" fill="rgb(1,69,76)"/><circle cx="0.07" cy="7.51" r="0.96" fill="rgb(21.5,87.5,94.5)"/><path d="M 0,7.52 
						q 0.6 0.9 1,1.3333333333333 q 1.8 0.4 2,1.3333333333333 q 0.3 0.5 -3,1.3333333333333 
						M 0,7.52 
						q -0.6 0.9 -1,1.3333333333333 q -1.8 0.4 -2,1.3333333333333 q -0.3 0.5 3,1.3333333333333 " 
						transform="rotate(180 0,7.52 )"
						stroke-width ="0.1"
						fill="rgb(0,29,82)"
						/><circle cx="0" cy="7.52" r="1.44" fill="rgb(1,69,76)"/><circle cx="-0.02" cy="7.42" r="0.96" fill="rgb(21.5,87.5,94.5)"/><path d="M 0,7.52 
						q 0.6 0.9 1,1.3333333333333 q 1.8 0.4 2,1.3333333333333 q 0.3 0.5 -3,1.3333333333333 
						M 0,7.52 
						q -0.6 0.9 -1,1.3333333333333 q -1.8 0.4 -2,1.3333333333333 q -0.3 0.5 3,1.3333333333333 " 
						transform="rotate(270 0,7.52 )"
						stroke-width ="0.1"
						fill="rgb(0,31.5,60.5)"
						/><circle cx="0" cy="7.52" r="1.44" fill="rgb(1,69,76)"/><circle cx="0.1" cy="7.55" r="0.96" fill="rgb(21.5,87.5,94.5)"/><path d="M 0,7.52 
						q 0.6 0.9 1,1.3333333333333 q 1.8 0.4 2,1.3333333333333 q 0.3 0.5 -3,1.3333333333333 
						M 0,7.52 
						q -0.6 0.9 -1,1.3333333333333 q -1.8 0.4 -2,1.3333333333333 q -0.3 0.5 3,1.3333333333333 " 
						transform="rotate(360 0,7.52 )"
						stroke-width ="0.1"
						fill="rgb(5,34,74)"
						/><circle cx="0" cy="7.52" r="1.44" fill="rgb(1,69,76)"/><circle cx="-0.04" cy="7.49" r="0.96" fill="rgb(21.5,87.5,94.5)"/><path d="M 0,7.52 
						q 0.6 0.9 1,1.3333333333333 q 1.8 0.4 2,1.3333333333333 q 0.3 0.5 -3,1.3333333333333 
						M 0,7.52 
						q -0.6 0.9 -1,1.3333333333333 q -1.8 0.4 -2,1.3333333333333 q -0.3 0.5 3,1.3333333333333 " 
						transform="rotate(450 0,7.52 )"
						stroke-width ="0.1"
						fill="rgb(0,26.5,73.5)"
						/><circle cx="0" cy="7.52" r="1.44" fill="rgb(1,69,76)"/><circle cx="-0.05" cy="7.61" r="0.96" fill="rgb(21.5,87.5,94.5)"/><path d="M 0,7.52 
						q 0.6 0.9 1,1.3333333333333 q 1.8 0.4 2,1.3333333333333 q 0.3 0.5 -3,1.3333333333333 
						M 0,7.52 
						q -0.6 0.9 -1,1.3333333333333 q -1.8 0.4 -2,1.3333333333333 q -0.3 0.5 3,1.3333333333333 " 
						transform="rotate(540 0,7.52 )"
						stroke-width ="0.1"
						fill="rgb(0,17,54)"
						/><circle cx="0" cy="7.52" r="1.44" fill="rgb(1,69,76)"/><circle cx="0.02" cy="7.46" r="0.96" fill="rgb(21.5,87.5,94.5)"/><path d="M 0,7.52 
						q 0.6 0.9 1,1.3333333333333 q 1.8 0.4 2,1.3333333333333 q 0.3 0.5 -3,1.3333333333333 
						M 0,7.52 
						q -0.6 0.9 -1,1.3333333333333 q -1.8 0.4 -2,1.3333333333333 q -0.3 0.5 3,1.3333333333333 " 
						transform="rotate(630 0,7.52 )"
						stroke-width ="0.1"
						fill="rgb(0,18.5,66.5)"
						/><circle cx="0" cy="7.52" r="1.44" fill="rgb(1,69,76)"/><circle cx="0.1" cy="7.44" r="0.96" fill="rgb(21.5,87.5,94.5)"/><path d="M 0,7.52 
						q 0.6 0.9 1,1.3333333333333 q 1.8 0.4 2,1.3333333333333 q 0.3 0.5 -3,1.3333333333333 
						M 0,7.52 
						q -0.6 0.9 -1,1.3333333333333 q -1.8 0.4 -2,1.3333333333333 q -0.3 0.5 3,1.3333333333333 " 
						transform="rotate(720 0,7.52 )"
						stroke-width ="0.1"
						fill="rgb(0,22,61)"
						/><circle cx="0" cy="7.52" r="1.44" fill="rgb(1,69,76)"/><circle cx="-0.02" cy="7.43" r="0.96" fill="rgb(21.5,87.5,94.5)"/><path d="M 0,7.52 
						q 0.6 0.9 1,1.3333333333333 q 1.8 0.4 2,1.3333333333333 q 0.3 0.5 -3,1.3333333333333 
						M 0,7.52 
						q -0.6 0.9 -1,1.3333333333333 q -1.8 0.4 -2,1.3333333333333 q -0.3 0.5 3,1.3333333333333 " 
						transform="rotate(810 0,7.52 )"
						stroke-width ="0.1"
						fill="rgb(0,3.5,54.5)"
						/><circle cx="0" cy="7.52" r="1.44" fill="rgb(1,69,76)"/><circle cx="0.1" cy="7.57" r="0.96" fill="rgb(21.5,87.5,94.5)"/><path d="M 0,7.52 
						q 0.6 0.9 1,1.3333333333333 q 1.8 0.4 2,1.3333333333333 q 0.3 0.5 -3,1.3333333333333 
						M 0,7.52 
						q -0.6 0.9 -1,1.3333333333333 q -1.8 0.4 -2,1.3333333333333 q -0.3 0.5 3,1.3333333333333 " 
						transform="rotate(900 0,7.52 )"
						stroke-width ="0.1"
						fill="rgb(0,20,51)"
						/><circle cx="0" cy="7.52" r="1.44" fill="rgb(1,69,76)"/><circle cx="-0.1" cy="7.56" r="0.96" fill="rgb(21.5,87.5,94.5)"/><path d="M 0,7.52 
						q 0.6 0.9 1,1.3333333333333 q 1.8 0.4 2,1.3333333333333 q 0.3 0.5 -3,1.3333333333333 
						M 0,7.52 
						q -0.6 0.9 -1,1.3333333333333 q -1.8 0.4 -2,1.3333333333333 q -0.3 0.5 3,1.3333333333333 " 
						transform="rotate(990 0,7.52 )"
						stroke-width ="0.1"
						fill="rgb(0,3.5,50.5)"
						/><circle cx="0" cy="7.52" r="1.44" fill="rgb(1,69,76)"/><circle cx="-0.08" cy="7.5" r="0.96" fill="rgb(21.5,87.5,94.5)"/><path d="M 0,7.52 
						q 0.6 0.9 1,1.3333333333333 q 1.8 0.4 2,1.3333333333333 q 0.3 0.5 -3,1.3333333333333 
						M 0,7.52 
						q -0.6 0.9 -1,1.3333333333333 q -1.8 0.4 -2,1.3333333333333 q -0.3 0.5 3,1.3333333333333 " 
						transform="rotate(1080 0,7.52 )"
						stroke-width ="0.1"
						fill="rgb(0,7,57)"
						/><circle cx="0" cy="7.52" r="1.44" fill="rgb(1,69,76)"/><circle cx="0.03" cy="7.54" r="0.96" fill="rgb(21.5,87.5,94.5)"/></g></defs>
				<g class="fullPlant">
					<g>
					<path d ="M 47,91 
					a 83 747 -3.46 0 0 6.792,-15.984" fill ="none" stroke ="rgb(162.5,186.5,47.5)" stroke-width ="2.826"/></g><circle cx="53.792" cy="75.016" r="0.7065" stroke="rgb(167.5,191.5,52.5)" fill="rgb(162.5,186.5,47.5)"/><use xlink:href="#leaf1"
						x="53.792" y="75.016" 
						transform="rotate(-159 54.772 75.296)" 	
						fill="rgb(108,159,79)" /><use xlink:href="#leaf3"
						x="53.792" y="75.016" 
						transform="rotate(36 53.792 75.016)" 	
						fill="rgb(82,166,78)" /><use xlink:href="#leaf1"
						x="53.792" y="75.016" 
						transform="rotate(179 53.792 75.016)" 	
						fill="rgb(95,197,103)" /><use xlink:href="#leaf1"
						x="53.792" y="75.016" 
						transform="rotate(28 54.222 75.046)" 	
						fill="rgb(79,160,74)" /><use xlink:href="#leaf2"
						x="53.792" y="75.016" 
						transform="rotate(28 53.792 75.016)" 	
						fill="rgb(114,158,67)" /><use xlink:href="#leaf3"
						x="53.792" y="75.016" 
						transform="rotate(-65 54.712 75.596)" 	
						fill="rgb(114,189,96)" />
					<g>
					<path d ="M 53.792,75.016 
					a 60 600 -2.66 0 1 8.052,2.928" fill ="none" stroke ="rgb(161.5,185.5,49.5)" stroke-width ="1.413"/></g><circle cx="61.844" cy="77.944" r="0.35325" stroke="rgb(166.5,190.5,54.5)" fill="rgb(161.5,185.5,49.5)"/><use xlink:href="#leaf1"
						x="61.844" y="77.944" 
						transform="rotate(-144 61.844 77.944)" 	
						fill="rgb(107,176,93)" /><use xlink:href="#leaf1"
						x="61.844" y="77.944" 
						transform="rotate(111 62.704 78.624)" 	
						fill="rgb(98,196,96)" /><use xlink:href="#leaf4"
						x="61.844" y="77.944" 
						transform="rotate(34 62.254 78.444)" 	
						fill="rgb(82,173,106)" /><use xlink:href="#leaf3"
						x="61.844" y="77.944" 
						transform="rotate(-54 61.994 78.084)" 	
						fill="rgb(93,177,68)" /><use xlink:href="#leaf4"
						x="61.844" y="77.944" 
						transform="rotate(161 61.864 78.854)" 	
						fill="rgb(85,163,103)" /><use xlink:href="#leaf4"
						x="61.844" y="77.944" 
						transform="rotate(5 62.284 78.454)" 	
						fill="rgb(77,167,67)" /><use xlink:href="#leaf4"
						x="61.844" y="77.944" 
						transform="rotate(102 62.774 78.454)" 	
						fill="rgb(96,162,76)" /><use xlink:href="#leaf1"
						x="61.844" y="77.944" 
						transform="rotate(8 62.584 78.864)" 	
						fill="rgb(114,187,87)" /><use xlink:href="#leaf4"
						x="61.844" y="77.944" 
						transform="rotate(-82 62.684 78.444)" 	
						fill="rgb(88,164,101)" /><use xlink:href="#leaf2"
						x="61.844" y="77.944" 
						transform="rotate(16 61.934 78.724)" 	
						fill="rgb(79,166,107)" /><use xlink:href="#flower2" id="fleur10"
							x="61.844" y="77.944" 
							transform="rotate(89 62.888 78.484)" /><use xlink:href="#flower2" id="fleur11"
							x="61.844" y="77.944" 
							transform="rotate(22 61.844 77.944)" />
					<g>
					<path d ="M 53.792,75.016 
					a 67 67 -7.46 0 1 6.42,-7.56" fill ="none" stroke ="rgb(160.5,186.5,48.5)" stroke-width ="1.413"/></g><circle cx="60.212" cy="67.456" r="0.35325" stroke="rgb(165.5,191.5,53.5)" fill="rgb(160.5,186.5,48.5)"/><use xlink:href="#leaf1"
						x="60.212" y="67.456" 
						transform="rotate(135 60.212 67.456)" 	
						fill="rgb(90,171,77)" /><use xlink:href="#leaf4"
						x="60.212" y="67.456" 
						transform="rotate(143 61.132 68.346)" 	
						fill="rgb(110,176,103)" /><use xlink:href="#leaf1"
						x="60.212" y="67.456" 
						transform="rotate(-33 60.212 67.456)" 	
						fill="rgb(109,177,81)" /><use xlink:href="#leaf3"
						x="60.212" y="67.456" 
						transform="rotate(119 60.212 67.456)" 	
						fill="rgb(106,193,72)" /><use xlink:href="#leaf4"
						x="60.212" y="67.456" 
						transform="rotate(-67 60.622 67.976)" 	
						fill="rgb(92,163,107)" /><use xlink:href="#leaf1"
						x="60.212" y="67.456" 
						transform="rotate(166 60.212 67.456)" 	
						fill="rgb(88,174,98)" /><use xlink:href="#leaf2"
						x="60.212" y="67.456" 
						transform="rotate(-8 61.112 67.526)" 	
						fill="rgb(88,191,94)" /><use xlink:href="#leaf4"
						x="60.212" y="67.456" 
						transform="rotate(-22 60.212 67.456)" 	
						fill="rgb(88,160,97)" /><use xlink:href="#leaf1"
						x="60.212" y="67.456" 
						transform="rotate(23 60.232 68.226)" 	
						fill="rgb(107,178,71)" /><use xlink:href="#leaf3"
						x="60.212" y="67.456" 
						transform="rotate(-107 60.822 67.506)" 	
						fill="rgb(102,164,105)" /><use xlink:href="#flower3" id="fleur20"
							x="60.212" y="67.456" 
							transform="rotate(-3 60.428 68.356)" />
					<g>
					<path d ="M 60.212,67.456 
					a 93 558 4.3 0 1 8.028,4.068" fill ="none" stroke ="rgb(160,188,50)" stroke-width ="0.942"/></g><circle cx="68.24" cy="71.524" r="0.2355" stroke="rgb(165,193,55)" fill="rgb(160,188,50)"/><use xlink:href="#leaf4"
						x="68.24" y="71.524" 
						transform="rotate(-6 68.24 71.524)" 	
						fill="rgb(78,157,89)" /><use xlink:href="#leaf1"
						x="68.24" y="71.524" 
						transform="rotate(-9 68.86 72.304)" 	
						fill="rgb(113,189,89)" /><use xlink:href="#leaf4"
						x="68.24" y="71.524" 
						transform="rotate(-97 68.66 72.374)" 	
						fill="rgb(96,157,89)" /><use xlink:href="#leaf4"
						x="68.24" y="71.524" 
						transform="rotate(-65 68.24 71.524)" 	
						fill="rgb(88,197,98)" /><use xlink:href="#flower4" id="fleur30"
							x="68.24" y="71.524" 
							transform="rotate(74 68.24 71.524)" /><use xlink:href="#flower4" id="fleur31"
							x="68.24" y="71.524" 
							transform="rotate(169 68.24 71.524)" /><use xlink:href="#flower4" id="fleur32"
							x="68.24" y="71.524" 
							transform="rotate(95 68.24 71.524)" /><use xlink:href="#flower4" id="fleur33"
							x="68.24" y="71.524" 
							transform="rotate(148 68.936 72.532)" />
					<g>
					<path d ="M 60.212,67.456 
					a 62 310 3.32 0 0 4.068,0.588" fill ="none" stroke ="rgb(159.5,189.5,50.5)" stroke-width ="0.942"/></g><circle cx="64.28" cy="68.044" r="0.2355" stroke="rgb(164.5,194.5,55.5)" fill="rgb(159.5,189.5,50.5)"/><use xlink:href="#leaf5"
						x="64.28" y="68.044" 
						transform="rotate(-108 64.73 68.104)" 	
						fill="rgb(91,167,99)" /><use xlink:href="#leaf1"
						x="64.28" y="68.044" 
						transform="rotate(51 64.94 68.854)" 	
						fill="rgb(96,164,80)" /><use xlink:href="#leaf5"
						x="64.28" y="68.044" 
						transform="rotate(65 64.47 68.194)" 	
						fill="rgb(112,196,71)" /><use xlink:href="#leaf4"
						x="64.28" y="68.044" 
						transform="rotate(173 64.67 68.174)" 	
						fill="rgb(79,183,94)" /><use xlink:href="#leaf5"
						x="64.28" y="68.044" 
						transform="rotate(-166 65.1 68.924)" 	
						fill="rgb(101,175,79)" /><use xlink:href="#leaf5"
						x="64.28" y="68.044" 
						transform="rotate(61 64.63 68.944)" 	
						fill="rgb(103,192,83)" /><use xlink:href="#leaf1"
						x="64.28" y="68.044" 
						transform="rotate(28 64.28 68.044)" 	
						fill="rgb(94,188,69)" /><use xlink:href="#leaf2"
						x="64.28" y="68.044" 
						transform="rotate(-119 64.73 68.834)" 	
						fill="rgb(87,164,105)" /><use xlink:href="#leaf1"
						x="64.28" y="68.044" 
						transform="rotate(110 64.78 68.414)" 	
						fill="rgb(92,197,73)" /><use xlink:href="#leaf5"
						x="64.28" y="68.044" 
						transform="rotate(156 64.28 68.044)" 	
						fill="rgb(102,161,93)" /><use xlink:href="#leaf2"
						x="64.28" y="68.044" 
						transform="rotate(14 64.28 68.044)" 	
						fill="rgb(81,166,70)" /><use xlink:href="#leaf5"
						x="64.28" y="68.044" 
						transform="rotate(-115 64.99 68.254)" 	
						fill="rgb(88,197,76)" /><use xlink:href="#leaf2"
						x="64.28" y="68.044" 
						transform="rotate(6 64.28 68.044)" 	
						fill="rgb(107,181,78)" /><use xlink:href="#leaf2"
						x="64.28" y="68.044" 
						transform="rotate(160 64.28 68.044)" 	
						fill="rgb(98,161,90)" /><use xlink:href="#flower2" id="fleur40"
							x="64.28" y="68.044" 
							transform="rotate(122 64.28 68.044)" />
					<g>
					<path d ="M 53.792,75.016 
					a 95 665 2.55 0 1 10.056,-3.828" fill ="none" stroke ="rgb(162.5,189.5,50.5)" stroke-width ="1.413"/></g><circle cx="63.848" cy="71.188" r="0.35325" stroke="rgb(167.5,194.5,55.5)" fill="rgb(162.5,189.5,50.5)"/><use xlink:href="#leaf2"
						x="63.848" y="71.188" 
						transform="rotate(-6 64.318 71.478)" 	
						fill="rgb(114,176,91)" /><use xlink:href="#leaf2"
						x="63.848" y="71.188" 
						transform="rotate(-161 64.018 71.488)" 	
						fill="rgb(115,170,97)" /><use xlink:href="#leaf1"
						x="63.848" y="71.188" 
						transform="rotate(127 64.708 71.778)" 	
						fill="rgb(98,191,100)" /><use xlink:href="#leaf1"
						x="63.848" y="71.188" 
						transform="rotate(-114 63.958 71.538)" 	
						fill="rgb(96,183,90)" />
					<g>
					<path d ="M 68.24,71.524 
					a 94 94 0.65 0 1 13.068,-3.084" fill ="none" stroke ="rgb(164.5,191.5,54.5)" stroke-width ="0.7065"/></g><circle cx="81.308" cy="68.44" r="0.176625" stroke="rgb(169.5,196.5,59.5)" fill="rgb(164.5,191.5,54.5)"/><use xlink:href="#leaf3"
						x="81.308" y="68.44" 
						transform="rotate(123 81.488 69.13)" 	
						fill="rgb(115,197,81)" /><use xlink:href="#leaf5"
						x="81.308" y="68.44" 
						transform="rotate(-87 81.308 68.44)" 	
						fill="rgb(82,177,80)" /><use xlink:href="#leaf5"
						x="81.308" y="68.44" 
						transform="rotate(123 81.308 68.44)" 	
						fill="rgb(111,161,70)" /><use xlink:href="#leaf2"
						x="81.308" y="68.44" 
						transform="rotate(-106 81.938 68.87)" 	
						fill="rgb(95,190,73)" /><use xlink:href="#leaf4"
						x="81.308" y="68.44" 
						transform="rotate(-166 81.758 68.5)" 	
						fill="rgb(81,181,84)" /><use xlink:href="#flower4" id="fleur60"
							x="81.308" y="68.44" 
							transform="rotate(78 81.908 69.028)" />
					<g>
					<path d ="M 81.308,68.44 
					a 78 312 9.66 0 0 -6.204,-1.848" fill ="none" stroke ="rgb(168,194,57)" stroke-width ="0.5652"/></g><circle cx="75.104" cy="66.592" r="0.1413" stroke="rgb(173,199,62)" fill="rgb(168,194,57)"/><use xlink:href="#leaf6"
						x="75.104" y="66.592" 
						transform="rotate(153 75.104 66.592)" 	
						fill="rgb(107,193,68)" /><use xlink:href="#leaf7"
						x="75.104" y="66.592" 
						transform="rotate(46 75.104 66.592)" 	
						fill="rgb(115,165,88)" /><use xlink:href="#leaf7"
						x="75.104" y="66.592" 
						transform="rotate(-76 75.254 66.632)" 	
						fill="rgb(99,187,86)" /><use xlink:href="#leaf6"
						x="75.104" y="66.592" 
						transform="rotate(-2 75.464 67.262)" 	
						fill="rgb(107,159,97)" /><use xlink:href="#leaf4"
						x="75.104" y="66.592" 
						transform="rotate(-24 76.024 67.452)" 	
						fill="rgb(105,190,99)" /><use xlink:href="#leaf5"
						x="75.104" y="66.592" 
						transform="rotate(120 75.444 66.902)" 	
						fill="rgb(86,170,73)" /><use xlink:href="#leaf3"
						x="75.104" y="66.592" 
						transform="rotate(29 75.104 66.592)" 	
						fill="rgb(86,161,100)" /><use xlink:href="#leaf3"
						x="75.104" y="66.592" 
						transform="rotate(-160 75.824 66.842)" 	
						fill="rgb(84,168,77)" /><use xlink:href="#leaf3"
						x="75.104" y="66.592" 
						transform="rotate(146 75.134 66.682)" 	
						fill="rgb(94,169,106)" /><use xlink:href="#leaf6"
						x="75.104" y="66.592" 
						transform="rotate(20 75.264 67.462)" 	
						fill="rgb(102,176,105)" /><use xlink:href="#leaf5"
						x="75.104" y="66.592" 
						transform="rotate(-173 75.104 66.592)" 	
						fill="rgb(91,172,71)" /><use xlink:href="#flower5" id="fleur70"
							x="75.104" y="66.592" 
							transform="rotate(140 75.104 66.592)" /><use xlink:href="#flower5" id="fleur71"
							x="75.104" y="66.592" 
							transform="rotate(34 75.104 66.592)" /><use xlink:href="#flower5" id="fleur72"
							x="75.104" y="66.592" 
							transform="rotate(144 75.284 67.624)" /><use xlink:href="#flower5" id="fleur73"
							x="75.104" y="66.592" 
							transform="rotate(74 75.596 66.856)" />
					<g>
					<path d ="M 68.24,71.524 
					a 74 740 -3.34 0 1 10.44,3.984" fill ="none" stroke ="rgb(168,195,59)" stroke-width ="0.7065"/></g><circle cx="78.68" cy="75.508" r="0.176625" stroke="rgb(173,200,64)" fill="rgb(168,195,59)"/><use xlink:href="#leaf2"
						x="78.68" y="75.508" 
						transform="rotate(-88 78.68 75.508)" 	
						fill="rgb(108,186,99)" /><use xlink:href="#leaf5"
						x="78.68" y="75.508" 
						transform="rotate(168 78.68 75.508)" 	
						fill="rgb(104,158,98)" /><use xlink:href="#leaf5"
						x="78.68" y="75.508" 
						transform="rotate(120 78.76 76.168)" 	
						fill="rgb(104,159,90)" /><use xlink:href="#leaf6"
						x="78.68" y="75.508" 
						transform="rotate(-180 79.13 75.818)" 	
						fill="rgb(87,193,101)" /><use xlink:href="#leaf5"
						x="78.68" y="75.508" 
						transform="rotate(172 78.68 75.508)" 	
						fill="rgb(89,196,91)" /><use xlink:href="#leaf4"
						x="78.68" y="75.508" 
						transform="rotate(40 78.68 75.508)" 	
						fill="rgb(114,194,96)" /><use xlink:href="#leaf5"
						x="78.68" y="75.508" 
						transform="rotate(-56 78.68 75.508)" 	
						fill="rgb(84,185,106)" /><use xlink:href="#leaf5"
						x="78.68" y="75.508" 
						transform="rotate(-21 78.68 75.508)" 	
						fill="rgb(100,183,72)" /><use xlink:href="#flower5" id="fleur80"
							x="78.68" y="75.508" 
							transform="rotate(-52 79.172 75.832)" />
					<g>
					<path d ="M 78.68,75.508 
					a 88 528 0.90 0 0 9.792,-7.368" fill ="none" stroke ="rgb(172.5,199.5,59.5)" stroke-width ="0.5652"/></g><circle cx="88.472" cy="68.14" r="0.1413" stroke="rgb(177.5,204.5,64.5)" fill="rgb(172.5,199.5,59.5)"/><use xlink:href="#leaf4"
						x="88.472" y="68.14" 
						transform="rotate(-165 88.472 68.14)" 	
						fill="rgb(103,160,83)" /><use xlink:href="#leaf5"
						x="88.472" y="68.14" 
						transform="rotate(-52 88.472 68.14)" 	
						fill="rgb(109,171,95)" /><use xlink:href="#leaf5"
						x="88.472" y="68.14" 
						transform="rotate(132 88.472 68.14)" 	
						fill="rgb(112,177,95)" /><use xlink:href="#leaf4"
						x="88.472" y="68.14" 
						transform="rotate(-33 89.232 68.5)" 	
						fill="rgb(111,169,91)" /><use xlink:href="#leaf4"
						x="88.472" y="68.14" 
						transform="rotate(63 89.352 68.67)" 	
						fill="rgb(115,183,69)" /><use xlink:href="#leaf3"
						x="88.472" y="68.14" 
						transform="rotate(-176 88.472 68.14)" 	
						fill="rgb(80,191,90)" /><use xlink:href="#leaf3"
						x="88.472" y="68.14" 
						transform="rotate(-143 88.512 68.48)" 	
						fill="rgb(108,174,104)" /><use xlink:href="#leaf5"
						x="88.472" y="68.14" 
						transform="rotate(78 88.532 68.67)" 	
						fill="rgb(116,189,70)" /><use xlink:href="#leaf5"
						x="88.472" y="68.14" 
						transform="rotate(-64 89.232 68.64)" 	
						fill="rgb(95,180,97)" /><use xlink:href="#leaf5"
						x="88.472" y="68.14" 
						transform="rotate(139 88.472 68.14)" 	
						fill="rgb(114,188,92)" /><use xlink:href="#leaf3"
						x="88.472" y="68.14" 
						transform="rotate(-90 89.452 69.06)" 	
						fill="rgb(116,167,93)" />
					<g>
					<path d ="M 81.308,68.44 
					a 96 384 10.13 0 1 -8.76,-4.38" fill ="none" stroke ="rgb(176,200,63)" stroke-width ="0.5652"/></g><circle cx="72.548" cy="64.06" r="0.1413" stroke="rgb(181,205,68)" fill="rgb(176,200,63)"/><use xlink:href="#leaf6"
						x="72.548" y="64.06" 
						transform="rotate(110 72.548 64.06)" 	
						fill="rgb(106,161,85)" /><use xlink:href="#leaf7"
						x="72.548" y="64.06" 
						transform="rotate(-76 72.618 64.65)" 	
						fill="rgb(85,159,87)" /><use xlink:href="#leaf3"
						x="72.548" y="64.06" 
						transform="rotate(-65 72.938 64.89)" 	
						fill="rgb(113,172,78)" /><use xlink:href="#leaf3"
						x="72.548" y="64.06" 
						transform="rotate(30 72.548 64.06)" 	
						fill="rgb(102,196,107)" /><use xlink:href="#leaf4"
						x="72.548" y="64.06" 
						transform="rotate(163 72.548 64.06)" 	
						fill="rgb(88,194,96)" /><use xlink:href="#leaf7"
						x="72.548" y="64.06" 
						transform="rotate(-80 72.548 64.06)" 	
						fill="rgb(101,191,96)" /><use xlink:href="#leaf5"
						x="72.548" y="64.06" 
						transform="rotate(29 72.828 65.05)" 	
						fill="rgb(93,169,91)" /><use xlink:href="#leaf4"
						x="72.548" y="64.06" 
						transform="rotate(-117 73.088 64.17)" 	
						fill="rgb(80,177,105)" /><use xlink:href="#leaf5"
						x="72.548" y="64.06" 
						transform="rotate(61 72.658 64.15)" 	
						fill="rgb(79,178,96)" /><use xlink:href="#leaf5"
						x="72.548" y="64.06" 
						transform="rotate(16 72.548 64.06)" 	
						fill="rgb(107,182,96)" /><use xlink:href="#leaf7"
						x="72.548" y="64.06" 
						transform="rotate(-175 72.928 64.5)" 	
						fill="rgb(112,169,102)" />
					<g>
					<path d ="M 53.792,75.016 
					a 65 325 -3.7 0 0 6.36,3.852" fill ="none" stroke ="rgb(175,201,66)" stroke-width ="1.413"/></g><circle cx="60.152" cy="78.868" r="0.35325" stroke="rgb(180,206,71)" fill="rgb(175,201,66)"/><use xlink:href="#leaf2"
						x="60.152" y="78.868" 
						transform="rotate(20 60.782 78.998)" 	
						fill="rgb(96,194,92)" /><use xlink:href="#leaf3"
						x="60.152" y="78.868" 
						transform="rotate(-126 60.152 78.868)" 	
						fill="rgb(88,185,105)" /><use xlink:href="#leaf1"
						x="60.152" y="78.868" 
						transform="rotate(177 60.782 79.538)" 	
						fill="rgb(101,178,105)" /><use xlink:href="#leaf1"
						x="60.152" y="78.868" 
						transform="rotate(171 60.652 79.608)" 	
						fill="rgb(90,162,69)" /><use xlink:href="#leaf3"
						x="60.152" y="78.868" 
						transform="rotate(-108 60.152 78.868)" 	
						fill="rgb(78,184,98)" /><use xlink:href="#leaf1"
						x="60.152" y="78.868" 
						transform="rotate(46 60.472 79.858)" 	
						fill="rgb(82,164,104)" /><use xlink:href="#leaf3"
						x="60.152" y="78.868" 
						transform="rotate(-97 60.542 79.558)" 	
						fill="rgb(78,160,91)" /><use xlink:href="#leaf1"
						x="60.152" y="78.868" 
						transform="rotate(170 60.562 79.028)" 	
						fill="rgb(88,167,101)" />
					<g>
					<path d ="M 47,91 
					a 70 210 20.95 0 0 3.72,-19.908" fill ="none" stroke ="rgb(177.5,201.5,65.5)" stroke-width ="2.826"/></g><circle cx="50.72" cy="71.092" r="0.7065" stroke="rgb(182.5,206.5,70.5)" fill="rgb(177.5,201.5,65.5)"/><use xlink:href="#leaf2"
						x="50.72" y="71.092" 
						transform="rotate(-18 50.72 71.092)" 	
						fill="rgb(91,190,84)" /><use xlink:href="#leaf1"
						x="50.72" y="71.092" 
						transform="rotate(47 50.74 71.602)" 	
						fill="rgb(92,195,92)" /><use xlink:href="#leaf1"
						x="50.72" y="71.092" 
						transform="rotate(-29 50.86 71.202)" 	
						fill="rgb(116,181,87)" /><use xlink:href="#leaf1"
						x="50.72" y="71.092" 
						transform="rotate(-80 50.72 71.092)" 	
						fill="rgb(77,192,90)" /><use xlink:href="#leaf2"
						x="50.72" y="71.092" 
						transform="rotate(22 51.25 71.862)" 	
						fill="rgb(85,197,101)" /><use xlink:href="#leaf3"
						x="50.72" y="71.092" 
						transform="rotate(-40 50.72 71.092)" 	
						fill="rgb(86,188,100)" /><use xlink:href="#leaf1"
						x="50.72" y="71.092" 
						transform="rotate(174 51.2 71.942)" 	
						fill="rgb(80,170,74)" /><use xlink:href="#leaf1"
						x="50.72" y="71.092" 
						transform="rotate(35 50.93 71.802)" 	
						fill="rgb(92,179,74)" /><use xlink:href="#leaf2"
						x="50.72" y="71.092" 
						transform="rotate(89 50.72 71.092)" 	
						fill="rgb(107,173,107)" />
					<g>
					<path d ="M 50.72,71.092 
					a 50 100 11.21 0 1 3.192,-1.836" fill ="none" stroke ="rgb(180.5,204.5,65.5)" stroke-width ="1.413"/></g><circle cx="53.912" cy="69.256" r="0.35325" stroke="rgb(185.5,209.5,70.5)" fill="rgb(180.5,204.5,65.5)"/><use xlink:href="#leaf1"
						x="53.912" y="69.256" 
						transform="rotate(160 53.912 69.256)" 	
						fill="rgb(78,192,71)" /><use xlink:href="#leaf1"
						x="53.912" y="69.256" 
						transform="rotate(-165 53.912 69.256)" 	
						fill="rgb(94,165,67)" /><use xlink:href="#leaf4"
						x="53.912" y="69.256" 
						transform="rotate(-70 53.912 69.256)" 	
						fill="rgb(86,182,75)" /><use xlink:href="#leaf3"
						x="53.912" y="69.256" 
						transform="rotate(-129 54.822 70.086)" 	
						fill="rgb(80,167,107)" /><use xlink:href="#flower3" id="fleur130"
							x="53.912" y="69.256" 
							transform="rotate(129 53.912 69.256)" /><use xlink:href="#flower3" id="fleur131"
							x="53.912" y="69.256" 
							transform="rotate(-174 53.912 69.256)" />
					<g>
					<path d ="M 50.72,71.092 
					a 92 92 -12.46 0 0 -7.14,-5.268" fill ="none" stroke ="rgb(180.5,203.5,64.5)" stroke-width ="1.413"/></g><circle cx="43.58" cy="65.824" r="0.35325" stroke="rgb(185.5,208.5,69.5)" fill="rgb(180.5,203.5,64.5)"/><use xlink:href="#leaf1"
						x="43.58" y="65.824" 
						transform="rotate(-11 44.45 65.994)" 	
						fill="rgb(110,168,84)" /><use xlink:href="#leaf4"
						x="43.58" y="65.824" 
						transform="rotate(32 44.23 65.904)" 	
						fill="rgb(108,159,107)" /><use xlink:href="#leaf4"
						x="43.58" y="65.824" 
						transform="rotate(8 44.13 65.924)" 	
						fill="rgb(95,168,70)" /><use xlink:href="#leaf3"
						x="43.58" y="65.824" 
						transform="rotate(161 43.58 65.824)" 	
						fill="rgb(115,181,79)" /><use xlink:href="#leaf1"
						x="43.58" y="65.824" 
						transform="rotate(-114 43.61 66.094)" 	
						fill="rgb(94,180,70)" /><use xlink:href="#leaf2"
						x="43.58" y="65.824" 
						transform="rotate(108 43.58 65.824)" 	
						fill="rgb(88,174,83)" /><use xlink:href="#leaf4"
						x="43.58" y="65.824" 
						transform="rotate(144 44.18 66.784)" 	
						fill="rgb(101,158,69)" /><use xlink:href="#leaf1"
						x="43.58" y="65.824" 
						transform="rotate(141 44.42 66.784)" 	
						fill="rgb(110,175,93)" /><use xlink:href="#leaf1"
						x="43.58" y="65.824" 
						transform="rotate(109 43.58 65.824)" 	
						fill="rgb(103,196,78)" /><use xlink:href="#leaf1"
						x="43.58" y="65.824" 
						transform="rotate(71 44.23 66.524)" 	
						fill="rgb(78,181,88)" /><use xlink:href="#flower1" id="fleur140"
							x="43.58" y="65.824" 
							transform="rotate(-137 43.58 65.824)" /><use xlink:href="#flower1" id="fleur141"
							x="43.58" y="65.824" 
							transform="rotate(63 44.468 66.652)" />
					<g>
					<path d ="M 60.212,67.456 
					a 66 264 9.94 0 1 6.9,-5.076" fill ="none" stroke ="rgb(183,203,65)" stroke-width ="0.942"/></g><circle cx="67.112" cy="62.38" r="0.2355" stroke="rgb(188,208,70)" fill="rgb(183,203,65)"/><use xlink:href="#leaf4"
						x="67.112" y="62.38" 
						transform="rotate(-2 67.112 62.38)" 	
						fill="rgb(113,195,68)" /><use xlink:href="#leaf4"
						x="67.112" y="62.38" 
						transform="rotate(153 67.112 62.38)" 	
						fill="rgb(98,185,81)" /><use xlink:href="#leaf2"
						x="67.112" y="62.38" 
						transform="rotate(-100 67.112 62.38)" 	
						fill="rgb(88,160,94)" /><use xlink:href="#leaf5"
						x="67.112" y="62.38" 
						transform="rotate(118 67.112 62.38)" 	
						fill="rgb(88,172,71)" /><use xlink:href="#leaf4"
						x="67.112" y="62.38" 
						transform="rotate(-24 67.172 62.47)" 	
						fill="rgb(111,175,107)" /><use xlink:href="#leaf3"
						x="67.112" y="62.38" 
						transform="rotate(175 67.182 62.93)" 	
						fill="rgb(94,196,97)" /><use xlink:href="#leaf4"
						x="67.112" y="62.38" 
						transform="rotate(-17 67.112 62.38)" 	
						fill="rgb(106,186,94)" /><use xlink:href="#leaf2"
						x="67.112" y="62.38" 
						transform="rotate(-172 67.112 62.38)" 	
						fill="rgb(83,157,107)" /><use xlink:href="#flower2" id="fleur150"
							x="67.112" y="62.38" 
							transform="rotate(-38 68.024 63.016)" /><use xlink:href="#flower2" id="fleur151"
							x="67.112" y="62.38" 
							transform="rotate(-10 67.868 63.472)" />
					<g>
					<path d ="M 63.848,71.188 
					a 86 516 -15.15 0 1 4.14,-3.228" fill ="none" stroke ="rgb(183.5,203.5,65.5)" stroke-width ="0.942"/></g><circle cx="67.988" cy="67.96" r="0.2355" stroke="rgb(188.5,208.5,70.5)" fill="rgb(183.5,203.5,65.5)"/><use xlink:href="#leaf1"
						x="67.988" y="67.96" 
						transform="rotate(-42 68.918 68)" 	
						fill="rgb(84,191,88)" /><use xlink:href="#leaf4"
						x="67.988" y="67.96" 
						transform="rotate(-49 68.798 67.98)" 	
						fill="rgb(77,161,84)" /><use xlink:href="#leaf1"
						x="67.988" y="67.96" 
						transform="rotate(-61 67.988 67.96)" 	
						fill="rgb(86,169,93)" /><use xlink:href="#leaf1"
						x="67.988" y="67.96" 
						transform="rotate(-11 68.218 67.97)" 	
						fill="rgb(88,158,69)" /><use xlink:href="#leaf1"
						x="67.988" y="67.96" 
						transform="rotate(23 67.988 67.96)" 	
						fill="rgb(104,158,68)" /><use xlink:href="#leaf1"
						x="67.988" y="67.96" 
						transform="rotate(132 67.988 67.96)" 	
						fill="rgb(79,172,67)" /><use xlink:href="#leaf1"
						x="67.988" y="67.96" 
						transform="rotate(130 67.988 67.96)" 	
						fill="rgb(114,163,86)" /><use xlink:href="#leaf2"
						x="67.988" y="67.96" 
						transform="rotate(137 67.988 67.96)" 	
						fill="rgb(95,181,95)" /><use xlink:href="#leaf2"
						x="67.988" y="67.96" 
						transform="rotate(-109 67.988 67.96)" 	
						fill="rgb(88,167,82)" /><use xlink:href="#leaf2"
						x="67.988" y="67.96" 
						transform="rotate(24 67.988 67.96)" 	
						fill="rgb(92,184,82)" /><use xlink:href="#leaf3"
						x="67.988" y="67.96" 
						transform="rotate(-26 68.538 68.11)" 	
						fill="rgb(103,193,99)" /><use xlink:href="#leaf5"
						x="67.988" y="67.96" 
						transform="rotate(77 67.988 67.96)" 	
						fill="rgb(94,158,93)" />
					<g>
					<path d ="M 67.988,67.96 
					a 65 325 -15.57 0 1 10.62,-7.764" fill ="none" stroke ="rgb(187.5,204.5,67.5)" stroke-width ="0.7065"/></g><circle cx="78.608" cy="60.196" r="0.176625" stroke="rgb(192.5,209.5,72.5)" fill="rgb(187.5,204.5,67.5)"/><use xlink:href="#leaf5"
						x="78.608" y="60.196" 
						transform="rotate(130 78.608 60.196)" 	
						fill="rgb(90,179,106)" /><use xlink:href="#leaf4"
						x="78.608" y="60.196" 
						transform="rotate(-80 79.228 60.216)" 	
						fill="rgb(96,180,94)" /><use xlink:href="#leaf5"
						x="78.608" y="60.196" 
						transform="rotate(-122 78.608 60.196)" 	
						fill="rgb(78,164,89)" /><use xlink:href="#leaf4"
						x="78.608" y="60.196" 
						transform="rotate(-66 78.608 60.196)" 	
						fill="rgb(93,160,105)" /><use xlink:href="#leaf2"
						x="78.608" y="60.196" 
						transform="rotate(-118 78.738 60.276)" 	
						fill="rgb(100,183,87)" /><use xlink:href="#flower2" id="fleur170"
							x="78.608" y="60.196" 
							transform="rotate(-143 78.608 60.196)" /><use xlink:href="#flower2" id="fleur171"
							x="78.608" y="60.196" 
							transform="rotate(-113 78.608 60.196)" /><use xlink:href="#flower2" id="fleur172"
							x="78.608" y="60.196" 
							transform="rotate(-13 79.7 61.06)" /><use xlink:href="#flower2" id="fleur173"
							x="78.608" y="60.196" 
							transform="rotate(82 79.22 60.58)" /><use xlink:href="#flower2" id="fleur174"
							x="78.608" y="60.196" 
							transform="rotate(-136 79.34 61.156)" />
					<g>
					<path d ="M 67.988,67.96 
					a 96 192 10.8 0 1 -12.828,1.632" fill ="none" stroke ="rgb(187.5,206.5,70.5)" stroke-width ="0.7065"/></g><circle cx="55.16" cy="69.592" r="0.176625" stroke="rgb(192.5,211.5,75.5)" fill="rgb(187.5,206.5,70.5)"/><use xlink:href="#leaf2"
						x="55.16" y="69.592" 
						transform="rotate(-31 55.16 69.592)" 	
						fill="rgb(86,181,80)" /><use xlink:href="#leaf4"
						x="55.16" y="69.592" 
						transform="rotate(-151 55.16 69.592)" 	
						fill="rgb(93,164,102)" /><use xlink:href="#leaf4"
						x="55.16" y="69.592" 
						transform="rotate(72 55.87 70.092)" 	
						fill="rgb(99,167,72)" /><use xlink:href="#leaf2"
						x="55.16" y="69.592" 
						transform="rotate(-153 55.16 69.592)" 	
						fill="rgb(83,164,84)" /><use xlink:href="#leaf4"
						x="55.16" y="69.592" 
						transform="rotate(94 55.16 69.592)" 	
						fill="rgb(89,173,87)" /><use xlink:href="#leaf2"
						x="55.16" y="69.592" 
						transform="rotate(-71 55.16 69.592)" 	
						fill="rgb(94,189,91)" /><use xlink:href="#leaf4"
						x="55.16" y="69.592" 
						transform="rotate(-137 55.61 69.992)" 	
						fill="rgb(92,182,97)" /><use xlink:href="#leaf4"
						x="55.16" y="69.592" 
						transform="rotate(2 55.16 69.592)" 	
						fill="rgb(86,180,100)" /><use xlink:href="#leaf4"
						x="55.16" y="69.592" 
						transform="rotate(-60 55.44 69.632)" 	
						fill="rgb(100,157,98)" /><use xlink:href="#leaf3"
						x="55.16" y="69.592" 
						transform="rotate(-95 55.16 69.592)" 	
						fill="rgb(85,157,84)" /><use xlink:href="#leaf6"
						x="55.16" y="69.592" 
						transform="rotate(-50 55.99 70.412)" 	
						fill="rgb(88,175,105)" /><use xlink:href="#leaf6"
						x="55.16" y="69.592" 
						transform="rotate(-86 56.11 69.912)" 	
						fill="rgb(113,174,94)" /></g>
				</svg>