<svg class="relie" xmlns="http://www.w3.org/2000/svg" viewBox="0 0 100 100" preserveAspectRatio="xMidYMid meet" x="0" y="0" overflow="visible" xmlns:xlink="http://www.w3.org/1999/xlink">

		<defs>  <g id="leaf1" transform="skewX(6) skewY(6)"><path d="M 0,0 
					q 0.38 0.38 0.3875,0.27083333333333 q 0.38 0.38 0.125,0.27083333333333 q 0.38 0.38 -0.125,0.27083333333333 q 0.38 0.38 -0.0625,0.27083333333333 q 0.38 0.38 -0.125,0.27083333333333 q 0.38 0.38 -0.2,1 
					M 0,0 
					q -0.38 0.38 -0.3875,0.27083333333333 q -0.38 0.38 -0.125,0.27083333333333 q -0.38 0.38 0.125,0.27083333333333 q -0.38 0.38 0.0625,0.27083333333333 q -0.38 0.38 0.125,0.27083333333333 q -0.38 0.38 0.2,1 " 
					stroke-width ="0.2" /></g>  <g id="leaf2" transform="skewX(-13) skewY(-13)"><path d="M 0,0 
					q 0.76 0.76 0.575,0.54166666666667 q 0.76 0.76 0.25,0.54166666666667 q 0.76 0.76 -0.25,0.54166666666667 q 0.76 0.76 -0.125,0.54166666666667 q 0.76 0.76 -0.25,0.54166666666667 q 0.76 0.76 -0.2,1 
					M 0,0 
					q -0.76 0.76 -0.575,0.54166666666667 q -0.76 0.76 -0.25,0.54166666666667 q -0.76 0.76 0.25,0.54166666666667 q -0.76 0.76 0.125,0.54166666666667 q -0.76 0.76 0.25,0.54166666666667 q -0.76 0.76 0.2,1 " 
					stroke-width ="0.2" /></g>  <g id="leaf3" transform="skewX(-5) skewY(-5)"><path d="M 0,0 
					q 1.14 1.14 0.7625,0.8125 q 1.14 1.14 0.375,0.8125 q 1.14 1.14 -0.375,0.8125 q 1.14 1.14 -0.1875,0.8125 q 1.14 1.14 -0.375,0.8125 q 1.14 1.14 -0.2,1 
					M 0,0 
					q -1.14 1.14 -0.7625,0.8125 q -1.14 1.14 -0.375,0.8125 q -1.14 1.14 0.375,0.8125 q -1.14 1.14 0.1875,0.8125 q -1.14 1.14 0.375,0.8125 q -1.14 1.14 0.2,1 " 
					stroke-width ="0.2" /></g>  <g id="leaf4" transform="skewX(3) skewY(3)"><path d="M 0,0 
					q 1.52 1.52 0.95,1.0833333333333 q 1.52 1.52 0.5,1.0833333333333 q 1.52 1.52 -0.5,1.0833333333333 q 1.52 1.52 -0.25,1.0833333333333 q 1.52 1.52 -0.5,1.0833333333333 q 2.02 1.52 -0.2,1.0833333333333 
					M 0,0 
					q -1.52 1.52 -0.95,1.0833333333333 q -1.52 1.52 -0.5,1.0833333333333 q -1.52 1.52 0.5,1.0833333333333 q -1.52 1.52 0.25,1.0833333333333 q -1.52 1.52 0.5,1.0833333333333 q -2.02 1.52 0.2,1.0833333333333 " 
					stroke-width ="0.2" /></g>  <g id="leaf5" transform="skewX(-20) skewY(-20)"><path d="M 0,0 
					q 1.9 1.9 1.1375,1.3541666666667 q 1.9 1.9 0.625,1.3541666666667 q 1.9 1.9 -0.625,1.3541666666667 q 1.9 1.9 -0.3125,1.3541666666667 q 1.9 1.9 -0.625,1.3541666666667 q 2.525 1.9 -0.2,1.3541666666667 
					M 0,0 
					q -1.9 1.9 -1.1375,1.3541666666667 q -1.9 1.9 -0.625,1.3541666666667 q -1.9 1.9 0.625,1.3541666666667 q -1.9 1.9 0.3125,1.3541666666667 q -1.9 1.9 0.625,1.3541666666667 q -2.525 1.9 0.2,1.3541666666667 " 
					stroke-width ="0.2" /></g>  <g id="leaf6" transform="skewX(-6) skewY(-6)"><path d="M 0,0 
					q 2.28 2.28 1.325,1.625 q 2.28 2.28 0.75,1.625 q 2.28 2.28 -0.75,1.625 q 2.28 2.28 -0.375,1.625 q 2.28 2.28 -0.75,1.625 q 3.03 2.28 -0.2,1.625 
					M 0,0 
					q -2.28 2.28 -1.325,1.625 q -2.28 2.28 -0.75,1.625 q -2.28 2.28 0.75,1.625 q -2.28 2.28 0.375,1.625 q -2.28 2.28 0.75,1.625 q -3.03 2.28 0.2,1.625 " 
					stroke-width ="0.2" /></g>  <g id="leaf7" transform="skewX(-4) skewY(-4)"><path d="M 0,0 
					q 2.66 2.66 1.5125,1.8958333333333 q 2.66 2.66 0.875,1.8958333333333 q 2.66 2.66 -0.875,1.8958333333333 q 2.66 2.66 -0.4375,1.8958333333333 q 2.66 2.66 -0.875,1.8958333333333 q 3.535 2.66 -0.2,1.8958333333333 
					M 0,0 
					q -2.66 2.66 -1.5125,1.8958333333333 q -2.66 2.66 -0.875,1.8958333333333 q -2.66 2.66 0.875,1.8958333333333 q -2.66 2.66 0.4375,1.8958333333333 q -2.66 2.66 0.875,1.8958333333333 q -3.535 2.66 0.2,1.8958333333333 " 
					stroke-width ="0.2" /></g>  <g id="leaf8" transform="skewX(-6) skewY(-6)"><path d="M 0,0 
					q 3.04 3.04 1.7,2.1666666666667 q 3.04 3.04 1,2.1666666666667 q 3.04 3.04 -1,2.1666666666667 q 3.04 3.04 -0.5,2.1666666666667 q 3.04 3.04 -1,2.1666666666667 q 4.04 3.04 -0.2,2.1666666666667 
					M 0,0 
					q -3.04 3.04 -1.7,2.1666666666667 q -3.04 3.04 -1,2.1666666666667 q -3.04 3.04 1,2.1666666666667 q -3.04 3.04 0.5,2.1666666666667 q -3.04 3.04 1,2.1666666666667 q -4.04 3.04 0.2,2.1666666666667 " 
					stroke-width ="0.2" /></g><g id="flower1" transform="skewX(-2) skewY(-2)">
						<path d="M 0,0
						Q 1.04,0.375 0,1.1475"
						stroke="rgb(135,93,59)" 
						fill="transparent"
						stroke-width ="0.3" /><path d="M 0,1.1475 
						q 0.2725 0.3075 0.3875,0.1875 q 0.3075 0.48 0.0125,0.375 q -0.04 0.33 -0.125,0.1875 q 0.25625 0.0725 -0.275,1 
						M 0,1.1475 
						q -0.2725 0.3075 -0.3875,0.1875 q -0.3075 0.48 -0.0125,0.375 q 0.04 0.33 0.125,0.1875 q -0.25625 0.0725 0.275,1 " 
						transform="rotate(0 0,1.1475 )"
						stroke-width ="0.1"
						fill="rgb(17,9,31)"
						/><circle cx="0" cy="1.1475" r="0.21" fill="rgb(198,122,26)"/><circle cx="-0.08" cy="1.0875" r="0.14" fill="rgb(216.5,141.5,25.5)"/><path d="M 0,1.1475 
						q 0.2725 0.3075 0.3875,0.1875 q 0.3075 0.48 0.0125,0.375 q -0.04 0.33 -0.125,0.1875 q 0.25625 0.0725 -0.275,1 
						M 0,1.1475 
						q -0.2725 0.3075 -0.3875,0.1875 q -0.3075 0.48 -0.0125,0.375 q 0.04 0.33 0.125,0.1875 q -0.25625 0.0725 0.275,1 " 
						transform="rotate(90 0,1.1475 )"
						stroke-width ="0.1"
						fill="rgb(23.5,14.5,35.5)"
						/><circle cx="0" cy="1.1475" r="0.21" fill="rgb(198,122,26)"/><circle cx="0.06" cy="1.1175" r="0.14" fill="rgb(216.5,141.5,25.5)"/><path d="M 0,1.1475 
						q 0.2725 0.3075 0.3875,0.1875 q 0.3075 0.48 0.0125,0.375 q -0.04 0.33 -0.125,0.1875 q 0.25625 0.0725 -0.275,1 
						M 0,1.1475 
						q -0.2725 0.3075 -0.3875,0.1875 q -0.3075 0.48 -0.0125,0.375 q 0.04 0.33 0.125,0.1875 q -0.25625 0.0725 0.275,1 " 
						transform="rotate(180 0,1.1475 )"
						stroke-width ="0.1"
						fill="rgb(17,0,24)"
						/><circle cx="0" cy="1.1475" r="0.21" fill="rgb(198,122,26)"/><circle cx="-0.03" cy="1.0575" r="0.14" fill="rgb(216.5,141.5,25.5)"/><path d="M 0,1.1475 
						q 0.2725 0.3075 0.3875,0.1875 q 0.3075 0.48 0.0125,0.375 q -0.04 0.33 -0.125,0.1875 q 0.25625 0.0725 -0.275,1 
						M 0,1.1475 
						q -0.2725 0.3075 -0.3875,0.1875 q -0.3075 0.48 -0.0125,0.375 q 0.04 0.33 0.125,0.1875 q -0.25625 0.0725 0.275,1 " 
						transform="rotate(270 0,1.1475 )"
						stroke-width ="0.1"
						fill="rgb(11.5,8.5,26.5)"
						/><circle cx="0" cy="1.1475" r="0.21" fill="rgb(198,122,26)"/><circle cx="-0.09" cy="1.2375" r="0.14" fill="rgb(216.5,141.5,25.5)"/><path d="M 0,1.1475 
						q 0.2725 0.3075 0.3875,0.1875 q 0.3075 0.48 0.0125,0.375 q -0.04 0.33 -0.125,0.1875 q 0.25625 0.0725 -0.275,1 
						M 0,1.1475 
						q -0.2725 0.3075 -0.3875,0.1875 q -0.3075 0.48 -0.0125,0.375 q 0.04 0.33 0.125,0.1875 q -0.25625 0.0725 0.275,1 " 
						transform="rotate(360 0,1.1475 )"
						stroke-width ="0.1"
						fill="rgb(12,2,13)"
						/><circle cx="0" cy="1.1475" r="0.21" fill="rgb(198,122,26)"/><circle cx="0.01" cy="1.1175" r="0.14" fill="rgb(216.5,141.5,25.5)"/><path d="M 0,1.1475 
						q 0.2725 0.3075 0.3875,0.1875 q 0.3075 0.48 0.0125,0.375 q -0.04 0.33 -0.125,0.1875 q 0.25625 0.0725 -0.275,1 
						M 0,1.1475 
						q -0.2725 0.3075 -0.3875,0.1875 q -0.3075 0.48 -0.0125,0.375 q 0.04 0.33 0.125,0.1875 q -0.25625 0.0725 0.275,1 " 
						transform="rotate(450 0,1.1475 )"
						stroke-width ="0.1"
						fill="rgb(1.5,5.5,30.5)"
						/><circle cx="0" cy="1.1475" r="0.21" fill="rgb(198,122,26)"/><circle cx="-0.02" cy="1.1275" r="0.14" fill="rgb(216.5,141.5,25.5)"/><path d="M 0,1.1475 
						q 0.2725 0.3075 0.3875,0.1875 q 0.3075 0.48 0.0125,0.375 q -0.04 0.33 -0.125,0.1875 q 0.25625 0.0725 -0.275,1 
						M 0,1.1475 
						q -0.2725 0.3075 -0.3875,0.1875 q -0.3075 0.48 -0.0125,0.375 q 0.04 0.33 0.125,0.1875 q -0.25625 0.0725 0.275,1 " 
						transform="rotate(540 0,1.1475 )"
						stroke-width ="0.1"
						fill="rgb(0,0,20)"
						/><circle cx="0" cy="1.1475" r="0.21" fill="rgb(198,122,26)"/><circle cx="-0.03" cy="1.0575" r="0.14" fill="rgb(216.5,141.5,25.5)"/><path d="M 0,1.1475 
						q 0.2725 0.3075 0.3875,0.1875 q 0.3075 0.48 0.0125,0.375 q -0.04 0.33 -0.125,0.1875 q 0.25625 0.0725 -0.275,1 
						M 0,1.1475 
						q -0.2725 0.3075 -0.3875,0.1875 q -0.3075 0.48 -0.0125,0.375 q 0.04 0.33 0.125,0.1875 q -0.25625 0.0725 0.275,1 " 
						transform="rotate(630 0,1.1475 )"
						stroke-width ="0.1"
						fill="rgb(0,0,13.5)"
						/><circle cx="0" cy="1.1475" r="0.21" fill="rgb(198,122,26)"/><circle cx="0.03" cy="1.2175" r="0.14" fill="rgb(216.5,141.5,25.5)"/><path d="M 0,1.1475 
						q 0.2725 0.3075 0.3875,0.1875 q 0.3075 0.48 0.0125,0.375 q -0.04 0.33 -0.125,0.1875 q 0.25625 0.0725 -0.275,1 
						M 0,1.1475 
						q -0.2725 0.3075 -0.3875,0.1875 q -0.3075 0.48 -0.0125,0.375 q 0.04 0.33 0.125,0.1875 q -0.25625 0.0725 0.275,1 " 
						transform="rotate(720 0,1.1475 )"
						stroke-width ="0.1"
						fill="rgb(2,0,15)"
						/><circle cx="0" cy="1.1475" r="0.21" fill="rgb(198,122,26)"/><circle cx="0.04" cy="1.0475" r="0.14" fill="rgb(216.5,141.5,25.5)"/><path d="M 0,1.1475 
						q 0.2725 0.3075 0.3875,0.1875 q 0.3075 0.48 0.0125,0.375 q -0.04 0.33 -0.125,0.1875 q 0.25625 0.0725 -0.275,1 
						M 0,1.1475 
						q -0.2725 0.3075 -0.3875,0.1875 q -0.3075 0.48 -0.0125,0.375 q 0.04 0.33 0.125,0.1875 q -0.25625 0.0725 0.275,1 " 
						transform="rotate(810 0,1.1475 )"
						stroke-width ="0.1"
						fill="rgb(0,0,2.5)"
						/><circle cx="0" cy="1.1475" r="0.21" fill="rgb(198,122,26)"/><circle cx="0.01" cy="1.2475" r="0.14" fill="rgb(216.5,141.5,25.5)"/><path d="M 0,1.1475 
						q 0.2725 0.3075 0.3875,0.1875 q 0.3075 0.48 0.0125,0.375 q -0.04 0.33 -0.125,0.1875 q 0.25625 0.0725 -0.275,1 
						M 0,1.1475 
						q -0.2725 0.3075 -0.3875,0.1875 q -0.3075 0.48 -0.0125,0.375 q 0.04 0.33 0.125,0.1875 q -0.25625 0.0725 0.275,1 " 
						transform="rotate(900 0,1.1475 )"
						stroke-width ="0.1"
						fill="rgb(0,0,12)"
						/><circle cx="0" cy="1.1475" r="0.21" fill="rgb(198,122,26)"/><circle cx="0.03" cy="1.2075" r="0.14" fill="rgb(216.5,141.5,25.5)"/><path d="M 0,1.1475 
						q 0.2725 0.3075 0.3875,0.1875 q 0.3075 0.48 0.0125,0.375 q -0.04 0.33 -0.125,0.1875 q 0.25625 0.0725 -0.275,1 
						M 0,1.1475 
						q -0.2725 0.3075 -0.3875,0.1875 q -0.3075 0.48 -0.0125,0.375 q 0.04 0.33 0.125,0.1875 q -0.25625 0.0725 0.275,1 " 
						transform="rotate(990 0,1.1475 )"
						stroke-width ="0.1"
						fill="rgb(0,0,6.5)"
						/><circle cx="0" cy="1.1475" r="0.21" fill="rgb(198,122,26)"/><circle cx="0.07" cy="1.1975" r="0.14" fill="rgb(216.5,141.5,25.5)"/><path d="M 0,1.1475 
						q 0.2725 0.3075 0.3875,0.1875 q 0.3075 0.48 0.0125,0.375 q -0.04 0.33 -0.125,0.1875 q 0.25625 0.0725 -0.275,1 
						M 0,1.1475 
						q -0.2725 0.3075 -0.3875,0.1875 q -0.3075 0.48 -0.0125,0.375 q 0.04 0.33 0.125,0.1875 q -0.25625 0.0725 0.275,1 " 
						transform="rotate(1080 0,1.1475 )"
						stroke-width ="0.1"
						fill="rgb(0,0,5)"
						/><circle cx="0" cy="1.1475" r="0.21" fill="rgb(198,122,26)"/><circle cx="0.07" cy="1.2175" r="0.14" fill="rgb(216.5,141.5,25.5)"/></g><g id="flower2" transform="skewX(10) skewY(10)">
						<path d="M 0,0
						Q 1.31,0.75 0,2.295"
						stroke="rgb(135,93,59)" 
						fill="transparent"
						stroke-width ="0.3" /><path d="M 0,2.295 
						q 0.545 0.615 0.575,0.375 q 0.615 0.96 0.025,0.75 q -0.08 0.66 -0.25,0.375 q 0.5125 0.145 -0.35,1 
						M 0,2.295 
						q -0.545 0.615 -0.575,0.375 q -0.615 0.96 -0.025,0.75 q 0.08 0.66 0.25,0.375 q -0.5125 0.145 0.35,1 " 
						transform="rotate(0 0,2.295 )"
						stroke-width ="0.1"
						fill="rgb(17,12,23)"
						/><path d="M 0,2.295 
						q 0.545 0.615 0.575,0.375 q 0.615 0.96 0.025,0.75 q -0.08 0.66 -0.25,0.375 q 0.5125 0.145 -0.35,1 
						M 0,2.295 
						q -0.545 0.615 -0.575,0.375 q -0.615 0.96 -0.025,0.75 q 0.08 0.66 0.25,0.375 q -0.5125 0.145 0.35,1 " 
						transform="rotate(27 0,2.295 )"
						stroke-width ="0.1"
						fill="rgb(18.5,5.5,30.5)"
						/><path d="M 0,2.295 
						q 0.545 0.615 0.575,0.375 q 0.615 0.96 0.025,0.75 q -0.08 0.66 -0.25,0.375 q 0.5125 0.145 -0.35,1 
						M 0,2.295 
						q -0.545 0.615 -0.575,0.375 q -0.615 0.96 -0.025,0.75 q 0.08 0.66 0.25,0.375 q -0.5125 0.145 0.35,1 " 
						transform="rotate(54 0,2.295 )"
						stroke-width ="0.1"
						fill="rgb(20,0,27)"
						/><path d="M 0,2.295 
						q 0.545 0.615 0.575,0.375 q 0.615 0.96 0.025,0.75 q -0.08 0.66 -0.25,0.375 q 0.5125 0.145 -0.35,1 
						M 0,2.295 
						q -0.545 0.615 -0.575,0.375 q -0.615 0.96 -0.025,0.75 q 0.08 0.66 0.25,0.375 q -0.5125 0.145 0.35,1 " 
						transform="rotate(81 0,2.295 )"
						stroke-width ="0.1"
						fill="rgb(2.5,4.5,23.5)"
						/></g><g id="flower3" transform="skewX(-4) skewY(-4)">
						<path d="M 0,0
						Q 1.1,1.125 0,3.4425"
						stroke="rgb(135,93,59)" 
						fill="transparent"
						stroke-width ="0.3" /><path d="M 0,3.4425 
						q 0.8175 0.9225 0.7625,0.5625 q 0.9225 1.44 0.0375,1.125 q -0.12 0.99 -0.375,0.5625 q 0.76875 0.2175 -0.425,1 
						M 0,3.4425 
						q -0.8175 0.9225 -0.7625,0.5625 q -0.9225 1.44 -0.0375,1.125 q 0.12 0.99 0.375,0.5625 q -0.76875 0.2175 0.425,1 " 
						transform="rotate(0 0,3.4425 )"
						stroke-width ="0.1"
						fill="rgb(19,8,40)"
						/><path d="M 0,3.4425 
						q 0.8175 0.9225 0.7625,0.5625 q 0.9225 1.44 0.0375,1.125 q -0.12 0.99 -0.375,0.5625 q 0.76875 0.2175 -0.425,1 
						M 0,3.4425 
						q -0.8175 0.9225 -0.7625,0.5625 q -0.9225 1.44 -0.0375,1.125 q 0.12 0.99 0.375,0.5625 q -0.76875 0.2175 0.425,1 " 
						transform="rotate(27 0,3.4425 )"
						stroke-width ="0.1"
						fill="rgb(9.5,8.5,22.5)"
						/><path d="M 0,3.4425 
						q 0.8175 0.9225 0.7625,0.5625 q 0.9225 1.44 0.0375,1.125 q -0.12 0.99 -0.375,0.5625 q 0.76875 0.2175 -0.425,1 
						M 0,3.4425 
						q -0.8175 0.9225 -0.7625,0.5625 q -0.9225 1.44 -0.0375,1.125 q 0.12 0.99 0.375,0.5625 q -0.76875 0.2175 0.425,1 " 
						transform="rotate(54 0,3.4425 )"
						stroke-width ="0.1"
						fill="rgb(15,0,37)"
						/><path d="M 0,3.4425 
						q 0.8175 0.9225 0.7625,0.5625 q 0.9225 1.44 0.0375,1.125 q -0.12 0.99 -0.375,0.5625 q 0.76875 0.2175 -0.425,1 
						M 0,3.4425 
						q -0.8175 0.9225 -0.7625,0.5625 q -0.9225 1.44 -0.0375,1.125 q 0.12 0.99 0.375,0.5625 q -0.76875 0.2175 0.425,1 " 
						transform="rotate(81 0,3.4425 )"
						stroke-width ="0.1"
						fill="rgb(1.5,6.5,17.5)"
						/></g><g id="flower4" transform="skewX(-8) skewY(-8)">
						<path d="M 0,0
						Q -0.71,1.5 0,4.59"
						stroke="rgb(135,93,59)" 
						fill="transparent"
						stroke-width ="0.3" /><path d="M 0,4.59 
						q 1.09 1.23 0.95,0.75 q 1.23 1.92 0.05,1.5 q -0.16 1.32 -0.5,0.75 q 1.525 0.29 -0.5,1 
						M 0,4.59 
						q -1.09 1.23 -0.95,0.75 q -1.23 1.92 -0.05,1.5 q 0.16 1.32 0.5,0.75 q -1.525 0.29 0.5,1 " 
						transform="rotate(0 0,4.59 )"
						stroke-width ="0.1"
						fill="rgb(24,6,27)"
						/><circle cx="0" cy="4.59" r="0.84" fill="rgb(200,123,22)"/><circle cx="0.04" cy="4.62" r="0.56" fill="rgb(208.5,142.5,37.5)"/><path d="M 0,4.59 
						q 1.09 1.23 0.95,0.75 q 1.23 1.92 0.05,1.5 q -0.16 1.32 -0.5,0.75 q 1.525 0.29 -0.5,1 
						M 0,4.59 
						q -1.09 1.23 -0.95,0.75 q -1.23 1.92 -0.05,1.5 q 0.16 1.32 0.5,0.75 q -1.525 0.29 0.5,1 " 
						transform="rotate(90 0,4.59 )"
						stroke-width ="0.1"
						fill="rgb(23.5,5.5,20.5)"
						/><circle cx="0" cy="4.59" r="0.84" fill="rgb(200,123,22)"/><circle cx="0.01" cy="4.55" r="0.56" fill="rgb(208.5,142.5,37.5)"/><path d="M 0,4.59 
						q 1.09 1.23 0.95,0.75 q 1.23 1.92 0.05,1.5 q -0.16 1.32 -0.5,0.75 q 1.525 0.29 -0.5,1 
						M 0,4.59 
						q -1.09 1.23 -0.95,0.75 q -1.23 1.92 -0.05,1.5 q 0.16 1.32 0.5,0.75 q -1.525 0.29 0.5,1 " 
						transform="rotate(180 0,4.59 )"
						stroke-width ="0.1"
						fill="rgb(19,9,19)"
						/><circle cx="0" cy="4.59" r="0.84" fill="rgb(200,123,22)"/><circle cx="-0.1" cy="4.67" r="0.56" fill="rgb(208.5,142.5,37.5)"/><path d="M 0,4.59 
						q 1.09 1.23 0.95,0.75 q 1.23 1.92 0.05,1.5 q -0.16 1.32 -0.5,0.75 q 1.525 0.29 -0.5,1 
						M 0,4.59 
						q -1.09 1.23 -0.95,0.75 q -1.23 1.92 -0.05,1.5 q 0.16 1.32 0.5,0.75 q -1.525 0.29 0.5,1 " 
						transform="rotate(270 0,4.59 )"
						stroke-width ="0.1"
						fill="rgb(2.5,8.5,24.5)"
						/><circle cx="0" cy="4.59" r="0.84" fill="rgb(200,123,22)"/><circle cx="-0.03" cy="4.57" r="0.56" fill="rgb(208.5,142.5,37.5)"/><path d="M 0,4.59 
						q 1.09 1.23 0.95,0.75 q 1.23 1.92 0.05,1.5 q -0.16 1.32 -0.5,0.75 q 1.525 0.29 -0.5,1 
						M 0,4.59 
						q -1.09 1.23 -0.95,0.75 q -1.23 1.92 -0.05,1.5 q 0.16 1.32 0.5,0.75 q -1.525 0.29 0.5,1 " 
						transform="rotate(360 0,4.59 )"
						stroke-width ="0.1"
						fill="rgb(5,1,28)"
						/><circle cx="0" cy="4.59" r="0.84" fill="rgb(200,123,22)"/><circle cx="-0.05" cy="4.62" r="0.56" fill="rgb(208.5,142.5,37.5)"/><path d="M 0,4.59 
						q 1.09 1.23 0.95,0.75 q 1.23 1.92 0.05,1.5 q -0.16 1.32 -0.5,0.75 q 1.525 0.29 -0.5,1 
						M 0,4.59 
						q -1.09 1.23 -0.95,0.75 q -1.23 1.92 -0.05,1.5 q 0.16 1.32 0.5,0.75 q -1.525 0.29 0.5,1 " 
						transform="rotate(450 0,4.59 )"
						stroke-width ="0.1"
						fill="rgb(8.5,0,10.5)"
						/><circle cx="0" cy="4.59" r="0.84" fill="rgb(200,123,22)"/><circle cx="0.02" cy="4.69" r="0.56" fill="rgb(208.5,142.5,37.5)"/><path d="M 0,4.59 
						q 1.09 1.23 0.95,0.75 q 1.23 1.92 0.05,1.5 q -0.16 1.32 -0.5,0.75 q 1.525 0.29 -0.5,1 
						M 0,4.59 
						q -1.09 1.23 -0.95,0.75 q -1.23 1.92 -0.05,1.5 q 0.16 1.32 0.5,0.75 q -1.525 0.29 0.5,1 " 
						transform="rotate(540 0,4.59 )"
						stroke-width ="0.1"
						fill="rgb(2,0,21)"
						/><circle cx="0" cy="4.59" r="0.84" fill="rgb(200,123,22)"/><circle cx="-0.09" cy="4.66" r="0.56" fill="rgb(208.5,142.5,37.5)"/><path d="M 0,4.59 
						q 1.09 1.23 0.95,0.75 q 1.23 1.92 0.05,1.5 q -0.16 1.32 -0.5,0.75 q 1.525 0.29 -0.5,1 
						M 0,4.59 
						q -1.09 1.23 -0.95,0.75 q -1.23 1.92 -0.05,1.5 q 0.16 1.32 0.5,0.75 q -1.525 0.29 0.5,1 " 
						transform="rotate(630 0,4.59 )"
						stroke-width ="0.1"
						fill="rgb(10.5,0,10.5)"
						/><circle cx="0" cy="4.59" r="0.84" fill="rgb(200,123,22)"/><circle cx="0.09" cy="4.57" r="0.56" fill="rgb(208.5,142.5,37.5)"/><path d="M 0,4.59 
						q 1.09 1.23 0.95,0.75 q 1.23 1.92 0.05,1.5 q -0.16 1.32 -0.5,0.75 q 1.525 0.29 -0.5,1 
						M 0,4.59 
						q -1.09 1.23 -0.95,0.75 q -1.23 1.92 -0.05,1.5 q 0.16 1.32 0.5,0.75 q -1.525 0.29 0.5,1 " 
						transform="rotate(720 0,4.59 )"
						stroke-width ="0.1"
						fill="rgb(0,0,14)"
						/><circle cx="0" cy="4.59" r="0.84" fill="rgb(200,123,22)"/><circle cx="-0.03" cy="4.58" r="0.56" fill="rgb(208.5,142.5,37.5)"/><path d="M 0,4.59 
						q 1.09 1.23 0.95,0.75 q 1.23 1.92 0.05,1.5 q -0.16 1.32 -0.5,0.75 q 1.525 0.29 -0.5,1 
						M 0,4.59 
						q -1.09 1.23 -0.95,0.75 q -1.23 1.92 -0.05,1.5 q 0.16 1.32 0.5,0.75 q -1.525 0.29 0.5,1 " 
						transform="rotate(810 0,4.59 )"
						stroke-width ="0.1"
						fill="rgb(2.5,0,12.5)"
						/><circle cx="0" cy="4.59" r="0.84" fill="rgb(200,123,22)"/><circle cx="0" cy="4.63" r="0.56" fill="rgb(208.5,142.5,37.5)"/><path d="M 0,4.59 
						q 1.09 1.23 0.95,0.75 q 1.23 1.92 0.05,1.5 q -0.16 1.32 -0.5,0.75 q 1.525 0.29 -0.5,1 
						M 0,4.59 
						q -1.09 1.23 -0.95,0.75 q -1.23 1.92 -0.05,1.5 q 0.16 1.32 0.5,0.75 q -1.525 0.29 0.5,1 " 
						transform="rotate(900 0,4.59 )"
						stroke-width ="0.1"
						fill="rgb(0,0,0)"
						/><circle cx="0" cy="4.59" r="0.84" fill="rgb(200,123,22)"/><circle cx="-0.02" cy="4.67" r="0.56" fill="rgb(208.5,142.5,37.5)"/><path d="M 0,4.59 
						q 1.09 1.23 0.95,0.75 q 1.23 1.92 0.05,1.5 q -0.16 1.32 -0.5,0.75 q 1.525 0.29 -0.5,1 
						M 0,4.59 
						q -1.09 1.23 -0.95,0.75 q -1.23 1.92 -0.05,1.5 q 0.16 1.32 0.5,0.75 q -1.525 0.29 0.5,1 " 
						transform="rotate(990 0,4.59 )"
						stroke-width ="0.1"
						fill="rgb(0,0,14.5)"
						/><circle cx="0" cy="4.59" r="0.84" fill="rgb(200,123,22)"/><circle cx="-0.05" cy="4.62" r="0.56" fill="rgb(208.5,142.5,37.5)"/><path d="M 0,4.59 
						q 1.09 1.23 0.95,0.75 q 1.23 1.92 0.05,1.5 q -0.16 1.32 -0.5,0.75 q 1.525 0.29 -0.5,1 
						M 0,4.59 
						q -1.09 1.23 -0.95,0.75 q -1.23 1.92 -0.05,1.5 q 0.16 1.32 0.5,0.75 q -1.525 0.29 0.5,1 " 
						transform="rotate(1080 0,4.59 )"
						stroke-width ="0.1"
						fill="rgb(0,0,0)"
						/><circle cx="0" cy="4.59" r="0.84" fill="rgb(200,123,22)"/><circle cx="0.05" cy="4.56" r="0.56" fill="rgb(208.5,142.5,37.5)"/></g><g id="flower5" transform="skewX(-5) skewY(-5)">
						<path d="M 0,0
						Q -0.5,1.875 0,5.7375"
						stroke="rgb(135,93,59)" 
						fill="transparent"
						stroke-width ="0.3" /><path d="M 0,5.7375 
						q 1.3625 1.5375 1.1375,0.9375 q 1.5375 2.4 0.0625,1.875 q -0.2 1.65 -0.625,0.9375 q 1.90625 0.3625 -0.575,1 
						M 0,5.7375 
						q -1.3625 1.5375 -1.1375,0.9375 q -1.5375 2.4 -0.0625,1.875 q 0.2 1.65 0.625,0.9375 q -1.90625 0.3625 0.575,1 " 
						transform="rotate(0 0,5.7375 )"
						stroke-width ="0.1"
						fill="rgb(26,0,28)"
						/><path d="M 0,5.7375 
						q 1.3625 1.5375 1.1375,0.9375 q 1.5375 2.4 0.0625,1.875 q -0.2 1.65 -0.625,0.9375 q 1.90625 0.3625 -0.575,1 
						M 0,5.7375 
						q -1.3625 1.5375 -1.1375,0.9375 q -1.5375 2.4 -0.0625,1.875 q 0.2 1.65 0.625,0.9375 q -1.90625 0.3625 0.575,1 " 
						transform="rotate(27 0,5.7375 )"
						stroke-width ="0.1"
						fill="rgb(19.5,0,38.5)"
						/><path d="M 0,5.7375 
						q 1.3625 1.5375 1.1375,0.9375 q 1.5375 2.4 0.0625,1.875 q -0.2 1.65 -0.625,0.9375 q 1.90625 0.3625 -0.575,1 
						M 0,5.7375 
						q -1.3625 1.5375 -1.1375,0.9375 q -1.5375 2.4 -0.0625,1.875 q 0.2 1.65 0.625,0.9375 q -1.90625 0.3625 0.575,1 " 
						transform="rotate(54 0,5.7375 )"
						stroke-width ="0.1"
						fill="rgb(21,12,33)"
						/><path d="M 0,5.7375 
						q 1.3625 1.5375 1.1375,0.9375 q 1.5375 2.4 0.0625,1.875 q -0.2 1.65 -0.625,0.9375 q 1.90625 0.3625 -0.575,1 
						M 0,5.7375 
						q -1.3625 1.5375 -1.1375,0.9375 q -1.5375 2.4 -0.0625,1.875 q 0.2 1.65 0.625,0.9375 q -1.90625 0.3625 0.575,1 " 
						transform="rotate(81 0,5.7375 )"
						stroke-width ="0.1"
						fill="rgb(3.5,0,32.5)"
						/></g><g id="flower6" transform="skewX(7) skewY(7)">
						<path d="M 0,0
						Q -0.89,2.25 0,6.885"
						stroke="rgb(135,93,59)" 
						fill="transparent"
						stroke-width ="0.3" /><path d="M 0,6.885 
						q 1.635 1.845 1.325,1.125 q 1.845 2.88 0.075,2.25 q -0.24 1.98 -0.75,1.125 q 2.2875 0.435 -0.65,1 
						M 0,6.885 
						q -1.635 1.845 -1.325,1.125 q -1.845 2.88 -0.075,2.25 q 0.24 1.98 0.75,1.125 q -2.2875 0.435 0.65,1 " 
						transform="rotate(0 0,6.885 )"
						stroke-width ="0.1"
						fill="rgb(19,15,24)"
						/><path d="M 0,6.885 
						q 1.635 1.845 1.325,1.125 q 1.845 2.88 0.075,2.25 q -0.24 1.98 -0.75,1.125 q 2.2875 0.435 -0.65,1 
						M 0,6.885 
						q -1.635 1.845 -1.325,1.125 q -1.845 2.88 -0.075,2.25 q 0.24 1.98 0.75,1.125 q -2.2875 0.435 0.65,1 " 
						transform="rotate(27 0,6.885 )"
						stroke-width ="0.1"
						fill="rgb(16.5,10.5,40.5)"
						/><path d="M 0,6.885 
						q 1.635 1.845 1.325,1.125 q 1.845 2.88 0.075,2.25 q -0.24 1.98 -0.75,1.125 q 2.2875 0.435 -0.65,1 
						M 0,6.885 
						q -1.635 1.845 -1.325,1.125 q -1.845 2.88 -0.075,2.25 q 0.24 1.98 0.75,1.125 q -2.2875 0.435 0.65,1 " 
						transform="rotate(54 0,6.885 )"
						stroke-width ="0.1"
						fill="rgb(22,0,19)"
						/><path d="M 0,6.885 
						q 1.635 1.845 1.325,1.125 q 1.845 2.88 0.075,2.25 q -0.24 1.98 -0.75,1.125 q 2.2875 0.435 -0.65,1 
						M 0,6.885 
						q -1.635 1.845 -1.325,1.125 q -1.845 2.88 -0.075,2.25 q 0.24 1.98 0.75,1.125 q -2.2875 0.435 0.65,1 " 
						transform="rotate(81 0,6.885 )"
						stroke-width ="0.1"
						fill="rgb(18.5,2.5,23.5)"
						/></g><g id="flower7" transform="skewX(6) skewY(6)">
						<path d="M 0,0
						Q 0.47,2.625 0,8.0325"
						stroke="rgb(135,93,59)" 
						fill="transparent"
						stroke-width ="0.3" /><path d="M 0,8.0325 
						q 1.9075 2.1525 1.5125,1.3125 q 2.1525 3.36 0.0875,2.625 q -0.28 2.31 -0.875,1.3125 q 2.66875 0.5075 -0.725,1 
						M 0,8.0325 
						q -1.9075 2.1525 -1.5125,1.3125 q -2.1525 3.36 -0.0875,2.625 q 0.28 2.31 0.875,1.3125 q -2.66875 0.5075 0.725,1 " 
						transform="rotate(0 0,8.0325 )"
						stroke-width ="0.1"
						fill="rgb(22,11,38)"
						/><circle cx="0" cy="8.0325" r="1.47" fill="rgb(193,124,27)"/><circle cx="-0.09" cy="8.1125" r="0.98" fill="rgb(201.5,140.5,27.5)"/><path d="M 0,8.0325 
						q 1.9075 2.1525 1.5125,1.3125 q 2.1525 3.36 0.0875,2.625 q -0.28 2.31 -0.875,1.3125 q 2.66875 0.5075 -0.725,1 
						M 0,8.0325 
						q -1.9075 2.1525 -1.5125,1.3125 q -2.1525 3.36 -0.0875,2.625 q 0.28 2.31 0.875,1.3125 q -2.66875 0.5075 0.725,1 " 
						transform="rotate(90 0,8.0325 )"
						stroke-width ="0.1"
						fill="rgb(13.5,0,21.5)"
						/><circle cx="0" cy="8.0325" r="1.47" fill="rgb(193,124,27)"/><circle cx="0.03" cy="8.0025" r="0.98" fill="rgb(201.5,140.5,27.5)"/><path d="M 0,8.0325 
						q 1.9075 2.1525 1.5125,1.3125 q 2.1525 3.36 0.0875,2.625 q -0.28 2.31 -0.875,1.3125 q 2.66875 0.5075 -0.725,1 
						M 0,8.0325 
						q -1.9075 2.1525 -1.5125,1.3125 q -2.1525 3.36 -0.0875,2.625 q 0.28 2.31 0.875,1.3125 q -2.66875 0.5075 0.725,1 " 
						transform="rotate(180 0,8.0325 )"
						stroke-width ="0.1"
						fill="rgb(7,10,35)"
						/><circle cx="0" cy="8.0325" r="1.47" fill="rgb(193,124,27)"/><circle cx="0.07" cy="7.9825" r="0.98" fill="rgb(201.5,140.5,27.5)"/><path d="M 0,8.0325 
						q 1.9075 2.1525 1.5125,1.3125 q 2.1525 3.36 0.0875,2.625 q -0.28 2.31 -0.875,1.3125 q 2.66875 0.5075 -0.725,1 
						M 0,8.0325 
						q -1.9075 2.1525 -1.5125,1.3125 q -2.1525 3.36 -0.0875,2.625 q 0.28 2.31 0.875,1.3125 q -2.66875 0.5075 0.725,1 " 
						transform="rotate(270 0,8.0325 )"
						stroke-width ="0.1"
						fill="rgb(11.5,8.5,20.5)"
						/><circle cx="0" cy="8.0325" r="1.47" fill="rgb(193,124,27)"/><circle cx="-0.06" cy="7.9425" r="0.98" fill="rgb(201.5,140.5,27.5)"/><path d="M 0,8.0325 
						q 1.9075 2.1525 1.5125,1.3125 q 2.1525 3.36 0.0875,2.625 q -0.28 2.31 -0.875,1.3125 q 2.66875 0.5075 -0.725,1 
						M 0,8.0325 
						q -1.9075 2.1525 -1.5125,1.3125 q -2.1525 3.36 -0.0875,2.625 q 0.28 2.31 0.875,1.3125 q -2.66875 0.5075 0.725,1 " 
						transform="rotate(360 0,8.0325 )"
						stroke-width ="0.1"
						fill="rgb(9,2,24)"
						/><circle cx="0" cy="8.0325" r="1.47" fill="rgb(193,124,27)"/><circle cx="-0.06" cy="8.0725" r="0.98" fill="rgb(201.5,140.5,27.5)"/><path d="M 0,8.0325 
						q 1.9075 2.1525 1.5125,1.3125 q 2.1525 3.36 0.0875,2.625 q -0.28 2.31 -0.875,1.3125 q 2.66875 0.5075 -0.725,1 
						M 0,8.0325 
						q -1.9075 2.1525 -1.5125,1.3125 q -2.1525 3.36 -0.0875,2.625 q 0.28 2.31 0.875,1.3125 q -2.66875 0.5075 0.725,1 " 
						transform="rotate(450 0,8.0325 )"
						stroke-width ="0.1"
						fill="rgb(15.5,2.5,23.5)"
						/><circle cx="0" cy="8.0325" r="1.47" fill="rgb(193,124,27)"/><circle cx="-0.09" cy="8.0725" r="0.98" fill="rgb(201.5,140.5,27.5)"/><path d="M 0,8.0325 
						q 1.9075 2.1525 1.5125,1.3125 q 2.1525 3.36 0.0875,2.625 q -0.28 2.31 -0.875,1.3125 q 2.66875 0.5075 -0.725,1 
						M 0,8.0325 
						q -1.9075 2.1525 -1.5125,1.3125 q -2.1525 3.36 -0.0875,2.625 q 0.28 2.31 0.875,1.3125 q -2.66875 0.5075 0.725,1 " 
						transform="rotate(540 0,8.0325 )"
						stroke-width ="0.1"
						fill="rgb(5,0,15)"
						/><circle cx="0" cy="8.0325" r="1.47" fill="rgb(193,124,27)"/><circle cx="-0.03" cy="7.9925" r="0.98" fill="rgb(201.5,140.5,27.5)"/><path d="M 0,8.0325 
						q 1.9075 2.1525 1.5125,1.3125 q 2.1525 3.36 0.0875,2.625 q -0.28 2.31 -0.875,1.3125 q 2.66875 0.5075 -0.725,1 
						M 0,8.0325 
						q -1.9075 2.1525 -1.5125,1.3125 q -2.1525 3.36 -0.0875,2.625 q 0.28 2.31 0.875,1.3125 q -2.66875 0.5075 0.725,1 " 
						transform="rotate(630 0,8.0325 )"
						stroke-width ="0.1"
						fill="rgb(0,0,6.5)"
						/><circle cx="0" cy="8.0325" r="1.47" fill="rgb(193,124,27)"/><circle cx="0.09" cy="8.0925" r="0.98" fill="rgb(201.5,140.5,27.5)"/><path d="M 0,8.0325 
						q 1.9075 2.1525 1.5125,1.3125 q 2.1525 3.36 0.0875,2.625 q -0.28 2.31 -0.875,1.3125 q 2.66875 0.5075 -0.725,1 
						M 0,8.0325 
						q -1.9075 2.1525 -1.5125,1.3125 q -2.1525 3.36 -0.0875,2.625 q 0.28 2.31 0.875,1.3125 q -2.66875 0.5075 0.725,1 " 
						transform="rotate(720 0,8.0325 )"
						stroke-width ="0.1"
						fill="rgb(0,0,8)"
						/><circle cx="0" cy="8.0325" r="1.47" fill="rgb(193,124,27)"/><circle cx="-0.03" cy="8.1325" r="0.98" fill="rgb(201.5,140.5,27.5)"/><path d="M 0,8.0325 
						q 1.9075 2.1525 1.5125,1.3125 q 2.1525 3.36 0.0875,2.625 q -0.28 2.31 -0.875,1.3125 q 2.66875 0.5075 -0.725,1 
						M 0,8.0325 
						q -1.9075 2.1525 -1.5125,1.3125 q -2.1525 3.36 -0.0875,2.625 q 0.28 2.31 0.875,1.3125 q -2.66875 0.5075 0.725,1 " 
						transform="rotate(810 0,8.0325 )"
						stroke-width ="0.1"
						fill="rgb(3.5,0,17.5)"
						/><circle cx="0" cy="8.0325" r="1.47" fill="rgb(193,124,27)"/><circle cx="-0.05" cy="8.0525" r="0.98" fill="rgb(201.5,140.5,27.5)"/><path d="M 0,8.0325 
						q 1.9075 2.1525 1.5125,1.3125 q 2.1525 3.36 0.0875,2.625 q -0.28 2.31 -0.875,1.3125 q 2.66875 0.5075 -0.725,1 
						M 0,8.0325 
						q -1.9075 2.1525 -1.5125,1.3125 q -2.1525 3.36 -0.0875,2.625 q 0.28 2.31 0.875,1.3125 q -2.66875 0.5075 0.725,1 " 
						transform="rotate(900 0,8.0325 )"
						stroke-width ="0.1"
						fill="rgb(0,0,5)"
						/><circle cx="0" cy="8.0325" r="1.47" fill="rgb(193,124,27)"/><circle cx="-0.07" cy="7.9525" r="0.98" fill="rgb(201.5,140.5,27.5)"/><path d="M 0,8.0325 
						q 1.9075 2.1525 1.5125,1.3125 q 2.1525 3.36 0.0875,2.625 q -0.28 2.31 -0.875,1.3125 q 2.66875 0.5075 -0.725,1 
						M 0,8.0325 
						q -1.9075 2.1525 -1.5125,1.3125 q -2.1525 3.36 -0.0875,2.625 q 0.28 2.31 0.875,1.3125 q -2.66875 0.5075 0.725,1 " 
						transform="rotate(990 0,8.0325 )"
						stroke-width ="0.1"
						fill="rgb(0,0,10.5)"
						/><circle cx="0" cy="8.0325" r="1.47" fill="rgb(193,124,27)"/><circle cx="0" cy="7.9925" r="0.98" fill="rgb(201.5,140.5,27.5)"/><path d="M 0,8.0325 
						q 1.9075 2.1525 1.5125,1.3125 q 2.1525 3.36 0.0875,2.625 q -0.28 2.31 -0.875,1.3125 q 2.66875 0.5075 -0.725,1 
						M 0,8.0325 
						q -1.9075 2.1525 -1.5125,1.3125 q -2.1525 3.36 -0.0875,2.625 q 0.28 2.31 0.875,1.3125 q -2.66875 0.5075 0.725,1 " 
						transform="rotate(1080 0,8.0325 )"
						stroke-width ="0.1"
						fill="rgb(0,0,12)"
						/><circle cx="0" cy="8.0325" r="1.47" fill="rgb(193,124,27)"/><circle cx="0.09" cy="7.9325" r="0.98" fill="rgb(201.5,140.5,27.5)"/></g><g id="flower8" transform="skewX(1) skewY(1)">
						<path d="M 0,0
						Q 1.12,3 0,9.18"
						stroke="rgb(135,93,59)" 
						fill="transparent"
						stroke-width ="0.3" /><path d="M 0,9.18 
						q 2.18 2.46 1.7,1.5 q 2.46 3.84 0.1,3 q -0.32 2.64 -1,1.5 q 3.05 0.58 -0.8,1 
						M 0,9.18 
						q -2.18 2.46 -1.7,1.5 q -2.46 3.84 -0.1,3 q 0.32 2.64 1,1.5 q -3.05 0.58 0.8,1 " 
						transform="rotate(0 0,9.18 )"
						stroke-width ="0.1"
						fill="rgb(25,15,27)"
						/><path d="M 0,9.18 
						q 2.18 2.46 1.7,1.5 q 2.46 3.84 0.1,3 q -0.32 2.64 -1,1.5 q 3.05 0.58 -0.8,1 
						M 0,9.18 
						q -2.18 2.46 -1.7,1.5 q -2.46 3.84 -0.1,3 q 0.32 2.64 1,1.5 q -3.05 0.58 0.8,1 " 
						transform="rotate(27 0,9.18 )"
						stroke-width ="0.1"
						fill="rgb(9.5,8.5,38.5)"
						/><path d="M 0,9.18 
						q 2.18 2.46 1.7,1.5 q 2.46 3.84 0.1,3 q -0.32 2.64 -1,1.5 q 3.05 0.58 -0.8,1 
						M 0,9.18 
						q -2.18 2.46 -1.7,1.5 q -2.46 3.84 -0.1,3 q 0.32 2.64 1,1.5 q -3.05 0.58 0.8,1 " 
						transform="rotate(54 0,9.18 )"
						stroke-width ="0.1"
						fill="rgb(20,13,34)"
						/><path d="M 0,9.18 
						q 2.18 2.46 1.7,1.5 q 2.46 3.84 0.1,3 q -0.32 2.64 -1,1.5 q 3.05 0.58 -0.8,1 
						M 0,9.18 
						q -2.18 2.46 -1.7,1.5 q -2.46 3.84 -0.1,3 q 0.32 2.64 1,1.5 q -3.05 0.58 0.8,1 " 
						transform="rotate(81 0,9.18 )"
						stroke-width ="0.1"
						fill="rgb(17.5,3.5,35.5)"
						/></g></defs>
				<g class="fullPlant">
					<g>
					<path d ="M 48,91 
					a 81 405 12.1 0 0 -1.932,-16.728" fill ="none" stroke ="rgb(128.5,95.5,61.5)" stroke-width ="4.122"/></g><circle cx="46.068" cy="74.272" r="1.0305" stroke="rgb(133.5,100.5,66.5)" fill="rgb(128.5,95.5,61.5)"/><use xlink:href="#leaf3"
						x="46.068" y="74.272" 
						transform="rotate(73 46.208 75.082)" 	
						fill="rgb(191,79,98)" /><use xlink:href="#leaf1"
						x="46.068" y="74.272" 
						transform="rotate(-98 46.578 74.842)" 	
						fill="rgb(192,55,83)" /><use xlink:href="#leaf1"
						x="46.068" y="74.272" 
						transform="rotate(14 47.018 74.722)" 	
						fill="rgb(181,90,85)" /><use xlink:href="#leaf2"
						x="46.068" y="74.272" 
						transform="rotate(-154 46.288 74.452)" 	
						fill="rgb(207,60,89)" /><use xlink:href="#leaf2"
						x="46.068" y="74.272" 
						transform="rotate(0 46.068 74.272)" 	
						fill="rgb(198,78,103)" /><use xlink:href="#leaf3"
						x="46.068" y="74.272" 
						transform="rotate(138 46.068 74.272)" 	
						fill="rgb(186,62,108)" />
					<g>
					<path d ="M 46.068,74.272 
					a 100 100 9.77 0 0 8.832,1.464" fill ="none" stroke ="rgb(131.5,94.5,60.5)" stroke-width ="2.061"/></g><circle cx="54.9" cy="75.736" r="0.51525" stroke="rgb(136.5,99.5,65.5)" fill="rgb(131.5,94.5,60.5)"/><use xlink:href="#leaf1"
						x="54.9" y="75.736" 
						transform="rotate(-77 54.9 75.736)" 	
						fill="rgb(188,77,83)" /><use xlink:href="#leaf1"
						x="54.9" y="75.736" 
						transform="rotate(94 54.9 75.736)" 	
						fill="rgb(204,55,90)" /><use xlink:href="#leaf2"
						x="54.9" y="75.736" 
						transform="rotate(74 55.2 76.346)" 	
						fill="rgb(186,64,95)" /><use xlink:href="#leaf3"
						x="54.9" y="75.736" 
						transform="rotate(-142 55.16 76.056)" 	
						fill="rgb(177,72,84)" /><use xlink:href="#leaf4"
						x="54.9" y="75.736" 
						transform="rotate(27 54.9 75.736)" 	
						fill="rgb(180,65,74)" /><use xlink:href="#leaf3"
						x="54.9" y="75.736" 
						transform="rotate(41 55.39 75.846)" 	
						fill="rgb(212,85,107)" /><use xlink:href="#leaf2"
						x="54.9" y="75.736" 
						transform="rotate(17 54.9 75.736)" 	
						fill="rgb(199,81,93)" /><use xlink:href="#leaf4"
						x="54.9" y="75.736" 
						transform="rotate(143 55.38 76.566)" 	
						fill="rgb(208,88,72)" /><use xlink:href="#leaf4"
						x="54.9" y="75.736" 
						transform="rotate(-103 55.21 76.136)" 	
						fill="rgb(193,79,80)" /><use xlink:href="#flower4" id="fleur10"
							x="54.9" y="75.736" 
							transform="rotate(-65 55.536 76)" /><use xlink:href="#flower4" id="fleur11"
							x="54.9" y="75.736" 
							transform="rotate(135 54.9 75.736)" /><use xlink:href="#flower4" id="fleur12"
							x="54.9" y="75.736" 
							transform="rotate(-3 56.052 76.012)" /><use xlink:href="#flower4" id="fleur13"
							x="54.9" y="75.736" 
							transform="rotate(71 54.9 75.736)" />
					<g>
					<path d ="M 46.068,74.272 
					a 86 86 -3.38 0 1 10.044,-1.452" fill ="none" stroke ="rgb(131.5,94.5,61.5)" stroke-width ="2.061"/></g><circle cx="56.112" cy="72.82" r="0.51525" stroke="rgb(136.5,99.5,66.5)" fill="rgb(131.5,94.5,61.5)"/><use xlink:href="#leaf2"
						x="56.112" y="72.82" 
						transform="rotate(-113 56.112 72.82)" 	
						fill="rgb(182,88,110)" /><use xlink:href="#leaf1"
						x="56.112" y="72.82" 
						transform="rotate(-167 56.112 72.82)" 	
						fill="rgb(175,88,75)" /><use xlink:href="#leaf1"
						x="56.112" y="72.82" 
						transform="rotate(-158 56.112 72.82)" 	
						fill="rgb(173,77,110)" /><use xlink:href="#leaf1"
						x="56.112" y="72.82" 
						transform="rotate(0 56.112 72.82)" 	
						fill="rgb(187,65,94)" /><use xlink:href="#leaf3"
						x="56.112" y="72.82" 
						transform="rotate(-82 56.952 73.5)" 	
						fill="rgb(175,61,75)" /><use xlink:href="#leaf4"
						x="56.112" y="72.82" 
						transform="rotate(179 56.112 72.82)" 	
						fill="rgb(189,52,99)" /><use xlink:href="#leaf4"
						x="56.112" y="72.82" 
						transform="rotate(-174 56.962 72.98)" 	
						fill="rgb(204,86,95)" /><use xlink:href="#leaf1"
						x="56.112" y="72.82" 
						transform="rotate(39 56.122 72.87)" 	
						fill="rgb(193,91,81)" /><use xlink:href="#leaf2"
						x="56.112" y="72.82" 
						transform="rotate(177 56.112 72.82)" 	
						fill="rgb(179,73,87)" /><use xlink:href="#flower2" id="fleur20"
							x="56.112" y="72.82" 
							transform="rotate(11 56.112 72.82)" /><use xlink:href="#flower2" id="fleur21"
							x="56.112" y="72.82" 
							transform="rotate(-93 56.112 72.82)" /><use xlink:href="#flower2" id="fleur22"
							x="56.112" y="72.82" 
							transform="rotate(-179 56.112 72.82)" /><use xlink:href="#flower2" id="fleur23"
							x="56.112" y="72.82" 
							transform="rotate(-10 56.112 72.82)" />
					<g>
					<path d ="M 46.068,74.272 
					a 66 660 12.18 0 0 -7.86,1.416" fill ="none" stroke ="rgb(130.5,95.5,63.5)" stroke-width ="2.061"/></g><circle cx="38.208" cy="75.688" r="0.51525" stroke="rgb(135.5,100.5,68.5)" fill="rgb(130.5,95.5,63.5)"/><use xlink:href="#leaf1"
						x="38.208" y="75.688" 
						transform="rotate(42 38.208 75.688)" 	
						fill="rgb(199,58,90)" /><use xlink:href="#leaf4"
						x="38.208" y="75.688" 
						transform="rotate(-140 38.208 75.688)" 	
						fill="rgb(187,66,103)" /><use xlink:href="#leaf3"
						x="38.208" y="75.688" 
						transform="rotate(-52 38.208 75.688)" 	
						fill="rgb(181,54,83)" /><use xlink:href="#leaf1"
						x="38.208" y="75.688" 
						transform="rotate(4 38.208 75.688)" 	
						fill="rgb(196,71,89)" /><use xlink:href="#leaf2"
						x="38.208" y="75.688" 
						transform="rotate(58 38.208 75.688)" 	
						fill="rgb(181,71,76)" /><use xlink:href="#leaf2"
						x="38.208" y="75.688" 
						transform="rotate(-35 39.098 76.618)" 	
						fill="rgb(203,76,110)" /><use xlink:href="#leaf1"
						x="38.208" y="75.688" 
						transform="rotate(-118 38.208 75.688)" 	
						fill="rgb(212,66,108)" /><use xlink:href="#leaf1"
						x="38.208" y="75.688" 
						transform="rotate(108 39.108 76.628)" 	
						fill="rgb(191,57,80)" /><use xlink:href="#leaf1"
						x="38.208" y="75.688" 
						transform="rotate(-82 38.208 75.688)" 	
						fill="rgb(212,60,107)" /><use xlink:href="#flower1" id="fleur30"
							x="38.208" y="75.688" 
							transform="rotate(-141 38.208 75.688)" />
					<g>
					<path d ="M 46.068,74.272 
					a 77 154 15.73 0 1 5.748,-6.42" fill ="none" stroke ="rgb(129.5,94.5,66.5)" stroke-width ="2.061"/></g><circle cx="51.816" cy="67.852" r="0.51525" stroke="rgb(134.5,99.5,71.5)" fill="rgb(129.5,94.5,66.5)"/><use xlink:href="#leaf2"
						x="51.816" y="67.852" 
						transform="rotate(-12 51.816 67.852)" 	
						fill="rgb(206,66,103)" /><use xlink:href="#leaf1"
						x="51.816" y="67.852" 
						transform="rotate(-73 51.816 67.852)" 	
						fill="rgb(212,72,102)" /><use xlink:href="#leaf4"
						x="51.816" y="67.852" 
						transform="rotate(136 51.816 67.852)" 	
						fill="rgb(178,83,107)" /><use xlink:href="#leaf3"
						x="51.816" y="67.852" 
						transform="rotate(-92 51.816 67.852)" 	
						fill="rgb(200,67,105)" /><use xlink:href="#leaf1"
						x="51.816" y="67.852" 
						transform="rotate(-43 52.026 68.282)" 	
						fill="rgb(194,69,80)" /><use xlink:href="#flower1" id="fleur40"
							x="51.816" y="67.852" 
							transform="rotate(162 51.816 67.852)" /><use xlink:href="#flower1" id="fleur41"
							x="51.816" y="67.852" 
							transform="rotate(47 52.08 68.68)" />
					<g>
					<path d ="M 51.816,67.852 
					a 64 320 -15.99 0 0 12.492,-7.92" fill ="none" stroke ="rgb(133,98,70)" stroke-width ="1.374"/></g><circle cx="64.308" cy="59.932" r="0.3435" stroke="rgb(138,103,75)" fill="rgb(133,98,70)"/><use xlink:href="#leaf1"
						x="64.308" y="59.932" 
						transform="rotate(28 65.138 60.232)" 	
						fill="rgb(178,53,90)" /><use xlink:href="#leaf2"
						x="64.308" y="59.932" 
						transform="rotate(34 64.878 60.342)" 	
						fill="rgb(199,60,105)" /><use xlink:href="#leaf3"
						x="64.308" y="59.932" 
						transform="rotate(111 65.048 60.252)" 	
						fill="rgb(194,82,78)" /><use xlink:href="#leaf5"
						x="64.308" y="59.932" 
						transform="rotate(85 64.638 60.162)" 	
						fill="rgb(200,90,95)" /><use xlink:href="#leaf5"
						x="64.308" y="59.932" 
						transform="rotate(11 64.308 59.932)" 	
						fill="rgb(174,74,77)" /><use xlink:href="#leaf2"
						x="64.308" y="59.932" 
						transform="rotate(102 64.898 60.882)" 	
						fill="rgb(193,59,101)" /><use xlink:href="#leaf5"
						x="64.308" y="59.932" 
						transform="rotate(48 65.278 60.762)" 	
						fill="rgb(204,84,110)" /><use xlink:href="#leaf4"
						x="64.308" y="59.932" 
						transform="rotate(34 64.308 59.932)" 	
						fill="rgb(173,66,101)" /><use xlink:href="#leaf3"
						x="64.308" y="59.932" 
						transform="rotate(-174 64.308 59.932)" 	
						fill="rgb(182,83,83)" /><use xlink:href="#leaf2"
						x="64.308" y="59.932" 
						transform="rotate(59 64.308 59.932)" 	
						fill="rgb(206,67,98)" /><use xlink:href="#leaf5"
						x="64.308" y="59.932" 
						transform="rotate(15 64.538 59.942)" 	
						fill="rgb(178,51,94)" /><use xlink:href="#flower5" id="fleur50"
							x="64.308" y="59.932" 
							transform="rotate(-63 64.308 59.932)" />
					<g>
					<path d ="M 51.816,67.852 
					a 72 504 -7.4 0 0 10.5,-6.24" fill ="none" stroke ="rgb(134.5,99.5,70.5)" stroke-width ="1.374"/></g><circle cx="62.316" cy="61.612" r="0.3435" stroke="rgb(139.5,104.5,75.5)" fill="rgb(134.5,99.5,70.5)"/><use xlink:href="#leaf1"
						x="62.316" y="61.612" 
						transform="rotate(-41 62.476 61.632)" 	
						fill="rgb(191,57,101)" /><use xlink:href="#leaf2"
						x="62.316" y="61.612" 
						transform="rotate(102 62.316 61.612)" 	
						fill="rgb(204,75,89)" /><use xlink:href="#leaf4"
						x="62.316" y="61.612" 
						transform="rotate(-22 62.316 61.612)" 	
						fill="rgb(201,59,94)" /><use xlink:href="#leaf4"
						x="62.316" y="61.612" 
						transform="rotate(-30 62.316 61.612)" 	
						fill="rgb(199,61,76)" /><use xlink:href="#leaf3"
						x="62.316" y="61.612" 
						transform="rotate(-141 62.316 61.612)" 	
						fill="rgb(199,85,104)" /><use xlink:href="#leaf1"
						x="62.316" y="61.612" 
						transform="rotate(85 62.316 61.612)" 	
						fill="rgb(176,82,70)" /><use xlink:href="#leaf4"
						x="62.316" y="61.612" 
						transform="rotate(42 62.496 62.442)" 	
						fill="rgb(199,52,81)" /><use xlink:href="#leaf2"
						x="62.316" y="61.612" 
						transform="rotate(35 62.426 61.802)" 	
						fill="rgb(179,77,86)" /><use xlink:href="#leaf3"
						x="62.316" y="61.612" 
						transform="rotate(-110 62.316 61.612)" 	
						fill="rgb(182,70,89)" /><use xlink:href="#leaf1"
						x="62.316" y="61.612" 
						transform="rotate(167 62.866 62.492)" 	
						fill="rgb(207,87,76)" /><use xlink:href="#leaf4"
						x="62.316" y="61.612" 
						transform="rotate(-56 62.316 61.612)" 	
						fill="rgb(207,67,97)" /><use xlink:href="#leaf5"
						x="62.316" y="61.612" 
						transform="rotate(138 62.316 61.612)" 	
						fill="rgb(191,73,89)" /><use xlink:href="#leaf1"
						x="62.316" y="61.612" 
						transform="rotate(-9 62.316 61.612)" 	
						fill="rgb(182,85,73)" /><use xlink:href="#leaf5"
						x="62.316" y="61.612" 
						transform="rotate(107 62.836 61.822)" 	
						fill="rgb(201,87,82)" /><use xlink:href="#leaf1"
						x="62.316" y="61.612" 
						transform="rotate(29 62.656 61.702)" 	
						fill="rgb(196,71,106)" /><use xlink:href="#leaf4"
						x="62.316" y="61.612" 
						transform="rotate(179 63.196 61.782)" 	
						fill="rgb(199,76,103)" /><use xlink:href="#flower4" id="fleur60"
							x="62.316" y="61.612" 
							transform="rotate(4 62.316 61.612)" />
					<g>
					<path d ="M 51.816,67.852 
					a 96 864 -14.94 0 0 -9.468,-10.176" fill ="none" stroke ="rgb(136,99,74)" stroke-width ="1.374"/></g><circle cx="42.348" cy="57.676" r="0.3435" stroke="rgb(141,104,79)" fill="rgb(136,99,74)"/><use xlink:href="#leaf3"
						x="42.348" y="57.676" 
						transform="rotate(-137 42.348 57.676)" 	
						fill="rgb(181,54,96)" /><use xlink:href="#leaf3"
						x="42.348" y="57.676" 
						transform="rotate(-109 42.488 57.686)" 	
						fill="rgb(188,54,77)" /><use xlink:href="#leaf5"
						x="42.348" y="57.676" 
						transform="rotate(122 42.428 58.156)" 	
						fill="rgb(180,52,105)" /><use xlink:href="#leaf5"
						x="42.348" y="57.676" 
						transform="rotate(-7 42.348 57.676)" 	
						fill="rgb(174,84,92)" /><use xlink:href="#leaf1"
						x="42.348" y="57.676" 
						transform="rotate(136 42.348 57.676)" 	
						fill="rgb(205,62,71)" /><use xlink:href="#leaf4"
						x="42.348" y="57.676" 
						transform="rotate(-13 43.058 58.436)" 	
						fill="rgb(205,60,91)" /><use xlink:href="#leaf3"
						x="42.348" y="57.676" 
						transform="rotate(-122 42.978 58.616)" 	
						fill="rgb(197,66,78)" /><use xlink:href="#leaf4"
						x="42.348" y="57.676" 
						transform="rotate(-56 43.278 57.976)" 	
						fill="rgb(177,63,79)" /><use xlink:href="#leaf5"
						x="42.348" y="57.676" 
						transform="rotate(-31 42.938 57.916)" 	
						fill="rgb(182,77,103)" /><use xlink:href="#leaf3"
						x="42.348" y="57.676" 
						transform="rotate(107 42.408 57.806)" 	
						fill="rgb(180,71,104)" /><use xlink:href="#leaf1"
						x="42.348" y="57.676" 
						transform="rotate(31 42.348 57.676)" 	
						fill="rgb(184,82,105)" /><use xlink:href="#leaf1"
						x="42.348" y="57.676" 
						transform="rotate(-9 42.348 57.676)" 	
						fill="rgb(185,91,82)" /><use xlink:href="#leaf2"
						x="42.348" y="57.676" 
						transform="rotate(-118 42.348 57.676)" 	
						fill="rgb(185,91,87)" /><use xlink:href="#leaf2"
						x="42.348" y="57.676" 
						transform="rotate(-25 43.238 58.616)" 	
						fill="rgb(184,58,98)" /><use xlink:href="#leaf4"
						x="42.348" y="57.676" 
						transform="rotate(-83 42.348 57.676)" 	
						fill="rgb(201,55,109)" /><use xlink:href="#leaf5"
						x="42.348" y="57.676" 
						transform="rotate(158 43.278 58.486)" 	
						fill="rgb(187,81,110)" /><use xlink:href="#flower5" id="fleur70"
							x="42.348" y="57.676" 
							transform="rotate(178 43.2 58.42)" /><use xlink:href="#flower5" id="fleur71"
							x="42.348" y="57.676" 
							transform="rotate(86 43.5 58.276)" /><use xlink:href="#flower5" id="fleur72"
							x="42.348" y="57.676" 
							transform="rotate(92 43.032 58.48)" /><use xlink:href="#flower5" id="fleur73"
							x="42.348" y="57.676" 
							transform="rotate(129 42.348 57.676)" /><use xlink:href="#flower5" id="fleur74"
							x="42.348" y="57.676" 
							transform="rotate(-115 42.348 57.676)" />
					<g>
					<path d ="M 51.816,67.852 
					a 74 666 20.97 0 0 -9.348,-6.984" fill ="none" stroke ="rgb(137.5,102.5,75.5)" stroke-width ="1.374"/></g><circle cx="42.468" cy="60.868" r="0.3435" stroke="rgb(142.5,107.5,80.5)" fill="rgb(137.5,102.5,75.5)"/><use xlink:href="#leaf2"
						x="42.468" y="60.868" 
						transform="rotate(14 42.468 60.868)" 	
						fill="rgb(205,54,100)" /><use xlink:href="#leaf1"
						x="42.468" y="60.868" 
						transform="rotate(-61 43.308 61.028)" 	
						fill="rgb(173,76,92)" /><use xlink:href="#leaf5"
						x="42.468" y="60.868" 
						transform="rotate(2 43.288 60.908)" 	
						fill="rgb(180,72,104)" /><use xlink:href="#leaf3"
						x="42.468" y="60.868" 
						transform="rotate(135 42.468 60.868)" 	
						fill="rgb(172,54,97)" /><use xlink:href="#leaf3"
						x="42.468" y="60.868" 
						transform="rotate(83 43.088 60.958)" 	
						fill="rgb(191,56,73)" /><use xlink:href="#flower3" id="fleur80"
							x="42.468" y="60.868" 
							transform="rotate(-79 42.468 60.868)" />
					<g>
					<path d ="M 42.468,60.868 
					a 56 448 -20.10 0 1 12.528,1.668" fill ="none" stroke ="rgb(137.5,103.5,75.5)" stroke-width ="1.0305"/></g><circle cx="54.996" cy="62.536" r="0.257625" stroke="rgb(142.5,108.5,80.5)" fill="rgb(137.5,103.5,75.5)"/><use xlink:href="#leaf2"
						x="54.996" y="62.536" 
						transform="rotate(112 54.996 62.536)" 	
						fill="rgb(204,64,80)" /><use xlink:href="#leaf4"
						x="54.996" y="62.536" 
						transform="rotate(-160 55.936 63.246)" 	
						fill="rgb(192,51,105)" /><use xlink:href="#leaf2"
						x="54.996" y="62.536" 
						transform="rotate(149 54.996 62.536)" 	
						fill="rgb(186,81,94)" /><use xlink:href="#leaf5"
						x="54.996" y="62.536" 
						transform="rotate(80 55.386 63.186)" 	
						fill="rgb(190,86,99)" /><use xlink:href="#leaf3"
						x="54.996" y="62.536" 
						transform="rotate(57 55.176 62.576)" 	
						fill="rgb(182,69,73)" /><use xlink:href="#leaf3"
						x="54.996" y="62.536" 
						transform="rotate(9 54.996 62.536)" 	
						fill="rgb(204,60,99)" /><use xlink:href="#leaf5"
						x="54.996" y="62.536" 
						transform="rotate(64 54.996 62.536)" 	
						fill="rgb(193,69,87)" /><use xlink:href="#leaf6"
						x="54.996" y="62.536" 
						transform="rotate(-155 54.996 62.536)" 	
						fill="rgb(185,69,91)" /><use xlink:href="#leaf2"
						x="54.996" y="62.536" 
						transform="rotate(-139 54.996 62.536)" 	
						fill="rgb(199,64,84)" /><use xlink:href="#flower2" id="fleur90"
							x="54.996" y="62.536" 
							transform="rotate(-45 54.996 62.536)" /><use xlink:href="#flower2" id="fleur91"
							x="54.996" y="62.536" 
							transform="rotate(78 55.272 63.16)" /><use xlink:href="#flower2" id="fleur92"
							x="54.996" y="62.536" 
							transform="rotate(-84 55.56 63.16)" /><use xlink:href="#flower2" id="fleur93"
							x="54.996" y="62.536" 
							transform="rotate(-45 54.996 62.536)" /><use xlink:href="#flower2" id="fleur94"
							x="54.996" y="62.536" 
							transform="rotate(18 56.1 63.268)" /><use xlink:href="#flower2" id="fleur95"
							x="54.996" y="62.536" 
							transform="rotate(153 54.996 62.536)" /><use xlink:href="#flower2" id="fleur96"
							x="54.996" y="62.536" 
							transform="rotate(-156 54.996 62.536)" />
					<g>
					<path d ="M 38.208,75.688 
					a 77 231 0.61 0 1 -6.696,3.972" fill ="none" stroke ="rgb(139,104,78)" stroke-width ="1.374"/></g><circle cx="31.512" cy="79.66" r="0.3435" stroke="rgb(144,109,83)" fill="rgb(139,104,78)"/><use xlink:href="#leaf2"
						x="31.512" y="79.66" 
						transform="rotate(50 31.892 80.12)" 	
						fill="rgb(193,86,80)" /><use xlink:href="#leaf5"
						x="31.512" y="79.66" 
						transform="rotate(-93 31.512 79.66)" 	
						fill="rgb(182,70,110)" /><use xlink:href="#leaf2"
						x="31.512" y="79.66" 
						transform="rotate(87 31.512 79.66)" 	
						fill="rgb(179,62,80)" /><use xlink:href="#leaf4"
						x="31.512" y="79.66" 
						transform="rotate(-133 31.512 79.66)" 	
						fill="rgb(183,84,90)" /><use xlink:href="#leaf1"
						x="31.512" y="79.66" 
						transform="rotate(174 31.512 79.66)" 	
						fill="rgb(184,55,87)" /><use xlink:href="#leaf5"
						x="31.512" y="79.66" 
						transform="rotate(-167 31.512 79.66)" 	
						fill="rgb(210,57,102)" /><use xlink:href="#leaf5"
						x="31.512" y="79.66" 
						transform="rotate(-107 32.452 80.59)" 	
						fill="rgb(212,53,72)" /><use xlink:href="#leaf2"
						x="31.512" y="79.66" 
						transform="rotate(80 32.282 80.54)" 	
						fill="rgb(175,63,103)" /><use xlink:href="#leaf1"
						x="31.512" y="79.66" 
						transform="rotate(16 31.512 79.66)" 	
						fill="rgb(196,59,70)" /><use xlink:href="#leaf2"
						x="31.512" y="79.66" 
						transform="rotate(174 31.512 79.66)" 	
						fill="rgb(198,55,97)" /><use xlink:href="#flower2" id="fleur100"
							x="31.512" y="79.66" 
							transform="rotate(141 31.512 79.66)" /><use xlink:href="#flower2" id="fleur101"
							x="31.512" y="79.66" 
							transform="rotate(-67 31.512 79.66)" /><use xlink:href="#flower2" id="fleur102"
							x="31.512" y="79.66" 
							transform="rotate(-176 31.848 80.308)" /><use xlink:href="#flower2" id="fleur103"
							x="31.512" y="79.66" 
							transform="rotate(54 31.512 79.66)" /><use xlink:href="#flower2" id="fleur104"
							x="31.512" y="79.66" 
							transform="rotate(125 31.512 79.66)" />
					<g>
					<path d ="M 38.208,75.688 
					a 55 385 -16.76 0 0 3.408,-9.588" fill ="none" stroke ="rgb(141.5,105.5,78.5)" stroke-width ="1.374"/></g><circle cx="41.616" cy="66.1" r="0.3435" stroke="rgb(146.5,110.5,83.5)" fill="rgb(141.5,105.5,78.5)"/><use xlink:href="#leaf1"
						x="41.616" y="66.1" 
						transform="rotate(77 41.616 66.1)" 	
						fill="rgb(179,71,97)" /><use xlink:href="#leaf3"
						x="41.616" y="66.1" 
						transform="rotate(146 41.616 66.1)" 	
						fill="rgb(196,73,90)" /><use xlink:href="#leaf3"
						x="41.616" y="66.1" 
						transform="rotate(-65 42.386 66.21)" 	
						fill="rgb(180,56,78)" /><use xlink:href="#leaf2"
						x="41.616" y="66.1" 
						transform="rotate(-125 41.906 66.99)" 	
						fill="rgb(192,80,71)" /><use xlink:href="#leaf1"
						x="41.616" y="66.1" 
						transform="rotate(141 41.616 66.1)" 	
						fill="rgb(180,55,104)" /><use xlink:href="#leaf2"
						x="41.616" y="66.1" 
						transform="rotate(-45 41.976 66.32)" 	
						fill="rgb(212,55,74)" /><use xlink:href="#leaf5"
						x="41.616" y="66.1" 
						transform="rotate(7 41.616 66.1)" 	
						fill="rgb(196,59,98)" /><use xlink:href="#leaf5"
						x="41.616" y="66.1" 
						transform="rotate(165 41.616 66.1)" 	
						fill="rgb(185,59,88)" /><use xlink:href="#leaf1"
						x="41.616" y="66.1" 
						transform="rotate(-53 42.076 66.6)" 	
						fill="rgb(211,88,96)" /><use xlink:href="#leaf5"
						x="41.616" y="66.1" 
						transform="rotate(-171 42.246 66.85)" 	
						fill="rgb(212,82,100)" /><use xlink:href="#leaf4"
						x="41.616" y="66.1" 
						transform="rotate(25 41.616 66.1)" 	
						fill="rgb(204,77,95)" /><use xlink:href="#leaf4"
						x="41.616" y="66.1" 
						transform="rotate(118 41.616 66.1)" 	
						fill="rgb(203,74,82)" /><use xlink:href="#flower4" id="fleur110"
							x="41.616" y="66.1" 
							transform="rotate(92 42.492 66.208)" /><use xlink:href="#flower4" id="fleur111"
							x="41.616" y="66.1" 
							transform="rotate(-161 41.628 67)" /><use xlink:href="#flower4" id="fleur112"
							x="41.616" y="66.1" 
							transform="rotate(29 41.616 66.1)" /><use xlink:href="#flower4" id="fleur113"
							x="41.616" y="66.1" 
							transform="rotate(-36 41.76 66.76)" />
					<g>
					<path d ="M 38.208,75.688 
					a 62 558 -16.84 0 0 10.62,4.128" fill ="none" stroke ="rgb(142,107,82)" stroke-width ="1.374"/></g><circle cx="48.828" cy="79.816" r="0.3435" stroke="rgb(147,112,87)" fill="rgb(142,107,82)"/><use xlink:href="#leaf1"
						x="48.828" y="79.816" 
						transform="rotate(77 49.588 80.606)" 	
						fill="rgb(192,62,100)" /><use xlink:href="#leaf2"
						x="48.828" y="79.816" 
						transform="rotate(-132 48.828 79.816)" 	
						fill="rgb(184,87,103)" /><use xlink:href="#leaf4"
						x="48.828" y="79.816" 
						transform="rotate(72 48.828 79.816)" 	
						fill="rgb(179,57,75)" /><use xlink:href="#leaf2"
						x="48.828" y="79.816" 
						transform="rotate(69 48.828 79.816)" 	
						fill="rgb(182,52,106)" /><use xlink:href="#leaf1"
						x="48.828" y="79.816" 
						transform="rotate(-163 48.828 79.816)" 	
						fill="rgb(203,87,75)" /><use xlink:href="#leaf5"
						x="48.828" y="79.816" 
						transform="rotate(-15 48.828 79.816)" 	
						fill="rgb(202,55,91)" /><use xlink:href="#flower5" id="fleur120"
							x="48.828" y="79.816" 
							transform="rotate(170 49.776 80.404)" /><use xlink:href="#flower5" id="fleur121"
							x="48.828" y="79.816" 
							transform="rotate(168 48.828 79.816)" /><use xlink:href="#flower5" id="fleur122"
							x="48.828" y="79.816" 
							transform="rotate(149 48.828 79.816)" /><use xlink:href="#flower5" id="fleur123"
							x="48.828" y="79.816" 
							transform="rotate(-141 48.828 79.816)" /><use xlink:href="#flower5" id="fleur124"
							x="48.828" y="79.816" 
							transform="rotate(-36 49.38 79.864)" />
					<g>
					<path d ="M 48.828,79.816 
					a 54 378 10.41 0 0 -11.388,-11.016" fill ="none" stroke ="rgb(143,108,85)" stroke-width ="1.0305"/></g><circle cx="37.44" cy="68.8" r="0.257625" stroke="rgb(148,113,90)" fill="rgb(143,108,85)"/><use xlink:href="#leaf3"
						x="37.44" y="68.8" 
						transform="rotate(-165 37.44 69.31)" 	
						fill="rgb(196,91,87)" /><use xlink:href="#leaf2"
						x="37.44" y="68.8" 
						transform="rotate(135 37.97 69.38)" 	
						fill="rgb(203,74,79)" /><use xlink:href="#leaf5"
						x="37.44" y="68.8" 
						transform="rotate(32 37.44 68.8)" 	
						fill="rgb(206,66,91)" /><use xlink:href="#leaf2"
						x="37.44" y="68.8" 
						transform="rotate(84 37.44 68.8)" 	
						fill="rgb(175,73,101)" /><use xlink:href="#leaf4"
						x="37.44" y="68.8" 
						transform="rotate(138 37.71 69.27)" 	
						fill="rgb(201,53,90)" /><use xlink:href="#leaf4"
						x="37.44" y="68.8" 
						transform="rotate(37 37.44 68.8)" 	
						fill="rgb(211,77,79)" />
					<g>
					<path d ="M 48.828,79.816 
					a 60 540 -13.53 0 1 2.724,-10.08" fill ="none" stroke ="rgb(147,110,86)" stroke-width ="1.0305"/></g><circle cx="51.552" cy="69.736" r="0.257625" stroke="rgb(152,115,91)" fill="rgb(147,110,86)"/><use xlink:href="#leaf6"
						x="51.552" y="69.736" 
						transform="rotate(159 51.552 69.736)" 	
						fill="rgb(173,67,81)" /><use xlink:href="#leaf2"
						x="51.552" y="69.736" 
						transform="rotate(-154 51.552 69.736)" 	
						fill="rgb(206,67,101)" /><use xlink:href="#leaf6"
						x="51.552" y="69.736" 
						transform="rotate(16 51.552 69.736)" 	
						fill="rgb(203,65,88)" /><use xlink:href="#leaf6"
						x="51.552" y="69.736" 
						transform="rotate(-129 52.002 69.876)" 	
						fill="rgb(197,88,73)" /><use xlink:href="#leaf6"
						x="51.552" y="69.736" 
						transform="rotate(59 51.552 69.736)" 	
						fill="rgb(194,55,82)" /><use xlink:href="#leaf5"
						x="51.552" y="69.736" 
						transform="rotate(-167 51.552 69.736)" 	
						fill="rgb(195,84,87)" /><use xlink:href="#leaf3"
						x="51.552" y="69.736" 
						transform="rotate(157 52.262 70.456)" 	
						fill="rgb(204,78,80)" /><use xlink:href="#leaf3"
						x="51.552" y="69.736" 
						transform="rotate(-53 51.552 69.736)" 	
						fill="rgb(178,68,82)" /><use xlink:href="#leaf2"
						x="51.552" y="69.736" 
						transform="rotate(165 51.682 69.886)" 	
						fill="rgb(175,82,75)" /><use xlink:href="#flower2" id="fleur140"
							x="51.552" y="69.736" 
							transform="rotate(-132 51.552 69.736)" /><use xlink:href="#flower2" id="fleur141"
							x="51.552" y="69.736" 
							transform="rotate(58 52.104 69.928)" /><use xlink:href="#flower2" id="fleur142"
							x="51.552" y="69.736" 
							transform="rotate(47 51.552 69.736)" /><use xlink:href="#flower2" id="fleur143"
							x="51.552" y="69.736" 
							transform="rotate(66 52.68 69.928)" /><use xlink:href="#flower2" id="fleur144"
							x="51.552" y="69.736" 
							transform="rotate(73 51.552 69.736)" /><use xlink:href="#flower2" id="fleur145"
							x="51.552" y="69.736" 
							transform="rotate(166 52.44 70.156)" /><use xlink:href="#flower2" id="fleur146"
							x="51.552" y="69.736" 
							transform="rotate(160 52.356 70.276)" />
					<g>
					<path d ="M 48.828,79.816 
					a 93 93 -4.38 0 1 -3.276,-1.512" fill ="none" stroke ="rgb(150,114,86)" stroke-width ="1.0305"/></g><circle cx="45.552" cy="78.304" r="0.257625" stroke="rgb(155,119,91)" fill="rgb(150,114,86)"/><use xlink:href="#leaf2"
						x="45.552" y="78.304" 
						transform="rotate(175 45.682 78.504)" 	
						fill="rgb(200,85,70)" /><use xlink:href="#leaf3"
						x="45.552" y="78.304" 
						transform="rotate(-99 45.552 78.304)" 	
						fill="rgb(195,69,72)" /><use xlink:href="#leaf5"
						x="45.552" y="78.304" 
						transform="rotate(160 45.692 78.804)" 	
						fill="rgb(176,69,93)" /><use xlink:href="#leaf5"
						x="45.552" y="78.304" 
						transform="rotate(-27 45.702 78.404)" 	
						fill="rgb(175,84,84)" /><use xlink:href="#leaf2"
						x="45.552" y="78.304" 
						transform="rotate(-133 45.552 78.304)" 	
						fill="rgb(175,76,98)" /><use xlink:href="#leaf6"
						x="45.552" y="78.304" 
						transform="rotate(-165 45.552 78.304)" 	
						fill="rgb(184,62,106)" /><use xlink:href="#leaf6"
						x="45.552" y="78.304" 
						transform="rotate(171 46.262 78.604)" 	
						fill="rgb(196,67,86)" /><use xlink:href="#leaf2"
						x="45.552" y="78.304" 
						transform="rotate(4 45.552 78.304)" 	
						fill="rgb(210,72,90)" /><use xlink:href="#leaf3"
						x="45.552" y="78.304" 
						transform="rotate(82 46.352 78.454)" 	
						fill="rgb(209,70,70)" /><use xlink:href="#leaf2"
						x="45.552" y="78.304" 
						transform="rotate(-8 45.552 78.304)" 	
						fill="rgb(181,57,80)" /><use xlink:href="#leaf5"
						x="45.552" y="78.304" 
						transform="rotate(-67 45.712 79.004)" 	
						fill="rgb(188,80,100)" /><use xlink:href="#leaf3"
						x="45.552" y="78.304" 
						transform="rotate(-9 45.552 78.304)" 	
						fill="rgb(191,86,103)" /><use xlink:href="#flower3" id="fleur150"
							x="45.552" y="78.304" 
							transform="rotate(-27 46.476 79.336)" />
					<g>
					<path d ="M 48.828,79.816 
					a 74 222 -4.84 0 0 2.16,-8.16" fill ="none" stroke ="rgb(150,115,89)" stroke-width ="1.0305"/></g><circle cx="50.988" cy="71.656" r="0.257625" stroke="rgb(155,120,94)" fill="rgb(150,115,89)"/><use xlink:href="#leaf3"
						x="50.988" y="71.656" 
						transform="rotate(-137 51.338 71.776)" 	
						fill="rgb(194,76,99)" /><use xlink:href="#leaf4"
						x="50.988" y="71.656" 
						transform="rotate(-168 51.418 72.146)" 	
						fill="rgb(185,80,103)" /><use xlink:href="#leaf3"
						x="50.988" y="71.656" 
						transform="rotate(41 51.778 71.856)" 	
						fill="rgb(184,56,103)" /><use xlink:href="#leaf4"
						x="50.988" y="71.656" 
						transform="rotate(143 51.568 71.696)" 	
						fill="rgb(182,85,70)" /><use xlink:href="#leaf2"
						x="50.988" y="71.656" 
						transform="rotate(75 51.568 71.946)" 	
						fill="rgb(195,71,76)" /><use xlink:href="#flower2" id="fleur160"
							x="50.988" y="71.656" 
							transform="rotate(-93 51.6 71.788)" /><use xlink:href="#flower2" id="fleur161"
							x="50.988" y="71.656" 
							transform="rotate(-116 52.116 72.424)" /><use xlink:href="#flower2" id="fleur162"
							x="50.988" y="71.656" 
							transform="rotate(13 51.396 72.04)" /><use xlink:href="#flower2" id="fleur163"
							x="50.988" y="71.656" 
							transform="rotate(8 51.372 72.208)" /><use xlink:href="#flower2" id="fleur164"
							x="50.988" y="71.656" 
							transform="rotate(-24 51.528 72.292)" /><use xlink:href="#flower2" id="fleur165"
							x="50.988" y="71.656" 
							transform="rotate(74 50.988 71.656)" />
					<g>
					<path d ="M 50.988,71.656 
					a 82 328 0.44 0 1 -8.52,-4.044" fill ="none" stroke ="rgb(152.5,116.5,89.5)" stroke-width ="0.8244"/></g><circle cx="42.468" cy="67.612" r="0.2061" stroke="rgb(157.5,121.5,94.5)" fill="rgb(152.5,116.5,89.5)"/><use xlink:href="#leaf4"
						x="42.468" y="67.612" 
						transform="rotate(35 42.468 67.612)" 	
						fill="rgb(196,73,101)" /><use xlink:href="#leaf5"
						x="42.468" y="67.612" 
						transform="rotate(86 43.228 68.502)" 	
						fill="rgb(203,57,105)" /><use xlink:href="#leaf7"
						x="42.468" y="67.612" 
						transform="rotate(-28 42.468 67.612)" 	
						fill="rgb(190,66,73)" /><use xlink:href="#leaf3"
						x="42.468" y="67.612" 
						transform="rotate(-102 42.468 67.612)" 	
						fill="rgb(212,73,96)" /><use xlink:href="#leaf3"
						x="42.468" y="67.612" 
						transform="rotate(117 42.468 67.612)" 	
						fill="rgb(204,65,72)" /><use xlink:href="#leaf3"
						x="42.468" y="67.612" 
						transform="rotate(129 42.468 67.612)" 	
						fill="rgb(202,59,80)" /><use xlink:href="#leaf3"
						x="42.468" y="67.612" 
						transform="rotate(-155 42.468 67.612)" 	
						fill="rgb(191,57,102)" /><use xlink:href="#leaf5"
						x="42.468" y="67.612" 
						transform="rotate(5 43.258 68.022)" 	
						fill="rgb(180,62,89)" /><use xlink:href="#leaf4"
						x="42.468" y="67.612" 
						transform="rotate(-3 42.558 68.192)" 	
						fill="rgb(201,56,91)" /><use xlink:href="#leaf5"
						x="42.468" y="67.612" 
						transform="rotate(39 43.068 68.052)" 	
						fill="rgb(189,71,79)" /><use xlink:href="#leaf7"
						x="42.468" y="67.612" 
						transform="rotate(85 43.408 68.182)" 	
						fill="rgb(191,64,106)" /><use xlink:href="#leaf4"
						x="42.468" y="67.612" 
						transform="rotate(-142 43.188 68.212)" 	
						fill="rgb(205,55,95)" /><use xlink:href="#leaf3"
						x="42.468" y="67.612" 
						transform="rotate(146 42.828 67.782)" 	
						fill="rgb(190,83,97)" /><use xlink:href="#leaf6"
						x="42.468" y="67.612" 
						transform="rotate(19 43.418 67.942)" 	
						fill="rgb(196,83,90)" /><use xlink:href="#flower6" id="fleur170"
							x="42.468" y="67.612" 
							transform="rotate(-70 42.468 67.612)" /><use xlink:href="#flower6" id="fleur171"
							x="42.468" y="67.612" 
							transform="rotate(27 42.468 67.612)" /><use xlink:href="#flower6" id="fleur172"
							x="42.468" y="67.612" 
							transform="rotate(139 43.164 67.672)" /><use xlink:href="#flower6" id="fleur173"
							x="42.468" y="67.612" 
							transform="rotate(180 42.468 67.612)" /><use xlink:href="#flower6" id="fleur174"
							x="42.468" y="67.612" 
							transform="rotate(167 42.468 67.612)" /><use xlink:href="#flower6" id="fleur175"
							x="42.468" y="67.612" 
							transform="rotate(164 43.068 68.152)" />
					<g>
					<path d ="M 37.44,68.8 
					a 56 560 0.58 0 0 -12.396,-7.92" fill ="none" stroke ="rgb(157,120,93)" stroke-width ="0.8244"/></g><circle cx="25.044" cy="60.88" r="0.2061" stroke="rgb(162,125,98)" fill="rgb(157,120,93)"/><use xlink:href="#leaf7"
						x="25.044" y="60.88" 
						transform="rotate(-173 25.044 60.88)" 	
						fill="rgb(209,81,92)" /><use xlink:href="#leaf4"
						x="25.044" y="60.88" 
						transform="rotate(-130 25.044 60.88)" 	
						fill="rgb(177,56,97)" /><use xlink:href="#leaf7"
						x="25.044" y="60.88" 
						transform="rotate(-28 25.254 61.06)" 	
						fill="rgb(182,52,72)" /><use xlink:href="#leaf6"
						x="25.044" y="60.88" 
						transform="rotate(130 25.344 61.29)" 	
						fill="rgb(181,79,72)" /><use xlink:href="#leaf6"
						x="25.044" y="60.88" 
						transform="rotate(-61 25.044 60.88)" 	
						fill="rgb(175,57,78)" /><use xlink:href="#leaf5"
						x="25.044" y="60.88" 
						transform="rotate(-87 25.224 61.74)" 	
						fill="rgb(195,82,88)" /><use xlink:href="#leaf7"
						x="25.044" y="60.88" 
						transform="rotate(-1 25.224 61.41)" 	
						fill="rgb(188,64,89)" /><use xlink:href="#leaf5"
						x="25.044" y="60.88" 
						transform="rotate(28 25.044 60.88)" 	
						fill="rgb(176,91,80)" /><use xlink:href="#leaf4"
						x="25.044" y="60.88" 
						transform="rotate(-176 25.044 60.88)" 	
						fill="rgb(206,91,81)" /><use xlink:href="#leaf5"
						x="25.044" y="60.88" 
						transform="rotate(-144 25.044 60.88)" 	
						fill="rgb(175,57,91)" /><use xlink:href="#leaf3"
						x="25.044" y="60.88" 
						transform="rotate(-93 25.204 61.54)" 	
						fill="rgb(177,73,108)" /><use xlink:href="#leaf7"
						x="25.044" y="60.88" 
						transform="rotate(-84 25.894 61.15)" 	
						fill="rgb(190,51,79)" /><use xlink:href="#leaf5"
						x="25.044" y="60.88" 
						transform="rotate(-133 25.044 60.88)" 	
						fill="rgb(172,91,93)" /><use xlink:href="#leaf5"
						x="25.044" y="60.88" 
						transform="rotate(108 25.224 61.56)" 	
						fill="rgb(177,66,80)" /><use xlink:href="#leaf7"
						x="25.044" y="60.88" 
						transform="rotate(-27 25.564 61.33)" 	
						fill="rgb(203,84,97)" /><use xlink:href="#leaf4"
						x="25.044" y="60.88" 
						transform="rotate(-115 25.394 61.49)" 	
						fill="rgb(174,87,109)" /><use xlink:href="#flower4" id="fleur180"
							x="25.044" y="60.88" 
							transform="rotate(149 25.416 60.952)" />
					<g>
					<path d ="M 51.552,69.736 
					a 94 940 6.56 0 0 -2.904,3.756" fill ="none" stroke ="rgb(161.5,120.5,94.5)" stroke-width ="0.8244"/></g><circle cx="48.648" cy="73.492" r="0.2061" stroke="rgb(166.5,125.5,99.5)" fill="rgb(161.5,120.5,94.5)"/><use xlink:href="#leaf6"
						x="48.648" y="73.492" 
						transform="rotate(-174 48.998 73.932)" 	
						fill="rgb(207,91,83)" /><use xlink:href="#leaf3"
						x="48.648" y="73.492" 
						transform="rotate(-80 48.648 73.492)" 	
						fill="rgb(189,78,85)" /><use xlink:href="#leaf4"
						x="48.648" y="73.492" 
						transform="rotate(-57 48.648 73.492)" 	
						fill="rgb(186,68,82)" /><use xlink:href="#leaf7"
						x="48.648" y="73.492" 
						transform="rotate(25 49.568 74.202)" 	
						fill="rgb(206,75,108)" /><use xlink:href="#leaf7"
						x="48.648" y="73.492" 
						transform="rotate(-168 48.648 73.492)" 	
						fill="rgb(206,76,78)" /><use xlink:href="#flower7" id="fleur190"
							x="48.648" y="73.492" 
							transform="rotate(-145 49.416 74.356)" /><use xlink:href="#flower7" id="fleur191"
							x="48.648" y="73.492" 
							transform="rotate(77 49.644 73.636)" /><use xlink:href="#flower7" id="fleur192"
							x="48.648" y="73.492" 
							transform="rotate(155 48.648 73.492)" /><use xlink:href="#flower7" id="fleur193"
							x="48.648" y="73.492" 
							transform="rotate(-146 48.648 73.492)" />
					<g>
					<path d ="M 42.468,60.868 
					a 61 427 18.30 0 0 -1.848,2.04" fill ="none" stroke ="rgb(165.5,123.5,96.5)" stroke-width ="1.0305"/></g><circle cx="40.62" cy="62.908" r="0.257625" stroke="rgb(170.5,128.5,101.5)" fill="rgb(165.5,123.5,96.5)"/><use xlink:href="#leaf2"
						x="40.62" y="62.908" 
						transform="rotate(179 40.82 62.968)" 	
						fill="rgb(207,66,81)" /><use xlink:href="#leaf4"
						x="40.62" y="62.908" 
						transform="rotate(34 40.62 62.908)" 	
						fill="rgb(205,56,100)" /><use xlink:href="#leaf2"
						x="40.62" y="62.908" 
						transform="rotate(-139 41.06 63.258)" 	
						fill="rgb(180,69,91)" /><use xlink:href="#leaf4"
						x="40.62" y="62.908" 
						transform="rotate(129 40.62 62.908)" 	
						fill="rgb(178,53,75)" /><use xlink:href="#leaf2"
						x="40.62" y="62.908" 
						transform="rotate(156 41.09 63.268)" 	
						fill="rgb(196,83,102)" /><use xlink:href="#leaf3"
						x="40.62" y="62.908" 
						transform="rotate(23 40.71 63.488)" 	
						fill="rgb(178,72,73)" /><use xlink:href="#leaf3"
						x="40.62" y="62.908" 
						transform="rotate(158 40.99 62.908)" 	
						fill="rgb(184,62,106)" /><use xlink:href="#leaf2"
						x="40.62" y="62.908" 
						transform="rotate(171 41.23 62.918)" 	
						fill="rgb(194,54,87)" /><use xlink:href="#leaf4"
						x="40.62" y="62.908" 
						transform="rotate(-44 40.62 62.908)" 	
						fill="rgb(201,74,88)" /><use xlink:href="#leaf2"
						x="40.62" y="62.908" 
						transform="rotate(1 40.62 62.908)" 	
						fill="rgb(196,89,84)" />
					<g>
					<path d ="M 40.62,62.908 
					a 72 504 0.92 0 0 -6.3,5.796" fill ="none" stroke ="rgb(170,126,100)" stroke-width ="0.8244"/></g><circle cx="34.32" cy="68.704" r="0.2061" stroke="rgb(175,131,105)" fill="rgb(170,126,100)"/><use xlink:href="#leaf4"
						x="34.32" y="68.704" 
						transform="rotate(81 34.35 68.944)" 	
						fill="rgb(189,90,71)" /><use xlink:href="#leaf5"
						x="34.32" y="68.704" 
						transform="rotate(176 35.07 68.934)" 	
						fill="rgb(181,84,102)" /><use xlink:href="#leaf6"
						x="34.32" y="68.704" 
						transform="rotate(-44 34.32 68.704)" 	
						fill="rgb(198,83,71)" /><use xlink:href="#leaf7"
						x="34.32" y="68.704" 
						transform="rotate(-144 34.68 69.474)" 	
						fill="rgb(208,82,77)" /><use xlink:href="#leaf4"
						x="34.32" y="68.704" 
						transform="rotate(-170 34.32 68.704)" 	
						fill="rgb(178,64,110)" /><use xlink:href="#leaf5"
						x="34.32" y="68.704" 
						transform="rotate(-53 34.32 68.704)" 	
						fill="rgb(184,81,74)" /><use xlink:href="#leaf3"
						x="34.32" y="68.704" 
						transform="rotate(-17 34.32 68.704)" 	
						fill="rgb(180,65,74)" /><use xlink:href="#leaf7"
						x="34.32" y="68.704" 
						transform="rotate(89 34.32 68.704)" 	
						fill="rgb(209,78,105)" /><use xlink:href="#leaf4"
						x="34.32" y="68.704" 
						transform="rotate(-88 34.43 69.114)" 	
						fill="rgb(185,63,101)" /><use xlink:href="#leaf6"
						x="34.32" y="68.704" 
						transform="rotate(-142 35.16 69.554)" 	
						fill="rgb(206,83,76)" /><use xlink:href="#leaf7"
						x="34.32" y="68.704" 
						transform="rotate(-169 34.32 68.704)" 	
						fill="rgb(205,74,109)" /><use xlink:href="#leaf4"
						x="34.32" y="68.704" 
						transform="rotate(41 34.32 68.704)" 	
						fill="rgb(189,90,76)" /><use xlink:href="#leaf4"
						x="34.32" y="68.704" 
						transform="rotate(140 34.32 68.704)" 	
						fill="rgb(198,65,105)" /><use xlink:href="#leaf6"
						x="34.32" y="68.704" 
						transform="rotate(-92 35.3 69.244)" 	
						fill="rgb(207,72,82)" /><use xlink:href="#leaf5"
						x="34.32" y="68.704" 
						transform="rotate(74 34.63 69.454)" 	
						fill="rgb(188,56,97)" /><use xlink:href="#flower5" id="fleur210"
							x="34.32" y="68.704" 
							transform="rotate(-161 34.32 68.704)" />
					<g>
					<path d ="M 50.988,71.656 
					a 99 198 -10.93 0 0 3.588,-2.112" fill ="none" stroke ="rgb(174.5,130.5,103.5)" stroke-width ="0.8244"/></g><circle cx="54.576" cy="69.544" r="0.2061" stroke="rgb(179.5,135.5,108.5)" fill="rgb(174.5,130.5,103.5)"/><use xlink:href="#leaf7"
						x="54.576" y="69.544" 
						transform="rotate(35 54.576 69.544)" 	
						fill="rgb(209,55,108)" /><use xlink:href="#leaf6"
						x="54.576" y="69.544" 
						transform="rotate(33 55.316 69.814)" 	
						fill="rgb(184,71,74)" /><use xlink:href="#leaf6"
						x="54.576" y="69.544" 
						transform="rotate(87 54.576 69.544)" 	
						fill="rgb(186,61,106)" /><use xlink:href="#leaf4"
						x="54.576" y="69.544" 
						transform="rotate(24 55.126 70.394)" 	
						fill="rgb(179,60,88)" /><use xlink:href="#leaf6"
						x="54.576" y="69.544" 
						transform="rotate(-114 55.516 70.394)" 	
						fill="rgb(179,59,74)" /><use xlink:href="#leaf6"
						x="54.576" y="69.544" 
						transform="rotate(124 55.246 70.014)" 	
						fill="rgb(192,80,97)" /><use xlink:href="#leaf3"
						x="54.576" y="69.544" 
						transform="rotate(31 54.576 69.544)" 	
						fill="rgb(174,70,91)" /><use xlink:href="#leaf6"
						x="54.576" y="69.544" 
						transform="rotate(-180 54.576 69.544)" 	
						fill="rgb(180,77,77)" /><use xlink:href="#leaf3"
						x="54.576" y="69.544" 
						transform="rotate(147 54.576 69.544)" 	
						fill="rgb(186,72,71)" /><use xlink:href="#leaf6"
						x="54.576" y="69.544" 
						transform="rotate(82 55.016 69.864)" 	
						fill="rgb(192,70,109)" /><use xlink:href="#flower6" id="fleur220"
							x="54.576" y="69.544" 
							transform="rotate(45 54.576 69.544)" /><use xlink:href="#flower6" id="fleur221"
							x="54.576" y="69.544" 
							transform="rotate(59 55.128 69.688)" /><use xlink:href="#flower6" id="fleur222"
							x="54.576" y="69.544" 
							transform="rotate(84 54.612 69.736)" /><use xlink:href="#flower6" id="fleur223"
							x="54.576" y="69.544" 
							transform="rotate(104 54.576 69.544)" /><use xlink:href="#flower6" id="fleur224"
							x="54.576" y="69.544" 
							transform="rotate(177 54.576 69.544)" />
					<g>
					<path d ="M 40.62,62.908 
					a 64 576 -17.57 0 1 -6.972,-9.024" fill ="none" stroke ="rgb(175,134,104)" stroke-width ="0.8244"/></g><circle cx="33.648" cy="53.884" r="0.2061" stroke="rgb(180,139,109)" fill="rgb(175,134,104)"/><use xlink:href="#leaf6"
						x="33.648" y="53.884" 
						transform="rotate(-8 34.388 54.854)" 	
						fill="rgb(172,80,98)" /><use xlink:href="#leaf4"
						x="33.648" y="53.884" 
						transform="rotate(-112 33.918 53.984)" 	
						fill="rgb(186,80,99)" /><use xlink:href="#leaf6"
						x="33.648" y="53.884" 
						transform="rotate(125 33.648 53.884)" 	
						fill="rgb(180,62,107)" /><use xlink:href="#leaf3"
						x="33.648" y="53.884" 
						transform="rotate(134 33.648 53.884)" 	
						fill="rgb(190,73,106)" /><use xlink:href="#leaf5"
						x="33.648" y="53.884" 
						transform="rotate(-65 33.648 53.884)" 	
						fill="rgb(175,79,90)" /><use xlink:href="#leaf7"
						x="33.648" y="53.884" 
						transform="rotate(-37 33.648 53.884)" 	
						fill="rgb(189,84,95)" /><use xlink:href="#leaf3"
						x="33.648" y="53.884" 
						transform="rotate(50 33.648 53.884)" 	
						fill="rgb(209,86,94)" /><use xlink:href="#leaf5"
						x="33.648" y="53.884" 
						transform="rotate(-152 33.738 54.634)" 	
						fill="rgb(184,52,97)" /><use xlink:href="#leaf6"
						x="33.648" y="53.884" 
						transform="rotate(-153 33.718 54.654)" 	
						fill="rgb(176,72,72)" /><use xlink:href="#flower6" id="fleur230"
							x="33.648" y="53.884" 
							transform="rotate(-117 33.648 53.884)" /><use xlink:href="#flower6" id="fleur231"
							x="33.648" y="53.884" 
							transform="rotate(26 34.02 54.664)" />
					<g>
					<path d ="M 51.552,69.736 
					a 90 180 12.51 0 1 7.044,-10.512" fill ="none" stroke ="rgb(175.5,136.5,108.5)" stroke-width ="0.8244"/></g><circle cx="58.596" cy="59.224" r="0.2061" stroke="rgb(180.5,141.5,113.5)" fill="rgb(175.5,136.5,108.5)"/><use xlink:href="#leaf4"
						x="58.596" y="59.224" 
						transform="rotate(34 59.566 59.974)" 	
						fill="rgb(208,58,86)" /><use xlink:href="#leaf7"
						x="58.596" y="59.224" 
						transform="rotate(21 59.566 59.754)" 	
						fill="rgb(212,87,81)" /><use xlink:href="#leaf4"
						x="58.596" y="59.224" 
						transform="rotate(-152 58.596 59.224)" 	
						fill="rgb(196,75,94)" /><use xlink:href="#leaf5"
						x="58.596" y="59.224" 
						transform="rotate(16 58.596 59.224)" 	
						fill="rgb(173,73,92)" /><use xlink:href="#leaf6"
						x="58.596" y="59.224" 
						transform="rotate(-34 58.746 60.154)" 	
						fill="rgb(202,51,95)" /><use xlink:href="#leaf4"
						x="58.596" y="59.224" 
						transform="rotate(79 59.466 60.114)" 	
						fill="rgb(206,53,91)" /><use xlink:href="#leaf6"
						x="58.596" y="59.224" 
						transform="rotate(-49 58.596 59.224)" 	
						fill="rgb(173,54,105)" /><use xlink:href="#leaf5"
						x="58.596" y="59.224" 
						transform="rotate(122 59.176 59.364)" 	
						fill="rgb(192,75,106)" /><use xlink:href="#leaf7"
						x="58.596" y="59.224" 
						transform="rotate(-97 58.916 59.364)" 	
						fill="rgb(172,91,100)" /><use xlink:href="#leaf5"
						x="58.596" y="59.224" 
						transform="rotate(-171 59.166 59.604)" 	
						fill="rgb(212,88,85)" /><use xlink:href="#leaf6"
						x="58.596" y="59.224" 
						transform="rotate(-72 58.646 60.214)" 	
						fill="rgb(186,66,96)" /><use xlink:href="#leaf5"
						x="58.596" y="59.224" 
						transform="rotate(-123 58.596 59.224)" 	
						fill="rgb(184,76,72)" /><use xlink:href="#leaf4"
						x="58.596" y="59.224" 
						transform="rotate(148 58.596 59.224)" 	
						fill="rgb(202,51,72)" /><use xlink:href="#leaf5"
						x="58.596" y="59.224" 
						transform="rotate(-134 58.596 59.224)" 	
						fill="rgb(209,57,71)" /><use xlink:href="#leaf5"
						x="58.596" y="59.224" 
						transform="rotate(-60 58.596 59.224)" 	
						fill="rgb(200,83,109)" /><use xlink:href="#leaf5"
						x="58.596" y="59.224" 
						transform="rotate(83 59.336 59.764)" 	
						fill="rgb(197,55,101)" /><use xlink:href="#flower5" id="fleur240"
							x="58.596" y="59.224" 
							transform="rotate(71 58.596 59.224)" />
					<g>
					<path d ="M 41.616,66.1 
					a 95 855 -18.49 0 0 2.628,-6.48" fill ="none" stroke ="rgb(175.5,138.5,110.5)" stroke-width ="1.0305"/></g><circle cx="44.244" cy="59.62" r="0.257625" stroke="rgb(180.5,143.5,115.5)" fill="rgb(175.5,138.5,110.5)"/><use xlink:href="#leaf5"
						x="44.244" y="59.62" 
						transform="rotate(67 44.244 59.62)" 	
						fill="rgb(173,69,92)" /><use xlink:href="#leaf2"
						x="44.244" y="59.62" 
						transform="rotate(-17 44.504 60.26)" 	
						fill="rgb(190,59,74)" /><use xlink:href="#leaf4"
						x="44.244" y="59.62" 
						transform="rotate(39 44.834 60.21)" 	
						fill="rgb(210,64,93)" /><use xlink:href="#leaf2"
						x="44.244" y="59.62" 
						transform="rotate(17 44.244 59.62)" 	
						fill="rgb(206,91,77)" /><use xlink:href="#leaf4"
						x="44.244" y="59.62" 
						transform="rotate(82 44.864 60.15)" 	
						fill="rgb(181,57,93)" /><use xlink:href="#leaf5"
						x="44.244" y="59.62" 
						transform="rotate(137 44.314 60.58)" 	
						fill="rgb(193,81,73)" />
					<g>
					<path d ="M 41.616,66.1 
					a 60 240 -8.45 0 0 1.8,-6.42" fill ="none" stroke ="rgb(175.5,142.5,113.5)" stroke-width ="1.0305"/></g><circle cx="43.416" cy="59.68" r="0.257625" stroke="rgb(180.5,147.5,118.5)" fill="rgb(175.5,142.5,113.5)"/><use xlink:href="#leaf3"
						x="43.416" y="59.68" 
						transform="rotate(-29 44.006 59.87)" 	
						fill="rgb(181,60,81)" /><use xlink:href="#leaf2"
						x="43.416" y="59.68" 
						transform="rotate(-158 43.416 59.68)" 	
						fill="rgb(182,77,97)" /><use xlink:href="#leaf2"
						x="43.416" y="59.68" 
						transform="rotate(-145 43.486 60.25)" 	
						fill="rgb(205,85,92)" /><use xlink:href="#leaf5"
						x="43.416" y="59.68" 
						transform="rotate(163 43.736 60.3)" 	
						fill="rgb(188,70,84)" /><use xlink:href="#leaf4"
						x="43.416" y="59.68" 
						transform="rotate(-127 44.076 60.32)" 	
						fill="rgb(200,84,82)" /><use xlink:href="#leaf2"
						x="43.416" y="59.68" 
						transform="rotate(-87 43.416 59.68)" 	
						fill="rgb(193,51,108)" /><use xlink:href="#leaf4"
						x="43.416" y="59.68" 
						transform="rotate(180 43.416 59.68)" 	
						fill="rgb(197,79,82)" /><use xlink:href="#leaf2"
						x="43.416" y="59.68" 
						transform="rotate(77 43.416 59.68)" 	
						fill="rgb(185,80,109)" /><use xlink:href="#leaf4"
						x="43.416" y="59.68" 
						transform="rotate(-108 44.286 60.07)" 	
						fill="rgb(199,67,73)" /><use xlink:href="#leaf6"
						x="43.416" y="59.68" 
						transform="rotate(-29 43.416 59.68)" 	
						fill="rgb(191,52,97)" /><use xlink:href="#leaf2"
						x="43.416" y="59.68" 
						transform="rotate(-131 43.456 59.81)" 	
						fill="rgb(203,52,87)" /><use xlink:href="#leaf2"
						x="43.416" y="59.68" 
						transform="rotate(87 43.666 60.14)" 	
						fill="rgb(180,76,106)" /><use xlink:href="#leaf4"
						x="43.416" y="59.68" 
						transform="rotate(57 44.056 60.48)" 	
						fill="rgb(211,53,75)" /><use xlink:href="#leaf6"
						x="43.416" y="59.68" 
						transform="rotate(76 43.416 59.68)" 	
						fill="rgb(193,72,85)" />
					<g>
					<path d ="M 41.616,66.1 
					a 85 510 5.99 0 1 -6.12,5.304" fill ="none" stroke ="rgb(179.5,142.5,115.5)" stroke-width ="1.0305"/></g><circle cx="35.496" cy="71.404" r="0.257625" stroke="rgb(184.5,147.5,120.5)" fill="rgb(179.5,142.5,115.5)"/><use xlink:href="#leaf5"
						x="35.496" y="71.404" 
						transform="rotate(84 35.496 71.404)" 	
						fill="rgb(191,55,70)" /><use xlink:href="#leaf5"
						x="35.496" y="71.404" 
						transform="rotate(132 35.716 71.544)" 	
						fill="rgb(177,59,107)" /><use xlink:href="#leaf3"
						x="35.496" y="71.404" 
						transform="rotate(8 35.756 71.664)" 	
						fill="rgb(197,77,85)" /><use xlink:href="#leaf2"
						x="35.496" y="71.404" 
						transform="rotate(-154 35.496 71.404)" 	
						fill="rgb(180,63,93)" /><use xlink:href="#leaf5"
						x="35.496" y="71.404" 
						transform="rotate(-29 36.326 71.614)" 	
						fill="rgb(204,76,71)" /><use xlink:href="#leaf4"
						x="35.496" y="71.404" 
						transform="rotate(-69 36.046 71.524)" 	
						fill="rgb(194,70,71)" /><use xlink:href="#leaf5"
						x="35.496" y="71.404" 
						transform="rotate(-57 35.496 71.404)" 	
						fill="rgb(183,53,96)" /><use xlink:href="#leaf4"
						x="35.496" y="71.404" 
						transform="rotate(22 35.496 71.404)" 	
						fill="rgb(177,75,92)" /><use xlink:href="#leaf4"
						x="35.496" y="71.404" 
						transform="rotate(120 35.496 71.404)" 	
						fill="rgb(184,51,90)" /><use xlink:href="#leaf3"
						x="35.496" y="71.404" 
						transform="rotate(138 35.496 71.404)" 	
						fill="rgb(189,51,88)" /><use xlink:href="#leaf3"
						x="35.496" y="71.404" 
						transform="rotate(-173 35.496 71.404)" 	
						fill="rgb(186,71,86)" /><use xlink:href="#leaf6"
						x="35.496" y="71.404" 
						transform="rotate(116 35.766 71.684)" 	
						fill="rgb(206,76,85)" /><use xlink:href="#leaf4"
						x="35.496" y="71.404" 
						transform="rotate(-103 35.496 71.404)" 	
						fill="rgb(180,73,74)" /><use xlink:href="#leaf2"
						x="35.496" y="71.404" 
						transform="rotate(113 35.496 71.404)" 	
						fill="rgb(178,61,85)" /><use xlink:href="#leaf4"
						x="35.496" y="71.404" 
						transform="rotate(-179 36.486 71.744)" 	
						fill="rgb(190,51,76)" /><use xlink:href="#leaf4"
						x="35.496" y="71.404" 
						transform="rotate(161 36.046 71.844)" 	
						fill="rgb(175,66,85)" /><use xlink:href="#flower4" id="fleur270"
							x="35.496" y="71.404" 
							transform="rotate(14 35.496 71.404)" /><use xlink:href="#flower4" id="fleur271"
							x="35.496" y="71.404" 
							transform="rotate(-62 35.664 71.584)" /><use xlink:href="#flower4" id="fleur272"
							x="35.496" y="71.404" 
							transform="rotate(101 35.976 71.416)" /><use xlink:href="#flower4" id="fleur273"
							x="35.496" y="71.404" 
							transform="rotate(147 36.528 72.184)" />
					<g>
					<path d ="M 41.616,66.1 
					a 97 388 -5.90 0 0 12.384,2.544" fill ="none" stroke ="rgb(181.5,142.5,119.5)" stroke-width ="1.0305"/></g><circle cx="54" cy="68.644" r="0.257625" stroke="rgb(186.5,147.5,124.5)" fill="rgb(181.5,142.5,119.5)"/><use xlink:href="#leaf2"
						x="54" y="68.644" 
						transform="rotate(60 54.42 68.664)" 	
						fill="rgb(177,75,93)" /><use xlink:href="#leaf3"
						x="54" y="68.644" 
						transform="rotate(-178 54.03 69.514)" 	
						fill="rgb(182,68,110)" /><use xlink:href="#leaf2"
						x="54" y="68.644" 
						transform="rotate(-125 54 68.644)" 	
						fill="rgb(172,59,95)" /><use xlink:href="#leaf3"
						x="54" y="68.644" 
						transform="rotate(40 54 68.644)" 	
						fill="rgb(179,75,81)" /><use xlink:href="#leaf4"
						x="54" y="68.644" 
						transform="rotate(-38 54 68.644)" 	
						fill="rgb(194,56,70)" /><use xlink:href="#leaf5"
						x="54" y="68.644" 
						transform="rotate(68 54.66 69.344)" 	
						fill="rgb(190,89,90)" /><use xlink:href="#leaf4"
						x="54" y="68.644" 
						transform="rotate(139 54.69 69.594)" 	
						fill="rgb(197,64,93)" /><use xlink:href="#leaf4"
						x="54" y="68.644" 
						transform="rotate(-2 54.04 69.364)" 	
						fill="rgb(202,51,87)" /><use xlink:href="#leaf4"
						x="54" y="68.644" 
						transform="rotate(135 54 68.644)" 	
						fill="rgb(204,81,90)" /><use xlink:href="#flower4" id="fleur280"
							x="54" y="68.644" 
							transform="rotate(168 54.972 69.604)" /><use xlink:href="#flower4" id="fleur281"
							x="54" y="68.644" 
							transform="rotate(46 54.936 68.716)" /><use xlink:href="#flower4" id="fleur282"
							x="54" y="68.644" 
							transform="rotate(-89 54.324 68.992)" /><use xlink:href="#flower4" id="fleur283"
							x="54" y="68.644" 
							transform="rotate(-85 55.068 69.604)" />
					<g>
					<path d ="M 54,68.644 
					a 92 552 16.43 0 1 -12.672,5.868" fill ="none" stroke ="rgb(183,145,120)" stroke-width ="0.8244"/></g><circle cx="41.328" cy="74.512" r="0.2061" stroke="rgb(188,150,125)" fill="rgb(183,145,120)"/><use xlink:href="#leaf4"
						x="41.328" y="74.512" 
						transform="rotate(135 41.328 74.512)" 	
						fill="rgb(178,69,98)" /><use xlink:href="#leaf6"
						x="41.328" y="74.512" 
						transform="rotate(1 41.328 74.512)" 	
						fill="rgb(192,83,72)" /><use xlink:href="#leaf3"
						x="41.328" y="74.512" 
						transform="rotate(76 41.328 74.512)" 	
						fill="rgb(208,64,75)" /><use xlink:href="#leaf7"
						x="41.328" y="74.512" 
						transform="rotate(-174 41.328 74.512)" 	
						fill="rgb(173,51,75)" /><use xlink:href="#leaf6"
						x="41.328" y="74.512" 
						transform="rotate(-30 41.328 74.512)" 	
						fill="rgb(178,75,108)" /><use xlink:href="#leaf3"
						x="41.328" y="74.512" 
						transform="rotate(180 41.328 74.512)" 	
						fill="rgb(178,71,79)" /><use xlink:href="#leaf7"
						x="41.328" y="74.512" 
						transform="rotate(155 41.328 74.512)" 	
						fill="rgb(181,65,91)" /><use xlink:href="#leaf5"
						x="41.328" y="74.512" 
						transform="rotate(59 41.348 74.782)" 	
						fill="rgb(173,64,70)" /><use xlink:href="#leaf3"
						x="41.328" y="74.512" 
						transform="rotate(-108 41.328 74.512)" 	
						fill="rgb(205,59,71)" /><use xlink:href="#leaf3"
						x="41.328" y="74.512" 
						transform="rotate(16 41.328 74.512)" 	
						fill="rgb(209,65,96)" /><use xlink:href="#leaf6"
						x="41.328" y="74.512" 
						transform="rotate(-13 41.328 74.512)" 	
						fill="rgb(191,65,70)" /><use xlink:href="#leaf3"
						x="41.328" y="74.512" 
						transform="rotate(-7 41.968 75.502)" 	
						fill="rgb(172,52,106)" /><use xlink:href="#leaf3"
						x="41.328" y="74.512" 
						transform="rotate(-15 42.078 74.852)" 	
						fill="rgb(197,66,72)" /><use xlink:href="#leaf7"
						x="41.328" y="74.512" 
						transform="rotate(-1 42.058 74.812)" 	
						fill="rgb(175,72,107)" /><use xlink:href="#leaf5"
						x="41.328" y="74.512" 
						transform="rotate(82 42.108 75.372)" 	
						fill="rgb(194,73,101)" /><use xlink:href="#flower5" id="fleur290"
							x="41.328" y="74.512" 
							transform="rotate(-65 42.024 74.596)" /></g>
				</svg>