<svg class="relie" xmlns="http://www.w3.org/2000/svg" viewBox="0 0 100 100" preserveAspectRatio="xMidYMid meet" x="0" y="0" overflow="visible" xmlns:xlink="http://www.w3.org/1999/xlink">

		<defs>  <g id="leaf1" transform="skewX(10) skewY(10)"><path d="M 0,0 
					q 0.5225 0.26 0,1.875 
					M 0,0 
					q -0.5225 0.26 0,1.875 " 
					stroke-width ="0.2" /></g>  <g id="leaf2" transform="skewX(19) skewY(19)"><path d="M 0,0 
					q 1.045 0.52 0,3.75 
					M 0,0 
					q -1.045 0.52 0,3.75 " 
					stroke-width ="0.2" /></g>  <g id="leaf3" transform="skewX(-4) skewY(-4)"><path d="M 0,0 
					q 1.5675 0.78 0,5.625 
					M 0,0 
					q -1.5675 0.78 0,5.625 " 
					stroke-width ="0.2" /></g>  <g id="leaf4" transform="skewX(-2) skewY(-2)"><path d="M 0,0 
					q 2.09 1.04 0,7.5 
					M 0,0 
					q -2.09 1.04 0,7.5 " 
					stroke-width ="0.2" /></g>  <g id="leaf5" transform="skewX(13) skewY(13)"><path d="M 0,0 
					q 2.6125 1.3 0,9.375 
					M 0,0 
					q -2.6125 1.3 0,9.375 " 
					stroke-width ="0.2" /></g>  <g id="leaf6" transform="skewX(-9) skewY(-9)"><path d="M 0,0 
					q 3.135 1.56 0,11.25 
					M 0,0 
					q -3.135 1.56 0,11.25 " 
					stroke-width ="0.2" /></g>  <g id="leaf7" transform="skewX(8) skewY(8)"><path d="M 0,0 
					q 3.6575 1.82 0,13.125 
					M 0,0 
					q -3.6575 1.82 0,13.125 " 
					stroke-width ="0.2" /></g>  <g id="leaf8" transform="skewX(-10) skewY(-10)"><path d="M 0,0 
					q 4.18 2.08 0,15 
					M 0,0 
					q -4.18 2.08 0,15 " 
					stroke-width ="0.2" /></g><g id="flower1" transform="skewX(9) skewY(9)">
						<path d="M 0,0
						Q 0.33,0.125 0,0.5975"
						stroke="rgb(132,155,143)" 
						fill="transparent"
						stroke-width ="0.3" /><path d="M 0,0.5975 
						q 0.23875 0.3775 0.085,0.0925 q 0.36375 0.0675 0.30125,0.06125 q 0.23875 0.0025 -0.20875,0.085625 q 0.36375 0.1125 -0.1775,1 
						M 0,0.5975 
						q -0.23875 0.3775 -0.085,0.0925 q -0.36375 0.0675 -0.30125,0.06125 q -0.23875 0.0025 0.20875,0.085625 q -0.36375 0.1125 0.1775,1 " 
						transform="rotate(0 0,0.5975 )"
						stroke-width ="0.1"
						fill="rgb(205,54,73)"
						/><path d="M 0,0.5975 
						q 0.23875 0.3775 0.085,0.0925 q 0.36375 0.0675 0.30125,0.06125 q 0.23875 0.0025 -0.20875,0.085625 q 0.36375 0.1125 -0.1775,1 
						M 0,0.5975 
						q -0.23875 0.3775 -0.085,0.0925 q -0.36375 0.0675 -0.30125,0.06125 q -0.23875 0.0025 0.20875,0.085625 q -0.36375 0.1125 0.1775,1 " 
						transform="rotate(24.923076923077 0,0.5975 )"
						stroke-width ="0.1"
						fill="rgb(197.5,57.5,66.5)"
						/><path d="M 0,0.5975 
						q 0.23875 0.3775 0.085,0.0925 q 0.36375 0.0675 0.30125,0.06125 q 0.23875 0.0025 -0.20875,0.085625 q 0.36375 0.1125 -0.1775,1 
						M 0,0.5975 
						q -0.23875 0.3775 -0.085,0.0925 q -0.36375 0.0675 -0.30125,0.06125 q -0.23875 0.0025 0.20875,0.085625 q -0.36375 0.1125 0.1775,1 " 
						transform="rotate(49.846153846154 0,0.5975 )"
						stroke-width ="0.1"
						fill="rgb(202,54,66)"
						/><path d="M 0,0.5975 
						q 0.23875 0.3775 0.085,0.0925 q 0.36375 0.0675 0.30125,0.06125 q 0.23875 0.0025 -0.20875,0.085625 q 0.36375 0.1125 -0.1775,1 
						M 0,0.5975 
						q -0.23875 0.3775 -0.085,0.0925 q -0.36375 0.0675 -0.30125,0.06125 q -0.23875 0.0025 0.20875,0.085625 q -0.36375 0.1125 0.1775,1 " 
						transform="rotate(74.769230769231 0,0.5975 )"
						stroke-width ="0.1"
						fill="rgb(180.5,61.5,58.5)"
						/></g><g id="flower2" transform="skewX(0) skewY(0)">
						<path d="M 0,0
						Q 0.09,0.25 0,1.195"
						stroke="rgb(132,155,143)" 
						fill="transparent"
						stroke-width ="0.3" /><path d="M 0,1.195 
						q 0.4775 0.755 0.17,0.185 q 0.7275 0.135 0.6025,0.1225 q 0.4775 0.005 -0.4175,0.17125 q 0.7275 0.225 -0.355,1 
						M 0,1.195 
						q -0.4775 0.755 -0.17,0.185 q -0.7275 0.135 -0.6025,0.1225 q -0.4775 0.005 0.4175,0.17125 q -0.7275 0.225 0.355,1 " 
						transform="rotate(0 0,1.195 )"
						stroke-width ="0.1"
						fill="rgb(205,55,68)"
						/><circle cx="0" cy="1.195" r="0.145" fill="rgb(9,202,22)"/><circle cx="-0.02" cy="1.135" r="0.096666666666667" fill="rgb(11.5,223.5,31.5)"/><path d="M 0,1.195 
						q 0.4775 0.755 0.17,0.185 q 0.7275 0.135 0.6025,0.1225 q 0.4775 0.005 -0.4175,0.17125 q 0.7275 0.225 -0.355,1 
						M 0,1.195 
						q -0.4775 0.755 -0.17,0.185 q -0.7275 0.135 -0.6025,0.1225 q -0.4775 0.005 0.4175,0.17125 q -0.7275 0.225 0.355,1 " 
						transform="rotate(83.076923076923 0,1.195 )"
						stroke-width ="0.1"
						fill="rgb(194.5,46.5,58.5)"
						/><circle cx="0" cy="1.195" r="0.145" fill="rgb(9,202,22)"/><circle cx="-0.03" cy="1.225" r="0.096666666666667" fill="rgb(11.5,223.5,31.5)"/><path d="M 0,1.195 
						q 0.4775 0.755 0.17,0.185 q 0.7275 0.135 0.6025,0.1225 q 0.4775 0.005 -0.4175,0.17125 q 0.7275 0.225 -0.355,1 
						M 0,1.195 
						q -0.4775 0.755 -0.17,0.185 q -0.7275 0.135 -0.6025,0.1225 q -0.4775 0.005 0.4175,0.17125 q -0.7275 0.225 0.355,1 " 
						transform="rotate(166.15384615385 0,1.195 )"
						stroke-width ="0.1"
						fill="rgb(189,62,68)"
						/><circle cx="0" cy="1.195" r="0.145" fill="rgb(9,202,22)"/><circle cx="0.09" cy="1.295" r="0.096666666666667" fill="rgb(11.5,223.5,31.5)"/><path d="M 0,1.195 
						q 0.4775 0.755 0.17,0.185 q 0.7275 0.135 0.6025,0.1225 q 0.4775 0.005 -0.4175,0.17125 q 0.7275 0.225 -0.355,1 
						M 0,1.195 
						q -0.4775 0.755 -0.17,0.185 q -0.7275 0.135 -0.6025,0.1225 q -0.4775 0.005 0.4175,0.17125 q -0.7275 0.225 0.355,1 " 
						transform="rotate(249.23076923077 0,1.195 )"
						stroke-width ="0.1"
						fill="rgb(191.5,57.5,56.5)"
						/><circle cx="0" cy="1.195" r="0.145" fill="rgb(9,202,22)"/><circle cx="-0.08" cy="1.255" r="0.096666666666667" fill="rgb(11.5,223.5,31.5)"/><path d="M 0,1.195 
						q 0.4775 0.755 0.17,0.185 q 0.7275 0.135 0.6025,0.1225 q 0.4775 0.005 -0.4175,0.17125 q 0.7275 0.225 -0.355,1 
						M 0,1.195 
						q -0.4775 0.755 -0.17,0.185 q -0.7275 0.135 -0.6025,0.1225 q -0.4775 0.005 0.4175,0.17125 q -0.7275 0.225 0.355,1 " 
						transform="rotate(332.30769230769 0,1.195 )"
						stroke-width ="0.1"
						fill="rgb(184,47,54)"
						/><circle cx="0" cy="1.195" r="0.145" fill="rgb(9,202,22)"/><circle cx="-0.1" cy="1.185" r="0.096666666666667" fill="rgb(11.5,223.5,31.5)"/><path d="M 0,1.195 
						q 0.4775 0.755 0.17,0.185 q 0.7275 0.135 0.6025,0.1225 q 0.4775 0.005 -0.4175,0.17125 q 0.7275 0.225 -0.355,1 
						M 0,1.195 
						q -0.4775 0.755 -0.17,0.185 q -0.7275 0.135 -0.6025,0.1225 q -0.4775 0.005 0.4175,0.17125 q -0.7275 0.225 0.355,1 " 
						transform="rotate(415.38461538462 0,1.195 )"
						stroke-width ="0.1"
						fill="rgb(182.5,43.5,46.5)"
						/><circle cx="0" cy="1.195" r="0.145" fill="rgb(9,202,22)"/><circle cx="0.05" cy="1.145" r="0.096666666666667" fill="rgb(11.5,223.5,31.5)"/><path d="M 0,1.195 
						q 0.4775 0.755 0.17,0.185 q 0.7275 0.135 0.6025,0.1225 q 0.4775 0.005 -0.4175,0.17125 q 0.7275 0.225 -0.355,1 
						M 0,1.195 
						q -0.4775 0.755 -0.17,0.185 q -0.7275 0.135 -0.6025,0.1225 q -0.4775 0.005 0.4175,0.17125 q -0.7275 0.225 0.355,1 " 
						transform="rotate(498.46153846154 0,1.195 )"
						stroke-width ="0.1"
						fill="rgb(174,54,54)"
						/><circle cx="0" cy="1.195" r="0.145" fill="rgb(9,202,22)"/><circle cx="0.08" cy="1.255" r="0.096666666666667" fill="rgb(11.5,223.5,31.5)"/><path d="M 0,1.195 
						q 0.4775 0.755 0.17,0.185 q 0.7275 0.135 0.6025,0.1225 q 0.4775 0.005 -0.4175,0.17125 q 0.7275 0.225 -0.355,1 
						M 0,1.195 
						q -0.4775 0.755 -0.17,0.185 q -0.7275 0.135 -0.6025,0.1225 q -0.4775 0.005 0.4175,0.17125 q -0.7275 0.225 0.355,1 " 
						transform="rotate(581.53846153846 0,1.195 )"
						stroke-width ="0.1"
						fill="rgb(180.5,38.5,41.5)"
						/><circle cx="0" cy="1.195" r="0.145" fill="rgb(9,202,22)"/><circle cx="-0.08" cy="1.235" r="0.096666666666667" fill="rgb(11.5,223.5,31.5)"/><path d="M 0,1.195 
						q 0.4775 0.755 0.17,0.185 q 0.7275 0.135 0.6025,0.1225 q 0.4775 0.005 -0.4175,0.17125 q 0.7275 0.225 -0.355,1 
						M 0,1.195 
						q -0.4775 0.755 -0.17,0.185 q -0.7275 0.135 -0.6025,0.1225 q -0.4775 0.005 0.4175,0.17125 q -0.7275 0.225 0.355,1 " 
						transform="rotate(664.61538461538 0,1.195 )"
						stroke-width ="0.1"
						fill="rgb(174,39,37)"
						/><circle cx="0" cy="1.195" r="0.145" fill="rgb(9,202,22)"/><circle cx="0.03" cy="1.115" r="0.096666666666667" fill="rgb(11.5,223.5,31.5)"/><path d="M 0,1.195 
						q 0.4775 0.755 0.17,0.185 q 0.7275 0.135 0.6025,0.1225 q 0.4775 0.005 -0.4175,0.17125 q 0.7275 0.225 -0.355,1 
						M 0,1.195 
						q -0.4775 0.755 -0.17,0.185 q -0.7275 0.135 -0.6025,0.1225 q -0.4775 0.005 0.4175,0.17125 q -0.7275 0.225 0.355,1 " 
						transform="rotate(747.69230769231 0,1.195 )"
						stroke-width ="0.1"
						fill="rgb(176.5,28.5,52.5)"
						/><circle cx="0" cy="1.195" r="0.145" fill="rgb(9,202,22)"/><circle cx="-0.07" cy="1.195" r="0.096666666666667" fill="rgb(11.5,223.5,31.5)"/><path d="M 0,1.195 
						q 0.4775 0.755 0.17,0.185 q 0.7275 0.135 0.6025,0.1225 q 0.4775 0.005 -0.4175,0.17125 q 0.7275 0.225 -0.355,1 
						M 0,1.195 
						q -0.4775 0.755 -0.17,0.185 q -0.7275 0.135 -0.6025,0.1225 q -0.4775 0.005 0.4175,0.17125 q -0.7275 0.225 0.355,1 " 
						transform="rotate(830.76923076923 0,1.195 )"
						stroke-width ="0.1"
						fill="rgb(166,30,32)"
						/><circle cx="0" cy="1.195" r="0.145" fill="rgb(9,202,22)"/><circle cx="-0.07" cy="1.235" r="0.096666666666667" fill="rgb(11.5,223.5,31.5)"/><path d="M 0,1.195 
						q 0.4775 0.755 0.17,0.185 q 0.7275 0.135 0.6025,0.1225 q 0.4775 0.005 -0.4175,0.17125 q 0.7275 0.225 -0.355,1 
						M 0,1.195 
						q -0.4775 0.755 -0.17,0.185 q -0.7275 0.135 -0.6025,0.1225 q -0.4775 0.005 0.4175,0.17125 q -0.7275 0.225 0.355,1 " 
						transform="rotate(913.84615384615 0,1.195 )"
						stroke-width ="0.1"
						fill="rgb(176.5,26.5,28.5)"
						/><circle cx="0" cy="1.195" r="0.145" fill="rgb(9,202,22)"/><circle cx="-0.01" cy="1.185" r="0.096666666666667" fill="rgb(11.5,223.5,31.5)"/><path d="M 0,1.195 
						q 0.4775 0.755 0.17,0.185 q 0.7275 0.135 0.6025,0.1225 q 0.4775 0.005 -0.4175,0.17125 q 0.7275 0.225 -0.355,1 
						M 0,1.195 
						q -0.4775 0.755 -0.17,0.185 q -0.7275 0.135 -0.6025,0.1225 q -0.4775 0.005 0.4175,0.17125 q -0.7275 0.225 0.355,1 " 
						transform="rotate(996.92307692308 0,1.195 )"
						stroke-width ="0.1"
						fill="rgb(170,25,29)"
						/><circle cx="0" cy="1.195" r="0.145" fill="rgb(9,202,22)"/><circle cx="-0.04" cy="1.135" r="0.096666666666667" fill="rgb(11.5,223.5,31.5)"/><path d="M 0,1.195 
						q 0.4775 0.755 0.17,0.185 q 0.7275 0.135 0.6025,0.1225 q 0.4775 0.005 -0.4175,0.17125 q 0.7275 0.225 -0.355,1 
						M 0,1.195 
						q -0.4775 0.755 -0.17,0.185 q -0.7275 0.135 -0.6025,0.1225 q -0.4775 0.005 0.4175,0.17125 q -0.7275 0.225 0.355,1 " 
						transform="rotate(1080 0,1.195 )"
						stroke-width ="0.1"
						fill="rgb(171.5,17.5,39.5)"
						/><circle cx="0" cy="1.195" r="0.145" fill="rgb(9,202,22)"/><circle cx="-0.03" cy="1.155" r="0.096666666666667" fill="rgb(11.5,223.5,31.5)"/></g><g id="flower3" transform="skewX(8) skewY(8)">
						<path d="M 0,0
						Q -0.75,0.375 0,1.7925"
						stroke="rgb(132,155,143)" 
						fill="transparent"
						stroke-width ="0.3" /><path d="M 0,1.7925 
						q 0.71625 1.1325 0.255,0.2775 q 1.09125 0.2025 0.90375,0.18375 q 0.71625 0.0075 -0.62625,0.256875 q 1.09125 0.3375 -0.5325,1 
						M 0,1.7925 
						q -0.71625 1.1325 -0.255,0.2775 q -1.09125 0.2025 -0.90375,0.18375 q -0.71625 0.0075 0.62625,0.256875 q -1.09125 0.3375 0.5325,1 " 
						transform="rotate(0 0,1.7925 )"
						stroke-width ="0.1"
						fill="rgb(200,54,64)"
						/><path d="M 0,1.7925 
						q 0.71625 1.1325 0.255,0.2775 q 1.09125 0.2025 0.90375,0.18375 q 0.71625 0.0075 -0.62625,0.256875 q 1.09125 0.3375 -0.5325,1 
						M 0,1.7925 
						q -0.71625 1.1325 -0.255,0.2775 q -1.09125 0.2025 -0.90375,0.18375 q -0.71625 0.0075 0.62625,0.256875 q -1.09125 0.3375 0.5325,1 " 
						transform="rotate(24.923076923077 0,1.7925 )"
						stroke-width ="0.1"
						fill="rgb(187.5,52.5,60.5)"
						/><path d="M 0,1.7925 
						q 0.71625 1.1325 0.255,0.2775 q 1.09125 0.2025 0.90375,0.18375 q 0.71625 0.0075 -0.62625,0.256875 q 1.09125 0.3375 -0.5325,1 
						M 0,1.7925 
						q -0.71625 1.1325 -0.255,0.2775 q -1.09125 0.2025 -0.90375,0.18375 q -0.71625 0.0075 0.62625,0.256875 q -1.09125 0.3375 0.5325,1 " 
						transform="rotate(49.846153846154 0,1.7925 )"
						stroke-width ="0.1"
						fill="rgb(182,49,58)"
						/><path d="M 0,1.7925 
						q 0.71625 1.1325 0.255,0.2775 q 1.09125 0.2025 0.90375,0.18375 q 0.71625 0.0075 -0.62625,0.256875 q 1.09125 0.3375 -0.5325,1 
						M 0,1.7925 
						q -0.71625 1.1325 -0.255,0.2775 q -1.09125 0.2025 -0.90375,0.18375 q -0.71625 0.0075 0.62625,0.256875 q -1.09125 0.3375 0.5325,1 " 
						transform="rotate(74.769230769231 0,1.7925 )"
						stroke-width ="0.1"
						fill="rgb(191.5,46.5,51.5)"
						/></g><g id="flower4" transform="skewX(-6) skewY(-6)">
						<path d="M 0,0
						Q -0.94,0.5 0,2.39"
						stroke="rgb(132,155,143)" 
						fill="transparent"
						stroke-width ="0.3" /><path d="M 0,2.39 
						q 0.955 1.51 0.34,0.37 q 1.455 0.27 1.205,0.245 q 0.955 0.01 -0.835,0.3425 q 1.455 0.45 -0.71,1 
						M 0,2.39 
						q -0.955 1.51 -0.34,0.37 q -1.455 0.27 -1.205,0.245 q -0.955 0.01 0.835,0.3425 q -1.455 0.45 0.71,1 " 
						transform="rotate(0 0,2.39 )"
						stroke-width ="0.1"
						fill="rgb(191,57,55)"
						/><path d="M 0,2.39 
						q 0.955 1.51 0.34,0.37 q 1.455 0.27 1.205,0.245 q 0.955 0.01 -0.835,0.3425 q 1.455 0.45 -0.71,1 
						M 0,2.39 
						q -0.955 1.51 -0.34,0.37 q -1.455 0.27 -1.205,0.245 q -0.955 0.01 0.835,0.3425 q -1.455 0.45 0.71,1 " 
						transform="rotate(24.923076923077 0,2.39 )"
						stroke-width ="0.1"
						fill="rgb(189.5,64.5,72.5)"
						/><path d="M 0,2.39 
						q 0.955 1.51 0.34,0.37 q 1.455 0.27 1.205,0.245 q 0.955 0.01 -0.835,0.3425 q 1.455 0.45 -0.71,1 
						M 0,2.39 
						q -0.955 1.51 -0.34,0.37 q -1.455 0.27 -1.205,0.245 q -0.955 0.01 0.835,0.3425 q -1.455 0.45 0.71,1 " 
						transform="rotate(49.846153846154 0,2.39 )"
						stroke-width ="0.1"
						fill="rgb(195,61,54)"
						/><path d="M 0,2.39 
						q 0.955 1.51 0.34,0.37 q 1.455 0.27 1.205,0.245 q 0.955 0.01 -0.835,0.3425 q 1.455 0.45 -0.71,1 
						M 0,2.39 
						q -0.955 1.51 -0.34,0.37 q -1.455 0.27 -1.205,0.245 q -0.955 0.01 0.835,0.3425 q -1.455 0.45 0.71,1 " 
						transform="rotate(74.769230769231 0,2.39 )"
						stroke-width ="0.1"
						fill="rgb(192.5,60.5,66.5)"
						/></g><g id="flower5" transform="skewX(-9) skewY(-9)">
						<path d="M 0,0
						Q 1.49,0.625 0,2.9875"
						stroke="rgb(132,155,143)" 
						fill="transparent"
						stroke-width ="0.3" /><path d="M 0,2.9875 
						q 1.19375 1.8875 0.425,0.4625 q 1.81875 0.3375 1.50625,0.30625 q 1.19375 0.0125 -1.04375,0.428125 q 1.81875 0.5625 -0.8875,1 
						M 0,2.9875 
						q -1.19375 1.8875 -0.425,0.4625 q -1.81875 0.3375 -1.50625,0.30625 q -1.19375 0.0125 1.04375,0.428125 q -1.81875 0.5625 0.8875,1 " 
						transform="rotate(0 0,2.9875 )"
						stroke-width ="0.1"
						fill="rgb(195,49,70)"
						/><circle cx="0" cy="2.9875" r="0.3625" fill="rgb(10,205,22)"/><circle cx="0" cy="3.0375" r="0.24166666666667" fill="rgb(21.5,211.5,39.5)"/><path d="M 0,2.9875 
						q 1.19375 1.8875 0.425,0.4625 q 1.81875 0.3375 1.50625,0.30625 q 1.19375 0.0125 -1.04375,0.428125 q 1.81875 0.5625 -0.8875,1 
						M 0,2.9875 
						q -1.19375 1.8875 -0.425,0.4625 q -1.81875 0.3375 -1.50625,0.30625 q -1.19375 0.0125 1.04375,0.428125 q -1.81875 0.5625 0.8875,1 " 
						transform="rotate(83.076923076923 0,2.9875 )"
						stroke-width ="0.1"
						fill="rgb(196.5,47.5,66.5)"
						/><circle cx="0" cy="2.9875" r="0.3625" fill="rgb(10,205,22)"/><circle cx="0.04" cy="2.9175" r="0.24166666666667" fill="rgb(21.5,211.5,39.5)"/><path d="M 0,2.9875 
						q 1.19375 1.8875 0.425,0.4625 q 1.81875 0.3375 1.50625,0.30625 q 1.19375 0.0125 -1.04375,0.428125 q 1.81875 0.5625 -0.8875,1 
						M 0,2.9875 
						q -1.19375 1.8875 -0.425,0.4625 q -1.81875 0.3375 -1.50625,0.30625 q -1.19375 0.0125 1.04375,0.428125 q -1.81875 0.5625 0.8875,1 " 
						transform="rotate(166.15384615385 0,2.9875 )"
						stroke-width ="0.1"
						fill="rgb(184,48,55)"
						/><circle cx="0" cy="2.9875" r="0.3625" fill="rgb(10,205,22)"/><circle cx="0.02" cy="2.9675" r="0.24166666666667" fill="rgb(21.5,211.5,39.5)"/><path d="M 0,2.9875 
						q 1.19375 1.8875 0.425,0.4625 q 1.81875 0.3375 1.50625,0.30625 q 1.19375 0.0125 -1.04375,0.428125 q 1.81875 0.5625 -0.8875,1 
						M 0,2.9875 
						q -1.19375 1.8875 -0.425,0.4625 q -1.81875 0.3375 -1.50625,0.30625 q -1.19375 0.0125 1.04375,0.428125 q -1.81875 0.5625 0.8875,1 " 
						transform="rotate(249.23076923077 0,2.9875 )"
						stroke-width ="0.1"
						fill="rgb(194.5,48.5,61.5)"
						/><circle cx="0" cy="2.9875" r="0.3625" fill="rgb(10,205,22)"/><circle cx="-0.1" cy="2.9875" r="0.24166666666667" fill="rgb(21.5,211.5,39.5)"/><path d="M 0,2.9875 
						q 1.19375 1.8875 0.425,0.4625 q 1.81875 0.3375 1.50625,0.30625 q 1.19375 0.0125 -1.04375,0.428125 q 1.81875 0.5625 -0.8875,1 
						M 0,2.9875 
						q -1.19375 1.8875 -0.425,0.4625 q -1.81875 0.3375 -1.50625,0.30625 q -1.19375 0.0125 1.04375,0.428125 q -1.81875 0.5625 0.8875,1 " 
						transform="rotate(332.30769230769 0,2.9875 )"
						stroke-width ="0.1"
						fill="rgb(181,43,65)"
						/><circle cx="0" cy="2.9875" r="0.3625" fill="rgb(10,205,22)"/><circle cx="0.01" cy="2.9875" r="0.24166666666667" fill="rgb(21.5,211.5,39.5)"/><path d="M 0,2.9875 
						q 1.19375 1.8875 0.425,0.4625 q 1.81875 0.3375 1.50625,0.30625 q 1.19375 0.0125 -1.04375,0.428125 q 1.81875 0.5625 -0.8875,1 
						M 0,2.9875 
						q -1.19375 1.8875 -0.425,0.4625 q -1.81875 0.3375 -1.50625,0.30625 q -1.19375 0.0125 1.04375,0.428125 q -1.81875 0.5625 0.8875,1 " 
						transform="rotate(415.38461538462 0,2.9875 )"
						stroke-width ="0.1"
						fill="rgb(181.5,50.5,46.5)"
						/><circle cx="0" cy="2.9875" r="0.3625" fill="rgb(10,205,22)"/><circle cx="-0.02" cy="3.0775" r="0.24166666666667" fill="rgb(21.5,211.5,39.5)"/><path d="M 0,2.9875 
						q 1.19375 1.8875 0.425,0.4625 q 1.81875 0.3375 1.50625,0.30625 q 1.19375 0.0125 -1.04375,0.428125 q 1.81875 0.5625 -0.8875,1 
						M 0,2.9875 
						q -1.19375 1.8875 -0.425,0.4625 q -1.81875 0.3375 -1.50625,0.30625 q -1.19375 0.0125 1.04375,0.428125 q -1.81875 0.5625 0.8875,1 " 
						transform="rotate(498.46153846154 0,2.9875 )"
						stroke-width ="0.1"
						fill="rgb(173,37,59)"
						/><circle cx="0" cy="2.9875" r="0.3625" fill="rgb(10,205,22)"/><circle cx="-0.08" cy="3.0175" r="0.24166666666667" fill="rgb(21.5,211.5,39.5)"/><path d="M 0,2.9875 
						q 1.19375 1.8875 0.425,0.4625 q 1.81875 0.3375 1.50625,0.30625 q 1.19375 0.0125 -1.04375,0.428125 q 1.81875 0.5625 -0.8875,1 
						M 0,2.9875 
						q -1.19375 1.8875 -0.425,0.4625 q -1.81875 0.3375 -1.50625,0.30625 q -1.19375 0.0125 1.04375,0.428125 q -1.81875 0.5625 0.8875,1 " 
						transform="rotate(581.53846153846 0,2.9875 )"
						stroke-width ="0.1"
						fill="rgb(184.5,47.5,57.5)"
						/><circle cx="0" cy="2.9875" r="0.3625" fill="rgb(10,205,22)"/><circle cx="-0.09" cy="2.9775" r="0.24166666666667" fill="rgb(21.5,211.5,39.5)"/><path d="M 0,2.9875 
						q 1.19375 1.8875 0.425,0.4625 q 1.81875 0.3375 1.50625,0.30625 q 1.19375 0.0125 -1.04375,0.428125 q 1.81875 0.5625 -0.8875,1 
						M 0,2.9875 
						q -1.19375 1.8875 -0.425,0.4625 q -1.81875 0.3375 -1.50625,0.30625 q -1.19375 0.0125 1.04375,0.428125 q -1.81875 0.5625 0.8875,1 " 
						transform="rotate(664.61538461538 0,2.9875 )"
						stroke-width ="0.1"
						fill="rgb(169,35,48)"
						/><circle cx="0" cy="2.9875" r="0.3625" fill="rgb(10,205,22)"/><circle cx="0.05" cy="2.9575" r="0.24166666666667" fill="rgb(21.5,211.5,39.5)"/><path d="M 0,2.9875 
						q 1.19375 1.8875 0.425,0.4625 q 1.81875 0.3375 1.50625,0.30625 q 1.19375 0.0125 -1.04375,0.428125 q 1.81875 0.5625 -0.8875,1 
						M 0,2.9875 
						q -1.19375 1.8875 -0.425,0.4625 q -1.81875 0.3375 -1.50625,0.30625 q -1.19375 0.0125 1.04375,0.428125 q -1.81875 0.5625 0.8875,1 " 
						transform="rotate(747.69230769231 0,2.9875 )"
						stroke-width ="0.1"
						fill="rgb(167.5,30.5,50.5)"
						/><circle cx="0" cy="2.9875" r="0.3625" fill="rgb(10,205,22)"/><circle cx="-0.01" cy="2.9575" r="0.24166666666667" fill="rgb(21.5,211.5,39.5)"/><path d="M 0,2.9875 
						q 1.19375 1.8875 0.425,0.4625 q 1.81875 0.3375 1.50625,0.30625 q 1.19375 0.0125 -1.04375,0.428125 q 1.81875 0.5625 -0.8875,1 
						M 0,2.9875 
						q -1.19375 1.8875 -0.425,0.4625 q -1.81875 0.3375 -1.50625,0.30625 q -1.19375 0.0125 1.04375,0.428125 q -1.81875 0.5625 0.8875,1 " 
						transform="rotate(830.76923076923 0,2.9875 )"
						stroke-width ="0.1"
						fill="rgb(173,38,40)"
						/><circle cx="0" cy="2.9875" r="0.3625" fill="rgb(10,205,22)"/><circle cx="0.05" cy="3.0075" r="0.24166666666667" fill="rgb(21.5,211.5,39.5)"/><path d="M 0,2.9875 
						q 1.19375 1.8875 0.425,0.4625 q 1.81875 0.3375 1.50625,0.30625 q 1.19375 0.0125 -1.04375,0.428125 q 1.81875 0.5625 -0.8875,1 
						M 0,2.9875 
						q -1.19375 1.8875 -0.425,0.4625 q -1.81875 0.3375 -1.50625,0.30625 q -1.19375 0.0125 1.04375,0.428125 q -1.81875 0.5625 0.8875,1 " 
						transform="rotate(913.84615384615 0,2.9875 )"
						stroke-width ="0.1"
						fill="rgb(174.5,35.5,44.5)"
						/><circle cx="0" cy="2.9875" r="0.3625" fill="rgb(10,205,22)"/><circle cx="-0.05" cy="2.9075" r="0.24166666666667" fill="rgb(21.5,211.5,39.5)"/><path d="M 0,2.9875 
						q 1.19375 1.8875 0.425,0.4625 q 1.81875 0.3375 1.50625,0.30625 q 1.19375 0.0125 -1.04375,0.428125 q 1.81875 0.5625 -0.8875,1 
						M 0,2.9875 
						q -1.19375 1.8875 -0.425,0.4625 q -1.81875 0.3375 -1.50625,0.30625 q -1.19375 0.0125 1.04375,0.428125 q -1.81875 0.5625 0.8875,1 " 
						transform="rotate(996.92307692308 0,2.9875 )"
						stroke-width ="0.1"
						fill="rgb(175,19,39)"
						/><circle cx="0" cy="2.9875" r="0.3625" fill="rgb(10,205,22)"/><circle cx="0.04" cy="2.9175" r="0.24166666666667" fill="rgb(21.5,211.5,39.5)"/><path d="M 0,2.9875 
						q 1.19375 1.8875 0.425,0.4625 q 1.81875 0.3375 1.50625,0.30625 q 1.19375 0.0125 -1.04375,0.428125 q 1.81875 0.5625 -0.8875,1 
						M 0,2.9875 
						q -1.19375 1.8875 -0.425,0.4625 q -1.81875 0.3375 -1.50625,0.30625 q -1.19375 0.0125 1.04375,0.428125 q -1.81875 0.5625 0.8875,1 " 
						transform="rotate(1080 0,2.9875 )"
						stroke-width ="0.1"
						fill="rgb(159.5,19.5,31.5)"
						/><circle cx="0" cy="2.9875" r="0.3625" fill="rgb(10,205,22)"/><circle cx="0.04" cy="3.0075" r="0.24166666666667" fill="rgb(21.5,211.5,39.5)"/></g><g id="flower6" transform="skewX(4) skewY(4)">
						<path d="M 0,0
						Q 0.26,0.75 0,3.585"
						stroke="rgb(132,155,143)" 
						fill="transparent"
						stroke-width ="0.3" /><path d="M 0,3.585 
						q 1.4325 2.265 0.51,0.555 q 2.1825 0.405 1.8075,0.3675 q 1.4325 0.015 -1.2525,0.51375 q 2.1825 0.675 -1.065,1 
						M 0,3.585 
						q -1.4325 2.265 -0.51,0.555 q -2.1825 0.405 -1.8075,0.3675 q -1.4325 0.015 1.2525,0.51375 q -2.1825 0.675 1.065,1 " 
						transform="rotate(0 0,3.585 )"
						stroke-width ="0.1"
						fill="rgb(189,69,67)"
						/><path d="M 0,3.585 
						q 1.4325 2.265 0.51,0.555 q 2.1825 0.405 1.8075,0.3675 q 1.4325 0.015 -1.2525,0.51375 q 2.1825 0.675 -1.065,1 
						M 0,3.585 
						q -1.4325 2.265 -0.51,0.555 q -2.1825 0.405 -1.8075,0.3675 q -1.4325 0.015 1.2525,0.51375 q -2.1825 0.675 1.065,1 " 
						transform="rotate(24.923076923077 0,3.585 )"
						stroke-width ="0.1"
						fill="rgb(187.5,58.5,52.5)"
						/><path d="M 0,3.585 
						q 1.4325 2.265 0.51,0.555 q 2.1825 0.405 1.8075,0.3675 q 1.4325 0.015 -1.2525,0.51375 q 2.1825 0.675 -1.065,1 
						M 0,3.585 
						q -1.4325 2.265 -0.51,0.555 q -2.1825 0.405 -1.8075,0.3675 q -1.4325 0.015 1.2525,0.51375 q -2.1825 0.675 1.065,1 " 
						transform="rotate(49.846153846154 0,3.585 )"
						stroke-width ="0.1"
						fill="rgb(200,56,65)"
						/><path d="M 0,3.585 
						q 1.4325 2.265 0.51,0.555 q 2.1825 0.405 1.8075,0.3675 q 1.4325 0.015 -1.2525,0.51375 q 2.1825 0.675 -1.065,1 
						M 0,3.585 
						q -1.4325 2.265 -0.51,0.555 q -2.1825 0.405 -1.8075,0.3675 q -1.4325 0.015 1.2525,0.51375 q -2.1825 0.675 1.065,1 " 
						transform="rotate(74.769230769231 0,3.585 )"
						stroke-width ="0.1"
						fill="rgb(179.5,41.5,59.5)"
						/></g><g id="flower7" transform="skewX(-7) skewY(-7)">
						<path d="M 0,0
						Q -0.77,0.875 0,4.1825"
						stroke="rgb(132,155,143)" 
						fill="transparent"
						stroke-width ="0.3" /><path d="M 0,4.1825 
						q 1.67125 2.6425 0.595,0.6475 q 2.54625 0.4725 2.10875,0.42875 q 1.67125 0.0175 -1.46125,0.599375 q 2.54625 0.7875 -1.2425,1 
						M 0,4.1825 
						q -1.67125 2.6425 -0.595,0.6475 q -2.54625 0.4725 -2.10875,0.42875 q -1.67125 0.0175 1.46125,0.599375 q -2.54625 0.7875 1.2425,1 " 
						transform="rotate(0 0,4.1825 )"
						stroke-width ="0.1"
						fill="rgb(193,54,72)"
						/><circle cx="0" cy="4.1825" r="0.5075" fill="rgb(2,205,27)"/><circle cx="0.05" cy="4.2825" r="0.33833333333333" fill="rgb(14.5,207.5,41.5)"/><path d="M 0,4.1825 
						q 1.67125 2.6425 0.595,0.6475 q 2.54625 0.4725 2.10875,0.42875 q 1.67125 0.0175 -1.46125,0.599375 q 2.54625 0.7875 -1.2425,1 
						M 0,4.1825 
						q -1.67125 2.6425 -0.595,0.6475 q -2.54625 0.4725 -2.10875,0.42875 q -1.67125 0.0175 1.46125,0.599375 q -2.54625 0.7875 1.2425,1 " 
						transform="rotate(83.076923076923 0,4.1825 )"
						stroke-width ="0.1"
						fill="rgb(186.5,59.5,70.5)"
						/><circle cx="0" cy="4.1825" r="0.5075" fill="rgb(2,205,27)"/><circle cx="0.01" cy="4.1125" r="0.33833333333333" fill="rgb(14.5,207.5,41.5)"/><path d="M 0,4.1825 
						q 1.67125 2.6425 0.595,0.6475 q 2.54625 0.4725 2.10875,0.42875 q 1.67125 0.0175 -1.46125,0.599375 q 2.54625 0.7875 -1.2425,1 
						M 0,4.1825 
						q -1.67125 2.6425 -0.595,0.6475 q -2.54625 0.4725 -2.10875,0.42875 q -1.67125 0.0175 1.46125,0.599375 q -2.54625 0.7875 1.2425,1 " 
						transform="rotate(166.15384615385 0,4.1825 )"
						stroke-width ="0.1"
						fill="rgb(185,45,60)"
						/><circle cx="0" cy="4.1825" r="0.5075" fill="rgb(2,205,27)"/><circle cx="-0.01" cy="4.2125" r="0.33833333333333" fill="rgb(14.5,207.5,41.5)"/><path d="M 0,4.1825 
						q 1.67125 2.6425 0.595,0.6475 q 2.54625 0.4725 2.10875,0.42875 q 1.67125 0.0175 -1.46125,0.599375 q 2.54625 0.7875 -1.2425,1 
						M 0,4.1825 
						q -1.67125 2.6425 -0.595,0.6475 q -2.54625 0.4725 -2.10875,0.42875 q -1.67125 0.0175 1.46125,0.599375 q -2.54625 0.7875 1.2425,1 " 
						transform="rotate(249.23076923077 0,4.1825 )"
						stroke-width ="0.1"
						fill="rgb(181.5,57.5,60.5)"
						/><circle cx="0" cy="4.1825" r="0.5075" fill="rgb(2,205,27)"/><circle cx="0.05" cy="4.2225" r="0.33833333333333" fill="rgb(14.5,207.5,41.5)"/><path d="M 0,4.1825 
						q 1.67125 2.6425 0.595,0.6475 q 2.54625 0.4725 2.10875,0.42875 q 1.67125 0.0175 -1.46125,0.599375 q 2.54625 0.7875 -1.2425,1 
						M 0,4.1825 
						q -1.67125 2.6425 -0.595,0.6475 q -2.54625 0.4725 -2.10875,0.42875 q -1.67125 0.0175 1.46125,0.599375 q -2.54625 0.7875 1.2425,1 " 
						transform="rotate(332.30769230769 0,4.1825 )"
						stroke-width ="0.1"
						fill="rgb(194,43,53)"
						/><circle cx="0" cy="4.1825" r="0.5075" fill="rgb(2,205,27)"/><circle cx="0.04" cy="4.2025" r="0.33833333333333" fill="rgb(14.5,207.5,41.5)"/><path d="M 0,4.1825 
						q 1.67125 2.6425 0.595,0.6475 q 2.54625 0.4725 2.10875,0.42875 q 1.67125 0.0175 -1.46125,0.599375 q 2.54625 0.7875 -1.2425,1 
						M 0,4.1825 
						q -1.67125 2.6425 -0.595,0.6475 q -2.54625 0.4725 -2.10875,0.42875 q -1.67125 0.0175 1.46125,0.599375 q -2.54625 0.7875 1.2425,1 " 
						transform="rotate(415.38461538462 0,4.1825 )"
						stroke-width ="0.1"
						fill="rgb(180.5,36.5,50.5)"
						/><circle cx="0" cy="4.1825" r="0.5075" fill="rgb(2,205,27)"/><circle cx="-0.02" cy="4.1925" r="0.33833333333333" fill="rgb(14.5,207.5,41.5)"/><path d="M 0,4.1825 
						q 1.67125 2.6425 0.595,0.6475 q 2.54625 0.4725 2.10875,0.42875 q 1.67125 0.0175 -1.46125,0.599375 q 2.54625 0.7875 -1.2425,1 
						M 0,4.1825 
						q -1.67125 2.6425 -0.595,0.6475 q -2.54625 0.4725 -2.10875,0.42875 q -1.67125 0.0175 1.46125,0.599375 q -2.54625 0.7875 1.2425,1 " 
						transform="rotate(498.46153846154 0,4.1825 )"
						stroke-width ="0.1"
						fill="rgb(177,53,56)"
						/><circle cx="0" cy="4.1825" r="0.5075" fill="rgb(2,205,27)"/><circle cx="-0.03" cy="4.1125" r="0.33833333333333" fill="rgb(14.5,207.5,41.5)"/><path d="M 0,4.1825 
						q 1.67125 2.6425 0.595,0.6475 q 2.54625 0.4725 2.10875,0.42875 q 1.67125 0.0175 -1.46125,0.599375 q 2.54625 0.7875 -1.2425,1 
						M 0,4.1825 
						q -1.67125 2.6425 -0.595,0.6475 q -2.54625 0.4725 -2.10875,0.42875 q -1.67125 0.0175 1.46125,0.599375 q -2.54625 0.7875 1.2425,1 " 
						transform="rotate(581.53846153846 0,4.1825 )"
						stroke-width ="0.1"
						fill="rgb(178.5,34.5,43.5)"
						/><circle cx="0" cy="4.1825" r="0.5075" fill="rgb(2,205,27)"/><circle cx="0.08" cy="4.1325" r="0.33833333333333" fill="rgb(14.5,207.5,41.5)"/><path d="M 0,4.1825 
						q 1.67125 2.6425 0.595,0.6475 q 2.54625 0.4725 2.10875,0.42875 q 1.67125 0.0175 -1.46125,0.599375 q 2.54625 0.7875 -1.2425,1 
						M 0,4.1825 
						q -1.67125 2.6425 -0.595,0.6475 q -2.54625 0.4725 -2.10875,0.42875 q -1.67125 0.0175 1.46125,0.599375 q -2.54625 0.7875 1.2425,1 " 
						transform="rotate(664.61538461538 0,4.1825 )"
						stroke-width ="0.1"
						fill="rgb(184,38,51)"
						/><circle cx="0" cy="4.1825" r="0.5075" fill="rgb(2,205,27)"/><circle cx="0.1" cy="4.1125" r="0.33833333333333" fill="rgb(14.5,207.5,41.5)"/><path d="M 0,4.1825 
						q 1.67125 2.6425 0.595,0.6475 q 2.54625 0.4725 2.10875,0.42875 q 1.67125 0.0175 -1.46125,0.599375 q 2.54625 0.7875 -1.2425,1 
						M 0,4.1825 
						q -1.67125 2.6425 -0.595,0.6475 q -2.54625 0.4725 -2.10875,0.42875 q -1.67125 0.0175 1.46125,0.599375 q -2.54625 0.7875 1.2425,1 " 
						transform="rotate(747.69230769231 0,4.1825 )"
						stroke-width ="0.1"
						fill="rgb(166.5,26.5,33.5)"
						/><circle cx="0" cy="4.1825" r="0.5075" fill="rgb(2,205,27)"/><circle cx="0.05" cy="4.1325" r="0.33833333333333" fill="rgb(14.5,207.5,41.5)"/><path d="M 0,4.1825 
						q 1.67125 2.6425 0.595,0.6475 q 2.54625 0.4725 2.10875,0.42875 q 1.67125 0.0175 -1.46125,0.599375 q 2.54625 0.7875 -1.2425,1 
						M 0,4.1825 
						q -1.67125 2.6425 -0.595,0.6475 q -2.54625 0.4725 -2.10875,0.42875 q -1.67125 0.0175 1.46125,0.599375 q -2.54625 0.7875 1.2425,1 " 
						transform="rotate(830.76923076923 0,4.1825 )"
						stroke-width ="0.1"
						fill="rgb(169,33,36)"
						/><circle cx="0" cy="4.1825" r="0.5075" fill="rgb(2,205,27)"/><circle cx="-0.05" cy="4.2225" r="0.33833333333333" fill="rgb(14.5,207.5,41.5)"/><path d="M 0,4.1825 
						q 1.67125 2.6425 0.595,0.6475 q 2.54625 0.4725 2.10875,0.42875 q 1.67125 0.0175 -1.46125,0.599375 q 2.54625 0.7875 -1.2425,1 
						M 0,4.1825 
						q -1.67125 2.6425 -0.595,0.6475 q -2.54625 0.4725 -2.10875,0.42875 q -1.67125 0.0175 1.46125,0.599375 q -2.54625 0.7875 1.2425,1 " 
						transform="rotate(913.84615384615 0,4.1825 )"
						stroke-width ="0.1"
						fill="rgb(168.5,40.5,41.5)"
						/><circle cx="0" cy="4.1825" r="0.5075" fill="rgb(2,205,27)"/><circle cx="-0.02" cy="4.2525" r="0.33833333333333" fill="rgb(14.5,207.5,41.5)"/><path d="M 0,4.1825 
						q 1.67125 2.6425 0.595,0.6475 q 2.54625 0.4725 2.10875,0.42875 q 1.67125 0.0175 -1.46125,0.599375 q 2.54625 0.7875 -1.2425,1 
						M 0,4.1825 
						q -1.67125 2.6425 -0.595,0.6475 q -2.54625 0.4725 -2.10875,0.42875 q -1.67125 0.0175 1.46125,0.599375 q -2.54625 0.7875 1.2425,1 " 
						transform="rotate(996.92307692308 0,4.1825 )"
						stroke-width ="0.1"
						fill="rgb(161,34,32)"
						/><circle cx="0" cy="4.1825" r="0.5075" fill="rgb(2,205,27)"/><circle cx="0.09" cy="4.2625" r="0.33833333333333" fill="rgb(14.5,207.5,41.5)"/><path d="M 0,4.1825 
						q 1.67125 2.6425 0.595,0.6475 q 2.54625 0.4725 2.10875,0.42875 q 1.67125 0.0175 -1.46125,0.599375 q 2.54625 0.7875 -1.2425,1 
						M 0,4.1825 
						q -1.67125 2.6425 -0.595,0.6475 q -2.54625 0.4725 -2.10875,0.42875 q -1.67125 0.0175 1.46125,0.599375 q -2.54625 0.7875 1.2425,1 " 
						transform="rotate(1080 0,4.1825 )"
						stroke-width ="0.1"
						fill="rgb(162.5,31.5,37.5)"
						/><circle cx="0" cy="4.1825" r="0.5075" fill="rgb(2,205,27)"/><circle cx="0.07" cy="4.2825" r="0.33833333333333" fill="rgb(14.5,207.5,41.5)"/></g><g id="flower8" transform="skewX(-10) skewY(-10)">
						<path d="M 0,0
						Q -0.6,1 0,4.78"
						stroke="rgb(132,155,143)" 
						fill="transparent"
						stroke-width ="0.3" /><path d="M 0,4.78 
						q 1.91 3.02 0.68,0.74 q 2.91 0.54 2.41,0.49 q 1.91 0.02 -1.67,0.685 q 2.91 0.9 -1.42,1 
						M 0,4.78 
						q -1.91 3.02 -0.68,0.74 q -2.91 0.54 -2.41,0.49 q -1.91 0.02 1.67,0.685 q -2.91 0.9 1.42,1 " 
						transform="rotate(0 0,4.78 )"
						stroke-width ="0.1"
						fill="rgb(206,57,73)"
						/><circle cx="0" cy="4.78" r="0.58" fill="rgb(3,199,21)"/><circle cx="-0.08" cy="4.84" r="0.38666666666667" fill="rgb(22.5,217.5,36.5)"/><path d="M 0,4.78 
						q 1.91 3.02 0.68,0.74 q 2.91 0.54 2.41,0.49 q 1.91 0.02 -1.67,0.685 q 2.91 0.9 -1.42,1 
						M 0,4.78 
						q -1.91 3.02 -0.68,0.74 q -2.91 0.54 -2.41,0.49 q -1.91 0.02 1.67,0.685 q -2.91 0.9 1.42,1 " 
						transform="rotate(83.076923076923 0,4.78 )"
						stroke-width ="0.1"
						fill="rgb(204.5,66.5,55.5)"
						/><circle cx="0" cy="4.78" r="0.58" fill="rgb(3,199,21)"/><circle cx="0.07" cy="4.85" r="0.38666666666667" fill="rgb(22.5,217.5,36.5)"/><path d="M 0,4.78 
						q 1.91 3.02 0.68,0.74 q 2.91 0.54 2.41,0.49 q 1.91 0.02 -1.67,0.685 q 2.91 0.9 -1.42,1 
						M 0,4.78 
						q -1.91 3.02 -0.68,0.74 q -2.91 0.54 -2.41,0.49 q -1.91 0.02 1.67,0.685 q -2.91 0.9 1.42,1 " 
						transform="rotate(166.15384615385 0,4.78 )"
						stroke-width ="0.1"
						fill="rgb(197,46,69)"
						/><circle cx="0" cy="4.78" r="0.58" fill="rgb(3,199,21)"/><circle cx="-0.06" cy="4.77" r="0.38666666666667" fill="rgb(22.5,217.5,36.5)"/><path d="M 0,4.78 
						q 1.91 3.02 0.68,0.74 q 2.91 0.54 2.41,0.49 q 1.91 0.02 -1.67,0.685 q 2.91 0.9 -1.42,1 
						M 0,4.78 
						q -1.91 3.02 -0.68,0.74 q -2.91 0.54 -2.41,0.49 q -1.91 0.02 1.67,0.685 q -2.91 0.9 1.42,1 " 
						transform="rotate(249.23076923077 0,4.78 )"
						stroke-width ="0.1"
						fill="rgb(188.5,48.5,54.5)"
						/><circle cx="0" cy="4.78" r="0.58" fill="rgb(3,199,21)"/><circle cx="-0.03" cy="4.74" r="0.38666666666667" fill="rgb(22.5,217.5,36.5)"/><path d="M 0,4.78 
						q 1.91 3.02 0.68,0.74 q 2.91 0.54 2.41,0.49 q 1.91 0.02 -1.67,0.685 q 2.91 0.9 -1.42,1 
						M 0,4.78 
						q -1.91 3.02 -0.68,0.74 q -2.91 0.54 -2.41,0.49 q -1.91 0.02 1.67,0.685 q -2.91 0.9 1.42,1 " 
						transform="rotate(332.30769230769 0,4.78 )"
						stroke-width ="0.1"
						fill="rgb(183,57,55)"
						/><circle cx="0" cy="4.78" r="0.58" fill="rgb(3,199,21)"/><circle cx="0.02" cy="4.79" r="0.38666666666667" fill="rgb(22.5,217.5,36.5)"/><path d="M 0,4.78 
						q 1.91 3.02 0.68,0.74 q 2.91 0.54 2.41,0.49 q 1.91 0.02 -1.67,0.685 q 2.91 0.9 -1.42,1 
						M 0,4.78 
						q -1.91 3.02 -0.68,0.74 q -2.91 0.54 -2.41,0.49 q -1.91 0.02 1.67,0.685 q -2.91 0.9 1.42,1 " 
						transform="rotate(415.38461538462 0,4.78 )"
						stroke-width ="0.1"
						fill="rgb(191.5,45.5,55.5)"
						/><circle cx="0" cy="4.78" r="0.58" fill="rgb(3,199,21)"/><circle cx="-0.02" cy="4.68" r="0.38666666666667" fill="rgb(22.5,217.5,36.5)"/><path d="M 0,4.78 
						q 1.91 3.02 0.68,0.74 q 2.91 0.54 2.41,0.49 q 1.91 0.02 -1.67,0.685 q 2.91 0.9 -1.42,1 
						M 0,4.78 
						q -1.91 3.02 -0.68,0.74 q -2.91 0.54 -2.41,0.49 q -1.91 0.02 1.67,0.685 q -2.91 0.9 1.42,1 " 
						transform="rotate(498.46153846154 0,4.78 )"
						stroke-width ="0.1"
						fill="rgb(183,34,45)"
						/><circle cx="0" cy="4.78" r="0.58" fill="rgb(3,199,21)"/><circle cx="-0.09" cy="4.84" r="0.38666666666667" fill="rgb(22.5,217.5,36.5)"/><path d="M 0,4.78 
						q 1.91 3.02 0.68,0.74 q 2.91 0.54 2.41,0.49 q 1.91 0.02 -1.67,0.685 q 2.91 0.9 -1.42,1 
						M 0,4.78 
						q -1.91 3.02 -0.68,0.74 q -2.91 0.54 -2.41,0.49 q -1.91 0.02 1.67,0.685 q -2.91 0.9 1.42,1 " 
						transform="rotate(581.53846153846 0,4.78 )"
						stroke-width ="0.1"
						fill="rgb(181.5,38.5,57.5)"
						/><circle cx="0" cy="4.78" r="0.58" fill="rgb(3,199,21)"/><circle cx="0.05" cy="4.7" r="0.38666666666667" fill="rgb(22.5,217.5,36.5)"/><path d="M 0,4.78 
						q 1.91 3.02 0.68,0.74 q 2.91 0.54 2.41,0.49 q 1.91 0.02 -1.67,0.685 q 2.91 0.9 -1.42,1 
						M 0,4.78 
						q -1.91 3.02 -0.68,0.74 q -2.91 0.54 -2.41,0.49 q -1.91 0.02 1.67,0.685 q -2.91 0.9 1.42,1 " 
						transform="rotate(664.61538461538 0,4.78 )"
						stroke-width ="0.1"
						fill="rgb(177,39,48)"
						/><circle cx="0" cy="4.78" r="0.58" fill="rgb(3,199,21)"/><circle cx="-0.08" cy="4.86" r="0.38666666666667" fill="rgb(22.5,217.5,36.5)"/><path d="M 0,4.78 
						q 1.91 3.02 0.68,0.74 q 2.91 0.54 2.41,0.49 q 1.91 0.02 -1.67,0.685 q 2.91 0.9 -1.42,1 
						M 0,4.78 
						q -1.91 3.02 -0.68,0.74 q -2.91 0.54 -2.41,0.49 q -1.91 0.02 1.67,0.685 q -2.91 0.9 1.42,1 " 
						transform="rotate(747.69230769231 0,4.78 )"
						stroke-width ="0.1"
						fill="rgb(183.5,34.5,36.5)"
						/><circle cx="0" cy="4.78" r="0.58" fill="rgb(3,199,21)"/><circle cx="0.03" cy="4.73" r="0.38666666666667" fill="rgb(22.5,217.5,36.5)"/><path d="M 0,4.78 
						q 1.91 3.02 0.68,0.74 q 2.91 0.54 2.41,0.49 q 1.91 0.02 -1.67,0.685 q 2.91 0.9 -1.42,1 
						M 0,4.78 
						q -1.91 3.02 -0.68,0.74 q -2.91 0.54 -2.41,0.49 q -1.91 0.02 1.67,0.685 q -2.91 0.9 1.42,1 " 
						transform="rotate(830.76923076923 0,4.78 )"
						stroke-width ="0.1"
						fill="rgb(182,37,47)"
						/><circle cx="0" cy="4.78" r="0.58" fill="rgb(3,199,21)"/><circle cx="-0.05" cy="4.78" r="0.38666666666667" fill="rgb(22.5,217.5,36.5)"/><path d="M 0,4.78 
						q 1.91 3.02 0.68,0.74 q 2.91 0.54 2.41,0.49 q 1.91 0.02 -1.67,0.685 q 2.91 0.9 -1.42,1 
						M 0,4.78 
						q -1.91 3.02 -0.68,0.74 q -2.91 0.54 -2.41,0.49 q -1.91 0.02 1.67,0.685 q -2.91 0.9 1.42,1 " 
						transform="rotate(913.84615384615 0,4.78 )"
						stroke-width ="0.1"
						fill="rgb(170.5,37.5,47.5)"
						/><circle cx="0" cy="4.78" r="0.58" fill="rgb(3,199,21)"/><circle cx="0.04" cy="4.87" r="0.38666666666667" fill="rgb(22.5,217.5,36.5)"/><path d="M 0,4.78 
						q 1.91 3.02 0.68,0.74 q 2.91 0.54 2.41,0.49 q 1.91 0.02 -1.67,0.685 q 2.91 0.9 -1.42,1 
						M 0,4.78 
						q -1.91 3.02 -0.68,0.74 q -2.91 0.54 -2.41,0.49 q -1.91 0.02 1.67,0.685 q -2.91 0.9 1.42,1 " 
						transform="rotate(996.92307692308 0,4.78 )"
						stroke-width ="0.1"
						fill="rgb(174,29,31)"
						/><circle cx="0" cy="4.78" r="0.58" fill="rgb(3,199,21)"/><circle cx="0.07" cy="4.71" r="0.38666666666667" fill="rgb(22.5,217.5,36.5)"/><path d="M 0,4.78 
						q 1.91 3.02 0.68,0.74 q 2.91 0.54 2.41,0.49 q 1.91 0.02 -1.67,0.685 q 2.91 0.9 -1.42,1 
						M 0,4.78 
						q -1.91 3.02 -0.68,0.74 q -2.91 0.54 -2.41,0.49 q -1.91 0.02 1.67,0.685 q -2.91 0.9 1.42,1 " 
						transform="rotate(1080 0,4.78 )"
						stroke-width ="0.1"
						fill="rgb(171.5,29.5,41.5)"
						/><circle cx="0" cy="4.78" r="0.58" fill="rgb(3,199,21)"/><circle cx="0.03" cy="4.72" r="0.38666666666667" fill="rgb(22.5,217.5,36.5)"/></g></defs>
				<g class="fullPlant">
					<g>
					<path d ="M 52,91 
					a 86 774 3.19 0 0 6.24,-12.84" fill ="none" stroke ="rgb(129.5,152.5,141.5)" stroke-width ="2.664"/></g><circle cx="58.24" cy="78.16" r="0.666" stroke="rgb(134.5,157.5,146.5)" fill="rgb(129.5,152.5,141.5)"/><use xlink:href="#leaf3"
						x="58.24" y="78.16" 
						transform="rotate(-77 58.88 79.1)" 	
						fill="rgb(56,38,129)" /><use xlink:href="#leaf3"
						x="58.24" y="78.16" 
						transform="rotate(172 58.38 78.83)" 	
						fill="rgb(47,5,111)" /><use xlink:href="#leaf1"
						x="58.24" y="78.16" 
						transform="rotate(-97 58.67 78.24)" 	
						fill="rgb(54,35,102)" /><use xlink:href="#leaf1"
						x="58.24" y="78.16" 
						transform="rotate(94 58.24 78.16)" 	
						fill="rgb(71,3,116)" /><use xlink:href="#leaf2"
						x="58.24" y="78.16" 
						transform="rotate(-91 58.24 78.16)" 	
						fill="rgb(67,39,117)" /><use xlink:href="#leaf1"
						x="58.24" y="78.16" 
						transform="rotate(-105 58.24 78.16)" 	
						fill="rgb(70,33,96)" /><use xlink:href="#leaf1"
						x="58.24" y="78.16" 
						transform="rotate(-158 58.29 79.09)" 	
						fill="rgb(63,12,95)" /><use xlink:href="#leaf3"
						x="58.24" y="78.16" 
						transform="rotate(70 58.24 78.16)" 	
						fill="rgb(60,2,116)" />
					<g>
					<path d ="M 58.24,78.16 
					a 79 632 -16.4 0 1 -8.796,-8.568" fill ="none" stroke ="rgb(130.5,152.5,140.5)" stroke-width ="1.332"/></g><circle cx="49.444" cy="69.592" r="0.333" stroke="rgb(135.5,157.5,145.5)" fill="rgb(130.5,152.5,140.5)"/><use xlink:href="#leaf1"
						x="49.444" y="69.592" 
						transform="rotate(170 49.494 69.832)" 	
						fill="rgb(74,11,129)" /><use xlink:href="#leaf4"
						x="49.444" y="69.592" 
						transform="rotate(-66 49.444 69.592)" 	
						fill="rgb(53,11,133)" /><use xlink:href="#leaf3"
						x="49.444" y="69.592" 
						transform="rotate(-141 49.444 69.592)" 	
						fill="rgb(62,19,110)" /><use xlink:href="#leaf3"
						x="49.444" y="69.592" 
						transform="rotate(-13 49.444 69.592)" 	
						fill="rgb(79,7,126)" /><use xlink:href="#leaf4"
						x="49.444" y="69.592" 
						transform="rotate(-129 49.494 70.562)" 	
						fill="rgb(71,15,128)" /><use xlink:href="#leaf1"
						x="49.444" y="69.592" 
						transform="rotate(-77 49.444 69.592)" 	
						fill="rgb(75,2,97)" /><use xlink:href="#leaf4"
						x="49.444" y="69.592" 
						transform="rotate(105 49.574 70.482)" 	
						fill="rgb(59,28,125)" /><use xlink:href="#leaf3"
						x="49.444" y="69.592" 
						transform="rotate(-96 49.444 69.592)" 	
						fill="rgb(53,33,98)" /><use xlink:href="#leaf3"
						x="49.444" y="69.592" 
						transform="rotate(121 49.444 69.592)" 	
						fill="rgb(70,21,131)" /><use xlink:href="#leaf4"
						x="49.444" y="69.592" 
						transform="rotate(163 49.934 70.582)" 	
						fill="rgb(75,4,131)" /><use xlink:href="#leaf1"
						x="49.444" y="69.592" 
						transform="rotate(-30 49.444 69.592)" 	
						fill="rgb(49,11,105)" /><use xlink:href="#leaf2"
						x="49.444" y="69.592" 
						transform="rotate(-3 50.004 70.192)" 	
						fill="rgb(54,18,120)" /><use xlink:href="#leaf3"
						x="49.444" y="69.592" 
						transform="rotate(2 49.444 69.592)" 	
						fill="rgb(79,23,100)" /><use xlink:href="#leaf4"
						x="49.444" y="69.592" 
						transform="rotate(95 50.154 69.842)" 	
						fill="rgb(56,3,96)" /><use xlink:href="#leaf2"
						x="49.444" y="69.592" 
						transform="rotate(-172 49.864 70.102)" 	
						fill="rgb(54,36,125)" />
					<g>
					<path d ="M 58.24,78.16 
					a 86 516 16.32 0 1 3.444,-8.088" fill ="none" stroke ="rgb(131.5,151.5,141.5)" stroke-width ="1.332"/></g><circle cx="61.684" cy="70.072" r="0.333" stroke="rgb(136.5,156.5,146.5)" fill="rgb(131.5,151.5,141.5)"/><use xlink:href="#leaf1"
						x="61.684" y="70.072" 
						transform="rotate(-125 61.684 70.072)" 	
						fill="rgb(62,15,105)" /><use xlink:href="#leaf2"
						x="61.684" y="70.072" 
						transform="rotate(148 61.824 70.662)" 	
						fill="rgb(46,12,135)" /><use xlink:href="#leaf3"
						x="61.684" y="70.072" 
						transform="rotate(143 62.294 70.342)" 	
						fill="rgb(79,20,121)" /><use xlink:href="#leaf3"
						x="61.684" y="70.072" 
						transform="rotate(100 62.024 70.622)" 	
						fill="rgb(62,19,125)" /><use xlink:href="#leaf1"
						x="61.684" y="70.072" 
						transform="rotate(-172 61.684 70.072)" 	
						fill="rgb(78,9,108)" /><use xlink:href="#leaf1"
						x="61.684" y="70.072" 
						transform="rotate(156 61.684 70.072)" 	
						fill="rgb(53,33,132)" /><use xlink:href="#leaf4"
						x="61.684" y="70.072" 
						transform="rotate(-125 62.134 70.542)" 	
						fill="rgb(68,36,109)" /><use xlink:href="#leaf1"
						x="61.684" y="70.072" 
						transform="rotate(-3 61.684 70.072)" 	
						fill="rgb(70,23,100)" /><use xlink:href="#leaf4"
						x="61.684" y="70.072" 
						transform="rotate(-105 61.684 70.072)" 	
						fill="rgb(71,14,104)" /><use xlink:href="#leaf4"
						x="61.684" y="70.072" 
						transform="rotate(122 61.684 70.072)" 	
						fill="rgb(64,20,98)" /><use xlink:href="#leaf3"
						x="61.684" y="70.072" 
						transform="rotate(129 61.684 70.072)" 	
						fill="rgb(75,16,102)" /><use xlink:href="#leaf1"
						x="61.684" y="70.072" 
						transform="rotate(-16 61.714 70.972)" 	
						fill="rgb(70,30,131)" />
					<g>
					<path d ="M 58.24,78.16 
					a 71 355 17.65 0 1 -4.56,-10.032" fill ="none" stroke ="rgb(134.5,154.5,140.5)" stroke-width ="1.332"/></g><circle cx="53.68" cy="68.128" r="0.333" stroke="rgb(139.5,159.5,145.5)" fill="rgb(134.5,154.5,140.5)"/><use xlink:href="#leaf1"
						x="53.68" y="68.128" 
						transform="rotate(52 53.68 68.128)" 	
						fill="rgb(42,35,122)" /><use xlink:href="#leaf2"
						x="53.68" y="68.128" 
						transform="rotate(143 54.35 68.978)" 	
						fill="rgb(71,15,130)" /><use xlink:href="#leaf3"
						x="53.68" y="68.128" 
						transform="rotate(-102 53.68 68.128)" 	
						fill="rgb(66,36,110)" /><use xlink:href="#leaf1"
						x="53.68" y="68.128" 
						transform="rotate(-170 54.66 68.988)" 	
						fill="rgb(66,22,112)" /><use xlink:href="#leaf1"
						x="53.68" y="68.128" 
						transform="rotate(-106 54.03 68.738)" 	
						fill="rgb(70,32,134)" /><use xlink:href="#leaf1"
						x="53.68" y="68.128" 
						transform="rotate(-75 53.96 68.758)" 	
						fill="rgb(44,33,99)" /><use xlink:href="#leaf1"
						x="53.68" y="68.128" 
						transform="rotate(-99 53.68 68.128)" 	
						fill="rgb(45,40,120)" /><use xlink:href="#leaf1"
						x="53.68" y="68.128" 
						transform="rotate(92 53.68 68.128)" 	
						fill="rgb(81,36,133)" /><use xlink:href="#leaf4"
						x="53.68" y="68.128" 
						transform="rotate(28 54.32 68.458)" 	
						fill="rgb(63,25,129)" /><use xlink:href="#flower4" id="fleur30"
							x="53.68" y="68.128" 
							transform="rotate(44 54.16 69.112)" />
					<g>
					<path d ="M 53.68,68.128 
					a 93 930 2.53 0 0 7.86,2.28" fill ="none" stroke ="rgb(134,155,140)" stroke-width ="0.888"/></g><circle cx="61.54" cy="70.408" r="0.222" stroke="rgb(139,160,145)" fill="rgb(134,155,140)"/><use xlink:href="#leaf1"
						x="61.54" y="70.408" 
						transform="rotate(-54 61.78 70.438)" 	
						fill="rgb(65,24,98)" /><use xlink:href="#leaf2"
						x="61.54" y="70.408" 
						transform="rotate(-147 61.54 70.408)" 	
						fill="rgb(52,16,101)" /><use xlink:href="#leaf1"
						x="61.54" y="70.408" 
						transform="rotate(117 62.53 70.898)" 	
						fill="rgb(64,23,102)" /><use xlink:href="#leaf1"
						x="61.54" y="70.408" 
						transform="rotate(155 61.54 70.408)" 	
						fill="rgb(65,13,95)" /><use xlink:href="#flower1" id="fleur40"
							x="61.54" y="70.408" 
							transform="rotate(-40 61.54 70.408)" /><use xlink:href="#flower1" id="fleur41"
							x="61.54" y="70.408" 
							transform="rotate(-71 61.54 70.408)" />
					<g>
					<path d ="M 53.68,68.128 
					a 96 384 -5.20 0 1 -10.116,-10.212" fill ="none" stroke ="rgb(134.5,156.5,140.5)" stroke-width ="0.888"/></g><circle cx="43.564" cy="57.916" r="0.222" stroke="rgb(139.5,161.5,145.5)" fill="rgb(134.5,156.5,140.5)"/><use xlink:href="#leaf3"
						x="43.564" y="57.916" 
						transform="rotate(-94 43.684 58.496)" 	
						fill="rgb(71,6,115)" /><use xlink:href="#leaf4"
						x="43.564" y="57.916" 
						transform="rotate(-31 43.564 57.916)" 	
						fill="rgb(53,5,97)" /><use xlink:href="#leaf3"
						x="43.564" y="57.916" 
						transform="rotate(-85 44.274 58.736)" 	
						fill="rgb(52,19,114)" /><use xlink:href="#leaf1"
						x="43.564" y="57.916" 
						transform="rotate(133 43.564 57.916)" 	
						fill="rgb(65,40,102)" /><use xlink:href="#leaf2"
						x="43.564" y="57.916" 
						transform="rotate(50 43.834 58.626)" 	
						fill="rgb(63,24,110)" /><use xlink:href="#leaf5"
						x="43.564" y="57.916" 
						transform="rotate(2 43.864 58.266)" 	
						fill="rgb(43,7,97)" /><use xlink:href="#leaf1"
						x="43.564" y="57.916" 
						transform="rotate(-31 43.564 57.916)" 	
						fill="rgb(59,20,124)" /><use xlink:href="#leaf4"
						x="43.564" y="57.916" 
						transform="rotate(55 43.564 57.916)" 	
						fill="rgb(66,2,123)" /><use xlink:href="#leaf3"
						x="43.564" y="57.916" 
						transform="rotate(-179 44.434 58.886)" 	
						fill="rgb(43,39,131)" /><use xlink:href="#leaf1"
						x="43.564" y="57.916" 
						transform="rotate(-133 43.564 57.916)" 	
						fill="rgb(45,36,108)" /><use xlink:href="#leaf4"
						x="43.564" y="57.916" 
						transform="rotate(-141 43.564 57.916)" 	
						fill="rgb(68,38,102)" /><use xlink:href="#leaf4"
						x="43.564" y="57.916" 
						transform="rotate(77 43.564 57.916)" 	
						fill="rgb(55,25,105)" /><use xlink:href="#leaf4"
						x="43.564" y="57.916" 
						transform="rotate(-49 44.154 58.286)" 	
						fill="rgb(42,29,111)" /><use xlink:href="#leaf3"
						x="43.564" y="57.916" 
						transform="rotate(-99 43.784 58.166)" 	
						fill="rgb(82,26,111)" /><use xlink:href="#flower3" id="fleur50"
							x="43.564" y="57.916" 
							transform="rotate(75 43.912 58.192)" />
					<g>
					<path d ="M 53.68,68.128 
					a 70 420 -1.13 0 1 -12.156,-9.948" fill ="none" stroke ="rgb(137,156,144)" stroke-width ="0.888"/></g><circle cx="41.524" cy="58.18" r="0.222" stroke="rgb(142,161,149)" fill="rgb(137,156,144)"/><use xlink:href="#leaf4"
						x="41.524" y="58.18" 
						transform="rotate(-38 41.894 58.69)" 	
						fill="rgb(61,27,115)" /><use xlink:href="#leaf1"
						x="41.524" y="58.18" 
						transform="rotate(17 41.524 58.18)" 	
						fill="rgb(55,21,96)" /><use xlink:href="#leaf1"
						x="41.524" y="58.18" 
						transform="rotate(-168 41.604 58.83)" 	
						fill="rgb(74,33,127)" /><use xlink:href="#leaf2"
						x="41.524" y="58.18" 
						transform="rotate(-17 42.154 58.58)" 	
						fill="rgb(56,15,116)" /><use xlink:href="#leaf5"
						x="41.524" y="58.18" 
						transform="rotate(69 42.434 59.03)" 	
						fill="rgb(42,11,130)" /><use xlink:href="#leaf2"
						x="41.524" y="58.18" 
						transform="rotate(-52 41.524 58.18)" 	
						fill="rgb(67,40,124)" /><use xlink:href="#leaf5"
						x="41.524" y="58.18" 
						transform="rotate(-115 42.434 58.26)" 	
						fill="rgb(55,28,100)" /><use xlink:href="#leaf4"
						x="41.524" y="58.18" 
						transform="rotate(-116 42.234 58.52)" 	
						fill="rgb(76,30,101)" /><use xlink:href="#leaf2"
						x="41.524" y="58.18" 
						transform="rotate(75 41.524 58.18)" 	
						fill="rgb(59,15,126)" /><use xlink:href="#leaf3"
						x="41.524" y="58.18" 
						transform="rotate(136 41.794 58.9)" 	
						fill="rgb(72,31,99)" /><use xlink:href="#leaf4"
						x="41.524" y="58.18" 
						transform="rotate(-70 42.254 58.34)" 	
						fill="rgb(79,35,135)" /><use xlink:href="#leaf2"
						x="41.524" y="58.18" 
						transform="rotate(-104 42.274 58.18)" 	
						fill="rgb(80,19,118)" /><use xlink:href="#leaf4"
						x="41.524" y="58.18" 
						transform="rotate(3 41.524 58.18)" 	
						fill="rgb(49,1,122)" /><use xlink:href="#leaf1"
						x="41.524" y="58.18" 
						transform="rotate(32 41.664 58.53)" 	
						fill="rgb(77,39,96)" /><use xlink:href="#leaf4"
						x="41.524" y="58.18" 
						transform="rotate(-117 41.524 58.18)" 	
						fill="rgb(43,4,112)" /><use xlink:href="#leaf5"
						x="41.524" y="58.18" 
						transform="rotate(53 41.524 58.18)" 	
						fill="rgb(42,39,109)" />
					<g>
					<path d ="M 41.524,58.18 
					a 67 402 0.8 0 1 10.224,-9.24" fill ="none" stroke ="rgb(137,159,146)" stroke-width ="0.666"/></g><circle cx="51.748" cy="48.94" r="0.1665" stroke="rgb(142,164,151)" fill="rgb(137,159,146)"/><use xlink:href="#leaf3"
						x="51.748" y="48.94" 
						transform="rotate(-71 51.748 48.94)" 	
						fill="rgb(54,30,121)" /><use xlink:href="#leaf3"
						x="51.748" y="48.94" 
						transform="rotate(18 51.748 48.94)" 	
						fill="rgb(53,5,113)" /><use xlink:href="#leaf4"
						x="51.748" y="48.94" 
						transform="rotate(29 51.748 48.94)" 	
						fill="rgb(69,3,112)" /><use xlink:href="#leaf2"
						x="51.748" y="48.94" 
						transform="rotate(51 51.748 48.94)" 	
						fill="rgb(42,30,126)" /><use xlink:href="#leaf2"
						x="51.748" y="48.94" 
						transform="rotate(44 52.558 49.88)" 	
						fill="rgb(52,14,125)" /><use xlink:href="#leaf3"
						x="51.748" y="48.94" 
						transform="rotate(-14 51.878 49.05)" 	
						fill="rgb(55,6,129)" /><use xlink:href="#leaf4"
						x="51.748" y="48.94" 
						transform="rotate(-128 51.748 48.94)" 	
						fill="rgb(79,29,111)" /><use xlink:href="#leaf5"
						x="51.748" y="48.94" 
						transform="rotate(-139 51.748 48.94)" 	
						fill="rgb(79,4,132)" /><use xlink:href="#leaf6"
						x="51.748" y="48.94" 
						transform="rotate(-118 51.818 49.66)" 	
						fill="rgb(66,17,119)" /><use xlink:href="#leaf4"
						x="51.748" y="48.94" 
						transform="rotate(-152 51.748 48.94)" 	
						fill="rgb(73,30,114)" /><use xlink:href="#flower4" id="fleur70"
							x="51.748" y="48.94" 
							transform="rotate(166 51.748 48.94)" />
					<g>
					<path d ="M 41.524,58.18 
					a 86 430 13.38 0 1 -12.996,0.804" fill ="none" stroke ="rgb(140,160,150)" stroke-width ="0.666"/></g><circle cx="28.528" cy="58.984" r="0.1665" stroke="rgb(145,165,155)" fill="rgb(140,160,150)"/><use xlink:href="#leaf2"
						x="28.528" y="58.984" 
						transform="rotate(-155 28.528 58.984)" 	
						fill="rgb(80,33,126)" /><use xlink:href="#leaf4"
						x="28.528" y="58.984" 
						transform="rotate(172 28.528 58.984)" 	
						fill="rgb(50,18,103)" /><use xlink:href="#leaf6"
						x="28.528" y="58.984" 
						transform="rotate(-46 28.528 58.984)" 	
						fill="rgb(77,20,114)" /><use xlink:href="#leaf2"
						x="28.528" y="58.984" 
						transform="rotate(169 28.898 59.384)" 	
						fill="rgb(47,1,97)" /><use xlink:href="#leaf2"
						x="28.528" y="58.984" 
						transform="rotate(-124 29.398 59.504)" 	
						fill="rgb(70,39,115)" /><use xlink:href="#leaf6"
						x="28.528" y="58.984" 
						transform="rotate(139 28.528 58.984)" 	
						fill="rgb(57,27,126)" /><use xlink:href="#leaf6"
						x="28.528" y="58.984" 
						transform="rotate(-141 28.528 58.984)" 	
						fill="rgb(42,3,129)" /><use xlink:href="#leaf6"
						x="28.528" y="58.984" 
						transform="rotate(-164 28.678 59.204)" 	
						fill="rgb(67,22,129)" /><use xlink:href="#leaf6"
						x="28.528" y="58.984" 
						transform="rotate(90 28.528 58.984)" 	
						fill="rgb(57,16,124)" /><use xlink:href="#leaf4"
						x="28.528" y="58.984" 
						transform="rotate(9 28.528 58.984)" 	
						fill="rgb(79,35,100)" /><use xlink:href="#leaf5"
						x="28.528" y="58.984" 
						transform="rotate(76 28.848 59.304)" 	
						fill="rgb(49,32,97)" /><use xlink:href="#leaf6"
						x="28.528" y="58.984" 
						transform="rotate(48 28.528 58.984)" 	
						fill="rgb(73,34,113)" /><use xlink:href="#leaf4"
						x="28.528" y="58.984" 
						transform="rotate(118 28.528 58.984)" 	
						fill="rgb(81,32,103)" /><use xlink:href="#leaf2"
						x="28.528" y="58.984" 
						transform="rotate(-131 28.528 58.984)" 	
						fill="rgb(54,27,117)" /><use xlink:href="#leaf4"
						x="28.528" y="58.984" 
						transform="rotate(77 28.988 59.694)" 	
						fill="rgb(42,9,130)" /><use xlink:href="#leaf3"
						x="28.528" y="58.984" 
						transform="rotate(-28 28.528 58.984)" 	
						fill="rgb(73,34,113)" /><use xlink:href="#leaf4"
						x="28.528" y="58.984" 
						transform="rotate(-79 28.848 59.344)" 	
						fill="rgb(48,19,112)" />
					<g>
					<path d ="M 41.524,58.18 
					a 92 184 -14.19 0 1 7.8,-5.52" fill ="none" stroke ="rgb(143,162,151)" stroke-width ="0.666"/></g><circle cx="49.324" cy="52.66" r="0.1665" stroke="rgb(148,167,156)" fill="rgb(143,162,151)"/><use xlink:href="#leaf6"
						x="49.324" y="52.66" 
						transform="rotate(11 49.324 52.66)" 	
						fill="rgb(59,12,104)" /><use xlink:href="#leaf3"
						x="49.324" y="52.66" 
						transform="rotate(89 49.324 52.66)" 	
						fill="rgb(54,8,123)" /><use xlink:href="#leaf4"
						x="49.324" y="52.66" 
						transform="rotate(142 50.234 52.82)" 	
						fill="rgb(60,31,114)" /><use xlink:href="#leaf3"
						x="49.324" y="52.66" 
						transform="rotate(-137 49.324 52.66)" 	
						fill="rgb(82,40,119)" /><use xlink:href="#leaf6"
						x="49.324" y="52.66" 
						transform="rotate(-40 50.144 52.68)" 	
						fill="rgb(77,38,107)" /><use xlink:href="#leaf3"
						x="49.324" y="52.66" 
						transform="rotate(113 49.664 52.98)" 	
						fill="rgb(75,14,104)" /><use xlink:href="#leaf2"
						x="49.324" y="52.66" 
						transform="rotate(84 49.324 52.66)" 	
						fill="rgb(60,29,110)" /><use xlink:href="#leaf6"
						x="49.324" y="52.66" 
						transform="rotate(-90 50.184 53.61)" 	
						fill="rgb(68,7,107)" /><use xlink:href="#leaf2"
						x="49.324" y="52.66" 
						transform="rotate(-72 49.324 52.66)" 	
						fill="rgb(54,24,98)" /><use xlink:href="#leaf3"
						x="49.324" y="52.66" 
						transform="rotate(-112 49.324 52.66)" 	
						fill="rgb(54,1,135)" /><use xlink:href="#leaf4"
						x="49.324" y="52.66" 
						transform="rotate(-39 49.824 53.25)" 	
						fill="rgb(42,34,96)" /><use xlink:href="#leaf4"
						x="49.324" y="52.66" 
						transform="rotate(-172 49.324 52.66)" 	
						fill="rgb(73,18,117)" /><use xlink:href="#leaf2"
						x="49.324" y="52.66" 
						transform="rotate(106 50.214 53.31)" 	
						fill="rgb(61,19,96)" /><use xlink:href="#leaf4"
						x="49.324" y="52.66" 
						transform="rotate(-171 49.324 52.66)" 	
						fill="rgb(69,34,100)" /><use xlink:href="#leaf3"
						x="49.324" y="52.66" 
						transform="rotate(145 49.714 53.08)" 	
						fill="rgb(60,40,134)" /><use xlink:href="#leaf3"
						x="49.324" y="52.66" 
						transform="rotate(-148 49.324 52.66)" 	
						fill="rgb(44,9,107)" /><use xlink:href="#leaf5"
						x="49.324" y="52.66" 
						transform="rotate(132 49.424 53.39)" 	
						fill="rgb(76,16,115)" /><use xlink:href="#leaf5"
						x="49.324" y="52.66" 
						transform="rotate(48 49.324 52.66)" 	
						fill="rgb(81,9,98)" /><use xlink:href="#flower5" id="fleur90"
							x="49.324" y="52.66" 
							transform="rotate(-146 49.324 52.66)" />
					<g>
					<path d ="M 49.324,52.66 
					a 53 530 18.42 0 0 11.412,5.688" fill ="none" stroke ="rgb(143.5,166.5,151.5)" stroke-width ="0.5328"/></g><circle cx="60.736" cy="58.348" r="0.1332" stroke="rgb(148.5,171.5,156.5)" fill="rgb(143.5,166.5,151.5)"/><use xlink:href="#leaf7"
						x="60.736" y="58.348" 
						transform="rotate(-156 60.736 58.348)" 	
						fill="rgb(71,21,126)" /><use xlink:href="#leaf4"
						x="60.736" y="58.348" 
						transform="rotate(54 61.126 59.218)" 	
						fill="rgb(78,11,116)" /><use xlink:href="#leaf6"
						x="60.736" y="58.348" 
						transform="rotate(16 61.346 59.138)" 	
						fill="rgb(46,38,109)" /><use xlink:href="#leaf6"
						x="60.736" y="58.348" 
						transform="rotate(146 60.736 58.348)" 	
						fill="rgb(79,14,104)" /><use xlink:href="#leaf5"
						x="60.736" y="58.348" 
						transform="rotate(116 61.676 58.888)" 	
						fill="rgb(75,22,124)" /><use xlink:href="#leaf6"
						x="60.736" y="58.348" 
						transform="rotate(-147 60.736 58.348)" 	
						fill="rgb(58,8,127)" /><use xlink:href="#leaf3"
						x="60.736" y="58.348" 
						transform="rotate(178 60.736 58.348)" 	
						fill="rgb(57,40,115)" /><use xlink:href="#leaf6"
						x="60.736" y="58.348" 
						transform="rotate(-128 60.736 58.348)" 	
						fill="rgb(52,12,126)" /><use xlink:href="#flower6" id="fleur100"
							x="60.736" y="58.348" 
							transform="rotate(80 60.736 58.348)" /><use xlink:href="#flower6" id="fleur101"
							x="60.736" y="58.348" 
							transform="rotate(86 61.756 58.552)" />
					<g>
					<path d ="M 52,91 
					a 73 584 -14.12 0 1 5.4,-22.836" fill ="none" stroke ="rgb(144,168,152)" stroke-width ="2.664"/></g><circle cx="57.4" cy="68.164" r="0.666" stroke="rgb(149,173,157)" fill="rgb(144,168,152)"/><use xlink:href="#leaf1"
						x="57.4" y="68.164" 
						transform="rotate(35 57.4 68.164)" 	
						fill="rgb(79,16,113)" /><use xlink:href="#leaf1"
						x="57.4" y="68.164" 
						transform="rotate(-54 57.88 68.994)" 	
						fill="rgb(69,13,101)" /><use xlink:href="#leaf1"
						x="57.4" y="68.164" 
						transform="rotate(-168 58.1 68.404)" 	
						fill="rgb(79,4,104)" /><use xlink:href="#leaf1"
						x="57.4" y="68.164" 
						transform="rotate(138 57.4 68.164)" 	
						fill="rgb(64,35,101)" /><use xlink:href="#leaf3"
						x="57.4" y="68.164" 
						transform="rotate(-28 57.8 68.554)" 	
						fill="rgb(66,13,108)" /><use xlink:href="#leaf1"
						x="57.4" y="68.164" 
						transform="rotate(16 57.4 68.164)" 	
						fill="rgb(78,23,100)" /><use xlink:href="#leaf3"
						x="57.4" y="68.164" 
						transform="rotate(-14 57.4 68.164)" 	
						fill="rgb(55,5,118)" /><use xlink:href="#leaf1"
						x="57.4" y="68.164" 
						transform="rotate(-37 57.99 69.014)" 	
						fill="rgb(46,14,119)" /><use xlink:href="#leaf3"
						x="57.4" y="68.164" 
						transform="rotate(135 57.58 68.444)" 	
						fill="rgb(74,19,97)" />
					<g>
					<path d ="M 52,91 
					a 60 180 -14.77 0 0 4.932,-21.636" fill ="none" stroke ="rgb(145.5,169.5,153.5)" stroke-width ="2.664"/></g><circle cx="56.932" cy="69.364" r="0.666" stroke="rgb(150.5,174.5,158.5)" fill="rgb(145.5,169.5,153.5)"/><use xlink:href="#leaf1"
						x="56.932" y="69.364" 
						transform="rotate(-23 56.932 69.364)" 	
						fill="rgb(58,2,115)" /><use xlink:href="#leaf1"
						x="56.932" y="69.364" 
						transform="rotate(-52 57.702 70.074)" 	
						fill="rgb(58,32,121)" /><use xlink:href="#leaf1"
						x="56.932" y="69.364" 
						transform="rotate(7 57.012 69.894)" 	
						fill="rgb(68,22,109)" /><use xlink:href="#leaf1"
						x="56.932" y="69.364" 
						transform="rotate(126 57.272 69.784)" 	
						fill="rgb(66,37,135)" /><use xlink:href="#leaf1"
						x="56.932" y="69.364" 
						transform="rotate(-18 56.932 69.364)" 	
						fill="rgb(54,16,113)" /><use xlink:href="#leaf3"
						x="56.932" y="69.364" 
						transform="rotate(0 57.322 70.194)" 	
						fill="rgb(64,28,118)" /><use xlink:href="#leaf1"
						x="56.932" y="69.364" 
						transform="rotate(32 56.932 69.364)" 	
						fill="rgb(63,22,123)" /><use xlink:href="#leaf1"
						x="56.932" y="69.364" 
						transform="rotate(-95 57.552 69.584)" 	
						fill="rgb(53,26,135)" /><use xlink:href="#leaf1"
						x="56.932" y="69.364" 
						transform="rotate(180 57.522 70.224)" 	
						fill="rgb(50,41,99)" /><use xlink:href="#leaf1"
						x="56.932" y="69.364" 
						transform="rotate(1 56.932 69.364)" 	
						fill="rgb(70,3,127)" /><use xlink:href="#leaf2"
						x="56.932" y="69.364" 
						transform="rotate(-107 57.742 69.884)" 	
						fill="rgb(52,12,130)" /><use xlink:href="#leaf1"
						x="56.932" y="69.364" 
						transform="rotate(-68 56.932 69.364)" 	
						fill="rgb(63,15,123)" /><use xlink:href="#leaf3"
						x="56.932" y="69.364" 
						transform="rotate(78 56.932 69.364)" 	
						fill="rgb(64,25,123)" /><use xlink:href="#leaf1"
						x="56.932" y="69.364" 
						transform="rotate(-180 56.932 69.364)" 	
						fill="rgb(63,1,120)" /><use xlink:href="#leaf1"
						x="56.932" y="69.364" 
						transform="rotate(141 56.932 69.364)" 	
						fill="rgb(60,41,124)" />
					<g>
					<path d ="M 52,91 
					a 96 384 14.30 0 0 0.48,-20.94" fill ="none" stroke ="rgb(145,169,155)" stroke-width ="2.664"/></g><circle cx="52.48" cy="70.06" r="0.666" stroke="rgb(150,174,160)" fill="rgb(145,169,155)"/><use xlink:href="#leaf3"
						x="52.48" y="70.06" 
						transform="rotate(-164 52.48 70.06)" 	
						fill="rgb(70,4,113)" /><use xlink:href="#leaf2"
						x="52.48" y="70.06" 
						transform="rotate(24 52.48 70.06)" 	
						fill="rgb(43,26,124)" /><use xlink:href="#leaf1"
						x="52.48" y="70.06" 
						transform="rotate(-68 53.38 70.81)" 	
						fill="rgb(66,29,104)" /><use xlink:href="#leaf1"
						x="52.48" y="70.06" 
						transform="rotate(35 52.48 70.06)" 	
						fill="rgb(62,17,126)" /><use xlink:href="#leaf1"
						x="52.48" y="70.06" 
						transform="rotate(-95 52.61 71.01)" 	
						fill="rgb(73,34,122)" /><use xlink:href="#leaf2"
						x="52.48" y="70.06" 
						transform="rotate(16 52.48 70.06)" 	
						fill="rgb(66,3,116)" /><use xlink:href="#leaf1"
						x="52.48" y="70.06" 
						transform="rotate(122 52.72 70.26)" 	
						fill="rgb(65,24,127)" /><use xlink:href="#leaf3"
						x="52.48" y="70.06" 
						transform="rotate(-180 53.05 70.36)" 	
						fill="rgb(48,7,132)" />
					<g>
					<path d ="M 52,91 
					a 86 516 -15.93 0 1 0.48,-19.8" fill ="none" stroke ="rgb(143.5,170.5,156.5)" stroke-width ="2.664"/></g><circle cx="52.48" cy="71.2" r="0.666" stroke="rgb(148.5,175.5,161.5)" fill="rgb(143.5,170.5,156.5)"/><use xlink:href="#leaf3"
						x="52.48" y="71.2" 
						transform="rotate(-108 52.69 71.41)" 	
						fill="rgb(68,41,115)" /><use xlink:href="#leaf1"
						x="52.48" y="71.2" 
						transform="rotate(130 52.94 71.72)" 	
						fill="rgb(55,41,105)" /><use xlink:href="#leaf1"
						x="52.48" y="71.2" 
						transform="rotate(-104 53.24 71.31)" 	
						fill="rgb(63,34,96)" /><use xlink:href="#leaf2"
						x="52.48" y="71.2" 
						transform="rotate(109 52.48 71.2)" 	
						fill="rgb(53,20,119)" /><use xlink:href="#leaf1"
						x="52.48" y="71.2" 
						transform="rotate(37 52.48 71.2)" 	
						fill="rgb(54,23,132)" /><use xlink:href="#leaf1"
						x="52.48" y="71.2" 
						transform="rotate(128 52.48 71.2)" 	
						fill="rgb(42,19,100)" />
					<g>
					<path d ="M 52,91 
					a 92 276 -17.3 0 0 10.176,-20.1" fill ="none" stroke ="rgb(145,172,159)" stroke-width ="2.664"/></g><circle cx="62.176" cy="70.9" r="0.666" stroke="rgb(150,177,164)" fill="rgb(145,172,159)"/><use xlink:href="#leaf3"
						x="62.176" y="70.9" 
						transform="rotate(103 62.176 70.9)" 	
						fill="rgb(82,10,114)" /><use xlink:href="#leaf2"
						x="62.176" y="70.9" 
						transform="rotate(-180 62.176 70.9)" 	
						fill="rgb(67,20,107)" /><use xlink:href="#leaf2"
						x="62.176" y="70.9" 
						transform="rotate(109 62.176 70.9)" 	
						fill="rgb(61,14,125)" /><use xlink:href="#leaf1"
						x="62.176" y="70.9" 
						transform="rotate(-44 62.176 70.9)" 	
						fill="rgb(58,26,97)" /><use xlink:href="#leaf1"
						x="62.176" y="70.9" 
						transform="rotate(-97 62.656 70.95)" 	
						fill="rgb(68,11,122)" /><use xlink:href="#leaf2"
						x="62.176" y="70.9" 
						transform="rotate(127 63.096 71.05)" 	
						fill="rgb(64,17,121)" /><use xlink:href="#leaf1"
						x="62.176" y="70.9" 
						transform="rotate(101 62.676 70.94)" 	
						fill="rgb(81,32,118)" /><use xlink:href="#leaf3"
						x="62.176" y="70.9" 
						transform="rotate(118 62.886 71.83)" 	
						fill="rgb(64,39,120)" /><use xlink:href="#leaf1"
						x="62.176" y="70.9" 
						transform="rotate(46 62.636 70.99)" 	
						fill="rgb(43,4,120)" /><use xlink:href="#leaf2"
						x="62.176" y="70.9" 
						transform="rotate(29 62.176 70.9)" 	
						fill="rgb(74,15,107)" /><use xlink:href="#leaf1"
						x="62.176" y="70.9" 
						transform="rotate(-22 62.176 70.9)" 	
						fill="rgb(44,1,120)" /><use xlink:href="#leaf1"
						x="62.176" y="70.9" 
						transform="rotate(168 62.176 70.9)" 	
						fill="rgb(46,15,111)" /><use xlink:href="#leaf1"
						x="62.176" y="70.9" 
						transform="rotate(55 62.176 70.9)" 	
						fill="rgb(45,34,110)" /><use xlink:href="#leaf1"
						x="62.176" y="70.9" 
						transform="rotate(-142 62.176 70.9)" 	
						fill="rgb(58,6,132)" /><use xlink:href="#leaf1"
						x="62.176" y="70.9" 
						transform="rotate(-16 62.946 71.46)" 	
						fill="rgb(78,18,126)" />
					<g>
					<path d ="M 62.176,70.9 
					a 70 70 -15.48 0 0 10.728,-4.2" fill ="none" stroke ="rgb(146,175,158)" stroke-width ="1.332"/></g><circle cx="72.904" cy="66.7" r="0.333" stroke="rgb(151,180,163)" fill="rgb(146,175,158)"/><use xlink:href="#leaf1"
						x="72.904" y="66.7" 
						transform="rotate(-96 73.564 67.64)" 	
						fill="rgb(71,6,109)" /><use xlink:href="#leaf4"
						x="72.904" y="66.7" 
						transform="rotate(44 73.084 67.14)" 	
						fill="rgb(47,25,105)" /><use xlink:href="#leaf3"
						x="72.904" y="66.7" 
						transform="rotate(-169 72.904 66.7)" 	
						fill="rgb(74,40,104)" /><use xlink:href="#leaf4"
						x="72.904" y="66.7" 
						transform="rotate(-174 72.904 66.7)" 	
						fill="rgb(42,3,135)" /><use xlink:href="#leaf1"
						x="72.904" y="66.7" 
						transform="rotate(-153 72.904 66.7)" 	
						fill="rgb(58,18,122)" /><use xlink:href="#leaf3"
						x="72.904" y="66.7" 
						transform="rotate(-59 72.904 66.7)" 	
						fill="rgb(76,19,106)" /><use xlink:href="#leaf2"
						x="72.904" y="66.7" 
						transform="rotate(180 72.904 66.7)" 	
						fill="rgb(71,22,126)" /><use xlink:href="#leaf4"
						x="72.904" y="66.7" 
						transform="rotate(111 72.904 66.7)" 	
						fill="rgb(68,27,125)" /><use xlink:href="#leaf2"
						x="72.904" y="66.7" 
						transform="rotate(-114 73.484 67.54)" 	
						fill="rgb(70,14,103)" /><use xlink:href="#leaf1"
						x="72.904" y="66.7" 
						transform="rotate(-78 72.904 66.7)" 	
						fill="rgb(71,14,102)" /><use xlink:href="#leaf1"
						x="72.904" y="66.7" 
						transform="rotate(-41 72.904 66.7)" 	
						fill="rgb(79,27,120)" /><use xlink:href="#leaf3"
						x="72.904" y="66.7" 
						transform="rotate(173 72.904 66.7)" 	
						fill="rgb(65,15,100)" /><use xlink:href="#leaf1"
						x="72.904" y="66.7" 
						transform="rotate(-138 73.184 67.13)" 	
						fill="rgb(59,38,117)" /><use xlink:href="#leaf1"
						x="72.904" y="66.7" 
						transform="rotate(129 73.204 67.5)" 	
						fill="rgb(63,22,117)" /><use xlink:href="#leaf4"
						x="72.904" y="66.7" 
						transform="rotate(29 72.904 66.7)" 	
						fill="rgb(74,3,99)" /><use xlink:href="#leaf1"
						x="72.904" y="66.7" 
						transform="rotate(12 73.404 67.67)" 	
						fill="rgb(76,37,98)" /><use xlink:href="#flower1" id="fleur160"
							x="72.904" y="66.7" 
							transform="rotate(156 73.036 67.06)" />
					<g>
					<path d ="M 62.176,70.9 
					a 87 435 -13.17 0 0 -4.332,-10.104" fill ="none" stroke ="rgb(145,178,160)" stroke-width ="1.332"/></g><circle cx="57.844" cy="60.796" r="0.333" stroke="rgb(150,183,165)" fill="rgb(145,178,160)"/><use xlink:href="#leaf4"
						x="57.844" y="60.796" 
						transform="rotate(17 58.014 61.196)" 	
						fill="rgb(63,35,98)" /><use xlink:href="#leaf1"
						x="57.844" y="60.796" 
						transform="rotate(22 57.844 60.796)" 	
						fill="rgb(79,10,99)" /><use xlink:href="#leaf1"
						x="57.844" y="60.796" 
						transform="rotate(-130 57.844 60.796)" 	
						fill="rgb(82,30,131)" /><use xlink:href="#leaf1"
						x="57.844" y="60.796" 
						transform="rotate(-51 58.324 60.946)" 	
						fill="rgb(68,22,125)" /><use xlink:href="#leaf1"
						x="57.844" y="60.796" 
						transform="rotate(-41 57.854 60.886)" 	
						fill="rgb(49,3,119)" /><use xlink:href="#leaf3"
						x="57.844" y="60.796" 
						transform="rotate(-168 58.424 61.066)" 	
						fill="rgb(76,13,106)" /><use xlink:href="#leaf2"
						x="57.844" y="60.796" 
						transform="rotate(97 57.844 60.796)" 	
						fill="rgb(77,1,95)" /><use xlink:href="#leaf3"
						x="57.844" y="60.796" 
						transform="rotate(162 57.844 60.796)" 	
						fill="rgb(77,5,119)" /><use xlink:href="#leaf1"
						x="57.844" y="60.796" 
						transform="rotate(-101 57.844 60.796)" 	
						fill="rgb(43,27,131)" /><use xlink:href="#leaf1"
						x="57.844" y="60.796" 
						transform="rotate(168 58.814 61.036)" 	
						fill="rgb(73,29,129)" /><use xlink:href="#leaf4"
						x="57.844" y="60.796" 
						transform="rotate(-102 58.754 61.476)" 	
						fill="rgb(51,15,123)" /><use xlink:href="#leaf2"
						x="57.844" y="60.796" 
						transform="rotate(160 57.844 60.796)" 	
						fill="rgb(62,41,129)" /><use xlink:href="#leaf2"
						x="57.844" y="60.796" 
						transform="rotate(164 57.844 60.796)" 	
						fill="rgb(57,15,101)" /><use xlink:href="#leaf3"
						x="57.844" y="60.796" 
						transform="rotate(10 57.844 60.796)" 	
						fill="rgb(75,15,124)" /><use xlink:href="#leaf2"
						x="57.844" y="60.796" 
						transform="rotate(15 57.844 60.796)" 	
						fill="rgb(42,13,116)" /><use xlink:href="#leaf3"
						x="57.844" y="60.796" 
						transform="rotate(51 58.784 61.776)" 	
						fill="rgb(73,41,127)" /><use xlink:href="#leaf3"
						x="57.844" y="60.796" 
						transform="rotate(54 57.844 60.796)" 	
						fill="rgb(64,27,115)" /><use xlink:href="#leaf1"
						x="57.844" y="60.796" 
						transform="rotate(175 57.844 60.796)" 	
						fill="rgb(46,13,106)" />
					<g>
					<path d ="M 62.176,70.9 
					a 60 420 15.24 0 0 -3.396,-9.192" fill ="none" stroke ="rgb(144,179,162)" stroke-width ="1.332"/></g><circle cx="58.78" cy="61.708" r="0.333" stroke="rgb(149,184,167)" fill="rgb(144,179,162)"/><use xlink:href="#leaf2"
						x="58.78" y="61.708" 
						transform="rotate(167 58.78 61.708)" 	
						fill="rgb(72,33,132)" /><use xlink:href="#leaf1"
						x="58.78" y="61.708" 
						transform="rotate(175 58.78 61.708)" 	
						fill="rgb(78,21,105)" /><use xlink:href="#leaf2"
						x="58.78" y="61.708" 
						transform="rotate(63 58.78 61.708)" 	
						fill="rgb(58,41,109)" /><use xlink:href="#leaf1"
						x="58.78" y="61.708" 
						transform="rotate(141 58.78 61.708)" 	
						fill="rgb(68,22,126)" /><use xlink:href="#leaf2"
						x="58.78" y="61.708" 
						transform="rotate(122 58.88 61.738)" 	
						fill="rgb(81,31,95)" /><use xlink:href="#leaf1"
						x="58.78" y="61.708" 
						transform="rotate(91 58.78 61.708)" 	
						fill="rgb(70,26,102)" /><use xlink:href="#leaf4"
						x="58.78" y="61.708" 
						transform="rotate(-126 58.78 61.708)" 	
						fill="rgb(70,21,132)" /><use xlink:href="#leaf4"
						x="58.78" y="61.708" 
						transform="rotate(-113 58.78 61.708)" 	
						fill="rgb(70,16,120)" /><use xlink:href="#leaf1"
						x="58.78" y="61.708" 
						transform="rotate(-56 58.78 61.708)" 	
						fill="rgb(51,26,100)" /><use xlink:href="#leaf1"
						x="58.78" y="61.708" 
						transform="rotate(103 58.78 61.708)" 	
						fill="rgb(55,9,124)" /><use xlink:href="#leaf1"
						x="58.78" y="61.708" 
						transform="rotate(54 58.78 61.708)" 	
						fill="rgb(43,1,127)" /><use xlink:href="#leaf3"
						x="58.78" y="61.708" 
						transform="rotate(51 58.78 61.708)" 	
						fill="rgb(63,21,133)" /><use xlink:href="#leaf3"
						x="58.78" y="61.708" 
						transform="rotate(-75 58.78 61.708)" 	
						fill="rgb(50,20,120)" /><use xlink:href="#leaf2"
						x="58.78" y="61.708" 
						transform="rotate(-159 58.78 61.708)" 	
						fill="rgb(77,14,106)" /><use xlink:href="#flower2" id="fleur180"
							x="58.78" y="61.708" 
							transform="rotate(91 58.78 61.708)" />
					<g>
					<path d ="M 58.78,61.708 
					a 98 196 -20.68 0 0 -7.872,-1.776" fill ="none" stroke ="rgb(146.5,180.5,164.5)" stroke-width ="0.888"/></g><circle cx="50.908" cy="59.932" r="0.222" stroke="rgb(151.5,185.5,169.5)" fill="rgb(146.5,180.5,164.5)"/><use xlink:href="#leaf4"
						x="50.908" y="59.932" 
						transform="rotate(163 51.858 60.212)" 	
						fill="rgb(42,38,123)" /><use xlink:href="#leaf4"
						x="50.908" y="59.932" 
						transform="rotate(128 50.908 59.932)" 	
						fill="rgb(71,1,107)" /><use xlink:href="#leaf5"
						x="50.908" y="59.932" 
						transform="rotate(-51 51.858 60.702)" 	
						fill="rgb(76,17,98)" /><use xlink:href="#leaf3"
						x="50.908" y="59.932" 
						transform="rotate(-29 50.908 59.932)" 	
						fill="rgb(56,10,95)" /><use xlink:href="#leaf4"
						x="50.908" y="59.932" 
						transform="rotate(23 51.468 60.572)" 	
						fill="rgb(82,2,124)" /><use xlink:href="#leaf2"
						x="50.908" y="59.932" 
						transform="rotate(116 50.908 59.932)" 	
						fill="rgb(82,37,112)" /><use xlink:href="#leaf4"
						x="50.908" y="59.932" 
						transform="rotate(41 51.468 60.522)" 	
						fill="rgb(56,33,118)" /><use xlink:href="#leaf3"
						x="50.908" y="59.932" 
						transform="rotate(-76 50.908 59.932)" 	
						fill="rgb(69,32,117)" />
					<g>
					<path d ="M 58.78,61.708 
					a 100 300 -6.1 0 1 6.744,-5.4" fill ="none" stroke ="rgb(147,184,168)" stroke-width ="0.888"/></g><circle cx="65.524" cy="56.308" r="0.222" stroke="rgb(152,189,173)" fill="rgb(147,184,168)"/><use xlink:href="#leaf4"
						x="65.524" y="56.308" 
						transform="rotate(81 66.234 56.408)" 	
						fill="rgb(78,6,98)" /><use xlink:href="#leaf5"
						x="65.524" y="56.308" 
						transform="rotate(-162 66.124 56.438)" 	
						fill="rgb(46,12,102)" /><use xlink:href="#leaf5"
						x="65.524" y="56.308" 
						transform="rotate(2 65.524 56.308)" 	
						fill="rgb(46,29,111)" /><use xlink:href="#leaf2"
						x="65.524" y="56.308" 
						transform="rotate(18 65.524 56.308)" 	
						fill="rgb(76,11,131)" /><use xlink:href="#leaf4"
						x="65.524" y="56.308" 
						transform="rotate(-153 65.524 56.308)" 	
						fill="rgb(71,35,116)" /><use xlink:href="#leaf3"
						x="65.524" y="56.308" 
						transform="rotate(-5 66.274 56.828)" 	
						fill="rgb(70,27,110)" />
					<g>
					<path d ="M 58.78,61.708 
					a 70 350 15.82 0 0 -10.464,4.788" fill ="none" stroke ="rgb(147.5,183.5,168.5)" stroke-width ="0.888"/></g><circle cx="48.316" cy="66.496" r="0.222" stroke="rgb(152.5,188.5,173.5)" fill="rgb(147.5,183.5,168.5)"/><use xlink:href="#leaf4"
						x="48.316" y="66.496" 
						transform="rotate(9 48.316 66.496)" 	
						fill="rgb(55,3,104)" /><use xlink:href="#leaf4"
						x="48.316" y="66.496" 
						transform="rotate(-6 48.546 67.316)" 	
						fill="rgb(60,20,108)" /><use xlink:href="#leaf4"
						x="48.316" y="66.496" 
						transform="rotate(18 48.316 66.496)" 	
						fill="rgb(70,6,112)" /><use xlink:href="#leaf1"
						x="48.316" y="66.496" 
						transform="rotate(-120 48.316 66.496)" 	
						fill="rgb(74,33,119)" /><use xlink:href="#leaf1"
						x="48.316" y="66.496" 
						transform="rotate(-4 48.316 66.496)" 	
						fill="rgb(59,5,106)" /><use xlink:href="#leaf5"
						x="48.316" y="66.496" 
						transform="rotate(8 48.316 66.496)" 	
						fill="rgb(59,35,98)" /><use xlink:href="#leaf1"
						x="48.316" y="66.496" 
						transform="rotate(-25 49.166 67.126)" 	
						fill="rgb(44,19,98)" /><use xlink:href="#leaf5"
						x="48.316" y="66.496" 
						transform="rotate(129 49.206 67.136)" 	
						fill="rgb(56,15,101)" /><use xlink:href="#leaf1"
						x="48.316" y="66.496" 
						transform="rotate(-150 48.316 66.496)" 	
						fill="rgb(63,34,130)" /><use xlink:href="#flower1" id="fleur210"
							x="48.316" y="66.496" 
							transform="rotate(143 48.316 66.496)" />
					<g>
					<path d ="M 48.316,66.496 
					a 72 432 -13.68 0 0 2.64,2.568" fill ="none" stroke ="rgb(151.5,186.5,168.5)" stroke-width ="0.666"/></g><circle cx="50.956" cy="69.064" r="0.1665" stroke="rgb(156.5,191.5,173.5)" fill="rgb(151.5,186.5,168.5)"/><use xlink:href="#leaf6"
						x="50.956" y="69.064" 
						transform="rotate(35 51.216 69.884)" 	
						fill="rgb(65,25,111)" /><use xlink:href="#leaf2"
						x="50.956" y="69.064" 
						transform="rotate(40 50.956 69.064)" 	
						fill="rgb(52,40,121)" /><use xlink:href="#leaf6"
						x="50.956" y="69.064" 
						transform="rotate(110 51.166 69.144)" 	
						fill="rgb(59,29,134)" /><use xlink:href="#leaf2"
						x="50.956" y="69.064" 
						transform="rotate(70 50.956 69.064)" 	
						fill="rgb(71,18,131)" /><use xlink:href="#leaf3"
						x="50.956" y="69.064" 
						transform="rotate(90 50.956 69.064)" 	
						fill="rgb(56,41,111)" /><use xlink:href="#leaf5"
						x="50.956" y="69.064" 
						transform="rotate(-142 51.626 69.324)" 	
						fill="rgb(77,19,101)" /><use xlink:href="#leaf4"
						x="50.956" y="69.064" 
						transform="rotate(-142 50.956 69.064)" 	
						fill="rgb(53,1,111)" /><use xlink:href="#leaf5"
						x="50.956" y="69.064" 
						transform="rotate(45 51.016 69.954)" 	
						fill="rgb(51,21,110)" /><use xlink:href="#leaf5"
						x="50.956" y="69.064" 
						transform="rotate(43 50.956 69.064)" 	
						fill="rgb(69,26,124)" /><use xlink:href="#leaf2"
						x="50.956" y="69.064" 
						transform="rotate(43 50.956 69.064)" 	
						fill="rgb(54,7,132)" /><use xlink:href="#flower2" id="fleur220"
							x="50.956" y="69.064" 
							transform="rotate(-138 50.956 69.064)" /><use xlink:href="#flower2" id="fleur221"
							x="50.956" y="69.064" 
							transform="rotate(8 51.016 69.112)" />
					<g>
					<path d ="M 48.316,66.496 
					a 80 400 -7.30 0 1 -8.148,-6.984" fill ="none" stroke ="rgb(153.5,186.5,172.5)" stroke-width ="0.666"/></g><circle cx="40.168" cy="59.512" r="0.1665" stroke="rgb(158.5,191.5,177.5)" fill="rgb(153.5,186.5,172.5)"/><use xlink:href="#leaf6"
						x="40.168" y="59.512" 
						transform="rotate(-57 40.448 60.292)" 	
						fill="rgb(55,36,118)" /><use xlink:href="#leaf2"
						x="40.168" y="59.512" 
						transform="rotate(-93 40.168 59.512)" 	
						fill="rgb(65,17,96)" /><use xlink:href="#leaf3"
						x="40.168" y="59.512" 
						transform="rotate(-133 40.948 59.932)" 	
						fill="rgb(60,26,118)" /><use xlink:href="#leaf2"
						x="40.168" y="59.512" 
						transform="rotate(39 40.748 59.832)" 	
						fill="rgb(79,20,107)" /><use xlink:href="#leaf3"
						x="40.168" y="59.512" 
						transform="rotate(6 40.168 59.512)" 	
						fill="rgb(46,11,96)" /><use xlink:href="#leaf3"
						x="40.168" y="59.512" 
						transform="rotate(46 40.458 60.092)" 	
						fill="rgb(76,30,125)" /><use xlink:href="#leaf2"
						x="40.168" y="59.512" 
						transform="rotate(149 41.158 59.772)" 	
						fill="rgb(57,2,105)" /><use xlink:href="#leaf5"
						x="40.168" y="59.512" 
						transform="rotate(-101 40.168 59.512)" 	
						fill="rgb(50,29,109)" /><use xlink:href="#flower5" id="fleur230"
							x="40.168" y="59.512" 
							transform="rotate(-119 40.816 60.22)" />
					<g>
					<path d ="M 48.316,66.496 
					a 79 474 12.4 0 1 2.544,-7.368" fill ="none" stroke ="rgb(153.5,189.5,176.5)" stroke-width ="0.666"/></g><circle cx="50.86" cy="59.128" r="0.1665" stroke="rgb(158.5,194.5,181.5)" fill="rgb(153.5,189.5,176.5)"/><use xlink:href="#leaf5"
						x="50.86" y="59.128" 
						transform="rotate(-62 51.15 59.628)" 	
						fill="rgb(66,26,126)" /><use xlink:href="#leaf3"
						x="50.86" y="59.128" 
						transform="rotate(164 50.86 59.128)" 	
						fill="rgb(64,26,127)" /><use xlink:href="#leaf4"
						x="50.86" y="59.128" 
						transform="rotate(139 50.86 59.128)" 	
						fill="rgb(66,23,118)" /><use xlink:href="#leaf3"
						x="50.86" y="59.128" 
						transform="rotate(-122 51.17 59.808)" 	
						fill="rgb(53,17,128)" /><use xlink:href="#leaf2"
						x="50.86" y="59.128" 
						transform="rotate(-145 51.42 59.158)" 	
						fill="rgb(65,16,123)" /><use xlink:href="#leaf2"
						x="50.86" y="59.128" 
						transform="rotate(114 51.2 59.128)" 	
						fill="rgb(49,28,118)" /><use xlink:href="#leaf6"
						x="50.86" y="59.128" 
						transform="rotate(160 50.86 59.128)" 	
						fill="rgb(45,15,129)" /><use xlink:href="#leaf4"
						x="50.86" y="59.128" 
						transform="rotate(-9 51.73 59.208)" 	
						fill="rgb(78,16,113)" /><use xlink:href="#leaf5"
						x="50.86" y="59.128" 
						transform="rotate(30 51.62 59.528)" 	
						fill="rgb(55,21,132)" /><use xlink:href="#leaf4"
						x="50.86" y="59.128" 
						transform="rotate(114 50.86 59.128)" 	
						fill="rgb(72,31,132)" /><use xlink:href="#leaf2"
						x="50.86" y="59.128" 
						transform="rotate(129 50.86 59.128)" 	
						fill="rgb(49,23,122)" /><use xlink:href="#leaf4"
						x="50.86" y="59.128" 
						transform="rotate(-141 51.19 59.688)" 	
						fill="rgb(82,34,107)" /><use xlink:href="#leaf6"
						x="50.86" y="59.128" 
						transform="rotate(147 50.86 59.128)" 	
						fill="rgb(61,2,115)" /><use xlink:href="#leaf6"
						x="50.86" y="59.128" 
						transform="rotate(-145 51.48 60.078)" 	
						fill="rgb(69,33,111)" /><use xlink:href="#leaf2"
						x="50.86" y="59.128" 
						transform="rotate(87 51.6 59.388)" 	
						fill="rgb(48,8,120)" /><use xlink:href="#flower2" id="fleur240"
							x="50.86" y="59.128" 
							transform="rotate(135 50.86 59.128)" /><use xlink:href="#flower2" id="fleur241"
							x="50.86" y="59.128" 
							transform="rotate(159 51.844 59.908)" /></g>
				</svg>