<svg class="relie" xmlns="http://www.w3.org/2000/svg" viewBox="0 0 100 100" preserveAspectRatio="xMidYMid meet" x="0" y="0" overflow="visible" xmlns:xlink="http://www.w3.org/1999/xlink">

		<defs>  <g id="leaf1" transform="skewX(11) skewY(11)"><path d="M 0,0 
					q 0.26125 0.26125 0.125,0.625 q 0.26125 0.26125 -0.125,1 
					M 0,0 
					q -0.26125 0.26125 -0.125,0.625 q -0.26125 0.26125 0.125,1 " 
					stroke-width ="0.2" /></g>  <g id="leaf2" transform="skewX(13) skewY(13)"><path d="M 0,0 
					q 0.5225 0.5225 0.25,1.25 q 0.5225 0.5225 -0.25,1.25 
					M 0,0 
					q -0.5225 0.5225 -0.25,1.25 q -0.5225 0.5225 0.25,1.25 " 
					stroke-width ="0.2" /></g>  <g id="leaf3" transform="skewX(-12) skewY(-12)"><path d="M 0,0 
					q 0.78375 0.78375 0.375,1.875 q 0.78375 0.78375 -0.375,1.875 
					M 0,0 
					q -0.78375 0.78375 -0.375,1.875 q -0.78375 0.78375 0.375,1.875 " 
					stroke-width ="0.2" /></g>  <g id="leaf4" transform="skewX(-2) skewY(-2)"><path d="M 0,0 
					q 1.045 1.045 0.5,2.5 q 1.045 1.045 -0.5,2.5 
					M 0,0 
					q -1.045 1.045 -0.5,2.5 q -1.045 1.045 0.5,2.5 " 
					stroke-width ="0.2" /></g>  <g id="leaf5" transform="skewX(-18) skewY(-18)"><path d="M 0,0 
					q 1.30625 1.30625 0.625,3.125 q 1.30625 1.30625 -0.625,3.125 
					M 0,0 
					q -1.30625 1.30625 -0.625,3.125 q -1.30625 1.30625 0.625,3.125 " 
					stroke-width ="0.2" /></g>  <g id="leaf6" transform="skewX(-7) skewY(-7)"><path d="M 0,0 
					q 1.5675 1.5675 0.75,3.75 q 1.5675 1.5675 -0.75,3.75 
					M 0,0 
					q -1.5675 1.5675 -0.75,3.75 q -1.5675 1.5675 0.75,3.75 " 
					stroke-width ="0.2" /></g>  <g id="leaf7" transform="skewX(-9) skewY(-9)"><path d="M 0,0 
					q 1.82875 1.82875 0.875,4.375 q 1.82875 1.82875 -0.875,4.375 
					M 0,0 
					q -1.82875 1.82875 -0.875,4.375 q -1.82875 1.82875 0.875,4.375 " 
					stroke-width ="0.2" /></g>  <g id="leaf8" transform="skewX(-9) skewY(-9)"><path d="M 0,0 
					q 2.09 2.09 1,5 q 2.09 2.09 -1,5 
					M 0,0 
					q -2.09 2.09 -1,5 q -2.09 2.09 1,5 " 
					stroke-width ="0.2" /></g><g id="flower1" transform="skewX(6) skewY(6)">
						<path d="M 0,0
						Q 1.27,0.1875 0,0.4575"
						stroke="rgb(202,139,143)" 
						fill="transparent"
						stroke-width ="0.3" /><path d="M 0,0.4575 
						q 0.05 0.1125 0.125,0.075 q 0.1 0.0625 0.3125,0.01125 q 0.0375 0.0375 0.625,0.0225 q 0.0875 0 -0.375,0.0975 q 0 0.025 -0.6875,1 
						M 0,0.4575 
						q -0.05 0.1125 -0.125,0.075 q -0.1 0.0625 -0.3125,0.01125 q -0.0375 0.0375 -0.625,0.0225 q -0.0875 0 0.375,0.0975 q -0 0.025 0.6875,1 " 
						transform="rotate(0 0,0.4575 )"
						stroke-width ="0.1"
						fill="rgb(131,48,34)"
						/><circle cx="0" cy="0.4575" r="0.18" fill="rgb(129,101,210)"/><circle cx="0.02" cy="0.4275" r="0.12" fill="rgb(130.5,103.5,232.5)"/><path d="M 0,0.4575 
						q 0.05 0.1125 0.125,0.075 q 0.1 0.0625 0.3125,0.01125 q 0.0375 0.0375 0.625,0.0225 q 0.0875 0 -0.375,0.0975 q 0 0.025 -0.6875,1 
						M 0,0.4575 
						q -0.05 0.1125 -0.125,0.075 q -0.1 0.0625 -0.3125,0.01125 q -0.0375 0.0375 -0.625,0.0225 q -0.0875 0 0.375,0.0975 q -0 0.025 0.6875,1 " 
						transform="rotate(36 0,0.4575 )"
						stroke-width ="0.1"
						fill="rgb(135.5,50.5,24.5)"
						/><circle cx="0" cy="0.4575" r="0.18" fill="rgb(129,101,210)"/><circle cx="0.05" cy="0.4975" r="0.12" fill="rgb(130.5,103.5,232.5)"/><path d="M 0,0.4575 
						q 0.05 0.1125 0.125,0.075 q 0.1 0.0625 0.3125,0.01125 q 0.0375 0.0375 0.625,0.0225 q 0.0875 0 -0.375,0.0975 q 0 0.025 -0.6875,1 
						M 0,0.4575 
						q -0.05 0.1125 -0.125,0.075 q -0.1 0.0625 -0.3125,0.01125 q -0.0375 0.0375 -0.625,0.0225 q -0.0875 0 0.375,0.0975 q -0 0.025 0.6875,1 " 
						transform="rotate(72 0,0.4575 )"
						stroke-width ="0.1"
						fill="rgb(124,42,36)"
						/><circle cx="0" cy="0.4575" r="0.18" fill="rgb(129,101,210)"/><circle cx="0.04" cy="0.4975" r="0.12" fill="rgb(130.5,103.5,232.5)"/><path d="M 0,0.4575 
						q 0.05 0.1125 0.125,0.075 q 0.1 0.0625 0.3125,0.01125 q 0.0375 0.0375 0.625,0.0225 q 0.0875 0 -0.375,0.0975 q 0 0.025 -0.6875,1 
						M 0,0.4575 
						q -0.05 0.1125 -0.125,0.075 q -0.1 0.0625 -0.3125,0.01125 q -0.0375 0.0375 -0.625,0.0225 q -0.0875 0 0.375,0.0975 q -0 0.025 0.6875,1 " 
						transform="rotate(108 0,0.4575 )"
						stroke-width ="0.1"
						fill="rgb(138.5,50.5,18.5)"
						/><circle cx="0" cy="0.4575" r="0.18" fill="rgb(129,101,210)"/><circle cx="-0.09" cy="0.4275" r="0.12" fill="rgb(130.5,103.5,232.5)"/><path d="M 0,0.4575 
						q 0.05 0.1125 0.125,0.075 q 0.1 0.0625 0.3125,0.01125 q 0.0375 0.0375 0.625,0.0225 q 0.0875 0 -0.375,0.0975 q 0 0.025 -0.6875,1 
						M 0,0.4575 
						q -0.05 0.1125 -0.125,0.075 q -0.1 0.0625 -0.3125,0.01125 q -0.0375 0.0375 -0.625,0.0225 q -0.0875 0 0.375,0.0975 q -0 0.025 0.6875,1 " 
						transform="rotate(144 0,0.4575 )"
						stroke-width ="0.1"
						fill="rgb(129,30,27)"
						/><circle cx="0" cy="0.4575" r="0.18" fill="rgb(129,101,210)"/><circle cx="0.07" cy="0.3975" r="0.12" fill="rgb(130.5,103.5,232.5)"/><path d="M 0,0.4575 
						q 0.05 0.1125 0.125,0.075 q 0.1 0.0625 0.3125,0.01125 q 0.0375 0.0375 0.625,0.0225 q 0.0875 0 -0.375,0.0975 q 0 0.025 -0.6875,1 
						M 0,0.4575 
						q -0.05 0.1125 -0.125,0.075 q -0.1 0.0625 -0.3125,0.01125 q -0.0375 0.0375 -0.625,0.0225 q -0.0875 0 0.375,0.0975 q -0 0.025 0.6875,1 " 
						transform="rotate(180 0,0.4575 )"
						stroke-width ="0.1"
						fill="rgb(123.5,38.5,14.5)"
						/><circle cx="0" cy="0.4575" r="0.18" fill="rgb(129,101,210)"/><circle cx="-0.01" cy="0.3875" r="0.12" fill="rgb(130.5,103.5,232.5)"/><path d="M 0,0.4575 
						q 0.05 0.1125 0.125,0.075 q 0.1 0.0625 0.3125,0.01125 q 0.0375 0.0375 0.625,0.0225 q 0.0875 0 -0.375,0.0975 q 0 0.025 -0.6875,1 
						M 0,0.4575 
						q -0.05 0.1125 -0.125,0.075 q -0.1 0.0625 -0.3125,0.01125 q -0.0375 0.0375 -0.625,0.0225 q -0.0875 0 0.375,0.0975 q -0 0.025 0.6875,1 " 
						transform="rotate(216 0,0.4575 )"
						stroke-width ="0.1"
						fill="rgb(119,34,25)"
						/><circle cx="0" cy="0.4575" r="0.18" fill="rgb(129,101,210)"/><circle cx="0.1" cy="0.4075" r="0.12" fill="rgb(130.5,103.5,232.5)"/><path d="M 0,0.4575 
						q 0.05 0.1125 0.125,0.075 q 0.1 0.0625 0.3125,0.01125 q 0.0375 0.0375 0.625,0.0225 q 0.0875 0 -0.375,0.0975 q 0 0.025 -0.6875,1 
						M 0,0.4575 
						q -0.05 0.1125 -0.125,0.075 q -0.1 0.0625 -0.3125,0.01125 q -0.0375 0.0375 -0.625,0.0225 q -0.0875 0 0.375,0.0975 q -0 0.025 0.6875,1 " 
						transform="rotate(252 0,0.4575 )"
						stroke-width ="0.1"
						fill="rgb(120.5,23.5,16.5)"
						/><circle cx="0" cy="0.4575" r="0.18" fill="rgb(129,101,210)"/><circle cx="0.05" cy="0.4475" r="0.12" fill="rgb(130.5,103.5,232.5)"/><path d="M 0,0.4575 
						q 0.05 0.1125 0.125,0.075 q 0.1 0.0625 0.3125,0.01125 q 0.0375 0.0375 0.625,0.0225 q 0.0875 0 -0.375,0.0975 q 0 0.025 -0.6875,1 
						M 0,0.4575 
						q -0.05 0.1125 -0.125,0.075 q -0.1 0.0625 -0.3125,0.01125 q -0.0375 0.0375 -0.625,0.0225 q -0.0875 0 0.375,0.0975 q -0 0.025 0.6875,1 " 
						transform="rotate(288 0,0.4575 )"
						stroke-width ="0.1"
						fill="rgb(121,23,13)"
						/><circle cx="0" cy="0.4575" r="0.18" fill="rgb(129,101,210)"/><circle cx="0.01" cy="0.5075" r="0.12" fill="rgb(130.5,103.5,232.5)"/><path d="M 0,0.4575 
						q 0.05 0.1125 0.125,0.075 q 0.1 0.0625 0.3125,0.01125 q 0.0375 0.0375 0.625,0.0225 q 0.0875 0 -0.375,0.0975 q 0 0.025 -0.6875,1 
						M 0,0.4575 
						q -0.05 0.1125 -0.125,0.075 q -0.1 0.0625 -0.3125,0.01125 q -0.0375 0.0375 -0.625,0.0225 q -0.0875 0 0.375,0.0975 q -0 0.025 0.6875,1 " 
						transform="rotate(324 0,0.4575 )"
						stroke-width ="0.1"
						fill="rgb(121.5,16.5,18.5)"
						/><circle cx="0" cy="0.4575" r="0.18" fill="rgb(129,101,210)"/><circle cx="-0.08" cy="0.3575" r="0.12" fill="rgb(130.5,103.5,232.5)"/><path d="M 0,0.4575 
						q 0.05 0.1125 0.125,0.075 q 0.1 0.0625 0.3125,0.01125 q 0.0375 0.0375 0.625,0.0225 q 0.0875 0 -0.375,0.0975 q 0 0.025 -0.6875,1 
						M 0,0.4575 
						q -0.05 0.1125 -0.125,0.075 q -0.1 0.0625 -0.3125,0.01125 q -0.0375 0.0375 -0.625,0.0225 q -0.0875 0 0.375,0.0975 q -0 0.025 0.6875,1 " 
						transform="rotate(360 0,0.4575 )"
						stroke-width ="0.1"
						fill="rgb(123,24,6)"
						/><circle cx="0" cy="0.4575" r="0.18" fill="rgb(129,101,210)"/><circle cx="-0.06" cy="0.4075" r="0.12" fill="rgb(130.5,103.5,232.5)"/></g><g id="flower2" transform="skewX(-6) skewY(-6)">
						<path d="M 0,0
						Q 0.1,0.375 0,0.915"
						stroke="rgb(202,139,143)" 
						fill="transparent"
						stroke-width ="0.3" /><path d="M 0,0.915 
						q 0.1 0.225 0.25,0.15 q 0.2 0.125 0.625,0.0225 q 0.075 0.075 1.25,0.045 q 0.175 0 -0.75,0.195 q 0 0.05 -1.375,1 
						M 0,0.915 
						q -0.1 0.225 -0.25,0.15 q -0.2 0.125 -0.625,0.0225 q -0.075 0.075 -1.25,0.045 q -0.175 0 0.75,0.195 q -0 0.05 1.375,1 " 
						transform="rotate(0 0,0.915 )"
						stroke-width ="0.1"
						fill="rgb(131,44,38)"
						/><path d="M 0,0.915 
						q 0.1 0.225 0.25,0.15 q 0.2 0.125 0.625,0.0225 q 0.075 0.075 1.25,0.045 q 0.175 0 -0.75,0.195 q 0 0.05 -1.375,1 
						M 0,0.915 
						q -0.1 0.225 -0.25,0.15 q -0.2 0.125 -0.625,0.0225 q -0.075 0.075 -1.25,0.045 q -0.175 0 0.75,0.195 q -0 0.05 1.375,1 " 
						transform="rotate(10.8 0,0.915 )"
						stroke-width ="0.1"
						fill="rgb(138.5,54.5,22.5)"
						/><path d="M 0,0.915 
						q 0.1 0.225 0.25,0.15 q 0.2 0.125 0.625,0.0225 q 0.075 0.075 1.25,0.045 q 0.175 0 -0.75,0.195 q 0 0.05 -1.375,1 
						M 0,0.915 
						q -0.1 0.225 -0.25,0.15 q -0.2 0.125 -0.625,0.0225 q -0.075 0.075 -1.25,0.045 q -0.175 0 0.75,0.195 q -0 0.05 1.375,1 " 
						transform="rotate(21.6 0,0.915 )"
						stroke-width ="0.1"
						fill="rgb(136,42,26)"
						/></g><g id="flower3" transform="skewX(-10) skewY(-10)">
						<path d="M 0,0
						Q -0.74,0.5625 0,1.3725"
						stroke="rgb(202,139,143)" 
						fill="transparent"
						stroke-width ="0.3" /><path d="M 0,1.3725 
						q 0.15 0.3375 0.375,0.225 q 0.3 0.1875 0.9375,0.03375 q 0.1125 0.1125 1.875,0.0675 q 0.2625 0 -1.125,0.2925 q 0 0.075 -2.0625,1 
						M 0,1.3725 
						q -0.15 0.3375 -0.375,0.225 q -0.3 0.1875 -0.9375,0.03375 q -0.1125 0.1125 -1.875,0.0675 q -0.2625 0 1.125,0.2925 q -0 0.075 2.0625,1 " 
						transform="rotate(0 0,1.3725 )"
						stroke-width ="0.1"
						fill="rgb(129,39,27)"
						/><path d="M 0,1.3725 
						q 0.15 0.3375 0.375,0.225 q 0.3 0.1875 0.9375,0.03375 q 0.1125 0.1125 1.875,0.0675 q 0.2625 0 -1.125,0.2925 q 0 0.075 -2.0625,1 
						M 0,1.3725 
						q -0.15 0.3375 -0.375,0.225 q -0.3 0.1875 -0.9375,0.03375 q -0.1125 0.1125 -1.875,0.0675 q -0.2625 0 1.125,0.2925 q -0 0.075 2.0625,1 " 
						transform="rotate(10.8 0,1.3725 )"
						stroke-width ="0.1"
						fill="rgb(129.5,46.5,24.5)"
						/><path d="M 0,1.3725 
						q 0.15 0.3375 0.375,0.225 q 0.3 0.1875 0.9375,0.03375 q 0.1125 0.1125 1.875,0.0675 q 0.2625 0 -1.125,0.2925 q 0 0.075 -2.0625,1 
						M 0,1.3725 
						q -0.15 0.3375 -0.375,0.225 q -0.3 0.1875 -0.9375,0.03375 q -0.1125 0.1125 -1.875,0.0675 q -0.2625 0 1.125,0.2925 q -0 0.075 2.0625,1 " 
						transform="rotate(21.6 0,1.3725 )"
						stroke-width ="0.1"
						fill="rgb(125,43,28)"
						/></g><g id="flower4" transform="skewX(-8) skewY(-8)">
						<path d="M 0,0
						Q 1.47,0.75 0,1.83"
						stroke="rgb(202,139,143)" 
						fill="transparent"
						stroke-width ="0.3" /><path d="M 0,1.83 
						q 0.2 0.45 0.5,0.3 q 0.4 0.25 1.25,0.045 q 0.15 0.15 2.5,0.09 q 0.35 0 -1.5,0.39 q 0 0.1 -2.75,1 
						M 0,1.83 
						q -0.2 0.45 -0.5,0.3 q -0.4 0.25 -1.25,0.045 q -0.15 0.15 -2.5,0.09 q -0.35 0 1.5,0.39 q -0 0.1 2.75,1 " 
						transform="rotate(0 0,1.83 )"
						stroke-width ="0.1"
						fill="rgb(130,54,32)"
						/><path d="M 0,1.83 
						q 0.2 0.45 0.5,0.3 q 0.4 0.25 1.25,0.045 q 0.15 0.15 2.5,0.09 q 0.35 0 -1.5,0.39 q 0 0.1 -2.75,1 
						M 0,1.83 
						q -0.2 0.45 -0.5,0.3 q -0.4 0.25 -1.25,0.045 q -0.15 0.15 -2.5,0.09 q -0.35 0 1.5,0.39 q -0 0.1 2.75,1 " 
						transform="rotate(10.8 0,1.83 )"
						stroke-width ="0.1"
						fill="rgb(132.5,46.5,26.5)"
						/><path d="M 0,1.83 
						q 0.2 0.45 0.5,0.3 q 0.4 0.25 1.25,0.045 q 0.15 0.15 2.5,0.09 q 0.35 0 -1.5,0.39 q 0 0.1 -2.75,1 
						M 0,1.83 
						q -0.2 0.45 -0.5,0.3 q -0.4 0.25 -1.25,0.045 q -0.15 0.15 -2.5,0.09 q -0.35 0 1.5,0.39 q -0 0.1 2.75,1 " 
						transform="rotate(21.6 0,1.83 )"
						stroke-width ="0.1"
						fill="rgb(139,37,26)"
						/></g><g id="flower5" transform="skewX(-6) skewY(-6)">
						<path d="M 0,0
						Q 1.08,0.9375 0,2.2875"
						stroke="rgb(202,139,143)" 
						fill="transparent"
						stroke-width ="0.3" /><path d="M 0,2.2875 
						q 0.25 0.5625 0.625,0.375 q 0.5 0.3125 1.5625,0.05625 q 0.1875 0.1875 3.125,0.1125 q 0.4375 0 -1.875,0.4875 q 0 0.125 -3.4375,1 
						M 0,2.2875 
						q -0.25 0.5625 -0.625,0.375 q -0.5 0.3125 -1.5625,0.05625 q -0.1875 0.1875 -3.125,0.1125 q -0.4375 0 1.875,0.4875 q -0 0.125 3.4375,1 " 
						transform="rotate(0 0,2.2875 )"
						stroke-width ="0.1"
						fill="rgb(136,53,37)"
						/><circle cx="0" cy="2.2875" r="0.9" fill="rgb(127,106,217)"/><circle cx="-0.1" cy="2.1875" r="0.6" fill="rgb(132.5,109.5,224.5)"/><path d="M 0,2.2875 
						q 0.25 0.5625 0.625,0.375 q 0.5 0.3125 1.5625,0.05625 q 0.1875 0.1875 3.125,0.1125 q 0.4375 0 -1.875,0.4875 q 0 0.125 -3.4375,1 
						M 0,2.2875 
						q -0.25 0.5625 -0.625,0.375 q -0.5 0.3125 -1.5625,0.05625 q -0.1875 0.1875 -3.125,0.1125 q -0.4375 0 1.875,0.4875 q -0 0.125 3.4375,1 " 
						transform="rotate(36 0,2.2875 )"
						stroke-width ="0.1"
						fill="rgb(146.5,52.5,34.5)"
						/><circle cx="0" cy="2.2875" r="0.9" fill="rgb(127,106,217)"/><circle cx="0.05" cy="2.3375" r="0.6" fill="rgb(132.5,109.5,224.5)"/><path d="M 0,2.2875 
						q 0.25 0.5625 0.625,0.375 q 0.5 0.3125 1.5625,0.05625 q 0.1875 0.1875 3.125,0.1125 q 0.4375 0 -1.875,0.4875 q 0 0.125 -3.4375,1 
						M 0,2.2875 
						q -0.25 0.5625 -0.625,0.375 q -0.5 0.3125 -1.5625,0.05625 q -0.1875 0.1875 -3.125,0.1125 q -0.4375 0 1.875,0.4875 q -0 0.125 3.4375,1 " 
						transform="rotate(72 0,2.2875 )"
						stroke-width ="0.1"
						fill="rgb(124,50,27)"
						/><circle cx="0" cy="2.2875" r="0.9" fill="rgb(127,106,217)"/><circle cx="0.02" cy="2.2075" r="0.6" fill="rgb(132.5,109.5,224.5)"/><path d="M 0,2.2875 
						q 0.25 0.5625 0.625,0.375 q 0.5 0.3125 1.5625,0.05625 q 0.1875 0.1875 3.125,0.1125 q 0.4375 0 -1.875,0.4875 q 0 0.125 -3.4375,1 
						M 0,2.2875 
						q -0.25 0.5625 -0.625,0.375 q -0.5 0.3125 -1.5625,0.05625 q -0.1875 0.1875 -3.125,0.1125 q -0.4375 0 1.875,0.4875 q -0 0.125 3.4375,1 " 
						transform="rotate(108 0,2.2875 )"
						stroke-width ="0.1"
						fill="rgb(134.5,49.5,29.5)"
						/><circle cx="0" cy="2.2875" r="0.9" fill="rgb(127,106,217)"/><circle cx="0.02" cy="2.2275" r="0.6" fill="rgb(132.5,109.5,224.5)"/><path d="M 0,2.2875 
						q 0.25 0.5625 0.625,0.375 q 0.5 0.3125 1.5625,0.05625 q 0.1875 0.1875 3.125,0.1125 q 0.4375 0 -1.875,0.4875 q 0 0.125 -3.4375,1 
						M 0,2.2875 
						q -0.25 0.5625 -0.625,0.375 q -0.5 0.3125 -1.5625,0.05625 q -0.1875 0.1875 -3.125,0.1125 q -0.4375 0 1.875,0.4875 q -0 0.125 3.4375,1 " 
						transform="rotate(144 0,2.2875 )"
						stroke-width ="0.1"
						fill="rgb(125,38,13)"
						/><circle cx="0" cy="2.2875" r="0.9" fill="rgb(127,106,217)"/><circle cx="0.06" cy="2.2675" r="0.6" fill="rgb(132.5,109.5,224.5)"/><path d="M 0,2.2875 
						q 0.25 0.5625 0.625,0.375 q 0.5 0.3125 1.5625,0.05625 q 0.1875 0.1875 3.125,0.1125 q 0.4375 0 -1.875,0.4875 q 0 0.125 -3.4375,1 
						M 0,2.2875 
						q -0.25 0.5625 -0.625,0.375 q -0.5 0.3125 -1.5625,0.05625 q -0.1875 0.1875 -3.125,0.1125 q -0.4375 0 1.875,0.4875 q -0 0.125 3.4375,1 " 
						transform="rotate(180 0,2.2875 )"
						stroke-width ="0.1"
						fill="rgb(126.5,40.5,18.5)"
						/><circle cx="0" cy="2.2875" r="0.9" fill="rgb(127,106,217)"/><circle cx="0.07" cy="2.3475" r="0.6" fill="rgb(132.5,109.5,224.5)"/><path d="M 0,2.2875 
						q 0.25 0.5625 0.625,0.375 q 0.5 0.3125 1.5625,0.05625 q 0.1875 0.1875 3.125,0.1125 q 0.4375 0 -1.875,0.4875 q 0 0.125 -3.4375,1 
						M 0,2.2875 
						q -0.25 0.5625 -0.625,0.375 q -0.5 0.3125 -1.5625,0.05625 q -0.1875 0.1875 -3.125,0.1125 q -0.4375 0 1.875,0.4875 q -0 0.125 3.4375,1 " 
						transform="rotate(216 0,2.2875 )"
						stroke-width ="0.1"
						fill="rgb(127,40,17)"
						/><circle cx="0" cy="2.2875" r="0.9" fill="rgb(127,106,217)"/><circle cx="-0.07" cy="2.2075" r="0.6" fill="rgb(132.5,109.5,224.5)"/><path d="M 0,2.2875 
						q 0.25 0.5625 0.625,0.375 q 0.5 0.3125 1.5625,0.05625 q 0.1875 0.1875 3.125,0.1125 q 0.4375 0 -1.875,0.4875 q 0 0.125 -3.4375,1 
						M 0,2.2875 
						q -0.25 0.5625 -0.625,0.375 q -0.5 0.3125 -1.5625,0.05625 q -0.1875 0.1875 -3.125,0.1125 q -0.4375 0 1.875,0.4875 q -0 0.125 3.4375,1 " 
						transform="rotate(252 0,2.2875 )"
						stroke-width ="0.1"
						fill="rgb(128.5,27.5,20.5)"
						/><circle cx="0" cy="2.2875" r="0.9" fill="rgb(127,106,217)"/><circle cx="0" cy="2.2575" r="0.6" fill="rgb(132.5,109.5,224.5)"/><path d="M 0,2.2875 
						q 0.25 0.5625 0.625,0.375 q 0.5 0.3125 1.5625,0.05625 q 0.1875 0.1875 3.125,0.1125 q 0.4375 0 -1.875,0.4875 q 0 0.125 -3.4375,1 
						M 0,2.2875 
						q -0.25 0.5625 -0.625,0.375 q -0.5 0.3125 -1.5625,0.05625 q -0.1875 0.1875 -3.125,0.1125 q -0.4375 0 1.875,0.4875 q -0 0.125 3.4375,1 " 
						transform="rotate(288 0,2.2875 )"
						stroke-width ="0.1"
						fill="rgb(111,28,7)"
						/><circle cx="0" cy="2.2875" r="0.9" fill="rgb(127,106,217)"/><circle cx="-0.1" cy="2.2975" r="0.6" fill="rgb(132.5,109.5,224.5)"/><path d="M 0,2.2875 
						q 0.25 0.5625 0.625,0.375 q 0.5 0.3125 1.5625,0.05625 q 0.1875 0.1875 3.125,0.1125 q 0.4375 0 -1.875,0.4875 q 0 0.125 -3.4375,1 
						M 0,2.2875 
						q -0.25 0.5625 -0.625,0.375 q -0.5 0.3125 -1.5625,0.05625 q -0.1875 0.1875 -3.125,0.1125 q -0.4375 0 1.875,0.4875 q -0 0.125 3.4375,1 " 
						transform="rotate(324 0,2.2875 )"
						stroke-width ="0.1"
						fill="rgb(113.5,19.5,1.5)"
						/><circle cx="0" cy="2.2875" r="0.9" fill="rgb(127,106,217)"/><circle cx="0.03" cy="2.2375" r="0.6" fill="rgb(132.5,109.5,224.5)"/><path d="M 0,2.2875 
						q 0.25 0.5625 0.625,0.375 q 0.5 0.3125 1.5625,0.05625 q 0.1875 0.1875 3.125,0.1125 q 0.4375 0 -1.875,0.4875 q 0 0.125 -3.4375,1 
						M 0,2.2875 
						q -0.25 0.5625 -0.625,0.375 q -0.5 0.3125 -1.5625,0.05625 q -0.1875 0.1875 -3.125,0.1125 q -0.4375 0 1.875,0.4875 q -0 0.125 3.4375,1 " 
						transform="rotate(360 0,2.2875 )"
						stroke-width ="0.1"
						fill="rgb(124,26,8)"
						/><circle cx="0" cy="2.2875" r="0.9" fill="rgb(127,106,217)"/><circle cx="0.08" cy="2.2375" r="0.6" fill="rgb(132.5,109.5,224.5)"/></g><g id="flower6" transform="skewX(10) skewY(10)">
						<path d="M 0,0
						Q 0.31,1.125 0,2.745"
						stroke="rgb(202,139,143)" 
						fill="transparent"
						stroke-width ="0.3" /><path d="M 0,2.745 
						q 0.3 0.675 0.75,0.45 q 0.6 0.375 1.875,0.0675 q 0.225 0.225 3.75,0.135 q 0.525 0 -2.25,0.585 q 0 0.15 -4.125,1.0125 
						M 0,2.745 
						q -0.3 0.675 -0.75,0.45 q -0.6 0.375 -1.875,0.0675 q -0.225 0.225 -3.75,0.135 q -0.525 0 2.25,0.585 q -0 0.15 4.125,1.0125 " 
						transform="rotate(0 0,2.745 )"
						stroke-width ="0.1"
						fill="rgb(132,45,40)"
						/><path d="M 0,2.745 
						q 0.3 0.675 0.75,0.45 q 0.6 0.375 1.875,0.0675 q 0.225 0.225 3.75,0.135 q 0.525 0 -2.25,0.585 q 0 0.15 -4.125,1.0125 
						M 0,2.745 
						q -0.3 0.675 -0.75,0.45 q -0.6 0.375 -1.875,0.0675 q -0.225 0.225 -3.75,0.135 q -0.525 0 2.25,0.585 q -0 0.15 4.125,1.0125 " 
						transform="rotate(10.8 0,2.745 )"
						stroke-width ="0.1"
						fill="rgb(126.5,37.5,27.5)"
						/><path d="M 0,2.745 
						q 0.3 0.675 0.75,0.45 q 0.6 0.375 1.875,0.0675 q 0.225 0.225 3.75,0.135 q 0.525 0 -2.25,0.585 q 0 0.15 -4.125,1.0125 
						M 0,2.745 
						q -0.3 0.675 -0.75,0.45 q -0.6 0.375 -1.875,0.0675 q -0.225 0.225 -3.75,0.135 q -0.525 0 2.25,0.585 q -0 0.15 4.125,1.0125 " 
						transform="rotate(21.6 0,2.745 )"
						stroke-width ="0.1"
						fill="rgb(142,48,19)"
						/></g><g id="flower7" transform="skewX(8) skewY(8)">
						<path d="M 0,0
						Q 1,1.3125 0,3.2025"
						stroke="rgb(202,139,143)" 
						fill="transparent"
						stroke-width ="0.3" /><path d="M 0,3.2025 
						q 0.35 0.7875 0.875,0.525 q 0.7 0.4375 2.1875,0.07875 q 0.2625 0.2625 4.375,0.1575 q 0.6125 0 -2.625,0.6825 q 0 0.175 -4.8125,1.18125 
						M 0,3.2025 
						q -0.35 0.7875 -0.875,0.525 q -0.7 0.4375 -2.1875,0.07875 q -0.2625 0.2625 -4.375,0.1575 q -0.6125 0 2.625,0.6825 q -0 0.175 4.8125,1.18125 " 
						transform="rotate(0 0,3.2025 )"
						stroke-width ="0.1"
						fill="rgb(145,55,33)"
						/><path d="M 0,3.2025 
						q 0.35 0.7875 0.875,0.525 q 0.7 0.4375 2.1875,0.07875 q 0.2625 0.2625 4.375,0.1575 q 0.6125 0 -2.625,0.6825 q 0 0.175 -4.8125,1.18125 
						M 0,3.2025 
						q -0.35 0.7875 -0.875,0.525 q -0.7 0.4375 -2.1875,0.07875 q -0.2625 0.2625 -4.375,0.1575 q -0.6125 0 2.625,0.6825 q -0 0.175 4.8125,1.18125 " 
						transform="rotate(10.8 0,3.2025 )"
						stroke-width ="0.1"
						fill="rgb(126.5,51.5,22.5)"
						/><path d="M 0,3.2025 
						q 0.35 0.7875 0.875,0.525 q 0.7 0.4375 2.1875,0.07875 q 0.2625 0.2625 4.375,0.1575 q 0.6125 0 -2.625,0.6825 q 0 0.175 -4.8125,1.18125 
						M 0,3.2025 
						q -0.35 0.7875 -0.875,0.525 q -0.7 0.4375 -2.1875,0.07875 q -0.2625 0.2625 -4.375,0.1575 q -0.6125 0 2.625,0.6825 q -0 0.175 4.8125,1.18125 " 
						transform="rotate(21.6 0,3.2025 )"
						stroke-width ="0.1"
						fill="rgb(129,37,37)"
						/></g><g id="flower8" transform="skewX(-5) skewY(-5)">
						<path d="M 0,0
						Q -0.95,1.5 0,3.66"
						stroke="rgb(202,139,143)" 
						fill="transparent"
						stroke-width ="0.3" /><path d="M 0,3.66 
						q 0.4 0.9 1,0.6 q 0.8 0.5 2.5,0.09 q 0.3 0.3 5,0.18 q 0.7 0 -3,0.78 q 0 0.2 -5.5,1.35 
						M 0,3.66 
						q -0.4 0.9 -1,0.6 q -0.8 0.5 -2.5,0.09 q -0.3 0.3 -5,0.18 q -0.7 0 3,0.78 q 0 0.2 5.5,1.35 " 
						transform="rotate(0 0,3.66 )"
						stroke-width ="0.1"
						fill="rgb(148,54,23)"
						/><circle cx="0" cy="3.66" r="1.44" fill="rgb(129,105,214)"/><circle cx="0.06" cy="3.73" r="0.96" fill="rgb(147.5,112.5,226.5)"/><path d="M 0,3.66 
						q 0.4 0.9 1,0.6 q 0.8 0.5 2.5,0.09 q 0.3 0.3 5,0.18 q 0.7 0 -3,0.78 q 0 0.2 -5.5,1.35 
						M 0,3.66 
						q -0.4 0.9 -1,0.6 q -0.8 0.5 -2.5,0.09 q -0.3 0.3 -5,0.18 q -0.7 0 3,0.78 q 0 0.2 5.5,1.35 " 
						transform="rotate(36 0,3.66 )"
						stroke-width ="0.1"
						fill="rgb(136.5,44.5,40.5)"
						/><circle cx="0" cy="3.66" r="1.44" fill="rgb(129,105,214)"/><circle cx="-0.07" cy="3.6" r="0.96" fill="rgb(147.5,112.5,226.5)"/><path d="M 0,3.66 
						q 0.4 0.9 1,0.6 q 0.8 0.5 2.5,0.09 q 0.3 0.3 5,0.18 q 0.7 0 -3,0.78 q 0 0.2 -5.5,1.35 
						M 0,3.66 
						q -0.4 0.9 -1,0.6 q -0.8 0.5 -2.5,0.09 q -0.3 0.3 -5,0.18 q -0.7 0 3,0.78 q 0 0.2 5.5,1.35 " 
						transform="rotate(72 0,3.66 )"
						stroke-width ="0.1"
						fill="rgb(131,38,20)"
						/><circle cx="0" cy="3.66" r="1.44" fill="rgb(129,105,214)"/><circle cx="-0.03" cy="3.65" r="0.96" fill="rgb(147.5,112.5,226.5)"/><path d="M 0,3.66 
						q 0.4 0.9 1,0.6 q 0.8 0.5 2.5,0.09 q 0.3 0.3 5,0.18 q 0.7 0 -3,0.78 q 0 0.2 -5.5,1.35 
						M 0,3.66 
						q -0.4 0.9 -1,0.6 q -0.8 0.5 -2.5,0.09 q -0.3 0.3 -5,0.18 q -0.7 0 3,0.78 q 0 0.2 5.5,1.35 " 
						transform="rotate(108 0,3.66 )"
						stroke-width ="0.1"
						fill="rgb(131.5,35.5,35.5)"
						/><circle cx="0" cy="3.66" r="1.44" fill="rgb(129,105,214)"/><circle cx="0.05" cy="3.66" r="0.96" fill="rgb(147.5,112.5,226.5)"/><path d="M 0,3.66 
						q 0.4 0.9 1,0.6 q 0.8 0.5 2.5,0.09 q 0.3 0.3 5,0.18 q 0.7 0 -3,0.78 q 0 0.2 -5.5,1.35 
						M 0,3.66 
						q -0.4 0.9 -1,0.6 q -0.8 0.5 -2.5,0.09 q -0.3 0.3 -5,0.18 q -0.7 0 3,0.78 q 0 0.2 5.5,1.35 " 
						transform="rotate(144 0,3.66 )"
						stroke-width ="0.1"
						fill="rgb(131,30,15)"
						/><circle cx="0" cy="3.66" r="1.44" fill="rgb(129,105,214)"/><circle cx="-0.02" cy="3.56" r="0.96" fill="rgb(147.5,112.5,226.5)"/><path d="M 0,3.66 
						q 0.4 0.9 1,0.6 q 0.8 0.5 2.5,0.09 q 0.3 0.3 5,0.18 q 0.7 0 -3,0.78 q 0 0.2 -5.5,1.35 
						M 0,3.66 
						q -0.4 0.9 -1,0.6 q -0.8 0.5 -2.5,0.09 q -0.3 0.3 -5,0.18 q -0.7 0 3,0.78 q 0 0.2 5.5,1.35 " 
						transform="rotate(180 0,3.66 )"
						stroke-width ="0.1"
						fill="rgb(130.5,41.5,20.5)"
						/><circle cx="0" cy="3.66" r="1.44" fill="rgb(129,105,214)"/><circle cx="0.07" cy="3.72" r="0.96" fill="rgb(147.5,112.5,226.5)"/><path d="M 0,3.66 
						q 0.4 0.9 1,0.6 q 0.8 0.5 2.5,0.09 q 0.3 0.3 5,0.18 q 0.7 0 -3,0.78 q 0 0.2 -5.5,1.35 
						M 0,3.66 
						q -0.4 0.9 -1,0.6 q -0.8 0.5 -2.5,0.09 q -0.3 0.3 -5,0.18 q -0.7 0 3,0.78 q 0 0.2 5.5,1.35 " 
						transform="rotate(216 0,3.66 )"
						stroke-width ="0.1"
						fill="rgb(129,42,11)"
						/><circle cx="0" cy="3.66" r="1.44" fill="rgb(129,105,214)"/><circle cx="0.01" cy="3.68" r="0.96" fill="rgb(147.5,112.5,226.5)"/><path d="M 0,3.66 
						q 0.4 0.9 1,0.6 q 0.8 0.5 2.5,0.09 q 0.3 0.3 5,0.18 q 0.7 0 -3,0.78 q 0 0.2 -5.5,1.35 
						M 0,3.66 
						q -0.4 0.9 -1,0.6 q -0.8 0.5 -2.5,0.09 q -0.3 0.3 -5,0.18 q -0.7 0 3,0.78 q 0 0.2 5.5,1.35 " 
						transform="rotate(252 0,3.66 )"
						stroke-width ="0.1"
						fill="rgb(116.5,37.5,17.5)"
						/><circle cx="0" cy="3.66" r="1.44" fill="rgb(129,105,214)"/><circle cx="-0.07" cy="3.57" r="0.96" fill="rgb(147.5,112.5,226.5)"/><path d="M 0,3.66 
						q 0.4 0.9 1,0.6 q 0.8 0.5 2.5,0.09 q 0.3 0.3 5,0.18 q 0.7 0 -3,0.78 q 0 0.2 -5.5,1.35 
						M 0,3.66 
						q -0.4 0.9 -1,0.6 q -0.8 0.5 -2.5,0.09 q -0.3 0.3 -5,0.18 q -0.7 0 3,0.78 q 0 0.2 5.5,1.35 " 
						transform="rotate(288 0,3.66 )"
						stroke-width ="0.1"
						fill="rgb(119,37,9)"
						/><circle cx="0" cy="3.66" r="1.44" fill="rgb(129,105,214)"/><circle cx="0.1" cy="3.69" r="0.96" fill="rgb(147.5,112.5,226.5)"/><path d="M 0,3.66 
						q 0.4 0.9 1,0.6 q 0.8 0.5 2.5,0.09 q 0.3 0.3 5,0.18 q 0.7 0 -3,0.78 q 0 0.2 -5.5,1.35 
						M 0,3.66 
						q -0.4 0.9 -1,0.6 q -0.8 0.5 -2.5,0.09 q -0.3 0.3 -5,0.18 q -0.7 0 3,0.78 q 0 0.2 5.5,1.35 " 
						transform="rotate(324 0,3.66 )"
						stroke-width ="0.1"
						fill="rgb(111.5,34.5,9.5)"
						/><circle cx="0" cy="3.66" r="1.44" fill="rgb(129,105,214)"/><circle cx="0.08" cy="3.61" r="0.96" fill="rgb(147.5,112.5,226.5)"/><path d="M 0,3.66 
						q 0.4 0.9 1,0.6 q 0.8 0.5 2.5,0.09 q 0.3 0.3 5,0.18 q 0.7 0 -3,0.78 q 0 0.2 -5.5,1.35 
						M 0,3.66 
						q -0.4 0.9 -1,0.6 q -0.8 0.5 -2.5,0.09 q -0.3 0.3 -5,0.18 q -0.7 0 3,0.78 q 0 0.2 5.5,1.35 " 
						transform="rotate(360 0,3.66 )"
						stroke-width ="0.1"
						fill="rgb(119,17,3)"
						/><circle cx="0" cy="3.66" r="1.44" fill="rgb(129,105,214)"/><circle cx="-0.04" cy="3.73" r="0.96" fill="rgb(147.5,112.5,226.5)"/></g></defs>
				<g class="fullPlant">
					<g>
					<path d ="M 48,91 
					a 97 873 -12.36 0 0 -2.604,-22.656" fill ="none" stroke ="rgb(201.5,132.5,144.5)" stroke-width ="2.844"/></g><circle cx="45.396" cy="68.344" r="0.711" stroke="rgb(206.5,137.5,149.5)" fill="rgb(201.5,132.5,144.5)"/><use xlink:href="#leaf1"
						x="45.396" y="68.344" 
						transform="rotate(-176 46.336 69.164)" 	
						fill="rgb(122,112,105)" /><use xlink:href="#leaf1"
						x="45.396" y="68.344" 
						transform="rotate(140 45.396 68.344)" 	
						fill="rgb(151,98,94)" /><use xlink:href="#leaf1"
						x="45.396" y="68.344" 
						transform="rotate(87 46.266 68.594)" 	
						fill="rgb(148,113,117)" /><use xlink:href="#leaf1"
						x="45.396" y="68.344" 
						transform="rotate(-40 45.396 68.344)" 	
						fill="rgb(136,86,106)" /><use xlink:href="#leaf1"
						x="45.396" y="68.344" 
						transform="rotate(146 46.056 68.404)" 	
						fill="rgb(160,113,98)" /><use xlink:href="#leaf1"
						x="45.396" y="68.344" 
						transform="rotate(29 46.206 68.584)" 	
						fill="rgb(161,88,114)" /><use xlink:href="#leaf2"
						x="45.396" y="68.344" 
						transform="rotate(98 46.166 68.804)" 	
						fill="rgb(147,96,99)" /><use xlink:href="#leaf1"
						x="45.396" y="68.344" 
						transform="rotate(-159 45.396 68.344)" 	
						fill="rgb(124,83,126)" /><use xlink:href="#leaf1"
						x="45.396" y="68.344" 
						transform="rotate(-107 45.456 68.424)" 	
						fill="rgb(158,100,100)" /><use xlink:href="#leaf2"
						x="45.396" y="68.344" 
						transform="rotate(26 46.356 68.674)" 	
						fill="rgb(129,82,94)" />
					<g>
					<path d ="M 48,91 
					a 54 216 10.24 0 1 11.352,-20.58" fill ="none" stroke ="rgb(203,131,146)" stroke-width ="2.844"/></g><circle cx="59.352" cy="70.42" r="0.711" stroke="rgb(208,136,151)" fill="rgb(203,131,146)"/><use xlink:href="#leaf1"
						x="59.352" y="70.42" 
						transform="rotate(36 59.492 71.08)" 	
						fill="rgb(128,90,112)" /><use xlink:href="#leaf1"
						x="59.352" y="70.42" 
						transform="rotate(138 60.032 71.31)" 	
						fill="rgb(130,99,96)" /><use xlink:href="#leaf1"
						x="59.352" y="70.42" 
						transform="rotate(29 59.502 70.92)" 	
						fill="rgb(123,103,123)" /><use xlink:href="#leaf2"
						x="59.352" y="70.42" 
						transform="rotate(-149 59.662 70.6)" 	
						fill="rgb(129,111,114)" /><use xlink:href="#leaf1"
						x="59.352" y="70.42" 
						transform="rotate(9 60.202 70.9)" 	
						fill="rgb(150,114,101)" /><use xlink:href="#leaf3"
						x="59.352" y="70.42" 
						transform="rotate(-54 59.682 70.81)" 	
						fill="rgb(122,122,109)" /><use xlink:href="#leaf1"
						x="59.352" y="70.42" 
						transform="rotate(92 59.932 70.45)" 	
						fill="rgb(143,115,94)" /><use xlink:href="#leaf3"
						x="59.352" y="70.42" 
						transform="rotate(-165 59.352 70.42)" 	
						fill="rgb(136,105,100)" /><use xlink:href="#leaf1"
						x="59.352" y="70.42" 
						transform="rotate(-3 59.692 71.4)" 	
						fill="rgb(137,122,125)" /><use xlink:href="#leaf2"
						x="59.352" y="70.42" 
						transform="rotate(10 59.352 70.42)" 	
						fill="rgb(159,94,119)" />
					<g>
					<path d ="M 48,91 
					a 61 610 -16.51 0 1 -9.78,-21" fill ="none" stroke ="rgb(201.5,130.5,146.5)" stroke-width ="2.844"/></g><circle cx="38.22" cy="70" r="0.711" stroke="rgb(206.5,135.5,151.5)" fill="rgb(201.5,130.5,146.5)"/><use xlink:href="#leaf1"
						x="38.22" y="70" 
						transform="rotate(-6 38.32 70.64)" 	
						fill="rgb(129,114,112)" /><use xlink:href="#leaf3"
						x="38.22" y="70" 
						transform="rotate(-57 38.77 70.01)" 	
						fill="rgb(155,94,128)" /><use xlink:href="#leaf3"
						x="38.22" y="70" 
						transform="rotate(90 38.31 70.32)" 	
						fill="rgb(157,98,102)" /><use xlink:href="#leaf1"
						x="38.22" y="70" 
						transform="rotate(-103 38.22 70)" 	
						fill="rgb(147,83,90)" /><use xlink:href="#leaf1"
						x="38.22" y="70" 
						transform="rotate(-164 38.22 70)" 	
						fill="rgb(128,86,112)" /><use xlink:href="#leaf1"
						x="38.22" y="70" 
						transform="rotate(175 38.22 70)" 	
						fill="rgb(125,87,129)" /><use xlink:href="#leaf1"
						x="38.22" y="70" 
						transform="rotate(-152 38.22 70)" 	
						fill="rgb(128,94,126)" /><use xlink:href="#leaf1"
						x="38.22" y="70" 
						transform="rotate(-75 38.22 70)" 	
						fill="rgb(147,122,110)" />
					<g>
					<path d ="M 48,91 
					a 54 378 4.83 0 0 -9.276,-21.84" fill ="none" stroke ="rgb(203,133,146)" stroke-width ="2.844"/></g><circle cx="38.724" cy="69.16" r="0.711" stroke="rgb(208,138,151)" fill="rgb(203,133,146)"/><use xlink:href="#leaf2"
						x="38.724" y="69.16" 
						transform="rotate(167 38.724 69.16)" 	
						fill="rgb(147,88,92)" /><use xlink:href="#leaf1"
						x="38.724" y="69.16" 
						transform="rotate(43 39.384 69.89)" 	
						fill="rgb(156,101,119)" /><use xlink:href="#leaf1"
						x="38.724" y="69.16" 
						transform="rotate(-96 38.954 69.75)" 	
						fill="rgb(131,85,121)" /><use xlink:href="#leaf1"
						x="38.724" y="69.16" 
						transform="rotate(84 38.794 70.12)" 	
						fill="rgb(160,104,111)" /><use xlink:href="#leaf2"
						x="38.724" y="69.16" 
						transform="rotate(-126 39.504 69.5)" 	
						fill="rgb(130,84,93)" /><use xlink:href="#leaf1"
						x="38.724" y="69.16" 
						transform="rotate(-142 38.724 69.16)" 	
						fill="rgb(134,95,121)" /><use xlink:href="#leaf1"
						x="38.724" y="69.16" 
						transform="rotate(-95 39.004 69.85)" 	
						fill="rgb(153,89,121)" /><use xlink:href="#leaf1"
						x="38.724" y="69.16" 
						transform="rotate(35 38.724 69.16)" 	
						fill="rgb(144,107,112)" /><use xlink:href="#leaf1"
						x="38.724" y="69.16" 
						transform="rotate(-163 38.724 69.16)" 	
						fill="rgb(129,112,121)" /><use xlink:href="#leaf1"
						x="38.724" y="69.16" 
						transform="rotate(-44 38.724 69.16)" 	
						fill="rgb(124,110,115)" /><use xlink:href="#leaf1"
						x="38.724" y="69.16" 
						transform="rotate(-119 38.724 69.16)" 	
						fill="rgb(130,114,96)" />
					<g>
					<path d ="M 48,91 
					a 59 236 -8.93 0 1 12.72,-19.524" fill ="none" stroke ="rgb(201.5,134.5,148.5)" stroke-width ="2.844"/></g><circle cx="60.72" cy="71.476" r="0.711" stroke="rgb(206.5,139.5,153.5)" fill="rgb(201.5,134.5,148.5)"/><use xlink:href="#leaf3"
						x="60.72" y="71.476" 
						transform="rotate(-71 60.72 71.476)" 	
						fill="rgb(148,88,116)" /><use xlink:href="#leaf1"
						x="60.72" y="71.476" 
						transform="rotate(23 60.72 71.476)" 	
						fill="rgb(158,92,120)" /><use xlink:href="#leaf1"
						x="60.72" y="71.476" 
						transform="rotate(38 61.4 71.886)" 	
						fill="rgb(134,95,103)" /><use xlink:href="#leaf1"
						x="60.72" y="71.476" 
						transform="rotate(-120 61.04 71.546)" 	
						fill="rgb(145,110,98)" /><use xlink:href="#leaf1"
						x="60.72" y="71.476" 
						transform="rotate(3 61.33 71.926)" 	
						fill="rgb(145,114,116)" /><use xlink:href="#leaf2"
						x="60.72" y="71.476" 
						transform="rotate(27 60.72 71.476)" 	
						fill="rgb(135,98,95)" /><use xlink:href="#leaf2"
						x="60.72" y="71.476" 
						transform="rotate(82 60.72 71.476)" 	
						fill="rgb(137,85,105)" /><use xlink:href="#leaf2"
						x="60.72" y="71.476" 
						transform="rotate(61 61.66 72.166)" 	
						fill="rgb(156,106,127)" />
					<g>
					<path d ="M 38.724,69.16 
					a 91 364 -9.60 0 0 5.964,-4.62" fill ="none" stroke ="rgb(204.5,134.5,148.5)" stroke-width ="1.422"/></g><circle cx="44.688" cy="64.54" r="0.3555" stroke="rgb(209.5,139.5,153.5)" fill="rgb(204.5,134.5,148.5)"/><use xlink:href="#leaf1"
						x="44.688" y="64.54" 
						transform="rotate(-120 45.098 64.81)" 	
						fill="rgb(132,96,128)" /><use xlink:href="#leaf3"
						x="44.688" y="64.54" 
						transform="rotate(129 44.688 64.54)" 	
						fill="rgb(146,89,125)" /><use xlink:href="#leaf1"
						x="44.688" y="64.54" 
						transform="rotate(14 44.968 64.64)" 	
						fill="rgb(143,86,106)" /><use xlink:href="#leaf1"
						x="44.688" y="64.54" 
						transform="rotate(18 44.688 64.54)" 	
						fill="rgb(134,104,112)" /><use xlink:href="#leaf1"
						x="44.688" y="64.54" 
						transform="rotate(-26 44.688 64.54)" 	
						fill="rgb(149,92,121)" /><use xlink:href="#leaf1"
						x="44.688" y="64.54" 
						transform="rotate(33 45.658 64.64)" 	
						fill="rgb(157,120,113)" />
					<g>
					<path d ="M 38.724,69.16 
					a 97 776 -5.3 0 0 -10.536,-5.172" fill ="none" stroke ="rgb(203.5,134.5,149.5)" stroke-width ="1.422"/></g><circle cx="28.188" cy="63.988" r="0.3555" stroke="rgb(208.5,139.5,154.5)" fill="rgb(203.5,134.5,149.5)"/><use xlink:href="#leaf1"
						x="28.188" y="63.988" 
						transform="rotate(-166 28.248 64.528)" 	
						fill="rgb(155,117,111)" /><use xlink:href="#leaf4"
						x="28.188" y="63.988" 
						transform="rotate(95 28.188 63.988)" 	
						fill="rgb(138,122,90)" /><use xlink:href="#leaf1"
						x="28.188" y="63.988" 
						transform="rotate(167 28.398 64.878)" 	
						fill="rgb(137,83,108)" /><use xlink:href="#leaf1"
						x="28.188" y="63.988" 
						transform="rotate(156 28.618 64.088)" 	
						fill="rgb(124,84,130)" /><use xlink:href="#leaf1"
						x="28.188" y="63.988" 
						transform="rotate(56 28.868 64.138)" 	
						fill="rgb(136,111,93)" /><use xlink:href="#leaf4"
						x="28.188" y="63.988" 
						transform="rotate(-33 28.958 64.098)" 	
						fill="rgb(126,114,120)" /><use xlink:href="#leaf4"
						x="28.188" y="63.988" 
						transform="rotate(74 28.188 63.988)" 	
						fill="rgb(148,114,95)" /><use xlink:href="#leaf1"
						x="28.188" y="63.988" 
						transform="rotate(61 28.188 63.988)" 	
						fill="rgb(143,120,99)" />
					<g>
					<path d ="M 45.396,68.344 
					a 63 252 -1.6 0 0 5.532,-7.512" fill ="none" stroke ="rgb(206.5,136.5,151.5)" stroke-width ="1.422"/></g><circle cx="50.928" cy="60.832" r="0.3555" stroke="rgb(211.5,141.5,156.5)" fill="rgb(206.5,136.5,151.5)"/><use xlink:href="#leaf1"
						x="50.928" y="60.832" 
						transform="rotate(50 51.138 61.232)" 	
						fill="rgb(129,97,93)" /><use xlink:href="#leaf2"
						x="50.928" y="60.832" 
						transform="rotate(164 50.928 60.832)" 	
						fill="rgb(128,84,118)" /><use xlink:href="#leaf3"
						x="50.928" y="60.832" 
						transform="rotate(46 51.728 60.982)" 	
						fill="rgb(139,106,92)" /><use xlink:href="#leaf3"
						x="50.928" y="60.832" 
						transform="rotate(137 50.928 60.832)" 	
						fill="rgb(130,92,115)" /><use xlink:href="#leaf2"
						x="50.928" y="60.832" 
						transform="rotate(-6 50.928 60.832)" 	
						fill="rgb(138,98,110)" /><use xlink:href="#leaf1"
						x="50.928" y="60.832" 
						transform="rotate(-36 50.928 60.832)" 	
						fill="rgb(138,118,90)" /><use xlink:href="#leaf4"
						x="50.928" y="60.832" 
						transform="rotate(73 50.928 60.832)" 	
						fill="rgb(156,106,95)" /><use xlink:href="#leaf1"
						x="50.928" y="60.832" 
						transform="rotate(164 50.928 60.832)" 	
						fill="rgb(148,120,111)" /><use xlink:href="#leaf3"
						x="50.928" y="60.832" 
						transform="rotate(35 51.018 61.422)" 	
						fill="rgb(131,97,130)" /><use xlink:href="#leaf1"
						x="50.928" y="60.832" 
						transform="rotate(125 51.208 61.532)" 	
						fill="rgb(154,112,105)" /><use xlink:href="#leaf4"
						x="50.928" y="60.832" 
						transform="rotate(-170 50.928 60.832)" 	
						fill="rgb(141,86,115)" /><use xlink:href="#leaf3"
						x="50.928" y="60.832" 
						transform="rotate(98 50.928 60.832)" 	
						fill="rgb(150,82,96)" />
					<g>
					<path d ="M 45.396,68.344 
					a 73 657 17.99 0 1 6.144,3.804" fill ="none" stroke ="rgb(209.5,139.5,154.5)" stroke-width ="1.422"/></g><circle cx="51.54" cy="72.148" r="0.3555" stroke="rgb(214.5,144.5,159.5)" fill="rgb(209.5,139.5,154.5)"/><use xlink:href="#leaf1"
						x="51.54" y="72.148" 
						transform="rotate(84 52.32 72.468)" 	
						fill="rgb(129,87,90)" /><use xlink:href="#leaf2"
						x="51.54" y="72.148" 
						transform="rotate(-90 51.84 73.108)" 	
						fill="rgb(143,91,121)" /><use xlink:href="#leaf3"
						x="51.54" y="72.148" 
						transform="rotate(-35 51.57 72.808)" 	
						fill="rgb(133,93,123)" /><use xlink:href="#leaf1"
						x="51.54" y="72.148" 
						transform="rotate(4 51.54 72.148)" 	
						fill="rgb(142,87,104)" /><use xlink:href="#leaf1"
						x="51.54" y="72.148" 
						transform="rotate(65 51.54 72.148)" 	
						fill="rgb(161,91,130)" /><use xlink:href="#leaf1"
						x="51.54" y="72.148" 
						transform="rotate(145 52.07 72.238)" 	
						fill="rgb(135,104,120)" /><use xlink:href="#leaf1"
						x="51.54" y="72.148" 
						transform="rotate(-115 51.54 72.148)" 	
						fill="rgb(125,114,115)" /><use xlink:href="#leaf2"
						x="51.54" y="72.148" 
						transform="rotate(69 51.78 72.298)" 	
						fill="rgb(157,109,130)" /><use xlink:href="#leaf3"
						x="51.54" y="72.148" 
						transform="rotate(71 51.54 72.148)" 	
						fill="rgb(131,101,100)" /><use xlink:href="#leaf3"
						x="51.54" y="72.148" 
						transform="rotate(128 51.54 72.148)" 	
						fill="rgb(131,85,127)" /><use xlink:href="#leaf1"
						x="51.54" y="72.148" 
						transform="rotate(115 51.54 72.148)" 	
						fill="rgb(129,102,112)" /><use xlink:href="#leaf4"
						x="51.54" y="72.148" 
						transform="rotate(18 52.02 72.208)" 	
						fill="rgb(140,86,93)" />
					<g>
					<path d ="M 51.54,72.148 
					a 71 284 -2.42 0 1 -11.052,-7.992" fill ="none" stroke ="rgb(209,142,156)" stroke-width ="0.948"/></g><circle cx="40.488" cy="64.156" r="0.237" stroke="rgb(214,147,161)" fill="rgb(209,142,156)"/><use xlink:href="#leaf3"
						x="40.488" y="64.156" 
						transform="rotate(113 41.178 65.076)" 	
						fill="rgb(150,100,130)" /><use xlink:href="#leaf3"
						x="40.488" y="64.156" 
						transform="rotate(-12 41.138 64.916)" 	
						fill="rgb(148,112,102)" /><use xlink:href="#leaf5"
						x="40.488" y="64.156" 
						transform="rotate(-16 40.578 65.096)" 	
						fill="rgb(158,105,93)" /><use xlink:href="#leaf1"
						x="40.488" y="64.156" 
						transform="rotate(39 41.228 64.976)" 	
						fill="rgb(130,87,91)" />
					<g>
					<path d ="M 51.54,72.148 
					a 73 219 -14.38 0 0 -1.692,-3.96" fill ="none" stroke ="rgb(210.5,143.5,155.5)" stroke-width ="0.948"/></g><circle cx="49.848" cy="68.188" r="0.237" stroke="rgb(215.5,148.5,160.5)" fill="rgb(210.5,143.5,155.5)"/><use xlink:href="#leaf4"
						x="49.848" y="68.188" 
						transform="rotate(114 49.848 68.188)" 	
						fill="rgb(125,119,115)" /><use xlink:href="#leaf1"
						x="49.848" y="68.188" 
						transform="rotate(113 49.878 68.908)" 	
						fill="rgb(152,83,113)" /><use xlink:href="#leaf4"
						x="49.848" y="68.188" 
						transform="rotate(-4 50.528 68.958)" 	
						fill="rgb(141,114,124)" /><use xlink:href="#leaf5"
						x="49.848" y="68.188" 
						transform="rotate(-162 49.888 68.448)" 	
						fill="rgb(161,122,94)" /><use xlink:href="#leaf2"
						x="49.848" y="68.188" 
						transform="rotate(133 50.018 68.978)" 	
						fill="rgb(132,102,96)" /><use xlink:href="#leaf4"
						x="49.848" y="68.188" 
						transform="rotate(139 50.058 68.868)" 	
						fill="rgb(132,115,100)" /><use xlink:href="#leaf4"
						x="49.848" y="68.188" 
						transform="rotate(131 49.848 68.188)" 	
						fill="rgb(149,112,129)" /><use xlink:href="#leaf4"
						x="49.848" y="68.188" 
						transform="rotate(8 49.848 68.188)" 	
						fill="rgb(137,92,120)" /><use xlink:href="#leaf5"
						x="49.848" y="68.188" 
						transform="rotate(-2 49.848 68.188)" 	
						fill="rgb(121,100,116)" /><use xlink:href="#leaf5"
						x="49.848" y="68.188" 
						transform="rotate(-138 49.998 68.648)" 	
						fill="rgb(146,86,117)" /><use xlink:href="#leaf3"
						x="49.848" y="68.188" 
						transform="rotate(61 50.108 68.898)" 	
						fill="rgb(136,87,92)" /><use xlink:href="#leaf4"
						x="49.848" y="68.188" 
						transform="rotate(-3 50.088 68.628)" 	
						fill="rgb(141,95,124)" />
					<g>
					<path d ="M 51.54,72.148 
					a 54 486 6.55 0 0 10.404,-2.76" fill ="none" stroke ="rgb(214,146,156)" stroke-width ="0.948"/></g><circle cx="61.944" cy="69.388" r="0.237" stroke="rgb(219,151,161)" fill="rgb(214,146,156)"/><use xlink:href="#leaf5"
						x="61.944" y="69.388" 
						transform="rotate(-54 61.944 69.388)" 	
						fill="rgb(135,103,94)" /><use xlink:href="#leaf2"
						x="61.944" y="69.388" 
						transform="rotate(152 62.314 69.438)" 	
						fill="rgb(133,119,106)" /><use xlink:href="#leaf5"
						x="61.944" y="69.388" 
						transform="rotate(32 62.274 70.028)" 	
						fill="rgb(129,116,105)" /><use xlink:href="#leaf1"
						x="61.944" y="69.388" 
						transform="rotate(137 62.654 69.448)" 	
						fill="rgb(122,116,112)" /><use xlink:href="#leaf4"
						x="61.944" y="69.388" 
						transform="rotate(13 62.774 69.838)" 	
						fill="rgb(127,102,123)" /><use xlink:href="#leaf5"
						x="61.944" y="69.388" 
						transform="rotate(8 61.944 69.388)" 	
						fill="rgb(161,88,113)" /><use xlink:href="#leaf3"
						x="61.944" y="69.388" 
						transform="rotate(77 62.084 70.278)" 	
						fill="rgb(131,107,108)" /><use xlink:href="#leaf3"
						x="61.944" y="69.388" 
						transform="rotate(-2 62.424 69.578)" 	
						fill="rgb(123,90,108)" /><use xlink:href="#leaf5"
						x="61.944" y="69.388" 
						transform="rotate(-73 62.814 69.578)" 	
						fill="rgb(156,88,120)" />
					<g>
					<path d ="M 51.54,72.148 
					a 67 335 -17.19 0 0 -3.108,-9.516" fill ="none" stroke ="rgb(214.5,147.5,159.5)" stroke-width ="0.948"/></g><circle cx="48.432" cy="62.632" r="0.237" stroke="rgb(219.5,152.5,164.5)" fill="rgb(214.5,147.5,159.5)"/><use xlink:href="#leaf3"
						x="48.432" y="62.632" 
						transform="rotate(100 49.262 62.982)" 	
						fill="rgb(157,116,96)" /><use xlink:href="#leaf2"
						x="48.432" y="62.632" 
						transform="rotate(-125 48.432 62.632)" 	
						fill="rgb(128,89,94)" /><use xlink:href="#leaf3"
						x="48.432" y="62.632" 
						transform="rotate(165 48.972 63.622)" 	
						fill="rgb(155,106,127)" /><use xlink:href="#leaf1"
						x="48.432" y="62.632" 
						transform="rotate(-178 48.432 62.632)" 	
						fill="rgb(136,118,110)" /><use xlink:href="#leaf2"
						x="48.432" y="62.632" 
						transform="rotate(169 49.172 63.262)" 	
						fill="rgb(141,95,106)" /><use xlink:href="#leaf1"
						x="48.432" y="62.632" 
						transform="rotate(8 49.262 62.962)" 	
						fill="rgb(143,103,104)" /><use xlink:href="#leaf1"
						x="48.432" y="62.632" 
						transform="rotate(6 48.432 62.632)" 	
						fill="rgb(124,120,101)" /><use xlink:href="#leaf1"
						x="48.432" y="62.632" 
						transform="rotate(126 48.952 63.142)" 	
						fill="rgb(138,102,101)" />
					<g>
					<path d ="M 48.432,62.632 
					a 82 656 -1.98 0 0 -9,-2.736" fill ="none" stroke ="rgb(214.5,149.5,159.5)" stroke-width ="0.711"/></g><circle cx="39.432" cy="59.896" r="0.17775" stroke="rgb(219.5,154.5,164.5)" fill="rgb(214.5,149.5,159.5)"/><use xlink:href="#leaf6"
						x="39.432" y="59.896" 
						transform="rotate(-88 40.242 60.546)" 	
						fill="rgb(124,98,101)" /><use xlink:href="#leaf2"
						x="39.432" y="59.896" 
						transform="rotate(81 39.432 59.896)" 	
						fill="rgb(129,102,99)" /><use xlink:href="#leaf2"
						x="39.432" y="59.896" 
						transform="rotate(-64 39.432 59.896)" 	
						fill="rgb(146,83,99)" /><use xlink:href="#leaf4"
						x="39.432" y="59.896" 
						transform="rotate(56 39.432 59.896)" 	
						fill="rgb(159,117,104)" /><use xlink:href="#leaf6"
						x="39.432" y="59.896" 
						transform="rotate(97 40.002 60.426)" 	
						fill="rgb(150,115,93)" /><use xlink:href="#leaf2"
						x="39.432" y="59.896" 
						transform="rotate(137 40.052 60.696)" 	
						fill="rgb(129,93,105)" /><use xlink:href="#leaf3"
						x="39.432" y="59.896" 
						transform="rotate(32 39.432 59.896)" 	
						fill="rgb(143,112,90)" /><use xlink:href="#leaf3"
						x="39.432" y="59.896" 
						transform="rotate(-101 39.432 59.896)" 	
						fill="rgb(157,85,93)" /><use xlink:href="#leaf5"
						x="39.432" y="59.896" 
						transform="rotate(171 39.432 59.896)" 	
						fill="rgb(157,121,92)" /><use xlink:href="#leaf6"
						x="39.432" y="59.896" 
						transform="rotate(139 39.972 60.416)" 	
						fill="rgb(134,90,116)" /><use xlink:href="#leaf2"
						x="39.432" y="59.896" 
						transform="rotate(-120 39.972 60.306)" 	
						fill="rgb(134,83,127)" /><use xlink:href="#leaf2"
						x="39.432" y="59.896" 
						transform="rotate(-93 39.432 59.896)" 	
						fill="rgb(140,87,99)" />
					<g>
					<path d ="M 39.432,59.896 
					a 52 52 -15.95 0 1 1.92,-6.576" fill ="none" stroke ="rgb(215,150,160)" stroke-width ="0.5688"/></g><circle cx="41.352" cy="53.32" r="0.1422" stroke="rgb(220,155,165)" fill="rgb(215,150,160)"/><use xlink:href="#leaf5"
						x="41.352" y="53.32" 
						transform="rotate(-65 42.122 53.53)" 	
						fill="rgb(138,85,103)" /><use xlink:href="#leaf3"
						x="41.352" y="53.32" 
						transform="rotate(2 41.352 53.32)" 	
						fill="rgb(146,115,102)" /><use xlink:href="#leaf6"
						x="41.352" y="53.32" 
						transform="rotate(-19 41.352 53.32)" 	
						fill="rgb(145,87,110)" /><use xlink:href="#leaf4"
						x="41.352" y="53.32" 
						transform="rotate(87 41.492 53.85)" 	
						fill="rgb(156,100,104)" /><use xlink:href="#leaf5"
						x="41.352" y="53.32" 
						transform="rotate(116 41.352 53.32)" 	
						fill="rgb(150,105,103)" /><use xlink:href="#leaf3"
						x="41.352" y="53.32" 
						transform="rotate(-86 41.822 53.83)" 	
						fill="rgb(132,93,125)" /><use xlink:href="#leaf3"
						x="41.352" y="53.32" 
						transform="rotate(162 41.352 53.32)" 	
						fill="rgb(150,108,120)" /><use xlink:href="#leaf3"
						x="41.352" y="53.32" 
						transform="rotate(167 42.032 53.75)" 	
						fill="rgb(126,91,130)" /><use xlink:href="#leaf5"
						x="41.352" y="53.32" 
						transform="rotate(3 41.542 53.89)" 	
						fill="rgb(133,96,96)" /><use xlink:href="#leaf7"
						x="41.352" y="53.32" 
						transform="rotate(-77 41.482 53.8)" 	
						fill="rgb(157,93,123)" /><use xlink:href="#leaf6"
						x="41.352" y="53.32" 
						transform="rotate(-134 41.352 53.32)" 	
						fill="rgb(126,113,94)" /><use xlink:href="#leaf4"
						x="41.352" y="53.32" 
						transform="rotate(-25 41.352 53.32)" 	
						fill="rgb(150,109,123)" /><use xlink:href="#flower4" id="fleur140"
							x="41.352" y="53.32" 
							transform="rotate(-56 41.352 53.32)" />
					<g>
					<path d ="M 38.724,69.16 
					a 90 360 7.50 0 0 9.252,0.252" fill ="none" stroke ="rgb(218,149,162)" stroke-width ="1.422"/></g><circle cx="47.976" cy="69.412" r="0.3555" stroke="rgb(223,154,167)" fill="rgb(218,149,162)"/><use xlink:href="#leaf3"
						x="47.976" y="69.412" 
						transform="rotate(-3 47.976 69.412)" 	
						fill="rgb(159,85,106)" /><use xlink:href="#leaf1"
						x="47.976" y="69.412" 
						transform="rotate(78 47.976 69.412)" 	
						fill="rgb(135,121,114)" /><use xlink:href="#leaf2"
						x="47.976" y="69.412" 
						transform="rotate(-90 47.976 69.412)" 	
						fill="rgb(133,83,100)" /><use xlink:href="#leaf1"
						x="47.976" y="69.412" 
						transform="rotate(78 48.366 70.222)" 	
						fill="rgb(157,89,118)" /><use xlink:href="#leaf4"
						x="47.976" y="69.412" 
						transform="rotate(-105 47.976 69.412)" 	
						fill="rgb(130,118,114)" /><use xlink:href="#leaf4"
						x="47.976" y="69.412" 
						transform="rotate(67 47.976 69.412)" 	
						fill="rgb(132,120,90)" /><use xlink:href="#leaf3"
						x="47.976" y="69.412" 
						transform="rotate(151 48.786 69.932)" 	
						fill="rgb(145,103,106)" /><use xlink:href="#leaf4"
						x="47.976" y="69.412" 
						transform="rotate(120 48.836 70.222)" 	
						fill="rgb(154,122,111)" />
					<g>
					<path d ="M 48.432,62.632 
					a 88 704 -6.98 0 1 0.948,-5.544" fill ="none" stroke ="rgb(218,153,163)" stroke-width ="0.711"/></g><circle cx="49.38" cy="57.088" r="0.17775" stroke="rgb(223,158,168)" fill="rgb(218,153,163)"/><use xlink:href="#leaf3"
						x="49.38" y="57.088" 
						transform="rotate(-117 49.44 57.158)" 	
						fill="rgb(135,109,91)" /><use xlink:href="#leaf6"
						x="49.38" y="57.088" 
						transform="rotate(116 49.62 58.078)" 	
						fill="rgb(155,106,125)" /><use xlink:href="#leaf4"
						x="49.38" y="57.088" 
						transform="rotate(65 49.38 57.088)" 	
						fill="rgb(139,85,121)" /><use xlink:href="#leaf4"
						x="49.38" y="57.088" 
						transform="rotate(70 50.2 57.378)" 	
						fill="rgb(136,120,114)" /><use xlink:href="#leaf3"
						x="49.38" y="57.088" 
						transform="rotate(-86 49.98 57.248)" 	
						fill="rgb(141,118,127)" /><use xlink:href="#leaf6"
						x="49.38" y="57.088" 
						transform="rotate(-116 50.35 57.988)" 	
						fill="rgb(156,105,127)" /><use xlink:href="#leaf3"
						x="49.38" y="57.088" 
						transform="rotate(-152 49.64 57.698)" 	
						fill="rgb(161,96,106)" /><use xlink:href="#leaf4"
						x="49.38" y="57.088" 
						transform="rotate(-109 49.38 57.088)" 	
						fill="rgb(127,115,109)" /><use xlink:href="#leaf2"
						x="49.38" y="57.088" 
						transform="rotate(-100 49.51 57.778)" 	
						fill="rgb(141,84,109)" /><use xlink:href="#flower2" id="fleur160"
							x="49.38" y="57.088" 
							transform="rotate(-102 49.38 57.088)" />
					<g>
					<path d ="M 49.38,57.088 
					a 58 232 -17.39 0 1 -3.276,-8.904" fill ="none" stroke ="rgb(218.5,153.5,163.5)" stroke-width ="0.5688"/></g><circle cx="46.104" cy="48.184" r="0.1422" stroke="rgb(223.5,158.5,168.5)" fill="rgb(218.5,153.5,163.5)"/><use xlink:href="#leaf3"
						x="46.104" y="48.184" 
						transform="rotate(-175 46.214 48.844)" 	
						fill="rgb(135,85,102)" /><use xlink:href="#leaf3"
						x="46.104" y="48.184" 
						transform="rotate(104 46.724 49.014)" 	
						fill="rgb(145,87,104)" /><use xlink:href="#leaf7"
						x="46.104" y="48.184" 
						transform="rotate(-83 46.714 48.374)" 	
						fill="rgb(121,90,113)" /><use xlink:href="#leaf7"
						x="46.104" y="48.184" 
						transform="rotate(-103 46.424 48.384)" 	
						fill="rgb(140,97,111)" /><use xlink:href="#leaf6"
						x="46.104" y="48.184" 
						transform="rotate(-79 46.414 48.794)" 	
						fill="rgb(124,95,117)" /><use xlink:href="#leaf6"
						x="46.104" y="48.184" 
						transform="rotate(62 46.344 48.974)" 	
						fill="rgb(121,91,91)" /><use xlink:href="#leaf5"
						x="46.104" y="48.184" 
						transform="rotate(-14 46.104 48.184)" 	
						fill="rgb(152,99,96)" /><use xlink:href="#leaf3"
						x="46.104" y="48.184" 
						transform="rotate(130 46.104 48.184)" 	
						fill="rgb(144,117,130)" /><use xlink:href="#leaf6"
						x="46.104" y="48.184" 
						transform="rotate(17 46.104 48.184)" 	
						fill="rgb(156,105,117)" />
					<g>
					<path d ="M 38.22,70 
					a 93 186 16.95 0 0 11.4,-1.464" fill ="none" stroke ="rgb(218.5,156.5,162.5)" stroke-width ="1.422"/></g><circle cx="49.62" cy="68.536" r="0.3555" stroke="rgb(223.5,161.5,167.5)" fill="rgb(218.5,156.5,162.5)"/><use xlink:href="#leaf3"
						x="49.62" y="68.536" 
						transform="rotate(-13 49.97 69.426)" 	
						fill="rgb(122,122,102)" /><use xlink:href="#leaf2"
						x="49.62" y="68.536" 
						transform="rotate(110 49.62 68.536)" 	
						fill="rgb(151,119,125)" /><use xlink:href="#leaf4"
						x="49.62" y="68.536" 
						transform="rotate(32 50.49 68.926)" 	
						fill="rgb(126,103,99)" /><use xlink:href="#leaf3"
						x="49.62" y="68.536" 
						transform="rotate(-80 50 68.616)" 	
						fill="rgb(158,100,90)" /><use xlink:href="#leaf1"
						x="49.62" y="68.536" 
						transform="rotate(147 49.62 68.536)" 	
						fill="rgb(156,102,92)" />
					<g>
					<path d ="M 38.22,70 
					a 80 400 -15.65 0 1 -3.84,-5.988" fill ="none" stroke ="rgb(220.5,155.5,161.5)" stroke-width ="1.422"/></g><circle cx="34.38" cy="64.012" r="0.3555" stroke="rgb(225.5,160.5,166.5)" fill="rgb(220.5,155.5,161.5)"/><use xlink:href="#leaf1"
						x="34.38" y="64.012" 
						transform="rotate(54 34.68 64.322)" 	
						fill="rgb(158,120,97)" /><use xlink:href="#leaf1"
						x="34.38" y="64.012" 
						transform="rotate(-145 34.38 64.012)" 	
						fill="rgb(139,97,121)" /><use xlink:href="#leaf2"
						x="34.38" y="64.012" 
						transform="rotate(173 34.38 64.012)" 	
						fill="rgb(158,90,119)" /><use xlink:href="#leaf4"
						x="34.38" y="64.012" 
						transform="rotate(31 34.38 64.012)" 	
						fill="rgb(149,104,124)" /><use xlink:href="#leaf1"
						x="34.38" y="64.012" 
						transform="rotate(-109 35.08 64.882)" 	
						fill="rgb(134,97,126)" /><use xlink:href="#leaf4"
						x="34.38" y="64.012" 
						transform="rotate(56 35.04 64.062)" 	
						fill="rgb(154,105,129)" /><use xlink:href="#leaf1"
						x="34.38" y="64.012" 
						transform="rotate(-176 34.73 64.072)" 	
						fill="rgb(136,101,108)" /><use xlink:href="#leaf2"
						x="34.38" y="64.012" 
						transform="rotate(70 34.38 64.012)" 	
						fill="rgb(123,95,130)" /><use xlink:href="#leaf4"
						x="34.38" y="64.012" 
						transform="rotate(-34 34.38 64.012)" 	
						fill="rgb(136,84,93)" /><use xlink:href="#leaf3"
						x="34.38" y="64.012" 
						transform="rotate(-121 34.56 64.892)" 	
						fill="rgb(133,84,90)" /><use xlink:href="#leaf1"
						x="34.38" y="64.012" 
						transform="rotate(-122 35.14 64.972)" 	
						fill="rgb(160,97,107)" />
					<g>
					<path d ="M 38.22,70 
					a 100 500 -7.17 0 1 -2.208,-7.704" fill ="none" stroke ="rgb(221.5,157.5,162.5)" stroke-width ="1.422"/></g><circle cx="36.012" cy="62.296" r="0.3555" stroke="rgb(226.5,162.5,167.5)" fill="rgb(221.5,157.5,162.5)"/><use xlink:href="#leaf1"
						x="36.012" y="62.296" 
						transform="rotate(-172 36.842 63.246)" 	
						fill="rgb(154,108,120)" /><use xlink:href="#leaf4"
						x="36.012" y="62.296" 
						transform="rotate(119 36.012 62.296)" 	
						fill="rgb(127,114,108)" /><use xlink:href="#leaf2"
						x="36.012" y="62.296" 
						transform="rotate(-151 36.472 62.466)" 	
						fill="rgb(133,119,93)" /><use xlink:href="#leaf1"
						x="36.012" y="62.296" 
						transform="rotate(137 36.342 62.436)" 	
						fill="rgb(142,113,130)" /><use xlink:href="#leaf1"
						x="36.012" y="62.296" 
						transform="rotate(-131 36.272 62.426)" 	
						fill="rgb(160,117,114)" /><use xlink:href="#leaf1"
						x="36.012" y="62.296" 
						transform="rotate(-110 36.012 62.296)" 	
						fill="rgb(142,116,112)" /><use xlink:href="#leaf4"
						x="36.012" y="62.296" 
						transform="rotate(7 36.012 62.296)" 	
						fill="rgb(136,93,107)" /><use xlink:href="#leaf3"
						x="36.012" y="62.296" 
						transform="rotate(-6 36.012 62.296)" 	
						fill="rgb(121,96,100)" /><use xlink:href="#leaf2"
						x="36.012" y="62.296" 
						transform="rotate(52 36.012 62.296)" 	
						fill="rgb(136,97,90)" /><use xlink:href="#leaf2"
						x="36.012" y="62.296" 
						transform="rotate(-26 36.012 62.296)" 	
						fill="rgb(136,109,106)" /><use xlink:href="#leaf4"
						x="36.012" y="62.296" 
						transform="rotate(178 36.202 62.746)" 	
						fill="rgb(126,104,104)" />
					<g>
					<path d ="M 51.54,72.148 
					a 88 792 -1.28 0 1 12.372,-5.604" fill ="none" stroke ="rgb(225,159,163)" stroke-width ="0.948"/></g><circle cx="63.912" cy="66.544" r="0.237" stroke="rgb(230,164,168)" fill="rgb(225,159,163)"/><use xlink:href="#leaf1"
						x="63.912" y="66.544" 
						transform="rotate(128 63.912 66.544)" 	
						fill="rgb(157,110,97)" /><use xlink:href="#leaf4"
						x="63.912" y="66.544" 
						transform="rotate(-96 63.912 66.544)" 	
						fill="rgb(128,118,129)" /><use xlink:href="#leaf5"
						x="63.912" y="66.544" 
						transform="rotate(-52 64.452 67.484)" 	
						fill="rgb(159,88,117)" /><use xlink:href="#leaf1"
						x="63.912" y="66.544" 
						transform="rotate(-59 64.532 67.104)" 	
						fill="rgb(135,109,117)" /><use xlink:href="#leaf1"
						x="63.912" y="66.544" 
						transform="rotate(-81 63.912 66.544)" 	
						fill="rgb(142,115,109)" /><use xlink:href="#leaf4"
						x="63.912" y="66.544" 
						transform="rotate(-160 64.192 67.184)" 	
						fill="rgb(131,120,115)" /><use xlink:href="#leaf2"
						x="63.912" y="66.544" 
						transform="rotate(75 63.912 66.544)" 	
						fill="rgb(128,94,124)" /><use xlink:href="#leaf2"
						x="63.912" y="66.544" 
						transform="rotate(-35 63.912 66.544)" 	
						fill="rgb(159,85,111)" /><use xlink:href="#leaf3"
						x="63.912" y="66.544" 
						transform="rotate(-179 64.222 66.984)" 	
						fill="rgb(159,83,123)" /></g>
				</svg>