<svg class="relie" xmlns="http://www.w3.org/2000/svg" viewBox="0 0 100 100" preserveAspectRatio="xMidYMid meet" x="0" y="0" overflow="visible" xmlns:xlink="http://www.w3.org/1999/xlink">

		<defs>  <g id="leaf1" transform="skewX(-9) skewY(-9)"><path d="M 0,0 
					q 0.5125 0.26 0,1.5 
					M 0,0 
					q -0.5125 0.26 0,1.5 " 
					stroke-width ="0.2" /></g>  <g id="leaf2" transform="skewX(-2) skewY(-2)"><path d="M 0,0 
					q 1.025 0.52 0,3 
					M 0,0 
					q -1.025 0.52 0,3 " 
					stroke-width ="0.2" /></g>  <g id="leaf3" transform="skewX(8) skewY(8)"><path d="M 0,0 
					q 1.5375 0.78 0,4.5 
					M 0,0 
					q -1.5375 0.78 0,4.5 " 
					stroke-width ="0.2" /></g>  <g id="leaf4" transform="skewX(-7) skewY(-7)"><path d="M 0,0 
					q 2.05 1.04 0,6 
					M 0,0 
					q -2.05 1.04 0,6 " 
					stroke-width ="0.2" /></g>  <g id="leaf5" transform="skewX(18) skewY(18)"><path d="M 0,0 
					q 2.5625 1.3 0,7.5 
					M 0,0 
					q -2.5625 1.3 0,7.5 " 
					stroke-width ="0.2" /></g>  <g id="leaf6" transform="skewX(2) skewY(2)"><path d="M 0,0 
					q 3.075 1.56 0,9 
					M 0,0 
					q -3.075 1.56 0,9 " 
					stroke-width ="0.2" /></g>  <g id="leaf7" transform="skewX(12) skewY(12)"><path d="M 0,0 
					q 3.5875 1.82 0,10.5 
					M 0,0 
					q -3.5875 1.82 0,10.5 " 
					stroke-width ="0.2" /></g>  <g id="leaf8" transform="skewX(0) skewY(0)"><path d="M 0,0 
					q 4.1 2.08 0,12 
					M 0,0 
					q -4.1 2.08 0,12 " 
					stroke-width ="0.2" /></g><g id="flower1" transform="skewX(2) skewY(2)">
						<path d="M 0,0
						Q 0.43,0.125 0,0.115"
						stroke="rgb(27,52,155)" 
						fill="transparent"
						stroke-width ="0.3" /><path d="M 0,0.115 
						q -0.235 -0.1275 0.3875,0.05 q 0.05375 -0.1275 0.125,0.05 q 0.415 0.1275 -0.125,0.05 q -0.29375 0.1275 -0.125,0.05 q 0.3025 0.1275 -0.2625,1 
						M 0,0.115 
						q 0.235 -0.1275 -0.3875,0.05 q -0.05375 -0.1275 -0.125,0.05 q -0.415 0.1275 0.125,0.05 q 0.29375 0.1275 0.125,0.05 q -0.3025 0.1275 0.2625,1 " 
						transform="rotate(0 0,0.115 )"
						stroke-width ="0.1"
						fill="rgb(163,125,228)"
						/><circle cx="0" cy="0.115" r="0" fill="rgb(89,83,88)"/><circle cx="0.07" cy="0.165" r="0" fill="rgb(105.5,86.5,100.5)"/><path d="M 0,0.115 
						q -0.235 -0.1275 0.3875,0.05 q 0.05375 -0.1275 0.125,0.05 q 0.415 0.1275 -0.125,0.05 q -0.29375 0.1275 -0.125,0.05 q 0.3025 0.1275 -0.2625,1 
						M 0,0.115 
						q 0.235 -0.1275 -0.3875,0.05 q -0.05375 -0.1275 -0.125,0.05 q -0.415 0.1275 0.125,0.05 q 0.29375 0.1275 0.125,0.05 q -0.3025 0.1275 0.2625,1 " 
						transform="rotate(55.384615384615 0,0.115 )"
						stroke-width ="0.1"
						fill="rgb(147.5,116.5,222.5)"
						/><circle cx="0" cy="0.115" r="0" fill="rgb(89,83,88)"/><circle cx="0.09" cy="0.175" r="0" fill="rgb(105.5,86.5,100.5)"/><path d="M 0,0.115 
						q -0.235 -0.1275 0.3875,0.05 q 0.05375 -0.1275 0.125,0.05 q 0.415 0.1275 -0.125,0.05 q -0.29375 0.1275 -0.125,0.05 q 0.3025 0.1275 -0.2625,1 
						M 0,0.115 
						q 0.235 -0.1275 -0.3875,0.05 q -0.05375 -0.1275 -0.125,0.05 q -0.415 0.1275 0.125,0.05 q 0.29375 0.1275 0.125,0.05 q -0.3025 0.1275 0.2625,1 " 
						transform="rotate(110.76923076923 0,0.115 )"
						stroke-width ="0.1"
						fill="rgb(152,117,218)"
						/><circle cx="0" cy="0.115" r="0" fill="rgb(89,83,88)"/><circle cx="-0.04" cy="0.195" r="0" fill="rgb(105.5,86.5,100.5)"/><path d="M 0,0.115 
						q -0.235 -0.1275 0.3875,0.05 q 0.05375 -0.1275 0.125,0.05 q 0.415 0.1275 -0.125,0.05 q -0.29375 0.1275 -0.125,0.05 q 0.3025 0.1275 -0.2625,1 
						M 0,0.115 
						q 0.235 -0.1275 -0.3875,0.05 q -0.05375 -0.1275 -0.125,0.05 q -0.415 0.1275 0.125,0.05 q 0.29375 0.1275 0.125,0.05 q -0.3025 0.1275 0.2625,1 " 
						transform="rotate(166.15384615385 0,0.115 )"
						stroke-width ="0.1"
						fill="rgb(152.5,117.5,219.5)"
						/><circle cx="0" cy="0.115" r="0" fill="rgb(89,83,88)"/><circle cx="0" cy="0.165" r="0" fill="rgb(105.5,86.5,100.5)"/><path d="M 0,0.115 
						q -0.235 -0.1275 0.3875,0.05 q 0.05375 -0.1275 0.125,0.05 q 0.415 0.1275 -0.125,0.05 q -0.29375 0.1275 -0.125,0.05 q 0.3025 0.1275 -0.2625,1 
						M 0,0.115 
						q 0.235 -0.1275 -0.3875,0.05 q -0.05375 -0.1275 -0.125,0.05 q -0.415 0.1275 0.125,0.05 q 0.29375 0.1275 0.125,0.05 q -0.3025 0.1275 0.2625,1 " 
						transform="rotate(221.53846153846 0,0.115 )"
						stroke-width ="0.1"
						fill="rgb(140,117,213)"
						/><circle cx="0" cy="0.115" r="0" fill="rgb(89,83,88)"/><circle cx="-0.01" cy="0.035" r="0" fill="rgb(105.5,86.5,100.5)"/><path d="M 0,0.115 
						q -0.235 -0.1275 0.3875,0.05 q 0.05375 -0.1275 0.125,0.05 q 0.415 0.1275 -0.125,0.05 q -0.29375 0.1275 -0.125,0.05 q 0.3025 0.1275 -0.2625,1 
						M 0,0.115 
						q 0.235 -0.1275 -0.3875,0.05 q -0.05375 -0.1275 -0.125,0.05 q -0.415 0.1275 0.125,0.05 q 0.29375 0.1275 0.125,0.05 q -0.3025 0.1275 0.2625,1 " 
						transform="rotate(276.92307692308 0,0.115 )"
						stroke-width ="0.1"
						fill="rgb(139.5,106.5,215.5)"
						/><circle cx="0" cy="0.115" r="0" fill="rgb(89,83,88)"/><circle cx="0.1" cy="0.155" r="0" fill="rgb(105.5,86.5,100.5)"/><path d="M 0,0.115 
						q -0.235 -0.1275 0.3875,0.05 q 0.05375 -0.1275 0.125,0.05 q 0.415 0.1275 -0.125,0.05 q -0.29375 0.1275 -0.125,0.05 q 0.3025 0.1275 -0.2625,1 
						M 0,0.115 
						q 0.235 -0.1275 -0.3875,0.05 q -0.05375 -0.1275 -0.125,0.05 q -0.415 0.1275 0.125,0.05 q 0.29375 0.1275 0.125,0.05 q -0.3025 0.1275 0.2625,1 " 
						transform="rotate(332.30769230769 0,0.115 )"
						stroke-width ="0.1"
						fill="rgb(136,114,217)"
						/><circle cx="0" cy="0.115" r="0" fill="rgb(89,83,88)"/><circle cx="0.03" cy="0.085" r="0" fill="rgb(105.5,86.5,100.5)"/><path d="M 0,0.115 
						q -0.235 -0.1275 0.3875,0.05 q 0.05375 -0.1275 0.125,0.05 q 0.415 0.1275 -0.125,0.05 q -0.29375 0.1275 -0.125,0.05 q 0.3025 0.1275 -0.2625,1 
						M 0,0.115 
						q 0.235 -0.1275 -0.3875,0.05 q -0.05375 -0.1275 -0.125,0.05 q -0.415 0.1275 0.125,0.05 q 0.29375 0.1275 0.125,0.05 q -0.3025 0.1275 0.2625,1 " 
						transform="rotate(387.69230769231 0,0.115 )"
						stroke-width ="0.1"
						fill="rgb(141.5,110.5,206.5)"
						/><circle cx="0" cy="0.115" r="0" fill="rgb(89,83,88)"/><circle cx="-0.03" cy="0.015" r="0" fill="rgb(105.5,86.5,100.5)"/><path d="M 0,0.115 
						q -0.235 -0.1275 0.3875,0.05 q 0.05375 -0.1275 0.125,0.05 q 0.415 0.1275 -0.125,0.05 q -0.29375 0.1275 -0.125,0.05 q 0.3025 0.1275 -0.2625,1 
						M 0,0.115 
						q 0.235 -0.1275 -0.3875,0.05 q -0.05375 -0.1275 -0.125,0.05 q -0.415 0.1275 0.125,0.05 q 0.29375 0.1275 0.125,0.05 q -0.3025 0.1275 0.2625,1 " 
						transform="rotate(443.07692307692 0,0.115 )"
						stroke-width ="0.1"
						fill="rgb(139,108,205)"
						/><circle cx="0" cy="0.115" r="0" fill="rgb(89,83,88)"/><circle cx="-0.09" cy="0.135" r="0" fill="rgb(105.5,86.5,100.5)"/><path d="M 0,0.115 
						q -0.235 -0.1275 0.3875,0.05 q 0.05375 -0.1275 0.125,0.05 q 0.415 0.1275 -0.125,0.05 q -0.29375 0.1275 -0.125,0.05 q 0.3025 0.1275 -0.2625,1 
						M 0,0.115 
						q 0.235 -0.1275 -0.3875,0.05 q -0.05375 -0.1275 -0.125,0.05 q -0.415 0.1275 0.125,0.05 q 0.29375 0.1275 0.125,0.05 q -0.3025 0.1275 0.2625,1 " 
						transform="rotate(498.46153846154 0,0.115 )"
						stroke-width ="0.1"
						fill="rgb(131.5,99.5,206.5)"
						/><circle cx="0" cy="0.115" r="0" fill="rgb(89,83,88)"/><circle cx="-0.06" cy="0.195" r="0" fill="rgb(105.5,86.5,100.5)"/><path d="M 0,0.115 
						q -0.235 -0.1275 0.3875,0.05 q 0.05375 -0.1275 0.125,0.05 q 0.415 0.1275 -0.125,0.05 q -0.29375 0.1275 -0.125,0.05 q 0.3025 0.1275 -0.2625,1 
						M 0,0.115 
						q 0.235 -0.1275 -0.3875,0.05 q -0.05375 -0.1275 -0.125,0.05 q -0.415 0.1275 0.125,0.05 q 0.29375 0.1275 0.125,0.05 q -0.3025 0.1275 0.2625,1 " 
						transform="rotate(553.84615384615 0,0.115 )"
						stroke-width ="0.1"
						fill="rgb(121,96,207)"
						/><circle cx="0" cy="0.115" r="0" fill="rgb(89,83,88)"/><circle cx="0.01" cy="0.095" r="0" fill="rgb(105.5,86.5,100.5)"/><path d="M 0,0.115 
						q -0.235 -0.1275 0.3875,0.05 q 0.05375 -0.1275 0.125,0.05 q 0.415 0.1275 -0.125,0.05 q -0.29375 0.1275 -0.125,0.05 q 0.3025 0.1275 -0.2625,1 
						M 0,0.115 
						q 0.235 -0.1275 -0.3875,0.05 q -0.05375 -0.1275 -0.125,0.05 q -0.415 0.1275 0.125,0.05 q 0.29375 0.1275 0.125,0.05 q -0.3025 0.1275 0.2625,1 " 
						transform="rotate(609.23076923077 0,0.115 )"
						stroke-width ="0.1"
						fill="rgb(134.5,108.5,204.5)"
						/><circle cx="0" cy="0.115" r="0" fill="rgb(89,83,88)"/><circle cx="0.01" cy="0.125" r="0" fill="rgb(105.5,86.5,100.5)"/><path d="M 0,0.115 
						q -0.235 -0.1275 0.3875,0.05 q 0.05375 -0.1275 0.125,0.05 q 0.415 0.1275 -0.125,0.05 q -0.29375 0.1275 -0.125,0.05 q 0.3025 0.1275 -0.2625,1 
						M 0,0.115 
						q 0.235 -0.1275 -0.3875,0.05 q -0.05375 -0.1275 -0.125,0.05 q -0.415 0.1275 0.125,0.05 q 0.29375 0.1275 0.125,0.05 q -0.3025 0.1275 0.2625,1 " 
						transform="rotate(664.61538461538 0,0.115 )"
						stroke-width ="0.1"
						fill="rgb(126,105,189)"
						/><circle cx="0" cy="0.115" r="0" fill="rgb(89,83,88)"/><circle cx="-0.03" cy="0.155" r="0" fill="rgb(105.5,86.5,100.5)"/><path d="M 0,0.115 
						q -0.235 -0.1275 0.3875,0.05 q 0.05375 -0.1275 0.125,0.05 q 0.415 0.1275 -0.125,0.05 q -0.29375 0.1275 -0.125,0.05 q 0.3025 0.1275 -0.2625,1 
						M 0,0.115 
						q 0.235 -0.1275 -0.3875,0.05 q -0.05375 -0.1275 -0.125,0.05 q -0.415 0.1275 0.125,0.05 q 0.29375 0.1275 0.125,0.05 q -0.3025 0.1275 0.2625,1 " 
						transform="rotate(720 0,0.115 )"
						stroke-width ="0.1"
						fill="rgb(113.5,99.5,202.5)"
						/><circle cx="0" cy="0.115" r="0" fill="rgb(89,83,88)"/><circle cx="0.05" cy="0.155" r="0" fill="rgb(105.5,86.5,100.5)"/></g><g id="flower2" transform="skewX(5) skewY(5)">
						<path d="M 0,0
						Q 1.13,0.25 0,0.23"
						stroke="rgb(27,52,155)" 
						fill="transparent"
						stroke-width ="0.3" /><path d="M 0,0.23 
						q -0.47 -0.255 0.575,0.1 q 0.1075 -0.255 0.25,0.1 q 0.83 0.255 -0.25,0.1 q -0.5875 0.255 -0.25,0.1 q 0.605 0.255 -0.325,1 
						M 0,0.23 
						q 0.47 -0.255 -0.575,0.1 q -0.1075 -0.255 -0.25,0.1 q -0.83 0.255 0.25,0.1 q 0.5875 0.255 0.25,0.1 q -0.605 0.255 0.325,1 " 
						transform="rotate(0 0,0.23 )"
						stroke-width ="0.1"
						fill="rgb(146,119,216)"
						/><path d="M 0,0.23 
						q -0.47 -0.255 0.575,0.1 q 0.1075 -0.255 0.25,0.1 q 0.83 0.255 -0.25,0.1 q -0.5875 0.255 -0.25,0.1 q 0.605 0.255 -0.325,1 
						M 0,0.23 
						q 0.47 -0.255 -0.575,0.1 q -0.1075 -0.255 -0.25,0.1 q -0.83 0.255 0.25,0.1 q 0.5875 0.255 0.25,0.1 q -0.605 0.255 0.325,1 " 
						transform="rotate(16.615384615385 0,0.23 )"
						stroke-width ="0.1"
						fill="rgb(154.5,135.5,228.5)"
						/><path d="M 0,0.23 
						q -0.47 -0.255 0.575,0.1 q 0.1075 -0.255 0.25,0.1 q 0.83 0.255 -0.25,0.1 q -0.5875 0.255 -0.25,0.1 q 0.605 0.255 -0.325,1 
						M 0,0.23 
						q 0.47 -0.255 -0.575,0.1 q -0.1075 -0.255 -0.25,0.1 q -0.83 0.255 0.25,0.1 q 0.5875 0.255 0.25,0.1 q -0.605 0.255 0.325,1 " 
						transform="rotate(33.230769230769 0,0.23 )"
						stroke-width ="0.1"
						fill="rgb(140,117,226)"
						/><path d="M 0,0.23 
						q -0.47 -0.255 0.575,0.1 q 0.1075 -0.255 0.25,0.1 q 0.83 0.255 -0.25,0.1 q -0.5875 0.255 -0.25,0.1 q 0.605 0.255 -0.325,1 
						M 0,0.23 
						q 0.47 -0.255 -0.575,0.1 q -0.1075 -0.255 -0.25,0.1 q -0.83 0.255 0.25,0.1 q 0.5875 0.255 0.25,0.1 q -0.605 0.255 0.325,1 " 
						transform="rotate(49.846153846154 0,0.23 )"
						stroke-width ="0.1"
						fill="rgb(153.5,115.5,208.5)"
						/></g><g id="flower3" transform="skewX(-7) skewY(-7)">
						<path d="M 0,0
						Q 0.1,0.375 0,0.345"
						stroke="rgb(27,52,155)" 
						fill="transparent"
						stroke-width ="0.3" /><path d="M 0,0.345 
						q -0.705 -0.3825 0.7625,0.15 q 0.16125 -0.3825 0.375,0.15 q 1.245 0.3825 -0.375,0.15 q -0.88125 0.3825 -0.375,0.15 q 0.9075 0.3825 -0.3875,1 
						M 0,0.345 
						q 0.705 -0.3825 -0.7625,0.15 q -0.16125 -0.3825 -0.375,0.15 q -1.245 0.3825 0.375,0.15 q 0.88125 0.3825 0.375,0.15 q -0.9075 0.3825 0.3875,1 " 
						transform="rotate(0 0,0.345 )"
						stroke-width ="0.1"
						fill="rgb(158,127,217)"
						/><circle cx="0" cy="0.345" r="0" fill="rgb(88,82,89)"/><circle cx="0.02" cy="0.325" r="0" fill="rgb(101.5,89.5,109.5)"/><path d="M 0,0.345 
						q -0.705 -0.3825 0.7625,0.15 q 0.16125 -0.3825 0.375,0.15 q 1.245 0.3825 -0.375,0.15 q -0.88125 0.3825 -0.375,0.15 q 0.9075 0.3825 -0.3875,1 
						M 0,0.345 
						q 0.705 -0.3825 -0.7625,0.15 q -0.16125 -0.3825 -0.375,0.15 q -1.245 0.3825 0.375,0.15 q 0.88125 0.3825 0.375,0.15 q -0.9075 0.3825 0.3875,1 " 
						transform="rotate(55.384615384615 0,0.345 )"
						stroke-width ="0.1"
						fill="rgb(152.5,117.5,226.5)"
						/><circle cx="0" cy="0.345" r="0" fill="rgb(88,82,89)"/><circle cx="0.03" cy="0.425" r="0" fill="rgb(101.5,89.5,109.5)"/><path d="M 0,0.345 
						q -0.705 -0.3825 0.7625,0.15 q 0.16125 -0.3825 0.375,0.15 q 1.245 0.3825 -0.375,0.15 q -0.88125 0.3825 -0.375,0.15 q 0.9075 0.3825 -0.3875,1 
						M 0,0.345 
						q 0.705 -0.3825 -0.7625,0.15 q -0.16125 -0.3825 -0.375,0.15 q -1.245 0.3825 0.375,0.15 q 0.88125 0.3825 0.375,0.15 q -0.9075 0.3825 0.3875,1 " 
						transform="rotate(110.76923076923 0,0.345 )"
						stroke-width ="0.1"
						fill="rgb(147,126,224)"
						/><circle cx="0" cy="0.345" r="0" fill="rgb(88,82,89)"/><circle cx="0.02" cy="0.285" r="0" fill="rgb(101.5,89.5,109.5)"/><path d="M 0,0.345 
						q -0.705 -0.3825 0.7625,0.15 q 0.16125 -0.3825 0.375,0.15 q 1.245 0.3825 -0.375,0.15 q -0.88125 0.3825 -0.375,0.15 q 0.9075 0.3825 -0.3875,1 
						M 0,0.345 
						q 0.705 -0.3825 -0.7625,0.15 q -0.16125 -0.3825 -0.375,0.15 q -1.245 0.3825 0.375,0.15 q 0.88125 0.3825 0.375,0.15 q -0.9075 0.3825 0.3875,1 " 
						transform="rotate(166.15384615385 0,0.345 )"
						stroke-width ="0.1"
						fill="rgb(150.5,118.5,213.5)"
						/><circle cx="0" cy="0.345" r="0" fill="rgb(88,82,89)"/><circle cx="-0.01" cy="0.325" r="0" fill="rgb(101.5,89.5,109.5)"/><path d="M 0,0.345 
						q -0.705 -0.3825 0.7625,0.15 q 0.16125 -0.3825 0.375,0.15 q 1.245 0.3825 -0.375,0.15 q -0.88125 0.3825 -0.375,0.15 q 0.9075 0.3825 -0.3875,1 
						M 0,0.345 
						q 0.705 -0.3825 -0.7625,0.15 q -0.16125 -0.3825 -0.375,0.15 q -1.245 0.3825 0.375,0.15 q 0.88125 0.3825 0.375,0.15 q -0.9075 0.3825 0.3875,1 " 
						transform="rotate(221.53846153846 0,0.345 )"
						stroke-width ="0.1"
						fill="rgb(142,119,209)"
						/><circle cx="0" cy="0.345" r="0" fill="rgb(88,82,89)"/><circle cx="-0.04" cy="0.425" r="0" fill="rgb(101.5,89.5,109.5)"/><path d="M 0,0.345 
						q -0.705 -0.3825 0.7625,0.15 q 0.16125 -0.3825 0.375,0.15 q 1.245 0.3825 -0.375,0.15 q -0.88125 0.3825 -0.375,0.15 q 0.9075 0.3825 -0.3875,1 
						M 0,0.345 
						q 0.705 -0.3825 -0.7625,0.15 q -0.16125 -0.3825 -0.375,0.15 q -1.245 0.3825 0.375,0.15 q 0.88125 0.3825 0.375,0.15 q -0.9075 0.3825 0.3875,1 " 
						transform="rotate(276.92307692308 0,0.345 )"
						stroke-width ="0.1"
						fill="rgb(136.5,122.5,220.5)"
						/><circle cx="0" cy="0.345" r="0" fill="rgb(88,82,89)"/><circle cx="0.09" cy="0.425" r="0" fill="rgb(101.5,89.5,109.5)"/><path d="M 0,0.345 
						q -0.705 -0.3825 0.7625,0.15 q 0.16125 -0.3825 0.375,0.15 q 1.245 0.3825 -0.375,0.15 q -0.88125 0.3825 -0.375,0.15 q 0.9075 0.3825 -0.3875,1 
						M 0,0.345 
						q 0.705 -0.3825 -0.7625,0.15 q -0.16125 -0.3825 -0.375,0.15 q -1.245 0.3825 0.375,0.15 q 0.88125 0.3825 0.375,0.15 q -0.9075 0.3825 0.3875,1 " 
						transform="rotate(332.30769230769 0,0.345 )"
						stroke-width ="0.1"
						fill="rgb(148,118,215)"
						/><circle cx="0" cy="0.345" r="0" fill="rgb(88,82,89)"/><circle cx="0.01" cy="0.305" r="0" fill="rgb(101.5,89.5,109.5)"/><path d="M 0,0.345 
						q -0.705 -0.3825 0.7625,0.15 q 0.16125 -0.3825 0.375,0.15 q 1.245 0.3825 -0.375,0.15 q -0.88125 0.3825 -0.375,0.15 q 0.9075 0.3825 -0.3875,1 
						M 0,0.345 
						q 0.705 -0.3825 -0.7625,0.15 q -0.16125 -0.3825 -0.375,0.15 q -1.245 0.3825 0.375,0.15 q 0.88125 0.3825 0.375,0.15 q -0.9075 0.3825 0.3875,1 " 
						transform="rotate(387.69230769231 0,0.345 )"
						stroke-width ="0.1"
						fill="rgb(131.5,114.5,206.5)"
						/><circle cx="0" cy="0.345" r="0" fill="rgb(88,82,89)"/><circle cx="0.04" cy="0.405" r="0" fill="rgb(101.5,89.5,109.5)"/><path d="M 0,0.345 
						q -0.705 -0.3825 0.7625,0.15 q 0.16125 -0.3825 0.375,0.15 q 1.245 0.3825 -0.375,0.15 q -0.88125 0.3825 -0.375,0.15 q 0.9075 0.3825 -0.3875,1 
						M 0,0.345 
						q 0.705 -0.3825 -0.7625,0.15 q -0.16125 -0.3825 -0.375,0.15 q -1.245 0.3825 0.375,0.15 q 0.88125 0.3825 0.375,0.15 q -0.9075 0.3825 0.3875,1 " 
						transform="rotate(443.07692307692 0,0.345 )"
						stroke-width ="0.1"
						fill="rgb(144,117,199)"
						/><circle cx="0" cy="0.345" r="0" fill="rgb(88,82,89)"/><circle cx="0.07" cy="0.325" r="0" fill="rgb(101.5,89.5,109.5)"/><path d="M 0,0.345 
						q -0.705 -0.3825 0.7625,0.15 q 0.16125 -0.3825 0.375,0.15 q 1.245 0.3825 -0.375,0.15 q -0.88125 0.3825 -0.375,0.15 q 0.9075 0.3825 -0.3875,1 
						M 0,0.345 
						q 0.705 -0.3825 -0.7625,0.15 q -0.16125 -0.3825 -0.375,0.15 q -1.245 0.3825 0.375,0.15 q 0.88125 0.3825 0.375,0.15 q -0.9075 0.3825 0.3875,1 " 
						transform="rotate(498.46153846154 0,0.345 )"
						stroke-width ="0.1"
						fill="rgb(124.5,96.5,205.5)"
						/><circle cx="0" cy="0.345" r="0" fill="rgb(88,82,89)"/><circle cx="-0.1" cy="0.255" r="0" fill="rgb(101.5,89.5,109.5)"/><path d="M 0,0.345 
						q -0.705 -0.3825 0.7625,0.15 q 0.16125 -0.3825 0.375,0.15 q 1.245 0.3825 -0.375,0.15 q -0.88125 0.3825 -0.375,0.15 q 0.9075 0.3825 -0.3875,1 
						M 0,0.345 
						q 0.705 -0.3825 -0.7625,0.15 q -0.16125 -0.3825 -0.375,0.15 q -1.245 0.3825 0.375,0.15 q 0.88125 0.3825 0.375,0.15 q -0.9075 0.3825 0.3875,1 " 
						transform="rotate(553.84615384615 0,0.345 )"
						stroke-width ="0.1"
						fill="rgb(139,94,199)"
						/><circle cx="0" cy="0.345" r="0" fill="rgb(88,82,89)"/><circle cx="0.07" cy="0.425" r="0" fill="rgb(101.5,89.5,109.5)"/><path d="M 0,0.345 
						q -0.705 -0.3825 0.7625,0.15 q 0.16125 -0.3825 0.375,0.15 q 1.245 0.3825 -0.375,0.15 q -0.88125 0.3825 -0.375,0.15 q 0.9075 0.3825 -0.3875,1 
						M 0,0.345 
						q 0.705 -0.3825 -0.7625,0.15 q -0.16125 -0.3825 -0.375,0.15 q -1.245 0.3825 0.375,0.15 q 0.88125 0.3825 0.375,0.15 q -0.9075 0.3825 0.3875,1 " 
						transform="rotate(609.23076923077 0,0.345 )"
						stroke-width ="0.1"
						fill="rgb(134.5,97.5,192.5)"
						/><circle cx="0" cy="0.345" r="0" fill="rgb(88,82,89)"/><circle cx="-0.07" cy="0.325" r="0" fill="rgb(101.5,89.5,109.5)"/><path d="M 0,0.345 
						q -0.705 -0.3825 0.7625,0.15 q 0.16125 -0.3825 0.375,0.15 q 1.245 0.3825 -0.375,0.15 q -0.88125 0.3825 -0.375,0.15 q 0.9075 0.3825 -0.3875,1 
						M 0,0.345 
						q 0.705 -0.3825 -0.7625,0.15 q -0.16125 -0.3825 -0.375,0.15 q -1.245 0.3825 0.375,0.15 q 0.88125 0.3825 0.375,0.15 q -0.9075 0.3825 0.3875,1 " 
						transform="rotate(664.61538461538 0,0.345 )"
						stroke-width ="0.1"
						fill="rgb(120,94,197)"
						/><circle cx="0" cy="0.345" r="0" fill="rgb(88,82,89)"/><circle cx="0.1" cy="0.275" r="0" fill="rgb(101.5,89.5,109.5)"/><path d="M 0,0.345 
						q -0.705 -0.3825 0.7625,0.15 q 0.16125 -0.3825 0.375,0.15 q 1.245 0.3825 -0.375,0.15 q -0.88125 0.3825 -0.375,0.15 q 0.9075 0.3825 -0.3875,1 
						M 0,0.345 
						q 0.705 -0.3825 -0.7625,0.15 q -0.16125 -0.3825 -0.375,0.15 q -1.245 0.3825 0.375,0.15 q 0.88125 0.3825 0.375,0.15 q -0.9075 0.3825 0.3875,1 " 
						transform="rotate(720 0,0.345 )"
						stroke-width ="0.1"
						fill="rgb(122.5,105.5,196.5)"
						/><circle cx="0" cy="0.345" r="0" fill="rgb(88,82,89)"/><circle cx="-0.05" cy="0.445" r="0" fill="rgb(101.5,89.5,109.5)"/></g><g id="flower4" transform="skewX(-4) skewY(-4)">
						<path d="M 0,0
						Q 0.36,0.5 0,0.46"
						stroke="rgb(27,52,155)" 
						fill="transparent"
						stroke-width ="0.3" /><path d="M 0,0.46 
						q -0.94 -0.51 0.95,0.2 q 0.215 -0.51 0.5,0.2 q 1.66 0.51 -0.5,0.2 q -1.175 0.51 -0.5,0.2 q 1.71 0.51 -0.45,1 
						M 0,0.46 
						q 0.94 -0.51 -0.95,0.2 q -0.215 -0.51 -0.5,0.2 q -1.66 0.51 0.5,0.2 q 1.175 0.51 0.5,0.2 q -1.71 0.51 0.45,1 " 
						transform="rotate(0 0,0.46 )"
						stroke-width ="0.1"
						fill="rgb(160,124,217)"
						/><path d="M 0,0.46 
						q -0.94 -0.51 0.95,0.2 q 0.215 -0.51 0.5,0.2 q 1.66 0.51 -0.5,0.2 q -1.175 0.51 -0.5,0.2 q 1.71 0.51 -0.45,1 
						M 0,0.46 
						q 0.94 -0.51 -0.95,0.2 q -0.215 -0.51 -0.5,0.2 q -1.66 0.51 0.5,0.2 q 1.175 0.51 0.5,0.2 q -1.71 0.51 0.45,1 " 
						transform="rotate(16.615384615385 0,0.46 )"
						stroke-width ="0.1"
						fill="rgb(149.5,121.5,213.5)"
						/><path d="M 0,0.46 
						q -0.94 -0.51 0.95,0.2 q 0.215 -0.51 0.5,0.2 q 1.66 0.51 -0.5,0.2 q -1.175 0.51 -0.5,0.2 q 1.71 0.51 -0.45,1 
						M 0,0.46 
						q 0.94 -0.51 -0.95,0.2 q -0.215 -0.51 -0.5,0.2 q -1.66 0.51 0.5,0.2 q 1.175 0.51 0.5,0.2 q -1.71 0.51 0.45,1 " 
						transform="rotate(33.230769230769 0,0.46 )"
						stroke-width ="0.1"
						fill="rgb(144,115,230)"
						/><path d="M 0,0.46 
						q -0.94 -0.51 0.95,0.2 q 0.215 -0.51 0.5,0.2 q 1.66 0.51 -0.5,0.2 q -1.175 0.51 -0.5,0.2 q 1.71 0.51 -0.45,1 
						M 0,0.46 
						q 0.94 -0.51 -0.95,0.2 q -0.215 -0.51 -0.5,0.2 q -1.66 0.51 0.5,0.2 q 1.175 0.51 0.5,0.2 q -1.71 0.51 0.45,1 " 
						transform="rotate(49.846153846154 0,0.46 )"
						stroke-width ="0.1"
						fill="rgb(148.5,114.5,222.5)"
						/></g><g id="flower5" transform="skewX(10) skewY(10)">
						<path d="M 0,0
						Q 1.12,0.625 0,0.575"
						stroke="rgb(27,52,155)" 
						fill="transparent"
						stroke-width ="0.3" /><path d="M 0,0.575 
						q -1.175 -0.6375 1.1375,0.25 q 0.26875 -0.6375 0.625,0.25 q 2.075 0.6375 -0.625,0.25 q -1.46875 0.6375 -0.625,0.25 q 2.1375 0.6375 -0.5125,1 
						M 0,0.575 
						q 1.175 -0.6375 -1.1375,0.25 q -0.26875 -0.6375 -0.625,0.25 q -2.075 0.6375 0.625,0.25 q 1.46875 0.6375 0.625,0.25 q -2.1375 0.6375 0.5125,1 " 
						transform="rotate(0 0,0.575 )"
						stroke-width ="0.1"
						fill="rgb(161,136,220)"
						/><path d="M 0,0.575 
						q -1.175 -0.6375 1.1375,0.25 q 0.26875 -0.6375 0.625,0.25 q 2.075 0.6375 -0.625,0.25 q -1.46875 0.6375 -0.625,0.25 q 2.1375 0.6375 -0.5125,1 
						M 0,0.575 
						q 1.175 -0.6375 -1.1375,0.25 q -0.26875 -0.6375 -0.625,0.25 q -2.075 0.6375 0.625,0.25 q 1.46875 0.6375 0.625,0.25 q -2.1375 0.6375 0.5125,1 " 
						transform="rotate(16.615384615385 0,0.575 )"
						stroke-width ="0.1"
						fill="rgb(154.5,115.5,223.5)"
						/><path d="M 0,0.575 
						q -1.175 -0.6375 1.1375,0.25 q 0.26875 -0.6375 0.625,0.25 q 2.075 0.6375 -0.625,0.25 q -1.46875 0.6375 -0.625,0.25 q 2.1375 0.6375 -0.5125,1 
						M 0,0.575 
						q 1.175 -0.6375 -1.1375,0.25 q -0.26875 -0.6375 -0.625,0.25 q -2.075 0.6375 0.625,0.25 q 1.46875 0.6375 0.625,0.25 q -2.1375 0.6375 0.5125,1 " 
						transform="rotate(33.230769230769 0,0.575 )"
						stroke-width ="0.1"
						fill="rgb(145,120,226)"
						/><path d="M 0,0.575 
						q -1.175 -0.6375 1.1375,0.25 q 0.26875 -0.6375 0.625,0.25 q 2.075 0.6375 -0.625,0.25 q -1.46875 0.6375 -0.625,0.25 q 2.1375 0.6375 -0.5125,1 
						M 0,0.575 
						q 1.175 -0.6375 -1.1375,0.25 q -0.26875 -0.6375 -0.625,0.25 q -2.075 0.6375 0.625,0.25 q 1.46875 0.6375 0.625,0.25 q -2.1375 0.6375 0.5125,1 " 
						transform="rotate(49.846153846154 0,0.575 )"
						stroke-width ="0.1"
						fill="rgb(150.5,119.5,214.5)"
						/></g><g id="flower6" transform="skewX(1) skewY(1)">
						<path d="M 0,0
						Q 0,0.75 0,0.69"
						stroke="rgb(27,52,155)" 
						fill="transparent"
						stroke-width ="0.3" /><path d="M 0,0.69 
						q -1.41 -0.765 1.325,0.3 q 0.3225 -0.765 0.75,0.3 q 2.49 0.765 -0.75,0.3 q -1.7625 0.765 -0.75,0.3 q 2.565 0.765 -0.575,1 
						M 0,0.69 
						q 1.41 -0.765 -1.325,0.3 q -0.3225 -0.765 -0.75,0.3 q -2.49 0.765 0.75,0.3 q 1.7625 0.765 0.75,0.3 q -2.565 0.765 0.575,1 " 
						transform="rotate(0 0,0.69 )"
						stroke-width ="0.1"
						fill="rgb(154,127,227)"
						/><circle cx="0" cy="0.69" r="0" fill="rgb(87,86,92)"/><circle cx="-0.04" cy="0.65" r="0" fill="rgb(105.5,86.5,109.5)"/><path d="M 0,0.69 
						q -1.41 -0.765 1.325,0.3 q 0.3225 -0.765 0.75,0.3 q 2.49 0.765 -0.75,0.3 q -1.7625 0.765 -0.75,0.3 q 2.565 0.765 -0.575,1 
						M 0,0.69 
						q 1.41 -0.765 -1.325,0.3 q -0.3225 -0.765 -0.75,0.3 q -2.49 0.765 0.75,0.3 q 1.7625 0.765 0.75,0.3 q -2.565 0.765 0.575,1 " 
						transform="rotate(55.384615384615 0,0.69 )"
						stroke-width ="0.1"
						fill="rgb(153.5,120.5,224.5)"
						/><circle cx="0" cy="0.69" r="0" fill="rgb(87,86,92)"/><circle cx="0" cy="0.6" r="0" fill="rgb(105.5,86.5,109.5)"/><path d="M 0,0.69 
						q -1.41 -0.765 1.325,0.3 q 0.3225 -0.765 0.75,0.3 q 2.49 0.765 -0.75,0.3 q -1.7625 0.765 -0.75,0.3 q 2.565 0.765 -0.575,1 
						M 0,0.69 
						q 1.41 -0.765 -1.325,0.3 q -0.3225 -0.765 -0.75,0.3 q -2.49 0.765 0.75,0.3 q 1.7625 0.765 0.75,0.3 q -2.565 0.765 0.575,1 " 
						transform="rotate(110.76923076923 0,0.69 )"
						stroke-width ="0.1"
						fill="rgb(158,114,213)"
						/><circle cx="0" cy="0.69" r="0" fill="rgb(87,86,92)"/><circle cx="0.03" cy="0.72" r="0" fill="rgb(105.5,86.5,109.5)"/><path d="M 0,0.69 
						q -1.41 -0.765 1.325,0.3 q 0.3225 -0.765 0.75,0.3 q 2.49 0.765 -0.75,0.3 q -1.7625 0.765 -0.75,0.3 q 2.565 0.765 -0.575,1 
						M 0,0.69 
						q 1.41 -0.765 -1.325,0.3 q -0.3225 -0.765 -0.75,0.3 q -2.49 0.765 0.75,0.3 q 1.7625 0.765 0.75,0.3 q -2.565 0.765 0.575,1 " 
						transform="rotate(166.15384615385 0,0.69 )"
						stroke-width ="0.1"
						fill="rgb(150.5,128.5,220.5)"
						/><circle cx="0" cy="0.69" r="0" fill="rgb(87,86,92)"/><circle cx="-0.09" cy="0.64" r="0" fill="rgb(105.5,86.5,109.5)"/><path d="M 0,0.69 
						q -1.41 -0.765 1.325,0.3 q 0.3225 -0.765 0.75,0.3 q 2.49 0.765 -0.75,0.3 q -1.7625 0.765 -0.75,0.3 q 2.565 0.765 -0.575,1 
						M 0,0.69 
						q 1.41 -0.765 -1.325,0.3 q -0.3225 -0.765 -0.75,0.3 q -2.49 0.765 0.75,0.3 q 1.7625 0.765 0.75,0.3 q -2.565 0.765 0.575,1 " 
						transform="rotate(221.53846153846 0,0.69 )"
						stroke-width ="0.1"
						fill="rgb(136,116,217)"
						/><circle cx="0" cy="0.69" r="0" fill="rgb(87,86,92)"/><circle cx="-0.04" cy="0.75" r="0" fill="rgb(105.5,86.5,109.5)"/><path d="M 0,0.69 
						q -1.41 -0.765 1.325,0.3 q 0.3225 -0.765 0.75,0.3 q 2.49 0.765 -0.75,0.3 q -1.7625 0.765 -0.75,0.3 q 2.565 0.765 -0.575,1 
						M 0,0.69 
						q 1.41 -0.765 -1.325,0.3 q -0.3225 -0.765 -0.75,0.3 q -2.49 0.765 0.75,0.3 q 1.7625 0.765 0.75,0.3 q -2.565 0.765 0.575,1 " 
						transform="rotate(276.92307692308 0,0.69 )"
						stroke-width ="0.1"
						fill="rgb(144.5,109.5,221.5)"
						/><circle cx="0" cy="0.69" r="0" fill="rgb(87,86,92)"/><circle cx="-0.08" cy="0.72" r="0" fill="rgb(105.5,86.5,109.5)"/><path d="M 0,0.69 
						q -1.41 -0.765 1.325,0.3 q 0.3225 -0.765 0.75,0.3 q 2.49 0.765 -0.75,0.3 q -1.7625 0.765 -0.75,0.3 q 2.565 0.765 -0.575,1 
						M 0,0.69 
						q 1.41 -0.765 -1.325,0.3 q -0.3225 -0.765 -0.75,0.3 q -2.49 0.765 0.75,0.3 q 1.7625 0.765 0.75,0.3 q -2.565 0.765 0.575,1 " 
						transform="rotate(332.30769230769 0,0.69 )"
						stroke-width ="0.1"
						fill="rgb(144,103,214)"
						/><circle cx="0" cy="0.69" r="0" fill="rgb(87,86,92)"/><circle cx="-0.08" cy="0.63" r="0" fill="rgb(105.5,86.5,109.5)"/><path d="M 0,0.69 
						q -1.41 -0.765 1.325,0.3 q 0.3225 -0.765 0.75,0.3 q 2.49 0.765 -0.75,0.3 q -1.7625 0.765 -0.75,0.3 q 2.565 0.765 -0.575,1 
						M 0,0.69 
						q 1.41 -0.765 -1.325,0.3 q -0.3225 -0.765 -0.75,0.3 q -2.49 0.765 0.75,0.3 q 1.7625 0.765 0.75,0.3 q -2.565 0.765 0.575,1 " 
						transform="rotate(387.69230769231 0,0.69 )"
						stroke-width ="0.1"
						fill="rgb(146.5,113.5,211.5)"
						/><circle cx="0" cy="0.69" r="0" fill="rgb(87,86,92)"/><circle cx="-0.06" cy="0.78" r="0" fill="rgb(105.5,86.5,109.5)"/><path d="M 0,0.69 
						q -1.41 -0.765 1.325,0.3 q 0.3225 -0.765 0.75,0.3 q 2.49 0.765 -0.75,0.3 q -1.7625 0.765 -0.75,0.3 q 2.565 0.765 -0.575,1 
						M 0,0.69 
						q 1.41 -0.765 -1.325,0.3 q -0.3225 -0.765 -0.75,0.3 q -2.49 0.765 0.75,0.3 q 1.7625 0.765 0.75,0.3 q -2.565 0.765 0.575,1 " 
						transform="rotate(443.07692307692 0,0.69 )"
						stroke-width ="0.1"
						fill="rgb(127,99,195)"
						/><circle cx="0" cy="0.69" r="0" fill="rgb(87,86,92)"/><circle cx="-0.07" cy="0.73" r="0" fill="rgb(105.5,86.5,109.5)"/><path d="M 0,0.69 
						q -1.41 -0.765 1.325,0.3 q 0.3225 -0.765 0.75,0.3 q 2.49 0.765 -0.75,0.3 q -1.7625 0.765 -0.75,0.3 q 2.565 0.765 -0.575,1 
						M 0,0.69 
						q 1.41 -0.765 -1.325,0.3 q -0.3225 -0.765 -0.75,0.3 q -2.49 0.765 0.75,0.3 q 1.7625 0.765 0.75,0.3 q -2.565 0.765 0.575,1 " 
						transform="rotate(498.46153846154 0,0.69 )"
						stroke-width ="0.1"
						fill="rgb(134.5,106.5,203.5)"
						/><circle cx="0" cy="0.69" r="0" fill="rgb(87,86,92)"/><circle cx="-0.07" cy="0.72" r="0" fill="rgb(105.5,86.5,109.5)"/><path d="M 0,0.69 
						q -1.41 -0.765 1.325,0.3 q 0.3225 -0.765 0.75,0.3 q 2.49 0.765 -0.75,0.3 q -1.7625 0.765 -0.75,0.3 q 2.565 0.765 -0.575,1 
						M 0,0.69 
						q 1.41 -0.765 -1.325,0.3 q -0.3225 -0.765 -0.75,0.3 q -2.49 0.765 0.75,0.3 q 1.7625 0.765 0.75,0.3 q -2.565 0.765 0.575,1 " 
						transform="rotate(553.84615384615 0,0.69 )"
						stroke-width ="0.1"
						fill="rgb(138,112,190)"
						/><circle cx="0" cy="0.69" r="0" fill="rgb(87,86,92)"/><circle cx="-0.09" cy="0.7" r="0" fill="rgb(105.5,86.5,109.5)"/><path d="M 0,0.69 
						q -1.41 -0.765 1.325,0.3 q 0.3225 -0.765 0.75,0.3 q 2.49 0.765 -0.75,0.3 q -1.7625 0.765 -0.75,0.3 q 2.565 0.765 -0.575,1 
						M 0,0.69 
						q 1.41 -0.765 -1.325,0.3 q -0.3225 -0.765 -0.75,0.3 q -2.49 0.765 0.75,0.3 q 1.7625 0.765 0.75,0.3 q -2.565 0.765 0.575,1 " 
						transform="rotate(609.23076923077 0,0.69 )"
						stroke-width ="0.1"
						fill="rgb(125.5,90.5,189.5)"
						/><circle cx="0" cy="0.69" r="0" fill="rgb(87,86,92)"/><circle cx="0.04" cy="0.63" r="0" fill="rgb(105.5,86.5,109.5)"/><path d="M 0,0.69 
						q -1.41 -0.765 1.325,0.3 q 0.3225 -0.765 0.75,0.3 q 2.49 0.765 -0.75,0.3 q -1.7625 0.765 -0.75,0.3 q 2.565 0.765 -0.575,1 
						M 0,0.69 
						q 1.41 -0.765 -1.325,0.3 q -0.3225 -0.765 -0.75,0.3 q -2.49 0.765 0.75,0.3 q 1.7625 0.765 0.75,0.3 q -2.565 0.765 0.575,1 " 
						transform="rotate(664.61538461538 0,0.69 )"
						stroke-width ="0.1"
						fill="rgb(132,102,199)"
						/><circle cx="0" cy="0.69" r="0" fill="rgb(87,86,92)"/><circle cx="-0.09" cy="0.75" r="0" fill="rgb(105.5,86.5,109.5)"/><path d="M 0,0.69 
						q -1.41 -0.765 1.325,0.3 q 0.3225 -0.765 0.75,0.3 q 2.49 0.765 -0.75,0.3 q -1.7625 0.765 -0.75,0.3 q 2.565 0.765 -0.575,1 
						M 0,0.69 
						q 1.41 -0.765 -1.325,0.3 q -0.3225 -0.765 -0.75,0.3 q -2.49 0.765 0.75,0.3 q 1.7625 0.765 0.75,0.3 q -2.565 0.765 0.575,1 " 
						transform="rotate(720 0,0.69 )"
						stroke-width ="0.1"
						fill="rgb(120.5,93.5,195.5)"
						/><circle cx="0" cy="0.69" r="0" fill="rgb(87,86,92)"/><circle cx="0.04" cy="0.73" r="0" fill="rgb(105.5,86.5,109.5)"/></g><g id="flower7" transform="skewX(10) skewY(10)">
						<path d="M 0,0
						Q -0.62,0.875 0,0.805"
						stroke="rgb(27,52,155)" 
						fill="transparent"
						stroke-width ="0.3" /><path d="M 0,0.805 
						q -1.645 -0.8925 1.5125,0.35 q 0.37625 -0.8925 0.875,0.35 q 2.905 0.8925 -0.875,0.35 q -2.05625 0.8925 -0.875,0.35 q 2.9925 0.8925 -0.6375,1 
						M 0,0.805 
						q 1.645 -0.8925 -1.5125,0.35 q -0.37625 -0.8925 -0.875,0.35 q -2.905 0.8925 0.875,0.35 q 2.05625 0.8925 0.875,0.35 q -2.9925 0.8925 0.6375,1 " 
						transform="rotate(0 0,0.805 )"
						stroke-width ="0.1"
						fill="rgb(159,138,218)"
						/><circle cx="0" cy="0.805" r="0" fill="rgb(95,82,89)"/><circle cx="-0.05" cy="0.765" r="0" fill="rgb(95.5,102.5,96.5)"/><path d="M 0,0.805 
						q -1.645 -0.8925 1.5125,0.35 q 0.37625 -0.8925 0.875,0.35 q 2.905 0.8925 -0.875,0.35 q -2.05625 0.8925 -0.875,0.35 q 2.9925 0.8925 -0.6375,1 
						M 0,0.805 
						q 1.645 -0.8925 -1.5125,0.35 q -0.37625 -0.8925 -0.875,0.35 q -2.905 0.8925 0.875,0.35 q 2.05625 0.8925 0.875,0.35 q -2.9925 0.8925 0.6375,1 " 
						transform="rotate(55.384615384615 0,0.805 )"
						stroke-width ="0.1"
						fill="rgb(158.5,118.5,222.5)"
						/><circle cx="0" cy="0.805" r="0" fill="rgb(95,82,89)"/><circle cx="-0.02" cy="0.815" r="0" fill="rgb(95.5,102.5,96.5)"/><path d="M 0,0.805 
						q -1.645 -0.8925 1.5125,0.35 q 0.37625 -0.8925 0.875,0.35 q 2.905 0.8925 -0.875,0.35 q -2.05625 0.8925 -0.875,0.35 q 2.9925 0.8925 -0.6375,1 
						M 0,0.805 
						q 1.645 -0.8925 -1.5125,0.35 q -0.37625 -0.8925 -0.875,0.35 q -2.905 0.8925 0.875,0.35 q 2.05625 0.8925 0.875,0.35 q -2.9925 0.8925 0.6375,1 " 
						transform="rotate(110.76923076923 0,0.805 )"
						stroke-width ="0.1"
						fill="rgb(155,130,222)"
						/><circle cx="0" cy="0.805" r="0" fill="rgb(95,82,89)"/><circle cx="-0.03" cy="0.845" r="0" fill="rgb(95.5,102.5,96.5)"/><path d="M 0,0.805 
						q -1.645 -0.8925 1.5125,0.35 q 0.37625 -0.8925 0.875,0.35 q 2.905 0.8925 -0.875,0.35 q -2.05625 0.8925 -0.875,0.35 q 2.9925 0.8925 -0.6375,1 
						M 0,0.805 
						q 1.645 -0.8925 -1.5125,0.35 q -0.37625 -0.8925 -0.875,0.35 q -2.905 0.8925 0.875,0.35 q 2.05625 0.8925 0.875,0.35 q -2.9925 0.8925 0.6375,1 " 
						transform="rotate(166.15384615385 0,0.805 )"
						stroke-width ="0.1"
						fill="rgb(141.5,113.5,226.5)"
						/><circle cx="0" cy="0.805" r="0" fill="rgb(95,82,89)"/><circle cx="0.06" cy="0.715" r="0" fill="rgb(95.5,102.5,96.5)"/><path d="M 0,0.805 
						q -1.645 -0.8925 1.5125,0.35 q 0.37625 -0.8925 0.875,0.35 q 2.905 0.8925 -0.875,0.35 q -2.05625 0.8925 -0.875,0.35 q 2.9925 0.8925 -0.6375,1 
						M 0,0.805 
						q 1.645 -0.8925 -1.5125,0.35 q -0.37625 -0.8925 -0.875,0.35 q -2.905 0.8925 0.875,0.35 q 2.05625 0.8925 0.875,0.35 q -2.9925 0.8925 0.6375,1 " 
						transform="rotate(221.53846153846 0,0.805 )"
						stroke-width ="0.1"
						fill="rgb(134,123,225)"
						/><circle cx="0" cy="0.805" r="0" fill="rgb(95,82,89)"/><circle cx="-0.08" cy="0.865" r="0" fill="rgb(95.5,102.5,96.5)"/><path d="M 0,0.805 
						q -1.645 -0.8925 1.5125,0.35 q 0.37625 -0.8925 0.875,0.35 q 2.905 0.8925 -0.875,0.35 q -2.05625 0.8925 -0.875,0.35 q 2.9925 0.8925 -0.6375,1 
						M 0,0.805 
						q 1.645 -0.8925 -1.5125,0.35 q -0.37625 -0.8925 -0.875,0.35 q -2.905 0.8925 0.875,0.35 q 2.05625 0.8925 0.875,0.35 q -2.9925 0.8925 0.6375,1 " 
						transform="rotate(276.92307692308 0,0.805 )"
						stroke-width ="0.1"
						fill="rgb(140.5,108.5,215.5)"
						/><circle cx="0" cy="0.805" r="0" fill="rgb(95,82,89)"/><circle cx="0" cy="0.725" r="0" fill="rgb(95.5,102.5,96.5)"/><path d="M 0,0.805 
						q -1.645 -0.8925 1.5125,0.35 q 0.37625 -0.8925 0.875,0.35 q 2.905 0.8925 -0.875,0.35 q -2.05625 0.8925 -0.875,0.35 q 2.9925 0.8925 -0.6375,1 
						M 0,0.805 
						q 1.645 -0.8925 -1.5125,0.35 q -0.37625 -0.8925 -0.875,0.35 q -2.905 0.8925 0.875,0.35 q 2.05625 0.8925 0.875,0.35 q -2.9925 0.8925 0.6375,1 " 
						transform="rotate(332.30769230769 0,0.805 )"
						stroke-width ="0.1"
						fill="rgb(134,103,219)"
						/><circle cx="0" cy="0.805" r="0" fill="rgb(95,82,89)"/><circle cx="0.07" cy="0.755" r="0" fill="rgb(95.5,102.5,96.5)"/><path d="M 0,0.805 
						q -1.645 -0.8925 1.5125,0.35 q 0.37625 -0.8925 0.875,0.35 q 2.905 0.8925 -0.875,0.35 q -2.05625 0.8925 -0.875,0.35 q 2.9925 0.8925 -0.6375,1 
						M 0,0.805 
						q 1.645 -0.8925 -1.5125,0.35 q -0.37625 -0.8925 -0.875,0.35 q -2.905 0.8925 0.875,0.35 q 2.05625 0.8925 0.875,0.35 q -2.9925 0.8925 0.6375,1 " 
						transform="rotate(387.69230769231 0,0.805 )"
						stroke-width ="0.1"
						fill="rgb(143.5,104.5,203.5)"
						/><circle cx="0" cy="0.805" r="0" fill="rgb(95,82,89)"/><circle cx="-0.05" cy="0.785" r="0" fill="rgb(95.5,102.5,96.5)"/><path d="M 0,0.805 
						q -1.645 -0.8925 1.5125,0.35 q 0.37625 -0.8925 0.875,0.35 q 2.905 0.8925 -0.875,0.35 q -2.05625 0.8925 -0.875,0.35 q 2.9925 0.8925 -0.6375,1 
						M 0,0.805 
						q 1.645 -0.8925 -1.5125,0.35 q -0.37625 -0.8925 -0.875,0.35 q -2.905 0.8925 0.875,0.35 q 2.05625 0.8925 0.875,0.35 q -2.9925 0.8925 0.6375,1 " 
						transform="rotate(443.07692307692 0,0.805 )"
						stroke-width ="0.1"
						fill="rgb(136,116,211)"
						/><circle cx="0" cy="0.805" r="0" fill="rgb(95,82,89)"/><circle cx="0.02" cy="0.755" r="0" fill="rgb(95.5,102.5,96.5)"/><path d="M 0,0.805 
						q -1.645 -0.8925 1.5125,0.35 q 0.37625 -0.8925 0.875,0.35 q 2.905 0.8925 -0.875,0.35 q -2.05625 0.8925 -0.875,0.35 q 2.9925 0.8925 -0.6375,1 
						M 0,0.805 
						q 1.645 -0.8925 -1.5125,0.35 q -0.37625 -0.8925 -0.875,0.35 q -2.905 0.8925 0.875,0.35 q 2.05625 0.8925 0.875,0.35 q -2.9925 0.8925 0.6375,1 " 
						transform="rotate(498.46153846154 0,0.805 )"
						stroke-width ="0.1"
						fill="rgb(131.5,115.5,200.5)"
						/><circle cx="0" cy="0.805" r="0" fill="rgb(95,82,89)"/><circle cx="-0.04" cy="0.865" r="0" fill="rgb(95.5,102.5,96.5)"/><path d="M 0,0.805 
						q -1.645 -0.8925 1.5125,0.35 q 0.37625 -0.8925 0.875,0.35 q 2.905 0.8925 -0.875,0.35 q -2.05625 0.8925 -0.875,0.35 q 2.9925 0.8925 -0.6375,1 
						M 0,0.805 
						q 1.645 -0.8925 -1.5125,0.35 q -0.37625 -0.8925 -0.875,0.35 q -2.905 0.8925 0.875,0.35 q 2.05625 0.8925 0.875,0.35 q -2.9925 0.8925 0.6375,1 " 
						transform="rotate(553.84615384615 0,0.805 )"
						stroke-width ="0.1"
						fill="rgb(125,94,208)"
						/><circle cx="0" cy="0.805" r="0" fill="rgb(95,82,89)"/><circle cx="0.04" cy="0.795" r="0" fill="rgb(95.5,102.5,96.5)"/><path d="M 0,0.805 
						q -1.645 -0.8925 1.5125,0.35 q 0.37625 -0.8925 0.875,0.35 q 2.905 0.8925 -0.875,0.35 q -2.05625 0.8925 -0.875,0.35 q 2.9925 0.8925 -0.6375,1 
						M 0,0.805 
						q 1.645 -0.8925 -1.5125,0.35 q -0.37625 -0.8925 -0.875,0.35 q -2.905 0.8925 0.875,0.35 q 2.05625 0.8925 0.875,0.35 q -2.9925 0.8925 0.6375,1 " 
						transform="rotate(609.23076923077 0,0.805 )"
						stroke-width ="0.1"
						fill="rgb(124.5,95.5,207.5)"
						/><circle cx="0" cy="0.805" r="0" fill="rgb(95,82,89)"/><circle cx="0.09" cy="0.865" r="0" fill="rgb(95.5,102.5,96.5)"/><path d="M 0,0.805 
						q -1.645 -0.8925 1.5125,0.35 q 0.37625 -0.8925 0.875,0.35 q 2.905 0.8925 -0.875,0.35 q -2.05625 0.8925 -0.875,0.35 q 2.9925 0.8925 -0.6375,1 
						M 0,0.805 
						q 1.645 -0.8925 -1.5125,0.35 q -0.37625 -0.8925 -0.875,0.35 q -2.905 0.8925 0.875,0.35 q 2.05625 0.8925 0.875,0.35 q -2.9925 0.8925 0.6375,1 " 
						transform="rotate(664.61538461538 0,0.805 )"
						stroke-width ="0.1"
						fill="rgb(128,106,201)"
						/><circle cx="0" cy="0.805" r="0" fill="rgb(95,82,89)"/><circle cx="-0.07" cy="0.855" r="0" fill="rgb(95.5,102.5,96.5)"/><path d="M 0,0.805 
						q -1.645 -0.8925 1.5125,0.35 q 0.37625 -0.8925 0.875,0.35 q 2.905 0.8925 -0.875,0.35 q -2.05625 0.8925 -0.875,0.35 q 2.9925 0.8925 -0.6375,1 
						M 0,0.805 
						q 1.645 -0.8925 -1.5125,0.35 q -0.37625 -0.8925 -0.875,0.35 q -2.905 0.8925 0.875,0.35 q 2.05625 0.8925 0.875,0.35 q -2.9925 0.8925 0.6375,1 " 
						transform="rotate(720 0,0.805 )"
						stroke-width ="0.1"
						fill="rgb(131.5,98.5,192.5)"
						/><circle cx="0" cy="0.805" r="0" fill="rgb(95,82,89)"/><circle cx="-0.07" cy="0.745" r="0" fill="rgb(95.5,102.5,96.5)"/></g><g id="flower8" transform="skewX(-3) skewY(-3)">
						<path d="M 0,0
						Q 1.27,1 0,0.92"
						stroke="rgb(27,52,155)" 
						fill="transparent"
						stroke-width ="0.3" /><path d="M 0,0.92 
						q -1.88 -1.02 1.7,0.4 q 0.43 -1.02 1,0.4 q 3.32 1.02 -1,0.4 q -2.35 1.02 -1,0.4 q 3.42 1.02 -0.7,1 
						M 0,0.92 
						q 1.88 -1.02 -1.7,0.4 q -0.43 -1.02 -1,0.4 q -3.32 1.02 1,0.4 q 2.35 1.02 1,0.4 q -3.42 1.02 0.7,1 " 
						transform="rotate(0 0,0.92 )"
						stroke-width ="0.1"
						fill="rgb(163,119,222)"
						/><path d="M 0,0.92 
						q -1.88 -1.02 1.7,0.4 q 0.43 -1.02 1,0.4 q 3.32 1.02 -1,0.4 q -2.35 1.02 -1,0.4 q 3.42 1.02 -0.7,1 
						M 0,0.92 
						q 1.88 -1.02 -1.7,0.4 q -0.43 -1.02 -1,0.4 q -3.32 1.02 1,0.4 q 2.35 1.02 1,0.4 q -3.42 1.02 0.7,1 " 
						transform="rotate(16.615384615385 0,0.92 )"
						stroke-width ="0.1"
						fill="rgb(141.5,130.5,219.5)"
						/><path d="M 0,0.92 
						q -1.88 -1.02 1.7,0.4 q 0.43 -1.02 1,0.4 q 3.32 1.02 -1,0.4 q -2.35 1.02 -1,0.4 q 3.42 1.02 -0.7,1 
						M 0,0.92 
						q 1.88 -1.02 -1.7,0.4 q -0.43 -1.02 -1,0.4 q -3.32 1.02 1,0.4 q 2.35 1.02 1,0.4 q -3.42 1.02 0.7,1 " 
						transform="rotate(33.230769230769 0,0.92 )"
						stroke-width ="0.1"
						fill="rgb(147,126,230)"
						/><path d="M 0,0.92 
						q -1.88 -1.02 1.7,0.4 q 0.43 -1.02 1,0.4 q 3.32 1.02 -1,0.4 q -2.35 1.02 -1,0.4 q 3.42 1.02 -0.7,1 
						M 0,0.92 
						q 1.88 -1.02 -1.7,0.4 q -0.43 -1.02 -1,0.4 q -3.32 1.02 1,0.4 q 2.35 1.02 1,0.4 q -3.42 1.02 0.7,1 " 
						transform="rotate(49.846153846154 0,0.92 )"
						stroke-width ="0.1"
						fill="rgb(154.5,124.5,227.5)"
						/></g></defs>
				<g class="fullPlant">
					<g>
					<path d ="M 52,91 
					a 68 408 6.16 0 0 7.068,-21.18" fill ="none" stroke ="rgb(25.5,45.5,155.5)" stroke-width ="3.384"/></g><circle cx="59.068" cy="69.82" r="0.846" stroke="rgb(30.5,50.5,160.5)" fill="rgb(25.5,45.5,155.5)"/><use xlink:href="#leaf1"
						x="59.068" y="69.82" 
						transform="rotate(33 59.768 70.16)" 	
						fill="rgb(229,50,139)" /><use xlink:href="#leaf3"
						x="59.068" y="69.82" 
						transform="rotate(108 59.068 69.82)" 	
						fill="rgb(194,46,160)" /><use xlink:href="#leaf1"
						x="59.068" y="69.82" 
						transform="rotate(-77 60.008 70.25)" 	
						fill="rgb(198,51,157)" /><use xlink:href="#leaf1"
						x="59.068" y="69.82" 
						transform="rotate(-143 59.068 69.82)" 	
						fill="rgb(199,59,157)" /><use xlink:href="#leaf1"
						x="59.068" y="69.82" 
						transform="rotate(-57 59.858 70.74)" 	
						fill="rgb(205,65,164)" /><use xlink:href="#leaf2"
						x="59.068" y="69.82" 
						transform="rotate(-107 59.988 70.35)" 	
						fill="rgb(229,40,138)" /><use xlink:href="#leaf1"
						x="59.068" y="69.82" 
						transform="rotate(99 59.068 69.82)" 	
						fill="rgb(224,62,156)" /><use xlink:href="#leaf3"
						x="59.068" y="69.82" 
						transform="rotate(26 59.068 69.82)" 	
						fill="rgb(200,34,151)" /><use xlink:href="#leaf3"
						x="59.068" y="69.82" 
						transform="rotate(-37 59.898 70.5)" 	
						fill="rgb(223,50,162)" />
					<g>
					<path d ="M 59.068,69.82 
					a 92 368 17.36 0 1 -12.492,4.128" fill ="none" stroke ="rgb(28.5,47.5,157.5)" stroke-width ="1.692"/></g><circle cx="46.576" cy="73.948" r="0.423" stroke="rgb(33.5,52.5,162.5)" fill="rgb(28.5,47.5,157.5)"/><use xlink:href="#leaf4"
						x="46.576" y="73.948" 
						transform="rotate(72 46.656 74.288)" 	
						fill="rgb(219,42,162)" /><use xlink:href="#leaf1"
						x="46.576" y="73.948" 
						transform="rotate(-83 46.576 73.948)" 	
						fill="rgb(232,44,129)" /><use xlink:href="#leaf1"
						x="46.576" y="73.948" 
						transform="rotate(53 47.056 74.058)" 	
						fill="rgb(230,41,157)" /><use xlink:href="#leaf1"
						x="46.576" y="73.948" 
						transform="rotate(45 46.576 73.948)" 	
						fill="rgb(224,49,144)" /><use xlink:href="#leaf2"
						x="46.576" y="73.948" 
						transform="rotate(18 47.556 74.108)" 	
						fill="rgb(203,30,154)" /><use xlink:href="#flower2" id="fleur10"
							x="46.576" y="73.948" 
							transform="rotate(-148 46.576 73.948)" /><use xlink:href="#flower2" id="fleur11"
							x="46.576" y="73.948" 
							transform="rotate(106 46.576 73.948)" />
					<g>
					<path d ="M 52,91 
					a 63 378 -3.7 0 1 9.972,-13.38" fill ="none" stroke ="rgb(29,46,159)" stroke-width ="3.384"/></g><circle cx="61.972" cy="77.62" r="0.846" stroke="rgb(34,51,164)" fill="rgb(29,46,159)"/><use xlink:href="#leaf1"
						x="61.972" y="77.62" 
						transform="rotate(-46 62.252 78.25)" 	
						fill="rgb(201,52,161)" /><use xlink:href="#leaf1"
						x="61.972" y="77.62" 
						transform="rotate(-55 61.972 77.62)" 	
						fill="rgb(233,34,138)" /><use xlink:href="#leaf2"
						x="61.972" y="77.62" 
						transform="rotate(157 61.972 77.62)" 	
						fill="rgb(212,55,152)" /><use xlink:href="#leaf1"
						x="61.972" y="77.62" 
						transform="rotate(-134 61.972 77.62)" 	
						fill="rgb(219,41,138)" />
					<g>
					<path d ="M 52,91 
					a 92 828 10.10 0 0 7.992,-22.176" fill ="none" stroke ="rgb(30.5,45.5,161.5)" stroke-width ="3.384"/></g><circle cx="59.992" cy="68.824" r="0.846" stroke="rgb(35.5,50.5,166.5)" fill="rgb(30.5,45.5,161.5)"/><use xlink:href="#leaf1"
						x="59.992" y="68.824" 
						transform="rotate(-72 59.992 68.824)" 	
						fill="rgb(211,57,128)" /><use xlink:href="#leaf1"
						x="59.992" y="68.824" 
						transform="rotate(95 59.992 68.824)" 	
						fill="rgb(233,56,160)" /><use xlink:href="#leaf1"
						x="59.992" y="68.824" 
						transform="rotate(-161 59.992 68.824)" 	
						fill="rgb(227,54,149)" /><use xlink:href="#leaf1"
						x="59.992" y="68.824" 
						transform="rotate(85 59.992 68.824)" 	
						fill="rgb(200,33,133)" /><use xlink:href="#leaf1"
						x="59.992" y="68.824" 
						transform="rotate(-29 60.802 69.184)" 	
						fill="rgb(234,34,133)" /><use xlink:href="#leaf1"
						x="59.992" y="68.824" 
						transform="rotate(-133 59.992 68.824)" 	
						fill="rgb(222,65,131)" /><use xlink:href="#leaf1"
						x="59.992" y="68.824" 
						transform="rotate(22 59.992 68.824)" 	
						fill="rgb(199,70,155)" /><use xlink:href="#leaf1"
						x="59.992" y="68.824" 
						transform="rotate(-87 59.992 68.824)" 	
						fill="rgb(234,53,131)" /><use xlink:href="#leaf3"
						x="59.992" y="68.824" 
						transform="rotate(132 59.992 68.824)" 	
						fill="rgb(198,30,143)" /><use xlink:href="#leaf2"
						x="59.992" y="68.824" 
						transform="rotate(-21 59.992 68.824)" 	
						fill="rgb(229,53,163)" /><use xlink:href="#leaf1"
						x="59.992" y="68.824" 
						transform="rotate(90 59.992 68.824)" 	
						fill="rgb(201,53,156)" />
					<g>
					<path d ="M 52,91 
					a 95 570 17.66 0 1 -6.564,-17.352" fill ="none" stroke ="rgb(29,44,163)" stroke-width ="3.384"/></g><circle cx="45.436" cy="73.648" r="0.846" stroke="rgb(34,49,168)" fill="rgb(29,44,163)"/><use xlink:href="#leaf3"
						x="45.436" y="73.648" 
						transform="rotate(-158 45.976 74.528)" 	
						fill="rgb(195,57,157)" /><use xlink:href="#leaf1"
						x="45.436" y="73.648" 
						transform="rotate(136 45.436 73.648)" 	
						fill="rgb(212,51,153)" /><use xlink:href="#leaf2"
						x="45.436" y="73.648" 
						transform="rotate(-162 45.586 73.758)" 	
						fill="rgb(234,31,164)" /><use xlink:href="#leaf1"
						x="45.436" y="73.648" 
						transform="rotate(121 45.436 73.648)" 	
						fill="rgb(216,43,131)" /><use xlink:href="#leaf2"
						x="45.436" y="73.648" 
						transform="rotate(103 45.486 74.038)" 	
						fill="rgb(194,47,147)" /><use xlink:href="#leaf1"
						x="45.436" y="73.648" 
						transform="rotate(107 45.436 73.648)" 	
						fill="rgb(228,65,131)" /><use xlink:href="#leaf1"
						x="45.436" y="73.648" 
						transform="rotate(82 45.436 73.648)" 	
						fill="rgb(229,55,145)" /><use xlink:href="#leaf2"
						x="45.436" y="73.648" 
						transform="rotate(40 45.926 73.928)" 	
						fill="rgb(204,52,136)" />
					<g>
					<path d ="M 45.436,73.648 
					a 93 279 5.28 0 0 8.976,-5.616" fill ="none" stroke ="rgb(30,43,165)" stroke-width ="1.692"/></g><circle cx="54.412" cy="68.032" r="0.423" stroke="rgb(35,48,170)" fill="rgb(30,43,165)"/><use xlink:href="#leaf1"
						x="54.412" y="68.032" 
						transform="rotate(-158 55.122 68.372)" 	
						fill="rgb(204,37,137)" /><use xlink:href="#leaf3"
						x="54.412" y="68.032" 
						transform="rotate(22 55.052 68.692)" 	
						fill="rgb(208,44,132)" /><use xlink:href="#leaf2"
						x="54.412" y="68.032" 
						transform="rotate(139 55.122 68.362)" 	
						fill="rgb(231,45,156)" /><use xlink:href="#leaf1"
						x="54.412" y="68.032" 
						transform="rotate(157 54.412 68.032)" 	
						fill="rgb(216,69,127)" /><use xlink:href="#leaf4"
						x="54.412" y="68.032" 
						transform="rotate(153 54.502 68.032)" 	
						fill="rgb(203,30,128)" /><use xlink:href="#leaf2"
						x="54.412" y="68.032" 
						transform="rotate(174 54.622 68.492)" 	
						fill="rgb(201,70,158)" /><use xlink:href="#leaf4"
						x="54.412" y="68.032" 
						transform="rotate(-174 54.412 68.032)" 	
						fill="rgb(216,36,160)" /><use xlink:href="#leaf1"
						x="54.412" y="68.032" 
						transform="rotate(-36 54.772 68.232)" 	
						fill="rgb(204,42,129)" /><use xlink:href="#leaf1"
						x="54.412" y="68.032" 
						transform="rotate(34 54.952 68.632)" 	
						fill="rgb(195,36,159)" /><use xlink:href="#leaf2"
						x="54.412" y="68.032" 
						transform="rotate(81 55.012 68.872)" 	
						fill="rgb(195,62,127)" /><use xlink:href="#leaf3"
						x="54.412" y="68.032" 
						transform="rotate(-128 55.192 68.762)" 	
						fill="rgb(195,47,129)" /><use xlink:href="#leaf4"
						x="54.412" y="68.032" 
						transform="rotate(-36 54.922 68.632)" 	
						fill="rgb(197,42,156)" /><use xlink:href="#flower4" id="fleur50"
							x="54.412" y="68.032" 
							transform="rotate(180 54.412 68.032)" />
					<g>
					<path d ="M 45.436,73.648 
					a 96 864 -15.13 0 0 -2.292,2.016" fill ="none" stroke ="rgb(33,44,166)" stroke-width ="1.692"/></g><circle cx="43.144" cy="75.664" r="0.423" stroke="rgb(38,49,171)" fill="rgb(33,44,166)"/><use xlink:href="#leaf1"
						x="43.144" y="75.664" 
						transform="rotate(164 43.464 76.354)" 	
						fill="rgb(210,37,160)" /><use xlink:href="#leaf1"
						x="43.144" y="75.664" 
						transform="rotate(83 43.144 75.664)" 	
						fill="rgb(221,47,139)" /><use xlink:href="#leaf2"
						x="43.144" y="75.664" 
						transform="rotate(27 43.334 76.034)" 	
						fill="rgb(208,67,152)" /><use xlink:href="#leaf4"
						x="43.144" y="75.664" 
						transform="rotate(-172 43.144 75.664)" 	
						fill="rgb(194,49,164)" /><use xlink:href="#leaf3"
						x="43.144" y="75.664" 
						transform="rotate(149 43.144 75.664)" 	
						fill="rgb(231,36,162)" /><use xlink:href="#leaf4"
						x="43.144" y="75.664" 
						transform="rotate(124 43.554 75.704)" 	
						fill="rgb(218,45,136)" /><use xlink:href="#leaf3"
						x="43.144" y="75.664" 
						transform="rotate(56 43.144 75.664)" 	
						fill="rgb(234,36,128)" /><use xlink:href="#leaf1"
						x="43.144" y="75.664" 
						transform="rotate(-154 43.144 75.664)" 	
						fill="rgb(215,30,134)" /><use xlink:href="#leaf1"
						x="43.144" y="75.664" 
						transform="rotate(-69 43.144 75.664)" 	
						fill="rgb(206,63,130)" /><use xlink:href="#leaf1"
						x="43.144" y="75.664" 
						transform="rotate(-88 43.144 75.664)" 	
						fill="rgb(226,66,140)" /><use xlink:href="#leaf3"
						x="43.144" y="75.664" 
						transform="rotate(-116 43.144 75.664)" 	
						fill="rgb(217,65,132)" /><use xlink:href="#leaf4"
						x="43.144" y="75.664" 
						transform="rotate(46 43.144 75.664)" 	
						fill="rgb(194,31,125)" /><use xlink:href="#leaf2"
						x="43.144" y="75.664" 
						transform="rotate(-56 43.144 75.664)" 	
						fill="rgb(218,52,156)" /><use xlink:href="#leaf1"
						x="43.144" y="75.664" 
						transform="rotate(-74 43.424 76.474)" 	
						fill="rgb(223,59,141)" /><use xlink:href="#flower1" id="fleur60"
							x="43.144" y="75.664" 
							transform="rotate(-58 43.144 75.664)" />
					<g>
					<path d ="M 45.436,73.648 
					a 52 104 11.52 0 1 -5.484,-1.812" fill ="none" stroke ="rgb(33,47,168)" stroke-width ="1.692"/></g><circle cx="39.952" cy="71.836" r="0.423" stroke="rgb(38,52,173)" fill="rgb(33,47,168)"/><use xlink:href="#leaf2"
						x="39.952" y="71.836" 
						transform="rotate(-97 40.462 72.176)" 	
						fill="rgb(224,67,162)" /><use xlink:href="#leaf2"
						x="39.952" y="71.836" 
						transform="rotate(91 40.322 72.716)" 	
						fill="rgb(218,62,137)" /><use xlink:href="#leaf1"
						x="39.952" y="71.836" 
						transform="rotate(-82 39.952 71.836)" 	
						fill="rgb(211,31,142)" /><use xlink:href="#leaf4"
						x="39.952" y="71.836" 
						transform="rotate(-78 39.952 71.836)" 	
						fill="rgb(196,54,162)" /><use xlink:href="#leaf1"
						x="39.952" y="71.836" 
						transform="rotate(78 40.012 72.446)" 	
						fill="rgb(196,61,148)" /><use xlink:href="#leaf3"
						x="39.952" y="71.836" 
						transform="rotate(1 39.952 71.836)" 	
						fill="rgb(225,33,127)" /><use xlink:href="#leaf1"
						x="39.952" y="71.836" 
						transform="rotate(-84 39.952 71.836)" 	
						fill="rgb(199,36,146)" /><use xlink:href="#leaf2"
						x="39.952" y="71.836" 
						transform="rotate(-34 39.952 71.836)" 	
						fill="rgb(202,40,137)" /><use xlink:href="#leaf2"
						x="39.952" y="71.836" 
						transform="rotate(-174 40.902 71.956)" 	
						fill="rgb(230,56,156)" /><use xlink:href="#leaf1"
						x="39.952" y="71.836" 
						transform="rotate(11 40.162 71.916)" 	
						fill="rgb(210,52,125)" /><use xlink:href="#leaf2"
						x="39.952" y="71.836" 
						transform="rotate(41 39.952 71.836)" 	
						fill="rgb(219,30,132)" /><use xlink:href="#leaf2"
						x="39.952" y="71.836" 
						transform="rotate(-164 39.952 71.836)" 	
						fill="rgb(204,65,151)" /><use xlink:href="#leaf1"
						x="39.952" y="71.836" 
						transform="rotate(99 39.952 71.836)" 	
						fill="rgb(221,34,141)" /><use xlink:href="#leaf4"
						x="39.952" y="71.836" 
						transform="rotate(-116 40.162 72.326)" 	
						fill="rgb(200,37,154)" />
					<g>
					<path d ="M 39.952,71.836 
					a 61 183 -19.20 0 1 2.268,1.596" fill ="none" stroke ="rgb(32.5,46.5,167.5)" stroke-width ="1.128"/></g><circle cx="42.22" cy="73.432" r="0.282" stroke="rgb(37.5,51.5,172.5)" fill="rgb(32.5,46.5,167.5)"/><use xlink:href="#leaf1"
						x="42.22" y="73.432" 
						transform="rotate(25 42.22 73.432)" 	
						fill="rgb(197,54,151)" /><use xlink:href="#leaf2"
						x="42.22" y="73.432" 
						transform="rotate(-137 42.22 73.432)" 	
						fill="rgb(218,62,156)" /><use xlink:href="#leaf5"
						x="42.22" y="73.432" 
						transform="rotate(46 42.22 73.432)" 	
						fill="rgb(218,47,147)" /><use xlink:href="#leaf2"
						x="42.22" y="73.432" 
						transform="rotate(-5 42.22 73.432)" 	
						fill="rgb(231,47,159)" /><use xlink:href="#leaf3"
						x="42.22" y="73.432" 
						transform="rotate(73 42.28 73.512)" 	
						fill="rgb(229,48,134)" /><use xlink:href="#leaf2"
						x="42.22" y="73.432" 
						transform="rotate(-81 42.22 73.432)" 	
						fill="rgb(214,61,163)" /><use xlink:href="#leaf4"
						x="42.22" y="73.432" 
						transform="rotate(-82 43.01 74.402)" 	
						fill="rgb(212,70,163)" /><use xlink:href="#leaf1"
						x="42.22" y="73.432" 
						transform="rotate(155 42.22 73.432)" 	
						fill="rgb(210,61,165)" /><use xlink:href="#leaf4"
						x="42.22" y="73.432" 
						transform="rotate(-52 42.63 74.202)" 	
						fill="rgb(231,68,138)" />
					<g>
					<path d ="M 42.22,73.432 
					a 62 434 -8.74 0 0 8.04,-5.976" fill ="none" stroke ="rgb(35.5,46.5,171.5)" stroke-width ="0.846"/></g><circle cx="50.26" cy="67.456" r="0.2115" stroke="rgb(40.5,51.5,176.5)" fill="rgb(35.5,46.5,171.5)"/><use xlink:href="#leaf5"
						x="50.26" y="67.456" 
						transform="rotate(15 50.26 67.456)" 	
						fill="rgb(207,37,133)" /><use xlink:href="#leaf3"
						x="50.26" y="67.456" 
						transform="rotate(-37 50.26 67.456)" 	
						fill="rgb(230,60,141)" /><use xlink:href="#leaf5"
						x="50.26" y="67.456" 
						transform="rotate(143 50.26 67.456)" 	
						fill="rgb(228,37,128)" /><use xlink:href="#leaf5"
						x="50.26" y="67.456" 
						transform="rotate(51 51.02 67.976)" 	
						fill="rgb(199,56,128)" /><use xlink:href="#leaf3"
						x="50.26" y="67.456" 
						transform="rotate(49 51.08 68.096)" 	
						fill="rgb(229,63,148)" /><use xlink:href="#leaf4"
						x="50.26" y="67.456" 
						transform="rotate(114 50.26 67.456)" 	
						fill="rgb(233,47,127)" /><use xlink:href="#flower4" id="fleur90"
							x="50.26" y="67.456" 
							transform="rotate(-32 51.016 68.32)" /><use xlink:href="#flower4" id="fleur91"
							x="50.26" y="67.456" 
							transform="rotate(131 50.26 67.456)" /><use xlink:href="#flower4" id="fleur92"
							x="50.26" y="67.456" 
							transform="rotate(-172 50.26 67.456)" /><use xlink:href="#flower4" id="fleur93"
							x="50.26" y="67.456" 
							transform="rotate(165 50.26 67.456)" />
					<g>
					<path d ="M 50.26,67.456 
					a 87 609 -2.2 0 1 5.844,-2.604" fill ="none" stroke ="rgb(39,51,173)" stroke-width ="0.6768"/></g><circle cx="56.104" cy="64.852" r="0.1692" stroke="rgb(44,56,178)" fill="rgb(39,51,173)"/><use xlink:href="#leaf7"
						x="56.104" y="64.852" 
						transform="rotate(-51 56.354 65.232)" 	
						fill="rgb(218,54,161)" /><use xlink:href="#leaf6"
						x="56.104" y="64.852" 
						transform="rotate(-70 56.104 64.852)" 	
						fill="rgb(225,41,139)" /><use xlink:href="#leaf3"
						x="56.104" y="64.852" 
						transform="rotate(170 56.104 64.852)" 	
						fill="rgb(207,67,158)" /><use xlink:href="#leaf3"
						x="56.104" y="64.852" 
						transform="rotate(-106 56.104 64.852)" 	
						fill="rgb(208,66,151)" />
					<g>
					<path d ="M 56.104,64.852 
					a 84 672 -19.76 0 0 5.508,0.66" fill ="none" stroke ="rgb(44,53,176)" stroke-width ="0.564"/></g><circle cx="61.612" cy="65.512" r="0.141" stroke="rgb(49,58,181)" fill="rgb(44,53,176)"/><use xlink:href="#leaf5"
						x="61.612" y="65.512" 
						transform="rotate(-157 61.612 65.512)" 	
						fill="rgb(219,37,159)" /><use xlink:href="#leaf5"
						x="61.612" y="65.512" 
						transform="rotate(-76 61.782 65.522)" 	
						fill="rgb(208,46,164)" /><use xlink:href="#leaf7"
						x="61.612" y="65.512" 
						transform="rotate(14 61.612 65.512)" 	
						fill="rgb(219,64,137)" /><use xlink:href="#leaf4"
						x="61.612" y="65.512" 
						transform="rotate(80 61.672 66.262)" 	
						fill="rgb(209,63,131)" /><use xlink:href="#leaf7"
						x="61.612" y="65.512" 
						transform="rotate(-17 61.612 65.512)" 	
						fill="rgb(204,61,154)" /><use xlink:href="#leaf8"
						x="61.612" y="65.512" 
						transform="rotate(-102 61.612 65.512)" 	
						fill="rgb(230,56,128)" /><use xlink:href="#leaf8"
						x="61.612" y="65.512" 
						transform="rotate(11 62.032 65.902)" 	
						fill="rgb(206,46,137)" /><use xlink:href="#leaf8"
						x="61.612" y="65.512" 
						transform="rotate(75 61.612 65.512)" 	
						fill="rgb(221,59,140)" /><use xlink:href="#leaf6"
						x="61.612" y="65.512" 
						transform="rotate(-61 61.612 65.512)" 	
						fill="rgb(211,67,147)" /><use xlink:href="#leaf5"
						x="61.612" y="65.512" 
						transform="rotate(-112 61.722 65.572)" 	
						fill="rgb(221,41,144)" /><use xlink:href="#leaf8"
						x="61.612" y="65.512" 
						transform="rotate(-138 61.752 65.912)" 	
						fill="rgb(229,44,138)" /><use xlink:href="#leaf5"
						x="61.612" y="65.512" 
						transform="rotate(20 62.482 66.472)" 	
						fill="rgb(212,55,162)" /><use xlink:href="#leaf6"
						x="61.612" y="65.512" 
						transform="rotate(-56 61.612 65.512)" 	
						fill="rgb(205,45,161)" /><use xlink:href="#leaf7"
						x="61.612" y="65.512" 
						transform="rotate(23 62.052 65.722)" 	
						fill="rgb(197,51,157)" />
					<g>
					<path d ="M 59.992,68.824 
					a 74 740 -16.16 0 0 -12.6,-5.832" fill ="none" stroke ="rgb(45,56,177)" stroke-width ="1.692"/></g><circle cx="47.392" cy="62.992" r="0.423" stroke="rgb(50,61,182)" fill="rgb(45,56,177)"/><use xlink:href="#leaf1"
						x="47.392" y="62.992" 
						transform="rotate(14 47.992 63.472)" 	
						fill="rgb(234,41,136)" /><use xlink:href="#leaf4"
						x="47.392" y="62.992" 
						transform="rotate(15 47.392 62.992)" 	
						fill="rgb(224,55,146)" /><use xlink:href="#leaf2"
						x="47.392" y="62.992" 
						transform="rotate(-6 47.392 62.992)" 	
						fill="rgb(205,59,161)" /><use xlink:href="#leaf4"
						x="47.392" y="62.992" 
						transform="rotate(-109 47.392 62.992)" 	
						fill="rgb(216,52,132)" /><use xlink:href="#leaf2"
						x="47.392" y="62.992" 
						transform="rotate(122 47.572 63.452)" 	
						fill="rgb(223,40,140)" /><use xlink:href="#leaf4"
						x="47.392" y="62.992" 
						transform="rotate(-126 47.392 62.992)" 	
						fill="rgb(209,44,129)" /><use xlink:href="#leaf1"
						x="47.392" y="62.992" 
						transform="rotate(36 47.392 62.992)" 	
						fill="rgb(197,34,136)" /><use xlink:href="#leaf1"
						x="47.392" y="62.992" 
						transform="rotate(28 47.612 63.822)" 	
						fill="rgb(200,31,148)" /><use xlink:href="#leaf4"
						x="47.392" y="62.992" 
						transform="rotate(30 47.732 63.812)" 	
						fill="rgb(211,35,152)" /><use xlink:href="#leaf3"
						x="47.392" y="62.992" 
						transform="rotate(61 48.072 63.162)" 	
						fill="rgb(207,65,134)" /><use xlink:href="#leaf4"
						x="47.392" y="62.992" 
						transform="rotate(50 47.392 62.992)" 	
						fill="rgb(211,65,141)" /><use xlink:href="#leaf1"
						x="47.392" y="62.992" 
						transform="rotate(-123 47.472 63.512)" 	
						fill="rgb(209,53,160)" /><use xlink:href="#leaf4"
						x="47.392" y="62.992" 
						transform="rotate(-52 47.942 63.462)" 	
						fill="rgb(229,38,140)" /><use xlink:href="#leaf4"
						x="47.392" y="62.992" 
						transform="rotate(42 47.432 63.092)" 	
						fill="rgb(227,32,155)" />
					<g>
					<path d ="M 47.392,62.992 
					a 81 486 4.7 0 0 8.136,-4.788" fill ="none" stroke ="rgb(45.5,58.5,178.5)" stroke-width ="1.128"/></g><circle cx="55.528" cy="58.204" r="0.282" stroke="rgb(50.5,63.5,183.5)" fill="rgb(45.5,58.5,178.5)"/><use xlink:href="#leaf4"
						x="55.528" y="58.204" 
						transform="rotate(58 56.428 58.624)" 	
						fill="rgb(198,47,147)" /><use xlink:href="#leaf3"
						x="55.528" y="58.204" 
						transform="rotate(-89 56.298 58.884)" 	
						fill="rgb(195,54,156)" /><use xlink:href="#leaf3"
						x="55.528" y="58.204" 
						transform="rotate(4 55.698 58.654)" 	
						fill="rgb(196,30,144)" /><use xlink:href="#leaf4"
						x="55.528" y="58.204" 
						transform="rotate(-141 56.498 58.884)" 	
						fill="rgb(225,64,144)" /><use xlink:href="#leaf2"
						x="55.528" y="58.204" 
						transform="rotate(-161 55.528 58.204)" 	
						fill="rgb(233,69,135)" /><use xlink:href="#leaf4"
						x="55.528" y="58.204" 
						transform="rotate(166 55.848 58.814)" 	
						fill="rgb(196,61,142)" /><use xlink:href="#leaf2"
						x="55.528" y="58.204" 
						transform="rotate(93 55.528 58.204)" 	
						fill="rgb(213,48,148)" /><use xlink:href="#leaf1"
						x="55.528" y="58.204" 
						transform="rotate(-81 55.528 58.204)" 	
						fill="rgb(204,58,153)" /><use xlink:href="#leaf1"
						x="55.528" y="58.204" 
						transform="rotate(78 55.528 58.204)" 	
						fill="rgb(215,45,154)" /><use xlink:href="#leaf1"
						x="55.528" y="58.204" 
						transform="rotate(90 55.528 58.204)" 	
						fill="rgb(219,43,152)" /><use xlink:href="#leaf5"
						x="55.528" y="58.204" 
						transform="rotate(176 55.528 58.204)" 	
						fill="rgb(205,42,127)" /><use xlink:href="#leaf4"
						x="55.528" y="58.204" 
						transform="rotate(-54 55.878 58.374)" 	
						fill="rgb(198,47,132)" /><use xlink:href="#leaf2"
						x="55.528" y="58.204" 
						transform="rotate(36 55.848 58.704)" 	
						fill="rgb(215,40,162)" /><use xlink:href="#leaf2"
						x="55.528" y="58.204" 
						transform="rotate(-169 55.528 58.204)" 	
						fill="rgb(208,56,137)" /><use xlink:href="#leaf5"
						x="55.528" y="58.204" 
						transform="rotate(128 55.528 58.204)" 	
						fill="rgb(226,41,129)" /><use xlink:href="#flower5" id="fleur130"
							x="55.528" y="58.204" 
							transform="rotate(-26 55.528 58.204)" /><use xlink:href="#flower5" id="fleur131"
							x="55.528" y="58.204" 
							transform="rotate(11 55.852 58.516)" /><use xlink:href="#flower5" id="fleur132"
							x="55.528" y="58.204" 
							transform="rotate(144 56.5 58.324)" /><use xlink:href="#flower5" id="fleur133"
							x="55.528" y="58.204" 
							transform="rotate(-144 55.648 59.116)" />
					<g>
					<path d ="M 59.992,68.824 
					a 78 234 17.74 0 1 2.112,-5.604" fill ="none" stroke ="rgb(45.5,58.5,179.5)" stroke-width ="1.692"/></g><circle cx="62.104" cy="63.22" r="0.423" stroke="rgb(50.5,63.5,184.5)" fill="rgb(45.5,58.5,179.5)"/><use xlink:href="#leaf3"
						x="62.104" y="63.22" 
						transform="rotate(-90 62.104 63.22)" 	
						fill="rgb(225,57,159)" /><use xlink:href="#leaf3"
						x="62.104" y="63.22" 
						transform="rotate(63 62.104 63.22)" 	
						fill="rgb(206,64,155)" /><use xlink:href="#leaf1"
						x="62.104" y="63.22" 
						transform="rotate(47 62.314 63.57)" 	
						fill="rgb(226,50,155)" /><use xlink:href="#leaf2"
						x="62.104" y="63.22" 
						transform="rotate(-178 62.104 63.22)" 	
						fill="rgb(195,60,125)" /><use xlink:href="#leaf2"
						x="62.104" y="63.22" 
						transform="rotate(82 62.604 63.86)" 	
						fill="rgb(221,62,146)" /><use xlink:href="#flower2" id="fleur140"
							x="62.104" y="63.22" 
							transform="rotate(-101 62.836 63.46)" /><use xlink:href="#flower2" id="fleur141"
							x="62.104" y="63.22" 
							transform="rotate(15 62.812 63.256)" /><use xlink:href="#flower2" id="fleur142"
							x="62.104" y="63.22" 
							transform="rotate(56 62.824 63.664)" /><use xlink:href="#flower2" id="fleur143"
							x="62.104" y="63.22" 
							transform="rotate(-9 62.644 64.384)" />
					<g>
					<path d ="M 59.992,68.824 
					a 84 168 -4.62 0 0 12.96,-6.456" fill ="none" stroke ="rgb(44.5,57.5,182.5)" stroke-width ="1.692"/></g><circle cx="72.952" cy="62.368" r="0.423" stroke="rgb(49.5,62.5,187.5)" fill="rgb(44.5,57.5,182.5)"/><use xlink:href="#leaf1"
						x="72.952" y="62.368" 
						transform="rotate(-21 72.952 63.258)" 	
						fill="rgb(213,38,140)" /><use xlink:href="#leaf1"
						x="72.952" y="62.368" 
						transform="rotate(64 73.012 62.758)" 	
						fill="rgb(229,38,133)" /><use xlink:href="#leaf1"
						x="72.952" y="62.368" 
						transform="rotate(42 73.382 62.988)" 	
						fill="rgb(221,36,127)" /><use xlink:href="#leaf1"
						x="72.952" y="62.368" 
						transform="rotate(70 72.952 62.368)" 	
						fill="rgb(204,62,125)" /><use xlink:href="#flower1" id="fleur150"
							x="72.952" y="62.368" 
							transform="rotate(-6 72.952 62.62)" /><use xlink:href="#flower1" id="fleur151"
							x="72.952" y="62.368" 
							transform="rotate(-42 73.06 62.836)" />
					<g>
					<path d ="M 59.992,68.824 
					a 56 336 -2.4 0 1 11.748,4.752" fill ="none" stroke ="rgb(44.5,59.5,182.5)" stroke-width ="1.692"/></g><circle cx="71.74" cy="73.576" r="0.423" stroke="rgb(49.5,64.5,187.5)" fill="rgb(44.5,59.5,182.5)"/><use xlink:href="#leaf1"
						x="71.74" y="73.576" 
						transform="rotate(-23 71.74 73.576)" 	
						fill="rgb(214,57,159)" /><use xlink:href="#leaf1"
						x="71.74" y="73.576" 
						transform="rotate(-154 71.74 73.576)" 	
						fill="rgb(214,59,163)" /><use xlink:href="#leaf2"
						x="71.74" y="73.576" 
						transform="rotate(-133 72.09 73.746)" 	
						fill="rgb(217,31,139)" /><use xlink:href="#leaf4"
						x="71.74" y="73.576" 
						transform="rotate(-107 71.74 73.576)" 	
						fill="rgb(228,50,152)" /><use xlink:href="#leaf3"
						x="71.74" y="73.576" 
						transform="rotate(-63 71.74 73.576)" 	
						fill="rgb(219,33,149)" /><use xlink:href="#leaf4"
						x="71.74" y="73.576" 
						transform="rotate(106 71.74 73.576)" 	
						fill="rgb(198,67,152)" /><use xlink:href="#leaf1"
						x="71.74" y="73.576" 
						transform="rotate(-19 72.07 73.876)" 	
						fill="rgb(210,36,143)" /><use xlink:href="#leaf1"
						x="71.74" y="73.576" 
						transform="rotate(90 71.79 73.946)" 	
						fill="rgb(230,64,158)" /><use xlink:href="#leaf3"
						x="71.74" y="73.576" 
						transform="rotate(86 71.78 74.406)" 	
						fill="rgb(197,57,143)" /><use xlink:href="#flower3" id="fleur160"
							x="71.74" y="73.576" 
							transform="rotate(-69 71.74 73.576)" /><use xlink:href="#flower3" id="fleur161"
							x="71.74" y="73.576" 
							transform="rotate(-86 71.74 73.576)" /><use xlink:href="#flower3" id="fleur162"
							x="71.74" y="73.576" 
							transform="rotate(111 71.74 73.576)" /><use xlink:href="#flower3" id="fleur163"
							x="71.74" y="73.576" 
							transform="rotate(-13 71.74 73.576)" />
					<g>
					<path d ="M 71.74,73.576 
					a 78 468 5.27 0 0 -5.184,1.08" fill ="none" stroke ="rgb(48,61,182)" stroke-width ="1.128"/></g><circle cx="66.556" cy="74.656" r="0.282" stroke="rgb(53,66,187)" fill="rgb(48,61,182)"/><use xlink:href="#leaf4"
						x="66.556" y="74.656" 
						transform="rotate(-118 66.556 74.656)" 	
						fill="rgb(211,61,135)" /><use xlink:href="#leaf3"
						x="66.556" y="74.656" 
						transform="rotate(130 66.556 74.656)" 	
						fill="rgb(229,32,128)" /><use xlink:href="#leaf3"
						x="66.556" y="74.656" 
						transform="rotate(48 66.556 74.656)" 	
						fill="rgb(197,35,162)" /><use xlink:href="#leaf4"
						x="66.556" y="74.656" 
						transform="rotate(-79 66.556 74.656)" 	
						fill="rgb(226,56,144)" /><use xlink:href="#leaf1"
						x="66.556" y="74.656" 
						transform="rotate(70 66.626 75.316)" 	
						fill="rgb(228,65,144)" /><use xlink:href="#leaf1"
						x="66.556" y="74.656" 
						transform="rotate(91 67.126 75.146)" 	
						fill="rgb(233,56,145)" /><use xlink:href="#leaf1"
						x="66.556" y="74.656" 
						transform="rotate(30 66.556 74.656)" 	
						fill="rgb(230,35,135)" /><use xlink:href="#leaf3"
						x="66.556" y="74.656" 
						transform="rotate(-48 67.356 75.426)" 	
						fill="rgb(201,44,153)" /><use xlink:href="#leaf1"
						x="66.556" y="74.656" 
						transform="rotate(171 66.556 74.656)" 	
						fill="rgb(221,45,159)" /><use xlink:href="#leaf4"
						x="66.556" y="74.656" 
						transform="rotate(149 66.736 74.676)" 	
						fill="rgb(197,39,152)" /><use xlink:href="#leaf1"
						x="66.556" y="74.656" 
						transform="rotate(34 66.556 74.656)" 	
						fill="rgb(215,58,153)" />
					<g>
					<path d ="M 71.74,73.576 
					a 66 462 13.18 0 1 -3.444,-6.9" fill ="none" stroke ="rgb(49.5,62.5,184.5)" stroke-width ="1.128"/></g><circle cx="68.296" cy="66.676" r="0.282" stroke="rgb(54.5,67.5,189.5)" fill="rgb(49.5,62.5,184.5)"/><use xlink:href="#leaf5"
						x="68.296" y="66.676" 
						transform="rotate(146 69.086 67.086)" 	
						fill="rgb(215,50,145)" /><use xlink:href="#leaf4"
						x="68.296" y="66.676" 
						transform="rotate(86 68.296 66.676)" 	
						fill="rgb(228,33,137)" /><use xlink:href="#leaf3"
						x="68.296" y="66.676" 
						transform="rotate(4 68.886 66.996)" 	
						fill="rgb(205,70,155)" /><use xlink:href="#leaf2"
						x="68.296" y="66.676" 
						transform="rotate(52 68.296 66.676)" 	
						fill="rgb(195,64,146)" /><use xlink:href="#leaf5"
						x="68.296" y="66.676" 
						transform="rotate(-108 68.556 66.986)" 	
						fill="rgb(220,31,127)" /><use xlink:href="#leaf5"
						x="68.296" y="66.676" 
						transform="rotate(143 68.296 66.676)" 	
						fill="rgb(224,48,164)" /><use xlink:href="#leaf1"
						x="68.296" y="66.676" 
						transform="rotate(-95 68.406 66.976)" 	
						fill="rgb(204,62,143)" /><use xlink:href="#leaf1"
						x="68.296" y="66.676" 
						transform="rotate(-133 68.876 66.906)" 	
						fill="rgb(201,53,131)" /><use xlink:href="#leaf3"
						x="68.296" y="66.676" 
						transform="rotate(129 68.296 66.676)" 	
						fill="rgb(214,33,125)" /><use xlink:href="#leaf4"
						x="68.296" y="66.676" 
						transform="rotate(-154 68.296 66.676)" 	
						fill="rgb(198,30,128)" /><use xlink:href="#leaf5"
						x="68.296" y="66.676" 
						transform="rotate(-108 68.296 66.676)" 	
						fill="rgb(219,50,157)" /><use xlink:href="#leaf3"
						x="68.296" y="66.676" 
						transform="rotate(14 68.756 67.236)" 	
						fill="rgb(203,36,150)" /><use xlink:href="#leaf1"
						x="68.296" y="66.676" 
						transform="rotate(-107 68.766 67.336)" 	
						fill="rgb(215,55,160)" /><use xlink:href="#leaf5"
						x="68.296" y="66.676" 
						transform="rotate(175 68.296 66.676)" 	
						fill="rgb(196,68,127)" /><use xlink:href="#leaf5"
						x="68.296" y="66.676" 
						transform="rotate(63 68.536 67.446)" 	
						fill="rgb(234,63,146)" /><use xlink:href="#flower5" id="fleur180"
							x="68.296" y="66.676" 
							transform="rotate(-11 68.296 66.676)" />
					<g>
					<path d ="M 71.74,73.576 
					a 66 462 8.19 0 0 3.12,-6.312" fill ="none" stroke ="rgb(53,66,186)" stroke-width ="1.128"/></g><circle cx="74.86" cy="67.264" r="0.282" stroke="rgb(58,71,191)" fill="rgb(53,66,186)"/><use xlink:href="#leaf4"
						x="74.86" y="67.264" 
						transform="rotate(-151 75.7 67.434)" 	
						fill="rgb(218,49,144)" /><use xlink:href="#leaf5"
						x="74.86" y="67.264" 
						transform="rotate(-150 74.86 67.264)" 	
						fill="rgb(196,41,132)" /><use xlink:href="#leaf5"
						x="74.86" y="67.264" 
						transform="rotate(53 74.86 67.264)" 	
						fill="rgb(233,53,145)" /><use xlink:href="#leaf2"
						x="74.86" y="67.264" 
						transform="rotate(52 74.86 67.264)" 	
						fill="rgb(195,47,135)" /><use xlink:href="#leaf4"
						x="74.86" y="67.264" 
						transform="rotate(-47 74.86 67.264)" 	
						fill="rgb(222,47,159)" /><use xlink:href="#leaf4"
						x="74.86" y="67.264" 
						transform="rotate(-65 74.97 67.374)" 	
						fill="rgb(222,36,163)" /><use xlink:href="#leaf5"
						x="74.86" y="67.264" 
						transform="rotate(-19 74.86 67.264)" 	
						fill="rgb(221,44,126)" /><use xlink:href="#leaf4"
						x="74.86" y="67.264" 
						transform="rotate(154 75.31 68.054)" 	
						fill="rgb(203,47,155)" /><use xlink:href="#leaf2"
						x="74.86" y="67.264" 
						transform="rotate(-131 74.87 67.474)" 	
						fill="rgb(199,62,143)" /><use xlink:href="#flower2" id="fleur190"
							x="74.86" y="67.264" 
							transform="rotate(123 74.86 67.264)" />
					<g>
					<path d ="M 71.74,73.576 
					a 82 82 5.63 0 0 12.48,-7.848" fill ="none" stroke ="rgb(53.5,68.5,187.5)" stroke-width ="1.128"/></g><circle cx="84.22" cy="65.728" r="0.282" stroke="rgb(58.5,73.5,192.5)" fill="rgb(53.5,68.5,187.5)"/><use xlink:href="#leaf4"
						x="84.22" y="65.728" 
						transform="rotate(169 84.22 65.728)" 	
						fill="rgb(221,56,136)" /><use xlink:href="#leaf5"
						x="84.22" y="65.728" 
						transform="rotate(1 84.22 65.728)" 	
						fill="rgb(207,67,136)" /><use xlink:href="#leaf2"
						x="84.22" y="65.728" 
						transform="rotate(-74 84.58 66.038)" 	
						fill="rgb(198,34,130)" /><use xlink:href="#leaf1"
						x="84.22" y="65.728" 
						transform="rotate(153 84.89 66.118)" 	
						fill="rgb(222,40,152)" /><use xlink:href="#leaf1"
						x="84.22" y="65.728" 
						transform="rotate(109 84.22 65.728)" 	
						fill="rgb(195,49,155)" /><use xlink:href="#leaf4"
						x="84.22" y="65.728" 
						transform="rotate(74 84.22 65.728)" 	
						fill="rgb(214,67,159)" /><use xlink:href="#flower4" id="fleur200"
							x="84.22" y="65.728" 
							transform="rotate(134 84.22 65.728)" />
					<g>
					<path d ="M 84.22,65.728 
					a 73 365 -13.19 0 1 -9.18,-3.036" fill ="none" stroke ="rgb(57.5,69.5,187.5)" stroke-width ="0.846"/></g><circle cx="75.04" cy="62.692" r="0.2115" stroke="rgb(62.5,74.5,192.5)" fill="rgb(57.5,69.5,187.5)"/><use xlink:href="#leaf3"
						x="75.04" y="62.692" 
						transform="rotate(157 75.04 62.692)" 	
						fill="rgb(217,32,136)" /><use xlink:href="#leaf2"
						x="75.04" y="62.692" 
						transform="rotate(7 75.26 62.832)" 	
						fill="rgb(195,60,142)" /><use xlink:href="#leaf2"
						x="75.04" y="62.692" 
						transform="rotate(-45 75.9 63.472)" 	
						fill="rgb(200,39,143)" /><use xlink:href="#leaf4"
						x="75.04" y="62.692" 
						transform="rotate(142 75.16 63.142)" 	
						fill="rgb(214,68,157)" /><use xlink:href="#leaf3"
						x="75.04" y="62.692" 
						transform="rotate(-159 75.04 62.692)" 	
						fill="rgb(233,44,134)" /><use xlink:href="#leaf3"
						x="75.04" y="62.692" 
						transform="rotate(-102 75.82 63.152)" 	
						fill="rgb(212,39,143)" /><use xlink:href="#flower3" id="fleur210"
							x="75.04" y="62.692" 
							transform="rotate(122 75.172 63.124)" /><use xlink:href="#flower3" id="fleur211"
							x="75.04" y="62.692" 
							transform="rotate(-135 76.06 63.316)" /><use xlink:href="#flower3" id="fleur212"
							x="75.04" y="62.692" 
							transform="rotate(-20 75.892 63.448)" /><use xlink:href="#flower3" id="fleur213"
							x="75.04" y="62.692" 
							transform="rotate(178 75.076 63.4)" /><use xlink:href="#flower3" id="fleur214"
							x="75.04" y="62.692" 
							transform="rotate(75 75.04 62.692)" />
					<g>
					<path d ="M 84.22,65.728 
					a 78 624 2.86 0 1 -11.628,1.704" fill ="none" stroke ="rgb(58.5,71.5,191.5)" stroke-width ="0.846"/></g><circle cx="72.592" cy="67.432" r="0.2115" stroke="rgb(63.5,76.5,196.5)" fill="rgb(58.5,71.5,191.5)"/><use xlink:href="#leaf3"
						x="72.592" y="67.432" 
						transform="rotate(110 72.592 67.432)" 	
						fill="rgb(210,47,163)" /><use xlink:href="#leaf3"
						x="72.592" y="67.432" 
						transform="rotate(120 72.592 67.432)" 	
						fill="rgb(224,42,145)" /><use xlink:href="#leaf3"
						x="72.592" y="67.432" 
						transform="rotate(-148 72.592 67.432)" 	
						fill="rgb(227,45,165)" /><use xlink:href="#leaf3"
						x="72.592" y="67.432" 
						transform="rotate(-31 72.592 67.432)" 	
						fill="rgb(209,38,160)" /><use xlink:href="#leaf2"
						x="72.592" y="67.432" 
						transform="rotate(-103 72.592 67.432)" 	
						fill="rgb(201,52,148)" /><use xlink:href="#leaf2"
						x="72.592" y="67.432" 
						transform="rotate(159 72.592 67.432)" 	
						fill="rgb(204,54,149)" /><use xlink:href="#leaf5"
						x="72.592" y="67.432" 
						transform="rotate(-162 72.592 67.432)" 	
						fill="rgb(206,37,159)" /><use xlink:href="#leaf2"
						x="72.592" y="67.432" 
						transform="rotate(-64 72.592 67.432)" 	
						fill="rgb(229,69,152)" /><use xlink:href="#leaf2"
						x="72.592" y="67.432" 
						transform="rotate(-178 72.752 67.872)" 	
						fill="rgb(233,38,143)" /><use xlink:href="#leaf6"
						x="72.592" y="67.432" 
						transform="rotate(-17 73.112 68.032)" 	
						fill="rgb(213,50,125)" /><use xlink:href="#leaf5"
						x="72.592" y="67.432" 
						transform="rotate(-172 72.592 67.432)" 	
						fill="rgb(202,64,140)" /><use xlink:href="#leaf4"
						x="72.592" y="67.432" 
						transform="rotate(48 72.592 67.432)" 	
						fill="rgb(194,47,152)" /><use xlink:href="#leaf5"
						x="72.592" y="67.432" 
						transform="rotate(-118 73.462 67.662)" 	
						fill="rgb(208,37,149)" /><use xlink:href="#leaf4"
						x="72.592" y="67.432" 
						transform="rotate(138 72.612 67.922)" 	
						fill="rgb(202,55,146)" /><use xlink:href="#flower4" id="fleur220"
							x="72.592" y="67.432" 
							transform="rotate(5 72.592 67.432)" /><use xlink:href="#flower4" id="fleur221"
							x="72.592" y="67.432" 
							transform="rotate(-71 72.832 67.648)" /><use xlink:href="#flower4" id="fleur222"
							x="72.592" y="67.432" 
							transform="rotate(-27 72.592 67.432)" /><use xlink:href="#flower4" id="fleur223"
							x="72.592" y="67.432" 
							transform="rotate(-63 72.592 67.432)" /><use xlink:href="#flower4" id="fleur224"
							x="72.592" y="67.432" 
							transform="rotate(-172 72.592 67.432)" /><use xlink:href="#flower4" id="fleur225"
							x="72.592" y="67.432" 
							transform="rotate(-79 73.396 68.272)" /><use xlink:href="#flower4" id="fleur226"
							x="72.592" y="67.432" 
							transform="rotate(-53 73.624 67.6)" /><use xlink:href="#flower4" id="fleur227"
							x="72.592" y="67.432" 
							transform="rotate(82 72.592 67.432)" />
					<g>
					<path d ="M 84.22,65.728 
					a 74 444 -18.65 0 0 2.28,-2.616" fill ="none" stroke ="rgb(60.5,75.5,194.5)" stroke-width ="0.846"/></g><circle cx="86.5" cy="63.112" r="0.2115" stroke="rgb(65.5,80.5,199.5)" fill="rgb(60.5,75.5,194.5)"/><use xlink:href="#leaf3"
						x="86.5" y="63.112" 
						transform="rotate(-113 86.5 63.112)" 	
						fill="rgb(207,52,160)" /><use xlink:href="#leaf5"
						x="86.5" y="63.112" 
						transform="rotate(4 86.5 63.112)" 	
						fill="rgb(224,41,143)" /><use xlink:href="#leaf4"
						x="86.5" y="63.112" 
						transform="rotate(62 86.5 63.112)" 	
						fill="rgb(227,30,138)" /><use xlink:href="#leaf2"
						x="86.5" y="63.112" 
						transform="rotate(-62 86.58 64.022)" 	
						fill="rgb(203,37,152)" /><use xlink:href="#leaf3"
						x="86.5" y="63.112" 
						transform="rotate(118 87.43 63.712)" 	
						fill="rgb(218,41,140)" /><use xlink:href="#leaf2"
						x="86.5" y="63.112" 
						transform="rotate(13 86.64 63.572)" 	
						fill="rgb(208,62,128)" /><use xlink:href="#leaf6"
						x="86.5" y="63.112" 
						transform="rotate(180 86.81 63.622)" 	
						fill="rgb(230,31,133)" /><use xlink:href="#leaf3"
						x="86.5" y="63.112" 
						transform="rotate(107 86.5 63.112)" 	
						fill="rgb(225,44,154)" /><use xlink:href="#flower3" id="fleur230"
							x="86.5" y="63.112" 
							transform="rotate(-154 87.436 63.856)" /><use xlink:href="#flower3" id="fleur231"
							x="86.5" y="63.112" 
							transform="rotate(-14 87.688 63.544)" />
					<g>
					<path d ="M 84.22,65.728 
					a 82 164 4.99 0 1 -2.376,-4.068" fill ="none" stroke ="rgb(63.5,75.5,198.5)" stroke-width ="0.846"/></g><circle cx="81.844" cy="61.66" r="0.2115" stroke="rgb(68.5,80.5,203.5)" fill="rgb(63.5,75.5,198.5)"/><use xlink:href="#leaf5"
						x="81.844" y="61.66" 
						transform="rotate(122 81.844 61.66)" 	
						fill="rgb(233,56,129)" /><use xlink:href="#leaf6"
						x="81.844" y="61.66" 
						transform="rotate(-74 81.844 61.66)" 	
						fill="rgb(198,42,164)" /><use xlink:href="#leaf2"
						x="81.844" y="61.66" 
						transform="rotate(55 81.844 62.55)" 	
						fill="rgb(219,44,131)" /><use xlink:href="#leaf2"
						x="81.844" y="61.66" 
						transform="rotate(36 81.844 61.66)" 	
						fill="rgb(221,68,156)" /><use xlink:href="#leaf6"
						x="81.844" y="61.66" 
						transform="rotate(120 81.844 61.66)" 	
						fill="rgb(234,64,127)" /><use xlink:href="#leaf4"
						x="81.844" y="61.66" 
						transform="rotate(88 82.464 62.48)" 	
						fill="rgb(208,47,161)" /><use xlink:href="#leaf2"
						x="81.844" y="61.66" 
						transform="rotate(179 81.844 61.66)" 	
						fill="rgb(225,49,152)" /><use xlink:href="#leaf2"
						x="81.844" y="61.66" 
						transform="rotate(-175 81.844 61.66)" 	
						fill="rgb(220,36,149)" /><use xlink:href="#leaf2"
						x="81.844" y="61.66" 
						transform="rotate(-60 82.634 62.6)" 	
						fill="rgb(205,56,140)" /><use xlink:href="#leaf4"
						x="81.844" y="61.66" 
						transform="rotate(-27 81.844 61.66)" 	
						fill="rgb(201,53,133)" />
					<g>
					<path d ="M 81.844,61.66 
					a 100 200 18.24 0 0 -11.34,-2.892" fill ="none" stroke ="rgb(68,78,200)" stroke-width ="0.6768"/></g><circle cx="70.504" cy="58.768" r="0.1692" stroke="rgb(73,83,205)" fill="rgb(68,78,200)"/><use xlink:href="#leaf6"
						x="70.504" y="58.768" 
						transform="rotate(-93 70.504 58.768)" 	
						fill="rgb(195,36,165)" /><use xlink:href="#leaf4"
						x="70.504" y="58.768" 
						transform="rotate(171 70.504 58.768)" 	
						fill="rgb(234,70,151)" /><use xlink:href="#leaf3"
						x="70.504" y="58.768" 
						transform="rotate(161 71.034 59.528)" 	
						fill="rgb(194,65,125)" /><use xlink:href="#leaf4"
						x="70.504" y="58.768" 
						transform="rotate(-166 70.584 59.508)" 	
						fill="rgb(220,47,127)" /><use xlink:href="#leaf3"
						x="70.504" y="58.768" 
						transform="rotate(143 71.384 58.858)" 	
						fill="rgb(207,52,158)" /><use xlink:href="#leaf4"
						x="70.504" y="58.768" 
						transform="rotate(-138 70.504 58.768)" 	
						fill="rgb(197,33,143)" /><use xlink:href="#leaf6"
						x="70.504" y="58.768" 
						transform="rotate(-100 70.504 58.768)" 	
						fill="rgb(228,54,151)" /><use xlink:href="#leaf4"
						x="70.504" y="58.768" 
						transform="rotate(76 71.424 59.688)" 	
						fill="rgb(233,42,137)" /><use xlink:href="#flower4" id="fleur250"
							x="70.504" y="58.768" 
							transform="rotate(-85 71.656 59.224)" />
					<g>
					<path d ="M 71.74,73.576 
					a 94 846 -20.45 0 1 -12.528,3.804" fill ="none" stroke ="rgb(70.5,77.5,203.5)" stroke-width ="1.128"/></g><circle cx="59.212" cy="77.38" r="0.282" stroke="rgb(75.5,82.5,208.5)" fill="rgb(70.5,77.5,203.5)"/><use xlink:href="#leaf4"
						x="59.212" y="77.38" 
						transform="rotate(-165 59.692 77.8)" 	
						fill="rgb(225,41,129)" /><use xlink:href="#leaf1"
						x="59.212" y="77.38" 
						transform="rotate(79 59.862 77.54)" 	
						fill="rgb(227,36,133)" /><use xlink:href="#leaf1"
						x="59.212" y="77.38" 
						transform="rotate(-164 59.232 78.01)" 	
						fill="rgb(230,41,154)" /><use xlink:href="#leaf1"
						x="59.212" y="77.38" 
						transform="rotate(80 59.212 77.38)" 	
						fill="rgb(200,33,155)" /><use xlink:href="#leaf1"
						x="59.212" y="77.38" 
						transform="rotate(135 60.092 78.21)" 	
						fill="rgb(196,40,155)" /><use xlink:href="#leaf2"
						x="59.212" y="77.38" 
						transform="rotate(108 59.212 77.38)" 	
						fill="rgb(206,58,148)" /><use xlink:href="#leaf4"
						x="59.212" y="77.38" 
						transform="rotate(156 59.212 77.38)" 	
						fill="rgb(210,47,125)" /><use xlink:href="#leaf2"
						x="59.212" y="77.38" 
						transform="rotate(-143 59.212 77.38)" 	
						fill="rgb(231,61,147)" /><use xlink:href="#flower2" id="fleur260"
							x="59.212" y="77.38" 
							transform="rotate(-95 59.212 77.38)" /><use xlink:href="#flower2" id="fleur261"
							x="59.212" y="77.38" 
							transform="rotate(59 59.212 77.38)" /><use xlink:href="#flower2" id="fleur262"
							x="59.212" y="77.38" 
							transform="rotate(-125 59.404 77.74)" /><use xlink:href="#flower2" id="fleur263"
							x="59.212" y="77.38" 
							transform="rotate(-119 60.112 78.004)" /><use xlink:href="#flower2" id="fleur264"
							x="59.212" y="77.38" 
							transform="rotate(-89 59.212 77.38)" />
					<g>
					<path d ="M 71.74,73.576 
					a 51 51 -12.6 0 0 9.432,-2.916" fill ="none" stroke ="rgb(73,81,206)" stroke-width ="1.128"/></g><circle cx="81.172" cy="70.66" r="0.282" stroke="rgb(78,86,211)" fill="rgb(73,81,206)"/><use xlink:href="#leaf1"
						x="81.172" y="70.66" 
						transform="rotate(-70 81.172 70.66)" 	
						fill="rgb(223,39,141)" /><use xlink:href="#leaf4"
						x="81.172" y="70.66" 
						transform="rotate(6 81.362 71.25)" 	
						fill="rgb(208,37,156)" /><use xlink:href="#leaf3"
						x="81.172" y="70.66" 
						transform="rotate(53 81.952 71)" 	
						fill="rgb(210,65,142)" /><use xlink:href="#leaf3"
						x="81.172" y="70.66" 
						transform="rotate(20 81.172 70.66)" 	
						fill="rgb(232,39,145)" /><use xlink:href="#leaf1"
						x="81.172" y="70.66" 
						transform="rotate(-86 81.212 70.79)" 	
						fill="rgb(207,65,159)" /><use xlink:href="#leaf2"
						x="81.172" y="70.66" 
						transform="rotate(-116 81.172 70.66)" 	
						fill="rgb(196,58,151)" /><use xlink:href="#leaf5"
						x="81.172" y="70.66" 
						transform="rotate(-47 81.542 71.32)" 	
						fill="rgb(222,62,131)" /><use xlink:href="#leaf2"
						x="81.172" y="70.66" 
						transform="rotate(-132 81.292 71.43)" 	
						fill="rgb(229,37,152)" /><use xlink:href="#leaf3"
						x="81.172" y="70.66" 
						transform="rotate(84 81.172 70.66)" 	
						fill="rgb(202,70,152)" /><use xlink:href="#flower3" id="fleur270"
							x="81.172" y="70.66" 
							transform="rotate(-26 81.172 70.66)" /><use xlink:href="#flower3" id="fleur271"
							x="81.172" y="70.66" 
							transform="rotate(-156 81.7 71.056)" /><use xlink:href="#flower3" id="fleur272"
							x="81.172" y="70.66" 
							transform="rotate(112 82.312 71.692)" /><use xlink:href="#flower3" id="fleur273"
							x="81.172" y="70.66" 
							transform="rotate(7 82.168 71.164)" />
					<g>
					<path d ="M 71.74,73.576 
					a 73 146 -4.7 0 1 8.904,-2.22" fill ="none" stroke ="rgb(73.5,83.5,209.5)" stroke-width ="1.128"/></g><circle cx="80.644" cy="71.356" r="0.282" stroke="rgb(78.5,88.5,214.5)" fill="rgb(73.5,83.5,209.5)"/><use xlink:href="#leaf5"
						x="80.644" y="71.356" 
						transform="rotate(-159 81.614 72.146)" 	
						fill="rgb(233,37,149)" /><use xlink:href="#leaf3"
						x="80.644" y="71.356" 
						transform="rotate(139 80.644 71.356)" 	
						fill="rgb(217,69,140)" /><use xlink:href="#leaf3"
						x="80.644" y="71.356" 
						transform="rotate(-8 80.644 71.356)" 	
						fill="rgb(215,31,125)" /><use xlink:href="#leaf5"
						x="80.644" y="71.356" 
						transform="rotate(-64 80.644 71.356)" 	
						fill="rgb(213,48,159)" /><use xlink:href="#leaf4"
						x="80.644" y="71.356" 
						transform="rotate(5 81.434 71.396)" 	
						fill="rgb(210,47,150)" /><use xlink:href="#leaf3"
						x="80.644" y="71.356" 
						transform="rotate(-89 81.434 71.526)" 	
						fill="rgb(202,65,138)" /><use xlink:href="#leaf3"
						x="80.644" y="71.356" 
						transform="rotate(-37 81.154 71.926)" 	
						fill="rgb(217,37,158)" /><use xlink:href="#leaf1"
						x="80.644" y="71.356" 
						transform="rotate(16 80.644 71.356)" 	
						fill="rgb(228,61,154)" /><use xlink:href="#leaf5"
						x="80.644" y="71.356" 
						transform="rotate(150 81.004 71.406)" 	
						fill="rgb(207,31,149)" /><use xlink:href="#leaf3"
						x="80.644" y="71.356" 
						transform="rotate(-54 80.644 71.356)" 	
						fill="rgb(217,51,162)" /><use xlink:href="#leaf1"
						x="80.644" y="71.356" 
						transform="rotate(-132 81.014 71.596)" 	
						fill="rgb(226,60,125)" /><use xlink:href="#leaf5"
						x="80.644" y="71.356" 
						transform="rotate(-73 80.644 71.356)" 	
						fill="rgb(202,46,157)" /><use xlink:href="#leaf1"
						x="80.644" y="71.356" 
						transform="rotate(-31 81.054 72.046)" 	
						fill="rgb(232,37,161)" /><use xlink:href="#leaf4"
						x="80.644" y="71.356" 
						transform="rotate(-20 80.644 71.356)" 	
						fill="rgb(230,36,140)" /><use xlink:href="#leaf3"
						x="80.644" y="71.356" 
						transform="rotate(-80 81.254 71.486)" 	
						fill="rgb(211,36,144)" /><use xlink:href="#flower3" id="fleur280"
							x="80.644" y="71.356" 
							transform="rotate(-44 80.644 71.356)" /><use xlink:href="#flower3" id="fleur281"
							x="80.644" y="71.356" 
							transform="rotate(-155 81.4 71.548)" /><use xlink:href="#flower3" id="fleur282"
							x="80.644" y="71.356" 
							transform="rotate(96 80.644 71.356)" /><use xlink:href="#flower3" id="fleur283"
							x="80.644" y="71.356" 
							transform="rotate(-63 81.748 71.524)" /><use xlink:href="#flower3" id="fleur284"
							x="80.644" y="71.356" 
							transform="rotate(34 80.644 71.356)" />
					<g>
					<path d ="M 80.644,71.356 
					a 58 174 6.25 0 1 -11.976,4.752" fill ="none" stroke ="rgb(73.5,83.5,211.5)" stroke-width ="0.846"/></g><circle cx="68.668" cy="76.108" r="0.2115" stroke="rgb(78.5,88.5,216.5)" fill="rgb(73.5,83.5,211.5)"/><use xlink:href="#leaf2"
						x="68.668" y="76.108" 
						transform="rotate(-165 68.668 76.108)" 	
						fill="rgb(227,38,142)" /><use xlink:href="#leaf6"
						x="68.668" y="76.108" 
						transform="rotate(-170 68.668 76.108)" 	
						fill="rgb(233,31,126)" /><use xlink:href="#leaf5"
						x="68.668" y="76.108" 
						transform="rotate(131 69.038 76.868)" 	
						fill="rgb(215,59,157)" /><use xlink:href="#leaf4"
						x="68.668" y="76.108" 
						transform="rotate(57 69.008 76.178)" 	
						fill="rgb(195,70,164)" /><use xlink:href="#leaf6"
						x="68.668" y="76.108" 
						transform="rotate(5 68.668 76.108)" 	
						fill="rgb(229,36,128)" /><use xlink:href="#leaf3"
						x="68.668" y="76.108" 
						transform="rotate(-37 68.668 76.108)" 	
						fill="rgb(194,55,153)" /><use xlink:href="#leaf2"
						x="68.668" y="76.108" 
						transform="rotate(144 68.668 76.108)" 	
						fill="rgb(200,39,137)" /><use xlink:href="#leaf3"
						x="68.668" y="76.108" 
						transform="rotate(108 68.668 76.108)" 	
						fill="rgb(207,33,151)" /><use xlink:href="#flower3" id="fleur290"
							x="68.668" y="76.108" 
							transform="rotate(-176 69.46 76.924)" /><use xlink:href="#flower3" id="fleur291"
							x="68.668" y="76.108" 
							transform="rotate(-101 68.668 76.108)" /><use xlink:href="#flower3" id="fleur292"
							x="68.668" y="76.108" 
							transform="rotate(56 69.16 76.276)" /><use xlink:href="#flower3" id="fleur293"
							x="68.668" y="76.108" 
							transform="rotate(97 69.22 76.3)" /><use xlink:href="#flower3" id="fleur294"
							x="68.668" y="76.108" 
							transform="rotate(97 68.86 76.948)" /><use xlink:href="#flower3" id="fleur295"
							x="68.668" y="76.108" 
							transform="rotate(-168 68.668 76.108)" /><use xlink:href="#flower3" id="fleur296"
							x="68.668" y="76.108" 
							transform="rotate(27 69.364 76.336)" /><use xlink:href="#flower3" id="fleur297"
							x="68.668" y="76.108" 
							transform="rotate(126 68.668 76.108)" />
					<g>
					<path d ="M 55.528,58.204 
					a 68 476 1.94 0 1 1.596,-7.032" fill ="none" stroke ="rgb(77.5,83.5,213.5)" stroke-width ="0.846"/></g><circle cx="57.124" cy="51.172" r="0.2115" stroke="rgb(82.5,88.5,218.5)" fill="rgb(77.5,83.5,213.5)"/><use xlink:href="#leaf3"
						x="57.124" y="51.172" 
						transform="rotate(102 57.394 51.282)" 	
						fill="rgb(204,65,148)" /><use xlink:href="#leaf6"
						x="57.124" y="51.172" 
						transform="rotate(173 58.094 52.112)" 	
						fill="rgb(195,49,137)" /><use xlink:href="#leaf4"
						x="57.124" y="51.172" 
						transform="rotate(-28 57.124 51.172)" 	
						fill="rgb(197,33,156)" /><use xlink:href="#leaf2"
						x="57.124" y="51.172" 
						transform="rotate(-109 57.124 51.172)" 	
						fill="rgb(224,48,162)" /><use xlink:href="#leaf5"
						x="57.124" y="51.172" 
						transform="rotate(-119 57.234 51.832)" 	
						fill="rgb(197,40,143)" /><use xlink:href="#leaf4"
						x="57.124" y="51.172" 
						transform="rotate(-118 57.554 51.702)" 	
						fill="rgb(212,34,150)" /><use xlink:href="#leaf3"
						x="57.124" y="51.172" 
						transform="rotate(-167 57.134 51.352)" 	
						fill="rgb(232,45,157)" /><use xlink:href="#leaf2"
						x="57.124" y="51.172" 
						transform="rotate(-125 57.124 51.172)" 	
						fill="rgb(232,35,151)" /><use xlink:href="#leaf2"
						x="57.124" y="51.172" 
						transform="rotate(119 58.044 51.852)" 	
						fill="rgb(204,48,151)" /><use xlink:href="#leaf4"
						x="57.124" y="51.172" 
						transform="rotate(56 57.124 51.172)" 	
						fill="rgb(217,67,164)" /><use xlink:href="#leaf2"
						x="57.124" y="51.172" 
						transform="rotate(-111 57.124 51.172)" 	
						fill="rgb(194,56,165)" /><use xlink:href="#leaf4"
						x="57.124" y="51.172" 
						transform="rotate(-69 57.124 51.172)" 	
						fill="rgb(226,33,132)" /><use xlink:href="#leaf2"
						x="57.124" y="51.172" 
						transform="rotate(-141 57.674 51.842)" 	
						fill="rgb(230,39,138)" /><use xlink:href="#leaf6"
						x="57.124" y="51.172" 
						transform="rotate(170 57.244 51.702)" 	
						fill="rgb(210,32,130)" /><use xlink:href="#flower6" id="fleur300"
							x="57.124" y="51.172" 
							transform="rotate(-128 57.928 51.868)" /></g>
				</svg>