<svg class="relie" xmlns="http://www.w3.org/2000/svg" viewBox="0 0 100 100" preserveAspectRatio="xMidYMid meet" x="0" y="0" overflow="visible" xmlns:xlink="http://www.w3.org/1999/xlink">

		<defs>  <g id="leaf1" transform="skewX(-1) skewY(-1)"><path d="M 0,0 
					q 0 0.1 0.125,0.89916666666667 q 0.025 0.1 0.125,1.6141666666667 q 0.0125 0.1125 -0.25,1 
					M 0,0 
					q -0 0.1 -0.125,0.89916666666667 q -0.025 0.1 -0.125,1.6141666666667 q -0.0125 0.1125 0.25,1 " 
					stroke-width ="0.2" /></g>  <g id="leaf2" transform="skewX(-20) skewY(-20)"><path d="M 0,0 
					q 0 0.2 0.25,1.7983333333333 q 0.05 0.2 0.25,3.2283333333333 q 0.025 0.225 -0.5,1.4733333333333 
					M 0,0 
					q -0 0.2 -0.25,1.7983333333333 q -0.05 0.2 -0.25,3.2283333333333 q -0.025 0.225 0.5,1.4733333333333 " 
					stroke-width ="0.2" /></g>  <g id="leaf3" transform="skewX(-16) skewY(-16)"><path d="M 0,0 
					q 0 0.3 0.375,2.6975 q 0.075 0.3 0.375,4.8425 q 0.0375 0.3375 -0.75,2.21 
					M 0,0 
					q -0 0.3 -0.375,2.6975 q -0.075 0.3 -0.375,4.8425 q -0.0375 0.3375 0.75,2.21 " 
					stroke-width ="0.2" /></g>  <g id="leaf4" transform="skewX(-14) skewY(-14)"><path d="M 0,0 
					q 0 0.4 0.5,3.5966666666667 q 0.1 0.4 0.5,6.4566666666667 q 0.05 0.45 -1,2.9466666666667 
					M 0,0 
					q -0 0.4 -0.5,3.5966666666667 q -0.1 0.4 -0.5,6.4566666666667 q -0.05 0.45 1,2.9466666666667 " 
					stroke-width ="0.2" /></g>  <g id="leaf5" transform="skewX(7) skewY(7)"><path d="M 0,0 
					q 0 0.5 0.625,4.4958333333333 q 0.125 0.5 0.625,8.0708333333333 q 0.0625 0.5625 -1.25,3.6833333333333 
					M 0,0 
					q -0 0.5 -0.625,4.4958333333333 q -0.125 0.5 -0.625,8.0708333333333 q -0.0625 0.5625 1.25,3.6833333333333 " 
					stroke-width ="0.2" /></g>  <g id="leaf6" transform="skewX(3) skewY(3)"><path d="M 0,0 
					q 0 0.6 0.75,5.395 q 0.15 0.6 0.75,9.685 q 0.075 0.675 -1.5,4.42 
					M 0,0 
					q -0 0.6 -0.75,5.395 q -0.15 0.6 -0.75,9.685 q -0.075 0.675 1.5,4.42 " 
					stroke-width ="0.2" /></g>  <g id="leaf7" transform="skewX(4) skewY(4)"><path d="M 0,0 
					q 0 0.7 0.875,6.2941666666667 q 0.175 0.7 0.875,11.299166666667 q 0.0875 0.7875 -1.75,5.1566666666667 
					M 0,0 
					q -0 0.7 -0.875,6.2941666666667 q -0.175 0.7 -0.875,11.299166666667 q -0.0875 0.7875 1.75,5.1566666666667 " 
					stroke-width ="0.2" /></g>  <g id="leaf8" transform="skewX(3) skewY(3)"><path d="M 0,0 
					q 0 0.8 1,7.1933333333333 q 0.2 0.8 1,12.913333333333 q 0.1 0.9 -2,5.8933333333333 
					M 0,0 
					q 0 0.8 -1,7.1933333333333 q -0.2 0.8 -1,12.913333333333 q -0.1 0.9 2,5.8933333333333 " 
					stroke-width ="0.2" /></g><g id="flower1"><path d="M 0,1.5 
						q 0.1 0.0125 0,1.5 
						M 0,1.5 
						q -0.1 0.0125 0,1.5 " 
						transform="rotate(0 0,1.5 )"
						stroke-width ="0.1"
						fill="rgb(42,14,9)"
						/><circle cx="0" cy="1.5" r="0.675" fill="rgb(24,180,227)"/><circle cx="-0.03" cy="1.4" r="0.45" fill="rgb(30.5,197.5,241.5)"/><path d="M 0,1.5 
						q 0.1 0.0125 0,1.5 
						M 0,1.5 
						q -0.1 0.0125 0,1.5 " 
						transform="rotate(51.428571428571 0,1.5 )"
						stroke-width ="0.1"
						fill="rgb(29.5,16.5,6.5)"
						/><circle cx="0" cy="1.5" r="0.675" fill="rgb(24,180,227)"/><circle cx="0.1" cy="1.49" r="0.45" fill="rgb(30.5,197.5,241.5)"/><path d="M 0,1.5 
						q 0.1 0.0125 0,1.5 
						M 0,1.5 
						q -0.1 0.0125 0,1.5 " 
						transform="rotate(102.85714285714 0,1.5 )"
						stroke-width ="0.1"
						fill="rgb(37,8,10)"
						/><circle cx="0" cy="1.5" r="0.675" fill="rgb(24,180,227)"/><circle cx="0.06" cy="1.56" r="0.45" fill="rgb(30.5,197.5,241.5)"/><path d="M 0,1.5 
						q 0.1 0.0125 0,1.5 
						M 0,1.5 
						q -0.1 0.0125 0,1.5 " 
						transform="rotate(154.28571428571 0,1.5 )"
						stroke-width ="0.1"
						fill="rgb(29.5,13.5,7.5)"
						/><circle cx="0" cy="1.5" r="0.675" fill="rgb(24,180,227)"/><circle cx="-0.09" cy="1.52" r="0.45" fill="rgb(30.5,197.5,241.5)"/><path d="M 0,1.5 
						q 0.1 0.0125 0,1.5 
						M 0,1.5 
						q -0.1 0.0125 0,1.5 " 
						transform="rotate(205.71428571429 0,1.5 )"
						stroke-width ="0.1"
						fill="rgb(27,6,0)"
						/><circle cx="0" cy="1.5" r="0.675" fill="rgb(24,180,227)"/><circle cx="-0.06" cy="1.45" r="0.45" fill="rgb(30.5,197.5,241.5)"/><path d="M 0,1.5 
						q 0.1 0.0125 0,1.5 
						M 0,1.5 
						q -0.1 0.0125 0,1.5 " 
						transform="rotate(257.14285714286 0,1.5 )"
						stroke-width ="0.1"
						fill="rgb(34.5,13.5,3.5)"
						/><circle cx="0" cy="1.5" r="0.675" fill="rgb(24,180,227)"/><circle cx="-0.03" cy="1.49" r="0.45" fill="rgb(30.5,197.5,241.5)"/><path d="M 0,1.5 
						q 0.1 0.0125 0,1.5 
						M 0,1.5 
						q -0.1 0.0125 0,1.5 " 
						transform="rotate(308.57142857143 0,1.5 )"
						stroke-width ="0.1"
						fill="rgb(25,4,4)"
						/><circle cx="0" cy="1.5" r="0.675" fill="rgb(24,180,227)"/><circle cx="-0.06" cy="1.55" r="0.45" fill="rgb(30.5,197.5,241.5)"/><path d="M 0,1.5 
						q 0.1 0.0125 0,1.5 
						M 0,1.5 
						q -0.1 0.0125 0,1.5 " 
						transform="rotate(360 0,1.5 )"
						stroke-width ="0.1"
						fill="rgb(30.5,4.5,0)"
						/><circle cx="0" cy="1.5" r="0.675" fill="rgb(24,180,227)"/><circle cx="0" cy="1.48" r="0.45" fill="rgb(30.5,197.5,241.5)"/><path d="M 0,1.5 
						q 0.1 0.0125 0,1.5 
						M 0,1.5 
						q -0.1 0.0125 0,1.5 " 
						transform="rotate(411.42857142857 0,1.5 )"
						stroke-width ="0.1"
						fill="rgb(13,0,1)"
						/><circle cx="0" cy="1.5" r="0.675" fill="rgb(24,180,227)"/><circle cx="0.06" cy="1.56" r="0.45" fill="rgb(30.5,197.5,241.5)"/><path d="M 0,1.5 
						q 0.1 0.0125 0,1.5 
						M 0,1.5 
						q -0.1 0.0125 0,1.5 " 
						transform="rotate(462.85714285714 0,1.5 )"
						stroke-width ="0.1"
						fill="rgb(20.5,0,0)"
						/><circle cx="0" cy="1.5" r="0.675" fill="rgb(24,180,227)"/><circle cx="-0.05" cy="1.41" r="0.45" fill="rgb(30.5,197.5,241.5)"/><path d="M 0,1.5 
						q 0.1 0.0125 0,1.5 
						M 0,1.5 
						q -0.1 0.0125 0,1.5 " 
						transform="rotate(514.28571428571 0,1.5 )"
						stroke-width ="0.1"
						fill="rgb(23,0,0)"
						/><circle cx="0" cy="1.5" r="0.675" fill="rgb(24,180,227)"/><circle cx="-0.03" cy="1.46" r="0.45" fill="rgb(30.5,197.5,241.5)"/><path d="M 0,1.5 
						q 0.1 0.0125 0,1.5 
						M 0,1.5 
						q -0.1 0.0125 0,1.5 " 
						transform="rotate(565.71428571429 0,1.5 )"
						stroke-width ="0.1"
						fill="rgb(22.5,0,0)"
						/><circle cx="0" cy="1.5" r="0.675" fill="rgb(24,180,227)"/><circle cx="0.04" cy="1.58" r="0.45" fill="rgb(30.5,197.5,241.5)"/><path d="M 0,1.5 
						q 0.1 0.0125 0,1.5 
						M 0,1.5 
						q -0.1 0.0125 0,1.5 " 
						transform="rotate(617.14285714286 0,1.5 )"
						stroke-width ="0.1"
						fill="rgb(15,0,0)"
						/><circle cx="0" cy="1.5" r="0.675" fill="rgb(24,180,227)"/><circle cx="-0.06" cy="1.49" r="0.45" fill="rgb(30.5,197.5,241.5)"/><path d="M 0,1.5 
						q 0.1 0.0125 0,1.5 
						M 0,1.5 
						q -0.1 0.0125 0,1.5 " 
						transform="rotate(668.57142857143 0,1.5 )"
						stroke-width ="0.1"
						fill="rgb(17.5,0,0)"
						/><circle cx="0" cy="1.5" r="0.675" fill="rgb(24,180,227)"/><circle cx="-0.05" cy="1.43" r="0.45" fill="rgb(30.5,197.5,241.5)"/><path d="M 0,1.5 
						q 0.1 0.0125 0,1.5 
						M 0,1.5 
						q -0.1 0.0125 0,1.5 " 
						transform="rotate(720 0,1.5 )"
						stroke-width ="0.1"
						fill="rgb(4,0,0)"
						/><circle cx="0" cy="1.5" r="0.675" fill="rgb(24,180,227)"/><circle cx="-0.09" cy="1.51" r="0.45" fill="rgb(30.5,197.5,241.5)"/></g><g id="flower2"><path d="M 0,3 
						q 0.2 0.025 0,3 
						M 0,3 
						q -0.2 0.025 0,3 " 
						transform="rotate(0 0,3 )"
						stroke-width ="0.1"
						fill="rgb(33,9,23)"
						/><path d="M 0,3 
						q 0.2 0.025 0,3 
						M 0,3 
						q -0.2 0.025 0,3 " 
						transform="rotate(25.714285714286 0,3 )"
						stroke-width ="0.1"
						fill="rgb(29.5,9.5,0.5)"
						/><path d="M 0,3 
						q 0.2 0.025 0,3 
						M 0,3 
						q -0.2 0.025 0,3 " 
						transform="rotate(51.428571428571 0,3 )"
						stroke-width ="0.1"
						fill="rgb(29,14,17)"
						/><path d="M 0,3 
						q 0.2 0.025 0,3 
						M 0,3 
						q -0.2 0.025 0,3 " 
						transform="rotate(77.142857142857 0,3 )"
						stroke-width ="0.1"
						fill="rgb(36.5,20.5,0.5)"
						/></g><g id="flower3"><path d="M 0,4.5 
						q 0.3 0.0375 0,4.5 
						M 0,4.5 
						q -0.3 0.0375 0,4.5 " 
						transform="rotate(0 0,4.5 )"
						stroke-width ="0.1"
						fill="rgb(49,22,23)"
						/><path d="M 0,4.5 
						q 0.3 0.0375 0,4.5 
						M 0,4.5 
						q -0.3 0.0375 0,4.5 " 
						transform="rotate(25.714285714286 0,4.5 )"
						stroke-width ="0.1"
						fill="rgb(42.5,21.5,7.5)"
						/><path d="M 0,4.5 
						q 0.3 0.0375 0,4.5 
						M 0,4.5 
						q -0.3 0.0375 0,4.5 " 
						transform="rotate(51.428571428571 0,4.5 )"
						stroke-width ="0.1"
						fill="rgb(30,8,12)"
						/><path d="M 0,4.5 
						q 0.3 0.0375 0,4.5 
						M 0,4.5 
						q -0.3 0.0375 0,4.5 " 
						transform="rotate(77.142857142857 0,4.5 )"
						stroke-width ="0.1"
						fill="rgb(39.5,21.5,0)"
						/></g><g id="flower4"><path d="M 0,6 
						q 0.4 0.05 0,6 
						M 0,6 
						q -0.4 0.05 0,6 " 
						transform="rotate(0 0,6 )"
						stroke-width ="0.1"
						fill="rgb(35,17,22)"
						/><circle cx="0" cy="6" r="2.7" fill="rgb(25,174,223)"/><circle cx="0.04" cy="6.09" r="1.8" fill="rgb(31.5,195.5,235.5)"/><path d="M 0,6 
						q 0.4 0.05 0,6 
						M 0,6 
						q -0.4 0.05 0,6 " 
						transform="rotate(51.428571428571 0,6 )"
						stroke-width ="0.1"
						fill="rgb(48.5,23.5,0.5)"
						/><circle cx="0" cy="6" r="2.7" fill="rgb(25,174,223)"/><circle cx="0" cy="5.97" r="1.8" fill="rgb(31.5,195.5,235.5)"/><path d="M 0,6 
						q 0.4 0.05 0,6 
						M 0,6 
						q -0.4 0.05 0,6 " 
						transform="rotate(102.85714285714 0,6 )"
						stroke-width ="0.1"
						fill="rgb(42,11,18)"
						/><circle cx="0" cy="6" r="2.7" fill="rgb(25,174,223)"/><circle cx="0.07" cy="5.91" r="1.8" fill="rgb(31.5,195.5,235.5)"/><path d="M 0,6 
						q 0.4 0.05 0,6 
						M 0,6 
						q -0.4 0.05 0,6 " 
						transform="rotate(154.28571428571 0,6 )"
						stroke-width ="0.1"
						fill="rgb(23.5,9.5,11.5)"
						/><circle cx="0" cy="6" r="2.7" fill="rgb(25,174,223)"/><circle cx="0.02" cy="6.08" r="1.8" fill="rgb(31.5,195.5,235.5)"/><path d="M 0,6 
						q 0.4 0.05 0,6 
						M 0,6 
						q -0.4 0.05 0,6 " 
						transform="rotate(205.71428571429 0,6 )"
						stroke-width ="0.1"
						fill="rgb(27,16,13)"
						/><circle cx="0" cy="6" r="2.7" fill="rgb(25,174,223)"/><circle cx="0" cy="5.91" r="1.8" fill="rgb(31.5,195.5,235.5)"/><path d="M 0,6 
						q 0.4 0.05 0,6 
						M 0,6 
						q -0.4 0.05 0,6 " 
						transform="rotate(257.14285714286 0,6 )"
						stroke-width ="0.1"
						fill="rgb(19.5,0,5.5)"
						/><circle cx="0" cy="6" r="2.7" fill="rgb(25,174,223)"/><circle cx="-0.03" cy="6.07" r="1.8" fill="rgb(31.5,195.5,235.5)"/><path d="M 0,6 
						q 0.4 0.05 0,6 
						M 0,6 
						q -0.4 0.05 0,6 " 
						transform="rotate(308.57142857143 0,6 )"
						stroke-width ="0.1"
						fill="rgb(21,11,0)"
						/><circle cx="0" cy="6" r="2.7" fill="rgb(25,174,223)"/><circle cx="0.06" cy="6.02" r="1.8" fill="rgb(31.5,195.5,235.5)"/><path d="M 0,6 
						q 0.4 0.05 0,6 
						M 0,6 
						q -0.4 0.05 0,6 " 
						transform="rotate(360 0,6 )"
						stroke-width ="0.1"
						fill="rgb(20.5,7.5,1.5)"
						/><circle cx="0" cy="6" r="2.7" fill="rgb(25,174,223)"/><circle cx="0.07" cy="6.06" r="1.8" fill="rgb(31.5,195.5,235.5)"/><path d="M 0,6 
						q 0.4 0.05 0,6 
						M 0,6 
						q -0.4 0.05 0,6 " 
						transform="rotate(411.42857142857 0,6 )"
						stroke-width ="0.1"
						fill="rgb(13,5,0)"
						/><circle cx="0" cy="6" r="2.7" fill="rgb(25,174,223)"/><circle cx="-0.06" cy="5.9" r="1.8" fill="rgb(31.5,195.5,235.5)"/><path d="M 0,6 
						q 0.4 0.05 0,6 
						M 0,6 
						q -0.4 0.05 0,6 " 
						transform="rotate(462.85714285714 0,6 )"
						stroke-width ="0.1"
						fill="rgb(24.5,6.5,0)"
						/><circle cx="0" cy="6" r="2.7" fill="rgb(25,174,223)"/><circle cx="0.07" cy="5.95" r="1.8" fill="rgb(31.5,195.5,235.5)"/><path d="M 0,6 
						q 0.4 0.05 0,6 
						M 0,6 
						q -0.4 0.05 0,6 " 
						transform="rotate(514.28571428571 0,6 )"
						stroke-width ="0.1"
						fill="rgb(20,3,0)"
						/><circle cx="0" cy="6" r="2.7" fill="rgb(25,174,223)"/><circle cx="-0.1" cy="5.91" r="1.8" fill="rgb(31.5,195.5,235.5)"/><path d="M 0,6 
						q 0.4 0.05 0,6 
						M 0,6 
						q -0.4 0.05 0,6 " 
						transform="rotate(565.71428571429 0,6 )"
						stroke-width ="0.1"
						fill="rgb(19.5,0,0)"
						/><circle cx="0" cy="6" r="2.7" fill="rgb(25,174,223)"/><circle cx="0.02" cy="6.02" r="1.8" fill="rgb(31.5,195.5,235.5)"/><path d="M 0,6 
						q 0.4 0.05 0,6 
						M 0,6 
						q -0.4 0.05 0,6 " 
						transform="rotate(617.14285714286 0,6 )"
						stroke-width ="0.1"
						fill="rgb(11,0,0)"
						/><circle cx="0" cy="6" r="2.7" fill="rgb(25,174,223)"/><circle cx="0.06" cy="6.07" r="1.8" fill="rgb(31.5,195.5,235.5)"/><path d="M 0,6 
						q 0.4 0.05 0,6 
						M 0,6 
						q -0.4 0.05 0,6 " 
						transform="rotate(668.57142857143 0,6 )"
						stroke-width ="0.1"
						fill="rgb(9.5,0,0)"
						/><circle cx="0" cy="6" r="2.7" fill="rgb(25,174,223)"/><circle cx="-0.07" cy="5.99" r="1.8" fill="rgb(31.5,195.5,235.5)"/><path d="M 0,6 
						q 0.4 0.05 0,6 
						M 0,6 
						q -0.4 0.05 0,6 " 
						transform="rotate(720 0,6 )"
						stroke-width ="0.1"
						fill="rgb(1,0,0)"
						/><circle cx="0" cy="6" r="2.7" fill="rgb(25,174,223)"/><circle cx="0.02" cy="6.06" r="1.8" fill="rgb(31.5,195.5,235.5)"/></g><g id="flower5"><path d="M 0,7.5 
						q 0.5 0.0625 0,7.5 
						M 0,7.5 
						q -0.5 0.0625 0,7.5 " 
						transform="rotate(0 0,7.5 )"
						stroke-width ="0.1"
						fill="rgb(38,27,10)"
						/><path d="M 0,7.5 
						q 0.5 0.0625 0,7.5 
						M 0,7.5 
						q -0.5 0.0625 0,7.5 " 
						transform="rotate(25.714285714286 0,7.5 )"
						stroke-width ="0.1"
						fill="rgb(38.5,22.5,6.5)"
						/><path d="M 0,7.5 
						q 0.5 0.0625 0,7.5 
						M 0,7.5 
						q -0.5 0.0625 0,7.5 " 
						transform="rotate(51.428571428571 0,7.5 )"
						stroke-width ="0.1"
						fill="rgb(29,7,7)"
						/><path d="M 0,7.5 
						q 0.5 0.0625 0,7.5 
						M 0,7.5 
						q -0.5 0.0625 0,7.5 " 
						transform="rotate(77.142857142857 0,7.5 )"
						stroke-width ="0.1"
						fill="rgb(25.5,1.5,0)"
						/></g><g id="flower6"><path d="M 0,9 
						q 0.6 0.075 0,9 
						M 0,9 
						q -0.6 0.075 0,9 " 
						transform="rotate(0 0,9 )"
						stroke-width ="0.1"
						fill="rgb(35,26,17)"
						/><path d="M 0,9 
						q 0.6 0.075 0,9 
						M 0,9 
						q -0.6 0.075 0,9 " 
						transform="rotate(25.714285714286 0,9 )"
						stroke-width ="0.1"
						fill="rgb(46.5,19.5,9.5)"
						/><path d="M 0,9 
						q 0.6 0.075 0,9 
						M 0,9 
						q -0.6 0.075 0,9 " 
						transform="rotate(51.428571428571 0,9 )"
						stroke-width ="0.1"
						fill="rgb(33,22,18)"
						/><path d="M 0,9 
						q 0.6 0.075 0,9 
						M 0,9 
						q -0.6 0.075 0,9 " 
						transform="rotate(77.142857142857 0,9 )"
						stroke-width ="0.1"
						fill="rgb(38.5,21.5,9.5)"
						/></g><g id="flower7"><path d="M 0,10.5 
						q 0.7 0.0875 0,10.5 
						M 0,10.5 
						q -0.7 0.0875 0,10.5 " 
						transform="rotate(0 0,10.5 )"
						stroke-width ="0.1"
						fill="rgb(34,29,6)"
						/><circle cx="0" cy="10.5" r="4.725" fill="rgb(21,176,228)"/><circle cx="0.02" cy="10.46" r="3.15" fill="rgb(31.5,179.5,243.5)"/><path d="M 0,10.5 
						q 0.7 0.0875 0,10.5 
						M 0,10.5 
						q -0.7 0.0875 0,10.5 " 
						transform="rotate(51.428571428571 0,10.5 )"
						stroke-width ="0.1"
						fill="rgb(48.5,15.5,3.5)"
						/><circle cx="0" cy="10.5" r="4.725" fill="rgb(21,176,228)"/><circle cx="-0.05" cy="10.43" r="3.15" fill="rgb(31.5,179.5,243.5)"/><path d="M 0,10.5 
						q 0.7 0.0875 0,10.5 
						M 0,10.5 
						q -0.7 0.0875 0,10.5 " 
						transform="rotate(102.85714285714 0,10.5 )"
						stroke-width ="0.1"
						fill="rgb(44,4,3)"
						/><circle cx="0" cy="10.5" r="4.725" fill="rgb(21,176,228)"/><circle cx="-0.06" cy="10.54" r="3.15" fill="rgb(31.5,179.5,243.5)"/><path d="M 0,10.5 
						q 0.7 0.0875 0,10.5 
						M 0,10.5 
						q -0.7 0.0875 0,10.5 " 
						transform="rotate(154.28571428571 0,10.5 )"
						stroke-width ="0.1"
						fill="rgb(25.5,9.5,8.5)"
						/><circle cx="0" cy="10.5" r="4.725" fill="rgb(21,176,228)"/><circle cx="-0.1" cy="10.45" r="3.15" fill="rgb(31.5,179.5,243.5)"/><path d="M 0,10.5 
						q 0.7 0.0875 0,10.5 
						M 0,10.5 
						q -0.7 0.0875 0,10.5 " 
						transform="rotate(205.71428571429 0,10.5 )"
						stroke-width ="0.1"
						fill="rgb(24,2,13)"
						/><circle cx="0" cy="10.5" r="4.725" fill="rgb(21,176,228)"/><circle cx="0.09" cy="10.56" r="3.15" fill="rgb(31.5,179.5,243.5)"/><path d="M 0,10.5 
						q 0.7 0.0875 0,10.5 
						M 0,10.5 
						q -0.7 0.0875 0,10.5 " 
						transform="rotate(257.14285714286 0,10.5 )"
						stroke-width ="0.1"
						fill="rgb(19.5,5.5,0)"
						/><circle cx="0" cy="10.5" r="4.725" fill="rgb(21,176,228)"/><circle cx="-0.04" cy="10.42" r="3.15" fill="rgb(31.5,179.5,243.5)"/><path d="M 0,10.5 
						q 0.7 0.0875 0,10.5 
						M 0,10.5 
						q -0.7 0.0875 0,10.5 " 
						transform="rotate(308.57142857143 0,10.5 )"
						stroke-width ="0.1"
						fill="rgb(36,9,5)"
						/><circle cx="0" cy="10.5" r="4.725" fill="rgb(21,176,228)"/><circle cx="0.03" cy="10.47" r="3.15" fill="rgb(31.5,179.5,243.5)"/><path d="M 0,10.5 
						q 0.7 0.0875 0,10.5 
						M 0,10.5 
						q -0.7 0.0875 0,10.5 " 
						transform="rotate(360 0,10.5 )"
						stroke-width ="0.1"
						fill="rgb(32.5,5.5,0.5)"
						/><circle cx="0" cy="10.5" r="4.725" fill="rgb(21,176,228)"/><circle cx="0.08" cy="10.43" r="3.15" fill="rgb(31.5,179.5,243.5)"/><path d="M 0,10.5 
						q 0.7 0.0875 0,10.5 
						M 0,10.5 
						q -0.7 0.0875 0,10.5 " 
						transform="rotate(411.42857142857 0,10.5 )"
						stroke-width ="0.1"
						fill="rgb(27,9,0)"
						/><circle cx="0" cy="10.5" r="4.725" fill="rgb(21,176,228)"/><circle cx="0.05" cy="10.55" r="3.15" fill="rgb(31.5,179.5,243.5)"/><path d="M 0,10.5 
						q 0.7 0.0875 0,10.5 
						M 0,10.5 
						q -0.7 0.0875 0,10.5 " 
						transform="rotate(462.85714285714 0,10.5 )"
						stroke-width ="0.1"
						fill="rgb(16.5,0,0)"
						/><circle cx="0" cy="10.5" r="4.725" fill="rgb(21,176,228)"/><circle cx="-0.05" cy="10.59" r="3.15" fill="rgb(31.5,179.5,243.5)"/><path d="M 0,10.5 
						q 0.7 0.0875 0,10.5 
						M 0,10.5 
						q -0.7 0.0875 0,10.5 " 
						transform="rotate(514.28571428571 0,10.5 )"
						stroke-width ="0.1"
						fill="rgb(8,0,0)"
						/><circle cx="0" cy="10.5" r="4.725" fill="rgb(21,176,228)"/><circle cx="-0.05" cy="10.57" r="3.15" fill="rgb(31.5,179.5,243.5)"/><path d="M 0,10.5 
						q 0.7 0.0875 0,10.5 
						M 0,10.5 
						q -0.7 0.0875 0,10.5 " 
						transform="rotate(565.71428571429 0,10.5 )"
						stroke-width ="0.1"
						fill="rgb(11.5,0,0)"
						/><circle cx="0" cy="10.5" r="4.725" fill="rgb(21,176,228)"/><circle cx="0.09" cy="10.43" r="3.15" fill="rgb(31.5,179.5,243.5)"/><path d="M 0,10.5 
						q 0.7 0.0875 0,10.5 
						M 0,10.5 
						q -0.7 0.0875 0,10.5 " 
						transform="rotate(617.14285714286 0,10.5 )"
						stroke-width ="0.1"
						fill="rgb(7,0,0)"
						/><circle cx="0" cy="10.5" r="4.725" fill="rgb(21,176,228)"/><circle cx="0.01" cy="10.52" r="3.15" fill="rgb(31.5,179.5,243.5)"/><path d="M 0,10.5 
						q 0.7 0.0875 0,10.5 
						M 0,10.5 
						q -0.7 0.0875 0,10.5 " 
						transform="rotate(668.57142857143 0,10.5 )"
						stroke-width ="0.1"
						fill="rgb(9.5,0,0)"
						/><circle cx="0" cy="10.5" r="4.725" fill="rgb(21,176,228)"/><circle cx="0.02" cy="10.57" r="3.15" fill="rgb(31.5,179.5,243.5)"/><path d="M 0,10.5 
						q 0.7 0.0875 0,10.5 
						M 0,10.5 
						q -0.7 0.0875 0,10.5 " 
						transform="rotate(720 0,10.5 )"
						stroke-width ="0.1"
						fill="rgb(14,0,0)"
						/><circle cx="0" cy="10.5" r="4.725" fill="rgb(21,176,228)"/><circle cx="0.07" cy="10.4" r="3.15" fill="rgb(31.5,179.5,243.5)"/></g><g id="flower8"><path d="M 0,12 
						q 0.8 0.1 0,12 
						M 0,12 
						q -0.8 0.1 0,12 " 
						transform="rotate(0 0,12 )"
						stroke-width ="0.1"
						fill="rgb(37,9,23)"
						/><path d="M 0,12 
						q 0.8 0.1 0,12 
						M 0,12 
						q -0.8 0.1 0,12 " 
						transform="rotate(25.714285714286 0,12 )"
						stroke-width ="0.1"
						fill="rgb(45.5,6.5,18.5)"
						/><path d="M 0,12 
						q 0.8 0.1 0,12 
						M 0,12 
						q -0.8 0.1 0,12 " 
						transform="rotate(51.428571428571 0,12 )"
						stroke-width ="0.1"
						fill="rgb(32,12,7)"
						/><path d="M 0,12 
						q 0.8 0.1 0,12 
						M 0,12 
						q -0.8 0.1 0,12 " 
						transform="rotate(77.142857142857 0,12 )"
						stroke-width ="0.1"
						fill="rgb(26.5,20.5,0.5)"
						/></g></defs>
				<g class="fullPlant">
					<g>
					<path d ="M 47,91 
					q -10.75 -26.72 -1.5,-27.144" fill ="none" stroke ="rgb(116.5,171.5,69.5)" stroke-width ="1.458"/></g><circle cx="45.5" cy="63.856" r="0.729" fill="rgb(116.5,171.5,69.5)"/><use xlink:href="#leaf3"
						x="47" y="91" 
						transform="rotate(217 47 91)" 	
						fill="rgb(37,220,47)" /><use xlink:href="#leaf7"
						x="47" y="91" 
						transform="rotate(213 47.95 91.34)" 	
						fill="rgb(68,240,33)" /><use xlink:href="#flower7" id="fleur00"
						x="45.5" y="51.856" transform="rotate(96 45.5 63.856)" />
					<g>
					<path d ="M 59,91 
					q 10.75 -21.17 -2.76,-47.724" fill ="none" stroke ="rgb(119,170,69)" stroke-width ="1.458"/></g><circle cx="56.24" cy="43.276" r="0.729" fill="rgb(119,170,69)"/><use xlink:href="#leaf6"
						x="59" y="91" 
						transform="rotate(138 59 91)" 	
						fill="rgb(53,226,28)" /><use xlink:href="#leaf6"
						x="59" y="91" 
						transform="rotate(207 59.35 91.22)" 	
						fill="rgb(42,205,63)" /><use xlink:href="#flower6" id="fleur10"
						x="56.24" y="31.276" transform="rotate(99 56.24 43.276)" /></g>
				</svg>