<svg class="relie" xmlns="http://www.w3.org/2000/svg" viewBox="0 0 100 100" preserveAspectRatio="xMidYMid meet" x="0" y="0" overflow="visible" xmlns:xlink="http://www.w3.org/1999/xlink">

		<defs>  <g id="leaf1" transform="skewX(1) skewY(1)"><path d="M 0,0 
					q 0.025 0.0875 0.125,0.875 q 0.1125 0.0125 -0.125,1 
					M 0,0 
					q -0.025 0.0875 -0.125,0.875 q -0.1125 0.0125 0.125,1 " 
					stroke-width ="0.2" /></g>  <g id="leaf2" transform="skewX(-20) skewY(-20)"><path d="M 0,0 
					q 0.05 0.175 0.25,1.75 q 0.225 0.025 -0.25,1.75 
					M 0,0 
					q -0.05 0.175 -0.25,1.75 q -0.225 0.025 0.25,1.75 " 
					stroke-width ="0.2" /></g>  <g id="leaf3" transform="skewX(3) skewY(3)"><path d="M 0,0 
					q 0.075 0.2625 0.375,2.625 q 0.3375 0.0375 -0.375,2.625 
					M 0,0 
					q -0.075 0.2625 -0.375,2.625 q -0.3375 0.0375 0.375,2.625 " 
					stroke-width ="0.2" /></g>  <g id="leaf4" transform="skewX(-19) skewY(-19)"><path d="M 0,0 
					q 0.1 0.35 0.5,3.5 q 0.45 0.05 -0.5,3.5 
					M 0,0 
					q -0.1 0.35 -0.5,3.5 q -0.45 0.05 0.5,3.5 " 
					stroke-width ="0.2" /></g>  <g id="leaf5" transform="skewX(0) skewY(0)"><path d="M 0,0 
					q 0.125 0.4375 0.625,4.375 q 0.5625 0.0625 -0.625,4.375 
					M 0,0 
					q -0.125 0.4375 -0.625,4.375 q -0.5625 0.0625 0.625,4.375 " 
					stroke-width ="0.2" /></g>  <g id="leaf6" transform="skewX(12) skewY(12)"><path d="M 0,0 
					q 0.15 0.525 0.75,5.25 q 0.675 0.075 -0.75,5.25 
					M 0,0 
					q -0.15 0.525 -0.75,5.25 q -0.675 0.075 0.75,5.25 " 
					stroke-width ="0.2" /></g>  <g id="leaf7" transform="skewX(-8) skewY(-8)"><path d="M 0,0 
					q 0.175 0.6125 0.875,6.125 q 0.7875 0.0875 -0.875,6.125 
					M 0,0 
					q -0.175 0.6125 -0.875,6.125 q -0.7875 0.0875 0.875,6.125 " 
					stroke-width ="0.2" /></g>  <g id="leaf8" transform="skewX(12) skewY(12)"><path d="M 0,0 
					q 0.2 0.7 1,7 q 0.9 0.1 -1,7 
					M 0,0 
					q -0.2 0.7 -1,7 q -0.9 0.1 1,7 " 
					stroke-width ="0.2" /></g><g id="flower1" transform="skewX(9) skewY(9)">
						<path d="M 0,0
						Q 1.06,0.4375 0,1.6625"
						stroke="rgb(59,107,146)" 
						fill="transparent"
						stroke-width ="0.3" /><path d="M 0,1.6625 
						q 0.34625 -0.1725 0.37125,0.4375 q -0.25125 -0.1725 -0.37125,1 
						M 0,1.6625 
						q -0.34625 -0.1725 -0.37125,0.4375 q 0.25125 -0.1725 0.37125,1 " 
						transform="rotate(0 0,1.6625 )"
						stroke-width ="0.1"
						fill="rgb(82,213,30)"
						/><circle cx="0" cy="1.6625" r="0.21875" fill="rgb(185,182,14)"/><circle cx="0.07" cy="1.6925" r="0.14583333333333" fill="rgb(189.5,196.5,21.5)"/><path d="M 0,1.6625 
						q 0.34625 -0.1725 0.37125,0.4375 q -0.25125 -0.1725 -0.37125,1 
						M 0,1.6625 
						q -0.34625 -0.1725 -0.37125,0.4375 q 0.25125 -0.1725 0.37125,1 " 
						transform="rotate(90 0,1.6625 )"
						stroke-width ="0.1"
						fill="rgb(68.5,226.5,17.5)"
						/><circle cx="0" cy="1.6625" r="0.21875" fill="rgb(185,182,14)"/><circle cx="-0.05" cy="1.6025" r="0.14583333333333" fill="rgb(189.5,196.5,21.5)"/><path d="M 0,1.6625 
						q 0.34625 -0.1725 0.37125,0.4375 q -0.25125 -0.1725 -0.37125,1 
						M 0,1.6625 
						q -0.34625 -0.1725 -0.37125,0.4375 q 0.25125 -0.1725 0.37125,1 " 
						transform="rotate(180 0,1.6625 )"
						stroke-width ="0.1"
						fill="rgb(71,218,20)"
						/><circle cx="0" cy="1.6625" r="0.21875" fill="rgb(185,182,14)"/><circle cx="0.07" cy="1.6325" r="0.14583333333333" fill="rgb(189.5,196.5,21.5)"/><path d="M 0,1.6625 
						q 0.34625 -0.1725 0.37125,0.4375 q -0.25125 -0.1725 -0.37125,1 
						M 0,1.6625 
						q -0.34625 -0.1725 -0.37125,0.4375 q 0.25125 -0.1725 0.37125,1 " 
						transform="rotate(270 0,1.6625 )"
						stroke-width ="0.1"
						fill="rgb(67.5,214.5,6.5)"
						/><circle cx="0" cy="1.6625" r="0.21875" fill="rgb(185,182,14)"/><circle cx="0.09" cy="1.7225" r="0.14583333333333" fill="rgb(189.5,196.5,21.5)"/><path d="M 0,1.6625 
						q 0.34625 -0.1725 0.37125,0.4375 q -0.25125 -0.1725 -0.37125,1 
						M 0,1.6625 
						q -0.34625 -0.1725 -0.37125,0.4375 q 0.25125 -0.1725 0.37125,1 " 
						transform="rotate(360 0,1.6625 )"
						stroke-width ="0.1"
						fill="rgb(75,202,3)"
						/><circle cx="0" cy="1.6625" r="0.21875" fill="rgb(185,182,14)"/><circle cx="-0.04" cy="1.7225" r="0.14583333333333" fill="rgb(189.5,196.5,21.5)"/><path d="M 0,1.6625 
						q 0.34625 -0.1725 0.37125,0.4375 q -0.25125 -0.1725 -0.37125,1 
						M 0,1.6625 
						q -0.34625 -0.1725 -0.37125,0.4375 q 0.25125 -0.1725 0.37125,1 " 
						transform="rotate(450 0,1.6625 )"
						stroke-width ="0.1"
						fill="rgb(76.5,207.5,0.5)"
						/><circle cx="0" cy="1.6625" r="0.21875" fill="rgb(185,182,14)"/><circle cx="0.01" cy="1.7125" r="0.14583333333333" fill="rgb(189.5,196.5,21.5)"/><path d="M 0,1.6625 
						q 0.34625 -0.1725 0.37125,0.4375 q -0.25125 -0.1725 -0.37125,1 
						M 0,1.6625 
						q -0.34625 -0.1725 -0.37125,0.4375 q 0.25125 -0.1725 0.37125,1 " 
						transform="rotate(540 0,1.6625 )"
						stroke-width ="0.1"
						fill="rgb(66,205,3)"
						/><circle cx="0" cy="1.6625" r="0.21875" fill="rgb(185,182,14)"/><circle cx="-0.08" cy="1.6925" r="0.14583333333333" fill="rgb(189.5,196.5,21.5)"/><path d="M 0,1.6625 
						q 0.34625 -0.1725 0.37125,0.4375 q -0.25125 -0.1725 -0.37125,1 
						M 0,1.6625 
						q -0.34625 -0.1725 -0.37125,0.4375 q 0.25125 -0.1725 0.37125,1 " 
						transform="rotate(630 0,1.6625 )"
						stroke-width ="0.1"
						fill="rgb(60.5,209.5,6.5)"
						/><circle cx="0" cy="1.6625" r="0.21875" fill="rgb(185,182,14)"/><circle cx="-0.03" cy="1.6725" r="0.14583333333333" fill="rgb(189.5,196.5,21.5)"/><path d="M 0,1.6625 
						q 0.34625 -0.1725 0.37125,0.4375 q -0.25125 -0.1725 -0.37125,1 
						M 0,1.6625 
						q -0.34625 -0.1725 -0.37125,0.4375 q 0.25125 -0.1725 0.37125,1 " 
						transform="rotate(720 0,1.6625 )"
						stroke-width ="0.1"
						fill="rgb(65,210,1)"
						/><circle cx="0" cy="1.6625" r="0.21875" fill="rgb(185,182,14)"/><circle cx="0.1" cy="1.6025" r="0.14583333333333" fill="rgb(189.5,196.5,21.5)"/><path d="M 0,1.6625 
						q 0.34625 -0.1725 0.37125,0.4375 q -0.25125 -0.1725 -0.37125,1 
						M 0,1.6625 
						q -0.34625 -0.1725 -0.37125,0.4375 q 0.25125 -0.1725 0.37125,1 " 
						transform="rotate(810 0,1.6625 )"
						stroke-width ="0.1"
						fill="rgb(55.5,190.5,0)"
						/><circle cx="0" cy="1.6625" r="0.21875" fill="rgb(185,182,14)"/><circle cx="-0.04" cy="1.7425" r="0.14583333333333" fill="rgb(189.5,196.5,21.5)"/><path d="M 0,1.6625 
						q 0.34625 -0.1725 0.37125,0.4375 q -0.25125 -0.1725 -0.37125,1 
						M 0,1.6625 
						q -0.34625 -0.1725 -0.37125,0.4375 q 0.25125 -0.1725 0.37125,1 " 
						transform="rotate(900 0,1.6625 )"
						stroke-width ="0.1"
						fill="rgb(56,198,0)"
						/><circle cx="0" cy="1.6625" r="0.21875" fill="rgb(185,182,14)"/><circle cx="-0.01" cy="1.6125" r="0.14583333333333" fill="rgb(189.5,196.5,21.5)"/><path d="M 0,1.6625 
						q 0.34625 -0.1725 0.37125,0.4375 q -0.25125 -0.1725 -0.37125,1 
						M 0,1.6625 
						q -0.34625 -0.1725 -0.37125,0.4375 q 0.25125 -0.1725 0.37125,1 " 
						transform="rotate(990 0,1.6625 )"
						stroke-width ="0.1"
						fill="rgb(61.5,191.5,0)"
						/><circle cx="0" cy="1.6625" r="0.21875" fill="rgb(185,182,14)"/><circle cx="-0.02" cy="1.5825" r="0.14583333333333" fill="rgb(189.5,196.5,21.5)"/><path d="M 0,1.6625 
						q 0.34625 -0.1725 0.37125,0.4375 q -0.25125 -0.1725 -0.37125,1 
						M 0,1.6625 
						q -0.34625 -0.1725 -0.37125,0.4375 q 0.25125 -0.1725 0.37125,1 " 
						transform="rotate(1080 0,1.6625 )"
						stroke-width ="0.1"
						fill="rgb(45,182,0)"
						/><circle cx="0" cy="1.6625" r="0.21875" fill="rgb(185,182,14)"/><circle cx="-0.04" cy="1.5725" r="0.14583333333333" fill="rgb(189.5,196.5,21.5)"/></g><g id="flower2" transform="skewX(-1) skewY(-1)">
						<path d="M 0,0
						Q -0.55,0.875 0,3.325"
						stroke="rgb(59,107,146)" 
						fill="transparent"
						stroke-width ="0.3" /><path d="M 0,3.325 
						q 0.6925 -0.345 0.7425,0.875 q -0.5025 -0.345 -0.7425,1 
						M 0,3.325 
						q -0.6925 -0.345 -0.7425,0.875 q 0.5025 -0.345 0.7425,1 " 
						transform="rotate(0 0,3.325 )"
						stroke-width ="0.1"
						fill="rgb(80,225,22)"
						/><path d="M 0,3.325 
						q 0.6925 -0.345 0.7425,0.875 q -0.5025 -0.345 -0.7425,1 
						M 0,3.325 
						q -0.6925 -0.345 -0.7425,0.875 q 0.5025 -0.345 0.7425,1 " 
						transform="rotate(27 0,3.325 )"
						stroke-width ="0.1"
						fill="rgb(81.5,208.5,20.5)"
						/><path d="M 0,3.325 
						q 0.6925 -0.345 0.7425,0.875 q -0.5025 -0.345 -0.7425,1 
						M 0,3.325 
						q -0.6925 -0.345 -0.7425,0.875 q 0.5025 -0.345 0.7425,1 " 
						transform="rotate(54 0,3.325 )"
						stroke-width ="0.1"
						fill="rgb(69,214,7)"
						/><path d="M 0,3.325 
						q 0.6925 -0.345 0.7425,0.875 q -0.5025 -0.345 -0.7425,1 
						M 0,3.325 
						q -0.6925 -0.345 -0.7425,0.875 q 0.5025 -0.345 0.7425,1 " 
						transform="rotate(81 0,3.325 )"
						stroke-width ="0.1"
						fill="rgb(68.5,218.5,11.5)"
						/></g><g id="flower3" transform="skewX(7) skewY(7)">
						<path d="M 0,0
						Q -0.58,1.3125 0,4.9875"
						stroke="rgb(59,107,146)" 
						fill="transparent"
						stroke-width ="0.3" /><path d="M 0,4.9875 
						q 1.03875 -0.5175 1.11375,1.3125 q -0.75375 -0.5175 -1.11375,1.3125 
						M 0,4.9875 
						q -1.03875 -0.5175 -1.11375,1.3125 q 0.75375 -0.5175 1.11375,1.3125 " 
						transform="rotate(0 0,4.9875 )"
						stroke-width ="0.1"
						fill="rgb(73,212,23)"
						/><circle cx="0" cy="4.9875" r="0.65625" fill="rgb(187,180,17)"/><circle cx="0" cy="5.0675" r="0.4375" fill="rgb(200.5,179.5,33.5)"/><path d="M 0,4.9875 
						q 1.03875 -0.5175 1.11375,1.3125 q -0.75375 -0.5175 -1.11375,1.3125 
						M 0,4.9875 
						q -1.03875 -0.5175 -1.11375,1.3125 q 0.75375 -0.5175 1.11375,1.3125 " 
						transform="rotate(90 0,4.9875 )"
						stroke-width ="0.1"
						fill="rgb(68.5,215.5,27.5)"
						/><circle cx="0" cy="4.9875" r="0.65625" fill="rgb(187,180,17)"/><circle cx="0.07" cy="4.9975" r="0.4375" fill="rgb(200.5,179.5,33.5)"/><path d="M 0,4.9875 
						q 1.03875 -0.5175 1.11375,1.3125 q -0.75375 -0.5175 -1.11375,1.3125 
						M 0,4.9875 
						q -1.03875 -0.5175 -1.11375,1.3125 q 0.75375 -0.5175 1.11375,1.3125 " 
						transform="rotate(180 0,4.9875 )"
						stroke-width ="0.1"
						fill="rgb(82,205,13)"
						/><circle cx="0" cy="4.9875" r="0.65625" fill="rgb(187,180,17)"/><circle cx="-0.1" cy="4.9575" r="0.4375" fill="rgb(200.5,179.5,33.5)"/><path d="M 0,4.9875 
						q 1.03875 -0.5175 1.11375,1.3125 q -0.75375 -0.5175 -1.11375,1.3125 
						M 0,4.9875 
						q -1.03875 -0.5175 -1.11375,1.3125 q 0.75375 -0.5175 1.11375,1.3125 " 
						transform="rotate(270 0,4.9875 )"
						stroke-width ="0.1"
						fill="rgb(80.5,210.5,14.5)"
						/><circle cx="0" cy="4.9875" r="0.65625" fill="rgb(187,180,17)"/><circle cx="0.03" cy="5.0875" r="0.4375" fill="rgb(200.5,179.5,33.5)"/><path d="M 0,4.9875 
						q 1.03875 -0.5175 1.11375,1.3125 q -0.75375 -0.5175 -1.11375,1.3125 
						M 0,4.9875 
						q -1.03875 -0.5175 -1.11375,1.3125 q 0.75375 -0.5175 1.11375,1.3125 " 
						transform="rotate(360 0,4.9875 )"
						stroke-width ="0.1"
						fill="rgb(70,215,7)"
						/><circle cx="0" cy="4.9875" r="0.65625" fill="rgb(187,180,17)"/><circle cx="0.02" cy="5.0875" r="0.4375" fill="rgb(200.5,179.5,33.5)"/><path d="M 0,4.9875 
						q 1.03875 -0.5175 1.11375,1.3125 q -0.75375 -0.5175 -1.11375,1.3125 
						M 0,4.9875 
						q -1.03875 -0.5175 -1.11375,1.3125 q 0.75375 -0.5175 1.11375,1.3125 " 
						transform="rotate(450 0,4.9875 )"
						stroke-width ="0.1"
						fill="rgb(69.5,212.5,7.5)"
						/><circle cx="0" cy="4.9875" r="0.65625" fill="rgb(187,180,17)"/><circle cx="-0.06" cy="5.0875" r="0.4375" fill="rgb(200.5,179.5,33.5)"/><path d="M 0,4.9875 
						q 1.03875 -0.5175 1.11375,1.3125 q -0.75375 -0.5175 -1.11375,1.3125 
						M 0,4.9875 
						q -1.03875 -0.5175 -1.11375,1.3125 q 0.75375 -0.5175 1.11375,1.3125 " 
						transform="rotate(540 0,4.9875 )"
						stroke-width ="0.1"
						fill="rgb(64,215,4)"
						/><circle cx="0" cy="4.9875" r="0.65625" fill="rgb(187,180,17)"/><circle cx="-0.04" cy="5.0875" r="0.4375" fill="rgb(200.5,179.5,33.5)"/><path d="M 0,4.9875 
						q 1.03875 -0.5175 1.11375,1.3125 q -0.75375 -0.5175 -1.11375,1.3125 
						M 0,4.9875 
						q -1.03875 -0.5175 -1.11375,1.3125 q 0.75375 -0.5175 1.11375,1.3125 " 
						transform="rotate(630 0,4.9875 )"
						stroke-width ="0.1"
						fill="rgb(66.5,193.5,1.5)"
						/><circle cx="0" cy="4.9875" r="0.65625" fill="rgb(187,180,17)"/><circle cx="-0.04" cy="4.9975" r="0.4375" fill="rgb(200.5,179.5,33.5)"/><path d="M 0,4.9875 
						q 1.03875 -0.5175 1.11375,1.3125 q -0.75375 -0.5175 -1.11375,1.3125 
						M 0,4.9875 
						q -1.03875 -0.5175 -1.11375,1.3125 q 0.75375 -0.5175 1.11375,1.3125 " 
						transform="rotate(720 0,4.9875 )"
						stroke-width ="0.1"
						fill="rgb(70,194,0)"
						/><circle cx="0" cy="4.9875" r="0.65625" fill="rgb(187,180,17)"/><circle cx="0.08" cy="4.9875" r="0.4375" fill="rgb(200.5,179.5,33.5)"/><path d="M 0,4.9875 
						q 1.03875 -0.5175 1.11375,1.3125 q -0.75375 -0.5175 -1.11375,1.3125 
						M 0,4.9875 
						q -1.03875 -0.5175 -1.11375,1.3125 q 0.75375 -0.5175 1.11375,1.3125 " 
						transform="rotate(810 0,4.9875 )"
						stroke-width ="0.1"
						fill="rgb(58.5,201.5,0)"
						/><circle cx="0" cy="4.9875" r="0.65625" fill="rgb(187,180,17)"/><circle cx="0.03" cy="5.0775" r="0.4375" fill="rgb(200.5,179.5,33.5)"/><path d="M 0,4.9875 
						q 1.03875 -0.5175 1.11375,1.3125 q -0.75375 -0.5175 -1.11375,1.3125 
						M 0,4.9875 
						q -1.03875 -0.5175 -1.11375,1.3125 q 0.75375 -0.5175 1.11375,1.3125 " 
						transform="rotate(900 0,4.9875 )"
						stroke-width ="0.1"
						fill="rgb(63,200,0)"
						/><circle cx="0" cy="4.9875" r="0.65625" fill="rgb(187,180,17)"/><circle cx="-0.09" cy="4.9875" r="0.4375" fill="rgb(200.5,179.5,33.5)"/><path d="M 0,4.9875 
						q 1.03875 -0.5175 1.11375,1.3125 q -0.75375 -0.5175 -1.11375,1.3125 
						M 0,4.9875 
						q -1.03875 -0.5175 -1.11375,1.3125 q 0.75375 -0.5175 1.11375,1.3125 " 
						transform="rotate(990 0,4.9875 )"
						stroke-width ="0.1"
						fill="rgb(55.5,191.5,0)"
						/><circle cx="0" cy="4.9875" r="0.65625" fill="rgb(187,180,17)"/><circle cx="-0.04" cy="4.9475" r="0.4375" fill="rgb(200.5,179.5,33.5)"/><path d="M 0,4.9875 
						q 1.03875 -0.5175 1.11375,1.3125 q -0.75375 -0.5175 -1.11375,1.3125 
						M 0,4.9875 
						q -1.03875 -0.5175 -1.11375,1.3125 q 0.75375 -0.5175 1.11375,1.3125 " 
						transform="rotate(1080 0,4.9875 )"
						stroke-width ="0.1"
						fill="rgb(56,196,0)"
						/><circle cx="0" cy="4.9875" r="0.65625" fill="rgb(187,180,17)"/><circle cx="0.06" cy="4.9475" r="0.4375" fill="rgb(200.5,179.5,33.5)"/></g><g id="flower4" transform="skewX(3) skewY(3)">
						<path d="M 0,0
						Q 1.22,1.75 0,6.65"
						stroke="rgb(59,107,146)" 
						fill="transparent"
						stroke-width ="0.3" /><path d="M 0,6.65 
						q 1.385 -0.69 1.485,1.75 q -1.005 -0.69 -1.485,1.75 
						M 0,6.65 
						q -1.385 -0.69 -1.485,1.75 q 1.005 -0.69 1.485,1.75 " 
						transform="rotate(0 0,6.65 )"
						stroke-width ="0.1"
						fill="rgb(71,218,17)"
						/><circle cx="0" cy="6.65" r="0.875" fill="rgb(188,182,18)"/><circle cx="-0.06" cy="6.58" r="0.58333333333333" fill="rgb(197.5,195.5,29.5)"/><path d="M 0,6.65 
						q 1.385 -0.69 1.485,1.75 q -1.005 -0.69 -1.485,1.75 
						M 0,6.65 
						q -1.385 -0.69 -1.485,1.75 q 1.005 -0.69 1.485,1.75 " 
						transform="rotate(90 0,6.65 )"
						stroke-width ="0.1"
						fill="rgb(86.5,222.5,19.5)"
						/><circle cx="0" cy="6.65" r="0.875" fill="rgb(188,182,18)"/><circle cx="-0.03" cy="6.61" r="0.58333333333333" fill="rgb(197.5,195.5,29.5)"/><path d="M 0,6.65 
						q 1.385 -0.69 1.485,1.75 q -1.005 -0.69 -1.485,1.75 
						M 0,6.65 
						q -1.385 -0.69 -1.485,1.75 q 1.005 -0.69 1.485,1.75 " 
						transform="rotate(180 0,6.65 )"
						stroke-width ="0.1"
						fill="rgb(77,206,21)"
						/><circle cx="0" cy="6.65" r="0.875" fill="rgb(188,182,18)"/><circle cx="-0.06" cy="6.74" r="0.58333333333333" fill="rgb(197.5,195.5,29.5)"/><path d="M 0,6.65 
						q 1.385 -0.69 1.485,1.75 q -1.005 -0.69 -1.485,1.75 
						M 0,6.65 
						q -1.385 -0.69 -1.485,1.75 q 1.005 -0.69 1.485,1.75 " 
						transform="rotate(270 0,6.65 )"
						stroke-width ="0.1"
						fill="rgb(78.5,211.5,11.5)"
						/><circle cx="0" cy="6.65" r="0.875" fill="rgb(188,182,18)"/><circle cx="-0.01" cy="6.67" r="0.58333333333333" fill="rgb(197.5,195.5,29.5)"/><path d="M 0,6.65 
						q 1.385 -0.69 1.485,1.75 q -1.005 -0.69 -1.485,1.75 
						M 0,6.65 
						q -1.385 -0.69 -1.485,1.75 q 1.005 -0.69 1.485,1.75 " 
						transform="rotate(360 0,6.65 )"
						stroke-width ="0.1"
						fill="rgb(77,219,4)"
						/><circle cx="0" cy="6.65" r="0.875" fill="rgb(188,182,18)"/><circle cx="0.07" cy="6.73" r="0.58333333333333" fill="rgb(197.5,195.5,29.5)"/><path d="M 0,6.65 
						q 1.385 -0.69 1.485,1.75 q -1.005 -0.69 -1.485,1.75 
						M 0,6.65 
						q -1.385 -0.69 -1.485,1.75 q 1.005 -0.69 1.485,1.75 " 
						transform="rotate(450 0,6.65 )"
						stroke-width ="0.1"
						fill="rgb(68.5,212.5,7.5)"
						/><circle cx="0" cy="6.65" r="0.875" fill="rgb(188,182,18)"/><circle cx="0" cy="6.64" r="0.58333333333333" fill="rgb(197.5,195.5,29.5)"/><path d="M 0,6.65 
						q 1.385 -0.69 1.485,1.75 q -1.005 -0.69 -1.485,1.75 
						M 0,6.65 
						q -1.385 -0.69 -1.485,1.75 q 1.005 -0.69 1.485,1.75 " 
						transform="rotate(540 0,6.65 )"
						stroke-width ="0.1"
						fill="rgb(68,204,0)"
						/><circle cx="0" cy="6.65" r="0.875" fill="rgb(188,182,18)"/><circle cx="0" cy="6.73" r="0.58333333333333" fill="rgb(197.5,195.5,29.5)"/><path d="M 0,6.65 
						q 1.385 -0.69 1.485,1.75 q -1.005 -0.69 -1.485,1.75 
						M 0,6.65 
						q -1.385 -0.69 -1.485,1.75 q 1.005 -0.69 1.485,1.75 " 
						transform="rotate(630 0,6.65 )"
						stroke-width ="0.1"
						fill="rgb(71.5,194.5,11.5)"
						/><circle cx="0" cy="6.65" r="0.875" fill="rgb(188,182,18)"/><circle cx="-0.05" cy="6.65" r="0.58333333333333" fill="rgb(197.5,195.5,29.5)"/><path d="M 0,6.65 
						q 1.385 -0.69 1.485,1.75 q -1.005 -0.69 -1.485,1.75 
						M 0,6.65 
						q -1.385 -0.69 -1.485,1.75 q 1.005 -0.69 1.485,1.75 " 
						transform="rotate(720 0,6.65 )"
						stroke-width ="0.1"
						fill="rgb(70,200,6)"
						/><circle cx="0" cy="6.65" r="0.875" fill="rgb(188,182,18)"/><circle cx="0.09" cy="6.58" r="0.58333333333333" fill="rgb(197.5,195.5,29.5)"/><path d="M 0,6.65 
						q 1.385 -0.69 1.485,1.75 q -1.005 -0.69 -1.485,1.75 
						M 0,6.65 
						q -1.385 -0.69 -1.485,1.75 q 1.005 -0.69 1.485,1.75 " 
						transform="rotate(810 0,6.65 )"
						stroke-width ="0.1"
						fill="rgb(63.5,192.5,0)"
						/><circle cx="0" cy="6.65" r="0.875" fill="rgb(188,182,18)"/><circle cx="0.04" cy="6.66" r="0.58333333333333" fill="rgb(197.5,195.5,29.5)"/><path d="M 0,6.65 
						q 1.385 -0.69 1.485,1.75 q -1.005 -0.69 -1.485,1.75 
						M 0,6.65 
						q -1.385 -0.69 -1.485,1.75 q 1.005 -0.69 1.485,1.75 " 
						transform="rotate(900 0,6.65 )"
						stroke-width ="0.1"
						fill="rgb(47,199,0)"
						/><circle cx="0" cy="6.65" r="0.875" fill="rgb(188,182,18)"/><circle cx="0.04" cy="6.72" r="0.58333333333333" fill="rgb(197.5,195.5,29.5)"/><path d="M 0,6.65 
						q 1.385 -0.69 1.485,1.75 q -1.005 -0.69 -1.485,1.75 
						M 0,6.65 
						q -1.385 -0.69 -1.485,1.75 q 1.005 -0.69 1.485,1.75 " 
						transform="rotate(990 0,6.65 )"
						stroke-width ="0.1"
						fill="rgb(45.5,183.5,0)"
						/><circle cx="0" cy="6.65" r="0.875" fill="rgb(188,182,18)"/><circle cx="-0.06" cy="6.63" r="0.58333333333333" fill="rgb(197.5,195.5,29.5)"/><path d="M 0,6.65 
						q 1.385 -0.69 1.485,1.75 q -1.005 -0.69 -1.485,1.75 
						M 0,6.65 
						q -1.385 -0.69 -1.485,1.75 q 1.005 -0.69 1.485,1.75 " 
						transform="rotate(1080 0,6.65 )"
						stroke-width ="0.1"
						fill="rgb(50,194,0)"
						/><circle cx="0" cy="6.65" r="0.875" fill="rgb(188,182,18)"/><circle cx="0.08" cy="6.73" r="0.58333333333333" fill="rgb(197.5,195.5,29.5)"/></g><g id="flower5" transform="skewX(9) skewY(9)">
						<path d="M 0,0
						Q 1.25,2.1875 0,8.3125"
						stroke="rgb(59,107,146)" 
						fill="transparent"
						stroke-width ="0.3" /><path d="M 0,8.3125 
						q 1.73125 -0.8625 1.85625,2.1875 q -1.25625 -0.8625 -1.85625,2.1875 
						M 0,8.3125 
						q -1.73125 -0.8625 -1.85625,2.1875 q 1.25625 -0.8625 1.85625,2.1875 " 
						transform="rotate(0 0,8.3125 )"
						stroke-width ="0.1"
						fill="rgb(89,215,32)"
						/><circle cx="0" cy="8.3125" r="1.09375" fill="rgb(182,181,15)"/><circle cx="-0.04" cy="8.3325" r="0.72916666666667" fill="rgb(203.5,199.5,25.5)"/><path d="M 0,8.3125 
						q 1.73125 -0.8625 1.85625,2.1875 q -1.25625 -0.8625 -1.85625,2.1875 
						M 0,8.3125 
						q -1.73125 -0.8625 -1.85625,2.1875 q 1.25625 -0.8625 1.85625,2.1875 " 
						transform="rotate(90 0,8.3125 )"
						stroke-width ="0.1"
						fill="rgb(78.5,227.5,11.5)"
						/><circle cx="0" cy="8.3125" r="1.09375" fill="rgb(182,181,15)"/><circle cx="0.08" cy="8.3825" r="0.72916666666667" fill="rgb(203.5,199.5,25.5)"/><path d="M 0,8.3125 
						q 1.73125 -0.8625 1.85625,2.1875 q -1.25625 -0.8625 -1.85625,2.1875 
						M 0,8.3125 
						q -1.73125 -0.8625 -1.85625,2.1875 q 1.25625 -0.8625 1.85625,2.1875 " 
						transform="rotate(180 0,8.3125 )"
						stroke-width ="0.1"
						fill="rgb(81,217,16)"
						/><circle cx="0" cy="8.3125" r="1.09375" fill="rgb(182,181,15)"/><circle cx="-0.07" cy="8.3225" r="0.72916666666667" fill="rgb(203.5,199.5,25.5)"/><path d="M 0,8.3125 
						q 1.73125 -0.8625 1.85625,2.1875 q -1.25625 -0.8625 -1.85625,2.1875 
						M 0,8.3125 
						q -1.73125 -0.8625 -1.85625,2.1875 q 1.25625 -0.8625 1.85625,2.1875 " 
						transform="rotate(270 0,8.3125 )"
						stroke-width ="0.1"
						fill="rgb(81.5,219.5,18.5)"
						/><circle cx="0" cy="8.3125" r="1.09375" fill="rgb(182,181,15)"/><circle cx="-0.02" cy="8.3625" r="0.72916666666667" fill="rgb(203.5,199.5,25.5)"/><path d="M 0,8.3125 
						q 1.73125 -0.8625 1.85625,2.1875 q -1.25625 -0.8625 -1.85625,2.1875 
						M 0,8.3125 
						q -1.73125 -0.8625 -1.85625,2.1875 q 1.25625 -0.8625 1.85625,2.1875 " 
						transform="rotate(360 0,8.3125 )"
						stroke-width ="0.1"
						fill="rgb(72,220,10)"
						/><circle cx="0" cy="8.3125" r="1.09375" fill="rgb(182,181,15)"/><circle cx="0.05" cy="8.3025" r="0.72916666666667" fill="rgb(203.5,199.5,25.5)"/><path d="M 0,8.3125 
						q 1.73125 -0.8625 1.85625,2.1875 q -1.25625 -0.8625 -1.85625,2.1875 
						M 0,8.3125 
						q -1.73125 -0.8625 -1.85625,2.1875 q 1.25625 -0.8625 1.85625,2.1875 " 
						transform="rotate(450 0,8.3125 )"
						stroke-width ="0.1"
						fill="rgb(75.5,209.5,17.5)"
						/><circle cx="0" cy="8.3125" r="1.09375" fill="rgb(182,181,15)"/><circle cx="-0.08" cy="8.2125" r="0.72916666666667" fill="rgb(203.5,199.5,25.5)"/><path d="M 0,8.3125 
						q 1.73125 -0.8625 1.85625,2.1875 q -1.25625 -0.8625 -1.85625,2.1875 
						M 0,8.3125 
						q -1.73125 -0.8625 -1.85625,2.1875 q 1.25625 -0.8625 1.85625,2.1875 " 
						transform="rotate(540 0,8.3125 )"
						stroke-width ="0.1"
						fill="rgb(66,196,16)"
						/><circle cx="0" cy="8.3125" r="1.09375" fill="rgb(182,181,15)"/><circle cx="-0.06" cy="8.4025" r="0.72916666666667" fill="rgb(203.5,199.5,25.5)"/><path d="M 0,8.3125 
						q 1.73125 -0.8625 1.85625,2.1875 q -1.25625 -0.8625 -1.85625,2.1875 
						M 0,8.3125 
						q -1.73125 -0.8625 -1.85625,2.1875 q 1.25625 -0.8625 1.85625,2.1875 " 
						transform="rotate(630 0,8.3125 )"
						stroke-width ="0.1"
						fill="rgb(67.5,209.5,10.5)"
						/><circle cx="0" cy="8.3125" r="1.09375" fill="rgb(182,181,15)"/><circle cx="0.03" cy="8.3825" r="0.72916666666667" fill="rgb(203.5,199.5,25.5)"/><path d="M 0,8.3125 
						q 1.73125 -0.8625 1.85625,2.1875 q -1.25625 -0.8625 -1.85625,2.1875 
						M 0,8.3125 
						q -1.73125 -0.8625 -1.85625,2.1875 q 1.25625 -0.8625 1.85625,2.1875 " 
						transform="rotate(720 0,8.3125 )"
						stroke-width ="0.1"
						fill="rgb(70,196,7)"
						/><circle cx="0" cy="8.3125" r="1.09375" fill="rgb(182,181,15)"/><circle cx="-0.06" cy="8.2825" r="0.72916666666667" fill="rgb(203.5,199.5,25.5)"/><path d="M 0,8.3125 
						q 1.73125 -0.8625 1.85625,2.1875 q -1.25625 -0.8625 -1.85625,2.1875 
						M 0,8.3125 
						q -1.73125 -0.8625 -1.85625,2.1875 q 1.25625 -0.8625 1.85625,2.1875 " 
						transform="rotate(810 0,8.3125 )"
						stroke-width ="0.1"
						fill="rgb(65.5,197.5,1.5)"
						/><circle cx="0" cy="8.3125" r="1.09375" fill="rgb(182,181,15)"/><circle cx="-0.02" cy="8.3125" r="0.72916666666667" fill="rgb(203.5,199.5,25.5)"/><path d="M 0,8.3125 
						q 1.73125 -0.8625 1.85625,2.1875 q -1.25625 -0.8625 -1.85625,2.1875 
						M 0,8.3125 
						q -1.73125 -0.8625 -1.85625,2.1875 q 1.25625 -0.8625 1.85625,2.1875 " 
						transform="rotate(900 0,8.3125 )"
						stroke-width ="0.1"
						fill="rgb(49,189,0)"
						/><circle cx="0" cy="8.3125" r="1.09375" fill="rgb(182,181,15)"/><circle cx="0.07" cy="8.2525" r="0.72916666666667" fill="rgb(203.5,199.5,25.5)"/><path d="M 0,8.3125 
						q 1.73125 -0.8625 1.85625,2.1875 q -1.25625 -0.8625 -1.85625,2.1875 
						M 0,8.3125 
						q -1.73125 -0.8625 -1.85625,2.1875 q 1.25625 -0.8625 1.85625,2.1875 " 
						transform="rotate(990 0,8.3125 )"
						stroke-width ="0.1"
						fill="rgb(46.5,202.5,0)"
						/><circle cx="0" cy="8.3125" r="1.09375" fill="rgb(182,181,15)"/><circle cx="-0.09" cy="8.3025" r="0.72916666666667" fill="rgb(203.5,199.5,25.5)"/><path d="M 0,8.3125 
						q 1.73125 -0.8625 1.85625,2.1875 q -1.25625 -0.8625 -1.85625,2.1875 
						M 0,8.3125 
						q -1.73125 -0.8625 -1.85625,2.1875 q 1.25625 -0.8625 1.85625,2.1875 " 
						transform="rotate(1080 0,8.3125 )"
						stroke-width ="0.1"
						fill="rgb(59,181,0)"
						/><circle cx="0" cy="8.3125" r="1.09375" fill="rgb(182,181,15)"/><circle cx="-0.02" cy="8.3725" r="0.72916666666667" fill="rgb(203.5,199.5,25.5)"/></g><g id="flower6" transform="skewX(1) skewY(1)">
						<path d="M 0,0
						Q -0.73,2.625 0,9.975"
						stroke="rgb(59,107,146)" 
						fill="transparent"
						stroke-width ="0.3" /><path d="M 0,9.975 
						q 2.0775 -1.035 2.2275,2.625 q -1.5075 -1.035 -2.2275,2.625 
						M 0,9.975 
						q -2.0775 -1.035 -2.2275,2.625 q 1.5075 -1.035 2.2275,2.625 " 
						transform="rotate(0 0,9.975 )"
						stroke-width ="0.1"
						fill="rgb(77,224,16)"
						/><circle cx="0" cy="9.975" r="1.3125" fill="rgb(188,177,11)"/><circle cx="0.08" cy="10.035" r="0.875" fill="rgb(196.5,191.5,25.5)"/><path d="M 0,9.975 
						q 2.0775 -1.035 2.2275,2.625 q -1.5075 -1.035 -2.2275,2.625 
						M 0,9.975 
						q -2.0775 -1.035 -2.2275,2.625 q 1.5075 -1.035 2.2275,2.625 " 
						transform="rotate(90 0,9.975 )"
						stroke-width ="0.1"
						fill="rgb(81.5,208.5,9.5)"
						/><circle cx="0" cy="9.975" r="1.3125" fill="rgb(188,177,11)"/><circle cx="0.06" cy="10.075" r="0.875" fill="rgb(196.5,191.5,25.5)"/><path d="M 0,9.975 
						q 2.0775 -1.035 2.2275,2.625 q -1.5075 -1.035 -2.2275,2.625 
						M 0,9.975 
						q -2.0775 -1.035 -2.2275,2.625 q 1.5075 -1.035 2.2275,2.625 " 
						transform="rotate(180 0,9.975 )"
						stroke-width ="0.1"
						fill="rgb(79,205,10)"
						/><circle cx="0" cy="9.975" r="1.3125" fill="rgb(188,177,11)"/><circle cx="0.05" cy="9.975" r="0.875" fill="rgb(196.5,191.5,25.5)"/><path d="M 0,9.975 
						q 2.0775 -1.035 2.2275,2.625 q -1.5075 -1.035 -2.2275,2.625 
						M 0,9.975 
						q -2.0775 -1.035 -2.2275,2.625 q 1.5075 -1.035 2.2275,2.625 " 
						transform="rotate(270 0,9.975 )"
						stroke-width ="0.1"
						fill="rgb(69.5,217.5,15.5)"
						/><circle cx="0" cy="9.975" r="1.3125" fill="rgb(188,177,11)"/><circle cx="0.1" cy="9.915" r="0.875" fill="rgb(196.5,191.5,25.5)"/><path d="M 0,9.975 
						q 2.0775 -1.035 2.2275,2.625 q -1.5075 -1.035 -2.2275,2.625 
						M 0,9.975 
						q -2.0775 -1.035 -2.2275,2.625 q 1.5075 -1.035 2.2275,2.625 " 
						transform="rotate(360 0,9.975 )"
						stroke-width ="0.1"
						fill="rgb(61,220,16)"
						/><circle cx="0" cy="9.975" r="1.3125" fill="rgb(188,177,11)"/><circle cx="-0.06" cy="10.065" r="0.875" fill="rgb(196.5,191.5,25.5)"/><path d="M 0,9.975 
						q 2.0775 -1.035 2.2275,2.625 q -1.5075 -1.035 -2.2275,2.625 
						M 0,9.975 
						q -2.0775 -1.035 -2.2275,2.625 q 1.5075 -1.035 2.2275,2.625 " 
						transform="rotate(450 0,9.975 )"
						stroke-width ="0.1"
						fill="rgb(65.5,202.5,4.5)"
						/><circle cx="0" cy="9.975" r="1.3125" fill="rgb(188,177,11)"/><circle cx="0.04" cy="9.955" r="0.875" fill="rgb(196.5,191.5,25.5)"/><path d="M 0,9.975 
						q 2.0775 -1.035 2.2275,2.625 q -1.5075 -1.035 -2.2275,2.625 
						M 0,9.975 
						q -2.0775 -1.035 -2.2275,2.625 q 1.5075 -1.035 2.2275,2.625 " 
						transform="rotate(540 0,9.975 )"
						stroke-width ="0.1"
						fill="rgb(75,210,11)"
						/><circle cx="0" cy="9.975" r="1.3125" fill="rgb(188,177,11)"/><circle cx="-0.05" cy="9.895" r="0.875" fill="rgb(196.5,191.5,25.5)"/><path d="M 0,9.975 
						q 2.0775 -1.035 2.2275,2.625 q -1.5075 -1.035 -2.2275,2.625 
						M 0,9.975 
						q -2.0775 -1.035 -2.2275,2.625 q 1.5075 -1.035 2.2275,2.625 " 
						transform="rotate(630 0,9.975 )"
						stroke-width ="0.1"
						fill="rgb(64.5,202.5,0)"
						/><circle cx="0" cy="9.975" r="1.3125" fill="rgb(188,177,11)"/><circle cx="0.04" cy="9.995" r="0.875" fill="rgb(196.5,191.5,25.5)"/><path d="M 0,9.975 
						q 2.0775 -1.035 2.2275,2.625 q -1.5075 -1.035 -2.2275,2.625 
						M 0,9.975 
						q -2.0775 -1.035 -2.2275,2.625 q 1.5075 -1.035 2.2275,2.625 " 
						transform="rotate(720 0,9.975 )"
						stroke-width ="0.1"
						fill="rgb(51,194,4)"
						/><circle cx="0" cy="9.975" r="1.3125" fill="rgb(188,177,11)"/><circle cx="0.08" cy="9.955" r="0.875" fill="rgb(196.5,191.5,25.5)"/><path d="M 0,9.975 
						q 2.0775 -1.035 2.2275,2.625 q -1.5075 -1.035 -2.2275,2.625 
						M 0,9.975 
						q -2.0775 -1.035 -2.2275,2.625 q 1.5075 -1.035 2.2275,2.625 " 
						transform="rotate(810 0,9.975 )"
						stroke-width ="0.1"
						fill="rgb(50.5,200.5,4.5)"
						/><circle cx="0" cy="9.975" r="1.3125" fill="rgb(188,177,11)"/><circle cx="0.01" cy="9.885" r="0.875" fill="rgb(196.5,191.5,25.5)"/><path d="M 0,9.975 
						q 2.0775 -1.035 2.2275,2.625 q -1.5075 -1.035 -2.2275,2.625 
						M 0,9.975 
						q -2.0775 -1.035 -2.2275,2.625 q 1.5075 -1.035 2.2275,2.625 " 
						transform="rotate(900 0,9.975 )"
						stroke-width ="0.1"
						fill="rgb(62,194,0)"
						/><circle cx="0" cy="9.975" r="1.3125" fill="rgb(188,177,11)"/><circle cx="0.06" cy="9.945" r="0.875" fill="rgb(196.5,191.5,25.5)"/><path d="M 0,9.975 
						q 2.0775 -1.035 2.2275,2.625 q -1.5075 -1.035 -2.2275,2.625 
						M 0,9.975 
						q -2.0775 -1.035 -2.2275,2.625 q 1.5075 -1.035 2.2275,2.625 " 
						transform="rotate(990 0,9.975 )"
						stroke-width ="0.1"
						fill="rgb(43.5,197.5,0)"
						/><circle cx="0" cy="9.975" r="1.3125" fill="rgb(188,177,11)"/><circle cx="-0.07" cy="9.915" r="0.875" fill="rgb(196.5,191.5,25.5)"/><path d="M 0,9.975 
						q 2.0775 -1.035 2.2275,2.625 q -1.5075 -1.035 -2.2275,2.625 
						M 0,9.975 
						q -2.0775 -1.035 -2.2275,2.625 q 1.5075 -1.035 2.2275,2.625 " 
						transform="rotate(1080 0,9.975 )"
						stroke-width ="0.1"
						fill="rgb(49,183,0)"
						/><circle cx="0" cy="9.975" r="1.3125" fill="rgb(188,177,11)"/><circle cx="0.07" cy="9.925" r="0.875" fill="rgb(196.5,191.5,25.5)"/></g><g id="flower7" transform="skewX(8) skewY(8)">
						<path d="M 0,0
						Q 1.49,3.0625 0,11.6375"
						stroke="rgb(59,107,146)" 
						fill="transparent"
						stroke-width ="0.3" /><path d="M 0,11.6375 
						q 2.42375 -1.2075 2.59875,3.0625 q -1.75875 -1.2075 -2.59875,3.0625 
						M 0,11.6375 
						q -2.42375 -1.2075 -2.59875,3.0625 q 1.75875 -1.2075 2.59875,3.0625 " 
						transform="rotate(0 0,11.6375 )"
						stroke-width ="0.1"
						fill="rgb(90,229,25)"
						/><circle cx="0" cy="11.6375" r="1.53125" fill="rgb(184,174,18)"/><circle cx="-0.08" cy="11.5675" r="1.0208333333333" fill="rgb(200.5,179.5,29.5)"/><path d="M 0,11.6375 
						q 2.42375 -1.2075 2.59875,3.0625 q -1.75875 -1.2075 -2.59875,3.0625 
						M 0,11.6375 
						q -2.42375 -1.2075 -2.59875,3.0625 q 1.75875 -1.2075 2.59875,3.0625 " 
						transform="rotate(90 0,11.6375 )"
						stroke-width ="0.1"
						fill="rgb(84.5,211.5,19.5)"
						/><circle cx="0" cy="11.6375" r="1.53125" fill="rgb(184,174,18)"/><circle cx="0.07" cy="11.5775" r="1.0208333333333" fill="rgb(200.5,179.5,29.5)"/><path d="M 0,11.6375 
						q 2.42375 -1.2075 2.59875,3.0625 q -1.75875 -1.2075 -2.59875,3.0625 
						M 0,11.6375 
						q -2.42375 -1.2075 -2.59875,3.0625 q 1.75875 -1.2075 2.59875,3.0625 " 
						transform="rotate(180 0,11.6375 )"
						stroke-width ="0.1"
						fill="rgb(70,210,24)"
						/><circle cx="0" cy="11.6375" r="1.53125" fill="rgb(184,174,18)"/><circle cx="0.08" cy="11.6075" r="1.0208333333333" fill="rgb(200.5,179.5,29.5)"/><path d="M 0,11.6375 
						q 2.42375 -1.2075 2.59875,3.0625 q -1.75875 -1.2075 -2.59875,3.0625 
						M 0,11.6375 
						q -2.42375 -1.2075 -2.59875,3.0625 q 1.75875 -1.2075 2.59875,3.0625 " 
						transform="rotate(270 0,11.6375 )"
						stroke-width ="0.1"
						fill="rgb(65.5,215.5,6.5)"
						/><circle cx="0" cy="11.6375" r="1.53125" fill="rgb(184,174,18)"/><circle cx="-0.07" cy="11.5575" r="1.0208333333333" fill="rgb(200.5,179.5,29.5)"/><path d="M 0,11.6375 
						q 2.42375 -1.2075 2.59875,3.0625 q -1.75875 -1.2075 -2.59875,3.0625 
						M 0,11.6375 
						q -2.42375 -1.2075 -2.59875,3.0625 q 1.75875 -1.2075 2.59875,3.0625 " 
						transform="rotate(360 0,11.6375 )"
						stroke-width ="0.1"
						fill="rgb(75,203,17)"
						/><circle cx="0" cy="11.6375" r="1.53125" fill="rgb(184,174,18)"/><circle cx="-0.01" cy="11.6675" r="1.0208333333333" fill="rgb(200.5,179.5,29.5)"/><path d="M 0,11.6375 
						q 2.42375 -1.2075 2.59875,3.0625 q -1.75875 -1.2075 -2.59875,3.0625 
						M 0,11.6375 
						q -2.42375 -1.2075 -2.59875,3.0625 q 1.75875 -1.2075 2.59875,3.0625 " 
						transform="rotate(450 0,11.6375 )"
						stroke-width ="0.1"
						fill="rgb(65.5,215.5,19.5)"
						/><circle cx="0" cy="11.6375" r="1.53125" fill="rgb(184,174,18)"/><circle cx="0.07" cy="11.6175" r="1.0208333333333" fill="rgb(200.5,179.5,29.5)"/><path d="M 0,11.6375 
						q 2.42375 -1.2075 2.59875,3.0625 q -1.75875 -1.2075 -2.59875,3.0625 
						M 0,11.6375 
						q -2.42375 -1.2075 -2.59875,3.0625 q 1.75875 -1.2075 2.59875,3.0625 " 
						transform="rotate(540 0,11.6375 )"
						stroke-width ="0.1"
						fill="rgb(59,200,4)"
						/><circle cx="0" cy="11.6375" r="1.53125" fill="rgb(184,174,18)"/><circle cx="-0.1" cy="11.6275" r="1.0208333333333" fill="rgb(200.5,179.5,29.5)"/><path d="M 0,11.6375 
						q 2.42375 -1.2075 2.59875,3.0625 q -1.75875 -1.2075 -2.59875,3.0625 
						M 0,11.6375 
						q -2.42375 -1.2075 -2.59875,3.0625 q 1.75875 -1.2075 2.59875,3.0625 " 
						transform="rotate(630 0,11.6375 )"
						stroke-width ="0.1"
						fill="rgb(63.5,197.5,0)"
						/><circle cx="0" cy="11.6375" r="1.53125" fill="rgb(184,174,18)"/><circle cx="0.01" cy="11.7275" r="1.0208333333333" fill="rgb(200.5,179.5,29.5)"/><path d="M 0,11.6375 
						q 2.42375 -1.2075 2.59875,3.0625 q -1.75875 -1.2075 -2.59875,3.0625 
						M 0,11.6375 
						q -2.42375 -1.2075 -2.59875,3.0625 q 1.75875 -1.2075 2.59875,3.0625 " 
						transform="rotate(720 0,11.6375 )"
						stroke-width ="0.1"
						fill="rgb(63,193,0)"
						/><circle cx="0" cy="11.6375" r="1.53125" fill="rgb(184,174,18)"/><circle cx="0.08" cy="11.6075" r="1.0208333333333" fill="rgb(200.5,179.5,29.5)"/><path d="M 0,11.6375 
						q 2.42375 -1.2075 2.59875,3.0625 q -1.75875 -1.2075 -2.59875,3.0625 
						M 0,11.6375 
						q -2.42375 -1.2075 -2.59875,3.0625 q 1.75875 -1.2075 2.59875,3.0625 " 
						transform="rotate(810 0,11.6375 )"
						stroke-width ="0.1"
						fill="rgb(48.5,197.5,0)"
						/><circle cx="0" cy="11.6375" r="1.53125" fill="rgb(184,174,18)"/><circle cx="0.06" cy="11.5675" r="1.0208333333333" fill="rgb(200.5,179.5,29.5)"/><path d="M 0,11.6375 
						q 2.42375 -1.2075 2.59875,3.0625 q -1.75875 -1.2075 -2.59875,3.0625 
						M 0,11.6375 
						q -2.42375 -1.2075 -2.59875,3.0625 q 1.75875 -1.2075 2.59875,3.0625 " 
						transform="rotate(900 0,11.6375 )"
						stroke-width ="0.1"
						fill="rgb(60,198,0)"
						/><circle cx="0" cy="11.6375" r="1.53125" fill="rgb(184,174,18)"/><circle cx="0" cy="11.6075" r="1.0208333333333" fill="rgb(200.5,179.5,29.5)"/><path d="M 0,11.6375 
						q 2.42375 -1.2075 2.59875,3.0625 q -1.75875 -1.2075 -2.59875,3.0625 
						M 0,11.6375 
						q -2.42375 -1.2075 -2.59875,3.0625 q 1.75875 -1.2075 2.59875,3.0625 " 
						transform="rotate(990 0,11.6375 )"
						stroke-width ="0.1"
						fill="rgb(42.5,196.5,0)"
						/><circle cx="0" cy="11.6375" r="1.53125" fill="rgb(184,174,18)"/><circle cx="-0.06" cy="11.6275" r="1.0208333333333" fill="rgb(200.5,179.5,29.5)"/><path d="M 0,11.6375 
						q 2.42375 -1.2075 2.59875,3.0625 q -1.75875 -1.2075 -2.59875,3.0625 
						M 0,11.6375 
						q -2.42375 -1.2075 -2.59875,3.0625 q 1.75875 -1.2075 2.59875,3.0625 " 
						transform="rotate(1080 0,11.6375 )"
						stroke-width ="0.1"
						fill="rgb(40,195,0)"
						/><circle cx="0" cy="11.6375" r="1.53125" fill="rgb(184,174,18)"/><circle cx="-0.07" cy="11.6675" r="1.0208333333333" fill="rgb(200.5,179.5,29.5)"/></g><g id="flower8" transform="skewX(7) skewY(7)">
						<path d="M 0,0
						Q 1.4,3.5 0,13.3"
						stroke="rgb(59,107,146)" 
						fill="transparent"
						stroke-width ="0.3" /><path d="M 0,13.3 
						q 2.77 -1.38 2.97,3.5 q -2.01 -1.38 -2.97,3.5 
						M 0,13.3 
						q -2.77 -1.38 -2.97,3.5 q 2.01 -1.38 2.97,3.5 " 
						transform="rotate(0 0,13.3 )"
						stroke-width ="0.1"
						fill="rgb(79,230,14)"
						/><circle cx="0" cy="13.3" r="1.75" fill="rgb(184,176,17)"/><circle cx="0.06" cy="13.38" r="1.1666666666667" fill="rgb(191.5,186.5,30.5)"/><path d="M 0,13.3 
						q 2.77 -1.38 2.97,3.5 q -2.01 -1.38 -2.97,3.5 
						M 0,13.3 
						q -2.77 -1.38 -2.97,3.5 q 2.01 -1.38 2.97,3.5 " 
						transform="rotate(90 0,13.3 )"
						stroke-width ="0.1"
						fill="rgb(80.5,212.5,22.5)"
						/><circle cx="0" cy="13.3" r="1.75" fill="rgb(184,176,17)"/><circle cx="0" cy="13.24" r="1.1666666666667" fill="rgb(191.5,186.5,30.5)"/><path d="M 0,13.3 
						q 2.77 -1.38 2.97,3.5 q -2.01 -1.38 -2.97,3.5 
						M 0,13.3 
						q -2.77 -1.38 -2.97,3.5 q 2.01 -1.38 2.97,3.5 " 
						transform="rotate(180 0,13.3 )"
						stroke-width ="0.1"
						fill="rgb(71,222,9)"
						/><circle cx="0" cy="13.3" r="1.75" fill="rgb(184,176,17)"/><circle cx="-0.05" cy="13.32" r="1.1666666666667" fill="rgb(191.5,186.5,30.5)"/><path d="M 0,13.3 
						q 2.77 -1.38 2.97,3.5 q -2.01 -1.38 -2.97,3.5 
						M 0,13.3 
						q -2.77 -1.38 -2.97,3.5 q 2.01 -1.38 2.97,3.5 " 
						transform="rotate(270 0,13.3 )"
						stroke-width ="0.1"
						fill="rgb(76.5,219.5,22.5)"
						/><circle cx="0" cy="13.3" r="1.75" fill="rgb(184,176,17)"/><circle cx="-0.05" cy="13.37" r="1.1666666666667" fill="rgb(191.5,186.5,30.5)"/><path d="M 0,13.3 
						q 2.77 -1.38 2.97,3.5 q -2.01 -1.38 -2.97,3.5 
						M 0,13.3 
						q -2.77 -1.38 -2.97,3.5 q 2.01 -1.38 2.97,3.5 " 
						transform="rotate(360 0,13.3 )"
						stroke-width ="0.1"
						fill="rgb(66,207,16)"
						/><circle cx="0" cy="13.3" r="1.75" fill="rgb(184,176,17)"/><circle cx="-0.05" cy="13.33" r="1.1666666666667" fill="rgb(191.5,186.5,30.5)"/><path d="M 0,13.3 
						q 2.77 -1.38 2.97,3.5 q -2.01 -1.38 -2.97,3.5 
						M 0,13.3 
						q -2.77 -1.38 -2.97,3.5 q 2.01 -1.38 2.97,3.5 " 
						transform="rotate(450 0,13.3 )"
						stroke-width ="0.1"
						fill="rgb(60.5,208.5,19.5)"
						/><circle cx="0" cy="13.3" r="1.75" fill="rgb(184,176,17)"/><circle cx="0.02" cy="13.25" r="1.1666666666667" fill="rgb(191.5,186.5,30.5)"/><path d="M 0,13.3 
						q 2.77 -1.38 2.97,3.5 q -2.01 -1.38 -2.97,3.5 
						M 0,13.3 
						q -2.77 -1.38 -2.97,3.5 q 2.01 -1.38 2.97,3.5 " 
						transform="rotate(540 0,13.3 )"
						stroke-width ="0.1"
						fill="rgb(63,204,1)"
						/><circle cx="0" cy="13.3" r="1.75" fill="rgb(184,176,17)"/><circle cx="-0.04" cy="13.2" r="1.1666666666667" fill="rgb(191.5,186.5,30.5)"/><path d="M 0,13.3 
						q 2.77 -1.38 2.97,3.5 q -2.01 -1.38 -2.97,3.5 
						M 0,13.3 
						q -2.77 -1.38 -2.97,3.5 q 2.01 -1.38 2.97,3.5 " 
						transform="rotate(630 0,13.3 )"
						stroke-width ="0.1"
						fill="rgb(72.5,206.5,1.5)"
						/><circle cx="0" cy="13.3" r="1.75" fill="rgb(184,176,17)"/><circle cx="0.05" cy="13.33" r="1.1666666666667" fill="rgb(191.5,186.5,30.5)"/><path d="M 0,13.3 
						q 2.77 -1.38 2.97,3.5 q -2.01 -1.38 -2.97,3.5 
						M 0,13.3 
						q -2.77 -1.38 -2.97,3.5 q 2.01 -1.38 2.97,3.5 " 
						transform="rotate(720 0,13.3 )"
						stroke-width ="0.1"
						fill="rgb(61,208,9)"
						/><circle cx="0" cy="13.3" r="1.75" fill="rgb(184,176,17)"/><circle cx="0.1" cy="13.3" r="1.1666666666667" fill="rgb(191.5,186.5,30.5)"/><path d="M 0,13.3 
						q 2.77 -1.38 2.97,3.5 q -2.01 -1.38 -2.97,3.5 
						M 0,13.3 
						q -2.77 -1.38 -2.97,3.5 q 2.01 -1.38 2.97,3.5 " 
						transform="rotate(810 0,13.3 )"
						stroke-width ="0.1"
						fill="rgb(57.5,194.5,0)"
						/><circle cx="0" cy="13.3" r="1.75" fill="rgb(184,176,17)"/><circle cx="-0.02" cy="13.29" r="1.1666666666667" fill="rgb(191.5,186.5,30.5)"/><path d="M 0,13.3 
						q 2.77 -1.38 2.97,3.5 q -2.01 -1.38 -2.97,3.5 
						M 0,13.3 
						q -2.77 -1.38 -2.97,3.5 q 2.01 -1.38 2.97,3.5 " 
						transform="rotate(900 0,13.3 )"
						stroke-width ="0.1"
						fill="rgb(65,203,1)"
						/><circle cx="0" cy="13.3" r="1.75" fill="rgb(184,176,17)"/><circle cx="0.07" cy="13.35" r="1.1666666666667" fill="rgb(191.5,186.5,30.5)"/><path d="M 0,13.3 
						q 2.77 -1.38 2.97,3.5 q -2.01 -1.38 -2.97,3.5 
						M 0,13.3 
						q -2.77 -1.38 -2.97,3.5 q 2.01 -1.38 2.97,3.5 " 
						transform="rotate(990 0,13.3 )"
						stroke-width ="0.1"
						fill="rgb(45.5,196.5,2.5)"
						/><circle cx="0" cy="13.3" r="1.75" fill="rgb(184,176,17)"/><circle cx="-0.05" cy="13.37" r="1.1666666666667" fill="rgb(191.5,186.5,30.5)"/><path d="M 0,13.3 
						q 2.77 -1.38 2.97,3.5 q -2.01 -1.38 -2.97,3.5 
						M 0,13.3 
						q -2.77 -1.38 -2.97,3.5 q 2.01 -1.38 2.97,3.5 " 
						transform="rotate(1080 0,13.3 )"
						stroke-width ="0.1"
						fill="rgb(53,180,0)"
						/><circle cx="0" cy="13.3" r="1.75" fill="rgb(184,176,17)"/><circle cx="0.05" cy="13.3" r="1.1666666666667" fill="rgb(191.5,186.5,30.5)"/></g></defs>
				<g class="fullPlant">
					<g>
					<path d ="M 48,91 
					a 60 360 5.76 0 1 -4.536,-16.416" fill ="none" stroke ="rgb(59.5,108.5,140.5)" stroke-width ="2.952"/></g><circle cx="43.464" cy="74.584" r="0.738" stroke="rgb(64.5,113.5,145.5)" fill="rgb(59.5,108.5,140.5)"/><use xlink:href="#leaf2"
						x="43.464" y="74.584" 
						transform="rotate(-6 43.464 74.584)" 	
						fill="rgb(211,230,85)" /><use xlink:href="#leaf3"
						x="43.464" y="74.584" 
						transform="rotate(176 43.464 74.584)" 	
						fill="rgb(227,227,77)" /><use xlink:href="#leaf3"
						x="43.464" y="74.584" 
						transform="rotate(147 43.464 74.584)" 	
						fill="rgb(204,219,105)" /><use xlink:href="#leaf3"
						x="43.464" y="74.584" 
						transform="rotate(104 43.464 74.584)" 	
						fill="rgb(205,226,110)" /><use xlink:href="#leaf1"
						x="43.464" y="74.584" 
						transform="rotate(136 43.464 74.584)" 	
						fill="rgb(198,205,97)" /><use xlink:href="#leaf1"
						x="43.464" y="74.584" 
						transform="rotate(16 44.384 75.464)" 	
						fill="rgb(208,205,87)" /><use xlink:href="#leaf1"
						x="43.464" y="74.584" 
						transform="rotate(1 43.464 74.584)" 	
						fill="rgb(219,209,87)" /><use xlink:href="#leaf1"
						x="43.464" y="74.584" 
						transform="rotate(-163 43.664 75.494)" 	
						fill="rgb(223,230,78)" /><use xlink:href="#leaf1"
						x="43.464" y="74.584" 
						transform="rotate(-35 43.464 74.584)" 	
						fill="rgb(212,213,95)" /><use xlink:href="#leaf2"
						x="43.464" y="74.584" 
						transform="rotate(-48 43.464 74.584)" 	
						fill="rgb(191,216,101)" /><use xlink:href="#leaf1"
						x="43.464" y="74.584" 
						transform="rotate(-147 43.464 75.514)" 	
						fill="rgb(195,217,78)" /><use xlink:href="#leaf1"
						x="43.464" y="74.584" 
						transform="rotate(36 43.974 75.034)" 	
						fill="rgb(205,212,82)" /><use xlink:href="#leaf1"
						x="43.464" y="74.584" 
						transform="rotate(88 43.554 75.234)" 	
						fill="rgb(224,206,89)" /><use xlink:href="#leaf1"
						x="43.464" y="74.584" 
						transform="rotate(-36 43.464 74.584)" 	
						fill="rgb(222,205,111)" /><use xlink:href="#leaf1"
						x="43.464" y="74.584" 
						transform="rotate(156 43.464 74.584)" 	
						fill="rgb(197,207,79)" />
					<g>
					<path d ="M 43.464,74.584 
					a 99 594 -4.28 0 1 2.304,3.876" fill ="none" stroke ="rgb(62.5,107.5,140.5)" stroke-width ="1.476"/></g><circle cx="45.768" cy="78.46" r="0.369" stroke="rgb(67.5,112.5,145.5)" fill="rgb(62.5,107.5,140.5)"/><use xlink:href="#leaf4"
						x="45.768" y="78.46" 
						transform="rotate(124 45.768 78.46)" 	
						fill="rgb(201,200,80)" /><use xlink:href="#leaf1"
						x="45.768" y="78.46" 
						transform="rotate(160 46.338 78.94)" 	
						fill="rgb(199,227,75)" /><use xlink:href="#leaf2"
						x="45.768" y="78.46" 
						transform="rotate(110 45.768 78.46)" 	
						fill="rgb(214,205,85)" /><use xlink:href="#leaf1"
						x="45.768" y="78.46" 
						transform="rotate(80 45.768 78.46)" 	
						fill="rgb(213,215,108)" /><use xlink:href="#leaf2"
						x="45.768" y="78.46" 
						transform="rotate(-163 46.068 79.09)" 	
						fill="rgb(216,191,92)" /><use xlink:href="#leaf1"
						x="45.768" y="78.46" 
						transform="rotate(-83 46.308 79.44)" 	
						fill="rgb(190,198,103)" /><use xlink:href="#leaf1"
						x="45.768" y="78.46" 
						transform="rotate(1 46.578 79.12)" 	
						fill="rgb(208,219,92)" /><use xlink:href="#leaf3"
						x="45.768" y="78.46" 
						transform="rotate(175 45.768 78.46)" 	
						fill="rgb(214,226,107)" /><use xlink:href="#leaf1"
						x="45.768" y="78.46" 
						transform="rotate(75 45.768 78.46)" 	
						fill="rgb(189,193,84)" /><use xlink:href="#leaf1"
						x="45.768" y="78.46" 
						transform="rotate(-102 45.768 78.46)" 	
						fill="rgb(202,193,75)" /><use xlink:href="#leaf3"
						x="45.768" y="78.46" 
						transform="rotate(133 45.768 78.46)" 	
						fill="rgb(191,228,110)" /><use xlink:href="#leaf2"
						x="45.768" y="78.46" 
						transform="rotate(-169 45.768 78.46)" 	
						fill="rgb(188,219,82)" /><use xlink:href="#leaf1"
						x="45.768" y="78.46" 
						transform="rotate(-48 45.788 79.29)" 	
						fill="rgb(196,190,98)" /><use xlink:href="#leaf4"
						x="45.768" y="78.46" 
						transform="rotate(-15 46.668 79.31)" 	
						fill="rgb(217,222,91)" /><use xlink:href="#leaf1"
						x="45.768" y="78.46" 
						transform="rotate(-95 45.768 78.46)" 	
						fill="rgb(201,217,105)" /><use xlink:href="#leaf2"
						x="45.768" y="78.46" 
						transform="rotate(23 45.768 78.46)" 	
						fill="rgb(189,209,103)" /><use xlink:href="#flower2" id="fleur10"
							x="45.768" y="78.46" 
							transform="rotate(-9 45.768 78.46)" />
					<g>
					<path d ="M 45.768,78.46 
					a 91 546 -20.68 0 0 -10.056,-9.84" fill ="none" stroke ="rgb(65,107,140)" stroke-width ="0.984"/></g><circle cx="35.712" cy="68.62" r="0.246" stroke="rgb(70,112,145)" fill="rgb(65,107,140)"/><use xlink:href="#leaf3"
						x="35.712" y="68.62" 
						transform="rotate(-67 36.472 69.03)" 	
						fill="rgb(195,216,93)" /><use xlink:href="#leaf2"
						x="35.712" y="68.62" 
						transform="rotate(90 36.242 69.31)" 	
						fill="rgb(219,210,99)" /><use xlink:href="#leaf2"
						x="35.712" y="68.62" 
						transform="rotate(58 36.592 69.03)" 	
						fill="rgb(203,208,112)" /><use xlink:href="#leaf2"
						x="35.712" y="68.62" 
						transform="rotate(82 36.452 68.94)" 	
						fill="rgb(210,229,112)" /><use xlink:href="#leaf1"
						x="35.712" y="68.62" 
						transform="rotate(156 35.712 69.07)" 	
						fill="rgb(212,216,79)" /><use xlink:href="#leaf1"
						x="35.712" y="68.62" 
						transform="rotate(112 35.892 69.39)" 	
						fill="rgb(212,210,76)" /><use xlink:href="#leaf4"
						x="35.712" y="68.62" 
						transform="rotate(-104 36.072 69.22)" 	
						fill="rgb(217,200,79)" /><use xlink:href="#leaf2"
						x="35.712" y="68.62" 
						transform="rotate(118 35.712 68.62)" 	
						fill="rgb(192,195,86)" /><use xlink:href="#leaf1"
						x="35.712" y="68.62" 
						transform="rotate(-58 35.712 68.62)" 	
						fill="rgb(218,207,99)" /><use xlink:href="#leaf2"
						x="35.712" y="68.62" 
						transform="rotate(2 36.532 69.19)" 	
						fill="rgb(218,225,94)" /><use xlink:href="#leaf1"
						x="35.712" y="68.62" 
						transform="rotate(95 35.732 69.41)" 	
						fill="rgb(208,205,84)" /><use xlink:href="#leaf4"
						x="35.712" y="68.62" 
						transform="rotate(116 35.942 68.96)" 	
						fill="rgb(199,226,93)" /><use xlink:href="#flower4" id="fleur20"
							x="35.712" y="68.62" 
							transform="rotate(-123 35.712 68.62)" /><use xlink:href="#flower4" id="fleur21"
							x="35.712" y="68.62" 
							transform="rotate(-162 35.712 68.62)" /><use xlink:href="#flower4" id="fleur22"
							x="35.712" y="68.62" 
							transform="rotate(-26 35.904 69.652)" /><use xlink:href="#flower4" id="fleur23"
							x="35.712" y="68.62" 
							transform="rotate(157 35.712 68.62)" /><use xlink:href="#flower4" id="fleur24"
							x="35.712" y="68.62" 
							transform="rotate(-41 35.712 68.62)" />
					<g>
					<path d ="M 35.712,68.62 
					a 78 702 9.31 0 1 -2.7,1.68" fill ="none" stroke ="rgb(65,107,141)" stroke-width ="0.738"/></g><circle cx="33.012" cy="70.3" r="0.1845" stroke="rgb(70,112,146)" fill="rgb(65,107,141)"/><use xlink:href="#leaf6"
						x="33.012" y="70.3" 
						transform="rotate(78 33.092 70.6)" 	
						fill="rgb(200,194,113)" /><use xlink:href="#leaf6"
						x="33.012" y="70.3" 
						transform="rotate(103 33.012 70.3)" 	
						fill="rgb(207,211,110)" /><use xlink:href="#leaf5"
						x="33.012" y="70.3" 
						transform="rotate(-175 33.012 70.3)" 	
						fill="rgb(203,213,83)" /><use xlink:href="#leaf6"
						x="33.012" y="70.3" 
						transform="rotate(31 33.092 70.67)" 	
						fill="rgb(199,195,82)" /><use xlink:href="#leaf5"
						x="33.012" y="70.3" 
						transform="rotate(33 33.012 70.3)" 	
						fill="rgb(191,194,94)" /><use xlink:href="#leaf5"
						x="33.012" y="70.3" 
						transform="rotate(126 33.242 70.74)" 	
						fill="rgb(192,227,100)" /><use xlink:href="#leaf5"
						x="33.012" y="70.3" 
						transform="rotate(-96 33.012 70.3)" 	
						fill="rgb(227,198,104)" /><use xlink:href="#leaf2"
						x="33.012" y="70.3" 
						transform="rotate(-167 33.362 70.71)" 	
						fill="rgb(195,226,106)" /><use xlink:href="#leaf3"
						x="33.012" y="70.3" 
						transform="rotate(178 33.972 71.14)" 	
						fill="rgb(191,191,81)" /><use xlink:href="#leaf6"
						x="33.012" y="70.3" 
						transform="rotate(136 33.012 70.3)" 	
						fill="rgb(201,204,86)" /><use xlink:href="#leaf5"
						x="33.012" y="70.3" 
						transform="rotate(-45 33.952 70.63)" 	
						fill="rgb(220,192,107)" /><use xlink:href="#leaf4"
						x="33.012" y="70.3" 
						transform="rotate(-98 33.012 70.3)" 	
						fill="rgb(218,198,81)" /><use xlink:href="#flower4" id="fleur30"
							x="33.012" y="70.3" 
							transform="rotate(-113 33.012 70.3)" /><use xlink:href="#flower4" id="fleur31"
							x="33.012" y="70.3" 
							transform="rotate(-25 33.012 70.3)" /><use xlink:href="#flower4" id="fleur32"
							x="33.012" y="70.3" 
							transform="rotate(-130 33.816 70.408)" /><use xlink:href="#flower4" id="fleur33"
							x="33.012" y="70.3" 
							transform="rotate(41 33.912 70.408)" /><use xlink:href="#flower4" id="fleur34"
							x="33.012" y="70.3" 
							transform="rotate(-142 33.048 71.14)" /><use xlink:href="#flower4" id="fleur35"
							x="33.012" y="70.3" 
							transform="rotate(-92 33.288 70.924)" />
					<g>
					<path d ="M 35.712,68.62 
					a 92 460 -19.99 0 1 -10.68,3.072" fill ="none" stroke ="rgb(69,111,141)" stroke-width ="0.738"/></g><circle cx="25.032" cy="71.692" r="0.1845" stroke="rgb(74,116,146)" fill="rgb(69,111,141)"/><use xlink:href="#leaf4"
						x="25.032" y="71.692" 
						transform="rotate(-7 25.552 72.472)" 	
						fill="rgb(222,194,93)" /><use xlink:href="#leaf3"
						x="25.032" y="71.692" 
						transform="rotate(-76 25.032 71.692)" 	
						fill="rgb(199,194,94)" /><use xlink:href="#leaf6"
						x="25.032" y="71.692" 
						transform="rotate(43 25.032 71.692)" 	
						fill="rgb(227,195,99)" /><use xlink:href="#leaf2"
						x="25.032" y="71.692" 
						transform="rotate(32 25.032 71.692)" 	
						fill="rgb(197,196,98)" /><use xlink:href="#flower2" id="fleur40"
							x="25.032" y="71.692" 
							transform="rotate(-68 25.272 72.52)" /><use xlink:href="#flower2" id="fleur41"
							x="25.032" y="71.692" 
							transform="rotate(169 25.032 71.692)" /><use xlink:href="#flower2" id="fleur42"
							x="25.032" y="71.692" 
							transform="rotate(104 25.032 71.692)" /><use xlink:href="#flower2" id="fleur43"
							x="25.032" y="71.692" 
							transform="rotate(-62 25.224 72.352)" /><use xlink:href="#flower2" id="fleur44"
							x="25.032" y="71.692" 
							transform="rotate(93 25.032 71.692)" /><use xlink:href="#flower2" id="fleur45"
							x="25.032" y="71.692" 
							transform="rotate(98 26.136 72.112)" /><use xlink:href="#flower2" id="fleur46"
							x="25.032" y="71.692" 
							transform="rotate(-174 25.728 72.316)" />
					<g>
					<path d ="M 25.032,71.692 
					a 96 672 7.64 0 0 -3.168,3.792" fill ="none" stroke ="rgb(69.5,113.5,143.5)" stroke-width ="0.5904"/></g><circle cx="21.864" cy="75.484" r="0.1476" stroke="rgb(74.5,118.5,148.5)" fill="rgb(69.5,113.5,143.5)"/><use xlink:href="#leaf6"
						x="21.864" y="75.484" 
						transform="rotate(19 21.864 75.484)" 	
						fill="rgb(187,224,109)" /><use xlink:href="#leaf7"
						x="21.864" y="75.484" 
						transform="rotate(-46 21.874 75.834)" 	
						fill="rgb(209,196,78)" /><use xlink:href="#leaf6"
						x="21.864" y="75.484" 
						transform="rotate(-82 22.284 75.594)" 	
						fill="rgb(189,199,112)" /><use xlink:href="#leaf7"
						x="21.864" y="75.484" 
						transform="rotate(113 21.864 75.484)" 	
						fill="rgb(213,226,86)" /><use xlink:href="#leaf6"
						x="21.864" y="75.484" 
						transform="rotate(-7 22.014 76.424)" 	
						fill="rgb(188,221,98)" /><use xlink:href="#leaf4"
						x="21.864" y="75.484" 
						transform="rotate(76 21.864 75.484)" 	
						fill="rgb(217,204,76)" /><use xlink:href="#leaf5"
						x="21.864" y="75.484" 
						transform="rotate(29 21.864 75.484)" 	
						fill="rgb(221,210,76)" /><use xlink:href="#leaf5"
						x="21.864" y="75.484" 
						transform="rotate(24 21.864 75.484)" 	
						fill="rgb(200,209,98)" /><use xlink:href="#leaf5"
						x="21.864" y="75.484" 
						transform="rotate(82 21.864 75.484)" 	
						fill="rgb(199,224,113)" /><use xlink:href="#leaf5"
						x="21.864" y="75.484" 
						transform="rotate(60 21.864 75.484)" 	
						fill="rgb(207,205,78)" /><use xlink:href="#leaf6"
						x="21.864" y="75.484" 
						transform="rotate(-115 21.864 75.484)" 	
						fill="rgb(217,229,103)" /><use xlink:href="#leaf4"
						x="21.864" y="75.484" 
						transform="rotate(-169 22.104 76.094)" 	
						fill="rgb(187,216,109)" /><use xlink:href="#leaf5"
						x="21.864" y="75.484" 
						transform="rotate(-52 21.864 75.484)" 	
						fill="rgb(215,208,90)" /><use xlink:href="#leaf7"
						x="21.864" y="75.484" 
						transform="rotate(-126 21.864 75.484)" 	
						fill="rgb(195,227,84)" /><use xlink:href="#flower7" id="fleur50"
							x="21.864" y="75.484" 
							transform="rotate(8 21.864 75.484)" /><use xlink:href="#flower7" id="fleur51"
							x="21.864" y="75.484" 
							transform="rotate(-103 21.948 76.444)" /><use xlink:href="#flower7" id="fleur52"
							x="21.864" y="75.484" 
							transform="rotate(131 21.864 75.484)" /><use xlink:href="#flower7" id="fleur53"
							x="21.864" y="75.484" 
							transform="rotate(51 22.512 76.408)" /><use xlink:href="#flower7" id="fleur54"
							x="21.864" y="75.484" 
							transform="rotate(168 21.864 75.484)" /><use xlink:href="#flower7" id="fleur55"
							x="21.864" y="75.484" 
							transform="rotate(116 21.864 75.484)" /><use xlink:href="#flower7" id="fleur56"
							x="21.864" y="75.484" 
							transform="rotate(58 21.864 75.484)" /><use xlink:href="#flower7" id="fleur57"
							x="21.864" y="75.484" 
							transform="rotate(128 21.864 75.484)" />
					<g>
					<path d ="M 43.464,74.584 
					a 98 686 15.23 0 1 7.5,-6.888" fill ="none" stroke ="rgb(69.5,114.5,142.5)" stroke-width ="1.476"/></g><circle cx="50.964" cy="67.696" r="0.369" stroke="rgb(74.5,119.5,147.5)" fill="rgb(69.5,114.5,142.5)"/><use xlink:href="#leaf1"
						x="50.964" y="67.696" 
						transform="rotate(-87 51.604 68.456)" 	
						fill="rgb(227,209,104)" /><use xlink:href="#leaf1"
						x="50.964" y="67.696" 
						transform="rotate(-8 50.964 67.696)" 	
						fill="rgb(202,209,96)" /><use xlink:href="#leaf1"
						x="50.964" y="67.696" 
						transform="rotate(-20 50.964 67.696)" 	
						fill="rgb(193,192,89)" /><use xlink:href="#leaf1"
						x="50.964" y="67.696" 
						transform="rotate(118 51.154 68.656)" 	
						fill="rgb(215,195,112)" /><use xlink:href="#leaf1"
						x="50.964" y="67.696" 
						transform="rotate(90 50.964 67.696)" 	
						fill="rgb(225,229,77)" /><use xlink:href="#leaf4"
						x="50.964" y="67.696" 
						transform="rotate(124 51.064 68.066)" 	
						fill="rgb(224,201,73)" /><use xlink:href="#leaf3"
						x="50.964" y="67.696" 
						transform="rotate(107 51.044 67.796)" 	
						fill="rgb(211,219,87)" /><use xlink:href="#leaf3"
						x="50.964" y="67.696" 
						transform="rotate(-100 51.284 68.356)" 	
						fill="rgb(196,219,105)" /><use xlink:href="#leaf1"
						x="50.964" y="67.696" 
						transform="rotate(153 50.964 67.696)" 	
						fill="rgb(224,217,98)" /><use xlink:href="#leaf4"
						x="50.964" y="67.696" 
						transform="rotate(-162 51.404 68.316)" 	
						fill="rgb(193,230,100)" /><use xlink:href="#leaf4"
						x="50.964" y="67.696" 
						transform="rotate(-56 50.964 67.696)" 	
						fill="rgb(224,219,80)" />
					<g>
					<path d ="M 50.964,67.696 
					a 99 396 18.14 0 1 -5.628,-1.344" fill ="none" stroke ="rgb(70,115,146)" stroke-width ="0.984"/></g><circle cx="45.336" cy="66.352" r="0.246" stroke="rgb(75,120,151)" fill="rgb(70,115,146)"/><use xlink:href="#leaf4"
						x="45.336" y="66.352" 
						transform="rotate(56 46.186 67.042)" 	
						fill="rgb(205,198,95)" /><use xlink:href="#leaf5"
						x="45.336" y="66.352" 
						transform="rotate(-83 45.776 67.302)" 	
						fill="rgb(188,190,110)" /><use xlink:href="#leaf1"
						x="45.336" y="66.352" 
						transform="rotate(96 45.336 66.352)" 	
						fill="rgb(199,208,81)" /><use xlink:href="#leaf3"
						x="45.336" y="66.352" 
						transform="rotate(-48 45.446 66.732)" 	
						fill="rgb(202,190,94)" /><use xlink:href="#leaf1"
						x="45.336" y="66.352" 
						transform="rotate(-125 45.386 67.212)" 	
						fill="rgb(192,205,88)" /><use xlink:href="#leaf5"
						x="45.336" y="66.352" 
						transform="rotate(-92 45.566 66.802)" 	
						fill="rgb(198,226,76)" /><use xlink:href="#leaf2"
						x="45.336" y="66.352" 
						transform="rotate(77 45.436 66.812)" 	
						fill="rgb(217,217,93)" /><use xlink:href="#leaf1"
						x="45.336" y="66.352" 
						transform="rotate(-100 46.156 67.202)" 	
						fill="rgb(222,219,111)" /><use xlink:href="#flower1" id="fleur70"
							x="45.336" y="66.352" 
							transform="rotate(89 45.54 66.616)" /><use xlink:href="#flower1" id="fleur71"
							x="45.336" y="66.352" 
							transform="rotate(-149 45.336 66.352)" />
					<g>
					<path d ="M 25.032,71.692 
					a 60 480 10.74 0 1 -4.776,-5.88" fill ="none" stroke ="rgb(70.5,119.5,146.5)" stroke-width ="0.5904"/></g><circle cx="20.256" cy="65.812" r="0.1476" stroke="rgb(75.5,124.5,151.5)" fill="rgb(70.5,119.5,146.5)"/><use xlink:href="#leaf6"
						x="20.256" y="65.812" 
						transform="rotate(-26 20.256 65.812)" 	
						fill="rgb(227,229,83)" /><use xlink:href="#leaf3"
						x="20.256" y="65.812" 
						transform="rotate(59 20.776 66.112)" 	
						fill="rgb(191,211,80)" /><use xlink:href="#leaf4"
						x="20.256" y="65.812" 
						transform="rotate(111 20.256 65.812)" 	
						fill="rgb(226,209,76)" /><use xlink:href="#leaf5"
						x="20.256" y="65.812" 
						transform="rotate(71 21.116 66.592)" 	
						fill="rgb(219,201,109)" />
					<g>
					<path d ="M 25.032,71.692 
					a 59 472 4.45 0 0 9.432,4.992" fill ="none" stroke ="rgb(72,124,148)" stroke-width ="0.5904"/></g><circle cx="34.464" cy="76.684" r="0.1476" stroke="rgb(77,129,153)" fill="rgb(72,124,148)"/><use xlink:href="#leaf5"
						x="34.464" y="76.684" 
						transform="rotate(-32 34.464 76.684)" 	
						fill="rgb(200,200,78)" /><use xlink:href="#leaf6"
						x="34.464" y="76.684" 
						transform="rotate(-62 34.574 77.384)" 	
						fill="rgb(215,226,89)" /><use xlink:href="#leaf6"
						x="34.464" y="76.684" 
						transform="rotate(30 34.464 76.684)" 	
						fill="rgb(214,210,109)" /><use xlink:href="#leaf4"
						x="34.464" y="76.684" 
						transform="rotate(-166 34.464 76.684)" 	
						fill="rgb(201,190,92)" /><use xlink:href="#leaf7"
						x="34.464" y="76.684" 
						transform="rotate(133 34.824 77.414)" 	
						fill="rgb(212,227,85)" /><use xlink:href="#leaf7"
						x="34.464" y="76.684" 
						transform="rotate(93 34.464 76.684)" 	
						fill="rgb(211,228,76)" /><use xlink:href="#leaf4"
						x="34.464" y="76.684" 
						transform="rotate(170 34.944 76.794)" 	
						fill="rgb(214,205,84)" /><use xlink:href="#leaf6"
						x="34.464" y="76.684" 
						transform="rotate(-104 34.464 76.684)" 	
						fill="rgb(197,194,101)" /><use xlink:href="#leaf3"
						x="34.464" y="76.684" 
						transform="rotate(58 34.464 76.684)" 	
						fill="rgb(223,225,102)" /><use xlink:href="#flower3" id="fleur90"
							x="34.464" y="76.684" 
							transform="rotate(-18 34.62 77.044)" /><use xlink:href="#flower3" id="fleur91"
							x="34.464" y="76.684" 
							transform="rotate(73 34.464 76.684)" />
					<g>
					<path d ="M 20.256,65.812 
					a 68 476 9.88 0 0 -7.884,3.336" fill ="none" stroke ="rgb(76,126,149)" stroke-width ="0.492"/></g><circle cx="12.372" cy="69.148" r="0.123" stroke="rgb(81,131,154)" fill="rgb(76,126,149)"/><use xlink:href="#leaf4"
						x="12.372" y="69.148" 
						transform="rotate(-148 12.612 69.918)" 	
						fill="rgb(187,218,95)" /><use xlink:href="#leaf6"
						x="12.372" y="69.148" 
						transform="rotate(-33 12.372 69.148)" 	
						fill="rgb(196,219,89)" /><use xlink:href="#leaf7"
						x="12.372" y="69.148" 
						transform="rotate(-88 12.502 69.508)" 	
						fill="rgb(225,211,77)" /><use xlink:href="#leaf6"
						x="12.372" y="69.148" 
						transform="rotate(118 12.372 69.148)" 	
						fill="rgb(197,223,107)" /><use xlink:href="#leaf6"
						x="12.372" y="69.148" 
						transform="rotate(99 12.832 69.168)" 	
						fill="rgb(216,205,80)" /><use xlink:href="#leaf7"
						x="12.372" y="69.148" 
						transform="rotate(88 12.892 69.408)" 	
						fill="rgb(215,205,78)" /><use xlink:href="#flower7" id="fleur100"
							x="12.372" y="69.148" 
							transform="rotate(-117 12.372 69.148)" /><use xlink:href="#flower7" id="fleur101"
							x="12.372" y="69.148" 
							transform="rotate(-77 13.296 69.388)" /><use xlink:href="#flower7" id="fleur102"
							x="12.372" y="69.148" 
							transform="rotate(-54 12.372 69.148)" /><use xlink:href="#flower7" id="fleur103"
							x="12.372" y="69.148" 
							transform="rotate(-20 12.372 69.148)" /><use xlink:href="#flower7" id="fleur104"
							x="12.372" y="69.148" 
							transform="rotate(-142 12.372 69.148)" /><use xlink:href="#flower7" id="fleur105"
							x="12.372" y="69.148" 
							transform="rotate(-109 13.284 69.436)" /><use xlink:href="#flower7" id="fleur106"
							x="12.372" y="69.148" 
							transform="rotate(38 12.372 69.148)" /><use xlink:href="#flower7" id="fleur107"
							x="12.372" y="69.148" 
							transform="rotate(140 12.372 69.148)" /><use xlink:href="#flower7" id="fleur108"
							x="12.372" y="69.148" 
							transform="rotate(-143 12.372 69.148)" /><use xlink:href="#flower7" id="fleur109"
							x="12.372" y="69.148" 
							transform="rotate(175 12.66 69.268)" />
					<g>
					<path d ="M 35.712,68.62 
					a 98 196 -7.33 0 0 5.616,0.672" fill ="none" stroke ="rgb(79,130,152)" stroke-width ="0.738"/></g><circle cx="41.328" cy="69.292" r="0.1845" stroke="rgb(84,135,157)" fill="rgb(79,130,152)"/><use xlink:href="#leaf2"
						x="41.328" y="69.292" 
						transform="rotate(41 41.328 69.292)" 	
						fill="rgb(211,210,97)" /><use xlink:href="#leaf6"
						x="41.328" y="69.292" 
						transform="rotate(-93 42.178 69.892)" 	
						fill="rgb(221,208,110)" /><use xlink:href="#leaf2"
						x="41.328" y="69.292" 
						transform="rotate(-165 41.728 69.682)" 	
						fill="rgb(223,194,109)" /><use xlink:href="#leaf4"
						x="41.328" y="69.292" 
						transform="rotate(132 41.328 69.292)" 	
						fill="rgb(209,216,78)" /><use xlink:href="#leaf5"
						x="41.328" y="69.292" 
						transform="rotate(-66 41.328 69.292)" 	
						fill="rgb(209,218,97)" /><use xlink:href="#leaf5"
						x="41.328" y="69.292" 
						transform="rotate(-49 41.328 69.292)" 	
						fill="rgb(198,194,83)" /><use xlink:href="#flower5" id="fleur110"
							x="41.328" y="69.292" 
							transform="rotate(-55 41.328 69.292)" /><use xlink:href="#flower5" id="fleur111"
							x="41.328" y="69.292" 
							transform="rotate(100 41.328 69.292)" /><use xlink:href="#flower5" id="fleur112"
							x="41.328" y="69.292" 
							transform="rotate(177 41.328 69.292)" /><use xlink:href="#flower5" id="fleur113"
							x="41.328" y="69.292" 
							transform="rotate(-93 41.484 70.06)" /><use xlink:href="#flower5" id="fleur114"
							x="41.328" y="69.292" 
							transform="rotate(41 41.652 70.276)" /><use xlink:href="#flower5" id="fleur115"
							x="41.328" y="69.292" 
							transform="rotate(-159 41.328 69.292)" /><use xlink:href="#flower5" id="fleur116"
							x="41.328" y="69.292" 
							transform="rotate(1 41.892 69.34)" />
					<g>
					<path d ="M 35.712,68.62 
					a 63 441 6.82 0 1 7.116,4.356" fill ="none" stroke ="rgb(79,134,152)" stroke-width ="0.738"/></g><circle cx="42.828" cy="72.976" r="0.1845" stroke="rgb(84,139,157)" fill="rgb(79,134,152)"/><use xlink:href="#leaf2"
						x="42.828" y="72.976" 
						transform="rotate(-99 42.928 73.246)" 	
						fill="rgb(204,210,90)" /><use xlink:href="#leaf5"
						x="42.828" y="72.976" 
						transform="rotate(-171 42.828 72.976)" 	
						fill="rgb(188,214,74)" /><use xlink:href="#leaf5"
						x="42.828" y="72.976" 
						transform="rotate(156 42.828 72.976)" 	
						fill="rgb(204,223,75)" /><use xlink:href="#leaf4"
						x="42.828" y="72.976" 
						transform="rotate(82 42.908 73.086)" 	
						fill="rgb(215,209,85)" /><use xlink:href="#leaf4"
						x="42.828" y="72.976" 
						transform="rotate(-52 43.738 73.346)" 	
						fill="rgb(199,223,101)" /><use xlink:href="#leaf4"
						x="42.828" y="72.976" 
						transform="rotate(-36 42.828 72.976)" 	
						fill="rgb(221,216,100)" /><use xlink:href="#leaf3"
						x="42.828" y="72.976" 
						transform="rotate(75 42.828 72.976)" 	
						fill="rgb(213,216,81)" /><use xlink:href="#leaf4"
						x="42.828" y="72.976" 
						transform="rotate(-163 42.828 72.976)" 	
						fill="rgb(201,229,107)" /><use xlink:href="#leaf2"
						x="42.828" y="72.976" 
						transform="rotate(-14 43.178 73.556)" 	
						fill="rgb(191,207,79)" /><use xlink:href="#leaf6"
						x="42.828" y="72.976" 
						transform="rotate(111 42.828 72.976)" 	
						fill="rgb(190,212,76)" /><use xlink:href="#leaf5"
						x="42.828" y="72.976" 
						transform="rotate(10 43.098 73.206)" 	
						fill="rgb(226,198,113)" /><use xlink:href="#flower5" id="fleur120"
							x="42.828" y="72.976" 
							transform="rotate(41 43.368 73.804)" /><use xlink:href="#flower5" id="fleur121"
							x="42.828" y="72.976" 
							transform="rotate(4 43.728 73.204)" /></g>
				</svg>