<svg class="relie" xmlns="http://www.w3.org/2000/svg" viewBox="0 0 100 100" preserveAspectRatio="xMidYMid meet" x="0" y="0" overflow="visible" xmlns:xlink="http://www.w3.org/1999/xlink">

		<defs>  <g id="leaf1" transform="skewX(-4) skewY(-4)"><path d="M 0,0 
					q 0.75 0.075 0,1.75 
					M 0,0 
					q -0.75 0.075 0,1.75 " 
					stroke-width ="0.2" /></g>  <g id="leaf2" transform="skewX(14) skewY(14)"><path d="M 0,0 
					q 1.5 0.15 0,3.5 
					M 0,0 
					q -1.5 0.15 0,3.5 " 
					stroke-width ="0.2" /></g>  <g id="leaf3" transform="skewX(-5) skewY(-5)"><path d="M 0,0 
					q 2.25 0.225 0,5.25 
					M 0,0 
					q -2.25 0.225 0,5.25 " 
					stroke-width ="0.2" /></g>  <g id="leaf4" transform="skewX(7) skewY(7)"><path d="M 0,0 
					q 3 0.3 0,7 
					M 0,0 
					q -3 0.3 0,7 " 
					stroke-width ="0.2" /></g>  <g id="leaf5" transform="skewX(9) skewY(9)"><path d="M 0,0 
					q 3.75 0.375 0,8.75 
					M 0,0 
					q -3.75 0.375 0,8.75 " 
					stroke-width ="0.2" /></g>  <g id="leaf6" transform="skewX(-17) skewY(-17)"><path d="M 0,0 
					q 4.5 0.45 0,10.5 
					M 0,0 
					q -4.5 0.45 0,10.5 " 
					stroke-width ="0.2" /></g>  <g id="leaf7" transform="skewX(-4) skewY(-4)"><path d="M 0,0 
					q 5.25 0.525 0,12.25 
					M 0,0 
					q -5.25 0.525 0,12.25 " 
					stroke-width ="0.2" /></g>  <g id="leaf8" transform="skewX(4) skewY(4)"><path d="M 0,0 
					q 6 0.6 0,14 
					M 0,0 
					q -6 0.6 0,14 " 
					stroke-width ="0.2" /></g><g id="flower1" transform="skewX(10) skewY(10)">
						<path d="M 0,0
						Q -0.78,0.1875 0,0.23625"
						stroke="rgb(43,47,20)" 
						fill="transparent"
						stroke-width ="0.3" /><path d="M 0,0.23625 
						q 0.05 0.075 0.07625,0.075 q 0.0625 0.0625 0.14875,0.075 q 0.1125 0.0875 -0.17,0.075 q 0.2375 0.0625 0.25375,0.075 q 0.0875 0.1 -0.30875,1 
						M 0,0.23625 
						q -0.05 0.075 -0.07625,0.075 q -0.0625 0.0625 -0.14875,0.075 q -0.1125 0.0875 0.17,0.075 q -0.2375 0.0625 -0.25375,0.075 q -0.0875 0.1 0.30875,1 " 
						transform="rotate(0 0,0.23625 )"
						stroke-width ="0.1"
						fill="rgb(184,208,188)"
						/><path d="M 0,0.23625 
						q 0.05 0.075 0.07625,0.075 q 0.0625 0.0625 0.14875,0.075 q 0.1125 0.0875 -0.17,0.075 q 0.2375 0.0625 0.25375,0.075 q 0.0875 0.1 -0.30875,1 
						M 0,0.23625 
						q -0.05 0.075 -0.07625,0.075 q -0.0625 0.0625 -0.14875,0.075 q -0.1125 0.0875 0.17,0.075 q -0.2375 0.0625 -0.25375,0.075 q -0.0875 0.1 0.30875,1 " 
						transform="rotate(24.923076923077 0,0.23625 )"
						stroke-width ="0.1"
						fill="rgb(191.5,194.5,197.5)"
						/><path d="M 0,0.23625 
						q 0.05 0.075 0.07625,0.075 q 0.0625 0.0625 0.14875,0.075 q 0.1125 0.0875 -0.17,0.075 q 0.2375 0.0625 0.25375,0.075 q 0.0875 0.1 -0.30875,1 
						M 0,0.23625 
						q -0.05 0.075 -0.07625,0.075 q -0.0625 0.0625 -0.14875,0.075 q -0.1125 0.0875 0.17,0.075 q -0.2375 0.0625 -0.25375,0.075 q -0.0875 0.1 0.30875,1 " 
						transform="rotate(49.846153846154 0,0.23625 )"
						stroke-width ="0.1"
						fill="rgb(182,189,191)"
						/><path d="M 0,0.23625 
						q 0.05 0.075 0.07625,0.075 q 0.0625 0.0625 0.14875,0.075 q 0.1125 0.0875 -0.17,0.075 q 0.2375 0.0625 0.25375,0.075 q 0.0875 0.1 -0.30875,1 
						M 0,0.23625 
						q -0.05 0.075 -0.07625,0.075 q -0.0625 0.0625 -0.14875,0.075 q -0.1125 0.0875 0.17,0.075 q -0.2375 0.0625 -0.25375,0.075 q -0.0875 0.1 0.30875,1 " 
						transform="rotate(74.769230769231 0,0.23625 )"
						stroke-width ="0.1"
						fill="rgb(187.5,195.5,182.5)"
						/></g><g id="flower2" transform="skewX(9) skewY(9)">
						<path d="M 0,0
						Q 1.28,0.375 0,0.4725"
						stroke="rgb(43,47,20)" 
						fill="transparent"
						stroke-width ="0.3" /><path d="M 0,0.4725 
						q 0.1 0.15 0.1525,0.15 q 0.125 0.125 0.2975,0.15 q 0.225 0.175 -0.34,0.15 q 0.475 0.125 0.5075,0.15 q 0.175 0.2 -0.6175,1 
						M 0,0.4725 
						q -0.1 0.15 -0.1525,0.15 q -0.125 0.125 -0.2975,0.15 q -0.225 0.175 0.34,0.15 q -0.475 0.125 -0.5075,0.15 q -0.175 0.2 0.6175,1 " 
						transform="rotate(0 0,0.4725 )"
						stroke-width ="0.1"
						fill="rgb(176,210,189)"
						/><circle cx="0" cy="0.4725" r="0.0975" fill="rgb(94,166,108)"/><circle cx="-0.1" cy="0.4025" r="0.065" fill="rgb(111.5,190.5,116.5)"/><path d="M 0,0.4725 
						q 0.1 0.15 0.1525,0.15 q 0.125 0.125 0.2975,0.15 q 0.225 0.175 -0.34,0.15 q 0.475 0.125 0.5075,0.15 q 0.175 0.2 -0.6175,1 
						M 0,0.4725 
						q -0.1 0.15 -0.1525,0.15 q -0.125 0.125 -0.2975,0.15 q -0.225 0.175 0.34,0.15 q -0.475 0.125 -0.5075,0.15 q -0.175 0.2 0.6175,1 " 
						transform="rotate(83.076923076923 0,0.4725 )"
						stroke-width ="0.1"
						fill="rgb(184.5,205.5,190.5)"
						/><circle cx="0" cy="0.4725" r="0.0975" fill="rgb(94,166,108)"/><circle cx="-0.05" cy="0.5525" r="0.065" fill="rgb(111.5,190.5,116.5)"/><path d="M 0,0.4725 
						q 0.1 0.15 0.1525,0.15 q 0.125 0.125 0.2975,0.15 q 0.225 0.175 -0.34,0.15 q 0.475 0.125 0.5075,0.15 q 0.175 0.2 -0.6175,1 
						M 0,0.4725 
						q -0.1 0.15 -0.1525,0.15 q -0.125 0.125 -0.2975,0.15 q -0.225 0.175 0.34,0.15 q -0.475 0.125 -0.5075,0.15 q -0.175 0.2 0.6175,1 " 
						transform="rotate(166.15384615385 0,0.4725 )"
						stroke-width ="0.1"
						fill="rgb(184,187,186)"
						/><circle cx="0" cy="0.4725" r="0.0975" fill="rgb(94,166,108)"/><circle cx="0" cy="0.3825" r="0.065" fill="rgb(111.5,190.5,116.5)"/><path d="M 0,0.4725 
						q 0.1 0.15 0.1525,0.15 q 0.125 0.125 0.2975,0.15 q 0.225 0.175 -0.34,0.15 q 0.475 0.125 0.5075,0.15 q 0.175 0.2 -0.6175,1 
						M 0,0.4725 
						q -0.1 0.15 -0.1525,0.15 q -0.125 0.125 -0.2975,0.15 q -0.225 0.175 0.34,0.15 q -0.475 0.125 -0.5075,0.15 q -0.175 0.2 0.6175,1 " 
						transform="rotate(249.23076923077 0,0.4725 )"
						stroke-width ="0.1"
						fill="rgb(173.5,193.5,197.5)"
						/><circle cx="0" cy="0.4725" r="0.0975" fill="rgb(94,166,108)"/><circle cx="-0.09" cy="0.3725" r="0.065" fill="rgb(111.5,190.5,116.5)"/><path d="M 0,0.4725 
						q 0.1 0.15 0.1525,0.15 q 0.125 0.125 0.2975,0.15 q 0.225 0.175 -0.34,0.15 q 0.475 0.125 0.5075,0.15 q 0.175 0.2 -0.6175,1 
						M 0,0.4725 
						q -0.1 0.15 -0.1525,0.15 q -0.125 0.125 -0.2975,0.15 q -0.225 0.175 0.34,0.15 q -0.475 0.125 -0.5075,0.15 q -0.175 0.2 0.6175,1 " 
						transform="rotate(332.30769230769 0,0.4725 )"
						stroke-width ="0.1"
						fill="rgb(180,190,177)"
						/><circle cx="0" cy="0.4725" r="0.0975" fill="rgb(94,166,108)"/><circle cx="-0.06" cy="0.4225" r="0.065" fill="rgb(111.5,190.5,116.5)"/><path d="M 0,0.4725 
						q 0.1 0.15 0.1525,0.15 q 0.125 0.125 0.2975,0.15 q 0.225 0.175 -0.34,0.15 q 0.475 0.125 0.5075,0.15 q 0.175 0.2 -0.6175,1 
						M 0,0.4725 
						q -0.1 0.15 -0.1525,0.15 q -0.125 0.125 -0.2975,0.15 q -0.225 0.175 0.34,0.15 q -0.475 0.125 -0.5075,0.15 q -0.175 0.2 0.6175,1 " 
						transform="rotate(415.38461538462 0,0.4725 )"
						stroke-width ="0.1"
						fill="rgb(182.5,191.5,187.5)"
						/><circle cx="0" cy="0.4725" r="0.0975" fill="rgb(94,166,108)"/><circle cx="-0.09" cy="0.5625" r="0.065" fill="rgb(111.5,190.5,116.5)"/><path d="M 0,0.4725 
						q 0.1 0.15 0.1525,0.15 q 0.125 0.125 0.2975,0.15 q 0.225 0.175 -0.34,0.15 q 0.475 0.125 0.5075,0.15 q 0.175 0.2 -0.6175,1 
						M 0,0.4725 
						q -0.1 0.15 -0.1525,0.15 q -0.125 0.125 -0.2975,0.15 q -0.225 0.175 0.34,0.15 q -0.475 0.125 -0.5075,0.15 q -0.175 0.2 0.6175,1 " 
						transform="rotate(498.46153846154 0,0.4725 )"
						stroke-width ="0.1"
						fill="rgb(174,182,189)"
						/><circle cx="0" cy="0.4725" r="0.0975" fill="rgb(94,166,108)"/><circle cx="0.02" cy="0.4625" r="0.065" fill="rgb(111.5,190.5,116.5)"/><path d="M 0,0.4725 
						q 0.1 0.15 0.1525,0.15 q 0.125 0.125 0.2975,0.15 q 0.225 0.175 -0.34,0.15 q 0.475 0.125 0.5075,0.15 q 0.175 0.2 -0.6175,1 
						M 0,0.4725 
						q -0.1 0.15 -0.1525,0.15 q -0.125 0.125 -0.2975,0.15 q -0.225 0.175 0.34,0.15 q -0.475 0.125 -0.5075,0.15 q -0.175 0.2 0.6175,1 " 
						transform="rotate(581.53846153846 0,0.4725 )"
						stroke-width ="0.1"
						fill="rgb(178.5,186.5,180.5)"
						/><circle cx="0" cy="0.4725" r="0.0975" fill="rgb(94,166,108)"/><circle cx="-0.01" cy="0.4125" r="0.065" fill="rgb(111.5,190.5,116.5)"/><path d="M 0,0.4725 
						q 0.1 0.15 0.1525,0.15 q 0.125 0.125 0.2975,0.15 q 0.225 0.175 -0.34,0.15 q 0.475 0.125 0.5075,0.15 q 0.175 0.2 -0.6175,1 
						M 0,0.4725 
						q -0.1 0.15 -0.1525,0.15 q -0.125 0.125 -0.2975,0.15 q -0.225 0.175 0.34,0.15 q -0.475 0.125 -0.5075,0.15 q -0.175 0.2 0.6175,1 " 
						transform="rotate(664.61538461538 0,0.4725 )"
						stroke-width ="0.1"
						fill="rgb(159,175,177)"
						/><circle cx="0" cy="0.4725" r="0.0975" fill="rgb(94,166,108)"/><circle cx="-0.09" cy="0.5525" r="0.065" fill="rgb(111.5,190.5,116.5)"/><path d="M 0,0.4725 
						q 0.1 0.15 0.1525,0.15 q 0.125 0.125 0.2975,0.15 q 0.225 0.175 -0.34,0.15 q 0.475 0.125 0.5075,0.15 q 0.175 0.2 -0.6175,1 
						M 0,0.4725 
						q -0.1 0.15 -0.1525,0.15 q -0.125 0.125 -0.2975,0.15 q -0.225 0.175 0.34,0.15 q -0.475 0.125 -0.5075,0.15 q -0.175 0.2 0.6175,1 " 
						transform="rotate(747.69230769231 0,0.4725 )"
						stroke-width ="0.1"
						fill="rgb(164.5,181.5,168.5)"
						/><circle cx="0" cy="0.4725" r="0.0975" fill="rgb(94,166,108)"/><circle cx="-0.1" cy="0.4125" r="0.065" fill="rgb(111.5,190.5,116.5)"/><path d="M 0,0.4725 
						q 0.1 0.15 0.1525,0.15 q 0.125 0.125 0.2975,0.15 q 0.225 0.175 -0.34,0.15 q 0.475 0.125 0.5075,0.15 q 0.175 0.2 -0.6175,1 
						M 0,0.4725 
						q -0.1 0.15 -0.1525,0.15 q -0.125 0.125 -0.2975,0.15 q -0.225 0.175 0.34,0.15 q -0.475 0.125 -0.5075,0.15 q -0.175 0.2 0.6175,1 " 
						transform="rotate(830.76923076923 0,0.4725 )"
						stroke-width ="0.1"
						fill="rgb(164,176,171)"
						/><circle cx="0" cy="0.4725" r="0.0975" fill="rgb(94,166,108)"/><circle cx="-0.02" cy="0.4925" r="0.065" fill="rgb(111.5,190.5,116.5)"/><path d="M 0,0.4725 
						q 0.1 0.15 0.1525,0.15 q 0.125 0.125 0.2975,0.15 q 0.225 0.175 -0.34,0.15 q 0.475 0.125 0.5075,0.15 q 0.175 0.2 -0.6175,1 
						M 0,0.4725 
						q -0.1 0.15 -0.1525,0.15 q -0.125 0.125 -0.2975,0.15 q -0.225 0.175 0.34,0.15 q -0.475 0.125 -0.5075,0.15 q -0.175 0.2 0.6175,1 " 
						transform="rotate(913.84615384615 0,0.4725 )"
						stroke-width ="0.1"
						fill="rgb(155.5,165.5,163.5)"
						/><circle cx="0" cy="0.4725" r="0.0975" fill="rgb(94,166,108)"/><circle cx="0.06" cy="0.4225" r="0.065" fill="rgb(111.5,190.5,116.5)"/><path d="M 0,0.4725 
						q 0.1 0.15 0.1525,0.15 q 0.125 0.125 0.2975,0.15 q 0.225 0.175 -0.34,0.15 q 0.475 0.125 0.5075,0.15 q 0.175 0.2 -0.6175,1 
						M 0,0.4725 
						q -0.1 0.15 -0.1525,0.15 q -0.125 0.125 -0.2975,0.15 q -0.225 0.175 0.34,0.15 q -0.475 0.125 -0.5075,0.15 q -0.175 0.2 0.6175,1 " 
						transform="rotate(996.92307692308 0,0.4725 )"
						stroke-width ="0.1"
						fill="rgb(159,163,171)"
						/><circle cx="0" cy="0.4725" r="0.0975" fill="rgb(94,166,108)"/><circle cx="0.03" cy="0.5225" r="0.065" fill="rgb(111.5,190.5,116.5)"/><path d="M 0,0.4725 
						q 0.1 0.15 0.1525,0.15 q 0.125 0.125 0.2975,0.15 q 0.225 0.175 -0.34,0.15 q 0.475 0.125 0.5075,0.15 q 0.175 0.2 -0.6175,1 
						M 0,0.4725 
						q -0.1 0.15 -0.1525,0.15 q -0.125 0.125 -0.2975,0.15 q -0.225 0.175 0.34,0.15 q -0.475 0.125 -0.5075,0.15 q -0.175 0.2 0.6175,1 " 
						transform="rotate(1080 0,0.4725 )"
						stroke-width ="0.1"
						fill="rgb(149.5,162.5,152.5)"
						/><circle cx="0" cy="0.4725" r="0.0975" fill="rgb(94,166,108)"/><circle cx="-0.01" cy="0.3925" r="0.065" fill="rgb(111.5,190.5,116.5)"/></g><g id="flower3" transform="skewX(-2) skewY(-2)">
						<path d="M 0,0
						Q -0.63,0.5625 0,0.70875"
						stroke="rgb(43,47,20)" 
						fill="transparent"
						stroke-width ="0.3" /><path d="M 0,0.70875 
						q 0.15 0.225 0.22875,0.225 q 0.1875 0.1875 0.44625,0.225 q 0.3375 0.2625 -0.51,0.225 q 0.7125 0.1875 0.76125,0.225 q 0.2625 0.3 -0.92625,1 
						M 0,0.70875 
						q -0.15 0.225 -0.22875,0.225 q -0.1875 0.1875 -0.44625,0.225 q -0.3375 0.2625 0.51,0.225 q -0.7125 0.1875 -0.76125,0.225 q -0.2625 0.3 0.92625,1 " 
						transform="rotate(0 0,0.70875 )"
						stroke-width ="0.1"
						fill="rgb(184,194,192)"
						/><circle cx="0" cy="0.70875" r="0.14625" fill="rgb(97,172,107)"/><circle cx="-0.08" cy="0.76875" r="0.0975" fill="rgb(98.5,172.5,120.5)"/><path d="M 0,0.70875 
						q 0.15 0.225 0.22875,0.225 q 0.1875 0.1875 0.44625,0.225 q 0.3375 0.2625 -0.51,0.225 q 0.7125 0.1875 0.76125,0.225 q 0.2625 0.3 -0.92625,1 
						M 0,0.70875 
						q -0.15 0.225 -0.22875,0.225 q -0.1875 0.1875 -0.44625,0.225 q -0.3375 0.2625 0.51,0.225 q -0.7125 0.1875 -0.76125,0.225 q -0.2625 0.3 0.92625,1 " 
						transform="rotate(83.076923076923 0,0.70875 )"
						stroke-width ="0.1"
						fill="rgb(183.5,203.5,192.5)"
						/><circle cx="0" cy="0.70875" r="0.14625" fill="rgb(97,172,107)"/><circle cx="-0.01" cy="0.78875" r="0.0975" fill="rgb(98.5,172.5,120.5)"/><path d="M 0,0.70875 
						q 0.15 0.225 0.22875,0.225 q 0.1875 0.1875 0.44625,0.225 q 0.3375 0.2625 -0.51,0.225 q 0.7125 0.1875 0.76125,0.225 q 0.2625 0.3 -0.92625,1 
						M 0,0.70875 
						q -0.15 0.225 -0.22875,0.225 q -0.1875 0.1875 -0.44625,0.225 q -0.3375 0.2625 0.51,0.225 q -0.7125 0.1875 -0.76125,0.225 q -0.2625 0.3 0.92625,1 " 
						transform="rotate(166.15384615385 0,0.70875 )"
						stroke-width ="0.1"
						fill="rgb(174,200,193)"
						/><circle cx="0" cy="0.70875" r="0.14625" fill="rgb(97,172,107)"/><circle cx="0.04" cy="0.74875" r="0.0975" fill="rgb(98.5,172.5,120.5)"/><path d="M 0,0.70875 
						q 0.15 0.225 0.22875,0.225 q 0.1875 0.1875 0.44625,0.225 q 0.3375 0.2625 -0.51,0.225 q 0.7125 0.1875 0.76125,0.225 q 0.2625 0.3 -0.92625,1 
						M 0,0.70875 
						q -0.15 0.225 -0.22875,0.225 q -0.1875 0.1875 -0.44625,0.225 q -0.3375 0.2625 0.51,0.225 q -0.7125 0.1875 -0.76125,0.225 q -0.2625 0.3 0.92625,1 " 
						transform="rotate(249.23076923077 0,0.70875 )"
						stroke-width ="0.1"
						fill="rgb(169.5,199.5,180.5)"
						/><circle cx="0" cy="0.70875" r="0.14625" fill="rgb(97,172,107)"/><circle cx="-0.04" cy="0.74875" r="0.0975" fill="rgb(98.5,172.5,120.5)"/><path d="M 0,0.70875 
						q 0.15 0.225 0.22875,0.225 q 0.1875 0.1875 0.44625,0.225 q 0.3375 0.2625 -0.51,0.225 q 0.7125 0.1875 0.76125,0.225 q 0.2625 0.3 -0.92625,1 
						M 0,0.70875 
						q -0.15 0.225 -0.22875,0.225 q -0.1875 0.1875 -0.44625,0.225 q -0.3375 0.2625 0.51,0.225 q -0.7125 0.1875 -0.76125,0.225 q -0.2625 0.3 0.92625,1 " 
						transform="rotate(332.30769230769 0,0.70875 )"
						stroke-width ="0.1"
						fill="rgb(178,198,177)"
						/><circle cx="0" cy="0.70875" r="0.14625" fill="rgb(97,172,107)"/><circle cx="0.1" cy="0.79875" r="0.0975" fill="rgb(98.5,172.5,120.5)"/><path d="M 0,0.70875 
						q 0.15 0.225 0.22875,0.225 q 0.1875 0.1875 0.44625,0.225 q 0.3375 0.2625 -0.51,0.225 q 0.7125 0.1875 0.76125,0.225 q 0.2625 0.3 -0.92625,1 
						M 0,0.70875 
						q -0.15 0.225 -0.22875,0.225 q -0.1875 0.1875 -0.44625,0.225 q -0.3375 0.2625 0.51,0.225 q -0.7125 0.1875 -0.76125,0.225 q -0.2625 0.3 0.92625,1 " 
						transform="rotate(415.38461538462 0,0.70875 )"
						stroke-width ="0.1"
						fill="rgb(163.5,185.5,181.5)"
						/><circle cx="0" cy="0.70875" r="0.14625" fill="rgb(97,172,107)"/><circle cx="0.02" cy="0.60875" r="0.0975" fill="rgb(98.5,172.5,120.5)"/><path d="M 0,0.70875 
						q 0.15 0.225 0.22875,0.225 q 0.1875 0.1875 0.44625,0.225 q 0.3375 0.2625 -0.51,0.225 q 0.7125 0.1875 0.76125,0.225 q 0.2625 0.3 -0.92625,1 
						M 0,0.70875 
						q -0.15 0.225 -0.22875,0.225 q -0.1875 0.1875 -0.44625,0.225 q -0.3375 0.2625 0.51,0.225 q -0.7125 0.1875 -0.76125,0.225 q -0.2625 0.3 0.92625,1 " 
						transform="rotate(498.46153846154 0,0.70875 )"
						stroke-width ="0.1"
						fill="rgb(164,193,179)"
						/><circle cx="0" cy="0.70875" r="0.14625" fill="rgb(97,172,107)"/><circle cx="0.02" cy="0.73875" r="0.0975" fill="rgb(98.5,172.5,120.5)"/><path d="M 0,0.70875 
						q 0.15 0.225 0.22875,0.225 q 0.1875 0.1875 0.44625,0.225 q 0.3375 0.2625 -0.51,0.225 q 0.7125 0.1875 0.76125,0.225 q 0.2625 0.3 -0.92625,1 
						M 0,0.70875 
						q -0.15 0.225 -0.22875,0.225 q -0.1875 0.1875 -0.44625,0.225 q -0.3375 0.2625 0.51,0.225 q -0.7125 0.1875 -0.76125,0.225 q -0.2625 0.3 0.92625,1 " 
						transform="rotate(581.53846153846 0,0.70875 )"
						stroke-width ="0.1"
						fill="rgb(160.5,189.5,182.5)"
						/><circle cx="0" cy="0.70875" r="0.14625" fill="rgb(97,172,107)"/><circle cx="-0.04" cy="0.69875" r="0.0975" fill="rgb(98.5,172.5,120.5)"/><path d="M 0,0.70875 
						q 0.15 0.225 0.22875,0.225 q 0.1875 0.1875 0.44625,0.225 q 0.3375 0.2625 -0.51,0.225 q 0.7125 0.1875 0.76125,0.225 q 0.2625 0.3 -0.92625,1 
						M 0,0.70875 
						q -0.15 0.225 -0.22875,0.225 q -0.1875 0.1875 -0.44625,0.225 q -0.3375 0.2625 0.51,0.225 q -0.7125 0.1875 -0.76125,0.225 q -0.2625 0.3 0.92625,1 " 
						transform="rotate(664.61538461538 0,0.70875 )"
						stroke-width ="0.1"
						fill="rgb(175,171,171)"
						/><circle cx="0" cy="0.70875" r="0.14625" fill="rgb(97,172,107)"/><circle cx="-0.04" cy="0.64875" r="0.0975" fill="rgb(98.5,172.5,120.5)"/><path d="M 0,0.70875 
						q 0.15 0.225 0.22875,0.225 q 0.1875 0.1875 0.44625,0.225 q 0.3375 0.2625 -0.51,0.225 q 0.7125 0.1875 0.76125,0.225 q 0.2625 0.3 -0.92625,1 
						M 0,0.70875 
						q -0.15 0.225 -0.22875,0.225 q -0.1875 0.1875 -0.44625,0.225 q -0.3375 0.2625 0.51,0.225 q -0.7125 0.1875 -0.76125,0.225 q -0.2625 0.3 0.92625,1 " 
						transform="rotate(747.69230769231 0,0.70875 )"
						stroke-width ="0.1"
						fill="rgb(169.5,169.5,177.5)"
						/><circle cx="0" cy="0.70875" r="0.14625" fill="rgb(97,172,107)"/><circle cx="0.01" cy="0.79875" r="0.0975" fill="rgb(98.5,172.5,120.5)"/><path d="M 0,0.70875 
						q 0.15 0.225 0.22875,0.225 q 0.1875 0.1875 0.44625,0.225 q 0.3375 0.2625 -0.51,0.225 q 0.7125 0.1875 0.76125,0.225 q 0.2625 0.3 -0.92625,1 
						M 0,0.70875 
						q -0.15 0.225 -0.22875,0.225 q -0.1875 0.1875 -0.44625,0.225 q -0.3375 0.2625 0.51,0.225 q -0.7125 0.1875 -0.76125,0.225 q -0.2625 0.3 0.92625,1 " 
						transform="rotate(830.76923076923 0,0.70875 )"
						stroke-width ="0.1"
						fill="rgb(165,171,180)"
						/><circle cx="0" cy="0.70875" r="0.14625" fill="rgb(97,172,107)"/><circle cx="-0.03" cy="0.66875" r="0.0975" fill="rgb(98.5,172.5,120.5)"/><path d="M 0,0.70875 
						q 0.15 0.225 0.22875,0.225 q 0.1875 0.1875 0.44625,0.225 q 0.3375 0.2625 -0.51,0.225 q 0.7125 0.1875 0.76125,0.225 q 0.2625 0.3 -0.92625,1 
						M 0,0.70875 
						q -0.15 0.225 -0.22875,0.225 q -0.1875 0.1875 -0.44625,0.225 q -0.3375 0.2625 0.51,0.225 q -0.7125 0.1875 -0.76125,0.225 q -0.2625 0.3 0.92625,1 " 
						transform="rotate(913.84615384615 0,0.70875 )"
						stroke-width ="0.1"
						fill="rgb(151.5,171.5,157.5)"
						/><circle cx="0" cy="0.70875" r="0.14625" fill="rgb(97,172,107)"/><circle cx="0.03" cy="0.69875" r="0.0975" fill="rgb(98.5,172.5,120.5)"/><path d="M 0,0.70875 
						q 0.15 0.225 0.22875,0.225 q 0.1875 0.1875 0.44625,0.225 q 0.3375 0.2625 -0.51,0.225 q 0.7125 0.1875 0.76125,0.225 q 0.2625 0.3 -0.92625,1 
						M 0,0.70875 
						q -0.15 0.225 -0.22875,0.225 q -0.1875 0.1875 -0.44625,0.225 q -0.3375 0.2625 0.51,0.225 q -0.7125 0.1875 -0.76125,0.225 q -0.2625 0.3 0.92625,1 " 
						transform="rotate(996.92307692308 0,0.70875 )"
						stroke-width ="0.1"
						fill="rgb(156,177,171)"
						/><circle cx="0" cy="0.70875" r="0.14625" fill="rgb(97,172,107)"/><circle cx="-0.04" cy="0.60875" r="0.0975" fill="rgb(98.5,172.5,120.5)"/><path d="M 0,0.70875 
						q 0.15 0.225 0.22875,0.225 q 0.1875 0.1875 0.44625,0.225 q 0.3375 0.2625 -0.51,0.225 q 0.7125 0.1875 0.76125,0.225 q 0.2625 0.3 -0.92625,1 
						M 0,0.70875 
						q -0.15 0.225 -0.22875,0.225 q -0.1875 0.1875 -0.44625,0.225 q -0.3375 0.2625 0.51,0.225 q -0.7125 0.1875 -0.76125,0.225 q -0.2625 0.3 0.92625,1 " 
						transform="rotate(1080 0,0.70875 )"
						stroke-width ="0.1"
						fill="rgb(150.5,172.5,163.5)"
						/><circle cx="0" cy="0.70875" r="0.14625" fill="rgb(97,172,107)"/><circle cx="0.01" cy="0.62875" r="0.0975" fill="rgb(98.5,172.5,120.5)"/></g><g id="flower4" transform="skewX(3) skewY(3)">
						<path d="M 0,0
						Q 0.02,0.75 0,0.945"
						stroke="rgb(43,47,20)" 
						fill="transparent"
						stroke-width ="0.3" /><path d="M 0,0.945 
						q 0.2 0.3 0.305,0.3 q 0.25 0.25 0.595,0.3 q 0.45 0.35 -0.68,0.3 q 0.95 0.25 1.015,0.3 q 0.35 0.4 -1.235,1 
						M 0,0.945 
						q -0.2 0.3 -0.305,0.3 q -0.25 0.25 -0.595,0.3 q -0.45 0.35 0.68,0.3 q -0.95 0.25 -1.015,0.3 q -0.35 0.4 1.235,1 " 
						transform="rotate(0 0,0.945 )"
						stroke-width ="0.1"
						fill="rgb(178,198,199)"
						/><circle cx="0" cy="0.945" r="0.195" fill="rgb(90,169,106)"/><circle cx="-0.07" cy="0.885" r="0.13" fill="rgb(100.5,183.5,112.5)"/><path d="M 0,0.945 
						q 0.2 0.3 0.305,0.3 q 0.25 0.25 0.595,0.3 q 0.45 0.35 -0.68,0.3 q 0.95 0.25 1.015,0.3 q 0.35 0.4 -1.235,1 
						M 0,0.945 
						q -0.2 0.3 -0.305,0.3 q -0.25 0.25 -0.595,0.3 q -0.45 0.35 0.68,0.3 q -0.95 0.25 -1.015,0.3 q -0.35 0.4 1.235,1 " 
						transform="rotate(83.076923076923 0,0.945 )"
						stroke-width ="0.1"
						fill="rgb(178.5,207.5,189.5)"
						/><circle cx="0" cy="0.945" r="0.195" fill="rgb(90,169,106)"/><circle cx="-0.06" cy="1.025" r="0.13" fill="rgb(100.5,183.5,112.5)"/><path d="M 0,0.945 
						q 0.2 0.3 0.305,0.3 q 0.25 0.25 0.595,0.3 q 0.45 0.35 -0.68,0.3 q 0.95 0.25 1.015,0.3 q 0.35 0.4 -1.235,1 
						M 0,0.945 
						q -0.2 0.3 -0.305,0.3 q -0.25 0.25 -0.595,0.3 q -0.45 0.35 0.68,0.3 q -0.95 0.25 -1.015,0.3 q -0.35 0.4 1.235,1 " 
						transform="rotate(166.15384615385 0,0.945 )"
						stroke-width ="0.1"
						fill="rgb(179,193,189)"
						/><circle cx="0" cy="0.945" r="0.195" fill="rgb(90,169,106)"/><circle cx="-0.05" cy="0.915" r="0.13" fill="rgb(100.5,183.5,112.5)"/><path d="M 0,0.945 
						q 0.2 0.3 0.305,0.3 q 0.25 0.25 0.595,0.3 q 0.45 0.35 -0.68,0.3 q 0.95 0.25 1.015,0.3 q 0.35 0.4 -1.235,1 
						M 0,0.945 
						q -0.2 0.3 -0.305,0.3 q -0.25 0.25 -0.595,0.3 q -0.45 0.35 0.68,0.3 q -0.95 0.25 -1.015,0.3 q -0.35 0.4 1.235,1 " 
						transform="rotate(249.23076923077 0,0.945 )"
						stroke-width ="0.1"
						fill="rgb(179.5,199.5,195.5)"
						/><circle cx="0" cy="0.945" r="0.195" fill="rgb(90,169,106)"/><circle cx="0.07" cy="0.955" r="0.13" fill="rgb(100.5,183.5,112.5)"/><path d="M 0,0.945 
						q 0.2 0.3 0.305,0.3 q 0.25 0.25 0.595,0.3 q 0.45 0.35 -0.68,0.3 q 0.95 0.25 1.015,0.3 q 0.35 0.4 -1.235,1 
						M 0,0.945 
						q -0.2 0.3 -0.305,0.3 q -0.25 0.25 -0.595,0.3 q -0.45 0.35 0.68,0.3 q -0.95 0.25 -1.015,0.3 q -0.35 0.4 1.235,1 " 
						transform="rotate(332.30769230769 0,0.945 )"
						stroke-width ="0.1"
						fill="rgb(185,188,194)"
						/><circle cx="0" cy="0.945" r="0.195" fill="rgb(90,169,106)"/><circle cx="0.07" cy="1.025" r="0.13" fill="rgb(100.5,183.5,112.5)"/><path d="M 0,0.945 
						q 0.2 0.3 0.305,0.3 q 0.25 0.25 0.595,0.3 q 0.45 0.35 -0.68,0.3 q 0.95 0.25 1.015,0.3 q 0.35 0.4 -1.235,1 
						M 0,0.945 
						q -0.2 0.3 -0.305,0.3 q -0.25 0.25 -0.595,0.3 q -0.45 0.35 0.68,0.3 q -0.95 0.25 -1.015,0.3 q -0.35 0.4 1.235,1 " 
						transform="rotate(415.38461538462 0,0.945 )"
						stroke-width ="0.1"
						fill="rgb(183.5,178.5,190.5)"
						/><circle cx="0" cy="0.945" r="0.195" fill="rgb(90,169,106)"/><circle cx="0.04" cy="1.025" r="0.13" fill="rgb(100.5,183.5,112.5)"/><path d="M 0,0.945 
						q 0.2 0.3 0.305,0.3 q 0.25 0.25 0.595,0.3 q 0.45 0.35 -0.68,0.3 q 0.95 0.25 1.015,0.3 q 0.35 0.4 -1.235,1 
						M 0,0.945 
						q -0.2 0.3 -0.305,0.3 q -0.25 0.25 -0.595,0.3 q -0.45 0.35 0.68,0.3 q -0.95 0.25 -1.015,0.3 q -0.35 0.4 1.235,1 " 
						transform="rotate(498.46153846154 0,0.945 )"
						stroke-width ="0.1"
						fill="rgb(180,188,190)"
						/><circle cx="0" cy="0.945" r="0.195" fill="rgb(90,169,106)"/><circle cx="-0.08" cy="1.025" r="0.13" fill="rgb(100.5,183.5,112.5)"/><path d="M 0,0.945 
						q 0.2 0.3 0.305,0.3 q 0.25 0.25 0.595,0.3 q 0.45 0.35 -0.68,0.3 q 0.95 0.25 1.015,0.3 q 0.35 0.4 -1.235,1 
						M 0,0.945 
						q -0.2 0.3 -0.305,0.3 q -0.25 0.25 -0.595,0.3 q -0.45 0.35 0.68,0.3 q -0.95 0.25 -1.015,0.3 q -0.35 0.4 1.235,1 " 
						transform="rotate(581.53846153846 0,0.945 )"
						stroke-width ="0.1"
						fill="rgb(162.5,191.5,185.5)"
						/><circle cx="0" cy="0.945" r="0.195" fill="rgb(90,169,106)"/><circle cx="-0.02" cy="0.915" r="0.13" fill="rgb(100.5,183.5,112.5)"/><path d="M 0,0.945 
						q 0.2 0.3 0.305,0.3 q 0.25 0.25 0.595,0.3 q 0.45 0.35 -0.68,0.3 q 0.95 0.25 1.015,0.3 q 0.35 0.4 -1.235,1 
						M 0,0.945 
						q -0.2 0.3 -0.305,0.3 q -0.25 0.25 -0.595,0.3 q -0.45 0.35 0.68,0.3 q -0.95 0.25 -1.015,0.3 q -0.35 0.4 1.235,1 " 
						transform="rotate(664.61538461538 0,0.945 )"
						stroke-width ="0.1"
						fill="rgb(167,177,175)"
						/><circle cx="0" cy="0.945" r="0.195" fill="rgb(90,169,106)"/><circle cx="0.1" cy="0.995" r="0.13" fill="rgb(100.5,183.5,112.5)"/><path d="M 0,0.945 
						q 0.2 0.3 0.305,0.3 q 0.25 0.25 0.595,0.3 q 0.45 0.35 -0.68,0.3 q 0.95 0.25 1.015,0.3 q 0.35 0.4 -1.235,1 
						M 0,0.945 
						q -0.2 0.3 -0.305,0.3 q -0.25 0.25 -0.595,0.3 q -0.45 0.35 0.68,0.3 q -0.95 0.25 -1.015,0.3 q -0.35 0.4 1.235,1 " 
						transform="rotate(747.69230769231 0,0.945 )"
						stroke-width ="0.1"
						fill="rgb(160.5,178.5,176.5)"
						/><circle cx="0" cy="0.945" r="0.195" fill="rgb(90,169,106)"/><circle cx="0.05" cy="0.845" r="0.13" fill="rgb(100.5,183.5,112.5)"/><path d="M 0,0.945 
						q 0.2 0.3 0.305,0.3 q 0.25 0.25 0.595,0.3 q 0.45 0.35 -0.68,0.3 q 0.95 0.25 1.015,0.3 q 0.35 0.4 -1.235,1 
						M 0,0.945 
						q -0.2 0.3 -0.305,0.3 q -0.25 0.25 -0.595,0.3 q -0.45 0.35 0.68,0.3 q -0.95 0.25 -1.015,0.3 q -0.35 0.4 1.235,1 " 
						transform="rotate(830.76923076923 0,0.945 )"
						stroke-width ="0.1"
						fill="rgb(152,173,163)"
						/><circle cx="0" cy="0.945" r="0.195" fill="rgb(90,169,106)"/><circle cx="-0.01" cy="0.905" r="0.13" fill="rgb(100.5,183.5,112.5)"/><path d="M 0,0.945 
						q 0.2 0.3 0.305,0.3 q 0.25 0.25 0.595,0.3 q 0.45 0.35 -0.68,0.3 q 0.95 0.25 1.015,0.3 q 0.35 0.4 -1.235,1 
						M 0,0.945 
						q -0.2 0.3 -0.305,0.3 q -0.25 0.25 -0.595,0.3 q -0.45 0.35 0.68,0.3 q -0.95 0.25 -1.015,0.3 q -0.35 0.4 1.235,1 " 
						transform="rotate(913.84615384615 0,0.945 )"
						stroke-width ="0.1"
						fill="rgb(150.5,165.5,167.5)"
						/><circle cx="0" cy="0.945" r="0.195" fill="rgb(90,169,106)"/><circle cx="0.01" cy="1.015" r="0.13" fill="rgb(100.5,183.5,112.5)"/><path d="M 0,0.945 
						q 0.2 0.3 0.305,0.3 q 0.25 0.25 0.595,0.3 q 0.45 0.35 -0.68,0.3 q 0.95 0.25 1.015,0.3 q 0.35 0.4 -1.235,1 
						M 0,0.945 
						q -0.2 0.3 -0.305,0.3 q -0.25 0.25 -0.595,0.3 q -0.45 0.35 0.68,0.3 q -0.95 0.25 -1.015,0.3 q -0.35 0.4 1.235,1 " 
						transform="rotate(996.92307692308 0,0.945 )"
						stroke-width ="0.1"
						fill="rgb(151,164,161)"
						/><circle cx="0" cy="0.945" r="0.195" fill="rgb(90,169,106)"/><circle cx="0.08" cy="0.865" r="0.13" fill="rgb(100.5,183.5,112.5)"/><path d="M 0,0.945 
						q 0.2 0.3 0.305,0.3 q 0.25 0.25 0.595,0.3 q 0.45 0.35 -0.68,0.3 q 0.95 0.25 1.015,0.3 q 0.35 0.4 -1.235,1 
						M 0,0.945 
						q -0.2 0.3 -0.305,0.3 q -0.25 0.25 -0.595,0.3 q -0.45 0.35 0.68,0.3 q -0.95 0.25 -1.015,0.3 q -0.35 0.4 1.235,1 " 
						transform="rotate(1080 0,0.945 )"
						stroke-width ="0.1"
						fill="rgb(158.5,161.5,159.5)"
						/><circle cx="0" cy="0.945" r="0.195" fill="rgb(90,169,106)"/><circle cx="-0.05" cy="0.925" r="0.13" fill="rgb(100.5,183.5,112.5)"/></g><g id="flower5" transform="skewX(-4) skewY(-4)">
						<path d="M 0,0
						Q 0.42,0.9375 0,1.18125"
						stroke="rgb(43,47,20)" 
						fill="transparent"
						stroke-width ="0.3" /><path d="M 0,1.18125 
						q 0.25 0.375 0.38125,0.375 q 0.3125 0.3125 0.74375,0.375 q 0.5625 0.4375 -0.85,0.375 q 1.1875 0.3125 1.26875,0.375 q 0.4375 0.5 -1.54375,1 
						M 0,1.18125 
						q -0.25 0.375 -0.38125,0.375 q -0.3125 0.3125 -0.74375,0.375 q -0.5625 0.4375 0.85,0.375 q -1.1875 0.3125 -1.26875,0.375 q -0.4375 0.5 1.54375,1 " 
						transform="rotate(0 0,1.18125 )"
						stroke-width ="0.1"
						fill="rgb(188,198,192)"
						/><path d="M 0,1.18125 
						q 0.25 0.375 0.38125,0.375 q 0.3125 0.3125 0.74375,0.375 q 0.5625 0.4375 -0.85,0.375 q 1.1875 0.3125 1.26875,0.375 q 0.4375 0.5 -1.54375,1 
						M 0,1.18125 
						q -0.25 0.375 -0.38125,0.375 q -0.3125 0.3125 -0.74375,0.375 q -0.5625 0.4375 0.85,0.375 q -1.1875 0.3125 -1.26875,0.375 q -0.4375 0.5 1.54375,1 " 
						transform="rotate(24.923076923077 0,1.18125 )"
						stroke-width ="0.1"
						fill="rgb(179.5,200.5,197.5)"
						/><path d="M 0,1.18125 
						q 0.25 0.375 0.38125,0.375 q 0.3125 0.3125 0.74375,0.375 q 0.5625 0.4375 -0.85,0.375 q 1.1875 0.3125 1.26875,0.375 q 0.4375 0.5 -1.54375,1 
						M 0,1.18125 
						q -0.25 0.375 -0.38125,0.375 q -0.3125 0.3125 -0.74375,0.375 q -0.5625 0.4375 0.85,0.375 q -1.1875 0.3125 -1.26875,0.375 q -0.4375 0.5 1.54375,1 " 
						transform="rotate(49.846153846154 0,1.18125 )"
						stroke-width ="0.1"
						fill="rgb(183,201,200)"
						/><path d="M 0,1.18125 
						q 0.25 0.375 0.38125,0.375 q 0.3125 0.3125 0.74375,0.375 q 0.5625 0.4375 -0.85,0.375 q 1.1875 0.3125 1.26875,0.375 q 0.4375 0.5 -1.54375,1 
						M 0,1.18125 
						q -0.25 0.375 -0.38125,0.375 q -0.3125 0.3125 -0.74375,0.375 q -0.5625 0.4375 0.85,0.375 q -1.1875 0.3125 -1.26875,0.375 q -0.4375 0.5 1.54375,1 " 
						transform="rotate(74.769230769231 0,1.18125 )"
						stroke-width ="0.1"
						fill="rgb(176.5,195.5,182.5)"
						/></g><g id="flower6" transform="skewX(9) skewY(9)">
						<path d="M 0,0
						Q -0.74,1.125 0,1.4175"
						stroke="rgb(43,47,20)" 
						fill="transparent"
						stroke-width ="0.3" /><path d="M 0,1.4175 
						q 0.3 0.45 0.4575,0.45 q 0.375 0.375 0.8925,0.45 q 0.675 0.525 -1.02,0.45 q 1.425 0.375 1.5225,0.45 q 0.525 0.6 -1.8525,1 
						M 0,1.4175 
						q -0.3 0.45 -0.4575,0.45 q -0.375 0.375 -0.8925,0.45 q -0.675 0.525 1.02,0.45 q -1.425 0.375 -1.5225,0.45 q -0.525 0.6 1.8525,1 " 
						transform="rotate(0 0,1.4175 )"
						stroke-width ="0.1"
						fill="rgb(182,207,201)"
						/><circle cx="0" cy="1.4175" r="0.2925" fill="rgb(98,165,104)"/><circle cx="-0.06" cy="1.5175" r="0.195" fill="rgb(109.5,188.5,109.5)"/><path d="M 0,1.4175 
						q 0.3 0.45 0.4575,0.45 q 0.375 0.375 0.8925,0.45 q 0.675 0.525 -1.02,0.45 q 1.425 0.375 1.5225,0.45 q 0.525 0.6 -1.8525,1 
						M 0,1.4175 
						q -0.3 0.45 -0.4575,0.45 q -0.375 0.375 -0.8925,0.45 q -0.675 0.525 1.02,0.45 q -1.425 0.375 -1.5225,0.45 q -0.525 0.6 1.8525,1 " 
						transform="rotate(83.076923076923 0,1.4175 )"
						stroke-width ="0.1"
						fill="rgb(186.5,195.5,201.5)"
						/><circle cx="0" cy="1.4175" r="0.2925" fill="rgb(98,165,104)"/><circle cx="-0.02" cy="1.3375" r="0.195" fill="rgb(109.5,188.5,109.5)"/><path d="M 0,1.4175 
						q 0.3 0.45 0.4575,0.45 q 0.375 0.375 0.8925,0.45 q 0.675 0.525 -1.02,0.45 q 1.425 0.375 1.5225,0.45 q 0.525 0.6 -1.8525,1 
						M 0,1.4175 
						q -0.3 0.45 -0.4575,0.45 q -0.375 0.375 -0.8925,0.45 q -0.675 0.525 1.02,0.45 q -1.425 0.375 -1.5225,0.45 q -0.525 0.6 1.8525,1 " 
						transform="rotate(166.15384615385 0,1.4175 )"
						stroke-width ="0.1"
						fill="rgb(182,202,184)"
						/><circle cx="0" cy="1.4175" r="0.2925" fill="rgb(98,165,104)"/><circle cx="-0.09" cy="1.4975" r="0.195" fill="rgb(109.5,188.5,109.5)"/><path d="M 0,1.4175 
						q 0.3 0.45 0.4575,0.45 q 0.375 0.375 0.8925,0.45 q 0.675 0.525 -1.02,0.45 q 1.425 0.375 1.5225,0.45 q 0.525 0.6 -1.8525,1 
						M 0,1.4175 
						q -0.3 0.45 -0.4575,0.45 q -0.375 0.375 -0.8925,0.45 q -0.675 0.525 1.02,0.45 q -1.425 0.375 -1.5225,0.45 q -0.525 0.6 1.8525,1 " 
						transform="rotate(249.23076923077 0,1.4175 )"
						stroke-width ="0.1"
						fill="rgb(186.5,186.5,196.5)"
						/><circle cx="0" cy="1.4175" r="0.2925" fill="rgb(98,165,104)"/><circle cx="0.03" cy="1.5175" r="0.195" fill="rgb(109.5,188.5,109.5)"/><path d="M 0,1.4175 
						q 0.3 0.45 0.4575,0.45 q 0.375 0.375 0.8925,0.45 q 0.675 0.525 -1.02,0.45 q 1.425 0.375 1.5225,0.45 q 0.525 0.6 -1.8525,1 
						M 0,1.4175 
						q -0.3 0.45 -0.4575,0.45 q -0.375 0.375 -0.8925,0.45 q -0.675 0.525 1.02,0.45 q -1.425 0.375 -1.5225,0.45 q -0.525 0.6 1.8525,1 " 
						transform="rotate(332.30769230769 0,1.4175 )"
						stroke-width ="0.1"
						fill="rgb(186,193,189)"
						/><circle cx="0" cy="1.4175" r="0.2925" fill="rgb(98,165,104)"/><circle cx="-0.07" cy="1.3975" r="0.195" fill="rgb(109.5,188.5,109.5)"/><path d="M 0,1.4175 
						q 0.3 0.45 0.4575,0.45 q 0.375 0.375 0.8925,0.45 q 0.675 0.525 -1.02,0.45 q 1.425 0.375 1.5225,0.45 q 0.525 0.6 -1.8525,1 
						M 0,1.4175 
						q -0.3 0.45 -0.4575,0.45 q -0.375 0.375 -0.8925,0.45 q -0.675 0.525 1.02,0.45 q -1.425 0.375 -1.5225,0.45 q -0.525 0.6 1.8525,1 " 
						transform="rotate(415.38461538462 0,1.4175 )"
						stroke-width ="0.1"
						fill="rgb(182.5,193.5,180.5)"
						/><circle cx="0" cy="1.4175" r="0.2925" fill="rgb(98,165,104)"/><circle cx="-0.09" cy="1.4775" r="0.195" fill="rgb(109.5,188.5,109.5)"/><path d="M 0,1.4175 
						q 0.3 0.45 0.4575,0.45 q 0.375 0.375 0.8925,0.45 q 0.675 0.525 -1.02,0.45 q 1.425 0.375 1.5225,0.45 q 0.525 0.6 -1.8525,1 
						M 0,1.4175 
						q -0.3 0.45 -0.4575,0.45 q -0.375 0.375 -0.8925,0.45 q -0.675 0.525 1.02,0.45 q -1.425 0.375 -1.5225,0.45 q -0.525 0.6 1.8525,1 " 
						transform="rotate(498.46153846154 0,1.4175 )"
						stroke-width ="0.1"
						fill="rgb(167,179,176)"
						/><circle cx="0" cy="1.4175" r="0.2925" fill="rgb(98,165,104)"/><circle cx="0.07" cy="1.3675" r="0.195" fill="rgb(109.5,188.5,109.5)"/><path d="M 0,1.4175 
						q 0.3 0.45 0.4575,0.45 q 0.375 0.375 0.8925,0.45 q 0.675 0.525 -1.02,0.45 q 1.425 0.375 1.5225,0.45 q 0.525 0.6 -1.8525,1 
						M 0,1.4175 
						q -0.3 0.45 -0.4575,0.45 q -0.375 0.375 -0.8925,0.45 q -0.675 0.525 1.02,0.45 q -1.425 0.375 -1.5225,0.45 q -0.525 0.6 1.8525,1 " 
						transform="rotate(581.53846153846 0,1.4175 )"
						stroke-width ="0.1"
						fill="rgb(162.5,177.5,169.5)"
						/><circle cx="0" cy="1.4175" r="0.2925" fill="rgb(98,165,104)"/><circle cx="-0.09" cy="1.4075" r="0.195" fill="rgb(109.5,188.5,109.5)"/><path d="M 0,1.4175 
						q 0.3 0.45 0.4575,0.45 q 0.375 0.375 0.8925,0.45 q 0.675 0.525 -1.02,0.45 q 1.425 0.375 1.5225,0.45 q 0.525 0.6 -1.8525,1 
						M 0,1.4175 
						q -0.3 0.45 -0.4575,0.45 q -0.375 0.375 -0.8925,0.45 q -0.675 0.525 1.02,0.45 q -1.425 0.375 -1.5225,0.45 q -0.525 0.6 1.8525,1 " 
						transform="rotate(664.61538461538 0,1.4175 )"
						stroke-width ="0.1"
						fill="rgb(164,174,177)"
						/><circle cx="0" cy="1.4175" r="0.2925" fill="rgb(98,165,104)"/><circle cx="-0.03" cy="1.3475" r="0.195" fill="rgb(109.5,188.5,109.5)"/><path d="M 0,1.4175 
						q 0.3 0.45 0.4575,0.45 q 0.375 0.375 0.8925,0.45 q 0.675 0.525 -1.02,0.45 q 1.425 0.375 1.5225,0.45 q 0.525 0.6 -1.8525,1 
						M 0,1.4175 
						q -0.3 0.45 -0.4575,0.45 q -0.375 0.375 -0.8925,0.45 q -0.675 0.525 1.02,0.45 q -1.425 0.375 -1.5225,0.45 q -0.525 0.6 1.8525,1 " 
						transform="rotate(747.69230769231 0,1.4175 )"
						stroke-width ="0.1"
						fill="rgb(159.5,185.5,170.5)"
						/><circle cx="0" cy="1.4175" r="0.2925" fill="rgb(98,165,104)"/><circle cx="-0.07" cy="1.4075" r="0.195" fill="rgb(109.5,188.5,109.5)"/><path d="M 0,1.4175 
						q 0.3 0.45 0.4575,0.45 q 0.375 0.375 0.8925,0.45 q 0.675 0.525 -1.02,0.45 q 1.425 0.375 1.5225,0.45 q 0.525 0.6 -1.8525,1 
						M 0,1.4175 
						q -0.3 0.45 -0.4575,0.45 q -0.375 0.375 -0.8925,0.45 q -0.675 0.525 1.02,0.45 q -1.425 0.375 -1.5225,0.45 q -0.525 0.6 1.8525,1 " 
						transform="rotate(830.76923076923 0,1.4175 )"
						stroke-width ="0.1"
						fill="rgb(151,183,171)"
						/><circle cx="0" cy="1.4175" r="0.2925" fill="rgb(98,165,104)"/><circle cx="0.02" cy="1.4075" r="0.195" fill="rgb(109.5,188.5,109.5)"/><path d="M 0,1.4175 
						q 0.3 0.45 0.4575,0.45 q 0.375 0.375 0.8925,0.45 q 0.675 0.525 -1.02,0.45 q 1.425 0.375 1.5225,0.45 q 0.525 0.6 -1.8525,1 
						M 0,1.4175 
						q -0.3 0.45 -0.4575,0.45 q -0.375 0.375 -0.8925,0.45 q -0.675 0.525 1.02,0.45 q -1.425 0.375 -1.5225,0.45 q -0.525 0.6 1.8525,1 " 
						transform="rotate(913.84615384615 0,1.4175 )"
						stroke-width ="0.1"
						fill="rgb(154.5,170.5,172.5)"
						/><circle cx="0" cy="1.4175" r="0.2925" fill="rgb(98,165,104)"/><circle cx="0.05" cy="1.4975" r="0.195" fill="rgb(109.5,188.5,109.5)"/><path d="M 0,1.4175 
						q 0.3 0.45 0.4575,0.45 q 0.375 0.375 0.8925,0.45 q 0.675 0.525 -1.02,0.45 q 1.425 0.375 1.5225,0.45 q 0.525 0.6 -1.8525,1 
						M 0,1.4175 
						q -0.3 0.45 -0.4575,0.45 q -0.375 0.375 -0.8925,0.45 q -0.675 0.525 1.02,0.45 q -1.425 0.375 -1.5225,0.45 q -0.525 0.6 1.8525,1 " 
						transform="rotate(996.92307692308 0,1.4175 )"
						stroke-width ="0.1"
						fill="rgb(155,163,163)"
						/><circle cx="0" cy="1.4175" r="0.2925" fill="rgb(98,165,104)"/><circle cx="-0.01" cy="1.3375" r="0.195" fill="rgb(109.5,188.5,109.5)"/><path d="M 0,1.4175 
						q 0.3 0.45 0.4575,0.45 q 0.375 0.375 0.8925,0.45 q 0.675 0.525 -1.02,0.45 q 1.425 0.375 1.5225,0.45 q 0.525 0.6 -1.8525,1 
						M 0,1.4175 
						q -0.3 0.45 -0.4575,0.45 q -0.375 0.375 -0.8925,0.45 q -0.675 0.525 1.02,0.45 q -1.425 0.375 -1.5225,0.45 q -0.525 0.6 1.8525,1 " 
						transform="rotate(1080 0,1.4175 )"
						stroke-width ="0.1"
						fill="rgb(158.5,174.5,160.5)"
						/><circle cx="0" cy="1.4175" r="0.2925" fill="rgb(98,165,104)"/><circle cx="-0.02" cy="1.4375" r="0.195" fill="rgb(109.5,188.5,109.5)"/></g><g id="flower7" transform="skewX(4) skewY(4)">
						<path d="M 0,0
						Q 1.43,1.3125 0,1.65375"
						stroke="rgb(43,47,20)" 
						fill="transparent"
						stroke-width ="0.3" /><path d="M 0,1.65375 
						q 0.35 0.525 0.53375,0.525 q 0.4375 0.4375 1.04125,0.525 q 0.7875 0.6125 -1.19,0.525 q 1.6625 0.4375 1.77625,0.525 q 0.6125 0.7 -2.16125,1 
						M 0,1.65375 
						q -0.35 0.525 -0.53375,0.525 q -0.4375 0.4375 -1.04125,0.525 q -0.7875 0.6125 1.19,0.525 q -1.6625 0.4375 -1.77625,0.525 q -0.6125 0.7 2.16125,1 " 
						transform="rotate(0 0,1.65375 )"
						stroke-width ="0.1"
						fill="rgb(192,196,191)"
						/><circle cx="0" cy="1.65375" r="0.34125" fill="rgb(92,165,102)"/><circle cx="-0.05" cy="1.72375" r="0.2275" fill="rgb(96.5,174.5,114.5)"/><path d="M 0,1.65375 
						q 0.35 0.525 0.53375,0.525 q 0.4375 0.4375 1.04125,0.525 q 0.7875 0.6125 -1.19,0.525 q 1.6625 0.4375 1.77625,0.525 q 0.6125 0.7 -2.16125,1 
						M 0,1.65375 
						q -0.35 0.525 -0.53375,0.525 q -0.4375 0.4375 -1.04125,0.525 q -0.7875 0.6125 1.19,0.525 q -1.6625 0.4375 -1.77625,0.525 q -0.6125 0.7 2.16125,1 " 
						transform="rotate(83.076923076923 0,1.65375 )"
						stroke-width ="0.1"
						fill="rgb(176.5,206.5,183.5)"
						/><circle cx="0" cy="1.65375" r="0.34125" fill="rgb(92,165,102)"/><circle cx="0.08" cy="1.75375" r="0.2275" fill="rgb(96.5,174.5,114.5)"/><path d="M 0,1.65375 
						q 0.35 0.525 0.53375,0.525 q 0.4375 0.4375 1.04125,0.525 q 0.7875 0.6125 -1.19,0.525 q 1.6625 0.4375 1.77625,0.525 q 0.6125 0.7 -2.16125,1 
						M 0,1.65375 
						q -0.35 0.525 -0.53375,0.525 q -0.4375 0.4375 -1.04125,0.525 q -0.7875 0.6125 1.19,0.525 q -1.6625 0.4375 -1.77625,0.525 q -0.6125 0.7 2.16125,1 " 
						transform="rotate(166.15384615385 0,1.65375 )"
						stroke-width ="0.1"
						fill="rgb(186,194,196)"
						/><circle cx="0" cy="1.65375" r="0.34125" fill="rgb(92,165,102)"/><circle cx="-0.1" cy="1.66375" r="0.2275" fill="rgb(96.5,174.5,114.5)"/><path d="M 0,1.65375 
						q 0.35 0.525 0.53375,0.525 q 0.4375 0.4375 1.04125,0.525 q 0.7875 0.6125 -1.19,0.525 q 1.6625 0.4375 1.77625,0.525 q 0.6125 0.7 -2.16125,1 
						M 0,1.65375 
						q -0.35 0.525 -0.53375,0.525 q -0.4375 0.4375 -1.04125,0.525 q -0.7875 0.6125 1.19,0.525 q -1.6625 0.4375 -1.77625,0.525 q -0.6125 0.7 2.16125,1 " 
						transform="rotate(249.23076923077 0,1.65375 )"
						stroke-width ="0.1"
						fill="rgb(185.5,194.5,186.5)"
						/><circle cx="0" cy="1.65375" r="0.34125" fill="rgb(92,165,102)"/><circle cx="-0.02" cy="1.67375" r="0.2275" fill="rgb(96.5,174.5,114.5)"/><path d="M 0,1.65375 
						q 0.35 0.525 0.53375,0.525 q 0.4375 0.4375 1.04125,0.525 q 0.7875 0.6125 -1.19,0.525 q 1.6625 0.4375 1.77625,0.525 q 0.6125 0.7 -2.16125,1 
						M 0,1.65375 
						q -0.35 0.525 -0.53375,0.525 q -0.4375 0.4375 -1.04125,0.525 q -0.7875 0.6125 1.19,0.525 q -1.6625 0.4375 -1.77625,0.525 q -0.6125 0.7 2.16125,1 " 
						transform="rotate(332.30769230769 0,1.65375 )"
						stroke-width ="0.1"
						fill="rgb(166,192,192)"
						/><circle cx="0" cy="1.65375" r="0.34125" fill="rgb(92,165,102)"/><circle cx="-0.01" cy="1.67375" r="0.2275" fill="rgb(96.5,174.5,114.5)"/><path d="M 0,1.65375 
						q 0.35 0.525 0.53375,0.525 q 0.4375 0.4375 1.04125,0.525 q 0.7875 0.6125 -1.19,0.525 q 1.6625 0.4375 1.77625,0.525 q 0.6125 0.7 -2.16125,1 
						M 0,1.65375 
						q -0.35 0.525 -0.53375,0.525 q -0.4375 0.4375 -1.04125,0.525 q -0.7875 0.6125 1.19,0.525 q -1.6625 0.4375 -1.77625,0.525 q -0.6125 0.7 2.16125,1 " 
						transform="rotate(415.38461538462 0,1.65375 )"
						stroke-width ="0.1"
						fill="rgb(166.5,184.5,185.5)"
						/><circle cx="0" cy="1.65375" r="0.34125" fill="rgb(92,165,102)"/><circle cx="0.04" cy="1.69375" r="0.2275" fill="rgb(96.5,174.5,114.5)"/><path d="M 0,1.65375 
						q 0.35 0.525 0.53375,0.525 q 0.4375 0.4375 1.04125,0.525 q 0.7875 0.6125 -1.19,0.525 q 1.6625 0.4375 1.77625,0.525 q 0.6125 0.7 -2.16125,1 
						M 0,1.65375 
						q -0.35 0.525 -0.53375,0.525 q -0.4375 0.4375 -1.04125,0.525 q -0.7875 0.6125 1.19,0.525 q -1.6625 0.4375 -1.77625,0.525 q -0.6125 0.7 2.16125,1 " 
						transform="rotate(498.46153846154 0,1.65375 )"
						stroke-width ="0.1"
						fill="rgb(163,177,176)"
						/><circle cx="0" cy="1.65375" r="0.34125" fill="rgb(92,165,102)"/><circle cx="-0.04" cy="1.64375" r="0.2275" fill="rgb(96.5,174.5,114.5)"/><path d="M 0,1.65375 
						q 0.35 0.525 0.53375,0.525 q 0.4375 0.4375 1.04125,0.525 q 0.7875 0.6125 -1.19,0.525 q 1.6625 0.4375 1.77625,0.525 q 0.6125 0.7 -2.16125,1 
						M 0,1.65375 
						q -0.35 0.525 -0.53375,0.525 q -0.4375 0.4375 -1.04125,0.525 q -0.7875 0.6125 1.19,0.525 q -1.6625 0.4375 -1.77625,0.525 q -0.6125 0.7 2.16125,1 " 
						transform="rotate(581.53846153846 0,1.65375 )"
						stroke-width ="0.1"
						fill="rgb(177.5,188.5,167.5)"
						/><circle cx="0" cy="1.65375" r="0.34125" fill="rgb(92,165,102)"/><circle cx="0.1" cy="1.74375" r="0.2275" fill="rgb(96.5,174.5,114.5)"/><path d="M 0,1.65375 
						q 0.35 0.525 0.53375,0.525 q 0.4375 0.4375 1.04125,0.525 q 0.7875 0.6125 -1.19,0.525 q 1.6625 0.4375 1.77625,0.525 q 0.6125 0.7 -2.16125,1 
						M 0,1.65375 
						q -0.35 0.525 -0.53375,0.525 q -0.4375 0.4375 -1.04125,0.525 q -0.7875 0.6125 1.19,0.525 q -1.6625 0.4375 -1.77625,0.525 q -0.6125 0.7 2.16125,1 " 
						transform="rotate(664.61538461538 0,1.65375 )"
						stroke-width ="0.1"
						fill="rgb(168,179,185)"
						/><circle cx="0" cy="1.65375" r="0.34125" fill="rgb(92,165,102)"/><circle cx="0.05" cy="1.75375" r="0.2275" fill="rgb(96.5,174.5,114.5)"/><path d="M 0,1.65375 
						q 0.35 0.525 0.53375,0.525 q 0.4375 0.4375 1.04125,0.525 q 0.7875 0.6125 -1.19,0.525 q 1.6625 0.4375 1.77625,0.525 q 0.6125 0.7 -2.16125,1 
						M 0,1.65375 
						q -0.35 0.525 -0.53375,0.525 q -0.4375 0.4375 -1.04125,0.525 q -0.7875 0.6125 1.19,0.525 q -1.6625 0.4375 -1.77625,0.525 q -0.6125 0.7 2.16125,1 " 
						transform="rotate(747.69230769231 0,1.65375 )"
						stroke-width ="0.1"
						fill="rgb(159.5,183.5,176.5)"
						/><circle cx="0" cy="1.65375" r="0.34125" fill="rgb(92,165,102)"/><circle cx="-0.06" cy="1.63375" r="0.2275" fill="rgb(96.5,174.5,114.5)"/><path d="M 0,1.65375 
						q 0.35 0.525 0.53375,0.525 q 0.4375 0.4375 1.04125,0.525 q 0.7875 0.6125 -1.19,0.525 q 1.6625 0.4375 1.77625,0.525 q 0.6125 0.7 -2.16125,1 
						M 0,1.65375 
						q -0.35 0.525 -0.53375,0.525 q -0.4375 0.4375 -1.04125,0.525 q -0.7875 0.6125 1.19,0.525 q -1.6625 0.4375 -1.77625,0.525 q -0.6125 0.7 2.16125,1 " 
						transform="rotate(830.76923076923 0,1.65375 )"
						stroke-width ="0.1"
						fill="rgb(161,173,161)"
						/><circle cx="0" cy="1.65375" r="0.34125" fill="rgb(92,165,102)"/><circle cx="0.1" cy="1.69375" r="0.2275" fill="rgb(96.5,174.5,114.5)"/><path d="M 0,1.65375 
						q 0.35 0.525 0.53375,0.525 q 0.4375 0.4375 1.04125,0.525 q 0.7875 0.6125 -1.19,0.525 q 1.6625 0.4375 1.77625,0.525 q 0.6125 0.7 -2.16125,1 
						M 0,1.65375 
						q -0.35 0.525 -0.53375,0.525 q -0.4375 0.4375 -1.04125,0.525 q -0.7875 0.6125 1.19,0.525 q -1.6625 0.4375 -1.77625,0.525 q -0.6125 0.7 2.16125,1 " 
						transform="rotate(913.84615384615 0,1.65375 )"
						stroke-width ="0.1"
						fill="rgb(155.5,179.5,167.5)"
						/><circle cx="0" cy="1.65375" r="0.34125" fill="rgb(92,165,102)"/><circle cx="0.08" cy="1.73375" r="0.2275" fill="rgb(96.5,174.5,114.5)"/><path d="M 0,1.65375 
						q 0.35 0.525 0.53375,0.525 q 0.4375 0.4375 1.04125,0.525 q 0.7875 0.6125 -1.19,0.525 q 1.6625 0.4375 1.77625,0.525 q 0.6125 0.7 -2.16125,1 
						M 0,1.65375 
						q -0.35 0.525 -0.53375,0.525 q -0.4375 0.4375 -1.04125,0.525 q -0.7875 0.6125 1.19,0.525 q -1.6625 0.4375 -1.77625,0.525 q -0.6125 0.7 2.16125,1 " 
						transform="rotate(996.92307692308 0,1.65375 )"
						stroke-width ="0.1"
						fill="rgb(149,177,166)"
						/><circle cx="0" cy="1.65375" r="0.34125" fill="rgb(92,165,102)"/><circle cx="0.05" cy="1.73375" r="0.2275" fill="rgb(96.5,174.5,114.5)"/><path d="M 0,1.65375 
						q 0.35 0.525 0.53375,0.525 q 0.4375 0.4375 1.04125,0.525 q 0.7875 0.6125 -1.19,0.525 q 1.6625 0.4375 1.77625,0.525 q 0.6125 0.7 -2.16125,1 
						M 0,1.65375 
						q -0.35 0.525 -0.53375,0.525 q -0.4375 0.4375 -1.04125,0.525 q -0.7875 0.6125 1.19,0.525 q -1.6625 0.4375 -1.77625,0.525 q -0.6125 0.7 2.16125,1 " 
						transform="rotate(1080 0,1.65375 )"
						stroke-width ="0.1"
						fill="rgb(146.5,168.5,163.5)"
						/><circle cx="0" cy="1.65375" r="0.34125" fill="rgb(92,165,102)"/><circle cx="-0.05" cy="1.58375" r="0.2275" fill="rgb(96.5,174.5,114.5)"/></g><g id="flower8" transform="skewX(1) skewY(1)">
						<path d="M 0,0
						Q 0.29,1.5 0,1.89"
						stroke="rgb(43,47,20)" 
						fill="transparent"
						stroke-width ="0.3" /><path d="M 0,1.89 
						q 0.4 0.6 0.61,0.6 q 0.5 0.5 1.19,0.6 q 0.9 0.7 -1.36,0.6 q 1.9 0.5 2.03,0.6 q 0.7 0.8 -2.47,1 
						M 0,1.89 
						q -0.4 0.6 -0.61,0.6 q -0.5 0.5 -1.19,0.6 q -0.9 0.7 1.36,0.6 q -1.9 0.5 -2.03,0.6 q -0.7 0.8 2.47,1 " 
						transform="rotate(0 0,1.89 )"
						stroke-width ="0.1"
						fill="rgb(194,194,191)"
						/><path d="M 0,1.89 
						q 0.4 0.6 0.61,0.6 q 0.5 0.5 1.19,0.6 q 0.9 0.7 -1.36,0.6 q 1.9 0.5 2.03,0.6 q 0.7 0.8 -2.47,1 
						M 0,1.89 
						q -0.4 0.6 -0.61,0.6 q -0.5 0.5 -1.19,0.6 q -0.9 0.7 1.36,0.6 q -1.9 0.5 -2.03,0.6 q -0.7 0.8 2.47,1 " 
						transform="rotate(24.923076923077 0,1.89 )"
						stroke-width ="0.1"
						fill="rgb(190.5,188.5,186.5)"
						/><path d="M 0,1.89 
						q 0.4 0.6 0.61,0.6 q 0.5 0.5 1.19,0.6 q 0.9 0.7 -1.36,0.6 q 1.9 0.5 2.03,0.6 q 0.7 0.8 -2.47,1 
						M 0,1.89 
						q -0.4 0.6 -0.61,0.6 q -0.5 0.5 -1.19,0.6 q -0.9 0.7 1.36,0.6 q -1.9 0.5 -2.03,0.6 q -0.7 0.8 2.47,1 " 
						transform="rotate(49.846153846154 0,1.89 )"
						stroke-width ="0.1"
						fill="rgb(187,203,199)"
						/><path d="M 0,1.89 
						q 0.4 0.6 0.61,0.6 q 0.5 0.5 1.19,0.6 q 0.9 0.7 -1.36,0.6 q 1.9 0.5 2.03,0.6 q 0.7 0.8 -2.47,1 
						M 0,1.89 
						q -0.4 0.6 -0.61,0.6 q -0.5 0.5 -1.19,0.6 q -0.9 0.7 1.36,0.6 q -1.9 0.5 -2.03,0.6 q -0.7 0.8 2.47,1 " 
						transform="rotate(74.769230769231 0,1.89 )"
						stroke-width ="0.1"
						fill="rgb(181.5,190.5,186.5)"
						/></g></defs>
				<g class="fullPlant">
					<g>
					<path d ="M 47,91 
					a 91 637 -3.97 0 1 -5.52,-20.352" fill ="none" stroke ="rgb(39.5,45.5,13.5)" stroke-width ="4.176"/></g><circle cx="41.48" cy="70.648" r="1.044" stroke="rgb(44.5,50.5,18.5)" fill="rgb(39.5,45.5,13.5)"/><use xlink:href="#leaf1"
						x="41.48" y="70.648" 
						transform="rotate(-21 41.48 70.648)" 	
						fill="rgb(200,0,139)" /><use xlink:href="#leaf1"
						x="41.48" y="70.648" 
						transform="rotate(-178 41.59 70.878)" 	
						fill="rgb(179,26,127)" /><use xlink:href="#leaf1"
						x="41.48" y="70.648" 
						transform="rotate(168 42.07 70.778)" 	
						fill="rgb(172,0,139)" /><use xlink:href="#leaf1"
						x="41.48" y="70.648" 
						transform="rotate(53 41.48 70.648)" 	
						fill="rgb(180,6,155)" /><use xlink:href="#leaf2"
						x="41.48" y="70.648" 
						transform="rotate(-180 41.64 71.298)" 	
						fill="rgb(166,17,145)" /><use xlink:href="#leaf1"
						x="41.48" y="70.648" 
						transform="rotate(-164 42.35 71.368)" 	
						fill="rgb(165,0,142)" /><use xlink:href="#leaf1"
						x="41.48" y="70.648" 
						transform="rotate(83 41.48 70.648)" 	
						fill="rgb(160,3,149)" /><use xlink:href="#leaf2"
						x="41.48" y="70.648" 
						transform="rotate(-54 41.79 70.818)" 	
						fill="rgb(164,0,150)" /><use xlink:href="#leaf2"
						x="41.48" y="70.648" 
						transform="rotate(-11 41.48 70.648)" 	
						fill="rgb(166,4,125)" /><use xlink:href="#leaf2"
						x="41.48" y="70.648" 
						transform="rotate(80 41.48 70.648)" 	
						fill="rgb(196,14,142)" /><use xlink:href="#leaf3"
						x="41.48" y="70.648" 
						transform="rotate(155 41.48 70.648)" 	
						fill="rgb(177,26,132)" /><use xlink:href="#leaf1"
						x="41.48" y="70.648" 
						transform="rotate(-168 41.48 70.648)" 	
						fill="rgb(166,15,130)" />
					<g>
					<path d ="M 41.48,70.648 
					a 87 609 -4.69 0 0 3.948,-5.208" fill ="none" stroke ="rgb(38.5,47.5,16.5)" stroke-width ="2.088"/></g><circle cx="45.428" cy="65.44" r="0.522" stroke="rgb(43.5,52.5,21.5)" fill="rgb(38.5,47.5,16.5)"/><use xlink:href="#leaf3"
						x="45.428" y="65.44" 
						transform="rotate(65 46.058 66.09)" 	
						fill="rgb(196,19,164)" /><use xlink:href="#leaf3"
						x="45.428" y="65.44" 
						transform="rotate(-116 45.938 65.68)" 	
						fill="rgb(180,0,152)" /><use xlink:href="#leaf4"
						x="45.428" y="65.44" 
						transform="rotate(147 45.428 65.44)" 	
						fill="rgb(168,0,136)" /><use xlink:href="#leaf3"
						x="45.428" y="65.44" 
						transform="rotate(-94 46.338 65.88)" 	
						fill="rgb(160,19,152)" /><use xlink:href="#flower3" id="fleur10"
							x="45.428" y="65.44" 
							transform="rotate(69 46.1 65.728)" />
					<g>
					<path d ="M 41.48,70.648 
					a 86 602 9.98 0 1 -12.792,1.464" fill ="none" stroke ="rgb(40.5,50.5,18.5)" stroke-width ="2.088"/></g><circle cx="28.688" cy="72.112" r="0.522" stroke="rgb(45.5,55.5,23.5)" fill="rgb(40.5,50.5,18.5)"/><use xlink:href="#leaf1"
						x="28.688" y="72.112" 
						transform="rotate(-37 28.688 72.112)" 	
						fill="rgb(180,12,139)" /><use xlink:href="#leaf4"
						x="28.688" y="72.112" 
						transform="rotate(103 28.688 72.112)" 	
						fill="rgb(164,0,156)" /><use xlink:href="#leaf2"
						x="28.688" y="72.112" 
						transform="rotate(-63 29.558 72.922)" 	
						fill="rgb(193,8,134)" /><use xlink:href="#leaf1"
						x="28.688" y="72.112" 
						transform="rotate(-105 29.608 72.722)" 	
						fill="rgb(197,12,127)" /><use xlink:href="#leaf2"
						x="28.688" y="72.112" 
						transform="rotate(-119 28.688 72.112)" 	
						fill="rgb(169,0,133)" /><use xlink:href="#leaf1"
						x="28.688" y="72.112" 
						transform="rotate(10 29.528 72.662)" 	
						fill="rgb(172,14,137)" /><use xlink:href="#leaf1"
						x="28.688" y="72.112" 
						transform="rotate(144 28.898 72.352)" 	
						fill="rgb(170,0,127)" /><use xlink:href="#leaf1"
						x="28.688" y="72.112" 
						transform="rotate(-30 28.688 72.112)" 	
						fill="rgb(168,8,157)" /><use xlink:href="#leaf2"
						x="28.688" y="72.112" 
						transform="rotate(-76 28.738 72.902)" 	
						fill="rgb(178,23,162)" /><use xlink:href="#leaf3"
						x="28.688" y="72.112" 
						transform="rotate(136 29.118 72.262)" 	
						fill="rgb(171,22,151)" /><use xlink:href="#leaf3"
						x="28.688" y="72.112" 
						transform="rotate(-133 29.168 72.282)" 	
						fill="rgb(165,11,142)" /><use xlink:href="#leaf1"
						x="28.688" y="72.112" 
						transform="rotate(163 29.448 72.522)" 	
						fill="rgb(164,0,141)" /><use xlink:href="#leaf3"
						x="28.688" y="72.112" 
						transform="rotate(68 28.688 72.112)" 	
						fill="rgb(192,21,136)" /><use xlink:href="#leaf1"
						x="28.688" y="72.112" 
						transform="rotate(3 28.688 72.112)" 	
						fill="rgb(184,0,160)" /><use xlink:href="#leaf2"
						x="28.688" y="72.112" 
						transform="rotate(-111 29.018 72.722)" 	
						fill="rgb(188,0,160)" /><use xlink:href="#leaf4"
						x="28.688" y="72.112" 
						transform="rotate(-36 29.648 72.822)" 	
						fill="rgb(189,3,143)" /><use xlink:href="#leaf2"
						x="28.688" y="72.112" 
						transform="rotate(-119 28.688 72.112)" 	
						fill="rgb(166,9,138)" />
					<g>
					<path d ="M 41.48,70.648 
					a 72 504 -6.91 0 1 5.88,-8.856" fill ="none" stroke ="rgb(43.5,52.5,21.5)" stroke-width ="2.088"/></g><circle cx="47.36" cy="61.792" r="0.522" stroke="rgb(48.5,57.5,26.5)" fill="rgb(43.5,52.5,21.5)"/><use xlink:href="#leaf2"
						x="47.36" y="61.792" 
						transform="rotate(35 47.76 62.712)" 	
						fill="rgb(177,22,156)" /><use xlink:href="#leaf2"
						x="47.36" y="61.792" 
						transform="rotate(40 47.36 61.792)" 	
						fill="rgb(187,22,162)" /><use xlink:href="#leaf1"
						x="47.36" y="61.792" 
						transform="rotate(161 47.36 61.792)" 	
						fill="rgb(194,19,147)" /><use xlink:href="#leaf1"
						x="47.36" y="61.792" 
						transform="rotate(-88 47.37 62.752)" 	
						fill="rgb(167,25,158)" /><use xlink:href="#leaf1"
						x="47.36" y="61.792" 
						transform="rotate(41 47.36 61.792)" 	
						fill="rgb(196,3,125)" /><use xlink:href="#leaf3"
						x="47.36" y="61.792" 
						transform="rotate(142 47.36 61.792)" 	
						fill="rgb(171,7,125)" /><use xlink:href="#leaf1"
						x="47.36" y="61.792" 
						transform="rotate(78 47.36 61.792)" 	
						fill="rgb(166,21,134)" /><use xlink:href="#leaf2"
						x="47.36" y="61.792" 
						transform="rotate(26 48 62.782)" 	
						fill="rgb(186,0,145)" /><use xlink:href="#leaf3"
						x="47.36" y="61.792" 
						transform="rotate(57 47.36 61.792)" 	
						fill="rgb(200,13,125)" /><use xlink:href="#flower3" id="fleur30"
							x="47.36" y="61.792" 
							transform="rotate(55 48.332 61.948)" />
					<g>
					<path d ="M 41.48,70.648 
					a 68 680 -5.37 0 0 -8.832,2.232" fill ="none" stroke ="rgb(43.5,51.5,23.5)" stroke-width ="2.088"/></g><circle cx="32.648" cy="72.88" r="0.522" stroke="rgb(48.5,56.5,28.5)" fill="rgb(43.5,51.5,23.5)"/><use xlink:href="#leaf1"
						x="32.648" y="72.88" 
						transform="rotate(5 32.648 72.88)" 	
						fill="rgb(198,0,161)" /><use xlink:href="#leaf1"
						x="32.648" y="72.88" 
						transform="rotate(107 32.648 72.88)" 	
						fill="rgb(177,0,148)" /><use xlink:href="#leaf3"
						x="32.648" y="72.88" 
						transform="rotate(34 32.878 73.75)" 	
						fill="rgb(171,0,132)" /><use xlink:href="#leaf1"
						x="32.648" y="72.88" 
						transform="rotate(125 33.108 73.45)" 	
						fill="rgb(196,0,139)" /><use xlink:href="#flower1" id="fleur40"
							x="32.648" y="72.88" 
							transform="rotate(138 33.104 73.72)" /><use xlink:href="#flower1" id="fleur41"
							x="32.648" y="72.88" 
							transform="rotate(60 32.648 72.88)" /><use xlink:href="#flower1" id="fleur42"
							x="32.648" y="72.88" 
							transform="rotate(146 33.608 73.984)" /><use xlink:href="#flower1" id="fleur43"
							x="32.648" y="72.88" 
							transform="rotate(21 32.648 72.88)" />
					<g>
					<path d ="M 41.48,70.648 
					a 86 774 -7.44 0 0 11.436,1.86" fill ="none" stroke ="rgb(42.5,51.5,24.5)" stroke-width ="2.088"/></g><circle cx="52.916" cy="72.508" r="0.522" stroke="rgb(47.5,56.5,29.5)" fill="rgb(42.5,51.5,24.5)"/><use xlink:href="#leaf1"
						x="52.916" y="72.508" 
						transform="rotate(-139 53.746 73.148)" 	
						fill="rgb(195,23,152)" /><use xlink:href="#leaf1"
						x="52.916" y="72.508" 
						transform="rotate(21 52.916 72.508)" 	
						fill="rgb(162,10,140)" /><use xlink:href="#leaf4"
						x="52.916" y="72.508" 
						transform="rotate(-117 53.016 72.658)" 	
						fill="rgb(190,26,131)" /><use xlink:href="#leaf2"
						x="52.916" y="72.508" 
						transform="rotate(-125 53.156 73.268)" 	
						fill="rgb(177,28,158)" /><use xlink:href="#leaf3"
						x="52.916" y="72.508" 
						transform="rotate(-69 52.916 72.508)" 	
						fill="rgb(179,0,146)" /><use xlink:href="#leaf1"
						x="52.916" y="72.508" 
						transform="rotate(22 53.336 73.428)" 	
						fill="rgb(199,0,162)" /><use xlink:href="#leaf1"
						x="52.916" y="72.508" 
						transform="rotate(-40 52.916 72.508)" 	
						fill="rgb(161,2,133)" /><use xlink:href="#leaf2"
						x="52.916" y="72.508" 
						transform="rotate(176 52.916 72.508)" 	
						fill="rgb(161,13,141)" /><use xlink:href="#leaf2"
						x="52.916" y="72.508" 
						transform="rotate(-116 53.396 72.708)" 	
						fill="rgb(163,11,150)" /><use xlink:href="#leaf3"
						x="52.916" y="72.508" 
						transform="rotate(-9 52.916 72.508)" 	
						fill="rgb(197,0,161)" /><use xlink:href="#leaf1"
						x="52.916" y="72.508" 
						transform="rotate(-41 53.146 73.178)" 	
						fill="rgb(170,18,153)" /><use xlink:href="#flower1" id="fleur50"
							x="52.916" y="72.508" 
							transform="rotate(-146 53.528 73.348)" />
					<g>
					<path d ="M 52.916,72.508 
					a 56 224 5.90 0 1 5.076,4.32" fill ="none" stroke ="rgb(45,55,27)" stroke-width ="1.392"/></g><circle cx="57.992" cy="76.828" r="0.348" stroke="rgb(50,60,32)" fill="rgb(45,55,27)"/><use xlink:href="#leaf5"
						x="57.992" y="76.828" 
						transform="rotate(47 58.912 77.298)" 	
						fill="rgb(174,22,155)" /><use xlink:href="#leaf2"
						x="57.992" y="76.828" 
						transform="rotate(-95 57.992 76.828)" 	
						fill="rgb(160,4,132)" /><use xlink:href="#leaf5"
						x="57.992" y="76.828" 
						transform="rotate(-163 57.992 76.828)" 	
						fill="rgb(176,9,133)" /><use xlink:href="#leaf5"
						x="57.992" y="76.828" 
						transform="rotate(-177 58.132 77.198)" 	
						fill="rgb(164,0,162)" /><use xlink:href="#flower5" id="fleur60"
							x="57.992" y="76.828" 
							transform="rotate(143 58.4 77.584)" /><use xlink:href="#flower5" id="fleur61"
							x="57.992" y="76.828" 
							transform="rotate(7 59.156 77.5)" /><use xlink:href="#flower5" id="fleur62"
							x="57.992" y="76.828" 
							transform="rotate(-100 57.992 76.828)" /><use xlink:href="#flower5" id="fleur63"
							x="57.992" y="76.828" 
							transform="rotate(56 59.036 77.692)" />
					<g>
					<path d ="M 52.916,72.508 
					a 95 475 -7.88 0 0 11.112,4.164" fill ="none" stroke ="rgb(46.5,58.5,27.5)" stroke-width ="1.392"/></g><circle cx="64.028" cy="76.672" r="0.348" stroke="rgb(51.5,63.5,32.5)" fill="rgb(46.5,58.5,27.5)"/><use xlink:href="#leaf2"
						x="64.028" y="76.672" 
						transform="rotate(61 64.858 77.382)" 	
						fill="rgb(185,26,124)" /><use xlink:href="#leaf2"
						x="64.028" y="76.672" 
						transform="rotate(-113 64.028 76.672)" 	
						fill="rgb(160,20,164)" /><use xlink:href="#leaf1"
						x="64.028" y="76.672" 
						transform="rotate(54 64.168 76.692)" 	
						fill="rgb(181,18,126)" /><use xlink:href="#leaf1"
						x="64.028" y="76.672" 
						transform="rotate(-26 64.948 77.482)" 	
						fill="rgb(184,0,126)" /><use xlink:href="#leaf1"
						x="64.028" y="76.672" 
						transform="rotate(27 64.028 76.672)" 	
						fill="rgb(200,0,148)" /><use xlink:href="#leaf4"
						x="64.028" y="76.672" 
						transform="rotate(53 64.898 77.132)" 	
						fill="rgb(175,0,151)" /><use xlink:href="#leaf5"
						x="64.028" y="76.672" 
						transform="rotate(169 64.028 76.672)" 	
						fill="rgb(160,20,126)" /><use xlink:href="#leaf1"
						x="64.028" y="76.672" 
						transform="rotate(-51 64.038 77.222)" 	
						fill="rgb(184,0,138)" /><use xlink:href="#leaf5"
						x="64.028" y="76.672" 
						transform="rotate(-167 64.448 77.022)" 	
						fill="rgb(161,0,139)" /><use xlink:href="#leaf4"
						x="64.028" y="76.672" 
						transform="rotate(-2 64.888 77.372)" 	
						fill="rgb(195,26,136)" /><use xlink:href="#leaf1"
						x="64.028" y="76.672" 
						transform="rotate(151 64.028 76.672)" 	
						fill="rgb(176,0,155)" /><use xlink:href="#leaf1"
						x="64.028" y="76.672" 
						transform="rotate(5 64.028 76.672)" 	
						fill="rgb(190,0,148)" /><use xlink:href="#leaf3"
						x="64.028" y="76.672" 
						transform="rotate(-117 64.028 76.672)" 	
						fill="rgb(161,0,159)" /><use xlink:href="#leaf5"
						x="64.028" y="76.672" 
						transform="rotate(35 64.738 77.302)" 	
						fill="rgb(176,0,131)" /><use xlink:href="#leaf3"
						x="64.028" y="76.672" 
						transform="rotate(150 64.028 76.672)" 	
						fill="rgb(160,6,127)" /><use xlink:href="#flower3" id="fleur70"
							x="64.028" y="76.672" 
							transform="rotate(-104 64.028 76.672)" /><use xlink:href="#flower3" id="fleur71"
							x="64.028" y="76.672" 
							transform="rotate(-110 65.06 76.732)" /><use xlink:href="#flower3" id="fleur72"
							x="64.028" y="76.672" 
							transform="rotate(-119 64.028 76.672)" /><use xlink:href="#flower3" id="fleur73"
							x="64.028" y="76.672" 
							transform="rotate(171 64.028 76.672)" />
					<g>
					<path d ="M 47,91 
					a 90 900 10.72 0 1 0.408,-13.476" fill ="none" stroke ="rgb(49,59,26)" stroke-width ="4.176"/></g><circle cx="47.408" cy="77.524" r="1.044" stroke="rgb(54,64,31)" fill="rgb(49,59,26)"/><use xlink:href="#leaf2"
						x="47.408" y="77.524" 
						transform="rotate(-150 48.348 77.564)" 	
						fill="rgb(177,17,142)" /><use xlink:href="#leaf3"
						x="47.408" y="77.524" 
						transform="rotate(-8 47.528 78.214)" 	
						fill="rgb(170,13,145)" /><use xlink:href="#leaf3"
						x="47.408" y="77.524" 
						transform="rotate(-116 47.928 78.514)" 	
						fill="rgb(194,20,148)" /><use xlink:href="#leaf3"
						x="47.408" y="77.524" 
						transform="rotate(-142 47.508 77.844)" 	
						fill="rgb(169,0,147)" /><use xlink:href="#leaf1"
						x="47.408" y="77.524" 
						transform="rotate(124 47.708 78.514)" 	
						fill="rgb(192,0,161)" /><use xlink:href="#leaf1"
						x="47.408" y="77.524" 
						transform="rotate(-92 47.408 77.524)" 	
						fill="rgb(172,5,142)" /><use xlink:href="#leaf1"
						x="47.408" y="77.524" 
						transform="rotate(162 48.178 77.934)" 	
						fill="rgb(170,18,164)" /><use xlink:href="#leaf1"
						x="47.408" y="77.524" 
						transform="rotate(127 47.708 78.294)" 	
						fill="rgb(165,0,150)" /><use xlink:href="#leaf1"
						x="47.408" y="77.524" 
						transform="rotate(-178 47.408 77.524)" 	
						fill="rgb(170,13,146)" /><use xlink:href="#leaf1"
						x="47.408" y="77.524" 
						transform="rotate(-79 47.808 78.154)" 	
						fill="rgb(176,10,154)" /><use xlink:href="#leaf1"
						x="47.408" y="77.524" 
						transform="rotate(-108 47.408 77.524)" 	
						fill="rgb(171,0,158)" /><use xlink:href="#leaf1"
						x="47.408" y="77.524" 
						transform="rotate(120 47.408 77.524)" 	
						fill="rgb(161,9,131)" /><use xlink:href="#leaf1"
						x="47.408" y="77.524" 
						transform="rotate(-30 47.408 77.524)" 	
						fill="rgb(164,18,158)" /><use xlink:href="#leaf2"
						x="47.408" y="77.524" 
						transform="rotate(-147 47.888 78.284)" 	
						fill="rgb(192,12,126)" />
					<g>
					<path d ="M 47,91 
					a 72 432 -8.11 0 0 10.68,-13.5" fill ="none" stroke ="rgb(49.5,61.5,27.5)" stroke-width ="4.176"/></g><circle cx="57.68" cy="77.5" r="1.044" stroke="rgb(54.5,66.5,32.5)" fill="rgb(49.5,61.5,27.5)"/><use xlink:href="#leaf3"
						x="57.68" y="77.5" 
						transform="rotate(-96 57.68 77.5)" 	
						fill="rgb(189,11,130)" /><use xlink:href="#leaf2"
						x="57.68" y="77.5" 
						transform="rotate(130 57.68 77.5)" 	
						fill="rgb(175,14,124)" /><use xlink:href="#leaf1"
						x="57.68" y="77.5" 
						transform="rotate(120 57.68 77.5)" 	
						fill="rgb(169,19,138)" /><use xlink:href="#leaf1"
						x="57.68" y="77.5" 
						transform="rotate(154 57.81 77.85)" 	
						fill="rgb(190,0,131)" /><use xlink:href="#leaf2"
						x="57.68" y="77.5" 
						transform="rotate(-26 58.33 78.01)" 	
						fill="rgb(170,7,140)" />
					<g>
					<path d ="M 47,91 
					a 95 570 -15.1 0 0 2.964,-21.456" fill ="none" stroke ="rgb(52,61,26)" stroke-width ="4.176"/></g><circle cx="49.964" cy="69.544" r="1.044" stroke="rgb(57,66,31)" fill="rgb(52,61,26)"/><use xlink:href="#leaf1"
						x="49.964" y="69.544" 
						transform="rotate(-26 49.964 69.544)" 	
						fill="rgb(176,18,124)" /><use xlink:href="#leaf1"
						x="49.964" y="69.544" 
						transform="rotate(139 49.964 69.544)" 	
						fill="rgb(177,25,130)" /><use xlink:href="#leaf1"
						x="49.964" y="69.544" 
						transform="rotate(46 50.644 70.384)" 	
						fill="rgb(188,15,148)" /><use xlink:href="#leaf2"
						x="49.964" y="69.544" 
						transform="rotate(-103 50.154 70.434)" 	
						fill="rgb(182,0,150)" /><use xlink:href="#leaf3"
						x="49.964" y="69.544" 
						transform="rotate(116 49.964 69.544)" 	
						fill="rgb(191,6,141)" /><use xlink:href="#leaf1"
						x="49.964" y="69.544" 
						transform="rotate(25 50.694 69.844)" 	
						fill="rgb(168,0,125)" /><use xlink:href="#leaf1"
						x="49.964" y="69.544" 
						transform="rotate(16 49.974 70.164)" 	
						fill="rgb(200,27,163)" /><use xlink:href="#leaf1"
						x="49.964" y="69.544" 
						transform="rotate(172 49.964 69.544)" 	
						fill="rgb(175,27,146)" />
					<g>
					<path d ="M 49.964,69.544 
					a 71 639 -18.77 0 0 -8.904,2.64" fill ="none" stroke ="rgb(52,61,28)" stroke-width ="2.088"/></g><circle cx="41.06" cy="72.184" r="0.522" stroke="rgb(57,66,33)" fill="rgb(52,61,28)"/><use xlink:href="#leaf3"
						x="41.06" y="72.184" 
						transform="rotate(125 41.06 72.184)" 	
						fill="rgb(173,25,125)" /><use xlink:href="#leaf2"
						x="41.06" y="72.184" 
						transform="rotate(-132 41.06 72.184)" 	
						fill="rgb(178,14,132)" /><use xlink:href="#leaf1"
						x="41.06" y="72.184" 
						transform="rotate(174 41.06 72.184)" 	
						fill="rgb(167,1,141)" /><use xlink:href="#leaf1"
						x="41.06" y="72.184" 
						transform="rotate(73 41.06 72.184)" 	
						fill="rgb(200,10,136)" /><use xlink:href="#leaf1"
						x="41.06" y="72.184" 
						transform="rotate(91 41.19 72.884)" 	
						fill="rgb(190,8,142)" /><use xlink:href="#leaf1"
						x="41.06" y="72.184" 
						transform="rotate(-3 41.85 72.984)" 	
						fill="rgb(161,27,150)" /><use xlink:href="#leaf3"
						x="41.06" y="72.184" 
						transform="rotate(-44 41.88 72.834)" 	
						fill="rgb(187,0,152)" /><use xlink:href="#leaf1"
						x="41.06" y="72.184" 
						transform="rotate(-123 41.06 72.184)" 	
						fill="rgb(187,2,129)" /><use xlink:href="#leaf1"
						x="41.06" y="72.184" 
						transform="rotate(-43 41.93 72.784)" 	
						fill="rgb(196,13,152)" /><use xlink:href="#leaf3"
						x="41.06" y="72.184" 
						transform="rotate(-8 41.06 72.184)" 	
						fill="rgb(187,0,164)" /><use xlink:href="#leaf4"
						x="41.06" y="72.184" 
						transform="rotate(77 41.07 73.144)" 	
						fill="rgb(191,20,124)" /><use xlink:href="#leaf2"
						x="41.06" y="72.184" 
						transform="rotate(-165 41.06 72.184)" 	
						fill="rgb(165,11,160)" /><use xlink:href="#leaf4"
						x="41.06" y="72.184" 
						transform="rotate(168 41.06 72.184)" 	
						fill="rgb(193,7,127)" /><use xlink:href="#leaf1"
						x="41.06" y="72.184" 
						transform="rotate(8 41.06 72.184)" 	
						fill="rgb(193,19,145)" /><use xlink:href="#leaf2"
						x="41.06" y="72.184" 
						transform="rotate(26 41.06 72.184)" 	
						fill="rgb(180,17,143)" /><use xlink:href="#leaf3"
						x="41.06" y="72.184" 
						transform="rotate(-114 41.06 72.184)" 	
						fill="rgb(168,11,126)" /><use xlink:href="#flower3" id="fleur110"
							x="41.06" y="72.184" 
							transform="rotate(-43 41.996 72.376)" />
					<g>
					<path d ="M 64.028,76.672 
					a 81 810 -16.43 0 1 -11.22,-3.804" fill ="none" stroke ="rgb(53,61,31)" stroke-width ="1.044"/></g><circle cx="52.808" cy="72.868" r="0.261" stroke="rgb(58,66,36)" fill="rgb(53,61,31)"/><use xlink:href="#leaf4"
						x="52.808" y="72.868" 
						transform="rotate(21 53.438 73.138)" 	
						fill="rgb(179,11,158)" /><use xlink:href="#leaf2"
						x="52.808" y="72.868" 
						transform="rotate(-122 53.528 73.708)" 	
						fill="rgb(182,19,137)" /><use xlink:href="#leaf6"
						x="52.808" y="72.868" 
						transform="rotate(-95 52.808 72.868)" 	
						fill="rgb(186,27,157)" /><use xlink:href="#leaf3"
						x="52.808" y="72.868" 
						transform="rotate(9 52.808 72.868)" 	
						fill="rgb(161,0,156)" /><use xlink:href="#leaf2"
						x="52.808" y="72.868" 
						transform="rotate(9 52.808 72.868)" 	
						fill="rgb(199,22,149)" /><use xlink:href="#leaf4"
						x="52.808" y="72.868" 
						transform="rotate(-81 52.808 72.868)" 	
						fill="rgb(169,7,142)" /><use xlink:href="#leaf3"
						x="52.808" y="72.868" 
						transform="rotate(146 53.748 73.098)" 	
						fill="rgb(193,24,124)" /><use xlink:href="#leaf5"
						x="52.808" y="72.868" 
						transform="rotate(-160 53.058 73.268)" 	
						fill="rgb(175,0,145)" /><use xlink:href="#flower5" id="fleur120"
							x="52.808" y="72.868" 
							transform="rotate(-44 53.012 73.228)" /><use xlink:href="#flower5" id="fleur121"
							x="52.808" y="72.868" 
							transform="rotate(-157 52.808 72.868)" /><use xlink:href="#flower5" id="fleur122"
							x="52.808" y="72.868" 
							transform="rotate(96 52.808 72.868)" /><use xlink:href="#flower5" id="fleur123"
							x="52.808" y="72.868" 
							transform="rotate(-24 52.808 72.868)" /><use xlink:href="#flower5" id="fleur124"
							x="52.808" y="72.868" 
							transform="rotate(13 52.928 73.084)" /><use xlink:href="#flower5" id="fleur125"
							x="52.808" y="72.868" 
							transform="rotate(93 53.756 73.6)" /></g>
				</svg>