<svg class="relie" xmlns="http://www.w3.org/2000/svg" viewBox="0 0 100 100" preserveAspectRatio="xMidYMid meet" x="0" y="0" overflow="visible" xmlns:xlink="http://www.w3.org/1999/xlink">

		<defs>  <g id="leaf1" transform="skewX(4) skewY(4)"><path d="M 0,0 
					q 0.3775 0.3775 0.43625,0.23125 q 0.3775 0.3775 0.438125,0.18333333333333 q 0.3775 0.3775 0.10625,0.25208333333333 q 0.3775 0.3775 0.0725,0.17291666666667 q 0.3775 0.3775 -0.16875,0.43333333333333 q 0.3775 0.3775 -0.22375,0.12291666666667 q 0.3775 0.3775 -0.0625,0.25833333333333 q 0.3775 0.3775 -0.1975,0.12291666666667 q 0.3775 0.3775 -0.400625,1 
					M 0,0 
					q -0.3775 0.3775 -0.43625,0.23125 q -0.3775 0.3775 -0.438125,0.18333333333333 q -0.3775 0.3775 -0.10625,0.25208333333333 q -0.3775 0.3775 -0.0725,0.17291666666667 q -0.3775 0.3775 0.16875,0.43333333333333 q -0.3775 0.3775 0.22375,0.12291666666667 q -0.3775 0.3775 0.0625,0.25833333333333 q -0.3775 0.3775 0.1975,0.12291666666667 q -0.3775 0.3775 0.400625,1 " 
					stroke-width ="0.2" /></g>  <g id="leaf2" transform="skewX(-13) skewY(-13)"><path d="M 0,0 
					q 0.755 0.755 0.6725,0.4625 q 0.755 0.755 0.67625,0.36666666666667 q 0.755 0.755 0.2125,0.50416666666667 q 0.755 0.755 0.145,0.34583333333333 q 0.755 0.755 -0.3375,0.86666666666667 q 0.755 0.755 -0.4475,0.24583333333333 q 0.755 0.755 -0.125,0.51666666666667 q 0.755 0.755 -0.395,0.24583333333333 q 0.755 0.755 -0.40125,1 
					M 0,0 
					q -0.755 0.755 -0.6725,0.4625 q -0.755 0.755 -0.67625,0.36666666666667 q -0.755 0.755 -0.2125,0.50416666666667 q -0.755 0.755 -0.145,0.34583333333333 q -0.755 0.755 0.3375,0.86666666666667 q -0.755 0.755 0.4475,0.24583333333333 q -0.755 0.755 0.125,0.51666666666667 q -0.755 0.755 0.395,0.24583333333333 q -0.755 0.755 0.40125,1 " 
					stroke-width ="0.2" /></g>  <g id="leaf3" transform="skewX(10) skewY(10)"><path d="M 0,0 
					q 1.1325 1.1325 0.90875,0.69375 q 1.1325 1.1325 0.914375,0.55 q 1.1325 1.1325 0.31875,0.75625 q 1.1325 1.1325 0.2175,0.51875 q 1.1325 1.1325 -0.50625,1.3 q 1.1325 1.1325 -0.67125,0.36875 q 1.1325 1.1325 -0.1875,0.775 q 1.1325 1.1325 -0.5925,0.36875 q 1.1325 1.1325 -0.401875,1 
					M 0,0 
					q -1.1325 1.1325 -0.90875,0.69375 q -1.1325 1.1325 -0.914375,0.55 q -1.1325 1.1325 -0.31875,0.75625 q -1.1325 1.1325 -0.2175,0.51875 q -1.1325 1.1325 0.50625,1.3 q -1.1325 1.1325 0.67125,0.36875 q -1.1325 1.1325 0.1875,0.775 q -1.1325 1.1325 0.5925,0.36875 q -1.1325 1.1325 0.401875,1 " 
					stroke-width ="0.2" /></g>  <g id="leaf4" transform="skewX(-1) skewY(-1)"><path d="M 0,0 
					q 1.51 1.51 1.145,0.925 q 1.51 1.51 1.1525,0.73333333333333 q 1.51 1.51 0.425,1.0083333333333 q 1.51 1.51 0.29,0.69166666666667 q 1.51 1.51 -0.675,1.7333333333333 q 1.51 1.51 -0.895,0.49166666666667 q 1.51 1.51 -0.25,1.0333333333333 q 1.51 1.51 -0.79,0.49166666666667 q 1.51 1.51 -0.4025,1 
					M 0,0 
					q -1.51 1.51 -1.145,0.925 q -1.51 1.51 -1.1525,0.73333333333333 q -1.51 1.51 -0.425,1.0083333333333 q -1.51 1.51 -0.29,0.69166666666667 q -1.51 1.51 0.675,1.7333333333333 q -1.51 1.51 0.895,0.49166666666667 q -1.51 1.51 0.25,1.0333333333333 q -1.51 1.51 0.79,0.49166666666667 q -1.51 1.51 0.4025,1 " 
					stroke-width ="0.2" /></g>  <g id="leaf5" transform="skewX(-4) skewY(-4)"><path d="M 0,0 
					q 1.8875 1.8875 1.38125,1.15625 q 1.8875 1.8875 1.390625,0.91666666666667 q 1.8875 1.8875 0.53125,1.2604166666667 q 1.8875 1.8875 0.3625,0.86458333333333 q 1.8875 1.8875 -0.84375,2.1666666666667 q 1.8875 1.8875 -1.11875,0.61458333333333 q 1.8875 1.8875 -0.3125,1.2916666666667 q 1.8875 1.8875 -0.9875,0.61458333333333 q 1.8875 1.8875 -0.403125,1 
					M 0,0 
					q -1.8875 1.8875 -1.38125,1.15625 q -1.8875 1.8875 -1.390625,0.91666666666667 q -1.8875 1.8875 -0.53125,1.2604166666667 q -1.8875 1.8875 -0.3625,0.86458333333333 q -1.8875 1.8875 0.84375,2.1666666666667 q -1.8875 1.8875 1.11875,0.61458333333333 q -1.8875 1.8875 0.3125,1.2916666666667 q -1.8875 1.8875 0.9875,0.61458333333333 q -1.8875 1.8875 0.403125,1 " 
					stroke-width ="0.2" /></g>  <g id="leaf6" transform="skewX(-10) skewY(-10)"><path d="M 0,0 
					q 2.265 2.265 1.6175,1.3875 q 2.265 2.265 1.62875,1.1 q 2.265 2.265 0.6375,1.5125 q 2.265 2.265 0.435,1.0375 q 2.265 2.265 -1.0125,2.6 q 2.265 2.265 -1.3425,0.7375 q 2.265 2.265 -0.375,1.55 q 2.265 2.265 -1.185,0.7375 q 2.265 2.265 -0.40375,1 
					M 0,0 
					q -2.265 2.265 -1.6175,1.3875 q -2.265 2.265 -1.62875,1.1 q -2.265 2.265 -0.6375,1.5125 q -2.265 2.265 -0.435,1.0375 q -2.265 2.265 1.0125,2.6 q -2.265 2.265 1.3425,0.7375 q -2.265 2.265 0.375,1.55 q -2.265 2.265 1.185,0.7375 q -2.265 2.265 0.40375,1 " 
					stroke-width ="0.2" /></g>  <g id="leaf7" transform="skewX(13) skewY(13)"><path d="M 0,0 
					q 2.6425 2.6425 1.85375,1.61875 q 2.6425 2.6425 1.866875,1.2833333333333 q 2.6425 2.6425 0.74375,1.7645833333333 q 2.6425 2.6425 0.5075,1.2104166666667 q 2.6425 2.6425 -1.18125,3.0333333333333 q 2.6425 2.6425 -1.56625,0.86041666666667 q 2.6425 2.6425 -0.4375,1.8083333333333 q 2.6425 2.6425 -1.3825,0.86041666666667 q 3.5175 2.6425 -0.404375,1 
					M 0,0 
					q -2.6425 2.6425 -1.85375,1.61875 q -2.6425 2.6425 -1.866875,1.2833333333333 q -2.6425 2.6425 -0.74375,1.7645833333333 q -2.6425 2.6425 -0.5075,1.2104166666667 q -2.6425 2.6425 1.18125,3.0333333333333 q -2.6425 2.6425 1.56625,0.86041666666667 q -2.6425 2.6425 0.4375,1.8083333333333 q -2.6425 2.6425 1.3825,0.86041666666667 q -3.5175 2.6425 0.404375,1 " 
					stroke-width ="0.2" /></g>  <g id="leaf8" transform="skewX(-19) skewY(-19)"><path d="M 0,0 
					q 3.02 3.02 2.09,1.85 q 3.02 3.02 2.105,1.4666666666667 q 3.02 3.02 0.85,2.0166666666667 q 3.02 3.02 0.58,1.3833333333333 q 3.02 3.02 -1.35,3.4666666666667 q 3.02 3.02 -1.79,0.98333333333333 q 3.02 3.02 -0.5,2.0666666666667 q 3.02 3.02 -1.58,0.98333333333333 q 4.02 3.02 -0.405,1 
					M 0,0 
					q -3.02 3.02 -2.09,1.85 q -3.02 3.02 -2.105,1.4666666666667 q -3.02 3.02 -0.85,2.0166666666667 q -3.02 3.02 -0.58,1.3833333333333 q -3.02 3.02 1.35,3.4666666666667 q -3.02 3.02 1.79,0.98333333333333 q -3.02 3.02 0.5,2.0666666666667 q -3.02 3.02 1.58,0.98333333333333 q -4.02 3.02 0.405,1 " 
					stroke-width ="0.2" /></g><g id="flower1" transform="skewX(-8) skewY(-8)">
						<path d="M 0,0
						Q 0.44,0.375 0,0.9975"
						stroke="rgb(67,136,150)" 
						fill="transparent"
						stroke-width ="0.3" /><path d="M 0,0.9975 
						q 0.0925 0.04625 0,1 
						M 0,0.9975 
						q -0.0925 0.04625 0,1 " 
						transform="rotate(0 0,0.9975 )"
						stroke-width ="0.1"
						fill="rgb(37,133,10)"
						/><circle cx="0" cy="0.9975" r="0.285" fill="rgb(120,87,170)"/><circle cx="-0.04" cy="1.0075" r="0.19" fill="rgb(124.5,97.5,188.5)"/><path d="M 0,0.9975 
						q 0.0925 0.04625 0,1 
						M 0,0.9975 
						q -0.0925 0.04625 0,1 " 
						transform="rotate(72 0,0.9975 )"
						stroke-width ="0.1"
						fill="rgb(20.5,125.5,9.5)"
						/><circle cx="0" cy="0.9975" r="0.285" fill="rgb(120,87,170)"/><circle cx="-0.05" cy="1.0475" r="0.19" fill="rgb(124.5,97.5,188.5)"/><path d="M 0,0.9975 
						q 0.0925 0.04625 0,1 
						M 0,0.9975 
						q -0.0925 0.04625 0,1 " 
						transform="rotate(144 0,0.9975 )"
						stroke-width ="0.1"
						fill="rgb(29,127,0)"
						/><circle cx="0" cy="0.9975" r="0.285" fill="rgb(120,87,170)"/><circle cx="0.09" cy="1.0275" r="0.19" fill="rgb(124.5,97.5,188.5)"/><path d="M 0,0.9975 
						q 0.0925 0.04625 0,1 
						M 0,0.9975 
						q -0.0925 0.04625 0,1 " 
						transform="rotate(216 0,0.9975 )"
						stroke-width ="0.1"
						fill="rgb(24.5,131.5,2.5)"
						/><circle cx="0" cy="0.9975" r="0.285" fill="rgb(120,87,170)"/><circle cx="0.07" cy="1.0775" r="0.19" fill="rgb(124.5,97.5,188.5)"/><path d="M 0,0.9975 
						q 0.0925 0.04625 0,1 
						M 0,0.9975 
						q -0.0925 0.04625 0,1 " 
						transform="rotate(288 0,0.9975 )"
						stroke-width ="0.1"
						fill="rgb(8,131,0)"
						/><circle cx="0" cy="0.9975" r="0.285" fill="rgb(120,87,170)"/><circle cx="0.07" cy="0.9375" r="0.19" fill="rgb(124.5,97.5,188.5)"/><path d="M 0,0.9975 
						q 0.0925 0.04625 0,1 
						M 0,0.9975 
						q -0.0925 0.04625 0,1 " 
						transform="rotate(360 0,0.9975 )"
						stroke-width ="0.1"
						fill="rgb(17.5,112.5,1.5)"
						/><circle cx="0" cy="0.9975" r="0.285" fill="rgb(120,87,170)"/><circle cx="-0.08" cy="0.8975" r="0.19" fill="rgb(124.5,97.5,188.5)"/><path d="M 0,0.9975 
						q 0.0925 0.04625 0,1 
						M 0,0.9975 
						q -0.0925 0.04625 0,1 " 
						transform="rotate(432 0,0.9975 )"
						stroke-width ="0.1"
						fill="rgb(15,122,0)"
						/><circle cx="0" cy="0.9975" r="0.285" fill="rgb(120,87,170)"/><circle cx="-0.1" cy="0.9575" r="0.19" fill="rgb(124.5,97.5,188.5)"/><path d="M 0,0.9975 
						q 0.0925 0.04625 0,1 
						M 0,0.9975 
						q -0.0925 0.04625 0,1 " 
						transform="rotate(504 0,0.9975 )"
						stroke-width ="0.1"
						fill="rgb(3.5,105.5,0)"
						/><circle cx="0" cy="0.9975" r="0.285" fill="rgb(120,87,170)"/><circle cx="0.03" cy="1.0375" r="0.19" fill="rgb(124.5,97.5,188.5)"/><path d="M 0,0.9975 
						q 0.0925 0.04625 0,1 
						M 0,0.9975 
						q -0.0925 0.04625 0,1 " 
						transform="rotate(576 0,0.9975 )"
						stroke-width ="0.1"
						fill="rgb(14,112,0)"
						/><circle cx="0" cy="0.9975" r="0.285" fill="rgb(120,87,170)"/><circle cx="0.05" cy="1.0975" r="0.19" fill="rgb(124.5,97.5,188.5)"/><path d="M 0,0.9975 
						q 0.0925 0.04625 0,1 
						M 0,0.9975 
						q -0.0925 0.04625 0,1 " 
						transform="rotate(648 0,0.9975 )"
						stroke-width ="0.1"
						fill="rgb(11.5,112.5,0)"
						/><circle cx="0" cy="0.9975" r="0.285" fill="rgb(120,87,170)"/><circle cx="0.03" cy="0.8975" r="0.19" fill="rgb(124.5,97.5,188.5)"/><path d="M 0,0.9975 
						q 0.0925 0.04625 0,1 
						M 0,0.9975 
						q -0.0925 0.04625 0,1 " 
						transform="rotate(720 0,0.9975 )"
						stroke-width ="0.1"
						fill="rgb(0,114,0)"
						/><circle cx="0" cy="0.9975" r="0.285" fill="rgb(120,87,170)"/><circle cx="-0.01" cy="1.0375" r="0.19" fill="rgb(124.5,97.5,188.5)"/><path d="M 0,0.9975 
						q 0.0925 0.04625 0,1 
						M 0,0.9975 
						q -0.0925 0.04625 0,1 " 
						transform="rotate(792 0,0.9975 )"
						stroke-width ="0.1"
						fill="rgb(3.5,108.5,0)"
						/><circle cx="0" cy="0.9975" r="0.285" fill="rgb(120,87,170)"/><circle cx="-0.08" cy="1.0475" r="0.19" fill="rgb(124.5,97.5,188.5)"/><path d="M 0,0.9975 
						q 0.0925 0.04625 0,1 
						M 0,0.9975 
						q -0.0925 0.04625 0,1 " 
						transform="rotate(864 0,0.9975 )"
						stroke-width ="0.1"
						fill="rgb(0,97,0)"
						/><circle cx="0" cy="0.9975" r="0.285" fill="rgb(120,87,170)"/><circle cx="0.02" cy="0.9575" r="0.19" fill="rgb(124.5,97.5,188.5)"/><path d="M 0,0.9975 
						q 0.0925 0.04625 0,1 
						M 0,0.9975 
						q -0.0925 0.04625 0,1 " 
						transform="rotate(936 0,0.9975 )"
						stroke-width ="0.1"
						fill="rgb(0,105.5,0)"
						/><circle cx="0" cy="0.9975" r="0.285" fill="rgb(120,87,170)"/><circle cx="0.07" cy="0.9275" r="0.19" fill="rgb(124.5,97.5,188.5)"/><path d="M 0,0.9975 
						q 0.0925 0.04625 0,1 
						M 0,0.9975 
						q -0.0925 0.04625 0,1 " 
						transform="rotate(1008 0,0.9975 )"
						stroke-width ="0.1"
						fill="rgb(0,95,0)"
						/><circle cx="0" cy="0.9975" r="0.285" fill="rgb(120,87,170)"/><circle cx="-0.08" cy="1.0675" r="0.19" fill="rgb(124.5,97.5,188.5)"/><path d="M 0,0.9975 
						q 0.0925 0.04625 0,1 
						M 0,0.9975 
						q -0.0925 0.04625 0,1 " 
						transform="rotate(1080 0,0.9975 )"
						stroke-width ="0.1"
						fill="rgb(0,98.5,0)"
						/><circle cx="0" cy="0.9975" r="0.285" fill="rgb(120,87,170)"/><circle cx="0.05" cy="0.8975" r="0.19" fill="rgb(124.5,97.5,188.5)"/></g><g id="flower2" transform="skewX(4) skewY(4)">
						<path d="M 0,0
						Q 1,0.75 0,1.995"
						stroke="rgb(67,136,150)" 
						fill="transparent"
						stroke-width ="0.3" /><path d="M 0,1.995 
						q 0.185 0.0925 0,1.5 
						M 0,1.995 
						q -0.185 0.0925 0,1.5 " 
						transform="rotate(0 0,1.995 )"
						stroke-width ="0.1"
						fill="rgb(21,139,10)"
						/><path d="M 0,1.995 
						q 0.185 0.0925 0,1.5 
						M 0,1.995 
						q -0.185 0.0925 0,1.5 " 
						transform="rotate(21.6 0,1.995 )"
						stroke-width ="0.1"
						fill="rgb(23.5,130.5,4.5)"
						/><path d="M 0,1.995 
						q 0.185 0.0925 0,1.5 
						M 0,1.995 
						q -0.185 0.0925 0,1.5 " 
						transform="rotate(43.2 0,1.995 )"
						stroke-width ="0.1"
						fill="rgb(13,130,11)"
						/><path d="M 0,1.995 
						q 0.185 0.0925 0,1.5 
						M 0,1.995 
						q -0.185 0.0925 0,1.5 " 
						transform="rotate(64.8 0,1.995 )"
						stroke-width ="0.1"
						fill="rgb(24.5,121.5,0.5)"
						/></g><g id="flower3" transform="skewX(-5) skewY(-5)">
						<path d="M 0,0
						Q 1.2,1.125 0,2.9925"
						stroke="rgb(67,136,150)" 
						fill="transparent"
						stroke-width ="0.3" /><path d="M 0,2.9925 
						q 0.2775 0.13875 0,2.25 
						M 0,2.9925 
						q -0.2775 0.13875 0,2.25 " 
						transform="rotate(0 0,2.9925 )"
						stroke-width ="0.1"
						fill="rgb(27,137,4)"
						/><path d="M 0,2.9925 
						q 0.2775 0.13875 0,2.25 
						M 0,2.9925 
						q -0.2775 0.13875 0,2.25 " 
						transform="rotate(21.6 0,2.9925 )"
						stroke-width ="0.1"
						fill="rgb(25.5,121.5,0)"
						/><path d="M 0,2.9925 
						q 0.2775 0.13875 0,2.25 
						M 0,2.9925 
						q -0.2775 0.13875 0,2.25 " 
						transform="rotate(43.2 0,2.9925 )"
						stroke-width ="0.1"
						fill="rgb(29,128,9)"
						/><path d="M 0,2.9925 
						q 0.2775 0.13875 0,2.25 
						M 0,2.9925 
						q -0.2775 0.13875 0,2.25 " 
						transform="rotate(64.8 0,2.9925 )"
						stroke-width ="0.1"
						fill="rgb(16.5,128.5,0)"
						/></g><g id="flower4" transform="skewX(-3) skewY(-3)">
						<path d="M 0,0
						Q 0.13,1.5 0,3.99"
						stroke="rgb(67,136,150)" 
						fill="transparent"
						stroke-width ="0.3" /><path d="M 0,3.99 
						q 0.37 0.185 0,3 
						M 0,3.99 
						q -0.37 0.185 0,3 " 
						transform="rotate(0 0,3.99 )"
						stroke-width ="0.1"
						fill="rgb(22,141,12)"
						/><circle cx="0" cy="3.99" r="1.14" fill="rgb(113,93,170)"/><circle cx="0.06" cy="3.99" r="0.76" fill="rgb(134.5,110.5,186.5)"/><path d="M 0,3.99 
						q 0.37 0.185 0,3 
						M 0,3.99 
						q -0.37 0.185 0,3 " 
						transform="rotate(72 0,3.99 )"
						stroke-width ="0.1"
						fill="rgb(16.5,130.5,15.5)"
						/><circle cx="0" cy="3.99" r="1.14" fill="rgb(113,93,170)"/><circle cx="-0.1" cy="3.94" r="0.76" fill="rgb(134.5,110.5,186.5)"/><path d="M 0,3.99 
						q 0.37 0.185 0,3 
						M 0,3.99 
						q -0.37 0.185 0,3 " 
						transform="rotate(144 0,3.99 )"
						stroke-width ="0.1"
						fill="rgb(12,121,0)"
						/><circle cx="0" cy="3.99" r="1.14" fill="rgb(113,93,170)"/><circle cx="-0.04" cy="3.99" r="0.76" fill="rgb(134.5,110.5,186.5)"/><path d="M 0,3.99 
						q 0.37 0.185 0,3 
						M 0,3.99 
						q -0.37 0.185 0,3 " 
						transform="rotate(216 0,3.99 )"
						stroke-width ="0.1"
						fill="rgb(20.5,116.5,0)"
						/><circle cx="0" cy="3.99" r="1.14" fill="rgb(113,93,170)"/><circle cx="-0.08" cy="3.95" r="0.76" fill="rgb(134.5,110.5,186.5)"/><path d="M 0,3.99 
						q 0.37 0.185 0,3 
						M 0,3.99 
						q -0.37 0.185 0,3 " 
						transform="rotate(288 0,3.99 )"
						stroke-width ="0.1"
						fill="rgb(12,119,0)"
						/><circle cx="0" cy="3.99" r="1.14" fill="rgb(113,93,170)"/><circle cx="-0.1" cy="3.89" r="0.76" fill="rgb(134.5,110.5,186.5)"/><path d="M 0,3.99 
						q 0.37 0.185 0,3 
						M 0,3.99 
						q -0.37 0.185 0,3 " 
						transform="rotate(360 0,3.99 )"
						stroke-width ="0.1"
						fill="rgb(15.5,121.5,0)"
						/><circle cx="0" cy="3.99" r="1.14" fill="rgb(113,93,170)"/><circle cx="-0.02" cy="3.89" r="0.76" fill="rgb(134.5,110.5,186.5)"/><path d="M 0,3.99 
						q 0.37 0.185 0,3 
						M 0,3.99 
						q -0.37 0.185 0,3 " 
						transform="rotate(432 0,3.99 )"
						stroke-width ="0.1"
						fill="rgb(8,111,0)"
						/><circle cx="0" cy="3.99" r="1.14" fill="rgb(113,93,170)"/><circle cx="-0.02" cy="3.94" r="0.76" fill="rgb(134.5,110.5,186.5)"/><path d="M 0,3.99 
						q 0.37 0.185 0,3 
						M 0,3.99 
						q -0.37 0.185 0,3 " 
						transform="rotate(504 0,3.99 )"
						stroke-width ="0.1"
						fill="rgb(15.5,113.5,0)"
						/><circle cx="0" cy="3.99" r="1.14" fill="rgb(113,93,170)"/><circle cx="-0.02" cy="4" r="0.76" fill="rgb(134.5,110.5,186.5)"/><path d="M 0,3.99 
						q 0.37 0.185 0,3 
						M 0,3.99 
						q -0.37 0.185 0,3 " 
						transform="rotate(576 0,3.99 )"
						stroke-width ="0.1"
						fill="rgb(8,112,0)"
						/><circle cx="0" cy="3.99" r="1.14" fill="rgb(113,93,170)"/><circle cx="0" cy="4.01" r="0.76" fill="rgb(134.5,110.5,186.5)"/><path d="M 0,3.99 
						q 0.37 0.185 0,3 
						M 0,3.99 
						q -0.37 0.185 0,3 " 
						transform="rotate(648 0,3.99 )"
						stroke-width ="0.1"
						fill="rgb(1.5,109.5,0)"
						/><circle cx="0" cy="3.99" r="1.14" fill="rgb(113,93,170)"/><circle cx="0.07" cy="3.91" r="0.76" fill="rgb(134.5,110.5,186.5)"/><path d="M 0,3.99 
						q 0.37 0.185 0,3 
						M 0,3.99 
						q -0.37 0.185 0,3 " 
						transform="rotate(720 0,3.99 )"
						stroke-width ="0.1"
						fill="rgb(9,112,0)"
						/><circle cx="0" cy="3.99" r="1.14" fill="rgb(113,93,170)"/><circle cx="0.06" cy="3.92" r="0.76" fill="rgb(134.5,110.5,186.5)"/><path d="M 0,3.99 
						q 0.37 0.185 0,3 
						M 0,3.99 
						q -0.37 0.185 0,3 " 
						transform="rotate(792 0,3.99 )"
						stroke-width ="0.1"
						fill="rgb(0,93.5,0)"
						/><circle cx="0" cy="3.99" r="1.14" fill="rgb(113,93,170)"/><circle cx="-0.1" cy="3.94" r="0.76" fill="rgb(134.5,110.5,186.5)"/><path d="M 0,3.99 
						q 0.37 0.185 0,3 
						M 0,3.99 
						q -0.37 0.185 0,3 " 
						transform="rotate(864 0,3.99 )"
						stroke-width ="0.1"
						fill="rgb(0,111,0)"
						/><circle cx="0" cy="3.99" r="1.14" fill="rgb(113,93,170)"/><circle cx="0.02" cy="3.89" r="0.76" fill="rgb(134.5,110.5,186.5)"/><path d="M 0,3.99 
						q 0.37 0.185 0,3 
						M 0,3.99 
						q -0.37 0.185 0,3 " 
						transform="rotate(936 0,3.99 )"
						stroke-width ="0.1"
						fill="rgb(0,91.5,0)"
						/><circle cx="0" cy="3.99" r="1.14" fill="rgb(113,93,170)"/><circle cx="0" cy="3.98" r="0.76" fill="rgb(134.5,110.5,186.5)"/><path d="M 0,3.99 
						q 0.37 0.185 0,3 
						M 0,3.99 
						q -0.37 0.185 0,3 " 
						transform="rotate(1008 0,3.99 )"
						stroke-width ="0.1"
						fill="rgb(0,103,0)"
						/><circle cx="0" cy="3.99" r="1.14" fill="rgb(113,93,170)"/><circle cx="-0.01" cy="3.9" r="0.76" fill="rgb(134.5,110.5,186.5)"/><path d="M 0,3.99 
						q 0.37 0.185 0,3 
						M 0,3.99 
						q -0.37 0.185 0,3 " 
						transform="rotate(1080 0,3.99 )"
						stroke-width ="0.1"
						fill="rgb(0,88.5,0)"
						/><circle cx="0" cy="3.99" r="1.14" fill="rgb(113,93,170)"/><circle cx="-0.02" cy="4.08" r="0.76" fill="rgb(134.5,110.5,186.5)"/></g><g id="flower5" transform="skewX(4) skewY(4)">
						<path d="M 0,0
						Q -0.68,1.875 0,4.9875"
						stroke="rgb(67,136,150)" 
						fill="transparent"
						stroke-width ="0.3" /><path d="M 0,4.9875 
						q 0.4625 0.23125 0,3.75 
						M 0,4.9875 
						q -0.4625 0.23125 0,3.75 " 
						transform="rotate(0 0,4.9875 )"
						stroke-width ="0.1"
						fill="rgb(23,123,11)"
						/><circle cx="0" cy="4.9875" r="1.425" fill="rgb(120,91,172)"/><circle cx="0.02" cy="4.9275" r="0.95" fill="rgb(132.5,90.5,187.5)"/><path d="M 0,4.9875 
						q 0.4625 0.23125 0,3.75 
						M 0,4.9875 
						q -0.4625 0.23125 0,3.75 " 
						transform="rotate(72 0,4.9875 )"
						stroke-width ="0.1"
						fill="rgb(14.5,122.5,4.5)"
						/><circle cx="0" cy="4.9875" r="1.425" fill="rgb(120,91,172)"/><circle cx="0.02" cy="4.9275" r="0.95" fill="rgb(132.5,90.5,187.5)"/><path d="M 0,4.9875 
						q 0.4625 0.23125 0,3.75 
						M 0,4.9875 
						q -0.4625 0.23125 0,3.75 " 
						transform="rotate(144 0,4.9875 )"
						stroke-width ="0.1"
						fill="rgb(16,128,0)"
						/><circle cx="0" cy="4.9875" r="1.425" fill="rgb(120,91,172)"/><circle cx="-0.09" cy="4.9475" r="0.95" fill="rgb(132.5,90.5,187.5)"/><path d="M 0,4.9875 
						q 0.4625 0.23125 0,3.75 
						M 0,4.9875 
						q -0.4625 0.23125 0,3.75 " 
						transform="rotate(216 0,4.9875 )"
						stroke-width ="0.1"
						fill="rgb(12.5,114.5,0)"
						/><circle cx="0" cy="4.9875" r="1.425" fill="rgb(120,91,172)"/><circle cx="0.02" cy="4.9875" r="0.95" fill="rgb(132.5,90.5,187.5)"/><path d="M 0,4.9875 
						q 0.4625 0.23125 0,3.75 
						M 0,4.9875 
						q -0.4625 0.23125 0,3.75 " 
						transform="rotate(288 0,4.9875 )"
						stroke-width ="0.1"
						fill="rgb(21,128,4)"
						/><circle cx="0" cy="4.9875" r="1.425" fill="rgb(120,91,172)"/><circle cx="0.1" cy="4.9275" r="0.95" fill="rgb(132.5,90.5,187.5)"/><path d="M 0,4.9875 
						q 0.4625 0.23125 0,3.75 
						M 0,4.9875 
						q -0.4625 0.23125 0,3.75 " 
						transform="rotate(360 0,4.9875 )"
						stroke-width ="0.1"
						fill="rgb(22.5,115.5,0)"
						/><circle cx="0" cy="4.9875" r="1.425" fill="rgb(120,91,172)"/><circle cx="0.08" cy="4.9475" r="0.95" fill="rgb(132.5,90.5,187.5)"/><path d="M 0,4.9875 
						q 0.4625 0.23125 0,3.75 
						M 0,4.9875 
						q -0.4625 0.23125 0,3.75 " 
						transform="rotate(432 0,4.9875 )"
						stroke-width ="0.1"
						fill="rgb(11,123,0)"
						/><circle cx="0" cy="4.9875" r="1.425" fill="rgb(120,91,172)"/><circle cx="-0.1" cy="5.0775" r="0.95" fill="rgb(132.5,90.5,187.5)"/><path d="M 0,4.9875 
						q 0.4625 0.23125 0,3.75 
						M 0,4.9875 
						q -0.4625 0.23125 0,3.75 " 
						transform="rotate(504 0,4.9875 )"
						stroke-width ="0.1"
						fill="rgb(15.5,120.5,0)"
						/><circle cx="0" cy="4.9875" r="1.425" fill="rgb(120,91,172)"/><circle cx="0.07" cy="5.0275" r="0.95" fill="rgb(132.5,90.5,187.5)"/><path d="M 0,4.9875 
						q 0.4625 0.23125 0,3.75 
						M 0,4.9875 
						q -0.4625 0.23125 0,3.75 " 
						transform="rotate(576 0,4.9875 )"
						stroke-width ="0.1"
						fill="rgb(9,118,0)"
						/><circle cx="0" cy="4.9875" r="1.425" fill="rgb(120,91,172)"/><circle cx="0.05" cy="4.9875" r="0.95" fill="rgb(132.5,90.5,187.5)"/><path d="M 0,4.9875 
						q 0.4625 0.23125 0,3.75 
						M 0,4.9875 
						q -0.4625 0.23125 0,3.75 " 
						transform="rotate(648 0,4.9875 )"
						stroke-width ="0.1"
						fill="rgb(4.5,99.5,0)"
						/><circle cx="0" cy="4.9875" r="1.425" fill="rgb(120,91,172)"/><circle cx="-0.03" cy="5.0575" r="0.95" fill="rgb(132.5,90.5,187.5)"/><path d="M 0,4.9875 
						q 0.4625 0.23125 0,3.75 
						M 0,4.9875 
						q -0.4625 0.23125 0,3.75 " 
						transform="rotate(720 0,4.9875 )"
						stroke-width ="0.1"
						fill="rgb(9,100,0)"
						/><circle cx="0" cy="4.9875" r="1.425" fill="rgb(120,91,172)"/><circle cx="0.01" cy="5.0075" r="0.95" fill="rgb(132.5,90.5,187.5)"/><path d="M 0,4.9875 
						q 0.4625 0.23125 0,3.75 
						M 0,4.9875 
						q -0.4625 0.23125 0,3.75 " 
						transform="rotate(792 0,4.9875 )"
						stroke-width ="0.1"
						fill="rgb(3.5,109.5,0)"
						/><circle cx="0" cy="4.9875" r="1.425" fill="rgb(120,91,172)"/><circle cx="0" cy="5.0375" r="0.95" fill="rgb(132.5,90.5,187.5)"/><path d="M 0,4.9875 
						q 0.4625 0.23125 0,3.75 
						M 0,4.9875 
						q -0.4625 0.23125 0,3.75 " 
						transform="rotate(864 0,4.9875 )"
						stroke-width ="0.1"
						fill="rgb(0,109,0)"
						/><circle cx="0" cy="4.9875" r="1.425" fill="rgb(120,91,172)"/><circle cx="-0.1" cy="4.9275" r="0.95" fill="rgb(132.5,90.5,187.5)"/><path d="M 0,4.9875 
						q 0.4625 0.23125 0,3.75 
						M 0,4.9875 
						q -0.4625 0.23125 0,3.75 " 
						transform="rotate(936 0,4.9875 )"
						stroke-width ="0.1"
						fill="rgb(0,93.5,0)"
						/><circle cx="0" cy="4.9875" r="1.425" fill="rgb(120,91,172)"/><circle cx="-0.07" cy="5.0775" r="0.95" fill="rgb(132.5,90.5,187.5)"/><path d="M 0,4.9875 
						q 0.4625 0.23125 0,3.75 
						M 0,4.9875 
						q -0.4625 0.23125 0,3.75 " 
						transform="rotate(1008 0,4.9875 )"
						stroke-width ="0.1"
						fill="rgb(0,96,0)"
						/><circle cx="0" cy="4.9875" r="1.425" fill="rgb(120,91,172)"/><circle cx="-0.06" cy="4.9875" r="0.95" fill="rgb(132.5,90.5,187.5)"/><path d="M 0,4.9875 
						q 0.4625 0.23125 0,3.75 
						M 0,4.9875 
						q -0.4625 0.23125 0,3.75 " 
						transform="rotate(1080 0,4.9875 )"
						stroke-width ="0.1"
						fill="rgb(0,83.5,0)"
						/><circle cx="0" cy="4.9875" r="1.425" fill="rgb(120,91,172)"/><circle cx="0.05" cy="5.0375" r="0.95" fill="rgb(132.5,90.5,187.5)"/></g><g id="flower6" transform="skewX(1) skewY(1)">
						<path d="M 0,0
						Q 0.14,2.25 0,5.985"
						stroke="rgb(67,136,150)" 
						fill="transparent"
						stroke-width ="0.3" /><path d="M 0,5.985 
						q 0.555 0.2775 0,4.5 
						M 0,5.985 
						q -0.555 0.2775 0,4.5 " 
						transform="rotate(0 0,5.985 )"
						stroke-width ="0.1"
						fill="rgb(30,122,12)"
						/><circle cx="0" cy="5.985" r="1.71" fill="rgb(121,89,172)"/><circle cx="0.07" cy="6.055" r="1.14" fill="rgb(125.5,109.5,173.5)"/><path d="M 0,5.985 
						q 0.555 0.2775 0,4.5 
						M 0,5.985 
						q -0.555 0.2775 0,4.5 " 
						transform="rotate(72 0,5.985 )"
						stroke-width ="0.1"
						fill="rgb(17.5,133.5,0)"
						/><circle cx="0" cy="5.985" r="1.71" fill="rgb(121,89,172)"/><circle cx="-0.06" cy="6.085" r="1.14" fill="rgb(125.5,109.5,173.5)"/><path d="M 0,5.985 
						q 0.555 0.2775 0,4.5 
						M 0,5.985 
						q -0.555 0.2775 0,4.5 " 
						transform="rotate(144 0,5.985 )"
						stroke-width ="0.1"
						fill="rgb(24,117,0)"
						/><circle cx="0" cy="5.985" r="1.71" fill="rgb(121,89,172)"/><circle cx="-0.06" cy="5.925" r="1.14" fill="rgb(125.5,109.5,173.5)"/><path d="M 0,5.985 
						q 0.555 0.2775 0,4.5 
						M 0,5.985 
						q -0.555 0.2775 0,4.5 " 
						transform="rotate(216 0,5.985 )"
						stroke-width ="0.1"
						fill="rgb(12.5,118.5,8.5)"
						/><circle cx="0" cy="5.985" r="1.71" fill="rgb(121,89,172)"/><circle cx="0" cy="5.915" r="1.14" fill="rgb(125.5,109.5,173.5)"/><path d="M 0,5.985 
						q 0.555 0.2775 0,4.5 
						M 0,5.985 
						q -0.555 0.2775 0,4.5 " 
						transform="rotate(288 0,5.985 )"
						stroke-width ="0.1"
						fill="rgb(22,126,0)"
						/><circle cx="0" cy="5.985" r="1.71" fill="rgb(121,89,172)"/><circle cx="-0.04" cy="6.025" r="1.14" fill="rgb(125.5,109.5,173.5)"/><path d="M 0,5.985 
						q 0.555 0.2775 0,4.5 
						M 0,5.985 
						q -0.555 0.2775 0,4.5 " 
						transform="rotate(360 0,5.985 )"
						stroke-width ="0.1"
						fill="rgb(15.5,121.5,0)"
						/><circle cx="0" cy="5.985" r="1.71" fill="rgb(121,89,172)"/><circle cx="0.04" cy="5.925" r="1.14" fill="rgb(125.5,109.5,173.5)"/><path d="M 0,5.985 
						q 0.555 0.2775 0,4.5 
						M 0,5.985 
						q -0.555 0.2775 0,4.5 " 
						transform="rotate(432 0,5.985 )"
						stroke-width ="0.1"
						fill="rgb(14,120,0)"
						/><circle cx="0" cy="5.985" r="1.71" fill="rgb(121,89,172)"/><circle cx="0.02" cy="5.935" r="1.14" fill="rgb(125.5,109.5,173.5)"/><path d="M 0,5.985 
						q 0.555 0.2775 0,4.5 
						M 0,5.985 
						q -0.555 0.2775 0,4.5 " 
						transform="rotate(504 0,5.985 )"
						stroke-width ="0.1"
						fill="rgb(4.5,104.5,0)"
						/><circle cx="0" cy="5.985" r="1.71" fill="rgb(121,89,172)"/><circle cx="0.03" cy="5.905" r="1.14" fill="rgb(125.5,109.5,173.5)"/><path d="M 0,5.985 
						q 0.555 0.2775 0,4.5 
						M 0,5.985 
						q -0.555 0.2775 0,4.5 " 
						transform="rotate(576 0,5.985 )"
						stroke-width ="0.1"
						fill="rgb(0,107,0)"
						/><circle cx="0" cy="5.985" r="1.71" fill="rgb(121,89,172)"/><circle cx="-0.08" cy="6.035" r="1.14" fill="rgb(125.5,109.5,173.5)"/><path d="M 0,5.985 
						q 0.555 0.2775 0,4.5 
						M 0,5.985 
						q -0.555 0.2775 0,4.5 " 
						transform="rotate(648 0,5.985 )"
						stroke-width ="0.1"
						fill="rgb(1.5,99.5,0)"
						/><circle cx="0" cy="5.985" r="1.71" fill="rgb(121,89,172)"/><circle cx="0" cy="5.995" r="1.14" fill="rgb(125.5,109.5,173.5)"/><path d="M 0,5.985 
						q 0.555 0.2775 0,4.5 
						M 0,5.985 
						q -0.555 0.2775 0,4.5 " 
						transform="rotate(720 0,5.985 )"
						stroke-width ="0.1"
						fill="rgb(0,111,0)"
						/><circle cx="0" cy="5.985" r="1.71" fill="rgb(121,89,172)"/><circle cx="0.04" cy="6.075" r="1.14" fill="rgb(125.5,109.5,173.5)"/><path d="M 0,5.985 
						q 0.555 0.2775 0,4.5 
						M 0,5.985 
						q -0.555 0.2775 0,4.5 " 
						transform="rotate(792 0,5.985 )"
						stroke-width ="0.1"
						fill="rgb(0.5,110.5,0)"
						/><circle cx="0" cy="5.985" r="1.71" fill="rgb(121,89,172)"/><circle cx="0.07" cy="6.025" r="1.14" fill="rgb(125.5,109.5,173.5)"/><path d="M 0,5.985 
						q 0.555 0.2775 0,4.5 
						M 0,5.985 
						q -0.555 0.2775 0,4.5 " 
						transform="rotate(864 0,5.985 )"
						stroke-width ="0.1"
						fill="rgb(0,92,0)"
						/><circle cx="0" cy="5.985" r="1.71" fill="rgb(121,89,172)"/><circle cx="0.04" cy="5.915" r="1.14" fill="rgb(125.5,109.5,173.5)"/><path d="M 0,5.985 
						q 0.555 0.2775 0,4.5 
						M 0,5.985 
						q -0.555 0.2775 0,4.5 " 
						transform="rotate(936 0,5.985 )"
						stroke-width ="0.1"
						fill="rgb(0,107.5,0)"
						/><circle cx="0" cy="5.985" r="1.71" fill="rgb(121,89,172)"/><circle cx="-0.08" cy="6.035" r="1.14" fill="rgb(125.5,109.5,173.5)"/><path d="M 0,5.985 
						q 0.555 0.2775 0,4.5 
						M 0,5.985 
						q -0.555 0.2775 0,4.5 " 
						transform="rotate(1008 0,5.985 )"
						stroke-width ="0.1"
						fill="rgb(0,100,0)"
						/><circle cx="0" cy="5.985" r="1.71" fill="rgb(121,89,172)"/><circle cx="-0.1" cy="5.975" r="1.14" fill="rgb(125.5,109.5,173.5)"/><path d="M 0,5.985 
						q 0.555 0.2775 0,4.5 
						M 0,5.985 
						q -0.555 0.2775 0,4.5 " 
						transform="rotate(1080 0,5.985 )"
						stroke-width ="0.1"
						fill="rgb(0,91.5,0)"
						/><circle cx="0" cy="5.985" r="1.71" fill="rgb(121,89,172)"/><circle cx="-0.07" cy="6.015" r="1.14" fill="rgb(125.5,109.5,173.5)"/></g><g id="flower7" transform="skewX(10) skewY(10)">
						<path d="M 0,0
						Q -0.76,2.625 0,6.9825"
						stroke="rgb(67,136,150)" 
						fill="transparent"
						stroke-width ="0.3" /><path d="M 0,6.9825 
						q 0.6475 0.32375 0,5.25 
						M 0,6.9825 
						q -0.6475 0.32375 0,5.25 " 
						transform="rotate(0 0,6.9825 )"
						stroke-width ="0.1"
						fill="rgb(18,135,9)"
						/><path d="M 0,6.9825 
						q 0.6475 0.32375 0,5.25 
						M 0,6.9825 
						q -0.6475 0.32375 0,5.25 " 
						transform="rotate(21.6 0,6.9825 )"
						stroke-width ="0.1"
						fill="rgb(21.5,138.5,0)"
						/><path d="M 0,6.9825 
						q 0.6475 0.32375 0,5.25 
						M 0,6.9825 
						q -0.6475 0.32375 0,5.25 " 
						transform="rotate(43.2 0,6.9825 )"
						stroke-width ="0.1"
						fill="rgb(32,118,0)"
						/><path d="M 0,6.9825 
						q 0.6475 0.32375 0,5.25 
						M 0,6.9825 
						q -0.6475 0.32375 0,5.25 " 
						transform="rotate(64.8 0,6.9825 )"
						stroke-width ="0.1"
						fill="rgb(28.5,124.5,0)"
						/></g><g id="flower8" transform="skewX(3) skewY(3)">
						<path d="M 0,0
						Q 0.15,3 0,7.98"
						stroke="rgb(67,136,150)" 
						fill="transparent"
						stroke-width ="0.3" /><path d="M 0,7.98 
						q 0.74 0.37 0,6 
						M 0,7.98 
						q -0.74 0.37 0,6 " 
						transform="rotate(0 0,7.98 )"
						stroke-width ="0.1"
						fill="rgb(31,139,3)"
						/><circle cx="0" cy="7.98" r="2.28" fill="rgb(117,85,168)"/><circle cx="-0.08" cy="8.01" r="1.52" fill="rgb(134.5,108.5,178.5)"/><path d="M 0,7.98 
						q 0.74 0.37 0,6 
						M 0,7.98 
						q -0.74 0.37 0,6 " 
						transform="rotate(72 0,7.98 )"
						stroke-width ="0.1"
						fill="rgb(26.5,135.5,14.5)"
						/><circle cx="0" cy="7.98" r="2.28" fill="rgb(117,85,168)"/><circle cx="-0.1" cy="7.98" r="1.52" fill="rgb(134.5,108.5,178.5)"/><path d="M 0,7.98 
						q 0.74 0.37 0,6 
						M 0,7.98 
						q -0.74 0.37 0,6 " 
						transform="rotate(144 0,7.98 )"
						stroke-width ="0.1"
						fill="rgb(30,123,0)"
						/><circle cx="0" cy="7.98" r="2.28" fill="rgb(117,85,168)"/><circle cx="-0.07" cy="7.94" r="1.52" fill="rgb(134.5,108.5,178.5)"/><path d="M 0,7.98 
						q 0.74 0.37 0,6 
						M 0,7.98 
						q -0.74 0.37 0,6 " 
						transform="rotate(216 0,7.98 )"
						stroke-width ="0.1"
						fill="rgb(23.5,128.5,0)"
						/><circle cx="0" cy="7.98" r="2.28" fill="rgb(117,85,168)"/><circle cx="-0.09" cy="8.01" r="1.52" fill="rgb(134.5,108.5,178.5)"/><path d="M 0,7.98 
						q 0.74 0.37 0,6 
						M 0,7.98 
						q -0.74 0.37 0,6 " 
						transform="rotate(288 0,7.98 )"
						stroke-width ="0.1"
						fill="rgb(7,130,0)"
						/><circle cx="0" cy="7.98" r="2.28" fill="rgb(117,85,168)"/><circle cx="0.05" cy="8" r="1.52" fill="rgb(134.5,108.5,178.5)"/><path d="M 0,7.98 
						q 0.74 0.37 0,6 
						M 0,7.98 
						q -0.74 0.37 0,6 " 
						transform="rotate(360 0,7.98 )"
						stroke-width ="0.1"
						fill="rgb(4.5,117.5,0)"
						/><circle cx="0" cy="7.98" r="2.28" fill="rgb(117,85,168)"/><circle cx="0.04" cy="7.93" r="1.52" fill="rgb(134.5,108.5,178.5)"/><path d="M 0,7.98 
						q 0.74 0.37 0,6 
						M 0,7.98 
						q -0.74 0.37 0,6 " 
						transform="rotate(432 0,7.98 )"
						stroke-width ="0.1"
						fill="rgb(20,124,0)"
						/><circle cx="0" cy="7.98" r="2.28" fill="rgb(117,85,168)"/><circle cx="-0.08" cy="7.93" r="1.52" fill="rgb(134.5,108.5,178.5)"/><path d="M 0,7.98 
						q 0.74 0.37 0,6 
						M 0,7.98 
						q -0.74 0.37 0,6 " 
						transform="rotate(504 0,7.98 )"
						stroke-width ="0.1"
						fill="rgb(10.5,114.5,0)"
						/><circle cx="0" cy="7.98" r="2.28" fill="rgb(117,85,168)"/><circle cx="-0.07" cy="7.99" r="1.52" fill="rgb(134.5,108.5,178.5)"/><path d="M 0,7.98 
						q 0.74 0.37 0,6 
						M 0,7.98 
						q -0.74 0.37 0,6 " 
						transform="rotate(576 0,7.98 )"
						stroke-width ="0.1"
						fill="rgb(9,109,0)"
						/><circle cx="0" cy="7.98" r="2.28" fill="rgb(117,85,168)"/><circle cx="0.02" cy="8.04" r="1.52" fill="rgb(134.5,108.5,178.5)"/><path d="M 0,7.98 
						q 0.74 0.37 0,6 
						M 0,7.98 
						q -0.74 0.37 0,6 " 
						transform="rotate(648 0,7.98 )"
						stroke-width ="0.1"
						fill="rgb(0,113.5,0)"
						/><circle cx="0" cy="7.98" r="2.28" fill="rgb(117,85,168)"/><circle cx="0.05" cy="7.93" r="1.52" fill="rgb(134.5,108.5,178.5)"/><path d="M 0,7.98 
						q 0.74 0.37 0,6 
						M 0,7.98 
						q -0.74 0.37 0,6 " 
						transform="rotate(720 0,7.98 )"
						stroke-width ="0.1"
						fill="rgb(12,103,0)"
						/><circle cx="0" cy="7.98" r="2.28" fill="rgb(117,85,168)"/><circle cx="-0.05" cy="7.89" r="1.52" fill="rgb(134.5,108.5,178.5)"/><path d="M 0,7.98 
						q 0.74 0.37 0,6 
						M 0,7.98 
						q -0.74 0.37 0,6 " 
						transform="rotate(792 0,7.98 )"
						stroke-width ="0.1"
						fill="rgb(9.5,93.5,0)"
						/><circle cx="0" cy="7.98" r="2.28" fill="rgb(117,85,168)"/><circle cx="0.04" cy="7.97" r="1.52" fill="rgb(134.5,108.5,178.5)"/><path d="M 0,7.98 
						q 0.74 0.37 0,6 
						M 0,7.98 
						q -0.74 0.37 0,6 " 
						transform="rotate(864 0,7.98 )"
						stroke-width ="0.1"
						fill="rgb(2,108,0)"
						/><circle cx="0" cy="7.98" r="2.28" fill="rgb(117,85,168)"/><circle cx="0.05" cy="8" r="1.52" fill="rgb(134.5,108.5,178.5)"/><path d="M 0,7.98 
						q 0.74 0.37 0,6 
						M 0,7.98 
						q -0.74 0.37 0,6 " 
						transform="rotate(936 0,7.98 )"
						stroke-width ="0.1"
						fill="rgb(0,108.5,0)"
						/><circle cx="0" cy="7.98" r="2.28" fill="rgb(117,85,168)"/><circle cx="-0.09" cy="7.94" r="1.52" fill="rgb(134.5,108.5,178.5)"/><path d="M 0,7.98 
						q 0.74 0.37 0,6 
						M 0,7.98 
						q -0.74 0.37 0,6 " 
						transform="rotate(1008 0,7.98 )"
						stroke-width ="0.1"
						fill="rgb(0,101,0)"
						/><circle cx="0" cy="7.98" r="2.28" fill="rgb(117,85,168)"/><circle cx="-0.08" cy="8.04" r="1.52" fill="rgb(134.5,108.5,178.5)"/><path d="M 0,7.98 
						q 0.74 0.37 0,6 
						M 0,7.98 
						q -0.74 0.37 0,6 " 
						transform="rotate(1080 0,7.98 )"
						stroke-width ="0.1"
						fill="rgb(0,95.5,0)"
						/><circle cx="0" cy="7.98" r="2.28" fill="rgb(117,85,168)"/><circle cx="0" cy="8.04" r="1.52" fill="rgb(134.5,108.5,178.5)"/></g></defs>
				<g class="fullPlant">
					<g>
					<path d ="M 46,91 
					a 97 679 2.3 0 1 -3.228,-12.72" fill ="none" stroke ="rgb(62.5,135.5,147.5)" stroke-width ="3.672"/></g><circle cx="42.772" cy="78.28" r="0.918" stroke="rgb(67.5,140.5,152.5)" fill="rgb(62.5,135.5,147.5)"/><use xlink:href="#leaf1"
						x="42.772" y="78.28" 
						transform="rotate(-15 42.772 78.28)" 	
						fill="rgb(76,96,123)" /><use xlink:href="#leaf1"
						x="42.772" y="78.28" 
						transform="rotate(19 43.132 78.85)" 	
						fill="rgb(82,122,136)" /><use xlink:href="#leaf2"
						x="42.772" y="78.28" 
						transform="rotate(76 42.782 79.26)" 	
						fill="rgb(54,122,140)" /><use xlink:href="#leaf1"
						x="42.772" y="78.28" 
						transform="rotate(-7 42.972 78.63)" 	
						fill="rgb(65,127,138)" /><use xlink:href="#leaf1"
						x="42.772" y="78.28" 
						transform="rotate(154 42.772 78.28)" 	
						fill="rgb(61,111,114)" /><use xlink:href="#leaf1"
						x="42.772" y="78.28" 
						transform="rotate(1 42.772 78.28)" 	
						fill="rgb(66,122,103)" /><use xlink:href="#leaf1"
						x="42.772" y="78.28" 
						transform="rotate(0 42.772 78.28)" 	
						fill="rgb(72,104,117)" /><use xlink:href="#leaf3"
						x="42.772" y="78.28" 
						transform="rotate(-34 42.772 78.28)" 	
						fill="rgb(76,118,107)" /><use xlink:href="#leaf1"
						x="42.772" y="78.28" 
						transform="rotate(-17 42.772 78.28)" 	
						fill="rgb(60,111,116)" /><use xlink:href="#leaf3"
						x="42.772" y="78.28" 
						transform="rotate(-20 43.372 78.79)" 	
						fill="rgb(79,99,114)" /><use xlink:href="#leaf1"
						x="42.772" y="78.28" 
						transform="rotate(98 43.762 79.17)" 	
						fill="rgb(64,116,103)" /><use xlink:href="#leaf1"
						x="42.772" y="78.28" 
						transform="rotate(-77 42.772 78.28)" 	
						fill="rgb(56,100,123)" />
					<g>
					<path d ="M 42.772,78.28 
					a 95 570 -9.22 0 0 10.2,-10.128" fill ="none" stroke ="rgb(65.5,138.5,146.5)" stroke-width ="1.836"/></g><circle cx="52.972" cy="68.152" r="0.459" stroke="rgb(70.5,143.5,151.5)" fill="rgb(65.5,138.5,146.5)"/><use xlink:href="#leaf3"
						x="52.972" y="68.152" 
						transform="rotate(115 52.972 68.152)" 	
						fill="rgb(65,88,105)" /><use xlink:href="#leaf1"
						x="52.972" y="68.152" 
						transform="rotate(78 53.612 68.352)" 	
						fill="rgb(52,104,136)" /><use xlink:href="#leaf3"
						x="52.972" y="68.152" 
						transform="rotate(-128 52.972 68.152)" 	
						fill="rgb(63,117,110)" /><use xlink:href="#leaf4"
						x="52.972" y="68.152" 
						transform="rotate(133 53.522 68.462)" 	
						fill="rgb(47,98,115)" /><use xlink:href="#leaf1"
						x="52.972" y="68.152" 
						transform="rotate(37 53.452 69.092)" 	
						fill="rgb(53,111,139)" /><use xlink:href="#leaf3"
						x="52.972" y="68.152" 
						transform="rotate(-147 53.052 68.602)" 	
						fill="rgb(43,88,131)" /><use xlink:href="#leaf1"
						x="52.972" y="68.152" 
						transform="rotate(144 52.972 68.152)" 	
						fill="rgb(46,95,142)" /><use xlink:href="#leaf4"
						x="52.972" y="68.152" 
						transform="rotate(-137 52.972 68.152)" 	
						fill="rgb(63,120,105)" /><use xlink:href="#leaf2"
						x="52.972" y="68.152" 
						transform="rotate(-43 53.692 69.062)" 	
						fill="rgb(50,107,129)" /><use xlink:href="#leaf1"
						x="52.972" y="68.152" 
						transform="rotate(-21 53.172 68.322)" 	
						fill="rgb(48,98,134)" /><use xlink:href="#leaf1"
						x="52.972" y="68.152" 
						transform="rotate(-22 53.802 68.312)" 	
						fill="rgb(43,112,137)" /><use xlink:href="#leaf4"
						x="52.972" y="68.152" 
						transform="rotate(155 52.972 68.152)" 	
						fill="rgb(44,114,123)" /><use xlink:href="#leaf4"
						x="52.972" y="68.152" 
						transform="rotate(-82 53.642 68.242)" 	
						fill="rgb(69,88,113)" /><use xlink:href="#leaf3"
						x="52.972" y="68.152" 
						transform="rotate(39 53.472 68.392)" 	
						fill="rgb(53,89,112)" /><use xlink:href="#flower3" id="fleur10"
							x="52.972" y="68.152" 
							transform="rotate(47 52.972 68.152)" />
					<g>
					<path d ="M 42.772,78.28 
					a 59 354 2.47 0 1 -5.388,1.752" fill ="none" stroke ="rgb(65.5,140.5,146.5)" stroke-width ="1.836"/></g><circle cx="37.384" cy="80.032" r="0.459" stroke="rgb(70.5,145.5,151.5)" fill="rgb(65.5,140.5,146.5)"/><use xlink:href="#leaf4"
						x="37.384" y="80.032" 
						transform="rotate(-100 37.724 80.272)" 	
						fill="rgb(59,95,134)" /><use xlink:href="#leaf1"
						x="37.384" y="80.032" 
						transform="rotate(-133 37.384 80.032)" 	
						fill="rgb(64,121,142)" /><use xlink:href="#leaf1"
						x="37.384" y="80.032" 
						transform="rotate(5 38.264 80.182)" 	
						fill="rgb(75,103,105)" /><use xlink:href="#leaf1"
						x="37.384" y="80.032" 
						transform="rotate(-120 37.384 80.032)" 	
						fill="rgb(61,111,119)" /><use xlink:href="#leaf1"
						x="37.384" y="80.032" 
						transform="rotate(-138 37.384 80.032)" 	
						fill="rgb(70,122,119)" /><use xlink:href="#leaf4"
						x="37.384" y="80.032" 
						transform="rotate(-12 38.284 80.712)" 	
						fill="rgb(73,124,127)" /><use xlink:href="#leaf3"
						x="37.384" y="80.032" 
						transform="rotate(-24 37.384 80.032)" 	
						fill="rgb(46,103,122)" /><use xlink:href="#leaf4"
						x="37.384" y="80.032" 
						transform="rotate(-157 37.384 80.032)" 	
						fill="rgb(59,109,118)" /><use xlink:href="#leaf1"
						x="37.384" y="80.032" 
						transform="rotate(52 37.384 80.032)" 	
						fill="rgb(48,88,142)" /><use xlink:href="#leaf2"
						x="37.384" y="80.032" 
						transform="rotate(157 37.774 80.122)" 	
						fill="rgb(48,88,112)" /><use xlink:href="#leaf4"
						x="37.384" y="80.032" 
						transform="rotate(98 37.384 80.032)" 	
						fill="rgb(78,124,132)" />
					<g>
					<path d ="M 42.772,78.28 
					a 50 400 -5.91 0 1 -6.672,-9.348" fill ="none" stroke ="rgb(67.5,139.5,147.5)" stroke-width ="1.836"/></g><circle cx="36.1" cy="68.932" r="0.459" stroke="rgb(72.5,144.5,152.5)" fill="rgb(67.5,139.5,147.5)"/><use xlink:href="#leaf4"
						x="36.1" y="68.932" 
						transform="rotate(-106 36.1 68.932)" 	
						fill="rgb(57,94,106)" /><use xlink:href="#leaf1"
						x="36.1" y="68.932" 
						transform="rotate(44 36.1 68.932)" 	
						fill="rgb(45,127,141)" /><use xlink:href="#leaf3"
						x="36.1" y="68.932" 
						transform="rotate(167 36.1 68.932)" 	
						fill="rgb(50,115,104)" /><use xlink:href="#leaf1"
						x="36.1" y="68.932" 
						transform="rotate(79 36.1 68.932)" 	
						fill="rgb(46,103,119)" /><use xlink:href="#leaf4"
						x="36.1" y="68.932" 
						transform="rotate(-122 36.61 69.302)" 	
						fill="rgb(61,105,118)" /><use xlink:href="#leaf4"
						x="36.1" y="68.932" 
						transform="rotate(-145 36.98 69.412)" 	
						fill="rgb(45,122,134)" /><use xlink:href="#leaf2"
						x="36.1" y="68.932" 
						transform="rotate(147 36.1 68.932)" 	
						fill="rgb(79,125,113)" /><use xlink:href="#leaf2"
						x="36.1" y="68.932" 
						transform="rotate(-110 36.17 69.892)" 	
						fill="rgb(52,90,105)" /><use xlink:href="#leaf1"
						x="36.1" y="68.932" 
						transform="rotate(113 36.63 69.342)" 	
						fill="rgb(65,117,140)" /><use xlink:href="#leaf4"
						x="36.1" y="68.932" 
						transform="rotate(-58 36.1 68.932)" 	
						fill="rgb(59,118,136)" /><use xlink:href="#leaf2"
						x="36.1" y="68.932" 
						transform="rotate(21 36.1 68.932)" 	
						fill="rgb(79,114,143)" /><use xlink:href="#leaf2"
						x="36.1" y="68.932" 
						transform="rotate(88 36.1 68.932)" 	
						fill="rgb(66,123,105)" /><use xlink:href="#leaf2"
						x="36.1" y="68.932" 
						transform="rotate(-136 36.1 68.932)" 	
						fill="rgb(77,119,138)" /><use xlink:href="#leaf2"
						x="36.1" y="68.932" 
						transform="rotate(-74 36.43 69.152)" 	
						fill="rgb(46,99,110)" /><use xlink:href="#leaf3"
						x="36.1" y="68.932" 
						transform="rotate(-149 36.91 69.222)" 	
						fill="rgb(58,115,116)" />
					<g>
					<path d ="M 36.1,68.932 
					a 96 192 -16.63 0 1 -8.988,1.62" fill ="none" stroke ="rgb(68,143,147)" stroke-width ="1.224"/></g><circle cx="27.112" cy="70.552" r="0.306" stroke="rgb(73,148,152)" fill="rgb(68,143,147)"/><use xlink:href="#leaf4"
						x="27.112" y="70.552" 
						transform="rotate(-91 27.112 70.552)" 	
						fill="rgb(74,95,127)" /><use xlink:href="#leaf1"
						x="27.112" y="70.552" 
						transform="rotate(176 27.552 70.842)" 	
						fill="rgb(76,127,136)" /><use xlink:href="#leaf5"
						x="27.112" y="70.552" 
						transform="rotate(127 27.112 70.552)" 	
						fill="rgb(76,125,108)" /><use xlink:href="#leaf5"
						x="27.112" y="70.552" 
						transform="rotate(-171 28.032 71.152)" 	
						fill="rgb(82,123,134)" /><use xlink:href="#flower5" id="fleur40"
							x="27.112" y="70.552" 
							transform="rotate(-140 27.112 70.552)" />
					<g>
					<path d ="M 27.112,70.552 
					a 92 276 19.76 0 1 2.964,-7.08" fill ="none" stroke ="rgb(70,146,149)" stroke-width ="0.918"/></g><circle cx="30.076" cy="63.472" r="0.2295" stroke="rgb(75,151,154)" fill="rgb(70,146,149)"/><use xlink:href="#leaf6"
						x="30.076" y="63.472" 
						transform="rotate(19 30.186 64.372)" 	
						fill="rgb(82,93,113)" /><use xlink:href="#leaf4"
						x="30.076" y="63.472" 
						transform="rotate(85 30.506 64.292)" 	
						fill="rgb(63,93,140)" /><use xlink:href="#leaf6"
						x="30.076" y="63.472" 
						transform="rotate(-159 30.076 63.472)" 	
						fill="rgb(66,89,131)" /><use xlink:href="#leaf5"
						x="30.076" y="63.472" 
						transform="rotate(112 30.956 63.852)" 	
						fill="rgb(61,113,103)" /><use xlink:href="#leaf5"
						x="30.076" y="63.472" 
						transform="rotate(50 30.076 63.472)" 	
						fill="rgb(80,116,133)" /><use xlink:href="#leaf4"
						x="30.076" y="63.472" 
						transform="rotate(-13 30.206 63.672)" 	
						fill="rgb(66,124,104)" /><use xlink:href="#leaf3"
						x="30.076" y="63.472" 
						transform="rotate(-95 30.076 63.472)" 	
						fill="rgb(74,106,122)" /><use xlink:href="#leaf6"
						x="30.076" y="63.472" 
						transform="rotate(123 30.076 63.472)" 	
						fill="rgb(80,122,114)" /><use xlink:href="#leaf6"
						x="30.076" y="63.472" 
						transform="rotate(-98 30.076 63.472)" 	
						fill="rgb(58,103,135)" />
					<g>
					<path d ="M 27.112,70.552 
					a 56 448 -19.49 0 1 11.412,5.496" fill ="none" stroke ="rgb(72,147,150)" stroke-width ="0.918"/></g><circle cx="38.524" cy="76.048" r="0.2295" stroke="rgb(77,152,155)" fill="rgb(72,147,150)"/><use xlink:href="#leaf6"
						x="38.524" y="76.048" 
						transform="rotate(-90 38.524 76.048)" 	
						fill="rgb(44,91,135)" /><use xlink:href="#leaf3"
						x="38.524" y="76.048" 
						transform="rotate(151 39.074 76.158)" 	
						fill="rgb(67,116,134)" /><use xlink:href="#leaf6"
						x="38.524" y="76.048" 
						transform="rotate(-138 38.524 76.048)" 	
						fill="rgb(74,96,108)" /><use xlink:href="#leaf3"
						x="38.524" y="76.048" 
						transform="rotate(-150 38.524 76.048)" 	
						fill="rgb(64,118,106)" /><use xlink:href="#leaf5"
						x="38.524" y="76.048" 
						transform="rotate(84 38.524 76.048)" 	
						fill="rgb(57,115,126)" /><use xlink:href="#leaf4"
						x="38.524" y="76.048" 
						transform="rotate(105 38.524 76.048)" 	
						fill="rgb(75,101,136)" /><use xlink:href="#leaf2"
						x="38.524" y="76.048" 
						transform="rotate(-58 38.524 76.048)" 	
						fill="rgb(51,110,110)" /><use xlink:href="#leaf3"
						x="38.524" y="76.048" 
						transform="rotate(-174 39.434 76.048)" 	
						fill="rgb(74,111,114)" />
					<g>
					<path d ="M 30.076,63.472 
					a 79 79 -10.30 0 0 -3,-8.256" fill ="none" stroke ="rgb(73.5,149.5,152.5)" stroke-width ="0.7344"/></g><circle cx="27.076" cy="55.216" r="0.1836" stroke="rgb(78.5,154.5,157.5)" fill="rgb(73.5,149.5,152.5)"/><use xlink:href="#leaf5"
						x="27.076" y="55.216" 
						transform="rotate(-8 27.836 56.206)" 	
						fill="rgb(62,98,134)" /><use xlink:href="#leaf3"
						x="27.076" y="55.216" 
						transform="rotate(-162 27.406 55.356)" 	
						fill="rgb(70,102,130)" /><use xlink:href="#leaf5"
						x="27.076" y="55.216" 
						transform="rotate(-121 27.606 55.346)" 	
						fill="rgb(76,98,104)" /><use xlink:href="#leaf4"
						x="27.076" y="55.216" 
						transform="rotate(-12 27.976 56.126)" 	
						fill="rgb(77,113,120)" /><use xlink:href="#flower4" id="fleur70"
							x="27.076" y="55.216" 
							transform="rotate(36 28.252 55.528)" /><use xlink:href="#flower4" id="fleur71"
							x="27.076" y="55.216" 
							transform="rotate(97 27.28 55.912)" />
					<g>
					<path d ="M 46,91 
					a 58 174 4.17 0 0 7.512,-22.308" fill ="none" stroke ="rgb(74,148,152)" stroke-width ="3.672"/></g><circle cx="53.512" cy="68.692" r="0.918" stroke="rgb(79,153,157)" fill="rgb(74,148,152)"/><use xlink:href="#leaf1"
						x="53.512" y="68.692" 
						transform="rotate(156 54.282 68.722)" 	
						fill="rgb(45,124,123)" /><use xlink:href="#leaf1"
						x="53.512" y="68.692" 
						transform="rotate(41 53.622 69.492)" 	
						fill="rgb(82,96,111)" /><use xlink:href="#leaf1"
						x="53.512" y="68.692" 
						transform="rotate(-141 53.512 68.692)" 	
						fill="rgb(43,91,143)" /><use xlink:href="#leaf2"
						x="53.512" y="68.692" 
						transform="rotate(-135 54.492 69.282)" 	
						fill="rgb(76,120,128)" /><use xlink:href="#leaf3"
						x="53.512" y="68.692" 
						transform="rotate(-95 54.002 69.372)" 	
						fill="rgb(73,102,118)" /><use xlink:href="#leaf1"
						x="53.512" y="68.692" 
						transform="rotate(133 53.682 69.512)" 	
						fill="rgb(77,126,125)" /><use xlink:href="#leaf3"
						x="53.512" y="68.692" 
						transform="rotate(162 53.752 68.742)" 	
						fill="rgb(66,112,120)" /><use xlink:href="#leaf1"
						x="53.512" y="68.692" 
						transform="rotate(34 53.512 68.692)" 	
						fill="rgb(65,97,115)" /><use xlink:href="#leaf1"
						x="53.512" y="68.692" 
						transform="rotate(118 53.512 68.692)" 	
						fill="rgb(77,108,118)" /><use xlink:href="#leaf1"
						x="53.512" y="68.692" 
						transform="rotate(124 53.512 68.692)" 	
						fill="rgb(59,103,125)" /><use xlink:href="#leaf1"
						x="53.512" y="68.692" 
						transform="rotate(-76 53.512 68.692)" 	
						fill="rgb(80,93,140)" /><use xlink:href="#leaf1"
						x="53.512" y="68.692" 
						transform="rotate(-161 53.512 68.692)" 	
						fill="rgb(66,94,108)" /><use xlink:href="#leaf1"
						x="53.512" y="68.692" 
						transform="rotate(8 53.882 69.162)" 	
						fill="rgb(78,100,118)" /><use xlink:href="#leaf1"
						x="53.512" y="68.692" 
						transform="rotate(113 54.342 69.002)" 	
						fill="rgb(80,124,115)" />
					<g>
					<path d ="M 46,91 
					a 100 300 14.62 0 0 -5.964,-18.588" fill ="none" stroke ="rgb(74.5,149.5,151.5)" stroke-width ="3.672"/></g><circle cx="40.036" cy="72.412" r="0.918" stroke="rgb(79.5,154.5,156.5)" fill="rgb(74.5,149.5,151.5)"/><use xlink:href="#leaf2"
						x="40.036" y="72.412" 
						transform="rotate(-49 40.196 73.182)" 	
						fill="rgb(43,104,136)" /><use xlink:href="#leaf1"
						x="40.036" y="72.412" 
						transform="rotate(-3 40.576 72.692)" 	
						fill="rgb(52,126,127)" /><use xlink:href="#leaf3"
						x="40.036" y="72.412" 
						transform="rotate(-74 40.236 73.112)" 	
						fill="rgb(61,113,116)" /><use xlink:href="#leaf1"
						x="40.036" y="72.412" 
						transform="rotate(-50 40.616 72.652)" 	
						fill="rgb(45,95,115)" />
					<g>
					<path d ="M 40.036,72.412 
					a 71 497 -5.6 0 0 -4.308,-1.428" fill ="none" stroke ="rgb(76.5,149.5,152.5)" stroke-width ="1.836"/></g><circle cx="35.728" cy="70.984" r="0.459" stroke="rgb(81.5,154.5,157.5)" fill="rgb(76.5,149.5,152.5)"/><use xlink:href="#leaf1"
						x="35.728" y="70.984" 
						transform="rotate(-96 35.728 70.984)" 	
						fill="rgb(47,100,131)" /><use xlink:href="#leaf1"
						x="35.728" y="70.984" 
						transform="rotate(33 36.368 71.964)" 	
						fill="rgb(66,118,111)" /><use xlink:href="#leaf4"
						x="35.728" y="70.984" 
						transform="rotate(135 36.578 71.594)" 	
						fill="rgb(45,111,116)" /><use xlink:href="#leaf2"
						x="35.728" y="70.984" 
						transform="rotate(75 35.728 70.984)" 	
						fill="rgb(62,96,112)" /><use xlink:href="#leaf1"
						x="35.728" y="70.984" 
						transform="rotate(-86 36.648 71.544)" 	
						fill="rgb(65,105,127)" /><use xlink:href="#leaf2"
						x="35.728" y="70.984" 
						transform="rotate(-74 36.618 71.504)" 	
						fill="rgb(66,114,126)" /><use xlink:href="#leaf1"
						x="35.728" y="70.984" 
						transform="rotate(-164 35.728 70.984)" 	
						fill="rgb(63,110,128)" /><use xlink:href="#leaf4"
						x="35.728" y="70.984" 
						transform="rotate(-127 35.818 71.184)" 	
						fill="rgb(50,101,142)" /><use xlink:href="#leaf4"
						x="35.728" y="70.984" 
						transform="rotate(175 35.728 70.984)" 	
						fill="rgb(53,122,136)" /><use xlink:href="#leaf2"
						x="35.728" y="70.984" 
						transform="rotate(-11 36.298 71.504)" 	
						fill="rgb(46,120,127)" /><use xlink:href="#leaf3"
						x="35.728" y="70.984" 
						transform="rotate(147 36.318 71.854)" 	
						fill="rgb(68,111,117)" /><use xlink:href="#leaf1"
						x="35.728" y="70.984" 
						transform="rotate(121 35.728 70.984)" 	
						fill="rgb(47,112,125)" /><use xlink:href="#leaf2"
						x="35.728" y="70.984" 
						transform="rotate(-139 35.728 70.984)" 	
						fill="rgb(78,107,113)" /><use xlink:href="#leaf3"
						x="35.728" y="70.984" 
						transform="rotate(110 35.748 71.064)" 	
						fill="rgb(70,112,123)" /><use xlink:href="#leaf1"
						x="35.728" y="70.984" 
						transform="rotate(-14 35.888 71.794)" 	
						fill="rgb(76,104,118)" /><use xlink:href="#leaf4"
						x="35.728" y="70.984" 
						transform="rotate(128 36.108 71.934)" 	
						fill="rgb(78,105,104)" /><use xlink:href="#flower4" id="fleur100"
							x="35.728" y="70.984" 
							transform="rotate(121 36.772 72.1)" />
					<g>
					<path d ="M 53.512,68.692 
					a 71 497 -10.56 0 1 -11.7,0.372" fill ="none" stroke ="rgb(75.5,150.5,152.5)" stroke-width ="1.836"/></g><circle cx="41.812" cy="69.064" r="0.459" stroke="rgb(80.5,155.5,157.5)" fill="rgb(75.5,150.5,152.5)"/><use xlink:href="#leaf2"
						x="41.812" y="69.064" 
						transform="rotate(117 42.512 69.294)" 	
						fill="rgb(49,100,106)" /><use xlink:href="#leaf4"
						x="41.812" y="69.064" 
						transform="rotate(-111 41.812 69.064)" 	
						fill="rgb(55,116,127)" /><use xlink:href="#leaf3"
						x="41.812" y="69.064" 
						transform="rotate(-1 41.812 69.064)" 	
						fill="rgb(59,112,126)" /><use xlink:href="#leaf1"
						x="41.812" y="69.064" 
						transform="rotate(123 41.892 69.514)" 	
						fill="rgb(75,120,118)" /><use xlink:href="#leaf3"
						x="41.812" y="69.064" 
						transform="rotate(-114 41.812 69.064)" 	
						fill="rgb(69,119,140)" /><use xlink:href="#leaf1"
						x="41.812" y="69.064" 
						transform="rotate(-119 42.602 69.524)" 	
						fill="rgb(81,88,119)" /><use xlink:href="#leaf4"
						x="41.812" y="69.064" 
						transform="rotate(-8 41.812 69.064)" 	
						fill="rgb(45,114,114)" /><use xlink:href="#leaf1"
						x="41.812" y="69.064" 
						transform="rotate(139 42.012 69.364)" 	
						fill="rgb(50,124,126)" /><use xlink:href="#leaf1"
						x="41.812" y="69.064" 
						transform="rotate(-104 41.812 69.064)" 	
						fill="rgb(56,98,136)" /><use xlink:href="#leaf2"
						x="41.812" y="69.064" 
						transform="rotate(-163 41.812 69.064)" 	
						fill="rgb(50,88,134)" />
					<g>
					<path d ="M 53.512,68.692 
					a 98 490 9.15 0 0 7.344,4.188" fill ="none" stroke ="rgb(77.5,151.5,154.5)" stroke-width ="1.836"/></g><circle cx="60.856" cy="72.88" r="0.459" stroke="rgb(82.5,156.5,159.5)" fill="rgb(77.5,151.5,154.5)"/><use xlink:href="#leaf2"
						x="60.856" y="72.88" 
						transform="rotate(-151 61.636 73.57)" 	
						fill="rgb(65,93,107)" /><use xlink:href="#leaf1"
						x="60.856" y="72.88" 
						transform="rotate(155 61.396 73.52)" 	
						fill="rgb(53,113,116)" /><use xlink:href="#leaf1"
						x="60.856" y="72.88" 
						transform="rotate(98 60.856 72.88)" 	
						fill="rgb(47,124,127)" /><use xlink:href="#leaf3"
						x="60.856" y="72.88" 
						transform="rotate(-51 61.526 73.04)" 	
						fill="rgb(77,101,105)" /><use xlink:href="#leaf1"
						x="60.856" y="72.88" 
						transform="rotate(97 61.016 73.56)" 	
						fill="rgb(58,110,114)" /><use xlink:href="#leaf1"
						x="60.856" y="72.88" 
						transform="rotate(156 60.856 72.88)" 	
						fill="rgb(69,95,130)" /><use xlink:href="#flower1" id="fleur120"
							x="60.856" y="72.88" 
							transform="rotate(-154 61.348 73.744)" /></g>
				</svg>