<svg class="relie" xmlns="http://www.w3.org/2000/svg" viewBox="0 0 100 100" preserveAspectRatio="xMidYMid meet" x="0" y="0" overflow="visible" xmlns:xlink="http://www.w3.org/1999/xlink">

		<defs>  <g id="leaf1" transform="skewX(-6) skewY(-6)"><path d="M 0,0 
					q 0.38625 0.01125 0.125,1.2083333333333 q 0.00875 0.01125 0.0125,2.4166666666667 q 0.135 0.01125 -0.1375,1 
					M 0,0 
					q -0.38625 0.01125 -0.125,1.2083333333333 q -0.00875 0.01125 -0.0125,2.4166666666667 q -0.135 0.01125 0.1375,1 " 
					stroke-width ="0.2" /></g>  <g id="leaf2" transform="skewX(7) skewY(7)"><path d="M 0,0 
					q 0.7725 0.0225 0.25,2.4166666666667 q 0.0175 0.0225 0.025,4.8333333333333 q 0.27 0.0225 -0.275,1 
					M 0,0 
					q -0.7725 0.0225 -0.25,2.4166666666667 q -0.0175 0.0225 -0.025,4.8333333333333 q -0.27 0.0225 0.275,1 " 
					stroke-width ="0.2" /></g>  <g id="leaf3" transform="skewX(-14) skewY(-14)"><path d="M 0,0 
					q 1.15875 0.03375 0.375,3.625 q 0.02625 0.03375 0.0375,7.25 q 0.405 0.03375 -0.4125,1 
					M 0,0 
					q -1.15875 0.03375 -0.375,3.625 q -0.02625 0.03375 -0.0375,7.25 q -0.405 0.03375 0.4125,1 " 
					stroke-width ="0.2" /></g>  <g id="leaf4" transform="skewX(1) skewY(1)"><path d="M 0,0 
					q 1.545 0.045 0.5,4.8333333333333 q 0.035 0.045 0.05,9.6666666666667 q 0.54 0.045 -0.55,1 
					M 0,0 
					q -1.545 0.045 -0.5,4.8333333333333 q -0.035 0.045 -0.05,9.6666666666667 q -0.54 0.045 0.55,1 " 
					stroke-width ="0.2" /></g>  <g id="leaf5" transform="skewX(9) skewY(9)"><path d="M 0,0 
					q 1.93125 0.05625 0.625,6.0416666666667 q 0.04375 0.05625 0.0625,12.083333333333 q 0.675 0.05625 -0.6875,1 
					M 0,0 
					q -1.93125 0.05625 -0.625,6.0416666666667 q -0.04375 0.05625 -0.0625,12.083333333333 q -0.675 0.05625 0.6875,1 " 
					stroke-width ="0.2" /></g>  <g id="leaf6" transform="skewX(19) skewY(19)"><path d="M 0,0 
					q 2.3175 0.0675 0.75,7.25 q 0.0525 0.0675 0.075,14.5 q 0.81 0.0675 -0.825,1 
					M 0,0 
					q -2.3175 0.0675 -0.75,7.25 q -0.0525 0.0675 -0.075,14.5 q -0.81 0.0675 0.825,1 " 
					stroke-width ="0.2" /></g>  <g id="leaf7" transform="skewX(13) skewY(13)"><path d="M 0,0 
					q 2.70375 0.07875 0.875,8.4583333333333 q 0.06125 0.07875 0.0875,16.916666666667 q 0.945 0.07875 -0.9625,1 
					M 0,0 
					q -2.70375 0.07875 -0.875,8.4583333333333 q -0.06125 0.07875 -0.0875,16.916666666667 q -0.945 0.07875 0.9625,1 " 
					stroke-width ="0.2" /></g>  <g id="leaf8" transform="skewX(6) skewY(6)"><path d="M 0,0 
					q 3.09 0.09 1,9.6666666666667 q 0.07 0.09 0.1,19.333333333333 q 1.08 0.09 -1.1,1 
					M 0,0 
					q -3.09 0.09 -1,9.6666666666667 q -0.07 0.09 -0.1,19.333333333333 q -1.08 0.09 1.1,1 " 
					stroke-width ="0.2" /></g><g id="flower1"><path d="M 0,1.625 
						q 0.075 0.05 0.125,0.8125 q 0 0.0125 -0.125,1 
						M 0,1.625 
						q -0.075 0.05 -0.125,0.8125 q -0 0.0125 0.125,1 " 
						transform="rotate(0 0,1.625 )"
						stroke-width ="0.1"
						fill="rgb(189,0,204)"
						/><circle cx="0" cy="1.625" r="0.52" fill="rgb(33,10,146)"/><circle cx="0.01" cy="1.575" r="0.34666666666667" fill="rgb(45.5,17.5,147.5)"/><path d="M 0,1.625 
						q 0.075 0.05 0.125,0.8125 q 0 0.0125 -0.125,1 
						M 0,1.625 
						q -0.075 0.05 -0.125,0.8125 q -0 0.0125 0.125,1 " 
						transform="rotate(135 0,1.625 )"
						stroke-width ="0.1"
						fill="rgb(181.5,3.5,220.5)"
						/><circle cx="0" cy="1.625" r="0.52" fill="rgb(33,10,146)"/><circle cx="0.02" cy="1.565" r="0.34666666666667" fill="rgb(45.5,17.5,147.5)"/><path d="M 0,1.625 
						q 0.075 0.05 0.125,0.8125 q 0 0.0125 -0.125,1 
						M 0,1.625 
						q -0.075 0.05 -0.125,0.8125 q -0 0.0125 0.125,1 " 
						transform="rotate(270 0,1.625 )"
						stroke-width ="0.1"
						fill="rgb(176,0,200)"
						/><circle cx="0" cy="1.625" r="0.52" fill="rgb(33,10,146)"/><circle cx="0.07" cy="1.565" r="0.34666666666667" fill="rgb(45.5,17.5,147.5)"/><path d="M 0,1.625 
						q 0.075 0.05 0.125,0.8125 q 0 0.0125 -0.125,1 
						M 0,1.625 
						q -0.075 0.05 -0.125,0.8125 q -0 0.0125 0.125,1 " 
						transform="rotate(405 0,1.625 )"
						stroke-width ="0.1"
						fill="rgb(180.5,0,215.5)"
						/><circle cx="0" cy="1.625" r="0.52" fill="rgb(33,10,146)"/><circle cx="-0.02" cy="1.595" r="0.34666666666667" fill="rgb(45.5,17.5,147.5)"/><path d="M 0,1.625 
						q 0.075 0.05 0.125,0.8125 q 0 0.0125 -0.125,1 
						M 0,1.625 
						q -0.075 0.05 -0.125,0.8125 q -0 0.0125 0.125,1 " 
						transform="rotate(540 0,1.625 )"
						stroke-width ="0.1"
						fill="rgb(181,0,204)"
						/><circle cx="0" cy="1.625" r="0.52" fill="rgb(33,10,146)"/><circle cx="-0.05" cy="1.595" r="0.34666666666667" fill="rgb(45.5,17.5,147.5)"/><path d="M 0,1.625 
						q 0.075 0.05 0.125,0.8125 q 0 0.0125 -0.125,1 
						M 0,1.625 
						q -0.075 0.05 -0.125,0.8125 q -0 0.0125 0.125,1 " 
						transform="rotate(675 0,1.625 )"
						stroke-width ="0.1"
						fill="rgb(166.5,0,208.5)"
						/><circle cx="0" cy="1.625" r="0.52" fill="rgb(33,10,146)"/><circle cx="0" cy="1.665" r="0.34666666666667" fill="rgb(45.5,17.5,147.5)"/><path d="M 0,1.625 
						q 0.075 0.05 0.125,0.8125 q 0 0.0125 -0.125,1 
						M 0,1.625 
						q -0.075 0.05 -0.125,0.8125 q -0 0.0125 0.125,1 " 
						transform="rotate(810 0,1.625 )"
						stroke-width ="0.1"
						fill="rgb(166,0,203)"
						/><circle cx="0" cy="1.625" r="0.52" fill="rgb(33,10,146)"/><circle cx="-0.05" cy="1.595" r="0.34666666666667" fill="rgb(45.5,17.5,147.5)"/><path d="M 0,1.625 
						q 0.075 0.05 0.125,0.8125 q 0 0.0125 -0.125,1 
						M 0,1.625 
						q -0.075 0.05 -0.125,0.8125 q -0 0.0125 0.125,1 " 
						transform="rotate(945 0,1.625 )"
						stroke-width ="0.1"
						fill="rgb(165.5,0,203.5)"
						/><circle cx="0" cy="1.625" r="0.52" fill="rgb(33,10,146)"/><circle cx="-0.03" cy="1.555" r="0.34666666666667" fill="rgb(45.5,17.5,147.5)"/><path d="M 0,1.625 
						q 0.075 0.05 0.125,0.8125 q 0 0.0125 -0.125,1 
						M 0,1.625 
						q -0.075 0.05 -0.125,0.8125 q -0 0.0125 0.125,1 " 
						transform="rotate(1080 0,1.625 )"
						stroke-width ="0.1"
						fill="rgb(160,0,187)"
						/><circle cx="0" cy="1.625" r="0.52" fill="rgb(33,10,146)"/><circle cx="0.1" cy="1.625" r="0.34666666666667" fill="rgb(45.5,17.5,147.5)"/></g><g id="flower2"><path d="M 0,3.25 
						q 0.15 0.1 0.25,1.625 q 0 0.025 -0.25,1.625 
						M 0,3.25 
						q -0.15 0.1 -0.25,1.625 q -0 0.025 0.25,1.625 " 
						transform="rotate(0 0,3.25 )"
						stroke-width ="0.1"
						fill="rgb(197,0,208)"
						/><path d="M 0,3.25 
						q 0.15 0.1 0.25,1.625 q 0 0.025 -0.25,1.625 
						M 0,3.25 
						q -0.15 0.1 -0.25,1.625 q -0 0.025 0.25,1.625 " 
						transform="rotate(67.5 0,3.25 )"
						stroke-width ="0.1"
						fill="rgb(188.5,0,210.5)"
						/><path d="M 0,3.25 
						q 0.15 0.1 0.25,1.625 q 0 0.025 -0.25,1.625 
						M 0,3.25 
						q -0.15 0.1 -0.25,1.625 q -0 0.025 0.25,1.625 " 
						transform="rotate(135 0,3.25 )"
						stroke-width ="0.1"
						fill="rgb(187,0,214)"
						/></g><g id="flower3"><path d="M 0,4.875 
						q 0.225 0.15 0.375,2.4375 q 0 0.0375 -0.375,2.4375 
						M 0,4.875 
						q -0.225 0.15 -0.375,2.4375 q -0 0.0375 0.375,2.4375 " 
						transform="rotate(0 0,4.875 )"
						stroke-width ="0.1"
						fill="rgb(183,0,217)"
						/><path d="M 0,4.875 
						q 0.225 0.15 0.375,2.4375 q 0 0.0375 -0.375,2.4375 
						M 0,4.875 
						q -0.225 0.15 -0.375,2.4375 q -0 0.0375 0.375,2.4375 " 
						transform="rotate(67.5 0,4.875 )"
						stroke-width ="0.1"
						fill="rgb(194.5,0,201.5)"
						/><path d="M 0,4.875 
						q 0.225 0.15 0.375,2.4375 q 0 0.0375 -0.375,2.4375 
						M 0,4.875 
						q -0.225 0.15 -0.375,2.4375 q -0 0.0375 0.375,2.4375 " 
						transform="rotate(135 0,4.875 )"
						stroke-width ="0.1"
						fill="rgb(181,0,218)"
						/></g><g id="flower4"><path d="M 0,6.5 
						q 0.3 0.2 0.5,3.25 q 0 0.05 -0.5,3.25 
						M 0,6.5 
						q -0.3 0.2 -0.5,3.25 q -0 0.05 0.5,3.25 " 
						transform="rotate(0 0,6.5 )"
						stroke-width ="0.1"
						fill="rgb(187,0,222)"
						/><path d="M 0,6.5 
						q 0.3 0.2 0.5,3.25 q 0 0.05 -0.5,3.25 
						M 0,6.5 
						q -0.3 0.2 -0.5,3.25 q -0 0.05 0.5,3.25 " 
						transform="rotate(67.5 0,6.5 )"
						stroke-width ="0.1"
						fill="rgb(180.5,0,213.5)"
						/><path d="M 0,6.5 
						q 0.3 0.2 0.5,3.25 q 0 0.05 -0.5,3.25 
						M 0,6.5 
						q -0.3 0.2 -0.5,3.25 q -0 0.05 0.5,3.25 " 
						transform="rotate(135 0,6.5 )"
						stroke-width ="0.1"
						fill="rgb(189,0,214)"
						/></g><g id="flower5"><path d="M 0,8.125 
						q 0.375 0.25 0.625,4.0625 q 0 0.0625 -0.625,4.0625 
						M 0,8.125 
						q -0.375 0.25 -0.625,4.0625 q -0 0.0625 0.625,4.0625 " 
						transform="rotate(0 0,8.125 )"
						stroke-width ="0.1"
						fill="rgb(192,0,205)"
						/><circle cx="0" cy="8.125" r="2.6" fill="rgb(31,2,143)"/><circle cx="0.02" cy="8.045" r="1.7333333333333" fill="rgb(45.5,15.5,148.5)"/><path d="M 0,8.125 
						q 0.375 0.25 0.625,4.0625 q 0 0.0625 -0.625,4.0625 
						M 0,8.125 
						q -0.375 0.25 -0.625,4.0625 q -0 0.0625 0.625,4.0625 " 
						transform="rotate(135 0,8.125 )"
						stroke-width ="0.1"
						fill="rgb(182.5,1.5,202.5)"
						/><circle cx="0" cy="8.125" r="2.6" fill="rgb(31,2,143)"/><circle cx="-0.07" cy="8.055" r="1.7333333333333" fill="rgb(45.5,15.5,148.5)"/><path d="M 0,8.125 
						q 0.375 0.25 0.625,4.0625 q 0 0.0625 -0.625,4.0625 
						M 0,8.125 
						q -0.375 0.25 -0.625,4.0625 q -0 0.0625 0.625,4.0625 " 
						transform="rotate(270 0,8.125 )"
						stroke-width ="0.1"
						fill="rgb(174,0,211)"
						/><circle cx="0" cy="8.125" r="2.6" fill="rgb(31,2,143)"/><circle cx="0.01" cy="8.125" r="1.7333333333333" fill="rgb(45.5,15.5,148.5)"/><path d="M 0,8.125 
						q 0.375 0.25 0.625,4.0625 q 0 0.0625 -0.625,4.0625 
						M 0,8.125 
						q -0.375 0.25 -0.625,4.0625 q -0 0.0625 0.625,4.0625 " 
						transform="rotate(405 0,8.125 )"
						stroke-width ="0.1"
						fill="rgb(177.5,0,215.5)"
						/><circle cx="0" cy="8.125" r="2.6" fill="rgb(31,2,143)"/><circle cx="0.06" cy="8.205" r="1.7333333333333" fill="rgb(45.5,15.5,148.5)"/><path d="M 0,8.125 
						q 0.375 0.25 0.625,4.0625 q 0 0.0625 -0.625,4.0625 
						M 0,8.125 
						q -0.375 0.25 -0.625,4.0625 q -0 0.0625 0.625,4.0625 " 
						transform="rotate(540 0,8.125 )"
						stroke-width ="0.1"
						fill="rgb(183,0,214)"
						/><circle cx="0" cy="8.125" r="2.6" fill="rgb(31,2,143)"/><circle cx="-0.02" cy="8.185" r="1.7333333333333" fill="rgb(45.5,15.5,148.5)"/><path d="M 0,8.125 
						q 0.375 0.25 0.625,4.0625 q 0 0.0625 -0.625,4.0625 
						M 0,8.125 
						q -0.375 0.25 -0.625,4.0625 q -0 0.0625 0.625,4.0625 " 
						transform="rotate(675 0,8.125 )"
						stroke-width ="0.1"
						fill="rgb(169.5,0,199.5)"
						/><circle cx="0" cy="8.125" r="2.6" fill="rgb(31,2,143)"/><circle cx="-0.06" cy="8.045" r="1.7333333333333" fill="rgb(45.5,15.5,148.5)"/><path d="M 0,8.125 
						q 0.375 0.25 0.625,4.0625 q 0 0.0625 -0.625,4.0625 
						M 0,8.125 
						q -0.375 0.25 -0.625,4.0625 q -0 0.0625 0.625,4.0625 " 
						transform="rotate(810 0,8.125 )"
						stroke-width ="0.1"
						fill="rgb(175,0,192)"
						/><circle cx="0" cy="8.125" r="2.6" fill="rgb(31,2,143)"/><circle cx="0.06" cy="8.025" r="1.7333333333333" fill="rgb(45.5,15.5,148.5)"/><path d="M 0,8.125 
						q 0.375 0.25 0.625,4.0625 q 0 0.0625 -0.625,4.0625 
						M 0,8.125 
						q -0.375 0.25 -0.625,4.0625 q -0 0.0625 0.625,4.0625 " 
						transform="rotate(945 0,8.125 )"
						stroke-width ="0.1"
						fill="rgb(165.5,0,205.5)"
						/><circle cx="0" cy="8.125" r="2.6" fill="rgb(31,2,143)"/><circle cx="-0.08" cy="8.135" r="1.7333333333333" fill="rgb(45.5,15.5,148.5)"/><path d="M 0,8.125 
						q 0.375 0.25 0.625,4.0625 q 0 0.0625 -0.625,4.0625 
						M 0,8.125 
						q -0.375 0.25 -0.625,4.0625 q -0 0.0625 0.625,4.0625 " 
						transform="rotate(1080 0,8.125 )"
						stroke-width ="0.1"
						fill="rgb(169,0,189)"
						/><circle cx="0" cy="8.125" r="2.6" fill="rgb(31,2,143)"/><circle cx="0.04" cy="8.225" r="1.7333333333333" fill="rgb(45.5,15.5,148.5)"/></g><g id="flower6"><path d="M 0,9.75 
						q 0.45 0.3 0.75,4.875 q 0 0.075 -0.75,4.875 
						M 0,9.75 
						q -0.45 0.3 -0.75,4.875 q -0 0.075 0.75,4.875 " 
						transform="rotate(0 0,9.75 )"
						stroke-width ="0.1"
						fill="rgb(190,2,216)"
						/><circle cx="0" cy="9.75" r="3.12" fill="rgb(31,9,147)"/><circle cx="0.09" cy="9.76" r="2.08" fill="rgb(45.5,18.5,154.5)"/><path d="M 0,9.75 
						q 0.45 0.3 0.75,4.875 q 0 0.075 -0.75,4.875 
						M 0,9.75 
						q -0.45 0.3 -0.75,4.875 q -0 0.075 0.75,4.875 " 
						transform="rotate(135 0,9.75 )"
						stroke-width ="0.1"
						fill="rgb(179.5,0,214.5)"
						/><circle cx="0" cy="9.75" r="3.12" fill="rgb(31,9,147)"/><circle cx="0.07" cy="9.84" r="2.08" fill="rgb(45.5,18.5,154.5)"/><path d="M 0,9.75 
						q 0.45 0.3 0.75,4.875 q 0 0.075 -0.75,4.875 
						M 0,9.75 
						q -0.45 0.3 -0.75,4.875 q -0 0.075 0.75,4.875 " 
						transform="rotate(270 0,9.75 )"
						stroke-width ="0.1"
						fill="rgb(183,0,213)"
						/><circle cx="0" cy="9.75" r="3.12" fill="rgb(31,9,147)"/><circle cx="-0.02" cy="9.72" r="2.08" fill="rgb(45.5,18.5,154.5)"/><path d="M 0,9.75 
						q 0.45 0.3 0.75,4.875 q 0 0.075 -0.75,4.875 
						M 0,9.75 
						q -0.45 0.3 -0.75,4.875 q -0 0.075 0.75,4.875 " 
						transform="rotate(405 0,9.75 )"
						stroke-width ="0.1"
						fill="rgb(189.5,1.5,199.5)"
						/><circle cx="0" cy="9.75" r="3.12" fill="rgb(31,9,147)"/><circle cx="0" cy="9.78" r="2.08" fill="rgb(45.5,18.5,154.5)"/><path d="M 0,9.75 
						q 0.45 0.3 0.75,4.875 q 0 0.075 -0.75,4.875 
						M 0,9.75 
						q -0.45 0.3 -0.75,4.875 q -0 0.075 0.75,4.875 " 
						transform="rotate(540 0,9.75 )"
						stroke-width ="0.1"
						fill="rgb(167,0,203)"
						/><circle cx="0" cy="9.75" r="3.12" fill="rgb(31,9,147)"/><circle cx="-0.08" cy="9.66" r="2.08" fill="rgb(45.5,18.5,154.5)"/><path d="M 0,9.75 
						q 0.45 0.3 0.75,4.875 q 0 0.075 -0.75,4.875 
						M 0,9.75 
						q -0.45 0.3 -0.75,4.875 q -0 0.075 0.75,4.875 " 
						transform="rotate(675 0,9.75 )"
						stroke-width ="0.1"
						fill="rgb(176.5,0,208.5)"
						/><circle cx="0" cy="9.75" r="3.12" fill="rgb(31,9,147)"/><circle cx="0" cy="9.69" r="2.08" fill="rgb(45.5,18.5,154.5)"/><path d="M 0,9.75 
						q 0.45 0.3 0.75,4.875 q 0 0.075 -0.75,4.875 
						M 0,9.75 
						q -0.45 0.3 -0.75,4.875 q -0 0.075 0.75,4.875 " 
						transform="rotate(810 0,9.75 )"
						stroke-width ="0.1"
						fill="rgb(165,0,194)"
						/><circle cx="0" cy="9.75" r="3.12" fill="rgb(31,9,147)"/><circle cx="-0.05" cy="9.67" r="2.08" fill="rgb(45.5,18.5,154.5)"/><path d="M 0,9.75 
						q 0.45 0.3 0.75,4.875 q 0 0.075 -0.75,4.875 
						M 0,9.75 
						q -0.45 0.3 -0.75,4.875 q -0 0.075 0.75,4.875 " 
						transform="rotate(945 0,9.75 )"
						stroke-width ="0.1"
						fill="rgb(164.5,0,204.5)"
						/><circle cx="0" cy="9.75" r="3.12" fill="rgb(31,9,147)"/><circle cx="-0.02" cy="9.78" r="2.08" fill="rgb(45.5,18.5,154.5)"/><path d="M 0,9.75 
						q 0.45 0.3 0.75,4.875 q 0 0.075 -0.75,4.875 
						M 0,9.75 
						q -0.45 0.3 -0.75,4.875 q -0 0.075 0.75,4.875 " 
						transform="rotate(1080 0,9.75 )"
						stroke-width ="0.1"
						fill="rgb(165,0,198)"
						/><circle cx="0" cy="9.75" r="3.12" fill="rgb(31,9,147)"/><circle cx="-0.09" cy="9.65" r="2.08" fill="rgb(45.5,18.5,154.5)"/></g><g id="flower7"><path d="M 0,11.375 
						q 0.525 0.35 0.875,5.6875 q 0 0.0875 -0.875,5.6875 
						M 0,11.375 
						q -0.525 0.35 -0.875,5.6875 q -0 0.0875 0.875,5.6875 " 
						transform="rotate(0 0,11.375 )"
						stroke-width ="0.1"
						fill="rgb(197,0,207)"
						/><circle cx="0" cy="11.375" r="3.64" fill="rgb(33,7,142)"/><circle cx="0.08" cy="11.395" r="2.4266666666667" fill="rgb(53.5,13.5,146.5)"/><path d="M 0,11.375 
						q 0.525 0.35 0.875,5.6875 q 0 0.0875 -0.875,5.6875 
						M 0,11.375 
						q -0.525 0.35 -0.875,5.6875 q -0 0.0875 0.875,5.6875 " 
						transform="rotate(135 0,11.375 )"
						stroke-width ="0.1"
						fill="rgb(180.5,0,211.5)"
						/><circle cx="0" cy="11.375" r="3.64" fill="rgb(33,7,142)"/><circle cx="-0.08" cy="11.475" r="2.4266666666667" fill="rgb(53.5,13.5,146.5)"/><path d="M 0,11.375 
						q 0.525 0.35 0.875,5.6875 q 0 0.0875 -0.875,5.6875 
						M 0,11.375 
						q -0.525 0.35 -0.875,5.6875 q -0 0.0875 0.875,5.6875 " 
						transform="rotate(270 0,11.375 )"
						stroke-width ="0.1"
						fill="rgb(174,5,217)"
						/><circle cx="0" cy="11.375" r="3.64" fill="rgb(33,7,142)"/><circle cx="-0.01" cy="11.435" r="2.4266666666667" fill="rgb(53.5,13.5,146.5)"/><path d="M 0,11.375 
						q 0.525 0.35 0.875,5.6875 q 0 0.0875 -0.875,5.6875 
						M 0,11.375 
						q -0.525 0.35 -0.875,5.6875 q -0 0.0875 0.875,5.6875 " 
						transform="rotate(405 0,11.375 )"
						stroke-width ="0.1"
						fill="rgb(188.5,0,212.5)"
						/><circle cx="0" cy="11.375" r="3.64" fill="rgb(33,7,142)"/><circle cx="0.06" cy="11.355" r="2.4266666666667" fill="rgb(53.5,13.5,146.5)"/><path d="M 0,11.375 
						q 0.525 0.35 0.875,5.6875 q 0 0.0875 -0.875,5.6875 
						M 0,11.375 
						q -0.525 0.35 -0.875,5.6875 q -0 0.0875 0.875,5.6875 " 
						transform="rotate(540 0,11.375 )"
						stroke-width ="0.1"
						fill="rgb(183,0,198)"
						/><circle cx="0" cy="11.375" r="3.64" fill="rgb(33,7,142)"/><circle cx="0.08" cy="11.295" r="2.4266666666667" fill="rgb(53.5,13.5,146.5)"/><path d="M 0,11.375 
						q 0.525 0.35 0.875,5.6875 q 0 0.0875 -0.875,5.6875 
						M 0,11.375 
						q -0.525 0.35 -0.875,5.6875 q -0 0.0875 0.875,5.6875 " 
						transform="rotate(675 0,11.375 )"
						stroke-width ="0.1"
						fill="rgb(184.5,0,202.5)"
						/><circle cx="0" cy="11.375" r="3.64" fill="rgb(33,7,142)"/><circle cx="-0.04" cy="11.325" r="2.4266666666667" fill="rgb(53.5,13.5,146.5)"/><path d="M 0,11.375 
						q 0.525 0.35 0.875,5.6875 q 0 0.0875 -0.875,5.6875 
						M 0,11.375 
						q -0.525 0.35 -0.875,5.6875 q -0 0.0875 0.875,5.6875 " 
						transform="rotate(810 0,11.375 )"
						stroke-width ="0.1"
						fill="rgb(172,0,202)"
						/><circle cx="0" cy="11.375" r="3.64" fill="rgb(33,7,142)"/><circle cx="0.04" cy="11.445" r="2.4266666666667" fill="rgb(53.5,13.5,146.5)"/><path d="M 0,11.375 
						q 0.525 0.35 0.875,5.6875 q 0 0.0875 -0.875,5.6875 
						M 0,11.375 
						q -0.525 0.35 -0.875,5.6875 q -0 0.0875 0.875,5.6875 " 
						transform="rotate(945 0,11.375 )"
						stroke-width ="0.1"
						fill="rgb(176.5,0,189.5)"
						/><circle cx="0" cy="11.375" r="3.64" fill="rgb(33,7,142)"/><circle cx="-0.1" cy="11.335" r="2.4266666666667" fill="rgb(53.5,13.5,146.5)"/><path d="M 0,11.375 
						q 0.525 0.35 0.875,5.6875 q 0 0.0875 -0.875,5.6875 
						M 0,11.375 
						q -0.525 0.35 -0.875,5.6875 q -0 0.0875 0.875,5.6875 " 
						transform="rotate(1080 0,11.375 )"
						stroke-width ="0.1"
						fill="rgb(173,0,200)"
						/><circle cx="0" cy="11.375" r="3.64" fill="rgb(33,7,142)"/><circle cx="0.06" cy="11.355" r="2.4266666666667" fill="rgb(53.5,13.5,146.5)"/></g><g id="flower8"><path d="M 0,13 
						q 0.6 0.4 1,6.5 q 0 0.1 -1,6.5 
						M 0,13 
						q -0.6 0.4 -1,6.5 q 0 0.1 1,6.5 " 
						transform="rotate(0 0,13 )"
						stroke-width ="0.1"
						fill="rgb(196,0,224)"
						/><circle cx="0" cy="13" r="4.16" fill="rgb(36,4,141)"/><circle cx="0.09" cy="13.02" r="2.7733333333333" fill="rgb(46.5,16.5,163.5)"/><path d="M 0,13 
						q 0.6 0.4 1,6.5 q 0 0.1 -1,6.5 
						M 0,13 
						q -0.6 0.4 -1,6.5 q 0 0.1 1,6.5 " 
						transform="rotate(135 0,13 )"
						stroke-width ="0.1"
						fill="rgb(191.5,0.5,214.5)"
						/><circle cx="0" cy="13" r="4.16" fill="rgb(36,4,141)"/><circle cx="0.09" cy="12.97" r="2.7733333333333" fill="rgb(46.5,16.5,163.5)"/><path d="M 0,13 
						q 0.6 0.4 1,6.5 q 0 0.1 -1,6.5 
						M 0,13 
						q -0.6 0.4 -1,6.5 q 0 0.1 1,6.5 " 
						transform="rotate(270 0,13 )"
						stroke-width ="0.1"
						fill="rgb(173,0,213)"
						/><circle cx="0" cy="13" r="4.16" fill="rgb(36,4,141)"/><circle cx="-0.05" cy="13.09" r="2.7733333333333" fill="rgb(46.5,16.5,163.5)"/><path d="M 0,13 
						q 0.6 0.4 1,6.5 q 0 0.1 -1,6.5 
						M 0,13 
						q -0.6 0.4 -1,6.5 q 0 0.1 1,6.5 " 
						transform="rotate(405 0,13 )"
						stroke-width ="0.1"
						fill="rgb(178.5,0,200.5)"
						/><circle cx="0" cy="13" r="4.16" fill="rgb(36,4,141)"/><circle cx="-0.06" cy="13" r="2.7733333333333" fill="rgb(46.5,16.5,163.5)"/><path d="M 0,13 
						q 0.6 0.4 1,6.5 q 0 0.1 -1,6.5 
						M 0,13 
						q -0.6 0.4 -1,6.5 q 0 0.1 1,6.5 " 
						transform="rotate(540 0,13 )"
						stroke-width ="0.1"
						fill="rgb(167,0,200)"
						/><circle cx="0" cy="13" r="4.16" fill="rgb(36,4,141)"/><circle cx="0.03" cy="12.95" r="2.7733333333333" fill="rgb(46.5,16.5,163.5)"/><path d="M 0,13 
						q 0.6 0.4 1,6.5 q 0 0.1 -1,6.5 
						M 0,13 
						q -0.6 0.4 -1,6.5 q 0 0.1 1,6.5 " 
						transform="rotate(675 0,13 )"
						stroke-width ="0.1"
						fill="rgb(182.5,0,198.5)"
						/><circle cx="0" cy="13" r="4.16" fill="rgb(36,4,141)"/><circle cx="0.09" cy="13.06" r="2.7733333333333" fill="rgb(46.5,16.5,163.5)"/><path d="M 0,13 
						q 0.6 0.4 1,6.5 q 0 0.1 -1,6.5 
						M 0,13 
						q -0.6 0.4 -1,6.5 q 0 0.1 1,6.5 " 
						transform="rotate(810 0,13 )"
						stroke-width ="0.1"
						fill="rgb(175,0,190)"
						/><circle cx="0" cy="13" r="4.16" fill="rgb(36,4,141)"/><circle cx="-0.08" cy="13.02" r="2.7733333333333" fill="rgb(46.5,16.5,163.5)"/><path d="M 0,13 
						q 0.6 0.4 1,6.5 q 0 0.1 -1,6.5 
						M 0,13 
						q -0.6 0.4 -1,6.5 q 0 0.1 1,6.5 " 
						transform="rotate(945 0,13 )"
						stroke-width ="0.1"
						fill="rgb(164.5,0,198.5)"
						/><circle cx="0" cy="13" r="4.16" fill="rgb(36,4,141)"/><circle cx="0.03" cy="12.97" r="2.7733333333333" fill="rgb(46.5,16.5,163.5)"/><path d="M 0,13 
						q 0.6 0.4 1,6.5 q 0 0.1 -1,6.5 
						M 0,13 
						q -0.6 0.4 -1,6.5 q 0 0.1 1,6.5 " 
						transform="rotate(1080 0,13 )"
						stroke-width ="0.1"
						fill="rgb(164,0,198)"
						/><circle cx="0" cy="13" r="4.16" fill="rgb(36,4,141)"/><circle cx="0.05" cy="12.93" r="2.7733333333333" fill="rgb(46.5,16.5,163.5)"/></g></defs>
				<g class="fullPlant">
					<g>
					<path d ="M 51,91 
					q 5.4 -36.97 10.68,-45.564" fill ="none" stroke ="rgb(20.5,149.5,131.5)" stroke-width ="0.918"/></g><circle cx="61.68" cy="45.436" r="0.459" fill="rgb(20.5,149.5,131.5)"/><use xlink:href="#leaf5"
						x="51" y="91" 
						transform="rotate(141 51.28 91.82)" 	
						fill="rgb(73,72,95)" /><use xlink:href="#leaf6"
						x="51" y="91" 
						transform="rotate(206 51 91)" 	
						fill="rgb(78,73,88)" /><use xlink:href="#flower5" id="fleur00"
						x="61.68" y="32.436" transform="rotate(123 61.68 45.436)" />
					<g>
					<path d ="M 44,91 
					q -5.4 -18.98 5.772,-28.656" fill ="none" stroke ="rgb(23,152,132)" stroke-width ="0.918"/></g><circle cx="49.772" cy="62.344" r="0.459" fill="rgb(23,152,132)"/><use xlink:href="#leaf3"
						x="44" y="91" 
						transform="rotate(147 44.05 91.3)" 	
						fill="rgb(97,63,100)" /><use xlink:href="#leaf7"
						x="44" y="91" 
						transform="rotate(208 44 91)" 	
						fill="rgb(93,70,113)" /><use xlink:href="#flower7" id="fleur10"
						x="49.772" y="49.344" transform="rotate(142 49.772 62.344)" /></g>
				</svg>