<svg class="relie" xmlns="http://www.w3.org/2000/svg" viewBox="0 0 100 100" preserveAspectRatio="xMidYMid meet" x="0" y="0" overflow="visible" xmlns:xlink="http://www.w3.org/1999/xlink">

		<defs>  <g id="leaf1" transform="skewX(1) skewY(1)"><path d="M 0,0 
					q 0.7725 0.2575 0,1.625 
					M 0,0 
					q -0.7725 0.2575 0,1.625 " 
					stroke-width ="0.2" /></g>  <g id="leaf2" transform="skewX(15) skewY(15)"><path d="M 0,0 
					q 1.545 0.515 0,3.25 
					M 0,0 
					q -1.545 0.515 0,3.25 " 
					stroke-width ="0.2" /></g>  <g id="leaf3" transform="skewX(17) skewY(17)"><path d="M 0,0 
					q 2.3175 0.7725 0,4.875 
					M 0,0 
					q -2.3175 0.7725 0,4.875 " 
					stroke-width ="0.2" /></g>  <g id="leaf4" transform="skewX(19) skewY(19)"><path d="M 0,0 
					q 3.09 1.03 0,6.5 
					M 0,0 
					q -3.09 1.03 0,6.5 " 
					stroke-width ="0.2" /></g>  <g id="leaf5" transform="skewX(17) skewY(17)"><path d="M 0,0 
					q 3.8625 1.2875 0,8.125 
					M 0,0 
					q -3.8625 1.2875 0,8.125 " 
					stroke-width ="0.2" /></g>  <g id="leaf6" transform="skewX(18) skewY(18)"><path d="M 0,0 
					q 4.635 1.545 0,9.75 
					M 0,0 
					q -4.635 1.545 0,9.75 " 
					stroke-width ="0.2" /></g>  <g id="leaf7" transform="skewX(18) skewY(18)"><path d="M 0,0 
					q 5.4075 1.8025 0,11.375 
					M 0,0 
					q -5.4075 1.8025 0,11.375 " 
					stroke-width ="0.2" /></g>  <g id="leaf8" transform="skewX(7) skewY(7)"><path d="M 0,0 
					q 6.18 2.06 0,13 
					M 0,0 
					q -6.18 2.06 0,13 " 
					stroke-width ="0.2" /></g><g id="flower1" transform="skewX(-6) skewY(-6)">
						<path d="M 0,0
						Q 0.39,0.375 0,1.0425"
						stroke="rgb(33,151,26)" 
						fill="transparent"
						stroke-width ="0.3" /><path d="M 0,1.0425 
						q 0.16875 0.32 0.3875,0.1875 q -0.0925 0.08625 -0.125,0.1875 q 0.1575 0.18375 -0.125,0.1875 q -0.02 0.195 -0.1375,1 
						M 0,1.0425 
						q -0.16875 0.32 -0.3875,0.1875 q 0.0925 0.08625 0.125,0.1875 q -0.1575 0.18375 0.125,0.1875 q 0.02 0.195 0.1375,1 " 
						transform="rotate(0 0,1.0425 )"
						stroke-width ="0.1"
						fill="rgb(113,76,15)"
						/><path d="M 0,1.0425 
						q 0.16875 0.32 0.3875,0.1875 q -0.0925 0.08625 -0.125,0.1875 q 0.1575 0.18375 -0.125,0.1875 q -0.02 0.195 -0.1375,1 
						M 0,1.0425 
						q -0.16875 0.32 -0.3875,0.1875 q 0.0925 0.08625 0.125,0.1875 q -0.1575 0.18375 0.125,0.1875 q 0.02 0.195 0.1375,1 " 
						transform="rotate(18 0,1.0425 )"
						stroke-width ="0.1"
						fill="rgb(111.5,71.5,0.5)"
						/><path d="M 0,1.0425 
						q 0.16875 0.32 0.3875,0.1875 q -0.0925 0.08625 -0.125,0.1875 q 0.1575 0.18375 -0.125,0.1875 q -0.02 0.195 -0.1375,1 
						M 0,1.0425 
						q -0.16875 0.32 -0.3875,0.1875 q 0.0925 0.08625 0.125,0.1875 q -0.1575 0.18375 0.125,0.1875 q 0.02 0.195 0.1375,1 " 
						transform="rotate(36 0,1.0425 )"
						stroke-width ="0.1"
						fill="rgb(112,70,0)"
						/><path d="M 0,1.0425 
						q 0.16875 0.32 0.3875,0.1875 q -0.0925 0.08625 -0.125,0.1875 q 0.1575 0.18375 -0.125,0.1875 q -0.02 0.195 -0.1375,1 
						M 0,1.0425 
						q -0.16875 0.32 -0.3875,0.1875 q 0.0925 0.08625 0.125,0.1875 q -0.1575 0.18375 0.125,0.1875 q 0.02 0.195 0.1375,1 " 
						transform="rotate(54 0,1.0425 )"
						stroke-width ="0.1"
						fill="rgb(100.5,65.5,3.5)"
						/></g><g id="flower2" transform="skewX(3) skewY(3)">
						<path d="M 0,0
						Q -0.72,0.75 0,2.085"
						stroke="rgb(33,151,26)" 
						fill="transparent"
						stroke-width ="0.3" /><path d="M 0,2.085 
						q 0.3375 0.64 0.575,0.375 q -0.185 0.1725 -0.25,0.375 q 0.315 0.3675 -0.25,0.375 q 0.29 0.39 -0.075,1 
						M 0,2.085 
						q -0.3375 0.64 -0.575,0.375 q 0.185 0.1725 0.25,0.375 q -0.315 0.3675 0.25,0.375 q -0.29 0.39 0.075,1 " 
						transform="rotate(0 0,2.085 )"
						stroke-width ="0.1"
						fill="rgb(112,76,0)"
						/><circle cx="0" cy="2.085" r="0" fill="rgb(60,222,119)"/><circle cx="0.01" cy="2.025" r="0" fill="rgb(70.5,228.5,134.5)"/><path d="M 0,2.085 
						q 0.3375 0.64 0.575,0.375 q -0.185 0.1725 -0.25,0.375 q 0.315 0.3675 -0.25,0.375 q 0.29 0.39 -0.075,1 
						M 0,2.085 
						q -0.3375 0.64 -0.575,0.375 q 0.185 0.1725 0.25,0.375 q -0.315 0.3675 0.25,0.375 q -0.29 0.39 0.075,1 " 
						transform="rotate(60 0,2.085 )"
						stroke-width ="0.1"
						fill="rgb(111.5,70.5,0)"
						/><circle cx="0" cy="2.085" r="0" fill="rgb(60,222,119)"/><circle cx="0.01" cy="2.155" r="0" fill="rgb(70.5,228.5,134.5)"/><path d="M 0,2.085 
						q 0.3375 0.64 0.575,0.375 q -0.185 0.1725 -0.25,0.375 q 0.315 0.3675 -0.25,0.375 q 0.29 0.39 -0.075,1 
						M 0,2.085 
						q -0.3375 0.64 -0.575,0.375 q 0.185 0.1725 0.25,0.375 q -0.315 0.3675 0.25,0.375 q -0.29 0.39 0.075,1 " 
						transform="rotate(120 0,2.085 )"
						stroke-width ="0.1"
						fill="rgb(111,74,9)"
						/><circle cx="0" cy="2.085" r="0" fill="rgb(60,222,119)"/><circle cx="-0.06" cy="2.165" r="0" fill="rgb(70.5,228.5,134.5)"/><path d="M 0,2.085 
						q 0.3375 0.64 0.575,0.375 q -0.185 0.1725 -0.25,0.375 q 0.315 0.3675 -0.25,0.375 q 0.29 0.39 -0.075,1 
						M 0,2.085 
						q -0.3375 0.64 -0.575,0.375 q 0.185 0.1725 0.25,0.375 q -0.315 0.3675 0.25,0.375 q -0.29 0.39 0.075,1 " 
						transform="rotate(180 0,2.085 )"
						stroke-width ="0.1"
						fill="rgb(93.5,71.5,5.5)"
						/><circle cx="0" cy="2.085" r="0" fill="rgb(60,222,119)"/><circle cx="-0.05" cy="2.005" r="0" fill="rgb(70.5,228.5,134.5)"/><path d="M 0,2.085 
						q 0.3375 0.64 0.575,0.375 q -0.185 0.1725 -0.25,0.375 q 0.315 0.3675 -0.25,0.375 q 0.29 0.39 -0.075,1 
						M 0,2.085 
						q -0.3375 0.64 -0.575,0.375 q 0.185 0.1725 0.25,0.375 q -0.315 0.3675 0.25,0.375 q -0.29 0.39 0.075,1 " 
						transform="rotate(240 0,2.085 )"
						stroke-width ="0.1"
						fill="rgb(93,61,0)"
						/><circle cx="0" cy="2.085" r="0" fill="rgb(60,222,119)"/><circle cx="-0.03" cy="2.115" r="0" fill="rgb(70.5,228.5,134.5)"/><path d="M 0,2.085 
						q 0.3375 0.64 0.575,0.375 q -0.185 0.1725 -0.25,0.375 q 0.315 0.3675 -0.25,0.375 q 0.29 0.39 -0.075,1 
						M 0,2.085 
						q -0.3375 0.64 -0.575,0.375 q 0.185 0.1725 0.25,0.375 q -0.315 0.3675 0.25,0.375 q -0.29 0.39 0.075,1 " 
						transform="rotate(300 0,2.085 )"
						stroke-width ="0.1"
						fill="rgb(97.5,68.5,4.5)"
						/><circle cx="0" cy="2.085" r="0" fill="rgb(60,222,119)"/><circle cx="0.07" cy="2.175" r="0" fill="rgb(70.5,228.5,134.5)"/><path d="M 0,2.085 
						q 0.3375 0.64 0.575,0.375 q -0.185 0.1725 -0.25,0.375 q 0.315 0.3675 -0.25,0.375 q 0.29 0.39 -0.075,1 
						M 0,2.085 
						q -0.3375 0.64 -0.575,0.375 q 0.185 0.1725 0.25,0.375 q -0.315 0.3675 0.25,0.375 q -0.29 0.39 0.075,1 " 
						transform="rotate(360 0,2.085 )"
						stroke-width ="0.1"
						fill="rgb(99,48,0)"
						/><circle cx="0" cy="2.085" r="0" fill="rgb(60,222,119)"/><circle cx="0.01" cy="1.995" r="0" fill="rgb(70.5,228.5,134.5)"/><path d="M 0,2.085 
						q 0.3375 0.64 0.575,0.375 q -0.185 0.1725 -0.25,0.375 q 0.315 0.3675 -0.25,0.375 q 0.29 0.39 -0.075,1 
						M 0,2.085 
						q -0.3375 0.64 -0.575,0.375 q 0.185 0.1725 0.25,0.375 q -0.315 0.3675 0.25,0.375 q -0.29 0.39 0.075,1 " 
						transform="rotate(420 0,2.085 )"
						stroke-width ="0.1"
						fill="rgb(83.5,57.5,0)"
						/><circle cx="0" cy="2.085" r="0" fill="rgb(60,222,119)"/><circle cx="0.1" cy="2.085" r="0" fill="rgb(70.5,228.5,134.5)"/><path d="M 0,2.085 
						q 0.3375 0.64 0.575,0.375 q -0.185 0.1725 -0.25,0.375 q 0.315 0.3675 -0.25,0.375 q 0.29 0.39 -0.075,1 
						M 0,2.085 
						q -0.3375 0.64 -0.575,0.375 q 0.185 0.1725 0.25,0.375 q -0.315 0.3675 0.25,0.375 q -0.29 0.39 0.075,1 " 
						transform="rotate(480 0,2.085 )"
						stroke-width ="0.1"
						fill="rgb(82,42,0)"
						/><circle cx="0" cy="2.085" r="0" fill="rgb(60,222,119)"/><circle cx="0.06" cy="2.125" r="0" fill="rgb(70.5,228.5,134.5)"/><path d="M 0,2.085 
						q 0.3375 0.64 0.575,0.375 q -0.185 0.1725 -0.25,0.375 q 0.315 0.3675 -0.25,0.375 q 0.29 0.39 -0.075,1 
						M 0,2.085 
						q -0.3375 0.64 -0.575,0.375 q 0.185 0.1725 0.25,0.375 q -0.315 0.3675 0.25,0.375 q -0.29 0.39 0.075,1 " 
						transform="rotate(540 0,2.085 )"
						stroke-width ="0.1"
						fill="rgb(81.5,53.5,0)"
						/><circle cx="0" cy="2.085" r="0" fill="rgb(60,222,119)"/><circle cx="0.04" cy="2.015" r="0" fill="rgb(70.5,228.5,134.5)"/><path d="M 0,2.085 
						q 0.3375 0.64 0.575,0.375 q -0.185 0.1725 -0.25,0.375 q 0.315 0.3675 -0.25,0.375 q 0.29 0.39 -0.075,1 
						M 0,2.085 
						q -0.3375 0.64 -0.575,0.375 q 0.185 0.1725 0.25,0.375 q -0.315 0.3675 0.25,0.375 q -0.29 0.39 0.075,1 " 
						transform="rotate(600 0,2.085 )"
						stroke-width ="0.1"
						fill="rgb(83,43,0)"
						/><circle cx="0" cy="2.085" r="0" fill="rgb(60,222,119)"/><circle cx="0.05" cy="2.095" r="0" fill="rgb(70.5,228.5,134.5)"/><path d="M 0,2.085 
						q 0.3375 0.64 0.575,0.375 q -0.185 0.1725 -0.25,0.375 q 0.315 0.3675 -0.25,0.375 q 0.29 0.39 -0.075,1 
						M 0,2.085 
						q -0.3375 0.64 -0.575,0.375 q 0.185 0.1725 0.25,0.375 q -0.315 0.3675 0.25,0.375 q -0.29 0.39 0.075,1 " 
						transform="rotate(660 0,2.085 )"
						stroke-width ="0.1"
						fill="rgb(82.5,43.5,0)"
						/><circle cx="0" cy="2.085" r="0" fill="rgb(60,222,119)"/><circle cx="-0.05" cy="2.085" r="0" fill="rgb(70.5,228.5,134.5)"/><path d="M 0,2.085 
						q 0.3375 0.64 0.575,0.375 q -0.185 0.1725 -0.25,0.375 q 0.315 0.3675 -0.25,0.375 q 0.29 0.39 -0.075,1 
						M 0,2.085 
						q -0.3375 0.64 -0.575,0.375 q 0.185 0.1725 0.25,0.375 q -0.315 0.3675 0.25,0.375 q -0.29 0.39 0.075,1 " 
						transform="rotate(720 0,2.085 )"
						stroke-width ="0.1"
						fill="rgb(81,47,0)"
						/><circle cx="0" cy="2.085" r="0" fill="rgb(60,222,119)"/><circle cx="-0.1" cy="1.995" r="0" fill="rgb(70.5,228.5,134.5)"/></g><g id="flower3" transform="skewX(-3) skewY(-3)">
						<path d="M 0,0
						Q 1.05,1.125 0,3.1275"
						stroke="rgb(33,151,26)" 
						fill="transparent"
						stroke-width ="0.3" /><path d="M 0,3.1275 
						q 0.50625 0.96 0.7625,0.5625 q -0.2775 0.25875 -0.375,0.5625 q 0.4725 0.55125 -0.375,0.5625 q 0.435 0.585 -0.0125,1 
						M 0,3.1275 
						q -0.50625 0.96 -0.7625,0.5625 q 0.2775 0.25875 0.375,0.5625 q -0.4725 0.55125 0.375,0.5625 q -0.435 0.585 0.0125,1 " 
						transform="rotate(0 0,3.1275 )"
						stroke-width ="0.1"
						fill="rgb(99,62,15)"
						/><circle cx="0" cy="3.1275" r="0" fill="rgb(58,225,117)"/><circle cx="0.03" cy="3.1175" r="0" fill="rgb(72.5,228.5,132.5)"/><path d="M 0,3.1275 
						q 0.50625 0.96 0.7625,0.5625 q -0.2775 0.25875 -0.375,0.5625 q 0.4725 0.55125 -0.375,0.5625 q 0.435 0.585 -0.0125,1 
						M 0,3.1275 
						q -0.50625 0.96 -0.7625,0.5625 q 0.2775 0.25875 0.375,0.5625 q -0.4725 0.55125 0.375,0.5625 q -0.435 0.585 0.0125,1 " 
						transform="rotate(60 0,3.1275 )"
						stroke-width ="0.1"
						fill="rgb(102.5,65.5,0.5)"
						/><circle cx="0" cy="3.1275" r="0" fill="rgb(58,225,117)"/><circle cx="0.02" cy="3.1875" r="0" fill="rgb(72.5,228.5,132.5)"/><path d="M 0,3.1275 
						q 0.50625 0.96 0.7625,0.5625 q -0.2775 0.25875 -0.375,0.5625 q 0.4725 0.55125 -0.375,0.5625 q 0.435 0.585 -0.0125,1 
						M 0,3.1275 
						q -0.50625 0.96 -0.7625,0.5625 q 0.2775 0.25875 0.375,0.5625 q -0.4725 0.55125 0.375,0.5625 q -0.435 0.585 0.0125,1 " 
						transform="rotate(120 0,3.1275 )"
						stroke-width ="0.1"
						fill="rgb(101,59,0)"
						/><circle cx="0" cy="3.1275" r="0" fill="rgb(58,225,117)"/><circle cx="-0.02" cy="3.0675" r="0" fill="rgb(72.5,228.5,132.5)"/><path d="M 0,3.1275 
						q 0.50625 0.96 0.7625,0.5625 q -0.2775 0.25875 -0.375,0.5625 q 0.4725 0.55125 -0.375,0.5625 q 0.435 0.585 -0.0125,1 
						M 0,3.1275 
						q -0.50625 0.96 -0.7625,0.5625 q 0.2775 0.25875 0.375,0.5625 q -0.4725 0.55125 0.375,0.5625 q -0.435 0.585 0.0125,1 " 
						transform="rotate(180 0,3.1275 )"
						stroke-width ="0.1"
						fill="rgb(89.5,53.5,0)"
						/><circle cx="0" cy="3.1275" r="0" fill="rgb(58,225,117)"/><circle cx="0.01" cy="3.0575" r="0" fill="rgb(72.5,228.5,132.5)"/><path d="M 0,3.1275 
						q 0.50625 0.96 0.7625,0.5625 q -0.2775 0.25875 -0.375,0.5625 q 0.4725 0.55125 -0.375,0.5625 q 0.435 0.585 -0.0125,1 
						M 0,3.1275 
						q -0.50625 0.96 -0.7625,0.5625 q 0.2775 0.25875 0.375,0.5625 q -0.4725 0.55125 0.375,0.5625 q -0.435 0.585 0.0125,1 " 
						transform="rotate(240 0,3.1275 )"
						stroke-width ="0.1"
						fill="rgb(100,57,0)"
						/><circle cx="0" cy="3.1275" r="0" fill="rgb(58,225,117)"/><circle cx="-0.03" cy="3.1875" r="0" fill="rgb(72.5,228.5,132.5)"/><path d="M 0,3.1275 
						q 0.50625 0.96 0.7625,0.5625 q -0.2775 0.25875 -0.375,0.5625 q 0.4725 0.55125 -0.375,0.5625 q 0.435 0.585 -0.0125,1 
						M 0,3.1275 
						q -0.50625 0.96 -0.7625,0.5625 q 0.2775 0.25875 0.375,0.5625 q -0.4725 0.55125 0.375,0.5625 q -0.435 0.585 0.0125,1 " 
						transform="rotate(300 0,3.1275 )"
						stroke-width ="0.1"
						fill="rgb(91.5,67.5,2.5)"
						/><circle cx="0" cy="3.1275" r="0" fill="rgb(58,225,117)"/><circle cx="-0.09" cy="3.0975" r="0" fill="rgb(72.5,228.5,132.5)"/><path d="M 0,3.1275 
						q 0.50625 0.96 0.7625,0.5625 q -0.2775 0.25875 -0.375,0.5625 q 0.4725 0.55125 -0.375,0.5625 q 0.435 0.585 -0.0125,1 
						M 0,3.1275 
						q -0.50625 0.96 -0.7625,0.5625 q 0.2775 0.25875 0.375,0.5625 q -0.4725 0.55125 0.375,0.5625 q -0.435 0.585 0.0125,1 " 
						transform="rotate(360 0,3.1275 )"
						stroke-width ="0.1"
						fill="rgb(102,62,0)"
						/><circle cx="0" cy="3.1275" r="0" fill="rgb(58,225,117)"/><circle cx="-0.03" cy="3.1975" r="0" fill="rgb(72.5,228.5,132.5)"/><path d="M 0,3.1275 
						q 0.50625 0.96 0.7625,0.5625 q -0.2775 0.25875 -0.375,0.5625 q 0.4725 0.55125 -0.375,0.5625 q 0.435 0.585 -0.0125,1 
						M 0,3.1275 
						q -0.50625 0.96 -0.7625,0.5625 q 0.2775 0.25875 0.375,0.5625 q -0.4725 0.55125 0.375,0.5625 q -0.435 0.585 0.0125,1 " 
						transform="rotate(420 0,3.1275 )"
						stroke-width ="0.1"
						fill="rgb(85.5,54.5,0)"
						/><circle cx="0" cy="3.1275" r="0" fill="rgb(58,225,117)"/><circle cx="-0.02" cy="3.2075" r="0" fill="rgb(72.5,228.5,132.5)"/><path d="M 0,3.1275 
						q 0.50625 0.96 0.7625,0.5625 q -0.2775 0.25875 -0.375,0.5625 q 0.4725 0.55125 -0.375,0.5625 q 0.435 0.585 -0.0125,1 
						M 0,3.1275 
						q -0.50625 0.96 -0.7625,0.5625 q 0.2775 0.25875 0.375,0.5625 q -0.4725 0.55125 0.375,0.5625 q -0.435 0.585 0.0125,1 " 
						transform="rotate(480 0,3.1275 )"
						stroke-width ="0.1"
						fill="rgb(78,53,0)"
						/><circle cx="0" cy="3.1275" r="0" fill="rgb(58,225,117)"/><circle cx="-0.02" cy="3.1675" r="0" fill="rgb(72.5,228.5,132.5)"/><path d="M 0,3.1275 
						q 0.50625 0.96 0.7625,0.5625 q -0.2775 0.25875 -0.375,0.5625 q 0.4725 0.55125 -0.375,0.5625 q 0.435 0.585 -0.0125,1 
						M 0,3.1275 
						q -0.50625 0.96 -0.7625,0.5625 q 0.2775 0.25875 0.375,0.5625 q -0.4725 0.55125 0.375,0.5625 q -0.435 0.585 0.0125,1 " 
						transform="rotate(540 0,3.1275 )"
						stroke-width ="0.1"
						fill="rgb(75.5,42.5,0)"
						/><circle cx="0" cy="3.1275" r="0" fill="rgb(58,225,117)"/><circle cx="0.05" cy="3.1675" r="0" fill="rgb(72.5,228.5,132.5)"/><path d="M 0,3.1275 
						q 0.50625 0.96 0.7625,0.5625 q -0.2775 0.25875 -0.375,0.5625 q 0.4725 0.55125 -0.375,0.5625 q 0.435 0.585 -0.0125,1 
						M 0,3.1275 
						q -0.50625 0.96 -0.7625,0.5625 q 0.2775 0.25875 0.375,0.5625 q -0.4725 0.55125 0.375,0.5625 q -0.435 0.585 0.0125,1 " 
						transform="rotate(600 0,3.1275 )"
						stroke-width ="0.1"
						fill="rgb(72,50,0)"
						/><circle cx="0" cy="3.1275" r="0" fill="rgb(58,225,117)"/><circle cx="-0.09" cy="3.1875" r="0" fill="rgb(72.5,228.5,132.5)"/><path d="M 0,3.1275 
						q 0.50625 0.96 0.7625,0.5625 q -0.2775 0.25875 -0.375,0.5625 q 0.4725 0.55125 -0.375,0.5625 q 0.435 0.585 -0.0125,1 
						M 0,3.1275 
						q -0.50625 0.96 -0.7625,0.5625 q 0.2775 0.25875 0.375,0.5625 q -0.4725 0.55125 0.375,0.5625 q -0.435 0.585 0.0125,1 " 
						transform="rotate(660 0,3.1275 )"
						stroke-width ="0.1"
						fill="rgb(88.5,44.5,0)"
						/><circle cx="0" cy="3.1275" r="0" fill="rgb(58,225,117)"/><circle cx="0.08" cy="3.0575" r="0" fill="rgb(72.5,228.5,132.5)"/><path d="M 0,3.1275 
						q 0.50625 0.96 0.7625,0.5625 q -0.2775 0.25875 -0.375,0.5625 q 0.4725 0.55125 -0.375,0.5625 q 0.435 0.585 -0.0125,1 
						M 0,3.1275 
						q -0.50625 0.96 -0.7625,0.5625 q 0.2775 0.25875 0.375,0.5625 q -0.4725 0.55125 0.375,0.5625 q -0.435 0.585 0.0125,1 " 
						transform="rotate(720 0,3.1275 )"
						stroke-width ="0.1"
						fill="rgb(69,51,0)"
						/><circle cx="0" cy="3.1275" r="0" fill="rgb(58,225,117)"/><circle cx="-0.07" cy="3.0275" r="0" fill="rgb(72.5,228.5,132.5)"/></g><g id="flower4" transform="skewX(8) skewY(8)">
						<path d="M 0,0
						Q 0.2,1.5 0,4.17"
						stroke="rgb(33,151,26)" 
						fill="transparent"
						stroke-width ="0.3" /><path d="M 0,4.17 
						q 0.675 1.28 0.95,0.75 q -0.37 0.345 -0.5,0.75 q 1.13 0.735 1,0.75 q -0.08 0.78 -1.45,1 
						M 0,4.17 
						q -0.675 1.28 -0.95,0.75 q 0.37 0.345 0.5,0.75 q -1.13 0.735 -1,0.75 q 0.08 0.78 1.45,1 " 
						transform="rotate(0 0,4.17 )"
						stroke-width ="0.1"
						fill="rgb(104,79,14)"
						/><circle cx="0" cy="4.17" r="0" fill="rgb(62,224,120)"/><circle cx="0.08" cy="4.08" r="0" fill="rgb(83.5,243.5,125.5)"/><path d="M 0,4.17 
						q 0.675 1.28 0.95,0.75 q -0.37 0.345 -0.5,0.75 q 1.13 0.735 1,0.75 q -0.08 0.78 -1.45,1 
						M 0,4.17 
						q -0.675 1.28 -0.95,0.75 q 0.37 0.345 0.5,0.75 q -1.13 0.735 -1,0.75 q 0.08 0.78 1.45,1 " 
						transform="rotate(60 0,4.17 )"
						stroke-width ="0.1"
						fill="rgb(113.5,71.5,0)"
						/><circle cx="0" cy="4.17" r="0" fill="rgb(62,224,120)"/><circle cx="0.09" cy="4.19" r="0" fill="rgb(83.5,243.5,125.5)"/><path d="M 0,4.17 
						q 0.675 1.28 0.95,0.75 q -0.37 0.345 -0.5,0.75 q 1.13 0.735 1,0.75 q -0.08 0.78 -1.45,1 
						M 0,4.17 
						q -0.675 1.28 -0.95,0.75 q 0.37 0.345 0.5,0.75 q -1.13 0.735 -1,0.75 q 0.08 0.78 1.45,1 " 
						transform="rotate(120 0,4.17 )"
						stroke-width ="0.1"
						fill="rgb(96,62,4)"
						/><circle cx="0" cy="4.17" r="0" fill="rgb(62,224,120)"/><circle cx="-0.05" cy="4.25" r="0" fill="rgb(83.5,243.5,125.5)"/><path d="M 0,4.17 
						q 0.675 1.28 0.95,0.75 q -0.37 0.345 -0.5,0.75 q 1.13 0.735 1,0.75 q -0.08 0.78 -1.45,1 
						M 0,4.17 
						q -0.675 1.28 -0.95,0.75 q 0.37 0.345 0.5,0.75 q -1.13 0.735 -1,0.75 q 0.08 0.78 1.45,1 " 
						transform="rotate(180 0,4.17 )"
						stroke-width ="0.1"
						fill="rgb(105.5,58.5,1.5)"
						/><circle cx="0" cy="4.17" r="0" fill="rgb(62,224,120)"/><circle cx="0.05" cy="4.1" r="0" fill="rgb(83.5,243.5,125.5)"/><path d="M 0,4.17 
						q 0.675 1.28 0.95,0.75 q -0.37 0.345 -0.5,0.75 q 1.13 0.735 1,0.75 q -0.08 0.78 -1.45,1 
						M 0,4.17 
						q -0.675 1.28 -0.95,0.75 q 0.37 0.345 0.5,0.75 q -1.13 0.735 -1,0.75 q 0.08 0.78 1.45,1 " 
						transform="rotate(240 0,4.17 )"
						stroke-width ="0.1"
						fill="rgb(105,59,0)"
						/><circle cx="0" cy="4.17" r="0" fill="rgb(62,224,120)"/><circle cx="0" cy="4.27" r="0" fill="rgb(83.5,243.5,125.5)"/><path d="M 0,4.17 
						q 0.675 1.28 0.95,0.75 q -0.37 0.345 -0.5,0.75 q 1.13 0.735 1,0.75 q -0.08 0.78 -1.45,1 
						M 0,4.17 
						q -0.675 1.28 -0.95,0.75 q 0.37 0.345 0.5,0.75 q -1.13 0.735 -1,0.75 q 0.08 0.78 1.45,1 " 
						transform="rotate(300 0,4.17 )"
						stroke-width ="0.1"
						fill="rgb(96.5,67.5,1.5)"
						/><circle cx="0" cy="4.17" r="0" fill="rgb(62,224,120)"/><circle cx="0.09" cy="4.25" r="0" fill="rgb(83.5,243.5,125.5)"/><path d="M 0,4.17 
						q 0.675 1.28 0.95,0.75 q -0.37 0.345 -0.5,0.75 q 1.13 0.735 1,0.75 q -0.08 0.78 -1.45,1 
						M 0,4.17 
						q -0.675 1.28 -0.95,0.75 q 0.37 0.345 0.5,0.75 q -1.13 0.735 -1,0.75 q 0.08 0.78 1.45,1 " 
						transform="rotate(360 0,4.17 )"
						stroke-width ="0.1"
						fill="rgb(85,49,2)"
						/><circle cx="0" cy="4.17" r="0" fill="rgb(62,224,120)"/><circle cx="0.08" cy="4.14" r="0" fill="rgb(83.5,243.5,125.5)"/><path d="M 0,4.17 
						q 0.675 1.28 0.95,0.75 q -0.37 0.345 -0.5,0.75 q 1.13 0.735 1,0.75 q -0.08 0.78 -1.45,1 
						M 0,4.17 
						q -0.675 1.28 -0.95,0.75 q 0.37 0.345 0.5,0.75 q -1.13 0.735 -1,0.75 q 0.08 0.78 1.45,1 " 
						transform="rotate(420 0,4.17 )"
						stroke-width ="0.1"
						fill="rgb(95.5,56.5,0)"
						/><circle cx="0" cy="4.17" r="0" fill="rgb(62,224,120)"/><circle cx="-0.07" cy="4.25" r="0" fill="rgb(83.5,243.5,125.5)"/><path d="M 0,4.17 
						q 0.675 1.28 0.95,0.75 q -0.37 0.345 -0.5,0.75 q 1.13 0.735 1,0.75 q -0.08 0.78 -1.45,1 
						M 0,4.17 
						q -0.675 1.28 -0.95,0.75 q 0.37 0.345 0.5,0.75 q -1.13 0.735 -1,0.75 q 0.08 0.78 1.45,1 " 
						transform="rotate(480 0,4.17 )"
						stroke-width ="0.1"
						fill="rgb(94,57,0)"
						/><circle cx="0" cy="4.17" r="0" fill="rgb(62,224,120)"/><circle cx="-0.03" cy="4.1" r="0" fill="rgb(83.5,243.5,125.5)"/><path d="M 0,4.17 
						q 0.675 1.28 0.95,0.75 q -0.37 0.345 -0.5,0.75 q 1.13 0.735 1,0.75 q -0.08 0.78 -1.45,1 
						M 0,4.17 
						q -0.675 1.28 -0.95,0.75 q 0.37 0.345 0.5,0.75 q -1.13 0.735 -1,0.75 q 0.08 0.78 1.45,1 " 
						transform="rotate(540 0,4.17 )"
						stroke-width ="0.1"
						fill="rgb(84.5,47.5,0)"
						/><circle cx="0" cy="4.17" r="0" fill="rgb(62,224,120)"/><circle cx="-0.05" cy="4.24" r="0" fill="rgb(83.5,243.5,125.5)"/><path d="M 0,4.17 
						q 0.675 1.28 0.95,0.75 q -0.37 0.345 -0.5,0.75 q 1.13 0.735 1,0.75 q -0.08 0.78 -1.45,1 
						M 0,4.17 
						q -0.675 1.28 -0.95,0.75 q 0.37 0.345 0.5,0.75 q -1.13 0.735 -1,0.75 q 0.08 0.78 1.45,1 " 
						transform="rotate(600 0,4.17 )"
						stroke-width ="0.1"
						fill="rgb(75,39,0)"
						/><circle cx="0" cy="4.17" r="0" fill="rgb(62,224,120)"/><circle cx="0.02" cy="4.12" r="0" fill="rgb(83.5,243.5,125.5)"/><path d="M 0,4.17 
						q 0.675 1.28 0.95,0.75 q -0.37 0.345 -0.5,0.75 q 1.13 0.735 1,0.75 q -0.08 0.78 -1.45,1 
						M 0,4.17 
						q -0.675 1.28 -0.95,0.75 q 0.37 0.345 0.5,0.75 q -1.13 0.735 -1,0.75 q 0.08 0.78 1.45,1 " 
						transform="rotate(660 0,4.17 )"
						stroke-width ="0.1"
						fill="rgb(83.5,48.5,0)"
						/><circle cx="0" cy="4.17" r="0" fill="rgb(62,224,120)"/><circle cx="-0.02" cy="4.08" r="0" fill="rgb(83.5,243.5,125.5)"/><path d="M 0,4.17 
						q 0.675 1.28 0.95,0.75 q -0.37 0.345 -0.5,0.75 q 1.13 0.735 1,0.75 q -0.08 0.78 -1.45,1 
						M 0,4.17 
						q -0.675 1.28 -0.95,0.75 q 0.37 0.345 0.5,0.75 q -1.13 0.735 -1,0.75 q 0.08 0.78 1.45,1 " 
						transform="rotate(720 0,4.17 )"
						stroke-width ="0.1"
						fill="rgb(77,45,0)"
						/><circle cx="0" cy="4.17" r="0" fill="rgb(62,224,120)"/><circle cx="-0.1" cy="4.08" r="0" fill="rgb(83.5,243.5,125.5)"/></g><g id="flower5" transform="skewX(9) skewY(9)">
						<path d="M 0,0
						Q -0.51,1.875 0,5.2125"
						stroke="rgb(33,151,26)" 
						fill="transparent"
						stroke-width ="0.3" /><path d="M 0,5.2125 
						q 0.84375 1.6 1.1375,0.9375 q -0.4625 0.43125 -0.625,0.9375 q 1.4125 0.91875 1.25,0.9375 q -0.1 0.975 -1.7625,1 
						M 0,5.2125 
						q -0.84375 1.6 -1.1375,0.9375 q 0.4625 0.43125 0.625,0.9375 q -1.4125 0.91875 -1.25,0.9375 q 0.1 0.975 1.7625,1 " 
						transform="rotate(0 0,5.2125 )"
						stroke-width ="0.1"
						fill="rgb(104,70,9)"
						/><circle cx="0" cy="5.2125" r="0" fill="rgb(59,222,123)"/><circle cx="-0.1" cy="5.1625" r="0" fill="rgb(81.5,236.5,134.5)"/><path d="M 0,5.2125 
						q 0.84375 1.6 1.1375,0.9375 q -0.4625 0.43125 -0.625,0.9375 q 1.4125 0.91875 1.25,0.9375 q -0.1 0.975 -1.7625,1 
						M 0,5.2125 
						q -0.84375 1.6 -1.1375,0.9375 q 0.4625 0.43125 0.625,0.9375 q -1.4125 0.91875 -1.25,0.9375 q 0.1 0.975 1.7625,1 " 
						transform="rotate(60 0,5.2125 )"
						stroke-width ="0.1"
						fill="rgb(94.5,77.5,0)"
						/><circle cx="0" cy="5.2125" r="0" fill="rgb(59,222,123)"/><circle cx="0" cy="5.1425" r="0" fill="rgb(81.5,236.5,134.5)"/><path d="M 0,5.2125 
						q 0.84375 1.6 1.1375,0.9375 q -0.4625 0.43125 -0.625,0.9375 q 1.4125 0.91875 1.25,0.9375 q -0.1 0.975 -1.7625,1 
						M 0,5.2125 
						q -0.84375 1.6 -1.1375,0.9375 q 0.4625 0.43125 0.625,0.9375 q -1.4125 0.91875 -1.25,0.9375 q 0.1 0.975 1.7625,1 " 
						transform="rotate(120 0,5.2125 )"
						stroke-width ="0.1"
						fill="rgb(112,61,11)"
						/><circle cx="0" cy="5.2125" r="0" fill="rgb(59,222,123)"/><circle cx="-0.04" cy="5.1725" r="0" fill="rgb(81.5,236.5,134.5)"/><path d="M 0,5.2125 
						q 0.84375 1.6 1.1375,0.9375 q -0.4625 0.43125 -0.625,0.9375 q 1.4125 0.91875 1.25,0.9375 q -0.1 0.975 -1.7625,1 
						M 0,5.2125 
						q -0.84375 1.6 -1.1375,0.9375 q 0.4625 0.43125 0.625,0.9375 q -1.4125 0.91875 -1.25,0.9375 q 0.1 0.975 1.7625,1 " 
						transform="rotate(180 0,5.2125 )"
						stroke-width ="0.1"
						fill="rgb(101.5,56.5,0)"
						/><circle cx="0" cy="5.2125" r="0" fill="rgb(59,222,123)"/><circle cx="0.09" cy="5.1425" r="0" fill="rgb(81.5,236.5,134.5)"/><path d="M 0,5.2125 
						q 0.84375 1.6 1.1375,0.9375 q -0.4625 0.43125 -0.625,0.9375 q 1.4125 0.91875 1.25,0.9375 q -0.1 0.975 -1.7625,1 
						M 0,5.2125 
						q -0.84375 1.6 -1.1375,0.9375 q 0.4625 0.43125 0.625,0.9375 q -1.4125 0.91875 -1.25,0.9375 q 0.1 0.975 1.7625,1 " 
						transform="rotate(240 0,5.2125 )"
						stroke-width ="0.1"
						fill="rgb(96,54,0)"
						/><circle cx="0" cy="5.2125" r="0" fill="rgb(59,222,123)"/><circle cx="0.01" cy="5.1725" r="0" fill="rgb(81.5,236.5,134.5)"/><path d="M 0,5.2125 
						q 0.84375 1.6 1.1375,0.9375 q -0.4625 0.43125 -0.625,0.9375 q 1.4125 0.91875 1.25,0.9375 q -0.1 0.975 -1.7625,1 
						M 0,5.2125 
						q -0.84375 1.6 -1.1375,0.9375 q 0.4625 0.43125 0.625,0.9375 q -1.4125 0.91875 -1.25,0.9375 q 0.1 0.975 1.7625,1 " 
						transform="rotate(300 0,5.2125 )"
						stroke-width ="0.1"
						fill="rgb(99.5,52.5,3.5)"
						/><circle cx="0" cy="5.2125" r="0" fill="rgb(59,222,123)"/><circle cx="-0.09" cy="5.1525" r="0" fill="rgb(81.5,236.5,134.5)"/><path d="M 0,5.2125 
						q 0.84375 1.6 1.1375,0.9375 q -0.4625 0.43125 -0.625,0.9375 q 1.4125 0.91875 1.25,0.9375 q -0.1 0.975 -1.7625,1 
						M 0,5.2125 
						q -0.84375 1.6 -1.1375,0.9375 q 0.4625 0.43125 0.625,0.9375 q -1.4125 0.91875 -1.25,0.9375 q 0.1 0.975 1.7625,1 " 
						transform="rotate(360 0,5.2125 )"
						stroke-width ="0.1"
						fill="rgb(86,56,0)"
						/><circle cx="0" cy="5.2125" r="0" fill="rgb(59,222,123)"/><circle cx="0.06" cy="5.1225" r="0" fill="rgb(81.5,236.5,134.5)"/><path d="M 0,5.2125 
						q 0.84375 1.6 1.1375,0.9375 q -0.4625 0.43125 -0.625,0.9375 q 1.4125 0.91875 1.25,0.9375 q -0.1 0.975 -1.7625,1 
						M 0,5.2125 
						q -0.84375 1.6 -1.1375,0.9375 q 0.4625 0.43125 0.625,0.9375 q -1.4125 0.91875 -1.25,0.9375 q 0.1 0.975 1.7625,1 " 
						transform="rotate(420 0,5.2125 )"
						stroke-width ="0.1"
						fill="rgb(82.5,49.5,0)"
						/><circle cx="0" cy="5.2125" r="0" fill="rgb(59,222,123)"/><circle cx="0.02" cy="5.1525" r="0" fill="rgb(81.5,236.5,134.5)"/><path d="M 0,5.2125 
						q 0.84375 1.6 1.1375,0.9375 q -0.4625 0.43125 -0.625,0.9375 q 1.4125 0.91875 1.25,0.9375 q -0.1 0.975 -1.7625,1 
						M 0,5.2125 
						q -0.84375 1.6 -1.1375,0.9375 q 0.4625 0.43125 0.625,0.9375 q -1.4125 0.91875 -1.25,0.9375 q 0.1 0.975 1.7625,1 " 
						transform="rotate(480 0,5.2125 )"
						stroke-width ="0.1"
						fill="rgb(90,45,0)"
						/><circle cx="0" cy="5.2125" r="0" fill="rgb(59,222,123)"/><circle cx="0.03" cy="5.1125" r="0" fill="rgb(81.5,236.5,134.5)"/><path d="M 0,5.2125 
						q 0.84375 1.6 1.1375,0.9375 q -0.4625 0.43125 -0.625,0.9375 q 1.4125 0.91875 1.25,0.9375 q -0.1 0.975 -1.7625,1 
						M 0,5.2125 
						q -0.84375 1.6 -1.1375,0.9375 q 0.4625 0.43125 0.625,0.9375 q -1.4125 0.91875 -1.25,0.9375 q 0.1 0.975 1.7625,1 " 
						transform="rotate(540 0,5.2125 )"
						stroke-width ="0.1"
						fill="rgb(86.5,50.5,0)"
						/><circle cx="0" cy="5.2125" r="0" fill="rgb(59,222,123)"/><circle cx="0.06" cy="5.1725" r="0" fill="rgb(81.5,236.5,134.5)"/><path d="M 0,5.2125 
						q 0.84375 1.6 1.1375,0.9375 q -0.4625 0.43125 -0.625,0.9375 q 1.4125 0.91875 1.25,0.9375 q -0.1 0.975 -1.7625,1 
						M 0,5.2125 
						q -0.84375 1.6 -1.1375,0.9375 q 0.4625 0.43125 0.625,0.9375 q -1.4125 0.91875 -1.25,0.9375 q 0.1 0.975 1.7625,1 " 
						transform="rotate(600 0,5.2125 )"
						stroke-width ="0.1"
						fill="rgb(75,41,0)"
						/><circle cx="0" cy="5.2125" r="0" fill="rgb(59,222,123)"/><circle cx="0.02" cy="5.1225" r="0" fill="rgb(81.5,236.5,134.5)"/><path d="M 0,5.2125 
						q 0.84375 1.6 1.1375,0.9375 q -0.4625 0.43125 -0.625,0.9375 q 1.4125 0.91875 1.25,0.9375 q -0.1 0.975 -1.7625,1 
						M 0,5.2125 
						q -0.84375 1.6 -1.1375,0.9375 q 0.4625 0.43125 0.625,0.9375 q -1.4125 0.91875 -1.25,0.9375 q 0.1 0.975 1.7625,1 " 
						transform="rotate(660 0,5.2125 )"
						stroke-width ="0.1"
						fill="rgb(78.5,36.5,0)"
						/><circle cx="0" cy="5.2125" r="0" fill="rgb(59,222,123)"/><circle cx="0.06" cy="5.1725" r="0" fill="rgb(81.5,236.5,134.5)"/><path d="M 0,5.2125 
						q 0.84375 1.6 1.1375,0.9375 q -0.4625 0.43125 -0.625,0.9375 q 1.4125 0.91875 1.25,0.9375 q -0.1 0.975 -1.7625,1 
						M 0,5.2125 
						q -0.84375 1.6 -1.1375,0.9375 q 0.4625 0.43125 0.625,0.9375 q -1.4125 0.91875 -1.25,0.9375 q 0.1 0.975 1.7625,1 " 
						transform="rotate(720 0,5.2125 )"
						stroke-width ="0.1"
						fill="rgb(80,47,0)"
						/><circle cx="0" cy="5.2125" r="0" fill="rgb(59,222,123)"/><circle cx="-0.03" cy="5.1325" r="0" fill="rgb(81.5,236.5,134.5)"/></g><g id="flower6" transform="skewX(2) skewY(2)">
						<path d="M 0,0
						Q -0.82,2.25 0,6.255"
						stroke="rgb(33,151,26)" 
						fill="transparent"
						stroke-width ="0.3" /><path d="M 0,6.255 
						q 1.0125 1.92 1.325,1.125 q -0.555 0.5175 -0.75,1.125 q 1.695 1.1025 1.5,1.125 q -0.12 1.17 -2.075,1.125 
						M 0,6.255 
						q -1.0125 1.92 -1.325,1.125 q 0.555 0.5175 0.75,1.125 q -1.695 1.1025 -1.5,1.125 q 0.12 1.17 2.075,1.125 " 
						transform="rotate(0 0,6.255 )"
						stroke-width ="0.1"
						fill="rgb(117,64,1)"
						/><path d="M 0,6.255 
						q 1.0125 1.92 1.325,1.125 q -0.555 0.5175 -0.75,1.125 q 1.695 1.1025 1.5,1.125 q -0.12 1.17 -2.075,1.125 
						M 0,6.255 
						q -1.0125 1.92 -1.325,1.125 q 0.555 0.5175 0.75,1.125 q -1.695 1.1025 -1.5,1.125 q 0.12 1.17 2.075,1.125 " 
						transform="rotate(18 0,6.255 )"
						stroke-width ="0.1"
						fill="rgb(112.5,62.5,1.5)"
						/><path d="M 0,6.255 
						q 1.0125 1.92 1.325,1.125 q -0.555 0.5175 -0.75,1.125 q 1.695 1.1025 1.5,1.125 q -0.12 1.17 -2.075,1.125 
						M 0,6.255 
						q -1.0125 1.92 -1.325,1.125 q 0.555 0.5175 0.75,1.125 q -1.695 1.1025 -1.5,1.125 q 0.12 1.17 2.075,1.125 " 
						transform="rotate(36 0,6.255 )"
						stroke-width ="0.1"
						fill="rgb(106,74,0)"
						/><path d="M 0,6.255 
						q 1.0125 1.92 1.325,1.125 q -0.555 0.5175 -0.75,1.125 q 1.695 1.1025 1.5,1.125 q -0.12 1.17 -2.075,1.125 
						M 0,6.255 
						q -1.0125 1.92 -1.325,1.125 q 0.555 0.5175 0.75,1.125 q -1.695 1.1025 -1.5,1.125 q 0.12 1.17 2.075,1.125 " 
						transform="rotate(54 0,6.255 )"
						stroke-width ="0.1"
						fill="rgb(106.5,69.5,2.5)"
						/></g><g id="flower7" transform="skewX(7) skewY(7)">
						<path d="M 0,0
						Q 0.23,2.625 0,7.2975"
						stroke="rgb(33,151,26)" 
						fill="transparent"
						stroke-width ="0.3" /><path d="M 0,7.2975 
						q 1.18125 2.24 1.5125,1.3125 q -0.6475 0.60375 -0.875,1.3125 q 1.9775 1.28625 1.75,1.3125 q -0.14 1.365 -2.3875,1.3125 
						M 0,7.2975 
						q -1.18125 2.24 -1.5125,1.3125 q 0.6475 0.60375 0.875,1.3125 q -1.9775 1.28625 -1.75,1.3125 q 0.14 1.365 2.3875,1.3125 " 
						transform="rotate(0 0,7.2975 )"
						stroke-width ="0.1"
						fill="rgb(110,62,16)"
						/><path d="M 0,7.2975 
						q 1.18125 2.24 1.5125,1.3125 q -0.6475 0.60375 -0.875,1.3125 q 1.9775 1.28625 1.75,1.3125 q -0.14 1.365 -2.3875,1.3125 
						M 0,7.2975 
						q -1.18125 2.24 -1.5125,1.3125 q 0.6475 0.60375 0.875,1.3125 q -1.9775 1.28625 -1.75,1.3125 q 0.14 1.365 2.3875,1.3125 " 
						transform="rotate(18 0,7.2975 )"
						stroke-width ="0.1"
						fill="rgb(94.5,69.5,0)"
						/><path d="M 0,7.2975 
						q 1.18125 2.24 1.5125,1.3125 q -0.6475 0.60375 -0.875,1.3125 q 1.9775 1.28625 1.75,1.3125 q -0.14 1.365 -2.3875,1.3125 
						M 0,7.2975 
						q -1.18125 2.24 -1.5125,1.3125 q 0.6475 0.60375 0.875,1.3125 q -1.9775 1.28625 -1.75,1.3125 q 0.14 1.365 2.3875,1.3125 " 
						transform="rotate(36 0,7.2975 )"
						stroke-width ="0.1"
						fill="rgb(97,63,2)"
						/><path d="M 0,7.2975 
						q 1.18125 2.24 1.5125,1.3125 q -0.6475 0.60375 -0.875,1.3125 q 1.9775 1.28625 1.75,1.3125 q -0.14 1.365 -2.3875,1.3125 
						M 0,7.2975 
						q -1.18125 2.24 -1.5125,1.3125 q 0.6475 0.60375 0.875,1.3125 q -1.9775 1.28625 -1.75,1.3125 q 0.14 1.365 2.3875,1.3125 " 
						transform="rotate(54 0,7.2975 )"
						stroke-width ="0.1"
						fill="rgb(105.5,61.5,0)"
						/></g><g id="flower8" transform="skewX(8) skewY(8)">
						<path d="M 0,0
						Q 1,3 0,8.34"
						stroke="rgb(33,151,26)" 
						fill="transparent"
						stroke-width ="0.3" /><path d="M 0,8.34 
						q 1.35 2.56 1.7,1.5 q -0.74 0.69 -1,1.5 q 2.26 1.47 2,1.5 q -0.16 1.56 -2.7,1.5 
						M 0,8.34 
						q -1.35 2.56 -1.7,1.5 q 0.74 0.69 1,1.5 q -2.26 1.47 -2,1.5 q 0.16 1.56 2.7,1.5 " 
						transform="rotate(0 0,8.34 )"
						stroke-width ="0.1"
						fill="rgb(97,72,4)"
						/><path d="M 0,8.34 
						q 1.35 2.56 1.7,1.5 q -0.74 0.69 -1,1.5 q 2.26 1.47 2,1.5 q -0.16 1.56 -2.7,1.5 
						M 0,8.34 
						q -1.35 2.56 -1.7,1.5 q 0.74 0.69 1,1.5 q -2.26 1.47 -2,1.5 q 0.16 1.56 2.7,1.5 " 
						transform="rotate(18 0,8.34 )"
						stroke-width ="0.1"
						fill="rgb(106.5,63.5,6.5)"
						/><path d="M 0,8.34 
						q 1.35 2.56 1.7,1.5 q -0.74 0.69 -1,1.5 q 2.26 1.47 2,1.5 q -0.16 1.56 -2.7,1.5 
						M 0,8.34 
						q -1.35 2.56 -1.7,1.5 q 0.74 0.69 1,1.5 q -2.26 1.47 -2,1.5 q 0.16 1.56 2.7,1.5 " 
						transform="rotate(36 0,8.34 )"
						stroke-width ="0.1"
						fill="rgb(99,60,0)"
						/><path d="M 0,8.34 
						q 1.35 2.56 1.7,1.5 q -0.74 0.69 -1,1.5 q 2.26 1.47 2,1.5 q -0.16 1.56 -2.7,1.5 
						M 0,8.34 
						q -1.35 2.56 -1.7,1.5 q 0.74 0.69 1,1.5 q -2.26 1.47 -2,1.5 q 0.16 1.56 2.7,1.5 " 
						transform="rotate(54 0,8.34 )"
						stroke-width ="0.1"
						fill="rgb(98.5,69.5,0)"
						/></g></defs>
				<g class="fullPlant">
					<g>
					<path d ="M 49,91 
					a 79 158 -4.95 0 1 4.056,-13.536" fill ="none" stroke ="rgb(32.5,147.5,18.5)" stroke-width ="2.448"/></g><circle cx="53.056" cy="77.464" r="0.612" stroke="rgb(37.5,152.5,23.5)" fill="rgb(32.5,147.5,18.5)"/><use xlink:href="#leaf2"
						x="53.056" y="77.464" 
						transform="rotate(143 53.306 77.494)" 	
						fill="rgb(115,187,12)" /><use xlink:href="#leaf3"
						x="53.056" y="77.464" 
						transform="rotate(34 53.776 77.654)" 	
						fill="rgb(111,212,34)" /><use xlink:href="#leaf1"
						x="53.056" y="77.464" 
						transform="rotate(-56 53.056 77.464)" 	
						fill="rgb(107,198,31)" /><use xlink:href="#leaf3"
						x="53.056" y="77.464" 
						transform="rotate(-7 53.056 77.464)" 	
						fill="rgb(138,189,40)" />
					<g>
					<path d ="M 53.056,77.464 
					a 51 153 12.27 0 1 3.552,-7.152" fill ="none" stroke ="rgb(31.5,150.5,18.5)" stroke-width ="1.224"/></g><circle cx="56.608" cy="70.312" r="0.306" stroke="rgb(36.5,155.5,23.5)" fill="rgb(31.5,150.5,18.5)"/><use xlink:href="#leaf4"
						x="56.608" y="70.312" 
						transform="rotate(116 56.608 70.312)" 	
						fill="rgb(128,218,16)" /><use xlink:href="#leaf1"
						x="56.608" y="70.312" 
						transform="rotate(16 56.608 70.312)" 	
						fill="rgb(137,195,48)" /><use xlink:href="#leaf3"
						x="56.608" y="70.312" 
						transform="rotate(117 57.128 70.892)" 	
						fill="rgb(133,202,41)" /><use xlink:href="#leaf1"
						x="56.608" y="70.312" 
						transform="rotate(23 56.608 70.312)" 	
						fill="rgb(138,202,45)" /><use xlink:href="#leaf2"
						x="56.608" y="70.312" 
						transform="rotate(137 56.608 70.312)" 	
						fill="rgb(127,217,26)" /><use xlink:href="#leaf4"
						x="56.608" y="70.312" 
						transform="rotate(30 56.608 70.312)" 	
						fill="rgb(106,190,47)" /><use xlink:href="#flower4" id="fleur10"
							x="56.608" y="70.312" 
							transform="rotate(163 56.608 70.312)" />
					<g>
					<path d ="M 53.056,77.464 
					a 72 144 -9.84 0 1 9.84,-8.1" fill ="none" stroke ="rgb(33.5,151.5,21.5)" stroke-width ="1.224"/></g><circle cx="62.896" cy="69.364" r="0.306" stroke="rgb(38.5,156.5,26.5)" fill="rgb(33.5,151.5,21.5)"/><use xlink:href="#leaf4"
						x="62.896" y="69.364" 
						transform="rotate(38 62.896 69.364)" 	
						fill="rgb(118,217,22)" /><use xlink:href="#leaf1"
						x="62.896" y="69.364" 
						transform="rotate(-37 63.366 70.034)" 	
						fill="rgb(139,197,14)" /><use xlink:href="#leaf4"
						x="62.896" y="69.364" 
						transform="rotate(-37 62.896 69.364)" 	
						fill="rgb(136,203,13)" /><use xlink:href="#leaf4"
						x="62.896" y="69.364" 
						transform="rotate(-15 63.596 69.664)" 	
						fill="rgb(127,209,47)" /><use xlink:href="#leaf2"
						x="62.896" y="69.364" 
						transform="rotate(-75 63.666 69.584)" 	
						fill="rgb(119,191,14)" /><use xlink:href="#leaf4"
						x="62.896" y="69.364" 
						transform="rotate(-121 62.896 69.364)" 	
						fill="rgb(137,217,47)" /><use xlink:href="#leaf1"
						x="62.896" y="69.364" 
						transform="rotate(143 62.896 69.364)" 	
						fill="rgb(134,181,35)" /><use xlink:href="#leaf3"
						x="62.896" y="69.364" 
						transform="rotate(13 63.706 69.684)" 	
						fill="rgb(126,197,32)" /><use xlink:href="#leaf4"
						x="62.896" y="69.364" 
						transform="rotate(66 63.126 70.034)" 	
						fill="rgb(139,203,30)" /><use xlink:href="#leaf1"
						x="62.896" y="69.364" 
						transform="rotate(-136 63.396 69.754)" 	
						fill="rgb(111,205,40)" /><use xlink:href="#leaf1"
						x="62.896" y="69.364" 
						transform="rotate(90 63.086 70.124)" 	
						fill="rgb(141,195,12)" /><use xlink:href="#leaf1"
						x="62.896" y="69.364" 
						transform="rotate(-31 62.896 69.364)" 	
						fill="rgb(112,217,24)" /><use xlink:href="#leaf4"
						x="62.896" y="69.364" 
						transform="rotate(-26 63.746 69.724)" 	
						fill="rgb(127,196,47)" /><use xlink:href="#leaf3"
						x="62.896" y="69.364" 
						transform="rotate(-6 63.646 70.344)" 	
						fill="rgb(134,203,36)" /><use xlink:href="#leaf1"
						x="62.896" y="69.364" 
						transform="rotate(149 62.986 70.244)" 	
						fill="rgb(111,192,25)" /><use xlink:href="#flower1" id="fleur20"
							x="62.896" y="69.364" 
							transform="rotate(168 62.896 69.364)" /><use xlink:href="#flower1" id="fleur21"
							x="62.896" y="69.364" 
							transform="rotate(91 62.944 70.084)" />
					<g>
					<path d ="M 53.056,77.464 
					a 85 595 -7.83 0 0 -3.924,-5.64" fill ="none" stroke ="rgb(36.5,154.5,23.5)" stroke-width ="1.224"/></g><circle cx="49.132" cy="71.824" r="0.306" stroke="rgb(41.5,159.5,28.5)" fill="rgb(36.5,154.5,23.5)"/><use xlink:href="#leaf4"
						x="49.132" y="71.824" 
						transform="rotate(82 49.292 71.954)" 	
						fill="rgb(141,214,35)" /><use xlink:href="#leaf1"
						x="49.132" y="71.824" 
						transform="rotate(-112 49.132 71.824)" 	
						fill="rgb(134,191,44)" /><use xlink:href="#leaf2"
						x="49.132" y="71.824" 
						transform="rotate(127 49.132 71.824)" 	
						fill="rgb(141,189,11)" /><use xlink:href="#leaf4"
						x="49.132" y="71.824" 
						transform="rotate(55 49.562 72.684)" 	
						fill="rgb(128,183,43)" /><use xlink:href="#leaf2"
						x="49.132" y="71.824" 
						transform="rotate(64 49.132 71.824)" 	
						fill="rgb(126,187,22)" /><use xlink:href="#leaf3"
						x="49.132" y="71.824" 
						transform="rotate(88 49.132 71.824)" 	
						fill="rgb(106,184,48)" /><use xlink:href="#leaf4"
						x="49.132" y="71.824" 
						transform="rotate(80 49.592 72.474)" 	
						fill="rgb(141,180,35)" /><use xlink:href="#leaf4"
						x="49.132" y="71.824" 
						transform="rotate(-52 49.542 72.634)" 	
						fill="rgb(137,204,44)" /><use xlink:href="#leaf2"
						x="49.132" y="71.824" 
						transform="rotate(-173 49.132 71.824)" 	
						fill="rgb(106,210,46)" /><use xlink:href="#leaf2"
						x="49.132" y="71.824" 
						transform="rotate(-145 49.132 71.824)" 	
						fill="rgb(110,195,46)" />
					<g>
					<path d ="M 49.132,71.824 
					a 89 445 -15.2 0 0 -1.548,-5.22" fill ="none" stroke ="rgb(40,156,27)" stroke-width ="0.816"/></g><circle cx="47.584" cy="66.604" r="0.204" stroke="rgb(45,161,32)" fill="rgb(40,156,27)"/><use xlink:href="#leaf2"
						x="47.584" y="66.604" 
						transform="rotate(137 47.584 66.604)" 	
						fill="rgb(137,195,33)" /><use xlink:href="#leaf1"
						x="47.584" y="66.604" 
						transform="rotate(109 47.734 67.164)" 	
						fill="rgb(128,194,28)" /><use xlink:href="#leaf1"
						x="47.584" y="66.604" 
						transform="rotate(-2 47.584 66.604)" 	
						fill="rgb(125,205,23)" /><use xlink:href="#leaf4"
						x="47.584" y="66.604" 
						transform="rotate(25 47.854 66.714)" 	
						fill="rgb(131,194,40)" /><use xlink:href="#leaf2"
						x="47.584" y="66.604" 
						transform="rotate(-139 47.774 66.814)" 	
						fill="rgb(108,183,49)" /><use xlink:href="#leaf3"
						x="47.584" y="66.604" 
						transform="rotate(-102 47.914 67.254)" 	
						fill="rgb(103,199,37)" /><use xlink:href="#leaf1"
						x="47.584" y="66.604" 
						transform="rotate(176 48.514 67.404)" 	
						fill="rgb(130,216,38)" /><use xlink:href="#leaf1"
						x="47.584" y="66.604" 
						transform="rotate(-66 47.974 66.644)" 	
						fill="rgb(135,199,19)" /><use xlink:href="#leaf2"
						x="47.584" y="66.604" 
						transform="rotate(-136 47.844 67.324)" 	
						fill="rgb(117,193,30)" /><use xlink:href="#leaf2"
						x="47.584" y="66.604" 
						transform="rotate(-154 47.854 67.324)" 	
						fill="rgb(123,204,21)" /><use xlink:href="#leaf2"
						x="47.584" y="66.604" 
						transform="rotate(-16 48.524 67.414)" 	
						fill="rgb(105,200,48)" /><use xlink:href="#flower2" id="fleur40"
							x="47.584" y="66.604" 
							transform="rotate(-136 47.968 66.964)" /><use xlink:href="#flower2" id="fleur41"
							x="47.584" y="66.604" 
							transform="rotate(122 47.62 66.916)" />
					<g>
					<path d ="M 49.132,71.824 
					a 70 280 10.48 0 1 -10.452,0.288" fill ="none" stroke ="rgb(41.5,158.5,28.5)" stroke-width ="0.816"/></g><circle cx="38.68" cy="72.112" r="0.204" stroke="rgb(46.5,163.5,33.5)" fill="rgb(41.5,158.5,28.5)"/><use xlink:href="#leaf3"
						x="38.68" y="72.112" 
						transform="rotate(-72 39.18 72.212)" 	
						fill="rgb(133,203,32)" /><use xlink:href="#leaf3"
						x="38.68" y="72.112" 
						transform="rotate(-43 38.68 72.112)" 	
						fill="rgb(127,186,22)" /><use xlink:href="#leaf2"
						x="38.68" y="72.112" 
						transform="rotate(51 39.66 72.262)" 	
						fill="rgb(134,190,19)" /><use xlink:href="#leaf2"
						x="38.68" y="72.112" 
						transform="rotate(178 38.68 72.112)" 	
						fill="rgb(108,203,42)" /><use xlink:href="#leaf4"
						x="38.68" y="72.112" 
						transform="rotate(114 39.32 73.012)" 	
						fill="rgb(122,219,11)" /><use xlink:href="#leaf5"
						x="38.68" y="72.112" 
						transform="rotate(-34 39.53 72.422)" 	
						fill="rgb(132,196,25)" /><use xlink:href="#flower5" id="fleur50"
							x="38.68" y="72.112" 
							transform="rotate(-20 38.68 72.112)" />
					<g>
					<path d ="M 53.056,77.464 
					a 91 910 12.5 0 0 10.56,-4.392" fill ="none" stroke ="rgb(43.5,157.5,31.5)" stroke-width ="1.224"/></g><circle cx="63.616" cy="73.072" r="0.306" stroke="rgb(48.5,162.5,36.5)" fill="rgb(43.5,157.5,31.5)"/><use xlink:href="#leaf1"
						x="63.616" y="73.072" 
						transform="rotate(40 63.616 73.072)" 	
						fill="rgb(130,219,48)" /><use xlink:href="#leaf4"
						x="63.616" y="73.072" 
						transform="rotate(16 63.616 73.072)" 	
						fill="rgb(123,192,34)" /><use xlink:href="#leaf4"
						x="63.616" y="73.072" 
						transform="rotate(-1 63.616 73.072)" 	
						fill="rgb(129,192,31)" /><use xlink:href="#leaf2"
						x="63.616" y="73.072" 
						transform="rotate(161 63.616 73.072)" 	
						fill="rgb(108,197,20)" /><use xlink:href="#leaf1"
						x="63.616" y="73.072" 
						transform="rotate(124 64.496 73.982)" 	
						fill="rgb(119,219,13)" /><use xlink:href="#leaf1"
						x="63.616" y="73.072" 
						transform="rotate(148 64.046 73.572)" 	
						fill="rgb(117,189,9)" /><use xlink:href="#leaf1"
						x="63.616" y="73.072" 
						transform="rotate(-52 64.186 73.892)" 	
						fill="rgb(106,192,25)" /><use xlink:href="#leaf1"
						x="63.616" y="73.072" 
						transform="rotate(91 63.616 73.072)" 	
						fill="rgb(112,187,46)" /><use xlink:href="#leaf1"
						x="63.616" y="73.072" 
						transform="rotate(5 64.246 74.002)" 	
						fill="rgb(123,186,49)" />
					<g>
					<path d ="M 63.616,73.072 
					a 84 168 17.72 0 1 -5.808,-6.996" fill ="none" stroke ="rgb(46,161,32)" stroke-width ="0.816"/></g><circle cx="57.808" cy="66.076" r="0.204" stroke="rgb(51,166,37)" fill="rgb(46,161,32)"/><use xlink:href="#leaf3"
						x="57.808" y="66.076" 
						transform="rotate(165 57.808 66.076)" 	
						fill="rgb(117,207,28)" /><use xlink:href="#leaf5"
						x="57.808" y="66.076" 
						transform="rotate(-59 58.488 66.676)" 	
						fill="rgb(122,210,33)" /><use xlink:href="#leaf2"
						x="57.808" y="66.076" 
						transform="rotate(-89 58.138 66.976)" 	
						fill="rgb(109,206,38)" /><use xlink:href="#leaf5"
						x="57.808" y="66.076" 
						transform="rotate(-23 57.808 66.076)" 	
						fill="rgb(105,220,18)" />
					<g>
					<path d ="M 63.616,73.072 
					a 86 860 1.58 0 0 -10.344,0.876" fill ="none" stroke ="rgb(47.5,160.5,35.5)" stroke-width ="0.816"/></g><circle cx="53.272" cy="73.948" r="0.204" stroke="rgb(52.5,165.5,40.5)" fill="rgb(47.5,160.5,35.5)"/><use xlink:href="#leaf3"
						x="53.272" y="73.948" 
						transform="rotate(-17 54.202 74.608)" 	
						fill="rgb(119,214,25)" /><use xlink:href="#leaf2"
						x="53.272" y="73.948" 
						transform="rotate(-99 53.952 74.658)" 	
						fill="rgb(133,195,16)" /><use xlink:href="#leaf1"
						x="53.272" y="73.948" 
						transform="rotate(-137 53.272 73.948)" 	
						fill="rgb(136,188,46)" /><use xlink:href="#leaf2"
						x="53.272" y="73.948" 
						transform="rotate(-173 53.722 74.058)" 	
						fill="rgb(123,186,30)" /><use xlink:href="#leaf1"
						x="53.272" y="73.948" 
						transform="rotate(15 53.272 73.948)" 	
						fill="rgb(115,210,31)" /><use xlink:href="#leaf3"
						x="53.272" y="73.948" 
						transform="rotate(54 53.272 73.948)" 	
						fill="rgb(127,189,14)" /><use xlink:href="#leaf3"
						x="53.272" y="73.948" 
						transform="rotate(170 53.472 74.898)" 	
						fill="rgb(123,186,25)" /><use xlink:href="#leaf3"
						x="53.272" y="73.948" 
						transform="rotate(-153 53.282 74.368)" 	
						fill="rgb(126,209,27)" /><use xlink:href="#leaf3"
						x="53.272" y="73.948" 
						transform="rotate(176 54.252 74.628)" 	
						fill="rgb(134,208,36)" /><use xlink:href="#leaf2"
						x="53.272" y="73.948" 
						transform="rotate(-177 53.832 74.448)" 	
						fill="rgb(107,187,49)" /><use xlink:href="#leaf2"
						x="53.272" y="73.948" 
						transform="rotate(77 53.352 74.708)" 	
						fill="rgb(135,217,10)" /><use xlink:href="#leaf5"
						x="53.272" y="73.948" 
						transform="rotate(-129 53.512 74.878)" 	
						fill="rgb(116,184,12)" /><use xlink:href="#flower5" id="fleur80"
							x="53.272" y="73.948" 
							transform="rotate(73 53.272 73.948)" />
					<g>
					<path d ="M 63.616,73.072 
					a 95 190 17.8 0 1 6.312,-8.184" fill ="none" stroke ="rgb(48,163,39)" stroke-width ="0.816"/></g><circle cx="69.928" cy="64.888" r="0.204" stroke="rgb(53,168,44)" fill="rgb(48,163,39)"/><use xlink:href="#leaf2"
						x="69.928" y="64.888" 
						transform="rotate(-17 70.678 65.118)" 	
						fill="rgb(102,194,14)" /><use xlink:href="#leaf2"
						x="69.928" y="64.888" 
						transform="rotate(18 70.398 65.648)" 	
						fill="rgb(140,218,27)" /><use xlink:href="#leaf4"
						x="69.928" y="64.888" 
						transform="rotate(-94 70.848 65.838)" 	
						fill="rgb(108,187,41)" /><use xlink:href="#leaf3"
						x="69.928" y="64.888" 
						transform="rotate(-152 70.708 65.538)" 	
						fill="rgb(103,220,15)" /><use xlink:href="#leaf1"
						x="69.928" y="64.888" 
						transform="rotate(-59 69.928 64.888)" 	
						fill="rgb(110,192,48)" /><use xlink:href="#leaf5"
						x="69.928" y="64.888" 
						transform="rotate(23 70.498 65.578)" 	
						fill="rgb(107,209,44)" /><use xlink:href="#leaf4"
						x="69.928" y="64.888" 
						transform="rotate(-163 69.928 64.888)" 	
						fill="rgb(102,189,29)" /><use xlink:href="#leaf4"
						x="69.928" y="64.888" 
						transform="rotate(-165 70.288 65.878)" 	
						fill="rgb(104,219,13)" /><use xlink:href="#leaf1"
						x="69.928" y="64.888" 
						transform="rotate(-180 70.318 65.138)" 	
						fill="rgb(128,198,16)" /><use xlink:href="#leaf2"
						x="69.928" y="64.888" 
						transform="rotate(171 70.108 65.218)" 	
						fill="rgb(138,217,45)" /><use xlink:href="#leaf2"
						x="69.928" y="64.888" 
						transform="rotate(-6 70.668 65.388)" 	
						fill="rgb(141,198,10)" /><use xlink:href="#leaf5"
						x="69.928" y="64.888" 
						transform="rotate(-74 69.928 64.888)" 	
						fill="rgb(132,205,32)" /><use xlink:href="#flower5" id="fleur90"
							x="69.928" y="64.888" 
							transform="rotate(70 71.068 65.956)" />
					<g>
					<path d ="M 69.928,64.888 
					a 93 372 -6.11 0 1 -9.9,0.492" fill ="none" stroke ="rgb(51,167,39)" stroke-width ="0.612"/></g><circle cx="60.028" cy="65.38" r="0.153" stroke="rgb(56,172,44)" fill="rgb(51,167,39)"/><use xlink:href="#leaf6"
						x="60.028" y="65.38" 
						transform="rotate(-60 60.418 65.89)" 	
						fill="rgb(122,192,9)" /><use xlink:href="#leaf2"
						x="60.028" y="65.38" 
						transform="rotate(-171 60.028 65.38)" 	
						fill="rgb(134,184,30)" /><use xlink:href="#leaf2"
						x="60.028" y="65.38" 
						transform="rotate(-82 60.028 65.38)" 	
						fill="rgb(105,198,47)" /><use xlink:href="#leaf5"
						x="60.028" y="65.38" 
						transform="rotate(116 60.028 65.38)" 	
						fill="rgb(107,202,31)" /><use xlink:href="#leaf5"
						x="60.028" y="65.38" 
						transform="rotate(-29 60.268 65.72)" 	
						fill="rgb(135,181,49)" /><use xlink:href="#leaf4"
						x="60.028" y="65.38" 
						transform="rotate(-76 60.818 66.06)" 	
						fill="rgb(136,212,18)" /><use xlink:href="#leaf6"
						x="60.028" y="65.38" 
						transform="rotate(176 60.858 66.34)" 	
						fill="rgb(119,218,36)" /><use xlink:href="#leaf3"
						x="60.028" y="65.38" 
						transform="rotate(-59 60.708 65.64)" 	
						fill="rgb(104,219,48)" /><use xlink:href="#flower3" id="fleur100"
							x="60.028" y="65.38" 
							transform="rotate(102 60.304 66.484)" /><use xlink:href="#flower3" id="fleur101"
							x="60.028" y="65.38" 
							transform="rotate(34 60.148 65.896)" /><use xlink:href="#flower3" id="fleur102"
							x="60.028" y="65.38" 
							transform="rotate(111 60.028 65.38)" /><use xlink:href="#flower3" id="fleur103"
							x="60.028" y="65.38" 
							transform="rotate(31 60.256 66.388)" /><use xlink:href="#flower3" id="fleur104"
							x="60.028" y="65.38" 
							transform="rotate(-89 60.028 65.38)" />
					<g>
					<path d ="M 69.928,64.888 
					a 57 513 20.2 0 0 -10.032,-1.932" fill ="none" stroke ="rgb(52,167,39)" stroke-width ="0.612"/></g><circle cx="59.896" cy="62.956" r="0.153" stroke="rgb(57,172,44)" fill="rgb(52,167,39)"/><use xlink:href="#leaf5"
						x="59.896" y="62.956" 
						transform="rotate(138 59.896 62.956)" 	
						fill="rgb(106,218,37)" /><use xlink:href="#leaf5"
						x="59.896" y="62.956" 
						transform="rotate(-67 60.196 63.696)" 	
						fill="rgb(111,185,28)" /><use xlink:href="#leaf3"
						x="59.896" y="62.956" 
						transform="rotate(-88 60.336 63.516)" 	
						fill="rgb(118,215,37)" /><use xlink:href="#leaf5"
						x="59.896" y="62.956" 
						transform="rotate(6 60.536 63.576)" 	
						fill="rgb(111,216,44)" /><use xlink:href="#flower5" id="fleur110"
							x="59.896" y="62.956" 
							transform="rotate(-29 59.896 62.956)" /><use xlink:href="#flower5" id="fleur111"
							x="59.896" y="62.956" 
							transform="rotate(-144 59.896 62.956)" /><use xlink:href="#flower5" id="fleur112"
							x="59.896" y="62.956" 
							transform="rotate(-152 60.892 63.184)" /><use xlink:href="#flower5" id="fleur113"
							x="59.896" y="62.956" 
							transform="rotate(148 60.856 63.208)" /><use xlink:href="#flower5" id="fleur114"
							x="59.896" y="62.956" 
							transform="rotate(-62 59.896 62.956)" /><use xlink:href="#flower5" id="fleur115"
							x="59.896" y="62.956" 
							transform="rotate(74 60.496 63.136)" /></g>
				</svg>