<svg class="relie" xmlns="http://www.w3.org/2000/svg" viewBox="0 0 100 100" preserveAspectRatio="xMidYMid meet" x="0" y="0" overflow="visible" xmlns:xlink="http://www.w3.org/1999/xlink">

		<defs>  <g id="leaf1" transform="skewX(0) skewY(0)"><path d="M 0,0 
					q 0.0075 0.0075 0.42125,0.7 q 0.25125 0.0075 0.12875,0.7 q 0.255 0.0075 -0.12625,0.7 q 0.005 0.0075 -0.0625,0.7 q 0.25625 0.0075 -0.36125,1 
					M 0,0 
					q -0.0075 0.0075 -0.42125,0.7 q -0.25125 0.0075 -0.12875,0.7 q -0.255 0.0075 0.12625,0.7 q -0.005 0.0075 0.0625,0.7 q -0.25625 0.0075 0.36125,1 " 
					stroke-width ="0.2" /></g>  <g id="leaf2" transform="skewX(-10) skewY(-10)"><path d="M 0,0 
					q 0.015 0.015 0.6425,1.4 q 0.5025 0.015 0.2575,1.4 q 0.51 0.015 -0.2525,1.4 q 0.01 0.015 -0.125,1.4 q 0.5125 0.015 -0.5225,1.4 
					M 0,0 
					q -0.015 0.015 -0.6425,1.4 q -0.5025 0.015 -0.2575,1.4 q -0.51 0.015 0.2525,1.4 q -0.01 0.015 0.125,1.4 q -0.5125 0.015 0.5225,1.4 " 
					stroke-width ="0.2" /></g>  <g id="leaf3" transform="skewX(12) skewY(12)"><path d="M 0,0 
					q 0.0225 0.0225 0.86375,2.1 q 0.75375 0.0225 0.38625,2.1 q 0.765 0.0225 -0.37875,2.1 q 0.015 0.0225 -0.1875,2.1 q 0.76875 0.0225 -0.68375,2.1 
					M 0,0 
					q -0.0225 0.0225 -0.86375,2.1 q -0.75375 0.0225 -0.38625,2.1 q -0.765 0.0225 0.37875,2.1 q -0.015 0.0225 0.1875,2.1 q -0.76875 0.0225 0.68375,2.1 " 
					stroke-width ="0.2" /></g>  <g id="leaf4" transform="skewX(7) skewY(7)"><path d="M 0,0 
					q 0.03 0.03 1.085,2.8 q 1.005 0.03 0.515,2.8 q 1.02 0.03 -0.505,2.8 q 0.02 0.03 -0.25,2.8 q 1.025 0.03 -0.845,2.8 
					M 0,0 
					q -0.03 0.03 -1.085,2.8 q -1.005 0.03 -0.515,2.8 q -1.02 0.03 0.505,2.8 q -0.02 0.03 0.25,2.8 q -1.025 0.03 0.845,2.8 " 
					stroke-width ="0.2" /></g>  <g id="leaf5" transform="skewX(-3) skewY(-3)"><path d="M 0,0 
					q 0.0375 0.0375 1.30625,3.5 q 1.25625 0.0375 0.64375,3.5 q 1.275 0.0375 -0.63125,3.5 q 0.025 0.0375 -0.3125,3.5 q 1.28125 0.0375 -1.00625,3.5 
					M 0,0 
					q -0.0375 0.0375 -1.30625,3.5 q -1.25625 0.0375 -0.64375,3.5 q -1.275 0.0375 0.63125,3.5 q -0.025 0.0375 0.3125,3.5 q -1.28125 0.0375 1.00625,3.5 " 
					stroke-width ="0.2" /></g>  <g id="leaf6" transform="skewX(6) skewY(6)"><path d="M 0,0 
					q 0.045 0.045 1.5275,4.2 q 1.5075 0.045 0.7725,4.2 q 1.53 0.045 -0.7575,4.2 q 0.03 0.045 -0.375,4.2 q 1.5375 0.045 -1.1675,4.2 
					M 0,0 
					q -0.045 0.045 -1.5275,4.2 q -1.5075 0.045 -0.7725,4.2 q -1.53 0.045 0.7575,4.2 q -0.03 0.045 0.375,4.2 q -1.5375 0.045 1.1675,4.2 " 
					stroke-width ="0.2" /></g>  <g id="leaf7" transform="skewX(3) skewY(3)"><path d="M 0,0 
					q 0.0525 0.0525 1.74875,4.9 q 1.75875 0.0525 0.90125,4.9 q 1.785 0.0525 -0.88375,4.9 q 0.035 0.0525 -0.4375,4.9 q 1.79375 0.0525 -1.32875,4.9 
					M 0,0 
					q -0.0525 0.0525 -1.74875,4.9 q -1.75875 0.0525 -0.90125,4.9 q -1.785 0.0525 0.88375,4.9 q -0.035 0.0525 0.4375,4.9 q -1.79375 0.0525 1.32875,4.9 " 
					stroke-width ="0.2" /></g>  <g id="leaf8" transform="skewX(7) skewY(7)"><path d="M 0,0 
					q 0.06 0.06 1.97,5.6 q 2.01 0.06 1.03,5.6 q 2.04 0.06 -1.01,5.6 q 0.04 0.06 -0.5,5.6 q 2.05 0.06 -1.49,5.6 
					M 0,0 
					q -0.06 0.06 -1.97,5.6 q -2.01 0.06 -1.03,5.6 q -2.04 0.06 1.01,5.6 q -0.04 0.06 0.5,5.6 q -2.05 0.06 1.49,5.6 " 
					stroke-width ="0.2" /></g><g id="flower1"><path d="M 0,0.375 
						q 0.225 0.1125 0,1 
						M 0,0.375 
						q -0.225 0.1125 0,1 " 
						transform="rotate(0 0,0.375 )"
						stroke-width ="0.1"
						fill="rgb(227,2,159)"
						/><circle cx="0" cy="0.375" r="0.04125" fill="rgb(210,87,143)"/><circle cx="-0.02" cy="0.405" r="0.0275" fill="rgb(230.5,107.5,141.5)"/><path d="M 0,0.375 
						q 0.225 0.1125 0,1 
						M 0,0.375 
						q -0.225 0.1125 0,1 " 
						transform="rotate(90 0,0.375 )"
						stroke-width ="0.1"
						fill="rgb(207.5,0,172.5)"
						/><circle cx="0" cy="0.375" r="0.04125" fill="rgb(210,87,143)"/><circle cx="0.08" cy="0.315" r="0.0275" fill="rgb(230.5,107.5,141.5)"/><path d="M 0,0.375 
						q 0.225 0.1125 0,1 
						M 0,0.375 
						q -0.225 0.1125 0,1 " 
						transform="rotate(180 0,0.375 )"
						stroke-width ="0.1"
						fill="rgb(207,5,172)"
						/><circle cx="0" cy="0.375" r="0.04125" fill="rgb(210,87,143)"/><circle cx="-0.09" cy="0.365" r="0.0275" fill="rgb(230.5,107.5,141.5)"/><path d="M 0,0.375 
						q 0.225 0.1125 0,1 
						M 0,0.375 
						q -0.225 0.1125 0,1 " 
						transform="rotate(270 0,0.375 )"
						stroke-width ="0.1"
						fill="rgb(218.5,0,154.5)"
						/><circle cx="0" cy="0.375" r="0.04125" fill="rgb(210,87,143)"/><circle cx="0.03" cy="0.425" r="0.0275" fill="rgb(230.5,107.5,141.5)"/><path d="M 0,0.375 
						q 0.225 0.1125 0,1 
						M 0,0.375 
						q -0.225 0.1125 0,1 " 
						transform="rotate(360 0,0.375 )"
						stroke-width ="0.1"
						fill="rgb(207,0,150)"
						/><circle cx="0" cy="0.375" r="0.04125" fill="rgb(210,87,143)"/><circle cx="-0.1" cy="0.475" r="0.0275" fill="rgb(230.5,107.5,141.5)"/><path d="M 0,0.375 
						q 0.225 0.1125 0,1 
						M 0,0.375 
						q -0.225 0.1125 0,1 " 
						transform="rotate(450 0,0.375 )"
						stroke-width ="0.1"
						fill="rgb(214.5,0,152.5)"
						/><circle cx="0" cy="0.375" r="0.04125" fill="rgb(210,87,143)"/><circle cx="-0.04" cy="0.285" r="0.0275" fill="rgb(230.5,107.5,141.5)"/><path d="M 0,0.375 
						q 0.225 0.1125 0,1 
						M 0,0.375 
						q -0.225 0.1125 0,1 " 
						transform="rotate(540 0,0.375 )"
						stroke-width ="0.1"
						fill="rgb(202,0,160)"
						/><circle cx="0" cy="0.375" r="0.04125" fill="rgb(210,87,143)"/><circle cx="-0.04" cy="0.345" r="0.0275" fill="rgb(230.5,107.5,141.5)"/><path d="M 0,0.375 
						q 0.225 0.1125 0,1 
						M 0,0.375 
						q -0.225 0.1125 0,1 " 
						transform="rotate(630 0,0.375 )"
						stroke-width ="0.1"
						fill="rgb(194.5,0,147.5)"
						/><circle cx="0" cy="0.375" r="0.04125" fill="rgb(210,87,143)"/><circle cx="-0.04" cy="0.405" r="0.0275" fill="rgb(230.5,107.5,141.5)"/><path d="M 0,0.375 
						q 0.225 0.1125 0,1 
						M 0,0.375 
						q -0.225 0.1125 0,1 " 
						transform="rotate(720 0,0.375 )"
						stroke-width ="0.1"
						fill="rgb(195,0,147)"
						/><circle cx="0" cy="0.375" r="0.04125" fill="rgb(210,87,143)"/><circle cx="0.02" cy="0.375" r="0.0275" fill="rgb(230.5,107.5,141.5)"/><path d="M 0,0.375 
						q 0.225 0.1125 0,1 
						M 0,0.375 
						q -0.225 0.1125 0,1 " 
						transform="rotate(810 0,0.375 )"
						stroke-width ="0.1"
						fill="rgb(196.5,0,137.5)"
						/><circle cx="0" cy="0.375" r="0.04125" fill="rgb(210,87,143)"/><circle cx="-0.03" cy="0.295" r="0.0275" fill="rgb(230.5,107.5,141.5)"/><path d="M 0,0.375 
						q 0.225 0.1125 0,1 
						M 0,0.375 
						q -0.225 0.1125 0,1 " 
						transform="rotate(900 0,0.375 )"
						stroke-width ="0.1"
						fill="rgb(193,0,135)"
						/><circle cx="0" cy="0.375" r="0.04125" fill="rgb(210,87,143)"/><circle cx="-0.06" cy="0.355" r="0.0275" fill="rgb(230.5,107.5,141.5)"/><path d="M 0,0.375 
						q 0.225 0.1125 0,1 
						M 0,0.375 
						q -0.225 0.1125 0,1 " 
						transform="rotate(990 0,0.375 )"
						stroke-width ="0.1"
						fill="rgb(181.5,0,135.5)"
						/><circle cx="0" cy="0.375" r="0.04125" fill="rgb(210,87,143)"/><circle cx="0.09" cy="0.285" r="0.0275" fill="rgb(230.5,107.5,141.5)"/><path d="M 0,0.375 
						q 0.225 0.1125 0,1 
						M 0,0.375 
						q -0.225 0.1125 0,1 " 
						transform="rotate(1080 0,0.375 )"
						stroke-width ="0.1"
						fill="rgb(195,0,139)"
						/><circle cx="0" cy="0.375" r="0.04125" fill="rgb(210,87,143)"/><circle cx="0.02" cy="0.355" r="0.0275" fill="rgb(230.5,107.5,141.5)"/></g><g id="flower2"><path d="M 0,0.75 
						q 0.45 0.225 0,1 
						M 0,0.75 
						q -0.45 0.225 0,1 " 
						transform="rotate(0 0,0.75 )"
						stroke-width ="0.1"
						fill="rgb(218,0,171)"
						/><path d="M 0,0.75 
						q 0.45 0.225 0,1 
						M 0,0.75 
						q -0.45 0.225 0,1 " 
						transform="rotate(45 0,0.75 )"
						stroke-width ="0.1"
						fill="rgb(205.5,0,163.5)"
						/><path d="M 0,0.75 
						q 0.45 0.225 0,1 
						M 0,0.75 
						q -0.45 0.225 0,1 " 
						transform="rotate(90 0,0.75 )"
						stroke-width ="0.1"
						fill="rgb(218,0,155)"
						/><path d="M 0,0.75 
						q 0.45 0.225 0,1 
						M 0,0.75 
						q -0.45 0.225 0,1 " 
						transform="rotate(135 0,0.75 )"
						stroke-width ="0.1"
						fill="rgb(209.5,0,158.5)"
						/></g><g id="flower3"><path d="M 0,1.125 
						q 0.675 0.3375 0,1.125 
						M 0,1.125 
						q -0.675 0.3375 0,1.125 " 
						transform="rotate(0 0,1.125 )"
						stroke-width ="0.1"
						fill="rgb(210,0,165)"
						/><path d="M 0,1.125 
						q 0.675 0.3375 0,1.125 
						M 0,1.125 
						q -0.675 0.3375 0,1.125 " 
						transform="rotate(45 0,1.125 )"
						stroke-width ="0.1"
						fill="rgb(217.5,0,162.5)"
						/><path d="M 0,1.125 
						q 0.675 0.3375 0,1.125 
						M 0,1.125 
						q -0.675 0.3375 0,1.125 " 
						transform="rotate(90 0,1.125 )"
						stroke-width ="0.1"
						fill="rgb(210,0,155)"
						/><path d="M 0,1.125 
						q 0.675 0.3375 0,1.125 
						M 0,1.125 
						q -0.675 0.3375 0,1.125 " 
						transform="rotate(135 0,1.125 )"
						stroke-width ="0.1"
						fill="rgb(206.5,1.5,165.5)"
						/></g><g id="flower4"><path d="M 0,1.5 
						q 0.9 0.45 0,1.5 
						M 0,1.5 
						q -0.9 0.45 0,1.5 " 
						transform="rotate(0 0,1.5 )"
						stroke-width ="0.1"
						fill="rgb(224,8,176)"
						/><path d="M 0,1.5 
						q 0.9 0.45 0,1.5 
						M 0,1.5 
						q -0.9 0.45 0,1.5 " 
						transform="rotate(45 0,1.5 )"
						stroke-width ="0.1"
						fill="rgb(210.5,4.5,168.5)"
						/><path d="M 0,1.5 
						q 0.9 0.45 0,1.5 
						M 0,1.5 
						q -0.9 0.45 0,1.5 " 
						transform="rotate(90 0,1.5 )"
						stroke-width ="0.1"
						fill="rgb(208,0,165)"
						/><path d="M 0,1.5 
						q 0.9 0.45 0,1.5 
						M 0,1.5 
						q -0.9 0.45 0,1.5 " 
						transform="rotate(135 0,1.5 )"
						stroke-width ="0.1"
						fill="rgb(200.5,0,157.5)"
						/></g><g id="flower5"><path d="M 0,1.875 
						q 1.125 0.5625 0,1.875 
						M 0,1.875 
						q -1.125 0.5625 0,1.875 " 
						transform="rotate(0 0,1.875 )"
						stroke-width ="0.1"
						fill="rgb(216,4,164)"
						/><circle cx="0" cy="1.875" r="0.20625" fill="rgb(214,85,137)"/><circle cx="-0.02" cy="1.785" r="0.1375" fill="rgb(218.5,100.5,145.5)"/><path d="M 0,1.875 
						q 1.125 0.5625 0,1.875 
						M 0,1.875 
						q -1.125 0.5625 0,1.875 " 
						transform="rotate(90 0,1.875 )"
						stroke-width ="0.1"
						fill="rgb(221.5,0,173.5)"
						/><circle cx="0" cy="1.875" r="0.20625" fill="rgb(214,85,137)"/><circle cx="0.03" cy="1.775" r="0.1375" fill="rgb(218.5,100.5,145.5)"/><path d="M 0,1.875 
						q 1.125 0.5625 0,1.875 
						M 0,1.875 
						q -1.125 0.5625 0,1.875 " 
						transform="rotate(180 0,1.875 )"
						stroke-width ="0.1"
						fill="rgb(209,0,156)"
						/><circle cx="0" cy="1.875" r="0.20625" fill="rgb(214,85,137)"/><circle cx="0.08" cy="1.935" r="0.1375" fill="rgb(218.5,100.5,145.5)"/><path d="M 0,1.875 
						q 1.125 0.5625 0,1.875 
						M 0,1.875 
						q -1.125 0.5625 0,1.875 " 
						transform="rotate(270 0,1.875 )"
						stroke-width ="0.1"
						fill="rgb(208.5,0.5,154.5)"
						/><circle cx="0" cy="1.875" r="0.20625" fill="rgb(214,85,137)"/><circle cx="0.02" cy="1.835" r="0.1375" fill="rgb(218.5,100.5,145.5)"/><path d="M 0,1.875 
						q 1.125 0.5625 0,1.875 
						M 0,1.875 
						q -1.125 0.5625 0,1.875 " 
						transform="rotate(360 0,1.875 )"
						stroke-width ="0.1"
						fill="rgb(214,0,165)"
						/><circle cx="0" cy="1.875" r="0.20625" fill="rgb(214,85,137)"/><circle cx="-0.05" cy="1.885" r="0.1375" fill="rgb(218.5,100.5,145.5)"/><path d="M 0,1.875 
						q 1.125 0.5625 0,1.875 
						M 0,1.875 
						q -1.125 0.5625 0,1.875 " 
						transform="rotate(450 0,1.875 )"
						stroke-width ="0.1"
						fill="rgb(212.5,0,150.5)"
						/><circle cx="0" cy="1.875" r="0.20625" fill="rgb(214,85,137)"/><circle cx="0.01" cy="1.885" r="0.1375" fill="rgb(218.5,100.5,145.5)"/><path d="M 0,1.875 
						q 1.125 0.5625 0,1.875 
						M 0,1.875 
						q -1.125 0.5625 0,1.875 " 
						transform="rotate(540 0,1.875 )"
						stroke-width ="0.1"
						fill="rgb(199,0,151)"
						/><circle cx="0" cy="1.875" r="0.20625" fill="rgb(214,85,137)"/><circle cx="-0.04" cy="1.915" r="0.1375" fill="rgb(218.5,100.5,145.5)"/><path d="M 0,1.875 
						q 1.125 0.5625 0,1.875 
						M 0,1.875 
						q -1.125 0.5625 0,1.875 " 
						transform="rotate(630 0,1.875 )"
						stroke-width ="0.1"
						fill="rgb(202.5,0,146.5)"
						/><circle cx="0" cy="1.875" r="0.20625" fill="rgb(214,85,137)"/><circle cx="0.08" cy="1.805" r="0.1375" fill="rgb(218.5,100.5,145.5)"/><path d="M 0,1.875 
						q 1.125 0.5625 0,1.875 
						M 0,1.875 
						q -1.125 0.5625 0,1.875 " 
						transform="rotate(720 0,1.875 )"
						stroke-width ="0.1"
						fill="rgb(203,0,142)"
						/><circle cx="0" cy="1.875" r="0.20625" fill="rgb(214,85,137)"/><circle cx="0.01" cy="1.845" r="0.1375" fill="rgb(218.5,100.5,145.5)"/><path d="M 0,1.875 
						q 1.125 0.5625 0,1.875 
						M 0,1.875 
						q -1.125 0.5625 0,1.875 " 
						transform="rotate(810 0,1.875 )"
						stroke-width ="0.1"
						fill="rgb(201.5,0,152.5)"
						/><circle cx="0" cy="1.875" r="0.20625" fill="rgb(214,85,137)"/><circle cx="0" cy="1.975" r="0.1375" fill="rgb(218.5,100.5,145.5)"/><path d="M 0,1.875 
						q 1.125 0.5625 0,1.875 
						M 0,1.875 
						q -1.125 0.5625 0,1.875 " 
						transform="rotate(900 0,1.875 )"
						stroke-width ="0.1"
						fill="rgb(198,0,143)"
						/><circle cx="0" cy="1.875" r="0.20625" fill="rgb(214,85,137)"/><circle cx="0.06" cy="1.855" r="0.1375" fill="rgb(218.5,100.5,145.5)"/><path d="M 0,1.875 
						q 1.125 0.5625 0,1.875 
						M 0,1.875 
						q -1.125 0.5625 0,1.875 " 
						transform="rotate(990 0,1.875 )"
						stroke-width ="0.1"
						fill="rgb(199.5,0,136.5)"
						/><circle cx="0" cy="1.875" r="0.20625" fill="rgb(214,85,137)"/><circle cx="0.1" cy="1.875" r="0.1375" fill="rgb(218.5,100.5,145.5)"/><path d="M 0,1.875 
						q 1.125 0.5625 0,1.875 
						M 0,1.875 
						q -1.125 0.5625 0,1.875 " 
						transform="rotate(1080 0,1.875 )"
						stroke-width ="0.1"
						fill="rgb(182,0,145)"
						/><circle cx="0" cy="1.875" r="0.20625" fill="rgb(214,85,137)"/><circle cx="-0.01" cy="1.925" r="0.1375" fill="rgb(218.5,100.5,145.5)"/></g><g id="flower6"><path d="M 0,2.25 
						q 1.35 0.675 0,2.25 
						M 0,2.25 
						q -1.35 0.675 0,2.25 " 
						transform="rotate(0 0,2.25 )"
						stroke-width ="0.1"
						fill="rgb(208,2,161)"
						/><path d="M 0,2.25 
						q 1.35 0.675 0,2.25 
						M 0,2.25 
						q -1.35 0.675 0,2.25 " 
						transform="rotate(45 0,2.25 )"
						stroke-width ="0.1"
						fill="rgb(210.5,0,164.5)"
						/><path d="M 0,2.25 
						q 1.35 0.675 0,2.25 
						M 0,2.25 
						q -1.35 0.675 0,2.25 " 
						transform="rotate(90 0,2.25 )"
						stroke-width ="0.1"
						fill="rgb(202,0,168)"
						/><path d="M 0,2.25 
						q 1.35 0.675 0,2.25 
						M 0,2.25 
						q -1.35 0.675 0,2.25 " 
						transform="rotate(135 0,2.25 )"
						stroke-width ="0.1"
						fill="rgb(214.5,0,167.5)"
						/></g><g id="flower7"><path d="M 0,2.625 
						q 1.575 0.7875 0,2.625 
						M 0,2.625 
						q -1.575 0.7875 0,2.625 " 
						transform="rotate(0 0,2.625 )"
						stroke-width ="0.1"
						fill="rgb(215,0,169)"
						/><circle cx="0" cy="2.625" r="0.28875" fill="rgb(211,89,143)"/><circle cx="-0.09" cy="2.645" r="0.1925" fill="rgb(233.5,103.5,154.5)"/><path d="M 0,2.625 
						q 1.575 0.7875 0,2.625 
						M 0,2.625 
						q -1.575 0.7875 0,2.625 " 
						transform="rotate(90 0,2.625 )"
						stroke-width ="0.1"
						fill="rgb(214.5,0,172.5)"
						/><circle cx="0" cy="2.625" r="0.28875" fill="rgb(211,89,143)"/><circle cx="0" cy="2.605" r="0.1925" fill="rgb(233.5,103.5,154.5)"/><path d="M 0,2.625 
						q 1.575 0.7875 0,2.625 
						M 0,2.625 
						q -1.575 0.7875 0,2.625 " 
						transform="rotate(180 0,2.625 )"
						stroke-width ="0.1"
						fill="rgb(211,0,166)"
						/><circle cx="0" cy="2.625" r="0.28875" fill="rgb(211,89,143)"/><circle cx="-0.02" cy="2.615" r="0.1925" fill="rgb(233.5,103.5,154.5)"/><path d="M 0,2.625 
						q 1.575 0.7875 0,2.625 
						M 0,2.625 
						q -1.575 0.7875 0,2.625 " 
						transform="rotate(270 0,2.625 )"
						stroke-width ="0.1"
						fill="rgb(211.5,0,153.5)"
						/><circle cx="0" cy="2.625" r="0.28875" fill="rgb(211,89,143)"/><circle cx="-0.09" cy="2.635" r="0.1925" fill="rgb(233.5,103.5,154.5)"/><path d="M 0,2.625 
						q 1.575 0.7875 0,2.625 
						M 0,2.625 
						q -1.575 0.7875 0,2.625 " 
						transform="rotate(360 0,2.625 )"
						stroke-width ="0.1"
						fill="rgb(213,0,149)"
						/><circle cx="0" cy="2.625" r="0.28875" fill="rgb(211,89,143)"/><circle cx="-0.06" cy="2.705" r="0.1925" fill="rgb(233.5,103.5,154.5)"/><path d="M 0,2.625 
						q 1.575 0.7875 0,2.625 
						M 0,2.625 
						q -1.575 0.7875 0,2.625 " 
						transform="rotate(450 0,2.625 )"
						stroke-width ="0.1"
						fill="rgb(200.5,0,147.5)"
						/><circle cx="0" cy="2.625" r="0.28875" fill="rgb(211,89,143)"/><circle cx="-0.04" cy="2.695" r="0.1925" fill="rgb(233.5,103.5,154.5)"/><path d="M 0,2.625 
						q 1.575 0.7875 0,2.625 
						M 0,2.625 
						q -1.575 0.7875 0,2.625 " 
						transform="rotate(540 0,2.625 )"
						stroke-width ="0.1"
						fill="rgb(201,0,155)"
						/><circle cx="0" cy="2.625" r="0.28875" fill="rgb(211,89,143)"/><circle cx="-0.1" cy="2.565" r="0.1925" fill="rgb(233.5,103.5,154.5)"/><path d="M 0,2.625 
						q 1.575 0.7875 0,2.625 
						M 0,2.625 
						q -1.575 0.7875 0,2.625 " 
						transform="rotate(630 0,2.625 )"
						stroke-width ="0.1"
						fill="rgb(202.5,0,147.5)"
						/><circle cx="0" cy="2.625" r="0.28875" fill="rgb(211,89,143)"/><circle cx="-0.05" cy="2.685" r="0.1925" fill="rgb(233.5,103.5,154.5)"/><path d="M 0,2.625 
						q 1.575 0.7875 0,2.625 
						M 0,2.625 
						q -1.575 0.7875 0,2.625 " 
						transform="rotate(720 0,2.625 )"
						stroke-width ="0.1"
						fill="rgb(206,0,155)"
						/><circle cx="0" cy="2.625" r="0.28875" fill="rgb(211,89,143)"/><circle cx="-0.06" cy="2.645" r="0.1925" fill="rgb(233.5,103.5,154.5)"/><path d="M 0,2.625 
						q 1.575 0.7875 0,2.625 
						M 0,2.625 
						q -1.575 0.7875 0,2.625 " 
						transform="rotate(810 0,2.625 )"
						stroke-width ="0.1"
						fill="rgb(199.5,0,151.5)"
						/><circle cx="0" cy="2.625" r="0.28875" fill="rgb(211,89,143)"/><circle cx="0" cy="2.715" r="0.1925" fill="rgb(233.5,103.5,154.5)"/><path d="M 0,2.625 
						q 1.575 0.7875 0,2.625 
						M 0,2.625 
						q -1.575 0.7875 0,2.625 " 
						transform="rotate(900 0,2.625 )"
						stroke-width ="0.1"
						fill="rgb(191,0,148)"
						/><circle cx="0" cy="2.625" r="0.28875" fill="rgb(211,89,143)"/><circle cx="0.1" cy="2.725" r="0.1925" fill="rgb(233.5,103.5,154.5)"/><path d="M 0,2.625 
						q 1.575 0.7875 0,2.625 
						M 0,2.625 
						q -1.575 0.7875 0,2.625 " 
						transform="rotate(990 0,2.625 )"
						stroke-width ="0.1"
						fill="rgb(189.5,0,149.5)"
						/><circle cx="0" cy="2.625" r="0.28875" fill="rgb(211,89,143)"/><circle cx="0.03" cy="2.575" r="0.1925" fill="rgb(233.5,103.5,154.5)"/><path d="M 0,2.625 
						q 1.575 0.7875 0,2.625 
						M 0,2.625 
						q -1.575 0.7875 0,2.625 " 
						transform="rotate(1080 0,2.625 )"
						stroke-width ="0.1"
						fill="rgb(195,0,136)"
						/><circle cx="0" cy="2.625" r="0.28875" fill="rgb(211,89,143)"/><circle cx="0.08" cy="2.535" r="0.1925" fill="rgb(233.5,103.5,154.5)"/></g><g id="flower8"><path d="M 0,3 
						q 1.8 0.9 0,3 
						M 0,3 
						q -1.8 0.9 0,3 " 
						transform="rotate(0 0,3 )"
						stroke-width ="0.1"
						fill="rgb(225,5,172)"
						/><circle cx="0" cy="3" r="0.33" fill="rgb(214,88,142)"/><circle cx="0.03" cy="3.05" r="0.22" fill="rgb(224.5,93.5,149.5)"/><path d="M 0,3 
						q 1.8 0.9 0,3 
						M 0,3 
						q -1.8 0.9 0,3 " 
						transform="rotate(90 0,3 )"
						stroke-width ="0.1"
						fill="rgb(207.5,0,173.5)"
						/><circle cx="0" cy="3" r="0.33" fill="rgb(214,88,142)"/><circle cx="0.01" cy="3.01" r="0.22" fill="rgb(224.5,93.5,149.5)"/><path d="M 0,3 
						q 1.8 0.9 0,3 
						M 0,3 
						q -1.8 0.9 0,3 " 
						transform="rotate(180 0,3 )"
						stroke-width ="0.1"
						fill="rgb(208,0,159)"
						/><circle cx="0" cy="3" r="0.33" fill="rgb(214,88,142)"/><circle cx="0.07" cy="3.06" r="0.22" fill="rgb(224.5,93.5,149.5)"/><path d="M 0,3 
						q 1.8 0.9 0,3 
						M 0,3 
						q -1.8 0.9 0,3 " 
						transform="rotate(270 0,3 )"
						stroke-width ="0.1"
						fill="rgb(208.5,0,163.5)"
						/><circle cx="0" cy="3" r="0.33" fill="rgb(214,88,142)"/><circle cx="-0.1" cy="3.04" r="0.22" fill="rgb(224.5,93.5,149.5)"/><path d="M 0,3 
						q 1.8 0.9 0,3 
						M 0,3 
						q -1.8 0.9 0,3 " 
						transform="rotate(360 0,3 )"
						stroke-width ="0.1"
						fill="rgb(200,0,150)"
						/><circle cx="0" cy="3" r="0.33" fill="rgb(214,88,142)"/><circle cx="-0.1" cy="3.1" r="0.22" fill="rgb(224.5,93.5,149.5)"/><path d="M 0,3 
						q 1.8 0.9 0,3 
						M 0,3 
						q -1.8 0.9 0,3 " 
						transform="rotate(450 0,3 )"
						stroke-width ="0.1"
						fill="rgb(194.5,0,149.5)"
						/><circle cx="0" cy="3" r="0.33" fill="rgb(214,88,142)"/><circle cx="0.09" cy="3.04" r="0.22" fill="rgb(224.5,93.5,149.5)"/><path d="M 0,3 
						q 1.8 0.9 0,3 
						M 0,3 
						q -1.8 0.9 0,3 " 
						transform="rotate(540 0,3 )"
						stroke-width ="0.1"
						fill="rgb(200,0,144)"
						/><circle cx="0" cy="3" r="0.33" fill="rgb(214,88,142)"/><circle cx="-0.09" cy="2.91" r="0.22" fill="rgb(224.5,93.5,149.5)"/><path d="M 0,3 
						q 1.8 0.9 0,3 
						M 0,3 
						q -1.8 0.9 0,3 " 
						transform="rotate(630 0,3 )"
						stroke-width ="0.1"
						fill="rgb(207.5,0,153.5)"
						/><circle cx="0" cy="3" r="0.33" fill="rgb(214,88,142)"/><circle cx="-0.06" cy="3.08" r="0.22" fill="rgb(224.5,93.5,149.5)"/><path d="M 0,3 
						q 1.8 0.9 0,3 
						M 0,3 
						q -1.8 0.9 0,3 " 
						transform="rotate(720 0,3 )"
						stroke-width ="0.1"
						fill="rgb(199,0,152)"
						/><circle cx="0" cy="3" r="0.33" fill="rgb(214,88,142)"/><circle cx="0.03" cy="3.01" r="0.22" fill="rgb(224.5,93.5,149.5)"/><path d="M 0,3 
						q 1.8 0.9 0,3 
						M 0,3 
						q -1.8 0.9 0,3 " 
						transform="rotate(810 0,3 )"
						stroke-width ="0.1"
						fill="rgb(190.5,0,142.5)"
						/><circle cx="0" cy="3" r="0.33" fill="rgb(214,88,142)"/><circle cx="0.03" cy="3.08" r="0.22" fill="rgb(224.5,93.5,149.5)"/><path d="M 0,3 
						q 1.8 0.9 0,3 
						M 0,3 
						q -1.8 0.9 0,3 " 
						transform="rotate(900 0,3 )"
						stroke-width ="0.1"
						fill="rgb(188,0,143)"
						/><circle cx="0" cy="3" r="0.33" fill="rgb(214,88,142)"/><circle cx="0.07" cy="3.09" r="0.22" fill="rgb(224.5,93.5,149.5)"/><path d="M 0,3 
						q 1.8 0.9 0,3 
						M 0,3 
						q -1.8 0.9 0,3 " 
						transform="rotate(990 0,3 )"
						stroke-width ="0.1"
						fill="rgb(183.5,0,143.5)"
						/><circle cx="0" cy="3" r="0.33" fill="rgb(214,88,142)"/><circle cx="-0.04" cy="3.04" r="0.22" fill="rgb(224.5,93.5,149.5)"/><path d="M 0,3 
						q 1.8 0.9 0,3 
						M 0,3 
						q -1.8 0.9 0,3 " 
						transform="rotate(1080 0,3 )"
						stroke-width ="0.1"
						fill="rgb(188,0,139)"
						/><circle cx="0" cy="3" r="0.33" fill="rgb(214,88,142)"/><circle cx="-0.02" cy="2.95" r="0.22" fill="rgb(224.5,93.5,149.5)"/></g></defs>
				<g class="fullPlant">
					<g>
					<path d ="M 56,91 
					q -2.92 -22.2 -3.504,-48.36" fill ="none" stroke ="rgb(102.5,195.5,81.5)" stroke-width ="1.278"/></g><circle cx="52.496" cy="42.64" r="0.639" fill="rgb(102.5,195.5,81.5)"/><use xlink:href="#leaf5"
						x="56" y="91" 
						transform="rotate(222 56.71 91.84)" 	
						fill="rgb(107,10,133)" /><use xlink:href="#leaf7"
						x="56" y="91" 
						transform="rotate(206 56.06 91.25)" 	
						fill="rgb(116,34,144)" /><use xlink:href="#flower7" id="fleur00"
						x="52.496" y="39.64" transform="rotate(98 52.496 42.64)" />
					<g>
					<path d ="M 40,91 
					q 2.92 -32.9 0.408,-39" fill ="none" stroke ="rgb(101,197,84)" stroke-width ="1.278"/></g><circle cx="40.408" cy="52" r="0.639" fill="rgb(101,197,84)"/><use xlink:href="#leaf5"
						x="40" y="91" 
						transform="rotate(141 40.07 91.33)" 	
						fill="rgb(103,2,153)" /><use xlink:href="#leaf5"
						x="40" y="91" 
						transform="rotate(214 40 91)" 	
						fill="rgb(118,28,160)" /><use xlink:href="#flower6" id="fleur10"
						x="40.408" y="49" transform="rotate(144 40.408 52)" /></g>
				</svg>