<svg class="relie" xmlns="http://www.w3.org/2000/svg" viewBox="0 0 100 100" preserveAspectRatio="xMidYMid meet" x="0" y="0" overflow="visible" xmlns:xlink="http://www.w3.org/1999/xlink">

		<defs>  <g id="leaf1" transform="skewX(-10) skewY(-10)"><path d="M 0,0 
					q 0.765 0.135 0,1.25 
					M 0,0 
					q -0.765 0.135 0,1.25 " 
					stroke-width ="0.2" /></g>  <g id="leaf2" transform="skewX(10) skewY(10)"><path d="M 0,0 
					q 1.53 0.27 0,2.5 
					M 0,0 
					q -1.53 0.27 0,2.5 " 
					stroke-width ="0.2" /></g>  <g id="leaf3" transform="skewX(-5) skewY(-5)"><path d="M 0,0 
					q 2.295 0.405 0,3.75 
					M 0,0 
					q -2.295 0.405 0,3.75 " 
					stroke-width ="0.2" /></g>  <g id="leaf4" transform="skewX(-2) skewY(-2)"><path d="M 0,0 
					q 3.06 0.54 0,5 
					M 0,0 
					q -3.06 0.54 0,5 " 
					stroke-width ="0.2" /></g>  <g id="leaf5" transform="skewX(2) skewY(2)"><path d="M 0,0 
					q 3.825 0.675 0,6.25 
					M 0,0 
					q -3.825 0.675 0,6.25 " 
					stroke-width ="0.2" /></g>  <g id="leaf6" transform="skewX(-3) skewY(-3)"><path d="M 0,0 
					q 4.59 0.81 0,7.5 
					M 0,0 
					q -4.59 0.81 0,7.5 " 
					stroke-width ="0.2" /></g>  <g id="leaf7" transform="skewX(10) skewY(10)"><path d="M 0,0 
					q 5.355 0.945 0,8.75 
					M 0,0 
					q -5.355 0.945 0,8.75 " 
					stroke-width ="0.2" /></g>  <g id="leaf8" transform="skewX(-1) skewY(-1)"><path d="M 0,0 
					q 6.12 1.08 0,10 
					M 0,0 
					q -6.12 1.08 0,10 " 
					stroke-width ="0.2" /></g><g id="flower1" transform="skewX(-7) skewY(-7)">
						<path d="M 0,0
						Q 1.07,0.25 0,1.165"
						stroke="rgb(16,24,108)" 
						fill="transparent"
						stroke-width ="0.3" /><path d="M 0,1.165 
						q -0.36125 -0.16 0.3875,0.1 q 0.37125 -0.16 0.0125,0.2 q -0.0075 0.16 -0.125,0.1 q 0.03375 0.16 -0.125,0.05 q -0.17875 0.16 -0.15,1 
						M 0,1.165 
						q 0.36125 -0.16 -0.3875,0.1 q -0.37125 -0.16 -0.0125,0.2 q 0.0075 0.16 0.125,0.1 q -0.03375 0.16 0.125,0.05 q 0.17875 0.16 0.15,1 " 
						transform="rotate(0 0,1.165 )"
						stroke-width ="0.1"
						fill="rgb(86,171,217)"
						/><circle cx="0" cy="1.165" r="0.19" fill="rgb(156,157,49)"/><circle cx="-0.09" cy="1.155" r="0.12666666666667" fill="rgb(174.5,169.5,56.5)"/><path d="M 0,1.165 
						q -0.36125 -0.16 0.3875,0.1 q 0.37125 -0.16 0.0125,0.2 q -0.0075 0.16 -0.125,0.1 q 0.03375 0.16 -0.125,0.05 q -0.17875 0.16 -0.15,1 
						M 0,1.165 
						q 0.36125 -0.16 -0.3875,0.1 q -0.37125 -0.16 -0.0125,0.2 q 0.0075 0.16 0.125,0.1 q -0.03375 0.16 0.125,0.05 q 0.17875 0.16 0.15,1 " 
						transform="rotate(98.181818181818 0,1.165 )"
						stroke-width ="0.1"
						fill="rgb(75.5,165.5,205.5)"
						/><circle cx="0" cy="1.165" r="0.19" fill="rgb(156,157,49)"/><circle cx="0.01" cy="1.105" r="0.12666666666667" fill="rgb(174.5,169.5,56.5)"/><path d="M 0,1.165 
						q -0.36125 -0.16 0.3875,0.1 q 0.37125 -0.16 0.0125,0.2 q -0.0075 0.16 -0.125,0.1 q 0.03375 0.16 -0.125,0.05 q -0.17875 0.16 -0.15,1 
						M 0,1.165 
						q 0.36125 -0.16 -0.3875,0.1 q -0.37125 -0.16 -0.0125,0.2 q 0.0075 0.16 0.125,0.1 q -0.03375 0.16 0.125,0.05 q 0.17875 0.16 0.15,1 " 
						transform="rotate(196.36363636364 0,1.165 )"
						stroke-width ="0.1"
						fill="rgb(71,178,201)"
						/><circle cx="0" cy="1.165" r="0.19" fill="rgb(156,157,49)"/><circle cx="-0.06" cy="1.215" r="0.12666666666667" fill="rgb(174.5,169.5,56.5)"/><path d="M 0,1.165 
						q -0.36125 -0.16 0.3875,0.1 q 0.37125 -0.16 0.0125,0.2 q -0.0075 0.16 -0.125,0.1 q 0.03375 0.16 -0.125,0.05 q -0.17875 0.16 -0.15,1 
						M 0,1.165 
						q 0.36125 -0.16 -0.3875,0.1 q -0.37125 -0.16 -0.0125,0.2 q 0.0075 0.16 0.125,0.1 q -0.03375 0.16 0.125,0.05 q 0.17875 0.16 0.15,1 " 
						transform="rotate(294.54545454545 0,1.165 )"
						stroke-width ="0.1"
						fill="rgb(63.5,166.5,215.5)"
						/><circle cx="0" cy="1.165" r="0.19" fill="rgb(156,157,49)"/><circle cx="-0.1" cy="1.135" r="0.12666666666667" fill="rgb(174.5,169.5,56.5)"/><path d="M 0,1.165 
						q -0.36125 -0.16 0.3875,0.1 q 0.37125 -0.16 0.0125,0.2 q -0.0075 0.16 -0.125,0.1 q 0.03375 0.16 -0.125,0.05 q -0.17875 0.16 -0.15,1 
						M 0,1.165 
						q 0.36125 -0.16 -0.3875,0.1 q -0.37125 -0.16 -0.0125,0.2 q 0.0075 0.16 0.125,0.1 q -0.03375 0.16 0.125,0.05 q 0.17875 0.16 0.15,1 " 
						transform="rotate(392.72727272727 0,1.165 )"
						stroke-width ="0.1"
						fill="rgb(70,160,200)"
						/><circle cx="0" cy="1.165" r="0.19" fill="rgb(156,157,49)"/><circle cx="-0.04" cy="1.185" r="0.12666666666667" fill="rgb(174.5,169.5,56.5)"/><path d="M 0,1.165 
						q -0.36125 -0.16 0.3875,0.1 q 0.37125 -0.16 0.0125,0.2 q -0.0075 0.16 -0.125,0.1 q 0.03375 0.16 -0.125,0.05 q -0.17875 0.16 -0.15,1 
						M 0,1.165 
						q 0.36125 -0.16 -0.3875,0.1 q -0.37125 -0.16 -0.0125,0.2 q 0.0075 0.16 0.125,0.1 q -0.03375 0.16 0.125,0.05 q 0.17875 0.16 0.15,1 " 
						transform="rotate(490.90909090909 0,1.165 )"
						stroke-width ="0.1"
						fill="rgb(66.5,168.5,194.5)"
						/><circle cx="0" cy="1.165" r="0.19" fill="rgb(156,157,49)"/><circle cx="-0.1" cy="1.255" r="0.12666666666667" fill="rgb(174.5,169.5,56.5)"/><path d="M 0,1.165 
						q -0.36125 -0.16 0.3875,0.1 q 0.37125 -0.16 0.0125,0.2 q -0.0075 0.16 -0.125,0.1 q 0.03375 0.16 -0.125,0.05 q -0.17875 0.16 -0.15,1 
						M 0,1.165 
						q 0.36125 -0.16 -0.3875,0.1 q -0.37125 -0.16 -0.0125,0.2 q 0.0075 0.16 0.125,0.1 q -0.03375 0.16 0.125,0.05 q 0.17875 0.16 0.15,1 " 
						transform="rotate(589.09090909091 0,1.165 )"
						stroke-width ="0.1"
						fill="rgb(58,171,204)"
						/><circle cx="0" cy="1.165" r="0.19" fill="rgb(156,157,49)"/><circle cx="0.01" cy="1.205" r="0.12666666666667" fill="rgb(174.5,169.5,56.5)"/><path d="M 0,1.165 
						q -0.36125 -0.16 0.3875,0.1 q 0.37125 -0.16 0.0125,0.2 q -0.0075 0.16 -0.125,0.1 q 0.03375 0.16 -0.125,0.05 q -0.17875 0.16 -0.15,1 
						M 0,1.165 
						q 0.36125 -0.16 -0.3875,0.1 q -0.37125 -0.16 -0.0125,0.2 q 0.0075 0.16 0.125,0.1 q -0.03375 0.16 0.125,0.05 q 0.17875 0.16 0.15,1 " 
						transform="rotate(687.27272727273 0,1.165 )"
						stroke-width ="0.1"
						fill="rgb(53.5,153.5,200.5)"
						/><circle cx="0" cy="1.165" r="0.19" fill="rgb(156,157,49)"/><circle cx="0.01" cy="1.155" r="0.12666666666667" fill="rgb(174.5,169.5,56.5)"/><path d="M 0,1.165 
						q -0.36125 -0.16 0.3875,0.1 q 0.37125 -0.16 0.0125,0.2 q -0.0075 0.16 -0.125,0.1 q 0.03375 0.16 -0.125,0.05 q -0.17875 0.16 -0.15,1 
						M 0,1.165 
						q 0.36125 -0.16 -0.3875,0.1 q -0.37125 -0.16 -0.0125,0.2 q 0.0075 0.16 0.125,0.1 q -0.03375 0.16 0.125,0.05 q 0.17875 0.16 0.15,1 " 
						transform="rotate(785.45454545455 0,1.165 )"
						stroke-width ="0.1"
						fill="rgb(69,165,194)"
						/><circle cx="0" cy="1.165" r="0.19" fill="rgb(156,157,49)"/><circle cx="0.09" cy="1.155" r="0.12666666666667" fill="rgb(174.5,169.5,56.5)"/><path d="M 0,1.165 
						q -0.36125 -0.16 0.3875,0.1 q 0.37125 -0.16 0.0125,0.2 q -0.0075 0.16 -0.125,0.1 q 0.03375 0.16 -0.125,0.05 q -0.17875 0.16 -0.15,1 
						M 0,1.165 
						q 0.36125 -0.16 -0.3875,0.1 q -0.37125 -0.16 -0.0125,0.2 q 0.0075 0.16 0.125,0.1 q -0.03375 0.16 0.125,0.05 q 0.17875 0.16 0.15,1 " 
						transform="rotate(883.63636363636 0,1.165 )"
						stroke-width ="0.1"
						fill="rgb(48.5,144.5,189.5)"
						/><circle cx="0" cy="1.165" r="0.19" fill="rgb(156,157,49)"/><circle cx="-0.08" cy="1.155" r="0.12666666666667" fill="rgb(174.5,169.5,56.5)"/><path d="M 0,1.165 
						q -0.36125 -0.16 0.3875,0.1 q 0.37125 -0.16 0.0125,0.2 q -0.0075 0.16 -0.125,0.1 q 0.03375 0.16 -0.125,0.05 q -0.17875 0.16 -0.15,1 
						M 0,1.165 
						q 0.36125 -0.16 -0.3875,0.1 q -0.37125 -0.16 -0.0125,0.2 q 0.0075 0.16 0.125,0.1 q -0.03375 0.16 0.125,0.05 q 0.17875 0.16 0.15,1 " 
						transform="rotate(981.81818181818 0,1.165 )"
						stroke-width ="0.1"
						fill="rgb(52,157,182)"
						/><circle cx="0" cy="1.165" r="0.19" fill="rgb(156,157,49)"/><circle cx="-0.02" cy="1.085" r="0.12666666666667" fill="rgb(174.5,169.5,56.5)"/><path d="M 0,1.165 
						q -0.36125 -0.16 0.3875,0.1 q 0.37125 -0.16 0.0125,0.2 q -0.0075 0.16 -0.125,0.1 q 0.03375 0.16 -0.125,0.05 q -0.17875 0.16 -0.15,1 
						M 0,1.165 
						q 0.36125 -0.16 -0.3875,0.1 q -0.37125 -0.16 -0.0125,0.2 q 0.0075 0.16 0.125,0.1 q -0.03375 0.16 0.125,0.05 q 0.17875 0.16 0.15,1 " 
						transform="rotate(1080 0,1.165 )"
						stroke-width ="0.1"
						fill="rgb(58.5,155.5,177.5)"
						/><circle cx="0" cy="1.165" r="0.19" fill="rgb(156,157,49)"/><circle cx="-0.01" cy="1.245" r="0.12666666666667" fill="rgb(174.5,169.5,56.5)"/></g><g id="flower2" transform="skewX(2) skewY(2)">
						<path d="M 0,0
						Q 0.4,0.5 0,2.33"
						stroke="rgb(16,24,108)" 
						fill="transparent"
						stroke-width ="0.3" /><path d="M 0,2.33 
						q -0.7225 -0.32 0.575,0.2 q 0.7425 -0.32 0.025,0.4 q -0.015 0.32 -0.25,0.2 q 0.0675 0.32 -0.25,0.1 q 0.6075 0.32 -0.1,1 
						M 0,2.33 
						q 0.7225 -0.32 -0.575,0.2 q -0.7425 -0.32 -0.025,0.4 q 0.015 0.32 0.25,0.2 q -0.0675 0.32 0.25,0.1 q -0.6075 0.32 0.1,1 " 
						transform="rotate(0 0,2.33 )"
						stroke-width ="0.1"
						fill="rgb(76,168,213)"
						/><circle cx="0" cy="2.33" r="0.38" fill="rgb(157,158,50)"/><circle cx="0.03" cy="2.41" r="0.25333333333333" fill="rgb(168.5,168.5,66.5)"/><path d="M 0,2.33 
						q -0.7225 -0.32 0.575,0.2 q 0.7425 -0.32 0.025,0.4 q -0.015 0.32 -0.25,0.2 q 0.0675 0.32 -0.25,0.1 q 0.6075 0.32 -0.1,1 
						M 0,2.33 
						q 0.7225 -0.32 -0.575,0.2 q -0.7425 -0.32 -0.025,0.4 q 0.015 0.32 0.25,0.2 q -0.0675 0.32 0.25,0.1 q -0.6075 0.32 0.1,1 " 
						transform="rotate(98.181818181818 0,2.33 )"
						stroke-width ="0.1"
						fill="rgb(81.5,175.5,214.5)"
						/><circle cx="0" cy="2.33" r="0.38" fill="rgb(157,158,50)"/><circle cx="0.06" cy="2.27" r="0.25333333333333" fill="rgb(168.5,168.5,66.5)"/><path d="M 0,2.33 
						q -0.7225 -0.32 0.575,0.2 q 0.7425 -0.32 0.025,0.4 q -0.015 0.32 -0.25,0.2 q 0.0675 0.32 -0.25,0.1 q 0.6075 0.32 -0.1,1 
						M 0,2.33 
						q 0.7225 -0.32 -0.575,0.2 q -0.7425 -0.32 -0.025,0.4 q 0.015 0.32 0.25,0.2 q -0.0675 0.32 0.25,0.1 q -0.6075 0.32 0.1,1 " 
						transform="rotate(196.36363636364 0,2.33 )"
						stroke-width ="0.1"
						fill="rgb(65,169,220)"
						/><circle cx="0" cy="2.33" r="0.38" fill="rgb(157,158,50)"/><circle cx="-0.08" cy="2.26" r="0.25333333333333" fill="rgb(168.5,168.5,66.5)"/><path d="M 0,2.33 
						q -0.7225 -0.32 0.575,0.2 q 0.7425 -0.32 0.025,0.4 q -0.015 0.32 -0.25,0.2 q 0.0675 0.32 -0.25,0.1 q 0.6075 0.32 -0.1,1 
						M 0,2.33 
						q 0.7225 -0.32 -0.575,0.2 q -0.7425 -0.32 -0.025,0.4 q 0.015 0.32 0.25,0.2 q -0.0675 0.32 0.25,0.1 q -0.6075 0.32 0.1,1 " 
						transform="rotate(294.54545454545 0,2.33 )"
						stroke-width ="0.1"
						fill="rgb(80.5,178.5,200.5)"
						/><circle cx="0" cy="2.33" r="0.38" fill="rgb(157,158,50)"/><circle cx="0.08" cy="2.29" r="0.25333333333333" fill="rgb(168.5,168.5,66.5)"/><path d="M 0,2.33 
						q -0.7225 -0.32 0.575,0.2 q 0.7425 -0.32 0.025,0.4 q -0.015 0.32 -0.25,0.2 q 0.0675 0.32 -0.25,0.1 q 0.6075 0.32 -0.1,1 
						M 0,2.33 
						q 0.7225 -0.32 -0.575,0.2 q -0.7425 -0.32 -0.025,0.4 q 0.015 0.32 0.25,0.2 q -0.0675 0.32 0.25,0.1 q -0.6075 0.32 0.1,1 " 
						transform="rotate(392.72727272727 0,2.33 )"
						stroke-width ="0.1"
						fill="rgb(73,159,205)"
						/><circle cx="0" cy="2.33" r="0.38" fill="rgb(157,158,50)"/><circle cx="-0.1" cy="2.34" r="0.25333333333333" fill="rgb(168.5,168.5,66.5)"/><path d="M 0,2.33 
						q -0.7225 -0.32 0.575,0.2 q 0.7425 -0.32 0.025,0.4 q -0.015 0.32 -0.25,0.2 q 0.0675 0.32 -0.25,0.1 q 0.6075 0.32 -0.1,1 
						M 0,2.33 
						q 0.7225 -0.32 -0.575,0.2 q -0.7425 -0.32 -0.025,0.4 q 0.015 0.32 0.25,0.2 q -0.0675 0.32 0.25,0.1 q -0.6075 0.32 0.1,1 " 
						transform="rotate(490.90909090909 0,2.33 )"
						stroke-width ="0.1"
						fill="rgb(66.5,171.5,206.5)"
						/><circle cx="0" cy="2.33" r="0.38" fill="rgb(157,158,50)"/><circle cx="0.03" cy="2.33" r="0.25333333333333" fill="rgb(168.5,168.5,66.5)"/><path d="M 0,2.33 
						q -0.7225 -0.32 0.575,0.2 q 0.7425 -0.32 0.025,0.4 q -0.015 0.32 -0.25,0.2 q 0.0675 0.32 -0.25,0.1 q 0.6075 0.32 -0.1,1 
						M 0,2.33 
						q 0.7225 -0.32 -0.575,0.2 q -0.7425 -0.32 -0.025,0.4 q 0.015 0.32 0.25,0.2 q -0.0675 0.32 0.25,0.1 q -0.6075 0.32 0.1,1 " 
						transform="rotate(589.09090909091 0,2.33 )"
						stroke-width ="0.1"
						fill="rgb(63,170,204)"
						/><circle cx="0" cy="2.33" r="0.38" fill="rgb(157,158,50)"/><circle cx="0.06" cy="2.35" r="0.25333333333333" fill="rgb(168.5,168.5,66.5)"/><path d="M 0,2.33 
						q -0.7225 -0.32 0.575,0.2 q 0.7425 -0.32 0.025,0.4 q -0.015 0.32 -0.25,0.2 q 0.0675 0.32 -0.25,0.1 q 0.6075 0.32 -0.1,1 
						M 0,2.33 
						q 0.7225 -0.32 -0.575,0.2 q -0.7425 -0.32 -0.025,0.4 q 0.015 0.32 0.25,0.2 q -0.0675 0.32 0.25,0.1 q -0.6075 0.32 0.1,1 " 
						transform="rotate(687.27272727273 0,2.33 )"
						stroke-width ="0.1"
						fill="rgb(70.5,165.5,205.5)"
						/><circle cx="0" cy="2.33" r="0.38" fill="rgb(157,158,50)"/><circle cx="-0.07" cy="2.37" r="0.25333333333333" fill="rgb(168.5,168.5,66.5)"/><path d="M 0,2.33 
						q -0.7225 -0.32 0.575,0.2 q 0.7425 -0.32 0.025,0.4 q -0.015 0.32 -0.25,0.2 q 0.0675 0.32 -0.25,0.1 q 0.6075 0.32 -0.1,1 
						M 0,2.33 
						q 0.7225 -0.32 -0.575,0.2 q -0.7425 -0.32 -0.025,0.4 q 0.015 0.32 0.25,0.2 q -0.0675 0.32 0.25,0.1 q -0.6075 0.32 0.1,1 " 
						transform="rotate(785.45454545455 0,2.33 )"
						stroke-width ="0.1"
						fill="rgb(57,159,197)"
						/><circle cx="0" cy="2.33" r="0.38" fill="rgb(157,158,50)"/><circle cx="-0.05" cy="2.38" r="0.25333333333333" fill="rgb(168.5,168.5,66.5)"/><path d="M 0,2.33 
						q -0.7225 -0.32 0.575,0.2 q 0.7425 -0.32 0.025,0.4 q -0.015 0.32 -0.25,0.2 q 0.0675 0.32 -0.25,0.1 q 0.6075 0.32 -0.1,1 
						M 0,2.33 
						q 0.7225 -0.32 -0.575,0.2 q -0.7425 -0.32 -0.025,0.4 q 0.015 0.32 0.25,0.2 q -0.0675 0.32 0.25,0.1 q -0.6075 0.32 0.1,1 " 
						transform="rotate(883.63636363636 0,2.33 )"
						stroke-width ="0.1"
						fill="rgb(58.5,154.5,199.5)"
						/><circle cx="0" cy="2.33" r="0.38" fill="rgb(157,158,50)"/><circle cx="0.02" cy="2.41" r="0.25333333333333" fill="rgb(168.5,168.5,66.5)"/><path d="M 0,2.33 
						q -0.7225 -0.32 0.575,0.2 q 0.7425 -0.32 0.025,0.4 q -0.015 0.32 -0.25,0.2 q 0.0675 0.32 -0.25,0.1 q 0.6075 0.32 -0.1,1 
						M 0,2.33 
						q 0.7225 -0.32 -0.575,0.2 q -0.7425 -0.32 -0.025,0.4 q 0.015 0.32 0.25,0.2 q -0.0675 0.32 0.25,0.1 q -0.6075 0.32 0.1,1 " 
						transform="rotate(981.81818181818 0,2.33 )"
						stroke-width ="0.1"
						fill="rgb(56,150,191)"
						/><circle cx="0" cy="2.33" r="0.38" fill="rgb(157,158,50)"/><circle cx="-0.04" cy="2.23" r="0.25333333333333" fill="rgb(168.5,168.5,66.5)"/><path d="M 0,2.33 
						q -0.7225 -0.32 0.575,0.2 q 0.7425 -0.32 0.025,0.4 q -0.015 0.32 -0.25,0.2 q 0.0675 0.32 -0.25,0.1 q 0.6075 0.32 -0.1,1 
						M 0,2.33 
						q 0.7225 -0.32 -0.575,0.2 q -0.7425 -0.32 -0.025,0.4 q 0.015 0.32 0.25,0.2 q -0.0675 0.32 0.25,0.1 q -0.6075 0.32 0.1,1 " 
						transform="rotate(1080 0,2.33 )"
						stroke-width ="0.1"
						fill="rgb(54.5,154.5,185.5)"
						/><circle cx="0" cy="2.33" r="0.38" fill="rgb(157,158,50)"/><circle cx="-0.01" cy="2.26" r="0.25333333333333" fill="rgb(168.5,168.5,66.5)"/></g><g id="flower3" transform="skewX(-10) skewY(-10)">
						<path d="M 0,0
						Q 0.22,0.75 0,3.495"
						stroke="rgb(16,24,108)" 
						fill="transparent"
						stroke-width ="0.3" /><path d="M 0,3.495 
						q -1.08375 -0.48 0.7625,0.3 q 1.11375 -0.48 0.0375,0.6 q -0.0225 0.48 -0.375,0.3 q 0.10125 0.48 -0.375,0.15 q 0.91125 0.48 -0.05,1 
						M 0,3.495 
						q 1.08375 -0.48 -0.7625,0.3 q -1.11375 -0.48 -0.0375,0.6 q 0.0225 0.48 0.375,0.3 q -0.10125 0.48 0.375,0.15 q -0.91125 0.48 0.05,1 " 
						transform="rotate(0 0,3.495 )"
						stroke-width ="0.1"
						fill="rgb(70,167,212)"
						/><circle cx="0" cy="3.495" r="0.57" fill="rgb(154,154,55)"/><circle cx="-0.06" cy="3.575" r="0.38" fill="rgb(162.5,158.5,52.5)"/><path d="M 0,3.495 
						q -1.08375 -0.48 0.7625,0.3 q 1.11375 -0.48 0.0375,0.6 q -0.0225 0.48 -0.375,0.3 q 0.10125 0.48 -0.375,0.15 q 0.91125 0.48 -0.05,1 
						M 0,3.495 
						q 1.08375 -0.48 -0.7625,0.3 q -1.11375 -0.48 -0.0375,0.6 q 0.0225 0.48 0.375,0.3 q -0.10125 0.48 0.375,0.15 q -0.91125 0.48 0.05,1 " 
						transform="rotate(98.181818181818 0,3.495 )"
						stroke-width ="0.1"
						fill="rgb(67.5,170.5,207.5)"
						/><circle cx="0" cy="3.495" r="0.57" fill="rgb(154,154,55)"/><circle cx="0.06" cy="3.505" r="0.38" fill="rgb(162.5,158.5,52.5)"/><path d="M 0,3.495 
						q -1.08375 -0.48 0.7625,0.3 q 1.11375 -0.48 0.0375,0.6 q -0.0225 0.48 -0.375,0.3 q 0.10125 0.48 -0.375,0.15 q 0.91125 0.48 -0.05,1 
						M 0,3.495 
						q 1.08375 -0.48 -0.7625,0.3 q -1.11375 -0.48 -0.0375,0.6 q 0.0225 0.48 0.375,0.3 q -0.10125 0.48 0.375,0.15 q -0.91125 0.48 0.05,1 " 
						transform="rotate(196.36363636364 0,3.495 )"
						stroke-width ="0.1"
						fill="rgb(71,174,204)"
						/><circle cx="0" cy="3.495" r="0.57" fill="rgb(154,154,55)"/><circle cx="0" cy="3.545" r="0.38" fill="rgb(162.5,158.5,52.5)"/><path d="M 0,3.495 
						q -1.08375 -0.48 0.7625,0.3 q 1.11375 -0.48 0.0375,0.6 q -0.0225 0.48 -0.375,0.3 q 0.10125 0.48 -0.375,0.15 q 0.91125 0.48 -0.05,1 
						M 0,3.495 
						q 1.08375 -0.48 -0.7625,0.3 q -1.11375 -0.48 -0.0375,0.6 q 0.0225 0.48 0.375,0.3 q -0.10125 0.48 0.375,0.15 q -0.91125 0.48 0.05,1 " 
						transform="rotate(294.54545454545 0,3.495 )"
						stroke-width ="0.1"
						fill="rgb(80.5,162.5,200.5)"
						/><circle cx="0" cy="3.495" r="0.57" fill="rgb(154,154,55)"/><circle cx="0.01" cy="3.405" r="0.38" fill="rgb(162.5,158.5,52.5)"/><path d="M 0,3.495 
						q -1.08375 -0.48 0.7625,0.3 q 1.11375 -0.48 0.0375,0.6 q -0.0225 0.48 -0.375,0.3 q 0.10125 0.48 -0.375,0.15 q 0.91125 0.48 -0.05,1 
						M 0,3.495 
						q 1.08375 -0.48 -0.7625,0.3 q -1.11375 -0.48 -0.0375,0.6 q 0.0225 0.48 0.375,0.3 q -0.10125 0.48 0.375,0.15 q -0.91125 0.48 0.05,1 " 
						transform="rotate(392.72727272727 0,3.495 )"
						stroke-width ="0.1"
						fill="rgb(79,174,214)"
						/><circle cx="0" cy="3.495" r="0.57" fill="rgb(154,154,55)"/><circle cx="-0.08" cy="3.475" r="0.38" fill="rgb(162.5,158.5,52.5)"/><path d="M 0,3.495 
						q -1.08375 -0.48 0.7625,0.3 q 1.11375 -0.48 0.0375,0.6 q -0.0225 0.48 -0.375,0.3 q 0.10125 0.48 -0.375,0.15 q 0.91125 0.48 -0.05,1 
						M 0,3.495 
						q 1.08375 -0.48 -0.7625,0.3 q -1.11375 -0.48 -0.0375,0.6 q 0.0225 0.48 0.375,0.3 q -0.10125 0.48 0.375,0.15 q -0.91125 0.48 0.05,1 " 
						transform="rotate(490.90909090909 0,3.495 )"
						stroke-width ="0.1"
						fill="rgb(62.5,160.5,199.5)"
						/><circle cx="0" cy="3.495" r="0.57" fill="rgb(154,154,55)"/><circle cx="-0.07" cy="3.535" r="0.38" fill="rgb(162.5,158.5,52.5)"/><path d="M 0,3.495 
						q -1.08375 -0.48 0.7625,0.3 q 1.11375 -0.48 0.0375,0.6 q -0.0225 0.48 -0.375,0.3 q 0.10125 0.48 -0.375,0.15 q 0.91125 0.48 -0.05,1 
						M 0,3.495 
						q 1.08375 -0.48 -0.7625,0.3 q -1.11375 -0.48 -0.0375,0.6 q 0.0225 0.48 0.375,0.3 q -0.10125 0.48 0.375,0.15 q -0.91125 0.48 0.05,1 " 
						transform="rotate(589.09090909091 0,3.495 )"
						stroke-width ="0.1"
						fill="rgb(56,169,196)"
						/><circle cx="0" cy="3.495" r="0.57" fill="rgb(154,154,55)"/><circle cx="-0.01" cy="3.515" r="0.38" fill="rgb(162.5,158.5,52.5)"/><path d="M 0,3.495 
						q -1.08375 -0.48 0.7625,0.3 q 1.11375 -0.48 0.0375,0.6 q -0.0225 0.48 -0.375,0.3 q 0.10125 0.48 -0.375,0.15 q 0.91125 0.48 -0.05,1 
						M 0,3.495 
						q 1.08375 -0.48 -0.7625,0.3 q -1.11375 -0.48 -0.0375,0.6 q 0.0225 0.48 0.375,0.3 q -0.10125 0.48 0.375,0.15 q -0.91125 0.48 0.05,1 " 
						transform="rotate(687.27272727273 0,3.495 )"
						stroke-width ="0.1"
						fill="rgb(55.5,167.5,206.5)"
						/><circle cx="0" cy="3.495" r="0.57" fill="rgb(154,154,55)"/><circle cx="0.04" cy="3.495" r="0.38" fill="rgb(162.5,158.5,52.5)"/><path d="M 0,3.495 
						q -1.08375 -0.48 0.7625,0.3 q 1.11375 -0.48 0.0375,0.6 q -0.0225 0.48 -0.375,0.3 q 0.10125 0.48 -0.375,0.15 q 0.91125 0.48 -0.05,1 
						M 0,3.495 
						q 1.08375 -0.48 -0.7625,0.3 q -1.11375 -0.48 -0.0375,0.6 q 0.0225 0.48 0.375,0.3 q -0.10125 0.48 0.375,0.15 q -0.91125 0.48 0.05,1 " 
						transform="rotate(785.45454545455 0,3.495 )"
						stroke-width ="0.1"
						fill="rgb(60,157,197)"
						/><circle cx="0" cy="3.495" r="0.57" fill="rgb(154,154,55)"/><circle cx="0.1" cy="3.595" r="0.38" fill="rgb(162.5,158.5,52.5)"/><path d="M 0,3.495 
						q -1.08375 -0.48 0.7625,0.3 q 1.11375 -0.48 0.0375,0.6 q -0.0225 0.48 -0.375,0.3 q 0.10125 0.48 -0.375,0.15 q 0.91125 0.48 -0.05,1 
						M 0,3.495 
						q 1.08375 -0.48 -0.7625,0.3 q -1.11375 -0.48 -0.0375,0.6 q 0.0225 0.48 0.375,0.3 q -0.10125 0.48 0.375,0.15 q -0.91125 0.48 0.05,1 " 
						transform="rotate(883.63636363636 0,3.495 )"
						stroke-width ="0.1"
						fill="rgb(49.5,155.5,183.5)"
						/><circle cx="0" cy="3.495" r="0.57" fill="rgb(154,154,55)"/><circle cx="0.07" cy="3.555" r="0.38" fill="rgb(162.5,158.5,52.5)"/><path d="M 0,3.495 
						q -1.08375 -0.48 0.7625,0.3 q 1.11375 -0.48 0.0375,0.6 q -0.0225 0.48 -0.375,0.3 q 0.10125 0.48 -0.375,0.15 q 0.91125 0.48 -0.05,1 
						M 0,3.495 
						q 1.08375 -0.48 -0.7625,0.3 q -1.11375 -0.48 -0.0375,0.6 q 0.0225 0.48 0.375,0.3 q -0.10125 0.48 0.375,0.15 q -0.91125 0.48 0.05,1 " 
						transform="rotate(981.81818181818 0,3.495 )"
						stroke-width ="0.1"
						fill="rgb(52,162,196)"
						/><circle cx="0" cy="3.495" r="0.57" fill="rgb(154,154,55)"/><circle cx="0.03" cy="3.505" r="0.38" fill="rgb(162.5,158.5,52.5)"/><path d="M 0,3.495 
						q -1.08375 -0.48 0.7625,0.3 q 1.11375 -0.48 0.0375,0.6 q -0.0225 0.48 -0.375,0.3 q 0.10125 0.48 -0.375,0.15 q 0.91125 0.48 -0.05,1 
						M 0,3.495 
						q 1.08375 -0.48 -0.7625,0.3 q -1.11375 -0.48 -0.0375,0.6 q 0.0225 0.48 0.375,0.3 q -0.10125 0.48 0.375,0.15 q -0.91125 0.48 0.05,1 " 
						transform="rotate(1080 0,3.495 )"
						stroke-width ="0.1"
						fill="rgb(43.5,156.5,180.5)"
						/><circle cx="0" cy="3.495" r="0.57" fill="rgb(154,154,55)"/><circle cx="0" cy="3.515" r="0.38" fill="rgb(162.5,158.5,52.5)"/></g><g id="flower4" transform="skewX(3) skewY(3)">
						<path d="M 0,0
						Q -0.73,1 0,4.66"
						stroke="rgb(16,24,108)" 
						fill="transparent"
						stroke-width ="0.3" /><path d="M 0,4.66 
						q -1.445 -0.64 0.95,0.4 q 1.485 -0.64 0.05,0.8 q -0.03 0.64 -0.5,0.4 q 0.635 0.64 1,0.2 q -0.715 0.64 -1.5,1 
						M 0,4.66 
						q 1.445 -0.64 -0.95,0.4 q -1.485 -0.64 -0.05,0.8 q 0.03 0.64 0.5,0.4 q -0.635 0.64 -1,0.2 q 0.715 0.64 1.5,1 " 
						transform="rotate(0 0,4.66 )"
						stroke-width ="0.1"
						fill="rgb(76,187,215)"
						/><path d="M 0,4.66 
						q -1.445 -0.64 0.95,0.4 q 1.485 -0.64 0.05,0.8 q -0.03 0.64 -0.5,0.4 q 0.635 0.64 1,0.2 q -0.715 0.64 -1.5,1 
						M 0,4.66 
						q 1.445 -0.64 -0.95,0.4 q -1.485 -0.64 -0.05,0.8 q 0.03 0.64 0.5,0.4 q -0.635 0.64 -1,0.2 q 0.715 0.64 1.5,1 " 
						transform="rotate(29.454545454545 0,4.66 )"
						stroke-width ="0.1"
						fill="rgb(80.5,173.5,204.5)"
						/><path d="M 0,4.66 
						q -1.445 -0.64 0.95,0.4 q 1.485 -0.64 0.05,0.8 q -0.03 0.64 -0.5,0.4 q 0.635 0.64 1,0.2 q -0.715 0.64 -1.5,1 
						M 0,4.66 
						q 1.445 -0.64 -0.95,0.4 q -1.485 -0.64 -0.05,0.8 q 0.03 0.64 0.5,0.4 q -0.635 0.64 -1,0.2 q 0.715 0.64 1.5,1 " 
						transform="rotate(58.909090909091 0,4.66 )"
						stroke-width ="0.1"
						fill="rgb(74,163,213)"
						/></g><g id="flower5" transform="skewX(-3) skewY(-3)">
						<path d="M 0,0
						Q 0.47,1.25 0,5.825"
						stroke="rgb(16,24,108)" 
						fill="transparent"
						stroke-width ="0.3" /><path d="M 0,5.825 
						q -1.80625 -0.8 1.1375,0.5 q 1.85625 -0.8 0.0625,1 q -0.0375 0.8 -0.625,0.5 q 0.79375 0.8 1.25,0.25 q -0.89375 0.8 -1.825,1 
						M 0,5.825 
						q 1.80625 -0.8 -1.1375,0.5 q -1.85625 -0.8 -0.0625,1 q 0.0375 0.8 0.625,0.5 q -0.79375 0.8 -1.25,0.25 q 0.89375 0.8 1.825,1 " 
						transform="rotate(0 0,5.825 )"
						stroke-width ="0.1"
						fill="rgb(77,167,214)"
						/><circle cx="0" cy="5.825" r="0.95" fill="rgb(156,154,49)"/><circle cx="-0.02" cy="5.825" r="0.63333333333333" fill="rgb(175.5,158.5,55.5)"/><path d="M 0,5.825 
						q -1.80625 -0.8 1.1375,0.5 q 1.85625 -0.8 0.0625,1 q -0.0375 0.8 -0.625,0.5 q 0.79375 0.8 1.25,0.25 q -0.89375 0.8 -1.825,1 
						M 0,5.825 
						q 1.80625 -0.8 -1.1375,0.5 q -1.85625 -0.8 -0.0625,1 q 0.0375 0.8 0.625,0.5 q -0.79375 0.8 -1.25,0.25 q 0.89375 0.8 1.825,1 " 
						transform="rotate(98.181818181818 0,5.825 )"
						stroke-width ="0.1"
						fill="rgb(70.5,176.5,207.5)"
						/><circle cx="0" cy="5.825" r="0.95" fill="rgb(156,154,49)"/><circle cx="-0.04" cy="5.905" r="0.63333333333333" fill="rgb(175.5,158.5,55.5)"/><path d="M 0,5.825 
						q -1.80625 -0.8 1.1375,0.5 q 1.85625 -0.8 0.0625,1 q -0.0375 0.8 -0.625,0.5 q 0.79375 0.8 1.25,0.25 q -0.89375 0.8 -1.825,1 
						M 0,5.825 
						q 1.80625 -0.8 -1.1375,0.5 q -1.85625 -0.8 -0.0625,1 q 0.0375 0.8 0.625,0.5 q -0.79375 0.8 -1.25,0.25 q 0.89375 0.8 1.825,1 " 
						transform="rotate(196.36363636364 0,5.825 )"
						stroke-width ="0.1"
						fill="rgb(79,177,208)"
						/><circle cx="0" cy="5.825" r="0.95" fill="rgb(156,154,49)"/><circle cx="0.04" cy="5.805" r="0.63333333333333" fill="rgb(175.5,158.5,55.5)"/><path d="M 0,5.825 
						q -1.80625 -0.8 1.1375,0.5 q 1.85625 -0.8 0.0625,1 q -0.0375 0.8 -0.625,0.5 q 0.79375 0.8 1.25,0.25 q -0.89375 0.8 -1.825,1 
						M 0,5.825 
						q 1.80625 -0.8 -1.1375,0.5 q -1.85625 -0.8 -0.0625,1 q 0.0375 0.8 0.625,0.5 q -0.79375 0.8 -1.25,0.25 q 0.89375 0.8 1.825,1 " 
						transform="rotate(294.54545454545 0,5.825 )"
						stroke-width ="0.1"
						fill="rgb(73.5,169.5,210.5)"
						/><circle cx="0" cy="5.825" r="0.95" fill="rgb(156,154,49)"/><circle cx="0.04" cy="5.825" r="0.63333333333333" fill="rgb(175.5,158.5,55.5)"/><path d="M 0,5.825 
						q -1.80625 -0.8 1.1375,0.5 q 1.85625 -0.8 0.0625,1 q -0.0375 0.8 -0.625,0.5 q 0.79375 0.8 1.25,0.25 q -0.89375 0.8 -1.825,1 
						M 0,5.825 
						q 1.80625 -0.8 -1.1375,0.5 q -1.85625 -0.8 -0.0625,1 q 0.0375 0.8 0.625,0.5 q -0.79375 0.8 -1.25,0.25 q 0.89375 0.8 1.825,1 " 
						transform="rotate(392.72727272727 0,5.825 )"
						stroke-width ="0.1"
						fill="rgb(80,175,215)"
						/><circle cx="0" cy="5.825" r="0.95" fill="rgb(156,154,49)"/><circle cx="0.05" cy="5.735" r="0.63333333333333" fill="rgb(175.5,158.5,55.5)"/><path d="M 0,5.825 
						q -1.80625 -0.8 1.1375,0.5 q 1.85625 -0.8 0.0625,1 q -0.0375 0.8 -0.625,0.5 q 0.79375 0.8 1.25,0.25 q -0.89375 0.8 -1.825,1 
						M 0,5.825 
						q 1.80625 -0.8 -1.1375,0.5 q -1.85625 -0.8 -0.0625,1 q 0.0375 0.8 0.625,0.5 q -0.79375 0.8 -1.25,0.25 q 0.89375 0.8 1.825,1 " 
						transform="rotate(490.90909090909 0,5.825 )"
						stroke-width ="0.1"
						fill="rgb(69.5,168.5,212.5)"
						/><circle cx="0" cy="5.825" r="0.95" fill="rgb(156,154,49)"/><circle cx="0.06" cy="5.855" r="0.63333333333333" fill="rgb(175.5,158.5,55.5)"/><path d="M 0,5.825 
						q -1.80625 -0.8 1.1375,0.5 q 1.85625 -0.8 0.0625,1 q -0.0375 0.8 -0.625,0.5 q 0.79375 0.8 1.25,0.25 q -0.89375 0.8 -1.825,1 
						M 0,5.825 
						q 1.80625 -0.8 -1.1375,0.5 q -1.85625 -0.8 -0.0625,1 q 0.0375 0.8 0.625,0.5 q -0.79375 0.8 -1.25,0.25 q 0.89375 0.8 1.825,1 " 
						transform="rotate(589.09090909091 0,5.825 )"
						stroke-width ="0.1"
						fill="rgb(75,170,198)"
						/><circle cx="0" cy="5.825" r="0.95" fill="rgb(156,154,49)"/><circle cx="-0.03" cy="5.855" r="0.63333333333333" fill="rgb(175.5,158.5,55.5)"/><path d="M 0,5.825 
						q -1.80625 -0.8 1.1375,0.5 q 1.85625 -0.8 0.0625,1 q -0.0375 0.8 -0.625,0.5 q 0.79375 0.8 1.25,0.25 q -0.89375 0.8 -1.825,1 
						M 0,5.825 
						q 1.80625 -0.8 -1.1375,0.5 q -1.85625 -0.8 -0.0625,1 q 0.0375 0.8 0.625,0.5 q -0.79375 0.8 -1.25,0.25 q 0.89375 0.8 1.825,1 " 
						transform="rotate(687.27272727273 0,5.825 )"
						stroke-width ="0.1"
						fill="rgb(60.5,162.5,200.5)"
						/><circle cx="0" cy="5.825" r="0.95" fill="rgb(156,154,49)"/><circle cx="0" cy="5.745" r="0.63333333333333" fill="rgb(175.5,158.5,55.5)"/><path d="M 0,5.825 
						q -1.80625 -0.8 1.1375,0.5 q 1.85625 -0.8 0.0625,1 q -0.0375 0.8 -0.625,0.5 q 0.79375 0.8 1.25,0.25 q -0.89375 0.8 -1.825,1 
						M 0,5.825 
						q 1.80625 -0.8 -1.1375,0.5 q -1.85625 -0.8 -0.0625,1 q 0.0375 0.8 0.625,0.5 q -0.79375 0.8 -1.25,0.25 q 0.89375 0.8 1.825,1 " 
						transform="rotate(785.45454545455 0,5.825 )"
						stroke-width ="0.1"
						fill="rgb(68,153,200)"
						/><circle cx="0" cy="5.825" r="0.95" fill="rgb(156,154,49)"/><circle cx="0.03" cy="5.745" r="0.63333333333333" fill="rgb(175.5,158.5,55.5)"/><path d="M 0,5.825 
						q -1.80625 -0.8 1.1375,0.5 q 1.85625 -0.8 0.0625,1 q -0.0375 0.8 -0.625,0.5 q 0.79375 0.8 1.25,0.25 q -0.89375 0.8 -1.825,1 
						M 0,5.825 
						q 1.80625 -0.8 -1.1375,0.5 q -1.85625 -0.8 -0.0625,1 q 0.0375 0.8 0.625,0.5 q -0.79375 0.8 -1.25,0.25 q 0.89375 0.8 1.825,1 " 
						transform="rotate(883.63636363636 0,5.825 )"
						stroke-width ="0.1"
						fill="rgb(57.5,160.5,182.5)"
						/><circle cx="0" cy="5.825" r="0.95" fill="rgb(156,154,49)"/><circle cx="0.02" cy="5.925" r="0.63333333333333" fill="rgb(175.5,158.5,55.5)"/><path d="M 0,5.825 
						q -1.80625 -0.8 1.1375,0.5 q 1.85625 -0.8 0.0625,1 q -0.0375 0.8 -0.625,0.5 q 0.79375 0.8 1.25,0.25 q -0.89375 0.8 -1.825,1 
						M 0,5.825 
						q 1.80625 -0.8 -1.1375,0.5 q -1.85625 -0.8 -0.0625,1 q 0.0375 0.8 0.625,0.5 q -0.79375 0.8 -1.25,0.25 q 0.89375 0.8 1.825,1 " 
						transform="rotate(981.81818181818 0,5.825 )"
						stroke-width ="0.1"
						fill="rgb(48,160,190)"
						/><circle cx="0" cy="5.825" r="0.95" fill="rgb(156,154,49)"/><circle cx="-0.06" cy="5.905" r="0.63333333333333" fill="rgb(175.5,158.5,55.5)"/><path d="M 0,5.825 
						q -1.80625 -0.8 1.1375,0.5 q 1.85625 -0.8 0.0625,1 q -0.0375 0.8 -0.625,0.5 q 0.79375 0.8 1.25,0.25 q -0.89375 0.8 -1.825,1 
						M 0,5.825 
						q 1.80625 -0.8 -1.1375,0.5 q -1.85625 -0.8 -0.0625,1 q 0.0375 0.8 0.625,0.5 q -0.79375 0.8 -1.25,0.25 q 0.89375 0.8 1.825,1 " 
						transform="rotate(1080 0,5.825 )"
						stroke-width ="0.1"
						fill="rgb(53.5,140.5,197.5)"
						/><circle cx="0" cy="5.825" r="0.95" fill="rgb(156,154,49)"/><circle cx="0.09" cy="5.795" r="0.63333333333333" fill="rgb(175.5,158.5,55.5)"/></g><g id="flower6" transform="skewX(-5) skewY(-5)">
						<path d="M 0,0
						Q 1.04,1.5 0,6.99"
						stroke="rgb(16,24,108)" 
						fill="transparent"
						stroke-width ="0.3" /><path d="M 0,6.99 
						q -2.1675 -0.96 1.325,0.6 q 2.2275 -0.96 0.075,1.2 q -0.045 0.96 -0.75,0.6 q 0.9525 0.96 1.5,0.3 q -1.0725 0.96 -2.15,1 
						M 0,6.99 
						q 2.1675 -0.96 -1.325,0.6 q -2.2275 -0.96 -0.075,1.2 q 0.045 0.96 0.75,0.6 q -0.9525 0.96 -1.5,0.3 q 1.0725 0.96 2.15,1 " 
						transform="rotate(0 0,6.99 )"
						stroke-width ="0.1"
						fill="rgb(70,187,219)"
						/><path d="M 0,6.99 
						q -2.1675 -0.96 1.325,0.6 q 2.2275 -0.96 0.075,1.2 q -0.045 0.96 -0.75,0.6 q 0.9525 0.96 1.5,0.3 q -1.0725 0.96 -2.15,1 
						M 0,6.99 
						q 2.1675 -0.96 -1.325,0.6 q -2.2275 -0.96 -0.075,1.2 q 0.045 0.96 0.75,0.6 q -0.9525 0.96 -1.5,0.3 q 1.0725 0.96 2.15,1 " 
						transform="rotate(29.454545454545 0,6.99 )"
						stroke-width ="0.1"
						fill="rgb(68.5,177.5,217.5)"
						/><path d="M 0,6.99 
						q -2.1675 -0.96 1.325,0.6 q 2.2275 -0.96 0.075,1.2 q -0.045 0.96 -0.75,0.6 q 0.9525 0.96 1.5,0.3 q -1.0725 0.96 -2.15,1 
						M 0,6.99 
						q 2.1675 -0.96 -1.325,0.6 q -2.2275 -0.96 -0.075,1.2 q 0.045 0.96 0.75,0.6 q -0.9525 0.96 -1.5,0.3 q 1.0725 0.96 2.15,1 " 
						transform="rotate(58.909090909091 0,6.99 )"
						stroke-width ="0.1"
						fill="rgb(74,168,205)"
						/></g><g id="flower7" transform="skewX(2) skewY(2)">
						<path d="M 0,0
						Q 0.01,1.75 0,8.155"
						stroke="rgb(16,24,108)" 
						fill="transparent"
						stroke-width ="0.3" /><path d="M 0,8.155 
						q -2.52875 -1.12 1.5125,0.7 q 2.59875 -1.12 0.0875,1.4 q -0.0525 1.12 -0.875,0.7 q 1.11125 1.12 1.75,0.35 q -1.25125 1.12 -2.475,1 
						M 0,8.155 
						q 2.52875 -1.12 -1.5125,0.7 q -2.59875 -1.12 -0.0875,1.4 q 0.0525 1.12 0.875,0.7 q -1.11125 1.12 -1.75,0.35 q 1.25125 1.12 2.475,1 " 
						transform="rotate(0 0,8.155 )"
						stroke-width ="0.1"
						fill="rgb(88,177,205)"
						/><path d="M 0,8.155 
						q -2.52875 -1.12 1.5125,0.7 q 2.59875 -1.12 0.0875,1.4 q -0.0525 1.12 -0.875,0.7 q 1.11125 1.12 1.75,0.35 q -1.25125 1.12 -2.475,1 
						M 0,8.155 
						q 2.52875 -1.12 -1.5125,0.7 q -2.59875 -1.12 -0.0875,1.4 q 0.0525 1.12 0.875,0.7 q -1.11125 1.12 -1.75,0.35 q 1.25125 1.12 2.475,1 " 
						transform="rotate(29.454545454545 0,8.155 )"
						stroke-width ="0.1"
						fill="rgb(77.5,175.5,213.5)"
						/><path d="M 0,8.155 
						q -2.52875 -1.12 1.5125,0.7 q 2.59875 -1.12 0.0875,1.4 q -0.0525 1.12 -0.875,0.7 q 1.11125 1.12 1.75,0.35 q -1.25125 1.12 -2.475,1 
						M 0,8.155 
						q 2.52875 -1.12 -1.5125,0.7 q -2.59875 -1.12 -0.0875,1.4 q 0.0525 1.12 0.875,0.7 q -1.11125 1.12 -1.75,0.35 q 1.25125 1.12 2.475,1 " 
						transform="rotate(58.909090909091 0,8.155 )"
						stroke-width ="0.1"
						fill="rgb(69,169,215)"
						/></g><g id="flower8" transform="skewX(-7) skewY(-7)">
						<path d="M 0,0
						Q -0.77,2 0,9.32"
						stroke="rgb(16,24,108)" 
						fill="transparent"
						stroke-width ="0.3" /><path d="M 0,9.32 
						q -2.89 -1.28 1.7,0.8 q 2.97 -1.28 0.1,1.6 q -0.06 1.28 -1,0.8 q 1.27 1.28 2,0.4 q -1.43 1.28 -2.8,1 
						M 0,9.32 
						q 2.89 -1.28 -1.7,0.8 q -2.97 -1.28 -0.1,1.6 q 0.06 1.28 1,0.8 q -1.27 1.28 -2,0.4 q 1.43 1.28 2.8,1 " 
						transform="rotate(0 0,9.32 )"
						stroke-width ="0.1"
						fill="rgb(72,174,208)"
						/><path d="M 0,9.32 
						q -2.89 -1.28 1.7,0.8 q 2.97 -1.28 0.1,1.6 q -0.06 1.28 -1,0.8 q 1.27 1.28 2,0.4 q -1.43 1.28 -2.8,1 
						M 0,9.32 
						q 2.89 -1.28 -1.7,0.8 q -2.97 -1.28 -0.1,1.6 q 0.06 1.28 1,0.8 q -1.27 1.28 -2,0.4 q 1.43 1.28 2.8,1 " 
						transform="rotate(29.454545454545 0,9.32 )"
						stroke-width ="0.1"
						fill="rgb(75.5,170.5,212.5)"
						/><path d="M 0,9.32 
						q -2.89 -1.28 1.7,0.8 q 2.97 -1.28 0.1,1.6 q -0.06 1.28 -1,0.8 q 1.27 1.28 2,0.4 q -1.43 1.28 -2.8,1 
						M 0,9.32 
						q 2.89 -1.28 -1.7,0.8 q -2.97 -1.28 -0.1,1.6 q 0.06 1.28 1,0.8 q -1.27 1.28 -2,0.4 q 1.43 1.28 2.8,1 " 
						transform="rotate(58.909090909091 0,9.32 )"
						stroke-width ="0.1"
						fill="rgb(65,173,217)"
						/></g></defs>
				<g class="fullPlant">
					<g>
					<path d ="M 53,91 
					a 76 532 0.87 0 1 1.536,-24.564" fill ="none" stroke ="rgb(9.5,15.5,100.5)" stroke-width ="1.926"/></g><circle cx="54.536" cy="66.436" r="0.4815" stroke="rgb(14.5,20.5,105.5)" fill="rgb(9.5,15.5,100.5)"/><use xlink:href="#leaf1"
						x="54.536" y="66.436" 
						transform="rotate(-30 54.536 66.436)" 	
						fill="rgb(11,148,90)" /><use xlink:href="#leaf1"
						x="54.536" y="66.436" 
						transform="rotate(-157 54.536 66.436)" 	
						fill="rgb(14,163,101)" /><use xlink:href="#leaf1"
						x="54.536" y="66.436" 
						transform="rotate(149 54.536 66.436)" 	
						fill="rgb(15,166,111)" /><use xlink:href="#leaf1"
						x="54.536" y="66.436" 
						transform="rotate(-132 54.536 66.436)" 	
						fill="rgb(10,147,116)" /><use xlink:href="#leaf1"
						x="54.536" y="66.436" 
						transform="rotate(72 54.536 66.436)" 	
						fill="rgb(36,170,124)" /><use xlink:href="#leaf3"
						x="54.536" y="66.436" 
						transform="rotate(140 54.696 66.726)" 	
						fill="rgb(0,144,93)" /><use xlink:href="#leaf1"
						x="54.536" y="66.436" 
						transform="rotate(-91 54.536 66.436)" 	
						fill="rgb(2,161,90)" /><use xlink:href="#leaf1"
						x="54.536" y="66.436" 
						transform="rotate(173 54.536 66.436)" 	
						fill="rgb(34,178,109)" /><use xlink:href="#leaf2"
						x="54.536" y="66.436" 
						transform="rotate(-177 54.656 66.586)" 	
						fill="rgb(8,160,89)" /><use xlink:href="#leaf3"
						x="54.536" y="66.436" 
						transform="rotate(65 55.006 67.276)" 	
						fill="rgb(34,178,117)" />
					<g>
					<path d ="M 54.536,66.436 
					a 57 171 16.50 0 0 -8.88,-3.792" fill ="none" stroke ="rgb(8.5,18.5,101.5)" stroke-width ="0.963"/></g><circle cx="45.656" cy="62.644" r="0.24075" stroke="rgb(13.5,23.5,106.5)" fill="rgb(8.5,18.5,101.5)"/><use xlink:href="#leaf1"
						x="45.656" y="62.644" 
						transform="rotate(-38 45.656 62.644)" 	
						fill="rgb(33,176,123)" /><use xlink:href="#leaf1"
						x="45.656" y="62.644" 
						transform="rotate(-70 45.656 62.644)" 	
						fill="rgb(1,163,93)" /><use xlink:href="#leaf1"
						x="45.656" y="62.644" 
						transform="rotate(119 45.656 62.644)" 	
						fill="rgb(11,181,104)" /><use xlink:href="#leaf4"
						x="45.656" y="62.644" 
						transform="rotate(39 45.656 62.644)" 	
						fill="rgb(33,149,119)" /><use xlink:href="#leaf3"
						x="45.656" y="62.644" 
						transform="rotate(61 45.656 62.644)" 	
						fill="rgb(17,180,116)" /><use xlink:href="#leaf1"
						x="45.656" y="62.644" 
						transform="rotate(-148 46.596 62.754)" 	
						fill="rgb(12,162,127)" /><use xlink:href="#leaf2"
						x="45.656" y="62.644" 
						transform="rotate(-46 45.896 63.134)" 	
						fill="rgb(22,144,96)" /><use xlink:href="#leaf1"
						x="45.656" y="62.644" 
						transform="rotate(-114 46.446 63.124)" 	
						fill="rgb(22,177,119)" /><use xlink:href="#leaf4"
						x="45.656" y="62.644" 
						transform="rotate(-109 45.656 62.644)" 	
						fill="rgb(30,177,100)" />
					<g>
					<path d ="M 54.536,66.436 
					a 85 765 17.48 0 0 -7.14,-8.088" fill ="none" stroke ="rgb(9.5,21.5,102.5)" stroke-width ="0.963"/></g><circle cx="47.396" cy="58.348" r="0.24075" stroke="rgb(14.5,26.5,107.5)" fill="rgb(9.5,21.5,102.5)"/><use xlink:href="#leaf1"
						x="47.396" y="58.348" 
						transform="rotate(-55 47.566 58.518)" 	
						fill="rgb(0,179,125)" /><use xlink:href="#leaf1"
						x="47.396" y="58.348" 
						transform="rotate(104 47.396 58.348)" 	
						fill="rgb(32,147,117)" /><use xlink:href="#leaf3"
						x="47.396" y="58.348" 
						transform="rotate(109 47.396 59.338)" 	
						fill="rgb(10,144,116)" /><use xlink:href="#leaf3"
						x="47.396" y="58.348" 
						transform="rotate(5 47.466 58.988)" 	
						fill="rgb(13,181,101)" /><use xlink:href="#leaf3"
						x="47.396" y="58.348" 
						transform="rotate(29 47.446 58.648)" 	
						fill="rgb(35,141,109)" /><use xlink:href="#leaf4"
						x="47.396" y="58.348" 
						transform="rotate(106 47.486 58.428)" 	
						fill="rgb(6,141,99)" />
					<g>
					<path d ="M 47.396,58.348 
					a 93 93 -13.67 0 1 -11.448,2.004" fill ="none" stroke ="rgb(12,23,106)" stroke-width ="0.642"/></g><circle cx="35.948" cy="60.352" r="0.1605" stroke="rgb(17,28,111)" fill="rgb(12,23,106)"/><use xlink:href="#leaf4"
						x="35.948" y="60.352" 
						transform="rotate(179 35.948 60.352)" 	
						fill="rgb(19,166,109)" /><use xlink:href="#leaf1"
						x="35.948" y="60.352" 
						transform="rotate(-139 35.948 60.352)" 	
						fill="rgb(12,149,123)" /><use xlink:href="#leaf5"
						x="35.948" y="60.352" 
						transform="rotate(157 35.948 60.352)" 	
						fill="rgb(33,153,97)" /><use xlink:href="#leaf5"
						x="35.948" y="60.352" 
						transform="rotate(103 35.948 60.352)" 	
						fill="rgb(26,172,103)" /><use xlink:href="#leaf4"
						x="35.948" y="60.352" 
						transform="rotate(-137 36.678 61.122)" 	
						fill="rgb(21,154,102)" /><use xlink:href="#leaf3"
						x="35.948" y="60.352" 
						transform="rotate(80 35.948 60.352)" 	
						fill="rgb(15,168,101)" />
					<g>
					<path d ="M 47.396,58.348 
					a 62 372 -15.28 0 0 3.816,-1.824" fill ="none" stroke ="rgb(11.5,25.5,106.5)" stroke-width ="0.642"/></g><circle cx="51.212" cy="56.524" r="0.1605" stroke="rgb(16.5,30.5,111.5)" fill="rgb(11.5,25.5,106.5)"/><use xlink:href="#leaf4"
						x="51.212" y="56.524" 
						transform="rotate(108 51.272 57.194)" 	
						fill="rgb(1,162,103)" /><use xlink:href="#leaf2"
						x="51.212" y="56.524" 
						transform="rotate(156 51.212 56.524)" 	
						fill="rgb(2,150,89)" /><use xlink:href="#leaf5"
						x="51.212" y="56.524" 
						transform="rotate(-169 51.212 56.524)" 	
						fill="rgb(30,158,111)" /><use xlink:href="#leaf5"
						x="51.212" y="56.524" 
						transform="rotate(-138 51.212 56.524)" 	
						fill="rgb(24,176,104)" /><use xlink:href="#leaf1"
						x="51.212" y="56.524" 
						transform="rotate(-59 51.432 57.294)" 	
						fill="rgb(27,142,95)" /><use xlink:href="#leaf2"
						x="51.212" y="56.524" 
						transform="rotate(170 51.872 56.894)" 	
						fill="rgb(0,156,90)" /><use xlink:href="#leaf2"
						x="51.212" y="56.524" 
						transform="rotate(-3 51.622 57.514)" 	
						fill="rgb(5,151,119)" /><use xlink:href="#leaf4"
						x="51.212" y="56.524" 
						transform="rotate(-95 51.212 56.524)" 	
						fill="rgb(32,143,102)" /><use xlink:href="#leaf3"
						x="51.212" y="56.524" 
						transform="rotate(24 51.212 56.524)" 	
						fill="rgb(14,177,111)" /><use xlink:href="#leaf1"
						x="51.212" y="56.524" 
						transform="rotate(8 51.712 57.344)" 	
						fill="rgb(10,171,125)" /><use xlink:href="#leaf5"
						x="51.212" y="56.524" 
						transform="rotate(-55 51.332 57.254)" 	
						fill="rgb(0,148,106)" />
					<g>
					<path d ="M 47.396,58.348 
					a 100 400 -4.48 0 1 -6.72,-6.78" fill ="none" stroke ="rgb(14,26,109)" stroke-width ="0.642"/></g><circle cx="40.676" cy="51.568" r="0.1605" stroke="rgb(19,31,114)" fill="rgb(14,26,109)"/><use xlink:href="#leaf1"
						x="40.676" y="51.568" 
						transform="rotate(140 41.496 51.678)" 	
						fill="rgb(27,175,111)" /><use xlink:href="#leaf4"
						x="40.676" y="51.568" 
						transform="rotate(35 40.716 52.478)" 	
						fill="rgb(7,150,123)" /><use xlink:href="#leaf2"
						x="40.676" y="51.568" 
						transform="rotate(98 41.506 52.428)" 	
						fill="rgb(26,166,100)" /><use xlink:href="#leaf2"
						x="40.676" y="51.568" 
						transform="rotate(-36 40.676 51.568)" 	
						fill="rgb(37,141,127)" /><use xlink:href="#leaf2"
						x="40.676" y="51.568" 
						transform="rotate(-43 41.556 51.618)" 	
						fill="rgb(2,141,92)" /><use xlink:href="#leaf2"
						x="40.676" y="51.568" 
						transform="rotate(139 40.676 51.568)" 	
						fill="rgb(3,163,114)" /><use xlink:href="#leaf4"
						x="40.676" y="51.568" 
						transform="rotate(75 40.786 51.848)" 	
						fill="rgb(0,156,100)" /><use xlink:href="#leaf1"
						x="40.676" y="51.568" 
						transform="rotate(57 40.676 51.568)" 	
						fill="rgb(20,181,103)" /><use xlink:href="#leaf1"
						x="40.676" y="51.568" 
						transform="rotate(-72 40.726 51.878)" 	
						fill="rgb(1,144,96)" /><use xlink:href="#flower1" id="fleur50"
							x="40.676" y="51.568" 
							transform="rotate(-126 41.156 52.036)" />
					<g>
					<path d ="M 40.676,51.568 
					a 58 58 15.39 0 0 3.108,0.612" fill ="none" stroke ="rgb(15,29,113)" stroke-width ="0.4815"/></g><circle cx="43.784" cy="52.18" r="0.120375" stroke="rgb(20,34,118)" fill="rgb(15,29,113)"/><use xlink:href="#leaf3"
						x="43.784" y="52.18" 
						transform="rotate(-7 44.734 52.9)" 	
						fill="rgb(17,170,107)" /><use xlink:href="#leaf2"
						x="43.784" y="52.18" 
						transform="rotate(51 43.784 52.18)" 	
						fill="rgb(2,181,103)" /><use xlink:href="#leaf2"
						x="43.784" y="52.18" 
						transform="rotate(155 43.784 52.18)" 	
						fill="rgb(10,157,96)" /><use xlink:href="#leaf3"
						x="43.784" y="52.18" 
						transform="rotate(-178 43.884 52.63)" 	
						fill="rgb(13,175,112)" /><use xlink:href="#flower3" id="fleur60"
							x="43.784" y="52.18" 
							transform="rotate(102 43.88 52.564)" />
					<g>
					<path d ="M 40.676,51.568 
					a 52 312 15.1 0 1 9.924,-7.092" fill ="none" stroke ="rgb(18,33,113)" stroke-width ="0.4815"/></g><circle cx="50.6" cy="44.476" r="0.120375" stroke="rgb(23,38,118)" fill="rgb(18,33,113)"/><use xlink:href="#leaf3"
						x="50.6" y="44.476" 
						transform="rotate(-94 50.6 44.476)" 	
						fill="rgb(34,145,102)" /><use xlink:href="#leaf5"
						x="50.6" y="44.476" 
						transform="rotate(171 51.01 44.686)" 	
						fill="rgb(21,174,126)" /><use xlink:href="#leaf5"
						x="50.6" y="44.476" 
						transform="rotate(-70 50.99 44.846)" 	
						fill="rgb(6,148,96)" /><use xlink:href="#leaf2"
						x="50.6" y="44.476" 
						transform="rotate(17 51.14 44.956)" 	
						fill="rgb(26,171,112)" /><use xlink:href="#leaf6"
						x="50.6" y="44.476" 
						transform="rotate(158 51.3 44.736)" 	
						fill="rgb(12,176,121)" /><use xlink:href="#leaf5"
						x="50.6" y="44.476" 
						transform="rotate(48 51.54 44.786)" 	
						fill="rgb(3,142,106)" /><use xlink:href="#leaf5"
						x="50.6" y="44.476" 
						transform="rotate(-175 50.6 44.476)" 	
						fill="rgb(23,141,98)" /><use xlink:href="#leaf5"
						x="50.6" y="44.476" 
						transform="rotate(106 50.6 44.476)" 	
						fill="rgb(36,167,123)" /><use xlink:href="#leaf6"
						x="50.6" y="44.476" 
						transform="rotate(30 50.6 44.476)" 	
						fill="rgb(31,180,91)" /><use xlink:href="#leaf3"
						x="50.6" y="44.476" 
						transform="rotate(180 51.55 44.996)" 	
						fill="rgb(30,161,112)" />
					<g>
					<path d ="M 53,91 
					a 94 376 11.96 0 1 9.96,-23.748" fill ="none" stroke ="rgb(17.5,31.5,112.5)" stroke-width ="1.926"/></g><circle cx="62.96" cy="67.252" r="0.4815" stroke="rgb(22.5,36.5,117.5)" fill="rgb(17.5,31.5,112.5)"/><use xlink:href="#leaf1"
						x="62.96" y="67.252" 
						transform="rotate(-110 63.61 67.942)" 	
						fill="rgb(10,160,108)" /><use xlink:href="#leaf1"
						x="62.96" y="67.252" 
						transform="rotate(110 63.83 68.122)" 	
						fill="rgb(29,162,121)" /><use xlink:href="#leaf1"
						x="62.96" y="67.252" 
						transform="rotate(8 62.96 67.252)" 	
						fill="rgb(26,156,106)" /><use xlink:href="#leaf1"
						x="62.96" y="67.252" 
						transform="rotate(144 62.96 67.252)" 	
						fill="rgb(21,177,124)" /><use xlink:href="#leaf3"
						x="62.96" y="67.252" 
						transform="rotate(37 62.96 67.252)" 	
						fill="rgb(37,157,101)" /><use xlink:href="#leaf3"
						x="62.96" y="67.252" 
						transform="rotate(64 63.18 67.592)" 	
						fill="rgb(6,150,111)" />
					<g>
					<path d ="M 53,91 
					a 85 765 12.49 0 1 -3.084,-23.52" fill ="none" stroke ="rgb(17,33,114)" stroke-width ="1.926"/></g><circle cx="49.916" cy="67.48" r="0.4815" stroke="rgb(22,38,119)" fill="rgb(17,33,114)"/><use xlink:href="#leaf2"
						x="49.916" y="67.48" 
						transform="rotate(-31 49.916 67.48)" 	
						fill="rgb(34,171,100)" /><use xlink:href="#leaf3"
						x="49.916" y="67.48" 
						transform="rotate(-121 49.916 67.48)" 	
						fill="rgb(4,150,100)" /><use xlink:href="#leaf1"
						x="49.916" y="67.48" 
						transform="rotate(37 50.076 67.91)" 	
						fill="rgb(6,163,104)" /><use xlink:href="#leaf2"
						x="49.916" y="67.48" 
						transform="rotate(-1 50.556 68.17)" 	
						fill="rgb(36,169,114)" /><use xlink:href="#leaf3"
						x="49.916" y="67.48" 
						transform="rotate(65 50.056 67.74)" 	
						fill="rgb(19,161,101)" />
					<g>
					<path d ="M 53,91 
					a 99 891 9.74 0 0 -6.708,-22.92" fill ="none" stroke ="rgb(17.5,33.5,116.5)" stroke-width ="1.926"/></g><circle cx="46.292" cy="68.08" r="0.4815" stroke="rgb(22.5,38.5,121.5)" fill="rgb(17.5,33.5,116.5)"/><use xlink:href="#leaf1"
						x="46.292" y="68.08" 
						transform="rotate(22 46.292 68.08)" 	
						fill="rgb(37,150,128)" /><use xlink:href="#leaf1"
						x="46.292" y="68.08" 
						transform="rotate(-167 46.292 68.08)" 	
						fill="rgb(24,172,101)" /><use xlink:href="#leaf1"
						x="46.292" y="68.08" 
						transform="rotate(102 46.752 68.66)" 	
						fill="rgb(5,163,119)" /><use xlink:href="#leaf3"
						x="46.292" y="68.08" 
						transform="rotate(47 46.452 68.59)" 	
						fill="rgb(9,145,114)" /><use xlink:href="#leaf1"
						x="46.292" y="68.08" 
						transform="rotate(-139 46.292 68.08)" 	
						fill="rgb(13,142,126)" /><use xlink:href="#leaf1"
						x="46.292" y="68.08" 
						transform="rotate(90 46.972 68.79)" 	
						fill="rgb(0,147,109)" /><use xlink:href="#leaf1"
						x="46.292" y="68.08" 
						transform="rotate(89 46.802 68.6)" 	
						fill="rgb(14,145,104)" /><use xlink:href="#leaf2"
						x="46.292" y="68.08" 
						transform="rotate(92 47.202 68.41)" 	
						fill="rgb(36,170,101)" /><use xlink:href="#leaf3"
						x="46.292" y="68.08" 
						transform="rotate(16 46.292 68.08)" 	
						fill="rgb(26,146,115)" />
					<g>
					<path d ="M 46.292,68.08 
					a 97 776 12.12 0 0 -10.116,4.38" fill ="none" stroke ="rgb(20.5,36.5,116.5)" stroke-width ="0.963"/></g><circle cx="36.176" cy="72.46" r="0.24075" stroke="rgb(25.5,41.5,121.5)" fill="rgb(20.5,36.5,116.5)"/><use xlink:href="#leaf3"
						x="36.176" y="72.46" 
						transform="rotate(28 36.176 72.46)" 	
						fill="rgb(1,145,90)" /><use xlink:href="#leaf4"
						x="36.176" y="72.46" 
						transform="rotate(-92 36.176 72.46)" 	
						fill="rgb(7,168,112)" /><use xlink:href="#leaf2"
						x="36.176" y="72.46" 
						transform="rotate(122 36.176 72.46)" 	
						fill="rgb(0,180,98)" /><use xlink:href="#leaf2"
						x="36.176" y="72.46" 
						transform="rotate(80 36.466 72.86)" 	
						fill="rgb(36,160,113)" /><use xlink:href="#leaf1"
						x="36.176" y="72.46" 
						transform="rotate(38 36.176 72.46)" 	
						fill="rgb(7,151,96)" /><use xlink:href="#leaf4"
						x="36.176" y="72.46" 
						transform="rotate(-85 36.176 72.46)" 	
						fill="rgb(35,171,127)" /><use xlink:href="#leaf1"
						x="36.176" y="72.46" 
						transform="rotate(152 36.176 72.46)" 	
						fill="rgb(31,164,91)" /><use xlink:href="#leaf3"
						x="36.176" y="72.46" 
						transform="rotate(-145 36.176 72.46)" 	
						fill="rgb(0,152,120)" /><use xlink:href="#leaf2"
						x="36.176" y="72.46" 
						transform="rotate(-86 36.176 72.46)" 	
						fill="rgb(6,147,96)" />
					<g>
					<path d ="M 46.292,68.08 
					a 53 530 15.51 0 0 8.712,1.824" fill ="none" stroke ="rgb(20.5,39.5,119.5)" stroke-width ="0.963"/></g><circle cx="55.004" cy="69.904" r="0.24075" stroke="rgb(25.5,44.5,124.5)" fill="rgb(20.5,39.5,119.5)"/><use xlink:href="#leaf1"
						x="55.004" y="69.904" 
						transform="rotate(-173 55.004 69.904)" 	
						fill="rgb(1,143,94)" /><use xlink:href="#leaf3"
						x="55.004" y="69.904" 
						transform="rotate(-108 55.004 69.904)" 	
						fill="rgb(17,153,119)" /><use xlink:href="#leaf4"
						x="55.004" y="69.904" 
						transform="rotate(19 55.004 69.904)" 	
						fill="rgb(7,149,112)" /><use xlink:href="#leaf2"
						x="55.004" y="69.904" 
						transform="rotate(136 55.324 70.294)" 	
						fill="rgb(0,179,103)" /><use xlink:href="#leaf2"
						x="55.004" y="69.904" 
						transform="rotate(-159 55.004 69.904)" 	
						fill="rgb(2,151,114)" />
					<g>
					<path d ="M 46.292,68.08 
					a 65 130 -3.60 0 1 -12.396,4.584" fill ="none" stroke ="rgb(22.5,42.5,121.5)" stroke-width ="0.963"/></g><circle cx="33.896" cy="72.664" r="0.24075" stroke="rgb(27.5,47.5,126.5)" fill="rgb(22.5,42.5,121.5)"/><use xlink:href="#leaf4"
						x="33.896" y="72.664" 
						transform="rotate(86 34.276 73.354)" 	
						fill="rgb(7,181,120)" /><use xlink:href="#leaf2"
						x="33.896" y="72.664" 
						transform="rotate(-145 34.416 72.764)" 	
						fill="rgb(29,145,99)" /><use xlink:href="#leaf1"
						x="33.896" y="72.664" 
						transform="rotate(-134 34.016 73.314)" 	
						fill="rgb(19,174,92)" /><use xlink:href="#leaf2"
						x="33.896" y="72.664" 
						transform="rotate(118 33.976 72.704)" 	
						fill="rgb(17,149,114)" /><use xlink:href="#leaf4"
						x="33.896" y="72.664" 
						transform="rotate(-115 34.226 73.094)" 	
						fill="rgb(10,168,101)" /><use xlink:href="#leaf3"
						x="33.896" y="72.664" 
						transform="rotate(-69 34.386 72.954)" 	
						fill="rgb(34,163,124)" /><use xlink:href="#leaf1"
						x="33.896" y="72.664" 
						transform="rotate(67 33.896 72.664)" 	
						fill="rgb(10,181,122)" /><use xlink:href="#leaf4"
						x="33.896" y="72.664" 
						transform="rotate(-140 34.506 73.224)" 	
						fill="rgb(9,180,97)" /><use xlink:href="#leaf2"
						x="33.896" y="72.664" 
						transform="rotate(5 33.896 72.664)" 	
						fill="rgb(10,164,102)" /><use xlink:href="#leaf4"
						x="33.896" y="72.664" 
						transform="rotate(-79 33.896 72.664)" 	
						fill="rgb(19,153,117)" /><use xlink:href="#leaf2"
						x="33.896" y="72.664" 
						transform="rotate(-52 34.496 73.214)" 	
						fill="rgb(36,146,110)" />
					<g>
					<path d ="M 46.292,68.08 
					a 75 300 2.93 0 0 5.964,-3.024" fill ="none" stroke ="rgb(23.5,45.5,120.5)" stroke-width ="0.963"/></g><circle cx="52.256" cy="65.056" r="0.24075" stroke="rgb(28.5,50.5,125.5)" fill="rgb(23.5,45.5,120.5)"/><use xlink:href="#leaf1"
						x="52.256" y="65.056" 
						transform="rotate(-109 52.596 65.256)" 	
						fill="rgb(36,144,118)" /><use xlink:href="#leaf1"
						x="52.256" y="65.056" 
						transform="rotate(34 52.256 65.056)" 	
						fill="rgb(3,142,122)" /><use xlink:href="#leaf2"
						x="52.256" y="65.056" 
						transform="rotate(-63 52.256 65.056)" 	
						fill="rgb(30,179,90)" /><use xlink:href="#leaf2"
						x="52.256" y="65.056" 
						transform="rotate(54 52.356 65.816)" 	
						fill="rgb(22,176,115)" /><use xlink:href="#leaf2"
						x="52.256" y="65.056" 
						transform="rotate(-60 52.256 65.056)" 	
						fill="rgb(4,160,98)" /><use xlink:href="#leaf1"
						x="52.256" y="65.056" 
						transform="rotate(153 52.406 65.686)" 	
						fill="rgb(10,141,106)" /><use xlink:href="#leaf1"
						x="52.256" y="65.056" 
						transform="rotate(52 52.256 65.056)" 	
						fill="rgb(8,173,118)" /><use xlink:href="#leaf4"
						x="52.256" y="65.056" 
						transform="rotate(-158 52.986 65.676)" 	
						fill="rgb(26,169,111)" /><use xlink:href="#leaf3"
						x="52.256" y="65.056" 
						transform="rotate(-127 52.256 65.056)" 	
						fill="rgb(19,161,109)" /><use xlink:href="#leaf3"
						x="52.256" y="65.056" 
						transform="rotate(74 52.256 65.056)" 	
						fill="rgb(0,141,117)" />
					<g>
					<path d ="M 46.292,68.08 
					a 59 118 15.7 0 1 -4.032,-6.648" fill ="none" stroke ="rgb(24.5,46.5,122.5)" stroke-width ="0.963"/></g><circle cx="42.26" cy="61.432" r="0.24075" stroke="rgb(29.5,51.5,127.5)" fill="rgb(24.5,46.5,122.5)"/><use xlink:href="#leaf4"
						x="42.26" y="61.432" 
						transform="rotate(-90 42.94 62.212)" 	
						fill="rgb(36,177,110)" /><use xlink:href="#leaf3"
						x="42.26" y="61.432" 
						transform="rotate(-160 42.26 61.432)" 	
						fill="rgb(32,161,112)" /><use xlink:href="#leaf3"
						x="42.26" y="61.432" 
						transform="rotate(-52 42.26 61.432)" 	
						fill="rgb(12,164,115)" /><use xlink:href="#leaf2"
						x="42.26" y="61.432" 
						transform="rotate(-13 42.26 61.432)" 	
						fill="rgb(27,168,115)" /><use xlink:href="#leaf2"
						x="42.26" y="61.432" 
						transform="rotate(-52 42.29 61.482)" 	
						fill="rgb(28,176,118)" />
					<g>
					<path d ="M 42.26,61.432 
					a 67 134 15.61 0 0 6.936,2.556" fill ="none" stroke ="rgb(25,50,126)" stroke-width ="0.642"/></g><circle cx="49.196" cy="63.988" r="0.1605" stroke="rgb(30,55,131)" fill="rgb(25,50,126)"/><use xlink:href="#leaf4"
						x="49.196" y="63.988" 
						transform="rotate(-81 49.196 63.988)" 	
						fill="rgb(25,158,91)" /><use xlink:href="#leaf4"
						x="49.196" y="63.988" 
						transform="rotate(81 49.316 64.918)" 	
						fill="rgb(19,162,119)" /><use xlink:href="#leaf1"
						x="49.196" y="63.988" 
						transform="rotate(-118 49.196 63.988)" 	
						fill="rgb(25,165,99)" /><use xlink:href="#leaf5"
						x="49.196" y="63.988" 
						transform="rotate(-69 49.196 63.988)" 	
						fill="rgb(26,143,114)" />
					<g>
					<path d ="M 42.26,61.432 
					a 94 752 -8.29 0 1 1.404,-5.892" fill ="none" stroke ="rgb(28.5,52.5,128.5)" stroke-width ="0.642"/></g><circle cx="43.664" cy="55.54" r="0.1605" stroke="rgb(33.5,57.5,133.5)" fill="rgb(28.5,52.5,128.5)"/><use xlink:href="#leaf4"
						x="43.664" y="55.54" 
						transform="rotate(174 44.634 56.06)" 	
						fill="rgb(22,177,123)" /><use xlink:href="#leaf2"
						x="43.664" y="55.54" 
						transform="rotate(152 44.014 55.68)" 	
						fill="rgb(20,174,100)" /><use xlink:href="#leaf5"
						x="43.664" y="55.54" 
						transform="rotate(-109 43.664 55.54)" 	
						fill="rgb(19,169,97)" /><use xlink:href="#leaf2"
						x="43.664" y="55.54" 
						transform="rotate(114 43.764 56.37)" 	
						fill="rgb(34,150,122)" /><use xlink:href="#flower2" id="fleur170"
							x="43.664" y="55.54" 
							transform="rotate(-143 43.664 55.54)" />
					<g>
					<path d ="M 42.26,61.432 
					a 88 88 -10.71 0 0 -10.956,3.468" fill ="none" stroke ="rgb(29,56,132)" stroke-width ="0.642"/></g><circle cx="31.304" cy="64.9" r="0.1605" stroke="rgb(34,61,137)" fill="rgb(29,56,132)"/><use xlink:href="#leaf5"
						x="31.304" y="64.9" 
						transform="rotate(65 31.904 65.72)" 	
						fill="rgb(29,143,127)" /><use xlink:href="#leaf4"
						x="31.304" y="64.9" 
						transform="rotate(126 31.434 65.49)" 	
						fill="rgb(13,159,100)" /><use xlink:href="#leaf4"
						x="31.304" y="64.9" 
						transform="rotate(-124 32.244 65.06)" 	
						fill="rgb(4,175,105)" /><use xlink:href="#leaf5"
						x="31.304" y="64.9" 
						transform="rotate(157 31.744 65.27)" 	
						fill="rgb(18,141,88)" /><use xlink:href="#leaf1"
						x="31.304" y="64.9" 
						transform="rotate(35 31.304 64.9)" 	
						fill="rgb(9,144,102)" /><use xlink:href="#leaf2"
						x="31.304" y="64.9" 
						transform="rotate(-169 31.304 64.9)" 	
						fill="rgb(0,145,111)" /><use xlink:href="#leaf3"
						x="31.304" y="64.9" 
						transform="rotate(-104 31.974 65.81)" 	
						fill="rgb(30,178,96)" /><use xlink:href="#leaf4"
						x="31.304" y="64.9" 
						transform="rotate(-94 31.304 64.9)" 	
						fill="rgb(0,144,109)" /><use xlink:href="#leaf1"
						x="31.304" y="64.9" 
						transform="rotate(56 31.304 64.9)" 	
						fill="rgb(17,180,111)" /><use xlink:href="#leaf3"
						x="31.304" y="64.9" 
						transform="rotate(179 31.304 64.9)" 	
						fill="rgb(3,162,103)" /><use xlink:href="#leaf4"
						x="31.304" y="64.9" 
						transform="rotate(119 31.964 65.86)" 	
						fill="rgb(24,154,107)" /><use xlink:href="#flower4" id="fleur180"
							x="31.304" y="64.9" 
							transform="rotate(89 31.82 65.104)" />
					<g>
					<path d ="M 42.26,61.432 
					a 98 882 -10.73 0 1 6.864,-3.54" fill ="none" stroke ="rgb(28.5,59.5,131.5)" stroke-width ="0.642"/></g><circle cx="49.124" cy="57.892" r="0.1605" stroke="rgb(33.5,64.5,136.5)" fill="rgb(28.5,59.5,131.5)"/><use xlink:href="#leaf4"
						x="49.124" y="57.892" 
						transform="rotate(61 49.124 57.892)" 	
						fill="rgb(14,173,122)" /><use xlink:href="#leaf4"
						x="49.124" y="57.892" 
						transform="rotate(18 49.124 57.892)" 	
						fill="rgb(36,165,97)" /><use xlink:href="#leaf2"
						x="49.124" y="57.892" 
						transform="rotate(118 49.554 58.032)" 	
						fill="rgb(11,162,125)" /><use xlink:href="#leaf1"
						x="49.124" y="57.892" 
						transform="rotate(-153 49.124 57.892)" 	
						fill="rgb(33,156,100)" /><use xlink:href="#leaf2"
						x="49.124" y="57.892" 
						transform="rotate(-128 49.124 57.892)" 	
						fill="rgb(0,160,118)" /><use xlink:href="#leaf3"
						x="49.124" y="57.892" 
						transform="rotate(54 49.124 57.892)" 	
						fill="rgb(24,163,109)" /><use xlink:href="#leaf5"
						x="49.124" y="57.892" 
						transform="rotate(-144 49.124 57.892)" 	
						fill="rgb(24,151,124)" /><use xlink:href="#leaf2"
						x="49.124" y="57.892" 
						transform="rotate(-70 49.244 58.532)" 	
						fill="rgb(10,170,124)" /><use xlink:href="#leaf3"
						x="49.124" y="57.892" 
						transform="rotate(154 50.004 58.132)" 	
						fill="rgb(27,166,119)" /><use xlink:href="#leaf3"
						x="49.124" y="57.892" 
						transform="rotate(114 49.284 58.602)" 	
						fill="rgb(6,165,115)" />
					<g>
					<path d ="M 42.26,61.432 
					a 86 172 -11.13 0 1 -1.992,-6.816" fill ="none" stroke ="rgb(30,61,135)" stroke-width ="0.642"/></g><circle cx="40.268" cy="54.616" r="0.1605" stroke="rgb(35,66,140)" fill="rgb(30,61,135)"/><use xlink:href="#leaf3"
						x="40.268" y="54.616" 
						transform="rotate(-161 40.268 54.616)" 	
						fill="rgb(2,153,113)" /><use xlink:href="#leaf3"
						x="40.268" y="54.616" 
						transform="rotate(-177 40.268 54.616)" 	
						fill="rgb(15,174,125)" /><use xlink:href="#leaf1"
						x="40.268" y="54.616" 
						transform="rotate(15 40.268 54.616)" 	
						fill="rgb(28,146,111)" /><use xlink:href="#leaf1"
						x="40.268" y="54.616" 
						transform="rotate(-122 40.268 54.616)" 	
						fill="rgb(11,158,118)" /><use xlink:href="#leaf5"
						x="40.268" y="54.616" 
						transform="rotate(108 40.268 54.616)" 	
						fill="rgb(23,173,91)" /><use xlink:href="#leaf1"
						x="40.268" y="54.616" 
						transform="rotate(40 40.268 54.616)" 	
						fill="rgb(29,146,125)" /><use xlink:href="#leaf5"
						x="40.268" y="54.616" 
						transform="rotate(64 40.268 54.616)" 	
						fill="rgb(33,154,97)" /><use xlink:href="#leaf2"
						x="40.268" y="54.616" 
						transform="rotate(-83 40.268 54.616)" 	
						fill="rgb(18,146,103)" /><use xlink:href="#leaf4"
						x="40.268" y="54.616" 
						transform="rotate(15 40.638 54.686)" 	
						fill="rgb(17,170,111)" /><use xlink:href="#leaf1"
						x="40.268" y="54.616" 
						transform="rotate(-157 41.138 55.426)" 	
						fill="rgb(0,169,95)" /><use xlink:href="#flower1" id="fleur200"
							x="40.268" y="54.616" 
							transform="rotate(-176 40.268 54.616)" />
					<g>
					<path d ="M 40.268,54.616 
					a 95 380 -20.2 0 1 7.776,-4.344" fill ="none" stroke ="rgb(30,64,136)" stroke-width ="0.4815"/></g><circle cx="48.044" cy="50.272" r="0.120375" stroke="rgb(35,69,141)" fill="rgb(30,64,136)"/><use xlink:href="#leaf5"
						x="48.044" y="50.272" 
						transform="rotate(-111 48.704 51.172)" 	
						fill="rgb(31,149,112)" /><use xlink:href="#leaf6"
						x="48.044" y="50.272" 
						transform="rotate(-20 48.044 50.272)" 	
						fill="rgb(15,157,124)" /><use xlink:href="#leaf5"
						x="48.044" y="50.272" 
						transform="rotate(-178 48.044 50.272)" 	
						fill="rgb(14,168,118)" /><use xlink:href="#leaf6"
						x="48.044" y="50.272" 
						transform="rotate(-103 48.044 50.272)" 	
						fill="rgb(22,146,110)" /><use xlink:href="#leaf3"
						x="48.044" y="50.272" 
						transform="rotate(-78 48.684 50.942)" 	
						fill="rgb(32,163,102)" /><use xlink:href="#leaf2"
						x="48.044" y="50.272" 
						transform="rotate(-15 48.044 50.272)" 	
						fill="rgb(9,180,128)" /><use xlink:href="#leaf2"
						x="48.044" y="50.272" 
						transform="rotate(-77 48.804 51.262)" 	
						fill="rgb(18,155,95)" /><use xlink:href="#leaf5"
						x="48.044" y="50.272" 
						transform="rotate(54 48.044 50.272)" 	
						fill="rgb(34,152,125)" /><use xlink:href="#flower5" id="fleur210"
							x="48.044" y="50.272" 
							transform="rotate(31 48.044 50.272)" />
					<g>
					<path d ="M 55.004,69.904 
					a 69 345 1.84 0 0 9.948,-3.48" fill ="none" stroke ="rgb(32.5,66.5,135.5)" stroke-width ="0.642"/></g><circle cx="64.952" cy="66.424" r="0.1605" stroke="rgb(37.5,71.5,140.5)" fill="rgb(32.5,66.5,135.5)"/><use xlink:href="#leaf3"
						x="64.952" y="66.424" 
						transform="rotate(0 64.952 66.424)" 	
						fill="rgb(23,166,112)" /><use xlink:href="#leaf5"
						x="64.952" y="66.424" 
						transform="rotate(85 65.492 67.084)" 	
						fill="rgb(13,143,94)" /><use xlink:href="#leaf4"
						x="64.952" y="66.424" 
						transform="rotate(151 65.832 67.254)" 	
						fill="rgb(9,167,115)" /><use xlink:href="#leaf3"
						x="64.952" y="66.424" 
						transform="rotate(149 65.222 66.904)" 	
						fill="rgb(6,151,95)" />
					<g>
					<path d ="M 55.004,69.904 
					a 65 130 -4.83 0 1 -10.2,2.016" fill ="none" stroke ="rgb(35,70,136)" stroke-width ="0.642"/></g><circle cx="44.804" cy="71.92" r="0.1605" stroke="rgb(40,75,141)" fill="rgb(35,70,136)"/><use xlink:href="#leaf1"
						x="44.804" y="71.92" 
						transform="rotate(175 45.774 72.06)" 	
						fill="rgb(27,145,105)" /><use xlink:href="#leaf2"
						x="44.804" y="71.92" 
						transform="rotate(79 44.804 71.92)" 	
						fill="rgb(18,166,125)" /><use xlink:href="#leaf4"
						x="44.804" y="71.92" 
						transform="rotate(-54 44.804 71.92)" 	
						fill="rgb(21,153,125)" /><use xlink:href="#leaf3"
						x="44.804" y="71.92" 
						transform="rotate(63 44.804 71.92)" 	
						fill="rgb(5,158,94)" /><use xlink:href="#leaf4"
						x="44.804" y="71.92" 
						transform="rotate(25 45.394 71.93)" 	
						fill="rgb(0,159,109)" /><use xlink:href="#leaf3"
						x="44.804" y="71.92" 
						transform="rotate(7 44.804 71.92)" 	
						fill="rgb(33,179,110)" /><use xlink:href="#leaf3"
						x="44.804" y="71.92" 
						transform="rotate(-35 44.804 71.92)" 	
						fill="rgb(4,158,105)" /><use xlink:href="#leaf2"
						x="44.804" y="71.92" 
						transform="rotate(63 44.804 71.92)" 	
						fill="rgb(38,178,91)" /><use xlink:href="#leaf2"
						x="44.804" y="71.92" 
						transform="rotate(-55 45.134 72.08)" 	
						fill="rgb(3,174,96)" /><use xlink:href="#leaf1"
						x="44.804" y="71.92" 
						transform="rotate(-41 44.804 71.92)" 	
						fill="rgb(0,159,101)" />
					<g>
					<path d ="M 55.004,69.904 
					a 64 384 6.89 0 1 12.432,-7.632" fill ="none" stroke ="rgb(37.5,71.5,136.5)" stroke-width ="0.642"/></g><circle cx="67.436" cy="62.272" r="0.1605" stroke="rgb(42.5,76.5,141.5)" fill="rgb(37.5,71.5,136.5)"/><use xlink:href="#leaf4"
						x="67.436" y="62.272" 
						transform="rotate(38 67.436 62.272)" 	
						fill="rgb(10,159,101)" /><use xlink:href="#leaf2"
						x="67.436" y="62.272" 
						transform="rotate(-91 67.436 62.272)" 	
						fill="rgb(19,180,124)" /><use xlink:href="#leaf1"
						x="67.436" y="62.272" 
						transform="rotate(-155 67.436 62.272)" 	
						fill="rgb(35,160,125)" /><use xlink:href="#leaf1"
						x="67.436" y="62.272" 
						transform="rotate(38 67.436 62.272)" 	
						fill="rgb(5,146,115)" /><use xlink:href="#leaf4"
						x="67.436" y="62.272" 
						transform="rotate(106 67.436 62.272)" 	
						fill="rgb(8,148,105)" /><use xlink:href="#leaf4"
						x="67.436" y="62.272" 
						transform="rotate(135 67.436 62.272)" 	
						fill="rgb(34,168,117)" /><use xlink:href="#leaf4"
						x="67.436" y="62.272" 
						transform="rotate(-100 67.436 62.272)" 	
						fill="rgb(36,161,94)" /><use xlink:href="#leaf3"
						x="67.436" y="62.272" 
						transform="rotate(-82 67.436 62.272)" 	
						fill="rgb(27,171,123)" />
					<g>
					<path d ="M 55.004,69.904 
					a 86 172 10.13 0 1 5.856,-1.764" fill ="none" stroke ="rgb(40,71,137)" stroke-width ="0.642"/></g><circle cx="60.86" cy="68.14" r="0.1605" stroke="rgb(45,76,142)" fill="rgb(40,71,137)"/><use xlink:href="#leaf4"
						x="60.86" y="68.14" 
						transform="rotate(116 60.86 68.14)" 	
						fill="rgb(27,143,118)" /><use xlink:href="#leaf5"
						x="60.86" y="68.14" 
						transform="rotate(-88 60.86 68.14)" 	
						fill="rgb(32,155,98)" /><use xlink:href="#leaf1"
						x="60.86" y="68.14" 
						transform="rotate(11 60.86 68.14)" 	
						fill="rgb(28,151,115)" /><use xlink:href="#leaf4"
						x="60.86" y="68.14" 
						transform="rotate(-79 61.32 68.86)" 	
						fill="rgb(26,159,110)" /><use xlink:href="#leaf1"
						x="60.86" y="68.14" 
						transform="rotate(-41 60.86 68.14)" 	
						fill="rgb(1,178,112)" /><use xlink:href="#leaf3"
						x="60.86" y="68.14" 
						transform="rotate(-60 60.86 68.14)" 	
						fill="rgb(32,149,93)" /><use xlink:href="#leaf5"
						x="60.86" y="68.14" 
						transform="rotate(-160 60.86 68.14)" 	
						fill="rgb(33,150,127)" /><use xlink:href="#leaf3"
						x="60.86" y="68.14" 
						transform="rotate(65 60.86 68.14)" 	
						fill="rgb(38,143,118)" /><use xlink:href="#leaf4"
						x="60.86" y="68.14" 
						transform="rotate(-133 60.86 68.14)" 	
						fill="rgb(38,169,110)" /><use xlink:href="#flower4" id="fleur250"
							x="60.86" y="68.14" 
							transform="rotate(-14 61.64 68.956)" />
					<g>
					<path d ="M 60.86,68.14 
					a 92 92 9.99 0 1 1.572,0.744" fill ="none" stroke ="rgb(40,75,141)" stroke-width ="0.4815"/></g><circle cx="62.432" cy="68.884" r="0.120375" stroke="rgb(45,80,146)" fill="rgb(40,75,141)"/><use xlink:href="#leaf2"
						x="62.432" y="68.884" 
						transform="rotate(111 62.432 68.884)" 	
						fill="rgb(10,143,110)" /><use xlink:href="#leaf6"
						x="62.432" y="68.884" 
						transform="rotate(-109 62.432 68.884)" 	
						fill="rgb(28,146,89)" /><use xlink:href="#leaf2"
						x="62.432" y="68.884" 
						transform="rotate(175 62.812 69.094)" 	
						fill="rgb(35,143,119)" /><use xlink:href="#leaf4"
						x="62.432" y="68.884" 
						transform="rotate(-126 62.432 68.884)" 	
						fill="rgb(13,158,103)" /><use xlink:href="#leaf5"
						x="62.432" y="68.884" 
						transform="rotate(-144 62.432 68.884)" 	
						fill="rgb(33,167,122)" /><use xlink:href="#leaf2"
						x="62.432" y="68.884" 
						transform="rotate(-141 62.432 68.884)" 	
						fill="rgb(21,150,101)" /><use xlink:href="#leaf4"
						x="62.432" y="68.884" 
						transform="rotate(-66 62.432 68.884)" 	
						fill="rgb(19,175,116)" /><use xlink:href="#leaf5"
						x="62.432" y="68.884" 
						transform="rotate(-152 62.432 68.884)" 	
						fill="rgb(38,168,97)" /><use xlink:href="#leaf4"
						x="62.432" y="68.884" 
						transform="rotate(-29 62.432 68.884)" 	
						fill="rgb(25,158,92)" /><use xlink:href="#leaf4"
						x="62.432" y="68.884" 
						transform="rotate(-127 63.132 69.114)" 	
						fill="rgb(4,169,123)" /><use xlink:href="#flower4" id="fleur260"
							x="62.432" y="68.884" 
							transform="rotate(12 62.432 68.884)" />
					<g>
					<path d ="M 60.86,68.14 
					a 76 304 -10.79 0 0 7.32,-5.484" fill ="none" stroke ="rgb(42,77,144)" stroke-width ="0.4815"/></g><circle cx="68.18" cy="62.656" r="0.120375" stroke="rgb(47,82,149)" fill="rgb(42,77,144)"/><use xlink:href="#leaf4"
						x="68.18" y="62.656" 
						transform="rotate(-152 68.18 62.656)" 	
						fill="rgb(35,143,115)" /><use xlink:href="#leaf6"
						x="68.18" y="62.656" 
						transform="rotate(65 68.18 62.656)" 	
						fill="rgb(1,154,119)" /><use xlink:href="#leaf4"
						x="68.18" y="62.656" 
						transform="rotate(151 68.63 63.176)" 	
						fill="rgb(31,158,105)" /><use xlink:href="#leaf2"
						x="68.18" y="62.656" 
						transform="rotate(-20 69.08 63.446)" 	
						fill="rgb(35,141,115)" />
					<g>
					<path d ="M 60.86,68.14 
					a 64 512 -16.79 0 1 5.748,3.984" fill ="none" stroke ="rgb(45,80,145)" stroke-width ="0.4815"/></g><circle cx="66.608" cy="72.124" r="0.120375" stroke="rgb(50,85,150)" fill="rgb(45,80,145)"/><use xlink:href="#leaf6"
						x="66.608" y="72.124" 
						transform="rotate(171 66.608 72.124)" 	
						fill="rgb(12,165,108)" /><use xlink:href="#leaf4"
						x="66.608" y="72.124" 
						transform="rotate(134 66.608 72.124)" 	
						fill="rgb(18,174,94)" /><use xlink:href="#leaf6"
						x="66.608" y="72.124" 
						transform="rotate(37 67.398 72.134)" 	
						fill="rgb(22,142,100)" /><use xlink:href="#leaf4"
						x="66.608" y="72.124" 
						transform="rotate(78 66.608 72.124)" 	
						fill="rgb(4,172,125)" /><use xlink:href="#leaf2"
						x="66.608" y="72.124" 
						transform="rotate(96 66.608 72.124)" 	
						fill="rgb(25,145,108)" /><use xlink:href="#leaf5"
						x="66.608" y="72.124" 
						transform="rotate(95 67.058 72.974)" 	
						fill="rgb(37,175,105)" /><use xlink:href="#leaf5"
						x="66.608" y="72.124" 
						transform="rotate(-178 66.608 72.124)" 	
						fill="rgb(2,160,111)" /><use xlink:href="#leaf3"
						x="66.608" y="72.124" 
						transform="rotate(-70 67.448 72.394)" 	
						fill="rgb(35,147,126)" /><use xlink:href="#leaf3"
						x="66.608" y="72.124" 
						transform="rotate(-136 66.608 72.124)" 	
						fill="rgb(31,155,118)" /><use xlink:href="#leaf2"
						x="66.608" y="72.124" 
						transform="rotate(71 66.608 72.124)" 	
						fill="rgb(8,162,124)" />
					<g>
					<path d ="M 60.86,68.14 
					a 95 475 7.60 0 1 6.936,3.024" fill ="none" stroke ="rgb(47,82,146)" stroke-width ="0.4815"/></g><circle cx="67.796" cy="71.164" r="0.120375" stroke="rgb(52,87,151)" fill="rgb(47,82,146)"/><use xlink:href="#leaf5"
						x="67.796" y="71.164" 
						transform="rotate(-5 68.676 71.874)" 	
						fill="rgb(34,174,107)" /><use xlink:href="#leaf5"
						x="67.796" y="71.164" 
						transform="rotate(-120 67.796 71.164)" 	
						fill="rgb(15,181,96)" /><use xlink:href="#leaf2"
						x="67.796" y="71.164" 
						transform="rotate(-12 67.996 71.524)" 	
						fill="rgb(7,150,111)" /><use xlink:href="#leaf3"
						x="67.796" y="71.164" 
						transform="rotate(109 67.996 71.324)" 	
						fill="rgb(35,147,104)" /><use xlink:href="#flower3" id="fleur290"
							x="67.796" y="71.164" 
							transform="rotate(-74 67.796 71.164)" />
					<g>
					<path d ="M 60.86,68.14 
					a 90 180 5.71 0 0 0.66,-5.88" fill ="none" stroke ="rgb(48,84,148)" stroke-width ="0.4815"/></g><circle cx="61.52" cy="62.26" r="0.120375" stroke="rgb(53,89,153)" fill="rgb(48,84,148)"/><use xlink:href="#leaf6"
						x="61.52" y="62.26" 
						transform="rotate(-172 61.52 62.26)" 	
						fill="rgb(6,163,90)" /><use xlink:href="#leaf3"
						x="61.52" y="62.26" 
						transform="rotate(156 61.87 62.45)" 	
						fill="rgb(32,170,127)" /><use xlink:href="#leaf4"
						x="61.52" y="62.26" 
						transform="rotate(-21 61.52 62.26)" 	
						fill="rgb(2,181,99)" /><use xlink:href="#leaf4"
						x="61.52" y="62.26" 
						transform="rotate(86 61.93 62.7)" 	
						fill="rgb(28,178,118)" /><use xlink:href="#leaf5"
						x="61.52" y="62.26" 
						transform="rotate(-47 61.52 62.26)" 	
						fill="rgb(17,143,99)" /><use xlink:href="#leaf5"
						x="61.52" y="62.26" 
						transform="rotate(-69 61.52 62.26)" 	
						fill="rgb(27,173,113)" /><use xlink:href="#flower5" id="fleur300"
							x="61.52" y="62.26" 
							transform="rotate(167 61.58 62.584)" />
					<g>
					<path d ="M 46.292,68.08 
					a 58 174 15.63 0 0 9.864,-1.452" fill ="none" stroke ="rgb(49,83,150)" stroke-width ="0.963"/></g><circle cx="56.156" cy="66.628" r="0.24075" stroke="rgb(54,88,155)" fill="rgb(49,83,150)"/><use xlink:href="#leaf3"
						x="56.156" y="66.628" 
						transform="rotate(-141 56.216 66.818)" 	
						fill="rgb(32,163,102)" /><use xlink:href="#leaf1"
						x="56.156" y="66.628" 
						transform="rotate(7 56.156 66.628)" 	
						fill="rgb(31,152,104)" /><use xlink:href="#leaf1"
						x="56.156" y="66.628" 
						transform="rotate(84 57.026 67.348)" 	
						fill="rgb(27,181,120)" /><use xlink:href="#leaf1"
						x="56.156" y="66.628" 
						transform="rotate(178 56.156 66.628)" 	
						fill="rgb(4,148,119)" /><use xlink:href="#leaf2"
						x="56.156" y="66.628" 
						transform="rotate(171 57.136 67.238)" 	
						fill="rgb(16,171,89)" /><use xlink:href="#leaf3"
						x="56.156" y="66.628" 
						transform="rotate(-140 57.096 67.388)" 	
						fill="rgb(34,169,111)" /><use xlink:href="#leaf3"
						x="56.156" y="66.628" 
						transform="rotate(-137 56.176 67.218)" 	
						fill="rgb(5,151,101)" /><use xlink:href="#leaf1"
						x="56.156" y="66.628" 
						transform="rotate(123 57.146 67.318)" 	
						fill="rgb(33,145,93)" /><use xlink:href="#leaf3"
						x="56.156" y="66.628" 
						transform="rotate(19 56.156 66.628)" 	
						fill="rgb(27,179,97)" /><use xlink:href="#leaf4"
						x="56.156" y="66.628" 
						transform="rotate(-131 56.156 66.628)" 	
						fill="rgb(0,154,127)" /><use xlink:href="#leaf1"
						x="56.156" y="66.628" 
						transform="rotate(67 56.576 66.738)" 	
						fill="rgb(35,171,106)" />
					<g>
					<path d ="M 46.292,68.08 
					a 81 486 -6.67 0 0 3.72,-2.22" fill ="none" stroke ="rgb(52,85,152)" stroke-width ="0.963"/></g><circle cx="50.012" cy="65.86" r="0.24075" stroke="rgb(57,90,157)" fill="rgb(52,85,152)"/><use xlink:href="#leaf2"
						x="50.012" y="65.86" 
						transform="rotate(-31 50.012 65.86)" 	
						fill="rgb(33,151,115)" /><use xlink:href="#leaf2"
						x="50.012" y="65.86" 
						transform="rotate(-131 50.012 65.86)" 	
						fill="rgb(4,158,89)" /><use xlink:href="#leaf1"
						x="50.012" y="65.86" 
						transform="rotate(148 50.012 65.86)" 	
						fill="rgb(15,174,114)" /><use xlink:href="#leaf1"
						x="50.012" y="65.86" 
						transform="rotate(54 50.012 65.86)" 	
						fill="rgb(13,178,96)" /><use xlink:href="#leaf2"
						x="50.012" y="65.86" 
						transform="rotate(68 50.012 65.86)" 	
						fill="rgb(2,166,120)" />
					<g>
					<path d ="M 46.292,68.08 
					a 92 552 -15.36 0 0 -8.316,-3.276" fill ="none" stroke ="rgb(51,88,152)" stroke-width ="0.963"/></g><circle cx="37.976" cy="64.804" r="0.24075" stroke="rgb(56,93,157)" fill="rgb(51,88,152)"/><use xlink:href="#leaf2"
						x="37.976" y="64.804" 
						transform="rotate(-168 37.976 64.804)" 	
						fill="rgb(38,165,111)" /><use xlink:href="#leaf3"
						x="37.976" y="64.804" 
						transform="rotate(82 37.976 64.804)" 	
						fill="rgb(1,158,125)" /><use xlink:href="#leaf2"
						x="37.976" y="64.804" 
						transform="rotate(11 37.976 64.804)" 	
						fill="rgb(29,159,110)" /><use xlink:href="#leaf2"
						x="37.976" y="64.804" 
						transform="rotate(-67 38.436 64.974)" 	
						fill="rgb(7,155,90)" /></g>
				</svg>