<svg class="relie" xmlns="http://www.w3.org/2000/svg" viewBox="0 0 100 100" preserveAspectRatio="xMidYMid meet" x="0" y="0" overflow="visible" xmlns:xlink="http://www.w3.org/1999/xlink">

		<defs>  <g id="leaf1" transform="skewX(1) skewY(1)"><path d="M 0,0 
					q 0.0375 0.0625 0.125,0.465 q 0.0625 0.1125 0.125,0.425 q 0.05 0.1125 -0.25,1 
					M 0,0 
					q -0.0375 0.0625 -0.125,0.465 q -0.0625 0.1125 -0.125,0.425 q -0.05 0.1125 0.25,1 " 
					stroke-width ="0.2" /></g>  <g id="leaf2" transform="skewX(-3) skewY(-3)"><path d="M 0,0 
					q 0.075 0.125 0.25,0.93 q 0.125 0.225 0.25,0.85 q 0.1 0.225 -0.5,1.22 
					M 0,0 
					q -0.075 0.125 -0.25,0.93 q -0.125 0.225 -0.25,0.85 q -0.1 0.225 0.5,1.22 " 
					stroke-width ="0.2" /></g>  <g id="leaf3" transform="skewX(2) skewY(2)"><path d="M 0,0 
					q 0.1125 0.1875 0.375,1.395 q 0.1875 0.3375 0.375,1.275 q 0.15 0.3375 -0.75,1.83 
					M 0,0 
					q -0.1125 0.1875 -0.375,1.395 q -0.1875 0.3375 -0.375,1.275 q -0.15 0.3375 0.75,1.83 " 
					stroke-width ="0.2" /></g>  <g id="leaf4" transform="skewX(-18) skewY(-18)"><path d="M 0,0 
					q 0.15 0.25 0.5,1.86 q 0.25 0.45 0.5,1.7 q 0.2 0.45 -1,2.44 
					M 0,0 
					q -0.15 0.25 -0.5,1.86 q -0.25 0.45 -0.5,1.7 q -0.2 0.45 1,2.44 " 
					stroke-width ="0.2" /></g>  <g id="leaf5" transform="skewX(-7) skewY(-7)"><path d="M 0,0 
					q 0.1875 0.3125 0.625,2.325 q 0.3125 0.5625 0.625,2.125 q 0.25 0.5625 -1.25,3.05 
					M 0,0 
					q -0.1875 0.3125 -0.625,2.325 q -0.3125 0.5625 -0.625,2.125 q -0.25 0.5625 1.25,3.05 " 
					stroke-width ="0.2" /></g>  <g id="leaf6" transform="skewX(14) skewY(14)"><path d="M 0,0 
					q 0.225 0.375 0.75,2.79 q 0.375 0.675 0.75,2.55 q 0.3 0.675 -1.5,3.66 
					M 0,0 
					q -0.225 0.375 -0.75,2.79 q -0.375 0.675 -0.75,2.55 q -0.3 0.675 1.5,3.66 " 
					stroke-width ="0.2" /></g>  <g id="leaf7" transform="skewX(-12) skewY(-12)"><path d="M 0,0 
					q 0.2625 0.4375 0.875,3.255 q 0.4375 0.7875 0.875,2.975 q 0.35 0.7875 -1.75,4.27 
					M 0,0 
					q -0.2625 0.4375 -0.875,3.255 q -0.4375 0.7875 -0.875,2.975 q -0.35 0.7875 1.75,4.27 " 
					stroke-width ="0.2" /></g>  <g id="leaf8" transform="skewX(-5) skewY(-5)"><path d="M 0,0 
					q 0.3 0.5 1,3.72 q 0.5 0.9 1,3.4 q 0.4 0.9 -2,4.88 
					M 0,0 
					q -0.3 0.5 -1,3.72 q -0.5 0.9 -1,3.4 q -0.4 0.9 2,4.88 " 
					stroke-width ="0.2" /></g><g id="flower1" transform="skewX(-4) skewY(-4)">
						<path d="M 0,0
						Q 1.41,0.375 0,0.825"
						stroke="rgb(108,56,187)" 
						fill="transparent"
						stroke-width ="0.3" /><path d="M 0,0.825 
						q 0.28375 -0.2525 0.125,0.415 q 0.40875 -0.28 0.25,0.135 q 0.28375 0.33875 -0.375,1 
						M 0,0.825 
						q -0.28375 -0.2525 -0.125,0.415 q -0.40875 -0.28 -0.25,0.135 q -0.28375 0.33875 0.375,1 " 
						transform="rotate(0 0,0.825 )"
						stroke-width ="0.1"
						fill="rgb(29,39,146)"
						/><circle cx="0" cy="0.825" r="0.3" fill="rgb(164,165,35)"/><circle cx="-0.09" cy="0.735" r="0.2" fill="rgb(182.5,169.5,54.5)"/><path d="M 0,0.825 
						q 0.28375 -0.2525 0.125,0.415 q 0.40875 -0.28 0.25,0.135 q 0.28375 0.33875 -0.375,1 
						M 0,0.825 
						q -0.28375 -0.2525 -0.125,0.415 q -0.40875 -0.28 -0.25,0.135 q -0.28375 0.33875 0.375,1 " 
						transform="rotate(77.142857142857 0,0.825 )"
						stroke-width ="0.1"
						fill="rgb(31.5,26.5,145.5)"
						/><circle cx="0" cy="0.825" r="0.3" fill="rgb(164,165,35)"/><circle cx="-0.04" cy="0.925" r="0.2" fill="rgb(182.5,169.5,54.5)"/><path d="M 0,0.825 
						q 0.28375 -0.2525 0.125,0.415 q 0.40875 -0.28 0.25,0.135 q 0.28375 0.33875 -0.375,1 
						M 0,0.825 
						q -0.28375 -0.2525 -0.125,0.415 q -0.40875 -0.28 -0.25,0.135 q -0.28375 0.33875 0.375,1 " 
						transform="rotate(154.28571428571 0,0.825 )"
						stroke-width ="0.1"
						fill="rgb(24,44,153)"
						/><circle cx="0" cy="0.825" r="0.3" fill="rgb(164,165,35)"/><circle cx="-0.06" cy="0.865" r="0.2" fill="rgb(182.5,169.5,54.5)"/><path d="M 0,0.825 
						q 0.28375 -0.2525 0.125,0.415 q 0.40875 -0.28 0.25,0.135 q 0.28375 0.33875 -0.375,1 
						M 0,0.825 
						q -0.28375 -0.2525 -0.125,0.415 q -0.40875 -0.28 -0.25,0.135 q -0.28375 0.33875 0.375,1 " 
						transform="rotate(231.42857142857 0,0.825 )"
						stroke-width ="0.1"
						fill="rgb(29.5,41.5,148.5)"
						/><circle cx="0" cy="0.825" r="0.3" fill="rgb(164,165,35)"/><circle cx="0.05" cy="0.785" r="0.2" fill="rgb(182.5,169.5,54.5)"/><path d="M 0,0.825 
						q 0.28375 -0.2525 0.125,0.415 q 0.40875 -0.28 0.25,0.135 q 0.28375 0.33875 -0.375,1 
						M 0,0.825 
						q -0.28375 -0.2525 -0.125,0.415 q -0.40875 -0.28 -0.25,0.135 q -0.28375 0.33875 0.375,1 " 
						transform="rotate(308.57142857143 0,0.825 )"
						stroke-width ="0.1"
						fill="rgb(22,28,128)"
						/><circle cx="0" cy="0.825" r="0.3" fill="rgb(164,165,35)"/><circle cx="0.08" cy="0.855" r="0.2" fill="rgb(182.5,169.5,54.5)"/><path d="M 0,0.825 
						q 0.28375 -0.2525 0.125,0.415 q 0.40875 -0.28 0.25,0.135 q 0.28375 0.33875 -0.375,1 
						M 0,0.825 
						q -0.28375 -0.2525 -0.125,0.415 q -0.40875 -0.28 -0.25,0.135 q -0.28375 0.33875 0.375,1 " 
						transform="rotate(385.71428571429 0,0.825 )"
						stroke-width ="0.1"
						fill="rgb(9.5,26.5,134.5)"
						/><circle cx="0" cy="0.825" r="0.3" fill="rgb(164,165,35)"/><circle cx="0" cy="0.805" r="0.2" fill="rgb(182.5,169.5,54.5)"/><path d="M 0,0.825 
						q 0.28375 -0.2525 0.125,0.415 q 0.40875 -0.28 0.25,0.135 q 0.28375 0.33875 -0.375,1 
						M 0,0.825 
						q -0.28375 -0.2525 -0.125,0.415 q -0.40875 -0.28 -0.25,0.135 q -0.28375 0.33875 0.375,1 " 
						transform="rotate(462.85714285714 0,0.825 )"
						stroke-width ="0.1"
						fill="rgb(11,29,126)"
						/><circle cx="0" cy="0.825" r="0.3" fill="rgb(164,165,35)"/><circle cx="0.06" cy="0.875" r="0.2" fill="rgb(182.5,169.5,54.5)"/><path d="M 0,0.825 
						q 0.28375 -0.2525 0.125,0.415 q 0.40875 -0.28 0.25,0.135 q 0.28375 0.33875 -0.375,1 
						M 0,0.825 
						q -0.28375 -0.2525 -0.125,0.415 q -0.40875 -0.28 -0.25,0.135 q -0.28375 0.33875 0.375,1 " 
						transform="rotate(540 0,0.825 )"
						stroke-width ="0.1"
						fill="rgb(9.5,20.5,131.5)"
						/><circle cx="0" cy="0.825" r="0.3" fill="rgb(164,165,35)"/><circle cx="-0.01" cy="0.885" r="0.2" fill="rgb(182.5,169.5,54.5)"/><path d="M 0,0.825 
						q 0.28375 -0.2525 0.125,0.415 q 0.40875 -0.28 0.25,0.135 q 0.28375 0.33875 -0.375,1 
						M 0,0.825 
						q -0.28375 -0.2525 -0.125,0.415 q -0.40875 -0.28 -0.25,0.135 q -0.28375 0.33875 0.375,1 " 
						transform="rotate(617.14285714286 0,0.825 )"
						stroke-width ="0.1"
						fill="rgb(21,16,129)"
						/><circle cx="0" cy="0.825" r="0.3" fill="rgb(164,165,35)"/><circle cx="0.02" cy="0.915" r="0.2" fill="rgb(182.5,169.5,54.5)"/><path d="M 0,0.825 
						q 0.28375 -0.2525 0.125,0.415 q 0.40875 -0.28 0.25,0.135 q 0.28375 0.33875 -0.375,1 
						M 0,0.825 
						q -0.28375 -0.2525 -0.125,0.415 q -0.40875 -0.28 -0.25,0.135 q -0.28375 0.33875 0.375,1 " 
						transform="rotate(694.28571428571 0,0.825 )"
						stroke-width ="0.1"
						fill="rgb(16.5,19.5,121.5)"
						/><circle cx="0" cy="0.825" r="0.3" fill="rgb(164,165,35)"/><circle cx="0" cy="0.735" r="0.2" fill="rgb(182.5,169.5,54.5)"/><path d="M 0,0.825 
						q 0.28375 -0.2525 0.125,0.415 q 0.40875 -0.28 0.25,0.135 q 0.28375 0.33875 -0.375,1 
						M 0,0.825 
						q -0.28375 -0.2525 -0.125,0.415 q -0.40875 -0.28 -0.25,0.135 q -0.28375 0.33875 0.375,1 " 
						transform="rotate(771.42857142857 0,0.825 )"
						stroke-width ="0.1"
						fill="rgb(9,24,132)"
						/><circle cx="0" cy="0.825" r="0.3" fill="rgb(164,165,35)"/><circle cx="-0.06" cy="0.865" r="0.2" fill="rgb(182.5,169.5,54.5)"/><path d="M 0,0.825 
						q 0.28375 -0.2525 0.125,0.415 q 0.40875 -0.28 0.25,0.135 q 0.28375 0.33875 -0.375,1 
						M 0,0.825 
						q -0.28375 -0.2525 -0.125,0.415 q -0.40875 -0.28 -0.25,0.135 q -0.28375 0.33875 0.375,1 " 
						transform="rotate(848.57142857143 0,0.825 )"
						stroke-width ="0.1"
						fill="rgb(4.5,4.5,116.5)"
						/><circle cx="0" cy="0.825" r="0.3" fill="rgb(164,165,35)"/><circle cx="0.01" cy="0.755" r="0.2" fill="rgb(182.5,169.5,54.5)"/><path d="M 0,0.825 
						q 0.28375 -0.2525 0.125,0.415 q 0.40875 -0.28 0.25,0.135 q 0.28375 0.33875 -0.375,1 
						M 0,0.825 
						q -0.28375 -0.2525 -0.125,0.415 q -0.40875 -0.28 -0.25,0.135 q -0.28375 0.33875 0.375,1 " 
						transform="rotate(925.71428571429 0,0.825 )"
						stroke-width ="0.1"
						fill="rgb(2,1,110)"
						/><circle cx="0" cy="0.825" r="0.3" fill="rgb(164,165,35)"/><circle cx="0" cy="0.885" r="0.2" fill="rgb(182.5,169.5,54.5)"/><path d="M 0,0.825 
						q 0.28375 -0.2525 0.125,0.415 q 0.40875 -0.28 0.25,0.135 q 0.28375 0.33875 -0.375,1 
						M 0,0.825 
						q -0.28375 -0.2525 -0.125,0.415 q -0.40875 -0.28 -0.25,0.135 q -0.28375 0.33875 0.375,1 " 
						transform="rotate(1002.8571428571 0,0.825 )"
						stroke-width ="0.1"
						fill="rgb(0,11.5,113.5)"
						/><circle cx="0" cy="0.825" r="0.3" fill="rgb(164,165,35)"/><circle cx="-0.08" cy="0.725" r="0.2" fill="rgb(182.5,169.5,54.5)"/><path d="M 0,0.825 
						q 0.28375 -0.2525 0.125,0.415 q 0.40875 -0.28 0.25,0.135 q 0.28375 0.33875 -0.375,1 
						M 0,0.825 
						q -0.28375 -0.2525 -0.125,0.415 q -0.40875 -0.28 -0.25,0.135 q -0.28375 0.33875 0.375,1 " 
						transform="rotate(1080 0,0.825 )"
						stroke-width ="0.1"
						fill="rgb(0,14,105)"
						/><circle cx="0" cy="0.825" r="0.3" fill="rgb(164,165,35)"/><circle cx="0.09" cy="0.865" r="0.2" fill="rgb(182.5,169.5,54.5)"/></g><g id="flower2" transform="skewX(10) skewY(10)">
						<path d="M 0,0
						Q 1.48,0.75 0,1.65"
						stroke="rgb(108,56,187)" 
						fill="transparent"
						stroke-width ="0.3" /><path d="M 0,1.65 
						q 0.5675 -0.505 0.25,0.83 q 0.8175 -0.56 0.5,0.27 q 0.5675 0.6775 -0.75,1 
						M 0,1.65 
						q -0.5675 -0.505 -0.25,0.83 q -0.8175 -0.56 -0.5,0.27 q -0.5675 0.6775 0.75,1 " 
						transform="rotate(0 0,1.65 )"
						stroke-width ="0.1"
						fill="rgb(33,35,141)"
						/><circle cx="0" cy="1.65" r="0.6" fill="rgb(166,162,38)"/><circle cx="-0.05" cy="1.68" r="0.4" fill="rgb(178.5,185.5,60.5)"/><path d="M 0,1.65 
						q 0.5675 -0.505 0.25,0.83 q 0.8175 -0.56 0.5,0.27 q 0.5675 0.6775 -0.75,1 
						M 0,1.65 
						q -0.5675 -0.505 -0.25,0.83 q -0.8175 -0.56 -0.5,0.27 q -0.5675 0.6775 0.75,1 " 
						transform="rotate(77.142857142857 0,1.65 )"
						stroke-width ="0.1"
						fill="rgb(19.5,28.5,153.5)"
						/><circle cx="0" cy="1.65" r="0.6" fill="rgb(166,162,38)"/><circle cx="0.05" cy="1.59" r="0.4" fill="rgb(178.5,185.5,60.5)"/><path d="M 0,1.65 
						q 0.5675 -0.505 0.25,0.83 q 0.8175 -0.56 0.5,0.27 q 0.5675 0.6775 -0.75,1 
						M 0,1.65 
						q -0.5675 -0.505 -0.25,0.83 q -0.8175 -0.56 -0.5,0.27 q -0.5675 0.6775 0.75,1 " 
						transform="rotate(154.28571428571 0,1.65 )"
						stroke-width ="0.1"
						fill="rgb(28,25,144)"
						/><circle cx="0" cy="1.65" r="0.6" fill="rgb(166,162,38)"/><circle cx="0.05" cy="1.59" r="0.4" fill="rgb(178.5,185.5,60.5)"/><path d="M 0,1.65 
						q 0.5675 -0.505 0.25,0.83 q 0.8175 -0.56 0.5,0.27 q 0.5675 0.6775 -0.75,1 
						M 0,1.65 
						q -0.5675 -0.505 -0.25,0.83 q -0.8175 -0.56 -0.5,0.27 q -0.5675 0.6775 0.75,1 " 
						transform="rotate(231.42857142857 0,1.65 )"
						stroke-width ="0.1"
						fill="rgb(27.5,27.5,132.5)"
						/><circle cx="0" cy="1.65" r="0.6" fill="rgb(166,162,38)"/><circle cx="-0.02" cy="1.56" r="0.4" fill="rgb(178.5,185.5,60.5)"/><path d="M 0,1.65 
						q 0.5675 -0.505 0.25,0.83 q 0.8175 -0.56 0.5,0.27 q 0.5675 0.6775 -0.75,1 
						M 0,1.65 
						q -0.5675 -0.505 -0.25,0.83 q -0.8175 -0.56 -0.5,0.27 q -0.5675 0.6775 0.75,1 " 
						transform="rotate(308.57142857143 0,1.65 )"
						stroke-width ="0.1"
						fill="rgb(21,29,140)"
						/><circle cx="0" cy="1.65" r="0.6" fill="rgb(166,162,38)"/><circle cx="0.1" cy="1.56" r="0.4" fill="rgb(178.5,185.5,60.5)"/><path d="M 0,1.65 
						q 0.5675 -0.505 0.25,0.83 q 0.8175 -0.56 0.5,0.27 q 0.5675 0.6775 -0.75,1 
						M 0,1.65 
						q -0.5675 -0.505 -0.25,0.83 q -0.8175 -0.56 -0.5,0.27 q -0.5675 0.6775 0.75,1 " 
						transform="rotate(385.71428571429 0,1.65 )"
						stroke-width ="0.1"
						fill="rgb(18.5,19.5,144.5)"
						/><circle cx="0" cy="1.65" r="0.6" fill="rgb(166,162,38)"/><circle cx="0.03" cy="1.73" r="0.4" fill="rgb(178.5,185.5,60.5)"/><path d="M 0,1.65 
						q 0.5675 -0.505 0.25,0.83 q 0.8175 -0.56 0.5,0.27 q 0.5675 0.6775 -0.75,1 
						M 0,1.65 
						q -0.5675 -0.505 -0.25,0.83 q -0.8175 -0.56 -0.5,0.27 q -0.5675 0.6775 0.75,1 " 
						transform="rotate(462.85714285714 0,1.65 )"
						stroke-width ="0.1"
						fill="rgb(17,27,143)"
						/><circle cx="0" cy="1.65" r="0.6" fill="rgb(166,162,38)"/><circle cx="-0.07" cy="1.69" r="0.4" fill="rgb(178.5,185.5,60.5)"/><path d="M 0,1.65 
						q 0.5675 -0.505 0.25,0.83 q 0.8175 -0.56 0.5,0.27 q 0.5675 0.6775 -0.75,1 
						M 0,1.65 
						q -0.5675 -0.505 -0.25,0.83 q -0.8175 -0.56 -0.5,0.27 q -0.5675 0.6775 0.75,1 " 
						transform="rotate(540 0,1.65 )"
						stroke-width ="0.1"
						fill="rgb(9.5,28.5,131.5)"
						/><circle cx="0" cy="1.65" r="0.6" fill="rgb(166,162,38)"/><circle cx="0.06" cy="1.69" r="0.4" fill="rgb(178.5,185.5,60.5)"/><path d="M 0,1.65 
						q 0.5675 -0.505 0.25,0.83 q 0.8175 -0.56 0.5,0.27 q 0.5675 0.6775 -0.75,1 
						M 0,1.65 
						q -0.5675 -0.505 -0.25,0.83 q -0.8175 -0.56 -0.5,0.27 q -0.5675 0.6775 0.75,1 " 
						transform="rotate(617.14285714286 0,1.65 )"
						stroke-width ="0.1"
						fill="rgb(2,21,120)"
						/><circle cx="0" cy="1.65" r="0.6" fill="rgb(166,162,38)"/><circle cx="0.02" cy="1.72" r="0.4" fill="rgb(178.5,185.5,60.5)"/><path d="M 0,1.65 
						q 0.5675 -0.505 0.25,0.83 q 0.8175 -0.56 0.5,0.27 q 0.5675 0.6775 -0.75,1 
						M 0,1.65 
						q -0.5675 -0.505 -0.25,0.83 q -0.8175 -0.56 -0.5,0.27 q -0.5675 0.6775 0.75,1 " 
						transform="rotate(694.28571428571 0,1.65 )"
						stroke-width ="0.1"
						fill="rgb(0.5,26.5,130.5)"
						/><circle cx="0" cy="1.65" r="0.6" fill="rgb(166,162,38)"/><circle cx="0.03" cy="1.55" r="0.4" fill="rgb(178.5,185.5,60.5)"/><path d="M 0,1.65 
						q 0.5675 -0.505 0.25,0.83 q 0.8175 -0.56 0.5,0.27 q 0.5675 0.6775 -0.75,1 
						M 0,1.65 
						q -0.5675 -0.505 -0.25,0.83 q -0.8175 -0.56 -0.5,0.27 q -0.5675 0.6775 0.75,1 " 
						transform="rotate(771.42857142857 0,1.65 )"
						stroke-width ="0.1"
						fill="rgb(8,5,128)"
						/><circle cx="0" cy="1.65" r="0.6" fill="rgb(166,162,38)"/><circle cx="0.06" cy="1.68" r="0.4" fill="rgb(178.5,185.5,60.5)"/><path d="M 0,1.65 
						q 0.5675 -0.505 0.25,0.83 q 0.8175 -0.56 0.5,0.27 q 0.5675 0.6775 -0.75,1 
						M 0,1.65 
						q -0.5675 -0.505 -0.25,0.83 q -0.8175 -0.56 -0.5,0.27 q -0.5675 0.6775 0.75,1 " 
						transform="rotate(848.57142857143 0,1.65 )"
						stroke-width ="0.1"
						fill="rgb(13.5,4.5,125.5)"
						/><circle cx="0" cy="1.65" r="0.6" fill="rgb(166,162,38)"/><circle cx="0.07" cy="1.57" r="0.4" fill="rgb(178.5,185.5,60.5)"/><path d="M 0,1.65 
						q 0.5675 -0.505 0.25,0.83 q 0.8175 -0.56 0.5,0.27 q 0.5675 0.6775 -0.75,1 
						M 0,1.65 
						q -0.5675 -0.505 -0.25,0.83 q -0.8175 -0.56 -0.5,0.27 q -0.5675 0.6775 0.75,1 " 
						transform="rotate(925.71428571429 0,1.65 )"
						stroke-width ="0.1"
						fill="rgb(0,10,114)"
						/><circle cx="0" cy="1.65" r="0.6" fill="rgb(166,162,38)"/><circle cx="-0.03" cy="1.65" r="0.4" fill="rgb(178.5,185.5,60.5)"/><path d="M 0,1.65 
						q 0.5675 -0.505 0.25,0.83 q 0.8175 -0.56 0.5,0.27 q 0.5675 0.6775 -0.75,1 
						M 0,1.65 
						q -0.5675 -0.505 -0.25,0.83 q -0.8175 -0.56 -0.5,0.27 q -0.5675 0.6775 0.75,1 " 
						transform="rotate(1002.8571428571 0,1.65 )"
						stroke-width ="0.1"
						fill="rgb(0,15.5,114.5)"
						/><circle cx="0" cy="1.65" r="0.6" fill="rgb(166,162,38)"/><circle cx="0.05" cy="1.73" r="0.4" fill="rgb(178.5,185.5,60.5)"/><path d="M 0,1.65 
						q 0.5675 -0.505 0.25,0.83 q 0.8175 -0.56 0.5,0.27 q 0.5675 0.6775 -0.75,1 
						M 0,1.65 
						q -0.5675 -0.505 -0.25,0.83 q -0.8175 -0.56 -0.5,0.27 q -0.5675 0.6775 0.75,1 " 
						transform="rotate(1080 0,1.65 )"
						stroke-width ="0.1"
						fill="rgb(0,10,109)"
						/><circle cx="0" cy="1.65" r="0.6" fill="rgb(166,162,38)"/><circle cx="0.09" cy="1.71" r="0.4" fill="rgb(178.5,185.5,60.5)"/></g><g id="flower3" transform="skewX(0) skewY(0)">
						<path d="M 0,0
						Q 1.32,1.125 0,2.475"
						stroke="rgb(108,56,187)" 
						fill="transparent"
						stroke-width ="0.3" /><path d="M 0,2.475 
						q 0.85125 -0.7575 0.375,1.245 q 1.22625 -0.84 0.75,0.405 q 0.85125 1.01625 -1.125,1 
						M 0,2.475 
						q -0.85125 -0.7575 -0.375,1.245 q -1.22625 -0.84 -0.75,0.405 q -0.85125 1.01625 1.125,1 " 
						transform="rotate(0 0,2.475 )"
						stroke-width ="0.1"
						fill="rgb(37,45,145)"
						/><path d="M 0,2.475 
						q 0.85125 -0.7575 0.375,1.245 q 1.22625 -0.84 0.75,0.405 q 0.85125 1.01625 -1.125,1 
						M 0,2.475 
						q -0.85125 -0.7575 -0.375,1.245 q -1.22625 -0.84 -0.75,0.405 q -0.85125 1.01625 1.125,1 " 
						transform="rotate(23.142857142857 0,2.475 )"
						stroke-width ="0.1"
						fill="rgb(35.5,26.5,144.5)"
						/><path d="M 0,2.475 
						q 0.85125 -0.7575 0.375,1.245 q 1.22625 -0.84 0.75,0.405 q 0.85125 1.01625 -1.125,1 
						M 0,2.475 
						q -0.85125 -0.7575 -0.375,1.245 q -1.22625 -0.84 -0.75,0.405 q -0.85125 1.01625 1.125,1 " 
						transform="rotate(46.285714285714 0,2.475 )"
						stroke-width ="0.1"
						fill="rgb(24,42,137)"
						/><path d="M 0,2.475 
						q 0.85125 -0.7575 0.375,1.245 q 1.22625 -0.84 0.75,0.405 q 0.85125 1.01625 -1.125,1 
						M 0,2.475 
						q -0.85125 -0.7575 -0.375,1.245 q -1.22625 -0.84 -0.75,0.405 q -0.85125 1.01625 1.125,1 " 
						transform="rotate(69.428571428571 0,2.475 )"
						stroke-width ="0.1"
						fill="rgb(33.5,36.5,140.5)"
						/></g><g id="flower4" transform="skewX(-7) skewY(-7)">
						<path d="M 0,0
						Q -0.8,1.5 0,3.3"
						stroke="rgb(108,56,187)" 
						fill="transparent"
						stroke-width ="0.3" /><path d="M 0,3.3 
						q 1.135 -1.01 0.5,1.66 q 1.635 -1.12 1,0.54 q 1.135 1.355 -1.5,1 
						M 0,3.3 
						q -1.135 -1.01 -0.5,1.66 q -1.635 -1.12 -1,0.54 q -1.135 1.355 1.5,1 " 
						transform="rotate(0 0,3.3 )"
						stroke-width ="0.1"
						fill="rgb(29,29,153)"
						/><circle cx="0" cy="3.3" r="1.2" fill="rgb(166,164,35)"/><circle cx="-0.08" cy="3.22" r="0.8" fill="rgb(172.5,168.5,45.5)"/><path d="M 0,3.3 
						q 1.135 -1.01 0.5,1.66 q 1.635 -1.12 1,0.54 q 1.135 1.355 -1.5,1 
						M 0,3.3 
						q -1.135 -1.01 -0.5,1.66 q -1.635 -1.12 -1,0.54 q -1.135 1.355 1.5,1 " 
						transform="rotate(77.142857142857 0,3.3 )"
						stroke-width ="0.1"
						fill="rgb(32.5,32.5,147.5)"
						/><circle cx="0" cy="3.3" r="1.2" fill="rgb(166,164,35)"/><circle cx="0.1" cy="3.27" r="0.8" fill="rgb(172.5,168.5,45.5)"/><path d="M 0,3.3 
						q 1.135 -1.01 0.5,1.66 q 1.635 -1.12 1,0.54 q 1.135 1.355 -1.5,1 
						M 0,3.3 
						q -1.135 -1.01 -0.5,1.66 q -1.635 -1.12 -1,0.54 q -1.135 1.355 1.5,1 " 
						transform="rotate(154.28571428571 0,3.3 )"
						stroke-width ="0.1"
						fill="rgb(20,36,133)"
						/><circle cx="0" cy="3.3" r="1.2" fill="rgb(166,164,35)"/><circle cx="-0.1" cy="3.21" r="0.8" fill="rgb(172.5,168.5,45.5)"/><path d="M 0,3.3 
						q 1.135 -1.01 0.5,1.66 q 1.635 -1.12 1,0.54 q 1.135 1.355 -1.5,1 
						M 0,3.3 
						q -1.135 -1.01 -0.5,1.66 q -1.635 -1.12 -1,0.54 q -1.135 1.355 1.5,1 " 
						transform="rotate(231.42857142857 0,3.3 )"
						stroke-width ="0.1"
						fill="rgb(26.5,37.5,146.5)"
						/><circle cx="0" cy="3.3" r="1.2" fill="rgb(166,164,35)"/><circle cx="-0.02" cy="3.27" r="0.8" fill="rgb(172.5,168.5,45.5)"/><path d="M 0,3.3 
						q 1.135 -1.01 0.5,1.66 q 1.635 -1.12 1,0.54 q 1.135 1.355 -1.5,1 
						M 0,3.3 
						q -1.135 -1.01 -0.5,1.66 q -1.635 -1.12 -1,0.54 q -1.135 1.355 1.5,1 " 
						transform="rotate(308.57142857143 0,3.3 )"
						stroke-width ="0.1"
						fill="rgb(21,28,138)"
						/><circle cx="0" cy="3.3" r="1.2" fill="rgb(166,164,35)"/><circle cx="0.08" cy="3.21" r="0.8" fill="rgb(172.5,168.5,45.5)"/><path d="M 0,3.3 
						q 1.135 -1.01 0.5,1.66 q 1.635 -1.12 1,0.54 q 1.135 1.355 -1.5,1 
						M 0,3.3 
						q -1.135 -1.01 -0.5,1.66 q -1.635 -1.12 -1,0.54 q -1.135 1.355 1.5,1 " 
						transform="rotate(385.71428571429 0,3.3 )"
						stroke-width ="0.1"
						fill="rgb(17.5,24.5,134.5)"
						/><circle cx="0" cy="3.3" r="1.2" fill="rgb(166,164,35)"/><circle cx="0.07" cy="3.25" r="0.8" fill="rgb(172.5,168.5,45.5)"/><path d="M 0,3.3 
						q 1.135 -1.01 0.5,1.66 q 1.635 -1.12 1,0.54 q 1.135 1.355 -1.5,1 
						M 0,3.3 
						q -1.135 -1.01 -0.5,1.66 q -1.635 -1.12 -1,0.54 q -1.135 1.355 1.5,1 " 
						transform="rotate(462.85714285714 0,3.3 )"
						stroke-width ="0.1"
						fill="rgb(8,22,123)"
						/><circle cx="0" cy="3.3" r="1.2" fill="rgb(166,164,35)"/><circle cx="0" cy="3.36" r="0.8" fill="rgb(172.5,168.5,45.5)"/><path d="M 0,3.3 
						q 1.135 -1.01 0.5,1.66 q 1.635 -1.12 1,0.54 q 1.135 1.355 -1.5,1 
						M 0,3.3 
						q -1.135 -1.01 -0.5,1.66 q -1.635 -1.12 -1,0.54 q -1.135 1.355 1.5,1 " 
						transform="rotate(540 0,3.3 )"
						stroke-width ="0.1"
						fill="rgb(10.5,29.5,135.5)"
						/><circle cx="0" cy="3.3" r="1.2" fill="rgb(166,164,35)"/><circle cx="-0.06" cy="3.39" r="0.8" fill="rgb(172.5,168.5,45.5)"/><path d="M 0,3.3 
						q 1.135 -1.01 0.5,1.66 q 1.635 -1.12 1,0.54 q 1.135 1.355 -1.5,1 
						M 0,3.3 
						q -1.135 -1.01 -0.5,1.66 q -1.635 -1.12 -1,0.54 q -1.135 1.355 1.5,1 " 
						transform="rotate(617.14285714286 0,3.3 )"
						stroke-width ="0.1"
						fill="rgb(7,18,120)"
						/><circle cx="0" cy="3.3" r="1.2" fill="rgb(166,164,35)"/><circle cx="0" cy="3.38" r="0.8" fill="rgb(172.5,168.5,45.5)"/><path d="M 0,3.3 
						q 1.135 -1.01 0.5,1.66 q 1.635 -1.12 1,0.54 q 1.135 1.355 -1.5,1 
						M 0,3.3 
						q -1.135 -1.01 -0.5,1.66 q -1.635 -1.12 -1,0.54 q -1.135 1.355 1.5,1 " 
						transform="rotate(694.28571428571 0,3.3 )"
						stroke-width ="0.1"
						fill="rgb(14.5,7.5,117.5)"
						/><circle cx="0" cy="3.3" r="1.2" fill="rgb(166,164,35)"/><circle cx="0.02" cy="3.24" r="0.8" fill="rgb(172.5,168.5,45.5)"/><path d="M 0,3.3 
						q 1.135 -1.01 0.5,1.66 q 1.635 -1.12 1,0.54 q 1.135 1.355 -1.5,1 
						M 0,3.3 
						q -1.135 -1.01 -0.5,1.66 q -1.635 -1.12 -1,0.54 q -1.135 1.355 1.5,1 " 
						transform="rotate(771.42857142857 0,3.3 )"
						stroke-width ="0.1"
						fill="rgb(11,24,115)"
						/><circle cx="0" cy="3.3" r="1.2" fill="rgb(166,164,35)"/><circle cx="0" cy="3.2" r="0.8" fill="rgb(172.5,168.5,45.5)"/><path d="M 0,3.3 
						q 1.135 -1.01 0.5,1.66 q 1.635 -1.12 1,0.54 q 1.135 1.355 -1.5,1 
						M 0,3.3 
						q -1.135 -1.01 -0.5,1.66 q -1.635 -1.12 -1,0.54 q -1.135 1.355 1.5,1 " 
						transform="rotate(848.57142857143 0,3.3 )"
						stroke-width ="0.1"
						fill="rgb(7.5,11.5,114.5)"
						/><circle cx="0" cy="3.3" r="1.2" fill="rgb(166,164,35)"/><circle cx="-0.05" cy="3.24" r="0.8" fill="rgb(172.5,168.5,45.5)"/><path d="M 0,3.3 
						q 1.135 -1.01 0.5,1.66 q 1.635 -1.12 1,0.54 q 1.135 1.355 -1.5,1 
						M 0,3.3 
						q -1.135 -1.01 -0.5,1.66 q -1.635 -1.12 -1,0.54 q -1.135 1.355 1.5,1 " 
						transform="rotate(925.71428571429 0,3.3 )"
						stroke-width ="0.1"
						fill="rgb(0,14,128)"
						/><circle cx="0" cy="3.3" r="1.2" fill="rgb(166,164,35)"/><circle cx="-0.1" cy="3.39" r="0.8" fill="rgb(172.5,168.5,45.5)"/><path d="M 0,3.3 
						q 1.135 -1.01 0.5,1.66 q 1.635 -1.12 1,0.54 q 1.135 1.355 -1.5,1 
						M 0,3.3 
						q -1.135 -1.01 -0.5,1.66 q -1.635 -1.12 -1,0.54 q -1.135 1.355 1.5,1 " 
						transform="rotate(1002.8571428571 0,3.3 )"
						stroke-width ="0.1"
						fill="rgb(0,6.5,122.5)"
						/><circle cx="0" cy="3.3" r="1.2" fill="rgb(166,164,35)"/><circle cx="-0.01" cy="3.37" r="0.8" fill="rgb(172.5,168.5,45.5)"/><path d="M 0,3.3 
						q 1.135 -1.01 0.5,1.66 q 1.635 -1.12 1,0.54 q 1.135 1.355 -1.5,1 
						M 0,3.3 
						q -1.135 -1.01 -0.5,1.66 q -1.635 -1.12 -1,0.54 q -1.135 1.355 1.5,1 " 
						transform="rotate(1080 0,3.3 )"
						stroke-width ="0.1"
						fill="rgb(0,11,123)"
						/><circle cx="0" cy="3.3" r="1.2" fill="rgb(166,164,35)"/><circle cx="0.08" cy="3.35" r="0.8" fill="rgb(172.5,168.5,45.5)"/></g><g id="flower5" transform="skewX(-6) skewY(-6)">
						<path d="M 0,0
						Q -0.61,1.875 0,4.125"
						stroke="rgb(108,56,187)" 
						fill="transparent"
						stroke-width ="0.3" /><path d="M 0,4.125 
						q 1.41875 -1.2625 0.625,2.075 q 2.04375 -1.4 1.25,0.675 q 1.41875 1.69375 -1.875,1 
						M 0,4.125 
						q -1.41875 -1.2625 -0.625,2.075 q -2.04375 -1.4 -1.25,0.675 q -1.41875 1.69375 1.875,1 " 
						transform="rotate(0 0,4.125 )"
						stroke-width ="0.1"
						fill="rgb(21,37,154)"
						/><circle cx="0" cy="4.125" r="1.5" fill="rgb(166,164,39)"/><circle cx="-0.06" cy="4.075" r="1" fill="rgb(181.5,183.5,42.5)"/><path d="M 0,4.125 
						q 1.41875 -1.2625 0.625,2.075 q 2.04375 -1.4 1.25,0.675 q 1.41875 1.69375 -1.875,1 
						M 0,4.125 
						q -1.41875 -1.2625 -0.625,2.075 q -2.04375 -1.4 -1.25,0.675 q -1.41875 1.69375 1.875,1 " 
						transform="rotate(77.142857142857 0,4.125 )"
						stroke-width ="0.1"
						fill="rgb(26.5,30.5,142.5)"
						/><circle cx="0" cy="4.125" r="1.5" fill="rgb(166,164,39)"/><circle cx="-0.07" cy="4.135" r="1" fill="rgb(181.5,183.5,42.5)"/><path d="M 0,4.125 
						q 1.41875 -1.2625 0.625,2.075 q 2.04375 -1.4 1.25,0.675 q 1.41875 1.69375 -1.875,1 
						M 0,4.125 
						q -1.41875 -1.2625 -0.625,2.075 q -2.04375 -1.4 -1.25,0.675 q -1.41875 1.69375 1.875,1 " 
						transform="rotate(154.28571428571 0,4.125 )"
						stroke-width ="0.1"
						fill="rgb(29,32,141)"
						/><circle cx="0" cy="4.125" r="1.5" fill="rgb(166,164,39)"/><circle cx="0.05" cy="4.035" r="1" fill="rgb(181.5,183.5,42.5)"/><path d="M 0,4.125 
						q 1.41875 -1.2625 0.625,2.075 q 2.04375 -1.4 1.25,0.675 q 1.41875 1.69375 -1.875,1 
						M 0,4.125 
						q -1.41875 -1.2625 -0.625,2.075 q -2.04375 -1.4 -1.25,0.675 q -1.41875 1.69375 1.875,1 " 
						transform="rotate(231.42857142857 0,4.125 )"
						stroke-width ="0.1"
						fill="rgb(26.5,34.5,140.5)"
						/><circle cx="0" cy="4.125" r="1.5" fill="rgb(166,164,39)"/><circle cx="-0.07" cy="4.135" r="1" fill="rgb(181.5,183.5,42.5)"/><path d="M 0,4.125 
						q 1.41875 -1.2625 0.625,2.075 q 2.04375 -1.4 1.25,0.675 q 1.41875 1.69375 -1.875,1 
						M 0,4.125 
						q -1.41875 -1.2625 -0.625,2.075 q -2.04375 -1.4 -1.25,0.675 q -1.41875 1.69375 1.875,1 " 
						transform="rotate(308.57142857143 0,4.125 )"
						stroke-width ="0.1"
						fill="rgb(31,23,136)"
						/><circle cx="0" cy="4.125" r="1.5" fill="rgb(166,164,39)"/><circle cx="0.05" cy="4.215" r="1" fill="rgb(181.5,183.5,42.5)"/><path d="M 0,4.125 
						q 1.41875 -1.2625 0.625,2.075 q 2.04375 -1.4 1.25,0.675 q 1.41875 1.69375 -1.875,1 
						M 0,4.125 
						q -1.41875 -1.2625 -0.625,2.075 q -2.04375 -1.4 -1.25,0.675 q -1.41875 1.69375 1.875,1 " 
						transform="rotate(385.71428571429 0,4.125 )"
						stroke-width ="0.1"
						fill="rgb(26.5,20.5,126.5)"
						/><circle cx="0" cy="4.125" r="1.5" fill="rgb(166,164,39)"/><circle cx="0.06" cy="4.215" r="1" fill="rgb(181.5,183.5,42.5)"/><path d="M 0,4.125 
						q 1.41875 -1.2625 0.625,2.075 q 2.04375 -1.4 1.25,0.675 q 1.41875 1.69375 -1.875,1 
						M 0,4.125 
						q -1.41875 -1.2625 -0.625,2.075 q -2.04375 -1.4 -1.25,0.675 q -1.41875 1.69375 1.875,1 " 
						transform="rotate(462.85714285714 0,4.125 )"
						stroke-width ="0.1"
						fill="rgb(16,25,133)"
						/><circle cx="0" cy="4.125" r="1.5" fill="rgb(166,164,39)"/><circle cx="-0.08" cy="4.165" r="1" fill="rgb(181.5,183.5,42.5)"/><path d="M 0,4.125 
						q 1.41875 -1.2625 0.625,2.075 q 2.04375 -1.4 1.25,0.675 q 1.41875 1.69375 -1.875,1 
						M 0,4.125 
						q -1.41875 -1.2625 -0.625,2.075 q -2.04375 -1.4 -1.25,0.675 q -1.41875 1.69375 1.875,1 " 
						transform="rotate(540 0,4.125 )"
						stroke-width ="0.1"
						fill="rgb(9.5,15.5,130.5)"
						/><circle cx="0" cy="4.125" r="1.5" fill="rgb(166,164,39)"/><circle cx="0.08" cy="4.035" r="1" fill="rgb(181.5,183.5,42.5)"/><path d="M 0,4.125 
						q 1.41875 -1.2625 0.625,2.075 q 2.04375 -1.4 1.25,0.675 q 1.41875 1.69375 -1.875,1 
						M 0,4.125 
						q -1.41875 -1.2625 -0.625,2.075 q -2.04375 -1.4 -1.25,0.675 q -1.41875 1.69375 1.875,1 " 
						transform="rotate(617.14285714286 0,4.125 )"
						stroke-width ="0.1"
						fill="rgb(15,22,120)"
						/><circle cx="0" cy="4.125" r="1.5" fill="rgb(166,164,39)"/><circle cx="-0.08" cy="4.125" r="1" fill="rgb(181.5,183.5,42.5)"/><path d="M 0,4.125 
						q 1.41875 -1.2625 0.625,2.075 q 2.04375 -1.4 1.25,0.675 q 1.41875 1.69375 -1.875,1 
						M 0,4.125 
						q -1.41875 -1.2625 -0.625,2.075 q -2.04375 -1.4 -1.25,0.675 q -1.41875 1.69375 1.875,1 " 
						transform="rotate(694.28571428571 0,4.125 )"
						stroke-width ="0.1"
						fill="rgb(14.5,19.5,118.5)"
						/><circle cx="0" cy="4.125" r="1.5" fill="rgb(166,164,39)"/><circle cx="0.01" cy="4.175" r="1" fill="rgb(181.5,183.5,42.5)"/><path d="M 0,4.125 
						q 1.41875 -1.2625 0.625,2.075 q 2.04375 -1.4 1.25,0.675 q 1.41875 1.69375 -1.875,1 
						M 0,4.125 
						q -1.41875 -1.2625 -0.625,2.075 q -2.04375 -1.4 -1.25,0.675 q -1.41875 1.69375 1.875,1 " 
						transform="rotate(771.42857142857 0,4.125 )"
						stroke-width ="0.1"
						fill="rgb(14,15,121)"
						/><circle cx="0" cy="4.125" r="1.5" fill="rgb(166,164,39)"/><circle cx="-0.09" cy="4.175" r="1" fill="rgb(181.5,183.5,42.5)"/><path d="M 0,4.125 
						q 1.41875 -1.2625 0.625,2.075 q 2.04375 -1.4 1.25,0.675 q 1.41875 1.69375 -1.875,1 
						M 0,4.125 
						q -1.41875 -1.2625 -0.625,2.075 q -2.04375 -1.4 -1.25,0.675 q -1.41875 1.69375 1.875,1 " 
						transform="rotate(848.57142857143 0,4.125 )"
						stroke-width ="0.1"
						fill="rgb(7.5,20.5,119.5)"
						/><circle cx="0" cy="4.125" r="1.5" fill="rgb(166,164,39)"/><circle cx="0.06" cy="4.095" r="1" fill="rgb(181.5,183.5,42.5)"/><path d="M 0,4.125 
						q 1.41875 -1.2625 0.625,2.075 q 2.04375 -1.4 1.25,0.675 q 1.41875 1.69375 -1.875,1 
						M 0,4.125 
						q -1.41875 -1.2625 -0.625,2.075 q -2.04375 -1.4 -1.25,0.675 q -1.41875 1.69375 1.875,1 " 
						transform="rotate(925.71428571429 0,4.125 )"
						stroke-width ="0.1"
						fill="rgb(9,0,126)"
						/><circle cx="0" cy="4.125" r="1.5" fill="rgb(166,164,39)"/><circle cx="-0.06" cy="4.135" r="1" fill="rgb(181.5,183.5,42.5)"/><path d="M 0,4.125 
						q 1.41875 -1.2625 0.625,2.075 q 2.04375 -1.4 1.25,0.675 q 1.41875 1.69375 -1.875,1 
						M 0,4.125 
						q -1.41875 -1.2625 -0.625,2.075 q -2.04375 -1.4 -1.25,0.675 q -1.41875 1.69375 1.875,1 " 
						transform="rotate(1002.8571428571 0,4.125 )"
						stroke-width ="0.1"
						fill="rgb(0,14.5,119.5)"
						/><circle cx="0" cy="4.125" r="1.5" fill="rgb(166,164,39)"/><circle cx="-0.03" cy="4.035" r="1" fill="rgb(181.5,183.5,42.5)"/><path d="M 0,4.125 
						q 1.41875 -1.2625 0.625,2.075 q 2.04375 -1.4 1.25,0.675 q 1.41875 1.69375 -1.875,1 
						M 0,4.125 
						q -1.41875 -1.2625 -0.625,2.075 q -2.04375 -1.4 -1.25,0.675 q -1.41875 1.69375 1.875,1 " 
						transform="rotate(1080 0,4.125 )"
						stroke-width ="0.1"
						fill="rgb(6,0,104)"
						/><circle cx="0" cy="4.125" r="1.5" fill="rgb(166,164,39)"/><circle cx="-0.03" cy="4.035" r="1" fill="rgb(181.5,183.5,42.5)"/></g><g id="flower6" transform="skewX(8) skewY(8)">
						<path d="M 0,0
						Q 1.07,2.25 0,4.95"
						stroke="rgb(108,56,187)" 
						fill="transparent"
						stroke-width ="0.3" /><path d="M 0,4.95 
						q 1.7025 -1.515 0.75,2.49 q 2.4525 -1.68 1.5,0.81 q 1.7025 2.0325 -2.25,1.2 
						M 0,4.95 
						q -1.7025 -1.515 -0.75,2.49 q -2.4525 -1.68 -1.5,0.81 q -1.7025 2.0325 2.25,1.2 " 
						transform="rotate(0 0,4.95 )"
						stroke-width ="0.1"
						fill="rgb(35,47,146)"
						/><path d="M 0,4.95 
						q 1.7025 -1.515 0.75,2.49 q 2.4525 -1.68 1.5,0.81 q 1.7025 2.0325 -2.25,1.2 
						M 0,4.95 
						q -1.7025 -1.515 -0.75,2.49 q -2.4525 -1.68 -1.5,0.81 q -1.7025 2.0325 2.25,1.2 " 
						transform="rotate(23.142857142857 0,4.95 )"
						stroke-width ="0.1"
						fill="rgb(27.5,36.5,152.5)"
						/><path d="M 0,4.95 
						q 1.7025 -1.515 0.75,2.49 q 2.4525 -1.68 1.5,0.81 q 1.7025 2.0325 -2.25,1.2 
						M 0,4.95 
						q -1.7025 -1.515 -0.75,2.49 q -2.4525 -1.68 -1.5,0.81 q -1.7025 2.0325 2.25,1.2 " 
						transform="rotate(46.285714285714 0,4.95 )"
						stroke-width ="0.1"
						fill="rgb(23,27,144)"
						/><path d="M 0,4.95 
						q 1.7025 -1.515 0.75,2.49 q 2.4525 -1.68 1.5,0.81 q 1.7025 2.0325 -2.25,1.2 
						M 0,4.95 
						q -1.7025 -1.515 -0.75,2.49 q -2.4525 -1.68 -1.5,0.81 q -1.7025 2.0325 2.25,1.2 " 
						transform="rotate(69.428571428571 0,4.95 )"
						stroke-width ="0.1"
						fill="rgb(32.5,29.5,130.5)"
						/></g><g id="flower7" transform="skewX(2) skewY(2)">
						<path d="M 0,0
						Q 0.17,2.625 0,5.775"
						stroke="rgb(108,56,187)" 
						fill="transparent"
						stroke-width ="0.3" /><path d="M 0,5.775 
						q 1.98625 -1.7675 0.875,2.905 q 2.86125 -1.96 1.75,0.945 q 1.98625 2.37125 -2.625,1.4 
						M 0,5.775 
						q -1.98625 -1.7675 -0.875,2.905 q -2.86125 -1.96 -1.75,0.945 q -1.98625 2.37125 2.625,1.4 " 
						transform="rotate(0 0,5.775 )"
						stroke-width ="0.1"
						fill="rgb(40,40,150)"
						/><circle cx="0" cy="5.775" r="2.1" fill="rgb(160,167,35)"/><circle cx="-0.01" cy="5.825" r="1.4" fill="rgb(176.5,173.5,58.5)"/><path d="M 0,5.775 
						q 1.98625 -1.7675 0.875,2.905 q 2.86125 -1.96 1.75,0.945 q 1.98625 2.37125 -2.625,1.4 
						M 0,5.775 
						q -1.98625 -1.7675 -0.875,2.905 q -2.86125 -1.96 -1.75,0.945 q -1.98625 2.37125 2.625,1.4 " 
						transform="rotate(77.142857142857 0,5.775 )"
						stroke-width ="0.1"
						fill="rgb(33.5,38.5,135.5)"
						/><circle cx="0" cy="5.775" r="2.1" fill="rgb(160,167,35)"/><circle cx="-0.02" cy="5.865" r="1.4" fill="rgb(176.5,173.5,58.5)"/><path d="M 0,5.775 
						q 1.98625 -1.7675 0.875,2.905 q 2.86125 -1.96 1.75,0.945 q 1.98625 2.37125 -2.625,1.4 
						M 0,5.775 
						q -1.98625 -1.7675 -0.875,2.905 q -2.86125 -1.96 -1.75,0.945 q -1.98625 2.37125 2.625,1.4 " 
						transform="rotate(154.28571428571 0,5.775 )"
						stroke-width ="0.1"
						fill="rgb(17,41,151)"
						/><circle cx="0" cy="5.775" r="2.1" fill="rgb(160,167,35)"/><circle cx="-0.07" cy="5.745" r="1.4" fill="rgb(176.5,173.5,58.5)"/><path d="M 0,5.775 
						q 1.98625 -1.7675 0.875,2.905 q 2.86125 -1.96 1.75,0.945 q 1.98625 2.37125 -2.625,1.4 
						M 0,5.775 
						q -1.98625 -1.7675 -0.875,2.905 q -2.86125 -1.96 -1.75,0.945 q -1.98625 2.37125 2.625,1.4 " 
						transform="rotate(231.42857142857 0,5.775 )"
						stroke-width ="0.1"
						fill="rgb(31.5,36.5,147.5)"
						/><circle cx="0" cy="5.775" r="2.1" fill="rgb(160,167,35)"/><circle cx="-0.01" cy="5.805" r="1.4" fill="rgb(176.5,173.5,58.5)"/><path d="M 0,5.775 
						q 1.98625 -1.7675 0.875,2.905 q 2.86125 -1.96 1.75,0.945 q 1.98625 2.37125 -2.625,1.4 
						M 0,5.775 
						q -1.98625 -1.7675 -0.875,2.905 q -2.86125 -1.96 -1.75,0.945 q -1.98625 2.37125 2.625,1.4 " 
						transform="rotate(308.57142857143 0,5.775 )"
						stroke-width ="0.1"
						fill="rgb(22,31,138)"
						/><circle cx="0" cy="5.775" r="2.1" fill="rgb(160,167,35)"/><circle cx="0.02" cy="5.695" r="1.4" fill="rgb(176.5,173.5,58.5)"/><path d="M 0,5.775 
						q 1.98625 -1.7675 0.875,2.905 q 2.86125 -1.96 1.75,0.945 q 1.98625 2.37125 -2.625,1.4 
						M 0,5.775 
						q -1.98625 -1.7675 -0.875,2.905 q -2.86125 -1.96 -1.75,0.945 q -1.98625 2.37125 2.625,1.4 " 
						transform="rotate(385.71428571429 0,5.775 )"
						stroke-width ="0.1"
						fill="rgb(15.5,32.5,128.5)"
						/><circle cx="0" cy="5.775" r="2.1" fill="rgb(160,167,35)"/><circle cx="0" cy="5.785" r="1.4" fill="rgb(176.5,173.5,58.5)"/><path d="M 0,5.775 
						q 1.98625 -1.7675 0.875,2.905 q 2.86125 -1.96 1.75,0.945 q 1.98625 2.37125 -2.625,1.4 
						M 0,5.775 
						q -1.98625 -1.7675 -0.875,2.905 q -2.86125 -1.96 -1.75,0.945 q -1.98625 2.37125 2.625,1.4 " 
						transform="rotate(462.85714285714 0,5.775 )"
						stroke-width ="0.1"
						fill="rgb(19,25,130)"
						/><circle cx="0" cy="5.775" r="2.1" fill="rgb(160,167,35)"/><circle cx="-0.04" cy="5.715" r="1.4" fill="rgb(176.5,173.5,58.5)"/><path d="M 0,5.775 
						q 1.98625 -1.7675 0.875,2.905 q 2.86125 -1.96 1.75,0.945 q 1.98625 2.37125 -2.625,1.4 
						M 0,5.775 
						q -1.98625 -1.7675 -0.875,2.905 q -2.86125 -1.96 -1.75,0.945 q -1.98625 2.37125 2.625,1.4 " 
						transform="rotate(540 0,5.775 )"
						stroke-width ="0.1"
						fill="rgb(22.5,23.5,126.5)"
						/><circle cx="0" cy="5.775" r="2.1" fill="rgb(160,167,35)"/><circle cx="-0.02" cy="5.785" r="1.4" fill="rgb(176.5,173.5,58.5)"/><path d="M 0,5.775 
						q 1.98625 -1.7675 0.875,2.905 q 2.86125 -1.96 1.75,0.945 q 1.98625 2.37125 -2.625,1.4 
						M 0,5.775 
						q -1.98625 -1.7675 -0.875,2.905 q -2.86125 -1.96 -1.75,0.945 q -1.98625 2.37125 2.625,1.4 " 
						transform="rotate(617.14285714286 0,5.775 )"
						stroke-width ="0.1"
						fill="rgb(10,15,123)"
						/><circle cx="0" cy="5.775" r="2.1" fill="rgb(160,167,35)"/><circle cx="0.07" cy="5.875" r="1.4" fill="rgb(176.5,173.5,58.5)"/><path d="M 0,5.775 
						q 1.98625 -1.7675 0.875,2.905 q 2.86125 -1.96 1.75,0.945 q 1.98625 2.37125 -2.625,1.4 
						M 0,5.775 
						q -1.98625 -1.7675 -0.875,2.905 q -2.86125 -1.96 -1.75,0.945 q -1.98625 2.37125 2.625,1.4 " 
						transform="rotate(694.28571428571 0,5.775 )"
						stroke-width ="0.1"
						fill="rgb(5.5,21.5,117.5)"
						/><circle cx="0" cy="5.775" r="2.1" fill="rgb(160,167,35)"/><circle cx="-0.07" cy="5.745" r="1.4" fill="rgb(176.5,173.5,58.5)"/><path d="M 0,5.775 
						q 1.98625 -1.7675 0.875,2.905 q 2.86125 -1.96 1.75,0.945 q 1.98625 2.37125 -2.625,1.4 
						M 0,5.775 
						q -1.98625 -1.7675 -0.875,2.905 q -2.86125 -1.96 -1.75,0.945 q -1.98625 2.37125 2.625,1.4 " 
						transform="rotate(771.42857142857 0,5.775 )"
						stroke-width ="0.1"
						fill="rgb(0,19,115)"
						/><circle cx="0" cy="5.775" r="2.1" fill="rgb(160,167,35)"/><circle cx="0.1" cy="5.775" r="1.4" fill="rgb(176.5,173.5,58.5)"/><path d="M 0,5.775 
						q 1.98625 -1.7675 0.875,2.905 q 2.86125 -1.96 1.75,0.945 q 1.98625 2.37125 -2.625,1.4 
						M 0,5.775 
						q -1.98625 -1.7675 -0.875,2.905 q -2.86125 -1.96 -1.75,0.945 q -1.98625 2.37125 2.625,1.4 " 
						transform="rotate(848.57142857143 0,5.775 )"
						stroke-width ="0.1"
						fill="rgb(0,10.5,114.5)"
						/><circle cx="0" cy="5.775" r="2.1" fill="rgb(160,167,35)"/><circle cx="-0.03" cy="5.815" r="1.4" fill="rgb(176.5,173.5,58.5)"/><path d="M 0,5.775 
						q 1.98625 -1.7675 0.875,2.905 q 2.86125 -1.96 1.75,0.945 q 1.98625 2.37125 -2.625,1.4 
						M 0,5.775 
						q -1.98625 -1.7675 -0.875,2.905 q -2.86125 -1.96 -1.75,0.945 q -1.98625 2.37125 2.625,1.4 " 
						transform="rotate(925.71428571429 0,5.775 )"
						stroke-width ="0.1"
						fill="rgb(0,5,128)"
						/><circle cx="0" cy="5.775" r="2.1" fill="rgb(160,167,35)"/><circle cx="0.06" cy="5.865" r="1.4" fill="rgb(176.5,173.5,58.5)"/><path d="M 0,5.775 
						q 1.98625 -1.7675 0.875,2.905 q 2.86125 -1.96 1.75,0.945 q 1.98625 2.37125 -2.625,1.4 
						M 0,5.775 
						q -1.98625 -1.7675 -0.875,2.905 q -2.86125 -1.96 -1.75,0.945 q -1.98625 2.37125 2.625,1.4 " 
						transform="rotate(1002.8571428571 0,5.775 )"
						stroke-width ="0.1"
						fill="rgb(0,0,116.5)"
						/><circle cx="0" cy="5.775" r="2.1" fill="rgb(160,167,35)"/><circle cx="-0.04" cy="5.795" r="1.4" fill="rgb(176.5,173.5,58.5)"/><path d="M 0,5.775 
						q 1.98625 -1.7675 0.875,2.905 q 2.86125 -1.96 1.75,0.945 q 1.98625 2.37125 -2.625,1.4 
						M 0,5.775 
						q -1.98625 -1.7675 -0.875,2.905 q -2.86125 -1.96 -1.75,0.945 q -1.98625 2.37125 2.625,1.4 " 
						transform="rotate(1080 0,5.775 )"
						stroke-width ="0.1"
						fill="rgb(0,2,119)"
						/><circle cx="0" cy="5.775" r="2.1" fill="rgb(160,167,35)"/><circle cx="0.07" cy="5.855" r="1.4" fill="rgb(176.5,173.5,58.5)"/></g><g id="flower8" transform="skewX(-10) skewY(-10)">
						<path d="M 0,0
						Q 1.1,3 0,6.6"
						stroke="rgb(108,56,187)" 
						fill="transparent"
						stroke-width ="0.3" /><path d="M 0,6.6 
						q 2.27 -2.02 1,3.32 q 3.27 -2.24 2,1.08 q 2.27 2.71 -3,1.6 
						M 0,6.6 
						q -2.27 -2.02 -1,3.32 q -3.27 -2.24 -2,1.08 q -2.27 2.71 3,1.6 " 
						transform="rotate(0 0,6.6 )"
						stroke-width ="0.1"
						fill="rgb(26,39,150)"
						/><circle cx="0" cy="6.6" r="2.4" fill="rgb(167,166,38)"/><circle cx="0.09" cy="6.51" r="1.6" fill="rgb(181.5,187.5,49.5)"/><path d="M 0,6.6 
						q 2.27 -2.02 1,3.32 q 3.27 -2.24 2,1.08 q 2.27 2.71 -3,1.6 
						M 0,6.6 
						q -2.27 -2.02 -1,3.32 q -3.27 -2.24 -2,1.08 q -2.27 2.71 3,1.6 " 
						transform="rotate(77.142857142857 0,6.6 )"
						stroke-width ="0.1"
						fill="rgb(31.5,44.5,137.5)"
						/><circle cx="0" cy="6.6" r="2.4" fill="rgb(167,166,38)"/><circle cx="-0.03" cy="6.68" r="1.6" fill="rgb(181.5,187.5,49.5)"/><path d="M 0,6.6 
						q 2.27 -2.02 1,3.32 q 3.27 -2.24 2,1.08 q 2.27 2.71 -3,1.6 
						M 0,6.6 
						q -2.27 -2.02 -1,3.32 q -3.27 -2.24 -2,1.08 q -2.27 2.71 3,1.6 " 
						transform="rotate(154.28571428571 0,6.6 )"
						stroke-width ="0.1"
						fill="rgb(24,40,134)"
						/><circle cx="0" cy="6.6" r="2.4" fill="rgb(167,166,38)"/><circle cx="-0.03" cy="6.61" r="1.6" fill="rgb(181.5,187.5,49.5)"/><path d="M 0,6.6 
						q 2.27 -2.02 1,3.32 q 3.27 -2.24 2,1.08 q 2.27 2.71 -3,1.6 
						M 0,6.6 
						q -2.27 -2.02 -1,3.32 q -3.27 -2.24 -2,1.08 q -2.27 2.71 3,1.6 " 
						transform="rotate(231.42857142857 0,6.6 )"
						stroke-width ="0.1"
						fill="rgb(31.5,35.5,136.5)"
						/><circle cx="0" cy="6.6" r="2.4" fill="rgb(167,166,38)"/><circle cx="-0.09" cy="6.68" r="1.6" fill="rgb(181.5,187.5,49.5)"/><path d="M 0,6.6 
						q 2.27 -2.02 1,3.32 q 3.27 -2.24 2,1.08 q 2.27 2.71 -3,1.6 
						M 0,6.6 
						q -2.27 -2.02 -1,3.32 q -3.27 -2.24 -2,1.08 q -2.27 2.71 3,1.6 " 
						transform="rotate(308.57142857143 0,6.6 )"
						stroke-width ="0.1"
						fill="rgb(15,39,133)"
						/><circle cx="0" cy="6.6" r="2.4" fill="rgb(167,166,38)"/><circle cx="0.07" cy="6.68" r="1.6" fill="rgb(181.5,187.5,49.5)"/><path d="M 0,6.6 
						q 2.27 -2.02 1,3.32 q 3.27 -2.24 2,1.08 q 2.27 2.71 -3,1.6 
						M 0,6.6 
						q -2.27 -2.02 -1,3.32 q -3.27 -2.24 -2,1.08 q -2.27 2.71 3,1.6 " 
						transform="rotate(385.71428571429 0,6.6 )"
						stroke-width ="0.1"
						fill="rgb(22.5,31.5,133.5)"
						/><circle cx="0" cy="6.6" r="2.4" fill="rgb(167,166,38)"/><circle cx="0.01" cy="6.68" r="1.6" fill="rgb(181.5,187.5,49.5)"/><path d="M 0,6.6 
						q 2.27 -2.02 1,3.32 q 3.27 -2.24 2,1.08 q 2.27 2.71 -3,1.6 
						M 0,6.6 
						q -2.27 -2.02 -1,3.32 q -3.27 -2.24 -2,1.08 q -2.27 2.71 3,1.6 " 
						transform="rotate(462.85714285714 0,6.6 )"
						stroke-width ="0.1"
						fill="rgb(19,17,125)"
						/><circle cx="0" cy="6.6" r="2.4" fill="rgb(167,166,38)"/><circle cx="-0.09" cy="6.53" r="1.6" fill="rgb(181.5,187.5,49.5)"/><path d="M 0,6.6 
						q 2.27 -2.02 1,3.32 q 3.27 -2.24 2,1.08 q 2.27 2.71 -3,1.6 
						M 0,6.6 
						q -2.27 -2.02 -1,3.32 q -3.27 -2.24 -2,1.08 q -2.27 2.71 3,1.6 " 
						transform="rotate(540 0,6.6 )"
						stroke-width ="0.1"
						fill="rgb(5.5,18.5,139.5)"
						/><circle cx="0" cy="6.6" r="2.4" fill="rgb(167,166,38)"/><circle cx="0.03" cy="6.51" r="1.6" fill="rgb(181.5,187.5,49.5)"/><path d="M 0,6.6 
						q 2.27 -2.02 1,3.32 q 3.27 -2.24 2,1.08 q 2.27 2.71 -3,1.6 
						M 0,6.6 
						q -2.27 -2.02 -1,3.32 q -3.27 -2.24 -2,1.08 q -2.27 2.71 3,1.6 " 
						transform="rotate(617.14285714286 0,6.6 )"
						stroke-width ="0.1"
						fill="rgb(11,26,119)"
						/><circle cx="0" cy="6.6" r="2.4" fill="rgb(167,166,38)"/><circle cx="0.01" cy="6.6" r="1.6" fill="rgb(181.5,187.5,49.5)"/><path d="M 0,6.6 
						q 2.27 -2.02 1,3.32 q 3.27 -2.24 2,1.08 q 2.27 2.71 -3,1.6 
						M 0,6.6 
						q -2.27 -2.02 -1,3.32 q -3.27 -2.24 -2,1.08 q -2.27 2.71 3,1.6 " 
						transform="rotate(694.28571428571 0,6.6 )"
						stroke-width ="0.1"
						fill="rgb(2.5,14.5,132.5)"
						/><circle cx="0" cy="6.6" r="2.4" fill="rgb(167,166,38)"/><circle cx="-0.1" cy="6.66" r="1.6" fill="rgb(181.5,187.5,49.5)"/><path d="M 0,6.6 
						q 2.27 -2.02 1,3.32 q 3.27 -2.24 2,1.08 q 2.27 2.71 -3,1.6 
						M 0,6.6 
						q -2.27 -2.02 -1,3.32 q -3.27 -2.24 -2,1.08 q -2.27 2.71 3,1.6 " 
						transform="rotate(771.42857142857 0,6.6 )"
						stroke-width ="0.1"
						fill="rgb(1,20,131)"
						/><circle cx="0" cy="6.6" r="2.4" fill="rgb(167,166,38)"/><circle cx="0.01" cy="6.53" r="1.6" fill="rgb(181.5,187.5,49.5)"/><path d="M 0,6.6 
						q 2.27 -2.02 1,3.32 q 3.27 -2.24 2,1.08 q 2.27 2.71 -3,1.6 
						M 0,6.6 
						q -2.27 -2.02 -1,3.32 q -3.27 -2.24 -2,1.08 q -2.27 2.71 3,1.6 " 
						transform="rotate(848.57142857143 0,6.6 )"
						stroke-width ="0.1"
						fill="rgb(4.5,14.5,129.5)"
						/><circle cx="0" cy="6.6" r="2.4" fill="rgb(167,166,38)"/><circle cx="-0.04" cy="6.55" r="1.6" fill="rgb(181.5,187.5,49.5)"/><path d="M 0,6.6 
						q 2.27 -2.02 1,3.32 q 3.27 -2.24 2,1.08 q 2.27 2.71 -3,1.6 
						M 0,6.6 
						q -2.27 -2.02 -1,3.32 q -3.27 -2.24 -2,1.08 q -2.27 2.71 3,1.6 " 
						transform="rotate(925.71428571429 0,6.6 )"
						stroke-width ="0.1"
						fill="rgb(3,2,108)"
						/><circle cx="0" cy="6.6" r="2.4" fill="rgb(167,166,38)"/><circle cx="0.1" cy="6.59" r="1.6" fill="rgb(181.5,187.5,49.5)"/><path d="M 0,6.6 
						q 2.27 -2.02 1,3.32 q 3.27 -2.24 2,1.08 q 2.27 2.71 -3,1.6 
						M 0,6.6 
						q -2.27 -2.02 -1,3.32 q -3.27 -2.24 -2,1.08 q -2.27 2.71 3,1.6 " 
						transform="rotate(1002.8571428571 0,6.6 )"
						stroke-width ="0.1"
						fill="rgb(0,0,106.5)"
						/><circle cx="0" cy="6.6" r="2.4" fill="rgb(167,166,38)"/><circle cx="-0.06" cy="6.62" r="1.6" fill="rgb(181.5,187.5,49.5)"/><path d="M 0,6.6 
						q 2.27 -2.02 1,3.32 q 3.27 -2.24 2,1.08 q 2.27 2.71 -3,1.6 
						M 0,6.6 
						q -2.27 -2.02 -1,3.32 q -3.27 -2.24 -2,1.08 q -2.27 2.71 3,1.6 " 
						transform="rotate(1080 0,6.6 )"
						stroke-width ="0.1"
						fill="rgb(0,14,106)"
						/><circle cx="0" cy="6.6" r="2.4" fill="rgb(167,166,38)"/><circle cx="-0.08" cy="6.5" r="1.6" fill="rgb(181.5,187.5,49.5)"/></g></defs>
				<g class="fullPlant">
					<g>
					<path d ="M 54,91 
					a 93 93 18.68 0 0 -3.552,-20.316" fill ="none" stroke ="rgb(102.5,51.5,186.5)" stroke-width ="2.376"/></g><circle cx="50.448" cy="70.684" r="0.594" stroke="rgb(107.5,56.5,191.5)" fill="rgb(102.5,51.5,186.5)"/><use xlink:href="#leaf1"
						x="50.448" y="70.684" 
						transform="rotate(-67 50.448 70.684)" 	
						fill="rgb(127,156,156)" /><use xlink:href="#leaf1"
						x="50.448" y="70.684" 
						transform="rotate(136 50.548 71.294)" 	
						fill="rgb(152,171,141)" /><use xlink:href="#leaf1"
						x="50.448" y="70.684" 
						transform="rotate(114 50.918 70.964)" 	
						fill="rgb(157,182,165)" /><use xlink:href="#leaf1"
						x="50.448" y="70.684" 
						transform="rotate(-180 50.448 70.684)" 	
						fill="rgb(123,177,176)" /><use xlink:href="#leaf1"
						x="50.448" y="70.684" 
						transform="rotate(-12 51.048 71.484)" 	
						fill="rgb(148,175,175)" /><use xlink:href="#leaf1"
						x="50.448" y="70.684" 
						transform="rotate(-115 50.448 70.684)" 	
						fill="rgb(146,177,167)" /><use xlink:href="#leaf1"
						x="50.448" y="70.684" 
						transform="rotate(80 50.448 70.684)" 	
						fill="rgb(145,183,171)" /><use xlink:href="#leaf1"
						x="50.448" y="70.684" 
						transform="rotate(-124 50.448 70.684)" 	
						fill="rgb(157,180,141)" /><use xlink:href="#leaf1"
						x="50.448" y="70.684" 
						transform="rotate(146 50.718 71.144)" 	
						fill="rgb(157,145,162)" /><use xlink:href="#leaf1"
						x="50.448" y="70.684" 
						transform="rotate(-136 50.448 70.684)" 	
						fill="rgb(146,154,147)" /><use xlink:href="#leaf1"
						x="50.448" y="70.684" 
						transform="rotate(-104 50.448 70.684)" 	
						fill="rgb(142,180,149)" /><use xlink:href="#leaf1"
						x="50.448" y="70.684" 
						transform="rotate(-49 50.448 70.684)" 	
						fill="rgb(125,171,163)" /><use xlink:href="#leaf1"
						x="50.448" y="70.684" 
						transform="rotate(-5 51.258 71.024)" 	
						fill="rgb(121,180,141)" /><use xlink:href="#leaf1"
						x="50.448" y="70.684" 
						transform="rotate(168 50.448 70.684)" 	
						fill="rgb(144,152,150)" /><use xlink:href="#leaf2"
						x="50.448" y="70.684" 
						transform="rotate(-48 51.118 70.754)" 	
						fill="rgb(134,145,143)" />
					<g>
					<path d ="M 50.448,70.684 
					a 95 285 -15.27 0 1 12.24,-6.552" fill ="none" stroke ="rgb(102.5,54.5,189.5)" stroke-width ="1.188"/></g><circle cx="62.688" cy="64.132" r="0.297" stroke="rgb(107.5,59.5,194.5)" fill="rgb(102.5,54.5,189.5)"/><use xlink:href="#leaf3"
						x="62.688" y="64.132" 
						transform="rotate(38 62.688 64.132)" 	
						fill="rgb(138,151,173)" /><use xlink:href="#leaf1"
						x="62.688" y="64.132" 
						transform="rotate(-34 63.078 64.132)" 	
						fill="rgb(147,146,155)" /><use xlink:href="#leaf1"
						x="62.688" y="64.132" 
						transform="rotate(3 62.688 64.132)" 	
						fill="rgb(121,180,173)" /><use xlink:href="#leaf1"
						x="62.688" y="64.132" 
						transform="rotate(132 62.848 64.622)" 	
						fill="rgb(156,161,144)" /><use xlink:href="#leaf1"
						x="62.688" y="64.132" 
						transform="rotate(-106 62.688 64.132)" 	
						fill="rgb(133,179,140)" /><use xlink:href="#flower1" id="fleur10"
							x="62.688" y="64.132" 
							transform="rotate(101 62.688 64.132)" />
					<g>
					<path d ="M 50.448,70.684 
					a 65 520 -3.75 0 0 -10.128,-9.456" fill ="none" stroke ="rgb(102.5,57.5,192.5)" stroke-width ="1.188"/></g><circle cx="40.32" cy="61.228" r="0.297" stroke="rgb(107.5,62.5,197.5)" fill="rgb(102.5,57.5,192.5)"/><use xlink:href="#leaf3"
						x="40.32" y="61.228" 
						transform="rotate(91 40.32 61.228)" 	
						fill="rgb(133,152,161)" /><use xlink:href="#leaf4"
						x="40.32" y="61.228" 
						transform="rotate(29 40.73 62.078)" 	
						fill="rgb(158,177,179)" /><use xlink:href="#leaf2"
						x="40.32" y="61.228" 
						transform="rotate(86 41.04 61.488)" 	
						fill="rgb(158,148,162)" /><use xlink:href="#leaf4"
						x="40.32" y="61.228" 
						transform="rotate(178 40.46 61.228)" 	
						fill="rgb(152,148,161)" />
					<g>
					<path d ="M 40.32,61.228 
					a 99 198 -4.88 0 1 9.516,-3.504" fill ="none" stroke ="rgb(102,57,192)" stroke-width ="0.792"/></g><circle cx="49.836" cy="57.724" r="0.198" stroke="rgb(107,62,197)" fill="rgb(102,57,192)"/><use xlink:href="#leaf2"
						x="49.836" y="57.724" 
						transform="rotate(-78 50.476 58.204)" 	
						fill="rgb(151,162,140)" /><use xlink:href="#leaf2"
						x="49.836" y="57.724" 
						transform="rotate(21 49.836 57.724)" 	
						fill="rgb(123,178,178)" /><use xlink:href="#leaf2"
						x="49.836" y="57.724" 
						transform="rotate(-95 50.286 57.784)" 	
						fill="rgb(123,152,150)" /><use xlink:href="#leaf3"
						x="49.836" y="57.724" 
						transform="rotate(27 49.836 57.724)" 	
						fill="rgb(136,183,143)" />
					<g>
					<path d ="M 49.836,57.724 
					a 57 114 -8.53 0 0 11.052,0.804" fill ="none" stroke ="rgb(103,57,196)" stroke-width ="0.594"/></g><circle cx="60.888" cy="58.528" r="0.1485" stroke="rgb(108,62,201)" fill="rgb(103,57,196)"/><use xlink:href="#leaf3"
						x="60.888" y="58.528" 
						transform="rotate(122 60.888 58.528)" 	
						fill="rgb(144,156,146)" /><use xlink:href="#leaf6"
						x="60.888" y="58.528" 
						transform="rotate(148 60.888 58.528)" 	
						fill="rgb(126,163,143)" /><use xlink:href="#leaf2"
						x="60.888" y="58.528" 
						transform="rotate(-101 61.428 59.038)" 	
						fill="rgb(139,171,142)" /><use xlink:href="#leaf4"
						x="60.888" y="58.528" 
						transform="rotate(-146 60.888 58.528)" 	
						fill="rgb(126,182,141)" /><use xlink:href="#leaf4"
						x="60.888" y="58.528" 
						transform="rotate(-60 61.028 59.338)" 	
						fill="rgb(148,169,156)" /><use xlink:href="#leaf2"
						x="60.888" y="58.528" 
						transform="rotate(-152 61.828 59.068)" 	
						fill="rgb(136,147,161)" /><use xlink:href="#leaf5"
						x="60.888" y="58.528" 
						transform="rotate(152 60.888 58.528)" 	
						fill="rgb(144,155,161)" /><use xlink:href="#leaf3"
						x="60.888" y="58.528" 
						transform="rotate(-58 61.208 58.838)" 	
						fill="rgb(151,154,166)" /><use xlink:href="#leaf2"
						x="60.888" y="58.528" 
						transform="rotate(154 61.408 58.768)" 	
						fill="rgb(156,166,141)" /><use xlink:href="#leaf5"
						x="60.888" y="58.528" 
						transform="rotate(-66 60.888 58.528)" 	
						fill="rgb(125,178,162)" /><use xlink:href="#leaf2"
						x="60.888" y="58.528" 
						transform="rotate(-148 61.658 59.488)" 	
						fill="rgb(131,160,154)" /><use xlink:href="#leaf5"
						x="60.888" y="58.528" 
						transform="rotate(-54 61.348 59.008)" 	
						fill="rgb(125,171,143)" /><use xlink:href="#leaf5"
						x="60.888" y="58.528" 
						transform="rotate(40 61.618 58.598)" 	
						fill="rgb(127,172,160)" /><use xlink:href="#leaf3"
						x="60.888" y="58.528" 
						transform="rotate(-27 60.888 58.528)" 	
						fill="rgb(125,149,176)" /><use xlink:href="#leaf6"
						x="60.888" y="58.528" 
						transform="rotate(78 60.888 58.528)" 	
						fill="rgb(151,160,157)" /><use xlink:href="#flower6" id="fleur40"
							x="60.888" y="58.528" 
							transform="rotate(154 60.888 58.528)" /><use xlink:href="#flower6" id="fleur41"
							x="60.888" y="58.528" 
							transform="rotate(-175 62.052 59.344)" /><use xlink:href="#flower6" id="fleur42"
							x="60.888" y="58.528" 
							transform="rotate(-108 61.836 59.152)" /><use xlink:href="#flower6" id="fleur43"
							x="60.888" y="58.528" 
							transform="rotate(-26 61.644 58.684)" />
					<g>
					<path d ="M 40.32,61.228 
					a 89 623 -10.64 0 0 -12.42,5.508" fill ="none" stroke ="rgb(106.5,59.5,197.5)" stroke-width ="0.792"/></g><circle cx="27.9" cy="66.736" r="0.198" stroke="rgb(111.5,64.5,202.5)" fill="rgb(106.5,59.5,197.5)"/><use xlink:href="#leaf2"
						x="27.9" y="66.736" 
						transform="rotate(27 27.9 66.736)" 	
						fill="rgb(142,150,162)" /><use xlink:href="#leaf1"
						x="27.9" y="66.736" 
						transform="rotate(-66 28.68 67.706)" 	
						fill="rgb(149,178,158)" /><use xlink:href="#leaf3"
						x="27.9" y="66.736" 
						transform="rotate(169 28.36 67.506)" 	
						fill="rgb(118,152,175)" /><use xlink:href="#leaf2"
						x="27.9" y="66.736" 
						transform="rotate(-124 27.9 66.736)" 	
						fill="rgb(155,174,168)" /><use xlink:href="#leaf1"
						x="27.9" y="66.736" 
						transform="rotate(74 27.9 66.736)" 	
						fill="rgb(155,170,152)" /><use xlink:href="#leaf3"
						x="27.9" y="66.736" 
						transform="rotate(-171 27.9 66.736)" 	
						fill="rgb(122,180,158)" />
					<g>
					<path d ="M 49.836,57.724 
					a 58 290 -10.90 0 0 3.312,-3.132" fill ="none" stroke ="rgb(106.5,59.5,200.5)" stroke-width ="0.594"/></g><circle cx="53.148" cy="54.592" r="0.1485" stroke="rgb(111.5,64.5,205.5)" fill="rgb(106.5,59.5,200.5)"/><use xlink:href="#leaf3"
						x="53.148" y="54.592" 
						transform="rotate(10 53.148 54.592)" 	
						fill="rgb(135,179,147)" /><use xlink:href="#leaf5"
						x="53.148" y="54.592" 
						transform="rotate(152 53.378 55.092)" 	
						fill="rgb(146,180,154)" /><use xlink:href="#leaf4"
						x="53.148" y="54.592" 
						transform="rotate(160 53.838 54.792)" 	
						fill="rgb(143,167,163)" /><use xlink:href="#leaf6"
						x="53.148" y="54.592" 
						transform="rotate(-102 53.668 55.562)" 	
						fill="rgb(135,158,169)" /><use xlink:href="#leaf2"
						x="53.148" y="54.592" 
						transform="rotate(-167 53.148 54.592)" 	
						fill="rgb(120,173,156)" /><use xlink:href="#leaf3"
						x="53.148" y="54.592" 
						transform="rotate(-131 53.768 54.742)" 	
						fill="rgb(155,151,148)" /><use xlink:href="#flower3" id="fleur60"
							x="53.148" y="54.592" 
							transform="rotate(-136 53.148 54.592)" />
					<g>
					<path d ="M 53.148,54.592 
					a 99 990 12.5 0 0 -3.492,-1.86" fill ="none" stroke ="rgb(111,61,204)" stroke-width ="0.4752"/></g><circle cx="49.656" cy="52.732" r="0.1188" stroke="rgb(116,66,209)" fill="rgb(111,61,204)"/><use xlink:href="#leaf4"
						x="49.656" y="52.732" 
						transform="rotate(-153 50.086 53.042)" 	
						fill="rgb(127,147,147)" /><use xlink:href="#leaf5"
						x="49.656" y="52.732" 
						transform="rotate(152 50.206 53.532)" 	
						fill="rgb(125,146,160)" /><use xlink:href="#leaf3"
						x="49.656" y="52.732" 
						transform="rotate(-166 49.866 53.422)" 	
						fill="rgb(119,174,155)" /><use xlink:href="#leaf5"
						x="49.656" y="52.732" 
						transform="rotate(101 49.656 52.732)" 	
						fill="rgb(136,154,165)" />
					<g>
					<path d ="M 40.32,61.228 
					a 65 130 -3.75 0 1 -8.28,0.9" fill ="none" stroke ="rgb(113.5,63.5,206.5)" stroke-width ="0.792"/></g><circle cx="32.04" cy="62.128" r="0.198" stroke="rgb(118.5,68.5,211.5)" fill="rgb(113.5,63.5,206.5)"/><use xlink:href="#leaf3"
						x="32.04" y="62.128" 
						transform="rotate(-37 32.65 62.668)" 	
						fill="rgb(157,167,150)" /><use xlink:href="#leaf1"
						x="32.04" y="62.128" 
						transform="rotate(58 32.04 62.128)" 	
						fill="rgb(137,183,178)" /><use xlink:href="#leaf3"
						x="32.04" y="62.128" 
						transform="rotate(-169 32.04 62.128)" 	
						fill="rgb(138,146,144)" /><use xlink:href="#leaf4"
						x="32.04" y="62.128" 
						transform="rotate(163 32.04 62.128)" 	
						fill="rgb(129,155,173)" /><use xlink:href="#leaf4"
						x="32.04" y="62.128" 
						transform="rotate(25 32.04 62.128)" 	
						fill="rgb(151,168,159)" /><use xlink:href="#leaf5"
						x="32.04" y="62.128" 
						transform="rotate(86 32.04 62.128)" 	
						fill="rgb(127,171,174)" /><use xlink:href="#leaf5"
						x="32.04" y="62.128" 
						transform="rotate(-83 32.04 62.128)" 	
						fill="rgb(153,181,168)" /><use xlink:href="#leaf4"
						x="32.04" y="62.128" 
						transform="rotate(-160 32.64 62.598)" 	
						fill="rgb(120,146,172)" /><use xlink:href="#leaf1"
						x="32.04" y="62.128" 
						transform="rotate(71 32.96 62.668)" 	
						fill="rgb(155,168,150)" />
					<g>
					<path d ="M 53.148,54.592 
					a 82 574 0.40 0 0 0.696,-5.94" fill ="none" stroke ="rgb(116,66,210)" stroke-width ="0.4752"/></g><circle cx="53.844" cy="48.652" r="0.1188" stroke="rgb(121,71,215)" fill="rgb(116,66,210)"/><use xlink:href="#leaf6"
						x="53.844" y="48.652" 
						transform="rotate(59 53.844 48.652)" 	
						fill="rgb(150,177,150)" /><use xlink:href="#leaf4"
						x="53.844" y="48.652" 
						transform="rotate(-23 53.844 48.652)" 	
						fill="rgb(126,149,140)" /><use xlink:href="#leaf5"
						x="53.844" y="48.652" 
						transform="rotate(-110 53.844 48.652)" 	
						fill="rgb(154,151,160)" /><use xlink:href="#leaf5"
						x="53.844" y="48.652" 
						transform="rotate(-47 54.374 49.302)" 	
						fill="rgb(133,172,140)" /><use xlink:href="#leaf7"
						x="53.844" y="48.652" 
						transform="rotate(-73 54.574 48.772)" 	
						fill="rgb(131,145,161)" /><use xlink:href="#leaf7"
						x="53.844" y="48.652" 
						transform="rotate(27 54.704 49.192)" 	
						fill="rgb(143,149,149)" /><use xlink:href="#leaf4"
						x="53.844" y="48.652" 
						transform="rotate(-16 53.844 48.652)" 	
						fill="rgb(152,152,175)" /><use xlink:href="#leaf3"
						x="53.844" y="48.652" 
						transform="rotate(-133 54.064 48.902)" 	
						fill="rgb(145,155,177)" /><use xlink:href="#leaf4"
						x="53.844" y="48.652" 
						transform="rotate(119 54.314 49.222)" 	
						fill="rgb(153,169,164)" /><use xlink:href="#leaf7"
						x="53.844" y="48.652" 
						transform="rotate(-59 53.844 48.652)" 	
						fill="rgb(124,160,164)" />
					<g>
					<path d ="M 53.148,54.592 
					a 95 190 -7.14 0 0 1.68,0.948" fill ="none" stroke ="rgb(119.5,67.5,211.5)" stroke-width ="0.4752"/></g><circle cx="54.828" cy="55.54" r="0.1188" stroke="rgb(124.5,72.5,216.5)" fill="rgb(119.5,67.5,211.5)"/><use xlink:href="#leaf3"
						x="54.828" y="55.54" 
						transform="rotate(-92 55.748 56.21)" 	
						fill="rgb(139,181,164)" /><use xlink:href="#leaf7"
						x="54.828" y="55.54" 
						transform="rotate(-48 54.828 55.54)" 	
						fill="rgb(130,167,179)" /><use xlink:href="#leaf4"
						x="54.828" y="55.54" 
						transform="rotate(38 55.358 55.62)" 	
						fill="rgb(156,179,139)" /><use xlink:href="#leaf4"
						x="54.828" y="55.54" 
						transform="rotate(124 55.348 55.88)" 	
						fill="rgb(127,145,164)" /><use xlink:href="#leaf6"
						x="54.828" y="55.54" 
						transform="rotate(-126 55.028 56.32)" 	
						fill="rgb(147,147,154)" /><use xlink:href="#leaf4"
						x="54.828" y="55.54" 
						transform="rotate(105 54.888 56.3)" 	
						fill="rgb(140,178,149)" /><use xlink:href="#leaf6"
						x="54.828" y="55.54" 
						transform="rotate(119 55.348 55.97)" 	
						fill="rgb(118,181,175)" /><use xlink:href="#leaf6"
						x="54.828" y="55.54" 
						transform="rotate(-13 54.828 55.54)" 	
						fill="rgb(146,168,167)" /><use xlink:href="#leaf7"
						x="54.828" y="55.54" 
						transform="rotate(104 55.738 55.96)" 	
						fill="rgb(143,149,152)" /><use xlink:href="#leaf6"
						x="54.828" y="55.54" 
						transform="rotate(-17 55.208 56.47)" 	
						fill="rgb(149,149,152)" /><use xlink:href="#leaf4"
						x="54.828" y="55.54" 
						transform="rotate(74 54.828 55.54)" 	
						fill="rgb(155,181,167)" /><use xlink:href="#leaf6"
						x="54.828" y="55.54" 
						transform="rotate(-15 54.828 55.54)" 	
						fill="rgb(122,159,140)" /><use xlink:href="#leaf4"
						x="54.828" y="55.54" 
						transform="rotate(-144 54.978 55.65)" 	
						fill="rgb(145,170,164)" /><use xlink:href="#leaf4"
						x="54.828" y="55.54" 
						transform="rotate(-34 55.798 55.9)" 	
						fill="rgb(158,169,165)" /><use xlink:href="#leaf3"
						x="54.828" y="55.54" 
						transform="rotate(-87 55.588 55.89)" 	
						fill="rgb(147,146,155)" />
					<g>
					<path d ="M 53.148,54.592 
					a 64 192 13.91 0 1 11.64,-4.452" fill ="none" stroke ="rgb(123,70,214)" stroke-width ="0.4752"/></g><circle cx="64.788" cy="50.14" r="0.1188" stroke="rgb(128,75,219)" fill="rgb(123,70,214)"/><use xlink:href="#leaf5"
						x="64.788" y="50.14" 
						transform="rotate(158 64.788 50.14)" 	
						fill="rgb(137,146,151)" /><use xlink:href="#leaf3"
						x="64.788" y="50.14" 
						transform="rotate(149 64.788 50.14)" 	
						fill="rgb(147,150,164)" /><use xlink:href="#leaf7"
						x="64.788" y="50.14" 
						transform="rotate(63 65.138 50.71)" 	
						fill="rgb(120,160,150)" /><use xlink:href="#leaf7"
						x="64.788" y="50.14" 
						transform="rotate(-55 64.908 50.58)" 	
						fill="rgb(146,158,174)" /><use xlink:href="#leaf3"
						x="64.788" y="50.14" 
						transform="rotate(-33 65.238 50.74)" 	
						fill="rgb(118,161,165)" /><use xlink:href="#leaf7"
						x="64.788" y="50.14" 
						transform="rotate(7 64.788 50.14)" 	
						fill="rgb(140,165,171)" /><use xlink:href="#leaf7"
						x="64.788" y="50.14" 
						transform="rotate(95 64.788 50.14)" 	
						fill="rgb(138,173,177)" /><use xlink:href="#leaf5"
						x="64.788" y="50.14" 
						transform="rotate(-112 65.248 50.49)" 	
						fill="rgb(148,150,159)" /><use xlink:href="#flower5" id="fleur110"
							x="64.788" y="50.14" 
							transform="rotate(-94 64.788 50.14)" /><use xlink:href="#flower5" id="fleur111"
							x="64.788" y="50.14" 
							transform="rotate(-7 64.788 50.14)" /><use xlink:href="#flower5" id="fleur112"
							x="64.788" y="50.14" 
							transform="rotate(-3 65.964 50.86)" /><use xlink:href="#flower5" id="fleur113"
							x="64.788" y="50.14" 
							transform="rotate(-145 65.148 50.14)" /><use xlink:href="#flower5" id="fleur114"
							x="64.788" y="50.14" 
							transform="rotate(122 64.788 50.14)" />
					<g>
					<path d ="M 27.9,66.736 
					a 80 80 11.63 0 0 -1.8,-7.44" fill ="none" stroke ="rgb(127,71,215)" stroke-width ="0.594"/></g><circle cx="26.1" cy="59.296" r="0.1485" stroke="rgb(132,76,220)" fill="rgb(127,71,215)"/><use xlink:href="#leaf4"
						x="26.1" y="59.296" 
						transform="rotate(14 26.1 59.296)" 	
						fill="rgb(149,147,170)" /><use xlink:href="#leaf6"
						x="26.1" y="59.296" 
						transform="rotate(-155 26.1 59.296)" 	
						fill="rgb(158,147,168)" /><use xlink:href="#leaf4"
						x="26.1" y="59.296" 
						transform="rotate(-64 26.1 59.296)" 	
						fill="rgb(132,175,178)" /><use xlink:href="#leaf6"
						x="26.1" y="59.296" 
						transform="rotate(-172 26.1 59.296)" 	
						fill="rgb(145,155,179)" /><use xlink:href="#leaf6"
						x="26.1" y="59.296" 
						transform="rotate(-179 26.15 59.896)" 	
						fill="rgb(119,147,146)" /><use xlink:href="#leaf6"
						x="26.1" y="59.296" 
						transform="rotate(64 26.8 59.386)" 	
						fill="rgb(119,149,149)" /><use xlink:href="#leaf2"
						x="26.1" y="59.296" 
						transform="rotate(-92 26.76 59.616)" 	
						fill="rgb(121,176,157)" /><use xlink:href="#leaf6"
						x="26.1" y="59.296" 
						transform="rotate(-32 26.9 59.356)" 	
						fill="rgb(136,144,155)" /><use xlink:href="#leaf4"
						x="26.1" y="59.296" 
						transform="rotate(157 26.51 59.706)" 	
						fill="rgb(157,181,153)" /><use xlink:href="#leaf6"
						x="26.1" y="59.296" 
						transform="rotate(-167 26.1 59.296)" 	
						fill="rgb(151,164,142)" /><use xlink:href="#leaf6"
						x="26.1" y="59.296" 
						transform="rotate(-156 26.1 59.296)" 	
						fill="rgb(136,168,174)" /><use xlink:href="#leaf2"
						x="26.1" y="59.296" 
						transform="rotate(-129 27.07 60.236)" 	
						fill="rgb(120,171,165)" /><use xlink:href="#leaf4"
						x="26.1" y="59.296" 
						transform="rotate(-47 26.51 59.586)" 	
						fill="rgb(131,146,141)" /><use xlink:href="#leaf4"
						x="26.1" y="59.296" 
						transform="rotate(-10 26.1 59.296)" 	
						fill="rgb(125,175,173)" /><use xlink:href="#leaf2"
						x="26.1" y="59.296" 
						transform="rotate(166 26.24 59.416)" 	
						fill="rgb(139,180,148)" />
					<g>
					<path d ="M 26.1,59.296 
					a 84 840 -6.23 0 0 -10.392,-2.916" fill ="none" stroke ="rgb(129.5,74.5,219.5)" stroke-width ="0.4752"/></g><circle cx="15.708" cy="56.38" r="0.1188" stroke="rgb(134.5,79.5,224.5)" fill="rgb(129.5,74.5,219.5)"/><use xlink:href="#leaf3"
						x="15.708" y="56.38" 
						transform="rotate(51 15.958 57.03)" 	
						fill="rgb(151,165,140)" /><use xlink:href="#leaf5"
						x="15.708" y="56.38" 
						transform="rotate(-43 16.158 56.68)" 	
						fill="rgb(154,165,156)" /><use xlink:href="#leaf7"
						x="15.708" y="56.38" 
						transform="rotate(73 15.998 57.31)" 	
						fill="rgb(126,162,178)" /><use xlink:href="#leaf4"
						x="15.708" y="56.38" 
						transform="rotate(7 15.748 56.77)" 	
						fill="rgb(152,167,145)" /><use xlink:href="#leaf6"
						x="15.708" y="56.38" 
						transform="rotate(-40 15.708 56.38)" 	
						fill="rgb(148,169,164)" />
					<g>
					<path d ="M 15.708,56.38 
					a 94 846 7.85 0 1 13.152,5.94" fill ="none" stroke ="rgb(132.5,75.5,220.5)" stroke-width ="0.396"/></g><circle cx="28.86" cy="62.32" r="0.099" stroke="rgb(137.5,80.5,225.5)" fill="rgb(132.5,75.5,220.5)"/><use xlink:href="#leaf4"
						x="28.86" y="62.32" 
						transform="rotate(153 28.86 62.32)" 	
						fill="rgb(127,154,144)" /><use xlink:href="#leaf8"
						x="28.86" y="62.32" 
						transform="rotate(123 29.31 62.66)" 	
						fill="rgb(137,161,141)" /><use xlink:href="#leaf4"
						x="28.86" y="62.32" 
						transform="rotate(115 29.1 62.95)" 	
						fill="rgb(149,172,140)" /><use xlink:href="#leaf6"
						x="28.86" y="62.32" 
						transform="rotate(76 28.86 62.32)" 	
						fill="rgb(144,174,166)" /><use xlink:href="#leaf4"
						x="28.86" y="62.32" 
						transform="rotate(120 29.71 62.85)" 	
						fill="rgb(148,154,168)" /><use xlink:href="#leaf8"
						x="28.86" y="62.32" 
						transform="rotate(-157 29.44 62.72)" 	
						fill="rgb(128,149,168)" /><use xlink:href="#leaf6"
						x="28.86" y="62.32" 
						transform="rotate(149 29.27 62.59)" 	
						fill="rgb(137,145,170)" /><use xlink:href="#leaf8"
						x="28.86" y="62.32" 
						transform="rotate(103 28.86 62.32)" 	
						fill="rgb(127,154,163)" /><use xlink:href="#leaf7"
						x="28.86" y="62.32" 
						transform="rotate(33 28.86 62.32)" 	
						fill="rgb(157,162,143)" /><use xlink:href="#leaf8"
						x="28.86" y="62.32" 
						transform="rotate(44 28.86 62.32)" 	
						fill="rgb(157,173,157)" /><use xlink:href="#flower8" id="fleur140"
							x="28.86" y="62.32" 
							transform="rotate(-172 29.1 62.812)" /><use xlink:href="#flower8" id="fleur141"
							x="28.86" y="62.32" 
							transform="rotate(-158 28.86 62.32)" />
					<g>
					<path d ="M 26.1,59.296 
					a 83 830 -18.69 0 0 7.956,-11.484" fill ="none" stroke ="rgb(133,76,224)" stroke-width ="0.4752"/></g><circle cx="34.056" cy="47.812" r="0.1188" stroke="rgb(138,81,229)" fill="rgb(133,76,224)"/><use xlink:href="#leaf3"
						x="34.056" y="47.812" 
						transform="rotate(-31 34.056 47.812)" 	
						fill="rgb(130,148,140)" /><use xlink:href="#leaf5"
						x="34.056" y="47.812" 
						transform="rotate(-86 34.056 47.812)" 	
						fill="rgb(134,144,171)" /><use xlink:href="#leaf3"
						x="34.056" y="47.812" 
						transform="rotate(53 34.056 47.812)" 	
						fill="rgb(118,175,166)" /><use xlink:href="#leaf3"
						x="34.056" y="47.812" 
						transform="rotate(-17 34.126 48.272)" 	
						fill="rgb(147,165,179)" /><use xlink:href="#leaf3"
						x="34.056" y="47.812" 
						transform="rotate(-127 34.296 48.772)" 	
						fill="rgb(128,181,176)" /><use xlink:href="#leaf7"
						x="34.056" y="47.812" 
						transform="rotate(-127 34.056 47.812)" 	
						fill="rgb(128,167,146)" /><use xlink:href="#leaf5"
						x="34.056" y="47.812" 
						transform="rotate(45 35.026 48.622)" 	
						fill="rgb(158,154,169)" /><use xlink:href="#leaf7"
						x="34.056" y="47.812" 
						transform="rotate(135 34.056 47.812)" 	
						fill="rgb(156,162,162)" /><use xlink:href="#leaf3"
						x="34.056" y="47.812" 
						transform="rotate(52 34.056 47.812)" 	
						fill="rgb(141,167,168)" /><use xlink:href="#leaf7"
						x="34.056" y="47.812" 
						transform="rotate(-74 34.056 47.812)" 	
						fill="rgb(155,162,140)" /><use xlink:href="#flower7" id="fleur150"
							x="34.056" y="47.812" 
							transform="rotate(7 34.116 47.92)" /><use xlink:href="#flower7" id="fleur151"
							x="34.056" y="47.812" 
							transform="rotate(-15 34.812 48.952)" /><use xlink:href="#flower7" id="fleur152"
							x="34.056" y="47.812" 
							transform="rotate(-1 34.056 47.812)" /><use xlink:href="#flower7" id="fleur153"
							x="34.056" y="47.812" 
							transform="rotate(106 34.056 47.812)" /><use xlink:href="#flower7" id="fleur154"
							x="34.056" y="47.812" 
							transform="rotate(1 34.2 48.652)" />
					<g>
					<path d ="M 27.9,66.736 
					a 62 372 -5.44 0 1 -12.636,-2.616" fill ="none" stroke ="rgb(134,77,226)" stroke-width ="0.594"/></g><circle cx="15.264" cy="64.12" r="0.1485" stroke="rgb(139,82,231)" fill="rgb(134,77,226)"/><use xlink:href="#leaf2"
						x="15.264" y="64.12" 
						transform="rotate(-109 15.944 65.03)" 	
						fill="rgb(136,162,167)" /><use xlink:href="#leaf2"
						x="15.264" y="64.12" 
						transform="rotate(28 15.264 64.12)" 	
						fill="rgb(118,148,162)" /><use xlink:href="#leaf3"
						x="15.264" y="64.12" 
						transform="rotate(-150 15.564 64.75)" 	
						fill="rgb(148,183,163)" /><use xlink:href="#leaf4"
						x="15.264" y="64.12" 
						transform="rotate(179 15.264 64.12)" 	
						fill="rgb(150,164,161)" /><use xlink:href="#leaf5"
						x="15.264" y="64.12" 
						transform="rotate(-127 15.264 64.12)" 	
						fill="rgb(138,167,142)" /><use xlink:href="#leaf6"
						x="15.264" y="64.12" 
						transform="rotate(-173 15.304 65.09)" 	
						fill="rgb(157,165,158)" /><use xlink:href="#leaf3"
						x="15.264" y="64.12" 
						transform="rotate(124 15.264 64.12)" 	
						fill="rgb(153,181,150)" /><use xlink:href="#leaf3"
						x="15.264" y="64.12" 
						transform="rotate(64 15.264 64.12)" 	
						fill="rgb(146,144,160)" /><use xlink:href="#leaf2"
						x="15.264" y="64.12" 
						transform="rotate(-76 15.264 64.12)" 	
						fill="rgb(149,145,153)" /></g>
				</svg>