<svg id="Capa_1" enable-background="new 0 0 512 512" height="512" viewBox="0 0 512 512" width="512" xmlns="http://www.w3.org/2000/svg"><g><g fill="#cecece"><path d="m173.21 402.192c1.059 0 2.135-.217 3.165-.676l79.618-35.45 79.633 35.449c1.03.459 2.105.676 3.164.676 2.982 0 5.83-1.724 7.121-4.625 1.75-3.931-.018-8.536-3.949-10.285l-66.815-29.743 61.126-27.216c3.931-1.75 5.698-6.355 3.948-10.286s-6.357-5.699-10.286-3.948l-73.944 32.923-73.927-32.909c-3.93-1.75-8.536.018-10.285 3.949-1.75 3.931.018 8.536 3.949 10.285l61.109 27.203-66.8 29.743c-3.931 1.75-5.698 6.355-3.948 10.286 1.291 2.902 4.139 4.624 7.121 4.624z"/><path d="m348.274 490.648-72.46-30.987 67.848-29.015c3.956-1.691 5.791-6.27 4.099-10.227-1.691-3.956-6.268-5.798-10.227-4.099l-81.534 34.867-81.535-34.867c-3.958-1.698-8.537.143-10.227 4.099-1.692 3.956.143 8.536 4.099 10.227l67.849 29.015-72.459 30.986c-3.956 1.691-5.791 6.27-4.099 10.227 1.264 2.957 4.142 4.729 7.167 4.729 1.022 0 2.06-.202 3.06-.63l86.145-36.839 86.146 36.839c.999.428 2.038.63 3.06.63 3.025 0 5.903-1.772 7.167-4.729 1.692-3.955-.143-8.535-4.099-10.226z"/></g><path d="m169.261 90.26h173.478v65.444h-173.478z" fill="#c0d6f2"/><path d="m153.357 90.26h205.287c3.93 0 5.664-4.95 2.593-7.402l-102.644-81.95c-1.516-1.211-3.669-1.211-5.185 0l-102.644 81.95c-3.071 2.451-1.337 7.402 2.593 7.402z" fill="#0473ce"/><path d="m166.093 509.077 12.803-206.393h-29.446l-12.78 206.007c-.111 1.794 1.313 3.309 3.11 3.309h23.201c1.647 0 3.01-1.28 3.112-2.923z" fill="#acacac"/><path d="m345.907 509.061-12.803-206.393h29.446l12.78 206.007c.111 1.794-1.313 3.309-3.11 3.309h-23.201c-1.647 0-3.01-1.28-3.112-2.923z" fill="#acacac"/><path d="m362.197 302.684h-212.394c-4.59 0-8.31-3.721-8.31-8.31v-163.082c0-4.59 3.721-8.31 8.31-8.31h212.394c4.59 0 8.31 3.721 8.31 8.31v163.082c0 4.589-3.72 8.31-8.31 8.31z" fill="#82aee3"/><path d="m251.379 153.157-23.886 53.439c-5.301 11.86-2.609 25.77 6.734 34.796 11.963 11.557 30.932 11.557 42.895 0 9.343-9.026 12.035-22.936 6.734-34.796l-23.886-53.439c-1.66-3.713-6.931-3.713-8.591 0z" fill="#c0d6f2"/><path d="m157.315 394.398h197.37v29.086h-197.37z" fill="#acacac"/><path d="m345.907 509.061-12.803-206.393h29.446l12.78 206.007c.111 1.794-1.313 3.309-3.11 3.309h-23.201c-1.647 0-3.01-1.28-3.112-2.923z" fill="#acacac"/><path d="m361.236 82.858-102.644-81.95c-1.516-1.211-3.669-1.211-5.185 0l-15.075 12.036 87.568 69.914c3.071 2.452 1.337 7.402-2.592 7.402h35.335c3.93 0 5.664-4.95 2.593-7.402z" fill="#0067c5"/><path d="m362.197 122.981h-35.335c4.59 0 8.31 3.721 8.31 8.31v163.082c0 4.59-3.72 8.31-8.31 8.31h35.335c4.59 0 8.31-3.72 8.31-8.31v-163.081c0-4.59-3.72-8.311-8.31-8.311z" fill="#528fd8"/><path d="m169.261 90.26h173.478v16.361h-173.478z" fill="#82aee3"/><path d="m146.335 352.906h29.445l2.578-41.552h-29.446z" fill="#9c9c9c"/><path d="m336.221 352.906h29.445l-2.577-41.552h-29.446z" fill="#9c9c9c"/><path d="m387.926 323.46h-263.852c-4.59 0-8.31-3.721-8.31-8.31v-24.931c0-4.59 3.721-8.31 8.31-8.31h263.852c4.59 0 8.31 3.721 8.31 8.31v24.931c.001 4.589-3.72 8.31-8.31 8.31z" fill="#838383"/><path d="m387.926 281.908h-35.335c4.589 0 8.31 3.721 8.31 8.31v24.931c0 4.59-3.721 8.31-8.31 8.31h35.335c4.59 0 8.31-3.72 8.31-8.31v-24.931c.001-4.589-3.72-8.31-8.31-8.31z" fill="#5a5a5a"/></g></svg>