<svg id="Capa_1" enable-background="new 0 0 505.638 505.638" height="512" viewBox="0 0 505.638 505.638" width="512" xmlns="http://www.w3.org/2000/svg"><g><path d="m212.617 105.102c1.834-2.121 1.601-5.326-.519-7.16l-110.515-95.57c-2.121-1.834-5.326-1.601-7.16.519l-18.647 21.564-3.724 17.663 110.618 99.556z" fill="#fec165"/><path d="m142.803 412.575h218.131v88.562h-218.131z" fill="#e1d3ce"/><g><g id="XMLID_170_"><path d="m360.933 412.575h-181.221-36.909v88.562h36.909v-33.202c0-12.347 10.009-22.356 22.356-22.356h158.866v-33.004z" fill="#cdbfba"/><path d="m189.923 238.6-20.075-20.241c-1.974-1.99-5.188-2.004-7.179-.029l-103.736 102.887c-1.99 1.974-2.004 5.188-.029 7.179l20.075 20.241 24.297 5.54 96.359-96.359z" fill="#fec165"/><path d="m191.901 284.065-80.633 79.973c-4.737 4.698-12.386 4.667-17.085-.07l-15.206-15.331 112.923-111.999 38.938-34.304 15.289 23.692z" fill="#fdb441"/><path d="m309.327 232.371c-1.053-1.053-22.145-4.554-22.145-4.554l-9.75 39.527 34.403 32.62 77.727 77.726c1.982 1.982 5.196 1.982 7.178 0l20.158-20.158v-26.177c0 .001-106.518-97.931-107.571-98.984z" fill="#fec165"/><path d="m311.835 222.827h15.977c1.282 0 2.512.509 3.418 1.416l100.936 100.936c4.718 4.718 4.718 12.367 0 17.085l-15.268 15.268-130.611-130.611z" fill="#fdb441"/><path d="m370.888 423.58-59.05-116.1v-64.79l-8.436-14.873h-90.18l-21.324 14.873v64.79l-59.05 116.1c-.47.91.19 2 1.22 2h235.6c1.03 0 1.69-1.09 1.22-2z" fill="#f9f3f1"/></g><path d="m142.803 465.356h218.131v35.781h-218.131z" fill="#cdbfba"/><path d="m179.864 465.356h-37.062v35.781h36.909v-33.202c.001-.872.056-1.732.153-2.579z" fill="#b9acac"/><path d="m267.971 498.138h-32.206v-21.691c0-8.893 7.209-16.103 16.103-16.103 8.893 0 16.103 7.209 16.103 16.103z" fill="#b9acac"/><g><path d="m372.815 505.638h-242.123c-4.143 0-7.5-3.358-7.5-7.5s3.357-7.5 7.5-7.5h242.123c4.143 0 7.5 3.358 7.5 7.5s-3.357 7.5-7.5 7.5z" fill="#e1d3ce"/></g><path d="m209.705 276.02v33.33h103.083l-.95-1.87v-31.46z" fill="#f3eae6"/><path d="m263.4 345.242h-23.294c-2.524 0-4.57-2.046-4.57-4.57v-68.758c0-2.524 2.046-4.57 4.57-4.57h23.294c2.524 0 4.57 2.046 4.57 4.57v68.758c.001 2.524-2.045 4.57-4.57 4.57z" fill="#cdbfba"/><g><g><path d="m241.617 189.62c-1.893 0-3.787-.712-5.246-2.141-2.96-2.898-3.01-7.646-.111-10.606l81.254-84.233c2.823-3.029 7.569-3.196 10.601-.371 3.029 2.825 3.195 7.571.37 10.6l-58.46 60.96-23.048 23.538c-1.469 1.5-3.414 2.253-5.36 2.253z" fill="#e1d3ce"/></g></g><g><g><path d="m238.624 192.532c-1.683 0-3.373-.563-4.771-1.717l-26.899-22.212c-.036-.029-.071-.059-.106-.089l-47.978-39.719c-3.21-2.618-3.689-7.342-1.071-10.552s7.341-3.691 10.552-1.072l75.054 62.079c3.194 2.638 3.646 7.365 1.008 10.559-1.486 1.795-3.629 2.723-5.789 2.723z" fill="#e1d3ce"/></g></g><path d="m278.758 160.06h-53.78c-18.27 0-33.08 14.81-33.08 33.07v16.23l29.38 18.457h76.212l14.348-18.457v-16.23c0-18.26-14.81-33.07-33.08-33.07z" fill="#f9f3f1"/><path d="m278.758 160.06h-53.78c-18.269 0-33.08 14.81-33.08 33.08v16.22l29.38 18.457h7.184v-5.891-24.392c0-13.707 10.947-25.09 24.653-25.212.099-.001.199-.001.299-.001l51.059.006c-6.065-7.478-15.335-12.267-25.715-12.267z" fill="#f3eae6"/><g id="XMLID_171_"><g><path d="m191.898 209.36h119.94v33.33h-119.94z" fill="#f3eae6"/></g></g><path d="m361.345 404.817 9.543 18.763c.47.91-.19 2-1.22 2h-235.6c-1.03 0-1.69-1.09-1.22-2l59.05-116.1v-64.79l21.324-14.873h15.24v54.362c0 2.983-.705 5.923-2.057 8.582l-38.314 75.125c-9.084 17.811 3.854 38.933 23.848 38.933z" fill="#f3eae6"/><g id="XMLID_172_"><path d="m169.565 375.523 177.119.487-16.95-33.33h-145.78z" fill="#f3eae6"/></g><g id="XMLID_173_"><path d="m316.07 129.3 20.158 20.158c1.982 1.982 5.196 1.982 7.179 0l103.313-103.313c1.982-1.982 1.982-5.196 0-7.179l-20.158-20.158h-24.617l-87.664 87.664z" fill="#fec165"/><g><path d="m411.298 3.54 15.26 15.27-118.86 118.86c-2.088 2.088-5.425 2.232-7.686.333l-8.155-6.853v-23.266c0-1.277.507-2.501 1.41-3.404l100.941-100.94c4.72-4.72 12.37-4.72 17.09 0z" fill="#fdb441"/></g></g><g id="XMLID_174_"><g><path d="m205.611 139.559-8.043 11.121-23.2 1.68c-1.27.1-2.54-.32-3.51-1.16l-107.97-93.37c-5.05-4.37-5.6-12-1.24-17.04l14.13-16.34 129.467 111.966c.918.795 1.077 2.159.366 3.143z" fill="#fdb441"/></g></g></g><g fill="#e1d3ce"><path d="m199.926 342.68h-25.932l-16.681 32.805 27.929.118z"/><path d="m228.462 280.719v-4.699h-36.564v31.46l-.95 1.87h26.002l8.793-17.288c1.787-3.514 2.719-7.4 2.719-11.343z"/><path d="m191.898 209.36h36.564v33.33h-36.564z"/></g></g></svg>