<?xml version="1.0" encoding="iso-8859-1"?>
<!-- Generator: Adobe Illustrator 19.0.0, SVG Export Plug-In . SVG Version: 6.00 Build 0)  -->
<svg version="1.1" id="Capa_1" xmlns="http://www.w3.org/2000/svg" xmlns:xlink="http://www.w3.org/1999/xlink" x="0px" y="0px"
	 viewBox="0 0 512 512" xml:space="preserve">
<g>
	<g>
		<path d="M484.374,235.441C400.378,270.1,323.8,344.084,276.026,407.743V251.049c15.429-2.101,38.853-6.453,62.474-15.251
			c24.366-9.076,44.029-21.061,58.444-35.62c19.286-19.48,29.065-43.111,29.065-70.235c0-56.401-53.308-112.489-55.577-114.849
			L356.018,0.101l-14.415,14.991c-1.33,1.384-20.193,21.229-35.579,48.772c-15.387-27.544-34.249-47.39-35.579-48.772L256.029,0.101
			l-14.415,14.991c-1.33,1.384-20.193,21.229-35.579,48.772c-15.387-27.544-34.249-47.39-35.579-48.772L156.04,0.101l-14.415,14.991
			c-2.27,2.36-55.577,58.448-55.577,114.849c0,27.124,9.779,50.755,29.065,70.235c14.415,14.56,34.078,26.544,58.444,35.62
			c23.621,8.798,47.045,13.151,62.474,15.251v156.77C188.261,344.142,111.655,270.113,27.626,235.44L0,224.043v29.886
			C0,364.33,54.746,427.232,100.672,460.56c52.933,38.412,109.276,50.084,135.36,51.235v0.104h4.192h31.554h4.192h0.058v-0.106
			c26.11-1.166,82.409-12.85,135.302-51.233C457.254,427.232,512,364.33,512,253.928v-29.886L484.374,235.441z M124.162,428.19
			c-47.488-34.461-75.07-82.01-82.265-141.642c82.801,44.983,155.912,128.841,188.685,184.755
			C205.796,468.536,162.428,455.957,124.162,428.19z M326.02,129.941c0.001-23.72,16.195-51.21,29.997-69.764
			c13.806,18.561,29.997,46.046,29.997,69.764c0,45.742-48.069,66.55-85.762,75.836C313.445,184.652,326.02,157.334,326.02,129.941z
			 M126.044,129.942c0-23.721,16.195-51.211,29.997-69.764c13.806,18.561,29.997,46.046,29.997,69.764
			c0,27.393,12.575,54.71,25.769,75.835C174.107,196.491,126.044,175.681,126.044,129.942z M256.028,199.704
			c-13.806-18.561-29.997-46.045-29.997-69.763c0.001-23.72,16.195-51.21,29.997-69.764c13.806,18.561,29.997,46.046,29.997,69.764
			S269.834,181.144,256.028,199.704z M387.837,428.19c-38.266,27.768-81.633,40.347-106.419,43.113
			c32.772-55.914,105.884-139.772,188.685-184.755C462.908,346.18,435.325,393.728,387.837,428.19z" fill="white"/>
	</g>
</g>

</svg>
