<?xml version="1.0" encoding="iso-8859-1"?>
<!-- Generator: Adobe Illustrator 19.0.0, SVG Export Plug-In . SVG Version: 6.00 Build 0)  -->
<svg xmlns="http://www.w3.org/2000/svg" xmlns:xlink="http://www.w3.org/1999/xlink" version="1.1" id="Layer_1" x="0px" y="0px" viewBox="0 0 511.712 511.712" xml:space="preserve" width="512" height="512">
<path d="M255.856,0c-113.037,0-205,91.963-205,205v5.667c0,57.168,32.776,123.786,97.418,198.002  c46.861,53.802,93.068,91.317,95.013,92.888l12.569,10.155l12.569-10.155c1.944-1.57,48.151-39.086,95.013-92.888  c64.642-74.216,97.418-140.834,97.418-198.002V205C460.856,91.963,368.893,0,255.856,0z M420.856,210.667  c0,96.61-124.481,213.56-165,249.062c-40.531-35.514-165-152.458-165-249.062V205c0-90.981,74.019-165,165-165s165,74.019,165,165  V210.667z M238.048,118.089c0-13.807,11.193-25,25-25c13.807,0,25,11.193,25,25s-11.193,25-25,25  C249.241,143.089,238.048,131.896,238.048,118.089z M290.255,295.453l17.54,35.949l-13.588,6.63  c-6.775,3.306-14.054,4.935-21.294,4.935c-10.142,0-20.208-3.194-28.716-9.451c-14.579-10.722-21.94-28.493-19.211-46.381  c0.096-0.626,0.221-1.247,0.375-1.86l15.876-63.148c0.328-3.996-1.985-6.354-3.448-7.431c-1.549-1.139-4.747-2.757-8.771-0.792  l-16.397,7.998l-17.526-35.955l16.382-7.992c16.264-7.937,35.428-6.207,50.01,4.518c14.579,10.721,21.94,28.493,19.211,46.38  c-0.096,0.626-0.221,1.247-0.375,1.86l-15.876,63.148c-0.328,3.996,1.984,6.354,3.448,7.431c1.549,1.139,4.748,2.756,8.771,0.792  L290.255,295.453z" fill="white"/>

</svg>
