<svg xmlns="http://www.w3.org/2000/svg" height="512pt" version="1.1" viewBox="-37 0 512 512" width="512pt">
<g id="surface1">
<path d="M 438.40625 349.945312 L 425.277344 180.585938 C 424.761719 173.929688 423.609375 167.355469 421.84375 160.960938 C 426.863281 144.652344 429.425781 126.9375 429.425781 108 L 429.425781 85 L 378.429688 85 L 378.429688 0 L 338.429688 0 L 338.429688 85 L 298.429688 85 L 298.429688 80 C 298.429688 35.886719 262.539062 0 218.429688 0 C 174.316406 0 138.429688 35.886719 138.429688 80 L 138.429688 85 L 98.429688 85 L 98.429688 0 L 58.429688 0 L 58.429688 85 L 9.425781 85 L 9.425781 108 C 9.425781 126.9375 11.988281 144.652344 17.007812 160.960938 C 15.242188 167.355469 14.089844 173.929688 13.574219 180.585938 L 0.445312 349.945312 C -2.78125 391.601562 11.640625 433.082031 40.019531 463.746094 C 68.402344 494.410156 108.644531 512 150.425781 512 L 288.425781 512 C 330.207031 512 370.449219 494.410156 398.828125 463.746094 C 427.210938 433.082031 441.636719 391.601562 438.40625 349.945312 Z M 178.429688 80 C 178.429688 57.945312 196.371094 40 218.429688 40 C 240.484375 40 258.429688 57.945312 258.429688 80 L 258.429688 85 L 178.429688 85 Z M 388.539062 125 C 378.90625 214.300781 293.027344 233.917969 239.429688 237.355469 L 239.429688 207 L 199.429688 207 L 199.429688 237.359375 C 145.832031 233.921875 59.945312 214.304688 50.3125 125 Z M 150.425781 472 C 139.128906 472 128.140625 470.335938 117.714844 467.128906 L 122.425781 409.804688 L 122.425781 408.992188 C 122.429688 397.96875 131.402344 389 142.425781 389 L 297.425781 389 C 308.453125 389 317.425781 397.972656 317.425781 409 L 317.425781 409.820312 L 322.109375 466.835938 C 311.398438 470.238281 300.074219 472 288.425781 472 Z M 369.472656 436.578125 C 366.609375 439.671875 363.605469 442.566406 360.476562 445.277344 L 357.417969 408.097656 C 356.9375 375.429688 330.207031 349 297.425781 349 L 142.425781 349 C 109.65625 349 82.929688 375.417969 82.433594 408.074219 L 79.308594 446.078125 C 75.84375 443.140625 72.523438 439.976562 69.378906 436.578125 C 48.238281 413.734375 37.917969 384.066406 40.324219 353.035156 L 50.71875 218.960938 C 57.515625 226.121094 65.105469 232.707031 73.503906 238.664062 C 105.632812 261.449219 148.871094 274.714844 199.429688 277.457031 L 199.429688 309 L 239.429688 309 L 239.429688 277.457031 C 289.980469 274.710938 333.21875 261.445312 365.34375 238.664062 C 373.746094 232.707031 381.335938 226.121094 388.132812 218.960938 L 398.527344 353.035156 C 400.929688 384.066406 390.613281 413.734375 369.472656 436.578125 Z M 369.472656 436.578125 " fill="white"/>
</g>
</svg>