<?xml version="1.0" encoding="iso-8859-1"?>
<svg version="1.1" id="Capa_1" xmlns="http://www.w3.org/2000/svg" xmlns:xlink="http://www.w3.org/1999/xlink" x="0px" y="0px"
viewBox="0 0 500 500" xml:space="preserve"><defs><g id="feuille1">
<path d="M 0,0
c 70,-15 60,-12 0,-84
M 0,0
c -70,-15 -60,-12 0,-84
z" stroke="#85e085" stroke-width="0"/>
<polygon points="-3,3, 0,-58.8 3 3" stroke="rgb(127,180,138)" stroke-width="2" fill="rgb(127,180,138)"/>
</g>
<g id="feuille2">
<path d="M 0,0
c 46.666666666667,-10 40,-8 0,-56
M 0,0
c -46.666666666667,-10 -40,-8 0,-56
z" stroke="#85e085" stroke-width="0"/>
<polygon points="-3 3, 0,-39.2, 3 3" stroke="rgb(127,180,138)" stroke-width="1" fill="rgb(127,180,138)"/>
</g><g id="feuille3">
<path d="M 0,0
c 35,-7.5 30,-6 0,-42
M 0,0
c -35,-7.5 -30,-6 0,-42
z" stroke="#85e085" stroke-width="0"/>
<polygon points="-3 3, 0,-29.4, 3 3" stroke="rgb(127,180,138)" stroke-width="1" fill="rgb(127,180,138)"/>
</g><g id="feuille4">
<path d="M 0,0
c 28,-6 24,-4.8 0,-33.6
M 0,0
c -28,-6 -24,-4.8 0,-33.6
z" stroke="#85e085" stroke-width="0"/>
<polygon points="-3 3, 0,-23.52, 3 3" stroke="rgb(127,180,138)" stroke-width="1" fill="rgb(127,180,138)"/>
</g><g id="fleur1"><path d="M 0,0
	c 22,-78 29,-68 0,-80
	M 0,0
	c -22,-78 -29,-68 0,-80
	z" fill="rgb(94,112,185)" stroke-width="1" transform="rotate(0 0,0)"/><path d="M 0,0
	c 22,-78 29,-68 0,-75
	M 0,0
	c -22,-78 -29,-68 0,-75
	z" fill="rgb(74,92,165)" stroke-width="1" transform="rotate(25.753846153846 0,0)"/><path d="M 0,0
	c 22,-78 29,-68 0,-88
	M 0,0
	c -22,-78 -29,-68 0,-88
	z" fill="rgb(54,72,145)" stroke-width="1" transform="rotate(59.261538461538 0,0)"/><path d="M 0,0
	c 22,-78 29,-68 0,-82
	M 0,0
	c -22,-78 -29,-68 0,-82
	z" fill="rgb(84,102,175)" stroke-width="1" transform="rotate(89.723076923077 0,0)"/><path d="M 0,0
	c 22,-78 29,-68 0,-93
	M 0,0
	c -22,-78 -29,-68 0,-93
	z" fill="rgb(54,72,145)" stroke-width="1" transform="rotate(121.84615384615 0,0)"/><path d="M 0,0
	c 22,-78 29,-68 0,-75
	M 0,0
	c -22,-78 -29,-68 0,-75
	z" fill="rgb(54,72,145)" stroke-width="1" transform="rotate(135.69230769231 0,0)"/><path d="M 0,0
	c 22,-78 29,-68 0,-83
	M 0,0
	c -22,-78 -29,-68 0,-83
	z" fill="rgb(74,92,165)" stroke-width="1" transform="rotate(161.16923076923 0,0)"/><path d="M 0,0
	c 22,-78 29,-68 0,-87
	M 0,0
	c -22,-78 -29,-68 0,-87
	z" fill="rgb(84,102,175)" stroke-width="1" transform="rotate(184.15384615385 0,0)"/><path d="M 0,0
	c 22,-78 29,-68 0,-85
	M 0,0
	c -22,-78 -29,-68 0,-85
	z" fill="rgb(54,72,145)" stroke-width="1" transform="rotate(199.38461538462 0,0)"/><path d="M 0,0
	c 22,-78 29,-68 0,-83
	M 0,0
	c -22,-78 -29,-68 0,-83
	z" fill="rgb(54,72,145)" stroke-width="1" transform="rotate(239.26153846154 0,0)"/><path d="M 0,0
	c 22,-78 29,-68 0,-85
	M 0,0
	c -22,-78 -29,-68 0,-85
	z" fill="rgb(94,112,185)" stroke-width="1" transform="rotate(279.69230769231 0,0)"/><path d="M 0,0
	c 22,-78 29,-68 0,-86
	M 0,0
	c -22,-78 -29,-68 0,-86
	z" fill="rgb(74,92,165)" stroke-width="1" transform="rotate(295.47692307692 0,0)"/><path d="M 0,0
	c 22,-78 29,-68 0,-75
	M 0,0
	c -22,-78 -29,-68 0,-75
	z" fill="rgb(64,82,155)" stroke-width="1" transform="rotate(358.89230769231 0,0)"/><circle cx="0" cy="0" r="14" fill="#ffb566"/><circle cx="0" cy="0" r="4.6666666666667" fill="#ffce99"/></g><g id="fleur2"><path d="M 0,0
	c 14.666666666667,-52 19.333333333333,-45.333333333333 0,-54.666666666667
	M 0,0
	c -14.666666666667,-52 -19.333333333333,-45.333333333333 0,-54.666666666667
	z" fill="rgb(94,112,185)" stroke-width="1" transform="rotate(0 0,0)"/><path d="M 0,0
	c 14.666666666667,-52 19.333333333333,-45.333333333333 0,-55.333333333333
	M 0,0
	c -14.666666666667,-52 -19.333333333333,-45.333333333333 0,-55.333333333333
	z" fill="rgb(84,102,175)" stroke-width="1" transform="rotate(64.8 0,0)"/><path d="M 0,0
	c 14.666666666667,-52 19.333333333333,-45.333333333333 0,-53.333333333333
	M 0,0
	c -14.666666666667,-52 -19.333333333333,-45.333333333333 0,-53.333333333333
	z" fill="rgb(74,92,165)" stroke-width="1" transform="rotate(124.8 0,0)"/><path d="M 0,0
	c 14.666666666667,-52 19.333333333333,-45.333333333333 0,-62
	M 0,0
	c -14.666666666667,-52 -19.333333333333,-45.333333333333 0,-62
	z" fill="rgb(74,92,165)" stroke-width="1" transform="rotate(163.8 0,0)"/><path d="M 0,0
	c 14.666666666667,-52 19.333333333333,-45.333333333333 0,-62.666666666667
	M 0,0
	c -14.666666666667,-52 -19.333333333333,-45.333333333333 0,-62.666666666667
	z" fill="rgb(54,72,145)" stroke-width="1" transform="rotate(232.8 0,0)"/><path d="M 0,0
	c 14.666666666667,-52 19.333333333333,-45.333333333333 0,-53.333333333333
	M 0,0
	c -14.666666666667,-52 -19.333333333333,-45.333333333333 0,-53.333333333333
	z" fill="rgb(94,112,185)" stroke-width="1" transform="rotate(291 0,0)"/><circle cx="0" cy="0" r="9.3333333333333" fill="#ffb566"/><circle cx="0" cy="0" r="3.1111111111111" fill="#ffce99"/></g><g id="fleur3"><path d="M 0,0
	c 12.571428571429,-44.571428571429 16.571428571429,-38.857142857143 0,-47.428571428571
	M 0,0
	c -12.571428571429,-44.571428571429 -16.571428571429,-38.857142857143 0,-47.428571428571
	z" fill="rgb(94,112,185)" stroke-width="1" transform="rotate(0 0,0)"/><path d="M 0,0
	c 12.571428571429,-44.571428571429 16.571428571429,-38.857142857143 0,-48
	M 0,0
	c -12.571428571429,-44.571428571429 -16.571428571429,-38.857142857143 0,-48
	z" fill="rgb(94,112,185)" stroke-width="1" transform="rotate(24.72 0,0)"/><path d="M 0,0
	c 12.571428571429,-44.571428571429 16.571428571429,-38.857142857143 0,-53.714285714286
	M 0,0
	c -12.571428571429,-44.571428571429 -16.571428571429,-38.857142857143 0,-53.714285714286
	z" fill="rgb(54,72,145)" stroke-width="1" transform="rotate(52.8 0,0)"/><path d="M 0,0
	c 12.571428571429,-44.571428571429 16.571428571429,-38.857142857143 0,-42.285714285714
	M 0,0
	c -12.571428571429,-44.571428571429 -16.571428571429,-38.857142857143 0,-42.285714285714
	z" fill="rgb(64,82,155)" stroke-width="1" transform="rotate(74.88 0,0)"/><path d="M 0,0
	c 12.571428571429,-44.571428571429 16.571428571429,-38.857142857143 0,-52.571428571429
	M 0,0
	c -12.571428571429,-44.571428571429 -16.571428571429,-38.857142857143 0,-52.571428571429
	z" fill="rgb(74,92,165)" stroke-width="1" transform="rotate(103.68 0,0)"/><path d="M 0,0
	c 12.571428571429,-44.571428571429 16.571428571429,-38.857142857143 0,-49.142857142857
	M 0,0
	c -12.571428571429,-44.571428571429 -16.571428571429,-38.857142857143 0,-49.142857142857
	z" fill="rgb(74,92,165)" stroke-width="1" transform="rotate(123.6 0,0)"/><path d="M 0,0
	c 12.571428571429,-44.571428571429 16.571428571429,-38.857142857143 0,-50.857142857143
	M 0,0
	c -12.571428571429,-44.571428571429 -16.571428571429,-38.857142857143 0,-50.857142857143
	z" fill="rgb(54,72,145)" stroke-width="1" transform="rotate(136.8 0,0)"/><path d="M 0,0
	c 12.571428571429,-44.571428571429 16.571428571429,-38.857142857143 0,-49.142857142857
	M 0,0
	c -12.571428571429,-44.571428571429 -16.571428571429,-38.857142857143 0,-49.142857142857
	z" fill="rgb(84,102,175)" stroke-width="1" transform="rotate(152.88 0,0)"/><path d="M 0,0
	c 12.571428571429,-44.571428571429 16.571428571429,-38.857142857143 0,-52
	M 0,0
	c -12.571428571429,-44.571428571429 -16.571428571429,-38.857142857143 0,-52
	z" fill="rgb(94,112,185)" stroke-width="1" transform="rotate(201.6 0,0)"/><path d="M 0,0
	c 12.571428571429,-44.571428571429 16.571428571429,-38.857142857143 0,-47.428571428571
	M 0,0
	c -12.571428571429,-44.571428571429 -16.571428571429,-38.857142857143 0,-47.428571428571
	z" fill="rgb(74,92,165)" stroke-width="1" transform="rotate(203.04 0,0)"/><path d="M 0,0
	c 12.571428571429,-44.571428571429 16.571428571429,-38.857142857143 0,-42.285714285714
	M 0,0
	c -12.571428571429,-44.571428571429 -16.571428571429,-38.857142857143 0,-42.285714285714
	z" fill="rgb(64,82,155)" stroke-width="1" transform="rotate(218.4 0,0)"/><path d="M 0,0
	c 12.571428571429,-44.571428571429 16.571428571429,-38.857142857143 0,-43.428571428571
	M 0,0
	c -12.571428571429,-44.571428571429 -16.571428571429,-38.857142857143 0,-43.428571428571
	z" fill="rgb(84,102,175)" stroke-width="1" transform="rotate(245.52 0,0)"/><path d="M 0,0
	c 12.571428571429,-44.571428571429 16.571428571429,-38.857142857143 0,-48
	M 0,0
	c -12.571428571429,-44.571428571429 -16.571428571429,-38.857142857143 0,-48
	z" fill="rgb(74,92,165)" stroke-width="1" transform="rotate(305.28 0,0)"/><path d="M 0,0
	c 12.571428571429,-44.571428571429 16.571428571429,-38.857142857143 0,-43.428571428571
	M 0,0
	c -12.571428571429,-44.571428571429 -16.571428571429,-38.857142857143 0,-43.428571428571
	z" fill="rgb(94,112,185)" stroke-width="1" transform="rotate(312 0,0)"/><path d="M 0,0
	c 12.571428571429,-44.571428571429 16.571428571429,-38.857142857143 0,-42.285714285714
	M 0,0
	c -12.571428571429,-44.571428571429 -16.571428571429,-38.857142857143 0,-42.285714285714
	z" fill="rgb(54,72,145)" stroke-width="1" transform="rotate(309.12 0,0)"/><circle cx="0" cy="0" r="8" fill="#ffb566"/><circle cx="0" cy="0" r="2.6666666666667" fill="#ffce99"/></g><g id="fleur4"><path d="M 0,0
	c 11,-39 14.5,-34 0,-44
	M 0,0
	c -11,-39 -14.5,-34 0,-44
	z" fill="rgb(54,72,145)" stroke-width="1" transform="rotate(0 0,0)"/><path d="M 0,0
	c 11,-39 14.5,-34 0,-42.5
	M 0,0
	c -11,-39 -14.5,-34 0,-42.5
	z" fill="rgb(94,112,185)" stroke-width="1" transform="rotate(42.3 0,0)"/><path d="M 0,0
	c 11,-39 14.5,-34 0,-38.5
	M 0,0
	c -11,-39 -14.5,-34 0,-38.5
	z" fill="rgb(94,112,185)" stroke-width="1" transform="rotate(83.7 0,0)"/><path d="M 0,0
	c 11,-39 14.5,-34 0,-47
	M 0,0
	c -11,-39 -14.5,-34 0,-47
	z" fill="rgb(64,82,155)" stroke-width="1" transform="rotate(141.75 0,0)"/><path d="M 0,0
	c 11,-39 14.5,-34 0,-42
	M 0,0
	c -11,-39 -14.5,-34 0,-42
	z" fill="rgb(84,102,175)" stroke-width="1" transform="rotate(172.8 0,0)"/><path d="M 0,0
	c 11,-39 14.5,-34 0,-45.5
	M 0,0
	c -11,-39 -14.5,-34 0,-45.5
	z" fill="rgb(64,82,155)" stroke-width="1" transform="rotate(213.75 0,0)"/><path d="M 0,0
	c 11,-39 14.5,-34 0,-46.5
	M 0,0
	c -11,-39 -14.5,-34 0,-46.5
	z" fill="rgb(84,102,175)" stroke-width="1" transform="rotate(297 0,0)"/><path d="M 0,0
	c 11,-39 14.5,-34 0,-37.5
	M 0,0
	c -11,-39 -14.5,-34 0,-37.5
	z" fill="rgb(94,112,185)" stroke-width="1" transform="rotate(283.5 0,0)"/><circle cx="0" cy="0" r="7" fill="#ffb566"/><circle cx="0" cy="0" r="2.3333333333333" fill="#ffce99"/></g></defs><use xlink:href="#feuille3"
		x="147.5008" y="290.5536" 
		transform="rotate(84.4 147.5008,290.5536)"
		fill="rgb(46,77,130)" /><use xlink:href="#feuille2"
		x="147.5008" y="290.5536" 
		transform="rotate(107 147.5008,290.5536)"
		fill="rgb(86,117,170)" /><use xlink:href="#feuille4"
		x="147.5008" y="290.5536" 
		transform="rotate(-65.3 147.5008,290.5536)"
		fill="rgb(46,77,130)" /><use xlink:href="#feuille3"
		x="147.5008" y="290.5536" 
		transform="rotate(71.9 147.5008,290.5536)"
		fill="rgb(106,137,190)" /><use xlink:href="#feuille4"
		x="147.5008" y="290.5536" 
		transform="rotate(-76.7 147.5008,290.5536)"
		fill="rgb(96,127,180)" /><use xlink:href="#feuille2"
		x="147.5008" y="290.5536" 
		transform="rotate(-65.2 147.5008,290.5536)"
		fill="rgb(86,117,170)" /><use xlink:href="#feuille1"
	x="157.012225" y="462.2805125" 
	transform="rotate(-72  157.012225,462.2805125)"
	fill="rgb(86,117,170)" /><path d="M 151 480 c 48.6,-119.6 -81,-209.3 81,-299  " stroke="rgb(127,180,138)" stroke-width="18" fill="transparent"/><use xlink:href="#fleur1"
x="232" y="181" 
fill="Pink" /></svg>