<?xml version="1.0" encoding="iso-8859-1"?>
<svg version="1.1" id="Capa_1" xmlns="http://www.w3.org/2000/svg" xmlns:xlink="http://www.w3.org/1999/xlink" x="0px" y="0px"
viewBox="0 0 500 500" xml:space="preserve"><defs><g id="feuille1">
<path d="M 0,0
c 62,-32 55,-43 0,-137
M 0,0
c -62,-32 -55,-43 0,-137
z" stroke="#85e085" stroke-width="0"/>
<polygon points="-3,3, 0,-95.9 3 3" stroke="rgb(59,178,86)" stroke-width="2" fill="rgb(59,178,86)"/>
</g>
<g id="feuille2">
<path d="M 0,0
c 41.333333333333,-21.333333333333 36.666666666667,-28.666666666667 0,-91.333333333333
M 0,0
c -41.333333333333,-21.333333333333 -36.666666666667,-28.666666666667 0,-91.333333333333
z" stroke="#85e085" stroke-width="0"/>
<polygon points="-3 3, 0,-63.933333333333, 3 3" stroke="rgb(59,178,86)" stroke-width="1" fill="rgb(59,178,86)"/>
</g><g id="feuille3">
<path d="M 0,0
c 31,-16 27.5,-21.5 0,-68.5
M 0,0
c -31,-16 -27.5,-21.5 0,-68.5
z" stroke="#85e085" stroke-width="0"/>
<polygon points="-3 3, 0,-47.95, 3 3" stroke="rgb(59,178,86)" stroke-width="1" fill="rgb(59,178,86)"/>
</g><g id="feuille4">
<path d="M 0,0
c 24.8,-12.8 22,-17.2 0,-54.8
M 0,0
c -24.8,-12.8 -22,-17.2 0,-54.8
z" stroke="#85e085" stroke-width="0"/>
<polygon points="-3 3, 0,-38.36, 3 3" stroke="rgb(59,178,86)" stroke-width="1" fill="rgb(59,178,86)"/>
</g><g id="fleur1"><path d="M 0,0
	c 22,-28 58,-62 0,-59
	M 0,0
	c -22,-28 -58,-62 0,-59
	z" fill="rgb(89,107,102)" stroke-width="1" transform="rotate(0 0,0)"/><path d="M 0,0
	c 22,-28 58,-62 0,-66
	M 0,0
	c -22,-28 -58,-62 0,-66
	z" fill="rgb(79,97,92)" stroke-width="1" transform="rotate(31.8 0,0)"/><path d="M 0,0
	c 22,-28 58,-62 0,-57
	M 0,0
	c -22,-28 -58,-62 0,-57
	z" fill="rgb(59,77,72)" stroke-width="1" transform="rotate(64.8 0,0)"/><path d="M 0,0
	c 22,-28 58,-62 0,-58
	M 0,0
	c -22,-28 -58,-62 0,-58
	z" fill="rgb(59,77,72)" stroke-width="1" transform="rotate(90.9 0,0)"/><path d="M 0,0
	c 22,-28 58,-62 0,-67
	M 0,0
	c -22,-28 -58,-62 0,-67
	z" fill="rgb(69,87,82)" stroke-width="1" transform="rotate(118.8 0,0)"/><path d="M 0,0
	c 22,-28 58,-62 0,-65
	M 0,0
	c -22,-28 -58,-62 0,-65
	z" fill="rgb(49,67,62)" stroke-width="1" transform="rotate(141 0,0)"/><path d="M 0,0
	c 22,-28 58,-62 0,-72
	M 0,0
	c -22,-28 -58,-62 0,-72
	z" fill="rgb(59,77,72)" stroke-width="1" transform="rotate(181.8 0,0)"/><path d="M 0,0
	c 22,-28 58,-62 0,-74
	M 0,0
	c -22,-28 -58,-62 0,-74
	z" fill="rgb(49,67,62)" stroke-width="1" transform="rotate(231 0,0)"/><path d="M 0,0
	c 22,-28 58,-62 0,-62
	M 0,0
	c -22,-28 -58,-62 0,-62
	z" fill="rgb(69,87,82)" stroke-width="1" transform="rotate(216 0,0)"/><path d="M 0,0
	c 22,-28 58,-62 0,-74
	M 0,0
	c -22,-28 -58,-62 0,-74
	z" fill="rgb(49,67,62)" stroke-width="1" transform="rotate(288.9 0,0)"/><path d="M 0,0
	c 22,-28 58,-62 0,-68
	M 0,0
	c -22,-28 -58,-62 0,-68
	z" fill="rgb(89,107,102)" stroke-width="1" transform="rotate(312 0,0)"/><path d="M 0,0
	c 22,-28 58,-62 0,-74
	M 0,0
	c -22,-28 -58,-62 0,-74
	z" fill="rgb(49,67,62)" stroke-width="1" transform="rotate(330 0,0)"/><circle cx="0" cy="0" r="22" fill="#ffb566"/><circle cx="0" cy="0" r="7.3333333333333" fill="#ffce99"/></g><g id="fleur2"><path d="M 0,0
	c 14.666666666667,-18.666666666667 38.666666666667,-41.333333333333 0,-49.333333333333
	M 0,0
	c -14.666666666667,-18.666666666667 -38.666666666667,-41.333333333333 0,-49.333333333333
	z" fill="rgb(49,67,62)" stroke-width="1" transform="rotate(0 0,0)"/><path d="M 0,0
	c 14.666666666667,-18.666666666667 38.666666666667,-41.333333333333 0,-47.333333333333
	M 0,0
	c -14.666666666667,-18.666666666667 -38.666666666667,-41.333333333333 0,-47.333333333333
	z" fill="rgb(59,77,72)" stroke-width="1" transform="rotate(29.076923076923 0,0)"/><path d="M 0,0
	c 14.666666666667,-18.666666666667 38.666666666667,-41.333333333333 0,-39.333333333333
	M 0,0
	c -14.666666666667,-18.666666666667 -38.666666666667,-41.333333333333 0,-39.333333333333
	z" fill="rgb(59,77,72)" stroke-width="1" transform="rotate(50.953846153846 0,0)"/><path d="M 0,0
	c 14.666666666667,-18.666666666667 38.666666666667,-41.333333333333 0,-46
	M 0,0
	c -14.666666666667,-18.666666666667 -38.666666666667,-41.333333333333 0,-46
	z" fill="rgb(69,87,82)" stroke-width="1" transform="rotate(86.4 0,0)"/><path d="M 0,0
	c 14.666666666667,-18.666666666667 38.666666666667,-41.333333333333 0,-48.666666666667
	M 0,0
	c -14.666666666667,-18.666666666667 -38.666666666667,-41.333333333333 0,-48.666666666667
	z" fill="rgb(69,87,82)" stroke-width="1" transform="rotate(101.90769230769 0,0)"/><path d="M 0,0
	c 14.666666666667,-18.666666666667 38.666666666667,-41.333333333333 0,-48
	M 0,0
	c -14.666666666667,-18.666666666667 -38.666666666667,-41.333333333333 0,-48
	z" fill="rgb(49,67,62)" stroke-width="1" transform="rotate(150.92307692308 0,0)"/><path d="M 0,0
	c 14.666666666667,-18.666666666667 38.666666666667,-41.333333333333 0,-44.666666666667
	M 0,0
	c -14.666666666667,-18.666666666667 -38.666666666667,-41.333333333333 0,-44.666666666667
	z" fill="rgb(89,107,102)" stroke-width="1" transform="rotate(167.81538461538 0,0)"/><path d="M 0,0
	c 14.666666666667,-18.666666666667 38.666666666667,-41.333333333333 0,-43.333333333333
	M 0,0
	c -14.666666666667,-18.666666666667 -38.666666666667,-41.333333333333 0,-43.333333333333
	z" fill="rgb(79,97,92)" stroke-width="1" transform="rotate(209.35384615385 0,0)"/><path d="M 0,0
	c 14.666666666667,-18.666666666667 38.666666666667,-41.333333333333 0,-48.666666666667
	M 0,0
	c -14.666666666667,-18.666666666667 -38.666666666667,-41.333333333333 0,-48.666666666667
	z" fill="rgb(49,67,62)" stroke-width="1" transform="rotate(237.04615384615 0,0)"/><path d="M 0,0
	c 14.666666666667,-18.666666666667 38.666666666667,-41.333333333333 0,-42
	M 0,0
	c -14.666666666667,-18.666666666667 -38.666666666667,-41.333333333333 0,-42
	z" fill="rgb(59,77,72)" stroke-width="1" transform="rotate(259.2 0,0)"/><path d="M 0,0
	c 14.666666666667,-18.666666666667 38.666666666667,-41.333333333333 0,-44.666666666667
	M 0,0
	c -14.666666666667,-18.666666666667 -38.666666666667,-41.333333333333 0,-44.666666666667
	z" fill="rgb(59,77,72)" stroke-width="1" transform="rotate(252 0,0)"/><path d="M 0,0
	c 14.666666666667,-18.666666666667 38.666666666667,-41.333333333333 0,-46
	M 0,0
	c -14.666666666667,-18.666666666667 -38.666666666667,-41.333333333333 0,-46
	z" fill="rgb(89,107,102)" stroke-width="1" transform="rotate(316.8 0,0)"/><path d="M 0,0
	c 14.666666666667,-18.666666666667 38.666666666667,-41.333333333333 0,-50.666666666667
	M 0,0
	c -14.666666666667,-18.666666666667 -38.666666666667,-41.333333333333 0,-50.666666666667
	z" fill="rgb(89,107,102)" stroke-width="1" transform="rotate(319.01538461538 0,0)"/><circle cx="0" cy="0" r="14.666666666667" fill="#ffb566"/><circle cx="0" cy="0" r="4.8888888888889" fill="#ffce99"/></g><g id="fleur3"><path d="M 0,0
	c 12.571428571429,-16 33.142857142857,-35.428571428571 0,-43.428571428571
	M 0,0
	c -12.571428571429,-16 -33.142857142857,-35.428571428571 0,-43.428571428571
	z" fill="rgb(59,77,72)" stroke-width="1" transform="rotate(0 0,0)"/><path d="M 0,0
	c 12.571428571429,-16 33.142857142857,-35.428571428571 0,-32.571428571429
	M 0,0
	c -12.571428571429,-16 -33.142857142857,-35.428571428571 0,-32.571428571429
	z" fill="rgb(89,107,102)" stroke-width="1" transform="rotate(29.781818181818 0,0)"/><path d="M 0,0
	c 12.571428571429,-16 33.142857142857,-35.428571428571 0,-42.285714285714
	M 0,0
	c -12.571428571429,-16 -33.142857142857,-35.428571428571 0,-42.285714285714
	z" fill="rgb(49,67,62)" stroke-width="1" transform="rotate(66.763636363636 0,0)"/><path d="M 0,0
	c 12.571428571429,-16 33.142857142857,-35.428571428571 0,-38.857142857143
	M 0,0
	c -12.571428571429,-16 -33.142857142857,-35.428571428571 0,-38.857142857143
	z" fill="rgb(79,97,92)" stroke-width="1" transform="rotate(106.03636363636 0,0)"/><path d="M 0,0
	c 12.571428571429,-16 33.142857142857,-35.428571428571 0,-39.428571428571
	M 0,0
	c -12.571428571429,-16 -33.142857142857,-35.428571428571 0,-39.428571428571
	z" fill="rgb(59,77,72)" stroke-width="1" transform="rotate(130.90909090909 0,0)"/><path d="M 0,0
	c 12.571428571429,-16 33.142857142857,-35.428571428571 0,-39.428571428571
	M 0,0
	c -12.571428571429,-16 -33.142857142857,-35.428571428571 0,-39.428571428571
	z" fill="rgb(79,97,92)" stroke-width="1" transform="rotate(155.45454545455 0,0)"/><path d="M 0,0
	c 12.571428571429,-16 33.142857142857,-35.428571428571 0,-42.285714285714
	M 0,0
	c -12.571428571429,-16 -33.142857142857,-35.428571428571 0,-42.285714285714
	z" fill="rgb(59,77,72)" stroke-width="1" transform="rotate(202.25454545455 0,0)"/><path d="M 0,0
	c 12.571428571429,-16 33.142857142857,-35.428571428571 0,-37.142857142857
	M 0,0
	c -12.571428571429,-16 -33.142857142857,-35.428571428571 0,-37.142857142857
	z" fill="rgb(69,87,82)" stroke-width="1" transform="rotate(233.67272727273 0,0)"/><path d="M 0,0
	c 12.571428571429,-16 33.142857142857,-35.428571428571 0,-33.714285714286
	M 0,0
	c -12.571428571429,-16 -33.142857142857,-35.428571428571 0,-33.714285714286
	z" fill="rgb(49,67,62)" stroke-width="1" transform="rotate(280.14545454545 0,0)"/><path d="M 0,0
	c 12.571428571429,-16 33.142857142857,-35.428571428571 0,-41.142857142857
	M 0,0
	c -12.571428571429,-16 -33.142857142857,-35.428571428571 0,-41.142857142857
	z" fill="rgb(59,77,72)" stroke-width="1" transform="rotate(279.81818181818 0,0)"/><path d="M 0,0
	c 12.571428571429,-16 33.142857142857,-35.428571428571 0,-33.142857142857
	M 0,0
	c -12.571428571429,-16 -33.142857142857,-35.428571428571 0,-33.142857142857
	z" fill="rgb(79,97,92)" stroke-width="1" transform="rotate(340.36363636364 0,0)"/><circle cx="0" cy="0" r="12.571428571429" fill="#ffb566"/><circle cx="0" cy="0" r="4.1904761904762" fill="#ffce99"/></g><g id="fleur4"><path d="M 0,0
	c 11,-14 29,-31 0,-36
	M 0,0
	c -11,-14 -29,-31 0,-36
	z" fill="rgb(69,87,82)" stroke-width="1" transform="rotate(0 0,0)"/><path d="M 0,0
	c 11,-14 29,-31 0,-35
	M 0,0
	c -11,-14 -29,-31 0,-35
	z" fill="rgb(89,107,102)" stroke-width="1" transform="rotate(29.907692307692 0,0)"/><path d="M 0,0
	c 11,-14 29,-31 0,-36.5
	M 0,0
	c -11,-14 -29,-31 0,-36.5
	z" fill="rgb(49,67,62)" stroke-width="1" transform="rotate(58.153846153846 0,0)"/><path d="M 0,0
	c 11,-14 29,-31 0,-30.5
	M 0,0
	c -11,-14 -29,-31 0,-30.5
	z" fill="rgb(89,107,102)" stroke-width="1" transform="rotate(86.4 0,0)"/><path d="M 0,0
	c 11,-14 29,-31 0,-28.5
	M 0,0
	c -11,-14 -29,-31 0,-28.5
	z" fill="rgb(79,97,92)" stroke-width="1" transform="rotate(105.23076923077 0,0)"/><path d="M 0,0
	c 11,-14 29,-31 0,-31
	M 0,0
	c -11,-14 -29,-31 0,-31
	z" fill="rgb(79,97,92)" stroke-width="1" transform="rotate(149.53846153846 0,0)"/><path d="M 0,0
	c 11,-14 29,-31 0,-34.5
	M 0,0
	c -11,-14 -29,-31 0,-34.5
	z" fill="rgb(79,97,92)" stroke-width="1" transform="rotate(161.16923076923 0,0)"/><path d="M 0,0
	c 11,-14 29,-31 0,-37
	M 0,0
	c -11,-14 -29,-31 0,-37
	z" fill="rgb(89,107,102)" stroke-width="1" transform="rotate(197.72307692308 0,0)"/><path d="M 0,0
	c 11,-14 29,-31 0,-29
	M 0,0
	c -11,-14 -29,-31 0,-29
	z" fill="rgb(69,87,82)" stroke-width="1" transform="rotate(237.04615384615 0,0)"/><path d="M 0,0
	c 11,-14 29,-31 0,-37
	M 0,0
	c -11,-14 -29,-31 0,-37
	z" fill="rgb(79,97,92)" stroke-width="1" transform="rotate(264.18461538462 0,0)"/><path d="M 0,0
	c 11,-14 29,-31 0,-36.5
	M 0,0
	c -11,-14 -29,-31 0,-36.5
	z" fill="rgb(79,97,92)" stroke-width="1" transform="rotate(296.30769230769 0,0)"/><path d="M 0,0
	c 11,-14 29,-31 0,-34
	M 0,0
	c -11,-14 -29,-31 0,-34
	z" fill="rgb(69,87,82)" stroke-width="1" transform="rotate(310.70769230769 0,0)"/><path d="M 0,0
	c 11,-14 29,-31 0,-35.5
	M 0,0
	c -11,-14 -29,-31 0,-35.5
	z" fill="rgb(79,97,92)" stroke-width="1" transform="rotate(315.69230769231 0,0)"/><circle cx="0" cy="0" r="11" fill="#ffb566"/><circle cx="0" cy="0" r="3.6666666666667" fill="#ffce99"/></g></defs><use xlink:href="#feuille3"
		x="247.73425" y="361.330075" 
		transform="rotate(-76.8 247.73425,361.330075)"
		fill="rgb(66,130,51)" /><use xlink:href="#feuille2"
		x="247.73425" y="361.330075" 
		transform="rotate(-62.7 247.73425,361.330075)"
		fill="rgb(106,170,91)" /><use xlink:href="#feuille2"
		x="247.73425" y="361.330075" 
		transform="rotate(-64 247.73425,361.330075)"
		fill="rgb(76,140,61)" /><use xlink:href="#feuille1"
	x="219.15675" y="457.975325" 
	transform="rotate(52  219.15675,457.975325)"
	fill="rgb(76,140,61)" /><path d="M 225 480 c -46.666666666667,-158.9 65.333333333333,-68.1 70,-227  " stroke="rgb(59,178,86)" stroke-width="18" fill="transparent"/><use xlink:href="#fleur1"
x="295" y="253" 
fill="Pink" /><use xlink:href="#feuille4"
		x="186.5984" y="346.5264" 
		transform="rotate(-113.8 186.5984,346.5264)"
		fill="rgb(116,180,101)" /><use xlink:href="#feuille1"
	x="205.18455" y="471.01505" 
	transform="rotate(70  205.18455,471.01505)"
	fill="rgb(96,160,81)" /><use xlink:href="#feuille1"
	x="205.18455" y="471.01505" 
	transform="rotate(76  205.18455,471.01505)"
	fill="rgb(96,160,81)" /><path d="M 206 480 c -6.2666666666667,-59.8 6.2666666666667,-119.6 -94,-299  " stroke="rgb(59,178,86)" stroke-width="16" fill="transparent"/><use xlink:href="#fleur2"
x="112" y="181" 
fill="Pink" /></svg>