<?xml version="1.0" encoding="iso-8859-1"?>
<svg version="1.1" id="Capa_1" xmlns="http://www.w3.org/2000/svg" xmlns:xlink="http://www.w3.org/1999/xlink" x="0px" y="0px"
viewBox="0 0 500 500" xml:space="preserve"><defs><g id="feuille1">
<path d="M 0,0
c 20,-9 50,-7.2 0,-144
M 0,0
c -20,-9 -50,-7.2 0,-144
z" stroke="#85e085" stroke-width="0"/>
<polygon points="-3,3, 0,-100.8 3 3" stroke="rgb(120,102,176)" stroke-width="2" fill="rgb(120,102,176)"/>
</g>
<g id="feuille2">
<path d="M 0,0
c 13.333333333333,-6 33.333333333333,-4.8 0,-96
M 0,0
c -13.333333333333,-6 -33.333333333333,-4.8 0,-96
z" stroke="#85e085" stroke-width="0"/>
<polygon points="-3 3, 0,-67.2, 3 3" stroke="rgb(120,102,176)" stroke-width="1" fill="rgb(120,102,176)"/>
</g><g id="feuille3">
<path d="M 0,0
c 10,-4.5 25,-3.6 0,-72
M 0,0
c -10,-4.5 -25,-3.6 0,-72
z" stroke="#85e085" stroke-width="0"/>
<polygon points="-3 3, 0,-50.4, 3 3" stroke="rgb(120,102,176)" stroke-width="1" fill="rgb(120,102,176)"/>
</g><g id="feuille4">
<path d="M 0,0
c 8,-3.6 20,-2.88 0,-57.6
M 0,0
c -8,-3.6 -20,-2.88 0,-57.6
z" stroke="#85e085" stroke-width="0"/>
<polygon points="-3 3, 0,-40.32, 3 3" stroke="rgb(120,102,176)" stroke-width="1" fill="rgb(120,102,176)"/>
</g><g id="fleur1"><path d="M 0,0
	c 42,-32 37,-46 0,-84
	M 0,0
	c -42,-32 -37,-46 0,-84
	z" fill="rgb(31,44,67)" stroke-width="1" transform="rotate(0 0,0)"/><path d="M 0,0
	c 42,-32 37,-46 0,-83
	M 0,0
	c -42,-32 -37,-46 0,-83
	z" fill="rgb(41,54,77)" stroke-width="1" transform="rotate(29.353846153846 0,0)"/><path d="M 0,0
	c 42,-32 37,-46 0,-93
	M 0,0
	c -42,-32 -37,-46 0,-93
	z" fill="rgb(41,54,77)" stroke-width="1" transform="rotate(57.6 0,0)"/><path d="M 0,0
	c 42,-32 37,-46 0,-81
	M 0,0
	c -42,-32 -37,-46 0,-81
	z" fill="rgb(71,84,107)" stroke-width="1" transform="rotate(83.907692307692 0,0)"/><path d="M 0,0
	c 42,-32 37,-46 0,-100
	M 0,0
	c -42,-32 -37,-46 0,-100
	z" fill="rgb(51,64,87)" stroke-width="1" transform="rotate(109.66153846154 0,0)"/><path d="M 0,0
	c 42,-32 37,-46 0,-99
	M 0,0
	c -42,-32 -37,-46 0,-99
	z" fill="rgb(61,74,97)" stroke-width="1" transform="rotate(134.30769230769 0,0)"/><path d="M 0,0
	c 42,-32 37,-46 0,-96
	M 0,0
	c -42,-32 -37,-46 0,-96
	z" fill="rgb(61,74,97)" stroke-width="1" transform="rotate(157.84615384615 0,0)"/><path d="M 0,0
	c 42,-32 37,-46 0,-95
	M 0,0
	c -42,-32 -37,-46 0,-95
	z" fill="rgb(41,54,77)" stroke-width="1" transform="rotate(189.96923076923 0,0)"/><path d="M 0,0
	c 42,-32 37,-46 0,-97
	M 0,0
	c -42,-32 -37,-46 0,-97
	z" fill="rgb(61,74,97)" stroke-width="1" transform="rotate(214.89230769231 0,0)"/><path d="M 0,0
	c 42,-32 37,-46 0,-99
	M 0,0
	c -42,-32 -37,-46 0,-99
	z" fill="rgb(31,44,67)" stroke-width="1" transform="rotate(226.8 0,0)"/><path d="M 0,0
	c 42,-32 37,-46 0,-101
	M 0,0
	c -42,-32 -37,-46 0,-101
	z" fill="rgb(71,84,107)" stroke-width="1" transform="rotate(260.30769230769 0,0)"/><path d="M 0,0
	c 42,-32 37,-46 0,-101
	M 0,0
	c -42,-32 -37,-46 0,-101
	z" fill="rgb(61,74,97)" stroke-width="1" transform="rotate(325.93846153846 0,0)"/><path d="M 0,0
	c 42,-32 37,-46 0,-91
	M 0,0
	c -42,-32 -37,-46 0,-91
	z" fill="rgb(41,54,77)" stroke-width="1" transform="rotate(352.24615384615 0,0)"/><circle cx="0" cy="0" r="13" fill="#ffb566"/><circle cx="0" cy="0" r="4.3333333333333" fill="#ffce99"/></g><g id="fleur2"><path d="M 0,0
	c 28,-21.333333333333 24.666666666667,-30.666666666667 0,-58
	M 0,0
	c -28,-21.333333333333 -24.666666666667,-30.666666666667 0,-58
	z" fill="rgb(71,84,107)" stroke-width="1" transform="rotate(0 0,0)"/><path d="M 0,0
	c 28,-21.333333333333 24.666666666667,-30.666666666667 0,-59.333333333333
	M 0,0
	c -28,-21.333333333333 -24.666666666667,-30.666666666667 0,-59.333333333333
	z" fill="rgb(71,84,107)" stroke-width="1" transform="rotate(42.3 0,0)"/><path d="M 0,0
	c 28,-21.333333333333 24.666666666667,-30.666666666667 0,-58.666666666667
	M 0,0
	c -28,-21.333333333333 -24.666666666667,-30.666666666667 0,-58.666666666667
	z" fill="rgb(41,54,77)" stroke-width="1" transform="rotate(82.8 0,0)"/><path d="M 0,0
	c 28,-21.333333333333 24.666666666667,-30.666666666667 0,-63.333333333333
	M 0,0
	c -28,-21.333333333333 -24.666666666667,-30.666666666667 0,-63.333333333333
	z" fill="rgb(61,74,97)" stroke-width="1" transform="rotate(128.25 0,0)"/><path d="M 0,0
	c 28,-21.333333333333 24.666666666667,-30.666666666667 0,-63.333333333333
	M 0,0
	c -28,-21.333333333333 -24.666666666667,-30.666666666667 0,-63.333333333333
	z" fill="rgb(51,64,87)" stroke-width="1" transform="rotate(183.6 0,0)"/><path d="M 0,0
	c 28,-21.333333333333 24.666666666667,-30.666666666667 0,-67.333333333333
	M 0,0
	c -28,-21.333333333333 -24.666666666667,-30.666666666667 0,-67.333333333333
	z" fill="rgb(61,74,97)" stroke-width="1" transform="rotate(245.25 0,0)"/><path d="M 0,0
	c 28,-21.333333333333 24.666666666667,-30.666666666667 0,-55.333333333333
	M 0,0
	c -28,-21.333333333333 -24.666666666667,-30.666666666667 0,-55.333333333333
	z" fill="rgb(41,54,77)" stroke-width="1" transform="rotate(278.1 0,0)"/><path d="M 0,0
	c 28,-21.333333333333 24.666666666667,-30.666666666667 0,-64
	M 0,0
	c -28,-21.333333333333 -24.666666666667,-30.666666666667 0,-64
	z" fill="rgb(31,44,67)" stroke-width="1" transform="rotate(330.75 0,0)"/><circle cx="0" cy="0" r="8.6666666666667" fill="#ffb566"/><circle cx="0" cy="0" r="2.8888888888889" fill="#ffce99"/></g><g id="fleur3"><path d="M 0,0
	c 24,-18.285714285714 21.142857142857,-26.285714285714 0,-50.285714285714
	M 0,0
	c -24,-18.285714285714 -21.142857142857,-26.285714285714 0,-50.285714285714
	z" fill="rgb(71,84,107)" stroke-width="1" transform="rotate(0 0,0)"/><path d="M 0,0
	c 24,-18.285714285714 21.142857142857,-26.285714285714 0,-56.571428571429
	M 0,0
	c -24,-18.285714285714 -21.142857142857,-26.285714285714 0,-56.571428571429
	z" fill="rgb(31,44,67)" stroke-width="1" transform="rotate(24.685714285714 0,0)"/><path d="M 0,0
	c 24,-18.285714285714 21.142857142857,-26.285714285714 0,-56
	M 0,0
	c -24,-18.285714285714 -21.142857142857,-26.285714285714 0,-56
	z" fill="rgb(71,84,107)" stroke-width="1" transform="rotate(55.028571428571 0,0)"/><path d="M 0,0
	c 24,-18.285714285714 21.142857142857,-26.285714285714 0,-48.571428571429
	M 0,0
	c -24,-18.285714285714 -21.142857142857,-26.285714285714 0,-48.571428571429
	z" fill="rgb(41,54,77)" stroke-width="1" transform="rotate(69.428571428571 0,0)"/><path d="M 0,0
	c 24,-18.285714285714 21.142857142857,-26.285714285714 0,-47.428571428571
	M 0,0
	c -24,-18.285714285714 -21.142857142857,-26.285714285714 0,-47.428571428571
	z" fill="rgb(71,84,107)" stroke-width="1" transform="rotate(113.14285714286 0,0)"/><path d="M 0,0
	c 24,-18.285714285714 21.142857142857,-26.285714285714 0,-46.285714285714
	M 0,0
	c -24,-18.285714285714 -21.142857142857,-26.285714285714 0,-46.285714285714
	z" fill="rgb(61,74,97)" stroke-width="1" transform="rotate(120.85714285714 0,0)"/><path d="M 0,0
	c 24,-18.285714285714 21.142857142857,-26.285714285714 0,-48
	M 0,0
	c -24,-18.285714285714 -21.142857142857,-26.285714285714 0,-48
	z" fill="rgb(31,44,67)" stroke-width="1" transform="rotate(146.57142857143 0,0)"/><path d="M 0,0
	c 24,-18.285714285714 21.142857142857,-26.285714285714 0,-57.714285714286
	M 0,0
	c -24,-18.285714285714 -21.142857142857,-26.285714285714 0,-57.714285714286
	z" fill="rgb(51,64,87)" stroke-width="1" transform="rotate(169.2 0,0)"/><path d="M 0,0
	c 24,-18.285714285714 21.142857142857,-26.285714285714 0,-46.285714285714
	M 0,0
	c -24,-18.285714285714 -21.142857142857,-26.285714285714 0,-46.285714285714
	z" fill="rgb(71,84,107)" stroke-width="1" transform="rotate(224.22857142857 0,0)"/><path d="M 0,0
	c 24,-18.285714285714 21.142857142857,-26.285714285714 0,-46.857142857143
	M 0,0
	c -24,-18.285714285714 -21.142857142857,-26.285714285714 0,-46.857142857143
	z" fill="rgb(31,44,67)" stroke-width="1" transform="rotate(240.68571428571 0,0)"/><path d="M 0,0
	c 24,-18.285714285714 21.142857142857,-26.285714285714 0,-54.285714285714
	M 0,0
	c -24,-18.285714285714 -21.142857142857,-26.285714285714 0,-54.285714285714
	z" fill="rgb(61,74,97)" stroke-width="1" transform="rotate(257.14285714286 0,0)"/><path d="M 0,0
	c 24,-18.285714285714 21.142857142857,-26.285714285714 0,-51.428571428571
	M 0,0
	c -24,-18.285714285714 -21.142857142857,-26.285714285714 0,-51.428571428571
	z" fill="rgb(61,74,97)" stroke-width="1" transform="rotate(299.82857142857 0,0)"/><path d="M 0,0
	c 24,-18.285714285714 21.142857142857,-26.285714285714 0,-46.857142857143
	M 0,0
	c -24,-18.285714285714 -21.142857142857,-26.285714285714 0,-46.857142857143
	z" fill="rgb(71,84,107)" stroke-width="1" transform="rotate(293.14285714286 0,0)"/><path d="M 0,0
	c 24,-18.285714285714 21.142857142857,-26.285714285714 0,-51.428571428571
	M 0,0
	c -24,-18.285714285714 -21.142857142857,-26.285714285714 0,-51.428571428571
	z" fill="rgb(61,74,97)" stroke-width="1" transform="rotate(320.91428571429 0,0)"/><circle cx="0" cy="0" r="7.4285714285714" fill="#ffb566"/><circle cx="0" cy="0" r="2.4761904761905" fill="#ffce99"/></g><g id="fleur4"><path d="M 0,0
	c 21,-16 18.5,-23 0,-48
	M 0,0
	c -21,-16 -18.5,-23 0,-48
	z" fill="rgb(71,84,107)" stroke-width="1" transform="rotate(0 0,0)"/><path d="M 0,0
	c 21,-16 18.5,-23 0,-48.5
	M 0,0
	c -21,-16 -18.5,-23 0,-48.5
	z" fill="rgb(41,54,77)" stroke-width="1" transform="rotate(61.8 0,0)"/><path d="M 0,0
	c 21,-16 18.5,-23 0,-42.5
	M 0,0
	c -21,-16 -18.5,-23 0,-42.5
	z" fill="rgb(41,54,77)" stroke-width="1" transform="rotate(116.4 0,0)"/><path d="M 0,0
	c 21,-16 18.5,-23 0,-42
	M 0,0
	c -21,-16 -18.5,-23 0,-42
	z" fill="rgb(71,84,107)" stroke-width="1" transform="rotate(167.4 0,0)"/><path d="M 0,0
	c 21,-16 18.5,-23 0,-48
	M 0,0
	c -21,-16 -18.5,-23 0,-48
	z" fill="rgb(61,74,97)" stroke-width="1" transform="rotate(223.2 0,0)"/><path d="M 0,0
	c 21,-16 18.5,-23 0,-50.5
	M 0,0
	c -21,-16 -18.5,-23 0,-50.5
	z" fill="rgb(41,54,77)" stroke-width="1" transform="rotate(279 0,0)"/><circle cx="0" cy="0" r="6.5" fill="#ffb566"/><circle cx="0" cy="0" r="2.1666666666667" fill="#ffce99"/></g></defs><use xlink:href="#feuille4"
		x="237.128" y="344.592" 
		transform="rotate(91.6 237.128,344.592)"
		fill="rgb(161,197,75)" /><use xlink:href="#feuille4"
		x="239" y="333.2625" 
		transform="rotate(76.5 239,333.2625)"
		fill="rgb(181,217,95)" /><use xlink:href="#feuille4"
		x="239" y="333.2625" 
		transform="rotate(50.1 239,333.2625)"
		fill="rgb(121,157,35)" /><use xlink:href="#feuille1"
	x="225.7565" y="449.8164375" 
	transform="rotate(-52  225.7565,449.8164375)"
	fill="rgb(171,207,85)" /><path d="M 221 480 c 36,-218.4 -18,-81.9 90,-273  " stroke="rgb(120,102,176)" stroke-width="18" fill="transparent"/><use xlink:href="#fleur1"
x="311" y="207" 
fill="Pink" /><use xlink:href="#feuille4"
		x="173.0532" y="382.2198" 
		transform="rotate(71.7 173.0532,382.2198)"
		fill="rgb(151,187,65)" /><use xlink:href="#feuille2"
		x="173.0532" y="382.2198" 
		transform="rotate(93.6 173.0532,382.2198)"
		fill="rgb(131,167,45)" /><use xlink:href="#feuille3"
		x="173.0532" y="382.2198" 
		transform="rotate(56.5 173.0532,382.2198)"
		fill="rgb(131,167,45)" /><use xlink:href="#feuille2"
		x="173.0532" y="382.2198" 
		transform="rotate(-55.3 173.0532,382.2198)"
		fill="rgb(121,157,35)" /><use xlink:href="#feuille2"
		x="173.0532" y="382.2198" 
		transform="rotate(-46.9 173.0532,382.2198)"
		fill="rgb(121,157,35)" /><use xlink:href="#feuille3"
		x="173.0532" y="382.2198" 
		transform="rotate(79.1 173.0532,382.2198)"
		fill="rgb(141,177,55)" /><use xlink:href="#feuille1"
	x="173.03955" y="467.121825" 
	transform="rotate(-51  173.03955,467.121825)"
	fill="rgb(171,207,85)" /><path d="M 173 480 c 0.33333333333333,-93 -0.8,-37.2 1,-186  " stroke="rgb(120,102,176)" stroke-width="16" fill="transparent"/><use xlink:href="#fleur2"
x="174" y="294" 
fill="Pink" /><use xlink:href="#feuille4"
		x="134.422325" y="447.464875" 
		transform="rotate(70.6 134.422325,447.464875)"
		fill="rgb(161,197,75)" /><use xlink:href="#feuille2"
		x="134.422325" y="447.464875" 
		transform="rotate(-75.1 134.422325,447.464875)"
		fill="rgb(181,217,95)" /><use xlink:href="#feuille1"
	x="142.698275" y="474.116125" 
	transform="rotate(-59  142.698275,474.116125)"
	fill="rgb(161,197,75)" /><use xlink:href="#feuille1"
	x="142.698275" y="474.116125" 
	transform="rotate(-61  142.698275,474.116125)"
	fill="rgb(141,177,55)" /><path d="M 142 480 c 7.0666666666667,-41.2 -35.333333333333,-41.2 -53,-103  " stroke="rgb(120,102,176)" stroke-width="14" fill="transparent"/><use xlink:href="#fleur3"
x="89" y="377" 
fill="Pink" /></svg>