<?xml version="1.0" encoding="iso-8859-1"?>
<svg version="1.1" id="Capa_1" xmlns="http://www.w3.org/2000/svg" xmlns:xlink="http://www.w3.org/1999/xlink" x="0px" y="0px"
viewBox="0 0 500 500" xml:space="preserve"><defs><g id="feuille1">
<path d="M 0,0
c 58,-14 24,-42 0,-142
M 0,0
c -58,-14 -24,-42 0,-142
z" stroke="#85e085" stroke-width="0"/>
<polygon points="-3,3, 0,-99.4 3 3" stroke="rgb(59,66,83)" stroke-width="2" fill="rgb(59,66,83)"/>
</g>
<g id="feuille2">
<path d="M 0,0
c 38.666666666667,-9.3333333333333 16,-28 0,-94.666666666667
M 0,0
c -38.666666666667,-9.3333333333333 -16,-28 0,-94.666666666667
z" stroke="#85e085" stroke-width="0"/>
<polygon points="-3 3, 0,-66.266666666667, 3 3" stroke="rgb(59,66,83)" stroke-width="1" fill="rgb(59,66,83)"/>
</g><g id="feuille3">
<path d="M 0,0
c 29,-7 12,-21 0,-71
M 0,0
c -29,-7 -12,-21 0,-71
z" stroke="#85e085" stroke-width="0"/>
<polygon points="-3 3, 0,-49.7, 3 3" stroke="rgb(59,66,83)" stroke-width="1" fill="rgb(59,66,83)"/>
</g><g id="feuille4">
<path d="M 0,0
c 23.2,-5.6 9.6,-16.8 0,-56.8
M 0,0
c -23.2,-5.6 -9.6,-16.8 0,-56.8
z" stroke="#85e085" stroke-width="0"/>
<polygon points="-3 3, 0,-39.76, 3 3" stroke="rgb(59,66,83)" stroke-width="1" fill="rgb(59,66,83)"/>
</g><g id="fleur1"><path d="M 0,0
	c 25,-75 39,-107 0,-80
	M 0,0
	c -25,-75 -39,-107 0,-80
	z" fill="rgb(162,61,152)" stroke-width="1" transform="rotate(0 0,0)"/><path d="M 0,0
	c 25,-75 39,-107 0,-67
	M 0,0
	c -25,-75 -39,-107 0,-67
	z" fill="rgb(182,81,172)" stroke-width="1" transform="rotate(45.9 0,0)"/><path d="M 0,0
	c 25,-75 39,-107 0,-68
	M 0,0
	c -25,-75 -39,-107 0,-68
	z" fill="rgb(162,61,152)" stroke-width="1" transform="rotate(94.5 0,0)"/><path d="M 0,0
	c 25,-75 39,-107 0,-70
	M 0,0
	c -25,-75 -39,-107 0,-70
	z" fill="rgb(192,91,182)" stroke-width="1" transform="rotate(133.65 0,0)"/><path d="M 0,0
	c 25,-75 39,-107 0,-73
	M 0,0
	c -25,-75 -39,-107 0,-73
	z" fill="rgb(162,61,152)" stroke-width="1" transform="rotate(169.2 0,0)"/><path d="M 0,0
	c 25,-75 39,-107 0,-76
	M 0,0
	c -25,-75 -39,-107 0,-76
	z" fill="rgb(202,101,192)" stroke-width="1" transform="rotate(231.75 0,0)"/><path d="M 0,0
	c 25,-75 39,-107 0,-72
	M 0,0
	c -25,-75 -39,-107 0,-72
	z" fill="rgb(162,61,152)" stroke-width="1" transform="rotate(270 0,0)"/><path d="M 0,0
	c 25,-75 39,-107 0,-76
	M 0,0
	c -25,-75 -39,-107 0,-76
	z" fill="rgb(182,81,172)" stroke-width="1" transform="rotate(346.5 0,0)"/><circle cx="0" cy="0" r="12.333333333333" fill="#ffb566"/><circle cx="0" cy="0" r="4.1111111111111" fill="#ffce99"/></g><g id="fleur2"><path d="M 0,0
	c 16.666666666667,-50 26,-71.333333333333 0,-42.666666666667
	M 0,0
	c -16.666666666667,-50 -26,-71.333333333333 0,-42.666666666667
	z" fill="rgb(202,101,192)" stroke-width="1" transform="rotate(0 0,0)"/><path d="M 0,0
	c 16.666666666667,-50 26,-71.333333333333 0,-44.666666666667
	M 0,0
	c -16.666666666667,-50 -26,-71.333333333333 0,-44.666666666667
	z" fill="rgb(162,61,152)" stroke-width="1" transform="rotate(75.6 0,0)"/><path d="M 0,0
	c 16.666666666667,-50 26,-71.333333333333 0,-54.666666666667
	M 0,0
	c -16.666666666667,-50 -26,-71.333333333333 0,-54.666666666667
	z" fill="rgb(192,91,182)" stroke-width="1" transform="rotate(158.4 0,0)"/><path d="M 0,0
	c 16.666666666667,-50 26,-71.333333333333 0,-46
	M 0,0
	c -16.666666666667,-50 -26,-71.333333333333 0,-46
	z" fill="rgb(192,91,182)" stroke-width="1" transform="rotate(216 0,0)"/><path d="M 0,0
	c 16.666666666667,-50 26,-71.333333333333 0,-53.333333333333
	M 0,0
	c -16.666666666667,-50 -26,-71.333333333333 0,-53.333333333333
	z" fill="rgb(172,71,162)" stroke-width="1" transform="rotate(276.48 0,0)"/><circle cx="0" cy="0" r="8.2222222222222" fill="#ffb566"/><circle cx="0" cy="0" r="2.7407407407407" fill="#ffce99"/></g><g id="fleur3"><path d="M 0,0
	c 14.285714285714,-42.857142857143 22.285714285714,-61.142857142857 0,-45.142857142857
	M 0,0
	c -14.285714285714,-42.857142857143 -22.285714285714,-61.142857142857 0,-45.142857142857
	z" fill="rgb(202,101,192)" stroke-width="1" transform="rotate(0 0,0)"/><path d="M 0,0
	c 14.285714285714,-42.857142857143 22.285714285714,-61.142857142857 0,-37.714285714286
	M 0,0
	c -14.285714285714,-42.857142857143 -22.285714285714,-61.142857142857 0,-37.714285714286
	z" fill="rgb(192,91,182)" stroke-width="1" transform="rotate(22.08 0,0)"/><path d="M 0,0
	c 14.285714285714,-42.857142857143 22.285714285714,-61.142857142857 0,-37.142857142857
	M 0,0
	c -14.285714285714,-42.857142857143 -22.285714285714,-61.142857142857 0,-37.142857142857
	z" fill="rgb(172,71,162)" stroke-width="1" transform="rotate(49.44 0,0)"/><path d="M 0,0
	c 14.285714285714,-42.857142857143 22.285714285714,-61.142857142857 0,-41.142857142857
	M 0,0
	c -14.285714285714,-42.857142857143 -22.285714285714,-61.142857142857 0,-41.142857142857
	z" fill="rgb(182,81,172)" stroke-width="1" transform="rotate(79.2 0,0)"/><path d="M 0,0
	c 14.285714285714,-42.857142857143 22.285714285714,-61.142857142857 0,-45.142857142857
	M 0,0
	c -14.285714285714,-42.857142857143 -22.285714285714,-61.142857142857 0,-45.142857142857
	z" fill="rgb(162,61,152)" stroke-width="1" transform="rotate(90.24 0,0)"/><path d="M 0,0
	c 14.285714285714,-42.857142857143 22.285714285714,-61.142857142857 0,-42.857142857143
	M 0,0
	c -14.285714285714,-42.857142857143 -22.285714285714,-61.142857142857 0,-42.857142857143
	z" fill="rgb(172,71,162)" stroke-width="1" transform="rotate(121.2 0,0)"/><path d="M 0,0
	c 14.285714285714,-42.857142857143 22.285714285714,-61.142857142857 0,-42.857142857143
	M 0,0
	c -14.285714285714,-42.857142857143 -22.285714285714,-61.142857142857 0,-42.857142857143
	z" fill="rgb(192,91,182)" stroke-width="1" transform="rotate(154.08 0,0)"/><path d="M 0,0
	c 14.285714285714,-42.857142857143 22.285714285714,-61.142857142857 0,-46.285714285714
	M 0,0
	c -14.285714285714,-42.857142857143 -22.285714285714,-61.142857142857 0,-46.285714285714
	z" fill="rgb(202,101,192)" stroke-width="1" transform="rotate(181.44 0,0)"/><path d="M 0,0
	c 14.285714285714,-42.857142857143 22.285714285714,-61.142857142857 0,-37.714285714286
	M 0,0
	c -14.285714285714,-42.857142857143 -22.285714285714,-61.142857142857 0,-37.714285714286
	z" fill="rgb(202,101,192)" stroke-width="1" transform="rotate(190.08 0,0)"/><path d="M 0,0
	c 14.285714285714,-42.857142857143 22.285714285714,-61.142857142857 0,-44.571428571429
	M 0,0
	c -14.285714285714,-42.857142857143 -22.285714285714,-61.142857142857 0,-44.571428571429
	z" fill="rgb(182,81,172)" stroke-width="1" transform="rotate(207.36 0,0)"/><path d="M 0,0
	c 14.285714285714,-42.857142857143 22.285714285714,-61.142857142857 0,-48
	M 0,0
	c -14.285714285714,-42.857142857143 -22.285714285714,-61.142857142857 0,-48
	z" fill="rgb(182,81,172)" stroke-width="1" transform="rotate(249.6 0,0)"/><path d="M 0,0
	c 14.285714285714,-42.857142857143 22.285714285714,-61.142857142857 0,-38.857142857143
	M 0,0
	c -14.285714285714,-42.857142857143 -22.285714285714,-61.142857142857 0,-38.857142857143
	z" fill="rgb(162,61,152)" stroke-width="1" transform="rotate(279.84 0,0)"/><path d="M 0,0
	c 14.285714285714,-42.857142857143 22.285714285714,-61.142857142857 0,-39.428571428571
	M 0,0
	c -14.285714285714,-42.857142857143 -22.285714285714,-61.142857142857 0,-39.428571428571
	z" fill="rgb(182,81,172)" stroke-width="1" transform="rotate(313.92 0,0)"/><path d="M 0,0
	c 14.285714285714,-42.857142857143 22.285714285714,-61.142857142857 0,-41.142857142857
	M 0,0
	c -14.285714285714,-42.857142857143 -22.285714285714,-61.142857142857 0,-41.142857142857
	z" fill="rgb(172,71,162)" stroke-width="1" transform="rotate(315.12 0,0)"/><path d="M 0,0
	c 14.285714285714,-42.857142857143 22.285714285714,-61.142857142857 0,-39.428571428571
	M 0,0
	c -14.285714285714,-42.857142857143 -22.285714285714,-61.142857142857 0,-39.428571428571
	z" fill="rgb(202,101,192)" stroke-width="1" transform="rotate(312.48 0,0)"/><circle cx="0" cy="0" r="7.047619047619" fill="#ffb566"/><circle cx="0" cy="0" r="2.3492063492063" fill="#ffce99"/></g><g id="fleur4"><path d="M 0,0
	c 12.5,-37.5 19.5,-53.5 0,-34
	M 0,0
	c -12.5,-37.5 -19.5,-53.5 0,-34
	z" fill="rgb(182,81,172)" stroke-width="1" transform="rotate(0 0,0)"/><path d="M 0,0
	c 12.5,-37.5 19.5,-53.5 0,-40
	M 0,0
	c -12.5,-37.5 -19.5,-53.5 0,-40
	z" fill="rgb(182,81,172)" stroke-width="1" transform="rotate(40.95 0,0)"/><path d="M 0,0
	c 12.5,-37.5 19.5,-53.5 0,-42
	M 0,0
	c -12.5,-37.5 -19.5,-53.5 0,-42
	z" fill="rgb(202,101,192)" stroke-width="1" transform="rotate(84.6 0,0)"/><path d="M 0,0
	c 12.5,-37.5 19.5,-53.5 0,-34.5
	M 0,0
	c -12.5,-37.5 -19.5,-53.5 0,-34.5
	z" fill="rgb(182,81,172)" stroke-width="1" transform="rotate(121.5 0,0)"/><path d="M 0,0
	c 12.5,-37.5 19.5,-53.5 0,-33.5
	M 0,0
	c -12.5,-37.5 -19.5,-53.5 0,-33.5
	z" fill="rgb(202,101,192)" stroke-width="1" transform="rotate(176.4 0,0)"/><path d="M 0,0
	c 12.5,-37.5 19.5,-53.5 0,-34.5
	M 0,0
	c -12.5,-37.5 -19.5,-53.5 0,-34.5
	z" fill="rgb(172,71,162)" stroke-width="1" transform="rotate(220.5 0,0)"/><path d="M 0,0
	c 12.5,-37.5 19.5,-53.5 0,-41.5
	M 0,0
	c -12.5,-37.5 -19.5,-53.5 0,-41.5
	z" fill="rgb(162,61,152)" stroke-width="1" transform="rotate(243 0,0)"/><path d="M 0,0
	c 12.5,-37.5 19.5,-53.5 0,-33
	M 0,0
	c -12.5,-37.5 -19.5,-53.5 0,-33
	z" fill="rgb(202,101,192)" stroke-width="1" transform="rotate(327.6 0,0)"/><circle cx="0" cy="0" r="6.1666666666667" fill="#ffb566"/><circle cx="0" cy="0" r="2.0555555555556" fill="#ffce99"/></g></defs><use xlink:href="#feuille1"
	x="232.9594" y="474.14565" 
	transform="rotate(-58  232.9594,474.14565)"
	fill="rgb(168,86,75)" /><path d="M 223 480 c 76.266666666667,-37.2 -52.8,-111.6 88,-186  " stroke="rgb(59,66,83)" stroke-width="18" fill="transparent"/><use xlink:href="#fleur1"
x="311" y="294" 
fill="Pink" /><use xlink:href="#feuille2"
		x="145.96" y="394.2192" 
		transform="rotate(76 145.96,394.2192)"
		fill="rgb(168,86,75)" /><use xlink:href="#feuille3"
		x="145.96" y="394.2192" 
		transform="rotate(47 145.96,394.2192)"
		fill="rgb(218,136,125)" /><use xlink:href="#feuille1"
	x="189.403125" y="462.31415" 
	transform="rotate(-45  189.403125,462.31415)"
	fill="rgb(178,96,85)" /><use xlink:href="#feuille1"
	x="189.403125" y="462.31415" 
	transform="rotate(-55  189.403125,462.31415)"
	fill="rgb(208,126,115)" /><use xlink:href="#feuille1"
	x="189.403125" y="462.31415" 
	transform="rotate(42  189.403125,462.31415)"
	fill="rgb(188,106,95)" /><path d="M 178 480 c 89,-128.8 -89,-32.2 -89,-161  " stroke="rgb(59,66,83)" stroke-width="16" fill="transparent"/><use xlink:href="#fleur2"
x="89" y="319" 
fill="Pink" /><use xlink:href="#feuille3"
		x="236.9072" y="403.8864" 
		transform="rotate(70.4 236.9072,403.8864)"
		fill="rgb(158,76,65)" /><use xlink:href="#feuille1"
	x="224.302475" y="467.2247625" 
	transform="rotate(-56  224.302475,467.2247625)"
	fill="rgb(168,86,75)" /><path d="M 223 480 c 7.0666666666667,-90.9 49.466666666667,-60.6 -53,-303  " stroke="rgb(59,66,83)" stroke-width="14" fill="transparent"/><use xlink:href="#fleur3"
x="170" y="177" 
fill="Pink" /></svg>