<?xml version="1.0" encoding="iso-8859-1"?>
<svg version="1.1" id="Capa_1" xmlns="http://www.w3.org/2000/svg" xmlns:xlink="http://www.w3.org/1999/xlink" x="0px" y="0px"
viewBox="0 0 500 500" xml:space="preserve"><defs><g id="feuille1">
<path d="M 0,0
c 32,-27 37,-62 0,-103
M 0,0
c -32,-27 -37,-62 0,-103
z" stroke="#85e085" stroke-width="0"/>
<polygon points="-3,3, 0,-72.1 3 3" stroke="rgb(149,51,110)" stroke-width="2" fill="rgb(149,51,110)"/>
</g>
<g id="feuille2">
<path d="M 0,0
c 21.333333333333,-18 24.666666666667,-41.333333333333 0,-68.666666666667
M 0,0
c -21.333333333333,-18 -24.666666666667,-41.333333333333 0,-68.666666666667
z" stroke="#85e085" stroke-width="0"/>
<polygon points="-3 3, 0,-48.066666666667, 3 3" stroke="rgb(149,51,110)" stroke-width="1" fill="rgb(149,51,110)"/>
</g><g id="feuille3">
<path d="M 0,0
c 16,-13.5 18.5,-31 0,-51.5
M 0,0
c -16,-13.5 -18.5,-31 0,-51.5
z" stroke="#85e085" stroke-width="0"/>
<polygon points="-3 3, 0,-36.05, 3 3" stroke="rgb(149,51,110)" stroke-width="1" fill="rgb(149,51,110)"/>
</g><g id="feuille4">
<path d="M 0,0
c 12.8,-10.8 14.8,-24.8 0,-41.2
M 0,0
c -12.8,-10.8 -14.8,-24.8 0,-41.2
z" stroke="#85e085" stroke-width="0"/>
<polygon points="-3 3, 0,-28.84, 3 3" stroke="rgb(149,51,110)" stroke-width="1" fill="rgb(149,51,110)"/>
</g><g id="fleur1"><path d="M 0,0
	c 24,-92 30,-73.6 0,-83
	M 0,0
	c -24,-92 -30,-73.6 0,-83
	z" fill="rgb(65,101,169)" stroke-width="1" transform="rotate(0 0,0)"/><path d="M 0,0
	c 24,-92 30,-73.6 0,-88
	M 0,0
	c -24,-92 -30,-73.6 0,-88
	z" fill="rgb(75,111,179)" stroke-width="1" transform="rotate(29.781818181818 0,0)"/><path d="M 0,0
	c 24,-92 30,-73.6 0,-80
	M 0,0
	c -24,-92 -30,-73.6 0,-80
	z" fill="rgb(45,81,149)" stroke-width="1" transform="rotate(60.218181818182 0,0)"/><path d="M 0,0
	c 24,-92 30,-73.6 0,-73
	M 0,0
	c -24,-92 -30,-73.6 0,-73
	z" fill="rgb(85,121,189)" stroke-width="1" transform="rotate(91.309090909091 0,0)"/><path d="M 0,0
	c 24,-92 30,-73.6 0,-88
	M 0,0
	c -24,-92 -30,-73.6 0,-88
	z" fill="rgb(55,91,159)" stroke-width="1" transform="rotate(133.52727272727 0,0)"/><path d="M 0,0
	c 24,-92 30,-73.6 0,-84
	M 0,0
	c -24,-92 -30,-73.6 0,-84
	z" fill="rgb(65,101,169)" stroke-width="1" transform="rotate(155.45454545455 0,0)"/><path d="M 0,0
	c 24,-92 30,-73.6 0,-70
	M 0,0
	c -24,-92 -30,-73.6 0,-70
	z" fill="rgb(85,121,189)" stroke-width="1" transform="rotate(210.10909090909 0,0)"/><path d="M 0,0
	c 24,-92 30,-73.6 0,-80
	M 0,0
	c -24,-92 -30,-73.6 0,-80
	z" fill="rgb(65,101,169)" stroke-width="1" transform="rotate(224.50909090909 0,0)"/><path d="M 0,0
	c 24,-92 30,-73.6 0,-74
	M 0,0
	c -24,-92 -30,-73.6 0,-74
	z" fill="rgb(45,81,149)" stroke-width="1" transform="rotate(246.10909090909 0,0)"/><path d="M 0,0
	c 24,-92 30,-73.6 0,-78
	M 0,0
	c -24,-92 -30,-73.6 0,-78
	z" fill="rgb(75,111,179)" stroke-width="1" transform="rotate(268.03636363636 0,0)"/><path d="M 0,0
	c 24,-92 30,-73.6 0,-72
	M 0,0
	c -24,-92 -30,-73.6 0,-72
	z" fill="rgb(85,121,189)" stroke-width="1" transform="rotate(307.63636363636 0,0)"/><circle cx="0" cy="0" r="19.5" fill="#ffb566"/><circle cx="0" cy="0" r="6.5" fill="#ffce99"/></g><g id="fleur2"><path d="M 0,0
	c 16,-61.333333333333 20,-49.066666666667 0,-47.333333333333
	M 0,0
	c -16,-61.333333333333 -20,-49.066666666667 0,-47.333333333333
	z" fill="rgb(65,101,169)" stroke-width="1" transform="rotate(0 0,0)"/><path d="M 0,0
	c 16,-61.333333333333 20,-49.066666666667 0,-50.666666666667
	M 0,0
	c -16,-61.333333333333 -20,-49.066666666667 0,-50.666666666667
	z" fill="rgb(75,111,179)" stroke-width="1" transform="rotate(31.8 0,0)"/><path d="M 0,0
	c 16,-61.333333333333 20,-49.066666666667 0,-58
	M 0,0
	c -16,-61.333333333333 -20,-49.066666666667 0,-58
	z" fill="rgb(75,111,179)" stroke-width="1" transform="rotate(64.2 0,0)"/><path d="M 0,0
	c 16,-61.333333333333 20,-49.066666666667 0,-46
	M 0,0
	c -16,-61.333333333333 -20,-49.066666666667 0,-46
	z" fill="rgb(45,81,149)" stroke-width="1" transform="rotate(92.7 0,0)"/><path d="M 0,0
	c 16,-61.333333333333 20,-49.066666666667 0,-56.666666666667
	M 0,0
	c -16,-61.333333333333 -20,-49.066666666667 0,-56.666666666667
	z" fill="rgb(55,91,159)" stroke-width="1" transform="rotate(132 0,0)"/><path d="M 0,0
	c 16,-61.333333333333 20,-49.066666666667 0,-48.666666666667
	M 0,0
	c -16,-61.333333333333 -20,-49.066666666667 0,-48.666666666667
	z" fill="rgb(65,101,169)" stroke-width="1" transform="rotate(154.5 0,0)"/><path d="M 0,0
	c 16,-61.333333333333 20,-49.066666666667 0,-52.666666666667
	M 0,0
	c -16,-61.333333333333 -20,-49.066666666667 0,-52.666666666667
	z" fill="rgb(55,91,159)" stroke-width="1" transform="rotate(174.6 0,0)"/><path d="M 0,0
	c 16,-61.333333333333 20,-49.066666666667 0,-52
	M 0,0
	c -16,-61.333333333333 -20,-49.066666666667 0,-52
	z" fill="rgb(55,91,159)" stroke-width="1" transform="rotate(226.8 0,0)"/><path d="M 0,0
	c 16,-61.333333333333 20,-49.066666666667 0,-50
	M 0,0
	c -16,-61.333333333333 -20,-49.066666666667 0,-50
	z" fill="rgb(85,121,189)" stroke-width="1" transform="rotate(223.2 0,0)"/><path d="M 0,0
	c 16,-61.333333333333 20,-49.066666666667 0,-56.666666666667
	M 0,0
	c -16,-61.333333333333 -20,-49.066666666667 0,-56.666666666667
	z" fill="rgb(55,91,159)" stroke-width="1" transform="rotate(259.2 0,0)"/><path d="M 0,0
	c 16,-61.333333333333 20,-49.066666666667 0,-50
	M 0,0
	c -16,-61.333333333333 -20,-49.066666666667 0,-50
	z" fill="rgb(45,81,149)" stroke-width="1" transform="rotate(285 0,0)"/><path d="M 0,0
	c 16,-61.333333333333 20,-49.066666666667 0,-50
	M 0,0
	c -16,-61.333333333333 -20,-49.066666666667 0,-50
	z" fill="rgb(85,121,189)" stroke-width="1" transform="rotate(333.3 0,0)"/><circle cx="0" cy="0" r="13" fill="#ffb566"/><circle cx="0" cy="0" r="4.3333333333333" fill="#ffce99"/></g><g id="fleur3"><path d="M 0,0
	c 13.714285714286,-52.571428571429 17.142857142857,-42.057142857143 0,-43.428571428571
	M 0,0
	c -13.714285714286,-52.571428571429 -17.142857142857,-42.057142857143 0,-43.428571428571
	z" fill="rgb(45,81,149)" stroke-width="1" transform="rotate(0 0,0)"/><path d="M 0,0
	c 13.714285714286,-52.571428571429 17.142857142857,-42.057142857143 0,-44.571428571429
	M 0,0
	c -13.714285714286,-52.571428571429 -17.142857142857,-42.057142857143 0,-44.571428571429
	z" fill="rgb(85,121,189)" stroke-width="1" transform="rotate(23.76 0,0)"/><path d="M 0,0
	c 13.714285714286,-52.571428571429 17.142857142857,-42.057142857143 0,-49.142857142857
	M 0,0
	c -13.714285714286,-52.571428571429 -17.142857142857,-42.057142857143 0,-49.142857142857
	z" fill="rgb(45,81,149)" stroke-width="1" transform="rotate(43.68 0,0)"/><path d="M 0,0
	c 13.714285714286,-52.571428571429 17.142857142857,-42.057142857143 0,-44.571428571429
	M 0,0
	c -13.714285714286,-52.571428571429 -17.142857142857,-42.057142857143 0,-44.571428571429
	z" fill="rgb(45,81,149)" stroke-width="1" transform="rotate(70.56 0,0)"/><path d="M 0,0
	c 13.714285714286,-52.571428571429 17.142857142857,-42.057142857143 0,-49.714285714286
	M 0,0
	c -13.714285714286,-52.571428571429 -17.142857142857,-42.057142857143 0,-49.714285714286
	z" fill="rgb(75,111,179)" stroke-width="1" transform="rotate(86.4 0,0)"/><path d="M 0,0
	c 13.714285714286,-52.571428571429 17.142857142857,-42.057142857143 0,-50.285714285714
	M 0,0
	c -13.714285714286,-52.571428571429 -17.142857142857,-42.057142857143 0,-50.285714285714
	z" fill="rgb(65,101,169)" stroke-width="1" transform="rotate(128.4 0,0)"/><path d="M 0,0
	c 13.714285714286,-52.571428571429 17.142857142857,-42.057142857143 0,-47.428571428571
	M 0,0
	c -13.714285714286,-52.571428571429 -17.142857142857,-42.057142857143 0,-47.428571428571
	z" fill="rgb(55,91,159)" stroke-width="1" transform="rotate(141.12 0,0)"/><path d="M 0,0
	c 13.714285714286,-52.571428571429 17.142857142857,-42.057142857143 0,-45.142857142857
	M 0,0
	c -13.714285714286,-52.571428571429 -17.142857142857,-42.057142857143 0,-45.142857142857
	z" fill="rgb(85,121,189)" stroke-width="1" transform="rotate(157.92 0,0)"/><path d="M 0,0
	c 13.714285714286,-52.571428571429 17.142857142857,-42.057142857143 0,-49.714285714286
	M 0,0
	c -13.714285714286,-52.571428571429 -17.142857142857,-42.057142857143 0,-49.714285714286
	z" fill="rgb(85,121,189)" stroke-width="1" transform="rotate(193.92 0,0)"/><path d="M 0,0
	c 13.714285714286,-52.571428571429 17.142857142857,-42.057142857143 0,-39.428571428571
	M 0,0
	c -13.714285714286,-52.571428571429 -17.142857142857,-42.057142857143 0,-39.428571428571
	z" fill="rgb(65,101,169)" stroke-width="1" transform="rotate(205.2 0,0)"/><path d="M 0,0
	c 13.714285714286,-52.571428571429 17.142857142857,-42.057142857143 0,-48.571428571429
	M 0,0
	c -13.714285714286,-52.571428571429 -17.142857142857,-42.057142857143 0,-48.571428571429
	z" fill="rgb(45,81,149)" stroke-width="1" transform="rotate(223.2 0,0)"/><path d="M 0,0
	c 13.714285714286,-52.571428571429 17.142857142857,-42.057142857143 0,-46.285714285714
	M 0,0
	c -13.714285714286,-52.571428571429 -17.142857142857,-42.057142857143 0,-46.285714285714
	z" fill="rgb(45,81,149)" stroke-width="1" transform="rotate(266.64 0,0)"/><path d="M 0,0
	c 13.714285714286,-52.571428571429 17.142857142857,-42.057142857143 0,-41.142857142857
	M 0,0
	c -13.714285714286,-52.571428571429 -17.142857142857,-42.057142857143 0,-41.142857142857
	z" fill="rgb(65,101,169)" stroke-width="1" transform="rotate(288 0,0)"/><path d="M 0,0
	c 13.714285714286,-52.571428571429 17.142857142857,-42.057142857143 0,-48.571428571429
	M 0,0
	c -13.714285714286,-52.571428571429 -17.142857142857,-42.057142857143 0,-48.571428571429
	z" fill="rgb(85,121,189)" stroke-width="1" transform="rotate(330.72 0,0)"/><path d="M 0,0
	c 13.714285714286,-52.571428571429 17.142857142857,-42.057142857143 0,-43.428571428571
	M 0,0
	c -13.714285714286,-52.571428571429 -17.142857142857,-42.057142857143 0,-43.428571428571
	z" fill="rgb(55,91,159)" stroke-width="1" transform="rotate(362.88 0,0)"/><circle cx="0" cy="0" r="11.142857142857" fill="#ffb566"/><circle cx="0" cy="0" r="3.7142857142857" fill="#ffce99"/></g><g id="fleur4"><path d="M 0,0
	c 12,-46 15,-36.8 0,-37
	M 0,0
	c -12,-46 -15,-36.8 0,-37
	z" fill="rgb(85,121,189)" stroke-width="1" transform="rotate(0 0,0)"/><path d="M 0,0
	c 12,-46 15,-36.8 0,-38
	M 0,0
	c -12,-46 -15,-36.8 0,-38
	z" fill="rgb(45,81,149)" stroke-width="1" transform="rotate(35.018181818182 0,0)"/><path d="M 0,0
	c 12,-46 15,-36.8 0,-41
	M 0,0
	c -12,-46 -15,-36.8 0,-41
	z" fill="rgb(85,121,189)" stroke-width="1" transform="rotate(60.872727272727 0,0)"/><path d="M 0,0
	c 12,-46 15,-36.8 0,-43.5
	M 0,0
	c -12,-46 -15,-36.8 0,-43.5
	z" fill="rgb(85,121,189)" stroke-width="1" transform="rotate(103.09090909091 0,0)"/><path d="M 0,0
	c 12,-46 15,-36.8 0,-37.5
	M 0,0
	c -12,-46 -15,-36.8 0,-37.5
	z" fill="rgb(55,91,159)" stroke-width="1" transform="rotate(120.43636363636 0,0)"/><path d="M 0,0
	c 12,-46 15,-36.8 0,-43.5
	M 0,0
	c -12,-46 -15,-36.8 0,-43.5
	z" fill="rgb(75,111,179)" stroke-width="1" transform="rotate(173.45454545455 0,0)"/><path d="M 0,0
	c 12,-46 15,-36.8 0,-44
	M 0,0
	c -12,-46 -15,-36.8 0,-44
	z" fill="rgb(65,101,169)" stroke-width="1" transform="rotate(192.43636363636 0,0)"/><path d="M 0,0
	c 12,-46 15,-36.8 0,-34
	M 0,0
	c -12,-46 -15,-36.8 0,-34
	z" fill="rgb(55,91,159)" stroke-width="1" transform="rotate(235.96363636364 0,0)"/><path d="M 0,0
	c 12,-46 15,-36.8 0,-41.5
	M 0,0
	c -12,-46 -15,-36.8 0,-41.5
	z" fill="rgb(45,81,149)" stroke-width="1" transform="rotate(272.29090909091 0,0)"/><path d="M 0,0
	c 12,-46 15,-36.8 0,-39.5
	M 0,0
	c -12,-46 -15,-36.8 0,-39.5
	z" fill="rgb(85,121,189)" stroke-width="1" transform="rotate(306.32727272727 0,0)"/><path d="M 0,0
	c 12,-46 15,-36.8 0,-40.5
	M 0,0
	c -12,-46 -15,-36.8 0,-40.5
	z" fill="rgb(65,101,169)" stroke-width="1" transform="rotate(310.90909090909 0,0)"/><circle cx="0" cy="0" r="9.75" fill="#ffb566"/><circle cx="0" cy="0" r="3.25" fill="#ffce99"/></g></defs><use xlink:href="#feuille4"
		x="269.604" y="356.877" 
		transform="rotate(104.9 269.604,356.877)"
		fill="rgb(197,80,126)" /><use xlink:href="#feuille1"
	x="263.4615" y="467.988" 
	transform="rotate(-66  263.4615,467.988)"
	fill="rgb(187,70,116)" /><use xlink:href="#feuille1"
	x="263.4615" y="467.988" 
	transform="rotate(-58  263.4615,467.988)"
	fill="rgb(177,60,106)" /><use xlink:href="#feuille1"
	x="263.4615" y="467.988" 
	transform="rotate(59  263.4615,467.988)"
	fill="rgb(217,100,146)" /><path d="M 260 480 c 26.133333333333,-82.5 -11.2,-115.5 28,-165  " stroke="rgb(149,51,110)" stroke-width="18" fill="transparent"/><use xlink:href="#fleur1"
x="288" y="315" 
fill="Pink" /><use xlink:href="#feuille4"
		x="268.65625" y="381.5671875" 
		transform="rotate(-75 268.65625,381.5671875)"
		fill="rgb(197,80,126)" /><use xlink:href="#feuille4"
		x="268.65625" y="381.5671875" 
		transform="rotate(67.7 268.65625,381.5671875)"
		fill="rgb(227,110,156)" /><use xlink:href="#feuille3"
		x="250.816" y="295.7649" 
		transform="rotate(-69.1 250.816,295.7649)"
		fill="rgb(227,110,156)" /><use xlink:href="#feuille1"
	x="273.07525" y="455.3085375" 
	transform="rotate(34  273.07525,455.3085375)"
	fill="rgb(217,100,146)" /><use xlink:href="#feuille1"
	x="273.07525" y="455.3085375" 
	transform="rotate(-51  273.07525,455.3085375)"
	fill="rgb(217,100,146)" /><path d="M 274 480 c -6,-174.3 -15,-149.4 -45,-249  " stroke="rgb(149,51,110)" stroke-width="16" fill="transparent"/><use xlink:href="#fleur2"
x="229" y="231" 
fill="Pink" /></svg>