<?xml version="1.0" encoding="iso-8859-1"?>
<svg version="1.1" id="Capa_1" xmlns="http://www.w3.org/2000/svg" xmlns:xlink="http://www.w3.org/1999/xlink" x="0px" y="0px"
viewBox="0 0 500 500" xml:space="preserve"><defs><g id="feuille1">
<path d="M 0,0
c 60,-19 26,-43 0,-88
M 0,0
c -60,-19 -26,-43 0,-88
z" stroke="#85e085" stroke-width="0"/>
<polygon points="-3,3, 0,-61.6 3 3" stroke="rgb(97,132,104)" stroke-width="2" fill="rgb(97,132,104)"/>
</g>
<g id="feuille2">
<path d="M 0,0
c 40,-12.666666666667 17.333333333333,-28.666666666667 0,-58.666666666667
M 0,0
c -40,-12.666666666667 -17.333333333333,-28.666666666667 0,-58.666666666667
z" stroke="#85e085" stroke-width="0"/>
<polygon points="-3 3, 0,-41.066666666667, 3 3" stroke="rgb(97,132,104)" stroke-width="1" fill="rgb(97,132,104)"/>
</g><g id="feuille3">
<path d="M 0,0
c 30,-9.5 13,-21.5 0,-44
M 0,0
c -30,-9.5 -13,-21.5 0,-44
z" stroke="#85e085" stroke-width="0"/>
<polygon points="-3 3, 0,-30.8, 3 3" stroke="rgb(97,132,104)" stroke-width="1" fill="rgb(97,132,104)"/>
</g><g id="feuille4">
<path d="M 0,0
c 24,-7.6 10.4,-17.2 0,-35.2
M 0,0
c -24,-7.6 -10.4,-17.2 0,-35.2
z" stroke="#85e085" stroke-width="0"/>
<polygon points="-3 3, 0,-24.64, 3 3" stroke="rgb(97,132,104)" stroke-width="1" fill="rgb(97,132,104)"/>
</g><g id="fleur1"><path d="M 0,0
	c 49,-56 21,-44.8 0,-69
	M 0,0
	c -49,-56 -21,-44.8 0,-69
	z" fill="rgb(197,120,197)" stroke-width="1" transform="rotate(0 0,0)"/><path d="M 0,0
	c 49,-56 21,-44.8 0,-73
	M 0,0
	c -49,-56 -21,-44.8 0,-73
	z" fill="rgb(167,90,167)" stroke-width="1" transform="rotate(54 0,0)"/><path d="M 0,0
	c 49,-56 21,-44.8 0,-73
	M 0,0
	c -49,-56 -21,-44.8 0,-73
	z" fill="rgb(207,130,207)" stroke-width="1" transform="rotate(112.11428571429 0,0)"/><path d="M 0,0
	c 49,-56 21,-44.8 0,-74
	M 0,0
	c -49,-56 -21,-44.8 0,-74
	z" fill="rgb(167,90,167)" stroke-width="1" transform="rotate(163.54285714286 0,0)"/><path d="M 0,0
	c 49,-56 21,-44.8 0,-68
	M 0,0
	c -49,-56 -21,-44.8 0,-68
	z" fill="rgb(177,100,177)" stroke-width="1" transform="rotate(224.22857142857 0,0)"/><path d="M 0,0
	c 49,-56 21,-44.8 0,-60
	M 0,0
	c -49,-56 -21,-44.8 0,-60
	z" fill="rgb(197,120,197)" stroke-width="1" transform="rotate(280.28571428571 0,0)"/><path d="M 0,0
	c 49,-56 21,-44.8 0,-60
	M 0,0
	c -49,-56 -21,-44.8 0,-60
	z" fill="rgb(187,110,187)" stroke-width="1" transform="rotate(327.08571428571 0,0)"/><circle cx="0" cy="0" r="9.5714285714286" fill="#ffb566"/><circle cx="0" cy="0" r="3.1904761904762" fill="#ffce99"/></g><g id="fleur2"><path d="M 0,0
	c 32.666666666667,-37.333333333333 14,-29.866666666667 0,-43.333333333333
	M 0,0
	c -32.666666666667,-37.333333333333 -14,-29.866666666667 0,-43.333333333333
	z" fill="rgb(187,110,187)" stroke-width="1" transform="rotate(0 0,0)"/><path d="M 0,0
	c 32.666666666667,-37.333333333333 14,-29.866666666667 0,-44
	M 0,0
	c -32.666666666667,-37.333333333333 -14,-29.866666666667 0,-44
	z" fill="rgb(187,110,187)" stroke-width="1" transform="rotate(31.745454545455 0,0)"/><path d="M 0,0
	c 32.666666666667,-37.333333333333 14,-29.866666666667 0,-46
	M 0,0
	c -32.666666666667,-37.333333333333 -14,-29.866666666667 0,-46
	z" fill="rgb(197,120,197)" stroke-width="1" transform="rotate(70.036363636364 0,0)"/><path d="M 0,0
	c 32.666666666667,-37.333333333333 14,-29.866666666667 0,-46.666666666667
	M 0,0
	c -32.666666666667,-37.333333333333 -14,-29.866666666667 0,-46.666666666667
	z" fill="rgb(197,120,197)" stroke-width="1" transform="rotate(105.05454545455 0,0)"/><path d="M 0,0
	c 32.666666666667,-37.333333333333 14,-29.866666666667 0,-38.666666666667
	M 0,0
	c -32.666666666667,-37.333333333333 -14,-29.866666666667 0,-38.666666666667
	z" fill="rgb(197,120,197)" stroke-width="1" transform="rotate(121.74545454545 0,0)"/><path d="M 0,0
	c 32.666666666667,-37.333333333333 14,-29.866666666667 0,-38.666666666667
	M 0,0
	c -32.666666666667,-37.333333333333 -14,-29.866666666667 0,-38.666666666667
	z" fill="rgb(197,120,197)" stroke-width="1" transform="rotate(162 0,0)"/><path d="M 0,0
	c 32.666666666667,-37.333333333333 14,-29.866666666667 0,-41.333333333333
	M 0,0
	c -32.666666666667,-37.333333333333 -14,-29.866666666667 0,-41.333333333333
	z" fill="rgb(177,100,177)" stroke-width="1" transform="rotate(198.32727272727 0,0)"/><path d="M 0,0
	c 32.666666666667,-37.333333333333 14,-29.866666666667 0,-50
	M 0,0
	c -32.666666666667,-37.333333333333 -14,-29.866666666667 0,-50
	z" fill="rgb(167,90,167)" stroke-width="1" transform="rotate(206.18181818182 0,0)"/><path d="M 0,0
	c 32.666666666667,-37.333333333333 14,-29.866666666667 0,-46
	M 0,0
	c -32.666666666667,-37.333333333333 -14,-29.866666666667 0,-46
	z" fill="rgb(177,100,177)" stroke-width="1" transform="rotate(240.87272727273 0,0)"/><path d="M 0,0
	c 32.666666666667,-37.333333333333 14,-29.866666666667 0,-48.666666666667
	M 0,0
	c -32.666666666667,-37.333333333333 -14,-29.866666666667 0,-48.666666666667
	z" fill="rgb(177,100,177)" stroke-width="1" transform="rotate(315.16363636364 0,0)"/><path d="M 0,0
	c 32.666666666667,-37.333333333333 14,-29.866666666667 0,-38
	M 0,0
	c -32.666666666667,-37.333333333333 -14,-29.866666666667 0,-38
	z" fill="rgb(197,120,197)" stroke-width="1" transform="rotate(304.36363636364 0,0)"/><circle cx="0" cy="0" r="6.3809523809524" fill="#ffb566"/><circle cx="0" cy="0" r="2.1269841269841" fill="#ffce99"/></g><g id="fleur3"><path d="M 0,0
	c 28,-32 12,-25.6 0,-40
	M 0,0
	c -28,-32 -12,-25.6 0,-40
	z" fill="rgb(167,90,167)" stroke-width="1" transform="rotate(0 0,0)"/><path d="M 0,0
	c 28,-32 12,-25.6 0,-34.857142857143
	M 0,0
	c -28,-32 -12,-25.6 0,-34.857142857143
	z" fill="rgb(207,130,207)" stroke-width="1" transform="rotate(64.8 0,0)"/><path d="M 0,0
	c 28,-32 12,-25.6 0,-42.285714285714
	M 0,0
	c -28,-32 -12,-25.6 0,-42.285714285714
	z" fill="rgb(207,130,207)" stroke-width="1" transform="rotate(148.32 0,0)"/><path d="M 0,0
	c 28,-32 12,-25.6 0,-41.142857142857
	M 0,0
	c -28,-32 -12,-25.6 0,-41.142857142857
	z" fill="rgb(177,100,177)" stroke-width="1" transform="rotate(198.72 0,0)"/><path d="M 0,0
	c 28,-32 12,-25.6 0,-37.714285714286
	M 0,0
	c -28,-32 -12,-25.6 0,-37.714285714286
	z" fill="rgb(187,110,187)" stroke-width="1" transform="rotate(270.72 0,0)"/><circle cx="0" cy="0" r="5.469387755102" fill="#ffb566"/><circle cx="0" cy="0" r="1.8231292517007" fill="#ffce99"/></g><g id="fleur4"><path d="M 0,0
	c 24.5,-28 10.5,-22.4 0,-29.5
	M 0,0
	c -24.5,-28 -10.5,-22.4 0,-29.5
	z" fill="rgb(187,110,187)" stroke-width="1" transform="rotate(0 0,0)"/><path d="M 0,0
	c 24.5,-28 10.5,-22.4 0,-34.5
	M 0,0
	c -24.5,-28 -10.5,-22.4 0,-34.5
	z" fill="rgb(167,90,167)" stroke-width="1" transform="rotate(45.9 0,0)"/><path d="M 0,0
	c 24.5,-28 10.5,-22.4 0,-32
	M 0,0
	c -24.5,-28 -10.5,-22.4 0,-32
	z" fill="rgb(167,90,167)" stroke-width="1" transform="rotate(98.1 0,0)"/><path d="M 0,0
	c 24.5,-28 10.5,-22.4 0,-33.5
	M 0,0
	c -24.5,-28 -10.5,-22.4 0,-33.5
	z" fill="rgb(187,110,187)" stroke-width="1" transform="rotate(144.45 0,0)"/><path d="M 0,0
	c 24.5,-28 10.5,-22.4 0,-38.5
	M 0,0
	c -24.5,-28 -10.5,-22.4 0,-38.5
	z" fill="rgb(177,100,177)" stroke-width="1" transform="rotate(178.2 0,0)"/><path d="M 0,0
	c 24.5,-28 10.5,-22.4 0,-35
	M 0,0
	c -24.5,-28 -10.5,-22.4 0,-35
	z" fill="rgb(187,110,187)" stroke-width="1" transform="rotate(225 0,0)"/><path d="M 0,0
	c 24.5,-28 10.5,-22.4 0,-33.5
	M 0,0
	c -24.5,-28 -10.5,-22.4 0,-33.5
	z" fill="rgb(167,90,167)" stroke-width="1" transform="rotate(251.1 0,0)"/><path d="M 0,0
	c 24.5,-28 10.5,-22.4 0,-28.5
	M 0,0
	c -24.5,-28 -10.5,-22.4 0,-28.5
	z" fill="rgb(197,120,197)" stroke-width="1" transform="rotate(283.5 0,0)"/><circle cx="0" cy="0" r="4.7857142857143" fill="#ffb566"/><circle cx="0" cy="0" r="1.5952380952381" fill="#ffce99"/></g></defs><use xlink:href="#feuille2"
		x="262.38" y="348.1536" 
		transform="rotate(-60.7 262.38,348.1536)"
		fill="rgb(160,186,208)" /><use xlink:href="#feuille2"
		x="262.38" y="348.1536" 
		transform="rotate(100.7 262.38,348.1536)"
		fill="rgb(130,156,178)" /><use xlink:href="#feuille4"
		x="262.38" y="348.1536" 
		transform="rotate(86.9 262.38,348.1536)"
		fill="rgb(160,186,208)" /><use xlink:href="#feuille3"
		x="262.38" y="348.1536" 
		transform="rotate(74.5 262.38,348.1536)"
		fill="rgb(150,176,198)" /><use xlink:href="#feuille1"
	x="262.77375" y="447.3996" 
	transform="rotate(63  262.77375,447.3996)"
	fill="rgb(170,196,218)" /><path d="M 264 480 c -10,-235.2 18.333333333333,-100.8 -25,-336  " stroke="rgb(97,132,104)" stroke-width="18" fill="transparent"/><use xlink:href="#fleur1"
x="239" y="144" 
fill="Pink" /><use xlink:href="#feuille1"
	x="249.560275" y="463.6967875" 
	transform="rotate(77  249.560275,463.6967875)"
	fill="rgb(170,196,218)" /><use xlink:href="#feuille1"
	x="249.560275" y="463.6967875" 
	transform="rotate(-64  249.560275,463.6967875)"
	fill="rgb(130,156,178)" /><use xlink:href="#feuille1"
	x="249.560275" y="463.6967875" 
	transform="rotate(-70  249.560275,463.6967875)"
	fill="rgb(140,166,188)" /><path d="M 250 480 c -2.6,-115.6 -13,-86.7 39,-289  " stroke="rgb(97,132,104)" stroke-width="16" fill="transparent"/><use xlink:href="#fleur2"
x="289" y="191" 
fill="Pink" /><use xlink:href="#feuille4"
		x="211.1038" y="415.2099" 
		transform="rotate(-85.7 211.1038,415.2099)"
		fill="rgb(150,176,198)" /><use xlink:href="#feuille1"
	x="226.854925" y="468.5623375" 
	transform="rotate(50  226.854925,468.5623375)"
	fill="rgb(160,186,208)" /><path d="M 232 480 c -36.4,-77.2 -31.2,-135.1 39,-193  " stroke="rgb(97,132,104)" stroke-width="14" fill="transparent"/><use xlink:href="#fleur3"
x="271" y="287" 
fill="Pink" /></svg>