<?xml version="1.0" encoding="iso-8859-1"?>
<svg version="1.1" id="Capa_1" xmlns="http://www.w3.org/2000/svg" xmlns:xlink="http://www.w3.org/1999/xlink" x="0px" y="0px"
viewBox="0 0 500 500" xml:space="preserve"><defs><g id="feuille1">
<path d="M 0,0
c 41,-15 57,-23 0,-136
M 0,0
c -41,-15 -57,-23 0,-136
z" stroke="#85e085" stroke-width="0"/>
<polygon points="-3,3, 0,-95.2 3 3" stroke="rgb(112,135,50)" stroke-width="2" fill="rgb(112,135,50)"/>
</g>
<g id="feuille2">
<path d="M 0,0
c 27.333333333333,-10 38,-15.333333333333 0,-90.666666666667
M 0,0
c -27.333333333333,-10 -38,-15.333333333333 0,-90.666666666667
z" stroke="#85e085" stroke-width="0"/>
<polygon points="-3 3, 0,-63.466666666667, 3 3" stroke="rgb(112,135,50)" stroke-width="1" fill="rgb(112,135,50)"/>
</g><g id="feuille3">
<path d="M 0,0
c 20.5,-7.5 28.5,-11.5 0,-68
M 0,0
c -20.5,-7.5 -28.5,-11.5 0,-68
z" stroke="#85e085" stroke-width="0"/>
<polygon points="-3 3, 0,-47.6, 3 3" stroke="rgb(112,135,50)" stroke-width="1" fill="rgb(112,135,50)"/>
</g><g id="feuille4">
<path d="M 0,0
c 16.4,-6 22.8,-9.2 0,-54.4
M 0,0
c -16.4,-6 -22.8,-9.2 0,-54.4
z" stroke="#85e085" stroke-width="0"/>
<polygon points="-3 3, 0,-38.08, 3 3" stroke="rgb(112,135,50)" stroke-width="1" fill="rgb(112,135,50)"/>
</g><g id="fleur1"><path d="M 0,0
	c 20,-19 35,-31 0,-49
	M 0,0
	c -20,-19 -35,-31 0,-49
	z" fill="rgb(50,127,164)" stroke-width="1" transform="rotate(0 0,0)"/><path d="M 0,0
	c 20,-19 35,-31 0,-55
	M 0,0
	c -20,-19 -35,-31 0,-55
	z" fill="rgb(60,137,174)" stroke-width="1" transform="rotate(36.8 0,0)"/><path d="M 0,0
	c 20,-19 35,-31 0,-45
	M 0,0
	c -20,-19 -35,-31 0,-45
	z" fill="rgb(50,127,164)" stroke-width="1" transform="rotate(77.6 0,0)"/><path d="M 0,0
	c 20,-19 35,-31 0,-54
	M 0,0
	c -20,-19 -35,-31 0,-54
	z" fill="rgb(70,147,184)" stroke-width="1" transform="rotate(108 0,0)"/><path d="M 0,0
	c 20,-19 35,-31 0,-53
	M 0,0
	c -20,-19 -35,-31 0,-53
	z" fill="rgb(60,137,174)" stroke-width="1" transform="rotate(168 0,0)"/><path d="M 0,0
	c 20,-19 35,-31 0,-44
	M 0,0
	c -20,-19 -35,-31 0,-44
	z" fill="rgb(60,137,174)" stroke-width="1" transform="rotate(214 0,0)"/><path d="M 0,0
	c 20,-19 35,-31 0,-47
	M 0,0
	c -20,-19 -35,-31 0,-47
	z" fill="rgb(50,127,164)" stroke-width="1" transform="rotate(249.6 0,0)"/><path d="M 0,0
	c 20,-19 35,-31 0,-56
	M 0,0
	c -20,-19 -35,-31 0,-56
	z" fill="rgb(50,127,164)" stroke-width="1" transform="rotate(257.6 0,0)"/><path d="M 0,0
	c 20,-19 35,-31 0,-60
	M 0,0
	c -20,-19 -35,-31 0,-60
	z" fill="rgb(40,117,154)" stroke-width="1" transform="rotate(316.8 0,0)"/><circle cx="0" cy="0" r="12.75" fill="#ffb566"/><circle cx="0" cy="0" r="4.25" fill="#ffce99"/></g><g id="fleur2"><path d="M 0,0
	c 13.333333333333,-12.666666666667 23.333333333333,-20.666666666667 0,-28.666666666667
	M 0,0
	c -13.333333333333,-12.666666666667 -23.333333333333,-20.666666666667 0,-28.666666666667
	z" fill="rgb(80,157,194)" stroke-width="1" transform="rotate(0 0,0)"/><path d="M 0,0
	c 13.333333333333,-12.666666666667 23.333333333333,-20.666666666667 0,-30.666666666667
	M 0,0
	c -13.333333333333,-12.666666666667 -23.333333333333,-20.666666666667 0,-30.666666666667
	z" fill="rgb(50,127,164)" stroke-width="1" transform="rotate(38.52 0,0)"/><path d="M 0,0
	c 13.333333333333,-12.666666666667 23.333333333333,-20.666666666667 0,-38.666666666667
	M 0,0
	c -13.333333333333,-12.666666666667 -23.333333333333,-20.666666666667 0,-38.666666666667
	z" fill="rgb(50,127,164)" stroke-width="1" transform="rotate(70.56 0,0)"/><path d="M 0,0
	c 13.333333333333,-12.666666666667 23.333333333333,-20.666666666667 0,-32.666666666667
	M 0,0
	c -13.333333333333,-12.666666666667 -23.333333333333,-20.666666666667 0,-32.666666666667
	z" fill="rgb(40,117,154)" stroke-width="1" transform="rotate(114.48 0,0)"/><path d="M 0,0
	c 13.333333333333,-12.666666666667 23.333333333333,-20.666666666667 0,-40
	M 0,0
	c -13.333333333333,-12.666666666667 -23.333333333333,-20.666666666667 0,-40
	z" fill="rgb(80,157,194)" stroke-width="1" transform="rotate(139.68 0,0)"/><path d="M 0,0
	c 13.333333333333,-12.666666666667 23.333333333333,-20.666666666667 0,-38.666666666667
	M 0,0
	c -13.333333333333,-12.666666666667 -23.333333333333,-20.666666666667 0,-38.666666666667
	z" fill="rgb(40,117,154)" stroke-width="1" transform="rotate(176.4 0,0)"/><path d="M 0,0
	c 13.333333333333,-12.666666666667 23.333333333333,-20.666666666667 0,-38
	M 0,0
	c -13.333333333333,-12.666666666667 -23.333333333333,-20.666666666667 0,-38
	z" fill="rgb(50,127,164)" stroke-width="1" transform="rotate(216 0,0)"/><path d="M 0,0
	c 13.333333333333,-12.666666666667 23.333333333333,-20.666666666667 0,-29.333333333333
	M 0,0
	c -13.333333333333,-12.666666666667 -23.333333333333,-20.666666666667 0,-29.333333333333
	z" fill="rgb(40,117,154)" stroke-width="1" transform="rotate(272.16 0,0)"/><path d="M 0,0
	c 13.333333333333,-12.666666666667 23.333333333333,-20.666666666667 0,-32
	M 0,0
	c -13.333333333333,-12.666666666667 -23.333333333333,-20.666666666667 0,-32
	z" fill="rgb(80,157,194)" stroke-width="1" transform="rotate(285.12 0,0)"/><path d="M 0,0
	c 13.333333333333,-12.666666666667 23.333333333333,-20.666666666667 0,-40
	M 0,0
	c -13.333333333333,-12.666666666667 -23.333333333333,-20.666666666667 0,-40
	z" fill="rgb(40,117,154)" stroke-width="1" transform="rotate(340.2 0,0)"/><circle cx="0" cy="0" r="8.5" fill="#ffb566"/><circle cx="0" cy="0" r="2.8333333333333" fill="#ffce99"/></g><g id="fleur3"><path d="M 0,0
	c 11.428571428571,-10.857142857143 20,-17.714285714286 0,-30.285714285714
	M 0,0
	c -11.428571428571,-10.857142857143 -20,-17.714285714286 0,-30.285714285714
	z" fill="rgb(60,137,174)" stroke-width="1" transform="rotate(0 0,0)"/><path d="M 0,0
	c 11.428571428571,-10.857142857143 20,-17.714285714286 0,-33.142857142857
	M 0,0
	c -11.428571428571,-10.857142857143 -20,-17.714285714286 0,-33.142857142857
	z" fill="rgb(80,157,194)" stroke-width="1" transform="rotate(23.52 0,0)"/><path d="M 0,0
	c 11.428571428571,-10.857142857143 20,-17.714285714286 0,-28.571428571429
	M 0,0
	c -11.428571428571,-10.857142857143 -20,-17.714285714286 0,-28.571428571429
	z" fill="rgb(50,127,164)" stroke-width="1" transform="rotate(45.12 0,0)"/><path d="M 0,0
	c 11.428571428571,-10.857142857143 20,-17.714285714286 0,-23.428571428571
	M 0,0
	c -11.428571428571,-10.857142857143 -20,-17.714285714286 0,-23.428571428571
	z" fill="rgb(70,147,184)" stroke-width="1" transform="rotate(77.04 0,0)"/><path d="M 0,0
	c 11.428571428571,-10.857142857143 20,-17.714285714286 0,-25.714285714286
	M 0,0
	c -11.428571428571,-10.857142857143 -20,-17.714285714286 0,-25.714285714286
	z" fill="rgb(60,137,174)" stroke-width="1" transform="rotate(105.6 0,0)"/><path d="M 0,0
	c 11.428571428571,-10.857142857143 20,-17.714285714286 0,-30.285714285714
	M 0,0
	c -11.428571428571,-10.857142857143 -20,-17.714285714286 0,-30.285714285714
	z" fill="rgb(80,157,194)" stroke-width="1" transform="rotate(116.4 0,0)"/><path d="M 0,0
	c 11.428571428571,-10.857142857143 20,-17.714285714286 0,-25.142857142857
	M 0,0
	c -11.428571428571,-10.857142857143 -20,-17.714285714286 0,-25.142857142857
	z" fill="rgb(80,157,194)" stroke-width="1" transform="rotate(152.64 0,0)"/><path d="M 0,0
	c 11.428571428571,-10.857142857143 20,-17.714285714286 0,-33.714285714286
	M 0,0
	c -11.428571428571,-10.857142857143 -20,-17.714285714286 0,-33.714285714286
	z" fill="rgb(50,127,164)" stroke-width="1" transform="rotate(171.36 0,0)"/><path d="M 0,0
	c 11.428571428571,-10.857142857143 20,-17.714285714286 0,-28
	M 0,0
	c -11.428571428571,-10.857142857143 -20,-17.714285714286 0,-28
	z" fill="rgb(70,147,184)" stroke-width="1" transform="rotate(176.64 0,0)"/><path d="M 0,0
	c 11.428571428571,-10.857142857143 20,-17.714285714286 0,-32
	M 0,0
	c -11.428571428571,-10.857142857143 -20,-17.714285714286 0,-32
	z" fill="rgb(80,157,194)" stroke-width="1" transform="rotate(224.64 0,0)"/><path d="M 0,0
	c 11.428571428571,-10.857142857143 20,-17.714285714286 0,-33.142857142857
	M 0,0
	c -11.428571428571,-10.857142857143 -20,-17.714285714286 0,-33.142857142857
	z" fill="rgb(80,157,194)" stroke-width="1" transform="rotate(249.6 0,0)"/><path d="M 0,0
	c 11.428571428571,-10.857142857143 20,-17.714285714286 0,-29.142857142857
	M 0,0
	c -11.428571428571,-10.857142857143 -20,-17.714285714286 0,-29.142857142857
	z" fill="rgb(50,127,164)" stroke-width="1" transform="rotate(290.4 0,0)"/><path d="M 0,0
	c 11.428571428571,-10.857142857143 20,-17.714285714286 0,-25.142857142857
	M 0,0
	c -11.428571428571,-10.857142857143 -20,-17.714285714286 0,-25.142857142857
	z" fill="rgb(80,157,194)" stroke-width="1" transform="rotate(305.28 0,0)"/><path d="M 0,0
	c 11.428571428571,-10.857142857143 20,-17.714285714286 0,-33.142857142857
	M 0,0
	c -11.428571428571,-10.857142857143 -20,-17.714285714286 0,-33.142857142857
	z" fill="rgb(50,127,164)" stroke-width="1" transform="rotate(340.08 0,0)"/><path d="M 0,0
	c 11.428571428571,-10.857142857143 20,-17.714285714286 0,-24
	M 0,0
	c -11.428571428571,-10.857142857143 -20,-17.714285714286 0,-24
	z" fill="rgb(80,157,194)" stroke-width="1" transform="rotate(332.64 0,0)"/><circle cx="0" cy="0" r="7.2857142857143" fill="#ffb566"/><circle cx="0" cy="0" r="2.4285714285714" fill="#ffce99"/></g><g id="fleur4"><path d="M 0,0
	c 10,-9.5 17.5,-15.5 0,-30
	M 0,0
	c -10,-9.5 -17.5,-15.5 0,-30
	z" fill="rgb(50,127,164)" stroke-width="1" transform="rotate(0 0,0)"/><path d="M 0,0
	c 10,-9.5 17.5,-15.5 0,-27.5
	M 0,0
	c -10,-9.5 -17.5,-15.5 0,-27.5
	z" fill="rgb(50,127,164)" stroke-width="1" transform="rotate(24.24 0,0)"/><path d="M 0,0
	c 10,-9.5 17.5,-15.5 0,-26
	M 0,0
	c -10,-9.5 -17.5,-15.5 0,-26
	z" fill="rgb(40,117,154)" stroke-width="1" transform="rotate(51.36 0,0)"/><path d="M 0,0
	c 10,-9.5 17.5,-15.5 0,-25
	M 0,0
	c -10,-9.5 -17.5,-15.5 0,-25
	z" fill="rgb(80,157,194)" stroke-width="1" transform="rotate(74.16 0,0)"/><path d="M 0,0
	c 10,-9.5 17.5,-15.5 0,-23
	M 0,0
	c -10,-9.5 -17.5,-15.5 0,-23
	z" fill="rgb(50,127,164)" stroke-width="1" transform="rotate(95.04 0,0)"/><path d="M 0,0
	c 10,-9.5 17.5,-15.5 0,-25
	M 0,0
	c -10,-9.5 -17.5,-15.5 0,-25
	z" fill="rgb(70,147,184)" stroke-width="1" transform="rotate(132 0,0)"/><path d="M 0,0
	c 10,-9.5 17.5,-15.5 0,-23.5
	M 0,0
	c -10,-9.5 -17.5,-15.5 0,-23.5
	z" fill="rgb(40,117,154)" stroke-width="1" transform="rotate(139.68 0,0)"/><path d="M 0,0
	c 10,-9.5 17.5,-15.5 0,-24.5
	M 0,0
	c -10,-9.5 -17.5,-15.5 0,-24.5
	z" fill="rgb(50,127,164)" stroke-width="1" transform="rotate(174.72 0,0)"/><path d="M 0,0
	c 10,-9.5 17.5,-15.5 0,-29.5
	M 0,0
	c -10,-9.5 -17.5,-15.5 0,-29.5
	z" fill="rgb(40,117,154)" stroke-width="1" transform="rotate(205.44 0,0)"/><path d="M 0,0
	c 10,-9.5 17.5,-15.5 0,-25.5
	M 0,0
	c -10,-9.5 -17.5,-15.5 0,-25.5
	z" fill="rgb(60,137,174)" stroke-width="1" transform="rotate(216 0,0)"/><path d="M 0,0
	c 10,-9.5 17.5,-15.5 0,-25.5
	M 0,0
	c -10,-9.5 -17.5,-15.5 0,-25.5
	z" fill="rgb(40,117,154)" stroke-width="1" transform="rotate(216 0,0)"/><path d="M 0,0
	c 10,-9.5 17.5,-15.5 0,-29.5
	M 0,0
	c -10,-9.5 -17.5,-15.5 0,-29.5
	z" fill="rgb(40,117,154)" stroke-width="1" transform="rotate(269.28 0,0)"/><path d="M 0,0
	c 10,-9.5 17.5,-15.5 0,-21.5
	M 0,0
	c -10,-9.5 -17.5,-15.5 0,-21.5
	z" fill="rgb(50,127,164)" stroke-width="1" transform="rotate(264.96 0,0)"/><path d="M 0,0
	c 10,-9.5 17.5,-15.5 0,-24.5
	M 0,0
	c -10,-9.5 -17.5,-15.5 0,-24.5
	z" fill="rgb(80,157,194)" stroke-width="1" transform="rotate(333.84 0,0)"/><path d="M 0,0
	c 10,-9.5 17.5,-15.5 0,-27.5
	M 0,0
	c -10,-9.5 -17.5,-15.5 0,-27.5
	z" fill="rgb(80,157,194)" stroke-width="1" transform="rotate(325.92 0,0)"/><circle cx="0" cy="0" r="6.375" fill="#ffb566"/><circle cx="0" cy="0" r="2.125" fill="#ffce99"/></g></defs><use xlink:href="#feuille1"
	x="275.5426" y="473.1335" 
	transform="rotate(-46  275.5426,473.1335)"
	fill="rgb(146,200,139)" /><path d="M 270 480 c 39.2,-46.5 33.6,-77.5 -28,-155  " stroke="rgb(112,135,50)" stroke-width="18" fill="transparent"/><use xlink:href="#fleur1"
x="242" y="325" 
fill="Pink" /><use xlink:href="#feuille4"
		x="274.3296875" y="290.690625" 
		transform="rotate(104 274.3296875,290.690625)"
		fill="rgb(96,150,89)" /><use xlink:href="#feuille1"
	x="263.4494125" y="471.824375" 
	transform="rotate(-49  263.4494125,471.824375)"
	fill="rgb(126,180,119)" /><path d="M 251 480 c 94.8,-50.8 -55.3,-177.8 79,-254  " stroke="rgb(112,135,50)" stroke-width="16" fill="transparent"/><use xlink:href="#fleur2"
x="330" y="226" 
fill="Pink" /></svg>