<?xml version="1.0" encoding="iso-8859-1"?>
<svg version="1.1" id="Capa_1" xmlns="http://www.w3.org/2000/svg" xmlns:xlink="http://www.w3.org/1999/xlink" x="0px" y="0px"
viewBox="0 0 500 500" xml:space="preserve"><defs><g id="feuille1">
<path d="M 0,0
c 59,-3 60,-2.4 0,-88
M 0,0
c -59,-3 -60,-2.4 0,-88
z" stroke="#85e085" stroke-width="0"/>
<polygon points="-3,3, 0,-61.6 3 3" stroke="rgb(140,146,183)" stroke-width="2" fill="rgb(140,146,183)"/>
</g>
<g id="feuille2">
<path d="M 0,0
c 39.333333333333,-2 40,-1.6 0,-58.666666666667
M 0,0
c -39.333333333333,-2 -40,-1.6 0,-58.666666666667
z" stroke="#85e085" stroke-width="0"/>
<polygon points="-3 3, 0,-41.066666666667, 3 3" stroke="rgb(140,146,183)" stroke-width="1" fill="rgb(140,146,183)"/>
</g><g id="feuille3">
<path d="M 0,0
c 29.5,-1.5 30,-1.2 0,-44
M 0,0
c -29.5,-1.5 -30,-1.2 0,-44
z" stroke="#85e085" stroke-width="0"/>
<polygon points="-3 3, 0,-30.8, 3 3" stroke="rgb(140,146,183)" stroke-width="1" fill="rgb(140,146,183)"/>
</g><g id="feuille4">
<path d="M 0,0
c 23.6,-1.2 24,-0.96 0,-35.2
M 0,0
c -23.6,-1.2 -24,-0.96 0,-35.2
z" stroke="#85e085" stroke-width="0"/>
<polygon points="-3 3, 0,-24.64, 3 3" stroke="rgb(140,146,183)" stroke-width="1" fill="rgb(140,146,183)"/>
</g><g id="fleur1"><path d="M 0,0
	c 39,-27 20,-27 0,-50
	M 0,0
	c -39,-27 -20,-27 0,-50
	z" fill="rgb(64,40,87)" stroke-width="1" transform="rotate(0 0,0)"/><path d="M 0,0
	c 39,-27 20,-27 0,-59
	M 0,0
	c -39,-27 -20,-27 0,-59
	z" fill="rgb(64,40,87)" stroke-width="1" transform="rotate(46.35 0,0)"/><path d="M 0,0
	c 39,-27 20,-27 0,-62
	M 0,0
	c -39,-27 -20,-27 0,-62
	z" fill="rgb(64,40,87)" stroke-width="1" transform="rotate(92.7 0,0)"/><path d="M 0,0
	c 39,-27 20,-27 0,-58
	M 0,0
	c -39,-27 -20,-27 0,-58
	z" fill="rgb(94,70,117)" stroke-width="1" transform="rotate(139.05 0,0)"/><path d="M 0,0
	c 39,-27 20,-27 0,-47
	M 0,0
	c -39,-27 -20,-27 0,-47
	z" fill="rgb(84,60,107)" stroke-width="1" transform="rotate(180 0,0)"/><path d="M 0,0
	c 39,-27 20,-27 0,-58
	M 0,0
	c -39,-27 -20,-27 0,-58
	z" fill="rgb(94,70,117)" stroke-width="1" transform="rotate(211.5 0,0)"/><path d="M 0,0
	c 39,-27 20,-27 0,-47
	M 0,0
	c -39,-27 -20,-27 0,-47
	z" fill="rgb(64,40,87)" stroke-width="1" transform="rotate(243 0,0)"/><path d="M 0,0
	c 39,-27 20,-27 0,-64
	M 0,0
	c -39,-27 -20,-27 0,-64
	z" fill="rgb(74,50,97)" stroke-width="1" transform="rotate(286.65 0,0)"/><circle cx="0" cy="0" r="10.8" fill="#ffb566"/><circle cx="0" cy="0" r="3.6" fill="#ffce99"/></g><g id="fleur2"><path d="M 0,0
	c 26,-18 13.333333333333,-18 0,-36.666666666667
	M 0,0
	c -26,-18 -13.333333333333,-18 0,-36.666666666667
	z" fill="rgb(74,50,97)" stroke-width="1" transform="rotate(0 0,0)"/><path d="M 0,0
	c 26,-18 13.333333333333,-18 0,-32
	M 0,0
	c -26,-18 -13.333333333333,-18 0,-32
	z" fill="rgb(74,50,97)" stroke-width="1" transform="rotate(64.8 0,0)"/><path d="M 0,0
	c 26,-18 13.333333333333,-18 0,-37.333333333333
	M 0,0
	c -26,-18 -13.333333333333,-18 0,-37.333333333333
	z" fill="rgb(64,40,87)" stroke-width="1" transform="rotate(148.32 0,0)"/><path d="M 0,0
	c 26,-18 13.333333333333,-18 0,-36.666666666667
	M 0,0
	c -26,-18 -13.333333333333,-18 0,-36.666666666667
	z" fill="rgb(84,60,107)" stroke-width="1" transform="rotate(198.72 0,0)"/><path d="M 0,0
	c 26,-18 13.333333333333,-18 0,-30
	M 0,0
	c -26,-18 -13.333333333333,-18 0,-30
	z" fill="rgb(84,60,107)" stroke-width="1" transform="rotate(270.72 0,0)"/><circle cx="0" cy="0" r="7.2" fill="#ffb566"/><circle cx="0" cy="0" r="2.4" fill="#ffce99"/></g><g id="fleur3"><path d="M 0,0
	c 22.285714285714,-15.428571428571 11.428571428571,-15.428571428571 0,-26.857142857143
	M 0,0
	c -22.285714285714,-15.428571428571 -11.428571428571,-15.428571428571 0,-26.857142857143
	z" fill="rgb(84,60,107)" stroke-width="1" transform="rotate(0 0,0)"/><path d="M 0,0
	c 22.285714285714,-15.428571428571 11.428571428571,-15.428571428571 0,-26.285714285714
	M 0,0
	c -22.285714285714,-15.428571428571 -11.428571428571,-15.428571428571 0,-26.285714285714
	z" fill="rgb(104,80,127)" stroke-width="1" transform="rotate(30.6 0,0)"/><path d="M 0,0
	c 22.285714285714,-15.428571428571 11.428571428571,-15.428571428571 0,-35.428571428571
	M 0,0
	c -22.285714285714,-15.428571428571 -11.428571428571,-15.428571428571 0,-35.428571428571
	z" fill="rgb(74,50,97)" stroke-width="1" transform="rotate(61.2 0,0)"/><path d="M 0,0
	c 22.285714285714,-15.428571428571 11.428571428571,-15.428571428571 0,-27.428571428571
	M 0,0
	c -22.285714285714,-15.428571428571 -11.428571428571,-15.428571428571 0,-27.428571428571
	z" fill="rgb(104,80,127)" stroke-width="1" transform="rotate(95.4 0,0)"/><path d="M 0,0
	c 22.285714285714,-15.428571428571 11.428571428571,-15.428571428571 0,-25.714285714286
	M 0,0
	c -22.285714285714,-15.428571428571 -11.428571428571,-15.428571428571 0,-25.714285714286
	z" fill="rgb(64,40,87)" stroke-width="1" transform="rotate(115.2 0,0)"/><path d="M 0,0
	c 22.285714285714,-15.428571428571 11.428571428571,-15.428571428571 0,-30.285714285714
	M 0,0
	c -22.285714285714,-15.428571428571 -11.428571428571,-15.428571428571 0,-30.285714285714
	z" fill="rgb(74,50,97)" stroke-width="1" transform="rotate(157.5 0,0)"/><path d="M 0,0
	c 22.285714285714,-15.428571428571 11.428571428571,-15.428571428571 0,-36.571428571429
	M 0,0
	c -22.285714285714,-15.428571428571 -11.428571428571,-15.428571428571 0,-36.571428571429
	z" fill="rgb(104,80,127)" stroke-width="1" transform="rotate(190.8 0,0)"/><path d="M 0,0
	c 22.285714285714,-15.428571428571 11.428571428571,-15.428571428571 0,-34.285714285714
	M 0,0
	c -22.285714285714,-15.428571428571 -11.428571428571,-15.428571428571 0,-34.285714285714
	z" fill="rgb(104,80,127)" stroke-width="1" transform="rotate(207.9 0,0)"/><path d="M 0,0
	c 22.285714285714,-15.428571428571 11.428571428571,-15.428571428571 0,-33.714285714286
	M 0,0
	c -22.285714285714,-15.428571428571 -11.428571428571,-15.428571428571 0,-33.714285714286
	z" fill="rgb(84,60,107)" stroke-width="1" transform="rotate(254.4 0,0)"/><path d="M 0,0
	c 22.285714285714,-15.428571428571 11.428571428571,-15.428571428571 0,-31.428571428571
	M 0,0
	c -22.285714285714,-15.428571428571 -11.428571428571,-15.428571428571 0,-31.428571428571
	z" fill="rgb(104,80,127)" stroke-width="1" transform="rotate(248.4 0,0)"/><path d="M 0,0
	c 22.285714285714,-15.428571428571 11.428571428571,-15.428571428571 0,-26.285714285714
	M 0,0
	c -22.285714285714,-15.428571428571 -11.428571428571,-15.428571428571 0,-26.285714285714
	z" fill="rgb(104,80,127)" stroke-width="1" transform="rotate(300 0,0)"/><path d="M 0,0
	c 22.285714285714,-15.428571428571 11.428571428571,-15.428571428571 0,-25.142857142857
	M 0,0
	c -22.285714285714,-15.428571428571 -11.428571428571,-15.428571428571 0,-25.142857142857
	z" fill="rgb(64,40,87)" stroke-width="1" transform="rotate(336.6 0,0)"/><circle cx="0" cy="0" r="6.1714285714286" fill="#ffb566"/><circle cx="0" cy="0" r="2.0571428571429" fill="#ffce99"/></g><g id="fleur4"><path d="M 0,0
	c 19.5,-13.5 10,-13.5 0,-26
	M 0,0
	c -19.5,-13.5 -10,-13.5 0,-26
	z" fill="rgb(104,80,127)" stroke-width="1" transform="rotate(0 0,0)"/><path d="M 0,0
	c 19.5,-13.5 10,-13.5 0,-25
	M 0,0
	c -19.5,-13.5 -10,-13.5 0,-25
	z" fill="rgb(104,80,127)" stroke-width="1" transform="rotate(27.257142857143 0,0)"/><path d="M 0,0
	c 19.5,-13.5 10,-13.5 0,-31.5
	M 0,0
	c -19.5,-13.5 -10,-13.5 0,-31.5
	z" fill="rgb(94,70,117)" stroke-width="1" transform="rotate(47.314285714286 0,0)"/><path d="M 0,0
	c 19.5,-13.5 10,-13.5 0,-26
	M 0,0
	c -19.5,-13.5 -10,-13.5 0,-26
	z" fill="rgb(104,80,127)" stroke-width="1" transform="rotate(81.771428571429 0,0)"/><path d="M 0,0
	c 19.5,-13.5 10,-13.5 0,-30
	M 0,0
	c -19.5,-13.5 -10,-13.5 0,-30
	z" fill="rgb(64,40,87)" stroke-width="1" transform="rotate(103.88571428571 0,0)"/><path d="M 0,0
	c 19.5,-13.5 10,-13.5 0,-23.5
	M 0,0
	c -19.5,-13.5 -10,-13.5 0,-23.5
	z" fill="rgb(94,70,117)" stroke-width="1" transform="rotate(141.42857142857 0,0)"/><path d="M 0,0
	c 19.5,-13.5 10,-13.5 0,-23
	M 0,0
	c -19.5,-13.5 -10,-13.5 0,-23
	z" fill="rgb(104,80,127)" stroke-width="1" transform="rotate(146.57142857143 0,0)"/><path d="M 0,0
	c 19.5,-13.5 10,-13.5 0,-27
	M 0,0
	c -19.5,-13.5 -10,-13.5 0,-27
	z" fill="rgb(64,40,87)" stroke-width="1" transform="rotate(180 0,0)"/><path d="M 0,0
	c 19.5,-13.5 10,-13.5 0,-24.5
	M 0,0
	c -19.5,-13.5 -10,-13.5 0,-24.5
	z" fill="rgb(64,40,87)" stroke-width="1" transform="rotate(185.14285714286 0,0)"/><path d="M 0,0
	c 19.5,-13.5 10,-13.5 0,-23.5
	M 0,0
	c -19.5,-13.5 -10,-13.5 0,-23.5
	z" fill="rgb(104,80,127)" stroke-width="1" transform="rotate(226.8 0,0)"/><path d="M 0,0
	c 19.5,-13.5 10,-13.5 0,-24
	M 0,0
	c -19.5,-13.5 -10,-13.5 0,-24
	z" fill="rgb(94,70,117)" stroke-width="1" transform="rotate(231.42857142857 0,0)"/><path d="M 0,0
	c 19.5,-13.5 10,-13.5 0,-31.5
	M 0,0
	c -19.5,-13.5 -10,-13.5 0,-31.5
	z" fill="rgb(64,40,87)" stroke-width="1" transform="rotate(263.05714285714 0,0)"/><path d="M 0,0
	c 19.5,-13.5 10,-13.5 0,-28
	M 0,0
	c -19.5,-13.5 -10,-13.5 0,-28
	z" fill="rgb(94,70,117)" stroke-width="1" transform="rotate(302.4 0,0)"/><path d="M 0,0
	c 19.5,-13.5 10,-13.5 0,-27
	M 0,0
	c -19.5,-13.5 -10,-13.5 0,-27
	z" fill="rgb(104,80,127)" stroke-width="1" transform="rotate(324.25714285714 0,0)"/><circle cx="0" cy="0" r="5.4" fill="#ffb566"/><circle cx="0" cy="0" r="1.8" fill="#ffce99"/></g></defs><use xlink:href="#feuille4"
		x="212.4684" y="376.166775" 
		transform="rotate(-87.9 212.4684,376.166775)"
		fill="rgb(198,225,121)" /><use xlink:href="#feuille1"
	x="215.6316" y="468.064975" 
	transform="rotate(60  215.6316,468.064975)"
	fill="rgb(148,175,71)" /><use xlink:href="#feuille1"
	x="215.6316" y="468.064975" 
	transform="rotate(-47  215.6316,468.064975)"
	fill="rgb(188,215,111)" /><use xlink:href="#feuille1"
	x="215.6316" y="468.064975" 
	transform="rotate(46  215.6316,468.064975)"
	fill="rgb(148,175,71)" /><path d="M 216 480 c -2.4,-79.6 -6,-159.2 -6,-199  " stroke="rgb(140,146,183)" stroke-width="18" fill="transparent"/><use xlink:href="#fleur1"
x="210" y="281" 
fill="Pink" /></svg>