<?xml version="1.0" encoding="iso-8859-1"?>
<svg version="1.1" id="Capa_1" xmlns="http://www.w3.org/2000/svg" xmlns:xlink="http://www.w3.org/1999/xlink" x="0px" y="0px"
viewBox="0 0 500 500" xml:space="preserve"><defs><g id="feuille1">
<path d="M 0,0
c 64,-42 24,-33.6 0,-120
M 0,0
c -64,-42 -24,-33.6 0,-120
z" stroke="#85e085" stroke-width="0"/>
<polygon points="-3,3, 0,-84 3 3" stroke="rgb(168,196,79)" stroke-width="2" fill="rgb(168,196,79)"/>
</g>
<g id="feuille2">
<path d="M 0,0
c 42.666666666667,-28 16,-22.4 0,-80
M 0,0
c -42.666666666667,-28 -16,-22.4 0,-80
z" stroke="#85e085" stroke-width="0"/>
<polygon points="-3 3, 0,-56, 3 3" stroke="rgb(168,196,79)" stroke-width="1" fill="rgb(168,196,79)"/>
</g><g id="feuille3">
<path d="M 0,0
c 32,-21 12,-16.8 0,-60
M 0,0
c -32,-21 -12,-16.8 0,-60
z" stroke="#85e085" stroke-width="0"/>
<polygon points="-3 3, 0,-42, 3 3" stroke="rgb(168,196,79)" stroke-width="1" fill="rgb(168,196,79)"/>
</g><g id="feuille4">
<path d="M 0,0
c 25.6,-16.8 9.6,-13.44 0,-48
M 0,0
c -25.6,-16.8 -9.6,-13.44 0,-48
z" stroke="#85e085" stroke-width="0"/>
<polygon points="-3 3, 0,-33.6, 3 3" stroke="rgb(168,196,79)" stroke-width="1" fill="rgb(168,196,79)"/>
</g><g id="fleur1"><path d="M 0,0
	c 42,-67 42,-53.6 0,-92
	M 0,0
	c -42,-67 -42,-53.6 0,-92
	z" fill="rgb(60,177,104)" stroke-width="1" transform="rotate(0 0,0)"/><path d="M 0,0
	c 42,-67 42,-53.6 0,-100
	M 0,0
	c -42,-67 -42,-53.6 0,-100
	z" fill="rgb(60,177,104)" stroke-width="1" transform="rotate(35.345454545455 0,0)"/><path d="M 0,0
	c 42,-67 42,-53.6 0,-96
	M 0,0
	c -42,-67 -42,-53.6 0,-96
	z" fill="rgb(70,187,114)" stroke-width="1" transform="rotate(60.218181818182 0,0)"/><path d="M 0,0
	c 42,-67 42,-53.6 0,-103
	M 0,0
	c -42,-67 -42,-53.6 0,-103
	z" fill="rgb(70,187,114)" stroke-width="1" transform="rotate(108 0,0)"/><path d="M 0,0
	c 42,-67 42,-53.6 0,-101
	M 0,0
	c -42,-67 -42,-53.6 0,-101
	z" fill="rgb(70,187,114)" stroke-width="1" transform="rotate(128.29090909091 0,0)"/><path d="M 0,0
	c 42,-67 42,-53.6 0,-95
	M 0,0
	c -42,-67 -42,-53.6 0,-95
	z" fill="rgb(60,177,104)" stroke-width="1" transform="rotate(148.90909090909 0,0)"/><path d="M 0,0
	c 42,-67 42,-53.6 0,-93
	M 0,0
	c -42,-67 -42,-53.6 0,-93
	z" fill="rgb(60,177,104)" stroke-width="1" transform="rotate(202.25454545455 0,0)"/><path d="M 0,0
	c 42,-67 42,-53.6 0,-109
	M 0,0
	c -42,-67 -42,-53.6 0,-109
	z" fill="rgb(80,197,124)" stroke-width="1" transform="rotate(219.92727272727 0,0)"/><path d="M 0,0
	c 42,-67 42,-53.6 0,-96
	M 0,0
	c -42,-67 -42,-53.6 0,-96
	z" fill="rgb(60,177,104)" stroke-width="1" transform="rotate(259.2 0,0)"/><path d="M 0,0
	c 42,-67 42,-53.6 0,-89
	M 0,0
	c -42,-67 -42,-53.6 0,-89
	z" fill="rgb(80,197,124)" stroke-width="1" transform="rotate(312.21818181818 0,0)"/><path d="M 0,0
	c 42,-67 42,-53.6 0,-93
	M 0,0
	c -42,-67 -42,-53.6 0,-93
	z" fill="rgb(70,187,114)" stroke-width="1" transform="rotate(310.90909090909 0,0)"/><circle cx="0" cy="0" r="19.8" fill="#ffb566"/><circle cx="0" cy="0" r="6.6" fill="#ffce99"/></g><g id="fleur2"><path d="M 0,0
	c 28,-44.666666666667 28,-35.733333333333 0,-60.666666666667
	M 0,0
	c -28,-44.666666666667 -28,-35.733333333333 0,-60.666666666667
	z" fill="rgb(50,167,94)" stroke-width="1" transform="rotate(0 0,0)"/><path d="M 0,0
	c 28,-44.666666666667 28,-35.733333333333 0,-67.333333333333
	M 0,0
	c -28,-44.666666666667 -28,-35.733333333333 0,-67.333333333333
	z" fill="rgb(70,187,114)" stroke-width="1" transform="rotate(23.914285714286 0,0)"/><path d="M 0,0
	c 28,-44.666666666667 28,-35.733333333333 0,-69.333333333333
	M 0,0
	c -28,-44.666666666667 -28,-35.733333333333 0,-69.333333333333
	z" fill="rgb(80,197,124)" stroke-width="1" transform="rotate(47.828571428571 0,0)"/><path d="M 0,0
	c 28,-44.666666666667 28,-35.733333333333 0,-72.666666666667
	M 0,0
	c -28,-44.666666666667 -28,-35.733333333333 0,-72.666666666667
	z" fill="rgb(60,177,104)" stroke-width="1" transform="rotate(79.457142857143 0,0)"/><path d="M 0,0
	c 28,-44.666666666667 28,-35.733333333333 0,-68.666666666667
	M 0,0
	c -28,-44.666666666667 -28,-35.733333333333 0,-68.666666666667
	z" fill="rgb(80,197,124)" stroke-width="1" transform="rotate(101.82857142857 0,0)"/><path d="M 0,0
	c 28,-44.666666666667 28,-35.733333333333 0,-72
	M 0,0
	c -28,-44.666666666667 -28,-35.733333333333 0,-72
	z" fill="rgb(40,157,84)" stroke-width="1" transform="rotate(141.42857142857 0,0)"/><path d="M 0,0
	c 28,-44.666666666667 28,-35.733333333333 0,-60.666666666667
	M 0,0
	c -28,-44.666666666667 -28,-35.733333333333 0,-60.666666666667
	z" fill="rgb(50,167,94)" stroke-width="1" transform="rotate(146.57142857143 0,0)"/><path d="M 0,0
	c 28,-44.666666666667 28,-35.733333333333 0,-62.666666666667
	M 0,0
	c -28,-44.666666666667 -28,-35.733333333333 0,-62.666666666667
	z" fill="rgb(80,197,124)" stroke-width="1" transform="rotate(169.2 0,0)"/><path d="M 0,0
	c 28,-44.666666666667 28,-35.733333333333 0,-68
	M 0,0
	c -28,-44.666666666667 -28,-35.733333333333 0,-68
	z" fill="rgb(70,187,114)" stroke-width="1" transform="rotate(213.94285714286 0,0)"/><path d="M 0,0
	c 28,-44.666666666667 28,-35.733333333333 0,-72
	M 0,0
	c -28,-44.666666666667 -28,-35.733333333333 0,-72
	z" fill="rgb(80,197,124)" stroke-width="1" transform="rotate(252.25714285714 0,0)"/><path d="M 0,0
	c 28,-44.666666666667 28,-35.733333333333 0,-70.666666666667
	M 0,0
	c -28,-44.666666666667 -28,-35.733333333333 0,-70.666666666667
	z" fill="rgb(50,167,94)" stroke-width="1" transform="rotate(259.71428571429 0,0)"/><path d="M 0,0
	c 28,-44.666666666667 28,-35.733333333333 0,-66.666666666667
	M 0,0
	c -28,-44.666666666667 -28,-35.733333333333 0,-66.666666666667
	z" fill="rgb(70,187,114)" stroke-width="1" transform="rotate(265.88571428571 0,0)"/><path d="M 0,0
	c 28,-44.666666666667 28,-35.733333333333 0,-68
	M 0,0
	c -28,-44.666666666667 -28,-35.733333333333 0,-68
	z" fill="rgb(70,187,114)" stroke-width="1" transform="rotate(299.31428571429 0,0)"/><path d="M 0,0
	c 28,-44.666666666667 28,-35.733333333333 0,-66
	M 0,0
	c -28,-44.666666666667 -28,-35.733333333333 0,-66
	z" fill="rgb(40,157,84)" stroke-width="1" transform="rotate(361.02857142857 0,0)"/><circle cx="0" cy="0" r="13.2" fill="#ffb566"/><circle cx="0" cy="0" r="4.4" fill="#ffce99"/></g><g id="fleur3"><path d="M 0,0
	c 24,-38.285714285714 24,-30.628571428571 0,-61.714285714286
	M 0,0
	c -24,-38.285714285714 -24,-30.628571428571 0,-61.714285714286
	z" fill="rgb(50,167,94)" stroke-width="1" transform="rotate(0 0,0)"/><path d="M 0,0
	c 24,-38.285714285714 24,-30.628571428571 0,-51.428571428571
	M 0,0
	c -24,-38.285714285714 -24,-30.628571428571 0,-51.428571428571
	z" fill="rgb(60,177,104)" stroke-width="1" transform="rotate(55.542857142857 0,0)"/><path d="M 0,0
	c 24,-38.285714285714 24,-30.628571428571 0,-54.857142857143
	M 0,0
	c -24,-38.285714285714 -24,-30.628571428571 0,-54.857142857143
	z" fill="rgb(50,167,94)" stroke-width="1" transform="rotate(104.91428571429 0,0)"/><path d="M 0,0
	c 24,-38.285714285714 24,-30.628571428571 0,-56
	M 0,0
	c -24,-38.285714285714 -24,-30.628571428571 0,-56
	z" fill="rgb(40,157,84)" stroke-width="1" transform="rotate(169.71428571429 0,0)"/><path d="M 0,0
	c 24,-38.285714285714 24,-30.628571428571 0,-52.571428571429
	M 0,0
	c -24,-38.285714285714 -24,-30.628571428571 0,-52.571428571429
	z" fill="rgb(40,157,84)" stroke-width="1" transform="rotate(216 0,0)"/><path d="M 0,0
	c 24,-38.285714285714 24,-30.628571428571 0,-57.142857142857
	M 0,0
	c -24,-38.285714285714 -24,-30.628571428571 0,-57.142857142857
	z" fill="rgb(70,187,114)" stroke-width="1" transform="rotate(236.57142857143 0,0)"/><path d="M 0,0
	c 24,-38.285714285714 24,-30.628571428571 0,-60
	M 0,0
	c -24,-38.285714285714 -24,-30.628571428571 0,-60
	z" fill="rgb(40,157,84)" stroke-width="1" transform="rotate(327.08571428571 0,0)"/><circle cx="0" cy="0" r="11.314285714286" fill="#ffb566"/><circle cx="0" cy="0" r="3.7714285714286" fill="#ffce99"/></g><g id="fleur4"><path d="M 0,0
	c 21,-33.5 21,-26.8 0,-49
	M 0,0
	c -21,-33.5 -21,-26.8 0,-49
	z" fill="rgb(60,177,104)" stroke-width="1" transform="rotate(0 0,0)"/><path d="M 0,0
	c 21,-33.5 21,-26.8 0,-52.5
	M 0,0
	c -21,-33.5 -21,-26.8 0,-52.5
	z" fill="rgb(40,157,84)" stroke-width="1" transform="rotate(29.1 0,0)"/><path d="M 0,0
	c 21,-33.5 21,-26.8 0,-52
	M 0,0
	c -21,-33.5 -21,-26.8 0,-52
	z" fill="rgb(40,157,84)" stroke-width="1" transform="rotate(61.8 0,0)"/><path d="M 0,0
	c 21,-33.5 21,-26.8 0,-54
	M 0,0
	c -21,-33.5 -21,-26.8 0,-54
	z" fill="rgb(80,197,124)" stroke-width="1" transform="rotate(93.6 0,0)"/><path d="M 0,0
	c 21,-33.5 21,-26.8 0,-49
	M 0,0
	c -21,-33.5 -21,-26.8 0,-49
	z" fill="rgb(60,177,104)" stroke-width="1" transform="rotate(114 0,0)"/><path d="M 0,0
	c 21,-33.5 21,-26.8 0,-53.5
	M 0,0
	c -21,-33.5 -21,-26.8 0,-53.5
	z" fill="rgb(40,157,84)" stroke-width="1" transform="rotate(135 0,0)"/><path d="M 0,0
	c 21,-33.5 21,-26.8 0,-53
	M 0,0
	c -21,-33.5 -21,-26.8 0,-53
	z" fill="rgb(60,177,104)" stroke-width="1" transform="rotate(169.2 0,0)"/><path d="M 0,0
	c 21,-33.5 21,-26.8 0,-51.5
	M 0,0
	c -21,-33.5 -21,-26.8 0,-51.5
	z" fill="rgb(70,187,114)" stroke-width="1" transform="rotate(214.2 0,0)"/><path d="M 0,0
	c 21,-33.5 21,-26.8 0,-52
	M 0,0
	c -21,-33.5 -21,-26.8 0,-52
	z" fill="rgb(40,157,84)" stroke-width="1" transform="rotate(218.4 0,0)"/><path d="M 0,0
	c 21,-33.5 21,-26.8 0,-51.5
	M 0,0
	c -21,-33.5 -21,-26.8 0,-51.5
	z" fill="rgb(80,197,124)" stroke-width="1" transform="rotate(248.4 0,0)"/><path d="M 0,0
	c 21,-33.5 21,-26.8 0,-52
	M 0,0
	c -21,-33.5 -21,-26.8 0,-52
	z" fill="rgb(50,167,94)" stroke-width="1" transform="rotate(282 0,0)"/><path d="M 0,0
	c 21,-33.5 21,-26.8 0,-52
	M 0,0
	c -21,-33.5 -21,-26.8 0,-52
	z" fill="rgb(80,197,124)" stroke-width="1" transform="rotate(356.4 0,0)"/><circle cx="0" cy="0" r="9.9" fill="#ffb566"/><circle cx="0" cy="0" r="3.3" fill="#ffce99"/></g></defs><use xlink:href="#feuille4"
		x="249.87" y="358.459" 
		transform="rotate(-101.3 249.87,358.459)"
		fill="rgb(188,197,106)" /><use xlink:href="#feuille1"
	x="265.62275" y="458.550875" 
	transform="rotate(50  265.62275,458.550875)"
	fill="rgb(178,187,96)" /><use xlink:href="#feuille1"
	x="265.62275" y="458.550875" 
	transform="rotate(51  265.62275,458.550875)"
	fill="rgb(178,187,96)" /><path d="M 268 480 c -17.266666666667,-155.2 -4.9333333333333,-58.2 -37,-194  " stroke="rgb(168,196,79)" stroke-width="18" fill="transparent"/><use xlink:href="#fleur1"
x="231" y="286" 
fill="Pink" /><use xlink:href="#feuille1"
	x="257.0243" y="469.653125" 
	transform="rotate(43  257.0243,469.653125)"
	fill="rgb(138,147,56)" /><use xlink:href="#feuille1"
	x="257.0243" y="469.653125" 
	transform="rotate(-32  257.0243,469.653125)"
	fill="rgb(138,147,56)" /><path d="M 260 480 c -22.4,-75 7.4666666666667,-25 28,-125  " stroke="rgb(168,196,79)" stroke-width="16" fill="transparent"/><use xlink:href="#fleur2"
x="288" y="355" 
fill="Pink" /></svg>