<?xml version="1.0" encoding="iso-8859-1"?>
<svg version="1.1" id="Capa_1" xmlns="http://www.w3.org/2000/svg" xmlns:xlink="http://www.w3.org/1999/xlink" x="0px" y="0px"
viewBox="0 0 500 500" xml:space="preserve"><defs><g id="feuille1">
<path d="M 0,0
c 29,-76 35,-79 0,-125
M 0,0
c -29,-76 -35,-79 0,-125
z" stroke="#85e085" stroke-width="0"/>
<polygon points="-3,3, 0,-87.5 3 3" stroke="rgb(152,192,95)" stroke-width="2" fill="rgb(152,192,95)"/>
</g>
<g id="feuille2">
<path d="M 0,0
c 19.333333333333,-50.666666666667 23.333333333333,-52.666666666667 0,-83.333333333333
M 0,0
c -19.333333333333,-50.666666666667 -23.333333333333,-52.666666666667 0,-83.333333333333
z" stroke="#85e085" stroke-width="0"/>
<polygon points="-3 3, 0,-58.333333333333, 3 3" stroke="rgb(152,192,95)" stroke-width="1" fill="rgb(152,192,95)"/>
</g><g id="feuille3">
<path d="M 0,0
c 14.5,-38 17.5,-39.5 0,-62.5
M 0,0
c -14.5,-38 -17.5,-39.5 0,-62.5
z" stroke="#85e085" stroke-width="0"/>
<polygon points="-3 3, 0,-43.75, 3 3" stroke="rgb(152,192,95)" stroke-width="1" fill="rgb(152,192,95)"/>
</g><g id="feuille4">
<path d="M 0,0
c 11.6,-30.4 14,-31.6 0,-50
M 0,0
c -11.6,-30.4 -14,-31.6 0,-50
z" stroke="#85e085" stroke-width="0"/>
<polygon points="-3 3, 0,-35, 3 3" stroke="rgb(152,192,95)" stroke-width="1" fill="rgb(152,192,95)"/>
</g><g id="fleur1"><path d="M 0,0
	c 20,-82 58,-65.6 0,-62
	M 0,0
	c -20,-82 -58,-65.6 0,-62
	z" fill="rgb(153,62,110)" stroke-width="1" transform="rotate(0 0,0)"/><path d="M 0,0
	c 20,-82 58,-65.6 0,-51
	M 0,0
	c -20,-82 -58,-65.6 0,-51
	z" fill="rgb(183,92,140)" stroke-width="1" transform="rotate(38.88 0,0)"/><path d="M 0,0
	c 20,-82 58,-65.6 0,-59
	M 0,0
	c -20,-82 -58,-65.6 0,-59
	z" fill="rgb(153,62,110)" stroke-width="1" transform="rotate(74.16 0,0)"/><path d="M 0,0
	c 20,-82 58,-65.6 0,-46
	M 0,0
	c -20,-82 -58,-65.6 0,-46
	z" fill="rgb(153,62,110)" stroke-width="1" transform="rotate(118.8 0,0)"/><path d="M 0,0
	c 20,-82 58,-65.6 0,-50
	M 0,0
	c -20,-82 -58,-65.6 0,-50
	z" fill="rgb(143,52,100)" stroke-width="1" transform="rotate(154.08 0,0)"/><path d="M 0,0
	c 20,-82 58,-65.6 0,-52
	M 0,0
	c -20,-82 -58,-65.6 0,-52
	z" fill="rgb(163,72,120)" stroke-width="1" transform="rotate(198 0,0)"/><path d="M 0,0
	c 20,-82 58,-65.6 0,-60
	M 0,0
	c -20,-82 -58,-65.6 0,-60
	z" fill="rgb(163,72,120)" stroke-width="1" transform="rotate(198.72 0,0)"/><path d="M 0,0
	c 20,-82 58,-65.6 0,-46
	M 0,0
	c -20,-82 -58,-65.6 0,-46
	z" fill="rgb(173,82,130)" stroke-width="1" transform="rotate(277.2 0,0)"/><path d="M 0,0
	c 20,-82 58,-65.6 0,-59
	M 0,0
	c -20,-82 -58,-65.6 0,-59
	z" fill="rgb(173,82,130)" stroke-width="1" transform="rotate(313.92 0,0)"/><path d="M 0,0
	c 20,-82 58,-65.6 0,-56
	M 0,0
	c -20,-82 -58,-65.6 0,-56
	z" fill="rgb(163,72,120)" stroke-width="1" transform="rotate(340.2 0,0)"/><circle cx="0" cy="0" r="9.1666666666667" fill="#ffb566"/><circle cx="0" cy="0" r="3.0555555555556" fill="#ffce99"/></g><g id="fleur2"><path d="M 0,0
	c 13.333333333333,-54.666666666667 38.666666666667,-43.733333333333 0,-36
	M 0,0
	c -13.333333333333,-54.666666666667 -38.666666666667,-43.733333333333 0,-36
	z" fill="rgb(163,72,120)" stroke-width="1" transform="rotate(0 0,0)"/><path d="M 0,0
	c 13.333333333333,-54.666666666667 38.666666666667,-43.733333333333 0,-30.666666666667
	M 0,0
	c -13.333333333333,-54.666666666667 -38.666666666667,-43.733333333333 0,-30.666666666667
	z" fill="rgb(173,82,130)" stroke-width="1" transform="rotate(25.753846153846 0,0)"/><path d="M 0,0
	c 13.333333333333,-54.666666666667 38.666666666667,-43.733333333333 0,-38
	M 0,0
	c -13.333333333333,-54.666666666667 -38.666666666667,-43.733333333333 0,-38
	z" fill="rgb(183,92,140)" stroke-width="1" transform="rotate(59.261538461538 0,0)"/><path d="M 0,0
	c 13.333333333333,-54.666666666667 38.666666666667,-43.733333333333 0,-30
	M 0,0
	c -13.333333333333,-54.666666666667 -38.666666666667,-43.733333333333 0,-30
	z" fill="rgb(163,72,120)" stroke-width="1" transform="rotate(81.415384615385 0,0)"/><path d="M 0,0
	c 13.333333333333,-54.666666666667 38.666666666667,-43.733333333333 0,-38.666666666667
	M 0,0
	c -13.333333333333,-54.666666666667 -38.666666666667,-43.733333333333 0,-38.666666666667
	z" fill="rgb(173,82,130)" stroke-width="1" transform="rotate(104.12307692308 0,0)"/><path d="M 0,0
	c 13.333333333333,-54.666666666667 38.666666666667,-43.733333333333 0,-38.666666666667
	M 0,0
	c -13.333333333333,-54.666666666667 -38.666666666667,-43.733333333333 0,-38.666666666667
	z" fill="rgb(143,52,100)" stroke-width="1" transform="rotate(137.07692307692 0,0)"/><path d="M 0,0
	c 13.333333333333,-54.666666666667 38.666666666667,-43.733333333333 0,-31.333333333333
	M 0,0
	c -13.333333333333,-54.666666666667 -38.666666666667,-43.733333333333 0,-31.333333333333
	z" fill="rgb(143,52,100)" stroke-width="1" transform="rotate(169.47692307692 0,0)"/><path d="M 0,0
	c 13.333333333333,-54.666666666667 38.666666666667,-43.733333333333 0,-40.666666666667
	M 0,0
	c -13.333333333333,-54.666666666667 -38.666666666667,-43.733333333333 0,-40.666666666667
	z" fill="rgb(173,82,130)" stroke-width="1" transform="rotate(213.23076923077 0,0)"/><path d="M 0,0
	c 13.333333333333,-54.666666666667 38.666666666667,-43.733333333333 0,-32.666666666667
	M 0,0
	c -13.333333333333,-54.666666666667 -38.666666666667,-43.733333333333 0,-32.666666666667
	z" fill="rgb(183,92,140)" stroke-width="1" transform="rotate(243.69230769231 0,0)"/><path d="M 0,0
	c 13.333333333333,-54.666666666667 38.666666666667,-43.733333333333 0,-38.666666666667
	M 0,0
	c -13.333333333333,-54.666666666667 -38.666666666667,-43.733333333333 0,-38.666666666667
	z" fill="rgb(183,92,140)" stroke-width="1" transform="rotate(261.69230769231 0,0)"/><path d="M 0,0
	c 13.333333333333,-54.666666666667 38.666666666667,-43.733333333333 0,-35.333333333333
	M 0,0
	c -13.333333333333,-54.666666666667 -38.666666666667,-43.733333333333 0,-35.333333333333
	z" fill="rgb(183,92,140)" stroke-width="1" transform="rotate(260.30769230769 0,0)"/><path d="M 0,0
	c 13.333333333333,-54.666666666667 38.666666666667,-43.733333333333 0,-31.333333333333
	M 0,0
	c -13.333333333333,-54.666666666667 -38.666666666667,-43.733333333333 0,-31.333333333333
	z" fill="rgb(163,72,120)" stroke-width="1" transform="rotate(313.75384615385 0,0)"/><path d="M 0,0
	c 13.333333333333,-54.666666666667 38.666666666667,-43.733333333333 0,-30
	M 0,0
	c -13.333333333333,-54.666666666667 -38.666666666667,-43.733333333333 0,-30
	z" fill="rgb(183,92,140)" stroke-width="1" transform="rotate(345.6 0,0)"/><circle cx="0" cy="0" r="6.1111111111111" fill="#ffb566"/><circle cx="0" cy="0" r="2.037037037037" fill="#ffce99"/></g><g id="fleur3"><path d="M 0,0
	c 11.428571428571,-46.857142857143 33.142857142857,-37.485714285714 0,-34.857142857143
	M 0,0
	c -11.428571428571,-46.857142857143 -33.142857142857,-37.485714285714 0,-34.857142857143
	z" fill="rgb(163,72,120)" stroke-width="1" transform="rotate(0 0,0)"/><path d="M 0,0
	c 11.428571428571,-46.857142857143 33.142857142857,-37.485714285714 0,-36
	M 0,0
	c -11.428571428571,-46.857142857143 -33.142857142857,-37.485714285714 0,-36
	z" fill="rgb(173,82,130)" stroke-width="1" transform="rotate(52.971428571429 0,0)"/><path d="M 0,0
	c 11.428571428571,-46.857142857143 33.142857142857,-37.485714285714 0,-27.428571428571
	M 0,0
	c -11.428571428571,-46.857142857143 -33.142857142857,-37.485714285714 0,-27.428571428571
	z" fill="rgb(143,52,100)" stroke-width="1" transform="rotate(106.97142857143 0,0)"/><path d="M 0,0
	c 11.428571428571,-46.857142857143 33.142857142857,-37.485714285714 0,-31.428571428571
	M 0,0
	c -11.428571428571,-46.857142857143 -33.142857142857,-37.485714285714 0,-31.428571428571
	z" fill="rgb(173,82,130)" stroke-width="1" transform="rotate(152.74285714286 0,0)"/><path d="M 0,0
	c 11.428571428571,-46.857142857143 33.142857142857,-37.485714285714 0,-32
	M 0,0
	c -11.428571428571,-46.857142857143 -33.142857142857,-37.485714285714 0,-32
	z" fill="rgb(173,82,130)" stroke-width="1" transform="rotate(222.17142857143 0,0)"/><path d="M 0,0
	c 11.428571428571,-46.857142857143 33.142857142857,-37.485714285714 0,-28.571428571429
	M 0,0
	c -11.428571428571,-46.857142857143 -33.142857142857,-37.485714285714 0,-28.571428571429
	z" fill="rgb(173,82,130)" stroke-width="1" transform="rotate(236.57142857143 0,0)"/><path d="M 0,0
	c 11.428571428571,-46.857142857143 33.142857142857,-37.485714285714 0,-37.142857142857
	M 0,0
	c -11.428571428571,-46.857142857143 -33.142857142857,-37.485714285714 0,-37.142857142857
	z" fill="rgb(153,62,110)" stroke-width="1" transform="rotate(305.48571428571 0,0)"/><circle cx="0" cy="0" r="5.2380952380952" fill="#ffb566"/><circle cx="0" cy="0" r="1.7460317460317" fill="#ffce99"/></g><g id="fleur4"><path d="M 0,0
	c 10,-41 29,-32.8 0,-31
	M 0,0
	c -10,-41 -29,-32.8 0,-31
	z" fill="rgb(153,62,110)" stroke-width="1" transform="rotate(0 0,0)"/><path d="M 0,0
	c 10,-41 29,-32.8 0,-22.5
	M 0,0
	c -10,-41 -29,-32.8 0,-22.5
	z" fill="rgb(153,62,110)" stroke-width="1" transform="rotate(29.454545454545 0,0)"/><path d="M 0,0
	c 10,-41 29,-32.8 0,-30
	M 0,0
	c -10,-41 -29,-32.8 0,-30
	z" fill="rgb(143,52,100)" stroke-width="1" transform="rotate(64.145454545455 0,0)"/><path d="M 0,0
	c 10,-41 29,-32.8 0,-23
	M 0,0
	c -10,-41 -29,-32.8 0,-23
	z" fill="rgb(183,92,140)" stroke-width="1" transform="rotate(101.12727272727 0,0)"/><path d="M 0,0
	c 10,-41 29,-32.8 0,-25
	M 0,0
	c -10,-41 -29,-32.8 0,-25
	z" fill="rgb(173,82,130)" stroke-width="1" transform="rotate(119.12727272727 0,0)"/><path d="M 0,0
	c 10,-41 29,-32.8 0,-26.5
	M 0,0
	c -10,-41 -29,-32.8 0,-26.5
	z" fill="rgb(173,82,130)" stroke-width="1" transform="rotate(173.45454545455 0,0)"/><path d="M 0,0
	c 10,-41 29,-32.8 0,-24.5
	M 0,0
	c -10,-41 -29,-32.8 0,-24.5
	z" fill="rgb(143,52,100)" stroke-width="1" transform="rotate(178.69090909091 0,0)"/><path d="M 0,0
	c 10,-41 29,-32.8 0,-25
	M 0,0
	c -10,-41 -29,-32.8 0,-25
	z" fill="rgb(153,62,110)" stroke-width="1" transform="rotate(219.92727272727 0,0)"/><path d="M 0,0
	c 10,-41 29,-32.8 0,-29.5
	M 0,0
	c -10,-41 -29,-32.8 0,-29.5
	z" fill="rgb(173,82,130)" stroke-width="1" transform="rotate(253.96363636364 0,0)"/><path d="M 0,0
	c 10,-41 29,-32.8 0,-32
	M 0,0
	c -10,-41 -29,-32.8 0,-32
	z" fill="rgb(153,62,110)" stroke-width="1" transform="rotate(279.81818181818 0,0)"/><path d="M 0,0
	c 10,-41 29,-32.8 0,-31
	M 0,0
	c -10,-41 -29,-32.8 0,-31
	z" fill="rgb(163,72,120)" stroke-width="1" transform="rotate(297.81818181818 0,0)"/><circle cx="0" cy="0" r="4.5833333333333" fill="#ffb566"/><circle cx="0" cy="0" r="1.5277777777778" fill="#ffce99"/></g></defs><use xlink:href="#feuille2"
		x="209.219925" y="419.847425" 
		transform="rotate(71.9 209.219925,419.847425)"
		fill="rgb(174,178,140)" /><use xlink:href="#feuille3"
		x="209.219925" y="419.847425" 
		transform="rotate(49.1 209.219925,419.847425)"
		fill="rgb(184,188,150)" /><use xlink:href="#feuille3"
		x="209.219925" y="419.847425" 
		transform="rotate(50.1 209.219925,419.847425)"
		fill="rgb(144,148,110)" /><use xlink:href="#feuille3"
		x="209.219925" y="419.847425" 
		transform="rotate(94.6 209.219925,419.847425)"
		fill="rgb(144,148,110)" /><use xlink:href="#feuille4"
		x="209.219925" y="419.847425" 
		transform="rotate(-61.5 209.219925,419.847425)"
		fill="rgb(134,138,100)" /><use xlink:href="#feuille1"
	x="205.754475" y="466.808975" 
	transform="rotate(-50  205.754475,466.808975)"
	fill="rgb(144,148,110)" /><path d="M 201 480 c 37.4,-94.8 -44.2,-47.4 51,-158  " stroke="rgb(152,192,95)" stroke-width="18" fill="transparent"/><use xlink:href="#fleur1"
x="252" y="322" 
fill="Pink" /><use xlink:href="#feuille2"
		x="133" y="377.875" 
		transform="rotate(-87.4 133,377.875)"
		fill="rgb(124,128,90)" /><use xlink:href="#feuille3"
		x="133" y="377.875" 
		transform="rotate(50.3 133,377.875)"
		fill="rgb(154,158,120)" /><use xlink:href="#feuille1"
	x="158.6041" y="458.993125" 
	transform="rotate(56  158.6041,458.993125)"
	fill="rgb(144,148,110)" /><use xlink:href="#feuille1"
	x="158.6041" y="458.993125" 
	transform="rotate(46  158.6041,458.993125)"
	fill="rgb(134,138,100)" /><path d="M 162 480 c -23.2,-152 -34.8,-57 -58,-190  " stroke="rgb(152,192,95)" stroke-width="16" fill="transparent"/><use xlink:href="#fleur2"
x="104" y="290" 
fill="Pink" /></svg>