<?xml version="1.0" encoding="iso-8859-1"?>
<svg version="1.1" id="Capa_1" xmlns="http://www.w3.org/2000/svg" xmlns:xlink="http://www.w3.org/1999/xlink" x="0px" y="0px"
viewBox="0 0 500 500" xml:space="preserve"><defs><g id="feuille1">
<path d="M 0,0
c 46,-85 43,-88 0,-132
M 0,0
c -46,-85 -43,-88 0,-132
z" stroke="#85e085" stroke-width="0"/>
<polygon points="-3,3, 0,-92.4 3 3" stroke="rgb(108,136,186)" stroke-width="2" fill="rgb(108,136,186)"/>
</g>
<g id="feuille2">
<path d="M 0,0
c 30.666666666667,-56.666666666667 28.666666666667,-58.666666666667 0,-88
M 0,0
c -30.666666666667,-56.666666666667 -28.666666666667,-58.666666666667 0,-88
z" stroke="#85e085" stroke-width="0"/>
<polygon points="-3 3, 0,-61.6, 3 3" stroke="rgb(108,136,186)" stroke-width="1" fill="rgb(108,136,186)"/>
</g><g id="feuille3">
<path d="M 0,0
c 23,-42.5 21.5,-44 0,-66
M 0,0
c -23,-42.5 -21.5,-44 0,-66
z" stroke="#85e085" stroke-width="0"/>
<polygon points="-3 3, 0,-46.2, 3 3" stroke="rgb(108,136,186)" stroke-width="1" fill="rgb(108,136,186)"/>
</g><g id="feuille4">
<path d="M 0,0
c 18.4,-34 17.2,-35.2 0,-52.8
M 0,0
c -18.4,-34 -17.2,-35.2 0,-52.8
z" stroke="#85e085" stroke-width="0"/>
<polygon points="-3 3, 0,-36.96, 3 3" stroke="rgb(108,136,186)" stroke-width="1" fill="rgb(108,136,186)"/>
</g><g id="fleur1"><path d="M 0,0
	c 23,-36 24,-28.8 0,-75
	M 0,0
	c -23,-36 -24,-28.8 0,-75
	z" fill="rgb(122,171,73)" stroke-width="1" transform="rotate(0 0,0)"/><path d="M 0,0
	c 23,-36 24,-28.8 0,-66
	M 0,0
	c -23,-36 -24,-28.8 0,-66
	z" fill="rgb(112,161,63)" stroke-width="1" transform="rotate(45.45 0,0)"/><path d="M 0,0
	c 23,-36 24,-28.8 0,-75
	M 0,0
	c -23,-36 -24,-28.8 0,-75
	z" fill="rgb(122,171,73)" stroke-width="1" transform="rotate(84.6 0,0)"/><path d="M 0,0
	c 23,-36 24,-28.8 0,-71
	M 0,0
	c -23,-36 -24,-28.8 0,-71
	z" fill="rgb(92,141,43)" stroke-width="1" transform="rotate(143.1 0,0)"/><path d="M 0,0
	c 23,-36 24,-28.8 0,-62
	M 0,0
	c -23,-36 -24,-28.8 0,-62
	z" fill="rgb(122,171,73)" stroke-width="1" transform="rotate(174.6 0,0)"/><path d="M 0,0
	c 23,-36 24,-28.8 0,-64
	M 0,0
	c -23,-36 -24,-28.8 0,-64
	z" fill="rgb(82,131,33)" stroke-width="1" transform="rotate(243 0,0)"/><path d="M 0,0
	c 23,-36 24,-28.8 0,-78
	M 0,0
	c -23,-36 -24,-28.8 0,-78
	z" fill="rgb(82,131,33)" stroke-width="1" transform="rotate(267.3 0,0)"/><path d="M 0,0
	c 23,-36 24,-28.8 0,-68
	M 0,0
	c -23,-36 -24,-28.8 0,-68
	z" fill="rgb(82,131,33)" stroke-width="1" transform="rotate(283.5 0,0)"/><circle cx="0" cy="0" r="34" fill="#ffb566"/><circle cx="0" cy="0" r="11.333333333333" fill="#ffce99"/></g><g id="fleur2"><path d="M 0,0
	c 15.333333333333,-24 16,-19.2 0,-52
	M 0,0
	c -15.333333333333,-24 -16,-19.2 0,-52
	z" fill="rgb(102,151,53)" stroke-width="1" transform="rotate(0 0,0)"/><path d="M 0,0
	c 15.333333333333,-24 16,-19.2 0,-40.666666666667
	M 0,0
	c -15.333333333333,-24 -16,-19.2 0,-40.666666666667
	z" fill="rgb(102,151,53)" stroke-width="1" transform="rotate(45.9 0,0)"/><path d="M 0,0
	c 15.333333333333,-24 16,-19.2 0,-52
	M 0,0
	c -15.333333333333,-24 -16,-19.2 0,-52
	z" fill="rgb(112,161,63)" stroke-width="1" transform="rotate(86.4 0,0)"/><path d="M 0,0
	c 15.333333333333,-24 16,-19.2 0,-48
	M 0,0
	c -15.333333333333,-24 -16,-19.2 0,-48
	z" fill="rgb(92,141,43)" stroke-width="1" transform="rotate(147.15 0,0)"/><path d="M 0,0
	c 15.333333333333,-24 16,-19.2 0,-38.666666666667
	M 0,0
	c -15.333333333333,-24 -16,-19.2 0,-38.666666666667
	z" fill="rgb(102,151,53)" stroke-width="1" transform="rotate(172.8 0,0)"/><path d="M 0,0
	c 15.333333333333,-24 16,-19.2 0,-44.666666666667
	M 0,0
	c -15.333333333333,-24 -16,-19.2 0,-44.666666666667
	z" fill="rgb(82,131,33)" stroke-width="1" transform="rotate(240.75 0,0)"/><path d="M 0,0
	c 15.333333333333,-24 16,-19.2 0,-40.666666666667
	M 0,0
	c -15.333333333333,-24 -16,-19.2 0,-40.666666666667
	z" fill="rgb(102,151,53)" stroke-width="1" transform="rotate(286.2 0,0)"/><path d="M 0,0
	c 15.333333333333,-24 16,-19.2 0,-51.333333333333
	M 0,0
	c -15.333333333333,-24 -16,-19.2 0,-51.333333333333
	z" fill="rgb(122,171,73)" stroke-width="1" transform="rotate(346.5 0,0)"/><circle cx="0" cy="0" r="22.666666666667" fill="#ffb566"/><circle cx="0" cy="0" r="7.5555555555556" fill="#ffce99"/></g><g id="fleur3"><path d="M 0,0
	c 13.142857142857,-20.571428571429 13.714285714286,-16.457142857143 0,-33.714285714286
	M 0,0
	c -13.142857142857,-20.571428571429 -13.714285714286,-16.457142857143 0,-33.714285714286
	z" fill="rgb(82,131,33)" stroke-width="1" transform="rotate(0 0,0)"/><path d="M 0,0
	c 13.142857142857,-20.571428571429 13.714285714286,-16.457142857143 0,-34.857142857143
	M 0,0
	c -13.142857142857,-20.571428571429 -13.714285714286,-16.457142857143 0,-34.857142857143
	z" fill="rgb(82,131,33)" stroke-width="1" transform="rotate(60.6 0,0)"/><path d="M 0,0
	c 13.142857142857,-20.571428571429 13.714285714286,-16.457142857143 0,-35.428571428571
	M 0,0
	c -13.142857142857,-20.571428571429 -13.714285714286,-16.457142857143 0,-35.428571428571
	z" fill="rgb(82,131,33)" stroke-width="1" transform="rotate(130.8 0,0)"/><path d="M 0,0
	c 13.142857142857,-20.571428571429 13.714285714286,-16.457142857143 0,-33.714285714286
	M 0,0
	c -13.142857142857,-20.571428571429 -13.714285714286,-16.457142857143 0,-33.714285714286
	z" fill="rgb(82,131,33)" stroke-width="1" transform="rotate(171 0,0)"/><path d="M 0,0
	c 13.142857142857,-20.571428571429 13.714285714286,-16.457142857143 0,-39.428571428571
	M 0,0
	c -13.142857142857,-20.571428571429 -13.714285714286,-16.457142857143 0,-39.428571428571
	z" fill="rgb(92,141,43)" stroke-width="1" transform="rotate(235.2 0,0)"/><path d="M 0,0
	c 13.142857142857,-20.571428571429 13.714285714286,-16.457142857143 0,-41.714285714286
	M 0,0
	c -13.142857142857,-20.571428571429 -13.714285714286,-16.457142857143 0,-41.714285714286
	z" fill="rgb(122,171,73)" stroke-width="1" transform="rotate(294 0,0)"/><circle cx="0" cy="0" r="19.428571428571" fill="#ffb566"/><circle cx="0" cy="0" r="6.4761904761905" fill="#ffce99"/></g><g id="fleur4"><path d="M 0,0
	c 11.5,-18 12,-14.4 0,-33
	M 0,0
	c -11.5,-18 -12,-14.4 0,-33
	z" fill="rgb(102,151,53)" stroke-width="1" transform="rotate(0 0,0)"/><path d="M 0,0
	c 11.5,-18 12,-14.4 0,-36
	M 0,0
	c -11.5,-18 -12,-14.4 0,-36
	z" fill="rgb(102,151,53)" stroke-width="1" transform="rotate(30.109090909091 0,0)"/><path d="M 0,0
	c 11.5,-18 12,-14.4 0,-30
	M 0,0
	c -11.5,-18 -12,-14.4 0,-30
	z" fill="rgb(112,161,63)" stroke-width="1" transform="rotate(69.381818181818 0,0)"/><path d="M 0,0
	c 11.5,-18 12,-14.4 0,-31
	M 0,0
	c -11.5,-18 -12,-14.4 0,-31
	z" fill="rgb(122,171,73)" stroke-width="1" transform="rotate(96.218181818182 0,0)"/><path d="M 0,0
	c 11.5,-18 12,-14.4 0,-36.5
	M 0,0
	c -11.5,-18 -12,-14.4 0,-36.5
	z" fill="rgb(112,161,63)" stroke-width="1" transform="rotate(136.14545454545 0,0)"/><path d="M 0,0
	c 11.5,-18 12,-14.4 0,-38
	M 0,0
	c -11.5,-18 -12,-14.4 0,-38
	z" fill="rgb(122,171,73)" stroke-width="1" transform="rotate(162 0,0)"/><path d="M 0,0
	c 11.5,-18 12,-14.4 0,-37
	M 0,0
	c -11.5,-18 -12,-14.4 0,-37
	z" fill="rgb(82,131,33)" stroke-width="1" transform="rotate(180.65454545455 0,0)"/><path d="M 0,0
	c 11.5,-18 12,-14.4 0,-39
	M 0,0
	c -11.5,-18 -12,-14.4 0,-39
	z" fill="rgb(92,141,43)" stroke-width="1" transform="rotate(222.21818181818 0,0)"/><path d="M 0,0
	c 11.5,-18 12,-14.4 0,-34
	M 0,0
	c -11.5,-18 -12,-14.4 0,-34
	z" fill="rgb(82,131,33)" stroke-width="1" transform="rotate(272.29090909091 0,0)"/><path d="M 0,0
	c 11.5,-18 12,-14.4 0,-37.5
	M 0,0
	c -11.5,-18 -12,-14.4 0,-37.5
	z" fill="rgb(102,151,53)" stroke-width="1" transform="rotate(279.81818181818 0,0)"/><path d="M 0,0
	c 11.5,-18 12,-14.4 0,-29
	M 0,0
	c -11.5,-18 -12,-14.4 0,-29
	z" fill="rgb(112,161,63)" stroke-width="1" transform="rotate(310.90909090909 0,0)"/><circle cx="0" cy="0" r="17" fill="#ffb566"/><circle cx="0" cy="0" r="5.6666666666667" fill="#ffce99"/></g></defs><use xlink:href="#feuille3"
		x="226.2314" y="290.4626" 
		transform="rotate(90.4 226.2314,290.4626)"
		fill="rgb(139,91,41)" /><use xlink:href="#feuille2"
		x="226.2314" y="290.4626" 
		transform="rotate(80 226.2314,290.4626)"
		fill="rgb(139,91,41)" /><use xlink:href="#feuille2"
		x="226.2314" y="290.4626" 
		transform="rotate(83.7 226.2314,290.4626)"
		fill="rgb(119,71,21)" /><use xlink:href="#feuille3"
		x="226.2314" y="290.4626" 
		transform="rotate(-85.2 226.2314,290.4626)"
		fill="rgb(159,111,61)" /><use xlink:href="#feuille3"
		x="226.2314" y="290.4626" 
		transform="rotate(80.3 226.2314,290.4626)"
		fill="rgb(179,131,81)" /><use xlink:href="#feuille1"
	x="255.9962" y="460.4168" 
	transform="rotate(-52  255.9962,460.4168)"
	fill="rgb(139,91,41)" /><use xlink:href="#feuille1"
	x="255.9962" y="460.4168" 
	transform="rotate(46  255.9962,460.4168)"
	fill="rgb(149,101,51)" /><path d="M 252 480 c 31.8,-134.5 -42.4,-188.3 -53,-269  " stroke="rgb(108,136,186)" stroke-width="18" fill="transparent"/><use xlink:href="#fleur1"
x="199" y="211" 
fill="Pink" /><use xlink:href="#feuille1"
	x="247.0618" y="459.015" 
	transform="rotate(-71  247.0618,459.015)"
	fill="rgb(149,101,51)" /><path d="M 247 480 c 0.53333333333333,-150 -1.6,-90 8,-300  " stroke="rgb(108,136,186)" stroke-width="16" fill="transparent"/><use xlink:href="#fleur2"
x="255" y="180" 
fill="Pink" /><use xlink:href="#feuille2"
		x="225.755125" y="339.4561" 
		transform="rotate(92.1 225.755125,339.4561)"
		fill="rgb(169,121,71)" /><use xlink:href="#feuille2"
		x="225.755125" y="339.4561" 
		transform="rotate(61.4 225.755125,339.4561)"
		fill="rgb(129,81,31)" /><use xlink:href="#feuille2"
		x="247.792" y="281.6256" 
		transform="rotate(72.7 247.792,281.6256)"
		fill="rgb(149,101,51)" /><use xlink:href="#feuille1"
	x="211.355875" y="452.1487" 
	transform="rotate(-44  211.355875,452.1487)"
	fill="rgb(129,81,31)" /><use xlink:href="#feuille1"
	x="211.355875" y="452.1487" 
	transform="rotate(-37  211.355875,452.1487)"
	fill="rgb(159,111,61)" /><path d="M 211 480 c 0,-196.8 48.666666666667,-164 73,-328  " stroke="rgb(108,136,186)" stroke-width="14" fill="transparent"/><use xlink:href="#fleur3"
x="284" y="152" 
fill="Pink" /><use xlink:href="#feuille2"
		x="274.25" y="385.3875" 
		transform="rotate(108.7 274.25,385.3875)"
		fill="rgb(169,121,71)" /><use xlink:href="#feuille4"
		x="274.25" y="385.3875" 
		transform="rotate(88.1 274.25,385.3875)"
		fill="rgb(149,101,51)" /><use xlink:href="#feuille3"
		x="258.75" y="432.5125" 
		transform="rotate(112.2 258.75,432.5125)"
		fill="rgb(169,121,71)" /><use xlink:href="#feuille2"
		x="258.75" y="432.5125" 
		transform="rotate(81.1 258.75,432.5125)"
		fill="rgb(179,131,81)" /><use xlink:href="#feuille4"
		x="258.75" y="432.5125" 
		transform="rotate(79.2 258.75,432.5125)"
		fill="rgb(129,81,31)" /><use xlink:href="#feuille2"
		x="258.75" y="432.5125" 
		transform="rotate(84.3 258.75,432.5125)"
		fill="rgb(129,81,31)" /><use xlink:href="#feuille1"
	x="255.126" y="468.4145" 
	transform="rotate(-53  255.126,468.4145)"
	fill="rgb(139,91,41)" /><use xlink:href="#feuille1"
	x="255.126" y="468.4145" 
	transform="rotate(-57  255.126,468.4145)"
	fill="rgb(159,111,61)" /><use xlink:href="#feuille1"
	x="255.126" y="468.4145" 
	transform="rotate(55  255.126,468.4145)"
	fill="rgb(169,121,71)" /><path d="M 254 480 c 8,-81.2 5.3333333333333,-81.2 40,-116  " stroke="rgb(108,136,186)" stroke-width="12" fill="transparent"/><use xlink:href="#fleur4"
x="294" y="364" 
fill="Pink" /></svg>