<?xml version="1.0" encoding="iso-8859-1"?>
<svg version="1.1" id="Capa_1" xmlns="http://www.w3.org/2000/svg" xmlns:xlink="http://www.w3.org/1999/xlink" x="0px" y="0px"
viewBox="0 0 500 500" xml:space="preserve"><defs><g id="feuille1">
<path d="M 0,0
c 43,-3 49,-2.4 0,-133
M 0,0
c -43,-3 -49,-2.4 0,-133
z" stroke="#85e085" stroke-width="0"/>
<polygon points="-3,3, 0,-93.1 3 3" stroke="rgb(90,117,133)" stroke-width="2" fill="rgb(90,117,133)"/>
</g>
<g id="feuille2">
<path d="M 0,0
c 28.666666666667,-2 32.666666666667,-1.6 0,-88.666666666667
M 0,0
c -28.666666666667,-2 -32.666666666667,-1.6 0,-88.666666666667
z" stroke="#85e085" stroke-width="0"/>
<polygon points="-3 3, 0,-62.066666666667, 3 3" stroke="rgb(90,117,133)" stroke-width="1" fill="rgb(90,117,133)"/>
</g><g id="feuille3">
<path d="M 0,0
c 21.5,-1.5 24.5,-1.2 0,-66.5
M 0,0
c -21.5,-1.5 -24.5,-1.2 0,-66.5
z" stroke="#85e085" stroke-width="0"/>
<polygon points="-3 3, 0,-46.55, 3 3" stroke="rgb(90,117,133)" stroke-width="1" fill="rgb(90,117,133)"/>
</g><g id="feuille4">
<path d="M 0,0
c 17.2,-1.2 19.6,-0.96 0,-53.2
M 0,0
c -17.2,-1.2 -19.6,-0.96 0,-53.2
z" stroke="#85e085" stroke-width="0"/>
<polygon points="-3 3, 0,-37.24, 3 3" stroke="rgb(90,117,133)" stroke-width="1" fill="rgb(90,117,133)"/>
</g><g id="fleur1"><path d="M 0,0
	c 30,-21 38,-16.8 0,-64
	M 0,0
	c -30,-21 -38,-16.8 0,-64
	z" fill="rgb(99,213,123)" stroke-width="1" transform="rotate(0 0,0)"/><path d="M 0,0
	c 30,-21 38,-16.8 0,-82
	M 0,0
	c -30,-21 -38,-16.8 0,-82
	z" fill="rgb(89,203,113)" stroke-width="1" transform="rotate(40.8 0,0)"/><path d="M 0,0
	c 30,-21 38,-16.8 0,-65
	M 0,0
	c -30,-21 -38,-16.8 0,-65
	z" fill="rgb(89,203,113)" stroke-width="1" transform="rotate(85.6 0,0)"/><path d="M 0,0
	c 30,-21 38,-16.8 0,-69
	M 0,0
	c -30,-21 -38,-16.8 0,-69
	z" fill="rgb(59,173,83)" stroke-width="1" transform="rotate(127.2 0,0)"/><path d="M 0,0
	c 30,-21 38,-16.8 0,-71
	M 0,0
	c -30,-21 -38,-16.8 0,-71
	z" fill="rgb(89,203,113)" stroke-width="1" transform="rotate(144 0,0)"/><path d="M 0,0
	c 30,-21 38,-16.8 0,-78
	M 0,0
	c -30,-21 -38,-16.8 0,-78
	z" fill="rgb(89,203,113)" stroke-width="1" transform="rotate(196 0,0)"/><path d="M 0,0
	c 30,-21 38,-16.8 0,-64
	M 0,0
	c -30,-21 -38,-16.8 0,-64
	z" fill="rgb(79,193,103)" stroke-width="1" transform="rotate(230.4 0,0)"/><path d="M 0,0
	c 30,-21 38,-16.8 0,-77
	M 0,0
	c -30,-21 -38,-16.8 0,-77
	z" fill="rgb(99,213,123)" stroke-width="1" transform="rotate(268.8 0,0)"/><path d="M 0,0
	c 30,-21 38,-16.8 0,-70
	M 0,0
	c -30,-21 -38,-16.8 0,-70
	z" fill="rgb(69,183,93)" stroke-width="1" transform="rotate(313.6 0,0)"/><circle cx="0" cy="0" r="9" fill="#ffb566"/><circle cx="0" cy="0" r="3" fill="#ffce99"/></g><g id="fleur2"><path d="M 0,0
	c 20,-14 25.333333333333,-11.2 0,-52.666666666667
	M 0,0
	c -20,-14 -25.333333333333,-11.2 0,-52.666666666667
	z" fill="rgb(69,183,93)" stroke-width="1" transform="rotate(0 0,0)"/><path d="M 0,0
	c 20,-14 25.333333333333,-11.2 0,-45.333333333333
	M 0,0
	c -20,-14 -25.333333333333,-11.2 0,-45.333333333333
	z" fill="rgb(99,213,123)" stroke-width="1" transform="rotate(36.36 0,0)"/><path d="M 0,0
	c 20,-14 25.333333333333,-11.2 0,-45.333333333333
	M 0,0
	c -20,-14 -25.333333333333,-11.2 0,-45.333333333333
	z" fill="rgb(69,183,93)" stroke-width="1" transform="rotate(74.88 0,0)"/><path d="M 0,0
	c 20,-14 25.333333333333,-11.2 0,-44
	M 0,0
	c -20,-14 -25.333333333333,-11.2 0,-44
	z" fill="rgb(89,203,113)" stroke-width="1" transform="rotate(116.64 0,0)"/><path d="M 0,0
	c 20,-14 25.333333333333,-11.2 0,-43.333333333333
	M 0,0
	c -20,-14 -25.333333333333,-11.2 0,-43.333333333333
	z" fill="rgb(99,213,123)" stroke-width="1" transform="rotate(135.36 0,0)"/><path d="M 0,0
	c 20,-14 25.333333333333,-11.2 0,-52
	M 0,0
	c -20,-14 -25.333333333333,-11.2 0,-52
	z" fill="rgb(99,213,123)" stroke-width="1" transform="rotate(178.2 0,0)"/><path d="M 0,0
	c 20,-14 25.333333333333,-11.2 0,-42.666666666667
	M 0,0
	c -20,-14 -25.333333333333,-11.2 0,-42.666666666667
	z" fill="rgb(69,183,93)" stroke-width="1" transform="rotate(209.52 0,0)"/><path d="M 0,0
	c 20,-14 25.333333333333,-11.2 0,-46
	M 0,0
	c -20,-14 -25.333333333333,-11.2 0,-46
	z" fill="rgb(69,183,93)" stroke-width="1" transform="rotate(267.12 0,0)"/><path d="M 0,0
	c 20,-14 25.333333333333,-11.2 0,-52
	M 0,0
	c -20,-14 -25.333333333333,-11.2 0,-52
	z" fill="rgb(69,183,93)" stroke-width="1" transform="rotate(288 0,0)"/><path d="M 0,0
	c 20,-14 25.333333333333,-11.2 0,-45.333333333333
	M 0,0
	c -20,-14 -25.333333333333,-11.2 0,-45.333333333333
	z" fill="rgb(79,193,103)" stroke-width="1" transform="rotate(349.92 0,0)"/><circle cx="0" cy="0" r="6" fill="#ffb566"/><circle cx="0" cy="0" r="2" fill="#ffce99"/></g><g id="fleur3"><path d="M 0,0
	c 17.142857142857,-12 21.714285714286,-9.6 0,-38.857142857143
	M 0,0
	c -17.142857142857,-12 -21.714285714286,-9.6 0,-38.857142857143
	z" fill="rgb(79,193,103)" stroke-width="1" transform="rotate(0 0,0)"/><path d="M 0,0
	c 17.142857142857,-12 21.714285714286,-9.6 0,-39.428571428571
	M 0,0
	c -17.142857142857,-12 -21.714285714286,-9.6 0,-39.428571428571
	z" fill="rgb(79,193,103)" stroke-width="1" transform="rotate(24.428571428571 0,0)"/><path d="M 0,0
	c 17.142857142857,-12 21.714285714286,-9.6 0,-38.857142857143
	M 0,0
	c -17.142857142857,-12 -21.714285714286,-9.6 0,-38.857142857143
	z" fill="rgb(59,173,83)" stroke-width="1" transform="rotate(54.514285714286 0,0)"/><path d="M 0,0
	c 17.142857142857,-12 21.714285714286,-9.6 0,-41.714285714286
	M 0,0
	c -17.142857142857,-12 -21.714285714286,-9.6 0,-41.714285714286
	z" fill="rgb(59,173,83)" stroke-width="1" transform="rotate(72.514285714286 0,0)"/><path d="M 0,0
	c 17.142857142857,-12 21.714285714286,-9.6 0,-37.142857142857
	M 0,0
	c -17.142857142857,-12 -21.714285714286,-9.6 0,-37.142857142857
	z" fill="rgb(69,183,93)" stroke-width="1" transform="rotate(102.85714285714 0,0)"/><path d="M 0,0
	c 17.142857142857,-12 21.714285714286,-9.6 0,-46.285714285714
	M 0,0
	c -17.142857142857,-12 -21.714285714286,-9.6 0,-46.285714285714
	z" fill="rgb(89,203,113)" stroke-width="1" transform="rotate(118.28571428571 0,0)"/><path d="M 0,0
	c 17.142857142857,-12 21.714285714286,-9.6 0,-36
	M 0,0
	c -17.142857142857,-12 -21.714285714286,-9.6 0,-36
	z" fill="rgb(59,173,83)" stroke-width="1" transform="rotate(146.57142857143 0,0)"/><path d="M 0,0
	c 17.142857142857,-12 21.714285714286,-9.6 0,-45.142857142857
	M 0,0
	c -17.142857142857,-12 -21.714285714286,-9.6 0,-45.142857142857
	z" fill="rgb(89,203,113)" stroke-width="1" transform="rotate(196.2 0,0)"/><path d="M 0,0
	c 17.142857142857,-12 21.714285714286,-9.6 0,-41.714285714286
	M 0,0
	c -17.142857142857,-12 -21.714285714286,-9.6 0,-41.714285714286
	z" fill="rgb(59,173,83)" stroke-width="1" transform="rotate(226.28571428571 0,0)"/><path d="M 0,0
	c 17.142857142857,-12 21.714285714286,-9.6 0,-44
	M 0,0
	c -17.142857142857,-12 -21.714285714286,-9.6 0,-44
	z" fill="rgb(69,183,93)" stroke-width="1" transform="rotate(233.74285714286 0,0)"/><path d="M 0,0
	c 17.142857142857,-12 21.714285714286,-9.6 0,-46.285714285714
	M 0,0
	c -17.142857142857,-12 -21.714285714286,-9.6 0,-46.285714285714
	z" fill="rgb(79,193,103)" stroke-width="1" transform="rotate(231.42857142857 0,0)"/><path d="M 0,0
	c 17.142857142857,-12 21.714285714286,-9.6 0,-43.428571428571
	M 0,0
	c -17.142857142857,-12 -21.714285714286,-9.6 0,-43.428571428571
	z" fill="rgb(69,183,93)" stroke-width="1" transform="rotate(263.05714285714 0,0)"/><path d="M 0,0
	c 17.142857142857,-12 21.714285714286,-9.6 0,-44
	M 0,0
	c -17.142857142857,-12 -21.714285714286,-9.6 0,-44
	z" fill="rgb(79,193,103)" stroke-width="1" transform="rotate(320.91428571429 0,0)"/><path d="M 0,0
	c 17.142857142857,-12 21.714285714286,-9.6 0,-36
	M 0,0
	c -17.142857142857,-12 -21.714285714286,-9.6 0,-36
	z" fill="rgb(99,213,123)" stroke-width="1" transform="rotate(310.88571428571 0,0)"/><circle cx="0" cy="0" r="5.1428571428571" fill="#ffb566"/><circle cx="0" cy="0" r="1.7142857142857" fill="#ffce99"/></g><g id="fleur4"><path d="M 0,0
	c 15,-10.5 19,-8.4 0,-37.5
	M 0,0
	c -15,-10.5 -19,-8.4 0,-37.5
	z" fill="rgb(89,203,113)" stroke-width="1" transform="rotate(0 0,0)"/><path d="M 0,0
	c 15,-10.5 19,-8.4 0,-36
	M 0,0
	c -15,-10.5 -19,-8.4 0,-36
	z" fill="rgb(69,183,93)" stroke-width="1" transform="rotate(43.2 0,0)"/><path d="M 0,0
	c 15,-10.5 19,-8.4 0,-36
	M 0,0
	c -15,-10.5 -19,-8.4 0,-36
	z" fill="rgb(99,213,123)" stroke-width="1" transform="rotate(76 0,0)"/><path d="M 0,0
	c 15,-10.5 19,-8.4 0,-33
	M 0,0
	c -15,-10.5 -19,-8.4 0,-33
	z" fill="rgb(59,173,83)" stroke-width="1" transform="rotate(121.2 0,0)"/><path d="M 0,0
	c 15,-10.5 19,-8.4 0,-40
	M 0,0
	c -15,-10.5 -19,-8.4 0,-40
	z" fill="rgb(99,213,123)" stroke-width="1" transform="rotate(148.8 0,0)"/><path d="M 0,0
	c 15,-10.5 19,-8.4 0,-34
	M 0,0
	c -15,-10.5 -19,-8.4 0,-34
	z" fill="rgb(89,203,113)" stroke-width="1" transform="rotate(200 0,0)"/><path d="M 0,0
	c 15,-10.5 19,-8.4 0,-38
	M 0,0
	c -15,-10.5 -19,-8.4 0,-38
	z" fill="rgb(79,193,103)" stroke-width="1" transform="rotate(249.6 0,0)"/><path d="M 0,0
	c 15,-10.5 19,-8.4 0,-39.5
	M 0,0
	c -15,-10.5 -19,-8.4 0,-39.5
	z" fill="rgb(59,173,83)" stroke-width="1" transform="rotate(263.2 0,0)"/><path d="M 0,0
	c 15,-10.5 19,-8.4 0,-39.5
	M 0,0
	c -15,-10.5 -19,-8.4 0,-39.5
	z" fill="rgb(79,193,103)" stroke-width="1" transform="rotate(291.2 0,0)"/><circle cx="0" cy="0" r="4.5" fill="#ffb566"/><circle cx="0" cy="0" r="1.5" fill="#ffce99"/></g></defs><use xlink:href="#feuille3"
		x="211.472" y="344.0928" 
		transform="rotate(-74.1 211.472,344.0928)"
		fill="rgb(108,196,98)" /><use xlink:href="#feuille4"
		x="211.472" y="344.0928" 
		transform="rotate(90.4 211.472,344.0928)"
		fill="rgb(138,226,128)" /><use xlink:href="#feuille1"
	x="214.552" y="456.32635" 
	transform="rotate(64  214.552,456.32635)"
	fill="rgb(118,206,108)" /><use xlink:href="#feuille1"
	x="214.552" y="456.32635" 
	transform="rotate(54  214.552,456.32635)"
	fill="rgb(108,196,98)" /><path d="M 215 480 c -2.8,-171.6 -9.8,-57.2 7,-286  " stroke="rgb(90,117,133)" stroke-width="18" fill="transparent"/><use xlink:href="#fleur1"
x="222" y="194" 
fill="Pink" /><use xlink:href="#feuille1"
	x="263.5849" y="463.866725" 
	transform="rotate(-43  263.5849,463.866725)"
	fill="rgb(98,186,88)" /><use xlink:href="#feuille1"
	x="263.5849" y="463.866725" 
	transform="rotate(52  263.5849,463.866725)"
	fill="rgb(118,206,108)" /><use xlink:href="#feuille1"
	x="263.5849" y="463.866725" 
	transform="rotate(-49  263.5849,463.866725)"
	fill="rgb(128,216,118)" /><path d="M 259 480 c 30.6,-107.6 61.2,-215.2 51,-269  " stroke="rgb(90,117,133)" stroke-width="16" fill="transparent"/><use xlink:href="#fleur2"
x="310" y="211" 
fill="Pink" /><use xlink:href="#feuille4"
		x="291.546875" y="328.771875" 
		transform="rotate(100.5 291.546875,328.771875)"
		fill="rgb(118,206,108)" /><use xlink:href="#feuille4"
		x="291.546875" y="328.771875" 
		transform="rotate(114 291.546875,328.771875)"
		fill="rgb(138,226,128)" /><use xlink:href="#feuille4"
		x="291.546875" y="328.771875" 
		transform="rotate(-104.5 291.546875,328.771875)"
		fill="rgb(138,226,128)" /><use xlink:href="#feuille4"
		x="291.546875" y="328.771875" 
		transform="rotate(65.9 291.546875,328.771875)"
		fill="rgb(98,186,88)" /><use xlink:href="#feuille2"
		x="291.546875" y="328.771875" 
		transform="rotate(-74.3 291.546875,328.771875)"
		fill="rgb(118,206,108)" /><use xlink:href="#feuille4"
		x="291.546875" y="328.771875" 
		transform="rotate(108 291.546875,328.771875)"
		fill="rgb(108,196,98)" /><use xlink:href="#feuille2"
		x="291.546875" y="328.771875" 
		transform="rotate(107.8 291.546875,328.771875)"
		fill="rgb(108,196,98)" /><use xlink:href="#feuille3"
		x="291.546875" y="328.771875" 
		transform="rotate(-112.8 291.546875,328.771875)"
		fill="rgb(108,196,98)" /><use xlink:href="#feuille3"
		x="291.546875" y="328.771875" 
		transform="rotate(-110.8 291.546875,328.771875)"
		fill="rgb(88,176,78)" /><use xlink:href="#feuille4"
		x="291.546875" y="328.771875" 
		transform="rotate(-97.1 291.546875,328.771875)"
		fill="rgb(118,206,108)" /><use xlink:href="#feuille2"
		x="291.546875" y="328.771875" 
		transform="rotate(-84.4 291.546875,328.771875)"
		fill="rgb(98,186,88)" /><use xlink:href="#feuille2"
		x="275.851875" y="429.236875" 
		transform="rotate(87.2 275.851875,429.236875)"
		fill="rgb(138,226,128)" /><use xlink:href="#feuille2"
		x="275.851875" y="429.236875" 
		transform="rotate(-80.6 275.851875,429.236875)"
		fill="rgb(98,186,88)" /><use xlink:href="#feuille4"
		x="275.851875" y="429.236875" 
		transform="rotate(-68.9 275.851875,429.236875)"
		fill="rgb(98,186,88)" /><use xlink:href="#feuille4"
		x="275.851875" y="429.236875" 
		transform="rotate(70.6 275.851875,429.236875)"
		fill="rgb(138,226,128)" /><use xlink:href="#feuille1"
	x="243.238125" y="471.899125" 
	transform="rotate(-71  243.238125,471.899125)"
	fill="rgb(108,196,98)" /><path d="M 236 480 c 50,-56.6 65,-56.6 50,-283  " stroke="rgb(90,117,133)" stroke-width="14" fill="transparent"/><use xlink:href="#fleur3"
x="286" y="197" 
fill="Pink" /></svg>