<?xml version="1.0" encoding="iso-8859-1"?>
<svg version="1.1" id="Capa_1" xmlns="http://www.w3.org/2000/svg" xmlns:xlink="http://www.w3.org/1999/xlink" x="0px" y="0px"
viewBox="0 0 500 500" xml:space="preserve"><defs><g id="feuille1">
<path d="M 0,0
c 66,-53 44,-40 0,-85
M 0,0
c -66,-53 -44,-40 0,-85
z" stroke="#85e085" stroke-width="0"/>
<polygon points="-3,3, 0,-59.5 3 3" stroke="rgb(179,66,74)" stroke-width="2" fill="rgb(179,66,74)"/>
</g>
<g id="feuille2">
<path d="M 0,0
c 44,-35.333333333333 29.333333333333,-26.666666666667 0,-56.666666666667
M 0,0
c -44,-35.333333333333 -29.333333333333,-26.666666666667 0,-56.666666666667
z" stroke="#85e085" stroke-width="0"/>
<polygon points="-3 3, 0,-39.666666666667, 3 3" stroke="rgb(179,66,74)" stroke-width="1" fill="rgb(179,66,74)"/>
</g><g id="feuille3">
<path d="M 0,0
c 33,-26.5 22,-20 0,-42.5
M 0,0
c -33,-26.5 -22,-20 0,-42.5
z" stroke="#85e085" stroke-width="0"/>
<polygon points="-3 3, 0,-29.75, 3 3" stroke="rgb(179,66,74)" stroke-width="1" fill="rgb(179,66,74)"/>
</g><g id="feuille4">
<path d="M 0,0
c 26.4,-21.2 17.6,-16 0,-34
M 0,0
c -26.4,-21.2 -17.6,-16 0,-34
z" stroke="#85e085" stroke-width="0"/>
<polygon points="-3 3, 0,-23.8, 3 3" stroke="rgb(179,66,74)" stroke-width="1" fill="rgb(179,66,74)"/>
</g><g id="fleur1"><path d="M 0,0
	c 58,-92 35,-62 0,-103
	M 0,0
	c -58,-92 -35,-62 0,-103
	z" fill="rgb(149,107,106)" stroke-width="1" transform="rotate(0 0,0)"/><path d="M 0,0
	c 58,-92 35,-62 0,-92
	M 0,0
	c -58,-92 -35,-62 0,-92
	z" fill="rgb(109,67,66)" stroke-width="1" transform="rotate(24.24 0,0)"/><path d="M 0,0
	c 58,-92 35,-62 0,-88
	M 0,0
	c -58,-92 -35,-62 0,-88
	z" fill="rgb(129,87,86)" stroke-width="1" transform="rotate(48 0,0)"/><path d="M 0,0
	c 58,-92 35,-62 0,-92
	M 0,0
	c -58,-92 -35,-62 0,-92
	z" fill="rgb(129,87,86)" stroke-width="1" transform="rotate(76.32 0,0)"/><path d="M 0,0
	c 58,-92 35,-62 0,-93
	M 0,0
	c -58,-92 -35,-62 0,-93
	z" fill="rgb(119,77,76)" stroke-width="1" transform="rotate(102.72 0,0)"/><path d="M 0,0
	c 58,-92 35,-62 0,-102
	M 0,0
	c -58,-92 -35,-62 0,-102
	z" fill="rgb(109,67,66)" stroke-width="1" transform="rotate(111.6 0,0)"/><path d="M 0,0
	c 58,-92 35,-62 0,-91
	M 0,0
	c -58,-92 -35,-62 0,-91
	z" fill="rgb(129,87,86)" stroke-width="1" transform="rotate(155.52 0,0)"/><path d="M 0,0
	c 58,-92 35,-62 0,-88
	M 0,0
	c -58,-92 -35,-62 0,-88
	z" fill="rgb(129,87,86)" stroke-width="1" transform="rotate(164.64 0,0)"/><path d="M 0,0
	c 58,-92 35,-62 0,-103
	M 0,0
	c -58,-92 -35,-62 0,-103
	z" fill="rgb(139,97,96)" stroke-width="1" transform="rotate(180.48 0,0)"/><path d="M 0,0
	c 58,-92 35,-62 0,-108
	M 0,0
	c -58,-92 -35,-62 0,-108
	z" fill="rgb(129,87,86)" stroke-width="1" transform="rotate(216 0,0)"/><path d="M 0,0
	c 58,-92 35,-62 0,-95
	M 0,0
	c -58,-92 -35,-62 0,-95
	z" fill="rgb(109,67,66)" stroke-width="1" transform="rotate(256.8 0,0)"/><path d="M 0,0
	c 58,-92 35,-62 0,-107
	M 0,0
	c -58,-92 -35,-62 0,-107
	z" fill="rgb(119,77,76)" stroke-width="1" transform="rotate(264 0,0)"/><path d="M 0,0
	c 58,-92 35,-62 0,-98
	M 0,0
	c -58,-92 -35,-62 0,-98
	z" fill="rgb(139,97,96)" stroke-width="1" transform="rotate(316.8 0,0)"/><path d="M 0,0
	c 58,-92 35,-62 0,-92
	M 0,0
	c -58,-92 -35,-62 0,-92
	z" fill="rgb(149,107,106)" stroke-width="1" transform="rotate(330.72 0,0)"/><path d="M 0,0
	c 58,-92 35,-62 0,-104
	M 0,0
	c -58,-92 -35,-62 0,-104
	z" fill="rgb(149,107,106)" stroke-width="1" transform="rotate(302.4 0,0)"/><circle cx="0" cy="0" r="16.333333333333" fill="#ffb566"/><circle cx="0" cy="0" r="5.4444444444444" fill="#ffce99"/></g><g id="fleur2"><path d="M 0,0
	c 38.666666666667,-61.333333333333 23.333333333333,-41.333333333333 0,-58.666666666667
	M 0,0
	c -38.666666666667,-61.333333333333 -23.333333333333,-41.333333333333 0,-58.666666666667
	z" fill="rgb(129,87,86)" stroke-width="1" transform="rotate(0 0,0)"/><path d="M 0,0
	c 38.666666666667,-61.333333333333 23.333333333333,-41.333333333333 0,-62.666666666667
	M 0,0
	c -38.666666666667,-61.333333333333 -23.333333333333,-41.333333333333 0,-62.666666666667
	z" fill="rgb(139,97,96)" stroke-width="1" transform="rotate(32.1 0,0)"/><path d="M 0,0
	c 38.666666666667,-61.333333333333 23.333333333333,-41.333333333333 0,-60.666666666667
	M 0,0
	c -38.666666666667,-61.333333333333 -23.333333333333,-41.333333333333 0,-60.666666666667
	z" fill="rgb(149,107,106)" stroke-width="1" transform="rotate(66 0,0)"/><path d="M 0,0
	c 38.666666666667,-61.333333333333 23.333333333333,-41.333333333333 0,-72
	M 0,0
	c -38.666666666667,-61.333333333333 -23.333333333333,-41.333333333333 0,-72
	z" fill="rgb(149,107,106)" stroke-width="1" transform="rotate(90 0,0)"/><path d="M 0,0
	c 38.666666666667,-61.333333333333 23.333333333333,-41.333333333333 0,-72
	M 0,0
	c -38.666666666667,-61.333333333333 -23.333333333333,-41.333333333333 0,-72
	z" fill="rgb(139,97,96)" stroke-width="1" transform="rotate(123.6 0,0)"/><path d="M 0,0
	c 38.666666666667,-61.333333333333 23.333333333333,-41.333333333333 0,-64.666666666667
	M 0,0
	c -38.666666666667,-61.333333333333 -23.333333333333,-41.333333333333 0,-64.666666666667
	z" fill="rgb(129,87,86)" stroke-width="1" transform="rotate(136.5 0,0)"/><path d="M 0,0
	c 38.666666666667,-61.333333333333 23.333333333333,-41.333333333333 0,-64
	M 0,0
	c -38.666666666667,-61.333333333333 -23.333333333333,-41.333333333333 0,-64
	z" fill="rgb(129,87,86)" stroke-width="1" transform="rotate(189 0,0)"/><path d="M 0,0
	c 38.666666666667,-61.333333333333 23.333333333333,-41.333333333333 0,-64.666666666667
	M 0,0
	c -38.666666666667,-61.333333333333 -23.333333333333,-41.333333333333 0,-64.666666666667
	z" fill="rgb(149,107,106)" stroke-width="1" transform="rotate(193.2 0,0)"/><path d="M 0,0
	c 38.666666666667,-61.333333333333 23.333333333333,-41.333333333333 0,-59.333333333333
	M 0,0
	c -38.666666666667,-61.333333333333 -23.333333333333,-41.333333333333 0,-59.333333333333
	z" fill="rgb(109,67,66)" stroke-width="1" transform="rotate(244.8 0,0)"/><path d="M 0,0
	c 38.666666666667,-61.333333333333 23.333333333333,-41.333333333333 0,-64
	M 0,0
	c -38.666666666667,-61.333333333333 -23.333333333333,-41.333333333333 0,-64
	z" fill="rgb(109,67,66)" stroke-width="1" transform="rotate(288.9 0,0)"/><path d="M 0,0
	c 38.666666666667,-61.333333333333 23.333333333333,-41.333333333333 0,-65.333333333333
	M 0,0
	c -38.666666666667,-61.333333333333 -23.333333333333,-41.333333333333 0,-65.333333333333
	z" fill="rgb(119,77,76)" stroke-width="1" transform="rotate(324 0,0)"/><path d="M 0,0
	c 38.666666666667,-61.333333333333 23.333333333333,-41.333333333333 0,-69.333333333333
	M 0,0
	c -38.666666666667,-61.333333333333 -23.333333333333,-41.333333333333 0,-69.333333333333
	z" fill="rgb(119,77,76)" stroke-width="1" transform="rotate(300.3 0,0)"/><circle cx="0" cy="0" r="10.888888888889" fill="#ffb566"/><circle cx="0" cy="0" r="3.6296296296296" fill="#ffce99"/></g><g id="fleur3"><path d="M 0,0
	c 33.142857142857,-52.571428571429 20,-35.428571428571 0,-53.142857142857
	M 0,0
	c -33.142857142857,-52.571428571429 -20,-35.428571428571 0,-53.142857142857
	z" fill="rgb(109,67,66)" stroke-width="1" transform="rotate(0 0,0)"/><path d="M 0,0
	c 33.142857142857,-52.571428571429 20,-35.428571428571 0,-54.285714285714
	M 0,0
	c -33.142857142857,-52.571428571429 -20,-35.428571428571 0,-54.285714285714
	z" fill="rgb(149,107,106)" stroke-width="1" transform="rotate(24.48 0,0)"/><path d="M 0,0
	c 33.142857142857,-52.571428571429 20,-35.428571428571 0,-51.428571428571
	M 0,0
	c -33.142857142857,-52.571428571429 -20,-35.428571428571 0,-51.428571428571
	z" fill="rgb(119,77,76)" stroke-width="1" transform="rotate(43.68 0,0)"/><path d="M 0,0
	c 33.142857142857,-52.571428571429 20,-35.428571428571 0,-52
	M 0,0
	c -33.142857142857,-52.571428571429 -20,-35.428571428571 0,-52
	z" fill="rgb(119,77,76)" stroke-width="1" transform="rotate(70.56 0,0)"/><path d="M 0,0
	c 33.142857142857,-52.571428571429 20,-35.428571428571 0,-61.714285714286
	M 0,0
	c -33.142857142857,-52.571428571429 -20,-35.428571428571 0,-61.714285714286
	z" fill="rgb(139,97,96)" stroke-width="1" transform="rotate(95.04 0,0)"/><path d="M 0,0
	c 33.142857142857,-52.571428571429 20,-35.428571428571 0,-56.571428571429
	M 0,0
	c -33.142857142857,-52.571428571429 -20,-35.428571428571 0,-56.571428571429
	z" fill="rgb(149,107,106)" stroke-width="1" transform="rotate(132 0,0)"/><path d="M 0,0
	c 33.142857142857,-52.571428571429 20,-35.428571428571 0,-53.142857142857
	M 0,0
	c -33.142857142857,-52.571428571429 -20,-35.428571428571 0,-53.142857142857
	z" fill="rgb(109,67,66)" stroke-width="1" transform="rotate(146.88 0,0)"/><path d="M 0,0
	c 33.142857142857,-52.571428571429 20,-35.428571428571 0,-53.714285714286
	M 0,0
	c -33.142857142857,-52.571428571429 -20,-35.428571428571 0,-53.714285714286
	z" fill="rgb(119,77,76)" stroke-width="1" transform="rotate(164.64 0,0)"/><path d="M 0,0
	c 33.142857142857,-52.571428571429 20,-35.428571428571 0,-54.857142857143
	M 0,0
	c -33.142857142857,-52.571428571429 -20,-35.428571428571 0,-54.857142857143
	z" fill="rgb(139,97,96)" stroke-width="1" transform="rotate(195.84 0,0)"/><path d="M 0,0
	c 33.142857142857,-52.571428571429 20,-35.428571428571 0,-58.857142857143
	M 0,0
	c -33.142857142857,-52.571428571429 -20,-35.428571428571 0,-58.857142857143
	z" fill="rgb(129,87,86)" stroke-width="1" transform="rotate(198.72 0,0)"/><path d="M 0,0
	c 33.142857142857,-52.571428571429 20,-35.428571428571 0,-56
	M 0,0
	c -33.142857142857,-52.571428571429 -20,-35.428571428571 0,-56
	z" fill="rgb(129,87,86)" stroke-width="1" transform="rotate(228 0,0)"/><path d="M 0,0
	c 33.142857142857,-52.571428571429 20,-35.428571428571 0,-54.857142857143
	M 0,0
	c -33.142857142857,-52.571428571429 -20,-35.428571428571 0,-54.857142857143
	z" fill="rgb(149,107,106)" stroke-width="1" transform="rotate(290.4 0,0)"/><path d="M 0,0
	c 33.142857142857,-52.571428571429 20,-35.428571428571 0,-60.571428571429
	M 0,0
	c -33.142857142857,-52.571428571429 -20,-35.428571428571 0,-60.571428571429
	z" fill="rgb(129,87,86)" stroke-width="1" transform="rotate(259.2 0,0)"/><path d="M 0,0
	c 33.142857142857,-52.571428571429 20,-35.428571428571 0,-60.571428571429
	M 0,0
	c -33.142857142857,-52.571428571429 -20,-35.428571428571 0,-60.571428571429
	z" fill="rgb(139,97,96)" stroke-width="1" transform="rotate(312 0,0)"/><path d="M 0,0
	c 33.142857142857,-52.571428571429 20,-35.428571428571 0,-59.428571428571
	M 0,0
	c -33.142857142857,-52.571428571429 -20,-35.428571428571 0,-59.428571428571
	z" fill="rgb(109,67,66)" stroke-width="1" transform="rotate(329.28 0,0)"/><circle cx="0" cy="0" r="9.3333333333333" fill="#ffb566"/><circle cx="0" cy="0" r="3.1111111111111" fill="#ffce99"/></g><g id="fleur4"><path d="M 0,0
	c 29,-46 17.5,-31 0,-51
	M 0,0
	c -29,-46 -17.5,-31 0,-51
	z" fill="rgb(119,77,76)" stroke-width="1" transform="rotate(0 0,0)"/><path d="M 0,0
	c 29,-46 17.5,-31 0,-52
	M 0,0
	c -29,-46 -17.5,-31 0,-52
	z" fill="rgb(119,77,76)" stroke-width="1" transform="rotate(67.68 0,0)"/><path d="M 0,0
	c 29,-46 17.5,-31 0,-48
	M 0,0
	c -29,-46 -17.5,-31 0,-48
	z" fill="rgb(109,67,66)" stroke-width="1" transform="rotate(136.8 0,0)"/><path d="M 0,0
	c 29,-46 17.5,-31 0,-50
	M 0,0
	c -29,-46 -17.5,-31 0,-50
	z" fill="rgb(139,97,96)" stroke-width="1" transform="rotate(203.04 0,0)"/><path d="M 0,0
	c 29,-46 17.5,-31 0,-44
	M 0,0
	c -29,-46 -17.5,-31 0,-44
	z" fill="rgb(109,67,66)" stroke-width="1" transform="rotate(305.28 0,0)"/><circle cx="0" cy="0" r="8.1666666666667" fill="#ffb566"/><circle cx="0" cy="0" r="2.7222222222222" fill="#ffce99"/></g></defs><use xlink:href="#feuille3"
		x="269.717175" y="341.7675375" 
		transform="rotate(68.4 269.717175,341.7675375)"
		fill="rgb(36,73,91)" /><use xlink:href="#feuille1"
	x="239.111925" y="456.9439125" 
	transform="rotate(-70  239.111925,456.9439125)"
	fill="rgb(46,83,101)" /><use xlink:href="#feuille1"
	x="239.111925" y="456.9439125" 
	transform="rotate(-55  239.111925,456.9439125)"
	fill="rgb(46,83,101)" /><path d="M 233 480 c 43.8,-166.5 24.333333333333,-66.6 73,-333  " stroke="rgb(179,66,74)" stroke-width="18" fill="transparent"/><use xlink:href="#fleur1"
x="306" y="147" 
fill="Pink" /><use xlink:href="#feuille3"
		x="280.085625" y="392.176" 
		transform="rotate(-80.2 280.085625,392.176)"
		fill="rgb(46,83,101)" /><use xlink:href="#feuille2"
		x="280.085625" y="392.176" 
		transform="rotate(-103.1 280.085625,392.176)"
		fill="rgb(36,73,91)" /><use xlink:href="#feuille1"
	x="280.601875" y="467.216" 
	transform="rotate(51  280.601875,467.216)"
	fill="rgb(66,103,121)" /><path d="M 281 480 c -2.8,-89.6 -2.8,-89.6 7,-128  " stroke="rgb(179,66,74)" stroke-width="16" fill="transparent"/><use xlink:href="#fleur2"
x="288" y="352" 
fill="Pink" /><use xlink:href="#feuille2"
		x="269.32965" y="406.4034" 
		transform="rotate(62.3 269.32965,406.4034)"
		fill="rgb(36,73,91)" /><use xlink:href="#feuille2"
		x="268.6496" y="393.9456" 
		transform="rotate(97.3 268.6496,393.9456)"
		fill="rgb(46,83,101)" /><use xlink:href="#feuille2"
		x="268.6496" y="393.9456" 
		transform="rotate(97.2 268.6496,393.9456)"
		fill="rgb(66,103,121)" /><use xlink:href="#feuille2"
		x="268.6496" y="393.9456" 
		transform="rotate(83.6 268.6496,393.9456)"
		fill="rgb(76,113,131)" /><use xlink:href="#feuille1"
	x="268.78155" y="470.2638" 
	transform="rotate(-57  268.78155,470.2638)"
	fill="rgb(66,103,121)" /><path d="M 268 480 c 5.8,-64.8 0,-129.6 -29,-324  " stroke="rgb(179,66,74)" stroke-width="14" fill="transparent"/><use xlink:href="#fleur3"
x="239" y="156" 
fill="Pink" /></svg>