<?xml version="1.0" encoding="iso-8859-1"?>
<svg version="1.1" id="Capa_1" xmlns="http://www.w3.org/2000/svg" xmlns:xlink="http://www.w3.org/1999/xlink" x="0px" y="0px"
viewBox="0 0 500 500" xml:space="preserve"><defs><g id="feuille1">
<path d="M 0,0
c 21,-10 49,-8 0,-110
M 0,0
c -21,-10 -49,-8 0,-110
z" stroke="#85e085" stroke-width="0"/>
<polygon points="-3,3, 0,-77 3 3" stroke="rgb(105,149,131)" stroke-width="2" fill="rgb(105,149,131)"/>
</g>
<g id="feuille2">
<path d="M 0,0
c 14,-6.6666666666667 32.666666666667,-5.3333333333333 0,-73.333333333333
M 0,0
c -14,-6.6666666666667 -32.666666666667,-5.3333333333333 0,-73.333333333333
z" stroke="#85e085" stroke-width="0"/>
<polygon points="-3 3, 0,-51.333333333333, 3 3" stroke="rgb(105,149,131)" stroke-width="1" fill="rgb(105,149,131)"/>
</g><g id="feuille3">
<path d="M 0,0
c 10.5,-5 24.5,-4 0,-55
M 0,0
c -10.5,-5 -24.5,-4 0,-55
z" stroke="#85e085" stroke-width="0"/>
<polygon points="-3 3, 0,-38.5, 3 3" stroke="rgb(105,149,131)" stroke-width="1" fill="rgb(105,149,131)"/>
</g><g id="feuille4">
<path d="M 0,0
c 8.4,-4 19.6,-3.2 0,-44
M 0,0
c -8.4,-4 -19.6,-3.2 0,-44
z" stroke="#85e085" stroke-width="0"/>
<polygon points="-3 3, 0,-30.8, 3 3" stroke="rgb(105,149,131)" stroke-width="1" fill="rgb(105,149,131)"/>
</g><g id="fleur1"><path d="M 0,0
	c 60,-20 48,-16 0,-85
	M 0,0
	c -60,-20 -48,-16 0,-85
	z" fill="rgb(71,109,68)" stroke-width="1" transform="rotate(0 0,0)"/><path d="M 0,0
	c 60,-20 48,-16 0,-96
	M 0,0
	c -60,-20 -48,-16 0,-96
	z" fill="rgb(101,139,98)" stroke-width="1" transform="rotate(24.171428571429 0,0)"/><path d="M 0,0
	c 60,-20 48,-16 0,-98
	M 0,0
	c -60,-20 -48,-16 0,-98
	z" fill="rgb(71,109,68)" stroke-width="1" transform="rotate(50.914285714286 0,0)"/><path d="M 0,0
	c 60,-20 48,-16 0,-91
	M 0,0
	c -60,-20 -48,-16 0,-91
	z" fill="rgb(91,129,88)" stroke-width="1" transform="rotate(69.428571428571 0,0)"/><path d="M 0,0
	c 60,-20 48,-16 0,-92
	M 0,0
	c -60,-20 -48,-16 0,-92
	z" fill="rgb(91,129,88)" stroke-width="1" transform="rotate(95.657142857143 0,0)"/><path d="M 0,0
	c 60,-20 48,-16 0,-96
	M 0,0
	c -60,-20 -48,-16 0,-96
	z" fill="rgb(111,149,108)" stroke-width="1" transform="rotate(141.42857142857 0,0)"/><path d="M 0,0
	c 60,-20 48,-16 0,-82
	M 0,0
	c -60,-20 -48,-16 0,-82
	z" fill="rgb(71,109,68)" stroke-width="1" transform="rotate(146.57142857143 0,0)"/><path d="M 0,0
	c 60,-20 48,-16 0,-81
	M 0,0
	c -60,-20 -48,-16 0,-81
	z" fill="rgb(81,119,78)" stroke-width="1" transform="rotate(198 0,0)"/><path d="M 0,0
	c 60,-20 48,-16 0,-80
	M 0,0
	c -60,-20 -48,-16 0,-80
	z" fill="rgb(91,129,88)" stroke-width="1" transform="rotate(224.22857142857 0,0)"/><path d="M 0,0
	c 60,-20 48,-16 0,-90
	M 0,0
	c -60,-20 -48,-16 0,-90
	z" fill="rgb(101,139,98)" stroke-width="1" transform="rotate(243 0,0)"/><path d="M 0,0
	c 60,-20 48,-16 0,-83
	M 0,0
	c -60,-20 -48,-16 0,-83
	z" fill="rgb(91,129,88)" stroke-width="1" transform="rotate(257.14285714286 0,0)"/><path d="M 0,0
	c 60,-20 48,-16 0,-97
	M 0,0
	c -60,-20 -48,-16 0,-97
	z" fill="rgb(81,119,78)" stroke-width="1" transform="rotate(291.34285714286 0,0)"/><path d="M 0,0
	c 60,-20 48,-16 0,-79
	M 0,0
	c -60,-20 -48,-16 0,-79
	z" fill="rgb(101,139,98)" stroke-width="1" transform="rotate(314.74285714286 0,0)"/><path d="M 0,0
	c 60,-20 48,-16 0,-86
	M 0,0
	c -60,-20 -48,-16 0,-86
	z" fill="rgb(91,129,88)" stroke-width="1" transform="rotate(330.94285714286 0,0)"/><circle cx="0" cy="0" r="29.333333333333" fill="#ffb566"/><circle cx="0" cy="0" r="9.7777777777778" fill="#ffce99"/></g><g id="fleur2"><path d="M 0,0
	c 40,-13.333333333333 32,-10.666666666667 0,-56
	M 0,0
	c -40,-13.333333333333 -32,-10.666666666667 0,-56
	z" fill="rgb(91,129,88)" stroke-width="1" transform="rotate(0 0,0)"/><path d="M 0,0
	c 40,-13.333333333333 32,-10.666666666667 0,-60
	M 0,0
	c -40,-13.333333333333 -32,-10.666666666667 0,-60
	z" fill="rgb(91,129,88)" stroke-width="1" transform="rotate(33.48 0,0)"/><path d="M 0,0
	c 40,-13.333333333333 32,-10.666666666667 0,-62
	M 0,0
	c -40,-13.333333333333 -32,-10.666666666667 0,-62
	z" fill="rgb(111,149,108)" stroke-width="1" transform="rotate(74.16 0,0)"/><path d="M 0,0
	c 40,-13.333333333333 32,-10.666666666667 0,-60
	M 0,0
	c -40,-13.333333333333 -32,-10.666666666667 0,-60
	z" fill="rgb(111,149,108)" stroke-width="1" transform="rotate(111.24 0,0)"/><path d="M 0,0
	c 40,-13.333333333333 32,-10.666666666667 0,-55.333333333333
	M 0,0
	c -40,-13.333333333333 -32,-10.666666666667 0,-55.333333333333
	z" fill="rgb(81,119,78)" stroke-width="1" transform="rotate(136.8 0,0)"/><path d="M 0,0
	c 40,-13.333333333333 32,-10.666666666667 0,-64.666666666667
	M 0,0
	c -40,-13.333333333333 -32,-10.666666666667 0,-64.666666666667
	z" fill="rgb(91,129,88)" stroke-width="1" transform="rotate(172.8 0,0)"/><path d="M 0,0
	c 40,-13.333333333333 32,-10.666666666667 0,-61.333333333333
	M 0,0
	c -40,-13.333333333333 -32,-10.666666666667 0,-61.333333333333
	z" fill="rgb(81,119,78)" stroke-width="1" transform="rotate(209.52 0,0)"/><path d="M 0,0
	c 40,-13.333333333333 32,-10.666666666667 0,-65.333333333333
	M 0,0
	c -40,-13.333333333333 -32,-10.666666666667 0,-65.333333333333
	z" fill="rgb(81,119,78)" stroke-width="1" transform="rotate(239.4 0,0)"/><path d="M 0,0
	c 40,-13.333333333333 32,-10.666666666667 0,-61.333333333333
	M 0,0
	c -40,-13.333333333333 -32,-10.666666666667 0,-61.333333333333
	z" fill="rgb(81,119,78)" stroke-width="1" transform="rotate(290.88 0,0)"/><path d="M 0,0
	c 40,-13.333333333333 32,-10.666666666667 0,-60.666666666667
	M 0,0
	c -40,-13.333333333333 -32,-10.666666666667 0,-60.666666666667
	z" fill="rgb(81,119,78)" stroke-width="1" transform="rotate(298.08 0,0)"/><circle cx="0" cy="0" r="19.555555555556" fill="#ffb566"/><circle cx="0" cy="0" r="6.5185185185185" fill="#ffce99"/></g><g id="fleur3"><path d="M 0,0
	c 34.285714285714,-11.428571428571 27.428571428571,-9.1428571428571 0,-49.714285714286
	M 0,0
	c -34.285714285714,-11.428571428571 -27.428571428571,-9.1428571428571 0,-49.714285714286
	z" fill="rgb(81,119,78)" stroke-width="1" transform="rotate(0 0,0)"/><path d="M 0,0
	c 34.285714285714,-11.428571428571 27.428571428571,-9.1428571428571 0,-51.428571428571
	M 0,0
	c -34.285714285714,-11.428571428571 -27.428571428571,-9.1428571428571 0,-51.428571428571
	z" fill="rgb(91,129,88)" stroke-width="1" transform="rotate(60.6 0,0)"/><path d="M 0,0
	c 34.285714285714,-11.428571428571 27.428571428571,-9.1428571428571 0,-49.714285714286
	M 0,0
	c -34.285714285714,-11.428571428571 -27.428571428571,-9.1428571428571 0,-49.714285714286
	z" fill="rgb(101,139,98)" stroke-width="1" transform="rotate(127.2 0,0)"/><path d="M 0,0
	c 34.285714285714,-11.428571428571 27.428571428571,-9.1428571428571 0,-44.571428571429
	M 0,0
	c -34.285714285714,-11.428571428571 -27.428571428571,-9.1428571428571 0,-44.571428571429
	z" fill="rgb(101,139,98)" stroke-width="1" transform="rotate(190.8 0,0)"/><path d="M 0,0
	c 34.285714285714,-11.428571428571 27.428571428571,-9.1428571428571 0,-54.285714285714
	M 0,0
	c -34.285714285714,-11.428571428571 -27.428571428571,-9.1428571428571 0,-54.285714285714
	z" fill="rgb(91,129,88)" stroke-width="1" transform="rotate(216 0,0)"/><path d="M 0,0
	c 34.285714285714,-11.428571428571 27.428571428571,-9.1428571428571 0,-55.428571428571
	M 0,0
	c -34.285714285714,-11.428571428571 -27.428571428571,-9.1428571428571 0,-55.428571428571
	z" fill="rgb(81,119,78)" stroke-width="1" transform="rotate(279 0,0)"/><circle cx="0" cy="0" r="16.761904761905" fill="#ffb566"/><circle cx="0" cy="0" r="5.5873015873016" fill="#ffce99"/></g><g id="fleur4"><path d="M 0,0
	c 30,-10 24,-8 0,-43.5
	M 0,0
	c -30,-10 -24,-8 0,-43.5
	z" fill="rgb(91,129,88)" stroke-width="1" transform="rotate(0 0,0)"/><path d="M 0,0
	c 30,-10 24,-8 0,-46
	M 0,0
	c -30,-10 -24,-8 0,-46
	z" fill="rgb(111,149,108)" stroke-width="1" transform="rotate(64.8 0,0)"/><path d="M 0,0
	c 30,-10 24,-8 0,-45.5
	M 0,0
	c -30,-10 -24,-8 0,-45.5
	z" fill="rgb(81,119,78)" stroke-width="1" transform="rotate(130.8 0,0)"/><path d="M 0,0
	c 30,-10 24,-8 0,-41.5
	M 0,0
	c -30,-10 -24,-8 0,-41.5
	z" fill="rgb(111,149,108)" stroke-width="1" transform="rotate(178.2 0,0)"/><path d="M 0,0
	c 30,-10 24,-8 0,-39.5
	M 0,0
	c -30,-10 -24,-8 0,-39.5
	z" fill="rgb(81,119,78)" stroke-width="1" transform="rotate(244.8 0,0)"/><path d="M 0,0
	c 30,-10 24,-8 0,-41
	M 0,0
	c -30,-10 -24,-8 0,-41
	z" fill="rgb(81,119,78)" stroke-width="1" transform="rotate(315 0,0)"/><circle cx="0" cy="0" r="14.666666666667" fill="#ffb566"/><circle cx="0" cy="0" r="4.8888888888889" fill="#ffce99"/></g></defs><use xlink:href="#feuille4"
		x="255.3984" y="254.0928" 
		transform="rotate(89.1 255.3984,254.0928)"
		fill="rgb(177,86,82)" /><use xlink:href="#feuille2"
		x="258.4952" y="234.8824" 
		transform="rotate(68.4 258.4952,234.8824)"
		fill="rgb(167,76,72)" /><use xlink:href="#feuille1"
	x="234.1618" y="450.2261" 
	transform="rotate(-61  234.1618,450.2261)"
	fill="rgb(167,76,72)" /><path d="M 222 480 c 91.466666666667,-207.2 -32.666666666667,-236.8 98,-296  " stroke="rgb(105,149,131)" stroke-width="18" fill="transparent"/><use xlink:href="#fleur1"
x="320" y="184" 
fill="Pink" /><use xlink:href="#feuille3"
		x="208.484025" y="416.0353125" 
		transform="rotate(-70.1 208.484025,416.0353125)"
		fill="rgb(167,76,72)" /><use xlink:href="#feuille3"
		x="208.484025" y="416.0353125" 
		transform="rotate(94.5 208.484025,416.0353125)"
		fill="rgb(187,96,92)" /><use xlink:href="#feuille1"
	x="200.264225" y="473.8238125" 
	transform="rotate(45  200.264225,473.8238125)"
	fill="rgb(197,106,102)" /><use xlink:href="#feuille1"
	x="200.264225" y="473.8238125" 
	transform="rotate(44  200.264225,473.8238125)"
	fill="rgb(167,76,72)" /><path d="M 204 480 c -29.2,-39.9 29.2,-106.4 73,-133  " stroke="rgb(105,149,131)" stroke-width="16" fill="transparent"/><use xlink:href="#fleur2"
x="277" y="347" 
fill="Pink" /></svg>