<?xml version="1.0" encoding="iso-8859-1"?>
<svg version="1.1" id="Capa_1" xmlns="http://www.w3.org/2000/svg" xmlns:xlink="http://www.w3.org/1999/xlink" x="0px" y="0px"
viewBox="0 0 500 500" xml:space="preserve"><defs><g id="feuille1">
<path d="M 0,0
c 40,-87 35,-112 0,-132
M 0,0
c -40,-87 -35,-112 0,-132
z" stroke="#85e085" stroke-width="0"/>
<polygon points="-3,3, 0,-92.4 3 3" stroke="rgb(151,75,100)" stroke-width="2" fill="rgb(151,75,100)"/>
</g>
<g id="feuille2">
<path d="M 0,0
c 26.666666666667,-58 23.333333333333,-74.666666666667 0,-88
M 0,0
c -26.666666666667,-58 -23.333333333333,-74.666666666667 0,-88
z" stroke="#85e085" stroke-width="0"/>
<polygon points="-3 3, 0,-61.6, 3 3" stroke="rgb(151,75,100)" stroke-width="1" fill="rgb(151,75,100)"/>
</g><g id="feuille3">
<path d="M 0,0
c 20,-43.5 17.5,-56 0,-66
M 0,0
c -20,-43.5 -17.5,-56 0,-66
z" stroke="#85e085" stroke-width="0"/>
<polygon points="-3 3, 0,-46.2, 3 3" stroke="rgb(151,75,100)" stroke-width="1" fill="rgb(151,75,100)"/>
</g><g id="feuille4">
<path d="M 0,0
c 16,-34.8 14,-44.8 0,-52.8
M 0,0
c -16,-34.8 -14,-44.8 0,-52.8
z" stroke="#85e085" stroke-width="0"/>
<polygon points="-3 3, 0,-36.96, 3 3" stroke="rgb(151,75,100)" stroke-width="1" fill="rgb(151,75,100)"/>
</g><g id="fleur1"><path d="M 0,0
	c 42,-44 30,-59 0,-93
	M 0,0
	c -42,-44 -30,-59 0,-93
	z" fill="rgb(214,122,136)" stroke-width="1" transform="rotate(0 0,0)"/><path d="M 0,0
	c 42,-44 30,-59 0,-104
	M 0,0
	c -42,-44 -30,-59 0,-104
	z" fill="rgb(194,102,116)" stroke-width="1" transform="rotate(25.457142857143 0,0)"/><path d="M 0,0
	c 42,-44 30,-59 0,-92
	M 0,0
	c -42,-44 -30,-59 0,-92
	z" fill="rgb(214,122,136)" stroke-width="1" transform="rotate(50.914285714286 0,0)"/><path d="M 0,0
	c 42,-44 30,-59 0,-90
	M 0,0
	c -42,-44 -30,-59 0,-90
	z" fill="rgb(194,102,116)" stroke-width="1" transform="rotate(78.685714285714 0,0)"/><path d="M 0,0
	c 42,-44 30,-59 0,-100
	M 0,0
	c -42,-44 -30,-59 0,-100
	z" fill="rgb(214,122,136)" stroke-width="1" transform="rotate(97.714285714286 0,0)"/><path d="M 0,0
	c 42,-44 30,-59 0,-109
	M 0,0
	c -42,-44 -30,-59 0,-109
	z" fill="rgb(174,82,96)" stroke-width="1" transform="rotate(123.42857142857 0,0)"/><path d="M 0,0
	c 42,-44 30,-59 0,-108
	M 0,0
	c -42,-44 -30,-59 0,-108
	z" fill="rgb(194,102,116)" stroke-width="1" transform="rotate(149.65714285714 0,0)"/><path d="M 0,0
	c 42,-44 30,-59 0,-100
	M 0,0
	c -42,-44 -30,-59 0,-100
	z" fill="rgb(194,102,116)" stroke-width="1" transform="rotate(178.2 0,0)"/><path d="M 0,0
	c 42,-44 30,-59 0,-106
	M 0,0
	c -42,-44 -30,-59 0,-106
	z" fill="rgb(174,82,96)" stroke-width="1" transform="rotate(211.88571428571 0,0)"/><path d="M 0,0
	c 42,-44 30,-59 0,-99
	M 0,0
	c -42,-44 -30,-59 0,-99
	z" fill="rgb(174,82,96)" stroke-width="1" transform="rotate(210.6 0,0)"/><path d="M 0,0
	c 42,-44 30,-59 0,-102
	M 0,0
	c -42,-44 -30,-59 0,-102
	z" fill="rgb(184,92,106)" stroke-width="1" transform="rotate(275.14285714286 0,0)"/><path d="M 0,0
	c 42,-44 30,-59 0,-102
	M 0,0
	c -42,-44 -30,-59 0,-102
	z" fill="rgb(194,102,116)" stroke-width="1" transform="rotate(288.51428571429 0,0)"/><path d="M 0,0
	c 42,-44 30,-59 0,-100
	M 0,0
	c -42,-44 -30,-59 0,-100
	z" fill="rgb(194,102,116)" stroke-width="1" transform="rotate(283.88571428571 0,0)"/><path d="M 0,0
	c 42,-44 30,-59 0,-102
	M 0,0
	c -42,-44 -30,-59 0,-102
	z" fill="rgb(184,92,106)" stroke-width="1" transform="rotate(300.85714285714 0,0)"/><circle cx="0" cy="0" r="33.333333333333" fill="#ffb566"/><circle cx="0" cy="0" r="11.111111111111" fill="#ffce99"/></g><g id="fleur2"><path d="M 0,0
	c 28,-29.333333333333 20,-39.333333333333 0,-61.333333333333
	M 0,0
	c -28,-29.333333333333 -20,-39.333333333333 0,-61.333333333333
	z" fill="rgb(184,92,106)" stroke-width="1" transform="rotate(0 0,0)"/><path d="M 0,0
	c 28,-29.333333333333 20,-39.333333333333 0,-72
	M 0,0
	c -28,-29.333333333333 -20,-39.333333333333 0,-72
	z" fill="rgb(214,122,136)" stroke-width="1" transform="rotate(49.371428571429 0,0)"/><path d="M 0,0
	c 28,-29.333333333333 20,-39.333333333333 0,-69.333333333333
	M 0,0
	c -28,-29.333333333333 -20,-39.333333333333 0,-69.333333333333
	z" fill="rgb(174,82,96)" stroke-width="1" transform="rotate(106.97142857143 0,0)"/><path d="M 0,0
	c 28,-29.333333333333 20,-39.333333333333 0,-64.666666666667
	M 0,0
	c -28,-29.333333333333 -20,-39.333333333333 0,-64.666666666667
	z" fill="rgb(204,112,126)" stroke-width="1" transform="rotate(155.82857142857 0,0)"/><path d="M 0,0
	c 28,-29.333333333333 20,-39.333333333333 0,-68
	M 0,0
	c -28,-29.333333333333 -20,-39.333333333333 0,-68
	z" fill="rgb(194,102,116)" stroke-width="1" transform="rotate(220.11428571429 0,0)"/><path d="M 0,0
	c 28,-29.333333333333 20,-39.333333333333 0,-64
	M 0,0
	c -28,-29.333333333333 -20,-39.333333333333 0,-64
	z" fill="rgb(194,102,116)" stroke-width="1" transform="rotate(272.57142857143 0,0)"/><path d="M 0,0
	c 28,-29.333333333333 20,-39.333333333333 0,-69.333333333333
	M 0,0
	c -28,-29.333333333333 -20,-39.333333333333 0,-69.333333333333
	z" fill="rgb(174,82,96)" stroke-width="1" transform="rotate(320.91428571429 0,0)"/><circle cx="0" cy="0" r="22.222222222222" fill="#ffb566"/><circle cx="0" cy="0" r="7.4074074074074" fill="#ffce99"/></g><g id="fleur3"><path d="M 0,0
	c 24,-25.142857142857 17.142857142857,-33.714285714286 0,-51.428571428571
	M 0,0
	c -24,-25.142857142857 -17.142857142857,-33.714285714286 0,-51.428571428571
	z" fill="rgb(214,122,136)" stroke-width="1" transform="rotate(0 0,0)"/><path d="M 0,0
	c 24,-25.142857142857 17.142857142857,-33.714285714286 0,-54.285714285714
	M 0,0
	c -24,-25.142857142857 -17.142857142857,-33.714285714286 0,-54.285714285714
	z" fill="rgb(204,112,126)" stroke-width="1" transform="rotate(27.692307692308 0,0)"/><path d="M 0,0
	c 24,-25.142857142857 17.142857142857,-33.714285714286 0,-62.285714285714
	M 0,0
	c -24,-25.142857142857 -17.142857142857,-33.714285714286 0,-62.285714285714
	z" fill="rgb(204,112,126)" stroke-width="1" transform="rotate(53.169230769231 0,0)"/><path d="M 0,0
	c 24,-25.142857142857 17.142857142857,-33.714285714286 0,-61.142857142857
	M 0,0
	c -24,-25.142857142857 -17.142857142857,-33.714285714286 0,-61.142857142857
	z" fill="rgb(204,112,126)" stroke-width="1" transform="rotate(86.4 0,0)"/><path d="M 0,0
	c 24,-25.142857142857 17.142857142857,-33.714285714286 0,-56
	M 0,0
	c -24,-25.142857142857 -17.142857142857,-33.714285714286 0,-56
	z" fill="rgb(174,82,96)" stroke-width="1" transform="rotate(104.12307692308 0,0)"/><path d="M 0,0
	c 24,-25.142857142857 17.142857142857,-33.714285714286 0,-54.285714285714
	M 0,0
	c -24,-25.142857142857 -17.142857142857,-33.714285714286 0,-54.285714285714
	z" fill="rgb(214,122,136)" stroke-width="1" transform="rotate(142.61538461538 0,0)"/><path d="M 0,0
	c 24,-25.142857142857 17.142857142857,-33.714285714286 0,-52.571428571429
	M 0,0
	c -24,-25.142857142857 -17.142857142857,-33.714285714286 0,-52.571428571429
	z" fill="rgb(184,92,106)" stroke-width="1" transform="rotate(164.49230769231 0,0)"/><path d="M 0,0
	c 24,-25.142857142857 17.142857142857,-33.714285714286 0,-57.714285714286
	M 0,0
	c -24,-25.142857142857 -17.142857142857,-33.714285714286 0,-57.714285714286
	z" fill="rgb(214,122,136)" stroke-width="1" transform="rotate(207.41538461538 0,0)"/><path d="M 0,0
	c 24,-25.142857142857 17.142857142857,-33.714285714286 0,-55.428571428571
	M 0,0
	c -24,-25.142857142857 -17.142857142857,-33.714285714286 0,-55.428571428571
	z" fill="rgb(194,102,116)" stroke-width="1" transform="rotate(239.26153846154 0,0)"/><path d="M 0,0
	c 24,-25.142857142857 17.142857142857,-33.714285714286 0,-61.142857142857
	M 0,0
	c -24,-25.142857142857 -17.142857142857,-33.714285714286 0,-61.142857142857
	z" fill="rgb(174,82,96)" stroke-width="1" transform="rotate(269.16923076923 0,0)"/><path d="M 0,0
	c 24,-25.142857142857 17.142857142857,-33.714285714286 0,-54.857142857143
	M 0,0
	c -24,-25.142857142857 -17.142857142857,-33.714285714286 0,-54.857142857143
	z" fill="rgb(204,112,126)" stroke-width="1" transform="rotate(290.76923076923 0,0)"/><path d="M 0,0
	c 24,-25.142857142857 17.142857142857,-33.714285714286 0,-54.285714285714
	M 0,0
	c -24,-25.142857142857 -17.142857142857,-33.714285714286 0,-54.285714285714
	z" fill="rgb(194,102,116)" stroke-width="1" transform="rotate(298.52307692308 0,0)"/><path d="M 0,0
	c 24,-25.142857142857 17.142857142857,-33.714285714286 0,-62.285714285714
	M 0,0
	c -24,-25.142857142857 -17.142857142857,-33.714285714286 0,-62.285714285714
	z" fill="rgb(174,82,96)" stroke-width="1" transform="rotate(342.27692307692 0,0)"/><circle cx="0" cy="0" r="19.047619047619" fill="#ffb566"/><circle cx="0" cy="0" r="6.3492063492063" fill="#ffce99"/></g><g id="fleur4"><path d="M 0,0
	c 21,-22 15,-29.5 0,-53.5
	M 0,0
	c -21,-22 -15,-29.5 0,-53.5
	z" fill="rgb(184,92,106)" stroke-width="1" transform="rotate(0 0,0)"/><path d="M 0,0
	c 21,-22 15,-29.5 0,-52
	M 0,0
	c -21,-22 -15,-29.5 0,-52
	z" fill="rgb(214,122,136)" stroke-width="1" transform="rotate(27 0,0)"/><path d="M 0,0
	c 21,-22 15,-29.5 0,-50.5
	M 0,0
	c -21,-22 -15,-29.5 0,-50.5
	z" fill="rgb(194,102,116)" stroke-width="1" transform="rotate(47.828571428571 0,0)"/><path d="M 0,0
	c 21,-22 15,-29.5 0,-54.5
	M 0,0
	c -21,-22 -15,-29.5 0,-54.5
	z" fill="rgb(204,112,126)" stroke-width="1" transform="rotate(78.685714285714 0,0)"/><path d="M 0,0
	c 21,-22 15,-29.5 0,-53.5
	M 0,0
	c -21,-22 -15,-29.5 0,-53.5
	z" fill="rgb(194,102,116)" stroke-width="1" transform="rotate(109.02857142857 0,0)"/><path d="M 0,0
	c 21,-22 15,-29.5 0,-52
	M 0,0
	c -21,-22 -15,-29.5 0,-52
	z" fill="rgb(214,122,136)" stroke-width="1" transform="rotate(135 0,0)"/><path d="M 0,0
	c 21,-22 15,-29.5 0,-51.5
	M 0,0
	c -21,-22 -15,-29.5 0,-51.5
	z" fill="rgb(184,92,106)" stroke-width="1" transform="rotate(160.45714285714 0,0)"/><path d="M 0,0
	c 21,-22 15,-29.5 0,-52
	M 0,0
	c -21,-22 -15,-29.5 0,-52
	z" fill="rgb(184,92,106)" stroke-width="1" transform="rotate(181.8 0,0)"/><path d="M 0,0
	c 21,-22 15,-29.5 0,-54.5
	M 0,0
	c -21,-22 -15,-29.5 0,-54.5
	z" fill="rgb(194,102,116)" stroke-width="1" transform="rotate(189.25714285714 0,0)"/><path d="M 0,0
	c 21,-22 15,-29.5 0,-55
	M 0,0
	c -21,-22 -15,-29.5 0,-55
	z" fill="rgb(194,102,116)" stroke-width="1" transform="rotate(212.91428571429 0,0)"/><path d="M 0,0
	c 21,-22 15,-29.5 0,-45
	M 0,0
	c -21,-22 -15,-29.5 0,-45
	z" fill="rgb(194,102,116)" stroke-width="1" transform="rotate(252 0,0)"/><path d="M 0,0
	c 21,-22 15,-29.5 0,-53.5
	M 0,0
	c -21,-22 -15,-29.5 0,-53.5
	z" fill="rgb(194,102,116)" stroke-width="1" transform="rotate(260.22857142857 0,0)"/><path d="M 0,0
	c 21,-22 15,-29.5 0,-54.5
	M 0,0
	c -21,-22 -15,-29.5 0,-54.5
	z" fill="rgb(174,82,96)" stroke-width="1" transform="rotate(308.57142857143 0,0)"/><path d="M 0,0
	c 21,-22 15,-29.5 0,-55
	M 0,0
	c -21,-22 -15,-29.5 0,-55
	z" fill="rgb(174,82,96)" stroke-width="1" transform="rotate(340.97142857143 0,0)"/><circle cx="0" cy="0" r="16.666666666667" fill="#ffb566"/><circle cx="0" cy="0" r="5.5555555555556" fill="#ffce99"/></g></defs><use xlink:href="#feuille2"
		x="281.169" y="397.53545" 
		transform="rotate(86.7 281.169,397.53545)"
		fill="rgb(208,189,105)" /><use xlink:href="#feuille2"
		x="281.169" y="397.53545" 
		transform="rotate(-60.8 281.169,397.53545)"
		fill="rgb(158,139,55)" /><use xlink:href="#feuille1"
	x="273.663" y="461.17715" 
	transform="rotate(-48  273.663,461.17715)"
	fill="rgb(168,149,65)" /><path d="M 273 480 c 4,-135.8 16,-58.2 60,-194  " stroke="rgb(151,75,100)" stroke-width="18" fill="transparent"/><use xlink:href="#fleur1"
x="333" y="286" 
fill="Pink" /><use xlink:href="#feuille3"
		x="275.8048" y="403.2192" 
		transform="rotate(-69.9 275.8048,403.2192)"
		fill="rgb(148,129,45)" /><use xlink:href="#feuille4"
		x="275.8048" y="403.2192" 
		transform="rotate(64.5 275.8048,403.2192)"
		fill="rgb(188,169,85)" /><use xlink:href="#feuille2"
		x="275.8048" y="403.2192" 
		transform="rotate(-91.5 275.8048,403.2192)"
		fill="rgb(158,139,55)" /><use xlink:href="#feuille3"
		x="275.8048" y="403.2192" 
		transform="rotate(83.8 275.8048,403.2192)"
		fill="rgb(188,169,85)" /><use xlink:href="#feuille2"
		x="275.8048" y="403.2192" 
		transform="rotate(93 275.8048,403.2192)"
		fill="rgb(168,149,65)" /><use xlink:href="#feuille3"
		x="275.8048" y="403.2192" 
		transform="rotate(59.5 275.8048,403.2192)"
		fill="rgb(158,139,55)" /><use xlink:href="#feuille3"
		x="275.8048" y="403.2192" 
		transform="rotate(-100.1 275.8048,403.2192)"
		fill="rgb(148,129,45)" /><use xlink:href="#feuille2"
		x="275.8048" y="403.2192" 
		transform="rotate(-83.8 275.8048,403.2192)"
		fill="rgb(178,159,75)" /><use xlink:href="#feuille2"
		x="275.8048" y="403.2192" 
		transform="rotate(90.2 275.8048,403.2192)"
		fill="rgb(158,139,55)" /><use xlink:href="#feuille1"
	x="291.7636" y="468.09115" 
	transform="rotate(51  291.7636,468.09115)"
	fill="rgb(178,159,75)" /><path d="M 295 480 c -24.8,-86 18.6,-34.4 -93,-172  " stroke="rgb(151,75,100)" stroke-width="16" fill="transparent"/><use xlink:href="#fleur2"
x="202" y="308" 
fill="Pink" /><use xlink:href="#feuille4"
		x="319.044025" y="366.602025" 
		transform="rotate(-77.1 319.044025,366.602025)"
		fill="rgb(178,159,75)" /><use xlink:href="#feuille3"
		x="319.044025" y="366.602025" 
		transform="rotate(-75.6 319.044025,366.602025)"
		fill="rgb(148,129,45)" /><use xlink:href="#feuille2"
		x="319.044025" y="366.602025" 
		transform="rotate(91.7 319.044025,366.602025)"
		fill="rgb(178,159,75)" /><use xlink:href="#feuille3"
		x="319.044025" y="366.602025" 
		transform="rotate(88.1 319.044025,366.602025)"
		fill="rgb(148,129,45)" /><use xlink:href="#feuille2"
		x="319.044025" y="366.602025" 
		transform="rotate(93.3 319.044025,366.602025)"
		fill="rgb(188,169,85)" /><use xlink:href="#feuille4"
		x="319.044025" y="366.602025" 
		transform="rotate(75.8 319.044025,366.602025)"
		fill="rgb(178,159,75)" /><use xlink:href="#feuille4"
		x="319.044025" y="366.602025" 
		transform="rotate(93.2 319.044025,366.602025)"
		fill="rgb(158,139,55)" /><use xlink:href="#feuille4"
		x="319.044025" y="366.602025" 
		transform="rotate(88.3 319.044025,366.602025)"
		fill="rgb(148,129,45)" /><use xlink:href="#feuille4"
		x="319.044025" y="366.602025" 
		transform="rotate(-49.8 319.044025,366.602025)"
		fill="rgb(158,139,55)" /><use xlink:href="#feuille4"
		x="319.044025" y="366.602025" 
		transform="rotate(92 319.044025,366.602025)"
		fill="rgb(208,189,105)" /><use xlink:href="#feuille1"
	x="314.512225" y="460.266225" 
	transform="rotate(41  314.512225,460.266225)"
	fill="rgb(168,149,65)" /><path d="M 316 480 c -11.066666666667,-139.2 0,-121.8 83,-174  " stroke="rgb(151,75,100)" stroke-width="14" fill="transparent"/><use xlink:href="#fleur3"
x="399" y="306" 
fill="Pink" /></svg>