<?xml version="1.0" encoding="iso-8859-1"?>
<svg version="1.1" id="Capa_1" xmlns="http://www.w3.org/2000/svg" xmlns:xlink="http://www.w3.org/1999/xlink" x="0px" y="0px"
viewBox="0 0 500 500" xml:space="preserve"><defs><g id="feuille1">
<path d="M 0,0
c 34,-96 59,-76.8 0,-141
M 0,0
c -34,-96 -59,-76.8 0,-141
z" stroke="#85e085" stroke-width="0"/>
<polygon points="-3,3, 0,-98.7 3 3" stroke="rgb(97,150,87)" stroke-width="2" fill="rgb(97,150,87)"/>
</g>
<g id="feuille2">
<path d="M 0,0
c 22.666666666667,-64 39.333333333333,-51.2 0,-94
M 0,0
c -22.666666666667,-64 -39.333333333333,-51.2 0,-94
z" stroke="#85e085" stroke-width="0"/>
<polygon points="-3 3, 0,-65.8, 3 3" stroke="rgb(97,150,87)" stroke-width="1" fill="rgb(97,150,87)"/>
</g><g id="feuille3">
<path d="M 0,0
c 17,-48 29.5,-38.4 0,-70.5
M 0,0
c -17,-48 -29.5,-38.4 0,-70.5
z" stroke="#85e085" stroke-width="0"/>
<polygon points="-3 3, 0,-49.35, 3 3" stroke="rgb(97,150,87)" stroke-width="1" fill="rgb(97,150,87)"/>
</g><g id="feuille4">
<path d="M 0,0
c 13.6,-38.4 23.6,-30.72 0,-56.4
M 0,0
c -13.6,-38.4 -23.6,-30.72 0,-56.4
z" stroke="#85e085" stroke-width="0"/>
<polygon points="-3 3, 0,-39.48, 3 3" stroke="rgb(97,150,87)" stroke-width="1" fill="rgb(97,150,87)"/>
</g><g id="fleur1"><path d="M 0,0
	c 23,-46 47,-36.8 0,-63
	M 0,0
	c -23,-46 -47,-36.8 0,-63
	z" fill="rgb(84,139,189)" stroke-width="1" transform="rotate(0 0,0)"/><path d="M 0,0
	c 23,-46 47,-36.8 0,-74
	M 0,0
	c -23,-46 -47,-36.8 0,-74
	z" fill="rgb(74,129,179)" stroke-width="1" transform="rotate(41.4 0,0)"/><path d="M 0,0
	c 23,-46 47,-36.8 0,-68
	M 0,0
	c -23,-46 -47,-36.8 0,-68
	z" fill="rgb(94,149,199)" stroke-width="1" transform="rotate(93.6 0,0)"/><path d="M 0,0
	c 23,-46 47,-36.8 0,-72
	M 0,0
	c -23,-46 -47,-36.8 0,-72
	z" fill="rgb(74,129,179)" stroke-width="1" transform="rotate(133.65 0,0)"/><path d="M 0,0
	c 23,-46 47,-36.8 0,-71
	M 0,0
	c -23,-46 -47,-36.8 0,-71
	z" fill="rgb(104,159,209)" stroke-width="1" transform="rotate(196.2 0,0)"/><path d="M 0,0
	c 23,-46 47,-36.8 0,-69
	M 0,0
	c -23,-46 -47,-36.8 0,-69
	z" fill="rgb(64,119,169)" stroke-width="1" transform="rotate(213.75 0,0)"/><path d="M 0,0
	c 23,-46 47,-36.8 0,-74
	M 0,0
	c -23,-46 -47,-36.8 0,-74
	z" fill="rgb(74,129,179)" stroke-width="1" transform="rotate(264.6 0,0)"/><path d="M 0,0
	c 23,-46 47,-36.8 0,-75
	M 0,0
	c -23,-46 -47,-36.8 0,-75
	z" fill="rgb(94,149,199)" stroke-width="1" transform="rotate(315 0,0)"/><circle cx="0" cy="0" r="11.166666666667" fill="#ffb566"/><circle cx="0" cy="0" r="3.7222222222222" fill="#ffce99"/></g><g id="fleur2"><path d="M 0,0
	c 15.333333333333,-30.666666666667 31.333333333333,-24.533333333333 0,-39.333333333333
	M 0,0
	c -15.333333333333,-30.666666666667 -31.333333333333,-24.533333333333 0,-39.333333333333
	z" fill="rgb(104,159,209)" stroke-width="1" transform="rotate(0 0,0)"/><path d="M 0,0
	c 15.333333333333,-30.666666666667 31.333333333333,-24.533333333333 0,-46.666666666667
	M 0,0
	c -15.333333333333,-30.666666666667 -31.333333333333,-24.533333333333 0,-46.666666666667
	z" fill="rgb(74,129,179)" stroke-width="1" transform="rotate(24.72 0,0)"/><path d="M 0,0
	c 15.333333333333,-30.666666666667 31.333333333333,-24.533333333333 0,-42
	M 0,0
	c -15.333333333333,-30.666666666667 -31.333333333333,-24.533333333333 0,-42
	z" fill="rgb(84,139,189)" stroke-width="1" transform="rotate(49.92 0,0)"/><path d="M 0,0
	c 15.333333333333,-30.666666666667 31.333333333333,-24.533333333333 0,-48
	M 0,0
	c -15.333333333333,-30.666666666667 -31.333333333333,-24.533333333333 0,-48
	z" fill="rgb(94,149,199)" stroke-width="1" transform="rotate(66.96 0,0)"/><path d="M 0,0
	c 15.333333333333,-30.666666666667 31.333333333333,-24.533333333333 0,-51.333333333333
	M 0,0
	c -15.333333333333,-30.666666666667 -31.333333333333,-24.533333333333 0,-51.333333333333
	z" fill="rgb(74,129,179)" stroke-width="1" transform="rotate(90.24 0,0)"/><path d="M 0,0
	c 15.333333333333,-30.666666666667 31.333333333333,-24.533333333333 0,-38
	M 0,0
	c -15.333333333333,-30.666666666667 -31.333333333333,-24.533333333333 0,-38
	z" fill="rgb(104,159,209)" stroke-width="1" transform="rotate(118.8 0,0)"/><path d="M 0,0
	c 15.333333333333,-30.666666666667 31.333333333333,-24.533333333333 0,-44
	M 0,0
	c -15.333333333333,-30.666666666667 -31.333333333333,-24.533333333333 0,-44
	z" fill="rgb(104,159,209)" stroke-width="1" transform="rotate(145.44 0,0)"/><path d="M 0,0
	c 15.333333333333,-30.666666666667 31.333333333333,-24.533333333333 0,-40.666666666667
	M 0,0
	c -15.333333333333,-30.666666666667 -31.333333333333,-24.533333333333 0,-40.666666666667
	z" fill="rgb(74,129,179)" stroke-width="1" transform="rotate(166.32 0,0)"/><path d="M 0,0
	c 15.333333333333,-30.666666666667 31.333333333333,-24.533333333333 0,-46
	M 0,0
	c -15.333333333333,-30.666666666667 -31.333333333333,-24.533333333333 0,-46
	z" fill="rgb(64,119,169)" stroke-width="1" transform="rotate(201.6 0,0)"/><path d="M 0,0
	c 15.333333333333,-30.666666666667 31.333333333333,-24.533333333333 0,-46
	M 0,0
	c -15.333333333333,-30.666666666667 -31.333333333333,-24.533333333333 0,-46
	z" fill="rgb(94,149,199)" stroke-width="1" transform="rotate(237.6 0,0)"/><path d="M 0,0
	c 15.333333333333,-30.666666666667 31.333333333333,-24.533333333333 0,-46.666666666667
	M 0,0
	c -15.333333333333,-30.666666666667 -31.333333333333,-24.533333333333 0,-46.666666666667
	z" fill="rgb(74,129,179)" stroke-width="1" transform="rotate(242.4 0,0)"/><path d="M 0,0
	c 15.333333333333,-30.666666666667 31.333333333333,-24.533333333333 0,-44.666666666667
	M 0,0
	c -15.333333333333,-30.666666666667 -31.333333333333,-24.533333333333 0,-44.666666666667
	z" fill="rgb(94,149,199)" stroke-width="1" transform="rotate(266.64 0,0)"/><path d="M 0,0
	c 15.333333333333,-30.666666666667 31.333333333333,-24.533333333333 0,-48.666666666667
	M 0,0
	c -15.333333333333,-30.666666666667 -31.333333333333,-24.533333333333 0,-48.666666666667
	z" fill="rgb(64,119,169)" stroke-width="1" transform="rotate(299.52 0,0)"/><path d="M 0,0
	c 15.333333333333,-30.666666666667 31.333333333333,-24.533333333333 0,-44
	M 0,0
	c -15.333333333333,-30.666666666667 -31.333333333333,-24.533333333333 0,-44
	z" fill="rgb(64,119,169)" stroke-width="1" transform="rotate(312 0,0)"/><path d="M 0,0
	c 15.333333333333,-30.666666666667 31.333333333333,-24.533333333333 0,-40.666666666667
	M 0,0
	c -15.333333333333,-30.666666666667 -31.333333333333,-24.533333333333 0,-40.666666666667
	z" fill="rgb(84,139,189)" stroke-width="1" transform="rotate(315.84 0,0)"/><circle cx="0" cy="0" r="7.4444444444444" fill="#ffb566"/><circle cx="0" cy="0" r="2.4814814814815" fill="#ffce99"/></g><g id="fleur3"><path d="M 0,0
	c 13.142857142857,-26.285714285714 26.857142857143,-21.028571428571 0,-34.285714285714
	M 0,0
	c -13.142857142857,-26.285714285714 -26.857142857143,-21.028571428571 0,-34.285714285714
	z" fill="rgb(64,119,169)" stroke-width="1" transform="rotate(0 0,0)"/><path d="M 0,0
	c 13.142857142857,-26.285714285714 26.857142857143,-21.028571428571 0,-33.142857142857
	M 0,0
	c -13.142857142857,-26.285714285714 -26.857142857143,-21.028571428571 0,-33.142857142857
	z" fill="rgb(94,149,199)" stroke-width="1" transform="rotate(65.4 0,0)"/><path d="M 0,0
	c 13.142857142857,-26.285714285714 26.857142857143,-21.028571428571 0,-37.142857142857
	M 0,0
	c -13.142857142857,-26.285714285714 -26.857142857143,-21.028571428571 0,-37.142857142857
	z" fill="rgb(64,119,169)" stroke-width="1" transform="rotate(110.4 0,0)"/><path d="M 0,0
	c 13.142857142857,-26.285714285714 26.857142857143,-21.028571428571 0,-36.571428571429
	M 0,0
	c -13.142857142857,-26.285714285714 -26.857142857143,-21.028571428571 0,-36.571428571429
	z" fill="rgb(64,119,169)" stroke-width="1" transform="rotate(190.8 0,0)"/><path d="M 0,0
	c 13.142857142857,-26.285714285714 26.857142857143,-21.028571428571 0,-35.428571428571
	M 0,0
	c -13.142857142857,-26.285714285714 -26.857142857143,-21.028571428571 0,-35.428571428571
	z" fill="rgb(74,129,179)" stroke-width="1" transform="rotate(237.6 0,0)"/><path d="M 0,0
	c 13.142857142857,-26.285714285714 26.857142857143,-21.028571428571 0,-41.714285714286
	M 0,0
	c -13.142857142857,-26.285714285714 -26.857142857143,-21.028571428571 0,-41.714285714286
	z" fill="rgb(74,129,179)" stroke-width="1" transform="rotate(282 0,0)"/><circle cx="0" cy="0" r="6.3809523809524" fill="#ffb566"/><circle cx="0" cy="0" r="2.1269841269841" fill="#ffce99"/></g><g id="fleur4"><path d="M 0,0
	c 11.5,-23 23.5,-18.4 0,-36.5
	M 0,0
	c -11.5,-23 -23.5,-18.4 0,-36.5
	z" fill="rgb(84,139,189)" stroke-width="1" transform="rotate(0 0,0)"/><path d="M 0,0
	c 11.5,-23 23.5,-18.4 0,-38
	M 0,0
	c -11.5,-23 -23.5,-18.4 0,-38
	z" fill="rgb(104,159,209)" stroke-width="1" transform="rotate(72 0,0)"/><path d="M 0,0
	c 11.5,-23 23.5,-18.4 0,-33
	M 0,0
	c -11.5,-23 -23.5,-18.4 0,-33
	z" fill="rgb(84,139,189)" stroke-width="1" transform="rotate(135.36 0,0)"/><path d="M 0,0
	c 11.5,-23 23.5,-18.4 0,-31
	M 0,0
	c -11.5,-23 -23.5,-18.4 0,-31
	z" fill="rgb(94,149,199)" stroke-width="1" transform="rotate(231.12 0,0)"/><path d="M 0,0
	c 11.5,-23 23.5,-18.4 0,-35.5
	M 0,0
	c -11.5,-23 -23.5,-18.4 0,-35.5
	z" fill="rgb(84,139,189)" stroke-width="1" transform="rotate(273.6 0,0)"/><circle cx="0" cy="0" r="5.5833333333333" fill="#ffb566"/><circle cx="0" cy="0" r="1.8611111111111" fill="#ffce99"/></g></defs><use xlink:href="#feuille2"
		x="243.9732" y="276.167" 
		transform="rotate(-73.9 243.9732,276.167)"
		fill="rgb(211,185,120)" /><use xlink:href="#feuille1"
	x="238.1388" y="459.127375" 
	transform="rotate(67  238.1388,459.127375)"
	fill="rgb(181,155,90)" /><path d="M 240 480 c -13.2,-148 -11,-111 33,-370  " stroke="rgb(97,150,87)" stroke-width="18" fill="transparent"/><use xlink:href="#fleur1"
x="273" y="110" 
fill="Pink" /><use xlink:href="#feuille3"
		x="182.2984" y="291.1932" 
		transform="rotate(-98.4 182.2984,291.1932)"
		fill="rgb(211,185,120)" /><use xlink:href="#feuille3"
		x="182.2984" y="291.1932" 
		transform="rotate(59.2 182.2984,291.1932)"
		fill="rgb(221,195,130)" /><use xlink:href="#feuille4"
		x="182.2984" y="291.1932" 
		transform="rotate(76.6 182.2984,291.1932)"
		fill="rgb(181,155,90)" /><use xlink:href="#feuille3"
		x="182.2984" y="291.1932" 
		transform="rotate(-73.4 182.2984,291.1932)"
		fill="rgb(211,185,120)" /><use xlink:href="#feuille3"
		x="182.2984" y="291.1932" 
		transform="rotate(-59.9 182.2984,291.1932)"
		fill="rgb(211,185,120)" /><use xlink:href="#feuille4"
		x="182.2984" y="291.1932" 
		transform="rotate(58.4 182.2984,291.1932)"
		fill="rgb(181,155,90)" /><use xlink:href="#feuille2"
		x="182.2984" y="291.1932" 
		transform="rotate(-105 182.2984,291.1932)"
		fill="rgb(201,175,110)" /><use xlink:href="#feuille4"
		x="182.2984" y="291.1932" 
		transform="rotate(-61.1 182.2984,291.1932)"
		fill="rgb(171,145,80)" /><use xlink:href="#feuille1"
	x="183.6166" y="457.06605" 
	transform="rotate(67  183.6166,457.06605)"
	fill="rgb(171,145,80)" /><path d="M 193 480 c -72.8,-159.6 67.6,-182.4 -78,-228  " stroke="rgb(97,150,87)" stroke-width="16" fill="transparent"/><use xlink:href="#fleur2"
x="115" y="252" 
fill="Pink" /><use xlink:href="#feuille4"
		x="193.5886" y="437.034" 
		transform="rotate(73.2 193.5886,437.034)"
		fill="rgb(181,155,90)" /><use xlink:href="#feuille1"
	x="193.101475" y="471.20275" 
	transform="rotate(-76  193.101475,471.20275)"
	fill="rgb(171,145,80)" /><use xlink:href="#feuille1"
	x="193.101475" y="471.20275" 
	transform="rotate(71  193.101475,471.20275)"
	fill="rgb(201,175,110)" /><use xlink:href="#feuille1"
	x="193.101475" y="471.20275" 
	transform="rotate(-66  193.101475,471.20275)"
	fill="rgb(211,185,120)" /><path d="M 193 480 c 0.6,-61.6 3,-61.6 -9,-154  " stroke="rgb(97,150,87)" stroke-width="14" fill="transparent"/><use xlink:href="#fleur3"
x="184" y="326" 
fill="Pink" /></svg>