<?xml version="1.0" encoding="iso-8859-1"?>
<svg version="1.1" id="Capa_1" xmlns="http://www.w3.org/2000/svg" xmlns:xlink="http://www.w3.org/1999/xlink" x="0px" y="0px"
viewBox="0 0 500 500" xml:space="preserve"><defs><g id="feuille1">
<path d="M 0,0
c 27,-68 22,-96 0,-83
M 0,0
c -27,-68 -22,-96 0,-83
z" stroke="#85e085" stroke-width="0"/>
<polygon points="-3,3, 0,-58.1 3 3" stroke="rgb(74,61,181)" stroke-width="2" fill="rgb(74,61,181)"/>
</g>
<g id="feuille2">
<path d="M 0,0
c 18,-45.333333333333 14.666666666667,-64 0,-55.333333333333
M 0,0
c -18,-45.333333333333 -14.666666666667,-64 0,-55.333333333333
z" stroke="#85e085" stroke-width="0"/>
<polygon points="-3 3, 0,-38.733333333333, 3 3" stroke="rgb(74,61,181)" stroke-width="1" fill="rgb(74,61,181)"/>
</g><g id="feuille3">
<path d="M 0,0
c 13.5,-34 11,-48 0,-41.5
M 0,0
c -13.5,-34 -11,-48 0,-41.5
z" stroke="#85e085" stroke-width="0"/>
<polygon points="-3 3, 0,-29.05, 3 3" stroke="rgb(74,61,181)" stroke-width="1" fill="rgb(74,61,181)"/>
</g><g id="feuille4">
<path d="M 0,0
c 10.8,-27.2 8.8,-38.4 0,-33.2
M 0,0
c -10.8,-27.2 -8.8,-38.4 0,-33.2
z" stroke="#85e085" stroke-width="0"/>
<polygon points="-3 3, 0,-23.24, 3 3" stroke="rgb(74,61,181)" stroke-width="1" fill="rgb(74,61,181)"/>
</g><g id="fleur1"><path d="M 0,0
	c 34,-40 25,-32 0,-79
	M 0,0
	c -34,-40 -25,-32 0,-79
	z" fill="rgb(98,184,170)" stroke-width="1" transform="rotate(0 0,0)"/><path d="M 0,0
	c 34,-40 25,-32 0,-84
	M 0,0
	c -34,-40 -25,-32 0,-84
	z" fill="rgb(98,184,170)" stroke-width="1" transform="rotate(47.7 0,0)"/><path d="M 0,0
	c 34,-40 25,-32 0,-69
	M 0,0
	c -34,-40 -25,-32 0,-69
	z" fill="rgb(78,164,150)" stroke-width="1" transform="rotate(81.9 0,0)"/><path d="M 0,0
	c 34,-40 25,-32 0,-82
	M 0,0
	c -34,-40 -25,-32 0,-82
	z" fill="rgb(98,184,170)" stroke-width="1" transform="rotate(144.45 0,0)"/><path d="M 0,0
	c 34,-40 25,-32 0,-74
	M 0,0
	c -34,-40 -25,-32 0,-74
	z" fill="rgb(98,184,170)" stroke-width="1" transform="rotate(165.6 0,0)"/><path d="M 0,0
	c 34,-40 25,-32 0,-65
	M 0,0
	c -34,-40 -25,-32 0,-65
	z" fill="rgb(68,154,140)" stroke-width="1" transform="rotate(216 0,0)"/><path d="M 0,0
	c 34,-40 25,-32 0,-78
	M 0,0
	c -34,-40 -25,-32 0,-78
	z" fill="rgb(108,194,180)" stroke-width="1" transform="rotate(275.4 0,0)"/><path d="M 0,0
	c 34,-40 25,-32 0,-78
	M 0,0
	c -34,-40 -25,-32 0,-78
	z" fill="rgb(98,184,170)" stroke-width="1" transform="rotate(343.35 0,0)"/><circle cx="0" cy="0" r="37" fill="#ffb566"/><circle cx="0" cy="0" r="12.333333333333" fill="#ffce99"/></g><g id="fleur2"><path d="M 0,0
	c 22.666666666667,-26.666666666667 16.666666666667,-21.333333333333 0,-56
	M 0,0
	c -22.666666666667,-26.666666666667 -16.666666666667,-21.333333333333 0,-56
	z" fill="rgb(98,184,170)" stroke-width="1" transform="rotate(0 0,0)"/><path d="M 0,0
	c 22.666666666667,-26.666666666667 16.666666666667,-21.333333333333 0,-52
	M 0,0
	c -22.666666666667,-26.666666666667 -16.666666666667,-21.333333333333 0,-52
	z" fill="rgb(78,164,150)" stroke-width="1" transform="rotate(26.307692307692 0,0)"/><path d="M 0,0
	c 22.666666666667,-26.666666666667 16.666666666667,-21.333333333333 0,-54
	M 0,0
	c -22.666666666667,-26.666666666667 -16.666666666667,-21.333333333333 0,-54
	z" fill="rgb(68,154,140)" stroke-width="1" transform="rotate(53.723076923077 0,0)"/><path d="M 0,0
	c 22.666666666667,-26.666666666667 16.666666666667,-21.333333333333 0,-47.333333333333
	M 0,0
	c -22.666666666667,-26.666666666667 -16.666666666667,-21.333333333333 0,-47.333333333333
	z" fill="rgb(78,164,150)" stroke-width="1" transform="rotate(84.738461538462 0,0)"/><path d="M 0,0
	c 22.666666666667,-26.666666666667 16.666666666667,-21.333333333333 0,-43.333333333333
	M 0,0
	c -22.666666666667,-26.666666666667 -16.666666666667,-21.333333333333 0,-43.333333333333
	z" fill="rgb(78,164,150)" stroke-width="1" transform="rotate(112.98461538462 0,0)"/><path d="M 0,0
	c 22.666666666667,-26.666666666667 16.666666666667,-21.333333333333 0,-48
	M 0,0
	c -22.666666666667,-26.666666666667 -16.666666666667,-21.333333333333 0,-48
	z" fill="rgb(68,154,140)" stroke-width="1" transform="rotate(139.84615384615 0,0)"/><path d="M 0,0
	c 22.666666666667,-26.666666666667 16.666666666667,-21.333333333333 0,-48.666666666667
	M 0,0
	c -22.666666666667,-26.666666666667 -16.666666666667,-21.333333333333 0,-48.666666666667
	z" fill="rgb(68,154,140)" stroke-width="1" transform="rotate(177.78461538462 0,0)"/><path d="M 0,0
	c 22.666666666667,-26.666666666667 16.666666666667,-21.333333333333 0,-49.333333333333
	M 0,0
	c -22.666666666667,-26.666666666667 -16.666666666667,-21.333333333333 0,-49.333333333333
	z" fill="rgb(98,184,170)" stroke-width="1" transform="rotate(209.35384615385 0,0)"/><path d="M 0,0
	c 22.666666666667,-26.666666666667 16.666666666667,-21.333333333333 0,-52
	M 0,0
	c -22.666666666667,-26.666666666667 -16.666666666667,-21.333333333333 0,-52
	z" fill="rgb(88,174,160)" stroke-width="1" transform="rotate(212.67692307692 0,0)"/><path d="M 0,0
	c 22.666666666667,-26.666666666667 16.666666666667,-21.333333333333 0,-52
	M 0,0
	c -22.666666666667,-26.666666666667 -16.666666666667,-21.333333333333 0,-52
	z" fill="rgb(98,184,170)" stroke-width="1" transform="rotate(226.8 0,0)"/><path d="M 0,0
	c 22.666666666667,-26.666666666667 16.666666666667,-21.333333333333 0,-52.666666666667
	M 0,0
	c -22.666666666667,-26.666666666667 -16.666666666667,-21.333333333333 0,-52.666666666667
	z" fill="rgb(98,184,170)" stroke-width="1" transform="rotate(252 0,0)"/><path d="M 0,0
	c 22.666666666667,-26.666666666667 16.666666666667,-21.333333333333 0,-44
	M 0,0
	c -22.666666666667,-26.666666666667 -16.666666666667,-21.333333333333 0,-44
	z" fill="rgb(88,174,160)" stroke-width="1" transform="rotate(328.98461538462 0,0)"/><path d="M 0,0
	c 22.666666666667,-26.666666666667 16.666666666667,-21.333333333333 0,-54
	M 0,0
	c -22.666666666667,-26.666666666667 -16.666666666667,-21.333333333333 0,-54
	z" fill="rgb(78,164,150)" stroke-width="1" transform="rotate(335.63076923077 0,0)"/><circle cx="0" cy="0" r="24.666666666667" fill="#ffb566"/><circle cx="0" cy="0" r="8.2222222222222" fill="#ffce99"/></g><g id="fleur3"><path d="M 0,0
	c 19.428571428571,-22.857142857143 14.285714285714,-18.285714285714 0,-48
	M 0,0
	c -19.428571428571,-22.857142857143 -14.285714285714,-18.285714285714 0,-48
	z" fill="rgb(88,174,160)" stroke-width="1" transform="rotate(0 0,0)"/><path d="M 0,0
	c 19.428571428571,-22.857142857143 14.285714285714,-18.285714285714 0,-46.857142857143
	M 0,0
	c -19.428571428571,-22.857142857143 -14.285714285714,-18.285714285714 0,-46.857142857143
	z" fill="rgb(98,184,170)" stroke-width="1" transform="rotate(44.1 0,0)"/><path d="M 0,0
	c 19.428571428571,-22.857142857143 14.285714285714,-18.285714285714 0,-38.285714285714
	M 0,0
	c -19.428571428571,-22.857142857143 -14.285714285714,-18.285714285714 0,-38.285714285714
	z" fill="rgb(68,154,140)" stroke-width="1" transform="rotate(89.1 0,0)"/><path d="M 0,0
	c 19.428571428571,-22.857142857143 14.285714285714,-18.285714285714 0,-44
	M 0,0
	c -19.428571428571,-22.857142857143 -14.285714285714,-18.285714285714 0,-44
	z" fill="rgb(68,154,140)" stroke-width="1" transform="rotate(126.9 0,0)"/><path d="M 0,0
	c 19.428571428571,-22.857142857143 14.285714285714,-18.285714285714 0,-45.142857142857
	M 0,0
	c -19.428571428571,-22.857142857143 -14.285714285714,-18.285714285714 0,-45.142857142857
	z" fill="rgb(108,194,180)" stroke-width="1" transform="rotate(163.8 0,0)"/><path d="M 0,0
	c 19.428571428571,-22.857142857143 14.285714285714,-18.285714285714 0,-41.142857142857
	M 0,0
	c -19.428571428571,-22.857142857143 -14.285714285714,-18.285714285714 0,-41.142857142857
	z" fill="rgb(88,174,160)" stroke-width="1" transform="rotate(207 0,0)"/><path d="M 0,0
	c 19.428571428571,-22.857142857143 14.285714285714,-18.285714285714 0,-41.142857142857
	M 0,0
	c -19.428571428571,-22.857142857143 -14.285714285714,-18.285714285714 0,-41.142857142857
	z" fill="rgb(78,164,150)" stroke-width="1" transform="rotate(280.8 0,0)"/><path d="M 0,0
	c 19.428571428571,-22.857142857143 14.285714285714,-18.285714285714 0,-37.714285714286
	M 0,0
	c -19.428571428571,-22.857142857143 -14.285714285714,-18.285714285714 0,-37.714285714286
	z" fill="rgb(98,184,170)" stroke-width="1" transform="rotate(286.65 0,0)"/><circle cx="0" cy="0" r="21.142857142857" fill="#ffb566"/><circle cx="0" cy="0" r="7.047619047619" fill="#ffce99"/></g><g id="fleur4"><path d="M 0,0
	c 17,-20 12.5,-16 0,-33.5
	M 0,0
	c -17,-20 -12.5,-16 0,-33.5
	z" fill="rgb(98,184,170)" stroke-width="1" transform="rotate(0 0,0)"/><path d="M 0,0
	c 17,-20 12.5,-16 0,-32.5
	M 0,0
	c -17,-20 -12.5,-16 0,-32.5
	z" fill="rgb(78,164,150)" stroke-width="1" transform="rotate(54 0,0)"/><path d="M 0,0
	c 17,-20 12.5,-16 0,-38.5
	M 0,0
	c -17,-20 -12.5,-16 0,-38.5
	z" fill="rgb(78,164,150)" stroke-width="1" transform="rotate(129.6 0,0)"/><path d="M 0,0
	c 17,-20 12.5,-16 0,-41.5
	M 0,0
	c -17,-20 -12.5,-16 0,-41.5
	z" fill="rgb(78,164,150)" stroke-width="1" transform="rotate(192.6 0,0)"/><path d="M 0,0
	c 17,-20 12.5,-16 0,-39.5
	M 0,0
	c -17,-20 -12.5,-16 0,-39.5
	z" fill="rgb(98,184,170)" stroke-width="1" transform="rotate(237.6 0,0)"/><path d="M 0,0
	c 17,-20 12.5,-16 0,-41
	M 0,0
	c -17,-20 -12.5,-16 0,-41
	z" fill="rgb(68,154,140)" stroke-width="1" transform="rotate(273 0,0)"/><circle cx="0" cy="0" r="18.5" fill="#ffb566"/><circle cx="0" cy="0" r="6.1666666666667" fill="#ffce99"/></g></defs><use xlink:href="#feuille4"
		x="232.856" y="375.890025" 
		transform="rotate(81.5 232.856,375.890025)"
		fill="rgb(108,151,150)" /><use xlink:href="#feuille4"
		x="212.312" y="362.0928" 
		transform="rotate(57.6 212.312,362.0928)"
		fill="rgb(108,151,150)" /><use xlink:href="#feuille3"
		x="212.312" y="362.0928" 
		transform="rotate(92.1 212.312,362.0928)"
		fill="rgb(118,161,160)" /><use xlink:href="#feuille1"
	x="224.984" y="460.066225" 
	transform="rotate(-47  224.984,460.066225)"
	fill="rgb(108,151,150)" /><use xlink:href="#feuille1"
	x="224.984" y="460.066225" 
	transform="rotate(-50  224.984,460.066225)"
	fill="rgb(118,161,160)" /><path d="M 215 480 c 74.666666666667,-142.4 -16,-89 -80,-178  " stroke="rgb(74,61,181)" stroke-width="18" fill="transparent"/><use xlink:href="#fleur1"
x="135" y="302" 
fill="Pink" /><use xlink:href="#feuille3"
		x="252.59525" y="405.1993" 
		transform="rotate(97.6 252.59525,405.1993)"
		fill="rgb(108,151,150)" /><use xlink:href="#feuille2"
		x="252.59525" y="405.1993" 
		transform="rotate(61.7 252.59525,405.1993)"
		fill="rgb(118,161,160)" /><use xlink:href="#feuille1"
	x="246.04025" y="470.9209" 
	transform="rotate(-57  246.04025,470.9209)"
	fill="rgb(108,151,150)" /><path d="M 245 480 c 7.6,-65.2 1.2666666666667,-32.6 19,-163  " stroke="rgb(74,61,181)" stroke-width="16" fill="transparent"/><use xlink:href="#fleur2"
x="264" y="317" 
fill="Pink" /><use xlink:href="#feuille2"
		x="229.93125" y="255" 
		transform="rotate(-69.6 229.93125,255)"
		fill="rgb(138,181,180)" /><use xlink:href="#feuille1"
	x="242.29535" y="457.16" 
	transform="rotate(40  242.29535,457.16)"
	fill="rgb(108,151,150)" /><path d="M 243 480 c -4.5333333333333,-160 -12.466666666667,-160 -17,-320  " stroke="rgb(74,61,181)" stroke-width="14" fill="transparent"/><use xlink:href="#fleur3"
x="226" y="160" 
fill="Pink" /></svg>