<?xml version="1.0" encoding="iso-8859-1"?>
<svg version="1.1" id="Capa_1" xmlns="http://www.w3.org/2000/svg" xmlns:xlink="http://www.w3.org/1999/xlink" x="0px" y="0px"
viewBox="0 0 500 500" xml:space="preserve"><defs><g id="feuille1">
<path d="M 0,0
c 36,-15 20,-12 0,-94
M 0,0
c -36,-15 -20,-12 0,-94
z" stroke="#85e085" stroke-width="0"/>
<polygon points="-3,3, 0,-65.8 3 3" stroke="rgb(122,139,137)" stroke-width="2" fill="rgb(122,139,137)"/>
</g>
<g id="feuille2">
<path d="M 0,0
c 24,-10 13.333333333333,-8 0,-62.666666666667
M 0,0
c -24,-10 -13.333333333333,-8 0,-62.666666666667
z" stroke="#85e085" stroke-width="0"/>
<polygon points="-3 3, 0,-43.866666666667, 3 3" stroke="rgb(122,139,137)" stroke-width="1" fill="rgb(122,139,137)"/>
</g><g id="feuille3">
<path d="M 0,0
c 18,-7.5 10,-6 0,-47
M 0,0
c -18,-7.5 -10,-6 0,-47
z" stroke="#85e085" stroke-width="0"/>
<polygon points="-3 3, 0,-32.9, 3 3" stroke="rgb(122,139,137)" stroke-width="1" fill="rgb(122,139,137)"/>
</g><g id="feuille4">
<path d="M 0,0
c 14.4,-6 8,-4.8 0,-37.6
M 0,0
c -14.4,-6 -8,-4.8 0,-37.6
z" stroke="#85e085" stroke-width="0"/>
<polygon points="-3 3, 0,-26.32, 3 3" stroke="rgb(122,139,137)" stroke-width="1" fill="rgb(122,139,137)"/>
</g><g id="fleur1"><path d="M 0,0
	c 48,-61 38,-36 0,-86
	M 0,0
	c -48,-61 -38,-36 0,-86
	z" fill="rgb(104,163,180)" stroke-width="1" transform="rotate(0 0,0)"/><path d="M 0,0
	c 48,-61 38,-36 0,-88
	M 0,0
	c -48,-61 -38,-36 0,-88
	z" fill="rgb(104,163,180)" stroke-width="1" transform="rotate(30.6 0,0)"/><path d="M 0,0
	c 48,-61 38,-36 0,-101
	M 0,0
	c -48,-61 -38,-36 0,-101
	z" fill="rgb(104,163,180)" stroke-width="1" transform="rotate(62.4 0,0)"/><path d="M 0,0
	c 48,-61 38,-36 0,-97
	M 0,0
	c -48,-61 -38,-36 0,-97
	z" fill="rgb(104,163,180)" stroke-width="1" transform="rotate(97.2 0,0)"/><path d="M 0,0
	c 48,-61 38,-36 0,-105
	M 0,0
	c -48,-61 -38,-36 0,-105
	z" fill="rgb(84,143,160)" stroke-width="1" transform="rotate(112.8 0,0)"/><path d="M 0,0
	c 48,-61 38,-36 0,-97
	M 0,0
	c -48,-61 -38,-36 0,-97
	z" fill="rgb(104,163,180)" stroke-width="1" transform="rotate(141 0,0)"/><path d="M 0,0
	c 48,-61 38,-36 0,-101
	M 0,0
	c -48,-61 -38,-36 0,-101
	z" fill="rgb(94,153,170)" stroke-width="1" transform="rotate(187.2 0,0)"/><path d="M 0,0
	c 48,-61 38,-36 0,-95
	M 0,0
	c -48,-61 -38,-36 0,-95
	z" fill="rgb(124,183,200)" stroke-width="1" transform="rotate(189 0,0)"/><path d="M 0,0
	c 48,-61 38,-36 0,-92
	M 0,0
	c -48,-61 -38,-36 0,-92
	z" fill="rgb(104,163,180)" stroke-width="1" transform="rotate(244.8 0,0)"/><path d="M 0,0
	c 48,-61 38,-36 0,-94
	M 0,0
	c -48,-61 -38,-36 0,-94
	z" fill="rgb(124,183,200)" stroke-width="1" transform="rotate(278.1 0,0)"/><path d="M 0,0
	c 48,-61 38,-36 0,-102
	M 0,0
	c -48,-61 -38,-36 0,-102
	z" fill="rgb(94,153,170)" stroke-width="1" transform="rotate(321 0,0)"/><path d="M 0,0
	c 48,-61 38,-36 0,-89
	M 0,0
	c -48,-61 -38,-36 0,-89
	z" fill="rgb(104,163,180)" stroke-width="1" transform="rotate(353.1 0,0)"/><circle cx="0" cy="0" r="19" fill="#ffb566"/><circle cx="0" cy="0" r="6.3333333333333" fill="#ffce99"/></g><g id="fleur2"><path d="M 0,0
	c 32,-40.666666666667 25.333333333333,-24 0,-61.333333333333
	M 0,0
	c -32,-40.666666666667 -25.333333333333,-24 0,-61.333333333333
	z" fill="rgb(84,143,160)" stroke-width="1" transform="rotate(0 0,0)"/><path d="M 0,0
	c 32,-40.666666666667 25.333333333333,-24 0,-68
	M 0,0
	c -32,-40.666666666667 -25.333333333333,-24 0,-68
	z" fill="rgb(84,143,160)" stroke-width="1" transform="rotate(27 0,0)"/><path d="M 0,0
	c 32,-40.666666666667 25.333333333333,-24 0,-70
	M 0,0
	c -32,-40.666666666667 -25.333333333333,-24 0,-70
	z" fill="rgb(84,143,160)" stroke-width="1" transform="rotate(51.428571428571 0,0)"/><path d="M 0,0
	c 32,-40.666666666667 25.333333333333,-24 0,-65.333333333333
	M 0,0
	c -32,-40.666666666667 -25.333333333333,-24 0,-65.333333333333
	z" fill="rgb(114,173,190)" stroke-width="1" transform="rotate(84.857142857143 0,0)"/><path d="M 0,0
	c 32,-40.666666666667 25.333333333333,-24 0,-64
	M 0,0
	c -32,-40.666666666667 -25.333333333333,-24 0,-64
	z" fill="rgb(124,183,200)" stroke-width="1" transform="rotate(98.742857142857 0,0)"/><path d="M 0,0
	c 32,-40.666666666667 25.333333333333,-24 0,-57.333333333333
	M 0,0
	c -32,-40.666666666667 -25.333333333333,-24 0,-57.333333333333
	z" fill="rgb(124,183,200)" stroke-width="1" transform="rotate(136.28571428571 0,0)"/><path d="M 0,0
	c 32,-40.666666666667 25.333333333333,-24 0,-60
	M 0,0
	c -32,-40.666666666667 -25.333333333333,-24 0,-60
	z" fill="rgb(94,153,170)" stroke-width="1" transform="rotate(155.82857142857 0,0)"/><path d="M 0,0
	c 32,-40.666666666667 25.333333333333,-24 0,-56.666666666667
	M 0,0
	c -32,-40.666666666667 -25.333333333333,-24 0,-56.666666666667
	z" fill="rgb(124,183,200)" stroke-width="1" transform="rotate(187.2 0,0)"/><path d="M 0,0
	c 32,-40.666666666667 25.333333333333,-24 0,-68
	M 0,0
	c -32,-40.666666666667 -25.333333333333,-24 0,-68
	z" fill="rgb(84,143,160)" stroke-width="1" transform="rotate(207.77142857143 0,0)"/><path d="M 0,0
	c 32,-40.666666666667 25.333333333333,-24 0,-58.666666666667
	M 0,0
	c -32,-40.666666666667 -25.333333333333,-24 0,-58.666666666667
	z" fill="rgb(94,153,170)" stroke-width="1" transform="rotate(215.22857142857 0,0)"/><path d="M 0,0
	c 32,-40.666666666667 25.333333333333,-24 0,-68
	M 0,0
	c -32,-40.666666666667 -25.333333333333,-24 0,-68
	z" fill="rgb(124,183,200)" stroke-width="1" transform="rotate(272.57142857143 0,0)"/><path d="M 0,0
	c 32,-40.666666666667 25.333333333333,-24 0,-64
	M 0,0
	c -32,-40.666666666667 -25.333333333333,-24 0,-64
	z" fill="rgb(94,153,170)" stroke-width="1" transform="rotate(294.17142857143 0,0)"/><path d="M 0,0
	c 32,-40.666666666667 25.333333333333,-24 0,-65.333333333333
	M 0,0
	c -32,-40.666666666667 -25.333333333333,-24 0,-65.333333333333
	z" fill="rgb(124,183,200)" stroke-width="1" transform="rotate(311.65714285714 0,0)"/><path d="M 0,0
	c 32,-40.666666666667 25.333333333333,-24 0,-58
	M 0,0
	c -32,-40.666666666667 -25.333333333333,-24 0,-58
	z" fill="rgb(94,153,170)" stroke-width="1" transform="rotate(334.28571428571 0,0)"/><circle cx="0" cy="0" r="12.666666666667" fill="#ffb566"/><circle cx="0" cy="0" r="4.2222222222222" fill="#ffce99"/></g><g id="fleur3"><path d="M 0,0
	c 27.428571428571,-34.857142857143 21.714285714286,-20.571428571429 0,-56
	M 0,0
	c -27.428571428571,-34.857142857143 -21.714285714286,-20.571428571429 0,-56
	z" fill="rgb(124,183,200)" stroke-width="1" transform="rotate(0 0,0)"/><path d="M 0,0
	c 27.428571428571,-34.857142857143 21.714285714286,-20.571428571429 0,-50.857142857143
	M 0,0
	c -27.428571428571,-34.857142857143 -21.714285714286,-20.571428571429 0,-50.857142857143
	z" fill="rgb(84,143,160)" stroke-width="1" transform="rotate(34.2 0,0)"/><path d="M 0,0
	c 27.428571428571,-34.857142857143 21.714285714286,-20.571428571429 0,-53.142857142857
	M 0,0
	c -27.428571428571,-34.857142857143 -21.714285714286,-20.571428571429 0,-53.142857142857
	z" fill="rgb(94,153,170)" stroke-width="1" transform="rotate(64.8 0,0)"/><path d="M 0,0
	c 27.428571428571,-34.857142857143 21.714285714286,-20.571428571429 0,-58.857142857143
	M 0,0
	c -27.428571428571,-34.857142857143 -21.714285714286,-20.571428571429 0,-58.857142857143
	z" fill="rgb(114,173,190)" stroke-width="1" transform="rotate(115.56 0,0)"/><path d="M 0,0
	c 27.428571428571,-34.857142857143 21.714285714286,-20.571428571429 0,-55.428571428571
	M 0,0
	c -27.428571428571,-34.857142857143 -21.714285714286,-20.571428571429 0,-55.428571428571
	z" fill="rgb(104,163,180)" stroke-width="1" transform="rotate(133.92 0,0)"/><path d="M 0,0
	c 27.428571428571,-34.857142857143 21.714285714286,-20.571428571429 0,-52
	M 0,0
	c -27.428571428571,-34.857142857143 -21.714285714286,-20.571428571429 0,-52
	z" fill="rgb(94,153,170)" stroke-width="1" transform="rotate(162 0,0)"/><path d="M 0,0
	c 27.428571428571,-34.857142857143 21.714285714286,-20.571428571429 0,-58.857142857143
	M 0,0
	c -27.428571428571,-34.857142857143 -21.714285714286,-20.571428571429 0,-58.857142857143
	z" fill="rgb(124,183,200)" stroke-width="1" transform="rotate(198.72 0,0)"/><path d="M 0,0
	c 27.428571428571,-34.857142857143 21.714285714286,-20.571428571429 0,-53.714285714286
	M 0,0
	c -27.428571428571,-34.857142857143 -21.714285714286,-20.571428571429 0,-53.714285714286
	z" fill="rgb(104,163,180)" stroke-width="1" transform="rotate(264.6 0,0)"/><path d="M 0,0
	c 27.428571428571,-34.857142857143 21.714285714286,-20.571428571429 0,-57.142857142857
	M 0,0
	c -27.428571428571,-34.857142857143 -21.714285714286,-20.571428571429 0,-57.142857142857
	z" fill="rgb(104,163,180)" stroke-width="1" transform="rotate(296.64 0,0)"/><path d="M 0,0
	c 27.428571428571,-34.857142857143 21.714285714286,-20.571428571429 0,-55.428571428571
	M 0,0
	c -27.428571428571,-34.857142857143 -21.714285714286,-20.571428571429 0,-55.428571428571
	z" fill="rgb(94,153,170)" stroke-width="1" transform="rotate(317.52 0,0)"/><circle cx="0" cy="0" r="10.857142857143" fill="#ffb566"/><circle cx="0" cy="0" r="3.6190476190476" fill="#ffce99"/></g><g id="fleur4"><path d="M 0,0
	c 24,-30.5 19,-18 0,-52
	M 0,0
	c -24,-30.5 -19,-18 0,-52
	z" fill="rgb(104,163,180)" stroke-width="1" transform="rotate(0 0,0)"/><path d="M 0,0
	c 24,-30.5 19,-18 0,-45.5
	M 0,0
	c -24,-30.5 -19,-18 0,-45.5
	z" fill="rgb(84,143,160)" stroke-width="1" transform="rotate(24.24 0,0)"/><path d="M 0,0
	c 24,-30.5 19,-18 0,-43
	M 0,0
	c -24,-30.5 -19,-18 0,-43
	z" fill="rgb(84,143,160)" stroke-width="1" transform="rotate(51.36 0,0)"/><path d="M 0,0
	c 24,-30.5 19,-18 0,-49.5
	M 0,0
	c -24,-30.5 -19,-18 0,-49.5
	z" fill="rgb(84,143,160)" stroke-width="1" transform="rotate(74.88 0,0)"/><path d="M 0,0
	c 24,-30.5 19,-18 0,-48
	M 0,0
	c -24,-30.5 -19,-18 0,-48
	z" fill="rgb(114,173,190)" stroke-width="1" transform="rotate(97.92 0,0)"/><path d="M 0,0
	c 24,-30.5 19,-18 0,-45.5
	M 0,0
	c -24,-30.5 -19,-18 0,-45.5
	z" fill="rgb(104,163,180)" stroke-width="1" transform="rotate(117.6 0,0)"/><path d="M 0,0
	c 24,-30.5 19,-18 0,-49.5
	M 0,0
	c -24,-30.5 -19,-18 0,-49.5
	z" fill="rgb(124,183,200)" stroke-width="1" transform="rotate(145.44 0,0)"/><path d="M 0,0
	c 24,-30.5 19,-18 0,-48.5
	M 0,0
	c -24,-30.5 -19,-18 0,-48.5
	z" fill="rgb(94,153,170)" stroke-width="1" transform="rotate(184.8 0,0)"/><path d="M 0,0
	c 24,-30.5 19,-18 0,-51
	M 0,0
	c -24,-30.5 -19,-18 0,-51
	z" fill="rgb(104,163,180)" stroke-width="1" transform="rotate(193.92 0,0)"/><path d="M 0,0
	c 24,-30.5 19,-18 0,-52.5
	M 0,0
	c -24,-30.5 -19,-18 0,-52.5
	z" fill="rgb(104,163,180)" stroke-width="1" transform="rotate(237.6 0,0)"/><path d="M 0,0
	c 24,-30.5 19,-18 0,-52.5
	M 0,0
	c -24,-30.5 -19,-18 0,-52.5
	z" fill="rgb(124,183,200)" stroke-width="1" transform="rotate(235.2 0,0)"/><path d="M 0,0
	c 24,-30.5 19,-18 0,-45
	M 0,0
	c -24,-30.5 -19,-18 0,-45
	z" fill="rgb(104,163,180)" stroke-width="1" transform="rotate(240.24 0,0)"/><path d="M 0,0
	c 24,-30.5 19,-18 0,-42.5
	M 0,0
	c -24,-30.5 -19,-18 0,-42.5
	z" fill="rgb(104,163,180)" stroke-width="1" transform="rotate(305.28 0,0)"/><path d="M 0,0
	c 24,-30.5 19,-18 0,-51.5
	M 0,0
	c -24,-30.5 -19,-18 0,-51.5
	z" fill="rgb(94,153,170)" stroke-width="1" transform="rotate(333.84 0,0)"/><path d="M 0,0
	c 24,-30.5 19,-18 0,-49.5
	M 0,0
	c -24,-30.5 -19,-18 0,-49.5
	z" fill="rgb(94,153,170)" stroke-width="1" transform="rotate(329.28 0,0)"/><circle cx="0" cy="0" r="9.5" fill="#ffb566"/><circle cx="0" cy="0" r="3.1666666666667" fill="#ffce99"/></g></defs><use xlink:href="#feuille4"
		x="191.73" y="362.0514" 
		transform="rotate(-82.7 191.73,362.0514)"
		fill="rgb(106,127,110)" /><use xlink:href="#feuille1"
	x="198.43625" y="451.179775" 
	transform="rotate(48  198.43625,451.179775)"
	fill="rgb(156,177,160)" /><use xlink:href="#feuille1"
	x="198.43625" y="451.179775" 
	transform="rotate(57  198.43625,451.179775)"
	fill="rgb(146,167,150)" /><path d="M 204 480 c -43.333333333333,-207.2 43.333333333333,-103.6 -50,-259  " stroke="rgb(122,139,137)" stroke-width="18" fill="transparent"/><use xlink:href="#fleur1"
x="154" y="221" 
fill="Pink" /><use xlink:href="#feuille4"
		x="192.6128" y="243.624" 
		transform="rotate(-58.3 192.6128,243.624)"
		fill="rgb(126,147,130)" /><use xlink:href="#feuille1"
	x="183.9041" y="442.2455" 
	transform="rotate(50  183.9041,442.2455)"
	fill="rgb(126,147,130)" /><path d="M 185 480 c -8.6666666666667,-268 10.4,-201 26,-335  " stroke="rgb(122,139,137)" stroke-width="16" fill="transparent"/><use xlink:href="#fleur2"
x="211" y="145" 
fill="Pink" /><use xlink:href="#feuille3"
		x="144.472" y="370.2261" 
		transform="rotate(-103.7 144.472,370.2261)"
		fill="rgb(146,167,150)" /><use xlink:href="#feuille3"
		x="144.472" y="370.2261" 
		transform="rotate(-112.5 144.472,370.2261)"
		fill="rgb(116,137,120)" /><use xlink:href="#feuille2"
		x="144.472" y="370.2261" 
		transform="rotate(-70 144.472,370.2261)"
		fill="rgb(166,187,170)" /><use xlink:href="#feuille4"
		x="144.472" y="370.2261" 
		transform="rotate(96.2 144.472,370.2261)"
		fill="rgb(116,137,120)" /><use xlink:href="#feuille4"
		x="137.827" y="288.4147875" 
		transform="rotate(-101.7 137.827,288.4147875)"
		fill="rgb(146,167,150)" /><use xlink:href="#feuille1"
	x="154.417" y="460.6211625" 
	transform="rotate(73  154.417,460.6211625)"
	fill="rgb(116,137,120)" /><use xlink:href="#feuille1"
	x="154.417" y="460.6211625" 
	transform="rotate(-66  154.417,460.6211625)"
	fill="rgb(116,137,120)" /><path d="M 157 480 c -18,-130.8 -20,-228.9 -30,-327  " stroke="rgb(122,139,137)" stroke-width="14" fill="transparent"/><use xlink:href="#fleur3"
x="127" y="153" 
fill="Pink" /></svg>