<?xml version="1.0" encoding="iso-8859-1"?>
<svg version="1.1" id="Capa_1" xmlns="http://www.w3.org/2000/svg" xmlns:xlink="http://www.w3.org/1999/xlink" x="0px" y="0px"
viewBox="0 0 500 500" xml:space="preserve"><defs><g id="feuille1">
<path d="M 0,0
c 26,-24 42,-19.2 0,-68
M 0,0
c -26,-24 -42,-19.2 0,-68
z" stroke="#85e085" stroke-width="0"/>
<polygon points="-3,3, 0,-47.6 3 3" stroke="rgb(160,95,133)" stroke-width="2" fill="rgb(160,95,133)"/>
</g>
<g id="feuille2">
<path d="M 0,0
c 17.333333333333,-16 28,-12.8 0,-45.333333333333
M 0,0
c -17.333333333333,-16 -28,-12.8 0,-45.333333333333
z" stroke="#85e085" stroke-width="0"/>
<polygon points="-3 3, 0,-31.733333333333, 3 3" stroke="rgb(160,95,133)" stroke-width="1" fill="rgb(160,95,133)"/>
</g><g id="feuille3">
<path d="M 0,0
c 13,-12 21,-9.6 0,-34
M 0,0
c -13,-12 -21,-9.6 0,-34
z" stroke="#85e085" stroke-width="0"/>
<polygon points="-3 3, 0,-23.8, 3 3" stroke="rgb(160,95,133)" stroke-width="1" fill="rgb(160,95,133)"/>
</g><g id="feuille4">
<path d="M 0,0
c 10.4,-9.6 16.8,-7.68 0,-27.2
M 0,0
c -10.4,-9.6 -16.8,-7.68 0,-27.2
z" stroke="#85e085" stroke-width="0"/>
<polygon points="-3 3, 0,-19.04, 3 3" stroke="rgb(160,95,133)" stroke-width="1" fill="rgb(160,95,133)"/>
</g><g id="fleur1"><path d="M 0,0
	c 20,-24 23,-43 0,-74
	M 0,0
	c -20,-24 -23,-43 0,-74
	z" fill="rgb(88,89,108)" stroke-width="1" transform="rotate(0 0,0)"/><path d="M 0,0
	c 20,-24 23,-43 0,-73
	M 0,0
	c -20,-24 -23,-43 0,-73
	z" fill="rgb(108,109,128)" stroke-width="1" transform="rotate(43.2 0,0)"/><path d="M 0,0
	c 20,-24 23,-43 0,-54
	M 0,0
	c -20,-24 -23,-43 0,-54
	z" fill="rgb(128,129,148)" stroke-width="1" transform="rotate(85.5 0,0)"/><path d="M 0,0
	c 20,-24 23,-43 0,-56
	M 0,0
	c -20,-24 -23,-43 0,-56
	z" fill="rgb(88,89,108)" stroke-width="1" transform="rotate(135 0,0)"/><path d="M 0,0
	c 20,-24 23,-43 0,-62
	M 0,0
	c -20,-24 -23,-43 0,-62
	z" fill="rgb(128,129,148)" stroke-width="1" transform="rotate(180 0,0)"/><path d="M 0,0
	c 20,-24 23,-43 0,-72
	M 0,0
	c -20,-24 -23,-43 0,-72
	z" fill="rgb(128,129,148)" stroke-width="1" transform="rotate(247.5 0,0)"/><path d="M 0,0
	c 20,-24 23,-43 0,-65
	M 0,0
	c -20,-24 -23,-43 0,-65
	z" fill="rgb(108,109,128)" stroke-width="1" transform="rotate(294.3 0,0)"/><path d="M 0,0
	c 20,-24 23,-43 0,-62
	M 0,0
	c -20,-24 -23,-43 0,-62
	z" fill="rgb(88,89,108)" stroke-width="1" transform="rotate(330.75 0,0)"/><circle cx="0" cy="0" r="6.4" fill="#ffb566"/><circle cx="0" cy="0" r="2.1333333333333" fill="#ffce99"/></g><g id="fleur2"><path d="M 0,0
	c 13.333333333333,-16 15.333333333333,-28.666666666667 0,-38.666666666667
	M 0,0
	c -13.333333333333,-16 -15.333333333333,-28.666666666667 0,-38.666666666667
	z" fill="rgb(128,129,148)" stroke-width="1" transform="rotate(0 0,0)"/><path d="M 0,0
	c 13.333333333333,-16 15.333333333333,-28.666666666667 0,-42
	M 0,0
	c -13.333333333333,-16 -15.333333333333,-28.666666666667 0,-42
	z" fill="rgb(128,129,148)" stroke-width="1" transform="rotate(22.56 0,0)"/><path d="M 0,0
	c 13.333333333333,-16 15.333333333333,-28.666666666667 0,-49.333333333333
	M 0,0
	c -13.333333333333,-16 -15.333333333333,-28.666666666667 0,-49.333333333333
	z" fill="rgb(128,129,148)" stroke-width="1" transform="rotate(50.4 0,0)"/><path d="M 0,0
	c 13.333333333333,-16 15.333333333333,-28.666666666667 0,-46
	M 0,0
	c -13.333333333333,-16 -15.333333333333,-28.666666666667 0,-46
	z" fill="rgb(88,89,108)" stroke-width="1" transform="rotate(78.48 0,0)"/><path d="M 0,0
	c 13.333333333333,-16 15.333333333333,-28.666666666667 0,-42
	M 0,0
	c -13.333333333333,-16 -15.333333333333,-28.666666666667 0,-42
	z" fill="rgb(98,99,118)" stroke-width="1" transform="rotate(88.32 0,0)"/><path d="M 0,0
	c 13.333333333333,-16 15.333333333333,-28.666666666667 0,-37.333333333333
	M 0,0
	c -13.333333333333,-16 -15.333333333333,-28.666666666667 0,-37.333333333333
	z" fill="rgb(108,109,128)" stroke-width="1" transform="rotate(108 0,0)"/><path d="M 0,0
	c 13.333333333333,-16 15.333333333333,-28.666666666667 0,-40.666666666667
	M 0,0
	c -13.333333333333,-16 -15.333333333333,-28.666666666667 0,-40.666666666667
	z" fill="rgb(98,99,118)" stroke-width="1" transform="rotate(142.56 0,0)"/><path d="M 0,0
	c 13.333333333333,-16 15.333333333333,-28.666666666667 0,-43.333333333333
	M 0,0
	c -13.333333333333,-16 -15.333333333333,-28.666666666667 0,-43.333333333333
	z" fill="rgb(118,119,138)" stroke-width="1" transform="rotate(164.64 0,0)"/><path d="M 0,0
	c 13.333333333333,-16 15.333333333333,-28.666666666667 0,-45.333333333333
	M 0,0
	c -13.333333333333,-16 -15.333333333333,-28.666666666667 0,-45.333333333333
	z" fill="rgb(88,89,108)" stroke-width="1" transform="rotate(207.36 0,0)"/><path d="M 0,0
	c 13.333333333333,-16 15.333333333333,-28.666666666667 0,-38.666666666667
	M 0,0
	c -13.333333333333,-16 -15.333333333333,-28.666666666667 0,-38.666666666667
	z" fill="rgb(108,109,128)" stroke-width="1" transform="rotate(228.96 0,0)"/><path d="M 0,0
	c 13.333333333333,-16 15.333333333333,-28.666666666667 0,-42.666666666667
	M 0,0
	c -13.333333333333,-16 -15.333333333333,-28.666666666667 0,-42.666666666667
	z" fill="rgb(128,129,148)" stroke-width="1" transform="rotate(220.8 0,0)"/><path d="M 0,0
	c 13.333333333333,-16 15.333333333333,-28.666666666667 0,-48
	M 0,0
	c -13.333333333333,-16 -15.333333333333,-28.666666666667 0,-48
	z" fill="rgb(128,129,148)" stroke-width="1" transform="rotate(261.36 0,0)"/><path d="M 0,0
	c 13.333333333333,-16 15.333333333333,-28.666666666667 0,-37.333333333333
	M 0,0
	c -13.333333333333,-16 -15.333333333333,-28.666666666667 0,-37.333333333333
	z" fill="rgb(88,89,108)" stroke-width="1" transform="rotate(302.4 0,0)"/><path d="M 0,0
	c 13.333333333333,-16 15.333333333333,-28.666666666667 0,-46
	M 0,0
	c -13.333333333333,-16 -15.333333333333,-28.666666666667 0,-46
	z" fill="rgb(88,89,108)" stroke-width="1" transform="rotate(293.28 0,0)"/><path d="M 0,0
	c 13.333333333333,-16 15.333333333333,-28.666666666667 0,-44
	M 0,0
	c -13.333333333333,-16 -15.333333333333,-28.666666666667 0,-44
	z" fill="rgb(88,89,108)" stroke-width="1" transform="rotate(315.84 0,0)"/><circle cx="0" cy="0" r="4.2666666666667" fill="#ffb566"/><circle cx="0" cy="0" r="1.4222222222222" fill="#ffce99"/></g><g id="fleur3"><path d="M 0,0
	c 11.428571428571,-13.714285714286 13.142857142857,-24.571428571429 0,-42.285714285714
	M 0,0
	c -11.428571428571,-13.714285714286 -13.142857142857,-24.571428571429 0,-42.285714285714
	z" fill="rgb(88,89,108)" stroke-width="1" transform="rotate(0 0,0)"/><path d="M 0,0
	c 11.428571428571,-13.714285714286 13.142857142857,-24.571428571429 0,-33.142857142857
	M 0,0
	c -11.428571428571,-13.714285714286 -13.142857142857,-24.571428571429 0,-33.142857142857
	z" fill="rgb(98,99,118)" stroke-width="1" transform="rotate(25.68 0,0)"/><path d="M 0,0
	c 11.428571428571,-13.714285714286 13.142857142857,-24.571428571429 0,-34.857142857143
	M 0,0
	c -11.428571428571,-13.714285714286 -13.142857142857,-24.571428571429 0,-34.857142857143
	z" fill="rgb(88,89,108)" stroke-width="1" transform="rotate(52.32 0,0)"/><path d="M 0,0
	c 11.428571428571,-13.714285714286 13.142857142857,-24.571428571429 0,-31.428571428571
	M 0,0
	c -11.428571428571,-13.714285714286 -13.142857142857,-24.571428571429 0,-31.428571428571
	z" fill="rgb(98,99,118)" stroke-width="1" transform="rotate(74.16 0,0)"/><path d="M 0,0
	c 11.428571428571,-13.714285714286 13.142857142857,-24.571428571429 0,-34.857142857143
	M 0,0
	c -11.428571428571,-13.714285714286 -13.142857142857,-24.571428571429 0,-34.857142857143
	z" fill="rgb(88,89,108)" stroke-width="1" transform="rotate(88.32 0,0)"/><path d="M 0,0
	c 11.428571428571,-13.714285714286 13.142857142857,-24.571428571429 0,-41.142857142857
	M 0,0
	c -11.428571428571,-13.714285714286 -13.142857142857,-24.571428571429 0,-41.142857142857
	z" fill="rgb(128,129,148)" stroke-width="1" transform="rotate(116.4 0,0)"/><path d="M 0,0
	c 11.428571428571,-13.714285714286 13.142857142857,-24.571428571429 0,-40
	M 0,0
	c -11.428571428571,-13.714285714286 -13.142857142857,-24.571428571429 0,-40
	z" fill="rgb(128,129,148)" stroke-width="1" transform="rotate(132.48 0,0)"/><path d="M 0,0
	c 11.428571428571,-13.714285714286 13.142857142857,-24.571428571429 0,-30.857142857143
	M 0,0
	c -11.428571428571,-13.714285714286 -13.142857142857,-24.571428571429 0,-30.857142857143
	z" fill="rgb(128,129,148)" stroke-width="1" transform="rotate(152.88 0,0)"/><path d="M 0,0
	c 11.428571428571,-13.714285714286 13.142857142857,-24.571428571429 0,-34.857142857143
	M 0,0
	c -11.428571428571,-13.714285714286 -13.142857142857,-24.571428571429 0,-34.857142857143
	z" fill="rgb(108,109,128)" stroke-width="1" transform="rotate(172.8 0,0)"/><path d="M 0,0
	c 11.428571428571,-13.714285714286 13.142857142857,-24.571428571429 0,-40
	M 0,0
	c -11.428571428571,-13.714285714286 -13.142857142857,-24.571428571429 0,-40
	z" fill="rgb(108,109,128)" stroke-width="1" transform="rotate(209.52 0,0)"/><path d="M 0,0
	c 11.428571428571,-13.714285714286 13.142857142857,-24.571428571429 0,-33.142857142857
	M 0,0
	c -11.428571428571,-13.714285714286 -13.142857142857,-24.571428571429 0,-33.142857142857
	z" fill="rgb(128,129,148)" stroke-width="1" transform="rotate(264 0,0)"/><path d="M 0,0
	c 11.428571428571,-13.714285714286 13.142857142857,-24.571428571429 0,-41.714285714286
	M 0,0
	c -11.428571428571,-13.714285714286 -13.142857142857,-24.571428571429 0,-41.714285714286
	z" fill="rgb(128,129,148)" stroke-width="1" transform="rotate(279.84 0,0)"/><path d="M 0,0
	c 11.428571428571,-13.714285714286 13.142857142857,-24.571428571429 0,-34.857142857143
	M 0,0
	c -11.428571428571,-13.714285714286 -13.142857142857,-24.571428571429 0,-34.857142857143
	z" fill="rgb(128,129,148)" stroke-width="1" transform="rotate(264.96 0,0)"/><path d="M 0,0
	c 11.428571428571,-13.714285714286 13.142857142857,-24.571428571429 0,-38.857142857143
	M 0,0
	c -11.428571428571,-13.714285714286 -13.142857142857,-24.571428571429 0,-38.857142857143
	z" fill="rgb(108,109,128)" stroke-width="1" transform="rotate(343.2 0,0)"/><path d="M 0,0
	c 11.428571428571,-13.714285714286 13.142857142857,-24.571428571429 0,-37.142857142857
	M 0,0
	c -11.428571428571,-13.714285714286 -13.142857142857,-24.571428571429 0,-37.142857142857
	z" fill="rgb(98,99,118)" stroke-width="1" transform="rotate(329.28 0,0)"/><circle cx="0" cy="0" r="3.6571428571429" fill="#ffb566"/><circle cx="0" cy="0" r="1.2190476190476" fill="#ffce99"/></g><g id="fleur4"><path d="M 0,0
	c 10,-12 11.5,-21.5 0,-34
	M 0,0
	c -10,-12 -11.5,-21.5 0,-34
	z" fill="rgb(118,119,138)" stroke-width="1" transform="rotate(0 0,0)"/><path d="M 0,0
	c 10,-12 11.5,-21.5 0,-35
	M 0,0
	c -10,-12 -11.5,-21.5 0,-35
	z" fill="rgb(98,99,118)" stroke-width="1" transform="rotate(35.64 0,0)"/><path d="M 0,0
	c 10,-12 11.5,-21.5 0,-35.5
	M 0,0
	c -10,-12 -11.5,-21.5 0,-35.5
	z" fill="rgb(108,109,128)" stroke-width="1" transform="rotate(73.44 0,0)"/><path d="M 0,0
	c 10,-12 11.5,-21.5 0,-31.5
	M 0,0
	c -10,-12 -11.5,-21.5 0,-31.5
	z" fill="rgb(88,89,108)" stroke-width="1" transform="rotate(111.24 0,0)"/><path d="M 0,0
	c 10,-12 11.5,-21.5 0,-35
	M 0,0
	c -10,-12 -11.5,-21.5 0,-35
	z" fill="rgb(98,99,118)" stroke-width="1" transform="rotate(136.8 0,0)"/><path d="M 0,0
	c 10,-12 11.5,-21.5 0,-37
	M 0,0
	c -10,-12 -11.5,-21.5 0,-37
	z" fill="rgb(98,99,118)" stroke-width="1" transform="rotate(178.2 0,0)"/><path d="M 0,0
	c 10,-12 11.5,-21.5 0,-36.5
	M 0,0
	c -10,-12 -11.5,-21.5 0,-36.5
	z" fill="rgb(108,109,128)" stroke-width="1" transform="rotate(228.96 0,0)"/><path d="M 0,0
	c 10,-12 11.5,-21.5 0,-28
	M 0,0
	c -10,-12 -11.5,-21.5 0,-28
	z" fill="rgb(118,119,138)" stroke-width="1" transform="rotate(277.2 0,0)"/><path d="M 0,0
	c 10,-12 11.5,-21.5 0,-27
	M 0,0
	c -10,-12 -11.5,-21.5 0,-27
	z" fill="rgb(128,129,148)" stroke-width="1" transform="rotate(273.6 0,0)"/><path d="M 0,0
	c 10,-12 11.5,-21.5 0,-37
	M 0,0
	c -10,-12 -11.5,-21.5 0,-37
	z" fill="rgb(98,99,118)" stroke-width="1" transform="rotate(346.68 0,0)"/><circle cx="0" cy="0" r="3.2" fill="#ffb566"/><circle cx="0" cy="0" r="1.0666666666667" fill="#ffce99"/></g></defs><use xlink:href="#feuille3"
		x="243.410475" y="385.84" 
		transform="rotate(-86.1 243.410475,385.84)"
		fill="rgb(139,23,101)" /><use xlink:href="#feuille1"
	x="241.691225" y="471.14" 
	transform="rotate(42  241.691225,471.14)"
	fill="rgb(149,33,111)" /><use xlink:href="#feuille1"
	x="241.691225" y="471.14" 
	transform="rotate(44  241.691225,471.14)"
	fill="rgb(169,53,131)" /><use xlink:href="#feuille1"
	x="241.691225" y="471.14" 
	transform="rotate(-38  241.691225,471.14)"
	fill="rgb(179,63,141)" /><path d="M 242 480 c -3.0666666666667,-60 15.333333333333,-100 -23,-200  " stroke="rgb(160,95,133)" stroke-width="18" fill="transparent"/><use xlink:href="#fleur1"
x="219" y="280" 
fill="Pink" /><use xlink:href="#feuille4"
		x="263.856" y="400.008" 
		transform="rotate(59.6 263.856,400.008)"
		fill="rgb(179,63,141)" /><use xlink:href="#feuille1"
	x="251.657" y="468.473375" 
	transform="rotate(-58  251.657,468.473375)"
	fill="rgb(189,73,151)" /><use xlink:href="#feuille1"
	x="251.657" y="468.473375" 
	transform="rotate(67  251.657,468.473375)"
	fill="rgb(149,33,111)" /><path d="M 246 480 c 40,-80.8 34.666666666667,-80.8 -40,-101  " stroke="rgb(160,95,133)" stroke-width="16" fill="transparent"/><use xlink:href="#fleur2"
x="206" y="379" 
fill="Pink" /><use xlink:href="#feuille2"
		x="221.265" y="342.68425" 
		transform="rotate(53.6 221.265,342.68425)"
		fill="rgb(189,73,151)" /><use xlink:href="#feuille2"
		x="221.265" y="342.68425" 
		transform="rotate(78.9 221.265,342.68425)"
		fill="rgb(199,83,161)" /><use xlink:href="#feuille1"
	x="220.275" y="454.40675" 
	transform="rotate(-44  220.275,454.40675)"
	fill="rgb(169,53,131)" /><use xlink:href="#feuille1"
	x="220.275" y="454.40675" 
	transform="rotate(-42  220.275,454.40675)"
	fill="rgb(189,73,151)" /><use xlink:href="#feuille1"
	x="220.275" y="454.40675" 
	transform="rotate(53  220.275,454.40675)"
	fill="rgb(159,43,121)" /><path d="M 220 480 c 1.8666666666667,-184 3.2,-92 -4,-230  " stroke="rgb(160,95,133)" stroke-width="14" fill="transparent"/><use xlink:href="#fleur3"
x="216" y="250" 
fill="Pink" /></svg>