<?xml version="1.0" encoding="iso-8859-1"?>
<svg version="1.1" id="Capa_1" xmlns="http://www.w3.org/2000/svg" xmlns:xlink="http://www.w3.org/1999/xlink" x="0px" y="0px"
viewBox="0 0 500 500" xml:space="preserve"><defs><g id="feuille1">
<path d="M 0,0
c 21,-39 39,-40 0,-138
M 0,0
c -21,-39 -39,-40 0,-138
z" stroke="#85e085" stroke-width="0"/>
<polygon points="-3,3, 0,-96.6 3 3" stroke="rgb(54,160,166)" stroke-width="2" fill="rgb(54,160,166)"/>
</g>
<g id="feuille2">
<path d="M 0,0
c 14,-26 26,-26.666666666667 0,-92
M 0,0
c -14,-26 -26,-26.666666666667 0,-92
z" stroke="#85e085" stroke-width="0"/>
<polygon points="-3 3, 0,-64.4, 3 3" stroke="rgb(54,160,166)" stroke-width="1" fill="rgb(54,160,166)"/>
</g><g id="feuille3">
<path d="M 0,0
c 10.5,-19.5 19.5,-20 0,-69
M 0,0
c -10.5,-19.5 -19.5,-20 0,-69
z" stroke="#85e085" stroke-width="0"/>
<polygon points="-3 3, 0,-48.3, 3 3" stroke="rgb(54,160,166)" stroke-width="1" fill="rgb(54,160,166)"/>
</g><g id="feuille4">
<path d="M 0,0
c 8.4,-15.6 15.6,-16 0,-55.2
M 0,0
c -8.4,-15.6 -15.6,-16 0,-55.2
z" stroke="#85e085" stroke-width="0"/>
<polygon points="-3 3, 0,-38.64, 3 3" stroke="rgb(54,160,166)" stroke-width="1" fill="rgb(54,160,166)"/>
</g><g id="fleur1"><path d="M 0,0
	c 53,-49 49,-81 0,-60
	M 0,0
	c -53,-49 -49,-81 0,-60
	z" fill="rgb(113,182,152)" stroke-width="1" transform="rotate(0 0,0)"/><path d="M 0,0
	c 53,-49 49,-81 0,-65
	M 0,0
	c -53,-49 -49,-81 0,-65
	z" fill="rgb(123,192,162)" stroke-width="1" transform="rotate(65.4 0,0)"/><path d="M 0,0
	c 53,-49 49,-81 0,-71
	M 0,0
	c -53,-49 -49,-81 0,-71
	z" fill="rgb(123,192,162)" stroke-width="1" transform="rotate(112.8 0,0)"/><path d="M 0,0
	c 53,-49 49,-81 0,-56
	M 0,0
	c -53,-49 -49,-81 0,-56
	z" fill="rgb(133,202,172)" stroke-width="1" transform="rotate(198 0,0)"/><path d="M 0,0
	c 53,-49 49,-81 0,-72
	M 0,0
	c -53,-49 -49,-81 0,-72
	z" fill="rgb(113,182,152)" stroke-width="1" transform="rotate(244.8 0,0)"/><path d="M 0,0
	c 53,-49 49,-81 0,-70
	M 0,0
	c -53,-49 -49,-81 0,-70
	z" fill="rgb(133,202,172)" stroke-width="1" transform="rotate(273 0,0)"/><circle cx="0" cy="0" r="8" fill="#ffb566"/><circle cx="0" cy="0" r="2.6666666666667" fill="#ffce99"/></g><g id="fleur2"><path d="M 0,0
	c 35.333333333333,-32.666666666667 32.666666666667,-54 0,-46.666666666667
	M 0,0
	c -35.333333333333,-32.666666666667 -32.666666666667,-54 0,-46.666666666667
	z" fill="rgb(133,202,172)" stroke-width="1" transform="rotate(0 0,0)"/><path d="M 0,0
	c 35.333333333333,-32.666666666667 32.666666666667,-54 0,-43.333333333333
	M 0,0
	c -35.333333333333,-32.666666666667 -32.666666666667,-54 0,-43.333333333333
	z" fill="rgb(123,192,162)" stroke-width="1" transform="rotate(53.485714285714 0,0)"/><path d="M 0,0
	c 35.333333333333,-32.666666666667 32.666666666667,-54 0,-44
	M 0,0
	c -35.333333333333,-32.666666666667 -32.666666666667,-54 0,-44
	z" fill="rgb(103,172,142)" stroke-width="1" transform="rotate(104.91428571429 0,0)"/><path d="M 0,0
	c 35.333333333333,-32.666666666667 32.666666666667,-54 0,-38
	M 0,0
	c -35.333333333333,-32.666666666667 -32.666666666667,-54 0,-38
	z" fill="rgb(103,172,142)" stroke-width="1" transform="rotate(154.28571428571 0,0)"/><path d="M 0,0
	c 35.333333333333,-32.666666666667 32.666666666667,-54 0,-44
	M 0,0
	c -35.333333333333,-32.666666666667 -32.666666666667,-54 0,-44
	z" fill="rgb(103,172,142)" stroke-width="1" transform="rotate(201.6 0,0)"/><path d="M 0,0
	c 35.333333333333,-32.666666666667 32.666666666667,-54 0,-41.333333333333
	M 0,0
	c -35.333333333333,-32.666666666667 -32.666666666667,-54 0,-41.333333333333
	z" fill="rgb(93,162,132)" stroke-width="1" transform="rotate(234 0,0)"/><path d="M 0,0
	c 35.333333333333,-32.666666666667 32.666666666667,-54 0,-36.666666666667
	M 0,0
	c -35.333333333333,-32.666666666667 -32.666666666667,-54 0,-36.666666666667
	z" fill="rgb(123,192,162)" stroke-width="1" transform="rotate(302.4 0,0)"/><circle cx="0" cy="0" r="5.3333333333333" fill="#ffb566"/><circle cx="0" cy="0" r="1.7777777777778" fill="#ffce99"/></g><g id="fleur3"><path d="M 0,0
	c 30.285714285714,-28 28,-46.285714285714 0,-33.714285714286
	M 0,0
	c -30.285714285714,-28 -28,-46.285714285714 0,-33.714285714286
	z" fill="rgb(103,172,142)" stroke-width="1" transform="rotate(0 0,0)"/><path d="M 0,0
	c 30.285714285714,-28 28,-46.285714285714 0,-32
	M 0,0
	c -30.285714285714,-28 -28,-46.285714285714 0,-32
	z" fill="rgb(113,182,152)" stroke-width="1" transform="rotate(36.4 0,0)"/><path d="M 0,0
	c 30.285714285714,-28 28,-46.285714285714 0,-39.428571428571
	M 0,0
	c -30.285714285714,-28 -28,-46.285714285714 0,-39.428571428571
	z" fill="rgb(93,162,132)" stroke-width="1" transform="rotate(80.8 0,0)"/><path d="M 0,0
	c 30.285714285714,-28 28,-46.285714285714 0,-34.285714285714
	M 0,0
	c -30.285714285714,-28 -28,-46.285714285714 0,-34.285714285714
	z" fill="rgb(133,202,172)" stroke-width="1" transform="rotate(118.8 0,0)"/><path d="M 0,0
	c 30.285714285714,-28 28,-46.285714285714 0,-30.857142857143
	M 0,0
	c -30.285714285714,-28 -28,-46.285714285714 0,-30.857142857143
	z" fill="rgb(103,172,142)" stroke-width="1" transform="rotate(171.2 0,0)"/><path d="M 0,0
	c 30.285714285714,-28 28,-46.285714285714 0,-42.285714285714
	M 0,0
	c -30.285714285714,-28 -28,-46.285714285714 0,-42.285714285714
	z" fill="rgb(123,192,162)" stroke-width="1" transform="rotate(202 0,0)"/><path d="M 0,0
	c 30.285714285714,-28 28,-46.285714285714 0,-36
	M 0,0
	c -30.285714285714,-28 -28,-46.285714285714 0,-36
	z" fill="rgb(123,192,162)" stroke-width="1" transform="rotate(232.8 0,0)"/><path d="M 0,0
	c 30.285714285714,-28 28,-46.285714285714 0,-35.428571428571
	M 0,0
	c -30.285714285714,-28 -28,-46.285714285714 0,-35.428571428571
	z" fill="rgb(113,182,152)" stroke-width="1" transform="rotate(291.2 0,0)"/><path d="M 0,0
	c 30.285714285714,-28 28,-46.285714285714 0,-32.571428571429
	M 0,0
	c -30.285714285714,-28 -28,-46.285714285714 0,-32.571428571429
	z" fill="rgb(103,172,142)" stroke-width="1" transform="rotate(326.4 0,0)"/><circle cx="0" cy="0" r="4.5714285714286" fill="#ffb566"/><circle cx="0" cy="0" r="1.5238095238095" fill="#ffce99"/></g><g id="fleur4"><path d="M 0,0
	c 26.5,-24.5 24.5,-40.5 0,-31.5
	M 0,0
	c -26.5,-24.5 -24.5,-40.5 0,-31.5
	z" fill="rgb(123,192,162)" stroke-width="1" transform="rotate(0 0,0)"/><path d="M 0,0
	c 26.5,-24.5 24.5,-40.5 0,-32
	M 0,0
	c -26.5,-24.5 -24.5,-40.5 0,-32
	z" fill="rgb(103,172,142)" stroke-width="1" transform="rotate(28.246153846154 0,0)"/><path d="M 0,0
	c 26.5,-24.5 24.5,-40.5 0,-32.5
	M 0,0
	c -26.5,-24.5 -24.5,-40.5 0,-32.5
	z" fill="rgb(123,192,162)" stroke-width="1" transform="rotate(54.830769230769 0,0)"/><path d="M 0,0
	c 26.5,-24.5 24.5,-40.5 0,-33.5
	M 0,0
	c -26.5,-24.5 -24.5,-40.5 0,-33.5
	z" fill="rgb(133,202,172)" stroke-width="1" transform="rotate(75.6 0,0)"/><path d="M 0,0
	c 26.5,-24.5 24.5,-40.5 0,-33.5
	M 0,0
	c -26.5,-24.5 -24.5,-40.5 0,-33.5
	z" fill="rgb(113,182,152)" stroke-width="1" transform="rotate(120.73846153846 0,0)"/><path d="M 0,0
	c 26.5,-24.5 24.5,-40.5 0,-31.5
	M 0,0
	c -26.5,-24.5 -24.5,-40.5 0,-31.5
	z" fill="rgb(133,202,172)" stroke-width="1" transform="rotate(146.76923076923 0,0)"/><path d="M 0,0
	c 26.5,-24.5 24.5,-40.5 0,-36.5
	M 0,0
	c -26.5,-24.5 -24.5,-40.5 0,-36.5
	z" fill="rgb(103,172,142)" stroke-width="1" transform="rotate(162.83076923077 0,0)"/><path d="M 0,0
	c 26.5,-24.5 24.5,-40.5 0,-34
	M 0,0
	c -26.5,-24.5 -24.5,-40.5 0,-34
	z" fill="rgb(93,162,132)" stroke-width="1" transform="rotate(191.90769230769 0,0)"/><path d="M 0,0
	c 26.5,-24.5 24.5,-40.5 0,-36.5
	M 0,0
	c -26.5,-24.5 -24.5,-40.5 0,-36.5
	z" fill="rgb(113,182,152)" stroke-width="1" transform="rotate(241.47692307692 0,0)"/><path d="M 0,0
	c 26.5,-24.5 24.5,-40.5 0,-35
	M 0,0
	c -26.5,-24.5 -24.5,-40.5 0,-35
	z" fill="rgb(133,202,172)" stroke-width="1" transform="rotate(241.75384615385 0,0)"/><path d="M 0,0
	c 26.5,-24.5 24.5,-40.5 0,-35
	M 0,0
	c -26.5,-24.5 -24.5,-40.5 0,-35
	z" fill="rgb(113,182,152)" stroke-width="1" transform="rotate(274.15384615385 0,0)"/><path d="M 0,0
	c 26.5,-24.5 24.5,-40.5 0,-35.5
	M 0,0
	c -26.5,-24.5 -24.5,-40.5 0,-35.5
	z" fill="rgb(93,162,132)" stroke-width="1" transform="rotate(277.2 0,0)"/><path d="M 0,0
	c 26.5,-24.5 24.5,-40.5 0,-29
	M 0,0
	c -26.5,-24.5 -24.5,-40.5 0,-29
	z" fill="rgb(93,162,132)" stroke-width="1" transform="rotate(315.69230769231 0,0)"/><circle cx="0" cy="0" r="4" fill="#ffb566"/><circle cx="0" cy="0" r="1.3333333333333" fill="#ffce99"/></g></defs><use xlink:href="#feuille4"
		x="259.736" y="430.9824" 
		transform="rotate(81.8 259.736,430.9824)"
		fill="rgb(89,73,63)" /><use xlink:href="#feuille1"
	x="212.50175" y="473.9271375" 
	transform="rotate(-49  212.50175,473.9271375)"
	fill="rgb(119,103,93)" /><use xlink:href="#feuille1"
	x="212.50175" y="473.9271375" 
	transform="rotate(59  212.50175,473.9271375)"
	fill="rgb(109,93,83)" /><path d="M 203 480 c 66,-41.4 78,-62.1 90,-207  " stroke="rgb(54,160,166)" stroke-width="18" fill="transparent"/><use xlink:href="#fleur1"
x="293" y="273" 
fill="Pink" /><use xlink:href="#feuille2"
		x="132.0864" y="422.1312" 
		transform="rotate(-74.8 132.0864,422.1312)"
		fill="rgb(99,83,73)" /><use xlink:href="#feuille1"
	x="146.6352" y="468.8856" 
	transform="rotate(63  146.6352,468.8856)"
	fill="rgb(119,103,93)" /><use xlink:href="#feuille1"
	x="146.6352" y="468.8856" 
	transform="rotate(-60  146.6352,468.8856)"
	fill="rgb(109,93,83)" /><use xlink:href="#feuille1"
	x="146.6352" y="468.8856" 
	transform="rotate(69  146.6352,468.8856)"
	fill="rgb(109,93,83)" /><path d="M 154 480 c -55.466666666667,-79.2 21.333333333333,-52.8 -64,-132  " stroke="rgb(54,160,166)" stroke-width="16" fill="transparent"/><use xlink:href="#fleur2"
x="90" y="348" 
fill="Pink" /></svg>