<?xml version="1.0" encoding="iso-8859-1"?>
<svg version="1.1" id="Capa_1" xmlns="http://www.w3.org/2000/svg" xmlns:xlink="http://www.w3.org/1999/xlink" x="0px" y="0px"
viewBox="0 0 500 500" xml:space="preserve"><defs><g id="feuille1">
<path d="M 0,0
c 24,-41 35,-32.8 0,-97
M 0,0
c -24,-41 -35,-32.8 0,-97
z" stroke="#85e085" stroke-width="0"/>
<polygon points="-3,3, 0,-67.9 3 3" stroke="rgb(58,194,126)" stroke-width="2" fill="rgb(58,194,126)"/>
</g>
<g id="feuille2">
<path d="M 0,0
c 16,-27.333333333333 23.333333333333,-21.866666666667 0,-64.666666666667
M 0,0
c -16,-27.333333333333 -23.333333333333,-21.866666666667 0,-64.666666666667
z" stroke="#85e085" stroke-width="0"/>
<polygon points="-3 3, 0,-45.266666666667, 3 3" stroke="rgb(58,194,126)" stroke-width="1" fill="rgb(58,194,126)"/>
</g><g id="feuille3">
<path d="M 0,0
c 12,-20.5 17.5,-16.4 0,-48.5
M 0,0
c -12,-20.5 -17.5,-16.4 0,-48.5
z" stroke="#85e085" stroke-width="0"/>
<polygon points="-3 3, 0,-33.95, 3 3" stroke="rgb(58,194,126)" stroke-width="1" fill="rgb(58,194,126)"/>
</g><g id="feuille4">
<path d="M 0,0
c 9.6,-16.4 14,-13.12 0,-38.8
M 0,0
c -9.6,-16.4 -14,-13.12 0,-38.8
z" stroke="#85e085" stroke-width="0"/>
<polygon points="-3 3, 0,-27.16, 3 3" stroke="rgb(58,194,126)" stroke-width="1" fill="rgb(58,194,126)"/>
</g><g id="fleur1"><path d="M 0,0
	c 56,0 27,0 0,-80
	M 0,0
	c -56,0 -27,0 0,-80
	z" fill="rgb(133,171,72)" stroke-width="1" transform="rotate(0 0,0)"/><path d="M 0,0
	c 56,0 27,0 0,-79
	M 0,0
	c -56,0 -27,0 0,-79
	z" fill="rgb(133,171,72)" stroke-width="1" transform="rotate(25.44 0,0)"/><path d="M 0,0
	c 56,0 27,0 0,-70
	M 0,0
	c -56,0 -27,0 0,-70
	z" fill="rgb(103,141,42)" stroke-width="1" transform="rotate(43.2 0,0)"/><path d="M 0,0
	c 56,0 27,0 0,-71
	M 0,0
	c -56,0 -27,0 0,-71
	z" fill="rgb(103,141,42)" stroke-width="1" transform="rotate(79.2 0,0)"/><path d="M 0,0
	c 56,0 27,0 0,-71
	M 0,0
	c -56,0 -27,0 0,-71
	z" fill="rgb(133,171,72)" stroke-width="1" transform="rotate(102.72 0,0)"/><path d="M 0,0
	c 56,0 27,0 0,-76
	M 0,0
	c -56,0 -27,0 0,-76
	z" fill="rgb(103,141,42)" stroke-width="1" transform="rotate(129.6 0,0)"/><path d="M 0,0
	c 56,0 27,0 0,-77
	M 0,0
	c -56,0 -27,0 0,-77
	z" fill="rgb(113,151,52)" stroke-width="1" transform="rotate(131.04 0,0)"/><path d="M 0,0
	c 56,0 27,0 0,-73
	M 0,0
	c -56,0 -27,0 0,-73
	z" fill="rgb(103,141,42)" stroke-width="1" transform="rotate(162.96 0,0)"/><path d="M 0,0
	c 56,0 27,0 0,-76
	M 0,0
	c -56,0 -27,0 0,-76
	z" fill="rgb(113,151,52)" stroke-width="1" transform="rotate(205.44 0,0)"/><path d="M 0,0
	c 56,0 27,0 0,-80
	M 0,0
	c -56,0 -27,0 0,-80
	z" fill="rgb(123,161,62)" stroke-width="1" transform="rotate(235.44 0,0)"/><path d="M 0,0
	c 56,0 27,0 0,-88
	M 0,0
	c -56,0 -27,0 0,-88
	z" fill="rgb(133,171,72)" stroke-width="1" transform="rotate(216 0,0)"/><path d="M 0,0
	c 56,0 27,0 0,-86
	M 0,0
	c -56,0 -27,0 0,-86
	z" fill="rgb(93,131,32)" stroke-width="1" transform="rotate(279.84 0,0)"/><path d="M 0,0
	c 56,0 27,0 0,-78
	M 0,0
	c -56,0 -27,0 0,-78
	z" fill="rgb(93,131,32)" stroke-width="1" transform="rotate(293.76 0,0)"/><path d="M 0,0
	c 56,0 27,0 0,-84
	M 0,0
	c -56,0 -27,0 0,-84
	z" fill="rgb(93,131,32)" stroke-width="1" transform="rotate(330.72 0,0)"/><path d="M 0,0
	c 56,0 27,0 0,-76
	M 0,0
	c -56,0 -27,0 0,-76
	z" fill="rgb(123,161,62)" stroke-width="1" transform="rotate(359.52 0,0)"/><circle cx="0" cy="0" r="7.8" fill="#ffb566"/><circle cx="0" cy="0" r="2.6" fill="#ffce99"/></g><g id="fleur2"><path d="M 0,0
	c 37.333333333333,0 18,0 0,-57.333333333333
	M 0,0
	c -37.333333333333,0 -18,0 0,-57.333333333333
	z" fill="rgb(123,161,62)" stroke-width="1" transform="rotate(0 0,0)"/><path d="M 0,0
	c 37.333333333333,0 18,0 0,-56.666666666667
	M 0,0
	c -37.333333333333,0 -18,0 0,-56.666666666667
	z" fill="rgb(93,131,32)" stroke-width="1" transform="rotate(75.6 0,0)"/><path d="M 0,0
	c 37.333333333333,0 18,0 0,-45.333333333333
	M 0,0
	c -37.333333333333,0 -18,0 0,-45.333333333333
	z" fill="rgb(133,171,72)" stroke-width="1" transform="rotate(148.32 0,0)"/><path d="M 0,0
	c 37.333333333333,0 18,0 0,-53.333333333333
	M 0,0
	c -37.333333333333,0 -18,0 0,-53.333333333333
	z" fill="rgb(103,141,42)" stroke-width="1" transform="rotate(200.88 0,0)"/><path d="M 0,0
	c 37.333333333333,0 18,0 0,-50.666666666667
	M 0,0
	c -37.333333333333,0 -18,0 0,-50.666666666667
	z" fill="rgb(113,151,52)" stroke-width="1" transform="rotate(302.4 0,0)"/><circle cx="0" cy="0" r="5.2" fill="#ffb566"/><circle cx="0" cy="0" r="1.7333333333333" fill="#ffce99"/></g><g id="fleur3"><path d="M 0,0
	c 32,0 15.428571428571,0 0,-47.428571428571
	M 0,0
	c -32,0 -15.428571428571,0 0,-47.428571428571
	z" fill="rgb(113,151,52)" stroke-width="1" transform="rotate(0 0,0)"/><path d="M 0,0
	c 32,0 15.428571428571,0 0,-42.285714285714
	M 0,0
	c -32,0 -15.428571428571,0 0,-42.285714285714
	z" fill="rgb(123,161,62)" stroke-width="1" transform="rotate(55.028571428571 0,0)"/><path d="M 0,0
	c 32,0 15.428571428571,0 0,-39.428571428571
	M 0,0
	c -32,0 -15.428571428571,0 0,-39.428571428571
	z" fill="rgb(123,161,62)" stroke-width="1" transform="rotate(95.657142857143 0,0)"/><path d="M 0,0
	c 32,0 15.428571428571,0 0,-38.857142857143
	M 0,0
	c -32,0 -15.428571428571,0 0,-38.857142857143
	z" fill="rgb(123,161,62)" stroke-width="1" transform="rotate(165.08571428571 0,0)"/><path d="M 0,0
	c 32,0 15.428571428571,0 0,-39.428571428571
	M 0,0
	c -32,0 -15.428571428571,0 0,-39.428571428571
	z" fill="rgb(113,151,52)" stroke-width="1" transform="rotate(199.54285714286 0,0)"/><path d="M 0,0
	c 32,0 15.428571428571,0 0,-41.714285714286
	M 0,0
	c -32,0 -15.428571428571,0 0,-41.714285714286
	z" fill="rgb(93,131,32)" stroke-width="1" transform="rotate(231.42857142857 0,0)"/><path d="M 0,0
	c 32,0 15.428571428571,0 0,-46.285714285714
	M 0,0
	c -32,0 -15.428571428571,0 0,-46.285714285714
	z" fill="rgb(103,141,42)" stroke-width="1" transform="rotate(290.05714285714 0,0)"/><circle cx="0" cy="0" r="4.4571428571429" fill="#ffb566"/><circle cx="0" cy="0" r="1.4857142857143" fill="#ffce99"/></g><g id="fleur4"><path d="M 0,0
	c 28,0 13.5,0 0,-37
	M 0,0
	c -28,0 -13.5,0 0,-37
	z" fill="rgb(123,161,62)" stroke-width="1" transform="rotate(0 0,0)"/><path d="M 0,0
	c 28,0 13.5,0 0,-37.5
	M 0,0
	c -28,0 -13.5,0 0,-37.5
	z" fill="rgb(133,171,72)" stroke-width="1" transform="rotate(30.3 0,0)"/><path d="M 0,0
	c 28,0 13.5,0 0,-38.5
	M 0,0
	c -28,0 -13.5,0 0,-38.5
	z" fill="rgb(123,161,62)" stroke-width="1" transform="rotate(58.2 0,0)"/><path d="M 0,0
	c 28,0 13.5,0 0,-34.5
	M 0,0
	c -28,0 -13.5,0 0,-34.5
	z" fill="rgb(123,161,62)" stroke-width="1" transform="rotate(98.1 0,0)"/><path d="M 0,0
	c 28,0 13.5,0 0,-40
	M 0,0
	c -28,0 -13.5,0 0,-40
	z" fill="rgb(93,131,32)" stroke-width="1" transform="rotate(115.2 0,0)"/><path d="M 0,0
	c 28,0 13.5,0 0,-35
	M 0,0
	c -28,0 -13.5,0 0,-35
	z" fill="rgb(123,161,62)" stroke-width="1" transform="rotate(154.5 0,0)"/><path d="M 0,0
	c 28,0 13.5,0 0,-34
	M 0,0
	c -28,0 -13.5,0 0,-34
	z" fill="rgb(103,141,42)" stroke-width="1" transform="rotate(174.6 0,0)"/><path d="M 0,0
	c 28,0 13.5,0 0,-42
	M 0,0
	c -28,0 -13.5,0 0,-42
	z" fill="rgb(113,151,52)" stroke-width="1" transform="rotate(228.9 0,0)"/><path d="M 0,0
	c 28,0 13.5,0 0,-34.5
	M 0,0
	c -28,0 -13.5,0 0,-34.5
	z" fill="rgb(133,171,72)" stroke-width="1" transform="rotate(225.6 0,0)"/><path d="M 0,0
	c 28,0 13.5,0 0,-38
	M 0,0
	c -28,0 -13.5,0 0,-38
	z" fill="rgb(113,151,52)" stroke-width="1" transform="rotate(272.7 0,0)"/><path d="M 0,0
	c 28,0 13.5,0 0,-41.5
	M 0,0
	c -28,0 -13.5,0 0,-41.5
	z" fill="rgb(103,141,42)" stroke-width="1" transform="rotate(288 0,0)"/><path d="M 0,0
	c 28,0 13.5,0 0,-36
	M 0,0
	c -28,0 -13.5,0 0,-36
	z" fill="rgb(93,131,32)" stroke-width="1" transform="rotate(330 0,0)"/><circle cx="0" cy="0" r="3.9" fill="#ffb566"/><circle cx="0" cy="0" r="1.3" fill="#ffce99"/></g></defs><use xlink:href="#feuille2"
		x="272.45325" y="432.604875" 
		transform="rotate(71.9 272.45325,432.604875)"
		fill="rgb(108,204,172)" /><use xlink:href="#feuille1"
	x="272.97925" y="473.525875" 
	transform="rotate(-76  272.97925,473.525875)"
	fill="rgb(118,214,182)" /><use xlink:href="#feuille1"
	x="272.97925" y="473.525875" 
	transform="rotate(-65  272.97925,473.525875)"
	fill="rgb(88,184,152)" /><use xlink:href="#feuille1"
	x="272.97925" y="473.525875" 
	transform="rotate(-71  272.97925,473.525875)"
	fill="rgb(88,184,152)" /><path d="M 273 480 c 0,-45.3 -3,-45.3 5,-151  " stroke="rgb(58,194,126)" stroke-width="18" fill="transparent"/><use xlink:href="#fleur1"
x="278" y="329" 
fill="Pink" /><use xlink:href="#feuille2"
		x="280.91965" y="376.9691" 
		transform="rotate(63.8 280.91965,376.9691)"
		fill="rgb(108,204,172)" /><use xlink:href="#feuille4"
		x="280.91965" y="376.9691" 
		transform="rotate(-61.4 280.91965,376.9691)"
		fill="rgb(128,224,192)" /><use xlink:href="#feuille1"
	x="261.95755" y="462.0677" 
	transform="rotate(-42  261.95755,462.0677)"
	fill="rgb(88,184,152)" /><use xlink:href="#feuille1"
	x="261.95755" y="462.0677" 
	transform="rotate(-48  261.95755,462.0677)"
	fill="rgb(118,214,182)" /><path d="M 256 480 c 43.2,-123.6 14.4,-164.8 54,-206  " stroke="rgb(58,194,126)" stroke-width="16" fill="transparent"/><use xlink:href="#fleur2"
x="310" y="274" 
fill="Pink" /><use xlink:href="#feuille4"
		x="295.3152" y="378.864" 
		transform="rotate(-100.1 295.3152,378.864)"
		fill="rgb(108,204,172)" /><use xlink:href="#feuille3"
		x="295.3152" y="378.864" 
		transform="rotate(93.3 295.3152,378.864)"
		fill="rgb(68,164,132)" /><use xlink:href="#feuille2"
		x="295.3152" y="378.864" 
		transform="rotate(99.5 295.3152,378.864)"
		fill="rgb(118,214,182)" /><use xlink:href="#feuille2"
		x="295.3152" y="378.864" 
		transform="rotate(-105.9 295.3152,378.864)"
		fill="rgb(68,164,132)" /><use xlink:href="#feuille1"
	x="301.2588" y="467.116125" 
	transform="rotate(67  301.2588,467.116125)"
	fill="rgb(118,214,182)" /><use xlink:href="#feuille1"
	x="301.2588" y="467.116125" 
	transform="rotate(65  301.2588,467.116125)"
	fill="rgb(98,194,162)" /><path d="M 306 480 c -36,-90.3 19.2,-90.3 -36,-129  " stroke="rgb(58,194,126)" stroke-width="14" fill="transparent"/><use xlink:href="#fleur3"
x="270" y="351" 
fill="Pink" /></svg>