<?xml version="1.0" encoding="iso-8859-1"?>
<svg version="1.1" id="Capa_1" xmlns="http://www.w3.org/2000/svg" xmlns:xlink="http://www.w3.org/1999/xlink" x="0px" y="0px"
viewBox="0 0 500 500" xml:space="preserve"><defs><g id="feuille1">
<path d="M 0,0
c 62,-67 65,-53.6 0,-138
M 0,0
c -62,-67 -65,-53.6 0,-138
z" stroke="#85e085" stroke-width="0"/>
<polygon points="-3,3, 0,-96.6 3 3" stroke="rgb(73,124,52)" stroke-width="2" fill="rgb(73,124,52)"/>
</g>
<g id="feuille2">
<path d="M 0,0
c 41.333333333333,-44.666666666667 43.333333333333,-35.733333333333 0,-92
M 0,0
c -41.333333333333,-44.666666666667 -43.333333333333,-35.733333333333 0,-92
z" stroke="#85e085" stroke-width="0"/>
<polygon points="-3 3, 0,-64.4, 3 3" stroke="rgb(73,124,52)" stroke-width="1" fill="rgb(73,124,52)"/>
</g><g id="feuille3">
<path d="M 0,0
c 31,-33.5 32.5,-26.8 0,-69
M 0,0
c -31,-33.5 -32.5,-26.8 0,-69
z" stroke="#85e085" stroke-width="0"/>
<polygon points="-3 3, 0,-48.3, 3 3" stroke="rgb(73,124,52)" stroke-width="1" fill="rgb(73,124,52)"/>
</g><g id="feuille4">
<path d="M 0,0
c 24.8,-26.8 26,-21.44 0,-55.2
M 0,0
c -24.8,-26.8 -26,-21.44 0,-55.2
z" stroke="#85e085" stroke-width="0"/>
<polygon points="-3 3, 0,-38.64, 3 3" stroke="rgb(73,124,52)" stroke-width="1" fill="rgb(73,124,52)"/>
</g><g id="fleur1"><path d="M 0,0
	c 23,-47 52,-37.6 0,-95
	M 0,0
	c -23,-47 -52,-37.6 0,-95
	z" fill="rgb(112,170,209)" stroke-width="1" transform="rotate(0 0,0)"/><path d="M 0,0
	c 23,-47 52,-37.6 0,-85
	M 0,0
	c -23,-47 -52,-37.6 0,-85
	z" fill="rgb(72,130,169)" stroke-width="1" transform="rotate(33.12 0,0)"/><path d="M 0,0
	c 23,-47 52,-37.6 0,-99
	M 0,0
	c -23,-47 -52,-37.6 0,-99
	z" fill="rgb(92,150,189)" stroke-width="1" transform="rotate(69.12 0,0)"/><path d="M 0,0
	c 23,-47 52,-37.6 0,-84
	M 0,0
	c -23,-47 -52,-37.6 0,-84
	z" fill="rgb(92,150,189)" stroke-width="1" transform="rotate(97.2 0,0)"/><path d="M 0,0
	c 23,-47 52,-37.6 0,-84
	M 0,0
	c -23,-47 -52,-37.6 0,-84
	z" fill="rgb(82,140,179)" stroke-width="1" transform="rotate(141.12 0,0)"/><path d="M 0,0
	c 23,-47 52,-37.6 0,-102
	M 0,0
	c -23,-47 -52,-37.6 0,-102
	z" fill="rgb(72,130,169)" stroke-width="1" transform="rotate(174.6 0,0)"/><path d="M 0,0
	c 23,-47 52,-37.6 0,-86
	M 0,0
	c -23,-47 -52,-37.6 0,-86
	z" fill="rgb(112,170,209)" stroke-width="1" transform="rotate(207.36 0,0)"/><path d="M 0,0
	c 23,-47 52,-37.6 0,-98
	M 0,0
	c -23,-47 -52,-37.6 0,-98
	z" fill="rgb(102,160,199)" stroke-width="1" transform="rotate(277.2 0,0)"/><path d="M 0,0
	c 23,-47 52,-37.6 0,-88
	M 0,0
	c -23,-47 -52,-37.6 0,-88
	z" fill="rgb(82,140,179)" stroke-width="1" transform="rotate(288 0,0)"/><path d="M 0,0
	c 23,-47 52,-37.6 0,-101
	M 0,0
	c -23,-47 -52,-37.6 0,-101
	z" fill="rgb(92,150,189)" stroke-width="1" transform="rotate(294.84 0,0)"/><circle cx="0" cy="0" r="47" fill="#ffb566"/><circle cx="0" cy="0" r="15.666666666667" fill="#ffce99"/></g><g id="fleur2"><path d="M 0,0
	c 15.333333333333,-31.333333333333 34.666666666667,-25.066666666667 0,-56
	M 0,0
	c -15.333333333333,-31.333333333333 -34.666666666667,-25.066666666667 0,-56
	z" fill="rgb(72,130,169)" stroke-width="1" transform="rotate(0 0,0)"/><path d="M 0,0
	c 15.333333333333,-31.333333333333 34.666666666667,-25.066666666667 0,-69.333333333333
	M 0,0
	c -15.333333333333,-31.333333333333 -34.666666666667,-25.066666666667 0,-69.333333333333
	z" fill="rgb(72,130,169)" stroke-width="1" transform="rotate(22.32 0,0)"/><path d="M 0,0
	c 15.333333333333,-31.333333333333 34.666666666667,-25.066666666667 0,-65.333333333333
	M 0,0
	c -15.333333333333,-31.333333333333 -34.666666666667,-25.066666666667 0,-65.333333333333
	z" fill="rgb(102,160,199)" stroke-width="1" transform="rotate(48.48 0,0)"/><path d="M 0,0
	c 15.333333333333,-31.333333333333 34.666666666667,-25.066666666667 0,-56.666666666667
	M 0,0
	c -15.333333333333,-31.333333333333 -34.666666666667,-25.066666666667 0,-56.666666666667
	z" fill="rgb(92,150,189)" stroke-width="1" transform="rotate(71.28 0,0)"/><path d="M 0,0
	c 15.333333333333,-31.333333333333 34.666666666667,-25.066666666667 0,-69.333333333333
	M 0,0
	c -15.333333333333,-31.333333333333 -34.666666666667,-25.066666666667 0,-69.333333333333
	z" fill="rgb(72,130,169)" stroke-width="1" transform="rotate(92.16 0,0)"/><path d="M 0,0
	c 15.333333333333,-31.333333333333 34.666666666667,-25.066666666667 0,-66
	M 0,0
	c -15.333333333333,-31.333333333333 -34.666666666667,-25.066666666667 0,-66
	z" fill="rgb(92,150,189)" stroke-width="1" transform="rotate(123.6 0,0)"/><path d="M 0,0
	c 15.333333333333,-31.333333333333 34.666666666667,-25.066666666667 0,-59.333333333333
	M 0,0
	c -15.333333333333,-31.333333333333 -34.666666666667,-25.066666666667 0,-59.333333333333
	z" fill="rgb(112,170,209)" stroke-width="1" transform="rotate(135.36 0,0)"/><path d="M 0,0
	c 15.333333333333,-31.333333333333 34.666666666667,-25.066666666667 0,-64
	M 0,0
	c -15.333333333333,-31.333333333333 -34.666666666667,-25.066666666667 0,-64
	z" fill="rgb(102,160,199)" stroke-width="1" transform="rotate(184.8 0,0)"/><path d="M 0,0
	c 15.333333333333,-31.333333333333 34.666666666667,-25.066666666667 0,-62
	M 0,0
	c -15.333333333333,-31.333333333333 -34.666666666667,-25.066666666667 0,-62
	z" fill="rgb(102,160,199)" stroke-width="1" transform="rotate(199.68 0,0)"/><path d="M 0,0
	c 15.333333333333,-31.333333333333 34.666666666667,-25.066666666667 0,-56
	M 0,0
	c -15.333333333333,-31.333333333333 -34.666666666667,-25.066666666667 0,-56
	z" fill="rgb(102,160,199)" stroke-width="1" transform="rotate(224.64 0,0)"/><path d="M 0,0
	c 15.333333333333,-31.333333333333 34.666666666667,-25.066666666667 0,-62.666666666667
	M 0,0
	c -15.333333333333,-31.333333333333 -34.666666666667,-25.066666666667 0,-62.666666666667
	z" fill="rgb(82,140,179)" stroke-width="1" transform="rotate(256.8 0,0)"/><path d="M 0,0
	c 15.333333333333,-31.333333333333 34.666666666667,-25.066666666667 0,-63.333333333333
	M 0,0
	c -15.333333333333,-31.333333333333 -34.666666666667,-25.066666666667 0,-63.333333333333
	z" fill="rgb(82,140,179)" stroke-width="1" transform="rotate(282.48 0,0)"/><path d="M 0,0
	c 15.333333333333,-31.333333333333 34.666666666667,-25.066666666667 0,-56.666666666667
	M 0,0
	c -15.333333333333,-31.333333333333 -34.666666666667,-25.066666666667 0,-56.666666666667
	z" fill="rgb(112,170,209)" stroke-width="1" transform="rotate(282.24 0,0)"/><path d="M 0,0
	c 15.333333333333,-31.333333333333 34.666666666667,-25.066666666667 0,-64.666666666667
	M 0,0
	c -15.333333333333,-31.333333333333 -34.666666666667,-25.066666666667 0,-64.666666666667
	z" fill="rgb(92,150,189)" stroke-width="1" transform="rotate(336.96 0,0)"/><path d="M 0,0
	c 15.333333333333,-31.333333333333 34.666666666667,-25.066666666667 0,-66
	M 0,0
	c -15.333333333333,-31.333333333333 -34.666666666667,-25.066666666667 0,-66
	z" fill="rgb(82,140,179)" stroke-width="1" transform="rotate(339.36 0,0)"/><circle cx="0" cy="0" r="31.333333333333" fill="#ffb566"/><circle cx="0" cy="0" r="10.444444444444" fill="#ffce99"/></g><g id="fleur3"><path d="M 0,0
	c 13.142857142857,-26.857142857143 29.714285714286,-21.485714285714 0,-48.571428571429
	M 0,0
	c -13.142857142857,-26.857142857143 -29.714285714286,-21.485714285714 0,-48.571428571429
	z" fill="rgb(82,140,179)" stroke-width="1" transform="rotate(0 0,0)"/><path d="M 0,0
	c 13.142857142857,-26.857142857143 29.714285714286,-21.485714285714 0,-52
	M 0,0
	c -13.142857142857,-26.857142857143 -29.714285714286,-21.485714285714 0,-52
	z" fill="rgb(102,160,199)" stroke-width="1" transform="rotate(69.84 0,0)"/><path d="M 0,0
	c 13.142857142857,-26.857142857143 29.714285714286,-21.485714285714 0,-54.857142857143
	M 0,0
	c -13.142857142857,-26.857142857143 -29.714285714286,-21.485714285714 0,-54.857142857143
	z" fill="rgb(72,130,169)" stroke-width="1" transform="rotate(145.44 0,0)"/><path d="M 0,0
	c 13.142857142857,-26.857142857143 29.714285714286,-21.485714285714 0,-52.571428571429
	M 0,0
	c -13.142857142857,-26.857142857143 -29.714285714286,-21.485714285714 0,-52.571428571429
	z" fill="rgb(112,170,209)" stroke-width="1" transform="rotate(203.04 0,0)"/><path d="M 0,0
	c 13.142857142857,-26.857142857143 29.714285714286,-21.485714285714 0,-48
	M 0,0
	c -13.142857142857,-26.857142857143 -29.714285714286,-21.485714285714 0,-48
	z" fill="rgb(72,130,169)" stroke-width="1" transform="rotate(293.76 0,0)"/><circle cx="0" cy="0" r="26.857142857143" fill="#ffb566"/><circle cx="0" cy="0" r="8.952380952381" fill="#ffce99"/></g><g id="fleur4"><path d="M 0,0
	c 11.5,-23.5 26,-18.8 0,-46
	M 0,0
	c -11.5,-23.5 -26,-18.8 0,-46
	z" fill="rgb(72,130,169)" stroke-width="1" transform="rotate(0 0,0)"/><path d="M 0,0
	c 11.5,-23.5 26,-18.8 0,-48
	M 0,0
	c -11.5,-23.5 -26,-18.8 0,-48
	z" fill="rgb(82,140,179)" stroke-width="1" transform="rotate(32.727272727273 0,0)"/><path d="M 0,0
	c 11.5,-23.5 26,-18.8 0,-52
	M 0,0
	c -11.5,-23.5 -26,-18.8 0,-52
	z" fill="rgb(102,160,199)" stroke-width="1" transform="rotate(60.872727272727 0,0)"/><path d="M 0,0
	c 11.5,-23.5 26,-18.8 0,-45.5
	M 0,0
	c -11.5,-23.5 -26,-18.8 0,-45.5
	z" fill="rgb(112,170,209)" stroke-width="1" transform="rotate(103.09090909091 0,0)"/><path d="M 0,0
	c 11.5,-23.5 26,-18.8 0,-45
	M 0,0
	c -11.5,-23.5 -26,-18.8 0,-45
	z" fill="rgb(102,160,199)" stroke-width="1" transform="rotate(144 0,0)"/><path d="M 0,0
	c 11.5,-23.5 26,-18.8 0,-51
	M 0,0
	c -11.5,-23.5 -26,-18.8 0,-51
	z" fill="rgb(112,170,209)" stroke-width="1" transform="rotate(165.27272727273 0,0)"/><path d="M 0,0
	c 11.5,-23.5 26,-18.8 0,-51
	M 0,0
	c -11.5,-23.5 -26,-18.8 0,-51
	z" fill="rgb(82,140,179)" stroke-width="1" transform="rotate(216 0,0)"/><path d="M 0,0
	c 11.5,-23.5 26,-18.8 0,-51.5
	M 0,0
	c -11.5,-23.5 -26,-18.8 0,-51.5
	z" fill="rgb(112,170,209)" stroke-width="1" transform="rotate(233.67272727273 0,0)"/><path d="M 0,0
	c 11.5,-23.5 26,-18.8 0,-48.5
	M 0,0
	c -11.5,-23.5 -26,-18.8 0,-48.5
	z" fill="rgb(112,170,209)" stroke-width="1" transform="rotate(272.29090909091 0,0)"/><path d="M 0,0
	c 11.5,-23.5 26,-18.8 0,-50
	M 0,0
	c -11.5,-23.5 -26,-18.8 0,-50
	z" fill="rgb(82,140,179)" stroke-width="1" transform="rotate(303.38181818182 0,0)"/><path d="M 0,0
	c 11.5,-23.5 26,-18.8 0,-44.5
	M 0,0
	c -11.5,-23.5 -26,-18.8 0,-44.5
	z" fill="rgb(102,160,199)" stroke-width="1" transform="rotate(356.72727272727 0,0)"/><circle cx="0" cy="0" r="23.5" fill="#ffb566"/><circle cx="0" cy="0" r="7.8333333333333" fill="#ffce99"/></g></defs><use xlink:href="#feuille1"
	x="243.880925" y="465.0032" 
	transform="rotate(-37  243.880925,465.0032)"
	fill="rgb(132,91,166)" /><use xlink:href="#feuille1"
	x="243.880925" y="465.0032" 
	transform="rotate(-31  243.880925,465.0032)"
	fill="rgb(152,111,186)" /><path d="M 242 480 c 14.466666666667,-103 -10.333333333333,-144.2 -31,-206  " stroke="rgb(73,124,52)" stroke-width="18" fill="transparent"/><use xlink:href="#fleur1"
x="211" y="274" 
fill="Pink" /><use xlink:href="#feuille3"
		x="238.475" y="262.9453125" 
		transform="rotate(-65 238.475,262.9453125)"
		fill="rgb(172,131,206)" /><use xlink:href="#feuille4"
		x="238.475" y="262.9453125" 
		transform="rotate(-76.9 238.475,262.9453125)"
		fill="rgb(172,131,206)" /><use xlink:href="#feuille2"
		x="238.475" y="262.9453125" 
		transform="rotate(-66.5 238.475,262.9453125)"
		fill="rgb(112,71,146)" /><use xlink:href="#feuille4"
		x="238.475" y="262.9453125" 
		transform="rotate(-92 238.475,262.9453125)"
		fill="rgb(142,101,176)" /><use xlink:href="#feuille4"
		x="238.475" y="262.9453125" 
		transform="rotate(-63.8 238.475,262.9453125)"
		fill="rgb(132,91,166)" /><use xlink:href="#feuille4"
		x="238.475" y="262.9453125" 
		transform="rotate(-58 238.475,262.9453125)"
		fill="rgb(172,131,206)" /><use xlink:href="#feuille1"
	x="195.7022" y="461.7811875" 
	transform="rotate(53  195.7022,461.7811875)"
	fill="rgb(142,101,176)" /><path d="M 200 480 c -34.2,-126 45.6,-157.5 57,-315  " stroke="rgb(73,124,52)" stroke-width="16" fill="transparent"/><use xlink:href="#fleur2"
x="257" y="165" 
fill="Pink" /><use xlink:href="#feuille4"
		x="206.64" y="341.0090625" 
		transform="rotate(-69.4 206.64,341.0090625)"
		fill="rgb(112,71,146)" /><use xlink:href="#feuille3"
		x="206.64" y="341.0090625" 
		transform="rotate(93.3 206.64,341.0090625)"
		fill="rgb(162,121,196)" /><use xlink:href="#feuille3"
		x="206.64" y="341.0090625" 
		transform="rotate(-96.1 206.64,341.0090625)"
		fill="rgb(142,101,176)" /><use xlink:href="#feuille3"
		x="222" y="248.3484375" 
		transform="rotate(-81.3 222,248.3484375)"
		fill="rgb(132,91,166)" /><use xlink:href="#feuille1"
	x="213.04" y="466.5795625" 
	transform="rotate(56  213.04,466.5795625)"
	fill="rgb(122,81,156)" /><use xlink:href="#feuille1"
	x="213.04" y="466.5795625" 
	transform="rotate(-72  213.04,466.5795625)"
	fill="rgb(162,121,196)" /><path d="M 216 480 c -21.333333333333,-86.7 -10.666666666667,-231.2 32,-289  " stroke="rgb(73,124,52)" stroke-width="14" fill="transparent"/><use xlink:href="#fleur3"
x="248" y="191" 
fill="Pink" /></svg>