<?xml version="1.0" encoding="iso-8859-1"?>
<svg version="1.1" id="Capa_1" xmlns="http://www.w3.org/2000/svg" xmlns:xlink="http://www.w3.org/1999/xlink" x="0px" y="0px"
viewBox="0 0 500 500" xml:space="preserve"><defs><g id="feuille1">
<path d="M 0,0
c 68,-77 41,-61.6 0,-95
M 0,0
c -68,-77 -41,-61.6 0,-95
z" stroke="#85e085" stroke-width="0"/>
<polygon points="-3,3, 0,-66.5 3 3" stroke="rgb(164,56,177)" stroke-width="2" fill="rgb(164,56,177)"/>
</g>
<g id="feuille2">
<path d="M 0,0
c 45.333333333333,-51.333333333333 27.333333333333,-41.066666666667 0,-63.333333333333
M 0,0
c -45.333333333333,-51.333333333333 -27.333333333333,-41.066666666667 0,-63.333333333333
z" stroke="#85e085" stroke-width="0"/>
<polygon points="-3 3, 0,-44.333333333333, 3 3" stroke="rgb(164,56,177)" stroke-width="1" fill="rgb(164,56,177)"/>
</g><g id="feuille3">
<path d="M 0,0
c 34,-38.5 20.5,-30.8 0,-47.5
M 0,0
c -34,-38.5 -20.5,-30.8 0,-47.5
z" stroke="#85e085" stroke-width="0"/>
<polygon points="-3 3, 0,-33.25, 3 3" stroke="rgb(164,56,177)" stroke-width="1" fill="rgb(164,56,177)"/>
</g><g id="feuille4">
<path d="M 0,0
c 27.2,-30.8 16.4,-24.64 0,-38
M 0,0
c -27.2,-30.8 -16.4,-24.64 0,-38
z" stroke="#85e085" stroke-width="0"/>
<polygon points="-3 3, 0,-26.6, 3 3" stroke="rgb(164,56,177)" stroke-width="1" fill="rgb(164,56,177)"/>
</g><g id="fleur1"><path d="M 0,0
	c 33,-8 50,-29 0,-67
	M 0,0
	c -33,-8 -50,-29 0,-67
	z" fill="rgb(178,80,110)" stroke-width="1" transform="rotate(0 0,0)"/><path d="M 0,0
	c 33,-8 50,-29 0,-80
	M 0,0
	c -33,-8 -50,-29 0,-80
	z" fill="rgb(178,80,110)" stroke-width="1" transform="rotate(46.8 0,0)"/><path d="M 0,0
	c 33,-8 50,-29 0,-78
	M 0,0
	c -33,-8 -50,-29 0,-78
	z" fill="rgb(158,60,90)" stroke-width="1" transform="rotate(111.08571428571 0,0)"/><path d="M 0,0
	c 33,-8 50,-29 0,-79
	M 0,0
	c -33,-8 -50,-29 0,-79
	z" fill="rgb(148,50,80)" stroke-width="1" transform="rotate(148.11428571429 0,0)"/><path d="M 0,0
	c 33,-8 50,-29 0,-75
	M 0,0
	c -33,-8 -50,-29 0,-75
	z" fill="rgb(188,90,120)" stroke-width="1" transform="rotate(207.77142857143 0,0)"/><path d="M 0,0
	c 33,-8 50,-29 0,-83
	M 0,0
	c -33,-8 -50,-29 0,-83
	z" fill="rgb(188,90,120)" stroke-width="1" transform="rotate(272.57142857143 0,0)"/><path d="M 0,0
	c 33,-8 50,-29 0,-73
	M 0,0
	c -33,-8 -50,-29 0,-73
	z" fill="rgb(158,60,90)" stroke-width="1" transform="rotate(290.05714285714 0,0)"/><circle cx="0" cy="0" r="7.7" fill="#ffb566"/><circle cx="0" cy="0" r="2.5666666666667" fill="#ffce99"/></g><g id="fleur2"><path d="M 0,0
	c 22,-5.3333333333333 33.333333333333,-19.333333333333 0,-50
	M 0,0
	c -22,-5.3333333333333 -33.333333333333,-19.333333333333 0,-50
	z" fill="rgb(158,60,90)" stroke-width="1" transform="rotate(0 0,0)"/><path d="M 0,0
	c 22,-5.3333333333333 33.333333333333,-19.333333333333 0,-55.333333333333
	M 0,0
	c -22,-5.3333333333333 -33.333333333333,-19.333333333333 0,-55.333333333333
	z" fill="rgb(188,90,120)" stroke-width="1" transform="rotate(30.461538461538 0,0)"/><path d="M 0,0
	c 22,-5.3333333333333 33.333333333333,-19.333333333333 0,-51.333333333333
	M 0,0
	c -22,-5.3333333333333 -33.333333333333,-19.333333333333 0,-51.333333333333
	z" fill="rgb(188,90,120)" stroke-width="1" transform="rotate(54.830769230769 0,0)"/><path d="M 0,0
	c 22,-5.3333333333333 33.333333333333,-19.333333333333 0,-50.666666666667
	M 0,0
	c -22,-5.3333333333333 -33.333333333333,-19.333333333333 0,-50.666666666667
	z" fill="rgb(158,60,90)" stroke-width="1" transform="rotate(83.076923076923 0,0)"/><path d="M 0,0
	c 22,-5.3333333333333 33.333333333333,-19.333333333333 0,-49.333333333333
	M 0,0
	c -22,-5.3333333333333 -33.333333333333,-19.333333333333 0,-49.333333333333
	z" fill="rgb(188,90,120)" stroke-width="1" transform="rotate(107.44615384615 0,0)"/><path d="M 0,0
	c 22,-5.3333333333333 33.333333333333,-19.333333333333 0,-45.333333333333
	M 0,0
	c -22,-5.3333333333333 -33.333333333333,-19.333333333333 0,-45.333333333333
	z" fill="rgb(148,50,80)" stroke-width="1" transform="rotate(152.30769230769 0,0)"/><path d="M 0,0
	c 22,-5.3333333333333 33.333333333333,-19.333333333333 0,-51.333333333333
	M 0,0
	c -22,-5.3333333333333 -33.333333333333,-19.333333333333 0,-51.333333333333
	z" fill="rgb(178,80,110)" stroke-width="1" transform="rotate(154.52307692308 0,0)"/><path d="M 0,0
	c 22,-5.3333333333333 33.333333333333,-19.333333333333 0,-54
	M 0,0
	c -22,-5.3333333333333 -33.333333333333,-19.333333333333 0,-54
	z" fill="rgb(188,90,120)" stroke-width="1" transform="rotate(195.78461538462 0,0)"/><path d="M 0,0
	c 22,-5.3333333333333 33.333333333333,-19.333333333333 0,-49.333333333333
	M 0,0
	c -22,-5.3333333333333 -33.333333333333,-19.333333333333 0,-49.333333333333
	z" fill="rgb(178,80,110)" stroke-width="1" transform="rotate(214.89230769231 0,0)"/><path d="M 0,0
	c 22,-5.3333333333333 33.333333333333,-19.333333333333 0,-49.333333333333
	M 0,0
	c -22,-5.3333333333333 -33.333333333333,-19.333333333333 0,-49.333333333333
	z" fill="rgb(168,70,100)" stroke-width="1" transform="rotate(236.76923076923 0,0)"/><path d="M 0,0
	c 22,-5.3333333333333 33.333333333333,-19.333333333333 0,-46
	M 0,0
	c -22,-5.3333333333333 -33.333333333333,-19.333333333333 0,-46
	z" fill="rgb(168,70,100)" stroke-width="1" transform="rotate(293.53846153846 0,0)"/><path d="M 0,0
	c 22,-5.3333333333333 33.333333333333,-19.333333333333 0,-52
	M 0,0
	c -22,-5.3333333333333 -33.333333333333,-19.333333333333 0,-52
	z" fill="rgb(168,70,100)" stroke-width="1" transform="rotate(295.47692307692 0,0)"/><path d="M 0,0
	c 22,-5.3333333333333 33.333333333333,-19.333333333333 0,-52.666666666667
	M 0,0
	c -22,-5.3333333333333 -33.333333333333,-19.333333333333 0,-52.666666666667
	z" fill="rgb(168,70,100)" stroke-width="1" transform="rotate(315.69230769231 0,0)"/><circle cx="0" cy="0" r="5.1333333333333" fill="#ffb566"/><circle cx="0" cy="0" r="1.7111111111111" fill="#ffce99"/></g><g id="fleur3"><path d="M 0,0
	c 18.857142857143,-4.5714285714286 28.571428571429,-16.571428571429 0,-40
	M 0,0
	c -18.857142857143,-4.5714285714286 -28.571428571429,-16.571428571429 0,-40
	z" fill="rgb(178,80,110)" stroke-width="1" transform="rotate(0 0,0)"/><path d="M 0,0
	c 18.857142857143,-4.5714285714286 28.571428571429,-16.571428571429 0,-39.428571428571
	M 0,0
	c -18.857142857143,-4.5714285714286 -28.571428571429,-16.571428571429 0,-39.428571428571
	z" fill="rgb(158,60,90)" stroke-width="1" transform="rotate(22.8 0,0)"/><path d="M 0,0
	c 18.857142857143,-4.5714285714286 28.571428571429,-16.571428571429 0,-48
	M 0,0
	c -18.857142857143,-4.5714285714286 -28.571428571429,-16.571428571429 0,-48
	z" fill="rgb(148,50,80)" stroke-width="1" transform="rotate(48 0,0)"/><path d="M 0,0
	c 18.857142857143,-4.5714285714286 28.571428571429,-16.571428571429 0,-40.571428571429
	M 0,0
	c -18.857142857143,-4.5714285714286 -28.571428571429,-16.571428571429 0,-40.571428571429
	z" fill="rgb(148,50,80)" stroke-width="1" transform="rotate(72 0,0)"/><path d="M 0,0
	c 18.857142857143,-4.5714285714286 28.571428571429,-16.571428571429 0,-38.285714285714
	M 0,0
	c -18.857142857143,-4.5714285714286 -28.571428571429,-16.571428571429 0,-38.285714285714
	z" fill="rgb(178,80,110)" stroke-width="1" transform="rotate(100.8 0,0)"/><path d="M 0,0
	c 18.857142857143,-4.5714285714286 28.571428571429,-16.571428571429 0,-41.714285714286
	M 0,0
	c -18.857142857143,-4.5714285714286 -28.571428571429,-16.571428571429 0,-41.714285714286
	z" fill="rgb(148,50,80)" stroke-width="1" transform="rotate(123.6 0,0)"/><path d="M 0,0
	c 18.857142857143,-4.5714285714286 28.571428571429,-16.571428571429 0,-42.857142857143
	M 0,0
	c -18.857142857143,-4.5714285714286 -28.571428571429,-16.571428571429 0,-42.857142857143
	z" fill="rgb(178,80,110)" stroke-width="1" transform="rotate(151.2 0,0)"/><path d="M 0,0
	c 18.857142857143,-4.5714285714286 28.571428571429,-16.571428571429 0,-38.857142857143
	M 0,0
	c -18.857142857143,-4.5714285714286 -28.571428571429,-16.571428571429 0,-38.857142857143
	z" fill="rgb(168,70,100)" stroke-width="1" transform="rotate(178.08 0,0)"/><path d="M 0,0
	c 18.857142857143,-4.5714285714286 28.571428571429,-16.571428571429 0,-40.571428571429
	M 0,0
	c -18.857142857143,-4.5714285714286 -28.571428571429,-16.571428571429 0,-40.571428571429
	z" fill="rgb(188,90,120)" stroke-width="1" transform="rotate(172.8 0,0)"/><path d="M 0,0
	c 18.857142857143,-4.5714285714286 28.571428571429,-16.571428571429 0,-44
	M 0,0
	c -18.857142857143,-4.5714285714286 -28.571428571429,-16.571428571429 0,-44
	z" fill="rgb(178,80,110)" stroke-width="1" transform="rotate(205.2 0,0)"/><path d="M 0,0
	c 18.857142857143,-4.5714285714286 28.571428571429,-16.571428571429 0,-41.714285714286
	M 0,0
	c -18.857142857143,-4.5714285714286 -28.571428571429,-16.571428571429 0,-41.714285714286
	z" fill="rgb(148,50,80)" stroke-width="1" transform="rotate(242.4 0,0)"/><path d="M 0,0
	c 18.857142857143,-4.5714285714286 28.571428571429,-16.571428571429 0,-43.428571428571
	M 0,0
	c -18.857142857143,-4.5714285714286 -28.571428571429,-16.571428571429 0,-43.428571428571
	z" fill="rgb(178,80,110)" stroke-width="1" transform="rotate(240.24 0,0)"/><path d="M 0,0
	c 18.857142857143,-4.5714285714286 28.571428571429,-16.571428571429 0,-43.428571428571
	M 0,0
	c -18.857142857143,-4.5714285714286 -28.571428571429,-16.571428571429 0,-43.428571428571
	z" fill="rgb(178,80,110)" stroke-width="1" transform="rotate(259.2 0,0)"/><path d="M 0,0
	c 18.857142857143,-4.5714285714286 28.571428571429,-16.571428571429 0,-42.857142857143
	M 0,0
	c -18.857142857143,-4.5714285714286 -28.571428571429,-16.571428571429 0,-42.857142857143
	z" fill="rgb(148,50,80)" stroke-width="1" transform="rotate(315.12 0,0)"/><path d="M 0,0
	c 18.857142857143,-4.5714285714286 28.571428571429,-16.571428571429 0,-49.142857142857
	M 0,0
	c -18.857142857143,-4.5714285714286 -28.571428571429,-16.571428571429 0,-49.142857142857
	z" fill="rgb(188,90,120)" stroke-width="1" transform="rotate(315.84 0,0)"/><circle cx="0" cy="0" r="4.4" fill="#ffb566"/><circle cx="0" cy="0" r="1.4666666666667" fill="#ffce99"/></g><g id="fleur4"><path d="M 0,0
	c 16.5,-4 25,-14.5 0,-43
	M 0,0
	c -16.5,-4 -25,-14.5 0,-43
	z" fill="rgb(178,80,110)" stroke-width="1" transform="rotate(0 0,0)"/><path d="M 0,0
	c 16.5,-4 25,-14.5 0,-43
	M 0,0
	c -16.5,-4 -25,-14.5 0,-43
	z" fill="rgb(178,80,110)" stroke-width="1" transform="rotate(48.342857142857 0,0)"/><path d="M 0,0
	c 16.5,-4 25,-14.5 0,-36.5
	M 0,0
	c -16.5,-4 -25,-14.5 0,-36.5
	z" fill="rgb(178,80,110)" stroke-width="1" transform="rotate(102.85714285714 0,0)"/><path d="M 0,0
	c 16.5,-4 25,-14.5 0,-43
	M 0,0
	c -16.5,-4 -25,-14.5 0,-43
	z" fill="rgb(158,60,90)" stroke-width="1" transform="rotate(140.4 0,0)"/><path d="M 0,0
	c 16.5,-4 25,-14.5 0,-42
	M 0,0
	c -16.5,-4 -25,-14.5 0,-42
	z" fill="rgb(148,50,80)" stroke-width="1" transform="rotate(222.17142857143 0,0)"/><path d="M 0,0
	c 16.5,-4 25,-14.5 0,-43
	M 0,0
	c -16.5,-4 -25,-14.5 0,-43
	z" fill="rgb(188,90,120)" stroke-width="1" transform="rotate(239.14285714286 0,0)"/><path d="M 0,0
	c 16.5,-4 25,-14.5 0,-43.5
	M 0,0
	c -16.5,-4 -25,-14.5 0,-43.5
	z" fill="rgb(168,70,100)" stroke-width="1" transform="rotate(296.22857142857 0,0)"/><circle cx="0" cy="0" r="3.85" fill="#ffb566"/><circle cx="0" cy="0" r="1.2833333333333" fill="#ffce99"/></g></defs><use xlink:href="#feuille1"
	x="285.089" y="464.36205" 
	transform="rotate(55  285.089,464.36205)"
	fill="rgb(132,155,187)" /><path d="M 288 480 c -21.866666666667,-102.6 5.4666666666667,-239.4 82,-342  " stroke="rgb(164,56,177)" stroke-width="18" fill="transparent"/><use xlink:href="#fleur1"
x="370" y="138" 
fill="Pink" /><use xlink:href="#feuille3"
		x="276.75" y="340.9625" 
		transform="rotate(-81.9 276.75,340.9625)"
		fill="rgb(82,105,137)" /><use xlink:href="#feuille2"
		x="276.75" y="340.9625" 
		transform="rotate(87.4 276.75,340.9625)"
		fill="rgb(102,125,157)" /><use xlink:href="#feuille3"
		x="276.75" y="340.9625" 
		transform="rotate(114.3 276.75,340.9625)"
		fill="rgb(92,115,147)" /><use xlink:href="#feuille2"
		x="276.75" y="340.9625" 
		transform="rotate(69.7 276.75,340.9625)"
		fill="rgb(112,135,167)" /><use xlink:href="#feuille1"
	x="294.11775" y="454.5788375" 
	transform="rotate(61  294.11775,454.5788375)"
	fill="rgb(122,145,177)" /><use xlink:href="#feuille1"
	x="294.11775" y="454.5788375" 
	transform="rotate(-65  294.11775,454.5788375)"
	fill="rgb(112,135,167)" /><use xlink:href="#feuille1"
	x="294.11775" y="454.5788375" 
	transform="rotate(67  294.11775,454.5788375)"
	fill="rgb(112,135,167)" /><path d="M 297 480 c -20,-181.6 -24,-113.5 -30,-227  " stroke="rgb(164,56,177)" stroke-width="16" fill="transparent"/><use xlink:href="#fleur2"
x="267" y="253" 
fill="Pink" /></svg>