<?xml version="1.0" encoding="iso-8859-1"?>
<svg version="1.1" id="Capa_1" xmlns="http://www.w3.org/2000/svg" xmlns:xlink="http://www.w3.org/1999/xlink" x="0px" y="0px"
viewBox="0 0 500 500" xml:space="preserve"><defs><g id="feuille1">
<path d="M 0,0
c 52,-70 33,-79 0,-60
M 0,0
c -52,-70 -33,-79 0,-60
z" stroke="#85e085" stroke-width="0"/>
<polygon points="-3,3, 0,-42 3 3" stroke="rgb(86,174,196)" stroke-width="2" fill="rgb(86,174,196)"/>
</g>
<g id="feuille2">
<path d="M 0,0
c 34.666666666667,-46.666666666667 22,-52.666666666667 0,-40
M 0,0
c -34.666666666667,-46.666666666667 -22,-52.666666666667 0,-40
z" stroke="#85e085" stroke-width="0"/>
<polygon points="-3 3, 0,-28, 3 3" stroke="rgb(86,174,196)" stroke-width="1" fill="rgb(86,174,196)"/>
</g><g id="feuille3">
<path d="M 0,0
c 26,-35 16.5,-39.5 0,-30
M 0,0
c -26,-35 -16.5,-39.5 0,-30
z" stroke="#85e085" stroke-width="0"/>
<polygon points="-3 3, 0,-21, 3 3" stroke="rgb(86,174,196)" stroke-width="1" fill="rgb(86,174,196)"/>
</g><g id="feuille4">
<path d="M 0,0
c 20.8,-28 13.2,-31.6 0,-24
M 0,0
c -20.8,-28 -13.2,-31.6 0,-24
z" stroke="#85e085" stroke-width="0"/>
<polygon points="-3 3, 0,-16.8, 3 3" stroke="rgb(86,174,196)" stroke-width="1" fill="rgb(86,174,196)"/>
</g><g id="fleur1"><path d="M 0,0
	c 55,-94 21,-75.2 0,-68
	M 0,0
	c -55,-94 -21,-75.2 0,-68
	z" fill="rgb(127,72,127)" stroke-width="1" transform="rotate(0 0,0)"/><path d="M 0,0
	c 55,-94 21,-75.2 0,-62
	M 0,0
	c -55,-94 -21,-75.2 0,-62
	z" fill="rgb(137,82,137)" stroke-width="1" transform="rotate(47.7 0,0)"/><path d="M 0,0
	c 55,-94 21,-75.2 0,-66
	M 0,0
	c -55,-94 -21,-75.2 0,-66
	z" fill="rgb(147,92,147)" stroke-width="1" transform="rotate(90.9 0,0)"/><path d="M 0,0
	c 55,-94 21,-75.2 0,-72
	M 0,0
	c -55,-94 -21,-75.2 0,-72
	z" fill="rgb(167,112,167)" stroke-width="1" transform="rotate(122.85 0,0)"/><path d="M 0,0
	c 55,-94 21,-75.2 0,-63
	M 0,0
	c -55,-94 -21,-75.2 0,-63
	z" fill="rgb(147,92,147)" stroke-width="1" transform="rotate(190.8 0,0)"/><path d="M 0,0
	c 55,-94 21,-75.2 0,-62
	M 0,0
	c -55,-94 -21,-75.2 0,-62
	z" fill="rgb(157,102,157)" stroke-width="1" transform="rotate(238.5 0,0)"/><path d="M 0,0
	c 55,-94 21,-75.2 0,-70
	M 0,0
	c -55,-94 -21,-75.2 0,-70
	z" fill="rgb(137,82,137)" stroke-width="1" transform="rotate(251.1 0,0)"/><path d="M 0,0
	c 55,-94 21,-75.2 0,-59
	M 0,0
	c -55,-94 -21,-75.2 0,-59
	z" fill="rgb(157,102,157)" stroke-width="1" transform="rotate(302.4 0,0)"/><circle cx="0" cy="0" r="10.833333333333" fill="#ffb566"/><circle cx="0" cy="0" r="3.6111111111111" fill="#ffce99"/></g><g id="fleur2"><path d="M 0,0
	c 36.666666666667,-62.666666666667 14,-50.133333333333 0,-42
	M 0,0
	c -36.666666666667,-62.666666666667 -14,-50.133333333333 0,-42
	z" fill="rgb(137,82,137)" stroke-width="1" transform="rotate(0 0,0)"/><path d="M 0,0
	c 36.666666666667,-62.666666666667 14,-50.133333333333 0,-48.666666666667
	M 0,0
	c -36.666666666667,-62.666666666667 -14,-50.133333333333 0,-48.666666666667
	z" fill="rgb(137,82,137)" stroke-width="1" transform="rotate(22.8 0,0)"/><path d="M 0,0
	c 36.666666666667,-62.666666666667 14,-50.133333333333 0,-47.333333333333
	M 0,0
	c -36.666666666667,-62.666666666667 -14,-50.133333333333 0,-47.333333333333
	z" fill="rgb(137,82,137)" stroke-width="1" transform="rotate(48.48 0,0)"/><path d="M 0,0
	c 36.666666666667,-62.666666666667 14,-50.133333333333 0,-46
	M 0,0
	c -36.666666666667,-62.666666666667 -14,-50.133333333333 0,-46
	z" fill="rgb(147,92,147)" stroke-width="1" transform="rotate(66.24 0,0)"/><path d="M 0,0
	c 36.666666666667,-62.666666666667 14,-50.133333333333 0,-36.666666666667
	M 0,0
	c -36.666666666667,-62.666666666667 -14,-50.133333333333 0,-36.666666666667
	z" fill="rgb(127,72,127)" stroke-width="1" transform="rotate(88.32 0,0)"/><path d="M 0,0
	c 36.666666666667,-62.666666666667 14,-50.133333333333 0,-45.333333333333
	M 0,0
	c -36.666666666667,-62.666666666667 -14,-50.133333333333 0,-45.333333333333
	z" fill="rgb(137,82,137)" stroke-width="1" transform="rotate(127.2 0,0)"/><path d="M 0,0
	c 36.666666666667,-62.666666666667 14,-50.133333333333 0,-46
	M 0,0
	c -36.666666666667,-62.666666666667 -14,-50.133333333333 0,-46
	z" fill="rgb(147,92,147)" stroke-width="1" transform="rotate(155.52 0,0)"/><path d="M 0,0
	c 36.666666666667,-62.666666666667 14,-50.133333333333 0,-36.666666666667
	M 0,0
	c -36.666666666667,-62.666666666667 -14,-50.133333333333 0,-36.666666666667
	z" fill="rgb(167,112,167)" stroke-width="1" transform="rotate(174.72 0,0)"/><path d="M 0,0
	c 36.666666666667,-62.666666666667 14,-50.133333333333 0,-42
	M 0,0
	c -36.666666666667,-62.666666666667 -14,-50.133333333333 0,-42
	z" fill="rgb(167,112,167)" stroke-width="1" transform="rotate(172.8 0,0)"/><path d="M 0,0
	c 36.666666666667,-62.666666666667 14,-50.133333333333 0,-48.666666666667
	M 0,0
	c -36.666666666667,-62.666666666667 -14,-50.133333333333 0,-48.666666666667
	z" fill="rgb(147,92,147)" stroke-width="1" transform="rotate(213.84 0,0)"/><path d="M 0,0
	c 36.666666666667,-62.666666666667 14,-50.133333333333 0,-41.333333333333
	M 0,0
	c -36.666666666667,-62.666666666667 -14,-50.133333333333 0,-41.333333333333
	z" fill="rgb(137,82,137)" stroke-width="1" transform="rotate(228 0,0)"/><path d="M 0,0
	c 36.666666666667,-62.666666666667 14,-50.133333333333 0,-37.333333333333
	M 0,0
	c -36.666666666667,-62.666666666667 -14,-50.133333333333 0,-37.333333333333
	z" fill="rgb(127,72,127)" stroke-width="1" transform="rotate(277.2 0,0)"/><path d="M 0,0
	c 36.666666666667,-62.666666666667 14,-50.133333333333 0,-38
	M 0,0
	c -36.666666666667,-62.666666666667 -14,-50.133333333333 0,-38
	z" fill="rgb(127,72,127)" stroke-width="1" transform="rotate(270.72 0,0)"/><path d="M 0,0
	c 36.666666666667,-62.666666666667 14,-50.133333333333 0,-41.333333333333
	M 0,0
	c -36.666666666667,-62.666666666667 -14,-50.133333333333 0,-41.333333333333
	z" fill="rgb(167,112,167)" stroke-width="1" transform="rotate(321.36 0,0)"/><path d="M 0,0
	c 36.666666666667,-62.666666666667 14,-50.133333333333 0,-45.333333333333
	M 0,0
	c -36.666666666667,-62.666666666667 -14,-50.133333333333 0,-45.333333333333
	z" fill="rgb(157,102,157)" stroke-width="1" transform="rotate(319.2 0,0)"/><circle cx="0" cy="0" r="7.2222222222222" fill="#ffb566"/><circle cx="0" cy="0" r="2.4074074074074" fill="#ffce99"/></g><g id="fleur3"><path d="M 0,0
	c 31.428571428571,-53.714285714286 12,-42.971428571429 0,-33.714285714286
	M 0,0
	c -31.428571428571,-53.714285714286 -12,-42.971428571429 0,-33.714285714286
	z" fill="rgb(127,72,127)" stroke-width="1" transform="rotate(0 0,0)"/><path d="M 0,0
	c 31.428571428571,-53.714285714286 12,-42.971428571429 0,-42.285714285714
	M 0,0
	c -31.428571428571,-53.714285714286 -12,-42.971428571429 0,-42.285714285714
	z" fill="rgb(167,112,167)" stroke-width="1" transform="rotate(26.307692307692 0,0)"/><path d="M 0,0
	c 31.428571428571,-53.714285714286 12,-42.971428571429 0,-41.142857142857
	M 0,0
	c -31.428571428571,-53.714285714286 -12,-42.971428571429 0,-41.142857142857
	z" fill="rgb(127,72,127)" stroke-width="1" transform="rotate(50.953846153846 0,0)"/><path d="M 0,0
	c 31.428571428571,-53.714285714286 12,-42.971428571429 0,-36
	M 0,0
	c -31.428571428571,-53.714285714286 -12,-42.971428571429 0,-36
	z" fill="rgb(147,92,147)" stroke-width="1" transform="rotate(89.723076923077 0,0)"/><path d="M 0,0
	c 31.428571428571,-53.714285714286 12,-42.971428571429 0,-42.857142857143
	M 0,0
	c -31.428571428571,-53.714285714286 -12,-42.971428571429 0,-42.857142857143
	z" fill="rgb(127,72,127)" stroke-width="1" transform="rotate(112.98461538462 0,0)"/><path d="M 0,0
	c 31.428571428571,-53.714285714286 12,-42.971428571429 0,-39.428571428571
	M 0,0
	c -31.428571428571,-53.714285714286 -12,-42.971428571429 0,-39.428571428571
	z" fill="rgb(147,92,147)" stroke-width="1" transform="rotate(144 0,0)"/><path d="M 0,0
	c 31.428571428571,-53.714285714286 12,-42.971428571429 0,-38.285714285714
	M 0,0
	c -31.428571428571,-53.714285714286 -12,-42.971428571429 0,-38.285714285714
	z" fill="rgb(137,82,137)" stroke-width="1" transform="rotate(176.12307692308 0,0)"/><path d="M 0,0
	c 31.428571428571,-53.714285714286 12,-42.971428571429 0,-31.428571428571
	M 0,0
	c -31.428571428571,-53.714285714286 -12,-42.971428571429 0,-31.428571428571
	z" fill="rgb(157,102,157)" stroke-width="1" transform="rotate(205.47692307692 0,0)"/><path d="M 0,0
	c 31.428571428571,-53.714285714286 12,-42.971428571429 0,-34.857142857143
	M 0,0
	c -31.428571428571,-53.714285714286 -12,-42.971428571429 0,-34.857142857143
	z" fill="rgb(157,102,157)" stroke-width="1" transform="rotate(228.18461538462 0,0)"/><path d="M 0,0
	c 31.428571428571,-53.714285714286 12,-42.971428571429 0,-40
	M 0,0
	c -31.428571428571,-53.714285714286 -12,-42.971428571429 0,-40
	z" fill="rgb(137,82,137)" stroke-width="1" transform="rotate(241.75384615385 0,0)"/><path d="M 0,0
	c 31.428571428571,-53.714285714286 12,-42.971428571429 0,-36.571428571429
	M 0,0
	c -31.428571428571,-53.714285714286 -12,-42.971428571429 0,-36.571428571429
	z" fill="rgb(147,92,147)" stroke-width="1" transform="rotate(260.30769230769 0,0)"/><path d="M 0,0
	c 31.428571428571,-53.714285714286 12,-42.971428571429 0,-42.285714285714
	M 0,0
	c -31.428571428571,-53.714285714286 -12,-42.971428571429 0,-42.285714285714
	z" fill="rgb(167,112,167)" stroke-width="1" transform="rotate(286.33846153846 0,0)"/><path d="M 0,0
	c 31.428571428571,-53.714285714286 12,-42.971428571429 0,-42.285714285714
	M 0,0
	c -31.428571428571,-53.714285714286 -12,-42.971428571429 0,-42.285714285714
	z" fill="rgb(167,112,167)" stroke-width="1" transform="rotate(342.27692307692 0,0)"/><circle cx="0" cy="0" r="6.1904761904762" fill="#ffb566"/><circle cx="0" cy="0" r="2.0634920634921" fill="#ffce99"/></g><g id="fleur4"><path d="M 0,0
	c 27.5,-47 10.5,-37.6 0,-35
	M 0,0
	c -27.5,-47 -10.5,-37.6 0,-35
	z" fill="rgb(137,82,137)" stroke-width="1" transform="rotate(0 0,0)"/><path d="M 0,0
	c 27.5,-47 10.5,-37.6 0,-28
	M 0,0
	c -27.5,-47 -10.5,-37.6 0,-28
	z" fill="rgb(147,92,147)" stroke-width="1" transform="rotate(65.52 0,0)"/><path d="M 0,0
	c 27.5,-47 10.5,-37.6 0,-37
	M 0,0
	c -27.5,-47 -10.5,-37.6 0,-37
	z" fill="rgb(127,72,127)" stroke-width="1" transform="rotate(135.36 0,0)"/><path d="M 0,0
	c 27.5,-47 10.5,-37.6 0,-27.5
	M 0,0
	c -27.5,-47 -10.5,-37.6 0,-27.5
	z" fill="rgb(137,82,137)" stroke-width="1" transform="rotate(205.2 0,0)"/><path d="M 0,0
	c 27.5,-47 10.5,-37.6 0,-32
	M 0,0
	c -27.5,-47 -10.5,-37.6 0,-32
	z" fill="rgb(157,102,157)" stroke-width="1" transform="rotate(267.84 0,0)"/><circle cx="0" cy="0" r="5.4166666666667" fill="#ffb566"/><circle cx="0" cy="0" r="1.8055555555556" fill="#ffce99"/></g></defs><use xlink:href="#feuille3"
		x="303.584775" y="314.6829" 
		transform="rotate(-69 303.584775,314.6829)"
		fill="rgb(42,133,62)" /><use xlink:href="#feuille1"
	x="285.486075" y="467.1087" 
	transform="rotate(42  285.486075,467.1087)"
	fill="rgb(52,143,72)" /><path d="M 286 480 c -4.0666666666667,-87.3 4.0666666666667,-145.5 61,-291  " stroke="rgb(86,174,196)" stroke-width="18" fill="transparent"/><use xlink:href="#fleur1"
x="347" y="189" 
fill="Pink" /><use xlink:href="#feuille2"
		x="266.50225" y="388.7935" 
		transform="rotate(82.3 266.50225,388.7935)"
		fill="rgb(72,163,92)" /><use xlink:href="#feuille1"
	x="293.02975" y="473.0885" 
	transform="rotate(-79  293.02975,473.0885)"
	fill="rgb(72,163,92)" /><use xlink:href="#feuille1"
	x="293.02975" y="473.0885" 
	transform="rotate(71  293.02975,473.0885)"
	fill="rgb(32,123,52)" /><use xlink:href="#feuille1"
	x="293.02975" y="473.0885" 
	transform="rotate(-76  293.02975,473.0885)"
	fill="rgb(62,153,82)" /><path d="M 289 480 c 32.4,-46 -48.6,-92 -81,-230  " stroke="rgb(86,174,196)" stroke-width="16" fill="transparent"/><use xlink:href="#fleur2"
x="208" y="250" 
fill="Pink" /><use xlink:href="#feuille3"
		x="267.20625" y="275.7703125" 
		transform="rotate(77.3 267.20625,275.7703125)"
		fill="rgb(42,133,62)" /><use xlink:href="#feuille3"
		x="267.20625" y="275.7703125" 
		transform="rotate(92.8 267.20625,275.7703125)"
		fill="rgb(22,113,42)" /><use xlink:href="#feuille4"
		x="267.20625" y="275.7703125" 
		transform="rotate(77.9 267.20625,275.7703125)"
		fill="rgb(42,133,62)" /><use xlink:href="#feuille1"
	x="258.63615" y="470.4943875" 
	transform="rotate(-53  258.63615,470.4943875)"
	fill="rgb(32,123,52)" /><path d="M 255 480 c 28,-61.8 -22.4,-154.5 42,-309  " stroke="rgb(86,174,196)" stroke-width="14" fill="transparent"/><use xlink:href="#fleur3"
x="297" y="171" 
fill="Pink" /></svg>