<?xml version="1.0" encoding="iso-8859-1"?>
<svg version="1.1" id="Capa_1" xmlns="http://www.w3.org/2000/svg" xmlns:xlink="http://www.w3.org/1999/xlink" x="0px" y="0px"
viewBox="0 0 500 500" xml:space="preserve"><defs><g id="feuille1">
<path d="M 0,0
c 38,0 65,0 0,-82
M 0,0
c -38,0 -65,0 0,-82
z" stroke="#85e085" stroke-width="0"/>
<polygon points="-3,3, 0,-57.4 3 3" stroke="rgb(64,120,66)" stroke-width="2" fill="rgb(64,120,66)"/>
</g>
<g id="feuille2">
<path d="M 0,0
c 25.333333333333,0 43.333333333333,0 0,-54.666666666667
M 0,0
c -25.333333333333,0 -43.333333333333,0 0,-54.666666666667
z" stroke="#85e085" stroke-width="0"/>
<polygon points="-3 3, 0,-38.266666666667, 3 3" stroke="rgb(64,120,66)" stroke-width="1" fill="rgb(64,120,66)"/>
</g><g id="feuille3">
<path d="M 0,0
c 19,0 32.5,0 0,-41
M 0,0
c -19,0 -32.5,0 0,-41
z" stroke="#85e085" stroke-width="0"/>
<polygon points="-3 3, 0,-28.7, 3 3" stroke="rgb(64,120,66)" stroke-width="1" fill="rgb(64,120,66)"/>
</g><g id="feuille4">
<path d="M 0,0
c 15.2,0 26,0 0,-32.8
M 0,0
c -15.2,0 -26,0 0,-32.8
z" stroke="#85e085" stroke-width="0"/>
<polygon points="-3 3, 0,-22.96, 3 3" stroke="rgb(64,120,66)" stroke-width="1" fill="rgb(64,120,66)"/>
</g><g id="fleur1"><path d="M 0,0
	c 28,-18 31,-35 0,-79
	M 0,0
	c -28,-18 -31,-35 0,-79
	z" fill="rgb(119,96,79)" stroke-width="1" transform="rotate(0 0,0)"/><path d="M 0,0
	c 28,-18 31,-35 0,-75
	M 0,0
	c -28,-18 -31,-35 0,-75
	z" fill="rgb(129,106,89)" stroke-width="1" transform="rotate(70.56 0,0)"/><path d="M 0,0
	c 28,-18 31,-35 0,-84
	M 0,0
	c -28,-18 -31,-35 0,-84
	z" fill="rgb(99,76,59)" stroke-width="1" transform="rotate(158.4 0,0)"/><path d="M 0,0
	c 28,-18 31,-35 0,-69
	M 0,0
	c -28,-18 -31,-35 0,-69
	z" fill="rgb(109,86,69)" stroke-width="1" transform="rotate(211.68 0,0)"/><path d="M 0,0
	c 28,-18 31,-35 0,-77
	M 0,0
	c -28,-18 -31,-35 0,-77
	z" fill="rgb(139,116,99)" stroke-width="1" transform="rotate(296.64 0,0)"/><circle cx="0" cy="0" r="7.9" fill="#ffb566"/><circle cx="0" cy="0" r="2.6333333333333" fill="#ffce99"/></g><g id="fleur2"><path d="M 0,0
	c 18.666666666667,-12 20.666666666667,-23.333333333333 0,-58.666666666667
	M 0,0
	c -18.666666666667,-12 -20.666666666667,-23.333333333333 0,-58.666666666667
	z" fill="rgb(139,116,99)" stroke-width="1" transform="rotate(0 0,0)"/><path d="M 0,0
	c 18.666666666667,-12 20.666666666667,-23.333333333333 0,-48.666666666667
	M 0,0
	c -18.666666666667,-12 -20.666666666667,-23.333333333333 0,-48.666666666667
	z" fill="rgb(99,76,59)" stroke-width="1" transform="rotate(44.55 0,0)"/><path d="M 0,0
	c 18.666666666667,-12 20.666666666667,-23.333333333333 0,-48.666666666667
	M 0,0
	c -18.666666666667,-12 -20.666666666667,-23.333333333333 0,-48.666666666667
	z" fill="rgb(99,76,59)" stroke-width="1" transform="rotate(90 0,0)"/><path d="M 0,0
	c 18.666666666667,-12 20.666666666667,-23.333333333333 0,-47.333333333333
	M 0,0
	c -18.666666666667,-12 -20.666666666667,-23.333333333333 0,-47.333333333333
	z" fill="rgb(109,86,69)" stroke-width="1" transform="rotate(122.85 0,0)"/><path d="M 0,0
	c 18.666666666667,-12 20.666666666667,-23.333333333333 0,-56
	M 0,0
	c -18.666666666667,-12 -20.666666666667,-23.333333333333 0,-56
	z" fill="rgb(139,116,99)" stroke-width="1" transform="rotate(172.8 0,0)"/><path d="M 0,0
	c 18.666666666667,-12 20.666666666667,-23.333333333333 0,-57.333333333333
	M 0,0
	c -18.666666666667,-12 -20.666666666667,-23.333333333333 0,-57.333333333333
	z" fill="rgb(99,76,59)" stroke-width="1" transform="rotate(209.25 0,0)"/><path d="M 0,0
	c 18.666666666667,-12 20.666666666667,-23.333333333333 0,-48.666666666667
	M 0,0
	c -18.666666666667,-12 -20.666666666667,-23.333333333333 0,-48.666666666667
	z" fill="rgb(99,76,59)" stroke-width="1" transform="rotate(291.6 0,0)"/><path d="M 0,0
	c 18.666666666667,-12 20.666666666667,-23.333333333333 0,-56
	M 0,0
	c -18.666666666667,-12 -20.666666666667,-23.333333333333 0,-56
	z" fill="rgb(109,86,69)" stroke-width="1" transform="rotate(299.25 0,0)"/><circle cx="0" cy="0" r="5.2666666666667" fill="#ffb566"/><circle cx="0" cy="0" r="1.7555555555556" fill="#ffce99"/></g><g id="fleur3"><path d="M 0,0
	c 16,-10.285714285714 17.714285714286,-20 0,-41.714285714286
	M 0,0
	c -16,-10.285714285714 -17.714285714286,-20 0,-41.714285714286
	z" fill="rgb(119,96,79)" stroke-width="1" transform="rotate(0 0,0)"/><path d="M 0,0
	c 16,-10.285714285714 17.714285714286,-20 0,-41.714285714286
	M 0,0
	c -16,-10.285714285714 -17.714285714286,-20 0,-41.714285714286
	z" fill="rgb(139,116,99)" stroke-width="1" transform="rotate(49.05 0,0)"/><path d="M 0,0
	c 16,-10.285714285714 17.714285714286,-20 0,-40.571428571429
	M 0,0
	c -16,-10.285714285714 -17.714285714286,-20 0,-40.571428571429
	z" fill="rgb(139,116,99)" stroke-width="1" transform="rotate(93.6 0,0)"/><path d="M 0,0
	c 16,-10.285714285714 17.714285714286,-20 0,-50.285714285714
	M 0,0
	c -16,-10.285714285714 -17.714285714286,-20 0,-50.285714285714
	z" fill="rgb(99,76,59)" stroke-width="1" transform="rotate(147.15 0,0)"/><path d="M 0,0
	c 16,-10.285714285714 17.714285714286,-20 0,-42.285714285714
	M 0,0
	c -16,-10.285714285714 -17.714285714286,-20 0,-42.285714285714
	z" fill="rgb(109,86,69)" stroke-width="1" transform="rotate(176.4 0,0)"/><path d="M 0,0
	c 16,-10.285714285714 17.714285714286,-20 0,-50.285714285714
	M 0,0
	c -16,-10.285714285714 -17.714285714286,-20 0,-50.285714285714
	z" fill="rgb(99,76,59)" stroke-width="1" transform="rotate(204.75 0,0)"/><path d="M 0,0
	c 16,-10.285714285714 17.714285714286,-20 0,-41.714285714286
	M 0,0
	c -16,-10.285714285714 -17.714285714286,-20 0,-41.714285714286
	z" fill="rgb(119,96,79)" stroke-width="1" transform="rotate(286.2 0,0)"/><path d="M 0,0
	c 16,-10.285714285714 17.714285714286,-20 0,-41.142857142857
	M 0,0
	c -16,-10.285714285714 -17.714285714286,-20 0,-41.142857142857
	z" fill="rgb(129,106,89)" stroke-width="1" transform="rotate(315 0,0)"/><circle cx="0" cy="0" r="4.5142857142857" fill="#ffb566"/><circle cx="0" cy="0" r="1.5047619047619" fill="#ffce99"/></g><g id="fleur4"><path d="M 0,0
	c 14,-9 15.5,-17.5 0,-35.5
	M 0,0
	c -14,-9 -15.5,-17.5 0,-35.5
	z" fill="rgb(129,106,89)" stroke-width="1" transform="rotate(0 0,0)"/><path d="M 0,0
	c 14,-9 15.5,-17.5 0,-35
	M 0,0
	c -14,-9 -15.5,-17.5 0,-35
	z" fill="rgb(109,86,69)" stroke-width="1" transform="rotate(30.763636363636 0,0)"/><path d="M 0,0
	c 14,-9 15.5,-17.5 0,-43
	M 0,0
	c -14,-9 -15.5,-17.5 0,-43
	z" fill="rgb(129,106,89)" stroke-width="1" transform="rotate(60.218181818182 0,0)"/><path d="M 0,0
	c 14,-9 15.5,-17.5 0,-36
	M 0,0
	c -14,-9 -15.5,-17.5 0,-36
	z" fill="rgb(139,116,99)" stroke-width="1" transform="rotate(94.254545454545 0,0)"/><path d="M 0,0
	c 14,-9 15.5,-17.5 0,-38
	M 0,0
	c -14,-9 -15.5,-17.5 0,-38
	z" fill="rgb(129,106,89)" stroke-width="1" transform="rotate(134.83636363636 0,0)"/><path d="M 0,0
	c 14,-9 15.5,-17.5 0,-34.5
	M 0,0
	c -14,-9 -15.5,-17.5 0,-34.5
	z" fill="rgb(139,116,99)" stroke-width="1" transform="rotate(162 0,0)"/><path d="M 0,0
	c 14,-9 15.5,-17.5 0,-37.5
	M 0,0
	c -14,-9 -15.5,-17.5 0,-37.5
	z" fill="rgb(139,116,99)" stroke-width="1" transform="rotate(210.10909090909 0,0)"/><path d="M 0,0
	c 14,-9 15.5,-17.5 0,-43
	M 0,0
	c -14,-9 -15.5,-17.5 0,-43
	z" fill="rgb(119,96,79)" stroke-width="1" transform="rotate(219.92727272727 0,0)"/><path d="M 0,0
	c 14,-9 15.5,-17.5 0,-36
	M 0,0
	c -14,-9 -15.5,-17.5 0,-36
	z" fill="rgb(99,76,59)" stroke-width="1" transform="rotate(256.58181818182 0,0)"/><path d="M 0,0
	c 14,-9 15.5,-17.5 0,-35
	M 0,0
	c -14,-9 -15.5,-17.5 0,-35
	z" fill="rgb(109,86,69)" stroke-width="1" transform="rotate(273.92727272727 0,0)"/><path d="M 0,0
	c 14,-9 15.5,-17.5 0,-42.5
	M 0,0
	c -14,-9 -15.5,-17.5 0,-42.5
	z" fill="rgb(109,86,69)" stroke-width="1" transform="rotate(297.81818181818 0,0)"/><circle cx="0" cy="0" r="3.95" fill="#ffb566"/><circle cx="0" cy="0" r="1.3166666666667" fill="#ffce99"/></g></defs><use xlink:href="#feuille4"
		x="286.049" y="310.8034875" 
		transform="rotate(-99.5 286.049,310.8034875)"
		fill="rgb(167,72,64)" /><use xlink:href="#feuille2"
		x="286.049" y="310.8034875" 
		transform="rotate(-112.9 286.049,310.8034875)"
		fill="rgb(197,102,94)" /><use xlink:href="#feuille3"
		x="286.049" y="310.8034875" 
		transform="rotate(70.4 286.049,310.8034875)"
		fill="rgb(177,82,74)" /><use xlink:href="#feuille4"
		x="286.049" y="310.8034875" 
		transform="rotate(80.5 286.049,310.8034875)"
		fill="rgb(157,62,54)" /><use xlink:href="#feuille1"
	x="280.769" y="450.9453875" 
	transform="rotate(61  280.769,450.9453875)"
	fill="rgb(187,92,84)" /><use xlink:href="#feuille1"
	x="280.769" y="450.9453875" 
	transform="rotate(68  280.769,450.9453875)"
	fill="rgb(187,92,84)" /><use xlink:href="#feuille1"
	x="280.769" y="450.9453875" 
	transform="rotate(57  280.769,450.9453875)"
	fill="rgb(187,92,84)" /><path d="M 281 480 c -2.2,-205.1 8.8,-175.8 33,-293  " stroke="rgb(64,120,66)" stroke-width="18" fill="transparent"/><use xlink:href="#fleur1"
x="314" y="187" 
fill="Pink" /></svg>