<?xml version="1.0" encoding="iso-8859-1"?>
<svg version="1.1" id="Capa_1" xmlns="http://www.w3.org/2000/svg" xmlns:xlink="http://www.w3.org/1999/xlink" x="0px" y="0px"
viewBox="0 0 500 500" xml:space="preserve"><defs><g id="feuille1">
<path d="M 0,0
c 27,-39 25,-31.2 0,-87
M 0,0
c -27,-39 -25,-31.2 0,-87
z" stroke="#85e085" stroke-width="0"/>
<polygon points="-3,3, 0,-60.9 3 3" stroke="rgb(122,180,165)" stroke-width="2" fill="rgb(122,180,165)"/>
</g>
<g id="feuille2">
<path d="M 0,0
c 18,-26 16.666666666667,-20.8 0,-58
M 0,0
c -18,-26 -16.666666666667,-20.8 0,-58
z" stroke="#85e085" stroke-width="0"/>
<polygon points="-3 3, 0,-40.6, 3 3" stroke="rgb(122,180,165)" stroke-width="1" fill="rgb(122,180,165)"/>
</g><g id="feuille3">
<path d="M 0,0
c 13.5,-19.5 12.5,-15.6 0,-43.5
M 0,0
c -13.5,-19.5 -12.5,-15.6 0,-43.5
z" stroke="#85e085" stroke-width="0"/>
<polygon points="-3 3, 0,-30.45, 3 3" stroke="rgb(122,180,165)" stroke-width="1" fill="rgb(122,180,165)"/>
</g><g id="feuille4">
<path d="M 0,0
c 10.8,-15.6 10,-12.48 0,-34.8
M 0,0
c -10.8,-15.6 -10,-12.48 0,-34.8
z" stroke="#85e085" stroke-width="0"/>
<polygon points="-3 3, 0,-24.36, 3 3" stroke="rgb(122,180,165)" stroke-width="1" fill="rgb(122,180,165)"/>
</g><g id="fleur1"><path d="M 0,0
	c 32,-98 60,-72 0,-89
	M 0,0
	c -32,-98 -60,-72 0,-89
	z" fill="rgb(111,128,49)" stroke-width="1" transform="rotate(0 0,0)"/><path d="M 0,0
	c 32,-98 60,-72 0,-88
	M 0,0
	c -32,-98 -60,-72 0,-88
	z" fill="rgb(151,168,89)" stroke-width="1" transform="rotate(35.018181818182 0,0)"/><path d="M 0,0
	c 32,-98 60,-72 0,-86
	M 0,0
	c -32,-98 -60,-72 0,-86
	z" fill="rgb(151,168,89)" stroke-width="1" transform="rotate(69.381818181818 0,0)"/><path d="M 0,0
	c 32,-98 60,-72 0,-94
	M 0,0
	c -32,-98 -60,-72 0,-94
	z" fill="rgb(111,128,49)" stroke-width="1" transform="rotate(108 0,0)"/><path d="M 0,0
	c 32,-98 60,-72 0,-92
	M 0,0
	c -32,-98 -60,-72 0,-92
	z" fill="rgb(131,148,69)" stroke-width="1" transform="rotate(136.14545454545 0,0)"/><path d="M 0,0
	c 32,-98 60,-72 0,-88
	M 0,0
	c -32,-98 -60,-72 0,-88
	z" fill="rgb(141,158,79)" stroke-width="1" transform="rotate(175.09090909091 0,0)"/><path d="M 0,0
	c 32,-98 60,-72 0,-86
	M 0,0
	c -32,-98 -60,-72 0,-86
	z" fill="rgb(151,168,89)" stroke-width="1" transform="rotate(212.07272727273 0,0)"/><path d="M 0,0
	c 32,-98 60,-72 0,-98
	M 0,0
	c -32,-98 -60,-72 0,-98
	z" fill="rgb(111,128,49)" stroke-width="1" transform="rotate(233.67272727273 0,0)"/><path d="M 0,0
	c 32,-98 60,-72 0,-99
	M 0,0
	c -32,-98 -60,-72 0,-99
	z" fill="rgb(141,158,79)" stroke-width="1" transform="rotate(248.72727272727 0,0)"/><path d="M 0,0
	c 32,-98 60,-72 0,-87
	M 0,0
	c -32,-98 -60,-72 0,-87
	z" fill="rgb(111,128,49)" stroke-width="1" transform="rotate(285.70909090909 0,0)"/><path d="M 0,0
	c 32,-98 60,-72 0,-101
	M 0,0
	c -32,-98 -60,-72 0,-101
	z" fill="rgb(151,168,89)" stroke-width="1" transform="rotate(340.36363636364 0,0)"/><circle cx="0" cy="0" r="9.3" fill="#ffb566"/><circle cx="0" cy="0" r="3.1" fill="#ffce99"/></g><g id="fleur2"><path d="M 0,0
	c 21.333333333333,-65.333333333333 40,-48 0,-65.333333333333
	M 0,0
	c -21.333333333333,-65.333333333333 -40,-48 0,-65.333333333333
	z" fill="rgb(131,148,69)" stroke-width="1" transform="rotate(0 0,0)"/><path d="M 0,0
	c 21.333333333333,-65.333333333333 40,-48 0,-66
	M 0,0
	c -21.333333333333,-65.333333333333 -40,-48 0,-66
	z" fill="rgb(151,168,89)" stroke-width="1" transform="rotate(35.345454545455 0,0)"/><path d="M 0,0
	c 21.333333333333,-65.333333333333 40,-48 0,-66
	M 0,0
	c -21.333333333333,-65.333333333333 -40,-48 0,-66
	z" fill="rgb(151,168,89)" stroke-width="1" transform="rotate(67.418181818182 0,0)"/><path d="M 0,0
	c 21.333333333333,-65.333333333333 40,-48 0,-58.666666666667
	M 0,0
	c -21.333333333333,-65.333333333333 -40,-48 0,-58.666666666667
	z" fill="rgb(121,138,59)" stroke-width="1" transform="rotate(88.363636363636 0,0)"/><path d="M 0,0
	c 21.333333333333,-65.333333333333 40,-48 0,-58.666666666667
	M 0,0
	c -21.333333333333,-65.333333333333 -40,-48 0,-58.666666666667
	z" fill="rgb(111,128,49)" stroke-width="1" transform="rotate(119.12727272727 0,0)"/><path d="M 0,0
	c 21.333333333333,-65.333333333333 40,-48 0,-58
	M 0,0
	c -21.333333333333,-65.333333333333 -40,-48 0,-58
	z" fill="rgb(111,128,49)" stroke-width="1" transform="rotate(173.45454545455 0,0)"/><path d="M 0,0
	c 21.333333333333,-65.333333333333 40,-48 0,-56.666666666667
	M 0,0
	c -21.333333333333,-65.333333333333 -40,-48 0,-56.666666666667
	z" fill="rgb(151,168,89)" stroke-width="1" transform="rotate(214.03636363636 0,0)"/><path d="M 0,0
	c 21.333333333333,-65.333333333333 40,-48 0,-57.333333333333
	M 0,0
	c -21.333333333333,-65.333333333333 -40,-48 0,-57.333333333333
	z" fill="rgb(131,148,69)" stroke-width="1" transform="rotate(217.63636363636 0,0)"/><path d="M 0,0
	c 21.333333333333,-65.333333333333 40,-48 0,-55.333333333333
	M 0,0
	c -21.333333333333,-65.333333333333 -40,-48 0,-55.333333333333
	z" fill="rgb(131,148,69)" stroke-width="1" transform="rotate(269.67272727273 0,0)"/><path d="M 0,0
	c 21.333333333333,-65.333333333333 40,-48 0,-64.666666666667
	M 0,0
	c -21.333333333333,-65.333333333333 -40,-48 0,-64.666666666667
	z" fill="rgb(141,158,79)" stroke-width="1" transform="rotate(324 0,0)"/><path d="M 0,0
	c 21.333333333333,-65.333333333333 40,-48 0,-56.666666666667
	M 0,0
	c -21.333333333333,-65.333333333333 -40,-48 0,-56.666666666667
	z" fill="rgb(121,138,59)" stroke-width="1" transform="rotate(346.90909090909 0,0)"/><circle cx="0" cy="0" r="6.2" fill="#ffb566"/><circle cx="0" cy="0" r="2.0666666666667" fill="#ffce99"/></g><g id="fleur3"><path d="M 0,0
	c 18.285714285714,-56 34.285714285714,-41.142857142857 0,-49.714285714286
	M 0,0
	c -18.285714285714,-56 -34.285714285714,-41.142857142857 0,-49.714285714286
	z" fill="rgb(131,148,69)" stroke-width="1" transform="rotate(0 0,0)"/><path d="M 0,0
	c 18.285714285714,-56 34.285714285714,-41.142857142857 0,-57.142857142857
	M 0,0
	c -18.285714285714,-56 -34.285714285714,-41.142857142857 0,-57.142857142857
	z" fill="rgb(151,168,89)" stroke-width="1" transform="rotate(60 0,0)"/><path d="M 0,0
	c 18.285714285714,-56 34.285714285714,-41.142857142857 0,-49.714285714286
	M 0,0
	c -18.285714285714,-56 -34.285714285714,-41.142857142857 0,-49.714285714286
	z" fill="rgb(151,168,89)" stroke-width="1" transform="rotate(120 0,0)"/><path d="M 0,0
	c 18.285714285714,-56 34.285714285714,-41.142857142857 0,-51.428571428571
	M 0,0
	c -18.285714285714,-56 -34.285714285714,-41.142857142857 0,-51.428571428571
	z" fill="rgb(141,158,79)" stroke-width="1" transform="rotate(196.2 0,0)"/><path d="M 0,0
	c 18.285714285714,-56 34.285714285714,-41.142857142857 0,-48.571428571429
	M 0,0
	c -18.285714285714,-56 -34.285714285714,-41.142857142857 0,-48.571428571429
	z" fill="rgb(111,128,49)" stroke-width="1" transform="rotate(218.4 0,0)"/><path d="M 0,0
	c 18.285714285714,-56 34.285714285714,-41.142857142857 0,-56.571428571429
	M 0,0
	c -18.285714285714,-56 -34.285714285714,-41.142857142857 0,-56.571428571429
	z" fill="rgb(141,158,79)" stroke-width="1" transform="rotate(279 0,0)"/><circle cx="0" cy="0" r="5.3142857142857" fill="#ffb566"/><circle cx="0" cy="0" r="1.7714285714286" fill="#ffce99"/></g><g id="fleur4"><path d="M 0,0
	c 16,-49 30,-36 0,-46
	M 0,0
	c -16,-49 -30,-36 0,-46
	z" fill="rgb(141,158,79)" stroke-width="1" transform="rotate(0 0,0)"/><path d="M 0,0
	c 16,-49 30,-36 0,-45
	M 0,0
	c -16,-49 -30,-36 0,-45
	z" fill="rgb(121,138,59)" stroke-width="1" transform="rotate(22.8 0,0)"/><path d="M 0,0
	c 16,-49 30,-36 0,-49.5
	M 0,0
	c -16,-49 -30,-36 0,-49.5
	z" fill="rgb(131,148,69)" stroke-width="1" transform="rotate(46.56 0,0)"/><path d="M 0,0
	c 16,-49 30,-36 0,-45
	M 0,0
	c -16,-49 -30,-36 0,-45
	z" fill="rgb(151,168,89)" stroke-width="1" transform="rotate(74.16 0,0)"/><path d="M 0,0
	c 16,-49 30,-36 0,-44
	M 0,0
	c -16,-49 -30,-36 0,-44
	z" fill="rgb(131,148,69)" stroke-width="1" transform="rotate(100.8 0,0)"/><path d="M 0,0
	c 16,-49 30,-36 0,-47.5
	M 0,0
	c -16,-49 -30,-36 0,-47.5
	z" fill="rgb(131,148,69)" stroke-width="1" transform="rotate(126 0,0)"/><path d="M 0,0
	c 16,-49 30,-36 0,-50.5
	M 0,0
	c -16,-49 -30,-36 0,-50.5
	z" fill="rgb(151,168,89)" stroke-width="1" transform="rotate(129.6 0,0)"/><path d="M 0,0
	c 16,-49 30,-36 0,-50.5
	M 0,0
	c -16,-49 -30,-36 0,-50.5
	z" fill="rgb(141,158,79)" stroke-width="1" transform="rotate(164.64 0,0)"/><path d="M 0,0
	c 16,-49 30,-36 0,-44.5
	M 0,0
	c -16,-49 -30,-36 0,-44.5
	z" fill="rgb(121,138,59)" stroke-width="1" transform="rotate(190.08 0,0)"/><path d="M 0,0
	c 16,-49 30,-36 0,-46.5
	M 0,0
	c -16,-49 -30,-36 0,-46.5
	z" fill="rgb(121,138,59)" stroke-width="1" transform="rotate(205.2 0,0)"/><path d="M 0,0
	c 16,-49 30,-36 0,-42
	M 0,0
	c -16,-49 -30,-36 0,-42
	z" fill="rgb(141,158,79)" stroke-width="1" transform="rotate(216 0,0)"/><path d="M 0,0
	c 16,-49 30,-36 0,-47.5
	M 0,0
	c -16,-49 -30,-36 0,-47.5
	z" fill="rgb(141,158,79)" stroke-width="1" transform="rotate(240.24 0,0)"/><path d="M 0,0
	c 16,-49 30,-36 0,-46.5
	M 0,0
	c -16,-49 -30,-36 0,-46.5
	z" fill="rgb(121,138,59)" stroke-width="1" transform="rotate(311.04 0,0)"/><path d="M 0,0
	c 16,-49 30,-36 0,-47.5
	M 0,0
	c -16,-49 -30,-36 0,-47.5
	z" fill="rgb(141,158,79)" stroke-width="1" transform="rotate(340.08 0,0)"/><path d="M 0,0
	c 16,-49 30,-36 0,-51.5
	M 0,0
	c -16,-49 -30,-36 0,-51.5
	z" fill="rgb(121,138,59)" stroke-width="1" transform="rotate(312.48 0,0)"/><circle cx="0" cy="0" r="4.65" fill="#ffb566"/><circle cx="0" cy="0" r="1.55" fill="#ffce99"/></g></defs><use xlink:href="#feuille3"
		x="246.2625" y="418.9265625" 
		transform="rotate(-99.8 246.2625,418.9265625)"
		fill="rgb(176,109,102)" /><use xlink:href="#feuille2"
		x="246.2625" y="418.9265625" 
		transform="rotate(67.3 246.2625,418.9265625)"
		fill="rgb(206,139,132)" /><use xlink:href="#feuille4"
		x="246.2625" y="418.9265625" 
		transform="rotate(-94.2 246.2625,418.9265625)"
		fill="rgb(196,129,122)" /><use xlink:href="#feuille1"
	x="250.9119" y="474.3023375" 
	transform="rotate(43  250.9119,474.3023375)"
	fill="rgb(206,139,132)" /><use xlink:href="#feuille1"
	x="250.9119" y="474.3023375" 
	transform="rotate(53  250.9119,474.3023375)"
	fill="rgb(176,109,102)" /><use xlink:href="#feuille1"
	x="250.9119" y="474.3023375" 
	transform="rotate(-48  250.9119,474.3023375)"
	fill="rgb(206,139,132)" /><path d="M 252 480 c -8.4,-40.4 7.2,-30.3 -18,-101  " stroke="rgb(122,180,165)" stroke-width="18" fill="transparent"/><use xlink:href="#fleur1"
x="234" y="379" 
fill="Pink" /><use xlink:href="#feuille4"
		x="288.172" y="338.327975" 
		transform="rotate(97.6 288.172,338.327975)"
		fill="rgb(166,99,92)" /><use xlink:href="#feuille1"
	x="287.812" y="453.706225" 
	transform="rotate(-60  287.812,453.706225)"
	fill="rgb(206,139,132)" /><path d="M 281 480 c 53.333333333333,-189.7 -58.666666666667,-81.3 80,-271  " stroke="rgb(122,180,165)" stroke-width="16" fill="transparent"/><use xlink:href="#fleur2"
x="361" y="209" 
fill="Pink" /><use xlink:href="#feuille2"
		x="299.428125" y="371.015625" 
		transform="rotate(-95.9 299.428125,371.015625)"
		fill="rgb(196,129,122)" /><use xlink:href="#feuille1"
	x="288.882275" y="462.752375" 
	transform="rotate(42  288.882275,462.752375)"
	fill="rgb(196,129,122)" /><use xlink:href="#feuille1"
	x="288.882275" y="462.752375" 
	transform="rotate(48  288.882275,462.752375)"
	fill="rgb(206,139,132)" /><use xlink:href="#feuille1"
	x="288.882275" y="462.752375" 
	transform="rotate(-42  288.882275,462.752375)"
	fill="rgb(216,149,142)" /><path d="M 291 480 c -15.466666666667,-124 -3.8666666666667,-62 29,-155  " stroke="rgb(122,180,165)" stroke-width="14" fill="transparent"/><use xlink:href="#fleur3"
x="320" y="325" 
fill="Pink" /><use xlink:href="#feuille3"
		x="303.7036" y="347.25115" 
		transform="rotate(-68.4 303.7036,347.25115)"
		fill="rgb(196,129,122)" /><use xlink:href="#feuille3"
		x="303.7036" y="347.25115" 
		transform="rotate(-62.8 303.7036,347.25115)"
		fill="rgb(226,159,152)" /><use xlink:href="#feuille4"
		x="303.7036" y="347.25115" 
		transform="rotate(-105.4 303.7036,347.25115)"
		fill="rgb(176,109,102)" /><use xlink:href="#feuille1"
	x="303.4948" y="458.31295" 
	transform="rotate(54  303.4948,458.31295)"
	fill="rgb(186,119,112)" /><path d="M 304 480 c -4,-157.2 5.2,-52.4 -6,-262  " stroke="rgb(122,180,165)" stroke-width="12" fill="transparent"/><use xlink:href="#fleur4"
x="298" y="218" 
fill="Pink" /></svg>