<?xml version="1.0" encoding="iso-8859-1"?>
<svg version="1.1" id="Capa_1" xmlns="http://www.w3.org/2000/svg" xmlns:xlink="http://www.w3.org/1999/xlink" x="0px" y="0px"
viewBox="0 0 500 500" xml:space="preserve"><defs><g id="feuille1">
<path d="M 0,0
c 33,-12 43,-9.6 0,-119
M 0,0
c -33,-12 -43,-9.6 0,-119
z" stroke="#85e085" stroke-width="0"/>
<polygon points="-3,3, 0,-83.3 3 3" stroke="rgb(69,115,200)" stroke-width="2" fill="rgb(69,115,200)"/>
</g>
<g id="feuille2">
<path d="M 0,0
c 22,-8 28.666666666667,-6.4 0,-79.333333333333
M 0,0
c -22,-8 -28.666666666667,-6.4 0,-79.333333333333
z" stroke="#85e085" stroke-width="0"/>
<polygon points="-3 3, 0,-55.533333333333, 3 3" stroke="rgb(69,115,200)" stroke-width="1" fill="rgb(69,115,200)"/>
</g><g id="feuille3">
<path d="M 0,0
c 16.5,-6 21.5,-4.8 0,-59.5
M 0,0
c -16.5,-6 -21.5,-4.8 0,-59.5
z" stroke="#85e085" stroke-width="0"/>
<polygon points="-3 3, 0,-41.65, 3 3" stroke="rgb(69,115,200)" stroke-width="1" fill="rgb(69,115,200)"/>
</g><g id="feuille4">
<path d="M 0,0
c 13.2,-4.8 17.2,-3.84 0,-47.6
M 0,0
c -13.2,-4.8 -17.2,-3.84 0,-47.6
z" stroke="#85e085" stroke-width="0"/>
<polygon points="-3 3, 0,-33.32, 3 3" stroke="rgb(69,115,200)" stroke-width="1" fill="rgb(69,115,200)"/>
</g><g id="fleur1"><path d="M 0,0
	c 41,-3 23,-2.4 0,-102
	M 0,0
	c -41,-3 -23,-2.4 0,-102
	z" fill="rgb(153,159,156)" stroke-width="1" transform="rotate(0 0,0)"/><path d="M 0,0
	c 41,-3 23,-2.4 0,-105
	M 0,0
	c -41,-3 -23,-2.4 0,-105
	z" fill="rgb(153,159,156)" stroke-width="1" transform="rotate(25.971428571429 0,0)"/><path d="M 0,0
	c 41,-3 23,-2.4 0,-97
	M 0,0
	c -41,-3 -23,-2.4 0,-97
	z" fill="rgb(193,199,196)" stroke-width="1" transform="rotate(53.485714285714 0,0)"/><path d="M 0,0
	c 41,-3 23,-2.4 0,-101
	M 0,0
	c -41,-3 -23,-2.4 0,-101
	z" fill="rgb(163,169,166)" stroke-width="1" transform="rotate(73.285714285714 0,0)"/><path d="M 0,0
	c 41,-3 23,-2.4 0,-100
	M 0,0
	c -41,-3 -23,-2.4 0,-100
	z" fill="rgb(193,199,196)" stroke-width="1" transform="rotate(106.97142857143 0,0)"/><path d="M 0,0
	c 41,-3 23,-2.4 0,-96
	M 0,0
	c -41,-3 -23,-2.4 0,-96
	z" fill="rgb(173,179,176)" stroke-width="1" transform="rotate(126 0,0)"/><path d="M 0,0
	c 41,-3 23,-2.4 0,-94
	M 0,0
	c -41,-3 -23,-2.4 0,-94
	z" fill="rgb(153,159,156)" stroke-width="1" transform="rotate(152.74285714286 0,0)"/><path d="M 0,0
	c 41,-3 23,-2.4 0,-107
	M 0,0
	c -41,-3 -23,-2.4 0,-107
	z" fill="rgb(173,179,176)" stroke-width="1" transform="rotate(194.4 0,0)"/><path d="M 0,0
	c 41,-3 23,-2.4 0,-99
	M 0,0
	c -41,-3 -23,-2.4 0,-99
	z" fill="rgb(183,189,186)" stroke-width="1" transform="rotate(220.11428571429 0,0)"/><path d="M 0,0
	c 41,-3 23,-2.4 0,-92
	M 0,0
	c -41,-3 -23,-2.4 0,-92
	z" fill="rgb(173,179,176)" stroke-width="1" transform="rotate(240.68571428571 0,0)"/><path d="M 0,0
	c 41,-3 23,-2.4 0,-109
	M 0,0
	c -41,-3 -23,-2.4 0,-109
	z" fill="rgb(183,189,186)" stroke-width="1" transform="rotate(259.71428571429 0,0)"/><path d="M 0,0
	c 41,-3 23,-2.4 0,-91
	M 0,0
	c -41,-3 -23,-2.4 0,-91
	z" fill="rgb(183,189,186)" stroke-width="1" transform="rotate(297 0,0)"/><path d="M 0,0
	c 41,-3 23,-2.4 0,-94
	M 0,0
	c -41,-3 -23,-2.4 0,-94
	z" fill="rgb(163,169,166)" stroke-width="1" transform="rotate(339.42857142857 0,0)"/><path d="M 0,0
	c 41,-3 23,-2.4 0,-90
	M 0,0
	c -41,-3 -23,-2.4 0,-90
	z" fill="rgb(193,199,196)" stroke-width="1" transform="rotate(344.31428571429 0,0)"/><circle cx="0" cy="0" r="24.75" fill="#ffb566"/><circle cx="0" cy="0" r="8.25" fill="#ffce99"/></g><g id="fleur2"><path d="M 0,0
	c 27.333333333333,-2 15.333333333333,-1.6 0,-59.333333333333
	M 0,0
	c -27.333333333333,-2 -15.333333333333,-1.6 0,-59.333333333333
	z" fill="rgb(183,189,186)" stroke-width="1" transform="rotate(0 0,0)"/><path d="M 0,0
	c 27.333333333333,-2 15.333333333333,-1.6 0,-64.666666666667
	M 0,0
	c -27.333333333333,-2 -15.333333333333,-1.6 0,-64.666666666667
	z" fill="rgb(153,159,156)" stroke-width="1" transform="rotate(45.45 0,0)"/><path d="M 0,0
	c 27.333333333333,-2 15.333333333333,-1.6 0,-59.333333333333
	M 0,0
	c -27.333333333333,-2 -15.333333333333,-1.6 0,-59.333333333333
	z" fill="rgb(193,199,196)" stroke-width="1" transform="rotate(95.4 0,0)"/><path d="M 0,0
	c 27.333333333333,-2 15.333333333333,-1.6 0,-70
	M 0,0
	c -27.333333333333,-2 -15.333333333333,-1.6 0,-70
	z" fill="rgb(153,159,156)" stroke-width="1" transform="rotate(141.75 0,0)"/><path d="M 0,0
	c 27.333333333333,-2 15.333333333333,-1.6 0,-62.666666666667
	M 0,0
	c -27.333333333333,-2 -15.333333333333,-1.6 0,-62.666666666667
	z" fill="rgb(173,179,176)" stroke-width="1" transform="rotate(189 0,0)"/><path d="M 0,0
	c 27.333333333333,-2 15.333333333333,-1.6 0,-61.333333333333
	M 0,0
	c -27.333333333333,-2 -15.333333333333,-1.6 0,-61.333333333333
	z" fill="rgb(183,189,186)" stroke-width="1" transform="rotate(213.75 0,0)"/><path d="M 0,0
	c 27.333333333333,-2 15.333333333333,-1.6 0,-59.333333333333
	M 0,0
	c -27.333333333333,-2 -15.333333333333,-1.6 0,-59.333333333333
	z" fill="rgb(173,179,176)" stroke-width="1" transform="rotate(278.1 0,0)"/><path d="M 0,0
	c 27.333333333333,-2 15.333333333333,-1.6 0,-66.666666666667
	M 0,0
	c -27.333333333333,-2 -15.333333333333,-1.6 0,-66.666666666667
	z" fill="rgb(173,179,176)" stroke-width="1" transform="rotate(337.05 0,0)"/><circle cx="0" cy="0" r="16.5" fill="#ffb566"/><circle cx="0" cy="0" r="5.5" fill="#ffce99"/></g><g id="fleur3"><path d="M 0,0
	c 23.428571428571,-1.7142857142857 13.142857142857,-1.3714285714286 0,-54.857142857143
	M 0,0
	c -23.428571428571,-1.7142857142857 -13.142857142857,-1.3714285714286 0,-54.857142857143
	z" fill="rgb(173,179,176)" stroke-width="1" transform="rotate(0 0,0)"/><path d="M 0,0
	c 23.428571428571,-1.7142857142857 13.142857142857,-1.3714285714286 0,-57.142857142857
	M 0,0
	c -23.428571428571,-1.7142857142857 -13.142857142857,-1.3714285714286 0,-57.142857142857
	z" fill="rgb(183,189,186)" stroke-width="1" transform="rotate(79.2 0,0)"/><path d="M 0,0
	c 23.428571428571,-1.7142857142857 13.142857142857,-1.3714285714286 0,-60.571428571429
	M 0,0
	c -23.428571428571,-1.7142857142857 -13.142857142857,-1.3714285714286 0,-60.571428571429
	z" fill="rgb(153,159,156)" stroke-width="1" transform="rotate(139.68 0,0)"/><path d="M 0,0
	c 23.428571428571,-1.7142857142857 13.142857142857,-1.3714285714286 0,-61.142857142857
	M 0,0
	c -23.428571428571,-1.7142857142857 -13.142857142857,-1.3714285714286 0,-61.142857142857
	z" fill="rgb(183,189,186)" stroke-width="1" transform="rotate(196.56 0,0)"/><path d="M 0,0
	c 23.428571428571,-1.7142857142857 13.142857142857,-1.3714285714286 0,-56.571428571429
	M 0,0
	c -23.428571428571,-1.7142857142857 -13.142857142857,-1.3714285714286 0,-56.571428571429
	z" fill="rgb(193,199,196)" stroke-width="1" transform="rotate(259.2 0,0)"/><circle cx="0" cy="0" r="14.142857142857" fill="#ffb566"/><circle cx="0" cy="0" r="4.7142857142857" fill="#ffce99"/></g><g id="fleur4"><path d="M 0,0
	c 20.5,-1.5 11.5,-1.2 0,-50
	M 0,0
	c -20.5,-1.5 -11.5,-1.2 0,-50
	z" fill="rgb(173,179,176)" stroke-width="1" transform="rotate(0 0,0)"/><path d="M 0,0
	c 20.5,-1.5 11.5,-1.2 0,-53
	M 0,0
	c -20.5,-1.5 -11.5,-1.2 0,-53
	z" fill="rgb(153,159,156)" stroke-width="1" transform="rotate(28.028571428571 0,0)"/><path d="M 0,0
	c 20.5,-1.5 11.5,-1.2 0,-50.5
	M 0,0
	c -20.5,-1.5 -11.5,-1.2 0,-50.5
	z" fill="rgb(193,199,196)" stroke-width="1" transform="rotate(56.571428571429 0,0)"/><path d="M 0,0
	c 20.5,-1.5 11.5,-1.2 0,-45
	M 0,0
	c -20.5,-1.5 -11.5,-1.2 0,-45
	z" fill="rgb(173,179,176)" stroke-width="1" transform="rotate(76.371428571429 0,0)"/><path d="M 0,0
	c 20.5,-1.5 11.5,-1.2 0,-44.5
	M 0,0
	c -20.5,-1.5 -11.5,-1.2 0,-44.5
	z" fill="rgb(183,189,186)" stroke-width="1" transform="rotate(101.82857142857 0,0)"/><path d="M 0,0
	c 20.5,-1.5 11.5,-1.2 0,-45
	M 0,0
	c -20.5,-1.5 -11.5,-1.2 0,-45
	z" fill="rgb(193,199,196)" stroke-width="1" transform="rotate(132.42857142857 0,0)"/><path d="M 0,0
	c 20.5,-1.5 11.5,-1.2 0,-51.5
	M 0,0
	c -20.5,-1.5 -11.5,-1.2 0,-51.5
	z" fill="rgb(153,159,156)" stroke-width="1" transform="rotate(145.02857142857 0,0)"/><path d="M 0,0
	c 20.5,-1.5 11.5,-1.2 0,-49.5
	M 0,0
	c -20.5,-1.5 -11.5,-1.2 0,-49.5
	z" fill="rgb(183,189,186)" stroke-width="1" transform="rotate(183.6 0,0)"/><path d="M 0,0
	c 20.5,-1.5 11.5,-1.2 0,-51
	M 0,0
	c -20.5,-1.5 -11.5,-1.2 0,-51
	z" fill="rgb(163,169,166)" stroke-width="1" transform="rotate(187.2 0,0)"/><path d="M 0,0
	c 20.5,-1.5 11.5,-1.2 0,-47
	M 0,0
	c -20.5,-1.5 -11.5,-1.2 0,-47
	z" fill="rgb(183,189,186)" stroke-width="1" transform="rotate(219.85714285714 0,0)"/><path d="M 0,0
	c 20.5,-1.5 11.5,-1.2 0,-52
	M 0,0
	c -20.5,-1.5 -11.5,-1.2 0,-52
	z" fill="rgb(163,169,166)" stroke-width="1" transform="rotate(236.57142857143 0,0)"/><path d="M 0,0
	c 20.5,-1.5 11.5,-1.2 0,-47
	M 0,0
	c -20.5,-1.5 -11.5,-1.2 0,-47
	z" fill="rgb(183,189,186)" stroke-width="1" transform="rotate(291.34285714286 0,0)"/><path d="M 0,0
	c 20.5,-1.5 11.5,-1.2 0,-53.5
	M 0,0
	c -20.5,-1.5 -11.5,-1.2 0,-53.5
	z" fill="rgb(163,169,166)" stroke-width="1" transform="rotate(336.34285714286 0,0)"/><path d="M 0,0
	c 20.5,-1.5 11.5,-1.2 0,-46
	M 0,0
	c -20.5,-1.5 -11.5,-1.2 0,-46
	z" fill="rgb(163,169,166)" stroke-width="1" transform="rotate(351 0,0)"/><circle cx="0" cy="0" r="12.375" fill="#ffb566"/><circle cx="0" cy="0" r="4.125" fill="#ffce99"/></g></defs><use xlink:href="#feuille1"
	x="208.804375" y="457.6854" 
	transform="rotate(43  208.804375,457.6854)"
	fill="rgb(70,54,44)" /><use xlink:href="#feuille1"
	x="208.804375" y="457.6854" 
	transform="rotate(-36  208.804375,457.6854)"
	fill="rgb(100,84,74)" /><path d="M 213 480 c -29.4,-158.4 -29.4,-118.8 -49,-198  " stroke="rgb(69,115,200)" stroke-width="18" fill="transparent"/><use xlink:href="#fleur1"
x="164" y="282" 
fill="Pink" /><use xlink:href="#feuille3"
		x="247.032125" y="419.696575" 
		transform="rotate(47.3 247.032125,419.696575)"
		fill="rgb(80,64,54)" /><use xlink:href="#feuille4"
		x="247.032125" y="419.696575" 
		transform="rotate(68.8 247.032125,419.696575)"
		fill="rgb(80,64,54)" /><use xlink:href="#feuille1"
	x="245.700875" y="466.011025" 
	transform="rotate(-35  245.700875,466.011025)"
	fill="rgb(100,84,74)" /><path d="M 242 480 c 28.4,-101.4 -18.933333333333,-33.8 -71,-169  " stroke="rgb(69,115,200)" stroke-width="16" fill="transparent"/><use xlink:href="#fleur2"
x="171" y="311" 
fill="Pink" /></svg>