<?xml version="1.0" encoding="iso-8859-1"?>
<svg version="1.1" id="Capa_1" xmlns="http://www.w3.org/2000/svg" xmlns:xlink="http://www.w3.org/1999/xlink" x="0px" y="0px"
viewBox="0 0 500 500" xml:space="preserve"><defs><g id="feuille1">
<path d="M 0,0
c 69,-98 30,-116 0,-82
M 0,0
c -69,-98 -30,-116 0,-82
z" stroke="#85e085" stroke-width="0"/>
<polygon points="-3,3, 0,-57.4 3 3" stroke="rgb(59,76,94)" stroke-width="2" fill="rgb(59,76,94)"/>
</g>
<g id="feuille2">
<path d="M 0,0
c 46,-65.333333333333 20,-77.333333333333 0,-54.666666666667
M 0,0
c -46,-65.333333333333 -20,-77.333333333333 0,-54.666666666667
z" stroke="#85e085" stroke-width="0"/>
<polygon points="-3 3, 0,-38.266666666667, 3 3" stroke="rgb(59,76,94)" stroke-width="1" fill="rgb(59,76,94)"/>
</g><g id="feuille3">
<path d="M 0,0
c 34.5,-49 15,-58 0,-41
M 0,0
c -34.5,-49 -15,-58 0,-41
z" stroke="#85e085" stroke-width="0"/>
<polygon points="-3 3, 0,-28.7, 3 3" stroke="rgb(59,76,94)" stroke-width="1" fill="rgb(59,76,94)"/>
</g><g id="feuille4">
<path d="M 0,0
c 27.6,-39.2 12,-46.4 0,-32.8
M 0,0
c -27.6,-39.2 -12,-46.4 0,-32.8
z" stroke="#85e085" stroke-width="0"/>
<polygon points="-3 3, 0,-22.96, 3 3" stroke="rgb(59,76,94)" stroke-width="1" fill="rgb(59,76,94)"/>
</g><g id="fleur1"><path d="M 0,0
	c 41,-32 26,-25.6 0,-68
	M 0,0
	c -41,-32 -26,-25.6 0,-68
	z" fill="rgb(149,136,167)" stroke-width="1" transform="rotate(0 0,0)"/><path d="M 0,0
	c 41,-32 26,-25.6 0,-63
	M 0,0
	c -41,-32 -26,-25.6 0,-63
	z" fill="rgb(149,136,167)" stroke-width="1" transform="rotate(42.4 0,0)"/><path d="M 0,0
	c 41,-32 26,-25.6 0,-73
	M 0,0
	c -41,-32 -26,-25.6 0,-73
	z" fill="rgb(109,96,127)" stroke-width="1" transform="rotate(81.6 0,0)"/><path d="M 0,0
	c 41,-32 26,-25.6 0,-66
	M 0,0
	c -41,-32 -26,-25.6 0,-66
	z" fill="rgb(119,106,137)" stroke-width="1" transform="rotate(115.2 0,0)"/><path d="M 0,0
	c 41,-32 26,-25.6 0,-67
	M 0,0
	c -41,-32 -26,-25.6 0,-67
	z" fill="rgb(119,106,137)" stroke-width="1" transform="rotate(147.2 0,0)"/><path d="M 0,0
	c 41,-32 26,-25.6 0,-64
	M 0,0
	c -41,-32 -26,-25.6 0,-64
	z" fill="rgb(129,116,147)" stroke-width="1" transform="rotate(192 0,0)"/><path d="M 0,0
	c 41,-32 26,-25.6 0,-64
	M 0,0
	c -41,-32 -26,-25.6 0,-64
	z" fill="rgb(109,96,127)" stroke-width="1" transform="rotate(220.8 0,0)"/><path d="M 0,0
	c 41,-32 26,-25.6 0,-64
	M 0,0
	c -41,-32 -26,-25.6 0,-64
	z" fill="rgb(139,126,157)" stroke-width="1" transform="rotate(280 0,0)"/><path d="M 0,0
	c 41,-32 26,-25.6 0,-72
	M 0,0
	c -41,-32 -26,-25.6 0,-72
	z" fill="rgb(139,126,157)" stroke-width="1" transform="rotate(316.8 0,0)"/><circle cx="0" cy="0" r="36.5" fill="#ffb566"/><circle cx="0" cy="0" r="12.166666666667" fill="#ffce99"/></g><g id="fleur2"><path d="M 0,0
	c 27.333333333333,-21.333333333333 17.333333333333,-17.066666666667 0,-53.333333333333
	M 0,0
	c -27.333333333333,-21.333333333333 -17.333333333333,-17.066666666667 0,-53.333333333333
	z" fill="rgb(109,96,127)" stroke-width="1" transform="rotate(0 0,0)"/><path d="M 0,0
	c 27.333333333333,-21.333333333333 17.333333333333,-17.066666666667 0,-53.333333333333
	M 0,0
	c -27.333333333333,-21.333333333333 -17.333333333333,-17.066666666667 0,-53.333333333333
	z" fill="rgb(109,96,127)" stroke-width="1" transform="rotate(73.44 0,0)"/><path d="M 0,0
	c 27.333333333333,-21.333333333333 17.333333333333,-17.066666666667 0,-46
	M 0,0
	c -27.333333333333,-21.333333333333 -17.333333333333,-17.066666666667 0,-46
	z" fill="rgb(119,106,137)" stroke-width="1" transform="rotate(129.6 0,0)"/><path d="M 0,0
	c 27.333333333333,-21.333333333333 17.333333333333,-17.066666666667 0,-51.333333333333
	M 0,0
	c -27.333333333333,-21.333333333333 -17.333333333333,-17.066666666667 0,-51.333333333333
	z" fill="rgb(109,96,127)" stroke-width="1" transform="rotate(228.96 0,0)"/><path d="M 0,0
	c 27.333333333333,-21.333333333333 17.333333333333,-17.066666666667 0,-46.666666666667
	M 0,0
	c -27.333333333333,-21.333333333333 -17.333333333333,-17.066666666667 0,-46.666666666667
	z" fill="rgb(119,106,137)" stroke-width="1" transform="rotate(311.04 0,0)"/><circle cx="0" cy="0" r="24.333333333333" fill="#ffb566"/><circle cx="0" cy="0" r="8.1111111111111" fill="#ffce99"/></g><g id="fleur3"><path d="M 0,0
	c 23.428571428571,-18.285714285714 14.857142857143,-14.628571428571 0,-40.571428571429
	M 0,0
	c -23.428571428571,-18.285714285714 -14.857142857143,-14.628571428571 0,-40.571428571429
	z" fill="rgb(129,116,147)" stroke-width="1" transform="rotate(0 0,0)"/><path d="M 0,0
	c 23.428571428571,-18.285714285714 14.857142857143,-14.628571428571 0,-38.857142857143
	M 0,0
	c -23.428571428571,-18.285714285714 -14.857142857143,-14.628571428571 0,-38.857142857143
	z" fill="rgb(109,96,127)" stroke-width="1" transform="rotate(30 0,0)"/><path d="M 0,0
	c 23.428571428571,-18.285714285714 14.857142857143,-14.628571428571 0,-45.142857142857
	M 0,0
	c -23.428571428571,-18.285714285714 -14.857142857143,-14.628571428571 0,-45.142857142857
	z" fill="rgb(139,126,157)" stroke-width="1" transform="rotate(58.8 0,0)"/><path d="M 0,0
	c 23.428571428571,-18.285714285714 14.857142857143,-14.628571428571 0,-44.571428571429
	M 0,0
	c -23.428571428571,-18.285714285714 -14.857142857143,-14.628571428571 0,-44.571428571429
	z" fill="rgb(139,126,157)" stroke-width="1" transform="rotate(84.6 0,0)"/><path d="M 0,0
	c 23.428571428571,-18.285714285714 14.857142857143,-14.628571428571 0,-40
	M 0,0
	c -23.428571428571,-18.285714285714 -14.857142857143,-14.628571428571 0,-40
	z" fill="rgb(119,106,137)" stroke-width="1" transform="rotate(130.8 0,0)"/><path d="M 0,0
	c 23.428571428571,-18.285714285714 14.857142857143,-14.628571428571 0,-46.857142857143
	M 0,0
	c -23.428571428571,-18.285714285714 -14.857142857143,-14.628571428571 0,-46.857142857143
	z" fill="rgb(139,126,157)" stroke-width="1" transform="rotate(157.5 0,0)"/><path d="M 0,0
	c 23.428571428571,-18.285714285714 14.857142857143,-14.628571428571 0,-42.857142857143
	M 0,0
	c -23.428571428571,-18.285714285714 -14.857142857143,-14.628571428571 0,-42.857142857143
	z" fill="rgb(109,96,127)" stroke-width="1" transform="rotate(190.8 0,0)"/><path d="M 0,0
	c 23.428571428571,-18.285714285714 14.857142857143,-14.628571428571 0,-38.857142857143
	M 0,0
	c -23.428571428571,-18.285714285714 -14.857142857143,-14.628571428571 0,-38.857142857143
	z" fill="rgb(119,106,137)" stroke-width="1" transform="rotate(218.4 0,0)"/><path d="M 0,0
	c 23.428571428571,-18.285714285714 14.857142857143,-14.628571428571 0,-41.142857142857
	M 0,0
	c -23.428571428571,-18.285714285714 -14.857142857143,-14.628571428571 0,-41.142857142857
	z" fill="rgb(119,106,137)" stroke-width="1" transform="rotate(244.8 0,0)"/><path d="M 0,0
	c 23.428571428571,-18.285714285714 14.857142857143,-14.628571428571 0,-38.857142857143
	M 0,0
	c -23.428571428571,-18.285714285714 -14.857142857143,-14.628571428571 0,-38.857142857143
	z" fill="rgb(139,126,157)" stroke-width="1" transform="rotate(264.6 0,0)"/><path d="M 0,0
	c 23.428571428571,-18.285714285714 14.857142857143,-14.628571428571 0,-36.571428571429
	M 0,0
	c -23.428571428571,-18.285714285714 -14.857142857143,-14.628571428571 0,-36.571428571429
	z" fill="rgb(149,136,167)" stroke-width="1" transform="rotate(303 0,0)"/><path d="M 0,0
	c 23.428571428571,-18.285714285714 14.857142857143,-14.628571428571 0,-42.857142857143
	M 0,0
	c -23.428571428571,-18.285714285714 -14.857142857143,-14.628571428571 0,-42.857142857143
	z" fill="rgb(129,116,147)" stroke-width="1" transform="rotate(310.2 0,0)"/><circle cx="0" cy="0" r="20.857142857143" fill="#ffb566"/><circle cx="0" cy="0" r="6.952380952381" fill="#ffce99"/></g><g id="fleur4"><path d="M 0,0
	c 20.5,-16 13,-12.8 0,-35
	M 0,0
	c -20.5,-16 -13,-12.8 0,-35
	z" fill="rgb(139,126,157)" stroke-width="1" transform="rotate(0 0,0)"/><path d="M 0,0
	c 20.5,-16 13,-12.8 0,-39.5
	M 0,0
	c -20.5,-16 -13,-12.8 0,-39.5
	z" fill="rgb(139,126,157)" stroke-width="1" transform="rotate(54 0,0)"/><path d="M 0,0
	c 20.5,-16 13,-12.8 0,-36
	M 0,0
	c -20.5,-16 -13,-12.8 0,-36
	z" fill="rgb(149,136,167)" stroke-width="1" transform="rotate(112.8 0,0)"/><path d="M 0,0
	c 20.5,-16 13,-12.8 0,-35
	M 0,0
	c -20.5,-16 -13,-12.8 0,-35
	z" fill="rgb(139,126,157)" stroke-width="1" transform="rotate(198 0,0)"/><path d="M 0,0
	c 20.5,-16 13,-12.8 0,-40
	M 0,0
	c -20.5,-16 -13,-12.8 0,-40
	z" fill="rgb(129,116,147)" stroke-width="1" transform="rotate(216 0,0)"/><path d="M 0,0
	c 20.5,-16 13,-12.8 0,-37.5
	M 0,0
	c -20.5,-16 -13,-12.8 0,-37.5
	z" fill="rgb(129,116,147)" stroke-width="1" transform="rotate(309 0,0)"/><circle cx="0" cy="0" r="18.25" fill="#ffb566"/><circle cx="0" cy="0" r="6.0833333333333" fill="#ffce99"/></g></defs><use xlink:href="#feuille2"
		x="245.704" y="330.1824" 
		transform="rotate(-74.5 245.704,330.1824)"
		fill="rgb(90,127,174)" /><use xlink:href="#feuille4"
		x="245.704" y="330.1824" 
		transform="rotate(-96.5 245.704,330.1824)"
		fill="rgb(70,107,154)" /><use xlink:href="#feuille1"
	x="260.37525" y="458.5953" 
	transform="rotate(58  260.37525,458.5953)"
	fill="rgb(120,157,204)" /><use xlink:href="#feuille1"
	x="260.37525" y="458.5953" 
	transform="rotate(-67  260.37525,458.5953)"
	fill="rgb(110,147,194)" /><path d="M 262 480 c -12.933333333333,-153 19.4,-91.8 -97,-306  " stroke="rgb(59,76,94)" stroke-width="18" fill="transparent"/><use xlink:href="#fleur1"
x="165" y="174" 
fill="Pink" /></svg>