<?xml version="1.0" encoding="iso-8859-1"?>
<svg version="1.1" id="Capa_1" xmlns="http://www.w3.org/2000/svg" xmlns:xlink="http://www.w3.org/1999/xlink" x="0px" y="0px"
viewBox="0 0 500 500" xml:space="preserve"><defs><g id="feuille1">
<path d="M 0,0
c 22,-15 28,-12 0,-83
M 0,0
c -22,-15 -28,-12 0,-83
z" stroke="#85e085" stroke-width="0"/>
<polygon points="-3,3, 0,-58.1 3 3" stroke="rgb(80,70,127)" stroke-width="2" fill="rgb(80,70,127)"/>
</g>
<g id="feuille2">
<path d="M 0,0
c 14.666666666667,-10 18.666666666667,-8 0,-55.333333333333
M 0,0
c -14.666666666667,-10 -18.666666666667,-8 0,-55.333333333333
z" stroke="#85e085" stroke-width="0"/>
<polygon points="-3 3, 0,-38.733333333333, 3 3" stroke="rgb(80,70,127)" stroke-width="1" fill="rgb(80,70,127)"/>
</g><g id="feuille3">
<path d="M 0,0
c 11,-7.5 14,-6 0,-41.5
M 0,0
c -11,-7.5 -14,-6 0,-41.5
z" stroke="#85e085" stroke-width="0"/>
<polygon points="-3 3, 0,-29.05, 3 3" stroke="rgb(80,70,127)" stroke-width="1" fill="rgb(80,70,127)"/>
</g><g id="feuille4">
<path d="M 0,0
c 8.8,-6 11.2,-4.8 0,-33.2
M 0,0
c -8.8,-6 -11.2,-4.8 0,-33.2
z" stroke="#85e085" stroke-width="0"/>
<polygon points="-3 3, 0,-23.24, 3 3" stroke="rgb(80,70,127)" stroke-width="1" fill="rgb(80,70,127)"/>
</g><g id="fleur1"><path d="M 0,0
	c 45,-88 22,-70.4 0,-64
	M 0,0
	c -45,-88 -22,-70.4 0,-64
	z" fill="rgb(159,92,95)" stroke-width="1" transform="rotate(0 0,0)"/><path d="M 0,0
	c 45,-88 22,-70.4 0,-76
	M 0,0
	c -45,-88 -22,-70.4 0,-76
	z" fill="rgb(189,122,125)" stroke-width="1" transform="rotate(37.6 0,0)"/><path d="M 0,0
	c 45,-88 22,-70.4 0,-79
	M 0,0
	c -45,-88 -22,-70.4 0,-79
	z" fill="rgb(169,102,105)" stroke-width="1" transform="rotate(77.6 0,0)"/><path d="M 0,0
	c 45,-88 22,-70.4 0,-60
	M 0,0
	c -45,-88 -22,-70.4 0,-60
	z" fill="rgb(169,102,105)" stroke-width="1" transform="rotate(126 0,0)"/><path d="M 0,0
	c 45,-88 22,-70.4 0,-65
	M 0,0
	c -45,-88 -22,-70.4 0,-65
	z" fill="rgb(169,102,105)" stroke-width="1" transform="rotate(176 0,0)"/><path d="M 0,0
	c 45,-88 22,-70.4 0,-61
	M 0,0
	c -45,-88 -22,-70.4 0,-61
	z" fill="rgb(159,92,95)" stroke-width="1" transform="rotate(216 0,0)"/><path d="M 0,0
	c 45,-88 22,-70.4 0,-64
	M 0,0
	c -45,-88 -22,-70.4 0,-64
	z" fill="rgb(189,122,125)" stroke-width="1" transform="rotate(252 0,0)"/><path d="M 0,0
	c 45,-88 22,-70.4 0,-79
	M 0,0
	c -45,-88 -22,-70.4 0,-79
	z" fill="rgb(179,112,115)" stroke-width="1" transform="rotate(308 0,0)"/><path d="M 0,0
	c 45,-88 22,-70.4 0,-75
	M 0,0
	c -45,-88 -22,-70.4 0,-75
	z" fill="rgb(199,132,135)" stroke-width="1" transform="rotate(329.6 0,0)"/><circle cx="0" cy="0" r="11.5" fill="#ffb566"/><circle cx="0" cy="0" r="3.8333333333333" fill="#ffce99"/></g><g id="fleur2"><path d="M 0,0
	c 30,-58.666666666667 14.666666666667,-46.933333333333 0,-46
	M 0,0
	c -30,-58.666666666667 -14.666666666667,-46.933333333333 0,-46
	z" fill="rgb(169,102,105)" stroke-width="1" transform="rotate(0 0,0)"/><path d="M 0,0
	c 30,-58.666666666667 14.666666666667,-46.933333333333 0,-44.666666666667
	M 0,0
	c -30,-58.666666666667 -14.666666666667,-46.933333333333 0,-44.666666666667
	z" fill="rgb(179,112,115)" stroke-width="1" transform="rotate(37.6 0,0)"/><path d="M 0,0
	c 30,-58.666666666667 14.666666666667,-46.933333333333 0,-51.333333333333
	M 0,0
	c -30,-58.666666666667 -14.666666666667,-46.933333333333 0,-51.333333333333
	z" fill="rgb(199,132,135)" stroke-width="1" transform="rotate(72.8 0,0)"/><path d="M 0,0
	c 30,-58.666666666667 14.666666666667,-46.933333333333 0,-44.666666666667
	M 0,0
	c -30,-58.666666666667 -14.666666666667,-46.933333333333 0,-44.666666666667
	z" fill="rgb(159,92,95)" stroke-width="1" transform="rotate(112.8 0,0)"/><path d="M 0,0
	c 30,-58.666666666667 14.666666666667,-46.933333333333 0,-46
	M 0,0
	c -30,-58.666666666667 -14.666666666667,-46.933333333333 0,-46
	z" fill="rgb(189,122,125)" stroke-width="1" transform="rotate(147.2 0,0)"/><path d="M 0,0
	c 30,-58.666666666667 14.666666666667,-46.933333333333 0,-44.666666666667
	M 0,0
	c -30,-58.666666666667 -14.666666666667,-46.933333333333 0,-44.666666666667
	z" fill="rgb(189,122,125)" stroke-width="1" transform="rotate(212 0,0)"/><path d="M 0,0
	c 30,-58.666666666667 14.666666666667,-46.933333333333 0,-46
	M 0,0
	c -30,-58.666666666667 -14.666666666667,-46.933333333333 0,-46
	z" fill="rgb(189,122,125)" stroke-width="1" transform="rotate(232.8 0,0)"/><path d="M 0,0
	c 30,-58.666666666667 14.666666666667,-46.933333333333 0,-39.333333333333
	M 0,0
	c -30,-58.666666666667 -14.666666666667,-46.933333333333 0,-39.333333333333
	z" fill="rgb(169,102,105)" stroke-width="1" transform="rotate(254.8 0,0)"/><path d="M 0,0
	c 30,-58.666666666667 14.666666666667,-46.933333333333 0,-46
	M 0,0
	c -30,-58.666666666667 -14.666666666667,-46.933333333333 0,-46
	z" fill="rgb(179,112,115)" stroke-width="1" transform="rotate(291.2 0,0)"/><circle cx="0" cy="0" r="7.6666666666667" fill="#ffb566"/><circle cx="0" cy="0" r="2.5555555555556" fill="#ffce99"/></g><g id="fleur3"><path d="M 0,0
	c 25.714285714286,-50.285714285714 12.571428571429,-40.228571428571 0,-38.285714285714
	M 0,0
	c -25.714285714286,-50.285714285714 -12.571428571429,-40.228571428571 0,-38.285714285714
	z" fill="rgb(189,122,125)" stroke-width="1" transform="rotate(0 0,0)"/><path d="M 0,0
	c 25.714285714286,-50.285714285714 12.571428571429,-40.228571428571 0,-36
	M 0,0
	c -25.714285714286,-50.285714285714 -12.571428571429,-40.228571428571 0,-36
	z" fill="rgb(199,132,135)" stroke-width="1" transform="rotate(65.4 0,0)"/><path d="M 0,0
	c 25.714285714286,-50.285714285714 12.571428571429,-40.228571428571 0,-42.857142857143
	M 0,0
	c -25.714285714286,-50.285714285714 -12.571428571429,-40.228571428571 0,-42.857142857143
	z" fill="rgb(189,122,125)" stroke-width="1" transform="rotate(129.6 0,0)"/><path d="M 0,0
	c 25.714285714286,-50.285714285714 12.571428571429,-40.228571428571 0,-35.428571428571
	M 0,0
	c -25.714285714286,-50.285714285714 -12.571428571429,-40.228571428571 0,-35.428571428571
	z" fill="rgb(179,112,115)" stroke-width="1" transform="rotate(171 0,0)"/><path d="M 0,0
	c 25.714285714286,-50.285714285714 12.571428571429,-40.228571428571 0,-45.142857142857
	M 0,0
	c -25.714285714286,-50.285714285714 -12.571428571429,-40.228571428571 0,-45.142857142857
	z" fill="rgb(169,102,105)" stroke-width="1" transform="rotate(232.8 0,0)"/><path d="M 0,0
	c 25.714285714286,-50.285714285714 12.571428571429,-40.228571428571 0,-39.428571428571
	M 0,0
	c -25.714285714286,-50.285714285714 -12.571428571429,-40.228571428571 0,-39.428571428571
	z" fill="rgb(189,122,125)" stroke-width="1" transform="rotate(312 0,0)"/><circle cx="0" cy="0" r="6.5714285714286" fill="#ffb566"/><circle cx="0" cy="0" r="2.1904761904762" fill="#ffce99"/></g><g id="fleur4"><path d="M 0,0
	c 22.5,-44 11,-35.2 0,-31
	M 0,0
	c -22.5,-44 -11,-35.2 0,-31
	z" fill="rgb(169,102,105)" stroke-width="1" transform="rotate(0 0,0)"/><path d="M 0,0
	c 22.5,-44 11,-35.2 0,-36.5
	M 0,0
	c -22.5,-44 -11,-35.2 0,-36.5
	z" fill="rgb(159,92,95)" stroke-width="1" transform="rotate(40.95 0,0)"/><path d="M 0,0
	c 22.5,-44 11,-35.2 0,-35.5
	M 0,0
	c -22.5,-44 -11,-35.2 0,-35.5
	z" fill="rgb(199,132,135)" stroke-width="1" transform="rotate(93.6 0,0)"/><path d="M 0,0
	c 22.5,-44 11,-35.2 0,-37
	M 0,0
	c -22.5,-44 -11,-35.2 0,-37
	z" fill="rgb(159,92,95)" stroke-width="1" transform="rotate(147.15 0,0)"/><path d="M 0,0
	c 22.5,-44 11,-35.2 0,-38
	M 0,0
	c -22.5,-44 -11,-35.2 0,-38
	z" fill="rgb(159,92,95)" stroke-width="1" transform="rotate(198 0,0)"/><path d="M 0,0
	c 22.5,-44 11,-35.2 0,-35.5
	M 0,0
	c -22.5,-44 -11,-35.2 0,-35.5
	z" fill="rgb(179,112,115)" stroke-width="1" transform="rotate(216 0,0)"/><path d="M 0,0
	c 22.5,-44 11,-35.2 0,-30.5
	M 0,0
	c -22.5,-44 -11,-35.2 0,-30.5
	z" fill="rgb(189,122,125)" stroke-width="1" transform="rotate(297 0,0)"/><path d="M 0,0
	c 22.5,-44 11,-35.2 0,-39.5
	M 0,0
	c -22.5,-44 -11,-35.2 0,-39.5
	z" fill="rgb(199,132,135)" stroke-width="1" transform="rotate(324.45 0,0)"/><circle cx="0" cy="0" r="5.75" fill="#ffb566"/><circle cx="0" cy="0" r="1.9166666666667" fill="#ffce99"/></g></defs><use xlink:href="#feuille4"
		x="187.259375" y="448.5078125" 
		transform="rotate(-57.9 187.259375,448.5078125)"
		fill="rgb(127,63,87)" /><use xlink:href="#feuille1"
	x="188.853275" y="473.7432625" 
	transform="rotate(46  188.853275,473.7432625)"
	fill="rgb(127,63,87)" /><path d="M 191 480 c -16.8,-41.7 16.8,-83.4 63,-139  " stroke="rgb(80,70,127)" stroke-width="18" fill="transparent"/><use xlink:href="#fleur1"
x="254" y="341" 
fill="Pink" /><use xlink:href="#feuille1"
	x="144.3525" y="474.401225" 
	transform="rotate(-49  144.3525,474.401225)"
	fill="rgb(167,103,127)" /><use xlink:href="#feuille1"
	x="144.3525" y="474.401225" 
	transform="rotate(34  144.3525,474.401225)"
	fill="rgb(157,93,117)" /><path d="M 143 480 c 10,-36.4 0,-91 -10,-182  " stroke="rgb(80,70,127)" stroke-width="16" fill="transparent"/><use xlink:href="#fleur2"
x="133" y="298" 
fill="Pink" /></svg>