<?xml version="1.0" encoding="iso-8859-1"?>
<svg version="1.1" id="Capa_1" xmlns="http://www.w3.org/2000/svg" xmlns:xlink="http://www.w3.org/1999/xlink" x="0px" y="0px"
viewBox="0 0 500 500" xml:space="preserve"><defs><g id="feuille1">
<path d="M 0,0
c 66,-36 42,-33 0,-96
M 0,0
c -66,-36 -42,-33 0,-96
z" stroke="#85e085" stroke-width="0"/>
<polygon points="-3,3, 0,-67.2 3 3" stroke="rgb(161,134,125)" stroke-width="2" fill="rgb(161,134,125)"/>
</g>
<g id="feuille2">
<path d="M 0,0
c 44,-24 28,-22 0,-64
M 0,0
c -44,-24 -28,-22 0,-64
z" stroke="#85e085" stroke-width="0"/>
<polygon points="-3 3, 0,-44.8, 3 3" stroke="rgb(161,134,125)" stroke-width="1" fill="rgb(161,134,125)"/>
</g><g id="feuille3">
<path d="M 0,0
c 33,-18 21,-16.5 0,-48
M 0,0
c -33,-18 -21,-16.5 0,-48
z" stroke="#85e085" stroke-width="0"/>
<polygon points="-3 3, 0,-33.6, 3 3" stroke="rgb(161,134,125)" stroke-width="1" fill="rgb(161,134,125)"/>
</g><g id="feuille4">
<path d="M 0,0
c 26.4,-14.4 16.8,-13.2 0,-38.4
M 0,0
c -26.4,-14.4 -16.8,-13.2 0,-38.4
z" stroke="#85e085" stroke-width="0"/>
<polygon points="-3 3, 0,-26.88, 3 3" stroke="rgb(161,134,125)" stroke-width="1" fill="rgb(161,134,125)"/>
</g><g id="fleur1"><path d="M 0,0
	c 53,-28 31,-22.4 0,-78
	M 0,0
	c -53,-28 -31,-22.4 0,-78
	z" fill="rgb(137,132,51)" stroke-width="1" transform="rotate(0 0,0)"/><path d="M 0,0
	c 53,-28 31,-22.4 0,-67
	M 0,0
	c -53,-28 -31,-22.4 0,-67
	z" fill="rgb(147,142,61)" stroke-width="1" transform="rotate(34.2 0,0)"/><path d="M 0,0
	c 53,-28 31,-22.4 0,-78
	M 0,0
	c -53,-28 -31,-22.4 0,-78
	z" fill="rgb(177,172,91)" stroke-width="1" transform="rotate(79.2 0,0)"/><path d="M 0,0
	c 53,-28 31,-22.4 0,-65
	M 0,0
	c -53,-28 -31,-22.4 0,-65
	z" fill="rgb(167,162,81)" stroke-width="1" transform="rotate(104.76 0,0)"/><path d="M 0,0
	c 53,-28 31,-22.4 0,-81
	M 0,0
	c -53,-28 -31,-22.4 0,-81
	z" fill="rgb(157,152,71)" stroke-width="1" transform="rotate(142.56 0,0)"/><path d="M 0,0
	c 53,-28 31,-22.4 0,-64
	M 0,0
	c -53,-28 -31,-22.4 0,-64
	z" fill="rgb(147,142,61)" stroke-width="1" transform="rotate(181.8 0,0)"/><path d="M 0,0
	c 53,-28 31,-22.4 0,-65
	M 0,0
	c -53,-28 -31,-22.4 0,-65
	z" fill="rgb(137,132,51)" stroke-width="1" transform="rotate(194.4 0,0)"/><path d="M 0,0
	c 53,-28 31,-22.4 0,-72
	M 0,0
	c -53,-28 -31,-22.4 0,-72
	z" fill="rgb(147,142,61)" stroke-width="1" transform="rotate(241.92 0,0)"/><path d="M 0,0
	c 53,-28 31,-22.4 0,-63
	M 0,0
	c -53,-28 -31,-22.4 0,-63
	z" fill="rgb(167,162,81)" stroke-width="1" transform="rotate(305.28 0,0)"/><path d="M 0,0
	c 53,-28 31,-22.4 0,-70
	M 0,0
	c -53,-28 -31,-22.4 0,-70
	z" fill="rgb(177,172,91)" stroke-width="1" transform="rotate(346.68 0,0)"/><circle cx="0" cy="0" r="24.333333333333" fill="#ffb566"/><circle cx="0" cy="0" r="8.1111111111111" fill="#ffce99"/></g><g id="fleur2"><path d="M 0,0
	c 35.333333333333,-18.666666666667 20.666666666667,-14.933333333333 0,-46
	M 0,0
	c -35.333333333333,-18.666666666667 -20.666666666667,-14.933333333333 0,-46
	z" fill="rgb(147,142,61)" stroke-width="1" transform="rotate(0 0,0)"/><path d="M 0,0
	c 35.333333333333,-18.666666666667 20.666666666667,-14.933333333333 0,-52
	M 0,0
	c -35.333333333333,-18.666666666667 -20.666666666667,-14.933333333333 0,-52
	z" fill="rgb(167,162,81)" stroke-width="1" transform="rotate(23.04 0,0)"/><path d="M 0,0
	c 35.333333333333,-18.666666666667 20.666666666667,-14.933333333333 0,-49.333333333333
	M 0,0
	c -35.333333333333,-18.666666666667 -20.666666666667,-14.933333333333 0,-49.333333333333
	z" fill="rgb(167,162,81)" stroke-width="1" transform="rotate(45.6 0,0)"/><path d="M 0,0
	c 35.333333333333,-18.666666666667 20.666666666667,-14.933333333333 0,-42.666666666667
	M 0,0
	c -35.333333333333,-18.666666666667 -20.666666666667,-14.933333333333 0,-42.666666666667
	z" fill="rgb(147,142,61)" stroke-width="1" transform="rotate(73.44 0,0)"/><path d="M 0,0
	c 35.333333333333,-18.666666666667 20.666666666667,-14.933333333333 0,-47.333333333333
	M 0,0
	c -35.333333333333,-18.666666666667 -20.666666666667,-14.933333333333 0,-47.333333333333
	z" fill="rgb(137,132,51)" stroke-width="1" transform="rotate(89.28 0,0)"/><path d="M 0,0
	c 35.333333333333,-18.666666666667 20.666666666667,-14.933333333333 0,-43.333333333333
	M 0,0
	c -35.333333333333,-18.666666666667 -20.666666666667,-14.933333333333 0,-43.333333333333
	z" fill="rgb(147,142,61)" stroke-width="1" transform="rotate(129.6 0,0)"/><path d="M 0,0
	c 35.333333333333,-18.666666666667 20.666666666667,-14.933333333333 0,-51.333333333333
	M 0,0
	c -35.333333333333,-18.666666666667 -20.666666666667,-14.933333333333 0,-51.333333333333
	z" fill="rgb(167,162,81)" stroke-width="1" transform="rotate(155.52 0,0)"/><path d="M 0,0
	c 35.333333333333,-18.666666666667 20.666666666667,-14.933333333333 0,-49.333333333333
	M 0,0
	c -35.333333333333,-18.666666666667 -20.666666666667,-14.933333333333 0,-49.333333333333
	z" fill="rgb(147,142,61)" stroke-width="1" transform="rotate(157.92 0,0)"/><path d="M 0,0
	c 35.333333333333,-18.666666666667 20.666666666667,-14.933333333333 0,-55.333333333333
	M 0,0
	c -35.333333333333,-18.666666666667 -20.666666666667,-14.933333333333 0,-55.333333333333
	z" fill="rgb(137,132,51)" stroke-width="1" transform="rotate(192 0,0)"/><path d="M 0,0
	c 35.333333333333,-18.666666666667 20.666666666667,-14.933333333333 0,-53.333333333333
	M 0,0
	c -35.333333333333,-18.666666666667 -20.666666666667,-14.933333333333 0,-53.333333333333
	z" fill="rgb(167,162,81)" stroke-width="1" transform="rotate(228.96 0,0)"/><path d="M 0,0
	c 35.333333333333,-18.666666666667 20.666666666667,-14.933333333333 0,-49.333333333333
	M 0,0
	c -35.333333333333,-18.666666666667 -20.666666666667,-14.933333333333 0,-49.333333333333
	z" fill="rgb(157,152,71)" stroke-width="1" transform="rotate(252 0,0)"/><path d="M 0,0
	c 35.333333333333,-18.666666666667 20.666666666667,-14.933333333333 0,-48
	M 0,0
	c -35.333333333333,-18.666666666667 -20.666666666667,-14.933333333333 0,-48
	z" fill="rgb(167,162,81)" stroke-width="1" transform="rotate(282.48 0,0)"/><path d="M 0,0
	c 35.333333333333,-18.666666666667 20.666666666667,-14.933333333333 0,-51.333333333333
	M 0,0
	c -35.333333333333,-18.666666666667 -20.666666666667,-14.933333333333 0,-51.333333333333
	z" fill="rgb(137,132,51)" stroke-width="1" transform="rotate(316.8 0,0)"/><path d="M 0,0
	c 35.333333333333,-18.666666666667 20.666666666667,-14.933333333333 0,-43.333333333333
	M 0,0
	c -35.333333333333,-18.666666666667 -20.666666666667,-14.933333333333 0,-43.333333333333
	z" fill="rgb(177,172,91)" stroke-width="1" transform="rotate(293.28 0,0)"/><path d="M 0,0
	c 35.333333333333,-18.666666666667 20.666666666667,-14.933333333333 0,-49.333333333333
	M 0,0
	c -35.333333333333,-18.666666666667 -20.666666666667,-14.933333333333 0,-49.333333333333
	z" fill="rgb(177,172,91)" stroke-width="1" transform="rotate(332.64 0,0)"/><circle cx="0" cy="0" r="16.222222222222" fill="#ffb566"/><circle cx="0" cy="0" r="5.4074074074074" fill="#ffce99"/></g><g id="fleur3"><path d="M 0,0
	c 30.285714285714,-16 17.714285714286,-12.8 0,-38.285714285714
	M 0,0
	c -30.285714285714,-16 -17.714285714286,-12.8 0,-38.285714285714
	z" fill="rgb(177,172,91)" stroke-width="1" transform="rotate(0 0,0)"/><path d="M 0,0
	c 30.285714285714,-16 17.714285714286,-12.8 0,-45.142857142857
	M 0,0
	c -30.285714285714,-16 -17.714285714286,-12.8 0,-45.142857142857
	z" fill="rgb(177,172,91)" stroke-width="1" transform="rotate(29.907692307692 0,0)"/><path d="M 0,0
	c 30.285714285714,-16 17.714285714286,-12.8 0,-44.571428571429
	M 0,0
	c -30.285714285714,-16 -17.714285714286,-12.8 0,-44.571428571429
	z" fill="rgb(167,162,81)" stroke-width="1" transform="rotate(58.707692307692 0,0)"/><path d="M 0,0
	c 30.285714285714,-16 17.714285714286,-12.8 0,-37.714285714286
	M 0,0
	c -30.285714285714,-16 -17.714285714286,-12.8 0,-37.714285714286
	z" fill="rgb(157,152,71)" stroke-width="1" transform="rotate(79.753846153846 0,0)"/><path d="M 0,0
	c 30.285714285714,-16 17.714285714286,-12.8 0,-45.714285714286
	M 0,0
	c -30.285714285714,-16 -17.714285714286,-12.8 0,-45.714285714286
	z" fill="rgb(157,152,71)" stroke-width="1" transform="rotate(121.84615384615 0,0)"/><path d="M 0,0
	c 30.285714285714,-16 17.714285714286,-12.8 0,-45.142857142857
	M 0,0
	c -30.285714285714,-16 -17.714285714286,-12.8 0,-45.142857142857
	z" fill="rgb(137,132,51)" stroke-width="1" transform="rotate(146.76923076923 0,0)"/><path d="M 0,0
	c 30.285714285714,-16 17.714285714286,-12.8 0,-43.428571428571
	M 0,0
	c -30.285714285714,-16 -17.714285714286,-12.8 0,-43.428571428571
	z" fill="rgb(147,142,61)" stroke-width="1" transform="rotate(162.83076923077 0,0)"/><path d="M 0,0
	c 30.285714285714,-16 17.714285714286,-12.8 0,-45.142857142857
	M 0,0
	c -30.285714285714,-16 -17.714285714286,-12.8 0,-45.142857142857
	z" fill="rgb(137,132,51)" stroke-width="1" transform="rotate(191.90769230769 0,0)"/><path d="M 0,0
	c 30.285714285714,-16 17.714285714286,-12.8 0,-42.285714285714
	M 0,0
	c -30.285714285714,-16 -17.714285714286,-12.8 0,-42.285714285714
	z" fill="rgb(147,142,61)" stroke-width="1" transform="rotate(234.83076923077 0,0)"/><path d="M 0,0
	c 30.285714285714,-16 17.714285714286,-12.8 0,-42.285714285714
	M 0,0
	c -30.285714285714,-16 -17.714285714286,-12.8 0,-42.285714285714
	z" fill="rgb(147,142,61)" stroke-width="1" transform="rotate(239.26153846154 0,0)"/><path d="M 0,0
	c 30.285714285714,-16 17.714285714286,-12.8 0,-46.285714285714
	M 0,0
	c -30.285714285714,-16 -17.714285714286,-12.8 0,-46.285714285714
	z" fill="rgb(157,152,71)" stroke-width="1" transform="rotate(304.61538461538 0,0)"/><path d="M 0,0
	c 30.285714285714,-16 17.714285714286,-12.8 0,-36
	M 0,0
	c -30.285714285714,-16 -17.714285714286,-12.8 0,-36
	z" fill="rgb(137,132,51)" stroke-width="1" transform="rotate(304.61538461538 0,0)"/><path d="M 0,0
	c 30.285714285714,-16 17.714285714286,-12.8 0,-42.285714285714
	M 0,0
	c -30.285714285714,-16 -17.714285714286,-12.8 0,-42.285714285714
	z" fill="rgb(157,152,71)" stroke-width="1" transform="rotate(315.69230769231 0,0)"/><circle cx="0" cy="0" r="13.904761904762" fill="#ffb566"/><circle cx="0" cy="0" r="4.6349206349206" fill="#ffce99"/></g><g id="fleur4"><path d="M 0,0
	c 26.5,-14 15.5,-11.2 0,-40
	M 0,0
	c -26.5,-14 -15.5,-11.2 0,-40
	z" fill="rgb(147,142,61)" stroke-width="1" transform="rotate(0 0,0)"/><path d="M 0,0
	c 26.5,-14 15.5,-11.2 0,-35.5
	M 0,0
	c -26.5,-14 -15.5,-11.2 0,-35.5
	z" fill="rgb(167,162,81)" stroke-width="1" transform="rotate(28.2 0,0)"/><path d="M 0,0
	c 26.5,-14 15.5,-11.2 0,-40
	M 0,0
	c -26.5,-14 -15.5,-11.2 0,-40
	z" fill="rgb(147,142,61)" stroke-width="1" transform="rotate(64.8 0,0)"/><path d="M 0,0
	c 26.5,-14 15.5,-11.2 0,-31.5
	M 0,0
	c -26.5,-14 -15.5,-11.2 0,-31.5
	z" fill="rgb(147,142,61)" stroke-width="1" transform="rotate(89.1 0,0)"/><path d="M 0,0
	c 26.5,-14 15.5,-11.2 0,-38.5
	M 0,0
	c -26.5,-14 -15.5,-11.2 0,-38.5
	z" fill="rgb(147,142,61)" stroke-width="1" transform="rotate(130.8 0,0)"/><path d="M 0,0
	c 26.5,-14 15.5,-11.2 0,-34
	M 0,0
	c -26.5,-14 -15.5,-11.2 0,-34
	z" fill="rgb(157,152,71)" stroke-width="1" transform="rotate(141 0,0)"/><path d="M 0,0
	c 26.5,-14 15.5,-11.2 0,-36.5
	M 0,0
	c -26.5,-14 -15.5,-11.2 0,-36.5
	z" fill="rgb(177,172,91)" stroke-width="1" transform="rotate(180 0,0)"/><path d="M 0,0
	c 26.5,-14 15.5,-11.2 0,-34
	M 0,0
	c -26.5,-14 -15.5,-11.2 0,-34
	z" fill="rgb(147,142,61)" stroke-width="1" transform="rotate(205.8 0,0)"/><path d="M 0,0
	c 26.5,-14 15.5,-11.2 0,-40.5
	M 0,0
	c -26.5,-14 -15.5,-11.2 0,-40.5
	z" fill="rgb(147,142,61)" stroke-width="1" transform="rotate(259.2 0,0)"/><path d="M 0,0
	c 26.5,-14 15.5,-11.2 0,-32.5
	M 0,0
	c -26.5,-14 -15.5,-11.2 0,-32.5
	z" fill="rgb(177,172,91)" stroke-width="1" transform="rotate(288.9 0,0)"/><path d="M 0,0
	c 26.5,-14 15.5,-11.2 0,-38
	M 0,0
	c -26.5,-14 -15.5,-11.2 0,-38
	z" fill="rgb(167,162,81)" stroke-width="1" transform="rotate(297 0,0)"/><path d="M 0,0
	c 26.5,-14 15.5,-11.2 0,-32.5
	M 0,0
	c -26.5,-14 -15.5,-11.2 0,-32.5
	z" fill="rgb(177,172,91)" stroke-width="1" transform="rotate(310.2 0,0)"/><circle cx="0" cy="0" r="12.166666666667" fill="#ffb566"/><circle cx="0" cy="0" r="4.0555555555556" fill="#ffce99"/></g></defs><use xlink:href="#feuille3"
		x="249.375" y="424.35" 
		transform="rotate(104.2 249.375,424.35)"
		fill="rgb(170,128,184)" /><use xlink:href="#feuille3"
		x="249.375" y="424.35" 
		transform="rotate(88.3 249.375,424.35)"
		fill="rgb(210,168,224)" /><use xlink:href="#feuille3"
		x="249.375" y="424.35" 
		transform="rotate(117.5 249.375,424.35)"
		fill="rgb(180,138,194)" /><use xlink:href="#feuille1"
	x="258.922875" y="475.22205" 
	transform="rotate(-60  258.922875,475.22205)"
	fill="rgb(200,158,214)" /><path d="M 258 480 c 9,-31.8 -42,-63.6 30,-159  " stroke="rgb(161,134,125)" stroke-width="18" fill="transparent"/><use xlink:href="#fleur1"
x="288" y="321" 
fill="Pink" /><use xlink:href="#feuille3"
		x="265.6518" y="268.62" 
		transform="rotate(99 265.6518,268.62)"
		fill="rgb(190,148,204)" /><use xlink:href="#feuille3"
		x="265.6518" y="268.62" 
		transform="rotate(-71.6 265.6518,268.62)"
		fill="rgb(200,158,214)" /><use xlink:href="#feuille3"
		x="265.6518" y="268.62" 
		transform="rotate(65.4 265.6518,268.62)"
		fill="rgb(180,138,194)" /><use xlink:href="#feuille2"
		x="265.6518" y="268.62" 
		transform="rotate(-77.6 265.6518,268.62)"
		fill="rgb(160,118,174)" /><use xlink:href="#feuille2"
		x="265.6518" y="268.62" 
		transform="rotate(-100 265.6518,268.62)"
		fill="rgb(150,108,164)" /><use xlink:href="#feuille1"
	x="265.4574" y="458.16" 
	transform="rotate(-70  265.4574,458.16)"
	fill="rgb(190,148,204)" /><use xlink:href="#feuille1"
	x="265.4574" y="458.16" 
	transform="rotate(61  265.4574,458.16)"
	fill="rgb(160,118,174)" /><use xlink:href="#feuille1"
	x="265.4574" y="458.16" 
	transform="rotate(-51  265.4574,458.16)"
	fill="rgb(160,118,174)" /><path d="M 258 480 c 54,-150 21.6,-210 -54,-300  " stroke="rgb(161,134,125)" stroke-width="16" fill="transparent"/><use xlink:href="#fleur2"
x="204" y="180" 
fill="Pink" /></svg>