<?xml version="1.0" encoding="iso-8859-1"?>
<svg version="1.1" id="Capa_1" xmlns="http://www.w3.org/2000/svg" xmlns:xlink="http://www.w3.org/1999/xlink" x="0px" y="0px"
viewBox="0 0 500 500" xml:space="preserve"><defs><g id="feuille1">
<path d="M 0,0
c 41,-76 58,-69 0,-106
M 0,0
c -41,-76 -58,-69 0,-106
z" stroke="#85e085" stroke-width="0"/>
<polygon points="-3,3, 0,-74.2 3 3" stroke="rgb(115,136,104)" stroke-width="2" fill="rgb(115,136,104)"/>
</g>
<g id="feuille2">
<path d="M 0,0
c 27.333333333333,-50.666666666667 38.666666666667,-46 0,-70.666666666667
M 0,0
c -27.333333333333,-50.666666666667 -38.666666666667,-46 0,-70.666666666667
z" stroke="#85e085" stroke-width="0"/>
<polygon points="-3 3, 0,-49.466666666667, 3 3" stroke="rgb(115,136,104)" stroke-width="1" fill="rgb(115,136,104)"/>
</g><g id="feuille3">
<path d="M 0,0
c 20.5,-38 29,-34.5 0,-53
M 0,0
c -20.5,-38 -29,-34.5 0,-53
z" stroke="#85e085" stroke-width="0"/>
<polygon points="-3 3, 0,-37.1, 3 3" stroke="rgb(115,136,104)" stroke-width="1" fill="rgb(115,136,104)"/>
</g><g id="feuille4">
<path d="M 0,0
c 16.4,-30.4 23.2,-27.6 0,-42.4
M 0,0
c -16.4,-30.4 -23.2,-27.6 0,-42.4
z" stroke="#85e085" stroke-width="0"/>
<polygon points="-3 3, 0,-29.68, 3 3" stroke="rgb(115,136,104)" stroke-width="1" fill="rgb(115,136,104)"/>
</g><g id="fleur1"><path d="M 0,0
	c 25,-62 51,-49.6 0,-93
	M 0,0
	c -25,-62 -51,-49.6 0,-93
	z" fill="rgb(53,178,136)" stroke-width="1" transform="rotate(0 0,0)"/><path d="M 0,0
	c 25,-62 51,-49.6 0,-87
	M 0,0
	c -25,-62 -51,-49.6 0,-87
	z" fill="rgb(43,168,126)" stroke-width="1" transform="rotate(29.781818181818 0,0)"/><path d="M 0,0
	c 25,-62 51,-49.6 0,-93
	M 0,0
	c -25,-62 -51,-49.6 0,-93
	z" fill="rgb(33,158,116)" stroke-width="1" transform="rotate(63.490909090909 0,0)"/><path d="M 0,0
	c 25,-62 51,-49.6 0,-106
	M 0,0
	c -25,-62 -51,-49.6 0,-106
	z" fill="rgb(63,188,146)" stroke-width="1" transform="rotate(93.272727272727 0,0)"/><path d="M 0,0
	c 25,-62 51,-49.6 0,-103
	M 0,0
	c -25,-62 -51,-49.6 0,-103
	z" fill="rgb(53,178,136)" stroke-width="1" transform="rotate(132.21818181818 0,0)"/><path d="M 0,0
	c 25,-62 51,-49.6 0,-88
	M 0,0
	c -25,-62 -51,-49.6 0,-88
	z" fill="rgb(73,198,156)" stroke-width="1" transform="rotate(155.45454545455 0,0)"/><path d="M 0,0
	c 25,-62 51,-49.6 0,-96
	M 0,0
	c -25,-62 -51,-49.6 0,-96
	z" fill="rgb(43,168,126)" stroke-width="1" transform="rotate(178.69090909091 0,0)"/><path d="M 0,0
	c 25,-62 51,-49.6 0,-104
	M 0,0
	c -25,-62 -51,-49.6 0,-104
	z" fill="rgb(73,198,156)" stroke-width="1" transform="rotate(217.63636363636 0,0)"/><path d="M 0,0
	c 25,-62 51,-49.6 0,-99
	M 0,0
	c -25,-62 -51,-49.6 0,-99
	z" fill="rgb(53,178,136)" stroke-width="1" transform="rotate(267.05454545455 0,0)"/><path d="M 0,0
	c 25,-62 51,-49.6 0,-90
	M 0,0
	c -25,-62 -51,-49.6 0,-90
	z" fill="rgb(73,198,156)" stroke-width="1" transform="rotate(312.21818181818 0,0)"/><path d="M 0,0
	c 25,-62 51,-49.6 0,-88
	M 0,0
	c -25,-62 -51,-49.6 0,-88
	z" fill="rgb(43,168,126)" stroke-width="1" transform="rotate(360 0,0)"/><circle cx="0" cy="0" r="19.2" fill="#ffb566"/><circle cx="0" cy="0" r="6.4" fill="#ffce99"/></g><g id="fleur2"><path d="M 0,0
	c 16.666666666667,-41.333333333333 34,-33.066666666667 0,-66.666666666667
	M 0,0
	c -16.666666666667,-41.333333333333 -34,-33.066666666667 0,-66.666666666667
	z" fill="rgb(53,178,136)" stroke-width="1" transform="rotate(0 0,0)"/><path d="M 0,0
	c 16.666666666667,-41.333333333333 34,-33.066666666667 0,-64
	M 0,0
	c -16.666666666667,-41.333333333333 -34,-33.066666666667 0,-64
	z" fill="rgb(73,198,156)" stroke-width="1" transform="rotate(26.4 0,0)"/><path d="M 0,0
	c 16.666666666667,-41.333333333333 34,-33.066666666667 0,-58
	M 0,0
	c -16.666666666667,-41.333333333333 -34,-33.066666666667 0,-58
	z" fill="rgb(33,158,116)" stroke-width="1" transform="rotate(45.6 0,0)"/><path d="M 0,0
	c 16.666666666667,-41.333333333333 34,-33.066666666667 0,-62
	M 0,0
	c -16.666666666667,-41.333333333333 -34,-33.066666666667 0,-62
	z" fill="rgb(53,178,136)" stroke-width="1" transform="rotate(67.68 0,0)"/><path d="M 0,0
	c 16.666666666667,-41.333333333333 34,-33.066666666667 0,-57.333333333333
	M 0,0
	c -16.666666666667,-41.333333333333 -34,-33.066666666667 0,-57.333333333333
	z" fill="rgb(43,168,126)" stroke-width="1" transform="rotate(104.64 0,0)"/><path d="M 0,0
	c 16.666666666667,-41.333333333333 34,-33.066666666667 0,-68
	M 0,0
	c -16.666666666667,-41.333333333333 -34,-33.066666666667 0,-68
	z" fill="rgb(53,178,136)" stroke-width="1" transform="rotate(110.4 0,0)"/><path d="M 0,0
	c 16.666666666667,-41.333333333333 34,-33.066666666667 0,-63.333333333333
	M 0,0
	c -16.666666666667,-41.333333333333 -34,-33.066666666667 0,-63.333333333333
	z" fill="rgb(73,198,156)" stroke-width="1" transform="rotate(139.68 0,0)"/><path d="M 0,0
	c 16.666666666667,-41.333333333333 34,-33.066666666667 0,-59.333333333333
	M 0,0
	c -16.666666666667,-41.333333333333 -34,-33.066666666667 0,-59.333333333333
	z" fill="rgb(63,188,146)" stroke-width="1" transform="rotate(164.64 0,0)"/><path d="M 0,0
	c 16.666666666667,-41.333333333333 34,-33.066666666667 0,-61.333333333333
	M 0,0
	c -16.666666666667,-41.333333333333 -34,-33.066666666667 0,-61.333333333333
	z" fill="rgb(33,158,116)" stroke-width="1" transform="rotate(174.72 0,0)"/><path d="M 0,0
	c 16.666666666667,-41.333333333333 34,-33.066666666667 0,-65.333333333333
	M 0,0
	c -16.666666666667,-41.333333333333 -34,-33.066666666667 0,-65.333333333333
	z" fill="rgb(33,158,116)" stroke-width="1" transform="rotate(222.48 0,0)"/><path d="M 0,0
	c 16.666666666667,-41.333333333333 34,-33.066666666667 0,-66.666666666667
	M 0,0
	c -16.666666666667,-41.333333333333 -34,-33.066666666667 0,-66.666666666667
	z" fill="rgb(33,158,116)" stroke-width="1" transform="rotate(235.2 0,0)"/><path d="M 0,0
	c 16.666666666667,-41.333333333333 34,-33.066666666667 0,-68
	M 0,0
	c -16.666666666667,-41.333333333333 -34,-33.066666666667 0,-68
	z" fill="rgb(33,158,116)" stroke-width="1" transform="rotate(258.72 0,0)"/><path d="M 0,0
	c 16.666666666667,-41.333333333333 34,-33.066666666667 0,-70.666666666667
	M 0,0
	c -16.666666666667,-41.333333333333 -34,-33.066666666667 0,-70.666666666667
	z" fill="rgb(53,178,136)" stroke-width="1" transform="rotate(305.28 0,0)"/><path d="M 0,0
	c 16.666666666667,-41.333333333333 34,-33.066666666667 0,-59.333333333333
	M 0,0
	c -16.666666666667,-41.333333333333 -34,-33.066666666667 0,-59.333333333333
	z" fill="rgb(33,158,116)" stroke-width="1" transform="rotate(299.52 0,0)"/><path d="M 0,0
	c 16.666666666667,-41.333333333333 34,-33.066666666667 0,-70
	M 0,0
	c -16.666666666667,-41.333333333333 -34,-33.066666666667 0,-70
	z" fill="rgb(53,178,136)" stroke-width="1" transform="rotate(309.12 0,0)"/><circle cx="0" cy="0" r="12.8" fill="#ffb566"/><circle cx="0" cy="0" r="4.2666666666667" fill="#ffce99"/></g><g id="fleur3"><path d="M 0,0
	c 14.285714285714,-35.428571428571 29.142857142857,-28.342857142857 0,-60
	M 0,0
	c -14.285714285714,-35.428571428571 -29.142857142857,-28.342857142857 0,-60
	z" fill="rgb(63,188,146)" stroke-width="1" transform="rotate(0 0,0)"/><path d="M 0,0
	c 14.285714285714,-35.428571428571 29.142857142857,-28.342857142857 0,-56.571428571429
	M 0,0
	c -14.285714285714,-35.428571428571 -29.142857142857,-28.342857142857 0,-56.571428571429
	z" fill="rgb(33,158,116)" stroke-width="1" transform="rotate(28.8 0,0)"/><path d="M 0,0
	c 14.285714285714,-35.428571428571 29.142857142857,-28.342857142857 0,-57.714285714286
	M 0,0
	c -14.285714285714,-35.428571428571 -29.142857142857,-28.342857142857 0,-57.714285714286
	z" fill="rgb(53,178,136)" stroke-width="1" transform="rotate(54.276923076923 0,0)"/><path d="M 0,0
	c 14.285714285714,-35.428571428571 29.142857142857,-28.342857142857 0,-52.571428571429
	M 0,0
	c -14.285714285714,-35.428571428571 -29.142857142857,-28.342857142857 0,-52.571428571429
	z" fill="rgb(33,158,116)" stroke-width="1" transform="rotate(75.6 0,0)"/><path d="M 0,0
	c 14.285714285714,-35.428571428571 29.142857142857,-28.342857142857 0,-57.142857142857
	M 0,0
	c -14.285714285714,-35.428571428571 -29.142857142857,-28.342857142857 0,-57.142857142857
	z" fill="rgb(73,198,156)" stroke-width="1" transform="rotate(101.90769230769 0,0)"/><path d="M 0,0
	c 14.285714285714,-35.428571428571 29.142857142857,-28.342857142857 0,-59.428571428571
	M 0,0
	c -14.285714285714,-35.428571428571 -29.142857142857,-28.342857142857 0,-59.428571428571
	z" fill="rgb(33,158,116)" stroke-width="1" transform="rotate(137.07692307692 0,0)"/><path d="M 0,0
	c 14.285714285714,-35.428571428571 29.142857142857,-28.342857142857 0,-57.714285714286
	M 0,0
	c -14.285714285714,-35.428571428571 -29.142857142857,-28.342857142857 0,-57.714285714286
	z" fill="rgb(33,158,116)" stroke-width="1" transform="rotate(182.76923076923 0,0)"/><path d="M 0,0
	c 14.285714285714,-35.428571428571 29.142857142857,-28.342857142857 0,-54.285714285714
	M 0,0
	c -14.285714285714,-35.428571428571 -29.142857142857,-28.342857142857 0,-54.285714285714
	z" fill="rgb(33,158,116)" stroke-width="1" transform="rotate(195.78461538462 0,0)"/><path d="M 0,0
	c 14.285714285714,-35.428571428571 29.142857142857,-28.342857142857 0,-60.571428571429
	M 0,0
	c -14.285714285714,-35.428571428571 -29.142857142857,-28.342857142857 0,-60.571428571429
	z" fill="rgb(63,188,146)" stroke-width="1" transform="rotate(225.96923076923 0,0)"/><path d="M 0,0
	c 14.285714285714,-35.428571428571 29.142857142857,-28.342857142857 0,-58.857142857143
	M 0,0
	c -14.285714285714,-35.428571428571 -29.142857142857,-28.342857142857 0,-58.857142857143
	z" fill="rgb(63,188,146)" stroke-width="1" transform="rotate(224.30769230769 0,0)"/><path d="M 0,0
	c 14.285714285714,-35.428571428571 29.142857142857,-28.342857142857 0,-52.571428571429
	M 0,0
	c -14.285714285714,-35.428571428571 -29.142857142857,-28.342857142857 0,-52.571428571429
	z" fill="rgb(73,198,156)" stroke-width="1" transform="rotate(288 0,0)"/><path d="M 0,0
	c 14.285714285714,-35.428571428571 29.142857142857,-28.342857142857 0,-53.714285714286
	M 0,0
	c -14.285714285714,-35.428571428571 -29.142857142857,-28.342857142857 0,-53.714285714286
	z" fill="rgb(63,188,146)" stroke-width="1" transform="rotate(310.70769230769 0,0)"/><path d="M 0,0
	c 14.285714285714,-35.428571428571 29.142857142857,-28.342857142857 0,-60.571428571429
	M 0,0
	c -14.285714285714,-35.428571428571 -29.142857142857,-28.342857142857 0,-60.571428571429
	z" fill="rgb(43,168,126)" stroke-width="1" transform="rotate(328.98461538462 0,0)"/><circle cx="0" cy="0" r="10.971428571429" fill="#ffb566"/><circle cx="0" cy="0" r="3.6571428571429" fill="#ffce99"/></g><g id="fleur4"><path d="M 0,0
	c 12.5,-31 25.5,-24.8 0,-50.5
	M 0,0
	c -12.5,-31 -25.5,-24.8 0,-50.5
	z" fill="rgb(73,198,156)" stroke-width="1" transform="rotate(0 0,0)"/><path d="M 0,0
	c 12.5,-31 25.5,-24.8 0,-47.5
	M 0,0
	c -12.5,-31 -25.5,-24.8 0,-47.5
	z" fill="rgb(53,178,136)" stroke-width="1" transform="rotate(65.4 0,0)"/><path d="M 0,0
	c 12.5,-31 25.5,-24.8 0,-51
	M 0,0
	c -12.5,-31 -25.5,-24.8 0,-51
	z" fill="rgb(33,158,116)" stroke-width="1" transform="rotate(110.4 0,0)"/><path d="M 0,0
	c 12.5,-31 25.5,-24.8 0,-43.5
	M 0,0
	c -12.5,-31 -25.5,-24.8 0,-43.5
	z" fill="rgb(43,168,126)" stroke-width="1" transform="rotate(192.6 0,0)"/><path d="M 0,0
	c 12.5,-31 25.5,-24.8 0,-51
	M 0,0
	c -12.5,-31 -25.5,-24.8 0,-51
	z" fill="rgb(63,188,146)" stroke-width="1" transform="rotate(254.4 0,0)"/><path d="M 0,0
	c 12.5,-31 25.5,-24.8 0,-46
	M 0,0
	c -12.5,-31 -25.5,-24.8 0,-46
	z" fill="rgb(63,188,146)" stroke-width="1" transform="rotate(303 0,0)"/><circle cx="0" cy="0" r="9.6" fill="#ffb566"/><circle cx="0" cy="0" r="3.2" fill="#ffce99"/></g></defs><use xlink:href="#feuille1"
	x="265.0941" y="465.445575" 
	transform="rotate(-35  265.0941,465.445575)"
	fill="rgb(175,114,166)" /><use xlink:href="#feuille1"
	x="265.0941" y="465.445575" 
	transform="rotate(42  265.0941,465.445575)"
	fill="rgb(185,124,176)" /><use xlink:href="#feuille1"
	x="265.0941" y="465.445575" 
	transform="rotate(-44  265.0941,465.445575)"
	fill="rgb(185,124,176)" /><path d="M 260 480 c 38.133333333333,-103.2 -8.8,-77.4 -44,-258  " stroke="rgb(115,136,104)" stroke-width="18" fill="transparent"/><use xlink:href="#fleur1"
x="216" y="222" 
fill="Pink" /><use xlink:href="#feuille2"
		x="224.472" y="405.696" 
		transform="rotate(-100 224.472,405.696)"
		fill="rgb(155,94,146)" /><use xlink:href="#feuille3"
		x="224.472" y="405.696" 
		transform="rotate(79.7 224.472,405.696)"
		fill="rgb(195,134,186)" /><use xlink:href="#feuille1"
	x="205.773375" y="470.792625" 
	transform="rotate(40  205.773375,470.792625)"
	fill="rgb(155,94,146)" /><use xlink:href="#feuille1"
	x="205.773375" y="470.792625" 
	transform="rotate(55  205.773375,470.792625)"
	fill="rgb(165,104,156)" /><use xlink:href="#feuille1"
	x="205.773375" y="470.792625" 
	transform="rotate(57  205.773375,470.792625)"
	fill="rgb(195,134,186)" /><path d="M 210 480 c -33,-64.5 33,-64.5 45,-129  " stroke="rgb(115,136,104)" stroke-width="16" fill="transparent"/><use xlink:href="#fleur2"
x="255" y="351" 
fill="Pink" /><use xlink:href="#feuille4"
		x="211.7" y="298.3" 
		transform="rotate(99.1 211.7,298.3)"
		fill="rgb(195,134,186)" /><use xlink:href="#feuille1"
	x="201.2483" y="444.8371" 
	transform="rotate(-69  201.2483,444.8371)"
	fill="rgb(165,104,156)" /><use xlink:href="#feuille1"
	x="201.2483" y="444.8371" 
	transform="rotate(73  201.2483,444.8371)"
	fill="rgb(155,94,146)" /><path d="M 197 480 c 32.666666666667,-252.8 -26.133333333333,-126.4 98,-316  " stroke="rgb(115,136,104)" stroke-width="14" fill="transparent"/><use xlink:href="#fleur3"
x="295" y="164" 
fill="Pink" /></svg>