<?xml version="1.0" encoding="iso-8859-1"?>
<svg version="1.1" id="Capa_1" xmlns="http://www.w3.org/2000/svg" xmlns:xlink="http://www.w3.org/1999/xlink" x="0px" y="0px"
viewBox="0 0 500 500" xml:space="preserve"><defs><g id="feuille1">
<path d="M 0,0
c 38,-98 29,-82 0,-129
M 0,0
c -38,-98 -29,-82 0,-129
z" stroke="#85e085" stroke-width="0"/>
<polygon points="-3,3, 0,-90.3 3 3" stroke="rgb(161,191,196)" stroke-width="2" fill="rgb(161,191,196)"/>
</g>
<g id="feuille2">
<path d="M 0,0
c 25.333333333333,-65.333333333333 19.333333333333,-54.666666666667 0,-86
M 0,0
c -25.333333333333,-65.333333333333 -19.333333333333,-54.666666666667 0,-86
z" stroke="#85e085" stroke-width="0"/>
<polygon points="-3 3, 0,-60.2, 3 3" stroke="rgb(161,191,196)" stroke-width="1" fill="rgb(161,191,196)"/>
</g><g id="feuille3">
<path d="M 0,0
c 19,-49 14.5,-41 0,-64.5
M 0,0
c -19,-49 -14.5,-41 0,-64.5
z" stroke="#85e085" stroke-width="0"/>
<polygon points="-3 3, 0,-45.15, 3 3" stroke="rgb(161,191,196)" stroke-width="1" fill="rgb(161,191,196)"/>
</g><g id="feuille4">
<path d="M 0,0
c 15.2,-39.2 11.6,-32.8 0,-51.6
M 0,0
c -15.2,-39.2 -11.6,-32.8 0,-51.6
z" stroke="#85e085" stroke-width="0"/>
<polygon points="-3 3, 0,-36.12, 3 3" stroke="rgb(161,191,196)" stroke-width="1" fill="rgb(161,191,196)"/>
</g><g id="fleur1"><path d="M 0,0
	c 50,-70 41,-87 0,-98
	M 0,0
	c -50,-70 -41,-87 0,-98
	z" fill="rgb(72,134,115)" stroke-width="1" transform="rotate(0 0,0)"/><path d="M 0,0
	c 50,-70 41,-87 0,-84
	M 0,0
	c -50,-70 -41,-87 0,-84
	z" fill="rgb(52,114,95)" stroke-width="1" transform="rotate(35.672727272727 0,0)"/><path d="M 0,0
	c 50,-70 41,-87 0,-84
	M 0,0
	c -50,-70 -41,-87 0,-84
	z" fill="rgb(72,134,115)" stroke-width="1" transform="rotate(66.763636363636 0,0)"/><path d="M 0,0
	c 50,-70 41,-87 0,-84
	M 0,0
	c -50,-70 -41,-87 0,-84
	z" fill="rgb(92,154,135)" stroke-width="1" transform="rotate(96.218181818182 0,0)"/><path d="M 0,0
	c 50,-70 41,-87 0,-95
	M 0,0
	c -50,-70 -41,-87 0,-95
	z" fill="rgb(62,124,105)" stroke-width="1" transform="rotate(140.07272727273 0,0)"/><path d="M 0,0
	c 50,-70 41,-87 0,-82
	M 0,0
	c -50,-70 -41,-87 0,-82
	z" fill="rgb(62,124,105)" stroke-width="1" transform="rotate(170.18181818182 0,0)"/><path d="M 0,0
	c 50,-70 41,-87 0,-89
	M 0,0
	c -50,-70 -41,-87 0,-89
	z" fill="rgb(72,134,115)" stroke-width="1" transform="rotate(180.65454545455 0,0)"/><path d="M 0,0
	c 50,-70 41,-87 0,-79
	M 0,0
	c -50,-70 -41,-87 0,-79
	z" fill="rgb(52,114,95)" stroke-width="1" transform="rotate(238.25454545455 0,0)"/><path d="M 0,0
	c 50,-70 41,-87 0,-82
	M 0,0
	c -50,-70 -41,-87 0,-82
	z" fill="rgb(72,134,115)" stroke-width="1" transform="rotate(238.25454545455 0,0)"/><path d="M 0,0
	c 50,-70 41,-87 0,-90
	M 0,0
	c -50,-70 -41,-87 0,-90
	z" fill="rgb(72,134,115)" stroke-width="1" transform="rotate(321.05454545455 0,0)"/><path d="M 0,0
	c 50,-70 41,-87 0,-98
	M 0,0
	c -50,-70 -41,-87 0,-98
	z" fill="rgb(82,144,125)" stroke-width="1" transform="rotate(337.09090909091 0,0)"/><circle cx="0" cy="0" r="8.8" fill="#ffb566"/><circle cx="0" cy="0" r="2.9333333333333" fill="#ffce99"/></g><g id="fleur2"><path d="M 0,0
	c 33.333333333333,-46.666666666667 27.333333333333,-58 0,-63.333333333333
	M 0,0
	c -33.333333333333,-46.666666666667 -27.333333333333,-58 0,-63.333333333333
	z" fill="rgb(62,124,105)" stroke-width="1" transform="rotate(0 0,0)"/><path d="M 0,0
	c 33.333333333333,-46.666666666667 27.333333333333,-58 0,-61.333333333333
	M 0,0
	c -33.333333333333,-46.666666666667 -27.333333333333,-58 0,-61.333333333333
	z" fill="rgb(52,114,95)" stroke-width="1" transform="rotate(38.52 0,0)"/><path d="M 0,0
	c 33.333333333333,-46.666666666667 27.333333333333,-58 0,-57.333333333333
	M 0,0
	c -33.333333333333,-46.666666666667 -27.333333333333,-58 0,-57.333333333333
	z" fill="rgb(52,114,95)" stroke-width="1" transform="rotate(66.96 0,0)"/><path d="M 0,0
	c 33.333333333333,-46.666666666667 27.333333333333,-58 0,-57.333333333333
	M 0,0
	c -33.333333333333,-46.666666666667 -27.333333333333,-58 0,-57.333333333333
	z" fill="rgb(92,154,135)" stroke-width="1" transform="rotate(115.56 0,0)"/><path d="M 0,0
	c 33.333333333333,-46.666666666667 27.333333333333,-58 0,-62.666666666667
	M 0,0
	c -33.333333333333,-46.666666666667 -27.333333333333,-58 0,-62.666666666667
	z" fill="rgb(92,154,135)" stroke-width="1" transform="rotate(154.08 0,0)"/><path d="M 0,0
	c 33.333333333333,-46.666666666667 27.333333333333,-58 0,-52
	M 0,0
	c -33.333333333333,-46.666666666667 -27.333333333333,-58 0,-52
	z" fill="rgb(72,134,115)" stroke-width="1" transform="rotate(167.4 0,0)"/><path d="M 0,0
	c 33.333333333333,-46.666666666667 27.333333333333,-58 0,-54.666666666667
	M 0,0
	c -33.333333333333,-46.666666666667 -27.333333333333,-58 0,-54.666666666667
	z" fill="rgb(92,154,135)" stroke-width="1" transform="rotate(224.64 0,0)"/><path d="M 0,0
	c 33.333333333333,-46.666666666667 27.333333333333,-58 0,-55.333333333333
	M 0,0
	c -33.333333333333,-46.666666666667 -27.333333333333,-58 0,-55.333333333333
	z" fill="rgb(62,124,105)" stroke-width="1" transform="rotate(252 0,0)"/><path d="M 0,0
	c 33.333333333333,-46.666666666667 27.333333333333,-58 0,-58.666666666667
	M 0,0
	c -33.333333333333,-46.666666666667 -27.333333333333,-58 0,-58.666666666667
	z" fill="rgb(92,154,135)" stroke-width="1" transform="rotate(288 0,0)"/><path d="M 0,0
	c 33.333333333333,-46.666666666667 27.333333333333,-58 0,-62
	M 0,0
	c -33.333333333333,-46.666666666667 -27.333333333333,-58 0,-62
	z" fill="rgb(62,124,105)" stroke-width="1" transform="rotate(356.4 0,0)"/><circle cx="0" cy="0" r="5.8666666666667" fill="#ffb566"/><circle cx="0" cy="0" r="1.9555555555556" fill="#ffce99"/></g><g id="fleur3"><path d="M 0,0
	c 28.571428571429,-40 23.428571428571,-49.714285714286 0,-52
	M 0,0
	c -28.571428571429,-40 -23.428571428571,-49.714285714286 0,-52
	z" fill="rgb(52,114,95)" stroke-width="1" transform="rotate(0 0,0)"/><path d="M 0,0
	c 28.571428571429,-40 23.428571428571,-49.714285714286 0,-52
	M 0,0
	c -28.571428571429,-40 -23.428571428571,-49.714285714286 0,-52
	z" fill="rgb(72,134,115)" stroke-width="1" transform="rotate(34.56 0,0)"/><path d="M 0,0
	c 28.571428571429,-40 23.428571428571,-49.714285714286 0,-46.857142857143
	M 0,0
	c -28.571428571429,-40 -23.428571428571,-49.714285714286 0,-46.857142857143
	z" fill="rgb(82,144,125)" stroke-width="1" transform="rotate(67.68 0,0)"/><path d="M 0,0
	c 28.571428571429,-40 23.428571428571,-49.714285714286 0,-56
	M 0,0
	c -28.571428571429,-40 -23.428571428571,-49.714285714286 0,-56
	z" fill="rgb(72,134,115)" stroke-width="1" transform="rotate(103.68 0,0)"/><path d="M 0,0
	c 28.571428571429,-40 23.428571428571,-49.714285714286 0,-45.142857142857
	M 0,0
	c -28.571428571429,-40 -23.428571428571,-49.714285714286 0,-45.142857142857
	z" fill="rgb(52,114,95)" stroke-width="1" transform="rotate(131.04 0,0)"/><path d="M 0,0
	c 28.571428571429,-40 23.428571428571,-49.714285714286 0,-52
	M 0,0
	c -28.571428571429,-40 -23.428571428571,-49.714285714286 0,-52
	z" fill="rgb(62,124,105)" stroke-width="1" transform="rotate(192.6 0,0)"/><path d="M 0,0
	c 28.571428571429,-40 23.428571428571,-49.714285714286 0,-48.571428571429
	M 0,0
	c -28.571428571429,-40 -23.428571428571,-49.714285714286 0,-48.571428571429
	z" fill="rgb(62,124,105)" stroke-width="1" transform="rotate(222.48 0,0)"/><path d="M 0,0
	c 28.571428571429,-40 23.428571428571,-49.714285714286 0,-55.428571428571
	M 0,0
	c -28.571428571429,-40 -23.428571428571,-49.714285714286 0,-55.428571428571
	z" fill="rgb(82,144,125)" stroke-width="1" transform="rotate(244.44 0,0)"/><path d="M 0,0
	c 28.571428571429,-40 23.428571428571,-49.714285714286 0,-48.571428571429
	M 0,0
	c -28.571428571429,-40 -23.428571428571,-49.714285714286 0,-48.571428571429
	z" fill="rgb(92,154,135)" stroke-width="1" transform="rotate(279.36 0,0)"/><path d="M 0,0
	c 28.571428571429,-40 23.428571428571,-49.714285714286 0,-45.142857142857
	M 0,0
	c -28.571428571429,-40 -23.428571428571,-49.714285714286 0,-45.142857142857
	z" fill="rgb(82,144,125)" stroke-width="1" transform="rotate(327.24 0,0)"/><circle cx="0" cy="0" r="5.0285714285714" fill="#ffb566"/><circle cx="0" cy="0" r="1.6761904761905" fill="#ffce99"/></g><g id="fleur4"><path d="M 0,0
	c 25,-35 20.5,-43.5 0,-39
	M 0,0
	c -25,-35 -20.5,-43.5 0,-39
	z" fill="rgb(92,154,135)" stroke-width="1" transform="rotate(0 0,0)"/><path d="M 0,0
	c 25,-35 20.5,-43.5 0,-41
	M 0,0
	c -25,-35 -20.5,-43.5 0,-41
	z" fill="rgb(62,124,105)" stroke-width="1" transform="rotate(52.971428571429 0,0)"/><path d="M 0,0
	c 25,-35 20.5,-43.5 0,-41.5
	M 0,0
	c -25,-35 -20.5,-43.5 0,-41.5
	z" fill="rgb(62,124,105)" stroke-width="1" transform="rotate(109.02857142857 0,0)"/><path d="M 0,0
	c 25,-35 20.5,-43.5 0,-48
	M 0,0
	c -25,-35 -20.5,-43.5 0,-48
	z" fill="rgb(62,124,105)" stroke-width="1" transform="rotate(154.28571428571 0,0)"/><path d="M 0,0
	c 25,-35 20.5,-43.5 0,-43.5
	M 0,0
	c -25,-35 -20.5,-43.5 0,-43.5
	z" fill="rgb(92,154,135)" stroke-width="1" transform="rotate(216 0,0)"/><path d="M 0,0
	c 25,-35 20.5,-43.5 0,-44
	M 0,0
	c -25,-35 -20.5,-43.5 0,-44
	z" fill="rgb(72,134,115)" stroke-width="1" transform="rotate(249.42857142857 0,0)"/><path d="M 0,0
	c 25,-35 20.5,-43.5 0,-40.5
	M 0,0
	c -25,-35 -20.5,-43.5 0,-40.5
	z" fill="rgb(72,134,115)" stroke-width="1" transform="rotate(327.08571428571 0,0)"/><circle cx="0" cy="0" r="4.4" fill="#ffb566"/><circle cx="0" cy="0" r="1.4666666666667" fill="#ffce99"/></g></defs><use xlink:href="#feuille2"
		x="214.192" y="433.536" 
		transform="rotate(51.2 214.192,433.536)"
		fill="rgb(162,49,97)" /><use xlink:href="#feuille2"
		x="214.192" y="433.536" 
		transform="rotate(-68.3 214.192,433.536)"
		fill="rgb(162,49,97)" /><use xlink:href="#feuille4"
		x="214.192" y="433.536" 
		transform="rotate(64.2 214.192,433.536)"
		fill="rgb(142,29,77)" /><use xlink:href="#feuille1"
	x="208.088" y="475.75125" 
	transform="rotate(-43  208.088,475.75125)"
	fill="rgb(172,59,107)" /><path d="M 206 480 c 14.933333333333,-26.4 9.6,-92.4 -16,-132  " stroke="rgb(161,191,196)" stroke-width="18" fill="transparent"/><use xlink:href="#fleur1"
x="190" y="348" 
fill="Pink" /><use xlink:href="#feuille3"
		x="199.1584" y="327.0144" 
		transform="rotate(-69.9 199.1584,327.0144)"
		fill="rgb(202,89,137)" /><use xlink:href="#feuille1"
	x="198.39005" y="461.27105" 
	transform="rotate(43  198.39005,461.27105)"
	fill="rgb(192,79,127)" /><use xlink:href="#feuille1"
	x="198.39005" y="461.27105" 
	transform="rotate(49  198.39005,461.27105)"
	fill="rgb(172,59,107)" /><use xlink:href="#feuille1"
	x="198.39005" y="461.27105" 
	transform="rotate(-48  198.39005,461.27105)"
	fill="rgb(182,69,117)" /><path d="M 199 480 c -4.4,-132.8 -2.2,-99.6 11,-332  " stroke="rgb(161,191,196)" stroke-width="16" fill="transparent"/><use xlink:href="#fleur2"
x="210" y="148" 
fill="Pink" /><use xlink:href="#feuille3"
		x="205.1565" y="422.26575" 
		transform="rotate(-106.1 205.1565,422.26575)"
		fill="rgb(192,79,127)" /><use xlink:href="#feuille2"
		x="205.1565" y="422.26575" 
		transform="rotate(-101.6 205.1565,422.26575)"
		fill="rgb(142,29,77)" /><use xlink:href="#feuille1"
	x="211.0695" y="473.39025" 
	transform="rotate(72  211.0695,473.39025)"
	fill="rgb(162,49,97)" /><use xlink:href="#feuille1"
	x="211.0695" y="473.39025" 
	transform="rotate(68  211.0695,473.39025)"
	fill="rgb(182,69,117)" /><path d="M 213 480 c -14.4,-42 3.6,-126 -54,-210  " stroke="rgb(161,191,196)" stroke-width="14" fill="transparent"/><use xlink:href="#fleur3"
x="159" y="270" 
fill="Pink" /></svg>