<?xml version="1.0" encoding="iso-8859-1"?>
<svg version="1.1" id="Capa_1" xmlns="http://www.w3.org/2000/svg" xmlns:xlink="http://www.w3.org/1999/xlink" x="0px" y="0px"
viewBox="0 0 500 500" xml:space="preserve"><defs><g id="feuille1">
<path d="M 0,0
c 40,-97 23,-77.6 0,-109
M 0,0
c -40,-97 -23,-77.6 0,-109
z" stroke="#85e085" stroke-width="0"/>
<polygon points="-3,3, 0,-76.3 3 3" stroke="rgb(195,143,188)" stroke-width="2" fill="rgb(195,143,188)"/>
</g>
<g id="feuille2">
<path d="M 0,0
c 26.666666666667,-64.666666666667 15.333333333333,-51.733333333333 0,-72.666666666667
M 0,0
c -26.666666666667,-64.666666666667 -15.333333333333,-51.733333333333 0,-72.666666666667
z" stroke="#85e085" stroke-width="0"/>
<polygon points="-3 3, 0,-50.866666666667, 3 3" stroke="rgb(195,143,188)" stroke-width="1" fill="rgb(195,143,188)"/>
</g><g id="feuille3">
<path d="M 0,0
c 20,-48.5 11.5,-38.8 0,-54.5
M 0,0
c -20,-48.5 -11.5,-38.8 0,-54.5
z" stroke="#85e085" stroke-width="0"/>
<polygon points="-3 3, 0,-38.15, 3 3" stroke="rgb(195,143,188)" stroke-width="1" fill="rgb(195,143,188)"/>
</g><g id="feuille4">
<path d="M 0,0
c 16,-38.8 9.2,-31.04 0,-43.6
M 0,0
c -16,-38.8 -9.2,-31.04 0,-43.6
z" stroke="#85e085" stroke-width="0"/>
<polygon points="-3 3, 0,-30.52, 3 3" stroke="rgb(195,143,188)" stroke-width="1" fill="rgb(195,143,188)"/>
</g><g id="fleur1"><path d="M 0,0
	c 33,-70 57,-42 0,-80
	M 0,0
	c -33,-70 -57,-42 0,-80
	z" fill="rgb(101,61,72)" stroke-width="1" transform="rotate(0 0,0)"/><path d="M 0,0
	c 33,-70 57,-42 0,-73
	M 0,0
	c -33,-70 -57,-42 0,-73
	z" fill="rgb(111,71,82)" stroke-width="1" transform="rotate(63 0,0)"/><path d="M 0,0
	c 33,-70 57,-42 0,-75
	M 0,0
	c -33,-70 -57,-42 0,-75
	z" fill="rgb(121,81,92)" stroke-width="1" transform="rotate(121.2 0,0)"/><path d="M 0,0
	c 33,-70 57,-42 0,-72
	M 0,0
	c -33,-70 -57,-42 0,-72
	z" fill="rgb(91,51,62)" stroke-width="1" transform="rotate(185.4 0,0)"/><path d="M 0,0
	c 33,-70 57,-42 0,-73
	M 0,0
	c -33,-70 -57,-42 0,-73
	z" fill="rgb(81,41,52)" stroke-width="1" transform="rotate(242.4 0,0)"/><path d="M 0,0
	c 33,-70 57,-42 0,-73
	M 0,0
	c -33,-70 -57,-42 0,-73
	z" fill="rgb(91,51,62)" stroke-width="1" transform="rotate(321 0,0)"/><circle cx="0" cy="0" r="9.125" fill="#ffb566"/><circle cx="0" cy="0" r="3.0416666666667" fill="#ffce99"/></g><g id="fleur2"><path d="M 0,0
	c 22,-46.666666666667 38,-28 0,-46.666666666667
	M 0,0
	c -22,-46.666666666667 -38,-28 0,-46.666666666667
	z" fill="rgb(101,61,72)" stroke-width="1" transform="rotate(0 0,0)"/><path d="M 0,0
	c 22,-46.666666666667 38,-28 0,-50
	M 0,0
	c -22,-46.666666666667 -38,-28 0,-50
	z" fill="rgb(101,61,72)" stroke-width="1" transform="rotate(61.8 0,0)"/><path d="M 0,0
	c 22,-46.666666666667 38,-28 0,-48
	M 0,0
	c -22,-46.666666666667 -38,-28 0,-48
	z" fill="rgb(81,41,52)" stroke-width="1" transform="rotate(116.4 0,0)"/><path d="M 0,0
	c 22,-46.666666666667 38,-28 0,-42
	M 0,0
	c -22,-46.666666666667 -38,-28 0,-42
	z" fill="rgb(111,71,82)" stroke-width="1" transform="rotate(198 0,0)"/><path d="M 0,0
	c 22,-46.666666666667 38,-28 0,-43.333333333333
	M 0,0
	c -22,-46.666666666667 -38,-28 0,-43.333333333333
	z" fill="rgb(101,61,72)" stroke-width="1" transform="rotate(244.8 0,0)"/><path d="M 0,0
	c 22,-46.666666666667 38,-28 0,-55.333333333333
	M 0,0
	c -22,-46.666666666667 -38,-28 0,-55.333333333333
	z" fill="rgb(91,51,62)" stroke-width="1" transform="rotate(297 0,0)"/><circle cx="0" cy="0" r="6.0833333333333" fill="#ffb566"/><circle cx="0" cy="0" r="2.0277777777778" fill="#ffce99"/></g><g id="fleur3"><path d="M 0,0
	c 18.857142857143,-40 32.571428571429,-24 0,-39.428571428571
	M 0,0
	c -18.857142857143,-40 -32.571428571429,-24 0,-39.428571428571
	z" fill="rgb(101,61,72)" stroke-width="1" transform="rotate(0 0,0)"/><path d="M 0,0
	c 18.857142857143,-40 32.571428571429,-24 0,-40
	M 0,0
	c -18.857142857143,-40 -32.571428571429,-24 0,-40
	z" fill="rgb(101,61,72)" stroke-width="1" transform="rotate(30.3 0,0)"/><path d="M 0,0
	c 18.857142857143,-40 32.571428571429,-24 0,-45.714285714286
	M 0,0
	c -18.857142857143,-40 -32.571428571429,-24 0,-45.714285714286
	z" fill="rgb(81,41,52)" stroke-width="1" transform="rotate(66 0,0)"/><path d="M 0,0
	c 18.857142857143,-40 32.571428571429,-24 0,-37.142857142857
	M 0,0
	c -18.857142857143,-40 -32.571428571429,-24 0,-37.142857142857
	z" fill="rgb(81,41,52)" stroke-width="1" transform="rotate(90 0,0)"/><path d="M 0,0
	c 18.857142857143,-40 32.571428571429,-24 0,-47.428571428571
	M 0,0
	c -18.857142857143,-40 -32.571428571429,-24 0,-47.428571428571
	z" fill="rgb(91,51,62)" stroke-width="1" transform="rotate(109.2 0,0)"/><path d="M 0,0
	c 18.857142857143,-40 32.571428571429,-24 0,-41.142857142857
	M 0,0
	c -18.857142857143,-40 -32.571428571429,-24 0,-41.142857142857
	z" fill="rgb(101,61,72)" stroke-width="1" transform="rotate(157.5 0,0)"/><path d="M 0,0
	c 18.857142857143,-40 32.571428571429,-24 0,-38.857142857143
	M 0,0
	c -18.857142857143,-40 -32.571428571429,-24 0,-38.857142857143
	z" fill="rgb(101,61,72)" stroke-width="1" transform="rotate(162 0,0)"/><path d="M 0,0
	c 18.857142857143,-40 32.571428571429,-24 0,-46.857142857143
	M 0,0
	c -18.857142857143,-40 -32.571428571429,-24 0,-46.857142857143
	z" fill="rgb(101,61,72)" stroke-width="1" transform="rotate(203.7 0,0)"/><path d="M 0,0
	c 18.857142857143,-40 32.571428571429,-24 0,-44.571428571429
	M 0,0
	c -18.857142857143,-40 -32.571428571429,-24 0,-44.571428571429
	z" fill="rgb(121,81,92)" stroke-width="1" transform="rotate(220.8 0,0)"/><path d="M 0,0
	c 18.857142857143,-40 32.571428571429,-24 0,-46.857142857143
	M 0,0
	c -18.857142857143,-40 -32.571428571429,-24 0,-46.857142857143
	z" fill="rgb(111,71,82)" stroke-width="1" transform="rotate(283.5 0,0)"/><path d="M 0,0
	c 18.857142857143,-40 32.571428571429,-24 0,-47.428571428571
	M 0,0
	c -18.857142857143,-40 -32.571428571429,-24 0,-47.428571428571
	z" fill="rgb(101,61,72)" stroke-width="1" transform="rotate(285 0,0)"/><path d="M 0,0
	c 18.857142857143,-40 32.571428571429,-24 0,-46.857142857143
	M 0,0
	c -18.857142857143,-40 -32.571428571429,-24 0,-46.857142857143
	z" fill="rgb(101,61,72)" stroke-width="1" transform="rotate(320.1 0,0)"/><circle cx="0" cy="0" r="5.2142857142857" fill="#ffb566"/><circle cx="0" cy="0" r="1.7380952380952" fill="#ffce99"/></g><g id="fleur4"><path d="M 0,0
	c 16.5,-35 28.5,-21 0,-31.5
	M 0,0
	c -16.5,-35 -28.5,-21 0,-31.5
	z" fill="rgb(111,71,82)" stroke-width="1" transform="rotate(0 0,0)"/><path d="M 0,0
	c 16.5,-35 28.5,-21 0,-39.5
	M 0,0
	c -16.5,-35 -28.5,-21 0,-39.5
	z" fill="rgb(121,81,92)" stroke-width="1" transform="rotate(50.4 0,0)"/><path d="M 0,0
	c 16.5,-35 28.5,-21 0,-41
	M 0,0
	c -16.5,-35 -28.5,-21 0,-41
	z" fill="rgb(111,71,82)" stroke-width="1" transform="rotate(97.714285714286 0,0)"/><path d="M 0,0
	c 16.5,-35 28.5,-21 0,-33.5
	M 0,0
	c -16.5,-35 -28.5,-21 0,-33.5
	z" fill="rgb(81,41,52)" stroke-width="1" transform="rotate(160.45714285714 0,0)"/><path d="M 0,0
	c 16.5,-35 28.5,-21 0,-33.5
	M 0,0
	c -16.5,-35 -28.5,-21 0,-33.5
	z" fill="rgb(111,71,82)" stroke-width="1" transform="rotate(211.88571428571 0,0)"/><path d="M 0,0
	c 16.5,-35 28.5,-21 0,-38
	M 0,0
	c -16.5,-35 -28.5,-21 0,-38
	z" fill="rgb(121,81,92)" stroke-width="1" transform="rotate(262.28571428571 0,0)"/><path d="M 0,0
	c 16.5,-35 28.5,-21 0,-34.5
	M 0,0
	c -16.5,-35 -28.5,-21 0,-34.5
	z" fill="rgb(101,61,72)" stroke-width="1" transform="rotate(324 0,0)"/><circle cx="0" cy="0" r="4.5625" fill="#ffb566"/><circle cx="0" cy="0" r="1.5208333333333" fill="#ffce99"/></g></defs><use xlink:href="#feuille3"
		x="220.375" y="433.9625" 
		transform="rotate(-58.1 220.375,433.9625)"
		fill="rgb(108,66,42)" /><use xlink:href="#feuille1"
	x="240.843" y="472.5325" 
	transform="rotate(54  240.843,472.5325)"
	fill="rgb(138,96,72)" /><use xlink:href="#feuille1"
	x="240.843" y="472.5325" 
	transform="rotate(67  240.843,472.5325)"
	fill="rgb(108,66,42)" /><path d="M 248 480 c -51,-46.4 -34,-162.4 -85,-232  " stroke="rgb(195,143,188)" stroke-width="18" fill="transparent"/><use xlink:href="#fleur1"
x="163" y="248" 
fill="Pink" /><use xlink:href="#feuille1"
	x="295.6439375" y="461.7649" 
	transform="rotate(-74  295.6439375,461.7649)"
	fill="rgb(128,86,62)" /><use xlink:href="#feuille1"
	x="295.6439375" y="461.7649" 
	transform="rotate(-60  295.6439375,461.7649)"
	fill="rgb(148,106,82)" /><use xlink:href="#feuille1"
	x="295.6439375" y="461.7649" 
	transform="rotate(-65  295.6439375,461.7649)"
	fill="rgb(148,106,82)" /><path d="M 290 480 c 46.5,-132.8 -93,-33.2 93,-166  " stroke="rgb(195,143,188)" stroke-width="16" fill="transparent"/><use xlink:href="#fleur2"
x="383" y="314" 
fill="Pink" /><use xlink:href="#feuille1"
	x="281.1846625" y="460.8392" 
	transform="rotate(-43  281.1846625,460.8392)"
	fill="rgb(138,96,72)" /><path d="M 281 480 c 1.3,-137.6 1.2,-68.8 1,-344  " stroke="rgb(195,143,188)" stroke-width="14" fill="transparent"/><use xlink:href="#fleur3"
x="282" y="136" 
fill="Pink" /></svg>