<?xml version="1.0" encoding="iso-8859-1"?>
<svg version="1.1" id="Capa_1" xmlns="http://www.w3.org/2000/svg" xmlns:xlink="http://www.w3.org/1999/xlink" x="0px" y="0px"
viewBox="0 0 500 500" xml:space="preserve"><defs><g id="feuille1">
<path d="M 0,0
c 41,-97 20,-77.6 0,-140
M 0,0
c -41,-97 -20,-77.6 0,-140
z" stroke="#85e085" stroke-width="0"/>
<polygon points="-3,3, 0,-98 3 3" stroke="rgb(130,155,171)" stroke-width="2" fill="rgb(130,155,171)"/>
</g>
<g id="feuille2">
<path d="M 0,0
c 27.333333333333,-64.666666666667 13.333333333333,-51.733333333333 0,-93.333333333333
M 0,0
c -27.333333333333,-64.666666666667 -13.333333333333,-51.733333333333 0,-93.333333333333
z" stroke="#85e085" stroke-width="0"/>
<polygon points="-3 3, 0,-65.333333333333, 3 3" stroke="rgb(130,155,171)" stroke-width="1" fill="rgb(130,155,171)"/>
</g><g id="feuille3">
<path d="M 0,0
c 20.5,-48.5 10,-38.8 0,-70
M 0,0
c -20.5,-48.5 -10,-38.8 0,-70
z" stroke="#85e085" stroke-width="0"/>
<polygon points="-3 3, 0,-49, 3 3" stroke="rgb(130,155,171)" stroke-width="1" fill="rgb(130,155,171)"/>
</g><g id="feuille4">
<path d="M 0,0
c 16.4,-38.8 8,-31.04 0,-56
M 0,0
c -16.4,-38.8 -8,-31.04 0,-56
z" stroke="#85e085" stroke-width="0"/>
<polygon points="-3 3, 0,-39.2, 3 3" stroke="rgb(130,155,171)" stroke-width="1" fill="rgb(130,155,171)"/>
</g><g id="fleur1"><path d="M 0,0
	c 25,-57 34,-46 0,-58
	M 0,0
	c -25,-57 -34,-46 0,-58
	z" fill="rgb(83,145,100)" stroke-width="1" transform="rotate(0 0,0)"/><path d="M 0,0
	c 25,-57 34,-46 0,-53
	M 0,0
	c -25,-57 -34,-46 0,-53
	z" fill="rgb(83,145,100)" stroke-width="1" transform="rotate(36 0,0)"/><path d="M 0,0
	c 25,-57 34,-46 0,-64
	M 0,0
	c -25,-57 -34,-46 0,-64
	z" fill="rgb(83,145,100)" stroke-width="1" transform="rotate(66.24 0,0)"/><path d="M 0,0
	c 25,-57 34,-46 0,-63
	M 0,0
	c -25,-57 -34,-46 0,-63
	z" fill="rgb(63,125,80)" stroke-width="1" transform="rotate(103.68 0,0)"/><path d="M 0,0
	c 25,-57 34,-46 0,-61
	M 0,0
	c -25,-57 -34,-46 0,-61
	z" fill="rgb(93,155,110)" stroke-width="1" transform="rotate(154.08 0,0)"/><path d="M 0,0
	c 25,-57 34,-46 0,-52
	M 0,0
	c -25,-57 -34,-46 0,-52
	z" fill="rgb(83,145,100)" stroke-width="1" transform="rotate(183.6 0,0)"/><path d="M 0,0
	c 25,-57 34,-46 0,-53
	M 0,0
	c -25,-57 -34,-46 0,-53
	z" fill="rgb(83,145,100)" stroke-width="1" transform="rotate(205.2 0,0)"/><path d="M 0,0
	c 25,-57 34,-46 0,-66
	M 0,0
	c -25,-57 -34,-46 0,-66
	z" fill="rgb(63,125,80)" stroke-width="1" transform="rotate(246.96 0,0)"/><path d="M 0,0
	c 25,-57 34,-46 0,-64
	M 0,0
	c -25,-57 -34,-46 0,-64
	z" fill="rgb(93,155,110)" stroke-width="1" transform="rotate(305.28 0,0)"/><path d="M 0,0
	c 25,-57 34,-46 0,-54
	M 0,0
	c -25,-57 -34,-46 0,-54
	z" fill="rgb(63,125,80)" stroke-width="1" transform="rotate(330.48 0,0)"/><circle cx="0" cy="0" r="20.333333333333" fill="#ffb566"/><circle cx="0" cy="0" r="6.7777777777778" fill="#ffce99"/></g><g id="fleur2"><path d="M 0,0
	c 16.666666666667,-38 22.666666666667,-30.666666666667 0,-42.666666666667
	M 0,0
	c -16.666666666667,-38 -22.666666666667,-30.666666666667 0,-42.666666666667
	z" fill="rgb(63,125,80)" stroke-width="1" transform="rotate(0 0,0)"/><path d="M 0,0
	c 16.666666666667,-38 22.666666666667,-30.666666666667 0,-46.666666666667
	M 0,0
	c -16.666666666667,-38 -22.666666666667,-30.666666666667 0,-46.666666666667
	z" fill="rgb(93,155,110)" stroke-width="1" transform="rotate(31.090909090909 0,0)"/><path d="M 0,0
	c 16.666666666667,-38 22.666666666667,-30.666666666667 0,-34
	M 0,0
	c -16.666666666667,-38 -22.666666666667,-30.666666666667 0,-34
	z" fill="rgb(73,135,90)" stroke-width="1" transform="rotate(60.218181818182 0,0)"/><path d="M 0,0
	c 16.666666666667,-38 22.666666666667,-30.666666666667 0,-42
	M 0,0
	c -16.666666666667,-38 -22.666666666667,-30.666666666667 0,-42
	z" fill="rgb(93,155,110)" stroke-width="1" transform="rotate(93.272727272727 0,0)"/><path d="M 0,0
	c 16.666666666667,-38 22.666666666667,-30.666666666667 0,-36
	M 0,0
	c -16.666666666667,-38 -22.666666666667,-30.666666666667 0,-36
	z" fill="rgb(63,125,80)" stroke-width="1" transform="rotate(138.76363636364 0,0)"/><path d="M 0,0
	c 16.666666666667,-38 22.666666666667,-30.666666666667 0,-45.333333333333
	M 0,0
	c -16.666666666667,-38 -22.666666666667,-30.666666666667 0,-45.333333333333
	z" fill="rgb(83,145,100)" stroke-width="1" transform="rotate(158.72727272727 0,0)"/><path d="M 0,0
	c 16.666666666667,-38 22.666666666667,-30.666666666667 0,-39.333333333333
	M 0,0
	c -16.666666666667,-38 -22.666666666667,-30.666666666667 0,-39.333333333333
	z" fill="rgb(83,145,100)" stroke-width="1" transform="rotate(178.69090909091 0,0)"/><path d="M 0,0
	c 16.666666666667,-38 22.666666666667,-30.666666666667 0,-45.333333333333
	M 0,0
	c -16.666666666667,-38 -22.666666666667,-30.666666666667 0,-45.333333333333
	z" fill="rgb(53,115,70)" stroke-width="1" transform="rotate(226.8 0,0)"/><path d="M 0,0
	c 16.666666666667,-38 22.666666666667,-30.666666666667 0,-38
	M 0,0
	c -16.666666666667,-38 -22.666666666667,-30.666666666667 0,-38
	z" fill="rgb(73,135,90)" stroke-width="1" transform="rotate(259.2 0,0)"/><path d="M 0,0
	c 16.666666666667,-38 22.666666666667,-30.666666666667 0,-34
	M 0,0
	c -16.666666666667,-38 -22.666666666667,-30.666666666667 0,-34
	z" fill="rgb(73,135,90)" stroke-width="1" transform="rotate(282.76363636364 0,0)"/><path d="M 0,0
	c 16.666666666667,-38 22.666666666667,-30.666666666667 0,-43.333333333333
	M 0,0
	c -16.666666666667,-38 -22.666666666667,-30.666666666667 0,-43.333333333333
	z" fill="rgb(83,145,100)" stroke-width="1" transform="rotate(317.45454545455 0,0)"/><circle cx="0" cy="0" r="13.555555555556" fill="#ffb566"/><circle cx="0" cy="0" r="4.5185185185185" fill="#ffce99"/></g><g id="fleur3"><path d="M 0,0
	c 14.285714285714,-32.571428571429 19.428571428571,-26.285714285714 0,-36.571428571429
	M 0,0
	c -14.285714285714,-32.571428571429 -19.428571428571,-26.285714285714 0,-36.571428571429
	z" fill="rgb(53,115,70)" stroke-width="1" transform="rotate(0 0,0)"/><path d="M 0,0
	c 14.285714285714,-32.571428571429 19.428571428571,-26.285714285714 0,-40.571428571429
	M 0,0
	c -14.285714285714,-32.571428571429 -19.428571428571,-26.285714285714 0,-40.571428571429
	z" fill="rgb(73,135,90)" stroke-width="1" transform="rotate(60 0,0)"/><path d="M 0,0
	c 14.285714285714,-32.571428571429 19.428571428571,-26.285714285714 0,-36.571428571429
	M 0,0
	c -14.285714285714,-32.571428571429 -19.428571428571,-26.285714285714 0,-36.571428571429
	z" fill="rgb(53,115,70)" stroke-width="1" transform="rotate(109.2 0,0)"/><path d="M 0,0
	c 14.285714285714,-32.571428571429 19.428571428571,-26.285714285714 0,-35.428571428571
	M 0,0
	c -14.285714285714,-32.571428571429 -19.428571428571,-26.285714285714 0,-35.428571428571
	z" fill="rgb(73,135,90)" stroke-width="1" transform="rotate(162 0,0)"/><path d="M 0,0
	c 14.285714285714,-32.571428571429 19.428571428571,-26.285714285714 0,-37.142857142857
	M 0,0
	c -14.285714285714,-32.571428571429 -19.428571428571,-26.285714285714 0,-37.142857142857
	z" fill="rgb(53,115,70)" stroke-width="1" transform="rotate(232.8 0,0)"/><path d="M 0,0
	c 14.285714285714,-32.571428571429 19.428571428571,-26.285714285714 0,-36
	M 0,0
	c -14.285714285714,-32.571428571429 -19.428571428571,-26.285714285714 0,-36
	z" fill="rgb(73,135,90)" stroke-width="1" transform="rotate(330 0,0)"/><circle cx="0" cy="0" r="11.619047619048" fill="#ffb566"/><circle cx="0" cy="0" r="3.8730158730159" fill="#ffce99"/></g><g id="fleur4"><path d="M 0,0
	c 12.5,-28.5 17,-23 0,-32.5
	M 0,0
	c -12.5,-28.5 -17,-23 0,-32.5
	z" fill="rgb(73,135,90)" stroke-width="1" transform="rotate(0 0,0)"/><path d="M 0,0
	c 12.5,-28.5 17,-23 0,-30
	M 0,0
	c -12.5,-28.5 -17,-23 0,-30
	z" fill="rgb(63,125,80)" stroke-width="1" transform="rotate(38.52 0,0)"/><path d="M 0,0
	c 12.5,-28.5 17,-23 0,-26.5
	M 0,0
	c -12.5,-28.5 -17,-23 0,-26.5
	z" fill="rgb(53,115,70)" stroke-width="1" transform="rotate(71.28 0,0)"/><path d="M 0,0
	c 12.5,-28.5 17,-23 0,-27.5
	M 0,0
	c -12.5,-28.5 -17,-23 0,-27.5
	z" fill="rgb(53,115,70)" stroke-width="1" transform="rotate(103.68 0,0)"/><path d="M 0,0
	c 12.5,-28.5 17,-23 0,-29
	M 0,0
	c -12.5,-28.5 -17,-23 0,-29
	z" fill="rgb(93,155,110)" stroke-width="1" transform="rotate(154.08 0,0)"/><path d="M 0,0
	c 12.5,-28.5 17,-23 0,-35.5
	M 0,0
	c -12.5,-28.5 -17,-23 0,-35.5
	z" fill="rgb(83,145,100)" stroke-width="1" transform="rotate(165.6 0,0)"/><path d="M 0,0
	c 12.5,-28.5 17,-23 0,-33.5
	M 0,0
	c -12.5,-28.5 -17,-23 0,-33.5
	z" fill="rgb(73,135,90)" stroke-width="1" transform="rotate(231.12 0,0)"/><path d="M 0,0
	c 12.5,-28.5 17,-23 0,-31.5
	M 0,0
	c -12.5,-28.5 -17,-23 0,-31.5
	z" fill="rgb(93,155,110)" stroke-width="1" transform="rotate(234.36 0,0)"/><path d="M 0,0
	c 12.5,-28.5 17,-23 0,-35
	M 0,0
	c -12.5,-28.5 -17,-23 0,-35
	z" fill="rgb(53,115,70)" stroke-width="1" transform="rotate(273.6 0,0)"/><path d="M 0,0
	c 12.5,-28.5 17,-23 0,-29
	M 0,0
	c -12.5,-28.5 -17,-23 0,-29
	z" fill="rgb(83,145,100)" stroke-width="1" transform="rotate(340.2 0,0)"/><circle cx="0" cy="0" r="10.166666666667" fill="#ffb566"/><circle cx="0" cy="0" r="3.3888888888889" fill="#ffce99"/></g></defs><use xlink:href="#feuille2"
		x="249.625" y="411.7375" 
		transform="rotate(88 249.625,411.7375)"
		fill="rgb(80,118,76)" /><use xlink:href="#feuille2"
		x="249.625" y="411.7375" 
		transform="rotate(87.6 249.625,411.7375)"
		fill="rgb(70,108,66)" /><use xlink:href="#feuille1"
	x="242.8578" y="465.0059" 
	transform="rotate(-47  242.8578,465.0059)"
	fill="rgb(60,98,56)" /><use xlink:href="#feuille1"
	x="242.8578" y="465.0059" 
	transform="rotate(47  242.8578,465.0059)"
	fill="rgb(80,118,76)" /><path d="M 240 480 c 20.533333333333,-103.2 11.733333333333,-137.6 -44,-344  " stroke="rgb(130,155,171)" stroke-width="18" fill="transparent"/><use xlink:href="#fleur1"
x="196" y="136" 
fill="Pink" /><use xlink:href="#feuille4"
		x="184.27735" y="358.6194" 
		transform="rotate(-73 184.27735,358.6194)"
		fill="rgb(70,108,66)" /><use xlink:href="#feuille1"
	x="188.92685" y="462.2874" 
	transform="rotate(57  188.92685,462.2874)"
	fill="rgb(80,118,76)" /><path d="M 191 480 c -14.733333333333,-127.2 -11.333333333333,-63.6 17,-318  " stroke="rgb(130,155,171)" stroke-width="16" fill="transparent"/><use xlink:href="#fleur2"
x="208" y="162" 
fill="Pink" /><use xlink:href="#feuille3"
		x="205.144" y="307.456" 
		transform="rotate(93.8 205.144,307.456)"
		fill="rgb(30,68,26)" /><use xlink:href="#feuille4"
		x="205.144" y="307.456" 
		transform="rotate(79.3 205.144,307.456)"
		fill="rgb(50,88,46)" /><use xlink:href="#feuille3"
		x="205.144" y="307.456" 
		transform="rotate(60 205.144,307.456)"
		fill="rgb(30,68,26)" /><use xlink:href="#feuille4"
		x="205.144" y="307.456" 
		transform="rotate(-78.5 205.144,307.456)"
		fill="rgb(90,128,86)" /><use xlink:href="#feuille1"
	x="215.147" y="448.268" 
	transform="rotate(-56  215.147,448.268)"
	fill="rgb(60,98,56)" /><use xlink:href="#feuille1"
	x="215.147" y="448.268" 
	transform="rotate(-63  215.147,448.268)"
	fill="rgb(50,88,46)" /><use xlink:href="#feuille1"
	x="215.147" y="448.268" 
	transform="rotate(55  215.147,448.268)"
	fill="rgb(60,98,56)" /><path d="M 215 480 c 2.6666666666667,-224 -29.333333333333,-192 -40,-320  " stroke="rgb(130,155,171)" stroke-width="14" fill="transparent"/><use xlink:href="#fleur3"
x="175" y="160" 
fill="Pink" /></svg>