<?xml version="1.0" encoding="iso-8859-1"?>
<svg version="1.1" id="Capa_1" xmlns="http://www.w3.org/2000/svg" xmlns:xlink="http://www.w3.org/1999/xlink" x="0px" y="0px"
viewBox="0 0 500 500" xml:space="preserve"><defs><g id="feuille1">
<path d="M 0,0
c 69,-64 23,-90 0,-63
M 0,0
c -69,-64 -23,-90 0,-63
z" stroke="#85e085" stroke-width="0"/>
<polygon points="-3,3, 0,-44.1 3 3" stroke="rgb(50,126,84)" stroke-width="2" fill="rgb(50,126,84)"/>
</g>
<g id="feuille2">
<path d="M 0,0
c 46,-42.666666666667 15.333333333333,-60 0,-42
M 0,0
c -46,-42.666666666667 -15.333333333333,-60 0,-42
z" stroke="#85e085" stroke-width="0"/>
<polygon points="-3 3, 0,-29.4, 3 3" stroke="rgb(50,126,84)" stroke-width="1" fill="rgb(50,126,84)"/>
</g><g id="feuille3">
<path d="M 0,0
c 34.5,-32 11.5,-45 0,-31.5
M 0,0
c -34.5,-32 -11.5,-45 0,-31.5
z" stroke="#85e085" stroke-width="0"/>
<polygon points="-3 3, 0,-22.05, 3 3" stroke="rgb(50,126,84)" stroke-width="1" fill="rgb(50,126,84)"/>
</g><g id="feuille4">
<path d="M 0,0
c 27.6,-25.6 9.2,-36 0,-25.2
M 0,0
c -27.6,-25.6 -9.2,-36 0,-25.2
z" stroke="#85e085" stroke-width="0"/>
<polygon points="-3 3, 0,-17.64, 3 3" stroke="rgb(50,126,84)" stroke-width="1" fill="rgb(50,126,84)"/>
</g><g id="fleur1"><path d="M 0,0
	c 55,-12 27,-9.6 0,-48
	M 0,0
	c -55,-12 -27,-9.6 0,-48
	z" fill="rgb(112,86,153)" stroke-width="1" transform="rotate(0 0,0)"/><path d="M 0,0
	c 55,-12 27,-9.6 0,-61
	M 0,0
	c -55,-12 -27,-9.6 0,-61
	z" fill="rgb(102,76,143)" stroke-width="1" transform="rotate(27.9 0,0)"/><path d="M 0,0
	c 55,-12 27,-9.6 0,-44
	M 0,0
	c -55,-12 -27,-9.6 0,-44
	z" fill="rgb(92,66,133)" stroke-width="1" transform="rotate(58.2 0,0)"/><path d="M 0,0
	c 55,-12 27,-9.6 0,-60
	M 0,0
	c -55,-12 -27,-9.6 0,-60
	z" fill="rgb(122,96,163)" stroke-width="1" transform="rotate(96.3 0,0)"/><path d="M 0,0
	c 55,-12 27,-9.6 0,-49
	M 0,0
	c -55,-12 -27,-9.6 0,-49
	z" fill="rgb(102,76,143)" stroke-width="1" transform="rotate(122.4 0,0)"/><path d="M 0,0
	c 55,-12 27,-9.6 0,-50
	M 0,0
	c -55,-12 -27,-9.6 0,-50
	z" fill="rgb(92,66,133)" stroke-width="1" transform="rotate(154.5 0,0)"/><path d="M 0,0
	c 55,-12 27,-9.6 0,-48
	M 0,0
	c -55,-12 -27,-9.6 0,-48
	z" fill="rgb(112,86,153)" stroke-width="1" transform="rotate(180 0,0)"/><path d="M 0,0
	c 55,-12 27,-9.6 0,-61
	M 0,0
	c -55,-12 -27,-9.6 0,-61
	z" fill="rgb(102,76,143)" stroke-width="1" transform="rotate(212.1 0,0)"/><path d="M 0,0
	c 55,-12 27,-9.6 0,-53
	M 0,0
	c -55,-12 -27,-9.6 0,-53
	z" fill="rgb(112,86,153)" stroke-width="1" transform="rotate(252 0,0)"/><path d="M 0,0
	c 55,-12 27,-9.6 0,-57
	M 0,0
	c -55,-12 -27,-9.6 0,-57
	z" fill="rgb(82,56,123)" stroke-width="1" transform="rotate(248.4 0,0)"/><path d="M 0,0
	c 55,-12 27,-9.6 0,-54
	M 0,0
	c -55,-12 -27,-9.6 0,-54
	z" fill="rgb(112,86,153)" stroke-width="1" transform="rotate(321 0,0)"/><path d="M 0,0
	c 55,-12 27,-9.6 0,-50
	M 0,0
	c -55,-12 -27,-9.6 0,-50
	z" fill="rgb(112,86,153)" stroke-width="1" transform="rotate(303.6 0,0)"/><circle cx="0" cy="0" r="6.375" fill="#ffb566"/><circle cx="0" cy="0" r="2.125" fill="#ffce99"/></g><g id="fleur2"><path d="M 0,0
	c 36.666666666667,-8 18,-6.4 0,-39.333333333333
	M 0,0
	c -36.666666666667,-8 -18,-6.4 0,-39.333333333333
	z" fill="rgb(102,76,143)" stroke-width="1" transform="rotate(0 0,0)"/><path d="M 0,0
	c 36.666666666667,-8 18,-6.4 0,-30.666666666667
	M 0,0
	c -36.666666666667,-8 -18,-6.4 0,-30.666666666667
	z" fill="rgb(92,66,133)" stroke-width="1" transform="rotate(23.28 0,0)"/><path d="M 0,0
	c 36.666666666667,-8 18,-6.4 0,-35.333333333333
	M 0,0
	c -36.666666666667,-8 -18,-6.4 0,-35.333333333333
	z" fill="rgb(112,86,153)" stroke-width="1" transform="rotate(44.16 0,0)"/><path d="M 0,0
	c 36.666666666667,-8 18,-6.4 0,-34
	M 0,0
	c -36.666666666667,-8 -18,-6.4 0,-34
	z" fill="rgb(122,96,163)" stroke-width="1" transform="rotate(69.84 0,0)"/><path d="M 0,0
	c 36.666666666667,-8 18,-6.4 0,-38
	M 0,0
	c -36.666666666667,-8 -18,-6.4 0,-38
	z" fill="rgb(82,56,123)" stroke-width="1" transform="rotate(99.84 0,0)"/><path d="M 0,0
	c 36.666666666667,-8 18,-6.4 0,-27.333333333333
	M 0,0
	c -36.666666666667,-8 -18,-6.4 0,-27.333333333333
	z" fill="rgb(122,96,163)" stroke-width="1" transform="rotate(121.2 0,0)"/><path d="M 0,0
	c 36.666666666667,-8 18,-6.4 0,-30
	M 0,0
	c -36.666666666667,-8 -18,-6.4 0,-30
	z" fill="rgb(112,86,153)" stroke-width="1" transform="rotate(155.52 0,0)"/><path d="M 0,0
	c 36.666666666667,-8 18,-6.4 0,-35.333333333333
	M 0,0
	c -36.666666666667,-8 -18,-6.4 0,-35.333333333333
	z" fill="rgb(82,56,123)" stroke-width="1" transform="rotate(169.68 0,0)"/><path d="M 0,0
	c 36.666666666667,-8 18,-6.4 0,-28.666666666667
	M 0,0
	c -36.666666666667,-8 -18,-6.4 0,-28.666666666667
	z" fill="rgb(112,86,153)" stroke-width="1" transform="rotate(182.4 0,0)"/><path d="M 0,0
	c 36.666666666667,-8 18,-6.4 0,-29.333333333333
	M 0,0
	c -36.666666666667,-8 -18,-6.4 0,-29.333333333333
	z" fill="rgb(92,66,133)" stroke-width="1" transform="rotate(216 0,0)"/><path d="M 0,0
	c 36.666666666667,-8 18,-6.4 0,-35.333333333333
	M 0,0
	c -36.666666666667,-8 -18,-6.4 0,-35.333333333333
	z" fill="rgb(102,76,143)" stroke-width="1" transform="rotate(240 0,0)"/><path d="M 0,0
	c 36.666666666667,-8 18,-6.4 0,-40.666666666667
	M 0,0
	c -36.666666666667,-8 -18,-6.4 0,-40.666666666667
	z" fill="rgb(82,56,123)" stroke-width="1" transform="rotate(282.48 0,0)"/><path d="M 0,0
	c 36.666666666667,-8 18,-6.4 0,-33.333333333333
	M 0,0
	c -36.666666666667,-8 -18,-6.4 0,-33.333333333333
	z" fill="rgb(122,96,163)" stroke-width="1" transform="rotate(273.6 0,0)"/><path d="M 0,0
	c 36.666666666667,-8 18,-6.4 0,-31.333333333333
	M 0,0
	c -36.666666666667,-8 -18,-6.4 0,-31.333333333333
	z" fill="rgb(102,76,143)" stroke-width="1" transform="rotate(336.96 0,0)"/><path d="M 0,0
	c 36.666666666667,-8 18,-6.4 0,-36
	M 0,0
	c -36.666666666667,-8 -18,-6.4 0,-36
	z" fill="rgb(102,76,143)" stroke-width="1" transform="rotate(369.6 0,0)"/><circle cx="0" cy="0" r="4.25" fill="#ffb566"/><circle cx="0" cy="0" r="1.4166666666667" fill="#ffce99"/></g><g id="fleur3"><path d="M 0,0
	c 31.428571428571,-6.8571428571429 15.428571428571,-5.4857142857143 0,-29.714285714286
	M 0,0
	c -31.428571428571,-6.8571428571429 -15.428571428571,-5.4857142857143 0,-29.714285714286
	z" fill="rgb(112,86,153)" stroke-width="1" transform="rotate(0 0,0)"/><path d="M 0,0
	c 31.428571428571,-6.8571428571429 15.428571428571,-5.4857142857143 0,-33.142857142857
	M 0,0
	c -31.428571428571,-6.8571428571429 -15.428571428571,-5.4857142857143 0,-33.142857142857
	z" fill="rgb(92,66,133)" stroke-width="1" transform="rotate(30.436363636364 0,0)"/><path d="M 0,0
	c 31.428571428571,-6.8571428571429 15.428571428571,-5.4857142857143 0,-30.857142857143
	M 0,0
	c -31.428571428571,-6.8571428571429 -15.428571428571,-5.4857142857143 0,-30.857142857143
	z" fill="rgb(82,56,123)" stroke-width="1" transform="rotate(64.145454545455 0,0)"/><path d="M 0,0
	c 31.428571428571,-6.8571428571429 15.428571428571,-5.4857142857143 0,-33.142857142857
	M 0,0
	c -31.428571428571,-6.8571428571429 -15.428571428571,-5.4857142857143 0,-33.142857142857
	z" fill="rgb(122,96,163)" stroke-width="1" transform="rotate(100.14545454545 0,0)"/><path d="M 0,0
	c 31.428571428571,-6.8571428571429 15.428571428571,-5.4857142857143 0,-31.428571428571
	M 0,0
	c -31.428571428571,-6.8571428571429 -15.428571428571,-5.4857142857143 0,-31.428571428571
	z" fill="rgb(82,56,123)" stroke-width="1" transform="rotate(130.90909090909 0,0)"/><path d="M 0,0
	c 31.428571428571,-6.8571428571429 15.428571428571,-5.4857142857143 0,-28.571428571429
	M 0,0
	c -31.428571428571,-6.8571428571429 -15.428571428571,-5.4857142857143 0,-28.571428571429
	z" fill="rgb(92,66,133)" stroke-width="1" transform="rotate(148.90909090909 0,0)"/><path d="M 0,0
	c 31.428571428571,-6.8571428571429 15.428571428571,-5.4857142857143 0,-25.142857142857
	M 0,0
	c -31.428571428571,-6.8571428571429 -15.428571428571,-5.4857142857143 0,-25.142857142857
	z" fill="rgb(82,56,123)" stroke-width="1" transform="rotate(184.58181818182 0,0)"/><path d="M 0,0
	c 31.428571428571,-6.8571428571429 15.428571428571,-5.4857142857143 0,-25.714285714286
	M 0,0
	c -31.428571428571,-6.8571428571429 -15.428571428571,-5.4857142857143 0,-25.714285714286
	z" fill="rgb(122,96,163)" stroke-width="1" transform="rotate(242.83636363636 0,0)"/><path d="M 0,0
	c 31.428571428571,-6.8571428571429 15.428571428571,-5.4857142857143 0,-30.285714285714
	M 0,0
	c -31.428571428571,-6.8571428571429 -15.428571428571,-5.4857142857143 0,-30.285714285714
	z" fill="rgb(92,66,133)" stroke-width="1" transform="rotate(243.49090909091 0,0)"/><path d="M 0,0
	c 31.428571428571,-6.8571428571429 15.428571428571,-5.4857142857143 0,-33.714285714286
	M 0,0
	c -31.428571428571,-6.8571428571429 -15.428571428571,-5.4857142857143 0,-33.714285714286
	z" fill="rgb(92,66,133)" stroke-width="1" transform="rotate(294.54545454545 0,0)"/><path d="M 0,0
	c 31.428571428571,-6.8571428571429 15.428571428571,-5.4857142857143 0,-23.428571428571
	M 0,0
	c -31.428571428571,-6.8571428571429 -15.428571428571,-5.4857142857143 0,-23.428571428571
	z" fill="rgb(92,66,133)" stroke-width="1" transform="rotate(320.72727272727 0,0)"/><circle cx="0" cy="0" r="3.6428571428571" fill="#ffb566"/><circle cx="0" cy="0" r="1.2142857142857" fill="#ffce99"/></g><g id="fleur4"><path d="M 0,0
	c 27.5,-6 13.5,-4.8 0,-20.5
	M 0,0
	c -27.5,-6 -13.5,-4.8 0,-20.5
	z" fill="rgb(112,86,153)" stroke-width="1" transform="rotate(0 0,0)"/><path d="M 0,0
	c 27.5,-6 13.5,-4.8 0,-27.5
	M 0,0
	c -27.5,-6 -13.5,-4.8 0,-27.5
	z" fill="rgb(82,56,123)" stroke-width="1" transform="rotate(48.857142857143 0,0)"/><path d="M 0,0
	c 27.5,-6 13.5,-4.8 0,-20.5
	M 0,0
	c -27.5,-6 -13.5,-4.8 0,-20.5
	z" fill="rgb(112,86,153)" stroke-width="1" transform="rotate(100.8 0,0)"/><path d="M 0,0
	c 27.5,-6 13.5,-4.8 0,-24.5
	M 0,0
	c -27.5,-6 -13.5,-4.8 0,-24.5
	z" fill="rgb(82,56,123)" stroke-width="1" transform="rotate(151.2 0,0)"/><path d="M 0,0
	c 27.5,-6 13.5,-4.8 0,-29
	M 0,0
	c -27.5,-6 -13.5,-4.8 0,-29
	z" fill="rgb(102,76,143)" stroke-width="1" transform="rotate(197.48571428571 0,0)"/><path d="M 0,0
	c 27.5,-6 13.5,-4.8 0,-30
	M 0,0
	c -27.5,-6 -13.5,-4.8 0,-30
	z" fill="rgb(82,56,123)" stroke-width="1" transform="rotate(246.85714285714 0,0)"/><path d="M 0,0
	c 27.5,-6 13.5,-4.8 0,-30.5
	M 0,0
	c -27.5,-6 -13.5,-4.8 0,-30.5
	z" fill="rgb(82,56,123)" stroke-width="1" transform="rotate(283.88571428571 0,0)"/><circle cx="0" cy="0" r="3.1875" fill="#ffb566"/><circle cx="0" cy="0" r="1.0625" fill="#ffce99"/></g></defs><use xlink:href="#feuille4"
		x="303.84" y="269.083" 
		transform="rotate(108.5 303.84,269.083)"
		fill="rgb(105,96,209)" /><use xlink:href="#feuille1"
	x="273.16" y="462.813875" 
	transform="rotate(-57  273.16,462.813875)"
	fill="rgb(65,56,169)" /><use xlink:href="#feuille1"
	x="273.16" y="462.813875" 
	transform="rotate(68  273.16,462.813875)"
	fill="rgb(75,66,179)" /><path d="M 268 480 c 36.666666666667,-116 26.666666666667,-203 50,-290  " stroke="rgb(50,126,84)" stroke-width="18" fill="transparent"/><use xlink:href="#fleur1"
x="318" y="190" 
fill="Pink" /><use xlink:href="#feuille3"
		x="271.1875" y="310.06875" 
		transform="rotate(-68.1 271.1875,310.06875)"
		fill="rgb(95,86,199)" /><use xlink:href="#feuille1"
	x="253.5965" y="470.89725" 
	transform="rotate(56  253.5965,470.89725)"
	fill="rgb(75,66,179)" /><use xlink:href="#feuille1"
	x="253.5965" y="470.89725" 
	transform="rotate(65  253.5965,470.89725)"
	fill="rgb(105,96,209)" /><path d="M 262 480 c -60.666666666667,-63.6 -28,-63.6 70,-318  " stroke="rgb(50,126,84)" stroke-width="16" fill="transparent"/><use xlink:href="#fleur2"
x="332" y="162" 
fill="Pink" /></svg>