<?xml version="1.0" encoding="iso-8859-1"?>
<svg version="1.1" id="Capa_1" xmlns="http://www.w3.org/2000/svg" xmlns:xlink="http://www.w3.org/1999/xlink" x="0px" y="0px"
viewBox="0 0 500 500" xml:space="preserve"><defs><g id="feuille1">
<path d="M 0,0
c 51,-32 41,-32 0,-131
M 0,0
c -51,-32 -41,-32 0,-131
z" stroke="#85e085" stroke-width="0"/>
<polygon points="-3,3, 0,-91.7 3 3" stroke="rgb(151,75,159)" stroke-width="2" fill="rgb(151,75,159)"/>
</g>
<g id="feuille2">
<path d="M 0,0
c 34,-21.333333333333 27.333333333333,-21.333333333333 0,-87.333333333333
M 0,0
c -34,-21.333333333333 -27.333333333333,-21.333333333333 0,-87.333333333333
z" stroke="#85e085" stroke-width="0"/>
<polygon points="-3 3, 0,-61.133333333333, 3 3" stroke="rgb(151,75,159)" stroke-width="1" fill="rgb(151,75,159)"/>
</g><g id="feuille3">
<path d="M 0,0
c 25.5,-16 20.5,-16 0,-65.5
M 0,0
c -25.5,-16 -20.5,-16 0,-65.5
z" stroke="#85e085" stroke-width="0"/>
<polygon points="-3 3, 0,-45.85, 3 3" stroke="rgb(151,75,159)" stroke-width="1" fill="rgb(151,75,159)"/>
</g><g id="feuille4">
<path d="M 0,0
c 20.4,-12.8 16.4,-12.8 0,-52.4
M 0,0
c -20.4,-12.8 -16.4,-12.8 0,-52.4
z" stroke="#85e085" stroke-width="0"/>
<polygon points="-3 3, 0,-36.68, 3 3" stroke="rgb(151,75,159)" stroke-width="1" fill="rgb(151,75,159)"/>
</g><g id="fleur1"><path d="M 0,0
	c 58,-78 21,-68 0,-79
	M 0,0
	c -58,-78 -21,-68 0,-79
	z" fill="rgb(104,72,197)" stroke-width="1" transform="rotate(0 0,0)"/><path d="M 0,0
	c 58,-78 21,-68 0,-65
	M 0,0
	c -58,-78 -21,-68 0,-65
	z" fill="rgb(94,62,187)" stroke-width="1" transform="rotate(31.5 0,0)"/><path d="M 0,0
	c 58,-78 21,-68 0,-68
	M 0,0
	c -58,-78 -21,-68 0,-68
	z" fill="rgb(124,92,217)" stroke-width="1" transform="rotate(58.8 0,0)"/><path d="M 0,0
	c 58,-78 21,-68 0,-77
	M 0,0
	c -58,-78 -21,-68 0,-77
	z" fill="rgb(114,82,207)" stroke-width="1" transform="rotate(95.4 0,0)"/><path d="M 0,0
	c 58,-78 21,-68 0,-66
	M 0,0
	c -58,-78 -21,-68 0,-66
	z" fill="rgb(84,52,177)" stroke-width="1" transform="rotate(126 0,0)"/><path d="M 0,0
	c 58,-78 21,-68 0,-85
	M 0,0
	c -58,-78 -21,-68 0,-85
	z" fill="rgb(104,72,197)" stroke-width="1" transform="rotate(159 0,0)"/><path d="M 0,0
	c 58,-78 21,-68 0,-71
	M 0,0
	c -58,-78 -21,-68 0,-71
	z" fill="rgb(84,52,177)" stroke-width="1" transform="rotate(189 0,0)"/><path d="M 0,0
	c 58,-78 21,-68 0,-68
	M 0,0
	c -58,-78 -21,-68 0,-68
	z" fill="rgb(84,52,177)" stroke-width="1" transform="rotate(228.9 0,0)"/><path d="M 0,0
	c 58,-78 21,-68 0,-85
	M 0,0
	c -58,-78 -21,-68 0,-85
	z" fill="rgb(124,92,217)" stroke-width="1" transform="rotate(228 0,0)"/><path d="M 0,0
	c 58,-78 21,-68 0,-68
	M 0,0
	c -58,-78 -21,-68 0,-68
	z" fill="rgb(104,72,197)" stroke-width="1" transform="rotate(286.2 0,0)"/><path d="M 0,0
	c 58,-78 21,-68 0,-74
	M 0,0
	c -58,-78 -21,-68 0,-74
	z" fill="rgb(124,92,217)" stroke-width="1" transform="rotate(306 0,0)"/><path d="M 0,0
	c 58,-78 21,-68 0,-66
	M 0,0
	c -58,-78 -21,-68 0,-66
	z" fill="rgb(94,62,187)" stroke-width="1" transform="rotate(330 0,0)"/><circle cx="0" cy="0" r="37.5" fill="#ffb566"/><circle cx="0" cy="0" r="12.5" fill="#ffce99"/></g><g id="fleur2"><path d="M 0,0
	c 38.666666666667,-52 14,-45.333333333333 0,-44.666666666667
	M 0,0
	c -38.666666666667,-52 -14,-45.333333333333 0,-44.666666666667
	z" fill="rgb(104,72,197)" stroke-width="1" transform="rotate(0 0,0)"/><path d="M 0,0
	c 38.666666666667,-52 14,-45.333333333333 0,-56.666666666667
	M 0,0
	c -38.666666666667,-52 -14,-45.333333333333 0,-56.666666666667
	z" fill="rgb(104,72,197)" stroke-width="1" transform="rotate(28.8 0,0)"/><path d="M 0,0
	c 38.666666666667,-52 14,-45.333333333333 0,-43.333333333333
	M 0,0
	c -38.666666666667,-52 -14,-45.333333333333 0,-43.333333333333
	z" fill="rgb(84,52,177)" stroke-width="1" transform="rotate(59.815384615385 0,0)"/><path d="M 0,0
	c 38.666666666667,-52 14,-45.333333333333 0,-56.666666666667
	M 0,0
	c -38.666666666667,-52 -14,-45.333333333333 0,-56.666666666667
	z" fill="rgb(94,62,187)" stroke-width="1" transform="rotate(81.415384615385 0,0)"/><path d="M 0,0
	c 38.666666666667,-52 14,-45.333333333333 0,-46.666666666667
	M 0,0
	c -38.666666666667,-52 -14,-45.333333333333 0,-46.666666666667
	z" fill="rgb(94,62,187)" stroke-width="1" transform="rotate(121.84615384615 0,0)"/><path d="M 0,0
	c 38.666666666667,-52 14,-45.333333333333 0,-52
	M 0,0
	c -38.666666666667,-52 -14,-45.333333333333 0,-52
	z" fill="rgb(114,82,207)" stroke-width="1" transform="rotate(142.61538461538 0,0)"/><path d="M 0,0
	c 38.666666666667,-52 14,-45.333333333333 0,-52
	M 0,0
	c -38.666666666667,-52 -14,-45.333333333333 0,-52
	z" fill="rgb(94,62,187)" stroke-width="1" transform="rotate(161.16923076923 0,0)"/><path d="M 0,0
	c 38.666666666667,-52 14,-45.333333333333 0,-46.666666666667
	M 0,0
	c -38.666666666667,-52 -14,-45.333333333333 0,-46.666666666667
	z" fill="rgb(124,92,217)" stroke-width="1" transform="rotate(184.15384615385 0,0)"/><path d="M 0,0
	c 38.666666666667,-52 14,-45.333333333333 0,-54
	M 0,0
	c -38.666666666667,-52 -14,-45.333333333333 0,-54
	z" fill="rgb(104,72,197)" stroke-width="1" transform="rotate(225.96923076923 0,0)"/><path d="M 0,0
	c 38.666666666667,-52 14,-45.333333333333 0,-44.666666666667
	M 0,0
	c -38.666666666667,-52 -14,-45.333333333333 0,-44.666666666667
	z" fill="rgb(114,82,207)" stroke-width="1" transform="rotate(241.75384615385 0,0)"/><path d="M 0,0
	c 38.666666666667,-52 14,-45.333333333333 0,-49.333333333333
	M 0,0
	c -38.666666666667,-52 -14,-45.333333333333 0,-49.333333333333
	z" fill="rgb(84,52,177)" stroke-width="1" transform="rotate(296.30769230769 0,0)"/><path d="M 0,0
	c 38.666666666667,-52 14,-45.333333333333 0,-51.333333333333
	M 0,0
	c -38.666666666667,-52 -14,-45.333333333333 0,-51.333333333333
	z" fill="rgb(84,52,177)" stroke-width="1" transform="rotate(304.61538461538 0,0)"/><path d="M 0,0
	c 38.666666666667,-52 14,-45.333333333333 0,-44
	M 0,0
	c -38.666666666667,-52 -14,-45.333333333333 0,-44
	z" fill="rgb(104,72,197)" stroke-width="1" transform="rotate(348.92307692308 0,0)"/><circle cx="0" cy="0" r="25" fill="#ffb566"/><circle cx="0" cy="0" r="8.3333333333333" fill="#ffce99"/></g><g id="fleur3"><path d="M 0,0
	c 33.142857142857,-44.571428571429 12,-38.857142857143 0,-44.571428571429
	M 0,0
	c -33.142857142857,-44.571428571429 -12,-38.857142857143 0,-44.571428571429
	z" fill="rgb(124,92,217)" stroke-width="1" transform="rotate(0 0,0)"/><path d="M 0,0
	c 33.142857142857,-44.571428571429 12,-38.857142857143 0,-41.142857142857
	M 0,0
	c -33.142857142857,-44.571428571429 -12,-38.857142857143 0,-41.142857142857
	z" fill="rgb(84,52,177)" stroke-width="1" transform="rotate(27.415384615385 0,0)"/><path d="M 0,0
	c 33.142857142857,-44.571428571429 12,-38.857142857143 0,-37.714285714286
	M 0,0
	c -33.142857142857,-44.571428571429 -12,-38.857142857143 0,-37.714285714286
	z" fill="rgb(84,52,177)" stroke-width="1" transform="rotate(50.953846153846 0,0)"/><path d="M 0,0
	c 33.142857142857,-44.571428571429 12,-38.857142857143 0,-44.571428571429
	M 0,0
	c -33.142857142857,-44.571428571429 -12,-38.857142857143 0,-44.571428571429
	z" fill="rgb(94,62,187)" stroke-width="1" transform="rotate(80.584615384615 0,0)"/><path d="M 0,0
	c 33.142857142857,-44.571428571429 12,-38.857142857143 0,-37.714285714286
	M 0,0
	c -33.142857142857,-44.571428571429 -12,-38.857142857143 0,-37.714285714286
	z" fill="rgb(84,52,177)" stroke-width="1" transform="rotate(119.63076923077 0,0)"/><path d="M 0,0
	c 33.142857142857,-44.571428571429 12,-38.857142857143 0,-40
	M 0,0
	c -33.142857142857,-44.571428571429 -12,-38.857142857143 0,-40
	z" fill="rgb(104,72,197)" stroke-width="1" transform="rotate(148.15384615385 0,0)"/><path d="M 0,0
	c 33.142857142857,-44.571428571429 12,-38.857142857143 0,-37.142857142857
	M 0,0
	c -33.142857142857,-44.571428571429 -12,-38.857142857143 0,-37.142857142857
	z" fill="rgb(84,52,177)" stroke-width="1" transform="rotate(151.2 0,0)"/><path d="M 0,0
	c 33.142857142857,-44.571428571429 12,-38.857142857143 0,-37.142857142857
	M 0,0
	c -33.142857142857,-44.571428571429 -12,-38.857142857143 0,-37.142857142857
	z" fill="rgb(94,62,187)" stroke-width="1" transform="rotate(182.21538461538 0,0)"/><path d="M 0,0
	c 33.142857142857,-44.571428571429 12,-38.857142857143 0,-45.142857142857
	M 0,0
	c -33.142857142857,-44.571428571429 -12,-38.857142857143 0,-45.142857142857
	z" fill="rgb(94,62,187)" stroke-width="1" transform="rotate(243.69230769231 0,0)"/><path d="M 0,0
	c 33.142857142857,-44.571428571429 12,-38.857142857143 0,-44.571428571429
	M 0,0
	c -33.142857142857,-44.571428571429 -12,-38.857142857143 0,-44.571428571429
	z" fill="rgb(104,72,197)" stroke-width="1" transform="rotate(226.8 0,0)"/><path d="M 0,0
	c 33.142857142857,-44.571428571429 12,-38.857142857143 0,-38.857142857143
	M 0,0
	c -33.142857142857,-44.571428571429 -12,-38.857142857143 0,-38.857142857143
	z" fill="rgb(124,92,217)" stroke-width="1" transform="rotate(290.76923076923 0,0)"/><path d="M 0,0
	c 33.142857142857,-44.571428571429 12,-38.857142857143 0,-46.857142857143
	M 0,0
	c -33.142857142857,-44.571428571429 -12,-38.857142857143 0,-46.857142857143
	z" fill="rgb(124,92,217)" stroke-width="1" transform="rotate(325.93846153846 0,0)"/><path d="M 0,0
	c 33.142857142857,-44.571428571429 12,-38.857142857143 0,-37.714285714286
	M 0,0
	c -33.142857142857,-44.571428571429 -12,-38.857142857143 0,-37.714285714286
	z" fill="rgb(124,92,217)" stroke-width="1" transform="rotate(358.89230769231 0,0)"/><circle cx="0" cy="0" r="21.428571428571" fill="#ffb566"/><circle cx="0" cy="0" r="7.1428571428571" fill="#ffce99"/></g><g id="fleur4"><path d="M 0,0
	c 29,-39 10.5,-34 0,-37.5
	M 0,0
	c -29,-39 -10.5,-34 0,-37.5
	z" fill="rgb(114,82,207)" stroke-width="1" transform="rotate(0 0,0)"/><path d="M 0,0
	c 29,-39 10.5,-34 0,-34
	M 0,0
	c -29,-39 -10.5,-34 0,-34
	z" fill="rgb(124,92,217)" stroke-width="1" transform="rotate(41.85 0,0)"/><path d="M 0,0
	c 29,-39 10.5,-34 0,-35
	M 0,0
	c -29,-39 -10.5,-34 0,-35
	z" fill="rgb(114,82,207)" stroke-width="1" transform="rotate(87.3 0,0)"/><path d="M 0,0
	c 29,-39 10.5,-34 0,-37.5
	M 0,0
	c -29,-39 -10.5,-34 0,-37.5
	z" fill="rgb(84,52,177)" stroke-width="1" transform="rotate(126.9 0,0)"/><path d="M 0,0
	c 29,-39 10.5,-34 0,-42.5
	M 0,0
	c -29,-39 -10.5,-34 0,-42.5
	z" fill="rgb(94,62,187)" stroke-width="1" transform="rotate(163.8 0,0)"/><path d="M 0,0
	c 29,-39 10.5,-34 0,-36.5
	M 0,0
	c -29,-39 -10.5,-34 0,-36.5
	z" fill="rgb(104,72,197)" stroke-width="1" transform="rotate(209.25 0,0)"/><path d="M 0,0
	c 29,-39 10.5,-34 0,-37
	M 0,0
	c -29,-39 -10.5,-34 0,-37
	z" fill="rgb(94,62,187)" stroke-width="1" transform="rotate(256.5 0,0)"/><path d="M 0,0
	c 29,-39 10.5,-34 0,-34.5
	M 0,0
	c -29,-39 -10.5,-34 0,-34.5
	z" fill="rgb(124,92,217)" stroke-width="1" transform="rotate(296.1 0,0)"/><circle cx="0" cy="0" r="18.75" fill="#ffb566"/><circle cx="0" cy="0" r="6.25" fill="#ffce99"/></g></defs><use xlink:href="#feuille2"
		x="256.3076" y="423.2433" 
		transform="rotate(-43.7 256.3076,423.2433)"
		fill="rgb(78,37,115)" /><use xlink:href="#feuille1"
	x="260.15485" y="467.5178625" 
	transform="rotate(47  260.15485,467.5178625)"
	fill="rgb(108,67,145)" /><use xlink:href="#feuille1"
	x="260.15485" y="467.5178625" 
	transform="rotate(39  260.15485,467.5178625)"
	fill="rgb(118,77,155)" /><path d="M 263 480 c -22,-88.2 19.066666666667,-73.5 -22,-147  " stroke="rgb(151,75,159)" stroke-width="18" fill="transparent"/><use xlink:href="#fleur1"
x="241" y="333" 
fill="Pink" /><use xlink:href="#feuille2"
		x="319.896" y="404.7808" 
		transform="rotate(94.6 319.896,404.7808)"
		fill="rgb(88,47,125)" /><use xlink:href="#feuille3"
		x="323.375" y="399.5" 
		transform="rotate(75.2 323.375,399.5)"
		fill="rgb(128,87,165)" /><use xlink:href="#feuille3"
		x="323.375" y="399.5" 
		transform="rotate(96.5 323.375,399.5)"
		fill="rgb(98,57,135)" /><use xlink:href="#feuille1"
	x="307.333625" y="462.31415" 
	transform="rotate(-65  307.333625,462.31415)"
	fill="rgb(118,77,155)" /><use xlink:href="#feuille1"
	x="307.333625" y="462.31415" 
	transform="rotate(74  307.333625,462.31415)"
	fill="rgb(88,47,125)" /><path d="M 305 480 c 16.333333333333,-128.8 16.333333333333,-32.2 49,-161  " stroke="rgb(151,75,159)" stroke-width="16" fill="transparent"/><use xlink:href="#fleur2"
x="354" y="319" 
fill="Pink" /><use xlink:href="#feuille4"
		x="243.990625" y="440.30925" 
		transform="rotate(-94.8 243.990625,440.30925)"
		fill="rgb(138,97,175)" /><use xlink:href="#feuille2"
		x="243.990625" y="440.30925" 
		transform="rotate(-83 243.990625,440.30925)"
		fill="rgb(108,67,145)" /><use xlink:href="#feuille4"
		x="248.278125" y="454.74225" 
		transform="rotate(-91.3 248.278125,454.74225)"
		fill="rgb(108,67,145)" /><use xlink:href="#feuille1"
	x="260.146875" y="475.62675" 
	transform="rotate(48  260.146875,475.62675)"
	fill="rgb(98,57,135)" /><use xlink:href="#feuille1"
	x="260.146875" y="475.62675" 
	transform="rotate(38  260.146875,475.62675)"
	fill="rgb(118,77,155)" /><use xlink:href="#feuille1"
	x="260.146875" y="475.62675" 
	transform="rotate(44  260.146875,475.62675)"
	fill="rgb(88,47,125)" /><path d="M 263 480 c -20,-30.6 -20,-30.6 -25,-102  " stroke="rgb(151,75,159)" stroke-width="14" fill="transparent"/><use xlink:href="#fleur3"
x="238" y="378" 
fill="Pink" /></svg>