<?xml version="1.0" encoding="iso-8859-1"?>
<svg version="1.1" id="Capa_1" xmlns="http://www.w3.org/2000/svg" xmlns:xlink="http://www.w3.org/1999/xlink" x="0px" y="0px"
viewBox="0 0 500 500" xml:space="preserve"><defs><g id="feuille1">
<path d="M 0,0
c 35,-7 39,-28 0,-102
M 0,0
c -35,-7 -39,-28 0,-102
z" stroke="#85e085" stroke-width="0"/>
<polygon points="-3,3, 0,-71.4 3 3" stroke="rgb(172,142,107)" stroke-width="2" fill="rgb(172,142,107)"/>
</g>
<g id="feuille2">
<path d="M 0,0
c 23.333333333333,-4.6666666666667 26,-18.666666666667 0,-68
M 0,0
c -23.333333333333,-4.6666666666667 -26,-18.666666666667 0,-68
z" stroke="#85e085" stroke-width="0"/>
<polygon points="-3 3, 0,-47.6, 3 3" stroke="rgb(172,142,107)" stroke-width="1" fill="rgb(172,142,107)"/>
</g><g id="feuille3">
<path d="M 0,0
c 17.5,-3.5 19.5,-14 0,-51
M 0,0
c -17.5,-3.5 -19.5,-14 0,-51
z" stroke="#85e085" stroke-width="0"/>
<polygon points="-3 3, 0,-35.7, 3 3" stroke="rgb(172,142,107)" stroke-width="1" fill="rgb(172,142,107)"/>
</g><g id="feuille4">
<path d="M 0,0
c 14,-2.8 15.6,-11.2 0,-40.8
M 0,0
c -14,-2.8 -15.6,-11.2 0,-40.8
z" stroke="#85e085" stroke-width="0"/>
<polygon points="-3 3, 0,-28.56, 3 3" stroke="rgb(172,142,107)" stroke-width="1" fill="rgb(172,142,107)"/>
</g><g id="fleur1"><path d="M 0,0
	c 59,-16 37,-12.8 0,-83
	M 0,0
	c -59,-16 -37,-12.8 0,-83
	z" fill="rgb(169,188,122)" stroke-width="1" transform="rotate(0 0,0)"/><path d="M 0,0
	c 59,-16 37,-12.8 0,-87
	M 0,0
	c -59,-16 -37,-12.8 0,-87
	z" fill="rgb(159,178,112)" stroke-width="1" transform="rotate(58.8 0,0)"/><path d="M 0,0
	c 59,-16 37,-12.8 0,-71
	M 0,0
	c -59,-16 -37,-12.8 0,-71
	z" fill="rgb(179,198,132)" stroke-width="1" transform="rotate(122.4 0,0)"/><path d="M 0,0
	c 59,-16 37,-12.8 0,-84
	M 0,0
	c -59,-16 -37,-12.8 0,-84
	z" fill="rgb(159,178,112)" stroke-width="1" transform="rotate(187.2 0,0)"/><path d="M 0,0
	c 59,-16 37,-12.8 0,-83
	M 0,0
	c -59,-16 -37,-12.8 0,-83
	z" fill="rgb(169,188,122)" stroke-width="1" transform="rotate(247.2 0,0)"/><path d="M 0,0
	c 59,-16 37,-12.8 0,-86
	M 0,0
	c -59,-16 -37,-12.8 0,-86
	z" fill="rgb(189,208,142)" stroke-width="1" transform="rotate(270 0,0)"/><circle cx="0" cy="0" r="7.9" fill="#ffb566"/><circle cx="0" cy="0" r="2.6333333333333" fill="#ffce99"/></g><g id="fleur2"><path d="M 0,0
	c 39.333333333333,-10.666666666667 24.666666666667,-8.5333333333333 0,-46.666666666667
	M 0,0
	c -39.333333333333,-10.666666666667 -24.666666666667,-8.5333333333333 0,-46.666666666667
	z" fill="rgb(159,178,112)" stroke-width="1" transform="rotate(0 0,0)"/><path d="M 0,0
	c 39.333333333333,-10.666666666667 24.666666666667,-8.5333333333333 0,-52.666666666667
	M 0,0
	c -39.333333333333,-10.666666666667 -24.666666666667,-8.5333333333333 0,-52.666666666667
	z" fill="rgb(199,218,152)" stroke-width="1" transform="rotate(39.6 0,0)"/><path d="M 0,0
	c 39.333333333333,-10.666666666667 24.666666666667,-8.5333333333333 0,-57.333333333333
	M 0,0
	c -39.333333333333,-10.666666666667 -24.666666666667,-8.5333333333333 0,-57.333333333333
	z" fill="rgb(179,198,132)" stroke-width="1" transform="rotate(73.44 0,0)"/><path d="M 0,0
	c 39.333333333333,-10.666666666667 24.666666666667,-8.5333333333333 0,-50.666666666667
	M 0,0
	c -39.333333333333,-10.666666666667 -24.666666666667,-8.5333333333333 0,-50.666666666667
	z" fill="rgb(189,208,142)" stroke-width="1" transform="rotate(104.76 0,0)"/><path d="M 0,0
	c 39.333333333333,-10.666666666667 24.666666666667,-8.5333333333333 0,-51.333333333333
	M 0,0
	c -39.333333333333,-10.666666666667 -24.666666666667,-8.5333333333333 0,-51.333333333333
	z" fill="rgb(179,198,132)" stroke-width="1" transform="rotate(133.92 0,0)"/><path d="M 0,0
	c 39.333333333333,-10.666666666667 24.666666666667,-8.5333333333333 0,-58
	M 0,0
	c -39.333333333333,-10.666666666667 -24.666666666667,-8.5333333333333 0,-58
	z" fill="rgb(179,198,132)" stroke-width="1" transform="rotate(183.6 0,0)"/><path d="M 0,0
	c 39.333333333333,-10.666666666667 24.666666666667,-8.5333333333333 0,-52.666666666667
	M 0,0
	c -39.333333333333,-10.666666666667 -24.666666666667,-8.5333333333333 0,-52.666666666667
	z" fill="rgb(199,218,152)" stroke-width="1" transform="rotate(228.96 0,0)"/><path d="M 0,0
	c 39.333333333333,-10.666666666667 24.666666666667,-8.5333333333333 0,-47.333333333333
	M 0,0
	c -39.333333333333,-10.666666666667 -24.666666666667,-8.5333333333333 0,-47.333333333333
	z" fill="rgb(199,218,152)" stroke-width="1" transform="rotate(241.92 0,0)"/><path d="M 0,0
	c 39.333333333333,-10.666666666667 24.666666666667,-8.5333333333333 0,-56
	M 0,0
	c -39.333333333333,-10.666666666667 -24.666666666667,-8.5333333333333 0,-56
	z" fill="rgb(199,218,152)" stroke-width="1" transform="rotate(273.6 0,0)"/><path d="M 0,0
	c 39.333333333333,-10.666666666667 24.666666666667,-8.5333333333333 0,-48
	M 0,0
	c -39.333333333333,-10.666666666667 -24.666666666667,-8.5333333333333 0,-48
	z" fill="rgb(179,198,132)" stroke-width="1" transform="rotate(356.4 0,0)"/><circle cx="0" cy="0" r="5.2666666666667" fill="#ffb566"/><circle cx="0" cy="0" r="1.7555555555556" fill="#ffce99"/></g><g id="fleur3"><path d="M 0,0
	c 33.714285714286,-9.1428571428571 21.142857142857,-7.3142857142857 0,-46.857142857143
	M 0,0
	c -33.714285714286,-9.1428571428571 -21.142857142857,-7.3142857142857 0,-46.857142857143
	z" fill="rgb(159,178,112)" stroke-width="1" transform="rotate(0 0,0)"/><path d="M 0,0
	c 33.714285714286,-9.1428571428571 21.142857142857,-7.3142857142857 0,-48.571428571429
	M 0,0
	c -33.714285714286,-9.1428571428571 -21.142857142857,-7.3142857142857 0,-48.571428571429
	z" fill="rgb(169,188,122)" stroke-width="1" transform="rotate(49.5 0,0)"/><path d="M 0,0
	c 33.714285714286,-9.1428571428571 21.142857142857,-7.3142857142857 0,-50.285714285714
	M 0,0
	c -33.714285714286,-9.1428571428571 -21.142857142857,-7.3142857142857 0,-50.285714285714
	z" fill="rgb(199,218,152)" stroke-width="1" transform="rotate(81.9 0,0)"/><path d="M 0,0
	c 33.714285714286,-9.1428571428571 21.142857142857,-7.3142857142857 0,-42.285714285714
	M 0,0
	c -33.714285714286,-9.1428571428571 -21.142857142857,-7.3142857142857 0,-42.285714285714
	z" fill="rgb(199,218,152)" stroke-width="1" transform="rotate(141.75 0,0)"/><path d="M 0,0
	c 33.714285714286,-9.1428571428571 21.142857142857,-7.3142857142857 0,-43.428571428571
	M 0,0
	c -33.714285714286,-9.1428571428571 -21.142857142857,-7.3142857142857 0,-43.428571428571
	z" fill="rgb(189,208,142)" stroke-width="1" transform="rotate(181.8 0,0)"/><path d="M 0,0
	c 33.714285714286,-9.1428571428571 21.142857142857,-7.3142857142857 0,-48
	M 0,0
	c -33.714285714286,-9.1428571428571 -21.142857142857,-7.3142857142857 0,-48
	z" fill="rgb(159,178,112)" stroke-width="1" transform="rotate(213.75 0,0)"/><path d="M 0,0
	c 33.714285714286,-9.1428571428571 21.142857142857,-7.3142857142857 0,-44.571428571429
	M 0,0
	c -33.714285714286,-9.1428571428571 -21.142857142857,-7.3142857142857 0,-44.571428571429
	z" fill="rgb(189,208,142)" stroke-width="1" transform="rotate(283.5 0,0)"/><path d="M 0,0
	c 33.714285714286,-9.1428571428571 21.142857142857,-7.3142857142857 0,-45.142857142857
	M 0,0
	c -33.714285714286,-9.1428571428571 -21.142857142857,-7.3142857142857 0,-45.142857142857
	z" fill="rgb(199,218,152)" stroke-width="1" transform="rotate(296.1 0,0)"/><circle cx="0" cy="0" r="4.5142857142857" fill="#ffb566"/><circle cx="0" cy="0" r="1.5047619047619" fill="#ffce99"/></g><g id="fleur4"><path d="M 0,0
	c 29.5,-8 18.5,-6.4 0,-43
	M 0,0
	c -29.5,-8 -18.5,-6.4 0,-43
	z" fill="rgb(199,218,152)" stroke-width="1" transform="rotate(0 0,0)"/><path d="M 0,0
	c 29.5,-8 18.5,-6.4 0,-43
	M 0,0
	c -29.5,-8 -18.5,-6.4 0,-43
	z" fill="rgb(179,198,132)" stroke-width="1" transform="rotate(42.4 0,0)"/><path d="M 0,0
	c 29.5,-8 18.5,-6.4 0,-39
	M 0,0
	c -29.5,-8 -18.5,-6.4 0,-39
	z" fill="rgb(169,188,122)" stroke-width="1" transform="rotate(80.8 0,0)"/><path d="M 0,0
	c 29.5,-8 18.5,-6.4 0,-38.5
	M 0,0
	c -29.5,-8 -18.5,-6.4 0,-38.5
	z" fill="rgb(169,188,122)" stroke-width="1" transform="rotate(126 0,0)"/><path d="M 0,0
	c 29.5,-8 18.5,-6.4 0,-34.5
	M 0,0
	c -29.5,-8 -18.5,-6.4 0,-34.5
	z" fill="rgb(169,188,122)" stroke-width="1" transform="rotate(172.8 0,0)"/><path d="M 0,0
	c 29.5,-8 18.5,-6.4 0,-37
	M 0,0
	c -29.5,-8 -18.5,-6.4 0,-37
	z" fill="rgb(179,198,132)" stroke-width="1" transform="rotate(182 0,0)"/><path d="M 0,0
	c 29.5,-8 18.5,-6.4 0,-37
	M 0,0
	c -29.5,-8 -18.5,-6.4 0,-37
	z" fill="rgb(169,188,122)" stroke-width="1" transform="rotate(240 0,0)"/><path d="M 0,0
	c 29.5,-8 18.5,-6.4 0,-43.5
	M 0,0
	c -29.5,-8 -18.5,-6.4 0,-43.5
	z" fill="rgb(179,198,132)" stroke-width="1" transform="rotate(266 0,0)"/><path d="M 0,0
	c 29.5,-8 18.5,-6.4 0,-37.5
	M 0,0
	c -29.5,-8 -18.5,-6.4 0,-37.5
	z" fill="rgb(179,198,132)" stroke-width="1" transform="rotate(300.8 0,0)"/><circle cx="0" cy="0" r="3.95" fill="#ffb566"/><circle cx="0" cy="0" r="1.3166666666667" fill="#ffce99"/></g></defs><use xlink:href="#feuille1"
	x="241.058" y="474.24175" 
	transform="rotate(-32  241.058,474.24175)"
	fill="rgb(113,110,184)" /><use xlink:href="#feuille1"
	x="241.058" y="474.24175" 
	transform="rotate(-38  241.058,474.24175)"
	fill="rgb(93,90,164)" /><path d="M 233 480 c 63.2,-37.2 -68.466666666667,-99.2 -79,-124  " stroke="rgb(172,142,107)" stroke-width="18" fill="transparent"/><use xlink:href="#fleur1"
x="154" y="356" 
fill="Pink" /><use xlink:href="#feuille1"
	x="243.768875" y="468.9693" 
	transform="rotate(-76  243.768875,468.9693)"
	fill="rgb(83,80,154)" /><path d="M 240 480 c 29.333333333333,-74.7 -29.333333333333,-124.5 55,-249  " stroke="rgb(172,142,107)" stroke-width="16" fill="transparent"/><use xlink:href="#fleur2"
x="295" y="231" 
fill="Pink" /></svg>