<?xml version="1.0" encoding="iso-8859-1"?>
<svg version="1.1" id="Capa_1" xmlns="http://www.w3.org/2000/svg" xmlns:xlink="http://www.w3.org/1999/xlink" x="0px" y="0px"
viewBox="0 0 500 500" xml:space="preserve"><defs><g id="feuille1">
<path d="M 0,0
c 25,-96 68,-76.8 0,-86
M 0,0
c -25,-96 -68,-76.8 0,-86
z" stroke="#85e085" stroke-width="0"/>
<polygon points="-3,3, 0,-60.2 3 3" stroke="rgb(171,196,108)" stroke-width="2" fill="rgb(171,196,108)"/>
</g>
<g id="feuille2">
<path d="M 0,0
c 16.666666666667,-64 45.333333333333,-51.2 0,-57.333333333333
M 0,0
c -16.666666666667,-64 -45.333333333333,-51.2 0,-57.333333333333
z" stroke="#85e085" stroke-width="0"/>
<polygon points="-3 3, 0,-40.133333333333, 3 3" stroke="rgb(171,196,108)" stroke-width="1" fill="rgb(171,196,108)"/>
</g><g id="feuille3">
<path d="M 0,0
c 12.5,-48 34,-38.4 0,-43
M 0,0
c -12.5,-48 -34,-38.4 0,-43
z" stroke="#85e085" stroke-width="0"/>
<polygon points="-3 3, 0,-30.1, 3 3" stroke="rgb(171,196,108)" stroke-width="1" fill="rgb(171,196,108)"/>
</g><g id="feuille4">
<path d="M 0,0
c 10,-38.4 27.2,-30.72 0,-34.4
M 0,0
c -10,-38.4 -27.2,-30.72 0,-34.4
z" stroke="#85e085" stroke-width="0"/>
<polygon points="-3 3, 0,-24.08, 3 3" stroke="rgb(171,196,108)" stroke-width="1" fill="rgb(171,196,108)"/>
</g><g id="fleur1"><path d="M 0,0
	c 56,-32 35,-45 0,-77
	M 0,0
	c -56,-32 -35,-45 0,-77
	z" fill="rgb(67,70,172)" stroke-width="1" transform="rotate(0 0,0)"/><path d="M 0,0
	c 56,-32 35,-45 0,-63
	M 0,0
	c -56,-32 -35,-45 0,-63
	z" fill="rgb(67,70,172)" stroke-width="1" transform="rotate(24.24 0,0)"/><path d="M 0,0
	c 56,-32 35,-45 0,-79
	M 0,0
	c -56,-32 -35,-45 0,-79
	z" fill="rgb(57,60,162)" stroke-width="1" transform="rotate(49.92 0,0)"/><path d="M 0,0
	c 56,-32 35,-45 0,-68
	M 0,0
	c -56,-32 -35,-45 0,-68
	z" fill="rgb(77,80,182)" stroke-width="1" transform="rotate(66.96 0,0)"/><path d="M 0,0
	c 56,-32 35,-45 0,-67
	M 0,0
	c -56,-32 -35,-45 0,-67
	z" fill="rgb(77,80,182)" stroke-width="1" transform="rotate(87.36 0,0)"/><path d="M 0,0
	c 56,-32 35,-45 0,-80
	M 0,0
	c -56,-32 -35,-45 0,-80
	z" fill="rgb(87,90,192)" stroke-width="1" transform="rotate(130.8 0,0)"/><path d="M 0,0
	c 56,-32 35,-45 0,-61
	M 0,0
	c -56,-32 -35,-45 0,-61
	z" fill="rgb(77,80,182)" stroke-width="1" transform="rotate(132.48 0,0)"/><path d="M 0,0
	c 56,-32 35,-45 0,-68
	M 0,0
	c -56,-32 -35,-45 0,-68
	z" fill="rgb(57,60,162)" stroke-width="1" transform="rotate(184.8 0,0)"/><path d="M 0,0
	c 56,-32 35,-45 0,-74
	M 0,0
	c -56,-32 -35,-45 0,-74
	z" fill="rgb(67,70,172)" stroke-width="1" transform="rotate(197.76 0,0)"/><path d="M 0,0
	c 56,-32 35,-45 0,-63
	M 0,0
	c -56,-32 -35,-45 0,-63
	z" fill="rgb(87,90,192)" stroke-width="1" transform="rotate(207.36 0,0)"/><path d="M 0,0
	c 56,-32 35,-45 0,-79
	M 0,0
	c -56,-32 -35,-45 0,-79
	z" fill="rgb(67,70,172)" stroke-width="1" transform="rotate(244.8 0,0)"/><path d="M 0,0
	c 56,-32 35,-45 0,-63
	M 0,0
	c -56,-32 -35,-45 0,-63
	z" fill="rgb(47,50,152)" stroke-width="1" transform="rotate(264 0,0)"/><path d="M 0,0
	c 56,-32 35,-45 0,-73
	M 0,0
	c -56,-32 -35,-45 0,-73
	z" fill="rgb(47,50,152)" stroke-width="1" transform="rotate(267.84 0,0)"/><path d="M 0,0
	c 56,-32 35,-45 0,-62
	M 0,0
	c -56,-32 -35,-45 0,-62
	z" fill="rgb(87,90,192)" stroke-width="1" transform="rotate(333.84 0,0)"/><path d="M 0,0
	c 56,-32 35,-45 0,-73
	M 0,0
	c -56,-32 -35,-45 0,-73
	z" fill="rgb(47,50,152)" stroke-width="1" transform="rotate(362.88 0,0)"/><circle cx="0" cy="0" r="17.75" fill="#ffb566"/><circle cx="0" cy="0" r="5.9166666666667" fill="#ffce99"/></g><g id="fleur2"><path d="M 0,0
	c 37.333333333333,-21.333333333333 23.333333333333,-30 0,-52
	M 0,0
	c -37.333333333333,-21.333333333333 -23.333333333333,-30 0,-52
	z" fill="rgb(87,90,192)" stroke-width="1" transform="rotate(0 0,0)"/><path d="M 0,0
	c 37.333333333333,-21.333333333333 23.333333333333,-30 0,-54
	M 0,0
	c -37.333333333333,-21.333333333333 -23.333333333333,-30 0,-54
	z" fill="rgb(57,60,162)" stroke-width="1" transform="rotate(30.109090909091 0,0)"/><path d="M 0,0
	c 37.333333333333,-21.333333333333 23.333333333333,-30 0,-42.666666666667
	M 0,0
	c -37.333333333333,-21.333333333333 -23.333333333333,-30 0,-42.666666666667
	z" fill="rgb(77,80,182)" stroke-width="1" transform="rotate(69.381818181818 0,0)"/><path d="M 0,0
	c 37.333333333333,-21.333333333333 23.333333333333,-30 0,-44.666666666667
	M 0,0
	c -37.333333333333,-21.333333333333 -23.333333333333,-30 0,-44.666666666667
	z" fill="rgb(77,80,182)" stroke-width="1" transform="rotate(93.272727272727 0,0)"/><path d="M 0,0
	c 37.333333333333,-21.333333333333 23.333333333333,-30 0,-48
	M 0,0
	c -37.333333333333,-21.333333333333 -23.333333333333,-30 0,-48
	z" fill="rgb(67,70,172)" stroke-width="1" transform="rotate(140.07272727273 0,0)"/><path d="M 0,0
	c 37.333333333333,-21.333333333333 23.333333333333,-30 0,-52
	M 0,0
	c -37.333333333333,-21.333333333333 -23.333333333333,-30 0,-52
	z" fill="rgb(87,90,192)" stroke-width="1" transform="rotate(165.27272727273 0,0)"/><path d="M 0,0
	c 37.333333333333,-21.333333333333 23.333333333333,-30 0,-46
	M 0,0
	c -37.333333333333,-21.333333333333 -23.333333333333,-30 0,-46
	z" fill="rgb(87,90,192)" stroke-width="1" transform="rotate(200.29090909091 0,0)"/><path d="M 0,0
	c 37.333333333333,-21.333333333333 23.333333333333,-30 0,-51.333333333333
	M 0,0
	c -37.333333333333,-21.333333333333 -23.333333333333,-30 0,-51.333333333333
	z" fill="rgb(67,70,172)" stroke-width="1" transform="rotate(215.34545454545 0,0)"/><path d="M 0,0
	c 37.333333333333,-21.333333333333 23.333333333333,-30 0,-49.333333333333
	M 0,0
	c -37.333333333333,-21.333333333333 -23.333333333333,-30 0,-49.333333333333
	z" fill="rgb(67,70,172)" stroke-width="1" transform="rotate(243.49090909091 0,0)"/><path d="M 0,0
	c 37.333333333333,-21.333333333333 23.333333333333,-30 0,-50.666666666667
	M 0,0
	c -37.333333333333,-21.333333333333 -23.333333333333,-30 0,-50.666666666667
	z" fill="rgb(87,90,192)" stroke-width="1" transform="rotate(273.92727272727 0,0)"/><path d="M 0,0
	c 37.333333333333,-21.333333333333 23.333333333333,-30 0,-44.666666666667
	M 0,0
	c -37.333333333333,-21.333333333333 -23.333333333333,-30 0,-44.666666666667
	z" fill="rgb(67,70,172)" stroke-width="1" transform="rotate(337.09090909091 0,0)"/><circle cx="0" cy="0" r="11.833333333333" fill="#ffb566"/><circle cx="0" cy="0" r="3.9444444444444" fill="#ffce99"/></g><g id="fleur3"><path d="M 0,0
	c 32,-18.285714285714 20,-25.714285714286 0,-35.428571428571
	M 0,0
	c -32,-18.285714285714 -20,-25.714285714286 0,-35.428571428571
	z" fill="rgb(57,60,162)" stroke-width="1" transform="rotate(0 0,0)"/><path d="M 0,0
	c 32,-18.285714285714 20,-25.714285714286 0,-40.571428571429
	M 0,0
	c -32,-18.285714285714 -20,-25.714285714286 0,-40.571428571429
	z" fill="rgb(67,70,172)" stroke-width="1" transform="rotate(23.914285714286 0,0)"/><path d="M 0,0
	c 32,-18.285714285714 20,-25.714285714286 0,-43.428571428571
	M 0,0
	c -32,-18.285714285714 -20,-25.714285714286 0,-43.428571428571
	z" fill="rgb(67,70,172)" stroke-width="1" transform="rotate(52.457142857143 0,0)"/><path d="M 0,0
	c 32,-18.285714285714 20,-25.714285714286 0,-35.428571428571
	M 0,0
	c -32,-18.285714285714 -20,-25.714285714286 0,-35.428571428571
	z" fill="rgb(47,50,152)" stroke-width="1" transform="rotate(72.514285714286 0,0)"/><path d="M 0,0
	c 32,-18.285714285714 20,-25.714285714286 0,-41.142857142857
	M 0,0
	c -32,-18.285714285714 -20,-25.714285714286 0,-41.142857142857
	z" fill="rgb(77,80,182)" stroke-width="1" transform="rotate(111.08571428571 0,0)"/><path d="M 0,0
	c 32,-18.285714285714 20,-25.714285714286 0,-41.142857142857
	M 0,0
	c -32,-18.285714285714 -20,-25.714285714286 0,-41.142857142857
	z" fill="rgb(47,50,152)" stroke-width="1" transform="rotate(124.71428571429 0,0)"/><path d="M 0,0
	c 32,-18.285714285714 20,-25.714285714286 0,-40.571428571429
	M 0,0
	c -32,-18.285714285714 -20,-25.714285714286 0,-40.571428571429
	z" fill="rgb(87,90,192)" stroke-width="1" transform="rotate(155.82857142857 0,0)"/><path d="M 0,0
	c 32,-18.285714285714 20,-25.714285714286 0,-40.571428571429
	M 0,0
	c -32,-18.285714285714 -20,-25.714285714286 0,-40.571428571429
	z" fill="rgb(87,90,192)" stroke-width="1" transform="rotate(183.6 0,0)"/><path d="M 0,0
	c 32,-18.285714285714 20,-25.714285714286 0,-38.857142857143
	M 0,0
	c -32,-18.285714285714 -20,-25.714285714286 0,-38.857142857143
	z" fill="rgb(87,90,192)" stroke-width="1" transform="rotate(199.54285714286 0,0)"/><path d="M 0,0
	c 32,-18.285714285714 20,-25.714285714286 0,-45.142857142857
	M 0,0
	c -32,-18.285714285714 -20,-25.714285714286 0,-45.142857142857
	z" fill="rgb(57,60,162)" stroke-width="1" transform="rotate(243 0,0)"/><path d="M 0,0
	c 32,-18.285714285714 20,-25.714285714286 0,-38.285714285714
	M 0,0
	c -32,-18.285714285714 -20,-25.714285714286 0,-38.285714285714
	z" fill="rgb(47,50,152)" stroke-width="1" transform="rotate(252 0,0)"/><path d="M 0,0
	c 32,-18.285714285714 20,-25.714285714286 0,-42.285714285714
	M 0,0
	c -32,-18.285714285714 -20,-25.714285714286 0,-42.285714285714
	z" fill="rgb(87,90,192)" stroke-width="1" transform="rotate(277.2 0,0)"/><path d="M 0,0
	c 32,-18.285714285714 20,-25.714285714286 0,-36
	M 0,0
	c -32,-18.285714285714 -20,-25.714285714286 0,-36
	z" fill="rgb(77,80,182)" stroke-width="1" transform="rotate(283.88571428571 0,0)"/><path d="M 0,0
	c 32,-18.285714285714 20,-25.714285714286 0,-36
	M 0,0
	c -32,-18.285714285714 -20,-25.714285714286 0,-36
	z" fill="rgb(47,50,152)" stroke-width="1" transform="rotate(300.85714285714 0,0)"/><circle cx="0" cy="0" r="10.142857142857" fill="#ffb566"/><circle cx="0" cy="0" r="3.3809523809524" fill="#ffce99"/></g><g id="fleur4"><path d="M 0,0
	c 28,-16 17.5,-22.5 0,-32
	M 0,0
	c -28,-16 -17.5,-22.5 0,-32
	z" fill="rgb(87,90,192)" stroke-width="1" transform="rotate(0 0,0)"/><path d="M 0,0
	c 28,-16 17.5,-22.5 0,-40
	M 0,0
	c -28,-16 -17.5,-22.5 0,-40
	z" fill="rgb(57,60,162)" stroke-width="1" transform="rotate(36.72 0,0)"/><path d="M 0,0
	c 28,-16 17.5,-22.5 0,-34
	M 0,0
	c -28,-16 -17.5,-22.5 0,-34
	z" fill="rgb(47,50,152)" stroke-width="1" transform="rotate(66.24 0,0)"/><path d="M 0,0
	c 28,-16 17.5,-22.5 0,-31
	M 0,0
	c -28,-16 -17.5,-22.5 0,-31
	z" fill="rgb(77,80,182)" stroke-width="1" transform="rotate(118.8 0,0)"/><path d="M 0,0
	c 28,-16 17.5,-22.5 0,-38
	M 0,0
	c -28,-16 -17.5,-22.5 0,-38
	z" fill="rgb(77,80,182)" stroke-width="1" transform="rotate(145.44 0,0)"/><path d="M 0,0
	c 28,-16 17.5,-22.5 0,-36.5
	M 0,0
	c -28,-16 -17.5,-22.5 0,-36.5
	z" fill="rgb(67,70,172)" stroke-width="1" transform="rotate(163.8 0,0)"/><path d="M 0,0
	c 28,-16 17.5,-22.5 0,-39.5
	M 0,0
	c -28,-16 -17.5,-22.5 0,-39.5
	z" fill="rgb(47,50,152)" stroke-width="1" transform="rotate(235.44 0,0)"/><path d="M 0,0
	c 28,-16 17.5,-22.5 0,-31
	M 0,0
	c -28,-16 -17.5,-22.5 0,-31
	z" fill="rgb(87,90,192)" stroke-width="1" transform="rotate(262.08 0,0)"/><path d="M 0,0
	c 28,-16 17.5,-22.5 0,-36.5
	M 0,0
	c -28,-16 -17.5,-22.5 0,-36.5
	z" fill="rgb(77,80,182)" stroke-width="1" transform="rotate(259.2 0,0)"/><path d="M 0,0
	c 28,-16 17.5,-22.5 0,-37.5
	M 0,0
	c -28,-16 -17.5,-22.5 0,-37.5
	z" fill="rgb(57,60,162)" stroke-width="1" transform="rotate(356.4 0,0)"/><circle cx="0" cy="0" r="8.875" fill="#ffb566"/><circle cx="0" cy="0" r="2.9583333333333" fill="#ffce99"/></g></defs><use xlink:href="#feuille4"
		x="246.96875" y="425.9875" 
		transform="rotate(-65.5 246.96875,425.9875)"
		fill="rgb(86,157,94)" /><use xlink:href="#feuille3"
		x="246.96875" y="425.9875" 
		transform="rotate(-97.9 246.96875,425.9875)"
		fill="rgb(86,157,94)" /><use xlink:href="#feuille4"
		x="246.96875" y="425.9875" 
		transform="rotate(-55.9 246.96875,425.9875)"
		fill="rgb(116,187,124)" /><use xlink:href="#feuille2"
		x="246.96875" y="425.9875" 
		transform="rotate(-76.8 246.96875,425.9875)"
		fill="rgb(96,167,104)" /><use xlink:href="#feuille4"
		x="246.96875" y="425.9875" 
		transform="rotate(77.7 246.96875,425.9875)"
		fill="rgb(116,187,124)" /><use xlink:href="#feuille3"
		x="246.96875" y="425.9875" 
		transform="rotate(67.4 246.96875,425.9875)"
		fill="rgb(116,187,124)" /><use xlink:href="#feuille1"
	x="250.77815" y="466.7615" 
	transform="rotate(41  250.77815,466.7615)"
	fill="rgb(76,147,84)" /><path d="M 252 480 c -8.4,-92.8 -12.133333333333,-92.8 14,-116  " stroke="rgb(171,196,108)" stroke-width="18" fill="transparent"/><use xlink:href="#fleur1"
x="266" y="364" 
fill="Pink" /><use xlink:href="#feuille3"
		x="202.92345" y="406.717" 
		transform="rotate(-94.1 202.92345,406.717)"
		fill="rgb(86,157,94)" /><use xlink:href="#feuille3"
		x="202.92345" y="406.717" 
		transform="rotate(-71.9 202.92345,406.717)"
		fill="rgb(116,187,124)" /><use xlink:href="#feuille1"
	x="211.14015" y="466.747" 
	transform="rotate(62  211.14015,466.747)"
	fill="rgb(106,177,114)" /><use xlink:href="#feuille1"
	x="211.14015" y="466.747" 
	transform="rotate(53  211.14015,466.747)"
	fill="rgb(96,167,104)" /><use xlink:href="#feuille1"
	x="211.14015" y="466.747" 
	transform="rotate(-69  211.14015,466.747)"
	fill="rgb(116,187,124)" /><path d="M 219 480 c -61,-92.8 56.933333333333,-92.8 -61,-232  " stroke="rgb(171,196,108)" stroke-width="16" fill="transparent"/><use xlink:href="#fleur2"
x="158" y="248" 
fill="Pink" /></svg>