<?xml version="1.0" encoding="iso-8859-1"?>
<svg version="1.1" id="Capa_1" xmlns="http://www.w3.org/2000/svg" xmlns:xlink="http://www.w3.org/1999/xlink" x="0px" y="0px"
viewBox="0 0 500 500" xml:space="preserve"><defs><g id="feuille1">
<path d="M 0,0
c 52,-21 29,-16.8 0,-114
M 0,0
c -52,-21 -29,-16.8 0,-114
z" stroke="#85e085" stroke-width="0"/>
<polygon points="-3,3, 0,-79.8 3 3" stroke="rgb(112,113,80)" stroke-width="2" fill="rgb(112,113,80)"/>
</g>
<g id="feuille2">
<path d="M 0,0
c 34.666666666667,-14 19.333333333333,-11.2 0,-76
M 0,0
c -34.666666666667,-14 -19.333333333333,-11.2 0,-76
z" stroke="#85e085" stroke-width="0"/>
<polygon points="-3 3, 0,-53.2, 3 3" stroke="rgb(112,113,80)" stroke-width="1" fill="rgb(112,113,80)"/>
</g><g id="feuille3">
<path d="M 0,0
c 26,-10.5 14.5,-8.4 0,-57
M 0,0
c -26,-10.5 -14.5,-8.4 0,-57
z" stroke="#85e085" stroke-width="0"/>
<polygon points="-3 3, 0,-39.9, 3 3" stroke="rgb(112,113,80)" stroke-width="1" fill="rgb(112,113,80)"/>
</g><g id="feuille4">
<path d="M 0,0
c 20.8,-8.4 11.6,-6.72 0,-45.6
M 0,0
c -20.8,-8.4 -11.6,-6.72 0,-45.6
z" stroke="#85e085" stroke-width="0"/>
<polygon points="-3 3, 0,-31.92, 3 3" stroke="rgb(112,113,80)" stroke-width="1" fill="rgb(112,113,80)"/>
</g><g id="fleur1"><path d="M 0,0
	c 34,-45 38,-46 0,-66
	M 0,0
	c -34,-45 -38,-46 0,-66
	z" fill="rgb(113,201,104)" stroke-width="1" transform="rotate(0 0,0)"/><path d="M 0,0
	c 34,-45 38,-46 0,-65
	M 0,0
	c -34,-45 -38,-46 0,-65
	z" fill="rgb(83,171,74)" stroke-width="1" transform="rotate(26.4 0,0)"/><path d="M 0,0
	c 34,-45 38,-46 0,-72
	M 0,0
	c -34,-45 -38,-46 0,-72
	z" fill="rgb(93,181,84)" stroke-width="1" transform="rotate(50.88 0,0)"/><path d="M 0,0
	c 34,-45 38,-46 0,-66
	M 0,0
	c -34,-45 -38,-46 0,-66
	z" fill="rgb(73,161,64)" stroke-width="1" transform="rotate(71.28 0,0)"/><path d="M 0,0
	c 34,-45 38,-46 0,-75
	M 0,0
	c -34,-45 -38,-46 0,-75
	z" fill="rgb(103,191,94)" stroke-width="1" transform="rotate(98.88 0,0)"/><path d="M 0,0
	c 34,-45 38,-46 0,-65
	M 0,0
	c -34,-45 -38,-46 0,-65
	z" fill="rgb(83,171,74)" stroke-width="1" transform="rotate(111.6 0,0)"/><path d="M 0,0
	c 34,-45 38,-46 0,-62
	M 0,0
	c -34,-45 -38,-46 0,-62
	z" fill="rgb(113,201,104)" stroke-width="1" transform="rotate(139.68 0,0)"/><path d="M 0,0
	c 34,-45 38,-46 0,-67
	M 0,0
	c -34,-45 -38,-46 0,-67
	z" fill="rgb(83,171,74)" stroke-width="1" transform="rotate(152.88 0,0)"/><path d="M 0,0
	c 34,-45 38,-46 0,-63
	M 0,0
	c -34,-45 -38,-46 0,-63
	z" fill="rgb(73,161,64)" stroke-width="1" transform="rotate(184.32 0,0)"/><path d="M 0,0
	c 34,-45 38,-46 0,-64
	M 0,0
	c -34,-45 -38,-46 0,-64
	z" fill="rgb(103,191,94)" stroke-width="1" transform="rotate(233.28 0,0)"/><path d="M 0,0
	c 34,-45 38,-46 0,-58
	M 0,0
	c -34,-45 -38,-46 0,-58
	z" fill="rgb(73,161,64)" stroke-width="1" transform="rotate(256.8 0,0)"/><path d="M 0,0
	c 34,-45 38,-46 0,-70
	M 0,0
	c -34,-45 -38,-46 0,-70
	z" fill="rgb(73,161,64)" stroke-width="1" transform="rotate(237.6 0,0)"/><path d="M 0,0
	c 34,-45 38,-46 0,-70
	M 0,0
	c -34,-45 -38,-46 0,-70
	z" fill="rgb(103,191,94)" stroke-width="1" transform="rotate(305.28 0,0)"/><path d="M 0,0
	c 34,-45 38,-46 0,-62
	M 0,0
	c -34,-45 -38,-46 0,-62
	z" fill="rgb(83,171,74)" stroke-width="1" transform="rotate(296.4 0,0)"/><path d="M 0,0
	c 34,-45 38,-46 0,-72
	M 0,0
	c -34,-45 -38,-46 0,-72
	z" fill="rgb(73,161,64)" stroke-width="1" transform="rotate(356.16 0,0)"/><circle cx="0" cy="0" r="6.8" fill="#ffb566"/><circle cx="0" cy="0" r="2.2666666666667" fill="#ffce99"/></g><g id="fleur2"><path d="M 0,0
	c 22.666666666667,-30 25.333333333333,-30.666666666667 0,-40
	M 0,0
	c -22.666666666667,-30 -25.333333333333,-30.666666666667 0,-40
	z" fill="rgb(113,201,104)" stroke-width="1" transform="rotate(0 0,0)"/><path d="M 0,0
	c 22.666666666667,-30 25.333333333333,-30.666666666667 0,-48
	M 0,0
	c -22.666666666667,-30 -25.333333333333,-30.666666666667 0,-48
	z" fill="rgb(73,161,64)" stroke-width="1" transform="rotate(26.861538461538 0,0)"/><path d="M 0,0
	c 22.666666666667,-30 25.333333333333,-30.666666666667 0,-47.333333333333
	M 0,0
	c -22.666666666667,-30 -25.333333333333,-30.666666666667 0,-47.333333333333
	z" fill="rgb(93,181,84)" stroke-width="1" transform="rotate(57.6 0,0)"/><path d="M 0,0
	c 22.666666666667,-30 25.333333333333,-30.666666666667 0,-50
	M 0,0
	c -22.666666666667,-30 -25.333333333333,-30.666666666667 0,-50
	z" fill="rgb(113,201,104)" stroke-width="1" transform="rotate(81.415384615385 0,0)"/><path d="M 0,0
	c 22.666666666667,-30 25.333333333333,-30.666666666667 0,-50
	M 0,0
	c -22.666666666667,-30 -25.333333333333,-30.666666666667 0,-50
	z" fill="rgb(73,161,64)" stroke-width="1" transform="rotate(105.23076923077 0,0)"/><path d="M 0,0
	c 22.666666666667,-30 25.333333333333,-30.666666666667 0,-50
	M 0,0
	c -22.666666666667,-30 -25.333333333333,-30.666666666667 0,-50
	z" fill="rgb(83,171,74)" stroke-width="1" transform="rotate(138.46153846154 0,0)"/><path d="M 0,0
	c 22.666666666667,-30 25.333333333333,-30.666666666667 0,-41.333333333333
	M 0,0
	c -22.666666666667,-30 -25.333333333333,-30.666666666667 0,-41.333333333333
	z" fill="rgb(73,161,64)" stroke-width="1" transform="rotate(157.84615384615 0,0)"/><path d="M 0,0
	c 22.666666666667,-30 25.333333333333,-30.666666666667 0,-50
	M 0,0
	c -22.666666666667,-30 -25.333333333333,-30.666666666667 0,-50
	z" fill="rgb(93,181,84)" stroke-width="1" transform="rotate(180.27692307692 0,0)"/><path d="M 0,0
	c 22.666666666667,-30 25.333333333333,-30.666666666667 0,-51.333333333333
	M 0,0
	c -22.666666666667,-30 -25.333333333333,-30.666666666667 0,-51.333333333333
	z" fill="rgb(73,161,64)" stroke-width="1" transform="rotate(210.46153846154 0,0)"/><path d="M 0,0
	c 22.666666666667,-30 25.333333333333,-30.666666666667 0,-44
	M 0,0
	c -22.666666666667,-30 -25.333333333333,-30.666666666667 0,-44
	z" fill="rgb(93,181,84)" stroke-width="1" transform="rotate(244.24615384615 0,0)"/><path d="M 0,0
	c 22.666666666667,-30 25.333333333333,-30.666666666667 0,-48.666666666667
	M 0,0
	c -22.666666666667,-30 -25.333333333333,-30.666666666667 0,-48.666666666667
	z" fill="rgb(83,171,74)" stroke-width="1" transform="rotate(293.53846153846 0,0)"/><path d="M 0,0
	c 22.666666666667,-30 25.333333333333,-30.666666666667 0,-47.333333333333
	M 0,0
	c -22.666666666667,-30 -25.333333333333,-30.666666666667 0,-47.333333333333
	z" fill="rgb(73,161,64)" stroke-width="1" transform="rotate(289.38461538462 0,0)"/><path d="M 0,0
	c 22.666666666667,-30 25.333333333333,-30.666666666667 0,-52
	M 0,0
	c -22.666666666667,-30 -25.333333333333,-30.666666666667 0,-52
	z" fill="rgb(73,161,64)" stroke-width="1" transform="rotate(299.07692307692 0,0)"/><circle cx="0" cy="0" r="4.5333333333333" fill="#ffb566"/><circle cx="0" cy="0" r="1.5111111111111" fill="#ffce99"/></g><g id="fleur3"><path d="M 0,0
	c 19.428571428571,-25.714285714286 21.714285714286,-26.285714285714 0,-34.285714285714
	M 0,0
	c -19.428571428571,-25.714285714286 -21.714285714286,-26.285714285714 0,-34.285714285714
	z" fill="rgb(93,181,84)" stroke-width="1" transform="rotate(0 0,0)"/><path d="M 0,0
	c 19.428571428571,-25.714285714286 21.714285714286,-26.285714285714 0,-44
	M 0,0
	c -19.428571428571,-25.714285714286 -21.714285714286,-26.285714285714 0,-44
	z" fill="rgb(73,161,64)" stroke-width="1" transform="rotate(49.5 0,0)"/><path d="M 0,0
	c 19.428571428571,-25.714285714286 21.714285714286,-26.285714285714 0,-39.428571428571
	M 0,0
	c -19.428571428571,-25.714285714286 -21.714285714286,-26.285714285714 0,-39.428571428571
	z" fill="rgb(73,161,64)" stroke-width="1" transform="rotate(90 0,0)"/><path d="M 0,0
	c 19.428571428571,-25.714285714286 21.714285714286,-26.285714285714 0,-35.428571428571
	M 0,0
	c -19.428571428571,-25.714285714286 -21.714285714286,-26.285714285714 0,-35.428571428571
	z" fill="rgb(103,191,94)" stroke-width="1" transform="rotate(148.5 0,0)"/><path d="M 0,0
	c 19.428571428571,-25.714285714286 21.714285714286,-26.285714285714 0,-33.714285714286
	M 0,0
	c -19.428571428571,-25.714285714286 -21.714285714286,-26.285714285714 0,-33.714285714286
	z" fill="rgb(113,201,104)" stroke-width="1" transform="rotate(190.8 0,0)"/><path d="M 0,0
	c 19.428571428571,-25.714285714286 21.714285714286,-26.285714285714 0,-41.142857142857
	M 0,0
	c -19.428571428571,-25.714285714286 -21.714285714286,-26.285714285714 0,-41.142857142857
	z" fill="rgb(73,161,64)" stroke-width="1" transform="rotate(209.25 0,0)"/><path d="M 0,0
	c 19.428571428571,-25.714285714286 21.714285714286,-26.285714285714 0,-43.428571428571
	M 0,0
	c -19.428571428571,-25.714285714286 -21.714285714286,-26.285714285714 0,-43.428571428571
	z" fill="rgb(83,171,74)" stroke-width="1" transform="rotate(267.3 0,0)"/><path d="M 0,0
	c 19.428571428571,-25.714285714286 21.714285714286,-26.285714285714 0,-38.285714285714
	M 0,0
	c -19.428571428571,-25.714285714286 -21.714285714286,-26.285714285714 0,-38.285714285714
	z" fill="rgb(103,191,94)" stroke-width="1" transform="rotate(321.3 0,0)"/><circle cx="0" cy="0" r="3.8857142857143" fill="#ffb566"/><circle cx="0" cy="0" r="1.2952380952381" fill="#ffce99"/></g><g id="fleur4"><path d="M 0,0
	c 17,-22.5 19,-23 0,-32
	M 0,0
	c -17,-22.5 -19,-23 0,-32
	z" fill="rgb(103,191,94)" stroke-width="1" transform="rotate(0 0,0)"/><path d="M 0,0
	c 17,-22.5 19,-23 0,-33.5
	M 0,0
	c -17,-22.5 -19,-23 0,-33.5
	z" fill="rgb(73,161,64)" stroke-width="1" transform="rotate(28.285714285714 0,0)"/><path d="M 0,0
	c 17,-22.5 19,-23 0,-29
	M 0,0
	c -17,-22.5 -19,-23 0,-29
	z" fill="rgb(83,171,74)" stroke-width="1" transform="rotate(55.542857142857 0,0)"/><path d="M 0,0
	c 17,-22.5 19,-23 0,-31.5
	M 0,0
	c -17,-22.5 -19,-23 0,-31.5
	z" fill="rgb(93,181,84)" stroke-width="1" transform="rotate(70.971428571429 0,0)"/><path d="M 0,0
	c 17,-22.5 19,-23 0,-39
	M 0,0
	c -17,-22.5 -19,-23 0,-39
	z" fill="rgb(83,171,74)" stroke-width="1" transform="rotate(102.85714285714 0,0)"/><path d="M 0,0
	c 17,-22.5 19,-23 0,-33.5
	M 0,0
	c -17,-22.5 -19,-23 0,-33.5
	z" fill="rgb(103,191,94)" stroke-width="1" transform="rotate(122.14285714286 0,0)"/><path d="M 0,0
	c 17,-22.5 19,-23 0,-30.5
	M 0,0
	c -17,-22.5 -19,-23 0,-30.5
	z" fill="rgb(83,171,74)" stroke-width="1" transform="rotate(151.2 0,0)"/><path d="M 0,0
	c 17,-22.5 19,-23 0,-37.5
	M 0,0
	c -17,-22.5 -19,-23 0,-37.5
	z" fill="rgb(113,201,104)" stroke-width="1" transform="rotate(180 0,0)"/><path d="M 0,0
	c 17,-22.5 19,-23 0,-35
	M 0,0
	c -17,-22.5 -19,-23 0,-35
	z" fill="rgb(103,191,94)" stroke-width="1" transform="rotate(226.28571428571 0,0)"/><path d="M 0,0
	c 17,-22.5 19,-23 0,-39
	M 0,0
	c -17,-22.5 -19,-23 0,-39
	z" fill="rgb(113,201,104)" stroke-width="1" transform="rotate(212.91428571429 0,0)"/><path d="M 0,0
	c 17,-22.5 19,-23 0,-29
	M 0,0
	c -17,-22.5 -19,-23 0,-29
	z" fill="rgb(93,181,84)" stroke-width="1" transform="rotate(272.57142857143 0,0)"/><path d="M 0,0
	c 17,-22.5 19,-23 0,-33
	M 0,0
	c -17,-22.5 -19,-23 0,-33
	z" fill="rgb(113,201,104)" stroke-width="1" transform="rotate(288.51428571429 0,0)"/><path d="M 0,0
	c 17,-22.5 19,-23 0,-31
	M 0,0
	c -17,-22.5 -19,-23 0,-31
	z" fill="rgb(103,191,94)" stroke-width="1" transform="rotate(336.34285714286 0,0)"/><path d="M 0,0
	c 17,-22.5 19,-23 0,-33.5
	M 0,0
	c -17,-22.5 -19,-23 0,-33.5
	z" fill="rgb(113,201,104)" stroke-width="1" transform="rotate(357.68571428571 0,0)"/><circle cx="0" cy="0" r="3.4" fill="#ffb566"/><circle cx="0" cy="0" r="1.1333333333333" fill="#ffce99"/></g></defs><use xlink:href="#feuille4"
		x="237.7888" y="269.0256" 
		transform="rotate(-60.9 237.7888,269.0256)"
		fill="rgb(191,98,195)" /><use xlink:href="#feuille4"
		x="237.7888" y="269.0256" 
		transform="rotate(-102.7 237.7888,269.0256)"
		fill="rgb(211,118,215)" /><use xlink:href="#feuille1"
	x="216.601975" y="446.3027" 
	transform="rotate(61  216.601975,446.3027)"
	fill="rgb(191,98,195)" /><use xlink:href="#feuille1"
	x="216.601975" y="446.3027" 
	transform="rotate(-49  216.601975,446.3027)"
	fill="rgb(171,78,175)" /><use xlink:href="#feuille1"
	x="216.601975" y="446.3027" 
	transform="rotate(56  216.601975,446.3027)"
	fill="rgb(161,68,165)" /><path d="M 217 480 c -4.0666666666667,-239.2 20.333333333333,-179.4 61,-299  " stroke="rgb(112,113,80)" stroke-width="18" fill="transparent"/><use xlink:href="#fleur1"
x="278" y="181" 
fill="Pink" /></svg>