<?xml version="1.0" encoding="iso-8859-1"?>
<svg version="1.1" id="Capa_1" xmlns="http://www.w3.org/2000/svg" xmlns:xlink="http://www.w3.org/1999/xlink" x="0px" y="0px"
viewBox="0 0 500 500" xml:space="preserve"><defs><g id="feuille1">
<path d="M 0,0
c 50,-38 27,-57 0,-62
M 0,0
c -50,-38 -27,-57 0,-62
z" stroke="#85e085" stroke-width="0"/>
<polygon points="-3,3, 0,-43.4 3 3" stroke="rgb(191,51,112)" stroke-width="2" fill="rgb(191,51,112)"/>
</g>
<g id="feuille2">
<path d="M 0,0
c 33.333333333333,-25.333333333333 18,-38 0,-41.333333333333
M 0,0
c -33.333333333333,-25.333333333333 -18,-38 0,-41.333333333333
z" stroke="#85e085" stroke-width="0"/>
<polygon points="-3 3, 0,-28.933333333333, 3 3" stroke="rgb(191,51,112)" stroke-width="1" fill="rgb(191,51,112)"/>
</g><g id="feuille3">
<path d="M 0,0
c 25,-19 13.5,-28.5 0,-31
M 0,0
c -25,-19 -13.5,-28.5 0,-31
z" stroke="#85e085" stroke-width="0"/>
<polygon points="-3 3, 0,-21.7, 3 3" stroke="rgb(191,51,112)" stroke-width="1" fill="rgb(191,51,112)"/>
</g><g id="feuille4">
<path d="M 0,0
c 20,-15.2 10.8,-22.8 0,-24.8
M 0,0
c -20,-15.2 -10.8,-22.8 0,-24.8
z" stroke="#85e085" stroke-width="0"/>
<polygon points="-3 3, 0,-17.36, 3 3" stroke="rgb(191,51,112)" stroke-width="1" fill="rgb(191,51,112)"/>
</g><g id="fleur1"><path d="M 0,0
	c 23,-61 27,-48.8 0,-66
	M 0,0
	c -23,-61 -27,-48.8 0,-66
	z" fill="rgb(76,101,64)" stroke-width="1" transform="rotate(0 0,0)"/><path d="M 0,0
	c 23,-61 27,-48.8 0,-69
	M 0,0
	c -23,-61 -27,-48.8 0,-69
	z" fill="rgb(116,141,104)" stroke-width="1" transform="rotate(26.4 0,0)"/><path d="M 0,0
	c 23,-61 27,-48.8 0,-61
	M 0,0
	c -23,-61 -27,-48.8 0,-61
	z" fill="rgb(106,131,94)" stroke-width="1" transform="rotate(44.16 0,0)"/><path d="M 0,0
	c 23,-61 27,-48.8 0,-59
	M 0,0
	c -23,-61 -27,-48.8 0,-59
	z" fill="rgb(106,131,94)" stroke-width="1" transform="rotate(69.84 0,0)"/><path d="M 0,0
	c 23,-61 27,-48.8 0,-74
	M 0,0
	c -23,-61 -27,-48.8 0,-74
	z" fill="rgb(96,121,84)" stroke-width="1" transform="rotate(88.32 0,0)"/><path d="M 0,0
	c 23,-61 27,-48.8 0,-63
	M 0,0
	c -23,-61 -27,-48.8 0,-63
	z" fill="rgb(106,131,94)" stroke-width="1" transform="rotate(132 0,0)"/><path d="M 0,0
	c 23,-61 27,-48.8 0,-64
	M 0,0
	c -23,-61 -27,-48.8 0,-64
	z" fill="rgb(86,111,74)" stroke-width="1" transform="rotate(136.8 0,0)"/><path d="M 0,0
	c 23,-61 27,-48.8 0,-77
	M 0,0
	c -23,-61 -27,-48.8 0,-77
	z" fill="rgb(96,121,84)" stroke-width="1" transform="rotate(183.12 0,0)"/><path d="M 0,0
	c 23,-61 27,-48.8 0,-75
	M 0,0
	c -23,-61 -27,-48.8 0,-75
	z" fill="rgb(106,131,94)" stroke-width="1" transform="rotate(197.76 0,0)"/><path d="M 0,0
	c 23,-61 27,-48.8 0,-75
	M 0,0
	c -23,-61 -27,-48.8 0,-75
	z" fill="rgb(76,101,64)" stroke-width="1" transform="rotate(218.16 0,0)"/><path d="M 0,0
	c 23,-61 27,-48.8 0,-67
	M 0,0
	c -23,-61 -27,-48.8 0,-67
	z" fill="rgb(96,121,84)" stroke-width="1" transform="rotate(232.8 0,0)"/><path d="M 0,0
	c 23,-61 27,-48.8 0,-72
	M 0,0
	c -23,-61 -27,-48.8 0,-72
	z" fill="rgb(96,121,84)" stroke-width="1" transform="rotate(261.36 0,0)"/><path d="M 0,0
	c 23,-61 27,-48.8 0,-67
	M 0,0
	c -23,-61 -27,-48.8 0,-67
	z" fill="rgb(76,101,64)" stroke-width="1" transform="rotate(308.16 0,0)"/><path d="M 0,0
	c 23,-61 27,-48.8 0,-74
	M 0,0
	c -23,-61 -27,-48.8 0,-74
	z" fill="rgb(96,121,84)" stroke-width="1" transform="rotate(321.36 0,0)"/><path d="M 0,0
	c 23,-61 27,-48.8 0,-71
	M 0,0
	c -23,-61 -27,-48.8 0,-71
	z" fill="rgb(106,131,94)" stroke-width="1" transform="rotate(309.12 0,0)"/><circle cx="0" cy="0" r="9.8571428571429" fill="#ffb566"/><circle cx="0" cy="0" r="3.2857142857143" fill="#ffce99"/></g><g id="fleur2"><path d="M 0,0
	c 15.333333333333,-40.666666666667 18,-32.533333333333 0,-48
	M 0,0
	c -15.333333333333,-40.666666666667 -18,-32.533333333333 0,-48
	z" fill="rgb(96,121,84)" stroke-width="1" transform="rotate(0 0,0)"/><path d="M 0,0
	c 15.333333333333,-40.666666666667 18,-32.533333333333 0,-45.333333333333
	M 0,0
	c -15.333333333333,-40.666666666667 -18,-32.533333333333 0,-45.333333333333
	z" fill="rgb(96,121,84)" stroke-width="1" transform="rotate(36.72 0,0)"/><path d="M 0,0
	c 15.333333333333,-40.666666666667 18,-32.533333333333 0,-50.666666666667
	M 0,0
	c -15.333333333333,-40.666666666667 -18,-32.533333333333 0,-50.666666666667
	z" fill="rgb(86,111,74)" stroke-width="1" transform="rotate(78.48 0,0)"/><path d="M 0,0
	c 15.333333333333,-40.666666666667 18,-32.533333333333 0,-50.666666666667
	M 0,0
	c -15.333333333333,-40.666666666667 -18,-32.533333333333 0,-50.666666666667
	z" fill="rgb(116,141,104)" stroke-width="1" transform="rotate(110.16 0,0)"/><path d="M 0,0
	c 15.333333333333,-40.666666666667 18,-32.533333333333 0,-52
	M 0,0
	c -15.333333333333,-40.666666666667 -18,-32.533333333333 0,-52
	z" fill="rgb(106,131,94)" stroke-width="1" transform="rotate(139.68 0,0)"/><path d="M 0,0
	c 15.333333333333,-40.666666666667 18,-32.533333333333 0,-42
	M 0,0
	c -15.333333333333,-40.666666666667 -18,-32.533333333333 0,-42
	z" fill="rgb(106,131,94)" stroke-width="1" transform="rotate(171 0,0)"/><path d="M 0,0
	c 15.333333333333,-40.666666666667 18,-32.533333333333 0,-47.333333333333
	M 0,0
	c -15.333333333333,-40.666666666667 -18,-32.533333333333 0,-47.333333333333
	z" fill="rgb(86,111,74)" stroke-width="1" transform="rotate(218.16 0,0)"/><path d="M 0,0
	c 15.333333333333,-40.666666666667 18,-32.533333333333 0,-47.333333333333
	M 0,0
	c -15.333333333333,-40.666666666667 -18,-32.533333333333 0,-47.333333333333
	z" fill="rgb(76,101,64)" stroke-width="1" transform="rotate(254.52 0,0)"/><path d="M 0,0
	c 15.333333333333,-40.666666666667 18,-32.533333333333 0,-44
	M 0,0
	c -15.333333333333,-40.666666666667 -18,-32.533333333333 0,-44
	z" fill="rgb(96,121,84)" stroke-width="1" transform="rotate(262.08 0,0)"/><path d="M 0,0
	c 15.333333333333,-40.666666666667 18,-32.533333333333 0,-44
	M 0,0
	c -15.333333333333,-40.666666666667 -18,-32.533333333333 0,-44
	z" fill="rgb(106,131,94)" stroke-width="1" transform="rotate(317.52 0,0)"/><circle cx="0" cy="0" r="6.5714285714286" fill="#ffb566"/><circle cx="0" cy="0" r="2.1904761904762" fill="#ffce99"/></g><g id="fleur3"><path d="M 0,0
	c 13.142857142857,-34.857142857143 15.428571428571,-27.885714285714 0,-40.571428571429
	M 0,0
	c -13.142857142857,-34.857142857143 -15.428571428571,-27.885714285714 0,-40.571428571429
	z" fill="rgb(86,111,74)" stroke-width="1" transform="rotate(0 0,0)"/><path d="M 0,0
	c 13.142857142857,-34.857142857143 15.428571428571,-27.885714285714 0,-44
	M 0,0
	c -13.142857142857,-34.857142857143 -15.428571428571,-27.885714285714 0,-44
	z" fill="rgb(86,111,74)" stroke-width="1" transform="rotate(64.8 0,0)"/><path d="M 0,0
	c 13.142857142857,-34.857142857143 15.428571428571,-27.885714285714 0,-41.714285714286
	M 0,0
	c -13.142857142857,-34.857142857143 -15.428571428571,-27.885714285714 0,-41.714285714286
	z" fill="rgb(116,141,104)" stroke-width="1" transform="rotate(146.88 0,0)"/><path d="M 0,0
	c 13.142857142857,-34.857142857143 15.428571428571,-27.885714285714 0,-34.285714285714
	M 0,0
	c -13.142857142857,-34.857142857143 -15.428571428571,-27.885714285714 0,-34.285714285714
	z" fill="rgb(86,111,74)" stroke-width="1" transform="rotate(211.68 0,0)"/><path d="M 0,0
	c 13.142857142857,-34.857142857143 15.428571428571,-27.885714285714 0,-39.428571428571
	M 0,0
	c -13.142857142857,-34.857142857143 -15.428571428571,-27.885714285714 0,-39.428571428571
	z" fill="rgb(86,111,74)" stroke-width="1" transform="rotate(311.04 0,0)"/><circle cx="0" cy="0" r="5.6326530612245" fill="#ffb566"/><circle cx="0" cy="0" r="1.8775510204082" fill="#ffce99"/></g><g id="fleur4"><path d="M 0,0
	c 11.5,-30.5 13.5,-24.4 0,-30
	M 0,0
	c -11.5,-30.5 -13.5,-24.4 0,-30
	z" fill="rgb(76,101,64)" stroke-width="1" transform="rotate(0 0,0)"/><path d="M 0,0
	c 11.5,-30.5 13.5,-24.4 0,-29.5
	M 0,0
	c -11.5,-30.5 -13.5,-24.4 0,-29.5
	z" fill="rgb(116,141,104)" stroke-width="1" transform="rotate(23.28 0,0)"/><path d="M 0,0
	c 11.5,-30.5 13.5,-24.4 0,-34.5
	M 0,0
	c -11.5,-30.5 -13.5,-24.4 0,-34.5
	z" fill="rgb(106,131,94)" stroke-width="1" transform="rotate(44.16 0,0)"/><path d="M 0,0
	c 11.5,-30.5 13.5,-24.4 0,-31.5
	M 0,0
	c -11.5,-30.5 -13.5,-24.4 0,-31.5
	z" fill="rgb(86,111,74)" stroke-width="1" transform="rotate(78.48 0,0)"/><path d="M 0,0
	c 11.5,-30.5 13.5,-24.4 0,-39.5
	M 0,0
	c -11.5,-30.5 -13.5,-24.4 0,-39.5
	z" fill="rgb(76,101,64)" stroke-width="1" transform="rotate(94.08 0,0)"/><path d="M 0,0
	c 11.5,-30.5 13.5,-24.4 0,-33.5
	M 0,0
	c -11.5,-30.5 -13.5,-24.4 0,-33.5
	z" fill="rgb(76,101,64)" stroke-width="1" transform="rotate(109.2 0,0)"/><path d="M 0,0
	c 11.5,-30.5 13.5,-24.4 0,-30.5
	M 0,0
	c -11.5,-30.5 -13.5,-24.4 0,-30.5
	z" fill="rgb(76,101,64)" stroke-width="1" transform="rotate(135.36 0,0)"/><path d="M 0,0
	c 11.5,-30.5 13.5,-24.4 0,-35.5
	M 0,0
	c -11.5,-30.5 -13.5,-24.4 0,-35.5
	z" fill="rgb(76,101,64)" stroke-width="1" transform="rotate(174.72 0,0)"/><path d="M 0,0
	c 11.5,-30.5 13.5,-24.4 0,-39.5
	M 0,0
	c -11.5,-30.5 -13.5,-24.4 0,-39.5
	z" fill="rgb(76,101,64)" stroke-width="1" transform="rotate(188.16 0,0)"/><path d="M 0,0
	c 11.5,-30.5 13.5,-24.4 0,-39.5
	M 0,0
	c -11.5,-30.5 -13.5,-24.4 0,-39.5
	z" fill="rgb(106,131,94)" stroke-width="1" transform="rotate(231.12 0,0)"/><path d="M 0,0
	c 11.5,-30.5 13.5,-24.4 0,-33.5
	M 0,0
	c -11.5,-30.5 -13.5,-24.4 0,-33.5
	z" fill="rgb(96,121,84)" stroke-width="1" transform="rotate(259.2 0,0)"/><path d="M 0,0
	c 11.5,-30.5 13.5,-24.4 0,-29.5
	M 0,0
	c -11.5,-30.5 -13.5,-24.4 0,-29.5
	z" fill="rgb(116,141,104)" stroke-width="1" transform="rotate(282.48 0,0)"/><path d="M 0,0
	c 11.5,-30.5 13.5,-24.4 0,-38
	M 0,0
	c -11.5,-30.5 -13.5,-24.4 0,-38
	z" fill="rgb(116,141,104)" stroke-width="1" transform="rotate(282.24 0,0)"/><path d="M 0,0
	c 11.5,-30.5 13.5,-24.4 0,-35.5
	M 0,0
	c -11.5,-30.5 -13.5,-24.4 0,-35.5
	z" fill="rgb(76,101,64)" stroke-width="1" transform="rotate(343.2 0,0)"/><path d="M 0,0
	c 11.5,-30.5 13.5,-24.4 0,-30.5
	M 0,0
	c -11.5,-30.5 -13.5,-24.4 0,-30.5
	z" fill="rgb(116,141,104)" stroke-width="1" transform="rotate(332.64 0,0)"/><circle cx="0" cy="0" r="4.9285714285714" fill="#ffb566"/><circle cx="0" cy="0" r="1.6428571428571" fill="#ffce99"/></g></defs><use xlink:href="#feuille3"
		x="166.7768" y="256.5936" 
		transform="rotate(77.1 166.7768,256.5936)"
		fill="rgb(64,47,132)" /><use xlink:href="#feuille3"
		x="163.1875" y="240.88125" 
		transform="rotate(82.5 163.1875,240.88125)"
		fill="rgb(84,67,152)" /><use xlink:href="#feuille1"
	x="191.4157" y="460.85415" 
	transform="rotate(-53  191.4157,460.85415)"
	fill="rgb(104,87,172)" /><path d="M 190 480 c 11.733333333333,-130.8 -23.466666666667,-196.2 -44,-327  " stroke="rgb(191,51,112)" stroke-width="18" fill="transparent"/><use xlink:href="#fleur1"
x="146" y="153" 
fill="Pink" /><use xlink:href="#feuille3"
		x="146.5584" y="402.8086875" 
		transform="rotate(77.3 146.5584,402.8086875)"
		fill="rgb(74,57,142)" /><use xlink:href="#feuille2"
		x="146.5584" y="402.8086875" 
		transform="rotate(-47.7 146.5584,402.8086875)"
		fill="rgb(124,107,192)" /><use xlink:href="#feuille4"
		x="146.5584" y="402.8086875" 
		transform="rotate(-70 146.5584,402.8086875)"
		fill="rgb(124,107,192)" /><use xlink:href="#feuille4"
		x="146.5584" y="402.8086875" 
		transform="rotate(88.3 146.5584,402.8086875)"
		fill="rgb(104,87,172)" /><use xlink:href="#feuille2"
		x="146.5584" y="402.8086875" 
		transform="rotate(62.9 146.5584,402.8086875)"
		fill="rgb(64,47,132)" /><use xlink:href="#feuille2"
		x="146.5584" y="402.8086875" 
		transform="rotate(91.2 146.5584,402.8086875)"
		fill="rgb(94,77,162)" /><use xlink:href="#feuille4"
		x="146.5584" y="402.8086875" 
		transform="rotate(65 146.5584,402.8086875)"
		fill="rgb(84,67,152)" /><use xlink:href="#feuille1"
	x="142.2576" y="463.5261875" 
	transform="rotate(-39  142.2576,463.5261875)"
	fill="rgb(94,77,162)" /><use xlink:href="#feuille1"
	x="142.2576" y="463.5261875" 
	transform="rotate(-34  142.2576,463.5261875)"
	fill="rgb(104,87,172)" /><use xlink:href="#feuille1"
	x="142.2576" y="463.5261875" 
	transform="rotate(39  142.2576,463.5261875)"
	fill="rgb(74,57,142)" /><path d="M 141 480 c 8.5333333333333,-119.2 14.933333333333,-44.7 -32,-149  " stroke="rgb(191,51,112)" stroke-width="16" fill="transparent"/><use xlink:href="#fleur2"
x="109" y="331" 
fill="Pink" /></svg>