<?xml version="1.0" encoding="iso-8859-1"?>
<svg version="1.1" id="Capa_1" xmlns="http://www.w3.org/2000/svg" xmlns:xlink="http://www.w3.org/1999/xlink" x="0px" y="0px"
viewBox="0 0 500 500" xml:space="preserve"><defs></defs><polygon 
stroke="rgb(65,139,96)"
fill="rgb(65,139,96)"
stroke-width="80"
stroke-linejoin="round" 
opacity="1"
points="365 , 169 343 , 202 355 , 168 360 , 178 340 , 170 343 , 150 359 , 155 388 , 169 383 , 176 367 , 176 374 , 201 345 , 162 375 , 167 386 , 203 373 , 200 367 , 199 392 , 194 376 , 173 390 , 149 397 , 174 401 , 177 386 , 195 385 , 173 372 , 176 348 , 163 362 , 174 376 , 185 398 , 152 373 , 197 ">
</polygon><polygon 
stroke="rgb(55,129,86)"
fill="rgb(55,129,86)"
stroke-width="70"
stroke-linejoin="round" 
opacity="1"
points="352 , 154 370 , 164 376 , 170 367 , 182 382 , 187 388 , 155 379 , 155 395 , 174 412 , 188 428 , 162 419 , 156 417 , 194 428 , 159 442 , 194 446 , 181 443 , 172 433 , 189 431 , 190 423 , 184 423 , 192 421 , 182 438 , 177 421 , 165 ">
</polygon><polygon 
stroke="rgb(55,129,86)"
fill="rgb(55,129,86)"
stroke-width="60"
stroke-linejoin="round" 
opacity="1"
points="341 , 183 344 , 181 339 , 174 349 , 184 347 , 169 339 , 170 346 , 178 345 , 166 345 , 171 344 , 184 336 , 182 329 , 184 323 , 182 330 , 184 327 , 169 331 , 178 331 , 173 323 , 165 ">
</polygon><polygon 
stroke="rgb(65,139,96)"
fill="rgb(65,139,96)"
stroke-width="60"
stroke-linejoin="round" 
opacity="1"
points="268.2256 , 291.3617 258.2256 , 281.3617 255.2256 , 280.3617 245.2256 , 294.3617 241.2256 , 288.3617 245.2256 , 280.3617 252.2256 , 279.3617 261.2256 , 288.3617 261.2256 , 286.3617 266.2256 , 292.3617 268.2256 , 286.3617 271.2256 , 284.3617 269.2256 , 296.3617 271.2256 , 296.3617 279.2256 , 283.3617 281.2256 , 289.3617 277.2256 , 294.3617 267.2256 , 293.3617 277.2256 , 282.3617 270.2256 , 287.3617 279.2256 , 280.3617 278.2256 , 283.3617 272.2256 , 289.3617 272.2256 , 289.3617 276.2256 , 277.3617 285.2256 , 292.3617 276.2256 , 294.3617 276.2256 , 277.3617 273.2256 , 296.3617 265.2256 , 295.3617 ">
</polygon><polygon 
stroke="rgb(75,149,106)"
fill="rgb(75,149,106)"
stroke-width="80"
stroke-linejoin="round" 
opacity="1"
points="334.6624 , 138.8233 351.6624 , 174.8233 350.6624 , 162.8233 330.6624 , 159.8233 329.6624 , 160.8233 346.6624 , 143.8233 330.6624 , 182.8233 340.6624 , 145.8233 343.6624 , 143.8233 343.6624 , 166.8233 351.6624 , 158.8233 361.6624 , 146.8233 374.6624 , 163.8233 380.6624 , 196.8233 395.6624 , 186.8233 410.6624 , 174.8233 418.6624 , 190.8233 431.6624 , 192.8233 448.6624 , 143.8233 444.6624 , 176.8233 443.6624 , 156.8233 437.6624 , 164.8233 448.6624 , 165.8233 434.6624 , 178.8233 440.6624 , 157.8233 ">
</polygon><polygon 
stroke="rgb(65,139,96)"
fill="rgb(65,139,96)"
stroke-width="70"
stroke-linejoin="round" 
opacity="1"
points="337.6624 , 147.8233 324.6624 , 176.8233 342.6624 , 161.8233 341.6624 , 148.8233 355.6624 , 166.8233 350.6624 , 164.8233 333.6624 , 173.8233 347.6624 , 170.8233 346.6624 , 181.8233 333.6624 , 163.8233 319.6624 , 148.8233 305.6624 , 162.8233 306.6624 , 173.8233 307.6624 , 147.8233 301.6624 , 152.8233 292.6624 , 172.8233 297.6624 , 186.8233 286.6624 , 186.8233 274.6624 , 152.8233 276.6624 , 181.8233 ">
</polygon><polygon 
stroke="rgb(65,139,96)"
fill="rgb(65,139,96)"
stroke-width="60"
stroke-linejoin="round" 
opacity="1"
points="332.6624 , 158.8233 334.6624 , 170.8233 339.6624 , 170.8233 332.6624 , 174.8233 329.6624 , 173.8233 333.6624 , 157.8233 338.6624 , 176.8233 338.6624 , 174.8233 345.6624 , 173.8233 350.6624 , 160.8233 352.6624 , 176.8233 353.6624 , 158.8233 363.6624 , 162.8233 370.6624 , 171.8233 363.6624 , 169.8233 359.6624 , 167.8233 366.6624 , 159.8233 375.6624 , 163.8233 366.6624 , 160.8233 357.6624 , 156.8233 366.6624 , 158.8233 370.6624 , 175.8233 363.6624 , 165.8233 ">
</polygon><polygon 
stroke="rgb(55,129,86)"
fill="rgb(55,129,86)"
stroke-width="80"
stroke-linejoin="round" 
opacity="1"
points="337.3312 , 296.1999 363.3312 , 337.1999 342.3312 , 302.1999 371.3312 , 314.1999 381.3312 , 306.1999 366.3312 , 310.1999 383.3312 , 338.1999 381.3312 , 281.1999 408.3312 , 311.1999 386.3312 , 320.1999 374.3312 , 319.1999 373.3312 , 333.1999 358.3312 , 340.1999 367.3312 , 306.1999 ">
</polygon><polygon 
stroke="rgb(75,149,106)"
fill="rgb(75,149,106)"
stroke-width="70"
stroke-linejoin="round" 
opacity="1"
points="321.3312 , 308.1999 301.3312 , 292.1999 292.3312 , 320.1999 302.3312 , 325.1999 290.3312 , 315.1999 294.3312 , 328.1999 288.3312 , 326.1999 308.3312 , 311.1999 298.3312 , 320.1999 291.3312 , 316.1999 291.3312 , 293.1999 298.3312 , 312.1999 ">
</polygon><polygon 
stroke="rgb(75,149,106)"
fill="rgb(75,149,106)"
stroke-width="60"
stroke-linejoin="round" 
opacity="1"
points="342.3312 , 315.1999 341.3312 , 301.1999 340.3312 , 308.1999 332.3312 , 312.1999 327.3312 , 308.1999 331.3312 , 307.1999 322.3312 , 312.1999 319.3312 , 318.1999 329.3312 , 304.1999 327.3312 , 309.1999 336.3312 , 309.1999 338.3312 , 306.1999 340.3312 , 312.1999 345.3312 , 309.1999 347.3312 , 319.1999 355.3312 , 301.1999 346.3312 , 304.1999 353.3312 , 313.1999 351.3312 , 315.1999 ">
</polygon><polygon 
stroke="rgb(65,139,96)"
fill="rgb(65,139,96)"
stroke-width="80"
stroke-linejoin="round" 
opacity="1"
points="258.3648 , 286.0256 251.3648 , 242.0256 234.3648 , 242.0256 223.3648 , 253.0256 253.3648 , 259.0256 237.3648 , 255.0256 261.3648 , 272.0256 242.3648 , 260.0256 272.3648 , 240.0256 271.3648 , 254.0256 299.3648 , 263.0256 329.3648 , 276.0256 349.3648 , 245.0256 343.3648 , 234.0256 363.3648 , 246.0256 377.3648 , 276.0256 407.3648 , 281.0256 392.3648 , 251.0256 391.3648 , 238.0256 384.3648 , 266.0256 409.3648 , 226.0256 397.3648 , 276.0256 394.3648 , 235.0256 416.3648 , 279.0256 423.3648 , 227.0256 447.3648 , 247.0256 435.3648 , 268.0256 ">
</polygon><polygon 
stroke="rgb(55,129,86)"
fill="rgb(55,129,86)"
stroke-width="70"
stroke-linejoin="round" 
opacity="1"
points="281.3648 , 260.0256 282.3648 , 256.0256 291.3648 , 268.0256 283.3648 , 246.0256 284.3648 , 262.0256 284.3648 , 247.0256 302.3648 , 254.0256 308.3648 , 245.0256 288.3648 , 252.0256 287.3648 , 250.0256 268.3648 , 275.0256 288.3648 , 246.0256 298.3648 , 275.0256 290.3648 , 252.0256 277.3648 , 261.0256 283.3648 , 275.0256 281.3648 , 256.0256 276.3648 , 269.0256 284.3648 , 238.0256 278.3648 , 238.0256 284.3648 , 249.0256 270.3648 , 238.0256 289.3648 , 254.0256 ">
</polygon><polygon 
stroke="rgb(55,129,86)"
fill="rgb(55,129,86)"
stroke-width="60"
stroke-linejoin="round" 
opacity="1"
points="260.3648 , 258.0256 266.3648 , 247.0256 272.3648 , 249.0256 280.3648 , 246.0256 287.3648 , 262.0256 294.3648 , 255.0256 298.3648 , 249.0256 290.3648 , 249.0256 288.3648 , 264.0256 280.3648 , 265.0256 273.3648 , 246.0256 269.3648 , 252.0256 266.3648 , 259.0256 262.3648 , 264.0256 259.3648 , 259.0256 266.3648 , 249.0256 267.3648 , 254.0256 276.3648 , 246.0256 ">
</polygon><polygon 
stroke="rgb(65,139,96)"
fill="rgb(65,139,96)"
stroke-width="80"
stroke-linejoin="round" 
opacity="1"
points="168.2256 , 270.3617 167.2256 , 287.3617 194.2256 , 246.3617 182.2256 , 271.3617 173.2256 , 265.3617 193.2256 , 241.3617 199.2256 , 278.3617 179.2256 , 268.3617 194.2256 , 254.3617 216.2256 , 256.3617 192.2256 , 237.3617 190.2256 , 237.3617 161.2256 , 287.3617 180.2256 , 257.3617 164.2256 , 259.3617 185.2256 , 238.3617 ">
</polygon><polygon 
stroke="rgb(55,129,86)"
fill="rgb(55,129,86)"
stroke-width="70"
stroke-linejoin="round" 
opacity="1"
points="182.2256 , 268.3617 177.2256 , 270.3617 167.2256 , 244.3617 153.2256 , 272.3617 147.2256 , 242.3617 130.2256 , 245.3617 129.2256 , 277.3617 142.2256 , 250.3617 126.2256 , 279.3617 139.2256 , 275.3617 147.2256 , 270.3617 156.2256 , 280.3617 174.2256 , 271.3617 191.2256 , 265.3617 210.2256 , 246.3617 205.2256 , 270.3617 224.2256 , 275.3617 205.2256 , 244.3617 209.2256 , 244.3617 219.2256 , 273.3617 207.2256 , 279.3617 220.2256 , 261.3617 208.2256 , 267.3617 200.2256 , 272.3617 191.2256 , 272.3617 ">
</polygon><polygon 
stroke="rgb(65,139,96)"
fill="rgb(65,139,96)"
stroke-width="60"
stroke-linejoin="round" 
opacity="1"
points="173.2256 , 256.3617 165.2256 , 255.3617 159.2256 , 269.3617 162.2256 , 257.3617 152.2256 , 271.3617 156.2256 , 258.3617 146.2256 , 271.3617 137.2256 , 260.3617 142.2256 , 268.3617 144.2256 , 271.3617 142.2256 , 264.3617 133.2256 , 261.3617 137.2256 , 272.3617 129.2256 , 260.3617 122.2256 , 254.3617 131.2256 , 264.3617 128.2256 , 256.3617 133.2256 , 272.3617 141.2256 , 260.3617 137.2256 , 257.3617 127.2256 , 271.3617 137.2256 , 255.3617 143.2256 , 254.3617 144.2256 , 272.3617 ">
</polygon><polygon 
stroke="rgb(65,139,96)"
fill="rgb(65,139,96)"
stroke-width="80"
stroke-linejoin="round" 
opacity="1"
points="416.3296 , 258.8672 425.3296 , 255.8672 409.3296 , 269.8672 428.3296 , 244.8672 401.3296 , 250.8672 402.3296 , 220.8672 381.3296 , 249.8672 371.3296 , 271.8672 398.3296 , 224.8672 421.3296 , 240.8672 413.3296 , 243.8672 414.3296 , 274.8672 405.3296 , 241.8672 411.3296 , 267.8672 384.3296 , 268.8672 378.3296 , 249.8672 400.3296 , 241.8672 ">
</polygon><polygon 
stroke="rgb(75,149,106)"
fill="rgb(75,149,106)"
stroke-width="70"
stroke-linejoin="round" 
opacity="1"
points="434.3296 , 255.8672 438.3296 , 239.8672 445.3296 , 259.8672 448.3296 , 259.8672 441.3296 , 244.8672 446.3296 , 265.8672 432.3296 , 245.8672 438.3296 , 245.8672 433.3296 , 234.8672 424.3296 , 241.8672 439.3296 , 268.8672 437.3296 , 233.8672 448.3296 , 246.8672 446.3296 , 258.8672 442.3296 , 258.8672 432.3296 , 238.8672 426.3296 , 269.8672 429.3296 , 258.8672 410.3296 , 255.8672 408.3296 , 232.8672 397.3296 , 237.8672 399.3296 , 245.8672 407.3296 , 269.8672 414.3296 , 237.8672 395.3296 , 260.8672 385.3296 , 264.8672 400.3296 , 266.8672 410.3296 , 268.8672 ">
</polygon><polygon 
stroke="rgb(75,149,106)"
fill="rgb(75,149,106)"
stroke-width="60"
stroke-linejoin="round" 
opacity="1"
points="409.3296 , 252.8672 409.3296 , 244.8672 416.3296 , 254.8672 416.3296 , 243.8672 421.3296 , 253.8672 412.3296 , 243.8672 418.3296 , 250.8672 412.3296 , 250.8672 413.3296 , 255.8672 409.3296 , 256.8672 417.3296 , 256.8672 411.3296 , 243.8672 410.3296 , 250.8672 407.3296 , 249.8672 413.3296 , 240.8672 ">
</polygon><polygon 
stroke="rgb(65,139,96)"
fill="rgb(65,139,96)"
stroke-width="80"
stroke-linejoin="round" 
opacity="1"
points="324 , 362.3 308 , 321.3 306 , 321.3 333 , 331.3 321 , 350.3 292 , 329.3 322 , 381.3 340 , 379.3 364 , 337.3 391 , 351.3 385 , 365.3 406 , 333.3 398 , 370.3 395 , 327.3 385 , 332.3 366 , 352.3 394 , 365.3 413 , 351.3 394 , 328.3 377 , 365.3 394 , 381.3 403 , 345.3 431 , 334.3 442 , 336.3 448 , 351.3 ">
</polygon><polygon 
stroke="rgb(55,129,86)"
fill="rgb(55,129,86)"
stroke-width="70"
stroke-linejoin="round" 
opacity="1"
points="319 , 349.3 329 , 370.3 326 , 342.3 329 , 356.3 312 , 335.3 305 , 352.3 301 , 334.3 314 , 356.3 299 , 333.3 291 , 340.3 288 , 332.3 304 , 363.3 297 , 350.3 298 , 355.3 301 , 360.3 ">
</polygon><polygon 
stroke="rgb(75,149,106)"
fill="rgb(75,149,106)"
stroke-width="60"
stroke-linejoin="round" 
opacity="1"
points="303 , 351.3 308 , 344.3 300 , 355.3 306 , 352.3 311 , 351.3 304 , 354.3 310 , 347.3 301 , 353.3 309 , 358.3 300 , 354.3 303 , 350.3 301 , 349.3 293 , 358.3 ">
</polygon><polygon 
stroke="rgb(75,149,106)"
fill="rgb(75,149,106)"
stroke-width="80"
stroke-linejoin="round" 
opacity="1"
points="268.3296 , 183.8672 271.3296 , 179.8672 272.3296 , 219.8672 293.3296 , 178.8672 296.3296 , 213.8672 287.3296 , 191.8672 287.3296 , 199.8672 314.3296 , 219.8672 322.3296 , 185.8672 300.3296 , 178.8672 328.3296 , 186.8672 334.3296 , 202.8672 305.3296 , 182.8672 294.3296 , 186.8672 301.3296 , 221.8672 305.3296 , 207.8672 317.3296 , 197.8672 298.3296 , 189.8672 314.3296 , 179.8672 326.3296 , 185.8672 319.3296 , 179.8672 301.3296 , 204.8672 320.3296 , 184.8672 322.3296 , 195.8672 337.3296 , 166.8672 343.3296 , 181.8672 331.3296 , 215.8672 ">
</polygon><polygon 
stroke="rgb(55,129,86)"
fill="rgb(55,129,86)"
stroke-width="80"
stroke-linejoin="round" 
opacity="1"
points="378.7408 , 197.1651 370.7408 , 247.1651 359.7408 , 253.1651 375.7408 , 198.1651 360.7408 , 220.1651 351.7408 , 207.1651 367.7408 , 238.1651 387.7408 , 235.1651 383.7408 , 223.1651 367.7408 , 215.1651 393.7408 , 215.1651 396.7408 , 242.1651 404.7408 , 198.1651 418.7408 , 239.1651 400.7408 , 217.1651 429.7408 , 220.1651 ">
</polygon><polygon 
stroke="rgb(65,139,96)"
fill="rgb(65,139,96)"
stroke-width="70"
stroke-linejoin="round" 
opacity="1"
points="390.7408 , 243.1651 377.7408 , 241.1651 360.7408 , 224.1651 371.7408 , 211.1651 357.7408 , 212.1651 376.7408 , 218.1651 388.7408 , 233.1651 382.7408 , 228.1651 401.7408 , 240.1651 414.7408 , 228.1651 413.7408 , 206.1651 432.7408 , 219.1651 425.7408 , 217.1651 444.7408 , 229.1651 446.7408 , 228.1651 440.7408 , 209.1651 442.7408 , 242.1651 435.7408 , 221.1651 433.7408 , 233.1651 435.7408 , 233.1651 422.7408 , 212.1651 415.7408 , 231.1651 411.7408 , 230.1651 411.7408 , 242.1651 ">
</polygon><path d="M 240 480 c 12.8,-102 83.2,-163.2 96,-306 
C 375.2,344.8 304.8,406 294,480
 " stroke="rgb(103,189,181)" stroke-linejoin="arcs"  stroke-width="5" fill="rgb(103,189,181)"/><path d="M 294.2256 328.3617 c -21,-10.933333333333 -21,-5.4666666666667 -21,-41 
C 275.3256,328.02003333333 275.3256,322.55336666667 288,342.3
 " stroke="rgb(103,189,181)" stroke-linejoin="arcs"  stroke-width="5" fill="rgb(103,189,181)"/><path d="M 333.6624 194.8233 c -0.93333333333333,-3.7333333333333 -1.2,-7.4666666666667 -2,-28 
C 332.6624,190.85663333333 332.92906666667,194.58996666667 330.5472,214.5144
 " stroke="rgb(103,189,181)" stroke-linejoin="arcs"  stroke-width="5" fill="rgb(103,189,181)"/><path d="M 306.3312 299.1999 c 30.8,1.4666666666667 19.8,2.2 33,11 
C 329.4312,302.7749 340.4312,302.04156666667 300.3648,314.0256
 " stroke="rgb(103,189,181)" stroke-linejoin="arcs"  stroke-width="5" fill="rgb(103,189,181)"/><path d="M 300.3648 314.0256 c -26.4,-30.933333333333 -24.2,-30.933333333333 -33,-58 
C 279.4648,290.34226666667 277.2648,290.34226666667 294.2256,328.3617
 " stroke="rgb(103,189,181)" stroke-linejoin="arcs"  stroke-width="5" fill="rgb(103,189,181)"/><path d="M 294.2256 328.3617 c -115,-35.2 -15.333333333333,-13.2 -115,-66 
C 290.39226666667,323.4117 190.7256,301.4117 288,342.3
 " stroke="rgb(103,189,181)" stroke-linejoin="arcs"  stroke-width="5" fill="rgb(103,189,181)"/><path d="M 322.3296 250.8672 c 86.8,-0.4 74.4,-0.13333333333333 93,-1 
C 406.0296,250.85886666667 418.4296,250.5922 317.4,267.7125
 " stroke="rgb(103,189,181)" stroke-linejoin="arcs"  stroke-width="5" fill="rgb(103,189,181)"/><path d="M 288 342.3 c 8,3.6 12,1.2 15,9 
C 301.5,344.625 297.5,347.025 281.7744,355.9323
 " stroke="rgb(103,189,181)" stroke-linejoin="arcs"  stroke-width="5" fill="rgb(103,189,181)"/><path d="M 322.3296 250.8672 c -9.4666666666667,-7.3333333333333 -47.333333333333,-22 -71,-55 
C 282.09626666667,235.7422 319.96293333333,250.40886666667 317.4,267.7125
 " stroke="rgb(103,189,181)" stroke-linejoin="arcs"  stroke-width="5" fill="rgb(103,189,181)"/><path d="M 326.7408 233.1651 c 21.466666666667,-1.0666666666667 30.666666666667,-1.0666666666667 46,-8 
C 362.00746666667,233.09843333333 352.80746666667,233.09843333333 322.3296,250.8672
 " stroke="rgb(103,189,181)" stroke-linejoin="arcs"  stroke-width="5" fill="rgb(103,189,181)"/><polygon 
stroke="rgb(75,149,106)"
fill="rgb(75,149,106)"
stroke-width="80"
stroke-linejoin="round" 
opacity="1"
points="287.2256 , 304.3617 304.2256 , 302.3617 304.2256 , 300.3617 334.2256 , 293.3617 364.2256 , 277.3617 350.2256 , 311.3617 333.2256 , 298.3617 348.2256 , 287.3617 361.2256 , 268.3617 348.2256 , 276.3617 325.2256 , 271.3617 328.2256 , 260.3617 355.2256 , 303.3617 358.2256 , 309.3617 341.2256 , 282.3617 371.2256 , 274.3617 343.2256 , 294.3617 325.2256 , 284.3617 355.2256 , 295.3617 349.2256 , 261.3617 338.2256 , 293.3617 315.2256 , 284.3617 ">
</polygon><polygon 
stroke="rgb(65,139,96)"
fill="rgb(65,139,96)"
stroke-width="70"
stroke-linejoin="round" 
opacity="1"
points="263.2256 , 278.3617 283.2256 , 297.3617 289.2256 , 277.3617 286.2256 , 291.3617 296.2256 , 292.3617 310.2256 , 288.3617 325.2256 , 287.3617 340.2256 , 291.3617 335.2256 , 304.3617 342.2256 , 305.3617 358.2256 , 277.3617 375.2256 , 267.3617 389.2256 , 301.3617 396.2256 , 304.3617 407.2256 , 283.3617 425.2256 , 307.3617 405.2256 , 291.3617 403.2256 , 280.3617 403.2256 , 275.3617 393.2256 , 273.3617 389.2256 , 280.3617 406.2256 , 277.3617 402.2256 , 305.3617 395.2256 , 291.3617 401.2256 , 296.3617 407.2256 , 272.3617 409.2256 , 299.3617 411.2256 , 306.3617 ">
</polygon><polygon 
stroke="rgb(75,149,106)"
fill="rgb(75,149,106)"
stroke-width="70"
stroke-linejoin="round" 
opacity="1"
points="248.3296 , 190.8672 253.3296 , 208.8672 271.3296 , 177.8672 280.3296 , 194.8672 287.3296 , 209.8672 294.3296 , 209.8672 300.3296 , 209.8672 312.3296 , 175.8672 330.3296 , 197.8672 312.3296 , 177.8672 ">
</polygon><polygon 
stroke="rgb(75,149,106)"
fill="rgb(75,149,106)"
stroke-width="60"
stroke-linejoin="round" 
opacity="1"
points="250.3296 , 202.8672 243.3296 , 195.8672 241.3296 , 203.8672 241.3296 , 198.8672 250.3296 , 201.8672 247.3296 , 188.8672 256.3296 , 202.8672 265.3296 , 196.8672 267.3296 , 198.8672 267.3296 , 193.8672 272.3296 , 194.8672 263.3296 , 192.8672 266.3296 , 198.8672 261.3296 , 186.8672 257.3296 , 205.8672 ">
</polygon><polygon 
stroke="rgb(75,149,106)"
fill="rgb(75,149,106)"
stroke-width="60"
stroke-linejoin="round" 
opacity="1"
points="377.7408 , 234.1651 371.7408 , 219.1651 381.7408 , 220.1651 390.7408 , 228.1651 390.7408 , 226.1651 384.7408 , 222.1651 380.7408 , 230.1651 386.7408 , 217.1651 376.7408 , 235.1651 371.7408 , 221.1651 380.7408 , 218.1651 376.7408 , 218.1651 370.7408 , 234.1651 377.7408 , 231.1651 375.7408 , 234.1651 380.7408 , 227.1651 388.7408 , 233.1651 389.7408 , 218.1651 389.7408 , 215.1651 379.7408 , 219.1651 383.7408 , 224.1651 377.7408 , 230.1651 372.7408 , 235.1651 377.7408 , 230.1651 375.7408 , 219.1651 ">
</polygon></svg>