<?xml version="1.0" encoding="iso-8859-1"?>
<svg version="1.1" id="Capa_1" xmlns="http://www.w3.org/2000/svg" xmlns:xlink="http://www.w3.org/1999/xlink" x="0px" y="0px"
viewBox="0 0 500 500" xml:space="preserve"><defs></defs><polygon 
stroke="rgb(69,86,45)"
fill="rgb(69,86,45)"
stroke-width="80"
stroke-linejoin="round" 
opacity="1"
points="321 , 191 349 , 155 336 , 183 328 , 152 307 , 159 312 , 159 282 , 136 266 , 139 276 , 191 277 , 154 266 , 188 253 , 149 277 , 174 ">
</polygon><polygon 
stroke="rgb(69,86,45)"
fill="rgb(69,86,45)"
stroke-width="60"
stroke-linejoin="round" 
opacity="1"
points="315 , 162 325 , 166 324 , 156 322 , 155 327 , 158 322 , 164 325 , 157 333 , 166 329 , 174 325 , 161 325 , 166 318 , 171 312 , 161 308 , 161 316 , 174 319 , 173 318 , 156 315 , 166 309 , 164 307 , 167 298 , 173 288 , 161 ">
</polygon><polygon 
stroke="rgb(79,96,55)"
fill="rgb(79,96,55)"
stroke-width="80"
stroke-linejoin="round" 
opacity="1"
points="266.05 , 330.5 249.05 , 311.5 237.05 , 297.5 221.05 , 328.5 239.05 , 291.5 249.05 , 306.5 243.05 , 321.5 256.05 , 333.5 275.05 , 321.5 280.05 , 325.5 269.05 , 331.5 297.05 , 294.5 294.05 , 347.5 314.05 , 350.5 303.05 , 318.5 305.05 , 339.5 334.05 , 334.5 343.05 , 292.5 327.05 , 341.5 311.05 , 296.5 286.05 , 313.5 286.05 , 313.5 ">
</polygon><polygon 
stroke="rgb(79,96,55)"
fill="rgb(79,96,55)"
stroke-width="70"
stroke-linejoin="round" 
opacity="1"
points="255.05 , 326.5 235.05 , 318.5 233.05 , 327.5 246.05 , 321.5 262.05 , 335.5 249.05 , 314.5 266.05 , 316.5 274.05 , 336.5 273.05 , 326.5 264.05 , 316.5 ">
</polygon><polygon 
stroke="rgb(79,96,55)"
fill="rgb(79,96,55)"
stroke-width="60"
stroke-linejoin="round" 
opacity="1"
points="242.05 , 324.5 234.05 , 311.5 226.05 , 310.5 219.05 , 313.5 213.05 , 327.5 208.05 , 312.5 211.05 , 317.5 220.05 , 329.5 222.05 , 327.5 227.05 , 310.5 229.05 , 315.5 226.05 , 314.5 233.05 , 311.5 232.05 , 312.5 235.05 , 312.5 230.05 , 315.5 224.05 , 325.5 216.05 , 319.5 212.05 , 314.5 216.05 , 311.5 207.05 , 327.5 197.05 , 310.5 205.05 , 320.5 210.05 , 319.5 201.05 , 326.5 191.05 , 311.5 183.05 , 323.5 ">
</polygon><polygon 
stroke="rgb(69,86,45)"
fill="rgb(69,86,45)"
stroke-width="80"
stroke-linejoin="round" 
opacity="1"
points="287.9125 , 266.6625 261.9125 , 225.6625 242.9125 , 235.6625 218.9125 , 273.6625 212.9125 , 268.6625 191.9125 , 271.6625 171.9125 , 271.6625 165.9125 , 265.6625 154.9125 , 271.6625 144.9125 , 280.6625 136.9125 , 273.6625 138.9125 , 242.6625 117.9125 , 235.6625 130.9125 , 256.6625 144.9125 , 244.6625 148.9125 , 252.6625 ">
</polygon><polygon 
stroke="rgb(79,96,55)"
fill="rgb(79,96,55)"
stroke-width="70"
stroke-linejoin="round" 
opacity="1"
points="276.9125 , 234.6625 293.9125 , 270.6625 292.9125 , 263.6625 290.9125 , 243.6625 303.9125 , 246.6625 316.9125 , 260.6625 302.9125 , 267.6625 286.9125 , 239.6625 303.9125 , 260.6625 299.9125 , 257.6625 307.9125 , 260.6625 303.9125 , 245.6625 323.9125 , 240.6625 303.9125 , 259.6625 286.9125 , 252.6625 ">
</polygon><polygon 
stroke="rgb(89,106,65)"
fill="rgb(89,106,65)"
stroke-width="80"
stroke-linejoin="round" 
opacity="1"
points="245.008 , 270.8032 216.008 , 315.8032 205.008 , 298.8032 190.008 , 312.8032 163.008 , 275.8032 179.008 , 281.8032 190.008 , 301.8032 187.008 , 274.8032 197.008 , 268.8032 212.008 , 282.8032 209.008 , 323.8032 230.008 , 273.8032 212.008 , 271.8032 223.008 , 327.8032 216.008 , 319.8032 234.008 , 298.8032 209.008 , 323.8032 194.008 , 272.8032 169.008 , 313.8032 176.008 , 306.8032 193.008 , 272.8032 196.008 , 295.8032 179.008 , 309.8032 151.008 , 322.8032 129.008 , 272.8032 103.008 , 320.8032 84.008 , 278.8032 81.008 , 304.8032 82.008 , 276.8032 ">
</polygon><polygon 
stroke="rgb(89,106,65)"
fill="rgb(89,106,65)"
stroke-width="70"
stroke-linejoin="round" 
opacity="1"
points="211.008 , 291.8032 194.008 , 297.8032 199.008 , 298.8032 217.008 , 304.8032 199.008 , 287.8032 204.008 , 303.8032 188.008 , 291.8032 190.008 , 312.8032 181.008 , 293.8032 170.008 , 293.8032 181.008 , 282.8032 161.008 , 308.8032 179.008 , 285.8032 186.008 , 314.8032 170.008 , 311.8032 154.008 , 297.8032 142.008 , 291.8032 134.008 , 289.8032 130.008 , 304.8032 150.008 , 306.8032 155.008 , 309.8032 148.008 , 282.8032 143.008 , 295.8032 126.008 , 284.8032 126.008 , 292.8032 131.008 , 299.8032 137.008 , 317.8032 128.008 , 305.8032 111.008 , 312.8032 108.008 , 285.8032 ">
</polygon><polygon 
stroke="rgb(89,106,65)"
fill="rgb(89,106,65)"
stroke-width="60"
stroke-linejoin="round" 
opacity="1"
points="237.3805 , 300.3883 244.3805 , 308.3883 235.3805 , 303.3883 241.3805 , 306.3883 235.3805 , 316.3883 234.3805 , 307.3883 244.3805 , 313.3883 235.3805 , 317.3883 233.3805 , 312.3883 240.3805 , 318.3883 233.3805 , 312.3883 233.3805 , 306.3883 228.3805 , 302.3883 230.3805 , 316.3883 238.3805 , 305.3883 240.3805 , 315.3883 243.3805 , 303.3883 249.3805 , 317.3883 250.3805 , 305.3883 242.3805 , 309.3883 250.3805 , 312.3883 260.3805 , 305.3883 264.3805 , 307.3883 269.3805 , 303.3883 261.3805 , 299.3883 270.3805 , 309.3883 280.3805 , 302.3883 282.3805 , 309.3883 276.3805 , 312.3883 ">
</polygon><polygon 
stroke="rgb(69,86,45)"
fill="rgb(69,86,45)"
stroke-width="80"
stroke-linejoin="round" 
opacity="1"
points="201.3805 , 276.3883 227.3805 , 308.3883 242.3805 , 270.3883 264.3805 , 308.3883 283.3805 , 285.3883 305.3805 , 289.3883 294.3805 , 304.3883 294.3805 , 288.3883 302.3805 , 316.3883 327.3805 , 277.3883 340.3805 , 312.3883 347.3805 , 269.3883 330.3805 , 303.3883 317.3805 , 275.3883 346.3805 , 291.3883 359.3805 , 312.3883 339.3805 , 316.3883 334.3805 , 319.3883 331.3805 , 284.3883 361.3805 , 286.3883 ">
</polygon><polygon 
stroke="rgb(89,106,65)"
fill="rgb(89,106,65)"
stroke-width="60"
stroke-linejoin="round" 
opacity="1"
points="235.3805 , 304.3883 234.3805 , 288.3883 244.3805 , 291.3883 252.3805 , 305.3883 246.3805 , 295.3883 254.3805 , 295.3883 244.3805 , 285.3883 244.3805 , 304.3883 251.3805 , 296.3883 246.3805 , 305.3883 245.3805 , 285.3883 250.3805 , 295.3883 254.3805 , 302.3883 252.3805 , 288.3883 243.3805 , 293.3883 252.3805 , 288.3883 247.3805 , 296.3883 250.3805 , 290.3883 243.3805 , 302.3883 251.3805 , 301.3883 261.3805 , 288.3883 265.3805 , 289.3883 266.3805 , 296.3883 261.3805 , 296.3883 264.3805 , 288.3883 268.3805 , 295.3883 ">
</polygon><polygon 
stroke="rgb(79,96,55)"
fill="rgb(79,96,55)"
stroke-width="80"
stroke-linejoin="round" 
opacity="1"
points="257.008 , 324.8032 283.008 , 313.8032 296.008 , 344.8032 313.008 , 301.8032 337.008 , 326.8032 320.008 , 297.8032 322.008 , 315.8032 327.008 , 340.8032 340.008 , 302.8032 333.008 , 339.8032 318.008 , 313.8032 321.008 , 305.8032 331.008 , 320.8032 308.008 , 318.8032 304.008 , 315.8032 298.008 , 319.8032 293.008 , 321.8032 279.008 , 345.8032 294.008 , 352.8032 296.008 , 335.8032 294.008 , 319.8032 312.008 , 296.8032 336.008 , 303.8032 362.008 , 310.8032 391.008 , 295.8032 ">
</polygon><polygon 
stroke="rgb(79,96,55)"
fill="rgb(79,96,55)"
stroke-width="60"
stroke-linejoin="round" 
opacity="1"
points="245.008 , 333.8032 249.008 , 328.8032 244.008 , 315.8032 238.008 , 329.8032 238.008 , 322.8032 232.008 , 317.8032 233.008 , 323.8032 241.008 , 317.8032 243.008 , 319.8032 236.008 , 323.8032 242.008 , 322.8032 ">
</polygon><polygon 
stroke="rgb(79,96,55)"
fill="rgb(79,96,55)"
stroke-width="80"
stroke-linejoin="round" 
opacity="1"
points="360.072 , 181.4464 349.072 , 203.4464 327.072 , 192.4464 302.072 , 189.4464 274.072 , 202.4464 289.072 , 175.4464 283.072 , 178.4464 310.072 , 191.4464 338.072 , 203.4464 349.072 , 181.4464 357.072 , 213.4464 329.072 , 184.4464 309.072 , 160.4464 285.072 , 176.4464 275.072 , 192.4464 261.072 , 214.4464 ">
</polygon><polygon 
stroke="rgb(69,86,45)"
fill="rgb(69,86,45)"
stroke-width="70"
stroke-linejoin="round" 
opacity="1"
points="350.072 , 204.4464 357.072 , 189.4464 337.072 , 168.4464 318.072 , 187.4464 332.072 , 193.4464 340.072 , 186.4464 341.072 , 200.4464 340.072 , 201.4464 351.072 , 195.4464 366.072 , 187.4464 351.072 , 179.4464 341.072 , 185.4464 348.072 , 191.4464 335.072 , 183.4464 329.072 , 196.4464 323.072 , 198.4464 325.072 , 185.4464 317.072 , 195.4464 302.072 , 172.4464 302.072 , 167.4464 318.072 , 171.4464 328.072 , 183.4464 347.072 , 168.4464 361.072 , 176.4464 ">
</polygon><polygon 
stroke="rgb(69,86,45)"
fill="rgb(69,86,45)"
stroke-width="60"
stroke-linejoin="round" 
opacity="1"
points="362.072 , 175.4464 370.072 , 188.4464 368.072 , 190.4464 364.072 , 183.4464 373.072 , 180.4464 373.072 , 187.4464 382.072 , 193.4464 385.072 , 180.4464 392.072 , 184.4464 397.072 , 180.4464 397.072 , 194.4464 394.072 , 181.4464 403.072 , 192.4464 ">
</polygon><polygon 
stroke="rgb(79,96,55)"
fill="rgb(79,96,55)"
stroke-width="70"
stroke-linejoin="round" 
opacity="1"
points="233.178 , 149.5448 223.178 , 128.5448 226.178 , 119.5448 237.178 , 139.5448 221.178 , 143.5448 234.178 , 143.5448 243.178 , 143.5448 251.178 , 154.5448 249.178 , 124.5448 238.178 , 148.5448 232.178 , 144.5448 213.178 , 127.5448 196.178 , 120.5448 201.178 , 147.5448 195.178 , 154.5448 195.178 , 157.5448 203.178 , 135.5448 200.178 , 150.5448 185.178 , 120.5448 181.178 , 119.5448 169.178 , 122.5448 156.178 , 151.5448 158.178 , 150.5448 145.178 , 129.5448 157.178 , 124.5448 166.178 , 125.5448 148.178 , 151.5448 149.178 , 132.5448 141.178 , 136.5448 ">
</polygon><polygon 
stroke="rgb(69,86,45)"
fill="rgb(69,86,45)"
stroke-width="60"
stroke-linejoin="round" 
opacity="1"
points="223.178 , 148.5448 217.178 , 140.5448 218.178 , 132.5448 220.178 , 147.5448 210.178 , 137.5448 207.178 , 147.5448 210.178 , 141.5448 204.178 , 143.5448 203.178 , 146.5448 211.178 , 133.5448 216.178 , 131.5448 215.178 , 130.5448 224.178 , 129.5448 220.178 , 138.5448 219.178 , 137.5448 218.178 , 135.5448 ">
</polygon><polygon 
stroke="rgb(69,86,45)"
fill="rgb(69,86,45)"
stroke-width="80"
stroke-linejoin="round" 
opacity="1"
points="291.072 , 227.4464 267.072 , 257.4464 256.072 , 238.4464 263.072 , 233.4464 236.072 , 263.4464 258.072 , 254.4464 286.072 , 249.4464 273.072 , 223.4464 274.072 , 258.4464 275.072 , 226.4464 290.072 , 231.4464 293.072 , 226.4464 270.072 , 250.4464 295.072 , 214.4464 286.072 , 210.4464 275.072 , 264.4464 299.072 , 218.4464 313.072 , 259.4464 286.072 , 252.4464 301.072 , 214.4464 281.072 , 247.4464 264.072 , 226.4464 ">
</polygon><polygon 
stroke="rgb(79,96,55)"
fill="rgb(79,96,55)"
stroke-width="70"
stroke-linejoin="round" 
opacity="1"
points="305.072 , 219.4464 309.072 , 236.4464 320.072 , 222.4464 316.072 , 237.4464 306.072 , 247.4464 308.072 , 231.4464 299.072 , 248.4464 286.072 , 253.4464 269.072 , 232.4464 283.072 , 246.4464 298.072 , 225.4464 298.072 , 244.4464 281.072 , 219.4464 263.072 , 253.4464 276.072 , 255.4464 ">
</polygon><polygon 
stroke="rgb(69,86,45)"
fill="rgb(69,86,45)"
stroke-width="60"
stroke-linejoin="round" 
opacity="1"
points="304.072 , 233.4464 312.072 , 235.4464 313.072 , 240.4464 303.072 , 226.4464 304.072 , 229.4464 305.072 , 225.4464 314.072 , 237.4464 321.072 , 228.4464 329.072 , 231.4464 337.072 , 238.4464 336.072 , 227.4464 ">
</polygon><path d="M 240 480 c 28.4,-42.133333333333 52.066666666667,-168.53333333333 71,-316 
C 347.06666666667,332.46666666667 323.4,458.86666666667 299,480
 " stroke="rgb(109,190,159)" stroke-linejoin="arcs"  stroke-width="5" fill="rgb(109,190,159)"/><path d="M 279.05 361.5 c -22,-19.133333333333 -10,-5.4666666666667 -30,-41 
C 272.05,361.15833333333 260.05,347.49166666667 275.4645,377.6871
 " stroke="rgb(109,190,159)" stroke-linejoin="arcs"  stroke-width="5" fill="rgb(109,190,159)"/><path d="M 295.9125 269.6625 c -18,-5.3333333333333 -4.8,-3.2 -18,-16 
C 292.9125,268.4625 279.7125,266.32916666667 292.682,289.3256
 " stroke="rgb(109,190,159)" stroke-linejoin="arcs"  stroke-width="5" fill="rgb(109,190,159)"/><path d="M 286.008 326.8032 c -56,-14.933333333333 -33.6,-11.2 -56,-28 
C 258.008,319.1032 235.608,315.36986666667 282.5645,344.5229
 " stroke="rgb(109,190,159)" stroke-linejoin="arcs"  stroke-width="5" fill="rgb(109,190,159)"/><path d="M 289.3805 308.3883 c -40.8,0.4 -20.4,0.46666666666667 -51,1 
C 274.0805,308.97996666667 253.6805,308.9133 286.008,326.8032
 " stroke="rgb(109,190,159)" stroke-linejoin="arcs"  stroke-width="5" fill="rgb(109,190,159)"/><path d="M 289.3805 308.3883 c -31.466666666667,-2.6 -59,-5.2 -59,-13 
C 236.2805,304.8133 263.81383333333,307.4133 286.008,326.8032
 " stroke="rgb(109,190,159)" stroke-linejoin="arcs"  stroke-width="5" fill="rgb(109,190,159)"/><path d="M 286.008 326.8032 c -2.7333333333333,-0.53333333333333 -10.933333333333,-0.93333333333333 -41,-2 
C 279.17466666667,326.11986666667 287.37466666667,326.51986666667 282.5645,344.5229
 " stroke="rgb(109,190,159)" stroke-linejoin="arcs"  stroke-width="5" fill="rgb(109,190,159)"/><path d="M 299.072 249.4464 c 21.2,-17.066666666667 24.733333333333,-21.333333333333 53,-64 
C 329.10533333333,236.11306666667 325.572,240.37973333333 295.9125,269.6625
 " stroke="rgb(109,190,159)" stroke-linejoin="arcs"  stroke-width="5" fill="rgb(109,190,159)"/><path d="M 305.178 207.5448 c -22.133333333333,-36.266666666667 -33.2,-18.133333333333 -83,-68 
C 280.278,197.91146666667 291.34466666667,179.77813333333 302.1605,228.7247
 " stroke="rgb(109,190,159)" stroke-linejoin="arcs"  stroke-width="5" fill="rgb(109,190,159)"/><path d="M 299.072 249.4464 c 2.6666666666667,-1.8666666666667 3,-2.8 5,-14 
C 302.572,248.3964 302.23866666667,249.32973333333 295.9125,269.6625
 " stroke="rgb(109,190,159)" stroke-linejoin="arcs"  stroke-width="5" fill="rgb(109,190,159)"/><polygon 
stroke="rgb(69,86,45)"
fill="rgb(69,86,45)"
stroke-width="70"
stroke-linejoin="round" 
opacity="1"
points="311 , 149 329 , 178 330 , 150 319 , 170 330 , 177 330 , 148 319 , 158 310 , 155 305 , 167 313 , 157 ">
</polygon><polygon 
stroke="rgb(79,96,55)"
fill="rgb(79,96,55)"
stroke-width="60"
stroke-linejoin="round" 
opacity="1"
points="271.9125 , 263.6625 281.9125 , 243.6625 277.9125 , 248.6625 285.9125 , 250.6625 287.9125 , 247.6625 282.9125 , 252.6625 290.9125 , 262.6625 297.9125 , 255.6625 302.9125 , 251.6625 310.9125 , 249.6625 307.9125 , 247.6625 297.9125 , 243.6625 ">
</polygon><polygon 
stroke="rgb(89,106,65)"
fill="rgb(89,106,65)"
stroke-width="60"
stroke-linejoin="round" 
opacity="1"
points="240.008 , 305.8032 230.008 , 292.8032 228.008 , 301.8032 238.008 , 308.8032 243.008 , 303.8032 253.008 , 294.8032 263.008 , 306.8032 261.008 , 303.8032 271.008 , 306.8032 276.008 , 293.8032 283.008 , 290.8032 283.008 , 295.8032 280.008 , 293.8032 276.008 , 288.8032 282.008 , 301.8032 282.008 , 294.8032 274.008 , 289.8032 271.008 , 301.8032 280.008 , 294.8032 271.008 , 289.8032 ">
</polygon><polygon 
stroke="rgb(79,96,55)"
fill="rgb(79,96,55)"
stroke-width="80"
stroke-linejoin="round" 
opacity="1"
points="232.3805 , 315.3883 251.3805 , 282.3883 246.3805 , 327.3883 237.3805 , 327.3883 259.3805 , 323.3883 264.3805 , 291.3883 278.3805 , 308.3883 279.3805 , 294.3883 307.3805 , 320.3883 330.3805 , 318.3883 320.3805 , 303.3883 321.3805 , 290.3883 318.3805 , 326.3883 321.3805 , 295.3883 309.3805 , 279.3883 305.3805 , 293.3883 ">
</polygon><polygon 
stroke="rgb(89,106,65)"
fill="rgb(89,106,65)"
stroke-width="70"
stroke-linejoin="round" 
opacity="1"
points="245.3805 , 328.3883 257.3805 , 290.3883 241.3805 , 327.3883 235.3805 , 304.3883 230.3805 , 291.3883 231.3805 , 326.3883 240.3805 , 326.3883 257.3805 , 322.3883 258.3805 , 291.3883 269.3805 , 320.3883 285.3805 , 307.3883 285.3805 , 296.3883 294.3805 , 302.3883 292.3805 , 304.3883 273.3805 , 292.3883 286.3805 , 310.3883 270.3805 , 291.3883 284.3805 , 322.3883 274.3805 , 314.3883 286.3805 , 326.3883 268.3805 , 306.3883 253.3805 , 312.3883 ">
</polygon><polygon 
stroke="rgb(69,86,45)"
fill="rgb(69,86,45)"
stroke-width="70"
stroke-linejoin="round" 
opacity="1"
points="243.3805 , 303.3883 234.3805 , 297.3883 239.3805 , 284.3883 222.3805 , 309.3883 233.3805 , 285.3883 220.3805 , 276.3883 207.3805 , 301.3883 221.3805 , 311.3883 207.3805 , 278.3883 221.3805 , 303.3883 228.3805 , 289.3883 222.3805 , 295.3883 234.3805 , 303.3883 228.3805 , 280.3883 214.3805 , 275.3883 214.3805 , 283.3883 207.3805 , 309.3883 189.3805 , 281.3883 193.3805 , 309.3883 208.3805 , 307.3883 207.3805 , 286.3883 194.3805 , 307.3883 179.3805 , 287.3883 161.3805 , 298.3883 141.3805 , 289.3883 136.3805 , 292.3883 123.3805 , 290.3883 128.3805 , 301.3883 143.3805 , 297.3883 129.3805 , 293.3883 ">
</polygon><polygon 
stroke="rgb(69,86,45)"
fill="rgb(69,86,45)"
stroke-width="70"
stroke-linejoin="round" 
opacity="1"
points="238.008 , 305.8032 225.008 , 333.8032 212.008 , 312.8032 196.008 , 305.8032 194.008 , 328.8032 193.008 , 316.8032 209.008 , 323.8032 210.008 , 318.8032 201.008 , 330.8032 214.008 , 318.8032 205.008 , 328.8032 189.008 , 315.8032 179.008 , 339.8032 169.008 , 309.8032 177.008 , 318.8032 157.008 , 327.8032 169.008 , 336.8032 182.008 , 331.8032 162.008 , 329.8032 165.008 , 324.8032 ">
</polygon><polygon 
stroke="rgb(79,96,55)"
fill="rgb(79,96,55)"
stroke-width="80"
stroke-linejoin="round" 
opacity="1"
points="238.178 , 152.5448 266.178 , 128.5448 256.178 , 166.5448 274.178 , 155.5448 271.178 , 162.5448 242.178 , 129.5448 213.178 , 151.5448 196.178 , 137.5448 203.178 , 113.5448 173.178 , 140.5448 151.178 , 124.5448 180.178 , 143.5448 180.178 , 109.5448 195.178 , 139.5448 223.178 , 120.5448 230.178 , 125.5448 249.178 , 123.5448 252.178 , 114.5448 256.178 , 110.5448 270.178 , 149.5448 292.178 , 150.5448 302.178 , 135.5448 325.178 , 120.5448 339.178 , 139.5448 368.178 , 162.5448 386.178 , 136.5448 406.178 , 159.5448 ">
</polygon></svg>