<?xml version="1.0" encoding="iso-8859-1"?>
<svg version="1.1" id="Capa_1" xmlns="http://www.w3.org/2000/svg" xmlns:xlink="http://www.w3.org/1999/xlink" x="0px" y="0px"
viewBox="0 0 500 500" xml:space="preserve"><defs></defs><polygon 
stroke="rgb(157,188,61)"
fill="rgb(157,188,61)"
stroke-width="80"
stroke-linejoin="round" 
opacity="1"
points="326 , 124 319 , 165 291 , 138 265 , 143 273 , 135 253 , 144 224 , 133 239 , 145 265 , 126 249 , 142 228 , 149 201 , 123 214 , 147 190 , 154 197 , 157 194 , 169 188 , 164 205 , 173 182 , 179 204 , 170 213 , 169 243 , 154 217 , 122 190 , 171 217 , 171 202 , 153 208 , 148 235 , 132 206 , 156 230 , 161 ">
</polygon><polygon 
stroke="rgb(157,188,61)"
fill="rgb(157,188,61)"
stroke-width="70"
stroke-linejoin="round" 
opacity="1"
points="341 , 157 359 , 145 352 , 133 357 , 133 357 , 146 341 , 139 335 , 156 319 , 161 305 , 133 310 , 134 294 , 144 291 , 148 289 , 166 272 , 158 286 , 148 294 , 152 307 , 165 297 , 168 300 , 139 282 , 134 298 , 169 286 , 150 ">
</polygon><polygon 
stroke="rgb(167,198,71)"
fill="rgb(167,198,71)"
stroke-width="60"
stroke-linejoin="round" 
opacity="1"
points="321 , 142 323 , 149 321 , 148 323 , 158 316 , 144 314 , 155 310 , 147 320 , 143 320 , 147 318 , 155 328 , 140 324 , 157 318 , 157 313 , 160 323 , 148 327 , 153 336 , 151 335 , 142 325 , 151 326 , 152 321 , 155 319 , 148 329 , 156 ">
</polygon><polygon 
stroke="rgb(157,188,61)"
fill="rgb(157,188,61)"
stroke-width="80"
stroke-linejoin="round" 
opacity="1"
points="366.116 , 187.281 363.116 , 155.281 367.116 , 137.281 357.116 , 192.281 363.116 , 141.281 389.116 , 159.281 394.116 , 148.281 373.116 , 142.281 401.116 , 153.281 402.116 , 195.281 412.116 , 180.281 ">
</polygon><polygon 
stroke="rgb(157,188,61)"
fill="rgb(157,188,61)"
stroke-width="70"
stroke-linejoin="round" 
opacity="1"
points="344.116 , 162.281 363.116 , 183.281 344.116 , 186.281 340.116 , 170.281 359.116 , 170.281 354.116 , 161.281 335.116 , 169.281 342.116 , 148.281 355.116 , 161.281 346.116 , 155.281 349.116 , 174.281 329.116 , 156.281 349.116 , 158.281 353.116 , 149.281 ">
</polygon><polygon 
stroke="rgb(177,208,81)"
fill="rgb(177,208,81)"
stroke-width="60"
stroke-linejoin="round" 
opacity="1"
points="365.116 , 176.281 355.116 , 167.281 346.116 , 174.281 336.116 , 161.281 342.116 , 160.281 345.116 , 162.281 336.116 , 173.281 339.116 , 175.281 335.116 , 167.281 329.116 , 175.281 333.116 , 169.281 328.116 , 156.281 323.116 , 174.281 333.116 , 165.281 327.116 , 161.281 327.116 , 176.281 336.116 , 167.281 329.116 , 156.281 325.116 , 171.281 320.116 , 174.281 327.116 , 158.281 333.116 , 163.281 334.116 , 174.281 339.116 , 161.281 343.116 , 160.281 344.116 , 168.281 347.116 , 174.281 349.116 , 175.281 ">
</polygon><polygon 
stroke="rgb(157,188,61)"
fill="rgb(157,188,61)"
stroke-width="70"
stroke-linejoin="round" 
opacity="1"
points="337.336 , 268.336 335.336 , 264.336 320.336 , 295.336 332.336 , 284.336 342.336 , 279.336 339.336 , 271.336 325.336 , 288.336 336.336 , 299.336 332.336 , 288.336 349.336 , 280.336 335.336 , 276.336 330.336 , 264.336 324.336 , 272.336 334.336 , 290.336 ">
</polygon><polygon 
stroke="rgb(157,188,61)"
fill="rgb(157,188,61)"
stroke-width="60"
stroke-linejoin="round" 
opacity="1"
points="327.336 , 285.336 322.336 , 279.336 316.336 , 271.336 315.336 , 291.336 316.336 , 274.336 307.336 , 287.336 302.336 , 276.336 297.336 , 284.336 292.336 , 279.336 300.336 , 282.336 296.336 , 272.336 301.336 , 282.336 300.336 , 284.336 ">
</polygon><polygon 
stroke="rgb(177,208,81)"
fill="rgb(177,208,81)"
stroke-width="80"
stroke-linejoin="round" 
opacity="1"
points="392.7 , 265.875 404.7 , 229.875 393.7 , 248.875 398.7 , 228.875 382.7 , 241.875 356.7 , 254.875 343.7 , 260.875 358.7 , 265.875 328.7 , 224.875 315.7 , 228.875 340.7 , 245.875 361.7 , 270.875 363.7 , 262.875 358.7 , 270.875 331.7 , 242.875 326.7 , 233.875 334.7 , 241.875 329.7 , 266.875 357.7 , 267.875 355.7 , 274.875 366.7 , 238.875 374.7 , 230.875 ">
</polygon><polygon 
stroke="rgb(157,188,61)"
fill="rgb(157,188,61)"
stroke-width="70"
stroke-linejoin="round" 
opacity="1"
points="396.7 , 249.875 396.7 , 227.875 412.7 , 251.875 398.7 , 236.875 402.7 , 230.875 415.7 , 243.875 423.7 , 242.875 443.7 , 247.875 441.7 , 234.875 443.7 , 258.875 444.7 , 257.875 424.7 , 256.875 417.7 , 244.875 430.7 , 261.875 417.7 , 261.875 413.7 , 236.875 423.7 , 248.875 420.7 , 237.875 430.7 , 247.875 427.7 , 225.875 420.7 , 232.875 404.7 , 234.875 385.7 , 259.875 388.7 , 227.875 378.7 , 231.875 395.7 , 238.875 415.7 , 260.875 428.7 , 243.875 ">
</polygon><polygon 
stroke="rgb(177,208,81)"
fill="rgb(177,208,81)"
stroke-width="60"
stroke-linejoin="round" 
opacity="1"
points="402.7 , 248.875 392.7 , 244.875 393.7 , 254.875 385.7 , 243.875 379.7 , 245.875 377.7 , 251.875 382.7 , 236.875 388.7 , 243.875 391.7 , 254.875 397.7 , 242.875 403.7 , 237.875 399.7 , 240.875 397.7 , 248.875 399.7 , 251.875 398.7 , 247.875 397.7 , 248.875 400.7 , 245.875 392.7 , 245.875 386.7 , 250.875 389.7 , 237.875 399.7 , 247.875 402.7 , 246.875 404.7 , 250.875 412.7 , 236.875 405.7 , 236.875 411.7 , 247.875 415.7 , 245.875 405.7 , 242.875 397.7 , 237.875 400.7 , 252.875 ">
</polygon><polygon 
stroke="rgb(167,198,71)"
fill="rgb(167,198,71)"
stroke-width="80"
stroke-linejoin="round" 
opacity="1"
points="215.336 , 299.336 203.336 , 281.336 199.336 , 277.336 187.336 , 257.336 216.336 , 272.336 198.336 , 303.336 178.336 , 288.336 178.336 , 252.336 180.336 , 253.336 180.336 , 307.336 152.336 , 266.336 168.336 , 277.336 181.336 , 299.336 154.336 , 275.336 ">
</polygon><polygon 
stroke="rgb(167,198,71)"
fill="rgb(167,198,71)"
stroke-width="70"
stroke-linejoin="round" 
opacity="1"
points="199.336 , 274.336 181.336 , 258.336 189.336 , 265.336 171.336 , 267.336 159.336 , 275.336 166.336 , 295.336 169.336 , 292.336 172.336 , 274.336 166.336 , 271.336 163.336 , 293.336 173.336 , 286.336 165.336 , 282.336 158.336 , 274.336 151.336 , 280.336 164.336 , 296.336 176.336 , 275.336 177.336 , 286.336 175.336 , 287.336 170.336 , 269.336 169.336 , 268.336 187.336 , 284.336 175.336 , 291.336 186.336 , 293.336 203.336 , 259.336 197.336 , 276.336 180.336 , 281.336 182.336 , 283.336 169.336 , 296.336 155.336 , 288.336 159.336 , 277.336 ">
</polygon><polygon 
stroke="rgb(157,188,61)"
fill="rgb(157,188,61)"
stroke-width="60"
stroke-linejoin="round" 
opacity="1"
points="213.336 , 268.336 217.336 , 280.336 224.336 , 287.336 228.336 , 280.336 237.336 , 271.336 243.336 , 285.336 234.336 , 277.336 233.336 , 271.336 229.336 , 281.336 238.336 , 284.336 ">
</polygon><polygon 
stroke="rgb(157,188,61)"
fill="rgb(157,188,61)"
stroke-width="80"
stroke-linejoin="round" 
opacity="1"
points="198.6 , 262 223.6 , 252 233.6 , 246 215.6 , 296 226.6 , 290 212.6 , 264 236.6 , 256 219.6 , 284 244.6 , 279 259.6 , 269 252.6 , 256 ">
</polygon><polygon 
stroke="rgb(157,188,61)"
fill="rgb(157,188,61)"
stroke-width="70"
stroke-linejoin="round" 
opacity="1"
points="190.6 , 277 171.6 , 286 191.6 , 278 208.6 , 278 218.6 , 279 216.6 , 266 226.6 , 275 239.6 , 265 228.6 , 267 226.6 , 260 233.6 , 287 225.6 , 273 233.6 , 271 251.6 , 279 249.6 , 267 267.6 , 277 265.6 , 283 251.6 , 264 263.6 , 267 282.6 , 259 262.6 , 271 245.6 , 272 243.6 , 284 248.6 , 278 244.6 , 255 255.6 , 285 237.6 , 287 ">
</polygon><polygon 
stroke="rgb(167,198,71)"
fill="rgb(167,198,71)"
stroke-width="80"
stroke-linejoin="round" 
opacity="1"
points="425.7 , 212.875 419.7 , 164.875 442.7 , 187.875 445.7 , 201.875 423.7 , 192.875 423.7 , 176.875 423.7 , 214.875 431.7 , 186.875 428.7 , 170.875 409.7 , 195.875 423.7 , 218.875 394.7 , 199.875 364.7 , 198.875 360.7 , 163.875 359.7 , 163.875 356.7 , 220.875 357.7 , 170.875 ">
</polygon><polygon 
stroke="rgb(177,208,81)"
fill="rgb(177,208,81)"
stroke-width="70"
stroke-linejoin="round" 
opacity="1"
points="424.7 , 213.875 429.7 , 181.875 412.7 , 176.875 424.7 , 179.875 415.7 , 213.875 408.7 , 193.875 423.7 , 179.875 429.7 , 189.875 448.7 , 191.875 437.7 , 209.875 428.7 , 202.875 439.7 , 186.875 423.7 , 177.875 434.7 , 182.875 439.7 , 182.875 449.7 , 175.875 444.7 , 191.875 448.7 , 196.875 434.7 , 199.875 448.7 , 209.875 444.7 , 175.875 428.7 , 190.875 438.7 , 175.875 446.7 , 213.875 445.7 , 205.875 436.7 , 212.875 432.7 , 213.875 427.7 , 190.875 435.7 , 191.875 429.7 , 206.875 ">
</polygon><polygon 
stroke="rgb(157,188,61)"
fill="rgb(157,188,61)"
stroke-width="60"
stroke-linejoin="round" 
opacity="1"
points="439.7 , 190.875 429.7 , 186.875 428.7 , 199.875 429.7 , 197.875 430.7 , 187.875 433.7 , 187.875 440.7 , 195.875 444.7 , 185.875 440.7 , 200.875 432.7 , 191.875 429.7 , 190.875 439.7 , 194.875 435.7 , 184.875 444.7 , 199.875 444.7 , 200.875 438.7 , 188.875 430.7 , 189.875 438.7 , 197.875 436.7 , 203.875 444.7 , 183.875 446.7 , 185.875 441.7 , 200.875 446.7 , 195.875 449.7 , 195.875 ">
</polygon><polygon 
stroke="rgb(157,188,61)"
fill="rgb(157,188,61)"
stroke-width="80"
stroke-linejoin="round" 
opacity="1"
points="248.824 , 134.672 221.824 , 131.672 194.824 , 142.672 219.824 , 151.672 211.824 , 160.672 193.824 , 141.672 175.824 , 124.672 187.824 , 169.672 216.824 , 169.672 210.824 , 129.672 232.824 , 145.672 246.824 , 153.672 236.824 , 142.672 209.824 , 133.672 198.824 , 172.672 215.824 , 169.672 237.824 , 179.672 210.824 , 158.672 230.824 , 140.672 ">
</polygon><polygon 
stroke="rgb(177,208,81)"
fill="rgb(177,208,81)"
stroke-width="60"
stroke-linejoin="round" 
opacity="1"
points="218.824 , 156.672 228.824 , 143.672 237.824 , 155.672 232.824 , 154.672 236.824 , 158.672 235.824 , 161.672 240.824 , 156.672 249.824 , 158.672 239.824 , 145.672 238.824 , 153.672 243.824 , 148.672 246.824 , 147.672 245.824 , 143.672 247.824 , 153.672 251.824 , 146.672 257.824 , 148.672 257.824 , 144.672 257.824 , 146.672 247.824 , 142.672 248.824 , 149.672 245.824 , 147.672 255.824 , 141.672 249.824 , 157.672 239.824 , 142.672 ">
</polygon><polygon 
stroke="rgb(167,198,71)"
fill="rgb(167,198,71)"
stroke-width="80"
stroke-linejoin="round" 
opacity="1"
points="221.884 , 242.767 220.884 , 250.767 213.884 , 214.767 194.884 , 250.767 203.884 , 219.767 195.884 , 234.767 185.884 , 248.767 189.884 , 256.767 174.884 , 223.767 191.884 , 253.767 207.884 , 248.767 180.884 , 263.767 168.884 , 258.767 166.884 , 241.767 ">
</polygon><polygon 
stroke="rgb(157,188,61)"
fill="rgb(157,188,61)"
stroke-width="70"
stroke-linejoin="round" 
opacity="1"
points="245.884 , 228.767 247.884 , 241.767 227.884 , 255.767 217.884 , 259.767 225.884 , 246.767 207.884 , 235.767 217.884 , 256.767 219.884 , 229.767 204.884 , 228.767 194.884 , 240.767 195.884 , 229.767 187.884 , 246.767 182.884 , 252.767 199.884 , 229.767 ">
</polygon><polygon 
stroke="rgb(167,198,71)"
fill="rgb(167,198,71)"
stroke-width="60"
stroke-linejoin="round" 
opacity="1"
points="256.884 , 235.767 253.884 , 251.767 244.884 , 240.767 234.884 , 246.767 230.884 , 244.767 235.884 , 235.767 234.884 , 237.767 241.884 , 232.767 250.884 , 252.767 252.884 , 246.767 257.884 , 241.767 265.884 , 244.767 275.884 , 234.767 268.884 , 239.767 274.884 , 244.767 281.884 , 240.767 280.884 , 241.767 281.884 , 245.767 289.884 , 250.767 284.884 , 248.767 291.884 , 246.767 296.884 , 246.767 300.884 , 236.767 297.884 , 247.767 295.884 , 233.767 ">
</polygon><polygon 
stroke="rgb(167,198,71)"
fill="rgb(167,198,71)"
stroke-width="70"
stroke-linejoin="round" 
opacity="1"
points="308.336 , 212.336 288.336 , 217.336 298.336 , 225.336 316.336 , 214.336 317.336 , 226.336 306.336 , 210.336 325.336 , 241.336 322.336 , 227.336 326.336 , 225.336 333.336 , 207.336 319.336 , 234.336 337.336 , 218.336 332.336 , 241.336 316.336 , 222.336 315.336 , 236.336 323.336 , 210.336 310.336 , 215.336 305.336 , 204.336 298.336 , 230.336 315.336 , 237.336 302.336 , 210.336 282.336 , 208.336 263.336 , 236.336 ">
</polygon><polygon 
stroke="rgb(167,198,71)"
fill="rgb(167,198,71)"
stroke-width="60"
stroke-linejoin="round" 
opacity="1"
points="312.336 , 231.336 309.336 , 225.336 309.336 , 219.336 309.336 , 223.336 299.336 , 219.336 296.336 , 213.336 306.336 , 216.336 299.336 , 225.336 298.336 , 227.336 295.336 , 228.336 287.336 , 218.336 278.336 , 217.336 ">
</polygon><path d="M 240 480 c 16.8,-154 44.8,-176 84,-330 
C 328.8,327 300.8,349 317,480
 " stroke="rgb(145,107,180)" stroke-linejoin="arcs"  stroke-width="5" fill="rgb(145,107,180)"/><path d="M 307.116 211.281 c 20.8,-6 20.8,-24 52,-45 
C 333.116,192.906 333.116,210.906 301.824,228.672
 " stroke="rgb(145,107,180)" stroke-linejoin="arcs"  stroke-width="5" fill="rgb(145,107,180)"/><path d="M 282.336 288.336 c 9,-3.2666666666667 39,-2.3333333333333 45,-7 
C 325.836,286.87766666667 295.836,285.94433333333 277.884,301.767
 " stroke="rgb(145,107,180)" stroke-linejoin="arcs"  stroke-width="5" fill="rgb(145,107,180)"/><path d="M 296.7 244.875 c 38.333333333333,0.2 53.666666666667,0.13333333333333 115,1 
C 361.86666666667,245.13333333333 346.53333333333,245.2 291.744,260.088
 " stroke="rgb(145,107,180)" stroke-linejoin="arcs"  stroke-width="5" fill="rgb(145,107,180)"/><path d="M 282.336 288.336 c -59.2,-2 -74,-1.3333333333333 -74,-10 
C 215.736,288.25266666667 230.536,287.586 277.884,301.767
 " stroke="rgb(145,107,180)" stroke-linejoin="arcs"  stroke-width="5" fill="rgb(145,107,180)"/><path d="M 273.6 315 c -59.8,-5.4666666666667 -9.2,-21.866666666667 -69,-41 
C 271.3,298.25833333333 220.7,314.65833333333 269.484,328.233
 " stroke="rgb(145,107,180)" stroke-linejoin="arcs"  stroke-width="5" fill="rgb(145,107,180)"/><path d="M 296.7 244.875 c 89.333333333333,-6.8 125.06666666667,-17 134,-51 
C 435.16666666667,234.25 399.43333333333,244.45 291.744,260.088
 " stroke="rgb(145,107,180)" stroke-linejoin="arcs"  stroke-width="5" fill="rgb(145,107,180)"/><path d="M 301.824 228.672 c -69.333333333333,-10.266666666667 -42.666666666667,-41.066666666667 -80,-77 
C 267.15733333333,197.23033333333 240.49066666667,228.03033333333 296.7,244.875
 " stroke="rgb(145,107,180)" stroke-linejoin="arcs"  stroke-width="5" fill="rgb(145,107,180)"/><path d="M 277.884 301.767 c -5.2,-19.666666666667 0,-7.8666666666667 -26,-59 
C 280.484,301.27533333333 275.284,289.47533333333 273.6,315
 " stroke="rgb(145,107,180)" stroke-linejoin="arcs"  stroke-width="5" fill="rgb(145,107,180)"/><path d="M 282.336 288.336 c 14,-22 8,-35.2 30,-66 
C 293.336,261.386 299.336,274.586 277.884,301.767
 " stroke="rgb(145,107,180)" stroke-linejoin="arcs"  stroke-width="5" fill="rgb(145,107,180)"/><polygon 
stroke="rgb(177,208,81)"
fill="rgb(177,208,81)"
stroke-width="80"
stroke-linejoin="round" 
opacity="1"
points="340.336 , 292.336 342.336 , 292.336 346.336 , 308.336 336.336 , 310.336 343.336 , 294.336 341.336 , 277.336 322.336 , 301.336 341.336 , 264.336 323.336 , 274.336 317.336 , 259.336 ">
</polygon><polygon 
stroke="rgb(177,208,81)"
fill="rgb(177,208,81)"
stroke-width="60"
stroke-linejoin="round" 
opacity="1"
points="194.6 , 278 200.6 , 283 210.6 , 272 206.6 , 273 198.6 , 282 204.6 , 274 204.6 , 275 200.6 , 268 198.6 , 270 193.6 , 283 199.6 , 264 197.6 , 279 ">
</polygon><polygon 
stroke="rgb(177,208,81)"
fill="rgb(177,208,81)"
stroke-width="70"
stroke-linejoin="round" 
opacity="1"
points="204.824 , 156.672 185.824 , 159.672 174.824 , 155.672 179.824 , 144.672 188.824 , 154.672 186.824 , 145.672 191.824 , 160.672 179.824 , 165.672 184.824 , 142.672 180.824 , 157.672 186.824 , 132.672 182.824 , 169.672 192.824 , 165.672 181.824 , 168.672 179.824 , 168.672 163.824 , 150.672 172.824 , 162.672 189.824 , 144.672 202.824 , 159.672 185.824 , 132.672 199.824 , 150.672 211.824 , 155.672 208.824 , 145.672 188.824 , 144.672 172.824 , 146.672 155.824 , 147.672 158.824 , 171.672 169.824 , 150.672 170.824 , 153.672 173.824 , 131.672 ">
</polygon><polygon 
stroke="rgb(177,208,81)"
fill="rgb(177,208,81)"
stroke-width="80"
stroke-linejoin="round" 
opacity="1"
points="326.336 , 210.336 355.336 , 222.336 353.336 , 203.336 377.336 , 239.336 396.336 , 220.336 408.336 , 210.336 432.336 , 232.336 439.336 , 203.336 420.336 , 224.336 426.336 , 202.336 397.336 , 202.336 416.336 , 250.336 432.336 , 232.336 429.336 , 206.336 426.336 , 222.336 431.336 , 222.336 446.336 , 251.336 428.336 , 235.336 438.336 , 231.336 418.336 , 220.336 415.336 , 239.336 435.336 , 217.336 446.336 , 236.336 426.336 , 215.336 401.336 , 219.336 415.336 , 236.336 ">
</polygon></svg>