<?xml version="1.0" encoding="iso-8859-1"?>
<svg version="1.1" id="Capa_1" xmlns="http://www.w3.org/2000/svg" xmlns:xlink="http://www.w3.org/1999/xlink" x="0px" y="0px"
viewBox="0 0 500 500" xml:space="preserve"><defs></defs><polygon 
stroke="rgb(116,91,151)"
fill="rgb(116,91,151)"
stroke-width="80"
stroke-linejoin="round" 
opacity="1"
points="228 , 120 213 , 173 183 , 138 166 , 122 163 , 143 188 , 176 180 , 137 152 , 133 137 , 132 112 , 126 113 , 130 134 , 124 109 , 159 100 , 167 80 , 122 90 , 130 71 , 170 53 , 141 80 , 161 98 , 138 123 , 148 128 , 122 106 , 160 83 , 174 91 , 118 120 , 131 134 , 140 152 , 125 155 , 117 148 , 117 ">
</polygon><polygon 
stroke="rgb(106,81,141)"
fill="rgb(106,81,141)"
stroke-width="60"
stroke-linejoin="round" 
opacity="1"
points="252 , 137 251 , 154 260 , 146 251 , 145 254 , 140 262 , 150 269 , 153 276 , 143 273 , 155 280 , 149 285 , 151 281 , 143 278 , 153 282 , 154 279 , 149 289 , 141 281 , 147 291 , 142 284 , 153 ">
</polygon><polygon 
stroke="rgb(106,81,141)"
fill="rgb(106,81,141)"
stroke-width="80"
stroke-linejoin="round" 
opacity="1"
points="275.37085 , 303.696125 274.37085 , 298.696125 266.37085 , 287.696125 237.37085 , 314.696125 267.37085 , 295.696125 273.37085 , 309.696125 259.37085 , 297.696125 288.37085 , 291.696125 287.37085 , 319.696125 279.37085 , 314.696125 296.37085 , 289.696125 271.37085 , 291.696125 241.37085 , 318.696125 ">
</polygon><polygon 
stroke="rgb(106,81,141)"
fill="rgb(106,81,141)"
stroke-width="70"
stroke-linejoin="round" 
opacity="1"
points="269.37085 , 329.696125 264.37085 , 293.696125 249.37085 , 303.696125 251.37085 , 327.696125 245.37085 , 300.696125 254.37085 , 293.696125 237.37085 , 319.696125 233.37085 , 299.696125 223.37085 , 315.696125 238.37085 , 293.696125 258.37085 , 320.696125 271.37085 , 313.696125 251.37085 , 310.696125 257.37085 , 297.696125 261.37085 , 294.696125 253.37085 , 304.696125 239.37085 , 306.696125 ">
</polygon><polygon 
stroke="rgb(106,81,141)"
fill="rgb(106,81,141)"
stroke-width="60"
stroke-linejoin="round" 
opacity="1"
points="282.37085 , 321.696125 275.37085 , 317.696125 277.37085 , 321.696125 279.37085 , 301.696125 285.37085 , 318.696125 287.37085 , 318.696125 280.37085 , 311.696125 274.37085 , 319.696125 276.37085 , 315.696125 270.37085 , 320.696125 277.37085 , 321.696125 277.37085 , 305.696125 271.37085 , 304.696125 279.37085 , 308.696125 289.37085 , 302.696125 281.37085 , 315.696125 274.37085 , 313.696125 273.37085 , 317.696125 273.37085 , 310.696125 267.37085 , 320.696125 261.37085 , 317.696125 261.37085 , 310.696125 268.37085 , 316.696125 258.37085 , 307.696125 259.37085 , 321.696125 266.37085 , 302.696125 256.37085 , 303.696125 254.37085 , 315.696125 257.37085 , 311.696125 260.37085 , 309.696125 ">
</polygon><polygon 
stroke="rgb(126,101,161)"
fill="rgb(126,101,161)"
stroke-width="80"
stroke-linejoin="round" 
opacity="1"
points="232.7088 , 237.168 253.7088 , 266.168 257.7088 , 223.168 255.7088 , 241.168 285.7088 , 249.168 267.7088 , 251.168 262.7088 , 238.168 273.7088 , 252.168 280.7088 , 230.168 301.7088 , 267.168 301.7088 , 217.168 329.7088 , 229.168 311.7088 , 266.168 291.7088 , 267.168 304.7088 , 239.168 285.7088 , 260.168 307.7088 , 244.168 296.7088 , 249.168 277.7088 , 273.168 274.7088 , 241.168 304.7088 , 258.168 328.7088 , 258.168 309.7088 , 221.168 301.7088 , 261.168 296.7088 , 269.168 280.7088 , 259.168 310.7088 , 254.168 324.7088 , 237.168 297.7088 , 241.168 ">
</polygon><polygon 
stroke="rgb(106,81,141)"
fill="rgb(106,81,141)"
stroke-width="70"
stroke-linejoin="round" 
opacity="1"
points="238.7088 , 249.168 255.7088 , 254.168 249.7088 , 236.168 241.7088 , 248.168 236.7088 , 265.168 228.7088 , 248.168 235.7088 , 264.168 236.7088 , 243.168 229.7088 , 265.168 233.7088 , 259.168 215.7088 , 256.168 234.7088 , 262.168 234.7088 , 238.168 215.7088 , 231.168 227.7088 , 237.168 247.7088 , 238.168 240.7088 , 264.168 225.7088 , 262.168 220.7088 , 250.168 236.7088 , 250.168 226.7088 , 259.168 228.7088 , 239.168 217.7088 , 241.168 219.7088 , 246.168 217.7088 , 266.168 ">
</polygon><polygon 
stroke="rgb(106,81,141)"
fill="rgb(106,81,141)"
stroke-width="60"
stroke-linejoin="round" 
opacity="1"
points="236.7088 , 237.168 243.7088 , 250.168 246.7088 , 244.168 252.7088 , 252.168 243.7088 , 252.168 253.7088 , 251.168 250.7088 , 246.168 245.7088 , 238.168 237.7088 , 241.168 235.7088 , 243.168 239.7088 , 256.168 234.7088 , 241.168 234.7088 , 240.168 226.7088 , 242.168 221.7088 , 252.168 213.7088 , 238.168 219.7088 , 243.168 ">
</polygon><polygon 
stroke="rgb(116,91,151)"
fill="rgb(116,91,151)"
stroke-width="80"
stroke-linejoin="round" 
opacity="1"
points="334.7088 , 260.168 336.7088 , 225.168 321.7088 , 255.168 345.7088 , 276.168 348.7088 , 276.168 354.7088 , 226.168 329.7088 , 262.168 314.7088 , 234.168 302.7088 , 229.168 332.7088 , 224.168 354.7088 , 248.168 345.7088 , 281.168 335.7088 , 265.168 339.7088 , 224.168 332.7088 , 262.168 314.7088 , 277.168 307.7088 , 258.168 304.7088 , 279.168 ">
</polygon><polygon 
stroke="rgb(106,81,141)"
fill="rgb(106,81,141)"
stroke-width="60"
stroke-linejoin="round" 
opacity="1"
points="319.7088 , 259.168 311.7088 , 247.168 318.7088 , 253.168 318.7088 , 254.168 319.7088 , 255.168 310.7088 , 245.168 316.7088 , 247.168 322.7088 , 254.168 321.7088 , 263.168 319.7088 , 261.168 315.7088 , 256.168 308.7088 , 245.168 305.7088 , 246.168 299.7088 , 261.168 300.7088 , 251.168 ">
</polygon><polygon 
stroke="rgb(116,91,151)"
fill="rgb(116,91,151)"
stroke-width="70"
stroke-linejoin="round" 
opacity="1"
points="400.07195 , 244.640875 390.07195 , 209.640875 383.07195 , 219.640875 401.07195 , 208.640875 403.07195 , 207.640875 394.07195 , 216.640875 387.07195 , 221.640875 399.07195 , 244.640875 416.07195 , 210.640875 415.07195 , 235.640875 409.07195 , 226.640875 423.07195 , 241.640875 415.07195 , 246.640875 398.07195 , 235.640875 ">
</polygon><polygon 
stroke="rgb(116,91,151)"
fill="rgb(116,91,151)"
stroke-width="60"
stroke-linejoin="round" 
opacity="1"
points="396.07195 , 236.640875 391.07195 , 225.640875 400.07195 , 226.640875 400.07195 , 234.640875 394.07195 , 229.640875 399.07195 , 224.640875 395.07195 , 224.640875 403.07195 , 223.640875 400.07195 , 228.640875 409.07195 , 220.640875 415.07195 , 216.640875 407.07195 , 224.640875 407.07195 , 223.640875 416.07195 , 224.640875 417.07195 , 216.640875 ">
</polygon><polygon 
stroke="rgb(126,101,161)"
fill="rgb(126,101,161)"
stroke-width="80"
stroke-linejoin="round" 
opacity="1"
points="199.3936 , 189.568 218.3936 , 234.568 190.3936 , 198.568 192.3936 , 180.568 197.3936 , 182.568 188.3936 , 225.568 182.3936 , 216.568 179.3936 , 185.568 199.3936 , 200.568 218.3936 , 231.568 190.3936 , 230.568 215.3936 , 216.568 234.3936 , 185.568 204.3936 , 200.568 222.3936 , 203.568 209.3936 , 212.568 213.3936 , 195.568 227.3936 , 236.568 200.3936 , 184.568 194.3936 , 206.568 ">
</polygon><polygon 
stroke="rgb(116,91,151)"
fill="rgb(116,91,151)"
stroke-width="70"
stroke-linejoin="round" 
opacity="1"
points="159.3936 , 226.568 164.3936 , 197.568 154.3936 , 214.568 166.3936 , 225.568 147.3936 , 208.568 142.3936 , 219.568 131.3936 , 227.568 140.3936 , 197.568 121.3936 , 201.568 136.3936 , 222.568 137.3936 , 219.568 153.3936 , 196.568 151.3936 , 204.568 134.3936 , 223.568 154.3936 , 203.568 148.3936 , 197.568 149.3936 , 211.568 160.3936 , 204.568 ">
</polygon><polygon 
stroke="rgb(106,81,141)"
fill="rgb(106,81,141)"
stroke-width="60"
stroke-linejoin="round" 
opacity="1"
points="182.3936 , 200.568 182.3936 , 208.568 175.3936 , 202.568 178.3936 , 206.568 183.3936 , 209.568 189.3936 , 205.568 197.3936 , 217.568 193.3936 , 206.568 202.3936 , 216.568 206.3936 , 199.568 204.3936 , 205.568 ">
</polygon><polygon 
stroke="rgb(106,81,141)"
fill="rgb(106,81,141)"
stroke-width="80"
stroke-linejoin="round" 
opacity="1"
points="236.5492 , 226.279 210.5492 , 207.279 199.5492 , 191.279 189.5492 , 200.279 200.5492 , 186.279 200.5492 , 223.279 176.5492 , 219.279 190.5492 , 229.279 195.5492 , 204.279 199.5492 , 211.279 173.5492 , 226.279 179.5492 , 235.279 ">
</polygon><polygon 
stroke="rgb(126,101,161)"
fill="rgb(126,101,161)"
stroke-width="70"
stroke-linejoin="round" 
opacity="1"
points="210.5492 , 200.279 192.5492 , 211.279 210.5492 , 191.279 225.5492 , 210.279 220.5492 , 215.279 220.5492 , 205.279 200.5492 , 205.279 220.5492 , 204.279 207.5492 , 215.279 214.5492 , 193.279 219.5492 , 191.279 227.5492 , 220.279 241.5492 , 209.279 239.5492 , 189.279 253.5492 , 199.279 253.5492 , 203.279 257.5492 , 224.279 246.5492 , 219.279 250.5492 , 209.279 250.5492 , 190.279 251.5492 , 229.279 247.5492 , 224.279 227.5492 , 215.279 239.5492 , 194.279 231.5492 , 195.279 220.5492 , 207.279 223.5492 , 201.279 241.5492 , 192.279 247.5492 , 211.279 ">
</polygon><polygon 
stroke="rgb(116,91,151)"
fill="rgb(116,91,151)"
stroke-width="60"
stroke-linejoin="round" 
opacity="1"
points="212.5492 , 208.279 218.5492 , 210.279 222.5492 , 218.279 216.5492 , 206.279 226.5492 , 217.279 221.5492 , 211.279 223.5492 , 214.279 225.5492 , 212.279 223.5492 , 204.279 230.5492 , 201.279 222.5492 , 204.279 224.5492 , 214.279 222.5492 , 213.279 230.5492 , 216.279 226.5492 , 200.279 230.5492 , 218.279 227.5492 , 218.279 ">
</polygon><polygon 
stroke="rgb(126,101,161)"
fill="rgb(126,101,161)"
stroke-width="80"
stroke-linejoin="round" 
opacity="1"
points="387.3936 , 197.568 361.3936 , 201.568 336.3936 , 221.568 306.3936 , 226.568 314.3936 , 205.568 291.3936 , 229.568 318.3936 , 214.568 348.3936 , 222.568 378.3936 , 217.568 373.3936 , 195.568 389.3936 , 219.568 384.3936 , 188.568 388.3936 , 218.568 371.3936 , 217.568 398.3936 , 198.568 395.3936 , 214.568 412.3936 , 206.568 397.3936 , 209.568 380.3936 , 192.568 374.3936 , 243.568 349.3936 , 238.568 358.3936 , 210.568 365.3936 , 225.568 395.3936 , 235.568 398.3936 , 229.568 ">
</polygon><polygon 
stroke="rgb(126,101,161)"
fill="rgb(126,101,161)"
stroke-width="60"
stroke-linejoin="round" 
opacity="1"
points="378.3936 , 206.568 387.3936 , 223.568 394.3936 , 204.568 399.3936 , 211.568 394.3936 , 214.568 393.3936 , 208.568 394.3936 , 221.568 394.3936 , 215.568 403.3936 , 220.568 411.3936 , 208.568 405.3936 , 208.568 395.3936 , 207.568 401.3936 , 205.568 404.3936 , 213.568 397.3936 , 212.568 400.3936 , 217.568 410.3936 , 215.568 418.3936 , 204.568 418.3936 , 216.568 421.3936 , 216.568 424.3936 , 216.568 422.3936 , 222.568 432.3936 , 214.568 441.3936 , 211.568 445.3936 , 223.568 443.3936 , 219.568 435.3936 , 207.568 435.3936 , 206.568 426.3936 , 213.568 ">
</polygon><polygon 
stroke="rgb(106,81,141)"
fill="rgb(106,81,141)"
stroke-width="80"
stroke-linejoin="round" 
opacity="1"
points="296.23365 , 155.513125 324.23365 , 145.513125 302.23365 , 119.513125 311.23365 , 153.513125 310.23365 , 145.513125 327.23365 , 161.513125 304.23365 , 130.513125 299.23365 , 133.513125 309.23365 , 169.513125 306.23365 , 133.513125 292.23365 , 154.513125 317.23365 , 120.513125 289.23365 , 116.513125 302.23365 , 144.513125 314.23365 , 144.513125 318.23365 , 146.513125 309.23365 , 125.513125 302.23365 , 126.513125 315.23365 , 165.513125 304.23365 , 174.513125 306.23365 , 135.513125 278.23365 , 116.513125 297.23365 , 150.513125 313.23365 , 124.513125 285.23365 , 152.513125 ">
</polygon><polygon 
stroke="rgb(126,101,161)"
fill="rgb(126,101,161)"
stroke-width="60"
stroke-linejoin="round" 
opacity="1"
points="259.23365 , 142.513125 257.23365 , 138.513125 249.23365 , 152.513125 245.23365 , 142.513125 254.23365 , 139.513125 244.23365 , 147.513125 235.23365 , 150.513125 228.23365 , 152.513125 231.23365 , 155.513125 236.23365 , 135.513125 231.23365 , 150.513125 234.23365 , 148.513125 241.23365 , 139.513125 236.23365 , 148.513125 243.23365 , 137.513125 248.23365 , 150.513125 238.23365 , 139.513125 247.23365 , 151.513125 ">
</polygon><polygon 
stroke="rgb(126,101,161)"
fill="rgb(126,101,161)"
stroke-width="80"
stroke-linejoin="round" 
opacity="1"
points="205.93855 , 187.547375 218.93855 , 134.547375 195.93855 , 180.547375 198.93855 , 157.547375 211.93855 , 190.547375 230.93855 , 156.547375 239.93855 , 186.547375 211.93855 , 139.547375 212.93855 , 150.547375 209.93855 , 189.547375 190.93855 , 149.547375 220.93855 , 179.547375 231.93855 , 138.547375 245.93855 , 149.547375 257.93855 , 167.547375 275.93855 , 158.547375 259.93855 , 157.547375 284.93855 , 167.547375 269.93855 , 143.547375 ">
</polygon><polygon 
stroke="rgb(116,91,151)"
fill="rgb(116,91,151)"
stroke-width="70"
stroke-linejoin="round" 
opacity="1"
points="204.93855 , 163.547375 207.93855 , 165.547375 215.93855 , 163.547375 201.93855 , 163.547375 183.93855 , 155.547375 193.93855 , 163.547375 198.93855 , 176.547375 203.93855 , 150.547375 190.93855 , 172.547375 181.93855 , 182.547375 165.93855 , 146.547375 181.93855 , 181.547375 191.93855 , 173.547375 171.93855 , 148.547375 166.93855 , 172.547375 184.93855 , 147.547375 187.93855 , 182.547375 204.93855 , 144.547375 217.93855 , 182.547375 ">
</polygon><polygon 
stroke="rgb(106,81,141)"
fill="rgb(106,81,141)"
stroke-width="60"
stroke-linejoin="round" 
opacity="1"
points="206.93855 , 166.547375 211.93855 , 167.547375 206.93855 , 161.547375 216.93855 , 158.547375 214.93855 , 157.547375 215.93855 , 166.547375 214.93855 , 168.547375 204.93855 , 158.547375 200.93855 , 153.547375 197.93855 , 166.547375 202.93855 , 156.547375 196.93855 , 172.547375 204.93855 , 158.547375 214.93855 , 162.547375 212.93855 , 154.547375 217.93855 , 163.547375 210.93855 , 164.547375 212.93855 , 165.547375 209.93855 , 157.547375 200.93855 , 156.547375 195.93855 , 164.547375 188.93855 , 163.547375 190.93855 , 170.547375 187.93855 , 161.547375 179.93855 , 171.547375 186.93855 , 169.547375 191.93855 , 172.547375 197.93855 , 157.547375 195.93855 , 153.547375 ">
</polygon><path d="M 240 480 c 4.2,-133.2 3.6,-133.2 9,-333 
C 296.6,372.8 297.2,372.8 318,480
 " stroke="rgb(124,87,77)" stroke-linejoin="arcs"  stroke-width="5" fill="rgb(124,87,77)"/><path d="M 244.37085 325.696125 c 24.266666666667,-5.6 1.8666666666667,-4.6666666666667 28,-14 
C 249.03751666667,322.77945833333 271.43751666667,321.846125 244.05,338.475
 " stroke="rgb(124,87,77)" stroke-linejoin="arcs"  stroke-width="5" fill="rgb(124,87,77)"/><path d="M 244.7088 312.168 c -10.4,-30.333333333333 -4.3333333333333,-13 -13,-65 
C 241.67546666667,307.293 235.6088,289.95966666667 244.37085,325.696125
 " stroke="rgb(124,87,77)" stroke-linejoin="arcs"  stroke-width="5" fill="rgb(124,87,77)"/><path d="M 244.7088 312.168 c 11.066666666667,-30.933333333333 49.8,-11.6 83,-58 
C 302.8088,307.818 264.07546666667,288.48466666667 244.37085,325.696125
 " stroke="rgb(124,87,77)" stroke-linejoin="arcs"  stroke-width="5" fill="rgb(124,87,77)"/><path d="M 245.07195 297.640875 c 29.2,-23.666666666667 136.26666666667,-37.866666666667 146,-71 
C 395.93861666667,268.64920833333 288.87195,282.84920833333 244.7088,312.168
 " stroke="rgb(124,87,77)" stroke-linejoin="arcs"  stroke-width="5" fill="rgb(124,87,77)"/><path d="M 246.3936 245.568 c -42.6,-17.266666666667 -23.666666666667,-4.9333333333333 -71,-37 
C 229.82693333333,245.25966666667 210.8936,232.92633333333 245.90625,264.590625
 " stroke="rgb(124,87,77)" stroke-linejoin="arcs"  stroke-width="5" fill="rgb(124,87,77)"/><path d="M 247.5492 201.279 c -12.133333333333,1.0666666666667 0,4.2666666666667 -26,8 
C 250.1492,206.54566666667 238.01586666667,203.34566666667 246.93855,224.547375
 " stroke="rgb(124,87,77)" stroke-linejoin="arcs"  stroke-width="5" fill="rgb(124,87,77)"/><path d="M 246.3936 245.568 c 92.4,-6.2 50.4,-8.2666666666667 126,-31 
C 309.3936,241.17633333333 351.3936,243.243 245.90625,264.590625
 " stroke="rgb(124,87,77)" stroke-linejoin="arcs"  stroke-width="5" fill="rgb(124,87,77)"/><path d="M 248.23365 175.513125 c 12.6,-6 5.6,-6 21,-30 
C 255.93365,173.263125 262.93365,173.263125 247.5492,201.279
 " stroke="rgb(124,87,77)" stroke-linejoin="arcs"  stroke-width="5" fill="rgb(124,87,77)"/><path d="M 246.93855 224.547375 c -31.2,-32.533333333333 -33.8,-32.533333333333 -39,-61 
C 217.03855,199.63904166667 219.63855,199.63904166667 246.3936,245.568
 " stroke="rgb(124,87,77)" stroke-linejoin="arcs"  stroke-width="5" fill="rgb(124,87,77)"/><polygon 
stroke="rgb(126,101,161)"
fill="rgb(126,101,161)"
stroke-width="70"
stroke-linejoin="round" 
opacity="1"
points="266 , 166 271 , 142 291 , 148 271 , 131 265 , 153 253 , 142 266 , 131 286 , 131 271 , 146 257 , 138 266 , 145 281 , 135 295 , 133 312 , 128 321 , 157 340 , 130 354 , 135 371 , 134 389 , 141 382 , 130 386 , 131 377 , 131 360 , 152 ">
</polygon><polygon 
stroke="rgb(116,91,151)"
fill="rgb(116,91,151)"
stroke-width="70"
stroke-linejoin="round" 
opacity="1"
points="324.7088 , 244.168 321.7088 , 242.168 304.7088 , 269.168 287.7088 , 265.168 280.7088 , 272.168 276.7088 , 239.168 265.7088 , 255.168 284.7088 , 268.168 264.7088 , 255.168 251.7088 , 263.168 250.7088 , 237.168 252.7088 , 242.168 258.7088 , 260.168 264.7088 , 239.168 284.7088 , 269.168 279.7088 , 234.168 272.7088 , 243.168 262.7088 , 246.168 257.7088 , 269.168 246.7088 , 254.168 262.7088 , 236.168 265.7088 , 234.168 263.7088 , 264.168 277.7088 , 266.168 ">
</polygon><polygon 
stroke="rgb(116,91,151)"
fill="rgb(116,91,151)"
stroke-width="80"
stroke-linejoin="round" 
opacity="1"
points="376.07195 , 225.640875 393.07195 , 218.640875 369.07195 , 246.640875 366.07195 , 212.640875 383.07195 , 244.640875 373.07195 , 202.640875 360.07195 , 218.640875 330.07195 , 204.640875 319.07195 , 253.640875 305.07195 , 255.640875 278.07195 , 218.640875 267.07195 , 235.640875 281.07195 , 222.640875 281.07195 , 210.640875 271.07195 , 232.640875 301.07195 , 203.640875 331.07195 , 240.640875 316.07195 , 220.640875 307.07195 , 239.640875 278.07195 , 213.640875 276.07195 , 248.640875 284.07195 , 215.640875 280.07195 , 199.640875 301.07195 , 216.640875 ">
</polygon><polygon 
stroke="rgb(116,91,151)"
fill="rgb(116,91,151)"
stroke-width="70"
stroke-linejoin="round" 
opacity="1"
points="369.3936 , 208.568 377.3936 , 221.568 394.3936 , 204.568 388.3936 , 197.568 391.3936 , 210.568 387.3936 , 228.568 403.3936 , 230.568 408.3936 , 228.568 408.3936 , 198.568 418.3936 , 199.568 413.3936 , 227.568 ">
</polygon><polygon 
stroke="rgb(106,81,141)"
fill="rgb(106,81,141)"
stroke-width="70"
stroke-linejoin="round" 
opacity="1"
points="272.23365 , 132.513125 289.23365 , 147.513125 290.23365 , 137.513125 281.23365 , 153.513125 274.23365 , 144.513125 285.23365 , 145.513125 305.23365 , 157.513125 314.23365 , 158.513125 327.23365 , 132.513125 318.23365 , 164.513125 306.23365 , 148.513125 300.23365 , 164.513125 306.23365 , 142.513125 316.23365 , 128.513125 324.23365 , 150.513125 335.23365 , 143.513125 337.23365 , 145.513125 349.23365 , 138.513125 365.23365 , 160.513125 348.23365 , 131.513125 352.23365 , 165.513125 357.23365 , 154.513125 370.23365 , 132.513125 377.23365 , 162.513125 382.23365 , 136.513125 366.23365 , 130.513125 347.23365 , 150.513125 356.23365 , 128.513125 365.23365 , 152.513125 ">
</polygon></svg>