<?xml version="1.0" encoding="iso-8859-1"?>
<svg version="1.1" id="Capa_1" xmlns="http://www.w3.org/2000/svg" xmlns:xlink="http://www.w3.org/1999/xlink" x="0px" y="0px"
viewBox="0 0 500 500" xml:space="preserve"><defs></defs><polygon 
stroke="rgb(189,76,117)"
fill="rgb(189,76,117)"
stroke-width="70"
stroke-linejoin="round" 
opacity="1"
points="246 , 187 252 , 175 272 , 180 279 , 174 297 , 157 296 , 188 276 , 174 262 , 166 254 , 150 261 , 149 255 , 186 250 , 148 243 , 180 257 , 181 240 , 159 223 , 182 241 , 166 239 , 158 226 , 171 ">
</polygon><polygon 
stroke="rgb(179,66,107)"
fill="rgb(179,66,107)"
stroke-width="60"
stroke-linejoin="round" 
opacity="1"
points="260 , 175 250 , 161 249 , 177 258 , 161 267 , 168 267 , 165 267 , 172 276 , 163 282 , 173 280 , 162 285 , 172 288 , 164 290 , 177 296 , 176 303 , 178 304 , 168 309 , 160 306 , 164 302 , 173 ">
</polygon><polygon 
stroke="rgb(179,66,107)"
fill="rgb(179,66,107)"
stroke-width="80"
stroke-linejoin="round" 
opacity="1"
points="345.2784 , 256.32 347.2784 , 267.32 317.2784 , 257.32 344.2784 , 227.32 352.2784 , 281.32 342.2784 , 263.32 353.2784 , 237.32 343.2784 , 276.32 367.2784 , 267.32 377.2784 , 281.32 383.2784 , 241.32 358.2784 , 279.32 353.2784 , 251.32 345.2784 , 261.32 360.2784 , 227.32 384.2784 , 268.32 401.2784 , 270.32 382.2784 , 257.32 362.2784 , 254.32 368.2784 , 239.32 390.2784 , 264.32 378.2784 , 280.32 402.2784 , 282.32 375.2784 , 232.32 405.2784 , 262.32 396.2784 , 283.32 417.2784 , 239.32 425.2784 , 231.32 430.2784 , 227.32 440.2784 , 250.32 ">
</polygon><polygon 
stroke="rgb(189,76,117)"
fill="rgb(189,76,117)"
stroke-width="70"
stroke-linejoin="round" 
opacity="1"
points="349.2784 , 238.32 347.2784 , 240.32 346.2784 , 238.32 359.2784 , 239.32 340.2784 , 267.32 360.2784 , 256.32 343.2784 , 270.32 341.2784 , 252.32 340.2784 , 260.32 347.2784 , 256.32 350.2784 , 246.32 333.2784 , 240.32 343.2784 , 266.32 ">
</polygon><polygon 
stroke="rgb(189,76,117)"
fill="rgb(189,76,117)"
stroke-width="60"
stroke-linejoin="round" 
opacity="1"
points="334.2784 , 249.32 331.2784 , 262.32 333.2784 , 252.32 324.2784 , 263.32 321.2784 , 247.32 318.2784 , 250.32 317.2784 , 256.32 307.2784 , 262.32 298.2784 , 259.32 304.2784 , 258.32 297.2784 , 255.32 289.2784 , 253.32 297.2784 , 253.32 307.2784 , 254.32 315.2784 , 252.32 325.2784 , 262.32 320.2784 , 250.32 314.2784 , 250.32 324.2784 , 248.32 319.2784 , 246.32 329.2784 , 256.32 334.2784 , 249.32 340.2784 , 253.32 337.2784 , 257.32 340.2784 , 249.32 348.2784 , 251.32 ">
</polygon><polygon 
stroke="rgb(169,56,97)"
fill="rgb(169,56,97)"
stroke-width="80"
stroke-linejoin="round" 
opacity="1"
points="306.5842 , 248.558 295.5842 , 258.558 312.5842 , 256.558 286.5842 , 251.558 307.5842 , 263.558 330.5842 , 279.558 333.5842 , 272.558 342.5842 , 286.558 327.5842 , 302.558 357.5842 , 282.558 ">
</polygon><polygon 
stroke="rgb(169,56,97)"
fill="rgb(169,56,97)"
stroke-width="70"
stroke-linejoin="round" 
opacity="1"
points="286.5842 , 269.558 298.5842 , 286.558 318.5842 , 291.558 313.5842 , 281.558 305.5842 , 268.558 324.5842 , 287.558 332.5842 , 256.558 337.5842 , 259.558 326.5842 , 256.558 328.5842 , 259.558 321.5842 , 285.558 331.5842 , 273.558 340.5842 , 257.558 340.5842 , 274.558 357.5842 , 295.558 370.5842 , 271.558 376.5842 , 275.558 392.5842 , 277.558 ">
</polygon><polygon 
stroke="rgb(189,76,117)"
fill="rgb(189,76,117)"
stroke-width="60"
stroke-linejoin="round" 
opacity="1"
points="287.5842 , 282.558 282.5842 , 268.558 279.5842 , 271.558 277.5842 , 285.558 286.5842 , 276.558 280.5842 , 276.558 290.5842 , 286.558 286.5842 , 278.558 294.5842 , 273.558 284.5842 , 283.558 285.5842 , 276.558 292.5842 , 286.558 290.5842 , 276.558 299.5842 , 275.558 ">
</polygon><polygon 
stroke="rgb(189,76,117)"
fill="rgb(189,76,117)"
stroke-width="80"
stroke-linejoin="round" 
opacity="1"
points="284.8108 , 207.896 271.8108 , 230.896 289.8108 , 227.896 272.8108 , 252.896 255.8108 , 254.896 271.8108 , 235.896 298.8108 , 216.896 304.8108 , 246.896 315.8108 , 235.896 344.8108 , 222.896 342.8108 , 223.896 343.8108 , 250.896 332.8108 , 249.896 342.8108 , 238.896 334.8108 , 235.896 363.8108 , 215.896 393.8108 , 261.896 386.8108 , 225.896 404.8108 , 208.896 414.8108 , 245.896 416.8108 , 220.896 413.8108 , 256.896 411.8108 , 227.896 439.8108 , 259.896 429.8108 , 209.896 434.8108 , 239.896 427.8108 , 214.896 447.8108 , 252.896 ">
</polygon><polygon 
stroke="rgb(189,76,117)"
fill="rgb(189,76,117)"
stroke-width="70"
stroke-linejoin="round" 
opacity="1"
points="261.8108 , 251.896 242.8108 , 216.896 257.8108 , 219.896 269.8108 , 213.896 268.8108 , 230.896 269.8108 , 220.896 249.8108 , 221.896 260.8108 , 244.896 248.8108 , 238.896 262.8108 , 233.896 272.8108 , 241.896 283.8108 , 216.896 296.8108 , 238.896 279.8108 , 214.896 298.8108 , 227.896 279.8108 , 251.896 288.8108 , 231.896 272.8108 , 227.896 264.8108 , 235.896 262.8108 , 246.896 278.8108 , 235.896 268.8108 , 225.896 265.8108 , 213.896 258.8108 , 240.896 261.8108 , 220.896 246.8108 , 233.896 260.8108 , 217.896 240.8108 , 226.896 ">
</polygon><polygon 
stroke="rgb(179,66,107)"
fill="rgb(179,66,107)"
stroke-width="60"
stroke-linejoin="round" 
opacity="1"
points="249.8108 , 234.896 240.8108 , 233.896 231.8108 , 227.896 232.8108 , 236.896 231.8108 , 234.896 227.8108 , 241.896 224.8108 , 227.896 216.8108 , 233.896 209.8108 , 236.896 205.8108 , 233.896 204.8108 , 232.896 209.8108 , 225.896 ">
</polygon><polygon 
stroke="rgb(169,56,97)"
fill="rgb(169,56,97)"
stroke-width="70"
stroke-linejoin="round" 
opacity="1"
points="138.2784 , 266.32 150.2784 , 279.32 161.2784 , 279.32 152.2784 , 257.32 164.2784 , 271.32 179.2784 , 279.32 177.2784 , 289.32 173.2784 , 255.32 159.2784 , 271.32 150.2784 , 264.32 153.2784 , 270.32 142.2784 , 272.32 131.2784 , 249.32 136.2784 , 276.32 134.2784 , 273.32 ">
</polygon><polygon 
stroke="rgb(179,66,107)"
fill="rgb(179,66,107)"
stroke-width="60"
stroke-linejoin="round" 
opacity="1"
points="128.2784 , 277.32 138.2784 , 264.32 137.2784 , 275.32 134.2784 , 276.32 135.2784 , 276.32 132.2784 , 274.32 122.2784 , 273.32 125.2784 , 263.32 132.2784 , 277.32 124.2784 , 265.32 129.2784 , 273.32 119.2784 , 268.32 123.2784 , 268.32 116.2784 , 270.32 121.2784 , 259.32 116.2784 , 279.32 108.2784 , 266.32 104.2784 , 275.32 106.2784 , 272.32 ">
</polygon><polygon 
stroke="rgb(179,66,107)"
fill="rgb(179,66,107)"
stroke-width="80"
stroke-linejoin="round" 
opacity="1"
points="149.9 , 291.65 129.9 , 268.65 155.9 , 269.65 150.9 , 277.65 165.9 , 284.65 157.9 , 316.65 153.9 , 273.65 142.9 , 305.65 160.9 , 264.65 175.9 , 305.65 150.9 , 274.65 165.9 , 298.65 143.9 , 280.65 133.9 , 300.65 128.9 , 306.65 137.9 , 270.65 116.9 , 280.65 100.9 , 301.65 89.9 , 296.65 87.9 , 314.65 60.9 , 266.65 70.9 , 271.65 58.9 , 285.65 50.9 , 274.65 56.9 , 267.65 61.9 , 292.65 ">
</polygon><polygon 
stroke="rgb(179,66,107)"
fill="rgb(179,66,107)"
stroke-width="70"
stroke-linejoin="round" 
opacity="1"
points="115.9 , 294.65 130.9 , 296.65 112.9 , 281.65 94.9 , 296.65 86.9 , 303.65 76.9 , 279.65 89.9 , 276.65 105.9 , 306.65 108.9 , 308.65 111.9 , 275.65 93.9 , 270.65 106.9 , 285.65 110.9 , 291.65 103.9 , 284.65 111.9 , 279.65 ">
</polygon><polygon 
stroke="rgb(179,66,107)"
fill="rgb(179,66,107)"
stroke-width="80"
stroke-linejoin="round" 
opacity="1"
points="265.3952 , 354.728 255.3952 , 330.728 249.3952 , 365.728 274.3952 , 358.728 263.3952 , 377.728 281.3952 , 369.728 304.3952 , 328.728 333.3952 , 339.728 347.3952 , 339.728 359.3952 , 367.728 352.3952 , 350.728 378.3952 , 325.728 401.3952 , 342.728 380.3952 , 324.728 390.3952 , 327.728 396.3952 , 344.728 392.3952 , 366.728 399.3952 , 355.728 375.3952 , 368.728 375.3952 , 371.728 366.3952 , 361.728 345.3952 , 337.728 332.3952 , 325.728 344.3952 , 338.728 334.3952 , 375.728 304.3952 , 342.728 285.3952 , 351.728 255.3952 , 347.728 243.3952 , 352.728 ">
</polygon><polygon 
stroke="rgb(179,66,107)"
fill="rgb(179,66,107)"
stroke-width="70"
stroke-linejoin="round" 
opacity="1"
points="235.3952 , 372.728 233.3952 , 366.728 226.3952 , 365.728 222.3952 , 362.728 214.3952 , 372.728 215.3952 , 335.728 222.3952 , 370.728 233.3952 , 356.728 241.3952 , 344.728 241.3952 , 372.728 247.3952 , 357.728 245.3952 , 344.728 261.3952 , 340.728 266.3952 , 350.728 257.3952 , 362.728 251.3952 , 348.728 268.3952 , 344.728 273.3952 , 364.728 270.3952 , 340.728 271.3952 , 370.728 254.3952 , 344.728 265.3952 , 345.728 245.3952 , 336.728 231.3952 , 338.728 229.3952 , 361.728 223.3952 , 358.728 242.3952 , 345.728 257.3952 , 359.728 ">
</polygon><polygon 
stroke="rgb(179,66,107)"
fill="rgb(179,66,107)"
stroke-width="60"
stroke-linejoin="round" 
opacity="1"
points="226.3952 , 352.728 221.3952 , 358.728 216.3952 , 345.728 222.3952 , 356.728 231.3952 , 358.728 229.3952 , 358.728 230.3952 , 346.728 227.3952 , 359.728 233.3952 , 349.728 237.3952 , 355.728 234.3952 , 351.728 235.3952 , 352.728 245.3952 , 355.728 253.3952 , 362.728 258.3952 , 342.728 ">
</polygon><polygon 
stroke="rgb(169,56,97)"
fill="rgb(169,56,97)"
stroke-width="80"
stroke-linejoin="round" 
opacity="1"
points="142.5842 , 239.558 113.5842 , 251.558 120.5842 , 293.558 150.5842 , 245.558 177.5842 , 252.558 161.5842 , 276.558 148.5842 , 253.558 146.5842 , 273.558 130.5842 , 288.558 116.5842 , 245.558 124.5842 , 238.558 141.5842 , 246.558 152.5842 , 243.558 156.5842 , 286.558 133.5842 , 240.558 116.5842 , 288.558 112.5842 , 281.558 112.5842 , 273.558 126.5842 , 268.558 125.5842 , 274.558 105.5842 , 268.558 116.5842 , 276.558 ">
</polygon><polygon 
stroke="rgb(169,56,97)"
fill="rgb(169,56,97)"
stroke-width="60"
stroke-linejoin="round" 
opacity="1"
points="156.5842 , 259.558 155.5842 , 272.558 150.5842 , 268.558 143.5842 , 262.558 142.5842 , 275.558 143.5842 , 263.558 150.5842 , 257.558 143.5842 , 260.558 137.5842 , 269.558 143.5842 , 267.558 134.5842 , 262.558 139.5842 , 258.558 132.5842 , 259.558 139.5842 , 258.558 147.5842 , 260.558 154.5842 , 262.558 144.5842 , 255.558 148.5842 , 271.558 144.5842 , 259.558 145.5842 , 272.558 152.5842 , 271.558 162.5842 , 269.558 ">
</polygon><polygon 
stroke="rgb(169,56,97)"
fill="rgb(169,56,97)"
stroke-width="80"
stroke-linejoin="round" 
opacity="1"
points="264.9516 , 152.866 255.9516 , 170.866 273.9516 , 175.866 269.9516 , 168.866 296.9516 , 181.866 304.9516 , 165.866 278.9516 , 161.866 248.9516 , 168.866 237.9516 , 138.866 216.9516 , 179.866 201.9516 , 153.866 199.9516 , 179.866 191.9516 , 132.866 168.9516 , 155.866 187.9516 , 166.866 199.9516 , 146.866 210.9516 , 163.866 189.9516 , 164.866 182.9516 , 142.866 184.9516 , 158.866 214.9516 , 123.866 238.9516 , 137.866 212.9516 , 151.866 235.9516 , 135.866 220.9516 , 145.866 ">
</polygon><polygon 
stroke="rgb(179,66,107)"
fill="rgb(179,66,107)"
stroke-width="70"
stroke-linejoin="round" 
opacity="1"
points="269.9516 , 149.866 289.9516 , 165.866 282.9516 , 167.866 277.9516 , 153.866 258.9516 , 145.866 274.9516 , 168.866 292.9516 , 135.866 288.9516 , 146.866 296.9516 , 147.866 305.9516 , 166.866 292.9516 , 153.866 272.9516 , 154.866 281.9516 , 152.866 280.9516 , 162.866 267.9516 , 138.866 286.9516 , 149.866 279.9516 , 139.866 297.9516 , 150.866 296.9516 , 137.866 295.9516 , 159.866 305.9516 , 167.866 301.9516 , 163.866 315.9516 , 151.866 309.9516 , 139.866 300.9516 , 136.866 292.9516 , 133.866 281.9516 , 154.866 ">
</polygon><polygon 
stroke="rgb(169,56,97)"
fill="rgb(169,56,97)"
stroke-width="60"
stroke-linejoin="round" 
opacity="1"
points="248.9516 , 148.866 256.9516 , 143.866 250.9516 , 162.866 240.9516 , 154.866 247.9516 , 144.866 257.9516 , 160.866 250.9516 , 157.866 254.9516 , 158.866 251.9516 , 150.866 244.9516 , 147.866 254.9516 , 161.866 244.9516 , 161.866 242.9516 , 143.866 240.9516 , 144.866 241.9516 , 150.866 251.9516 , 143.866 250.9516 , 146.866 247.9516 , 148.866 241.9516 , 154.866 249.9516 , 144.866 239.9516 , 143.866 240.9516 , 144.866 237.9516 , 155.866 236.9516 , 153.866 230.9516 , 162.866 229.9516 , 159.866 222.9516 , 163.866 ">
</polygon><polygon 
stroke="rgb(179,66,107)"
fill="rgb(179,66,107)"
stroke-width="80"
stroke-linejoin="round" 
opacity="1"
points="355.3952 , 287.728 361.3952 , 306.728 373.3952 , 316.728 390.3952 , 274.728 380.3952 , 284.728 357.3952 , 296.728 354.3952 , 327.728 358.3952 , 285.728 381.3952 , 304.728 378.3952 , 272.728 392.3952 , 272.728 408.3952 , 274.728 387.3952 , 289.728 395.3952 , 281.728 372.3952 , 276.728 352.3952 , 320.728 334.3952 , 316.728 ">
</polygon><polygon 
stroke="rgb(189,76,117)"
fill="rgb(189,76,117)"
stroke-width="70"
stroke-linejoin="round" 
opacity="1"
points="363.3952 , 285.728 365.3952 , 301.728 381.3952 , 284.728 399.3952 , 284.728 400.3952 , 287.728 394.3952 , 281.728 398.3952 , 297.728 418.3952 , 281.728 423.3952 , 310.728 408.3952 , 305.728 389.3952 , 300.728 397.3952 , 305.728 410.3952 , 279.728 416.3952 , 300.728 412.3952 , 311.728 431.3952 , 307.728 412.3952 , 306.728 431.3952 , 294.728 432.3952 , 294.728 414.3952 , 289.728 411.3952 , 311.728 431.3952 , 288.728 449.3952 , 311.728 447.3952 , 296.728 436.3952 , 282.728 419.3952 , 304.728 426.3952 , 311.728 415.3952 , 285.728 402.3952 , 283.728 ">
</polygon><polygon 
stroke="rgb(179,66,107)"
fill="rgb(179,66,107)"
stroke-width="60"
stroke-linejoin="round" 
opacity="1"
points="352.3952 , 296.728 357.3952 , 301.728 357.3952 , 297.728 367.3952 , 306.728 366.3952 , 292.728 373.3952 , 295.728 378.3952 , 293.728 386.3952 , 299.728 382.3952 , 289.728 377.3952 , 298.728 371.3952 , 308.728 376.3952 , 295.728 366.3952 , 307.728 376.3952 , 290.728 ">
</polygon><path d="M 240 480 c 4.4,-166.4 11,-62.4 11,-312 
C 299,447.6 292.4,343.6 295,480
 " stroke="rgb(115,180,184)" stroke-linejoin="arcs"  stroke-width="5" fill="rgb(115,180,184)"/><path d="M 250.2784 280.32 c 23.733333333333,-13.333333333333 59.333333333333,-11.666666666667 89,-25 
C 318.51173333333,271.77833333333 282.91173333333,270.11166666667 249.9,298.65
 " stroke="rgb(115,180,184)" stroke-linejoin="arcs"  stroke-width="5" fill="rgb(115,180,184)"/><path d="M 250.5842 258.558 c 19.6,8.4 11.2,3.6 42,18 
C 265.9842,264.408 274.3842,269.208 250.2784,280.32
 " stroke="rgb(115,180,184)" stroke-linejoin="arcs"  stroke-width="5" fill="rgb(115,180,184)"/><path d="M 250.8108 232.896 c 7.8,0.46666666666667 7.8,0.53333333333333 9,1 
C 259.5108,233.55433333333 259.5108,233.48766666667 250.5842,258.558
 " stroke="rgb(115,180,184)" stroke-linejoin="arcs"  stroke-width="5" fill="rgb(115,180,184)"/><path d="M 250.2784 280.32 c -48,-3.6666666666667 -72,-3.6666666666667 -120,-11 
C 190.2784,278.02833333333 214.2784,278.02833333333 249.9,298.65
 " stroke="rgb(115,180,184)" stroke-linejoin="arcs"  stroke-width="5" fill="rgb(115,180,184)"/><path d="M 249.9 298.65 c -78.666666666667,-4.2666666666667 -47.2,-1.0666666666667 -118,-8 
C 214.5,298.58333333333 183.03333333333,295.38333333333 249.4556,314.016
 " stroke="rgb(115,180,184)" stroke-linejoin="arcs"  stroke-width="5" fill="rgb(115,180,184)"/><path d="M 248.3952 337.728 c -0.86666666666667,4 -5.2,4 -13,15 
C 244.4952,343.603 248.82853333333,343.603 247.7924,347.01
 " stroke="rgb(115,180,184)" stroke-linejoin="arcs"  stroke-width="5" fill="rgb(115,180,184)"/><path d="M 250.5842 258.558 c -6.6666666666667,1.4 -60,3.2666666666667 -100,7 
C 200.5842,262.69966666667 253.91753333333,260.833 250.2784,280.32
 " stroke="rgb(115,180,184)" stroke-linejoin="arcs"  stroke-width="5" fill="rgb(115,180,184)"/><path d="M 250.9516 202.866 c 1.7333333333333,-9.8 1.7333333333333,-9.8 2,-49 
C 252.88493333333,199.191 252.88493333333,199.191 250.8108,232.896
 " stroke="rgb(115,180,184)" stroke-linejoin="arcs"  stroke-width="5" fill="rgb(115,180,184)"/><path d="M 248.3952 337.728 c 71.133333333333,-7.8 19.4,-20.8 97,-39 
C 277.4952,321.803 329.22853333333,334.803 247.7924,347.01
 " stroke="rgb(115,180,184)" stroke-linejoin="arcs"  stroke-width="5" fill="rgb(115,180,184)"/><polygon 
stroke="rgb(179,66,107)"
fill="rgb(179,66,107)"
stroke-width="80"
stroke-linejoin="round" 
opacity="1"
points="222 , 147 205 , 183 184 , 183 202 , 155 200 , 179 220 , 162 192 , 141 208 , 162 236 , 155 217 , 158 207 , 157 237 , 152 245 , 175 260 , 178 261 , 187 255 , 144 254 , 194 250 , 142 232 , 170 218 , 150 219 , 172 245 , 145 228 , 149 205 , 177 224 , 184 232 , 138 ">
</polygon><polygon 
stroke="rgb(169,56,97)"
fill="rgb(169,56,97)"
stroke-width="80"
stroke-linejoin="round" 
opacity="1"
points="132.2784 , 267.32 125.2784 , 243.32 143.2784 , 254.32 142.2784 , 264.32 121.2784 , 290.32 151.2784 , 261.32 134.2784 , 288.32 110.2784 , 240.32 89.2784 , 270.32 81.2784 , 279.32 84.2784 , 242.32 69.2784 , 273.32 71.2784 , 246.32 57.2784 , 259.32 85.2784 , 263.32 58.2784 , 276.32 69.2784 , 270.32 76.2784 , 252.32 70.2784 , 273.32 89.2784 , 269.32 77.2784 , 278.32 91.2784 , 246.32 100.2784 , 242.32 89.2784 , 240.32 79.2784 , 259.32 99.2784 , 283.32 90.2784 , 298.32 69.2784 , 257.32 67.2784 , 248.32 96.2784 , 258.32 ">
</polygon><polygon 
stroke="rgb(169,56,97)"
fill="rgb(169,56,97)"
stroke-width="60"
stroke-linejoin="round" 
opacity="1"
points="133.9 , 286.65 142.9 , 298.65 148.9 , 284.65 153.9 , 288.65 147.9 , 293.65 137.9 , 284.65 145.9 , 295.65 153.9 , 281.65 157.9 , 295.65 148.9 , 289.65 153.9 , 299.65 145.9 , 299.65 143.9 , 292.65 137.9 , 280.65 ">
</polygon><polygon 
stroke="rgb(179,66,107)"
fill="rgb(179,66,107)"
stroke-width="70"
stroke-linejoin="round" 
opacity="1"
points="165.5842 , 272.558 185.5842 , 264.558 204.5842 , 246.558 206.5842 , 277.558 198.5842 , 256.558 196.5842 , 271.558 192.5842 , 252.558 194.5842 , 269.558 206.5842 , 245.558 206.5842 , 274.558 201.5842 , 246.558 198.5842 , 256.558 195.5842 , 256.558 214.5842 , 273.558 225.5842 , 269.558 209.5842 , 284.558 208.5842 , 279.558 ">
</polygon></svg>