<?xml version="1.0" encoding="iso-8859-1"?>
<svg version="1.1" id="Capa_1" xmlns="http://www.w3.org/2000/svg" xmlns:xlink="http://www.w3.org/1999/xlink" x="0px" y="0px"
viewBox="0 0 500 500" xml:space="preserve"><defs></defs><polygon 
stroke="rgb(115,122,160)"
fill="rgb(115,122,160)"
stroke-width="80"
stroke-linejoin="round" 
opacity="1"
points="253 , 159 269 , 142 278 , 172 286 , 149 272 , 184 260 , 156 259 , 171 271 , 169 250 , 173 266 , 187 294 , 172 290 , 174 311 , 170 295 , 138 295 , 174 266 , 159 290 , 178 277 , 148 272 , 154 280 , 164 ">
</polygon><polygon 
stroke="rgb(115,122,160)"
fill="rgb(115,122,160)"
stroke-width="70"
stroke-linejoin="round" 
opacity="1"
points="263 , 147 259 , 155 255 , 181 249 , 174 248 , 150 238 , 186 256 , 151 274 , 152 287 , 161 281 , 158 269 , 173 287 , 155 286 , 171 291 , 179 277 , 151 ">
</polygon><polygon 
stroke="rgb(125,132,170)"
fill="rgb(125,132,170)"
stroke-width="60"
stroke-linejoin="round" 
opacity="1"
points="270 , 159 270 , 176 272 , 163 278 , 171 274 , 168 265 , 168 271 , 168 272 , 159 279 , 165 289 , 170 285 , 163 275 , 164 272 , 171 275 , 174 268 , 166 261 , 156 255 , 158 251 , 164 243 , 176 250 , 176 258 , 158 248 , 160 252 , 165 248 , 156 251 , 166 242 , 160 233 , 160 235 , 158 229 , 163 ">
</polygon><polygon 
stroke="rgb(105,112,150)"
fill="rgb(105,112,150)"
stroke-width="80"
stroke-linejoin="round" 
opacity="1"
points="348.344 , 244.9056 368.344 , 247.9056 388.344 , 259.9056 371.344 , 251.9056 366.344 , 224.9056 343.344 , 222.9056 360.344 , 239.9056 373.344 , 226.9056 370.344 , 268.9056 347.344 , 212.9056 367.344 , 262.9056 375.344 , 233.9056 373.344 , 271.9056 374.344 , 272.9056 377.344 , 258.9056 368.344 , 250.9056 370.344 , 244.9056 361.344 , 215.9056 384.344 , 234.9056 382.344 , 251.9056 359.344 , 270.9056 380.344 , 258.9056 391.344 , 265.9056 363.344 , 225.9056 382.344 , 253.9056 389.344 , 263.9056 383.344 , 225.9056 ">
</polygon><polygon 
stroke="rgb(105,112,150)"
fill="rgb(105,112,150)"
stroke-width="70"
stroke-linejoin="round" 
opacity="1"
points="331.344 , 244.9056 343.344 , 240.9056 355.344 , 235.9056 364.344 , 256.9056 351.344 , 233.9056 355.344 , 230.9056 371.344 , 233.9056 359.344 , 235.9056 375.344 , 233.9056 383.344 , 257.9056 403.344 , 233.9056 397.344 , 224.9056 ">
</polygon><polygon 
stroke="rgb(125,132,170)"
fill="rgb(125,132,170)"
stroke-width="60"
stroke-linejoin="round" 
opacity="1"
points="325.344 , 233.9056 316.344 , 241.9056 308.344 , 243.9056 301.344 , 237.9056 298.344 , 235.9056 299.344 , 245.9056 302.344 , 249.9056 302.344 , 236.9056 304.344 , 251.9056 309.344 , 237.9056 312.344 , 242.9056 317.344 , 251.9056 321.344 , 252.9056 ">
</polygon><polygon 
stroke="rgb(105,112,150)"
fill="rgb(105,112,150)"
stroke-width="80"
stroke-linejoin="round" 
opacity="1"
points="182.4045 , 131.0524 156.4045 , 154.0524 183.4045 , 139.0524 189.4045 , 169.0524 201.4045 , 140.0524 201.4045 , 176.0524 182.4045 , 146.0524 192.4045 , 124.0524 192.4045 , 166.0524 214.4045 , 173.0524 ">
</polygon><polygon 
stroke="rgb(115,122,160)"
fill="rgb(115,122,160)"
stroke-width="80"
stroke-linejoin="round" 
opacity="1"
points="288.6 , 283.7008 278.6 , 336.7008 307.6 , 323.7008 326.6 , 294.7008 303.6 , 287.7008 318.6 , 298.7008 347.6 , 294.7008 319.6 , 288.7008 291.6 , 301.7008 321.6 , 334.7008 332.6 , 289.7008 316.6 , 300.7008 290.6 , 292.7008 287.6 , 331.7008 ">
</polygon><polygon 
stroke="rgb(125,132,170)"
fill="rgb(125,132,170)"
stroke-width="70"
stroke-linejoin="round" 
opacity="1"
points="283.6 , 311.7008 301.6 , 322.7008 315.6 , 299.7008 330.6 , 299.7008 340.6 , 305.7008 329.6 , 325.7008 346.6 , 318.7008 330.6 , 310.7008 321.6 , 327.7008 309.6 , 320.7008 323.6 , 316.7008 333.6 , 295.7008 315.6 , 310.7008 314.6 , 299.7008 330.6 , 321.7008 316.6 , 325.7008 329.6 , 300.7008 339.6 , 301.7008 350.6 , 298.7008 342.6 , 330.7008 353.6 , 298.7008 334.6 , 322.7008 341.6 , 309.7008 357.6 , 291.7008 366.6 , 329.7008 351.6 , 312.7008 370.6 , 306.7008 378.6 , 314.7008 390.6 , 304.7008 399.6 , 295.7008 ">
</polygon><polygon 
stroke="rgb(125,132,170)"
fill="rgb(125,132,170)"
stroke-width="60"
stroke-linejoin="round" 
opacity="1"
points="296.6 , 317.7008 302.6 , 313.7008 300.6 , 307.7008 304.6 , 309.7008 295.6 , 304.7008 285.6 , 302.7008 289.6 , 305.7008 298.6 , 308.7008 289.6 , 319.7008 288.6 , 301.7008 286.6 , 307.7008 277.6 , 306.7008 280.6 , 305.7008 280.6 , 313.7008 273.6 , 311.7008 274.6 , 309.7008 283.6 , 308.7008 285.6 , 317.7008 276.6 , 313.7008 273.6 , 314.7008 267.6 , 313.7008 273.6 , 305.7008 264.6 , 310.7008 ">
</polygon><polygon 
stroke="rgb(105,112,150)"
fill="rgb(105,112,150)"
stroke-width="80"
stroke-linejoin="round" 
opacity="1"
points="160.1715 , 274.7592 148.1715 , 309.7592 176.1715 , 321.7592 151.1715 , 305.7592 178.1715 , 269.7592 179.1715 , 315.7592 184.1715 , 326.7592 183.1715 , 293.7592 169.1715 , 309.7592 151.1715 , 327.7592 167.1715 , 303.7592 152.1715 , 325.7592 182.1715 , 275.7592 205.1715 , 323.7592 222.1715 , 272.7592 232.1715 , 285.7592 243.1715 , 270.7592 220.1715 , 271.7592 229.1715 , 274.7592 220.1715 , 320.7592 193.1715 , 290.7592 166.1715 , 312.7592 ">
</polygon><polygon 
stroke="rgb(115,122,160)"
fill="rgb(115,122,160)"
stroke-width="70"
stroke-linejoin="round" 
opacity="1"
points="184.1715 , 309.7592 186.1715 , 292.7592 206.1715 , 310.7592 210.1715 , 297.7592 190.1715 , 278.7592 194.1715 , 296.7592 207.1715 , 298.7592 192.1715 , 303.7592 177.1715 , 279.7592 158.1715 , 286.7592 174.1715 , 284.7592 167.1715 , 312.7592 152.1715 , 306.7592 ">
</polygon><polygon 
stroke="rgb(105,112,150)"
fill="rgb(105,112,150)"
stroke-width="60"
stroke-linejoin="round" 
opacity="1"
points="171.1715 , 288.7592 166.1715 , 300.7592 161.1715 , 299.7592 165.1715 , 298.7592 157.1715 , 295.7592 154.1715 , 304.7592 156.1715 , 289.7592 152.1715 , 297.7592 147.1715 , 296.7592 140.1715 , 306.7592 145.1715 , 308.7592 142.1715 , 294.7592 141.1715 , 290.7592 145.1715 , 292.7592 150.1715 , 301.7592 151.1715 , 293.7592 158.1715 , 299.7592 150.1715 , 305.7592 149.1715 , 308.7592 143.1715 , 295.7592 147.1715 , 293.7592 140.1715 , 288.7592 132.1715 , 307.7592 142.1715 , 308.7592 150.1715 , 308.7592 ">
</polygon><polygon 
stroke="rgb(105,112,150)"
fill="rgb(105,112,150)"
stroke-width="80"
stroke-linejoin="round" 
opacity="1"
points="217.7 , 240.7 245.7 , 260.7 249.7 , 282.7 238.7 , 252.7 248.7 , 259.7 252.7 , 273.7 248.7 , 264.7 269.7 , 247.7 268.7 , 252.7 243.7 , 271.7 216.7 , 266.7 228.7 , 277.7 224.7 , 265.7 208.7 , 277.7 203.7 , 279.7 233.7 , 267.7 252.7 , 260.7 253.7 , 291.7 ">
</polygon><polygon 
stroke="rgb(125,132,170)"
fill="rgb(125,132,170)"
stroke-width="70"
stroke-linejoin="round" 
opacity="1"
points="204.7 , 263.7 191.7 , 266.7 200.7 , 265.7 199.7 , 275.7 186.7 , 261.7 204.7 , 269.7 200.7 , 276.7 205.7 , 246.7 203.7 , 244.7 188.7 , 280.7 207.7 , 274.7 210.7 , 278.7 206.7 , 254.7 ">
</polygon><polygon 
stroke="rgb(125,132,170)"
fill="rgb(125,132,170)"
stroke-width="60"
stroke-linejoin="round" 
opacity="1"
points="192.7 , 266.7 201.7 , 264.7 201.7 , 258.7 207.7 , 266.7 200.7 , 264.7 199.7 , 272.7 205.7 , 256.7 214.7 , 254.7 210.7 , 267.7 207.7 , 266.7 214.7 , 264.7 209.7 , 259.7 216.7 , 260.7 206.7 , 263.7 198.7 , 274.7 190.7 , 257.7 195.7 , 271.7 193.7 , 267.7 185.7 , 259.7 175.7 , 269.7 183.7 , 268.7 189.7 , 270.7 191.7 , 264.7 201.7 , 272.7 192.7 , 264.7 184.7 , 259.7 191.7 , 257.7 199.7 , 257.7 ">
</polygon><polygon 
stroke="rgb(125,132,170)"
fill="rgb(125,132,170)"
stroke-width="70"
stroke-linejoin="round" 
opacity="1"
points="191.6 , 252.7008 183.6 , 248.7008 165.6 , 242.7008 159.6 , 222.7008 169.6 , 229.7008 169.6 , 231.7008 185.6 , 246.7008 167.6 , 217.7008 187.6 , 241.7008 201.6 , 226.7008 217.6 , 250.7008 221.6 , 218.7008 217.6 , 220.7008 198.6 , 242.7008 214.6 , 247.7008 198.6 , 220.7008 217.6 , 216.7008 214.6 , 229.7008 ">
</polygon><polygon 
stroke="rgb(105,112,150)"
fill="rgb(105,112,150)"
stroke-width="60"
stroke-linejoin="round" 
opacity="1"
points="167.6 , 223.7008 176.6 , 229.7008 173.6 , 231.7008 173.6 , 241.7008 178.6 , 227.7008 169.6 , 227.7008 170.6 , 224.7008 160.6 , 240.7008 170.6 , 230.7008 160.6 , 223.7008 153.6 , 224.7008 158.6 , 226.7008 160.6 , 237.7008 160.6 , 236.7008 155.6 , 231.7008 163.6 , 227.7008 168.6 , 228.7008 162.6 , 242.7008 154.6 , 227.7008 146.6 , 239.7008 155.6 , 237.7008 149.6 , 234.7008 157.6 , 227.7008 150.6 , 236.7008 152.6 , 222.7008 153.6 , 237.7008 163.6 , 224.7008 153.6 , 226.7008 152.6 , 235.7008 154.6 , 235.7008 ">
</polygon><polygon 
stroke="rgb(115,122,160)"
fill="rgb(115,122,160)"
stroke-width="80"
stroke-linejoin="round" 
opacity="1"
points="244.6 , 285.7008 269.6 , 262.7008 267.6 , 290.7008 268.6 , 295.7008 293.6 , 301.7008 306.6 , 286.7008 292.6 , 299.7008 273.6 , 288.7008 283.6 , 308.7008 253.6 , 273.7008 257.6 , 301.7008 279.6 , 315.7008 290.6 , 270.7008 ">
</polygon><polygon 
stroke="rgb(105,112,150)"
fill="rgb(105,112,150)"
stroke-width="70"
stroke-linejoin="round" 
opacity="1"
points="267.6 , 304.7008 268.6 , 306.7008 278.6 , 303.7008 290.6 , 307.7008 293.6 , 280.7008 282.6 , 281.7008 301.6 , 277.7008 316.6 , 272.7008 305.6 , 286.7008 300.6 , 286.7008 288.6 , 271.7008 272.6 , 294.7008 285.6 , 285.7008 277.6 , 304.7008 278.6 , 306.7008 293.6 , 290.7008 293.6 , 291.7008 308.6 , 299.7008 311.6 , 279.7008 317.6 , 295.7008 315.6 , 306.7008 331.6 , 309.7008 329.6 , 296.7008 327.6 , 308.7008 339.6 , 294.7008 ">
</polygon><polygon 
stroke="rgb(105,112,150)"
fill="rgb(105,112,150)"
stroke-width="60"
stroke-linejoin="round" 
opacity="1"
points="266.6 , 290.7008 274.6 , 292.7008 282.6 , 294.7008 278.6 , 297.7008 280.6 , 288.7008 290.6 , 294.7008 283.6 , 292.7008 290.6 , 286.7008 282.6 , 292.7008 278.6 , 280.7008 284.6 , 293.7008 294.6 , 279.7008 295.6 , 289.7008 291.6 , 298.7008 292.6 , 279.7008 295.6 , 291.7008 298.6 , 297.7008 303.6 , 291.7008 293.6 , 292.7008 296.6 , 289.7008 293.6 , 289.7008 299.6 , 290.7008 ">
</polygon><polygon 
stroke="rgb(125,132,170)"
fill="rgb(125,132,170)"
stroke-width="80"
stroke-linejoin="round" 
opacity="1"
points="264.6 , 299.7008 246.6 , 322.7008 220.6 , 334.7008 213.6 , 299.7008 230.6 , 328.7008 217.6 , 299.7008 203.6 , 289.7008 228.6 , 341.7008 253.6 , 348.7008 276.6 , 313.7008 253.6 , 294.7008 ">
</polygon><polygon 
stroke="rgb(125,132,170)"
fill="rgb(125,132,170)"
stroke-width="70"
stroke-linejoin="round" 
opacity="1"
points="280.6 , 339.7008 271.6 , 304.7008 278.6 , 301.7008 277.6 , 328.7008 272.6 , 308.7008 274.6 , 326.7008 271.6 , 299.7008 255.6 , 309.7008 235.6 , 325.7008 221.6 , 303.7008 213.6 , 336.7008 217.6 , 331.7008 216.6 , 326.7008 213.6 , 300.7008 209.6 , 304.7008 218.6 , 334.7008 205.6 , 333.7008 215.6 , 319.7008 230.6 , 301.7008 ">
</polygon><polygon 
stroke="rgb(105,112,150)"
fill="rgb(105,112,150)"
stroke-width="60"
stroke-linejoin="round" 
opacity="1"
points="271.6 , 319.7008 265.6 , 329.7008 272.6 , 318.7008 274.6 , 320.7008 279.6 , 322.7008 279.6 , 325.7008 270.6 , 322.7008 269.6 , 319.7008 276.6 , 324.7008 281.6 , 325.7008 281.6 , 321.7008 289.6 , 316.7008 285.6 , 317.7008 277.6 , 310.7008 268.6 , 313.7008 274.6 , 327.7008 280.6 , 317.7008 288.6 , 323.7008 281.6 , 309.7008 284.6 , 316.7008 284.6 , 320.7008 289.6 , 317.7008 ">
</polygon><polygon 
stroke="rgb(125,132,170)"
fill="rgb(125,132,170)"
stroke-width="80"
stroke-linejoin="round" 
opacity="1"
points="219.484 , 126.0952 205.484 , 184.0952 189.484 , 174.0952 194.484 , 139.0952 173.484 , 173.0952 160.484 , 147.0952 150.484 , 153.0952 160.484 , 170.0952 188.484 , 134.0952 198.484 , 140.0952 190.484 , 174.0952 168.484 , 143.0952 195.484 , 133.0952 193.484 , 142.0952 196.484 , 145.0952 199.484 , 160.0952 171.484 , 183.0952 177.484 , 166.0952 ">
</polygon><polygon 
stroke="rgb(115,122,160)"
fill="rgb(115,122,160)"
stroke-width="70"
stroke-linejoin="round" 
opacity="1"
points="225.484 , 163.0952 245.484 , 141.0952 227.484 , 164.0952 241.484 , 160.0952 250.484 , 148.0952 267.484 , 136.0952 272.484 , 151.0952 281.484 , 153.0952 282.484 , 161.0952 272.484 , 145.0952 ">
</polygon><path d="M 240 480 c 33.6,-125.6 9.6,-146.53333333333 36,-314 
C 292.6,353.46666666667 316.6,374.4 309,480
 " stroke="rgb(179,103,148)" stroke-linejoin="arcs"  stroke-width="5" fill="rgb(179,103,148)"/><path d="M 265.344 250.9056 c 38,-3.2 45.6,-2.6666666666667 57,-8 
C 316.644,249.23893333333 309.044,248.7056 263.9625,268.05
 " stroke="rgb(179,103,148)" stroke-linejoin="arcs"  stroke-width="5" fill="rgb(179,103,148)"/><path d="M 272.4045 190.0524 c -6.1333333333333,-22.4 -12.266666666667,-8.4 -92,-42 
C 269.33783333333,186.9024 275.47116666667,172.9024 269.484,212.0952
 " stroke="rgb(179,103,148)" stroke-linejoin="arcs"  stroke-width="5" fill="rgb(179,103,148)"/><path d="M 261.6 312.7008 c 13.866666666667,-0.4 3.4666666666667,-0.46666666666667 26,-1 
C 267.66666666667,312.35913333333 278.06666666667,312.4258 261.1365,325.9516
 " stroke="rgb(179,103,148)" stroke-linejoin="arcs"  stroke-width="5" fill="rgb(179,103,148)"/><path d="M 262.1715 298.7592 c -37.8,0 -64.8,0 -81,0 
C 205.4715,298.7592 232.4715,298.7592 261.6,312.7008
 " stroke="rgb(179,103,148)" stroke-linejoin="arcs"  stroke-width="5" fill="rgb(179,103,148)"/><path d="M 260.7 338.7 c -62.4,-34.533333333333 -62.4,-19.733333333333 -72,-74 
C 205.5,328.21666666667 205.5,313.41666666667 260.2095,351.1344
 " stroke="rgb(179,103,148)" stroke-linejoin="arcs"  stroke-width="5" fill="rgb(179,103,148)"/><path d="M 261.6 312.7008 c -71.2,-16 -35.6,-21.333333333333 -89,-80 
C 234.9,301.36746666667 199.3,306.7008 261.1365,325.9516
 " stroke="rgb(179,103,148)" stroke-linejoin="arcs"  stroke-width="5" fill="rgb(179,103,148)"/><path d="M 261.6 312.7008 c 4.3333333333333,-12.266666666667 3.4666666666667,-3.0666666666667 13,-23 
C 266.36666666667,312.50913333333 267.23333333333,303.30913333333 261.1365,325.9516
 " stroke="rgb(179,103,148)" stroke-linejoin="arcs"  stroke-width="5" fill="rgb(179,103,148)"/><path d="M 261.6 312.7008 c 0.4,3.2666666666667 0.73333333333333,1.4 1,7 
C 262.43333333333,314.9758 262.1,316.84246666667 261.1365,325.9516
 " stroke="rgb(179,103,148)" stroke-linejoin="arcs"  stroke-width="5" fill="rgb(179,103,148)"/><path d="M 269.484 212.0952 c -29.866666666667,-7.4666666666667 -34.133333333333,-22.4 -64,-56 
C 241.75066666667,196.6952 246.01733333333,211.62853333333 267.1575,232.3168
 " stroke="rgb(179,103,148)" stroke-linejoin="arcs"  stroke-width="5" fill="rgb(179,103,148)"/><polygon 
stroke="rgb(115,122,160)"
fill="rgb(115,122,160)"
stroke-width="70"
stroke-linejoin="round" 
opacity="1"
points="199.4045 , 141.0524 187.4045 , 133.0524 193.4045 , 145.0524 191.4045 , 137.0524 192.4045 , 148.0524 197.4045 , 150.0524 201.4045 , 164.0524 205.4045 , 157.0524 221.4045 , 145.0524 207.4045 , 166.0524 201.4045 , 140.0524 195.4045 , 161.0524 210.4045 , 160.0524 199.4045 , 157.0524 214.4045 , 153.0524 224.4045 , 155.0524 206.4045 , 135.0524 198.4045 , 167.0524 186.4045 , 168.0524 194.4045 , 161.0524 202.4045 , 155.0524 187.4045 , 141.0524 202.4045 , 150.0524 192.4045 , 168.0524 197.4045 , 150.0524 186.4045 , 146.0524 175.4045 , 145.0524 187.4045 , 159.0524 ">
</polygon><polygon 
stroke="rgb(105,112,150)"
fill="rgb(105,112,150)"
stroke-width="60"
stroke-linejoin="round" 
opacity="1"
points="183.4045 , 150.0524 182.4045 , 141.0524 181.4045 , 148.0524 183.4045 , 154.0524 190.4045 , 139.0524 181.4045 , 141.0524 182.4045 , 156.0524 186.4045 , 146.0524 184.4045 , 148.0524 191.4045 , 151.0524 185.4045 , 154.0524 180.4045 , 141.0524 183.4045 , 143.0524 192.4045 , 146.0524 193.4045 , 157.0524 201.4045 , 158.0524 211.4045 , 147.0524 214.4045 , 144.0524 224.4045 , 146.0524 214.4045 , 151.0524 224.4045 , 138.0524 225.4045 , 139.0524 233.4045 , 155.0524 232.4045 , 150.0524 242.4045 , 149.0524 248.4045 , 144.0524 249.4045 , 156.0524 ">
</polygon><polygon 
stroke="rgb(105,112,150)"
fill="rgb(105,112,150)"
stroke-width="80"
stroke-linejoin="round" 
opacity="1"
points="202.6 , 234.7008 222.6 , 247.7008 209.6 , 261.7008 215.6 , 255.7008 244.6 , 235.7008 239.6 , 223.7008 238.6 , 239.7008 229.6 , 203.7008 250.6 , 258.7008 260.6 , 207.7008 253.6 , 208.7008 259.6 , 238.7008 270.6 , 229.7008 300.6 , 205.7008 301.6 , 220.7008 283.6 , 226.7008 308.6 , 262.7008 315.6 , 225.7008 322.6 , 206.7008 332.6 , 205.7008 350.6 , 242.7008 ">
</polygon><polygon 
stroke="rgb(105,112,150)"
fill="rgb(105,112,150)"
stroke-width="60"
stroke-linejoin="round" 
opacity="1"
points="212.484 , 160.0952 221.484 , 148.0952 231.484 , 166.0952 232.484 , 147.0952 228.484 , 154.0952 221.484 , 156.0952 218.484 , 159.0952 213.484 , 150.0952 221.484 , 155.0952 213.484 , 154.0952 221.484 , 164.0952 213.484 , 149.0952 203.484 , 152.0952 201.484 , 147.0952 197.484 , 148.0952 193.484 , 160.0952 186.484 , 162.0952 ">
</polygon></svg>