<?xml version="1.0" encoding="iso-8859-1"?>
<svg version="1.1" id="Capa_1" xmlns="http://www.w3.org/2000/svg" xmlns:xlink="http://www.w3.org/1999/xlink" x="0px" y="0px"
viewBox="0 0 500 500" xml:space="preserve"><defs></defs><polygon 
stroke="rgb(140,173,171)"
fill="rgb(140,173,171)"
stroke-width="70"
stroke-linejoin="round" 
opacity="1"
points="264 , 146 265 , 160 273 , 155 277 , 165 267 , 162 281 , 150 269 , 146 262 , 177 281 , 155 281 , 170 267 , 175 272 , 180 266 , 159 265 , 153 278 , 172 297 , 178 291 , 154 309 , 179 308 , 171 300 , 148 287 , 174 302 , 171 315 , 184 324 , 163 324 , 185 339 , 171 ">
</polygon><polygon 
stroke="rgb(120,153,151)"
fill="rgb(120,153,151)"
stroke-width="60"
stroke-linejoin="round" 
opacity="1"
points="252 , 175 251 , 161 259 , 168 267 , 174 277 , 175 272 , 175 281 , 160 287 , 169 296 , 157 303 , 165 307 , 164 313 , 160 308 , 164 312 , 172 317 , 168 312 , 161 320 , 176 315 , 173 317 , 174 323 , 164 314 , 172 ">
</polygon><polygon 
stroke="rgb(120,153,151)"
fill="rgb(120,153,151)"
stroke-width="70"
stroke-linejoin="round" 
opacity="1"
points="176.4335 , 209.7329 181.4335 , 194.7329 194.4335 , 187.7329 181.4335 , 210.7329 175.4335 , 200.7329 171.4335 , 182.7329 176.4335 , 190.7329 187.4335 , 185.7329 180.4335 , 215.7329 164.4335 , 207.7329 ">
</polygon><polygon 
stroke="rgb(120,153,151)"
fill="rgb(120,153,151)"
stroke-width="80"
stroke-linejoin="round" 
opacity="1"
points="172.1805 , 154.3167 175.1805 , 108.3167 199.1805 , 102.3167 170.1805 , 136.3167 145.1805 , 117.3167 138.1805 , 122.3167 156.1805 , 150.3167 136.1805 , 148.3167 158.1805 , 111.3167 145.1805 , 142.3167 168.1805 , 142.3167 ">
</polygon><polygon 
stroke="rgb(130,163,161)"
fill="rgb(130,163,161)"
stroke-width="60"
stroke-linejoin="round" 
opacity="1"
points="157.1805 , 122.3167 161.1805 , 125.3167 160.1805 , 123.3167 170.1805 , 118.3167 174.1805 , 135.3167 176.1805 , 124.3167 186.1805 , 127.3167 191.1805 , 128.3167 190.1805 , 130.3167 191.1805 , 120.3167 182.1805 , 128.3167 188.1805 , 132.3167 191.1805 , 138.3167 ">
</polygon><polygon 
stroke="rgb(120,153,151)"
fill="rgb(120,153,151)"
stroke-width="70"
stroke-linejoin="round" 
opacity="1"
points="366.5625 , 298.4875 354.5625 , 278.4875 336.5625 , 287.4875 352.5625 , 277.4875 366.5625 , 273.4875 371.5625 , 299.4875 375.5625 , 299.4875 364.5625 , 299.4875 356.5625 , 283.4875 368.5625 , 306.4875 361.5625 , 303.4875 344.5625 , 306.4875 356.5625 , 266.4875 345.5625 , 279.4875 328.5625 , 302.4875 327.5625 , 301.4875 320.5625 , 278.4875 317.5625 , 283.4875 305.5625 , 282.4875 297.5625 , 304.4875 311.5625 , 301.4875 300.5625 , 306.4875 297.5625 , 294.4875 316.5625 , 271.4875 317.5625 , 280.4875 313.5625 , 287.4875 298.5625 , 282.4875 ">
</polygon><polygon 
stroke="rgb(120,153,151)"
fill="rgb(120,153,151)"
stroke-width="60"
stroke-linejoin="round" 
opacity="1"
points="354.5625 , 292.4875 361.5625 , 293.4875 355.5625 , 292.4875 364.5625 , 285.4875 360.5625 , 282.4875 354.5625 , 287.4875 346.5625 , 286.4875 337.5625 , 277.4875 330.5625 , 279.4875 321.5625 , 287.4875 323.5625 , 276.4875 313.5625 , 279.4875 ">
</polygon><polygon 
stroke="rgb(130,163,161)"
fill="rgb(130,163,161)"
stroke-width="80"
stroke-linejoin="round" 
opacity="1"
points="251.512 , 241.0208 255.512 , 275.0208 245.512 , 245.0208 250.512 , 275.0208 220.512 , 259.0208 238.512 , 281.0208 214.512 , 277.0208 233.512 , 260.0208 228.512 , 250.0208 252.512 , 238.0208 253.512 , 227.0208 276.512 , 267.0208 304.512 , 243.0208 288.512 , 259.0208 301.512 , 284.0208 307.512 , 275.0208 308.512 , 273.0208 319.512 , 263.0208 318.512 , 281.0208 288.512 , 238.0208 296.512 , 232.0208 321.512 , 236.0208 313.512 , 267.0208 320.512 , 240.0208 330.512 , 244.0208 318.512 , 280.0208 ">
</polygon><polygon 
stroke="rgb(120,153,151)"
fill="rgb(120,153,151)"
stroke-width="60"
stroke-linejoin="round" 
opacity="1"
points="277.512 , 250.0208 280.512 , 253.0208 272.512 , 263.0208 264.512 , 251.0208 257.512 , 259.0208 261.512 , 248.0208 262.512 , 245.0208 253.512 , 249.0208 249.512 , 246.0208 259.512 , 261.0208 250.512 , 246.0208 259.512 , 244.0208 258.512 , 259.0208 258.512 , 252.0208 263.512 , 256.0208 268.512 , 263.0208 277.512 , 247.0208 280.512 , 255.0208 287.512 , 263.0208 ">
</polygon><polygon 
stroke="rgb(120,153,151)"
fill="rgb(120,153,151)"
stroke-width="80"
stroke-linejoin="round" 
opacity="1"
points="233.5445 , 304.0263 244.5445 , 337.0263 239.5445 , 306.0263 262.5445 , 298.0263 260.5445 , 291.0263 270.5445 , 331.0263 250.5445 , 291.0263 235.5445 , 327.0263 240.5445 , 331.0263 235.5445 , 307.0263 261.5445 , 291.0263 262.5445 , 310.0263 271.5445 , 300.0263 281.5445 , 308.0263 299.5445 , 300.0263 296.5445 , 342.0263 326.5445 , 321.0263 ">
</polygon><polygon 
stroke="rgb(130,163,161)"
fill="rgb(130,163,161)"
stroke-width="70"
stroke-linejoin="round" 
opacity="1"
points="223.5445 , 330.0263 218.5445 , 330.0263 223.5445 , 311.0263 237.5445 , 305.0263 221.5445 , 337.0263 215.5445 , 333.0263 221.5445 , 326.0263 225.5445 , 306.0263 206.5445 , 317.0263 211.5445 , 336.0263 219.5445 , 309.0263 211.5445 , 324.0263 202.5445 , 314.0263 203.5445 , 333.0263 190.5445 , 311.0263 184.5445 , 331.0263 175.5445 , 336.0263 185.5445 , 318.0263 179.5445 , 307.0263 175.5445 , 308.0263 180.5445 , 312.0263 163.5445 , 301.0263 156.5445 , 339.0263 138.5445 , 309.0263 122.5445 , 308.0263 130.5445 , 317.0263 123.5445 , 325.0263 104.5445 , 327.0263 109.5445 , 312.0263 ">
</polygon><polygon 
stroke="rgb(120,153,151)"
fill="rgb(120,153,151)"
stroke-width="60"
stroke-linejoin="round" 
opacity="1"
points="230.5445 , 331.0263 225.5445 , 331.0263 217.5445 , 327.0263 226.5445 , 326.0263 220.5445 , 325.0263 214.5445 , 331.0263 221.5445 , 312.0263 212.5445 , 326.0263 208.5445 , 317.0263 208.5445 , 317.0263 207.5445 , 321.0263 215.5445 , 312.0263 222.5445 , 318.0263 223.5445 , 329.0263 227.5445 , 312.0263 228.5445 , 327.0263 236.5445 , 328.0263 235.5445 , 326.0263 225.5445 , 319.0263 222.5445 , 323.0263 230.5445 , 320.0263 240.5445 , 329.0263 238.5445 , 320.0263 238.5445 , 327.0263 246.5445 , 320.0263 ">
</polygon><polygon 
stroke="rgb(130,163,161)"
fill="rgb(130,163,161)"
stroke-width="80"
stroke-linejoin="round" 
opacity="1"
points="365.5915 , 243.3341 345.5915 , 274.3341 337.5915 , 289.3341 308.5915 , 284.3341 332.5915 , 292.3341 334.5915 , 257.3341 311.5915 , 271.3341 311.5915 , 277.3341 340.5915 , 249.3341 334.5915 , 248.3341 347.5915 , 294.3341 349.5915 , 262.3341 351.5915 , 278.3341 324.5915 , 234.3341 311.5915 , 241.3341 303.5915 , 258.3341 288.5915 , 292.3341 283.5915 , 265.3341 307.5915 , 250.3341 294.5915 , 294.3341 ">
</polygon><polygon 
stroke="rgb(130,163,161)"
fill="rgb(130,163,161)"
stroke-width="60"
stroke-linejoin="round" 
opacity="1"
points="354.5915 , 270.3341 359.5915 , 260.3341 360.5915 , 273.3341 359.5915 , 268.3341 369.5915 , 274.3341 375.5915 , 271.3341 370.5915 , 259.3341 370.5915 , 270.3341 379.5915 , 262.3341 383.5915 , 258.3341 382.5915 , 261.3341 382.5915 , 260.3341 388.5915 , 269.3341 380.5915 , 261.3341 385.5915 , 265.3341 387.5915 , 255.3341 380.5915 , 254.3341 373.5915 , 263.3341 ">
</polygon><polygon 
stroke="rgb(130,163,161)"
fill="rgb(130,163,161)"
stroke-width="80"
stroke-linejoin="round" 
opacity="1"
points="358.588 , 306.2272 332.588 , 334.2272 315.588 , 314.2272 292.588 , 359.2272 281.588 , 346.2272 290.588 , 306.2272 305.588 , 337.2272 323.588 , 325.2272 298.588 , 355.2272 289.588 , 341.2272 311.588 , 355.2272 285.588 , 316.2272 304.588 , 343.2272 334.588 , 363.2272 326.588 , 348.2272 ">
</polygon><polygon 
stroke="rgb(140,173,171)"
fill="rgb(140,173,171)"
stroke-width="70"
stroke-linejoin="round" 
opacity="1"
points="354.588 , 322.2272 346.588 , 328.2272 333.588 , 330.2272 325.588 , 345.2272 331.588 , 318.2272 316.588 , 331.2272 328.588 , 354.2272 321.588 , 316.2272 321.588 , 335.2272 325.588 , 316.2272 344.588 , 355.2272 327.588 , 326.2272 320.588 , 329.2272 303.588 , 352.2272 312.588 , 336.2272 329.588 , 340.2272 322.588 , 338.2272 322.588 , 348.2272 325.588 , 317.2272 312.588 , 337.2272 297.588 , 345.2272 278.588 , 338.2272 269.588 , 324.2272 266.588 , 325.2272 286.588 , 323.2272 298.588 , 348.2272 308.588 , 353.2272 298.588 , 334.2272 ">
</polygon><polygon 
stroke="rgb(120,153,151)"
fill="rgb(120,153,151)"
stroke-width="60"
stroke-linejoin="round" 
opacity="1"
points="349.588 , 330.2272 354.588 , 340.2272 349.588 , 336.2272 351.588 , 332.2272 349.588 , 338.2272 359.588 , 334.2272 352.588 , 335.2272 360.588 , 329.2272 366.588 , 326.2272 371.588 , 341.2272 ">
</polygon><polygon 
stroke="rgb(130,163,161)"
fill="rgb(130,163,161)"
stroke-width="80"
stroke-linejoin="round" 
opacity="1"
points="208.5 , 313.8 189.5 , 358.8 185.5 , 320.8 185.5 , 331.8 162.5 , 316.8 144.5 , 349.8 126.5 , 362.8 149.5 , 314.8 177.5 , 331.8 182.5 , 328.8 199.5 , 320.8 227.5 , 319.8 251.5 , 363.8 236.5 , 333.8 240.5 , 328.8 231.5 , 359.8 236.5 , 314.8 218.5 , 357.8 217.5 , 319.8 237.5 , 354.8 239.5 , 369.8 ">
</polygon><polygon 
stroke="rgb(130,163,161)"
fill="rgb(130,163,161)"
stroke-width="70"
stroke-linejoin="round" 
opacity="1"
points="224.5 , 353.8 232.5 , 328.8 215.5 , 331.8 221.5 , 336.8 218.5 , 345.8 225.5 , 325.8 242.5 , 327.8 259.5 , 344.8 274.5 , 335.8 268.5 , 352.8 256.5 , 321.8 253.5 , 357.8 264.5 , 349.8 272.5 , 328.8 290.5 , 346.8 305.5 , 350.8 324.5 , 357.8 311.5 , 351.8 320.5 , 321.8 306.5 , 327.8 ">
</polygon><polygon 
stroke="rgb(120,153,151)"
fill="rgb(120,153,151)"
stroke-width="60"
stroke-linejoin="round" 
opacity="1"
points="212.5 , 334.8 214.5 , 346.8 219.5 , 347.8 226.5 , 333.8 229.5 , 339.8 234.5 , 330.8 241.5 , 330.8 231.5 , 341.8 232.5 , 331.8 224.5 , 346.8 233.5 , 339.8 228.5 , 345.8 236.5 , 349.8 235.5 , 346.8 242.5 , 348.8 236.5 , 331.8 242.5 , 343.8 251.5 , 333.8 258.5 , 342.8 250.5 , 337.8 ">
</polygon><polygon 
stroke="rgb(120,153,151)"
fill="rgb(120,153,151)"
stroke-width="80"
stroke-linejoin="round" 
opacity="1"
points="373.588 , 264.2272 367.588 , 247.2272 377.588 , 245.2272 355.588 , 245.2272 337.588 , 249.2272 311.588 , 218.2272 336.588 , 234.2272 319.588 , 243.2272 305.588 , 251.2272 312.588 , 250.2272 307.588 , 226.2272 318.588 , 254.2272 303.588 , 248.2272 ">
</polygon><polygon 
stroke="rgb(140,173,171)"
fill="rgb(140,173,171)"
stroke-width="70"
stroke-linejoin="round" 
opacity="1"
points="373.588 , 227.2272 358.588 , 258.2272 365.588 , 255.2272 361.588 , 230.2272 351.588 , 254.2272 346.588 , 226.2272 345.588 , 265.2272 363.588 , 246.2272 378.588 , 255.2272 375.588 , 241.2272 394.588 , 262.2272 399.588 , 248.2272 414.588 , 235.2272 398.588 , 249.2272 ">
</polygon><path d="M 240 480 c 6.6666666666667,-41.866666666667 14.666666666667,-104.66666666667 20,-314 
C 299.66666666667,397.33333333333 291.66666666667,460.13333333333 281,480
 " stroke="rgb(167,179,140)" stroke-linejoin="arcs"  stroke-width="5" fill="rgb(167,179,140)"/><path d="M 257.4335 250.7329 c -38,-21.2 -95,-17.666666666667 -95,-53 
C 171.9335,239.69123333333 228.9335,236.1579 256.512,275.0208
 " stroke="rgb(167,179,140)" stroke-linejoin="arcs"  stroke-width="5" fill="rgb(167,179,140)"/><path d="M 259.1805 196.3167 c -66,-31.733333333333 -80.666666666667,-9.0666666666667 -110,-68 
C 189.51383333333,195.75003333333 204.1805,173.08336666667 258.324,224.5296
 " stroke="rgb(167,179,140)" stroke-linejoin="arcs"  stroke-width="5" fill="rgb(167,179,140)"/><path d="M 255.5625 297.4875 c 95.2,-5.1333333333333 54.4,-5.1333333333333 102,-11 
C 320.1625,293.72916666667 360.9625,293.72916666667 254.588,318.2272
 " stroke="rgb(167,179,140)" stroke-linejoin="arcs"  stroke-width="5" fill="rgb(167,179,140)"/><path d="M 256.512 275.0208 c 21,-2.8 9.8,-8.4 21,-21 
C 268.412,269.2458 279.612,274.8458 255.5625,297.4875
 " stroke="rgb(167,179,140)" stroke-linejoin="arcs"  stroke-width="5" fill="rgb(167,179,140)"/><path d="M 251.5445 371.0263 c -18.333333333333,-13.333333333333 -18.333333333333,-6.6666666666667 -25,-50 
C 235.71116666667,370.60963333333 235.71116666667,363.94296666667 250.5,385.8
 " stroke="rgb(167,179,140)" stroke-linejoin="arcs"  stroke-width="5" fill="rgb(167,179,140)"/><path d="M 253.5915 337.3341 c 72.6,-38.933333333333 99,-29.2 99,-73 
C 362.4915,317.2591 336.0915,307.52576666667 252.576,354.9024
 " stroke="rgb(167,179,140)" stroke-linejoin="arcs"  stroke-width="5" fill="rgb(167,179,140)"/><path d="M 254.588 318.2272 c 18,9.0666666666667 30,3.4 90,17 
C 293.588,323.7522 281.588,329.41886666667 253.5915,337.3341
 " stroke="rgb(167,179,140)" stroke-linejoin="arcs"  stroke-width="5" fill="rgb(167,179,140)"/><path d="M 250.5 385.8 c -11.666666666667,-24 -9.3333333333333,-15 -35,-45 
C 244.66666666667,376.425 242.33333333333,367.425 249.4455,399.3177
 " stroke="rgb(167,179,140)" stroke-linejoin="arcs"  stroke-width="5" fill="rgb(167,179,140)"/><path d="M 254.588 318.2272 c 0,-33.6 21.4,-19.2 107,-72 
C 286.688,308.0272 265.288,293.6272 253.5915,337.3341
 " stroke="rgb(167,179,140)" stroke-linejoin="arcs"  stroke-width="5" fill="rgb(167,179,140)"/><polygon 
stroke="rgb(140,173,171)"
fill="rgb(140,173,171)"
stroke-width="80"
stroke-linejoin="round" 
opacity="1"
points="251 , 145 266 , 169 271 , 181 279 , 175 260 , 164 290 , 190 284 , 144 279 , 174 297 , 176 292 , 175 300 , 170 317 , 139 288 , 145 318 , 154 288 , 163 302 , 184 285 , 162 296 , 159 283 , 181 265 , 142 275 , 169 299 , 181 276 , 166 292 , 153 309 , 163 331 , 139 ">
</polygon><polygon 
stroke="rgb(140,173,171)"
fill="rgb(140,173,171)"
stroke-width="80"
stroke-linejoin="round" 
opacity="1"
points="168.4335 , 186.7329 161.4335 , 178.7329 182.4335 , 227.7329 188.4335 , 224.7329 199.4335 , 167.7329 226.4335 , 178.7329 232.4335 , 203.7329 239.4335 , 167.7329 217.4335 , 194.7329 213.4335 , 201.7329 187.4335 , 217.7329 186.4335 , 192.7329 168.4335 , 194.7329 139.4335 , 207.7329 123.4335 , 193.7329 119.4335 , 186.7329 100.4335 , 222.7329 116.4335 , 171.7329 128.4335 , 215.7329 147.4335 , 205.7329 174.4335 , 225.7329 184.4335 , 219.7329 ">
</polygon><polygon 
stroke="rgb(120,153,151)"
fill="rgb(120,153,151)"
stroke-width="60"
stroke-linejoin="round" 
opacity="1"
points="167.4335 , 193.7329 175.4335 , 207.7329 183.4335 , 198.7329 176.4335 , 199.7329 169.4335 , 197.7329 169.4335 , 205.7329 169.4335 , 194.7329 178.4335 , 200.7329 171.4335 , 194.7329 169.4335 , 200.7329 166.4335 , 204.7329 156.4335 , 203.7329 161.4335 , 189.7329 152.4335 , 196.7329 153.4335 , 201.7329 161.4335 , 195.7329 151.4335 , 206.7329 156.4335 , 200.7329 151.4335 , 193.7329 158.4335 , 204.7329 167.4335 , 202.7329 167.4335 , 197.7329 159.4335 , 201.7329 164.4335 , 201.7329 159.4335 , 206.7329 154.4335 , 200.7329 156.4335 , 191.7329 ">
</polygon><polygon 
stroke="rgb(130,163,161)"
fill="rgb(130,163,161)"
stroke-width="70"
stroke-linejoin="round" 
opacity="1"
points="156.1805 , 123.3167 156.1805 , 137.3167 153.1805 , 110.3167 170.1805 , 136.3167 181.1805 , 143.3167 179.1805 , 120.3167 190.1805 , 141.3167 180.1805 , 127.3167 164.1805 , 121.3167 162.1805 , 109.3167 158.1805 , 121.3167 175.1805 , 118.3167 168.1805 , 136.3167 158.1805 , 131.3167 155.1805 , 134.3167 145.1805 , 144.3167 154.1805 , 120.3167 ">
</polygon><polygon 
stroke="rgb(140,173,171)"
fill="rgb(140,173,171)"
stroke-width="80"
stroke-linejoin="round" 
opacity="1"
points="363.5625 , 267.4875 344.5625 , 284.4875 369.5625 , 288.4875 390.5625 , 269.4875 402.5625 , 274.4875 427.5625 , 302.4875 419.5625 , 316.4875 426.5625 , 292.4875 447.5625 , 290.4875 429.5625 , 301.4875 402.5625 , 268.4875 405.5625 , 314.4875 433.5625 , 314.4875 438.5625 , 265.4875 438.5625 , 307.4875 413.5625 , 294.4875 418.5625 , 309.4875 413.5625 , 292.4875 427.5625 , 264.4875 ">
</polygon><polygon 
stroke="rgb(130,163,161)"
fill="rgb(130,163,161)"
stroke-width="70"
stroke-linejoin="round" 
opacity="1"
points="266.512 , 259.0208 286.512 , 258.0208 301.512 , 266.0208 293.512 , 249.0208 302.512 , 268.0208 321.512 , 242.0208 322.512 , 243.0208 332.512 , 250.0208 347.512 , 250.0208 335.512 , 272.0208 346.512 , 259.0208 329.512 , 235.0208 338.512 , 241.0208 344.512 , 272.0208 335.512 , 273.0208 329.512 , 263.0208 333.512 , 235.0208 347.512 , 235.0208 332.512 , 273.0208 329.512 , 245.0208 346.512 , 269.0208 331.512 , 258.0208 330.512 , 238.0208 311.512 , 241.0208 316.512 , 270.0208 ">
</polygon><polygon 
stroke="rgb(120,153,151)"
fill="rgb(120,153,151)"
stroke-width="70"
stroke-linejoin="round" 
opacity="1"
points="358.5915 , 249.3341 368.5915 , 260.3341 360.5915 , 253.3341 370.5915 , 273.3341 355.5915 , 269.3341 359.5915 , 247.3341 347.5915 , 281.3341 352.5915 , 255.3341 343.5915 , 265.3341 323.5915 , 271.3341 340.5915 , 277.3341 324.5915 , 260.3341 311.5915 , 266.3341 296.5915 , 281.3341 301.5915 , 249.3341 296.5915 , 271.3341 295.5915 , 249.3341 303.5915 , 254.3341 309.5915 , 282.3341 302.5915 , 247.3341 306.5915 , 253.3341 318.5915 , 272.3341 335.5915 , 271.3341 319.5915 , 262.3341 314.5915 , 255.3341 333.5915 , 266.3341 338.5915 , 267.3341 336.5915 , 260.3341 333.5915 , 267.3341 340.5915 , 249.3341 ">
</polygon><polygon 
stroke="rgb(140,173,171)"
fill="rgb(140,173,171)"
stroke-width="60"
stroke-linejoin="round" 
opacity="1"
points="355.588 , 253.2272 354.588 , 254.2272 347.588 , 255.2272 346.588 , 241.2272 343.588 , 249.2272 342.588 , 242.2272 351.588 , 238.2272 350.588 , 239.2272 353.588 , 254.2272 356.588 , 237.2272 364.588 , 247.2272 364.588 , 239.2272 360.588 , 242.2272 370.588 , 256.2272 363.588 , 237.2272 ">
</polygon></svg>