<?xml version="1.0" encoding="iso-8859-1"?>
<svg version="1.1" id="Capa_1" xmlns="http://www.w3.org/2000/svg" xmlns:xlink="http://www.w3.org/1999/xlink" x="0px" y="0px"
viewBox="0 0 500 500" xml:space="preserve"><defs></defs><polygon 
stroke="rgb(158,106,71)"
fill="rgb(158,106,71)"
stroke-width="80"
stroke-linejoin="round" 
opacity="1"
points="261 , 135 231 , 184 215 , 157 195 , 143 206 , 161 185 , 145 203 , 174 178 , 175 193 , 148 207 , 153 180 , 130 193 , 143 189 , 179 180 , 148 165 , 161 178 , 175 167 , 183 180 , 133 193 , 161 182 , 125 182 , 185 192 , 156 187 , 132 203 , 182 230 , 130 233 , 163 240 , 128 244 , 185 222 , 170 ">
</polygon><polygon 
stroke="rgb(148,96,61)"
fill="rgb(148,96,61)"
stroke-width="70"
stroke-linejoin="round" 
opacity="1"
points="272 , 159 285 , 142 289 , 149 291 , 155 286 , 165 280 , 135 279 , 145 298 , 154 307 , 148 303 , 167 288 , 153 287 , 152 271 , 145 286 , 151 ">
</polygon><polygon 
stroke="rgb(168,116,81)"
fill="rgb(168,116,81)"
stroke-width="60"
stroke-linejoin="round" 
opacity="1"
points="282 , 155 279 , 163 281 , 156 290 , 153 297 , 160 306 , 163 308 , 161 305 , 145 299 , 157 302 , 145 309 , 158 305 , 153 298 , 154 291 , 151 283 , 162 278 , 148 275 , 157 277 , 154 285 , 151 283 , 157 279 , 153 287 , 157 295 , 163 ">
</polygon><polygon 
stroke="rgb(168,116,81)"
fill="rgb(168,116,81)"
stroke-width="80"
stroke-linejoin="round" 
opacity="1"
points="418.878 , 261.46875 433.878 , 283.46875 446.878 , 233.46875 437.878 , 246.46875 429.878 , 240.46875 448.878 , 280.46875 446.878 , 239.46875 427.878 , 251.46875 444.878 , 277.46875 429.878 , 240.46875 427.878 , 246.46875 448.878 , 288.46875 437.878 , 261.46875 ">
</polygon><polygon 
stroke="rgb(158,106,71)"
fill="rgb(158,106,71)"
stroke-width="70"
stroke-linejoin="round" 
opacity="1"
points="408.878 , 250.46875 423.878 , 264.46875 436.878 , 271.46875 434.878 , 245.46875 426.878 , 280.46875 410.878 , 246.46875 414.878 , 255.46875 421.878 , 242.46875 403.878 , 258.46875 391.878 , 256.46875 405.878 , 276.46875 424.878 , 259.46875 443.878 , 273.46875 ">
</polygon><polygon 
stroke="rgb(158,106,71)"
fill="rgb(158,106,71)"
stroke-width="60"
stroke-linejoin="round" 
opacity="1"
points="422.878 , 261.46875 416.878 , 252.46875 417.878 , 265.46875 425.878 , 257.46875 421.878 , 261.46875 422.878 , 253.46875 425.878 , 251.46875 428.878 , 271.46875 425.878 , 260.46875 417.878 , 266.46875 427.878 , 265.46875 434.878 , 252.46875 440.878 , 255.46875 447.878 , 252.46875 446.878 , 263.46875 439.878 , 267.46875 432.878 , 264.46875 ">
</polygon><polygon 
stroke="rgb(168,116,81)"
fill="rgb(168,116,81)"
stroke-width="80"
stroke-linejoin="round" 
opacity="1"
points="214.878 , 339.46875 237.878 , 385.46875 235.878 , 374.46875 236.878 , 370.46875 227.878 , 352.46875 247.878 , 380.46875 255.878 , 380.46875 248.878 , 330.46875 226.878 , 353.46875 231.878 , 349.46875 216.878 , 329.46875 186.878 , 326.46875 156.878 , 385.46875 154.878 , 341.46875 124.878 , 343.46875 109.878 , 347.46875 98.878 , 345.46875 122.878 , 343.46875 125.878 , 381.46875 95.878 , 350.46875 66.878 , 355.46875 84.878 , 383.46875 79.878 , 358.46875 94.878 , 352.46875 112.878 , 383.46875 104.878 , 381.46875 117.878 , 380.46875 115.878 , 359.46875 132.878 , 362.46875 ">
</polygon><polygon 
stroke="rgb(168,116,81)"
fill="rgb(168,116,81)"
stroke-width="60"
stroke-linejoin="round" 
opacity="1"
points="211.878 , 349.46875 218.878 , 365.46875 208.878 , 365.46875 200.878 , 348.46875 198.878 , 360.46875 193.878 , 358.46875 189.878 , 361.46875 196.878 , 354.46875 193.878 , 358.46875 192.878 , 363.46875 195.878 , 346.46875 204.878 , 357.46875 204.878 , 348.46875 210.878 , 358.46875 216.878 , 365.46875 223.878 , 357.46875 224.878 , 358.46875 231.878 , 365.46875 240.878 , 357.46875 234.878 , 353.46875 244.878 , 365.46875 238.878 , 349.46875 248.878 , 354.46875 256.878 , 345.46875 259.878 , 356.46875 261.878 , 361.46875 269.878 , 357.46875 ">
</polygon><polygon 
stroke="rgb(158,106,71)"
fill="rgb(158,106,71)"
stroke-width="80"
stroke-linejoin="round" 
opacity="1"
points="264.5 , 276.09375 245.5 , 261.09375 226.5 , 222.09375 235.5 , 263.09375 263.5 , 250.09375 252.5 , 259.09375 230.5 , 260.09375 208.5 , 279.09375 229.5 , 226.09375 209.5 , 266.09375 ">
</polygon><polygon 
stroke="rgb(158,106,71)"
fill="rgb(158,106,71)"
stroke-width="70"
stroke-linejoin="round" 
opacity="1"
points="275.5 , 268.09375 255.5 , 262.09375 272.5 , 270.09375 272.5 , 234.09375 285.5 , 259.09375 295.5 , 240.09375 300.5 , 260.09375 280.5 , 236.09375 261.5 , 261.09375 248.5 , 237.09375 254.5 , 266.09375 247.5 , 245.09375 250.5 , 263.09375 244.5 , 268.09375 262.5 , 262.09375 281.5 , 237.09375 287.5 , 270.09375 297.5 , 252.09375 300.5 , 250.09375 304.5 , 269.09375 310.5 , 256.09375 321.5 , 254.09375 304.5 , 266.09375 ">
</polygon><polygon 
stroke="rgb(158,106,71)"
fill="rgb(158,106,71)"
stroke-width="60"
stroke-linejoin="round" 
opacity="1"
points="295.5 , 257.09375 287.5 , 252.09375 288.5 , 256.09375 298.5 , 249.09375 301.5 , 247.09375 303.5 , 246.09375 306.5 , 248.09375 300.5 , 253.09375 292.5 , 241.09375 294.5 , 259.09375 289.5 , 259.09375 299.5 , 252.09375 305.5 , 247.09375 313.5 , 255.09375 309.5 , 243.09375 312.5 , 251.09375 306.5 , 243.09375 309.5 , 247.09375 319.5 , 258.09375 324.5 , 252.09375 318.5 , 259.09375 310.5 , 246.09375 310.5 , 250.09375 318.5 , 260.09375 308.5 , 252.09375 307.5 , 242.09375 311.5 , 256.09375 301.5 , 244.09375 299.5 , 240.09375 299.5 , 249.09375 ">
</polygon><polygon 
stroke="rgb(148,96,61)"
fill="rgb(148,96,61)"
stroke-width="80"
stroke-linejoin="round" 
opacity="1"
points="258.621 , 291.50625 267.621 , 321.50625 246.621 , 272.50625 221.621 , 305.50625 191.621 , 317.50625 211.621 , 322.50625 192.621 , 281.50625 186.621 , 302.50625 180.621 , 271.50625 170.621 , 285.50625 158.621 , 316.50625 150.621 , 286.50625 168.621 , 296.50625 195.621 , 308.50625 196.621 , 316.50625 167.621 , 299.50625 196.621 , 311.50625 211.621 , 296.50625 224.621 , 312.50625 241.621 , 315.50625 235.621 , 320.50625 220.621 , 315.50625 197.621 , 279.50625 225.621 , 286.50625 199.621 , 312.50625 226.621 , 291.50625 250.621 , 290.50625 230.621 , 292.50625 235.621 , 279.50625 234.621 , 270.50625 ">
</polygon><polygon 
stroke="rgb(148,96,61)"
fill="rgb(148,96,61)"
stroke-width="70"
stroke-linejoin="round" 
opacity="1"
points="279.621 , 307.50625 270.621 , 291.50625 284.621 , 278.50625 304.621 , 302.50625 295.621 , 280.50625 296.621 , 308.50625 305.621 , 278.50625 309.621 , 305.50625 322.621 , 306.50625 309.621 , 285.50625 289.621 , 286.50625 286.621 , 275.50625 275.621 , 287.50625 259.621 , 290.50625 263.621 , 298.50625 270.621 , 300.50625 267.621 , 282.50625 251.621 , 309.50625 257.621 , 285.50625 244.621 , 297.50625 ">
</polygon><polygon 
stroke="rgb(158,106,71)"
fill="rgb(158,106,71)"
stroke-width="60"
stroke-linejoin="round" 
opacity="1"
points="257.621 , 290.50625 252.621 , 291.50625 254.621 , 298.50625 253.621 , 296.50625 263.621 , 294.50625 258.621 , 288.50625 267.621 , 284.50625 264.621 , 286.50625 258.621 , 288.50625 250.621 , 292.50625 245.621 , 301.50625 248.621 , 298.50625 255.621 , 283.50625 249.621 , 302.50625 255.621 , 293.50625 251.621 , 302.50625 254.621 , 290.50625 245.621 , 301.50625 242.621 , 288.50625 239.621 , 292.50625 242.621 , 300.50625 251.621 , 303.50625 250.621 , 292.50625 245.621 , 298.50625 253.621 , 289.50625 258.621 , 293.50625 257.621 , 285.50625 264.621 , 293.50625 258.621 , 302.50625 261.621 , 285.50625 ">
</polygon><polygon 
stroke="rgb(168,116,81)"
fill="rgb(168,116,81)"
stroke-width="70"
stroke-linejoin="round" 
opacity="1"
points="165.226 , 184.6 180.226 , 202.6 171.226 , 192.6 156.226 , 195.6 159.226 , 180.6 173.226 , 188.6 171.226 , 201.6 151.226 , 203.6 160.226 , 210.6 144.226 , 196.6 155.226 , 204.6 148.226 , 185.6 145.226 , 204.6 137.226 , 206.6 119.226 , 200.6 139.226 , 191.6 119.226 , 216.6 125.226 , 185.6 144.226 , 208.6 ">
</polygon><polygon 
stroke="rgb(158,106,71)"
fill="rgb(158,106,71)"
stroke-width="60"
stroke-linejoin="round" 
opacity="1"
points="183.226 , 192.6 193.226 , 205.6 200.226 , 190.6 195.226 , 209.6 199.226 , 204.6 196.226 , 191.6 195.226 , 194.6 186.226 , 201.6 192.226 , 198.6 191.226 , 190.6 189.226 , 198.6 198.226 , 198.6 206.226 , 201.6 209.226 , 191.6 203.226 , 203.6 194.226 , 199.6 203.226 , 191.6 201.226 , 197.6 207.226 , 200.6 206.226 , 190.6 199.226 , 209.6 197.226 , 189.6 200.226 , 206.6 199.226 , 192.6 204.226 , 197.6 194.226 , 203.6 187.226 , 197.6 181.226 , 204.6 173.226 , 204.6 ">
</polygon><polygon 
stroke="rgb(148,96,61)"
fill="rgb(148,96,61)"
stroke-width="80"
stroke-linejoin="round" 
opacity="1"
points="166.299 , 196.33125 157.299 , 196.33125 161.299 , 157.33125 181.299 , 170.33125 159.299 , 185.33125 176.299 , 163.33125 206.299 , 159.33125 206.299 , 186.33125 208.299 , 185.33125 181.299 , 198.33125 156.299 , 152.33125 143.299 , 166.33125 146.299 , 162.33125 164.299 , 176.33125 167.299 , 152.33125 192.299 , 157.33125 218.299 , 159.33125 192.299 , 145.33125 181.299 , 181.33125 167.299 , 186.33125 162.299 , 156.33125 152.299 , 196.33125 127.299 , 159.33125 134.299 , 171.33125 154.299 , 153.33125 164.299 , 157.33125 169.299 , 160.33125 188.299 , 150.33125 203.299 , 165.33125 ">
</polygon><polygon 
stroke="rgb(158,106,71)"
fill="rgb(158,106,71)"
stroke-width="70"
stroke-linejoin="round" 
opacity="1"
points="166.299 , 162.33125 147.299 , 173.33125 139.299 , 165.33125 134.299 , 178.33125 114.299 , 152.33125 106.299 , 172.33125 111.299 , 172.33125 92.299 , 171.33125 97.299 , 178.33125 107.299 , 175.33125 95.299 , 151.33125 82.299 , 184.33125 65.299 , 172.33125 ">
</polygon><polygon 
stroke="rgb(158,106,71)"
fill="rgb(158,106,71)"
stroke-width="70"
stroke-linejoin="round" 
opacity="1"
points="286.344 , 251.8 277.344 , 240.8 282.344 , 245.8 279.344 , 266.8 268.344 , 270.8 258.344 , 245.8 261.344 , 263.8 276.344 , 256.8 283.344 , 264.8 295.344 , 246.8 292.344 , 245.8 298.344 , 266.8 307.344 , 257.8 304.344 , 266.8 309.344 , 263.8 ">
</polygon><polygon 
stroke="rgb(148,96,61)"
fill="rgb(148,96,61)"
stroke-width="70"
stroke-linejoin="round" 
opacity="1"
points="320.226 , 129.6 316.226 , 155.6 320.226 , 166.6 323.226 , 167.6 333.226 , 131.6 325.226 , 153.6 308.226 , 164.6 294.226 , 128.6 296.226 , 139.6 316.226 , 140.6 319.226 , 142.6 328.226 , 159.6 347.226 , 164.6 352.226 , 165.6 358.226 , 166.6 351.226 , 143.6 348.226 , 144.6 364.226 , 159.6 ">
</polygon><polygon 
stroke="rgb(148,96,61)"
fill="rgb(148,96,61)"
stroke-width="80"
stroke-linejoin="round" 
opacity="1"
points="412.802 , 208.31875 412.802 , 208.31875 430.802 , 225.31875 448.802 , 221.31875 429.802 , 185.31875 401.802 , 185.31875 395.802 , 222.31875 411.802 , 202.31875 403.802 , 183.31875 411.802 , 219.31875 401.802 , 194.31875 388.802 , 232.31875 416.802 , 208.31875 394.802 , 183.31875 382.802 , 230.31875 376.802 , 222.31875 402.802 , 202.31875 400.802 , 194.31875 399.802 , 185.31875 396.802 , 216.31875 382.802 , 206.31875 376.802 , 214.31875 396.802 , 224.31875 418.802 , 237.31875 407.802 , 234.31875 425.802 , 223.31875 417.802 , 220.31875 444.802 , 225.31875 ">
</polygon><polygon 
stroke="rgb(158,106,71)"
fill="rgb(158,106,71)"
stroke-width="70"
stroke-linejoin="round" 
opacity="1"
points="386.802 , 217.31875 371.802 , 208.31875 369.802 , 226.31875 377.802 , 206.31875 378.802 , 193.31875 375.802 , 214.31875 367.802 , 225.31875 347.802 , 204.31875 352.802 , 193.31875 359.802 , 210.31875 368.802 , 212.31875 361.802 , 214.31875 360.802 , 190.31875 376.802 , 201.31875 360.802 , 201.31875 371.802 , 197.31875 376.802 , 196.31875 373.802 , 223.31875 383.802 , 203.31875 397.802 , 206.31875 381.802 , 212.31875 383.802 , 193.31875 402.802 , 220.31875 395.802 , 225.31875 391.802 , 196.31875 391.802 , 213.31875 393.802 , 195.31875 399.802 , 197.31875 380.802 , 190.31875 367.802 , 217.31875 ">
</polygon><path d="M 240 480 c 18,-173.33333333333 45,-65 45,-325 
C 333,438 306,329.66666666667 288,480
 " stroke="rgb(135,127,50)" stroke-linejoin="arcs"  stroke-width="5" fill="rgb(135,127,50)"/><path d="M 271.878 341.46875 c 9.9333333333333,-10.666666666667 29.8,-16 149,-80 
C 316.578,335.46875 296.71133333333,340.80208333333 269.25,350
 " stroke="rgb(135,127,50)" stroke-linejoin="arcs"  stroke-width="5" fill="rgb(135,127,50)"/><path d="M 271.878 341.46875 c -15.733333333333,4.6666666666667 -11.8,3.7333333333333 -59,14 
C 265.978,346.95208333333 262.04466666667,347.88541666667 269.25,350
 " stroke="rgb(135,127,50)" stroke-linejoin="arcs"  stroke-width="5" fill="rgb(135,127,50)"/><path d="M 280.5 291.09375 c 3.7333333333333,-13.666666666667 4.2666666666667,-16.4 8,-41 
C 285.56666666667,279.81875 285.03333333333,282.55208333333 278.682,307.1
 " stroke="rgb(135,127,50)" stroke-linejoin="arcs"  stroke-width="5" fill="rgb(135,127,50)"/><path d="M 276.621 320.50625 c -1.7333333333333,-12.6 -6.0666666666667,-9 -13,-27 
C 271.85433333333,314.88125 276.18766666667,311.28125 274.344,331.8
 " stroke="rgb(135,127,50)" stroke-linejoin="arcs"  stroke-width="5" fill="rgb(135,127,50)"/><path d="M 284.226 222.6 c -95.2,-3.0666666666667 -68,-4.6 -102,-23 
C 226.426,220.875 199.226,222.40833333333 283.299,249.33125
 " stroke="rgb(135,127,50)" stroke-linejoin="arcs"  stroke-width="5" fill="rgb(135,127,50)"/><path d="M 283.299 249.33125 c -92,-41.6 0,-10.4 -115,-78 
C 294.799,248.68125 202.799,217.48125 282.048,272
 " stroke="rgb(135,127,50)" stroke-linejoin="arcs"  stroke-width="5" fill="rgb(135,127,50)"/><path d="M 274.344 331.8 c 8.2666666666667,-25.333333333333 6.2,-20.266666666667 31,-76 
C 283.644,321.03333333333 285.71066666667,315.96666666667 271.878,341.46875
 " stroke="rgb(135,127,50)" stroke-linejoin="arcs"  stroke-width="5" fill="rgb(135,127,50)"/><path d="M 284.226 222.6 c 3.0666666666667,-40 16.866666666667,-40 23,-75 
C 303.39266666667,191.975 289.59266666667,191.975 283.299,249.33125
 " stroke="rgb(135,127,50)" stroke-linejoin="arcs"  stroke-width="5" fill="rgb(135,127,50)"/><path d="M 284.802 191.31875 c 63,6 84,6 105,18 
C 379.302,199.56875 358.302,199.56875 284.226,222.6
 " stroke="rgb(135,127,50)" stroke-linejoin="arcs"  stroke-width="5" fill="rgb(135,127,50)"/><polygon 
stroke="rgb(148,96,61)"
fill="rgb(148,96,61)"
stroke-width="70"
stroke-linejoin="round" 
opacity="1"
points="197.878 , 370.46875 178.878 , 363.46875 158.878 , 342.46875 173.878 , 355.46875 171.878 , 367.46875 168.878 , 356.46875 176.878 , 371.46875 159.878 , 351.46875 159.878 , 363.46875 155.878 , 340.46875 146.878 , 358.46875 145.878 , 357.46875 153.878 , 367.46875 158.878 , 359.46875 153.878 , 352.46875 150.878 , 337.46875 ">
</polygon><polygon 
stroke="rgb(168,116,81)"
fill="rgb(168,116,81)"
stroke-width="80"
stroke-linejoin="round" 
opacity="1"
points="167.226 , 169.6 139.226 , 182.6 118.226 , 176.6 97.226 , 208.6 95.226 , 183.6 102.226 , 210.6 116.226 , 221.6 101.226 , 220.6 121.226 , 207.6 92.226 , 217.6 102.226 , 225.6 120.226 , 192.6 107.226 , 209.6 ">
</polygon><polygon 
stroke="rgb(148,96,61)"
fill="rgb(148,96,61)"
stroke-width="60"
stroke-linejoin="round" 
opacity="1"
points="165.299 , 162.33125 175.299 , 174.33125 166.299 , 179.33125 171.299 , 179.33125 168.299 , 170.33125 167.299 , 170.33125 167.299 , 172.33125 158.299 , 172.33125 162.299 , 167.33125 168.299 , 167.33125 172.299 , 167.33125 164.299 , 180.33125 173.299 , 161.33125 170.299 , 162.33125 175.299 , 175.33125 171.299 , 176.33125 161.299 , 175.33125 167.299 , 161.33125 169.299 , 163.33125 169.299 , 168.33125 179.299 , 174.33125 183.299 , 168.33125 186.299 , 166.33125 194.299 , 172.33125 190.299 , 176.33125 198.299 , 177.33125 196.299 , 176.33125 204.299 , 177.33125 204.299 , 171.33125 196.299 , 179.33125 ">
</polygon><polygon 
stroke="rgb(168,116,81)"
fill="rgb(168,116,81)"
stroke-width="80"
stroke-linejoin="round" 
opacity="1"
points="286.344 , 283.8 295.344 , 250.8 300.344 , 260.8 294.344 , 281.8 269.344 , 243.8 271.344 , 230.8 265.344 , 225.8 257.344 , 282.8 276.344 , 285.8 264.344 , 268.8 ">
</polygon><polygon 
stroke="rgb(148,96,61)"
fill="rgb(148,96,61)"
stroke-width="60"
stroke-linejoin="round" 
opacity="1"
points="296.344 , 253.8 287.344 , 253.8 284.344 , 245.8 287.344 , 255.8 286.344 , 264.8 278.344 , 256.8 272.344 , 246.8 271.344 , 251.8 262.344 , 258.8 255.344 , 255.8 263.344 , 264.8 261.344 , 254.8 268.344 , 263.8 272.344 , 252.8 268.344 , 264.8 272.344 , 245.8 262.344 , 255.8 272.344 , 264.8 282.344 , 251.8 285.344 , 250.8 275.344 , 248.8 281.344 , 256.8 290.344 , 250.8 ">
</polygon><polygon 
stroke="rgb(158,106,71)"
fill="rgb(158,106,71)"
stroke-width="80"
stroke-linejoin="round" 
opacity="1"
points="335.226 , 120.6 316.226 , 174.6 318.226 , 154.6 301.226 , 167.6 288.226 , 160.6 262.226 , 151.6 242.226 , 146.6 222.226 , 153.6 203.226 , 161.6 174.226 , 146.6 174.226 , 142.6 203.226 , 124.6 219.226 , 124.6 247.226 , 141.6 ">
</polygon><polygon 
stroke="rgb(158,106,71)"
fill="rgb(158,106,71)"
stroke-width="60"
stroke-linejoin="round" 
opacity="1"
points="300.226 , 138.6 294.226 , 157.6 288.226 , 151.6 291.226 , 143.6 291.226 , 152.6 299.226 , 137.6 299.226 , 148.6 305.226 , 137.6 296.226 , 153.6 293.226 , 148.6 294.226 , 149.6 288.226 , 155.6 293.226 , 143.6 292.226 , 148.6 292.226 , 142.6 289.226 , 143.6 293.226 , 157.6 297.226 , 150.6 296.226 , 140.6 303.226 , 139.6 301.226 , 157.6 295.226 , 144.6 304.226 , 154.6 302.226 , 156.6 294.226 , 155.6 288.226 , 146.6 294.226 , 143.6 294.226 , 157.6 292.226 , 154.6 302.226 , 140.6 ">
</polygon><polygon 
stroke="rgb(158,106,71)"
fill="rgb(158,106,71)"
stroke-width="60"
stroke-linejoin="round" 
opacity="1"
points="395.802 , 204.31875 400.802 , 204.31875 391.802 , 203.31875 386.802 , 207.31875 381.802 , 206.31875 387.802 , 210.31875 390.802 , 218.31875 380.802 , 202.31875 383.802 , 210.31875 390.802 , 211.31875 385.802 , 210.31875 386.802 , 202.31875 393.802 , 216.31875 402.802 , 218.31875 398.802 , 215.31875 401.802 , 217.31875 393.802 , 214.31875 401.802 , 217.31875 399.802 , 214.31875 399.802 , 210.31875 404.802 , 216.31875 411.802 , 211.31875 412.802 , 200.31875 411.802 , 217.31875 408.802 , 208.31875 416.802 , 212.31875 426.802 , 215.31875 425.802 , 201.31875 ">
</polygon></svg>