<?xml version="1.0" encoding="iso-8859-1"?>
<svg version="1.1" id="Capa_1" xmlns="http://www.w3.org/2000/svg" xmlns:xlink="http://www.w3.org/1999/xlink" x="0px" y="0px"
viewBox="0 0 500 500" xml:space="preserve"><defs></defs><polygon 
stroke="rgb(121,135,88)"
fill="rgb(121,135,88)"
stroke-width="70"
stroke-linejoin="round" 
opacity="1"
points="337 , 145 355 , 175 360 , 160 360 , 171 365 , 158 381 , 152 394 , 173 414 , 158 433 , 154 420 , 182 411 , 175 402 , 173 412 , 161 425 , 172 427 , 183 427 , 144 438 , 150 418 , 154 422 , 153 405 , 149 385 , 175 387 , 165 394 , 182 393 , 183 383 , 174 387 , 152 375 , 154 360 , 152 369 , 172 ">
</polygon><polygon 
stroke="rgb(121,135,88)"
fill="rgb(121,135,88)"
stroke-width="60"
stroke-linejoin="round" 
opacity="1"
points="315 , 172 324 , 167 327 , 163 326 , 162 330 , 156 327 , 168 328 , 171 337 , 167 336 , 161 342 , 155 346 , 171 350 , 160 348 , 169 348 , 169 352 , 155 354 , 162 347 , 174 345 , 161 350 , 172 347 , 159 356 , 170 365 , 159 374 , 173 374 , 169 384 , 160 381 , 169 381 , 155 ">
</polygon><polygon 
stroke="rgb(101,115,68)"
fill="rgb(101,115,68)"
stroke-width="60"
stroke-linejoin="round" 
opacity="1"
points="323.1122 , 210.0032 325.1122 , 209.0032 326.1122 , 220.0032 324.1122 , 222.0032 326.1122 , 209.0032 330.1122 , 214.0032 339.1122 , 218.0032 338.1122 , 214.0032 340.1122 , 209.0032 344.1122 , 220.0032 354.1122 , 209.0032 350.1122 , 213.0032 346.1122 , 209.0032 353.1122 , 226.0032 346.1122 , 218.0032 342.1122 , 215.0032 346.1122 , 222.0032 337.1122 , 221.0032 346.1122 , 206.0032 350.1122 , 214.0032 356.1122 , 218.0032 358.1122 , 222.0032 360.1122 , 217.0032 355.1122 , 212.0032 ">
</polygon><polygon 
stroke="rgb(101,115,68)"
fill="rgb(101,115,68)"
stroke-width="70"
stroke-linejoin="round" 
opacity="1"
points="262.621175 , 288.5538 280.621175 , 294.5538 277.621175 , 260.5538 295.621175 , 270.5538 277.621175 , 286.5538 294.621175 , 289.5538 282.621175 , 269.5538 262.621175 , 267.5538 265.621175 , 289.5538 285.621175 , 280.5538 276.621175 , 277.5538 ">
</polygon><polygon 
stroke="rgb(101,115,68)"
fill="rgb(101,115,68)"
stroke-width="60"
stroke-linejoin="round" 
opacity="1"
points="271.621175 , 279.5538 278.621175 , 278.5538 270.621175 , 276.5538 266.621175 , 278.5538 258.621175 , 279.5538 261.621175 , 267.5538 262.621175 , 280.5538 253.621175 , 276.5538 261.621175 , 274.5538 256.621175 , 278.5538 255.621175 , 272.5538 251.621175 , 272.5538 247.621175 , 281.5538 ">
</polygon><polygon 
stroke="rgb(111,125,78)"
fill="rgb(111,125,78)"
stroke-width="80"
stroke-linejoin="round" 
opacity="1"
points="323.921725 , 327.4606 327.921725 , 295.4606 323.921725 , 274.4606 352.921725 , 311.4606 366.921725 , 310.4606 396.921725 , 306.4606 379.921725 , 280.4606 349.921725 , 320.4606 334.921725 , 298.4606 328.921725 , 328.4606 309.921725 , 296.4606 ">
</polygon><polygon 
stroke="rgb(101,115,68)"
fill="rgb(101,115,68)"
stroke-width="60"
stroke-linejoin="round" 
opacity="1"
points="353.921725 , 309.4606 359.921725 , 311.4606 362.921725 , 308.4606 371.921725 , 299.4606 378.921725 , 311.4606 375.921725 , 297.4606 372.921725 , 304.4606 375.921725 , 305.4606 384.921725 , 294.4606 389.921725 , 308.4606 390.921725 , 298.4606 390.921725 , 300.4606 388.921725 , 312.4606 382.921725 , 301.4606 373.921725 , 303.4606 368.921725 , 300.4606 ">
</polygon><polygon 
stroke="rgb(111,125,78)"
fill="rgb(111,125,78)"
stroke-width="80"
stroke-linejoin="round" 
opacity="1"
points="370.921725 , 310.4606 392.921725 , 306.4606 401.921725 , 318.4606 410.921725 , 310.4606 416.921725 , 307.4606 424.921725 , 319.4606 407.921725 , 324.4606 435.921725 , 318.4606 411.921725 , 340.4606 426.921725 , 288.4606 412.921725 , 312.4606 392.921725 , 294.4606 396.921725 , 296.4606 422.921725 , 331.4606 423.921725 , 337.4606 403.921725 , 343.4606 392.921725 , 318.4606 410.921725 , 306.4606 385.921725 , 314.4606 371.921725 , 333.4606 398.921725 , 310.4606 411.921725 , 336.4606 412.921725 , 313.4606 384.921725 , 323.4606 395.921725 , 292.4606 423.921725 , 298.4606 ">
</polygon><polygon 
stroke="rgb(101,115,68)"
fill="rgb(101,115,68)"
stroke-width="70"
stroke-linejoin="round" 
opacity="1"
points="334.921725 , 315.4606 329.921725 , 321.4606 341.921725 , 306.4606 323.921725 , 328.4606 308.921725 , 304.4606 316.921725 , 310.4606 303.921725 , 333.4606 298.921725 , 298.4606 285.921725 , 311.4606 288.921725 , 315.4606 297.921725 , 298.4606 301.921725 , 303.4606 290.921725 , 321.4606 310.921725 , 315.4606 315.921725 , 317.4606 309.921725 , 334.4606 293.921725 , 337.4606 281.921725 , 328.4606 269.921725 , 327.4606 275.921725 , 328.4606 258.921725 , 323.4606 259.921725 , 325.4606 268.921725 , 332.4606 273.921725 , 310.4606 ">
</polygon><polygon 
stroke="rgb(121,135,88)"
fill="rgb(121,135,88)"
stroke-width="60"
stroke-linejoin="round" 
opacity="1"
points="338.921725 , 324.4606 329.921725 , 320.4606 322.921725 , 315.4606 332.921725 , 317.4606 326.921725 , 320.4606 324.921725 , 309.4606 330.921725 , 313.4606 328.921725 , 316.4606 325.921725 , 327.4606 320.921725 , 315.4606 ">
</polygon><polygon 
stroke="rgb(101,115,68)"
fill="rgb(101,115,68)"
stroke-width="70"
stroke-linejoin="round" 
opacity="1"
points="232.123075 , 376.0522 216.123075 , 374.0522 205.123075 , 361.0522 206.123075 , 349.0522 219.123075 , 349.0522 209.123075 , 341.0522 225.123075 , 351.0522 242.123075 , 355.0522 248.123075 , 361.0522 238.123075 , 367.0522 247.123075 , 342.0522 247.123075 , 373.0522 256.123075 , 363.0522 243.123075 , 343.0522 260.123075 , 377.0522 264.123075 , 352.0522 275.123075 , 363.0522 275.123075 , 347.0522 281.123075 , 349.0522 299.123075 , 358.0522 ">
</polygon><polygon 
stroke="rgb(101,115,68)"
fill="rgb(101,115,68)"
stroke-width="60"
stroke-linejoin="round" 
opacity="1"
points="232.123075 , 359.0522 222.123075 , 350.0522 226.123075 , 361.0522 229.123075 , 369.0522 237.123075 , 360.0522 235.123075 , 360.0522 245.123075 , 360.0522 236.123075 , 366.0522 226.123075 , 362.0522 220.123075 , 365.0522 222.123075 , 367.0522 218.123075 , 368.0522 217.123075 , 354.0522 212.123075 , 370.0522 206.123075 , 350.0522 210.123075 , 359.0522 216.123075 , 354.0522 209.123075 , 354.0522 200.123075 , 354.0522 190.123075 , 365.0522 195.123075 , 351.0522 189.123075 , 358.0522 188.123075 , 370.0522 186.123075 , 361.0522 ">
</polygon><polygon 
stroke="rgb(121,135,88)"
fill="rgb(121,135,88)"
stroke-width="80"
stroke-linejoin="round" 
opacity="1"
points="427.425 , 373.2 419.425 , 415.2 419.425 , 404.2 390.425 , 355.2 400.425 , 358.2 394.425 , 371.2 415.425 , 396.2 439.425 , 378.2 437.425 , 371.2 433.425 , 363.2 404.425 , 396.2 393.425 , 397.2 380.425 , 403.2 376.425 , 364.2 347.425 , 393.2 332.425 , 362.2 340.425 , 400.2 330.425 , 377.2 311.425 , 372.2 292.425 , 357.2 ">
</polygon><polygon 
stroke="rgb(121,135,88)"
fill="rgb(121,135,88)"
stroke-width="70"
stroke-linejoin="round" 
opacity="1"
points="440.425 , 400.2 445.425 , 389.2 443.425 , 395.2 442.425 , 380.2 448.425 , 397.2 430.425 , 403.2 443.425 , 382.2 435.425 , 368.2 429.425 , 365.2 433.425 , 388.2 442.425 , 386.2 436.425 , 395.2 ">
</polygon><polygon 
stroke="rgb(121,135,88)"
fill="rgb(121,135,88)"
stroke-width="60"
stroke-linejoin="round" 
opacity="1"
points="432.425 , 392.2 425.425 , 375.2 420.425 , 381.2 422.425 , 389.2 422.425 , 380.2 428.425 , 386.2 436.425 , 384.2 432.425 , 378.2 437.425 , 382.2 427.425 , 386.2 425.425 , 384.2 429.425 , 378.2 431.425 , 386.2 421.425 , 395.2 415.425 , 381.2 413.425 , 379.2 407.425 , 395.2 ">
</polygon><polygon 
stroke="rgb(121,135,88)"
fill="rgb(121,135,88)"
stroke-width="80"
stroke-linejoin="round" 
opacity="1"
points="309.211525 , 137.9134 285.211525 , 105.9134 308.211525 , 130.9134 326.211525 , 100.9134 314.211525 , 107.9134 338.211525 , 135.9134 349.211525 , 128.9134 349.211525 , 137.9134 345.211525 , 128.9134 366.211525 , 106.9134 359.211525 , 134.9134 339.211525 , 101.9134 312.211525 , 125.9134 305.211525 , 126.9134 301.211525 , 131.9134 331.211525 , 139.9134 323.211525 , 130.9134 351.211525 , 109.9134 350.211525 , 134.9134 350.211525 , 94.9134 350.211525 , 118.9134 356.211525 , 134.9134 378.211525 , 135.9134 360.211525 , 134.9134 352.211525 , 141.9134 ">
</polygon><polygon 
stroke="rgb(101,115,68)"
fill="rgb(101,115,68)"
stroke-width="70"
stroke-linejoin="round" 
opacity="1"
points="324.211525 , 130.9134 340.211525 , 136.9134 345.211525 , 109.9134 364.211525 , 113.9134 378.211525 , 123.9134 393.211525 , 139.9134 412.211525 , 137.9134 393.211525 , 135.9134 400.211525 , 121.9134 390.211525 , 101.9134 387.211525 , 123.9134 379.211525 , 111.9134 371.211525 , 136.9134 361.211525 , 104.9134 350.211525 , 125.9134 333.211525 , 109.9134 323.211525 , 140.9134 311.211525 , 115.9134 302.211525 , 139.9134 310.211525 , 117.9134 293.211525 , 108.9134 284.211525 , 134.9134 289.211525 , 127.9134 ">
</polygon><polygon 
stroke="rgb(111,125,78)"
fill="rgb(111,125,78)"
stroke-width="60"
stroke-linejoin="round" 
opacity="1"
points="325.211525 , 120.9134 317.211525 , 123.9134 324.211525 , 120.9134 315.211525 , 122.9134 313.211525 , 130.9134 310.211525 , 114.9134 307.211525 , 114.9134 308.211525 , 130.9134 318.211525 , 113.9134 318.211525 , 124.9134 314.211525 , 113.9134 304.211525 , 127.9134 302.211525 , 114.9134 309.211525 , 123.9134 305.211525 , 131.9134 309.211525 , 116.9134 319.211525 , 118.9134 310.211525 , 128.9134 314.211525 , 124.9134 ">
</polygon><polygon 
stroke="rgb(121,135,88)"
fill="rgb(121,135,88)"
stroke-width="80"
stroke-linejoin="round" 
opacity="1"
points="292.1122 , 166.0032 293.1122 , 201.0032 294.1122 , 196.0032 281.1122 , 180.0032 268.1122 , 201.0032 283.1122 , 191.0032 294.1122 , 195.0032 307.1122 , 197.0032 336.1122 , 175.0032 359.1122 , 205.0032 348.1122 , 162.0032 374.1122 , 190.0032 401.1122 , 186.0032 420.1122 , 150.0032 442.1122 , 165.0032 442.1122 , 160.0032 420.1122 , 167.0032 449.1122 , 154.0032 437.1122 , 151.0032 430.1122 , 164.0032 444.1122 , 167.0032 417.1122 , 201.0032 441.1122 , 162.0032 434.1122 , 205.0032 426.1122 , 209.0032 ">
</polygon><polygon 
stroke="rgb(121,135,88)"
fill="rgb(121,135,88)"
stroke-width="70"
stroke-linejoin="round" 
opacity="1"
points="298.1122 , 164.0032 281.1122 , 196.0032 274.1122 , 189.0032 257.1122 , 174.0032 261.1122 , 163.0032 247.1122 , 181.0032 243.1122 , 179.0032 250.1122 , 179.0032 268.1122 , 180.0032 263.1122 , 167.0032 243.1122 , 178.0032 244.1122 , 186.0032 254.1122 , 175.0032 262.1122 , 183.0032 267.1122 , 185.0032 279.1122 , 171.0032 297.1122 , 199.0032 291.1122 , 162.0032 272.1122 , 190.0032 257.1122 , 170.0032 249.1122 , 190.0032 258.1122 , 172.0032 ">
</polygon><polygon 
stroke="rgb(111,125,78)"
fill="rgb(111,125,78)"
stroke-width="60"
stroke-linejoin="round" 
opacity="1"
points="296.1122 , 184.0032 304.1122 , 185.0032 304.1122 , 172.0032 308.1122 , 183.0032 310.1122 , 185.0032 319.1122 , 187.0032 327.1122 , 185.0032 322.1122 , 183.0032 315.1122 , 185.0032 312.1122 , 169.0032 304.1122 , 173.0032 304.1122 , 173.0032 299.1122 , 171.0032 309.1122 , 169.0032 305.1122 , 189.0032 303.1122 , 185.0032 ">
</polygon><polygon 
stroke="rgb(121,135,88)"
fill="rgb(121,135,88)"
stroke-width="60"
stroke-linejoin="round" 
opacity="1"
points="250.425 , 371.2 252.425 , 372.2 250.425 , 368.2 250.425 , 360.2 246.425 , 359.2 240.425 , 362.2 249.425 , 367.2 245.425 , 360.2 243.425 , 363.2 247.425 , 358.2 248.425 , 370.2 250.425 , 360.2 250.425 , 361.2 254.425 , 377.2 252.425 , 373.2 245.425 , 373.2 247.425 , 376.2 250.425 , 376.2 246.425 , 372.2 243.425 , 368.2 ">
</polygon><path d="M 240 480 c 46.2,-84.266666666667 35.933333333333,-63.2 77,-316 
C 327.93333333333,438.8 338.2,417.73333333333 280,480
 " stroke="rgb(90,197,187)" stroke-linejoin="arcs"  stroke-width="5" fill="rgb(90,197,187)"/><path d="M 306.1122 232.0032 c 6.5333333333333,-5.3333333333333 0,-5.3333333333333 14,-16 
C 307.5122,228.66986666667 314.04553333333,228.66986666667 301.621175,260.5538
 " stroke="rgb(90,197,187)" stroke-linejoin="arcs"  stroke-width="5" fill="rgb(90,197,187)"/><path d="M 301.621175 260.5538 c -13.333333333333,7.4666666666667 -5.3333333333333,6.5333333333333 -40,14 
C 300.28784166667,268.83713333333 292.28784166667,269.77046666667 297.6576,285.8496
 " stroke="rgb(90,197,187)" stroke-linejoin="arcs"  stroke-width="5" fill="rgb(90,197,187)"/><path d="M 282.921725 373.4606 c 0,-9.4666666666667 62.533333333333,-23.666666666667 67,-71 
C 352.15505833333,358.66893333333 289.621725,372.86893333333 280.425,385.2
 " stroke="rgb(90,197,187)" stroke-linejoin="arcs"  stroke-width="5" fill="rgb(90,197,187)"/><path d="M 282.921725 373.4606 c 48.4,-22 13.2,-29.333333333333 66,-55 
C 302.721725,351.00226666667 337.921725,358.3356 280.425,385.2
 " stroke="rgb(90,197,187)" stroke-linejoin="arcs"  stroke-width="5" fill="rgb(90,197,187)"/><path d="M 288.123075 345.0522 c -30.8,4 -13.2,5 -66,15 
C 281.523075,351.9272 263.923075,350.9272 285.4608,360.1728
 " stroke="rgb(90,197,187)" stroke-linejoin="arcs"  stroke-width="5" fill="rgb(90,197,187)"/><path d="M 280.425 385.2 c 104.13333333333,0 85.2,0 142,0 
C 379.825,385.2 398.75833333333,385.2 277.889775,395.6754
 " stroke="rgb(90,197,187)" stroke-linejoin="arcs"  stroke-width="5" fill="rgb(90,197,187)"/><path d="M 311.211525 199.9134 c 9.3333333333333,-20.8 2.6666666666667,-36.4 20,-78 
C 315.87819166667,173.2634 322.54485833333,188.8634 306.1122,232.0032
 " stroke="rgb(90,197,187)" stroke-linejoin="arcs"  stroke-width="5" fill="rgb(90,197,187)"/><path d="M 306.1122 232.0032 c -4.8,-21.2 -4,-21.2 -6,-53 
C 302.7122,217.4282 301.9122,217.4282 301.621175,260.5538
 " stroke="rgb(90,197,187)" stroke-linejoin="arcs"  stroke-width="5" fill="rgb(90,197,187)"/><path d="M 280.425 385.2 c -25,-2.4 -18.333333333333,-2.4 -25,-18 
C 264.59166666667,385.05 257.925,385.05 277.889775,395.6754
 " stroke="rgb(90,197,187)" stroke-linejoin="arcs"  stroke-width="5" fill="rgb(90,197,187)"/><polygon 
stroke="rgb(121,135,88)"
fill="rgb(121,135,88)"
stroke-width="80"
stroke-linejoin="round" 
opacity="1"
points="292 , 194 267 , 176 246 , 134 218 , 167 220 , 143 221 , 183 231 , 185 245 , 176 260 , 178 251 , 172 255 , 167 263 , 141 249 , 173 271 , 169 288 , 176 260 , 172 242 , 139 237 , 169 207 , 178 197 , 140 ">
</polygon><polygon 
stroke="rgb(101,115,68)"
fill="rgb(101,115,68)"
stroke-width="80"
stroke-linejoin="round" 
opacity="1"
points="328.1122 , 239.0032 328.1122 , 209.0032 308.1122 , 223.0032 321.1122 , 243.0032 302.1122 , 202.0032 293.1122 , 221.0032 318.1122 , 208.0032 306.1122 , 209.0032 276.1122 , 193.0032 259.1122 , 215.0032 266.1122 , 233.0032 256.1122 , 243.0032 246.1122 , 214.0032 219.1122 , 241.0032 ">
</polygon><polygon 
stroke="rgb(101,115,68)"
fill="rgb(101,115,68)"
stroke-width="70"
stroke-linejoin="round" 
opacity="1"
points="340.1122 , 219.0032 360.1122 , 231.0032 367.1122 , 198.0032 377.1122 , 232.0032 364.1122 , 226.0032 373.1122 , 203.0032 368.1122 , 235.0032 379.1122 , 220.0032 383.1122 , 208.0032 384.1122 , 202.0032 401.1122 , 233.0032 395.1122 , 222.0032 389.1122 , 230.0032 406.1122 , 235.0032 419.1122 , 236.0032 399.1122 , 222.0032 393.1122 , 213.0032 391.1122 , 225.0032 408.1122 , 235.0032 421.1122 , 233.0032 413.1122 , 225.0032 407.1122 , 212.0032 421.1122 , 198.0032 441.1122 , 201.0032 448.1122 , 226.0032 449.1122 , 206.0032 447.1122 , 233.0032 ">
</polygon><polygon 
stroke="rgb(121,135,88)"
fill="rgb(121,135,88)"
stroke-width="80"
stroke-linejoin="round" 
opacity="1"
points="237.621175 , 254.5538 252.621175 , 277.5538 226.621175 , 275.5538 220.621175 , 277.5538 227.621175 , 266.5538 244.621175 , 245.5538 229.621175 , 246.5538 231.621175 , 286.5538 226.621175 , 298.5538 217.621175 , 248.5538 241.621175 , 301.5538 254.621175 , 246.5538 241.621175 , 291.5538 213.621175 , 296.5538 220.621175 , 297.5538 215.621175 , 299.5538 188.621175 , 300.5538 169.621175 , 249.5538 187.621175 , 267.5538 208.621175 , 268.5538 232.621175 , 272.5538 235.621175 , 273.5538 223.621175 , 270.5538 220.621175 , 261.5538 194.621175 , 275.5538 193.621175 , 296.5538 210.621175 , 260.5538 ">
</polygon><polygon 
stroke="rgb(111,125,78)"
fill="rgb(111,125,78)"
stroke-width="70"
stroke-linejoin="round" 
opacity="1"
points="357.921725 , 303.4606 360.921725 , 321.4606 354.921725 , 321.4606 350.921725 , 311.4606 343.921725 , 292.4606 346.921725 , 299.4606 337.921725 , 297.4606 343.921725 , 308.4606 331.921725 , 297.4606 347.921725 , 282.4606 356.921725 , 315.4606 ">
</polygon><polygon 
stroke="rgb(111,125,78)"
fill="rgb(111,125,78)"
stroke-width="80"
stroke-linejoin="round" 
opacity="1"
points="205.123075 , 354.0522 228.123075 , 369.0522 254.123075 , 337.0522 277.123075 , 379.0522 290.123075 , 390.0522 287.123075 , 385.0522 287.123075 , 390.0522 307.123075 , 376.0522 321.123075 , 360.0522 328.123075 , 338.0522 333.123075 , 341.0522 342.123075 , 375.0522 314.123075 , 370.0522 ">
</polygon><polygon 
stroke="rgb(121,135,88)"
fill="rgb(121,135,88)"
stroke-width="80"
stroke-linejoin="round" 
opacity="1"
points="242.425 , 360.2 215.425 , 341.2 211.425 , 343.2 206.425 , 373.2 218.425 , 360.2 197.425 , 349.2 174.425 , 358.2 190.425 , 369.2 162.425 , 374.2 160.425 , 337.2 185.425 , 338.2 169.425 , 390.2 168.425 , 396.2 175.425 , 357.2 182.425 , 338.2 185.425 , 367.2 170.425 , 386.2 144.425 , 340.2 169.425 , 363.2 176.425 , 347.2 156.425 , 390.2 143.425 , 385.2 170.425 , 393.2 184.425 , 342.2 181.425 , 391.2 155.425 , 348.2 ">
</polygon><polygon 
stroke="rgb(111,125,78)"
fill="rgb(111,125,78)"
stroke-width="70"
stroke-linejoin="round" 
opacity="1"
points="251.425 , 358.2 234.425 , 357.2 246.425 , 361.2 243.425 , 378.2 250.425 , 358.2 235.425 , 381.2 220.425 , 376.2 209.425 , 360.2 215.425 , 380.2 203.425 , 351.2 194.425 , 373.2 178.425 , 358.2 193.425 , 384.2 196.425 , 367.2 185.425 , 384.2 167.425 , 365.2 179.425 , 369.2 163.425 , 355.2 176.425 , 348.2 160.425 , 368.2 167.425 , 359.2 155.425 , 385.2 162.425 , 376.2 150.425 , 370.2 149.425 , 364.2 169.425 , 361.2 167.425 , 363.2 ">
</polygon></svg>