<?xml version="1.0" encoding="iso-8859-1"?>
<svg version="1.1" id="Capa_1" xmlns="http://www.w3.org/2000/svg" xmlns:xlink="http://www.w3.org/1999/xlink" x="0px" y="0px"
viewBox="0 0 500 500" xml:space="preserve"><defs></defs><polygon 
stroke="rgb(113,89,135)"
fill="rgb(113,89,135)"
stroke-width="70"
stroke-linejoin="round" 
opacity="1"
points="319 , 151 324 , 133 341 , 159 345 , 152 330 , 133 335 , 147 331 , 153 313 , 158 327 , 158 326 , 156 324 , 168 317 , 132 ">
</polygon><polygon 
stroke="rgb(113,89,135)"
fill="rgb(113,89,135)"
stroke-width="60"
stroke-linejoin="round" 
opacity="1"
points="313 , 149 322 , 139 317 , 151 316 , 149 317 , 157 312 , 145 308 , 153 309 , 157 304 , 157 303 , 140 297 , 142 301 , 144 291 , 149 301 , 155 306 , 145 305 , 141 315 , 149 315 , 155 323 , 158 324 , 147 331 , 155 ">
</polygon><polygon 
stroke="rgb(113,89,135)"
fill="rgb(113,89,135)"
stroke-width="70"
stroke-linejoin="round" 
opacity="1"
points="185.85 , 315.2 201.85 , 317.2 184.85 , 329.2 175.85 , 296.2 162.85 , 318.2 146.85 , 307.2 129.85 , 305.2 127.85 , 310.2 119.85 , 313.2 129.85 , 302.2 129.85 , 318.2 110.85 , 302.2 90.85 , 330.2 104.85 , 329.2 97.85 , 317.2 110.85 , 327.2 126.85 , 302.2 134.85 , 296.2 147.85 , 315.2 158.85 , 324.2 172.85 , 330.2 155.85 , 320.2 168.85 , 316.2 182.85 , 302.2 178.85 , 335.2 182.85 , 322.2 ">
</polygon><polygon 
stroke="rgb(93,69,115)"
fill="rgb(93,69,115)"
stroke-width="70"
stroke-linejoin="round" 
opacity="1"
points="230.2816 , 250.648 226.2816 , 212.648 214.2816 , 237.648 230.2816 , 241.648 233.2816 , 232.648 243.2816 , 242.648 245.2816 , 215.648 239.2816 , 237.648 239.2816 , 213.648 236.2816 , 244.648 ">
</polygon><polygon 
stroke="rgb(113,89,135)"
fill="rgb(113,89,135)"
stroke-width="60"
stroke-linejoin="round" 
opacity="1"
points="252.2816 , 240.648 247.2816 , 238.648 244.2816 , 228.648 238.2816 , 228.648 239.2816 , 222.648 229.2816 , 232.648 238.2816 , 234.648 247.2816 , 232.648 255.2816 , 236.648 261.2816 , 226.648 261.2816 , 241.648 268.2816 , 232.648 270.2816 , 241.648 279.2816 , 223.648 284.2816 , 227.648 280.2816 , 231.648 289.2816 , 239.648 286.2816 , 233.648 276.2816 , 239.648 269.2816 , 227.648 278.2816 , 223.648 ">
</polygon><polygon 
stroke="rgb(113,89,135)"
fill="rgb(113,89,135)"
stroke-width="80"
stroke-linejoin="round" 
opacity="1"
points="256.12205 , 127.732 234.12205 , 123.732 246.12205 , 161.732 241.12205 , 182.732 213.12205 , 139.732 192.12205 , 152.732 176.12205 , 136.732 157.12205 , 172.732 153.12205 , 130.732 177.12205 , 182.732 156.12205 , 159.732 173.12205 , 148.732 166.12205 , 146.732 186.12205 , 165.732 174.12205 , 173.732 161.12205 , 156.732 163.12205 , 169.732 ">
</polygon><polygon 
stroke="rgb(113,89,135)"
fill="rgb(113,89,135)"
stroke-width="70"
stroke-linejoin="round" 
opacity="1"
points="298.12205 , 168.732 300.12205 , 132.732 299.12205 , 171.732 293.12205 , 153.732 275.12205 , 146.732 294.12205 , 142.732 298.12205 , 156.732 281.12205 , 139.732 274.12205 , 142.732 266.12205 , 134.732 280.12205 , 158.732 270.12205 , 141.732 256.12205 , 151.732 250.12205 , 136.732 256.12205 , 157.732 237.12205 , 139.732 221.12205 , 149.732 233.12205 , 151.732 230.12205 , 158.732 228.12205 , 143.732 ">
</polygon><polygon 
stroke="rgb(93,69,115)"
fill="rgb(93,69,115)"
stroke-width="60"
stroke-linejoin="round" 
opacity="1"
points="275.12205 , 147.732 285.12205 , 150.732 277.12205 , 154.732 287.12205 , 143.732 292.12205 , 144.732 294.12205 , 146.732 293.12205 , 152.732 283.12205 , 144.732 291.12205 , 149.732 283.12205 , 153.732 276.12205 , 143.732 277.12205 , 155.732 ">
</polygon><polygon 
stroke="rgb(113,89,135)"
fill="rgb(113,89,135)"
stroke-width="80"
stroke-linejoin="round" 
opacity="1"
points="233.18945 , 251.412 261.18945 , 204.412 272.18945 , 220.412 270.18945 , 226.412 297.18945 , 259.412 290.18945 , 233.412 303.18945 , 230.412 330.18945 , 208.412 309.18945 , 247.412 290.18945 , 232.412 293.18945 , 202.412 312.18945 , 218.412 337.18945 , 231.412 314.18945 , 228.412 303.18945 , 240.412 288.18945 , 219.412 295.18945 , 252.412 316.18945 , 239.412 341.18945 , 257.412 364.18945 , 257.412 367.18945 , 257.412 371.18945 , 232.412 399.18945 , 260.412 382.18945 , 244.412 ">
</polygon><polygon 
stroke="rgb(103,79,125)"
fill="rgb(103,79,125)"
stroke-width="70"
stroke-linejoin="round" 
opacity="1"
points="237.18945 , 249.412 254.18945 , 214.412 262.18945 , 225.412 267.18945 , 230.412 273.18945 , 250.412 273.18945 , 249.412 273.18945 , 236.412 269.18945 , 221.412 284.18945 , 248.412 272.18945 , 243.412 ">
</polygon><polygon 
stroke="rgb(113,89,135)"
fill="rgb(113,89,135)"
stroke-width="60"
stroke-linejoin="round" 
opacity="1"
points="231.18945 , 227.412 239.18945 , 227.412 237.18945 , 224.412 229.18945 , 236.412 235.18945 , 231.412 231.18945 , 225.412 230.18945 , 225.412 222.18945 , 239.412 214.18945 , 222.412 214.18945 , 233.412 205.18945 , 232.412 196.18945 , 231.412 190.18945 , 240.412 199.18945 , 222.412 198.18945 , 232.412 195.18945 , 224.412 186.18945 , 237.412 189.18945 , 230.412 197.18945 , 230.412 190.18945 , 233.412 191.18945 , 232.412 182.18945 , 224.412 187.18945 , 222.412 178.18945 , 228.412 176.18945 , 242.412 ">
</polygon><polygon 
stroke="rgb(103,79,125)"
fill="rgb(103,79,125)"
stroke-width="80"
stroke-linejoin="round" 
opacity="1"
points="218.81875 , 260.9 232.81875 , 257.9 231.81875 , 233.9 246.81875 , 239.9 261.81875 , 238.9 284.81875 , 281.9 302.81875 , 291.9 326.81875 , 272.9 304.81875 , 261.9 322.81875 , 273.9 327.81875 , 255.9 341.81875 , 275.9 315.81875 , 265.9 292.81875 , 287.9 283.81875 , 284.9 ">
</polygon><polygon 
stroke="rgb(93,69,115)"
fill="rgb(93,69,115)"
stroke-width="70"
stroke-linejoin="round" 
opacity="1"
points="179.81875 , 265.9 165.81875 , 268.9 174.81875 , 261.9 158.81875 , 264.9 157.81875 , 279.9 147.81875 , 248.9 134.81875 , 265.9 114.81875 , 257.9 98.81875 , 276.9 109.81875 , 261.9 125.81875 , 268.9 113.81875 , 276.9 123.81875 , 244.9 112.81875 , 277.9 124.81875 , 272.9 124.81875 , 277.9 113.81875 , 246.9 124.81875 , 257.9 135.81875 , 271.9 132.81875 , 247.9 139.81875 , 255.9 127.81875 , 257.9 ">
</polygon><polygon 
stroke="rgb(103,79,125)"
fill="rgb(103,79,125)"
stroke-width="80"
stroke-linejoin="round" 
opacity="1"
points="405.56135 , 267.268 392.56135 , 276.268 400.56135 , 240.268 409.56135 , 248.268 388.56135 , 296.268 411.56135 , 260.268 389.56135 , 298.268 371.56135 , 281.268 347.56135 , 273.268 334.56135 , 255.268 360.56135 , 277.268 376.56135 , 298.268 356.56135 , 283.268 355.56135 , 246.268 329.56135 , 285.268 321.56135 , 284.268 350.56135 , 289.268 359.56135 , 260.268 352.56135 , 257.268 326.56135 , 240.268 353.56135 , 269.268 341.56135 , 244.268 336.56135 , 272.268 323.56135 , 262.268 297.56135 , 251.268 291.56135 , 269.268 304.56135 , 273.268 308.56135 , 249.268 316.56135 , 248.268 339.56135 , 255.268 ">
</polygon><polygon 
stroke="rgb(113,89,135)"
fill="rgb(113,89,135)"
stroke-width="70"
stroke-linejoin="round" 
opacity="1"
points="414.56135 , 258.268 411.56135 , 277.268 403.56135 , 258.268 420.56135 , 261.268 412.56135 , 282.268 408.56135 , 268.268 427.56135 , 261.268 444.56135 , 267.268 441.56135 , 285.268 441.56135 , 256.268 443.56135 , 279.268 428.56135 , 265.268 435.56135 , 259.268 434.56135 , 260.268 ">
</polygon><polygon 
stroke="rgb(93,69,115)"
fill="rgb(93,69,115)"
stroke-width="80"
stroke-linejoin="round" 
opacity="1"
points="271.6048 , 232.672 256.6048 , 262.672 248.6048 , 282.672 238.6048 , 276.672 226.6048 , 278.672 242.6048 , 289.672 231.6048 , 285.672 248.6048 , 231.672 255.6048 , 252.672 269.6048 , 284.672 250.6048 , 234.672 277.6048 , 250.672 291.6048 , 253.672 321.6048 , 257.672 294.6048 , 259.672 291.6048 , 288.672 271.6048 , 256.672 247.6048 , 240.672 275.6048 , 232.672 288.6048 , 241.672 263.6048 , 240.672 275.6048 , 244.672 285.6048 , 251.672 285.6048 , 273.672 297.6048 , 236.672 315.6048 , 247.672 327.6048 , 229.672 345.6048 , 282.672 351.6048 , 277.672 ">
</polygon><polygon 
stroke="rgb(113,89,135)"
fill="rgb(113,89,135)"
stroke-width="70"
stroke-linejoin="round" 
opacity="1"
points="280.6048 , 239.672 274.6048 , 278.672 283.6048 , 243.672 297.6048 , 241.672 315.6048 , 262.672 332.6048 , 256.672 323.6048 , 278.672 315.6048 , 276.672 305.6048 , 271.672 302.6048 , 254.672 311.6048 , 250.672 317.6048 , 247.672 327.6048 , 260.672 332.6048 , 271.672 341.6048 , 255.672 331.6048 , 266.672 316.6048 , 254.672 324.6048 , 251.672 327.6048 , 258.672 316.6048 , 271.672 316.6048 , 263.672 305.6048 , 248.672 295.6048 , 260.672 286.6048 , 267.672 ">
</polygon><polygon 
stroke="rgb(113,89,135)"
fill="rgb(113,89,135)"
stroke-width="60"
stroke-linejoin="round" 
opacity="1"
points="296.6048 , 252.672 301.6048 , 251.672 308.6048 , 260.672 311.6048 , 259.672 307.6048 , 252.672 312.6048 , 265.672 317.6048 , 252.672 323.6048 , 268.672 331.6048 , 265.672 332.6048 , 262.672 342.6048 , 267.672 340.6048 , 256.672 345.6048 , 260.672 347.6048 , 257.672 337.6048 , 251.672 343.6048 , 251.672 341.6048 , 264.672 333.6048 , 255.672 332.6048 , 253.672 325.6048 , 252.672 328.6048 , 255.672 331.6048 , 261.672 330.6048 , 263.672 338.6048 , 259.672 333.6048 , 265.672 342.6048 , 263.672 ">
</polygon><polygon 
stroke="rgb(103,79,125)"
fill="rgb(103,79,125)"
stroke-width="80"
stroke-linejoin="round" 
opacity="1"
points="411.5244 , 260.488 419.5244 , 270.488 399.5244 , 261.488 427.5244 , 259.488 439.5244 , 288.488 448.5244 , 286.488 438.5244 , 273.488 445.5244 , 288.488 445.5244 , 262.488 449.5244 , 269.488 447.5244 , 274.488 426.5244 , 286.488 445.5244 , 275.488 430.5244 , 307.488 402.5244 , 291.488 401.5244 , 290.488 378.5244 , 274.488 399.5244 , 272.488 413.5244 , 260.488 404.5244 , 266.488 392.5244 , 257.488 384.5244 , 308.488 376.5244 , 296.488 359.5244 , 277.488 334.5244 , 314.488 341.5244 , 259.488 357.5244 , 290.488 382.5244 , 269.488 363.5244 , 269.488 ">
</polygon><polygon 
stroke="rgb(93,69,115)"
fill="rgb(93,69,115)"
stroke-width="70"
stroke-linejoin="round" 
opacity="1"
points="387.5244 , 275.488 371.5244 , 298.488 382.5244 , 288.488 377.5244 , 282.488 379.5244 , 302.488 388.5244 , 286.488 377.5244 , 295.488 392.5244 , 300.488 391.5244 , 288.488 389.5244 , 303.488 370.5244 , 279.488 379.5244 , 288.488 361.5244 , 268.488 374.5244 , 293.488 ">
</polygon><polygon 
stroke="rgb(103,79,125)"
fill="rgb(103,79,125)"
stroke-width="60"
stroke-linejoin="round" 
opacity="1"
points="391.5244 , 279.488 386.5244 , 281.488 395.5244 , 277.488 405.5244 , 287.488 399.5244 , 290.488 409.5244 , 292.488 408.5244 , 296.488 402.5244 , 289.488 395.5244 , 290.488 400.5244 , 277.488 392.5244 , 283.488 392.5244 , 280.488 395.5244 , 295.488 399.5244 , 280.488 389.5244 , 287.488 386.5244 , 281.488 391.5244 , 286.488 397.5244 , 280.488 406.5244 , 291.488 399.5244 , 282.488 400.5244 , 292.488 408.5244 , 290.488 398.5244 , 285.488 404.5244 , 282.488 404.5244 , 291.488 409.5244 , 287.488 408.5244 , 276.488 ">
</polygon><polygon 
stroke="rgb(103,79,125)"
fill="rgb(103,79,125)"
stroke-width="80"
stroke-linejoin="round" 
opacity="1"
points="253.12205 , 246.732 253.12205 , 231.732 267.12205 , 220.732 287.12205 , 246.732 308.12205 , 236.732 331.12205 , 232.732 334.12205 , 217.732 318.12205 , 214.732 331.12205 , 234.732 329.12205 , 240.732 347.12205 , 235.732 365.12205 , 208.732 363.12205 , 237.732 354.12205 , 223.732 347.12205 , 228.732 332.12205 , 223.732 346.12205 , 237.732 338.12205 , 229.732 351.12205 , 247.732 354.12205 , 228.732 347.12205 , 206.732 323.12205 , 262.732 302.12205 , 248.732 326.12205 , 234.732 ">
</polygon><polygon 
stroke="rgb(103,79,125)"
fill="rgb(103,79,125)"
stroke-width="70"
stroke-linejoin="round" 
opacity="1"
points="281.12205 , 234.732 269.12205 , 239.732 279.12205 , 222.732 278.12205 , 214.732 278.12205 , 236.732 292.12205 , 249.732 298.12205 , 240.732 299.12205 , 219.732 306.12205 , 225.732 311.12205 , 249.732 310.12205 , 221.732 304.12205 , 223.732 314.12205 , 223.732 307.12205 , 227.732 ">
</polygon><path d="M 240 480 c 65.6,-66.4 0,-177.06666666667 82,-332 
C 294,331.93333333333 359.6,442.6 309,480
 " stroke="rgb(86,121,54)" stroke-linejoin="arcs"  stroke-width="5" fill="rgb(86,121,54)"/><path d="M 274.85 347.2 c -71.933333333333,-12.8 -77.466666666667,-10.666666666667 -83,-32 
C 205.68333333333,340.53333333333 211.21666666667,338.4 274.26165,363.468
 " stroke="rgb(86,121,54)" stroke-linejoin="arcs"  stroke-width="5" fill="rgb(86,121,54)"/><path d="M 288.2816 235.648 c -14.666666666667,-0.6 -35.2,-0.4 -44,-3 
C 257.4816,235.623 278.01493333333,235.423 283.81875,255.9
 " stroke="rgb(86,121,54)" stroke-linejoin="arcs"  stroke-width="5" fill="rgb(86,121,54)"/><path d="M 294.12205 214.732 c -2.2,-12.4 -8.8,-16.533333333333 -11,-62 
C 286.42205,205.94866666667 293.02205,210.082 288.2816,235.648
 " stroke="rgb(86,121,54)" stroke-linejoin="arcs"  stroke-width="5" fill="rgb(86,121,54)"/><path d="M 278.18945 294.412 c -17.666666666667,-24.8 -42.4,-20.666666666667 -53,-62 
C 241.08945,281.49533333333 265.82278333333,277.362 276.6048,312.672
 " stroke="rgb(86,121,54)" stroke-linejoin="arcs"  stroke-width="5" fill="rgb(86,121,54)"/><path d="M 283.81875 255.9 c -23.733333333333,0.93333333333333 -23.733333333333,3.7333333333333 -89,7 
C 268.98541666667,260.50833333333 268.98541666667,257.70833333333 280.5244,275.488
 " stroke="rgb(86,121,54)" stroke-linejoin="arcs"  stroke-width="5" fill="rgb(86,121,54)"/><path d="M 275.56135 330.268 c 69.333333333333,-8.2666666666667 60.666666666667,-28.933333333333 130,-62 
C 349.22801666667,309.08466666667 357.89468333333,329.75133333333 274.85,347.2
 " stroke="rgb(86,121,54)" stroke-linejoin="arcs"  stroke-width="5" fill="rgb(86,121,54)"/><path d="M 276.6048 312.672 c 6.1333333333333,-21.2 21.466666666667,-14.133333333333 23,-53 
C 300.37146666667,305.16366666667 285.03813333333,298.097 275.56135,330.268
 " stroke="rgb(86,121,54)" stroke-linejoin="arcs"  stroke-width="5" fill="rgb(86,121,54)"/><path d="M 280.5244 275.488 c 60.6,4.4 33.666666666667,1.4666666666667 101,11 
C 324.29106666667,278.32966666667 351.2244,281.263 278.18945,294.412
 " stroke="rgb(86,121,54)" stroke-linejoin="arcs"  stroke-width="5" fill="rgb(86,121,54)"/><path d="M 294.12205 214.732 c -10,6 -23.333333333333,8.4 -25,18 
C 273.28871666667,225.382 286.62205,222.982 288.2816,235.648
 " stroke="rgb(86,121,54)" stroke-linejoin="arcs"  stroke-width="5" fill="rgb(86,121,54)"/><polygon 
stroke="rgb(93,69,115)"
fill="rgb(93,69,115)"
stroke-width="80"
stroke-linejoin="round" 
opacity="1"
points="311 , 178 287 , 165 278 , 150 249 , 171 247 , 163 238 , 162 221 , 153 223 , 150 217 , 174 226 , 148 253 , 152 224 , 161 238 , 143 215 , 177 ">
</polygon><polygon 
stroke="rgb(103,79,125)"
fill="rgb(103,79,125)"
stroke-width="80"
stroke-linejoin="round" 
opacity="1"
points="218.85 , 338.2 203.85 , 301.2 213.85 , 336.2 220.85 , 317.2 229.85 , 313.2 204.85 , 322.2 225.85 , 316.2 220.85 , 319.2 215.85 , 339.2 239.85 , 343.2 218.85 , 314.2 202.85 , 329.2 224.85 , 287.2 224.85 , 343.2 202.85 , 324.2 215.85 , 321.2 185.85 , 331.2 191.85 , 301.2 202.85 , 292.2 194.85 , 288.2 170.85 , 315.2 ">
</polygon><polygon 
stroke="rgb(93,69,115)"
fill="rgb(93,69,115)"
stroke-width="60"
stroke-linejoin="round" 
opacity="1"
points="193.85 , 324.2 191.85 , 309.2 196.85 , 305.2 203.85 , 318.2 210.85 , 312.2 210.85 , 321.2 202.85 , 309.2 212.85 , 325.2 219.85 , 316.2 213.85 , 306.2 220.85 , 311.2 226.85 , 325.2 225.85 , 311.2 231.85 , 305.2 222.85 , 314.2 227.85 , 317.2 217.85 , 322.2 222.85 , 306.2 221.85 , 324.2 228.85 , 313.2 218.85 , 318.2 215.85 , 322.2 222.85 , 324.2 224.85 , 321.2 232.85 , 320.2 237.85 , 310.2 233.85 , 321.2 236.85 , 316.2 ">
</polygon><polygon 
stroke="rgb(103,79,125)"
fill="rgb(103,79,125)"
stroke-width="80"
stroke-linejoin="round" 
opacity="1"
points="230.2816 , 205.648 220.2816 , 250.648 226.2816 , 236.648 217.2816 , 226.648 241.2816 , 225.648 228.2816 , 223.648 243.2816 , 237.648 245.2816 , 232.648 265.2816 , 254.648 279.2816 , 252.648 252.2816 , 248.648 237.2816 , 246.648 212.2816 , 218.648 235.2816 , 253.648 259.2816 , 236.648 265.2816 , 227.648 263.2816 , 237.648 242.2816 , 232.648 220.2816 , 225.648 213.2816 , 245.648 200.2816 , 241.648 205.2816 , 211.648 204.2816 , 216.648 175.2816 , 253.648 169.2816 , 250.648 146.2816 , 217.648 ">
</polygon><polygon 
stroke="rgb(103,79,125)"
fill="rgb(103,79,125)"
stroke-width="60"
stroke-linejoin="round" 
opacity="1"
points="186.81875 , 268.9 184.81875 , 262.9 177.81875 , 262.9 181.81875 , 264.9 177.81875 , 265.9 177.81875 , 265.9 167.81875 , 270.9 175.81875 , 271.9 181.81875 , 257.9 188.81875 , 272.9 182.81875 , 270.9 187.81875 , 267.9 197.81875 , 260.9 198.81875 , 263.9 201.81875 , 272.9 ">
</polygon><polygon 
stroke="rgb(113,89,135)"
fill="rgb(113,89,135)"
stroke-width="60"
stroke-linejoin="round" 
opacity="1"
points="414.56135 , 269.268 405.56135 , 274.268 398.56135 , 278.268 396.56135 , 258.268 390.56135 , 269.268 397.56135 , 276.268 389.56135 , 262.268 393.56135 , 270.268 402.56135 , 271.268 400.56135 , 265.268 409.56135 , 263.268 409.56135 , 271.268 403.56135 , 263.268 398.56135 , 274.268 398.56135 , 271.268 405.56135 , 262.268 ">
</polygon><polygon 
stroke="rgb(93,69,115)"
fill="rgb(93,69,115)"
stroke-width="60"
stroke-linejoin="round" 
opacity="1"
points="266.12205 , 231.732 257.12205 , 228.732 264.12205 , 228.732 262.12205 , 226.732 267.12205 , 234.732 261.12205 , 239.732 257.12205 , 225.732 263.12205 , 222.732 270.12205 , 225.732 268.12205 , 235.732 263.12205 , 228.732 267.12205 , 231.732 266.12205 , 233.732 273.12205 , 224.732 281.12205 , 223.732 274.12205 , 236.732 279.12205 , 228.732 271.12205 , 229.732 275.12205 , 233.732 267.12205 , 234.732 261.12205 , 241.732 ">
</polygon></svg>