<?xml version="1.0" encoding="iso-8859-1"?>
<svg version="1.1" id="Capa_1" xmlns="http://www.w3.org/2000/svg" xmlns:xlink="http://www.w3.org/1999/xlink" x="0px" y="0px"
viewBox="0 0 500 500" xml:space="preserve"><defs></defs><polygon 
stroke="rgb(107,96,153)"
fill="rgb(107,96,153)"
stroke-width="80"
stroke-linejoin="round" 
opacity="1"
points="332 , 129 318 , 161 304 , 150 312 , 134 288 , 161 304 , 160 320 , 135 331 , 114 348 , 169 328 , 167 340 , 173 343 , 118 348 , 130 357 , 144 381 , 125 383 , 171 408 , 114 437 , 148 422 , 144 392 , 156 413 , 113 434 , 172 441 , 120 432 , 156 446 , 168 432 , 122 409 , 172 ">
</polygon><polygon 
stroke="rgb(97,86,143)"
fill="rgb(97,86,143)"
stroke-width="70"
stroke-linejoin="round" 
opacity="1"
points="296 , 155 278 , 147 271 , 127 285 , 130 305 , 125 285 , 128 267 , 130 274 , 132 282 , 132 290 , 147 270 , 154 257 , 163 268 , 133 277 , 135 268 , 142 259 , 128 246 , 148 249 , 125 263 , 134 247 , 155 255 , 158 240 , 131 235 , 125 231 , 154 ">
</polygon><polygon 
stroke="rgb(117,106,163)"
fill="rgb(117,106,163)"
stroke-width="80"
stroke-linejoin="round" 
opacity="1"
points="238.87 , 232.3158 217.87 , 230.3158 216.87 , 238.3158 218.87 , 241.3158 208.87 , 213.3158 179.87 , 185.3158 189.87 , 196.3158 169.87 , 223.3158 155.87 , 242.3158 171.87 , 211.3158 201.87 , 213.3158 178.87 , 195.3158 204.87 , 242.3158 177.87 , 194.3158 201.87 , 191.3158 203.87 , 210.3158 203.87 , 188.3158 183.87 , 199.3158 186.87 , 200.3158 176.87 , 217.3158 182.87 , 189.3158 ">
</polygon><polygon 
stroke="rgb(117,106,163)"
fill="rgb(117,106,163)"
stroke-width="70"
stroke-linejoin="round" 
opacity="1"
points="198.87 , 213.3158 200.87 , 200.3158 197.87 , 203.3158 193.87 , 219.3158 184.87 , 231.3158 188.87 , 224.3158 194.87 , 201.3158 204.87 , 202.3158 214.87 , 203.3158 232.87 , 195.3158 235.87 , 210.3158 255.87 , 220.3158 238.87 , 208.3158 248.87 , 203.3158 240.87 , 196.3158 252.87 , 229.3158 239.87 , 211.3158 248.87 , 231.3158 266.87 , 230.3158 257.87 , 206.3158 257.87 , 226.3158 256.87 , 223.3158 257.87 , 224.3158 273.87 , 210.3158 256.87 , 206.3158 ">
</polygon><polygon 
stroke="rgb(117,106,163)"
fill="rgb(117,106,163)"
stroke-width="60"
stroke-linejoin="round" 
opacity="1"
points="211.87 , 220.3158 203.87 , 210.3158 206.87 , 220.3158 203.87 , 206.3158 193.87 , 209.3158 192.87 , 218.3158 182.87 , 205.3158 173.87 , 209.3158 174.87 , 211.3158 180.87 , 221.3158 185.87 , 222.3158 191.87 , 213.3158 191.87 , 206.3158 192.87 , 222.3158 184.87 , 218.3158 180.87 , 213.3158 175.87 , 208.3158 181.87 , 207.3158 186.87 , 218.3158 184.87 , 212.3158 177.87 , 208.3158 173.87 , 215.3158 175.87 , 225.3158 184.87 , 223.3158 190.87 , 215.3158 ">
</polygon><polygon 
stroke="rgb(117,106,163)"
fill="rgb(117,106,163)"
stroke-width="80"
stroke-linejoin="round" 
opacity="1"
points="401.84775 , 262.583775 393.84775 , 232.583775 401.84775 , 233.583775 427.84775 , 227.583775 442.84775 , 267.583775 420.84775 , 236.583775 403.84775 , 211.583775 404.84775 , 222.583775 394.84775 , 223.583775 393.84775 , 242.583775 372.84775 , 240.583775 380.84775 , 256.583775 389.84775 , 227.583775 413.84775 , 211.583775 ">
</polygon><polygon 
stroke="rgb(97,86,143)"
fill="rgb(97,86,143)"
stroke-width="70"
stroke-linejoin="round" 
opacity="1"
points="373.84775 , 239.583775 377.84775 , 258.583775 376.84775 , 223.583775 384.84775 , 249.583775 393.84775 , 246.583775 378.84775 , 258.583775 373.84775 , 248.583775 375.84775 , 258.583775 364.84775 , 254.583775 380.84775 , 250.583775 368.84775 , 234.583775 360.84775 , 245.583775 357.84775 , 239.583775 373.84775 , 232.583775 356.84775 , 238.583775 338.84775 , 230.583775 334.84775 , 222.583775 337.84775 , 240.583775 357.84775 , 247.583775 344.84775 , 243.583775 364.84775 , 232.583775 383.84775 , 252.583775 397.84775 , 238.583775 405.84775 , 240.583775 406.84775 , 244.583775 401.84775 , 237.583775 396.84775 , 224.583775 410.84775 , 258.583775 425.84775 , 240.583775 ">
</polygon><polygon 
stroke="rgb(107,96,153)"
fill="rgb(107,96,153)"
stroke-width="60"
stroke-linejoin="round" 
opacity="1"
points="374.84775 , 245.583775 368.84775 , 244.583775 373.84775 , 245.583775 374.84775 , 242.583775 366.84775 , 242.583775 367.84775 , 232.583775 359.84775 , 233.583775 358.84775 , 250.583775 367.84775 , 232.583775 377.84775 , 249.583775 370.84775 , 232.583775 377.84775 , 238.583775 372.84775 , 237.583775 373.84775 , 234.583775 382.84775 , 230.583775 386.84775 , 239.583775 383.84775 , 242.583775 383.84775 , 250.583775 382.84775 , 244.583775 ">
</polygon><polygon 
stroke="rgb(97,86,143)"
fill="rgb(97,86,143)"
stroke-width="60"
stroke-linejoin="round" 
opacity="1"
points="250.314 , 211.2914 246.314 , 218.2914 249.314 , 205.2914 244.314 , 218.2914 253.314 , 210.2914 245.314 , 207.2914 237.314 , 208.2914 234.314 , 199.2914 235.314 , 212.2914 237.314 , 200.2914 239.314 , 199.2914 246.314 , 207.2914 252.314 , 207.2914 ">
</polygon><polygon 
stroke="rgb(107,96,153)"
fill="rgb(107,96,153)"
stroke-width="80"
stroke-linejoin="round" 
opacity="1"
points="291.74625 , 127.294425 261.74625 , 152.294425 290.74625 , 143.294425 277.74625 , 103.294425 248.74625 , 105.294425 276.74625 , 123.294425 257.74625 , 151.294425 262.74625 , 106.294425 289.74625 , 117.294425 316.74625 , 99.294425 318.74625 , 118.294425 299.74625 , 152.294425 274.74625 , 110.294425 253.74625 , 147.294425 258.74625 , 141.294425 249.74625 , 95.294425 268.74625 , 154.294425 256.74625 , 103.294425 228.74625 , 134.294425 252.74625 , 126.294425 275.74625 , 128.294425 283.74625 , 98.294425 271.74625 , 108.294425 ">
</polygon><polygon 
stroke="rgb(97,86,143)"
fill="rgb(97,86,143)"
stroke-width="70"
stroke-linejoin="round" 
opacity="1"
points="291.74625 , 123.294425 272.74625 , 137.294425 262.74625 , 136.294425 264.74625 , 119.294425 277.74625 , 144.294425 258.74625 , 120.294425 250.74625 , 136.294425 244.74625 , 110.294425 224.74625 , 135.294425 224.74625 , 127.294425 216.74625 , 123.294425 206.74625 , 137.294425 220.74625 , 107.294425 224.74625 , 125.294425 229.74625 , 116.294425 246.74625 , 133.294425 243.74625 , 127.294425 227.74625 , 137.294425 214.74625 , 141.294425 223.74625 , 116.294425 241.74625 , 130.294425 229.74625 , 122.294425 215.74625 , 135.294425 210.74625 , 114.294425 207.74625 , 130.294425 203.74625 , 137.294425 ">
</polygon><polygon 
stroke="rgb(117,106,163)"
fill="rgb(117,106,163)"
stroke-width="80"
stroke-linejoin="round" 
opacity="1"
points="285.65675 , 196.041475 286.65675 , 237.041475 286.65675 , 219.041475 289.65675 , 234.041475 302.65675 , 208.041475 327.65675 , 223.041475 335.65675 , 228.041475 319.65675 , 214.041475 307.65675 , 211.041475 303.65675 , 226.041475 311.65675 , 211.041475 287.65675 , 222.041475 276.65675 , 214.041475 287.65675 , 194.041475 294.65675 , 233.041475 311.65675 , 232.041475 289.65675 , 206.041475 268.65675 , 224.041475 276.65675 , 202.041475 267.65675 , 189.041475 255.65675 , 186.041475 252.65675 , 221.041475 240.65675 , 199.041475 269.65675 , 206.041475 285.65675 , 238.041475 315.65675 , 231.041475 ">
</polygon><polygon 
stroke="rgb(107,96,153)"
fill="rgb(107,96,153)"
stroke-width="70"
stroke-linejoin="round" 
opacity="1"
points="307.65675 , 231.041475 313.65675 , 209.041475 304.65675 , 220.041475 296.65675 , 203.041475 306.65675 , 198.041475 290.65675 , 201.041475 280.65675 , 221.041475 284.65675 , 209.041475 268.65675 , 204.041475 254.65675 , 218.041475 270.65675 , 213.041475 286.65675 , 201.041475 286.65675 , 202.041475 ">
</polygon><polygon 
stroke="rgb(117,106,163)"
fill="rgb(117,106,163)"
stroke-width="60"
stroke-linejoin="round" 
opacity="1"
points="307.65675 , 219.041475 310.65675 , 215.041475 307.65675 , 206.041475 306.65675 , 207.041475 306.65675 , 216.041475 310.65675 , 208.041475 306.65675 , 224.041475 298.65675 , 210.041475 307.65675 , 216.041475 310.65675 , 214.041475 319.65675 , 217.041475 316.65675 , 219.041475 312.65675 , 214.041475 303.65675 , 223.041475 302.65675 , 205.041475 ">
</polygon><polygon 
stroke="rgb(97,86,143)"
fill="rgb(97,86,143)"
stroke-width="80"
stroke-linejoin="round" 
opacity="1"
points="175.84775 , 269.583775 177.84775 , 248.583775 182.84775 , 259.583775 152.84775 , 273.583775 131.84775 , 260.583775 121.84775 , 249.583775 112.84775 , 249.583775 110.84775 , 230.583775 100.84775 , 228.583775 84.84775 , 259.583775 81.84775 , 264.583775 78.84775 , 267.583775 ">
</polygon><polygon 
stroke="rgb(117,106,163)"
fill="rgb(117,106,163)"
stroke-width="70"
stroke-linejoin="round" 
opacity="1"
points="165.84775 , 244.583775 163.84775 , 236.583775 143.84775 , 241.583775 156.84775 , 236.583775 163.84775 , 241.583775 145.84775 , 241.583775 148.84775 , 253.583775 130.84775 , 270.583775 126.84775 , 238.583775 129.84775 , 260.583775 122.84775 , 268.583775 108.84775 , 248.583775 125.84775 , 263.583775 130.84775 , 246.583775 140.84775 , 259.583775 120.84775 , 246.583775 ">
</polygon><polygon 
stroke="rgb(107,96,153)"
fill="rgb(107,96,153)"
stroke-width="60"
stroke-linejoin="round" 
opacity="1"
points="192.84775 , 262.583775 190.84775 , 251.583775 193.84775 , 262.583775 202.84775 , 254.583775 210.84775 , 261.583775 210.84775 , 258.583775 218.84775 , 242.583775 216.84775 , 255.583775 213.84775 , 251.583775 219.84775 , 249.583775 222.84775 , 244.583775 228.84775 , 259.583775 221.84775 , 252.583775 227.84775 , 257.583775 225.84775 , 260.583775 221.84775 , 259.583775 230.84775 , 259.583775 224.84775 , 249.583775 216.84775 , 255.583775 210.84775 , 258.583775 201.84775 , 259.583775 206.84775 , 257.583775 197.84775 , 254.583775 189.84775 , 260.583775 183.84775 , 259.583775 188.84775 , 253.583775 179.84775 , 243.583775 171.84775 , 243.583775 ">
</polygon><polygon 
stroke="rgb(97,86,143)"
fill="rgb(97,86,143)"
stroke-width="70"
stroke-linejoin="round" 
opacity="1"
points="400.84775 , 267.583775 400.84775 , 263.583775 393.84775 , 258.583775 382.84775 , 254.583775 375.84775 , 267.583775 391.84775 , 267.583775 407.84775 , 263.583775 415.84775 , 234.583775 421.84775 , 265.583775 426.84775 , 257.583775 412.84775 , 246.583775 ">
</polygon><polygon 
stroke="rgb(117,106,163)"
fill="rgb(117,106,163)"
stroke-width="60"
stroke-linejoin="round" 
opacity="1"
points="376.84775 , 256.583775 367.84775 , 256.583775 375.84775 , 257.583775 383.84775 , 259.583775 387.84775 , 255.583775 381.84775 , 258.583775 376.84775 , 250.583775 382.84775 , 247.583775 387.84775 , 258.583775 387.84775 , 256.583775 383.84775 , 249.583775 390.84775 , 248.583775 380.84775 , 261.583775 372.84775 , 257.583775 ">
</polygon><polygon 
stroke="rgb(117,106,163)"
fill="rgb(117,106,163)"
stroke-width="80"
stroke-linejoin="round" 
opacity="1"
points="290.65675 , 197.041475 292.65675 , 194.041475 290.65675 , 186.041475 297.65675 , 205.041475 294.65675 , 219.041475 264.65675 , 172.041475 287.65675 , 206.041475 314.65675 , 197.041475 295.65675 , 172.041475 322.65675 , 209.041475 311.65675 , 219.041475 322.65675 , 171.041475 317.65675 , 175.041475 289.65675 , 208.041475 281.65675 , 176.041475 298.65675 , 227.041475 314.65675 , 228.041475 326.65675 , 226.041475 353.65675 , 220.041475 357.65675 , 202.041475 350.65675 , 218.041475 324.65675 , 221.041475 307.65675 , 222.041475 334.65675 , 208.041475 306.65675 , 214.041475 328.65675 , 170.041475 309.65675 , 179.041475 291.65675 , 183.041475 ">
</polygon><polygon 
stroke="rgb(97,86,143)"
fill="rgb(97,86,143)"
stroke-width="60"
stroke-linejoin="round" 
opacity="1"
points="325.65675 , 191.041475 333.65675 , 191.041475 327.65675 , 207.041475 317.65675 , 203.041475 308.65675 , 208.041475 309.65675 , 195.041475 308.65675 , 201.041475 299.65675 , 206.041475 301.65675 , 196.041475 311.65675 , 206.041475 321.65675 , 203.041475 330.65675 , 206.041475 322.65675 , 192.041475 315.65675 , 202.041475 305.65675 , 200.041475 311.65675 , 194.041475 303.65675 , 207.041475 297.65675 , 198.041475 304.65675 , 198.041475 295.65675 , 204.041475 296.65675 , 191.041475 294.65675 , 199.041475 302.65675 , 196.041475 292.65675 , 210.041475 296.65675 , 197.041475 ">
</polygon><polygon 
stroke="rgb(97,86,143)"
fill="rgb(97,86,143)"
stroke-width="70"
stroke-linejoin="round" 
opacity="1"
points="249.74625 , 106.294425 240.74625 , 111.294425 256.74625 , 117.294425 241.74625 , 110.294425 233.74625 , 82.294425 217.74625 , 81.294425 213.74625 , 97.294425 228.74625 , 88.294425 248.74625 , 120.294425 233.74625 , 96.294425 221.74625 , 100.294425 239.74625 , 107.294425 253.74625 , 116.294425 263.74625 , 101.294425 270.74625 , 101.294425 290.74625 , 106.294425 293.74625 , 120.294425 308.74625 , 116.294425 299.74625 , 114.294425 279.74625 , 93.294425 267.74625 , 92.294425 259.74625 , 82.294425 256.74625 , 106.294425 ">
</polygon><polygon 
stroke="rgb(117,106,163)"
fill="rgb(117,106,163)"
stroke-width="60"
stroke-linejoin="round" 
opacity="1"
points="266.74625 , 92.294425 260.74625 , 101.294425 258.74625 , 106.294425 264.74625 , 95.294425 262.74625 , 106.294425 261.74625 , 91.294425 251.74625 , 97.294425 256.74625 , 107.294425 248.74625 , 91.294425 239.74625 , 110.294425 239.74625 , 98.294425 244.74625 , 102.294425 236.74625 , 93.294425 229.74625 , 107.294425 221.74625 , 105.294425 231.74625 , 102.294425 234.74625 , 94.294425 234.74625 , 107.294425 232.74625 , 101.294425 241.74625 , 95.294425 244.74625 , 107.294425 237.74625 , 96.294425 235.74625 , 103.294425 230.74625 , 108.294425 236.74625 , 91.294425 226.74625 , 104.294425 232.74625 , 106.294425 ">
</polygon><path d="M 240 480 c 4.1333333333333,-67.4 4.1333333333333,-157.26666666667 62,-337 
C 299.13333333333,347.73333333333 299.13333333333,437.6 301,480
 " stroke="rgb(127,144,96)" stroke-linejoin="arcs"  stroke-width="5" fill="rgb(127,144,96)"/><path d="M 263.87 282.3158 c -48,-22.333333333333 -28.8,-13.4 -48,-67 
C 239.87,277.2908 220.67,268.35746666667 259.84775,301.583775
 " stroke="rgb(127,144,96)" stroke-linejoin="arcs"  stroke-width="5" fill="rgb(127,144,96)"/><path d="M 259.84775 301.583775 c 23,-32.533333333333 46,-8.1333333333333 115,-61 
C 317.34775,301.07544166667 294.34775,276.67544166667 256.368,319.8576
 " stroke="rgb(127,144,96)" stroke-linejoin="arcs"  stroke-width="5" fill="rgb(127,144,96)"/><path d="M 286.314 194.2914 c -6,3.7333333333333 -30,2.8 -30,14 
C 259.314,198.8414 283.314,199.77473333333 279.65675,218.041475
 " stroke="rgb(127,144,96)" stroke-linejoin="arcs"  stroke-width="5" fill="rgb(127,144,96)"/><path d="M 293.74625 169.294425 c -8.8,-17.6 -8,-8.8 -12,-44 
C 286.94625,165.994425 286.14625,157.194425 286.314,194.2914
 " stroke="rgb(127,144,96)" stroke-linejoin="arcs"  stroke-width="5" fill="rgb(127,144,96)"/><path d="M 279.65675 218.041475 c 9.6,-0.8 24,-1.2 36,-3 
C 307.25675,217.216475 292.85675,217.616475 273.728,240.5952
 " stroke="rgb(127,144,96)" stroke-linejoin="arcs"  stroke-width="5" fill="rgb(127,144,96)"/><path d="M 259.84775 301.583775 c -24.666666666667,-22.866666666667 -54.266666666667,-13.066666666667 -74,-49 
C 212.98108333333,294.64210833333 242.58108333333,284.84210833333 256.368,319.8576
 " stroke="rgb(127,144,96)" stroke-linejoin="arcs"  stroke-width="5" fill="rgb(127,144,96)"/><path d="M 259.84775 301.583775 c 42.333333333333,-16.333333333333 118.53333333333,-6.5333333333333 127,-49 
C 391.08108333333,301.17544166667 314.88108333333,291.37544166667 256.368,319.8576
 " stroke="rgb(127,144,96)" stroke-linejoin="arcs"  stroke-width="5" fill="rgb(127,144,96)"/><path d="M 279.65675 218.041475 c 34.666666666667,-3.6 40,-3.6 40,-18 
C 323.65675,216.691475 318.32341666667,216.691475 273.728,240.5952
 " stroke="rgb(127,144,96)" stroke-linejoin="arcs"  stroke-width="5" fill="rgb(127,144,96)"/><path d="M 293.74625 169.294425 c -8.5333333333333,-9.0666666666667 -10.666666666667,-31.733333333333 -32,-68 
C 286.27958333333,146.06109166667 288.41291666667,168.72775833333 286.314,194.2914
 " stroke="rgb(127,144,96)" stroke-linejoin="arcs"  stroke-width="5" fill="rgb(127,144,96)"/><polygon 
stroke="rgb(117,106,163)"
fill="rgb(117,106,163)"
stroke-width="60"
stroke-linejoin="round" 
opacity="1"
points="308 , 145 315 , 138 310 , 152 302 , 141 305 , 138 300 , 138 303 , 140 294 , 150 296 , 150 300 , 144 299 , 151 289 , 149 294 , 135 ">
</polygon><polygon 
stroke="rgb(97,86,143)"
fill="rgb(97,86,143)"
stroke-width="80"
stroke-linejoin="round" 
opacity="1"
points="282.314 , 223.2914 294.314 , 214.2914 310.314 , 195.2914 337.314 , 228.2914 344.314 , 227.2914 316.314 , 179.2914 329.314 , 237.2914 304.314 , 232.2914 322.314 , 230.2914 302.314 , 183.2914 311.314 , 206.2914 324.314 , 227.2914 344.314 , 220.2914 361.314 , 201.2914 389.314 , 232.2914 ">
</polygon><polygon 
stroke="rgb(97,86,143)"
fill="rgb(97,86,143)"
stroke-width="70"
stroke-linejoin="round" 
opacity="1"
points="244.314 , 209.2914 228.314 , 213.2914 209.314 , 212.2914 195.314 , 192.2914 178.314 , 195.2914 197.314 , 203.2914 187.314 , 227.2914 169.314 , 225.2914 187.314 , 197.2914 183.314 , 211.2914 193.314 , 201.2914 211.314 , 222.2914 205.314 , 221.2914 212.314 , 198.2914 200.314 , 213.2914 212.314 , 200.2914 197.314 , 204.2914 197.314 , 188.2914 178.314 , 223.2914 182.314 , 188.2914 192.314 , 195.2914 191.314 , 190.2914 202.314 , 201.2914 188.314 , 223.2914 199.314 , 191.2914 ">
</polygon><polygon 
stroke="rgb(117,106,163)"
fill="rgb(117,106,163)"
stroke-width="60"
stroke-linejoin="round" 
opacity="1"
points="271.74625 , 116.294425 277.74625 , 116.294425 277.74625 , 121.294425 284.74625 , 131.294425 289.74625 , 124.294425 296.74625 , 115.294425 306.74625 , 117.294425 302.74625 , 126.294425 304.74625 , 119.294425 299.74625 , 122.294425 304.74625 , 118.294425 304.74625 , 126.294425 304.74625 , 132.294425 305.74625 , 122.294425 299.74625 , 128.294425 291.74625 , 123.294425 299.74625 , 135.294425 ">
</polygon><polygon 
stroke="rgb(97,86,143)"
fill="rgb(97,86,143)"
stroke-width="80"
stroke-linejoin="round" 
opacity="1"
points="382.84775 , 280.583775 374.84775 , 267.583775 363.84775 , 265.583775 363.84775 , 280.583775 367.84775 , 252.583775 350.84775 , 271.583775 355.84775 , 263.583775 368.84775 , 280.583775 352.84775 , 271.583775 367.84775 , 222.583775 358.84775 , 230.583775 344.84775 , 276.583775 363.84775 , 239.583775 388.84775 , 273.583775 406.84775 , 226.583775 433.84775 , 231.583775 449.84775 , 247.583775 447.84775 , 258.583775 438.84775 , 277.583775 ">
</polygon><polygon 
stroke="rgb(117,106,163)"
fill="rgb(117,106,163)"
stroke-width="70"
stroke-linejoin="round" 
opacity="1"
points="333.65675 , 198.041475 352.65675 , 211.041475 347.65675 , 217.041475 363.65675 , 193.041475 367.65675 , 200.041475 352.65675 , 203.041475 360.65675 , 187.041475 360.65675 , 214.041475 346.65675 , 202.041475 354.65675 , 185.041475 365.65675 , 184.041475 347.65675 , 220.041475 335.65675 , 208.041475 349.65675 , 188.041475 329.65675 , 198.041475 ">
</polygon><polygon 
stroke="rgb(97,86,143)"
fill="rgb(97,86,143)"
stroke-width="80"
stroke-linejoin="round" 
opacity="1"
points="265.74625 , 77.294425 235.74625 , 119.294425 253.74625 , 92.294425 263.74625 , 86.294425 255.74625 , 72.294425 233.74625 , 119.294425 249.74625 , 76.294425 228.74625 , 75.294425 233.74625 , 110.294425 236.74625 , 74.294425 212.74625 , 77.294425 220.74625 , 111.294425 228.74625 , 82.294425 218.74625 , 86.294425 220.74625 , 80.294425 232.74625 , 99.294425 ">
</polygon></svg>