<?xml version="1.0" encoding="iso-8859-1"?>
<svg version="1.1" id="Capa_1" xmlns="http://www.w3.org/2000/svg" xmlns:xlink="http://www.w3.org/1999/xlink" x="0px" y="0px"
viewBox="0 0 500 500" xml:space="preserve"><defs></defs><polygon 
stroke="rgb(167,110,190)"
fill="rgb(167,110,190)"
stroke-width="80"
stroke-linejoin="round" 
opacity="1"
points="364 , 148 373 , 128 348 , 150 331 , 136 348 , 121 324 , 132 353 , 137 326 , 153 346 , 146 350 , 113 376 , 112 399 , 120 406 , 146 385 , 125 403 , 158 391 , 122 394 , 119 371 , 158 347 , 123 ">
</polygon><polygon 
stroke="rgb(187,130,210)"
fill="rgb(187,130,210)"
stroke-width="70"
stroke-linejoin="round" 
opacity="1"
points="349 , 152 366 , 114 358 , 140 364 , 123 384 , 145 399 , 125 395 , 148 383 , 137 391 , 149 392 , 120 381 , 133 396 , 132 394 , 122 380 , 137 396 , 131 399 , 145 389 , 146 404 , 117 385 , 134 376 , 114 ">
</polygon><polygon 
stroke="rgb(167,110,190)"
fill="rgb(167,110,190)"
stroke-width="70"
stroke-linejoin="round" 
opacity="1"
points="411.6496 , 215.7872 411.6496 , 214.7872 429.6496 , 213.7872 442.6496 , 235.7872 425.6496 , 208.7872 414.6496 , 199.7872 418.6496 , 229.7872 437.6496 , 224.7872 442.6496 , 221.7872 437.6496 , 204.7872 430.6496 , 221.7872 447.6496 , 226.7872 440.6496 , 233.7872 429.6496 , 203.7872 443.6496 , 212.7872 436.6496 , 200.7872 433.6496 , 237.7872 422.6496 , 217.7872 415.6496 , 229.7872 401.6496 , 213.7872 410.6496 , 208.7872 416.6496 , 206.7872 408.6496 , 220.7872 428.6496 , 210.7872 435.6496 , 227.7872 ">
</polygon><polygon 
stroke="rgb(167,110,190)"
fill="rgb(167,110,190)"
stroke-width="60"
stroke-linejoin="round" 
opacity="1"
points="409.6496 , 210.7872 402.6496 , 225.7872 405.6496 , 223.7872 406.6496 , 227.7872 416.6496 , 216.7872 420.6496 , 208.7872 410.6496 , 224.7872 414.6496 , 221.7872 412.6496 , 227.7872 411.6496 , 208.7872 409.6496 , 226.7872 417.6496 , 211.7872 421.6496 , 223.7872 430.6496 , 224.7872 436.6496 , 210.7872 432.6496 , 223.7872 428.6496 , 216.7872 430.6496 , 215.7872 425.6496 , 214.7872 417.6496 , 222.7872 422.6496 , 225.7872 426.6496 , 226.7872 427.6496 , 213.7872 437.6496 , 216.7872 434.6496 , 221.7872 429.6496 , 228.7872 432.6496 , 220.7872 429.6496 , 220.7872 ">
</polygon><polygon 
stroke="rgb(167,110,190)"
fill="rgb(167,110,190)"
stroke-width="80"
stroke-linejoin="round" 
opacity="1"
points="433.6496 , 294.7872 409.6496 , 267.7872 426.6496 , 269.7872 445.6496 , 235.7872 417.6496 , 272.7872 403.6496 , 247.7872 421.6496 , 289.7872 440.6496 , 272.7872 414.6496 , 281.7872 432.6496 , 256.7872 442.6496 , 238.7872 437.6496 , 294.7872 436.6496 , 278.7872 431.6496 , 280.7872 423.6496 , 273.7872 414.6496 , 269.7872 408.6496 , 267.7872 391.6496 , 270.7872 380.6496 , 273.7872 ">
</polygon><polygon 
stroke="rgb(177,120,200)"
fill="rgb(177,120,200)"
stroke-width="70"
stroke-linejoin="round" 
opacity="1"
points="435.6496 , 278.7872 445.6496 , 258.7872 446.6496 , 266.7872 449.6496 , 283.7872 445.6496 , 265.7872 449.6496 , 256.7872 444.6496 , 277.7872 443.6496 , 258.7872 426.6496 , 246.7872 436.6496 , 279.7872 416.6496 , 256.7872 425.6496 , 275.7872 445.6496 , 249.7872 437.6496 , 278.7872 444.6496 , 250.7872 425.6496 , 276.7872 445.6496 , 253.7872 430.6496 , 269.7872 429.6496 , 279.7872 435.6496 , 255.7872 445.6496 , 249.7872 443.6496 , 269.7872 ">
</polygon><polygon 
stroke="rgb(167,110,190)"
fill="rgb(167,110,190)"
stroke-width="60"
stroke-linejoin="round" 
opacity="1"
points="442.6496 , 255.7872 437.6496 , 274.7872 435.6496 , 257.7872 427.6496 , 267.7872 430.6496 , 264.7872 427.6496 , 266.7872 426.6496 , 273.7872 428.6496 , 258.7872 419.6496 , 263.7872 421.6496 , 255.7872 411.6496 , 274.7872 411.6496 , 267.7872 418.6496 , 263.7872 ">
</polygon><polygon 
stroke="rgb(167,110,190)"
fill="rgb(167,110,190)"
stroke-width="80"
stroke-linejoin="round" 
opacity="1"
points="306.193075 , 246.750025 287.193075 , 240.750025 270.193075 , 224.750025 264.193075 , 268.750025 235.193075 , 244.750025 260.193075 , 238.750025 241.193075 , 261.750025 251.193075 , 271.750025 265.193075 , 278.750025 257.193075 , 259.750025 252.193075 , 224.750025 266.193075 , 268.750025 281.193075 , 258.750025 281.193075 , 224.750025 258.193075 , 241.750025 231.193075 , 236.750025 257.193075 , 234.750025 252.193075 , 239.750025 281.193075 , 271.750025 288.193075 , 264.750025 303.193075 , 235.750025 311.193075 , 268.750025 310.193075 , 283.750025 291.193075 , 237.750025 321.193075 , 244.750025 346.193075 , 274.750025 361.193075 , 239.750025 363.193075 , 279.750025 ">
</polygon><polygon 
stroke="rgb(167,110,190)"
fill="rgb(167,110,190)"
stroke-width="70"
stroke-linejoin="round" 
opacity="1"
points="308.193075 , 236.750025 326.193075 , 270.750025 322.193075 , 273.750025 334.193075 , 259.750025 323.193075 , 269.750025 326.193075 , 242.750025 335.193075 , 237.750025 338.193075 , 271.750025 330.193075 , 251.750025 313.193075 , 239.750025 297.193075 , 245.750025 310.193075 , 253.750025 293.193075 , 248.750025 273.193075 , 241.750025 287.193075 , 271.750025 288.193075 , 259.750025 286.193075 , 263.750025 271.193075 , 257.750025 ">
</polygon><polygon 
stroke="rgb(167,110,190)"
fill="rgb(167,110,190)"
stroke-width="60"
stroke-linejoin="round" 
opacity="1"
points="327.193075 , 263.750025 321.193075 , 247.750025 320.193075 , 263.750025 317.193075 , 257.750025 320.193075 , 249.750025 327.193075 , 250.750025 337.193075 , 256.750025 331.193075 , 246.750025 341.193075 , 257.750025 336.193075 , 262.750025 329.193075 , 253.750025 ">
</polygon><polygon 
stroke="rgb(187,130,210)"
fill="rgb(187,130,210)"
stroke-width="80"
stroke-linejoin="round" 
opacity="1"
points="279.193075 , 238.750025 295.193075 , 217.750025 293.193075 , 241.750025 280.193075 , 227.750025 267.193075 , 247.750025 294.193075 , 210.750025 310.193075 , 262.750025 318.193075 , 236.750025 325.193075 , 254.750025 307.193075 , 210.750025 306.193075 , 237.750025 333.193075 , 261.750025 321.193075 , 243.750025 332.193075 , 229.750025 319.193075 , 250.750025 301.193075 , 215.750025 329.193075 , 217.750025 352.193075 , 249.750025 323.193075 , 258.750025 315.193075 , 219.750025 318.193075 , 219.750025 338.193075 , 252.750025 337.193075 , 265.750025 316.193075 , 251.750025 346.193075 , 219.750025 324.193075 , 264.750025 337.193075 , 254.750025 ">
</polygon><polygon 
stroke="rgb(167,110,190)"
fill="rgb(167,110,190)"
stroke-width="70"
stroke-linejoin="round" 
opacity="1"
points="252.193075 , 238.750025 259.193075 , 246.750025 251.193075 , 242.750025 250.193075 , 239.750025 256.193075 , 230.750025 256.193075 , 222.750025 263.193075 , 221.750025 254.193075 , 248.750025 256.193075 , 242.750025 236.193075 , 221.750025 ">
</polygon><polygon 
stroke="rgb(177,120,200)"
fill="rgb(177,120,200)"
stroke-width="60"
stroke-linejoin="round" 
opacity="1"
points="273.193075 , 240.750025 280.193075 , 245.750025 274.193075 , 228.750025 280.193075 , 244.750025 288.193075 , 236.750025 282.193075 , 234.750025 274.193075 , 240.750025 265.193075 , 228.750025 260.193075 , 243.750025 263.193075 , 242.750025 ">
</polygon><polygon 
stroke="rgb(177,120,200)"
fill="rgb(177,120,200)"
stroke-width="60"
stroke-linejoin="round" 
opacity="1"
points="428.6496 , 246.7872 422.6496 , 245.7872 428.6496 , 260.7872 424.6496 , 257.7872 424.6496 , 262.7872 426.6496 , 263.7872 431.6496 , 250.7872 427.6496 , 256.7872 425.6496 , 247.7872 433.6496 , 254.7872 431.6496 , 255.7872 430.6496 , 257.7872 440.6496 , 250.7872 445.6496 , 249.7872 438.6496 , 249.7872 ">
</polygon><polygon 
stroke="rgb(177,120,200)"
fill="rgb(177,120,200)"
stroke-width="80"
stroke-linejoin="round" 
opacity="1"
points="213.125525 , 220.922175 233.125525 , 196.922175 223.125525 , 225.922175 249.125525 , 193.922175 279.125525 , 233.922175 303.125525 , 242.922175 300.125525 , 234.922175 311.125525 , 221.922175 308.125525 , 216.922175 303.125525 , 207.922175 331.125525 , 206.922175 318.125525 , 189.922175 336.125525 , 244.922175 318.125525 , 192.922175 326.125525 , 239.922175 302.125525 , 192.922175 300.125525 , 206.922175 275.125525 , 247.922175 301.125525 , 210.922175 272.125525 , 225.922175 288.125525 , 194.922175 259.125525 , 208.922175 244.125525 , 207.922175 226.125525 , 197.922175 208.125525 , 210.922175 213.125525 , 248.922175 214.125525 , 218.922175 217.125525 , 211.922175 202.125525 , 210.922175 211.125525 , 216.922175 ">
</polygon><polygon 
stroke="rgb(187,130,210)"
fill="rgb(187,130,210)"
stroke-width="70"
stroke-linejoin="round" 
opacity="1"
points="184.125525 , 220.922175 180.125525 , 230.922175 197.125525 , 208.922175 216.125525 , 217.922175 211.125525 , 208.922175 197.125525 , 200.922175 196.125525 , 210.922175 207.125525 , 226.922175 225.125525 , 226.922175 218.125525 , 214.922175 235.125525 , 222.922175 217.125525 , 200.922175 223.125525 , 211.922175 234.125525 , 212.922175 230.125525 , 199.922175 227.125525 , 210.922175 247.125525 , 219.922175 264.125525 , 213.922175 245.125525 , 209.922175 225.125525 , 203.922175 240.125525 , 209.922175 221.125525 , 215.922175 226.125525 , 214.922175 ">
</polygon><polygon 
stroke="rgb(167,110,190)"
fill="rgb(167,110,190)"
stroke-width="60"
stroke-linejoin="round" 
opacity="1"
points="195.125525 , 223.922175 193.125525 , 211.922175 197.125525 , 229.922175 194.125525 , 214.922175 186.125525 , 211.922175 184.125525 , 210.922175 180.125525 , 213.922175 174.125525 , 214.922175 167.125525 , 227.922175 160.125525 , 211.922175 165.125525 , 227.922175 165.125525 , 213.922175 167.125525 , 211.922175 157.125525 , 217.922175 149.125525 , 228.922175 154.125525 , 216.922175 158.125525 , 228.922175 164.125525 , 218.922175 ">
</polygon><polygon 
stroke="rgb(187,130,210)"
fill="rgb(187,130,210)"
stroke-width="80"
stroke-linejoin="round" 
opacity="1"
points="217.9792 , 215.2704 239.9792 , 221.2704 233.9792 , 228.2704 228.9792 , 222.2704 229.9792 , 238.2704 253.9792 , 253.2704 256.9792 , 226.2704 279.9792 , 241.2704 305.9792 , 216.2704 300.9792 , 211.2704 300.9792 , 221.2704 299.9792 , 197.2704 290.9792 , 249.2704 262.9792 , 227.2704 285.9792 , 231.2704 299.9792 , 197.2704 313.9792 , 197.2704 293.9792 , 203.2704 ">
</polygon><polygon 
stroke="rgb(167,110,190)"
fill="rgb(167,110,190)"
stroke-width="70"
stroke-linejoin="round" 
opacity="1"
points="243.9792 , 225.2704 234.9792 , 245.2704 225.9792 , 220.2704 226.9792 , 215.2704 237.9792 , 237.2704 243.9792 , 234.2704 246.9792 , 225.2704 231.9792 , 232.2704 248.9792 , 235.2704 250.9792 , 235.2704 242.9792 , 216.2704 250.9792 , 244.2704 263.9792 , 220.2704 256.9792 , 207.2704 257.9792 , 213.2704 264.9792 , 231.2704 280.9792 , 218.2704 268.9792 , 228.2704 283.9792 , 238.2704 263.9792 , 211.2704 282.9792 , 237.2704 285.9792 , 227.2704 287.9792 , 228.2704 293.9792 , 217.2704 285.9792 , 213.2704 274.9792 , 219.2704 276.9792 , 213.2704 ">
</polygon><polygon 
stroke="rgb(177,120,200)"
fill="rgb(177,120,200)"
stroke-width="60"
stroke-linejoin="round" 
opacity="1"
points="222.9792 , 217.2704 222.9792 , 233.2704 223.9792 , 234.2704 230.9792 , 230.2704 238.9792 , 228.2704 232.9792 , 217.2704 222.9792 , 218.2704 220.9792 , 220.2704 223.9792 , 222.2704 217.9792 , 231.2704 214.9792 , 223.2704 208.9792 , 229.2704 201.9792 , 225.2704 196.9792 , 234.2704 200.9792 , 225.2704 ">
</polygon><polygon 
stroke="rgb(187,130,210)"
fill="rgb(187,130,210)"
stroke-width="80"
stroke-linejoin="round" 
opacity="1"
points="441.842225 , 125.153075 449.842225 , 175.153075 426.842225 , 146.153075 426.842225 , 162.153075 420.842225 , 119.153075 400.842225 , 161.153075 386.842225 , 175.153075 377.842225 , 121.153075 366.842225 , 156.153075 370.842225 , 170.153075 377.842225 , 148.153075 371.842225 , 149.153075 344.842225 , 149.153075 347.842225 , 164.153075 349.842225 , 128.153075 331.842225 , 166.153075 305.842225 , 129.153075 297.842225 , 139.153075 324.842225 , 149.153075 302.842225 , 133.153075 322.842225 , 165.153075 ">
</polygon><polygon 
stroke="rgb(177,120,200)"
fill="rgb(177,120,200)"
stroke-width="60"
stroke-linejoin="round" 
opacity="1"
points="433.842225 , 154.153075 441.842225 , 148.153075 432.842225 , 137.153075 435.842225 , 141.153075 443.842225 , 139.153075 438.842225 , 142.153075 439.842225 , 148.153075 430.842225 , 140.153075 433.842225 , 153.153075 423.842225 , 155.153075 431.842225 , 153.153075 439.842225 , 155.153075 435.842225 , 142.153075 430.842225 , 152.153075 440.842225 , 142.153075 442.842225 , 139.153075 438.842225 , 157.153075 441.842225 , 155.153075 432.842225 , 141.153075 422.842225 , 149.153075 430.842225 , 138.153075 431.842225 , 156.153075 436.842225 , 142.153075 436.842225 , 141.153075 437.842225 , 142.153075 427.842225 , 139.153075 418.842225 , 152.153075 ">
</polygon><polygon 
stroke="rgb(167,110,190)"
fill="rgb(167,110,190)"
stroke-width="80"
stroke-linejoin="round" 
opacity="1"
points="206.125525 , 212.922175 179.125525 , 232.922175 186.125525 , 245.922175 210.125525 , 248.922175 207.125525 , 248.922175 203.125525 , 216.922175 178.125525 , 224.922175 206.125525 , 245.922175 195.125525 , 253.922175 181.125525 , 208.922175 206.125525 , 252.922175 225.125525 , 241.922175 219.125525 , 231.922175 234.125525 , 236.922175 237.125525 , 232.922175 225.125525 , 253.922175 247.125525 , 218.922175 265.125525 , 210.922175 252.125525 , 237.922175 227.125525 , 200.922175 240.125525 , 223.922175 211.125525 , 204.922175 218.125525 , 217.922175 209.125525 , 239.922175 207.125525 , 226.922175 ">
</polygon><polygon 
stroke="rgb(187,130,210)"
fill="rgb(187,130,210)"
stroke-width="60"
stroke-linejoin="round" 
opacity="1"
points="187.125525 , 219.922175 179.125525 , 215.922175 189.125525 , 227.922175 180.125525 , 221.922175 188.125525 , 217.922175 181.125525 , 234.922175 190.125525 , 219.922175 188.125525 , 230.922175 183.125525 , 229.922175 192.125525 , 228.922175 189.125525 , 224.922175 195.125525 , 217.922175 204.125525 , 214.922175 205.125525 , 228.922175 197.125525 , 215.922175 202.125525 , 222.922175 195.125525 , 234.922175 186.125525 , 221.922175 193.125525 , 222.922175 197.125525 , 214.922175 198.125525 , 217.922175 199.125525 , 232.922175 194.125525 , 216.922175 193.125525 , 226.922175 198.125525 , 225.922175 189.125525 , 219.922175 192.125525 , 221.922175 200.125525 , 231.922175 ">
</polygon><path d="M 240 480 c 77.6,-185.06666666667 51.733333333333,-138.8 97,-347 
C 331.73333333333,367.2 357.6,320.93333333333 281,480
 " stroke="rgb(181,62,142)" stroke-linejoin="arcs"  stroke-width="5" fill="rgb(181,62,142)"/><path d="M 305.6496 291.7872 c 94.266666666667,-24.333333333333 101,-38.933333333333 101,-73 
C 416.7496,261.97886666667 410.01626666667,276.57886666667 303.193075,303.750025
 " stroke="rgb(181,62,142)" stroke-linejoin="arcs"  stroke-width="5" fill="rgb(181,62,142)"/><path d="M 305.6496 291.7872 c 68.266666666667,-13.866666666667 59.733333333333,-13.866666666667 128,-26 
C 378.18293333333,281.17053333333 386.71626666667,281.17053333333 303.193075,303.750025
 " stroke="rgb(181,62,142)" stroke-linejoin="arcs"  stroke-width="5" fill="rgb(181,62,142)"/><path d="M 303.193075 303.750025 c 8.8666666666667,-6.5333333333333 10.133333333333,-22.866666666667 19,-49 
C 315.22640833333,287.00835833333 313.95974166667,303.34169166667 300.625,315.175
 " stroke="rgb(181,62,142)" stroke-linejoin="arcs"  stroke-width="5" fill="rgb(181,62,142)"/><path d="M 303.193075 303.750025 c -2.5333333333333,-8.9333333333333 -30.4,-35.733333333333 -38,-67 
C 276.593075,276.39169166667 304.45974166667,303.19169166667 300.625,315.175
 " stroke="rgb(181,62,142)" stroke-linejoin="arcs"  stroke-width="5" fill="rgb(181,62,142)"/><path d="M 305.6496 291.7872 c 32.266666666667,-15.2 48.4,-10.133333333333 121,-38 
C 366.1496,286.40386666667 350.01626666667,281.3372 303.193075,303.750025
 " stroke="rgb(181,62,142)" stroke-linejoin="arcs"  stroke-width="5" fill="rgb(181,62,142)"/><path d="M 308.125525 278.922175 c -107,-23.6 -35.666666666667,-19.666666666667 -107,-59 
C 283.15885833333,266.63050833333 211.825525,262.697175 305.6496,291.7872
 " stroke="rgb(181,62,142)" stroke-linejoin="arcs"  stroke-width="5" fill="rgb(181,62,142)"/><path d="M 316.9792 231.2704 c -45.333333333333,-1.8666666666667 -73.666666666667,-1.3333333333333 -85,-4 
C 251.81253333333,230.43706666667 280.14586666667,229.90373333333 313.659375,249.028125
 " stroke="rgb(181,62,142)" stroke-linejoin="arcs"  stroke-width="5" fill="rgb(181,62,142)"/><path d="M 320.842225 211.153075 c 65.6,-12.8 82,-25.6 123,-64 
C 415.142225,193.553075 398.742225,206.353075 316.9792,231.2704
 " stroke="rgb(181,62,142)" stroke-linejoin="arcs"  stroke-width="5" fill="rgb(181,62,142)"/><path d="M 308.125525 278.922175 c -69.6,-7.2 -54.133333333333,-7.2 -116,-54 
C 265.59219166667,278.472175 250.125525,278.472175 305.6496,291.7872
 " stroke="rgb(181,62,142)" stroke-linejoin="arcs"  stroke-width="5" fill="rgb(181,62,142)"/><polygon 
stroke="rgb(187,130,210)"
fill="rgb(187,130,210)"
stroke-width="60"
stroke-linejoin="round" 
opacity="1"
points="340 , 137 345 , 129 351 , 124 360 , 135 368 , 123 370 , 137 374 , 128 376 , 124 373 , 132 372 , 126 380 , 134 377 , 134 379 , 125 ">
</polygon><polygon 
stroke="rgb(167,110,190)"
fill="rgb(167,110,190)"
stroke-width="80"
stroke-linejoin="round" 
opacity="1"
points="404.6496 , 238.7872 416.6496 , 244.7872 441.6496 , 216.7872 428.6496 , 229.7872 430.6496 , 246.7872 406.6496 , 206.7872 387.6496 , 206.7872 406.6496 , 192.7872 433.6496 , 210.7872 438.6496 , 225.7872 442.6496 , 229.7872 437.6496 , 222.7872 445.6496 , 195.7872 439.6496 , 230.7872 435.6496 , 195.7872 406.6496 , 229.7872 435.6496 , 206.7872 448.6496 , 209.7872 448.6496 , 201.7872 434.6496 , 237.7872 436.6496 , 204.7872 436.6496 , 223.7872 445.6496 , 200.7872 ">
</polygon><polygon 
stroke="rgb(187,130,210)"
fill="rgb(187,130,210)"
stroke-width="80"
stroke-linejoin="round" 
opacity="1"
points="397.6496 , 243.7872 375.6496 , 231.7872 373.6496 , 264.7872 385.6496 , 236.7872 368.6496 , 234.7872 356.6496 , 245.7872 334.6496 , 277.7872 359.6496 , 265.7872 340.6496 , 249.7872 316.6496 , 252.7872 286.6496 , 273.7872 280.6496 , 274.7872 263.6496 , 231.7872 240.6496 , 241.7872 245.6496 , 258.7872 269.6496 , 249.7872 264.6496 , 233.7872 252.6496 , 230.7872 246.6496 , 259.7872 240.6496 , 240.7872 211.6496 , 264.7872 236.6496 , 239.7872 208.6496 , 276.7872 214.6496 , 276.7872 190.6496 , 272.7872 ">
</polygon><polygon 
stroke="rgb(177,120,200)"
fill="rgb(177,120,200)"
stroke-width="70"
stroke-linejoin="round" 
opacity="1"
points="428.6496 , 240.7872 443.6496 , 234.7872 443.6496 , 239.7872 428.6496 , 272.7872 431.6496 , 237.7872 439.6496 , 238.7872 441.6496 , 259.7872 427.6496 , 246.7872 418.6496 , 266.7872 417.6496 , 238.7872 421.6496 , 245.7872 404.6496 , 267.7872 402.6496 , 261.7872 402.6496 , 245.7872 385.6496 , 244.7872 376.6496 , 268.7872 395.6496 , 242.7872 404.6496 , 249.7872 391.6496 , 268.7872 372.6496 , 247.7872 354.6496 , 263.7872 347.6496 , 254.7872 351.6496 , 243.7872 369.6496 , 251.7872 388.6496 , 254.7872 403.6496 , 262.7872 ">
</polygon><polygon 
stroke="rgb(187,130,210)"
fill="rgb(187,130,210)"
stroke-width="70"
stroke-linejoin="round" 
opacity="1"
points="431.842225 , 144.153075 445.842225 , 154.153075 433.842225 , 154.153075 447.842225 , 167.153075 446.842225 , 139.153075 435.842225 , 147.153075 442.842225 , 142.153075 446.842225 , 144.153075 429.842225 , 146.153075 414.842225 , 167.153075 395.842225 , 164.153075 379.842225 , 158.153075 394.842225 , 159.153075 ">
</polygon><polygon 
stroke="rgb(177,120,200)"
fill="rgb(177,120,200)"
stroke-width="70"
stroke-linejoin="round" 
opacity="1"
points="180.125525 , 231.922175 183.125525 , 210.922175 189.125525 , 237.922175 200.125525 , 243.922175 185.125525 , 216.922175 203.125525 , 211.922175 203.125525 , 222.922175 196.125525 , 244.922175 200.125525 , 208.922175 218.125525 , 238.922175 224.125525 , 240.922175 220.125525 , 214.922175 212.125525 , 226.922175 217.125525 , 242.922175 232.125525 , 210.922175 223.125525 , 207.922175 239.125525 , 230.922175 225.125525 , 222.922175 244.125525 , 237.922175 241.125525 , 217.922175 ">
</polygon></svg>