<?xml version="1.0" encoding="iso-8859-1"?>
<svg version="1.1" id="Capa_1" xmlns="http://www.w3.org/2000/svg" xmlns:xlink="http://www.w3.org/1999/xlink" x="0px" y="0px"
viewBox="0 0 500 500" xml:space="preserve"><defs></defs><polygon 
stroke="rgb(132,85,85)"
fill="rgb(132,85,85)"
stroke-width="80"
stroke-linejoin="round" 
opacity="1"
points="239 , 167 238 , 170 234 , 178 234 , 134 211 , 142 197 , 150 213 , 129 221 , 176 233 , 165 251 , 132 230 , 168 228 , 124 211 , 162 235 , 157 224 , 175 249 , 159 232 , 122 245 , 174 239 , 136 264 , 175 262 , 143 240 , 150 220 , 149 205 , 158 229 , 130 218 , 134 200 , 171 174 , 142 202 , 167 216 , 172 ">
</polygon><polygon 
stroke="rgb(132,85,85)"
fill="rgb(132,85,85)"
stroke-width="70"
stroke-linejoin="round" 
opacity="1"
points="232 , 156 234 , 162 230 , 167 210 , 166 214 , 164 200 , 146 190 , 131 200 , 155 194 , 147 181 , 143 162 , 131 154 , 141 137 , 156 146 , 167 157 , 166 149 , 166 142 , 155 151 , 147 157 , 155 137 , 151 157 , 146 ">
</polygon><polygon 
stroke="rgb(122,75,75)"
fill="rgb(122,75,75)"
stroke-width="80"
stroke-linejoin="round" 
opacity="1"
points="317.7714 , 255.3904 288.7714 , 278.3904 295.7714 , 278.3904 304.7714 , 294.3904 325.7714 , 235.3904 302.7714 , 257.3904 321.7714 , 268.3904 319.7714 , 280.3904 346.7714 , 238.3904 351.7714 , 252.3904 357.7714 , 266.3904 374.7714 , 288.3904 403.7714 , 236.3904 433.7714 , 256.3904 441.7714 , 260.3904 417.7714 , 288.3904 399.7714 , 275.3904 396.7714 , 289.3904 422.7714 , 283.3904 415.7714 , 251.3904 432.7714 , 284.3904 404.7714 , 291.3904 408.7714 , 276.3904 ">
</polygon><polygon 
stroke="rgb(122,75,75)"
fill="rgb(122,75,75)"
stroke-width="70"
stroke-linejoin="round" 
opacity="1"
points="305.7714 , 270.3904 311.7714 , 269.3904 295.7714 , 282.3904 290.7714 , 280.3904 282.7714 , 255.3904 285.7714 , 253.3904 280.7714 , 245.3904 288.7714 , 260.3904 280.7714 , 251.3904 266.7714 , 268.3904 272.7714 , 284.3904 263.7714 , 284.3904 253.7714 , 251.3904 237.7714 , 284.3904 246.7714 , 244.3904 ">
</polygon><polygon 
stroke="rgb(142,95,95)"
fill="rgb(142,95,95)"
stroke-width="60"
stroke-linejoin="round" 
opacity="1"
points="303.7714 , 259.3904 295.7714 , 271.3904 295.7714 , 263.3904 291.7714 , 273.3904 289.7714 , 260.3904 294.7714 , 261.3904 290.7714 , 274.3904 295.7714 , 269.3904 289.7714 , 264.3904 293.7714 , 272.3904 297.7714 , 263.3904 298.7714 , 264.3904 301.7714 , 272.3904 302.7714 , 273.3904 296.7714 , 268.3904 306.7714 , 274.3904 306.7714 , 265.3904 299.7714 , 273.3904 303.7714 , 254.3904 304.7714 , 264.3904 309.7714 , 257.3904 319.7714 , 260.3904 317.7714 , 274.3904 324.7714 , 255.3904 334.7714 , 271.3904 ">
</polygon><polygon 
stroke="rgb(132,85,85)"
fill="rgb(132,85,85)"
stroke-width="60"
stroke-linejoin="round" 
opacity="1"
points="239.9342 , 137.2192 234.9342 , 140.2192 234.9342 , 129.2192 243.9342 , 136.2192 253.9342 , 127.2192 256.9342 , 120.2192 255.9342 , 128.2192 265.9342 , 126.2192 260.9342 , 130.2192 250.9342 , 131.2192 248.9342 , 121.2192 254.9342 , 132.2192 ">
</polygon><polygon 
stroke="rgb(122,75,75)"
fill="rgb(122,75,75)"
stroke-width="80"
stroke-linejoin="round" 
opacity="1"
points="256.575 , 316.4 242.575 , 344.4 256.575 , 328.4 286.575 , 288.4 294.575 , 311.4 292.575 , 327.4 274.575 , 307.4 276.575 , 323.4 246.575 , 319.4 219.575 , 309.4 194.575 , 332.4 211.575 , 304.4 236.575 , 340.4 247.575 , 307.4 253.575 , 289.4 248.575 , 310.4 252.575 , 323.4 274.575 , 305.4 274.575 , 334.4 302.575 , 288.4 304.575 , 298.4 308.575 , 333.4 291.575 , 317.4 ">
</polygon><polygon 
stroke="rgb(122,75,75)"
fill="rgb(122,75,75)"
stroke-width="70"
stroke-linejoin="round" 
opacity="1"
points="284.575 , 314.4 270.575 , 306.4 276.575 , 325.4 285.575 , 299.4 298.575 , 330.4 317.575 , 330.4 323.575 , 312.4 326.575 , 328.4 344.575 , 313.4 360.575 , 334.4 352.575 , 304.4 364.575 , 310.4 354.575 , 312.4 356.575 , 321.4 344.575 , 307.4 337.575 , 332.4 342.575 , 310.4 350.575 , 307.4 338.575 , 311.4 349.575 , 302.4 351.575 , 302.4 357.575 , 304.4 375.575 , 313.4 381.575 , 324.4 386.575 , 303.4 368.575 , 322.4 369.575 , 304.4 350.575 , 328.4 340.575 , 297.4 359.575 , 296.4 ">
</polygon><polygon 
stroke="rgb(132,85,85)"
fill="rgb(132,85,85)"
stroke-width="60"
stroke-linejoin="round" 
opacity="1"
points="259.575 , 311.4 258.575 , 324.4 262.575 , 311.4 263.575 , 322.4 269.575 , 309.4 276.575 , 311.4 286.575 , 323.4 283.575 , 307.4 292.575 , 305.4 292.575 , 322.4 296.575 , 309.4 296.575 , 317.4 286.575 , 311.4 285.575 , 320.4 295.575 , 305.4 295.575 , 310.4 285.575 , 319.4 277.575 , 311.4 276.575 , 314.4 281.575 , 306.4 279.575 , 316.4 273.575 , 320.4 266.575 , 312.4 270.575 , 316.4 ">
</polygon><polygon 
stroke="rgb(142,95,95)"
fill="rgb(142,95,95)"
stroke-width="80"
stroke-linejoin="round" 
opacity="1"
points="281.8576 , 263.4896 282.8576 , 261.4896 304.8576 , 275.4896 328.8576 , 238.4896 339.8576 , 277.4896 312.8576 , 237.4896 342.8576 , 273.4896 337.8576 , 269.4896 344.8576 , 258.4896 321.8576 , 243.4896 348.8576 , 246.4896 319.8576 , 253.4896 347.8576 , 227.4896 367.8576 , 254.4896 341.8576 , 270.4896 361.8576 , 232.4896 341.8576 , 270.4896 337.8576 , 255.4896 323.8576 , 272.4896 339.8576 , 275.4896 325.8576 , 256.4896 307.8576 , 231.4896 326.8576 , 235.4896 322.8576 , 243.4896 318.8576 , 260.4896 331.8576 , 260.4896 361.8576 , 284.4896 ">
</polygon><polygon 
stroke="rgb(122,75,75)"
fill="rgb(122,75,75)"
stroke-width="80"
stroke-linejoin="round" 
opacity="1"
points="142.575 , 352.4 159.575 , 317.4 148.575 , 323.4 119.575 , 316.4 93.575 , 347.4 79.575 , 346.4 84.575 , 320.4 74.575 , 346.4 95.575 , 317.4 70.575 , 362.4 ">
</polygon><polygon 
stroke="rgb(132,85,85)"
fill="rgb(132,85,85)"
stroke-width="70"
stroke-linejoin="round" 
opacity="1"
points="116.575 , 339.4 102.575 , 364.4 110.575 , 346.4 105.575 , 357.4 90.575 , 350.4 109.575 , 366.4 94.575 , 350.4 106.575 , 333.4 115.575 , 340.4 122.575 , 339.4 115.575 , 345.4 105.575 , 329.4 108.575 , 332.4 120.575 , 352.4 139.575 , 338.4 130.575 , 335.4 ">
</polygon><polygon 
stroke="rgb(142,95,95)"
fill="rgb(142,95,95)"
stroke-width="80"
stroke-linejoin="round" 
opacity="1"
points="159.626725 , 300.8781 129.626725 , 338.8781 124.626725 , 302.8781 107.626725 , 308.8781 118.626725 , 340.8781 123.626725 , 298.8781 118.626725 , 316.8781 144.626725 , 288.8781 152.626725 , 325.8781 132.626725 , 312.8781 145.626725 , 286.8781 150.626725 , 335.8781 160.626725 , 296.8781 136.626725 , 313.8781 130.626725 , 335.8781 134.626725 , 310.8781 128.626725 , 301.8781 111.626725 , 328.8781 105.626725 , 291.8781 91.626725 , 296.8781 119.626725 , 291.8781 123.626725 , 335.8781 137.626725 , 315.8781 ">
</polygon><polygon 
stroke="rgb(122,75,75)"
fill="rgb(122,75,75)"
stroke-width="70"
stroke-linejoin="round" 
opacity="1"
points="183.626725 , 297.8781 194.626725 , 322.8781 194.626725 , 309.8781 203.626725 , 296.8781 197.626725 , 306.8781 195.626725 , 302.8781 188.626725 , 317.8781 190.626725 , 319.8781 175.626725 , 330.8781 167.626725 , 310.8781 184.626725 , 316.8781 179.626725 , 328.8781 175.626725 , 302.8781 195.626725 , 322.8781 179.626725 , 322.8781 172.626725 , 294.8781 190.626725 , 306.8781 175.626725 , 318.8781 158.626725 , 332.8781 166.626725 , 317.8781 184.626725 , 328.8781 172.626725 , 332.8781 173.626725 , 299.8781 157.626725 , 294.8781 176.626725 , 332.8781 157.626725 , 303.8781 137.626725 , 303.8781 147.626725 , 314.8781 161.626725 , 317.8781 178.626725 , 322.8781 ">
</polygon><polygon 
stroke="rgb(142,95,95)"
fill="rgb(142,95,95)"
stroke-width="60"
stroke-linejoin="round" 
opacity="1"
points="169.626725 , 321.8781 177.626725 , 320.8781 174.626725 , 304.8781 181.626725 , 312.8781 181.626725 , 302.8781 182.626725 , 307.8781 184.626725 , 307.8781 191.626725 , 313.8781 194.626725 , 306.8781 187.626725 , 306.8781 191.626725 , 304.8781 182.626725 , 303.8781 180.626725 , 306.8781 183.626725 , 309.8781 183.626725 , 307.8781 179.626725 , 303.8781 171.626725 , 314.8781 167.626725 , 320.8781 171.626725 , 320.8781 172.626725 , 313.8781 180.626725 , 311.8781 170.626725 , 313.8781 170.626725 , 309.8781 180.626725 , 317.8781 172.626725 , 322.8781 165.626725 , 313.8781 174.626725 , 306.8781 183.626725 , 318.8781 186.626725 , 307.8781 180.626725 , 305.8781 ">
</polygon><polygon 
stroke="rgb(132,85,85)"
fill="rgb(132,85,85)"
stroke-width="80"
stroke-linejoin="round" 
opacity="1"
points="280.897175 , 171.8743 269.897175 , 180.8743 267.897175 , 160.8743 275.897175 , 187.8743 290.897175 , 161.8743 305.897175 , 196.8743 334.897175 , 167.8743 357.897175 , 180.8743 350.897175 , 210.8743 327.897175 , 198.8743 348.897175 , 164.8743 323.897175 , 213.8743 299.897175 , 165.8743 283.897175 , 205.8743 280.897175 , 207.8743 253.897175 , 159.8743 252.897175 , 180.8743 ">
</polygon><polygon 
stroke="rgb(132,85,85)"
fill="rgb(132,85,85)"
stroke-width="70"
stroke-linejoin="round" 
opacity="1"
points="296.897175 , 174.8743 291.897175 , 204.8743 288.897175 , 201.8743 294.897175 , 177.8743 275.897175 , 202.8743 275.897175 , 202.8743 280.897175 , 168.8743 276.897175 , 182.8743 276.897175 , 171.8743 266.897175 , 196.8743 273.897175 , 195.8743 284.897175 , 198.8743 274.897175 , 173.8743 291.897175 , 182.8743 291.897175 , 200.8743 282.897175 , 172.8743 292.897175 , 204.8743 279.897175 , 188.8743 279.897175 , 188.8743 273.897175 , 167.8743 274.897175 , 190.8743 279.897175 , 190.8743 267.897175 , 198.8743 259.897175 , 185.8743 245.897175 , 183.8743 231.897175 , 172.8743 ">
</polygon><polygon 
stroke="rgb(142,95,95)"
fill="rgb(142,95,95)"
stroke-width="60"
stroke-linejoin="round" 
opacity="1"
points="304.897175 , 186.8743 313.897175 , 190.8743 316.897175 , 196.8743 309.897175 , 197.8743 315.897175 , 179.8743 318.897175 , 178.8743 321.897175 , 190.8743 314.897175 , 181.8743 321.897175 , 184.8743 329.897175 , 182.8743 326.897175 , 189.8743 335.897175 , 197.8743 337.897175 , 184.8743 334.897175 , 185.8743 336.897175 , 192.8743 340.897175 , 177.8743 348.897175 , 178.8743 354.897175 , 188.8743 350.897175 , 196.8743 358.897175 , 194.8743 352.897175 , 194.8743 361.897175 , 182.8743 351.897175 , 179.8743 342.897175 , 178.8743 333.897175 , 187.8743 ">
</polygon><polygon 
stroke="rgb(122,75,75)"
fill="rgb(122,75,75)"
stroke-width="70"
stroke-linejoin="round" 
opacity="1"
points="215.575 , 296.4 228.575 , 308.4 231.575 , 276.4 220.575 , 303.4 232.575 , 289.4 226.575 , 300.4 238.575 , 285.4 246.575 , 271.4 238.575 , 298.4 252.575 , 274.4 247.575 , 268.4 237.575 , 269.4 231.575 , 278.4 223.575 , 269.4 241.575 , 272.4 253.575 , 290.4 252.575 , 281.4 248.575 , 284.4 229.575 , 300.4 209.575 , 291.4 196.575 , 296.4 214.575 , 271.4 222.575 , 278.4 219.575 , 276.4 ">
</polygon><polygon 
stroke="rgb(132,85,85)"
fill="rgb(132,85,85)"
stroke-width="60"
stroke-linejoin="round" 
opacity="1"
points="216.575 , 288.4 218.575 , 288.4 221.575 , 292.4 216.575 , 298.4 210.575 , 286.4 218.575 , 279.4 218.575 , 298.4 222.575 , 287.4 218.575 , 284.4 223.575 , 278.4 230.575 , 295.4 235.575 , 298.4 236.575 , 294.4 244.575 , 289.4 235.575 , 284.4 229.575 , 297.4 219.575 , 282.4 214.575 , 281.4 208.575 , 292.4 217.575 , 290.4 209.575 , 296.4 201.575 , 290.4 194.575 , 292.4 ">
</polygon><polygon 
stroke="rgb(122,75,75)"
fill="rgb(122,75,75)"
stroke-width="60"
stroke-linejoin="round" 
opacity="1"
points="358.575 , 342.4 352.575 , 333.4 355.575 , 346.4 362.575 , 333.4 366.575 , 337.4 367.575 , 336.4 358.575 , 334.4 354.575 , 343.4 353.575 , 336.4 349.575 , 337.4 341.575 , 343.4 338.575 , 338.4 348.575 , 348.4 350.575 , 349.4 348.575 , 346.4 340.575 , 336.4 332.575 , 347.4 342.575 , 343.4 349.575 , 335.4 346.575 , 347.4 342.575 , 350.4 336.575 , 336.4 337.575 , 351.4 338.575 , 336.4 329.575 , 332.4 321.575 , 344.4 314.575 , 339.4 316.575 , 334.4 321.575 , 336.4 ">
</polygon><path d="M 240 480 c 0.4,-109.66666666667 0.8,-131.6 1,-329 
C 293.8,372.4 293.4,394.33333333333 312,480
 " stroke="rgb(148,174,72)" stroke-linejoin="arcs"  stroke-width="5" fill="rgb(148,174,72)"/><path d="M 240.7714 288.3904 c 40.666666666667,-8 52.866666666667,-12.8 61,-24 
C 299.73806666667,278.5904 287.53806666667,283.3904 240.725075,305.0707
 " stroke="rgb(148,174,72)" stroke-linejoin="arcs"  stroke-width="5" fill="rgb(148,174,72)"/><path d="M 240.9342 205.2192 c 0.33333333333333,-20 0.66666666666667,-15 5,-75 
C 242.10086666667,199.5942 241.76753333333,194.5942 240.897175,228.8743
 " stroke="rgb(148,174,72)" stroke-linejoin="arcs"  stroke-width="5" fill="rgb(148,174,72)"/><path d="M 240.575 348.4 c 10.8,-13.2 9,-6.6 27,-33 
C 252.275,345.925 254.075,339.325 240.521775,361.2639
 " stroke="rgb(148,174,72)" stroke-linejoin="arcs"  stroke-width="5" fill="rgb(148,174,72)"/><path d="M 240.8576 250.4896 c 3.3333333333333,1.8666666666667 40,3.7333333333333 50,7 
C 285.8576,255.09793333333 249.19093333333,253.23126666667 240.815625,270.2625
 " stroke="rgb(148,174,72)" stroke-linejoin="arcs"  stroke-width="5" fill="rgb(148,174,72)"/><path d="M 240.575 348.4 c -30.666666666667,-0.66666666666667 -76.666666666667,-0.66666666666667 -115,-2 
C 175.40833333333,347.98333333333 221.40833333333,347.98333333333 240.521775,361.2639
 " stroke="rgb(148,174,72)" stroke-linejoin="arcs"  stroke-width="5" fill="rgb(148,174,72)"/><path d="M 240.626725 334.8781 c -63.466666666667,-8.8 -63.466666666667,-10.266666666667 -68,-22 
C 183.96005833333,327.36143333333 183.96005833333,328.8281 240.575,348.4
 " stroke="rgb(148,174,72)" stroke-linejoin="arcs"  stroke-width="5" fill="rgb(148,174,72)"/><path d="M 240.897175 228.8743 c 16.266666666667,-5.4666666666667 32.533333333333,-16.4 61,-41 
C 279.53050833333,217.5993 263.26384166667,228.53263333333 240.8576,250.4896
 " stroke="rgb(148,174,72)" stroke-linejoin="arcs"  stroke-width="5" fill="rgb(148,174,72)"/><path d="M 240.575 348.4 c -17.333333333333,-32 -8,-28 -20,-60 
C 234.575,327.9 225.24166666667,323.9 240.521775,361.2639
 " stroke="rgb(148,174,72)" stroke-linejoin="arcs"  stroke-width="5" fill="rgb(148,174,72)"/><path d="M 240.575 348.4 c 56.466666666667,-2 16.133333333333,-1.2 121,-6 
C 268.80833333333,347.95 309.14166666667,347.15 240.521775,361.2639
 " stroke="rgb(148,174,72)" stroke-linejoin="arcs"  stroke-width="5" fill="rgb(148,174,72)"/><polygon 
stroke="rgb(122,75,75)"
fill="rgb(122,75,75)"
stroke-width="60"
stroke-linejoin="round" 
opacity="1"
points="250 , 143 258 , 141 267 , 151 264 , 161 264 , 144 260 , 150 270 , 151 269 , 158 278 , 151 288 , 154 279 , 152 288 , 146 286 , 153 291 , 156 301 , 159 311 , 146 305 , 146 298 , 149 296 , 159 294 , 156 ">
</polygon><polygon 
stroke="rgb(142,95,95)"
fill="rgb(142,95,95)"
stroke-width="80"
stroke-linejoin="round" 
opacity="1"
points="236.9342 , 107.2192 223.9342 , 113.2192 238.9342 , 132.2192 266.9342 , 101.2192 243.9342 , 128.2192 234.9342 , 149.2192 261.9342 , 121.2192 261.9342 , 119.2192 260.9342 , 122.2192 235.9342 , 158.2192 252.9342 , 102.2192 263.9342 , 142.2192 233.9342 , 118.2192 252.9342 , 124.2192 241.9342 , 103.2192 ">
</polygon><polygon 
stroke="rgb(142,95,95)"
fill="rgb(142,95,95)"
stroke-width="70"
stroke-linejoin="round" 
opacity="1"
points="234.9342 , 113.2192 238.9342 , 135.2192 248.9342 , 137.2192 253.9342 , 124.2192 245.9342 , 149.2192 263.9342 , 139.2192 252.9342 , 140.2192 271.9342 , 137.2192 265.9342 , 149.2192 272.9342 , 113.2192 290.9342 , 112.2192 302.9342 , 134.2192 292.9342 , 120.2192 290.9342 , 147.2192 285.9342 , 134.2192 279.9342 , 123.2192 288.9342 , 131.2192 282.9342 , 136.2192 298.9342 , 119.2192 ">
</polygon><polygon 
stroke="rgb(142,95,95)"
fill="rgb(142,95,95)"
stroke-width="70"
stroke-linejoin="round" 
opacity="1"
points="278.8576 , 261.4896 277.8576 , 246.4896 278.8576 , 267.4896 296.8576 , 274.4896 278.8576 , 244.4896 272.8576 , 250.4896 266.8576 , 273.4896 255.8576 , 247.4896 260.8576 , 266.4896 245.8576 , 240.4896 261.8576 , 255.4896 261.8576 , 269.4896 261.8576 , 243.4896 241.8576 , 260.4896 ">
</polygon><polygon 
stroke="rgb(122,75,75)"
fill="rgb(122,75,75)"
stroke-width="60"
stroke-linejoin="round" 
opacity="1"
points="293.8576 , 247.4896 291.8576 , 263.4896 281.8576 , 256.4896 289.8576 , 259.4896 296.8576 , 266.4896 304.8576 , 262.4896 296.8576 , 250.4896 286.8576 , 257.4896 276.8576 , 263.4896 277.8576 , 267.4896 276.8576 , 260.4896 270.8576 , 249.4896 264.8576 , 264.4896 272.8576 , 267.4896 273.8576 , 253.4896 274.8576 , 267.4896 272.8576 , 248.4896 273.8576 , 255.4896 271.8576 , 249.4896 266.8576 , 250.4896 263.8576 , 248.4896 254.8576 , 248.4896 248.8576 , 264.4896 251.8576 , 265.4896 246.8576 , 259.4896 250.8576 , 253.4896 ">
</polygon><polygon 
stroke="rgb(142,95,95)"
fill="rgb(142,95,95)"
stroke-width="60"
stroke-linejoin="round" 
opacity="1"
points="128.575 , 342.4 120.575 , 337.4 119.575 , 339.4 128.575 , 348.4 122.575 , 342.4 130.575 , 345.4 126.575 , 349.4 119.575 , 338.4 110.575 , 352.4 120.575 , 353.4 128.575 , 343.4 135.575 , 351.4 128.575 , 355.4 131.575 , 354.4 132.575 , 348.4 136.575 , 339.4 139.575 , 353.4 130.575 , 344.4 ">
</polygon><polygon 
stroke="rgb(132,85,85)"
fill="rgb(132,85,85)"
stroke-width="80"
stroke-linejoin="round" 
opacity="1"
points="229.575 , 274.4 219.575 , 300.4 206.575 , 304.4 194.575 , 299.4 167.575 , 283.4 175.575 , 316.4 187.575 , 291.4 175.575 , 260.4 172.575 , 301.4 145.575 , 283.4 169.575 , 285.4 175.575 , 313.4 203.575 , 287.4 185.575 , 315.4 204.575 , 312.4 177.575 , 317.4 161.575 , 267.4 176.575 , 258.4 169.575 , 290.4 177.575 , 264.4 182.575 , 264.4 205.575 , 303.4 211.575 , 271.4 207.575 , 293.4 ">
</polygon><polygon 
stroke="rgb(142,95,95)"
fill="rgb(142,95,95)"
stroke-width="80"
stroke-linejoin="round" 
opacity="1"
points="340.575 , 351.4 334.575 , 366.4 349.575 , 327.4 346.575 , 358.4 324.575 , 351.4 294.575 , 362.4 319.575 , 352.4 307.575 , 356.4 278.575 , 315.4 287.575 , 332.4 311.575 , 319.4 ">
</polygon><polygon 
stroke="rgb(132,85,85)"
fill="rgb(132,85,85)"
stroke-width="70"
stroke-linejoin="round" 
opacity="1"
points="353.575 , 341.4 369.575 , 340.4 382.575 , 349.4 366.575 , 360.4 356.575 , 324.4 363.575 , 331.4 344.575 , 348.4 343.575 , 353.4 346.575 , 339.4 326.575 , 348.4 317.575 , 341.4 331.575 , 347.4 333.575 , 347.4 316.575 , 338.4 317.575 , 327.4 327.575 , 331.4 325.575 , 358.4 323.575 , 328.4 317.575 , 346.4 316.575 , 331.4 302.575 , 355.4 284.575 , 358.4 265.575 , 330.4 270.575 , 360.4 260.575 , 353.4 271.575 , 342.4 ">
</polygon></svg>