<?xml version="1.0" encoding="iso-8859-1"?>
<svg version="1.1" id="Capa_1" xmlns="http://www.w3.org/2000/svg" xmlns:xlink="http://www.w3.org/1999/xlink" x="0px" y="0px"
viewBox="0 0 500 500" xml:space="preserve"><defs></defs><polygon 
stroke="rgb(188,163,58)"
fill="rgb(188,163,58)"
stroke-width="80"
stroke-linejoin="round" 
opacity="1"
points="266 , 190 252 , 147 260 , 178 250 , 162 276 , 165 289 , 162 285 , 140 275 , 157 260 , 177 238 , 177 219 , 131 195 , 134 203 , 136 185 , 150 164 , 150 183 , 147 169 , 163 167 , 182 182 , 143 178 , 134 191 , 189 190 , 136 213 , 146 237 , 137 266 , 183 264 , 132 287 , 172 ">
</polygon><polygon 
stroke="rgb(178,153,48)"
fill="rgb(178,153,48)"
stroke-width="70"
stroke-linejoin="round" 
opacity="1"
points="271 , 165 270 , 145 267 , 175 254 , 155 264 , 150 257 , 179 242 , 145 226 , 178 242 , 146 240 , 147 223 , 173 234 , 148 241 , 174 251 , 152 ">
</polygon><polygon 
stroke="rgb(178,153,48)"
fill="rgb(178,153,48)"
stroke-width="60"
stroke-linejoin="round" 
opacity="1"
points="257 , 159 253 , 157 259 , 159 265 , 153 263 , 159 263 , 151 273 , 171 283 , 167 281 , 169 287 , 171 294 , 164 297 , 159 291 , 163 301 , 157 296 , 167 302 , 169 298 , 169 292 , 158 298 , 160 288 , 154 279 , 151 269 , 166 ">
</polygon><polygon 
stroke="rgb(188,163,58)"
fill="rgb(188,163,58)"
stroke-width="80"
stroke-linejoin="round" 
opacity="1"
points="324.366 , 230.467775 325.366 , 217.467775 297.366 , 256.467775 306.366 , 252.467775 327.366 , 231.467775 337.366 , 231.467775 327.366 , 247.467775 339.366 , 209.467775 353.366 , 220.467775 339.366 , 249.467775 310.366 , 228.467775 323.366 , 246.467775 330.366 , 262.467775 301.366 , 209.467775 324.366 , 205.467775 319.366 , 255.467775 296.366 , 246.467775 319.366 , 217.467775 317.366 , 214.467775 337.366 , 206.467775 309.366 , 225.467775 333.366 , 209.467775 313.366 , 238.467775 334.366 , 230.467775 351.366 , 253.467775 324.366 , 217.467775 ">
</polygon><polygon 
stroke="rgb(198,173,68)"
fill="rgb(198,173,68)"
stroke-width="70"
stroke-linejoin="round" 
opacity="1"
points="306.366 , 233.467775 294.366 , 217.467775 295.366 , 231.467775 293.366 , 238.467775 308.366 , 221.467775 314.366 , 236.467775 298.366 , 248.467775 301.366 , 241.467775 299.366 , 215.467775 295.366 , 244.467775 309.366 , 215.467775 305.366 , 235.467775 301.366 , 227.467775 296.366 , 217.467775 306.366 , 245.467775 314.366 , 238.467775 306.366 , 239.467775 300.366 , 220.467775 305.366 , 243.467775 ">
</polygon><polygon 
stroke="rgb(178,153,48)"
fill="rgb(178,153,48)"
stroke-width="60"
stroke-linejoin="round" 
opacity="1"
points="324.366 , 232.467775 319.366 , 225.467775 314.366 , 226.467775 322.366 , 229.467775 320.366 , 240.467775 330.366 , 228.467775 332.366 , 229.467775 336.366 , 226.467775 334.366 , 238.467775 331.366 , 232.467775 333.366 , 244.467775 323.366 , 226.467775 330.366 , 230.467775 323.366 , 232.467775 323.366 , 231.467775 328.366 , 226.467775 328.366 , 232.467775 321.366 , 237.467775 311.366 , 230.467775 ">
</polygon><polygon 
stroke="rgb(178,153,48)"
fill="rgb(178,153,48)"
stroke-width="80"
stroke-linejoin="round" 
opacity="1"
points="269.048 , 172.5072 264.048 , 205.5072 264.048 , 200.5072 266.048 , 192.5072 288.048 , 205.5072 280.048 , 162.5072 273.048 , 158.5072 261.048 , 158.5072 264.048 , 186.5072 287.048 , 172.5072 296.048 , 163.5072 278.048 , 163.5072 259.048 , 155.5072 284.048 , 165.5072 276.048 , 207.5072 254.048 , 182.5072 244.048 , 159.5072 269.048 , 204.5072 281.048 , 173.5072 264.048 , 186.5072 239.048 , 154.5072 254.048 , 197.5072 240.048 , 190.5072 256.048 , 214.5072 255.048 , 154.5072 ">
</polygon><polygon 
stroke="rgb(188,163,58)"
fill="rgb(188,163,58)"
stroke-width="70"
stroke-linejoin="round" 
opacity="1"
points="253.048 , 181.5072 237.048 , 175.5072 228.048 , 176.5072 219.048 , 204.5072 209.048 , 168.5072 207.048 , 166.5072 223.048 , 188.5072 216.048 , 179.5072 204.048 , 197.5072 207.048 , 181.5072 201.048 , 177.5072 221.048 , 189.5072 215.048 , 189.5072 202.048 , 167.5072 214.048 , 202.5072 ">
</polygon><polygon 
stroke="rgb(188,163,58)"
fill="rgb(188,163,58)"
stroke-width="60"
stroke-linejoin="round" 
opacity="1"
points="278.048 , 180.5072 268.048 , 190.5072 264.048 , 188.5072 264.048 , 181.5072 257.048 , 185.5072 250.048 , 175.5072 244.048 , 179.5072 247.048 , 180.5072 253.048 , 185.5072 257.048 , 177.5072 265.048 , 187.5072 259.048 , 190.5072 252.048 , 193.5072 253.048 , 187.5072 252.048 , 187.5072 252.048 , 192.5072 242.048 , 191.5072 251.048 , 185.5072 249.048 , 192.5072 243.048 , 178.5072 242.048 , 183.5072 ">
</polygon><polygon 
stroke="rgb(178,153,48)"
fill="rgb(178,153,48)"
stroke-width="80"
stroke-linejoin="round" 
opacity="1"
points="301.366 , 266.467775 290.366 , 260.467775 293.366 , 237.467775 274.366 , 228.467775 284.366 , 262.467775 277.366 , 265.467775 256.366 , 230.467775 278.366 , 264.467775 280.366 , 266.467775 271.366 , 223.467775 280.366 , 274.467775 259.366 , 274.467775 275.366 , 267.467775 291.366 , 276.467775 286.366 , 231.467775 309.366 , 232.467775 297.366 , 270.467775 309.366 , 222.467775 ">
</polygon><polygon 
stroke="rgb(188,163,58)"
fill="rgb(188,163,58)"
stroke-width="70"
stroke-linejoin="round" 
opacity="1"
points="296.366 , 232.467775 302.366 , 234.467775 317.366 , 259.467775 297.366 , 233.467775 291.366 , 259.467775 295.366 , 246.467775 292.366 , 247.467775 294.366 , 259.467775 284.366 , 252.467775 289.366 , 262.467775 287.366 , 234.467775 300.366 , 260.467775 299.366 , 234.467775 284.366 , 266.467775 297.366 , 268.467775 284.366 , 257.467775 285.366 , 270.467775 304.366 , 241.467775 286.366 , 252.467775 271.366 , 268.467775 277.366 , 247.467775 286.366 , 245.467775 298.366 , 242.467775 314.366 , 269.467775 ">
</polygon><polygon 
stroke="rgb(188,163,58)"
fill="rgb(188,163,58)"
stroke-width="60"
stroke-linejoin="round" 
opacity="1"
points="303.366 , 255.467775 307.366 , 246.467775 307.366 , 246.467775 300.366 , 259.467775 305.366 , 256.467775 311.366 , 243.467775 306.366 , 246.467775 311.366 , 250.467775 303.366 , 253.467775 313.366 , 247.467775 304.366 , 260.467775 299.366 , 249.467775 307.366 , 249.467775 300.366 , 245.467775 296.366 , 260.467775 303.366 , 262.467775 307.366 , 242.467775 304.366 , 257.467775 299.366 , 253.467775 290.366 , 247.467775 290.366 , 252.467775 289.366 , 242.467775 296.366 , 244.467775 ">
</polygon><polygon 
stroke="rgb(188,163,58)"
fill="rgb(188,163,58)"
stroke-width="80"
stroke-linejoin="round" 
opacity="1"
points="371 , 317.375 351 , 302.375 341 , 297.375 318 , 288.375 300 , 280.375 304 , 290.375 283 , 322.375 311 , 287.375 326 , 293.375 304 , 293.375 327 , 311.375 336 , 285.375 312 , 329.375 336 , 280.375 331 , 337.375 311 , 290.375 285 , 323.375 263 , 304.375 255 , 328.375 262 , 289.375 238 , 322.375 252 , 308.375 ">
</polygon><polygon 
stroke="rgb(198,173,68)"
fill="rgb(198,173,68)"
stroke-width="70"
stroke-linejoin="round" 
opacity="1"
points="367 , 307.375 367 , 299.375 376 , 306.375 368 , 315.375 383 , 303.375 388 , 291.375 389 , 293.375 396 , 291.375 387 , 320.375 372 , 293.375 381 , 292.375 374 , 289.375 376 , 322.375 365 , 308.375 377 , 289.375 359 , 325.375 371 , 299.375 372 , 305.375 389 , 306.375 372 , 311.375 387 , 317.375 372 , 319.375 382 , 328.375 395 , 319.375 399 , 324.375 412 , 308.375 411 , 329.375 417 , 322.375 432 , 319.375 444 , 329.375 ">
</polygon><polygon 
stroke="rgb(188,163,58)"
fill="rgb(188,163,58)"
stroke-width="60"
stroke-linejoin="round" 
opacity="1"
points="381 , 304.375 383 , 317.375 391 , 305.375 388 , 309.375 398 , 311.375 399 , 313.375 393 , 310.375 389 , 310.375 386 , 316.375 396 , 303.375 400 , 307.375 394 , 299.375 392 , 299.375 394 , 313.375 393 , 319.375 390 , 303.375 399 , 316.375 ">
</polygon><polygon 
stroke="rgb(198,173,68)"
fill="rgb(198,173,68)"
stroke-width="80"
stroke-linejoin="round" 
opacity="1"
points="413.178 , 302.394825 426.178 , 251.394825 431.178 , 256.394825 441.178 , 278.394825 444.178 , 289.394825 414.178 , 284.394825 398.178 , 264.394825 404.178 , 289.394825 390.178 , 292.394825 410.178 , 250.394825 420.178 , 278.394825 406.178 , 281.394825 405.178 , 289.394825 387.178 , 304.394825 388.178 , 303.394825 383.178 , 247.394825 398.178 , 278.394825 389.178 , 287.394825 414.178 , 275.394825 390.178 , 291.394825 370.178 , 279.394825 374.178 , 253.394825 395.178 , 285.394825 386.178 , 287.394825 372.178 , 292.394825 371.178 , 298.394825 400.178 , 247.394825 428.178 , 246.394825 444.178 , 303.394825 ">
</polygon><polygon 
stroke="rgb(178,153,48)"
fill="rgb(178,153,48)"
stroke-width="70"
stroke-linejoin="round" 
opacity="1"
points="383.178 , 280.394825 400.178 , 262.394825 412.178 , 295.394825 425.178 , 278.394825 417.178 , 260.394825 437.178 , 292.394825 435.178 , 265.394825 424.178 , 269.394825 425.178 , 280.394825 428.178 , 284.394825 417.178 , 288.394825 425.178 , 293.394825 414.178 , 269.394825 409.178 , 270.394825 403.178 , 284.394825 384.178 , 258.394825 391.178 , 260.394825 400.178 , 286.394825 389.178 , 262.394825 401.178 , 286.394825 388.178 , 261.394825 400.178 , 268.394825 ">
</polygon><polygon 
stroke="rgb(188,163,58)"
fill="rgb(188,163,58)"
stroke-width="60"
stroke-linejoin="round" 
opacity="1"
points="391.178 , 279.394825 390.178 , 266.394825 381.178 , 271.394825 380.178 , 281.394825 371.178 , 274.394825 361.178 , 270.394825 354.178 , 278.394825 351.178 , 275.394825 352.178 , 269.394825 358.178 , 285.394825 359.178 , 280.394825 352.178 , 265.394825 356.178 , 280.394825 346.178 , 270.394825 353.178 , 278.394825 363.178 , 275.394825 371.178 , 281.394825 362.178 , 281.394825 ">
</polygon><polygon 
stroke="rgb(188,163,58)"
fill="rgb(188,163,58)"
stroke-width="80"
stroke-linejoin="round" 
opacity="1"
points="274.722 , 119.617425 295.722 , 145.617425 282.722 , 135.617425 297.722 , 126.617425 286.722 , 146.617425 265.722 , 112.617425 257.722 , 140.617425 278.722 , 122.617425 304.722 , 127.617425 295.722 , 158.617425 276.722 , 156.617425 299.722 , 152.617425 292.722 , 147.617425 310.722 , 128.617425 296.722 , 160.617425 310.722 , 142.617425 296.722 , 119.617425 291.722 , 139.617425 266.722 , 122.617425 288.722 , 105.617425 265.722 , 162.617425 272.722 , 113.617425 277.722 , 144.617425 295.722 , 152.617425 275.722 , 119.617425 258.722 , 110.617425 228.722 , 150.617425 ">
</polygon><polygon 
stroke="rgb(198,173,68)"
fill="rgb(198,173,68)"
stroke-width="70"
stroke-linejoin="round" 
opacity="1"
points="254.722 , 145.617425 256.722 , 124.617425 262.722 , 127.617425 248.722 , 122.617425 258.722 , 126.617425 242.722 , 150.617425 229.722 , 150.617425 214.722 , 128.617425 209.722 , 141.617425 225.722 , 133.617425 234.722 , 142.617425 252.722 , 135.617425 262.722 , 148.617425 246.722 , 138.617425 234.722 , 126.617425 223.722 , 141.617425 211.722 , 143.617425 200.722 , 126.617425 185.722 , 143.617425 181.722 , 128.617425 192.722 , 143.617425 184.722 , 148.617425 ">
</polygon><polygon 
stroke="rgb(188,163,58)"
fill="rgb(188,163,58)"
stroke-width="80"
stroke-linejoin="round" 
opacity="1"
points="290.352 , 242.2338 266.352 , 261.2338 277.352 , 270.2338 284.352 , 284.2338 255.352 , 271.2338 271.352 , 256.2338 282.352 , 264.2338 272.352 , 280.2338 263.352 , 261.2338 268.352 , 290.2338 262.352 , 242.2338 232.352 , 295.2338 249.352 , 295.2338 229.352 , 241.2338 227.352 , 281.2338 225.352 , 289.2338 212.352 , 283.2338 196.352 , 261.2338 173.352 , 296.2338 ">
</polygon><polygon 
stroke="rgb(178,153,48)"
fill="rgb(178,153,48)"
stroke-width="70"
stroke-linejoin="round" 
opacity="1"
points="284.352 , 263.2338 265.352 , 254.2338 246.352 , 260.2338 226.352 , 248.2338 224.352 , 255.2338 224.352 , 281.2338 212.352 , 260.2338 193.352 , 259.2338 205.352 , 267.2338 207.352 , 277.2338 227.352 , 251.2338 ">
</polygon><polygon 
stroke="rgb(178,153,48)"
fill="rgb(178,153,48)"
stroke-width="60"
stroke-linejoin="round" 
opacity="1"
points="278.352 , 260.2338 287.352 , 266.2338 289.352 , 270.2338 294.352 , 259.2338 287.352 , 271.2338 284.352 , 270.2338 284.352 , 262.2338 290.352 , 271.2338 291.352 , 257.2338 292.352 , 270.2338 282.352 , 265.2338 281.352 , 276.2338 287.352 , 262.2338 282.352 , 262.2338 284.352 , 259.2338 293.352 , 262.2338 300.352 , 262.2338 309.352 , 272.2338 309.352 , 274.2338 305.352 , 277.2338 310.352 , 270.2338 311.352 , 274.2338 318.352 , 276.2338 326.352 , 268.2338 318.352 , 267.2338 327.352 , 262.2338 328.352 , 276.2338 ">
</polygon><polygon 
stroke="rgb(188,163,58)"
fill="rgb(188,163,58)"
stroke-width="80"
stroke-linejoin="round" 
opacity="1"
points="283.352 , 281.2338 253.352 , 337.2338 280.352 , 284.2338 278.352 , 321.2338 248.352 , 297.2338 237.352 , 294.2338 247.352 , 290.2338 275.352 , 314.2338 271.352 , 286.2338 266.352 , 296.2338 286.352 , 334.2338 296.352 , 340.2338 305.352 , 305.2338 324.352 , 341.2338 336.352 , 302.2338 320.352 , 297.2338 310.352 , 311.2338 306.352 , 292.2338 286.352 , 341.2338 283.352 , 289.2338 280.352 , 281.2338 306.352 , 307.2338 281.352 , 316.2338 260.352 , 311.2338 ">
</polygon><polygon 
stroke="rgb(178,153,48)"
fill="rgb(178,153,48)"
stroke-width="70"
stroke-linejoin="round" 
opacity="1"
points="261.352 , 292.2338 264.352 , 322.2338 284.352 , 306.2338 297.352 , 300.2338 298.352 , 293.2338 303.352 , 306.2338 292.352 , 302.2338 311.352 , 331.2338 313.352 , 330.2338 318.352 , 319.2338 305.352 , 317.2338 321.352 , 310.2338 336.352 , 326.2338 349.352 , 296.2338 332.352 , 295.2338 345.352 , 297.2338 354.352 , 331.2338 366.352 , 322.2338 364.352 , 305.2338 360.352 , 305.2338 359.352 , 323.2338 367.352 , 302.2338 373.352 , 298.2338 365.352 , 303.2338 385.352 , 330.2338 382.352 , 295.2338 385.352 , 329.2338 375.352 , 294.2338 393.352 , 321.2338 ">
</polygon><polygon 
stroke="rgb(178,153,48)"
fill="rgb(178,153,48)"
stroke-width="60"
stroke-linejoin="round" 
opacity="1"
points="253.352 , 316.2338 258.352 , 319.2338 265.352 , 320.2338 273.352 , 315.2338 274.352 , 320.2338 276.352 , 310.2338 283.352 , 321.2338 284.352 , 306.2338 294.352 , 314.2338 296.352 , 318.2338 305.352 , 316.2338 305.352 , 309.2338 303.352 , 321.2338 295.352 , 301.2338 290.352 , 303.2338 297.352 , 321.2338 307.352 , 315.2338 306.352 , 304.2338 305.352 , 317.2338 305.352 , 319.2338 307.352 , 316.2338 315.352 , 309.2338 ">
</polygon><polygon 
stroke="rgb(178,153,48)"
fill="rgb(178,153,48)"
stroke-width="80"
stroke-linejoin="round" 
opacity="1"
points="176.734 , 211.727475 158.734 , 228.727475 172.734 , 251.727475 164.734 , 219.727475 181.734 , 232.727475 172.734 , 255.727475 195.734 , 210.727475 208.734 , 204.727475 236.734 , 233.727475 263.734 , 242.727475 256.734 , 240.727475 263.734 , 204.727475 244.734 , 248.727475 229.734 , 201.727475 209.734 , 255.727475 224.734 , 205.727475 245.734 , 260.727475 255.734 , 202.727475 249.734 , 203.727475 221.734 , 213.727475 193.734 , 251.727475 176.734 , 206.727475 ">
</polygon><polygon 
stroke="rgb(178,153,48)"
fill="rgb(178,153,48)"
stroke-width="70"
stroke-linejoin="round" 
opacity="1"
points="154.734 , 246.727475 170.734 , 227.727475 162.734 , 221.727475 173.734 , 244.727475 177.734 , 235.727475 163.734 , 224.727475 168.734 , 238.727475 162.734 , 216.727475 181.734 , 240.727475 182.734 , 219.727475 184.734 , 222.727475 165.734 , 220.727475 179.734 , 237.727475 191.734 , 229.727475 199.734 , 239.727475 180.734 , 246.727475 190.734 , 239.727475 201.734 , 239.727475 181.734 , 234.727475 190.734 , 221.727475 175.734 , 226.727475 172.734 , 229.727475 177.734 , 230.727475 185.734 , 212.727475 177.734 , 233.727475 178.734 , 234.727475 171.734 , 243.727475 159.734 , 220.727475 ">
</polygon><polygon 
stroke="rgb(178,153,48)"
fill="rgb(178,153,48)"
stroke-width="60"
stroke-linejoin="round" 
opacity="1"
points="163.734 , 223.727475 172.734 , 229.727475 176.734 , 225.727475 184.734 , 239.727475 182.734 , 227.727475 172.734 , 221.727475 170.734 , 241.727475 161.734 , 224.727475 163.734 , 224.727475 165.734 , 223.727475 165.734 , 237.727475 163.734 , 232.727475 165.734 , 227.727475 171.734 , 240.727475 ">
</polygon><path d="M 240 480 c 6.6666666666667,-85.066666666667 18.666666666667,-127.6 20,-319 
C 312.66666666667,373.4 300.66666666667,415.93333333333 285,480
 " stroke="rgb(79,173,159)" stroke-linejoin="arcs"  stroke-width="5" fill="rgb(79,173,159)"/><path d="M 255.366 315.467775 c 49.6,-32 62,-26.666666666667 62,-80 
C 323.566,298.80110833333 311.166,293.467775 254.304,331.4736
 " stroke="rgb(79,173,159)" stroke-linejoin="arcs"  stroke-width="5" fill="rgb(79,173,159)"/><path d="M 258.048 259.5072 c 10.266666666667,-15 0,-15 14,-75 
C 259.448,253.8822 269.71466666667,253.8822 257.25,279.628125
 " stroke="rgb(79,173,159)" stroke-linejoin="arcs"  stroke-width="5" fill="rgb(79,173,159)"/><path d="M 255.366 315.467775 c 25.6,-25.2 25.6,-21 48,-63 
C 285.766,302.342775 285.766,298.142775 254.304,331.4736
 " stroke="rgb(79,173,159)" stroke-linejoin="arcs"  stroke-width="5" fill="rgb(79,173,159)"/><path d="M 252 360.375 c 103.13333333333,-6.8 79.333333333333,-17 119,-51 
C 343.23333333333,349.75 367.03333333333,359.95 250.782,373.557675
 " stroke="rgb(79,173,159)" stroke-linejoin="arcs"  stroke-width="5" fill="rgb(79,173,159)"/><path d="M 253.178 346.394825 c 126.93333333333,-23.666666666667 72.533333333333,-37.866666666667 136,-71 
C 339.31133333333,317.40315833333 393.71133333333,331.60315833333 252,360.375
 " stroke="rgb(79,173,159)" stroke-linejoin="arcs"  stroke-width="5" fill="rgb(79,173,159)"/><path d="M 259.722 188.617425 c 1,-18.333333333333 9,-11 15,-55 
C 270.222,184.492425 262.222,177.15909166667 259.296,214.1454
 " stroke="rgb(79,173,159)" stroke-linejoin="arcs"  stroke-width="5" fill="rgb(79,173,159)"/><path d="M 256.352 298.2338 c 25.133333333333,-12.4 25.133333333333,-12.4 29,-31 
C 284.38533333333,289.7088 284.38533333333,289.7088 255.366,315.467775
 " stroke="rgb(79,173,159)" stroke-linejoin="arcs"  stroke-width="5" fill="rgb(79,173,159)"/><path d="M 256.352 298.2338 c -2.8,5.2 -2.4,3.4666666666667 -3,13 
C 254.252,303.32546666667 253.852,305.0588 255.366,315.467775
 " stroke="rgb(79,173,159)" stroke-linejoin="arcs"  stroke-width="5" fill="rgb(79,173,159)"/><path d="M 258.734 237.727475 c -73.6,-2.4 -6.1333333333333,-3.2 -92,-6 
C 261.80066666667,235.277475 194.334,236.077475 258.048,259.5072
 " stroke="rgb(79,173,159)" stroke-linejoin="arcs"  stroke-width="5" fill="rgb(79,173,159)"/><polygon 
stroke="rgb(198,173,68)"
fill="rgb(198,173,68)"
stroke-width="60"
stroke-linejoin="round" 
opacity="1"
points="281.722 , 143.617425 276.722 , 126.617425 276.722 , 136.617425 271.722 , 123.617425 271.722 , 141.617425 279.722 , 130.617425 278.722 , 132.617425 280.722 , 127.617425 279.722 , 126.617425 271.722 , 141.617425 ">
</polygon></svg>