<?xml version="1.0" encoding="iso-8859-1"?>
<svg version="1.1" id="Capa_1" xmlns="http://www.w3.org/2000/svg" xmlns:xlink="http://www.w3.org/1999/xlink" x="0px" y="0px"
viewBox="0 0 500 500" xml:space="preserve"><defs></defs><polygon 
stroke="rgb(206,119,147)"
fill="rgb(206,119,147)"
stroke-width="80"
stroke-linejoin="round" 
opacity="1"
points="339 , 153 367 , 180 390 , 178 378 , 139 357 , 181 354 , 169 383 , 188 410 , 192 409 , 195 391 , 154 403 , 143 414 , 150 398 , 183 384 , 179 405 , 163 415 , 138 396 , 190 420 , 188 412 , 140 437 , 146 435 , 151 435 , 192 437 , 165 432 , 192 426 , 182 411 , 189 ">
</polygon><polygon 
stroke="rgb(206,119,147)"
fill="rgb(206,119,147)"
stroke-width="60"
stroke-linejoin="round" 
opacity="1"
points="321 , 163 318 , 162 314 , 156 324 , 159 325 , 160 326 , 161 326 , 158 316 , 156 320 , 169 325 , 159 330 , 161 324 , 155 319 , 158 323 , 156 ">
</polygon><polygon 
stroke="rgb(196,109,137)"
fill="rgb(196,109,137)"
stroke-width="80"
stroke-linejoin="round" 
opacity="1"
points="253.4 , 258.71875 268.4 , 243.71875 278.4 , 247.71875 281.4 , 215.71875 270.4 , 240.71875 268.4 , 251.71875 279.4 , 210.71875 250.4 , 230.71875 277.4 , 214.71875 287.4 , 254.71875 298.4 , 229.71875 314.4 , 226.71875 285.4 , 255.71875 294.4 , 231.71875 275.4 , 226.71875 291.4 , 269.71875 312.4 , 265.71875 339.4 , 257.71875 352.4 , 262.71875 371.4 , 238.71875 352.4 , 268.71875 358.4 , 241.71875 358.4 , 248.71875 347.4 , 228.71875 369.4 , 235.71875 385.4 , 266.71875 389.4 , 215.71875 409.4 , 270.71875 ">
</polygon><polygon 
stroke="rgb(196,109,137)"
fill="rgb(196,109,137)"
stroke-width="70"
stroke-linejoin="round" 
opacity="1"
points="250.4 , 257.71875 239.4 , 244.71875 245.4 , 252.71875 227.4 , 251.71875 239.4 , 244.71875 248.4 , 241.71875 255.4 , 228.71875 260.4 , 227.71875 240.4 , 233.71875 228.4 , 244.71875 233.4 , 226.71875 213.4 , 227.71875 200.4 , 241.71875 213.4 , 228.71875 229.4 , 239.71875 233.4 , 252.71875 228.4 , 258.71875 248.4 , 221.71875 261.4 , 256.71875 249.4 , 254.71875 237.4 , 239.71875 225.4 , 240.71875 225.4 , 241.71875 242.4 , 256.71875 242.4 , 221.71875 241.4 , 244.71875 235.4 , 244.71875 254.4 , 228.71875 ">
</polygon><polygon 
stroke="rgb(196,109,137)"
fill="rgb(196,109,137)"
stroke-width="60"
stroke-linejoin="round" 
opacity="1"
points="258.8688 , 246.46125 257.8688 , 242.46125 262.8688 , 253.46125 259.8688 , 241.46125 253.8688 , 238.46125 253.8688 , 258.46125 260.8688 , 250.46125 268.8688 , 238.46125 278.8688 , 257.46125 268.8688 , 252.46125 271.8688 , 241.46125 264.8688 , 252.46125 256.8688 , 253.46125 250.8688 , 240.46125 256.8688 , 247.46125 254.8688 , 249.46125 249.8688 , 254.46125 250.8688 , 250.46125 244.8688 , 258.46125 237.8688 , 254.46125 ">
</polygon><polygon 
stroke="rgb(186,99,127)"
fill="rgb(186,99,127)"
stroke-width="80"
stroke-linejoin="round" 
opacity="1"
points="385.0656 , 191.48 405.0656 , 203.48 388.0656 , 202.48 378.0656 , 219.48 376.0656 , 205.48 350.0656 , 216.48 328.0656 , 228.48 348.0656 , 232.48 326.0656 , 202.48 356.0656 , 203.48 334.0656 , 191.48 357.0656 , 220.48 328.0656 , 217.48 307.0656 , 194.48 309.0656 , 220.48 ">
</polygon><polygon 
stroke="rgb(186,99,127)"
fill="rgb(186,99,127)"
stroke-width="70"
stroke-linejoin="round" 
opacity="1"
points="425.0656 , 224.48 431.0656 , 200.48 445.0656 , 231.48 435.0656 , 198.48 442.0656 , 206.48 438.0656 , 213.48 440.0656 , 208.48 446.0656 , 195.48 449.0656 , 198.48 436.0656 , 229.48 430.0656 , 229.48 440.0656 , 215.48 433.0656 , 194.48 441.0656 , 223.48 ">
</polygon><polygon 
stroke="rgb(186,99,127)"
fill="rgb(186,99,127)"
stroke-width="60"
stroke-linejoin="round" 
opacity="1"
points="416.0656 , 211.48 423.0656 , 208.48 414.0656 , 209.48 412.0656 , 208.48 422.0656 , 208.48 414.0656 , 216.48 409.0656 , 213.48 417.0656 , 210.48 419.0656 , 221.48 427.0656 , 205.48 423.0656 , 214.48 416.0656 , 206.48 413.0656 , 202.48 412.0656 , 204.48 420.0656 , 216.48 428.0656 , 202.48 436.0656 , 205.48 436.0656 , 206.48 437.0656 , 201.48 447.0656 , 204.48 437.0656 , 204.48 438.0656 , 212.48 446.0656 , 201.48 447.0656 , 202.48 438.0656 , 210.48 431.0656 , 217.48 437.0656 , 216.48 446.0656 , 214.48 ">
</polygon><polygon 
stroke="rgb(196,109,137)"
fill="rgb(196,109,137)"
stroke-width="80"
stroke-linejoin="round" 
opacity="1"
points="425.6464 , 199.19375 426.6464 , 217.19375 428.6464 , 187.19375 425.6464 , 203.19375 406.6464 , 208.19375 432.6464 , 238.19375 425.6464 , 234.19375 431.6464 , 200.19375 402.6464 , 206.19375 424.6464 , 200.19375 448.6464 , 219.19375 444.6464 , 213.19375 422.6464 , 232.19375 446.6464 , 192.19375 432.6464 , 183.19375 418.6464 , 233.19375 443.6464 , 209.19375 447.6464 , 238.19375 439.6464 , 223.19375 446.6464 , 242.19375 433.6464 , 212.19375 ">
</polygon><polygon 
stroke="rgb(186,99,127)"
fill="rgb(186,99,127)"
stroke-width="70"
stroke-linejoin="round" 
opacity="1"
points="447.6464 , 199.19375 439.6464 , 201.19375 428.6464 , 209.19375 436.6464 , 204.19375 444.6464 , 225.19375 430.6464 , 207.19375 433.6464 , 201.19375 413.6464 , 209.19375 400.6464 , 206.19375 413.6464 , 195.19375 404.6464 , 206.19375 419.6464 , 205.19375 415.6464 , 213.19375 427.6464 , 231.19375 ">
</polygon><polygon 
stroke="rgb(186,99,127)"
fill="rgb(186,99,127)"
stroke-width="60"
stroke-linejoin="round" 
opacity="1"
points="425.6464 , 208.19375 425.6464 , 211.19375 424.6464 , 211.19375 414.6464 , 213.19375 409.6464 , 211.19375 417.6464 , 212.19375 416.6464 , 209.19375 421.6464 , 214.19375 426.6464 , 203.19375 420.6464 , 211.19375 411.6464 , 205.19375 409.6464 , 207.19375 415.6464 , 206.19375 412.6464 , 222.19375 406.6464 , 220.19375 396.6464 , 216.19375 387.6464 , 215.19375 389.6464 , 220.19375 398.6464 , 203.19375 392.6464 , 216.19375 383.6464 , 223.19375 384.6464 , 217.19375 384.6464 , 211.19375 394.6464 , 222.19375 ">
</polygon><polygon 
stroke="rgb(206,119,147)"
fill="rgb(206,119,147)"
stroke-width="80"
stroke-linejoin="round" 
opacity="1"
points="303.3328 , 298.48 296.3328 , 280.48 281.3328 , 285.48 291.3328 , 251.48 263.3328 , 273.48 273.3328 , 288.48 243.3328 , 263.48 235.3328 , 255.48 235.3328 , 288.48 256.3328 , 264.48 243.3328 , 264.48 230.3328 , 257.48 247.3328 , 265.48 217.3328 , 257.48 237.3328 , 254.48 230.3328 , 289.48 235.3328 , 302.48 254.3328 , 255.48 228.3328 , 277.48 228.3328 , 260.48 247.3328 , 302.48 274.3328 , 296.48 304.3328 , 261.48 297.3328 , 280.48 294.3328 , 267.48 ">
</polygon><polygon 
stroke="rgb(206,119,147)"
fill="rgb(206,119,147)"
stroke-width="70"
stroke-linejoin="round" 
opacity="1"
points="307.3328 , 276.48 326.3328 , 283.48 316.3328 , 295.48 319.3328 , 270.48 316.3328 , 270.48 298.3328 , 290.48 280.3328 , 297.48 299.3328 , 284.48 315.3328 , 261.48 297.3328 , 262.48 307.3328 , 260.48 320.3328 , 299.48 301.3328 , 269.48 282.3328 , 276.48 290.3328 , 285.48 308.3328 , 272.48 306.3328 , 275.48 316.3328 , 295.48 ">
</polygon><polygon 
stroke="rgb(196,109,137)"
fill="rgb(196,109,137)"
stroke-width="80"
stroke-linejoin="round" 
opacity="1"
points="183.3216 , 355.32375 177.3216 , 362.32375 160.3216 , 364.32375 189.3216 , 380.32375 169.3216 , 330.32375 185.3216 , 374.32375 215.3216 , 383.32375 199.3216 , 329.32375 170.3216 , 366.32375 198.3216 , 363.32375 ">
</polygon><polygon 
stroke="rgb(206,119,147)"
fill="rgb(206,119,147)"
stroke-width="70"
stroke-linejoin="round" 
opacity="1"
points="145.3216 , 341.32375 128.3216 , 339.32375 121.3216 , 363.32375 132.3216 , 375.32375 117.3216 , 361.32375 129.3216 , 359.32375 127.3216 , 343.32375 140.3216 , 361.32375 143.3216 , 369.32375 153.3216 , 354.32375 140.3216 , 375.32375 ">
</polygon><polygon 
stroke="rgb(186,99,127)"
fill="rgb(186,99,127)"
stroke-width="60"
stroke-linejoin="round" 
opacity="1"
points="170.3216 , 363.32375 171.3216 , 364.32375 177.3216 , 358.32375 177.3216 , 366.32375 174.3216 , 362.32375 170.3216 , 368.32375 163.3216 , 366.32375 158.3216 , 360.32375 152.3216 , 355.32375 150.3216 , 350.32375 143.3216 , 352.32375 137.3216 , 366.32375 143.3216 , 368.32375 140.3216 , 360.32375 148.3216 , 361.32375 147.3216 , 361.32375 149.3216 , 367.32375 157.3216 , 351.32375 161.3216 , 369.32375 156.3216 , 349.32375 151.3216 , 355.32375 147.3216 , 369.32375 153.3216 , 351.32375 ">
</polygon><polygon 
stroke="rgb(186,99,127)"
fill="rgb(186,99,127)"
stroke-width="80"
stroke-linejoin="round" 
opacity="1"
points="192.0656 , 216.48 188.0656 , 243.48 204.0656 , 206.48 233.0656 , 237.48 247.0656 , 219.48 246.0656 , 231.48 271.0656 , 198.48 256.0656 , 223.48 278.0656 , 218.48 282.0656 , 235.48 255.0656 , 241.48 284.0656 , 202.48 262.0656 , 211.48 275.0656 , 244.48 299.0656 , 221.48 305.0656 , 190.48 292.0656 , 195.48 281.0656 , 199.48 287.0656 , 194.48 261.0656 , 229.48 262.0656 , 197.48 243.0656 , 218.48 249.0656 , 192.48 233.0656 , 234.48 ">
</polygon><polygon 
stroke="rgb(206,119,147)"
fill="rgb(206,119,147)"
stroke-width="70"
stroke-linejoin="round" 
opacity="1"
points="215.0656 , 219.48 207.0656 , 201.48 196.0656 , 214.48 188.0656 , 216.48 196.0656 , 205.48 203.0656 , 210.48 190.0656 , 222.48 204.0656 , 228.48 206.0656 , 224.48 209.0656 , 202.48 209.0656 , 213.48 193.0656 , 233.48 ">
</polygon><polygon 
stroke="rgb(196,109,137)"
fill="rgb(196,109,137)"
stroke-width="60"
stroke-linejoin="round" 
opacity="1"
points="211.0656 , 222.48 207.0656 , 221.48 200.0656 , 219.48 190.0656 , 215.48 180.0656 , 205.48 186.0656 , 209.48 180.0656 , 220.48 184.0656 , 220.48 189.0656 , 222.48 189.0656 , 215.48 196.0656 , 211.48 204.0656 , 212.48 195.0656 , 221.48 199.0656 , 205.48 209.0656 , 210.48 208.0656 , 214.48 214.0656 , 215.48 223.0656 , 210.48 230.0656 , 214.48 226.0656 , 218.48 219.0656 , 220.48 220.0656 , 209.48 212.0656 , 209.48 209.0656 , 216.48 219.0656 , 209.48 225.0656 , 216.48 229.0656 , 221.48 238.0656 , 208.48 ">
</polygon><polygon 
stroke="rgb(206,119,147)"
fill="rgb(206,119,147)"
stroke-width="70"
stroke-linejoin="round" 
opacity="1"
points="360.6464 , 130.19375 344.6464 , 131.19375 344.6464 , 131.19375 336.6464 , 135.19375 336.6464 , 116.19375 325.6464 , 113.19375 323.6464 , 114.19375 312.6464 , 112.19375 311.6464 , 137.19375 315.6464 , 112.19375 314.6464 , 124.19375 300.6464 , 117.19375 298.6464 , 120.19375 293.6464 , 139.19375 311.6464 , 137.19375 ">
</polygon><polygon 
stroke="rgb(186,99,127)"
fill="rgb(186,99,127)"
stroke-width="60"
stroke-linejoin="round" 
opacity="1"
points="358.6464 , 133.19375 355.6464 , 135.19375 362.6464 , 123.19375 367.6464 , 135.19375 377.6464 , 130.19375 381.6464 , 132.19375 386.6464 , 138.19375 381.6464 , 130.19375 376.6464 , 124.19375 375.6464 , 122.19375 379.6464 , 123.19375 376.6464 , 138.19375 378.6464 , 125.19375 371.6464 , 135.19375 363.6464 , 138.19375 368.6464 , 132.19375 365.6464 , 121.19375 375.6464 , 131.19375 372.6464 , 138.19375 365.6464 , 123.19375 362.6464 , 136.19375 365.6464 , 120.19375 355.6464 , 120.19375 358.6464 , 136.19375 365.6464 , 124.19375 362.6464 , 139.19375 ">
</polygon><polygon 
stroke="rgb(196,109,137)"
fill="rgb(196,109,137)"
stroke-width="80"
stroke-linejoin="round" 
opacity="1"
points="332.9992 , 200.19 361.9992 , 209.19 353.9992 , 208.19 330.9992 , 180.19 340.9992 , 200.19 322.9992 , 178.19 330.9992 , 204.19 306.9992 , 179.19 286.9992 , 216.19 313.9992 , 218.19 311.9992 , 178.19 341.9992 , 171.19 312.9992 , 211.19 302.9992 , 172.19 320.9992 , 192.19 322.9992 , 194.19 ">
</polygon><polygon 
stroke="rgb(196,109,137)"
fill="rgb(196,109,137)"
stroke-width="70"
stroke-linejoin="round" 
opacity="1"
points="346.9992 , 197.19 327.9992 , 209.19 313.9992 , 189.19 324.9992 , 208.19 311.9992 , 190.19 307.9992 , 212.19 313.9992 , 188.19 299.9992 , 187.19 281.9992 , 207.19 262.9992 , 206.19 267.9992 , 179.19 258.9992 , 193.19 244.9992 , 203.19 230.9992 , 193.19 241.9992 , 206.19 ">
</polygon><polygon 
stroke="rgb(196,109,137)"
fill="rgb(196,109,137)"
stroke-width="60"
stroke-linejoin="round" 
opacity="1"
points="350.9992 , 192.19 343.9992 , 201.19 343.9992 , 190.19 343.9992 , 206.19 342.9992 , 194.19 348.9992 , 193.19 355.9992 , 199.19 363.9992 , 194.19 371.9992 , 206.19 366.9992 , 189.19 358.9992 , 207.19 354.9992 , 197.19 353.9992 , 190.19 ">
</polygon><path d="M 240 480 c 68.466666666667,-147 10.533333333333,-42 79,-315 
C 310.53333333333,464 368.46666666667,359 303,480
 " stroke="rgb(159,59,165)" stroke-linejoin="arcs"  stroke-width="5" fill="rgb(159,59,165)"/><path d="M 287.4 308.71875 c -8.4,-22.666666666667 -2.4,-22.666666666667 -18,-68 
C 286.8,294.55208333333 280.8,294.55208333333 284.6824,325.65
 " stroke="rgb(159,59,165)" stroke-linejoin="arcs"  stroke-width="5" fill="rgb(159,59,165)"/><path d="M 295.8688 264.46125 c -9.3333333333333,-4.2666666666667 -25.666666666667,-8.5333333333333 -35,-16 
C 273.70213333333,257.92791666667 290.03546666667,262.19458333333 291.0656,288.48
 " stroke="rgb(159,59,165)" stroke-linejoin="arcs"  stroke-width="5" fill="rgb(159,59,165)"/><path d="M 291.0656 288.48 c 56.933333333333,-41.066666666667 81.333333333333,-10.266666666667 122,-77 
C 384.59893333333,287.83833333333 360.19893333333,257.03833333333 287.4,308.71875
 " stroke="rgb(159,59,165)" stroke-linejoin="arcs"  stroke-width="5" fill="rgb(159,59,165)"/><path d="M 309.6464 203.19375 c 106.6,2.6666666666667 8.2,1.3333333333333 123,10 
C 330.1464,205.77708333333 428.5464,207.11041666667 301.9992,236.19
 " stroke="rgb(159,59,165)" stroke-linejoin="arcs"  stroke-width="5" fill="rgb(159,59,165)"/><path d="M 281.3328 351.48 c 2.6,-19.2 26,-33.6 39,-72 
C 311.2328,326.88 287.8328,341.28 280.3216,361.32375
 " stroke="rgb(159,59,165)" stroke-linejoin="arcs"  stroke-width="5" fill="rgb(159,59,165)"/><path d="M 280.3216 361.32375 c -39.333333333333,-1.0666666666667 -102.26666666667,-0.93333333333333 -118,-2 
C 189.85493333333,360.64041666667 252.78826666667,360.50708333333 279.5,369.75
 " stroke="rgb(159,59,165)" stroke-linejoin="arcs"  stroke-width="5" fill="rgb(159,59,165)"/><path d="M 291.0656 288.48 c -68,-9.8666666666667 -62.333333333333,-14.8 -85,-74 
C 237.23226666667,282.93 231.5656,287.86333333333 287.4,308.71875
 " stroke="rgb(159,59,165)" stroke-linejoin="arcs"  stroke-width="5" fill="rgb(159,59,165)"/><path d="M 309.6464 203.19375 c 23.2,-29.6 11.6,-9.8666666666667 58,-74 
C 327.0464,202.57708333333 338.6464,182.84375 301.9992,236.19
 " stroke="rgb(159,59,165)" stroke-linejoin="arcs"  stroke-width="5" fill="rgb(159,59,165)"/><path d="M 301.9992 236.19 c 14.933333333333,-17.266666666667 33.6,-12.333333333333 56,-37 
C 341.1992,228.48166666667 322.53253333333,223.54833333333 295.8688,264.46125
 " stroke="rgb(159,59,165)" stroke-linejoin="arcs"  stroke-width="5" fill="rgb(159,59,165)"/><polygon 
stroke="rgb(206,119,147)"
fill="rgb(206,119,147)"
stroke-width="70"
stroke-linejoin="round" 
opacity="1"
points="336 , 162 344 , 179 352 , 168 335 , 153 346 , 155 355 , 149 374 , 153 385 , 148 401 , 151 387 , 166 374 , 150 355 , 174 361 , 179 380 , 151 368 , 166 362 , 174 367 , 182 380 , 156 399 , 181 406 , 151 393 , 153 404 , 155 405 , 175 389 , 181 392 , 175 405 , 176 398 , 147 414 , 158 419 , 164 ">
</polygon><polygon 
stroke="rgb(196,109,137)"
fill="rgb(196,109,137)"
stroke-width="60"
stroke-linejoin="round" 
opacity="1"
points="270.4 , 248.71875 274.4 , 248.71875 264.4 , 234.71875 259.4 , 236.71875 260.4 , 238.71875 251.4 , 242.71875 255.4 , 240.71875 249.4 , 239.71875 245.4 , 248.71875 247.4 , 238.71875 244.4 , 230.71875 241.4 , 249.71875 235.4 , 230.71875 238.4 , 248.71875 238.4 , 230.71875 245.4 , 239.71875 237.4 , 248.71875 246.4 , 237.71875 250.4 , 248.71875 248.4 , 248.71875 255.4 , 243.71875 250.4 , 246.71875 ">
</polygon><polygon 
stroke="rgb(206,119,147)"
fill="rgb(206,119,147)"
stroke-width="80"
stroke-linejoin="round" 
opacity="1"
points="267.8688 , 240.46125 239.8688 , 255.46125 259.8688 , 231.46125 229.8688 , 239.46125 226.8688 , 247.46125 197.8688 , 276.46125 208.8688 , 277.46125 217.8688 , 237.46125 208.8688 , 273.46125 203.8688 , 265.46125 205.8688 , 227.46125 198.8688 , 243.46125 195.8688 , 244.46125 169.8688 , 278.46125 191.8688 , 232.46125 176.8688 , 272.46125 205.8688 , 245.46125 227.8688 , 258.46125 250.8688 , 260.46125 276.8688 , 234.46125 281.8688 , 261.46125 286.8688 , 235.46125 269.8688 , 252.46125 290.8688 , 225.46125 288.8688 , 257.46125 261.8688 , 223.46125 284.8688 , 235.46125 ">
</polygon><polygon 
stroke="rgb(196,109,137)"
fill="rgb(196,109,137)"
stroke-width="70"
stroke-linejoin="round" 
opacity="1"
points="252.8688 , 236.46125 253.8688 , 253.46125 242.8688 , 263.46125 229.8688 , 229.46125 218.8688 , 239.46125 199.8688 , 243.46125 189.8688 , 231.46125 174.8688 , 257.46125 180.8688 , 262.46125 190.8688 , 241.46125 180.8688 , 244.46125 181.8688 , 238.46125 170.8688 , 268.46125 170.8688 , 266.46125 168.8688 , 258.46125 ">
</polygon><polygon 
stroke="rgb(196,109,137)"
fill="rgb(196,109,137)"
stroke-width="60"
stroke-linejoin="round" 
opacity="1"
points="329.3328 , 281.48 326.3328 , 286.48 334.3328 , 282.48 333.3328 , 276.48 343.3328 , 282.48 336.3328 , 270.48 339.3328 , 288.48 338.3328 , 289.48 341.3328 , 276.48 347.3328 , 274.48 338.3328 , 285.48 346.3328 , 270.48 353.3328 , 284.48 361.3328 , 275.48 362.3328 , 277.48 367.3328 , 269.48 359.3328 , 275.48 357.3328 , 284.48 ">
</polygon><polygon 
stroke="rgb(186,99,127)"
fill="rgb(186,99,127)"
stroke-width="80"
stroke-linejoin="round" 
opacity="1"
points="369.6464 , 124.19375 361.6464 , 114.19375 353.6464 , 111.19375 370.6464 , 136.19375 360.6464 , 101.19375 336.6464 , 114.19375 315.6464 , 102.19375 320.6464 , 111.19375 290.6464 , 152.19375 312.6464 , 105.19375 310.6464 , 133.19375 320.6464 , 156.19375 346.6464 , 105.19375 317.6464 , 115.19375 289.6464 , 150.19375 306.6464 , 151.19375 ">
</polygon></svg>