<?xml version="1.0" encoding="iso-8859-1"?>
<svg version="1.1" id="Capa_1" xmlns="http://www.w3.org/2000/svg" xmlns:xlink="http://www.w3.org/1999/xlink" x="0px" y="0px"
viewBox="0 0 500 500" xml:space="preserve"><defs></defs><polygon 
stroke="rgb(72,162,165)"
fill="rgb(72,162,165)"
stroke-width="80"
stroke-linejoin="round" 
opacity="1"
points="301 , 126 294 , 115 311 , 164 295 , 129 289 , 153 266 , 114 253 , 120 241 , 119 220 , 147 208 , 159 199 , 144 217 , 125 191 , 120 188 , 156 166 , 135 146 , 155 171 , 142 ">
</polygon><polygon 
stroke="rgb(72,162,165)"
fill="rgb(72,162,165)"
stroke-width="70"
stroke-linejoin="round" 
opacity="1"
points="264 , 125 274 , 128 294 , 125 314 , 135 304 , 152 311 , 135 293 , 131 307 , 149 294 , 140 277 , 119 264 , 150 265 , 150 260 , 150 254 , 126 257 , 151 249 , 131 253 , 119 242 , 132 ">
</polygon><polygon 
stroke="rgb(62,152,155)"
fill="rgb(62,152,155)"
stroke-width="80"
stroke-linejoin="round" 
opacity="1"
points="384.5375 , 231.4 414.5375 , 208.4 420.5375 , 246.4 416.5375 , 257.4 393.5375 , 223.4 381.5375 , 262.4 386.5375 , 234.4 380.5375 , 237.4 374.5375 , 210.4 389.5375 , 263.4 368.5375 , 210.4 ">
</polygon><polygon 
stroke="rgb(72,162,165)"
fill="rgb(72,162,165)"
stroke-width="70"
stroke-linejoin="round" 
opacity="1"
points="387.5375 , 251.4 378.5375 , 222.4 362.5375 , 245.4 371.5375 , 252.4 391.5375 , 247.4 401.5375 , 233.4 398.5375 , 240.4 410.5375 , 233.4 406.5375 , 221.4 389.5375 , 240.4 402.5375 , 243.4 400.5375 , 252.4 386.5375 , 225.4 390.5375 , 233.4 374.5375 , 218.4 361.5375 , 241.4 364.5375 , 227.4 365.5375 , 217.4 381.5375 , 221.4 ">
</polygon><polygon 
stroke="rgb(62,152,155)"
fill="rgb(62,152,155)"
stroke-width="80"
stroke-linejoin="round" 
opacity="1"
points="204.9339 , 173.1912 206.9339 , 146.1912 226.9339 , 142.1912 226.9339 , 120.1912 242.9339 , 175.1912 266.9339 , 156.1912 246.9339 , 163.1912 218.9339 , 143.1912 202.9339 , 170.1912 230.9339 , 145.1912 226.9339 , 127.1912 235.9339 , 136.1912 263.9339 , 125.1912 243.9339 , 121.1912 264.9339 , 137.1912 254.9339 , 127.1912 242.9339 , 159.1912 218.9339 , 154.1912 192.9339 , 162.1912 215.9339 , 128.1912 190.9339 , 166.1912 185.9339 , 144.1912 158.9339 , 138.1912 145.9339 , 152.1912 118.9339 , 164.1912 ">
</polygon><polygon 
stroke="rgb(82,172,175)"
fill="rgb(82,172,175)"
stroke-width="70"
stroke-linejoin="round" 
opacity="1"
points="228.9339 , 147.1912 209.9339 , 160.1912 202.9339 , 142.1912 207.9339 , 161.1912 202.9339 , 168.1912 206.9339 , 135.1912 222.9339 , 145.1912 226.9339 , 165.1912 213.9339 , 156.1912 207.9339 , 130.1912 206.9339 , 166.1912 216.9339 , 155.1912 199.9339 , 139.1912 211.9339 , 158.1912 205.9339 , 164.1912 220.9339 , 135.1912 217.9339 , 163.1912 230.9339 , 152.1912 212.9339 , 136.1912 232.9339 , 170.1912 246.9339 , 153.1912 258.9339 , 147.1912 239.9339 , 166.1912 253.9339 , 130.1912 237.9339 , 151.1912 248.9339 , 136.1912 244.9339 , 168.1912 252.9339 , 162.1912 268.9339 , 138.1912 252.9339 , 130.1912 ">
</polygon><polygon 
stroke="rgb(62,152,155)"
fill="rgb(62,152,155)"
stroke-width="60"
stroke-linejoin="round" 
opacity="1"
points="219.9339 , 151.1912 227.9339 , 156.1912 219.9339 , 143.1912 220.9339 , 141.1912 228.9339 , 156.1912 233.9339 , 140.1912 239.9339 , 158.1912 243.9339 , 145.1912 235.9339 , 148.1912 237.9339 , 145.1912 228.9339 , 145.1912 228.9339 , 146.1912 229.9339 , 147.1912 ">
</polygon><polygon 
stroke="rgb(62,152,155)"
fill="rgb(62,152,155)"
stroke-width="60"
stroke-linejoin="round" 
opacity="1"
points="209.6593 , 207.8884 215.6593 , 194.8884 215.6593 , 198.8884 218.6593 , 191.8884 211.6593 , 196.8884 209.6593 , 193.8884 202.6593 , 208.8884 204.6593 , 207.8884 203.6593 , 196.8884 198.6593 , 200.8884 206.6593 , 192.8884 202.6593 , 208.8884 202.6593 , 198.8884 ">
</polygon><polygon 
stroke="rgb(72,162,165)"
fill="rgb(72,162,165)"
stroke-width="80"
stroke-linejoin="round" 
opacity="1"
points="294.5032 , 219.0176 308.5032 , 205.0176 295.5032 , 182.0176 273.5032 , 176.0176 275.5032 , 189.0176 273.5032 , 164.0176 302.5032 , 216.0176 327.5032 , 160.0176 332.5032 , 198.0176 350.5032 , 168.0176 335.5032 , 217.0176 365.5032 , 200.0176 389.5032 , 193.0176 408.5032 , 199.0176 420.5032 , 191.0176 404.5032 , 176.0176 ">
</polygon><polygon 
stroke="rgb(62,152,155)"
fill="rgb(62,152,155)"
stroke-width="70"
stroke-linejoin="round" 
opacity="1"
points="300.5032 , 209.0176 311.5032 , 200.0176 306.5032 , 202.0176 293.5032 , 205.0176 286.5032 , 207.0176 282.5032 , 210.0176 264.5032 , 201.0176 252.5032 , 187.0176 257.5032 , 206.0176 242.5032 , 178.0176 224.5032 , 192.0176 235.5032 , 191.0176 250.5032 , 176.0176 233.5032 , 189.0176 225.5032 , 180.0176 205.5032 , 209.0176 193.5032 , 191.0176 206.5032 , 193.0176 212.5032 , 185.0176 222.5032 , 186.0176 202.5032 , 191.0176 185.5032 , 170.0176 168.5032 , 203.0176 173.5032 , 174.0176 182.5032 , 170.0176 200.5032 , 177.0176 193.5032 , 200.0176 ">
</polygon><polygon 
stroke="rgb(62,152,155)"
fill="rgb(62,152,155)"
stroke-width="80"
stroke-linejoin="round" 
opacity="1"
points="168.5408 , 337.2304 157.5408 , 351.2304 153.5408 , 327.2304 127.5408 , 347.2304 134.5408 , 319.2304 161.5408 , 299.2304 183.5408 , 333.2304 168.5408 , 350.2304 179.5408 , 302.2304 150.5408 , 307.2304 125.5408 , 331.2304 140.5408 , 298.2304 145.5408 , 294.2304 162.5408 , 329.2304 134.5408 , 315.2304 148.5408 , 319.2304 127.5408 , 313.2304 122.5408 , 319.2304 148.5408 , 328.2304 135.5408 , 297.2304 162.5408 , 322.2304 189.5408 , 317.2304 211.5408 , 328.2304 210.5408 , 320.2304 196.5408 , 318.2304 189.5408 , 306.2304 203.5408 , 346.2304 196.5408 , 292.2304 181.5408 , 350.2304 184.5408 , 346.2304 ">
</polygon><polygon 
stroke="rgb(72,162,165)"
fill="rgb(72,162,165)"
stroke-width="70"
stroke-linejoin="round" 
opacity="1"
points="196.5408 , 304.2304 214.5408 , 304.2304 220.5408 , 304.2304 223.5408 , 318.2304 210.5408 , 309.2304 211.5408 , 323.2304 194.5408 , 303.2304 208.5408 , 314.2304 222.5408 , 304.2304 212.5408 , 332.2304 220.5408 , 321.2304 218.5408 , 311.2304 216.5408 , 330.2304 226.5408 , 316.2304 223.5408 , 335.2304 220.5408 , 316.2304 219.5408 , 304.2304 216.5408 , 338.2304 219.5408 , 326.2304 221.5408 , 332.2304 202.5408 , 310.2304 216.5408 , 333.2304 198.5408 , 312.2304 ">
</polygon><polygon 
stroke="rgb(62,152,155)"
fill="rgb(62,152,155)"
stroke-width="60"
stroke-linejoin="round" 
opacity="1"
points="186.5408 , 318.2304 176.5408 , 323.2304 177.5408 , 322.2304 177.5408 , 319.2304 169.5408 , 320.2304 167.5408 , 316.2304 164.5408 , 314.2304 173.5408 , 323.2304 178.5408 , 317.2304 182.5408 , 327.2304 173.5408 , 317.2304 173.5408 , 313.2304 173.5408 , 322.2304 166.5408 , 324.2304 163.5408 , 325.2304 153.5408 , 329.2304 144.5408 , 330.2304 150.5408 , 313.2304 ">
</polygon><polygon 
stroke="rgb(82,172,175)"
fill="rgb(82,172,175)"
stroke-width="80"
stroke-linejoin="round" 
opacity="1"
points="380.1624 , 328.8592 380.1624 , 278.8592 365.1624 , 289.8592 385.1624 , 334.8592 412.1624 , 290.8592 383.1624 , 308.8592 377.1624 , 311.8592 374.1624 , 293.8592 358.1624 , 295.8592 384.1624 , 324.8592 359.1624 , 295.8592 356.1624 , 318.8592 368.1624 , 306.8592 350.1624 , 317.8592 329.1624 , 305.8592 313.1624 , 329.8592 283.1624 , 288.8592 282.1624 , 301.8592 290.1624 , 307.8592 263.1624 , 336.8592 264.1624 , 325.8592 235.1624 , 304.8592 258.1624 , 329.8592 243.1624 , 326.8592 246.1624 , 325.8592 226.1624 , 328.8592 245.1624 , 307.8592 ">
</polygon><polygon 
stroke="rgb(62,152,155)"
fill="rgb(62,152,155)"
stroke-width="70"
stroke-linejoin="round" 
opacity="1"
points="398.1624 , 288.8592 410.1624 , 302.8592 420.1624 , 305.8592 426.1624 , 321.8592 423.1624 , 325.8592 424.1624 , 299.8592 437.1624 , 307.8592 429.1624 , 300.8592 415.1624 , 296.8592 411.1624 , 319.8592 424.1624 , 299.8592 441.1624 , 312.8592 449.1624 , 317.8592 446.1624 , 304.8592 448.1624 , 317.8592 444.1624 , 297.8592 431.1624 , 312.8592 423.1624 , 298.8592 411.1624 , 287.8592 408.1624 , 304.8592 421.1624 , 316.8592 418.1624 , 296.8592 421.1624 , 298.8592 427.1624 , 303.8592 447.1624 , 307.8592 439.1624 , 303.8592 ">
</polygon><polygon 
stroke="rgb(62,152,155)"
fill="rgb(62,152,155)"
stroke-width="60"
stroke-linejoin="round" 
opacity="1"
points="385.1624 , 306.8592 392.1624 , 308.8592 396.1624 , 311.8592 406.1624 , 309.8592 414.1624 , 314.8592 419.1624 , 301.8592 423.1624 , 316.8592 420.1624 , 308.8592 429.1624 , 301.8592 439.1624 , 304.8592 441.1624 , 304.8592 447.1624 , 303.8592 440.1624 , 306.8592 439.1624 , 313.8592 442.1624 , 308.8592 437.1624 , 300.8592 431.1624 , 317.8592 434.1624 , 305.8592 436.1624 , 309.8592 441.1624 , 301.8592 443.1624 , 317.8592 ">
</polygon><polygon 
stroke="rgb(72,162,165)"
fill="rgb(72,162,165)"
stroke-width="80"
stroke-linejoin="round" 
opacity="1"
points="123.9339 , 175.1912 95.9339 , 153.1912 70.9339 , 144.1912 100.9339 , 132.1912 92.9339 , 135.1912 95.9339 , 150.1912 123.9339 , 152.1912 144.9339 , 133.1912 118.9339 , 128.1912 110.9339 , 146.1912 82.9339 , 172.1912 100.9339 , 138.1912 119.9339 , 143.1912 124.9339 , 136.1912 114.9339 , 186.1912 107.9339 , 185.1912 84.9339 , 135.1912 84.9339 , 143.1912 111.9339 , 157.1912 ">
</polygon><polygon 
stroke="rgb(62,152,155)"
fill="rgb(62,152,155)"
stroke-width="60"
stroke-linejoin="round" 
opacity="1"
points="155.9339 , 165.1912 155.9339 , 152.1912 156.9339 , 167.1912 153.9339 , 156.1912 163.9339 , 166.1912 166.9339 , 166.1912 167.9339 , 162.1912 164.9339 , 148.1912 156.9339 , 147.1912 152.9339 , 160.1912 158.9339 , 158.1912 149.9339 , 148.1912 154.9339 , 152.1912 144.9339 , 150.1912 137.9339 , 161.1912 137.9339 , 161.1912 136.9339 , 155.1912 143.9339 , 152.1912 133.9339 , 148.1912 129.9339 , 156.1912 ">
</polygon><polygon 
stroke="rgb(72,162,165)"
fill="rgb(72,162,165)"
stroke-width="80"
stroke-linejoin="round" 
opacity="1"
points="163.5032 , 162.0176 155.5032 , 208.0176 159.5032 , 191.0176 136.5032 , 190.0176 106.5032 , 165.0176 134.5032 , 195.0176 121.5032 , 188.0176 113.5032 , 175.0176 124.5032 , 192.0176 122.5032 , 166.0176 97.5032 , 178.0176 90.5032 , 176.0176 106.5032 , 159.0176 83.5032 , 182.0176 63.5032 , 182.0176 70.5032 , 199.0176 79.5032 , 189.0176 ">
</polygon><polygon 
stroke="rgb(72,162,165)"
fill="rgb(72,162,165)"
stroke-width="70"
stroke-linejoin="round" 
opacity="1"
points="157.5032 , 160.0176 171.5032 , 179.0176 186.5032 , 189.0176 200.5032 , 197.0176 196.5032 , 174.0176 176.5032 , 172.0176 159.5032 , 170.0176 165.5032 , 163.0176 167.5032 , 194.0176 168.5032 , 181.0176 ">
</polygon><polygon 
stroke="rgb(82,172,175)"
fill="rgb(82,172,175)"
stroke-width="60"
stroke-linejoin="round" 
opacity="1"
points="163.5032 , 173.0176 154.5032 , 190.0176 161.5032 , 175.0176 169.5032 , 186.0176 169.5032 , 183.0176 165.5032 , 189.0176 163.5032 , 190.0176 171.5032 , 177.0176 176.5032 , 174.0176 171.5032 , 181.0176 176.5032 , 172.0176 177.5032 , 172.0176 173.5032 , 179.0176 176.5032 , 176.0176 184.5032 , 175.0176 180.5032 , 185.0176 171.5032 , 183.0176 171.5032 , 185.0176 173.5032 , 172.0176 175.5032 , 182.0176 185.5032 , 172.0176 176.5032 , 171.0176 173.5032 , 178.0176 ">
</polygon><polygon 
stroke="rgb(62,152,155)"
fill="rgb(62,152,155)"
stroke-width="80"
stroke-linejoin="round" 
opacity="1"
points="185.1797 , 281.9996 204.1797 , 293.9996 190.1797 , 300.9996 161.1797 , 261.9996 178.1797 , 274.9996 170.1797 , 309.9996 167.1797 , 285.9996 170.1797 , 254.9996 180.1797 , 261.9996 197.1797 , 280.9996 209.1797 , 284.9996 181.1797 , 277.9996 160.1797 , 293.9996 ">
</polygon><polygon 
stroke="rgb(62,152,155)"
fill="rgb(62,152,155)"
stroke-width="70"
stroke-linejoin="round" 
opacity="1"
points="214.1797 , 263.9996 212.1797 , 265.9996 217.1797 , 287.9996 237.1797 , 287.9996 234.1797 , 259.9996 252.1797 , 268.9996 272.1797 , 267.9996 286.1797 , 273.9996 267.1797 , 264.9996 268.1797 , 280.9996 251.1797 , 262.9996 253.1797 , 276.9996 268.1797 , 287.9996 276.1797 , 259.9996 276.1797 , 261.9996 266.1797 , 297.9996 268.1797 , 263.9996 260.1797 , 278.9996 275.1797 , 292.9996 277.1797 , 263.9996 271.1797 , 267.9996 266.1797 , 286.9996 265.1797 , 276.9996 265.1797 , 294.9996 284.1797 , 287.9996 297.1797 , 272.9996 311.1797 , 298.9996 313.1797 , 274.9996 311.1797 , 282.9996 313.1797 , 299.9996 ">
</polygon><polygon 
stroke="rgb(62,152,155)"
fill="rgb(62,152,155)"
stroke-width="60"
stroke-linejoin="round" 
opacity="1"
points="203.1797 , 275.9996 195.1797 , 283.9996 199.1797 , 277.9996 204.1797 , 278.9996 195.1797 , 282.9996 200.1797 , 274.9996 197.1797 , 287.9996 193.1797 , 281.9996 195.1797 , 276.9996 185.1797 , 269.9996 193.1797 , 279.9996 183.1797 , 272.9996 176.1797 , 278.9996 182.1797 , 289.9996 186.1797 , 270.9996 179.1797 , 277.9996 ">
</polygon><path d="M 240 480 c 9.6,-159.13333333333 0,-90.933333333333 36,-341 
C 288,414.06666666667 297.6,345.86666666667 317,480
 " stroke="rgb(193,172,179)" stroke-linejoin="arcs"  stroke-width="5" fill="rgb(193,172,179)"/><path d="M 256.5375 275.4 c 0,-20.8 146,-15.6 146,-39 
C 417.1375,264.675 271.1375,259.475 254.1624,292.8592
 " stroke="rgb(193,172,179)" stroke-linejoin="arcs"  stroke-width="5" fill="rgb(193,172,179)"/><path d="M 270.9339 174.1912 c -3.1333333333333,-11.2 -40.733333333333,-8 -47,-24 
C 234.90056666667,169.1912 272.50056666667,165.9912 266.5032,205.0176
 " stroke="rgb(193,172,179)" stroke-linejoin="arcs"  stroke-width="5" fill="rgb(193,172,179)"/><path d="M 262.6593 231.8884 c -15.333333333333,-10.333333333333 -42.933333333333,-4.1333333333333 -46,-31 
C 224.32596666667,231.63006666667 251.92596666667,225.43006666667 259.3536,255.2128
 " stroke="rgb(193,172,179)" stroke-linejoin="arcs"  stroke-width="5" fill="rgb(193,172,179)"/><path d="M 266.5032 205.0176 c 0,-5 26.4,-5 36,-15 
C 296.5032,201.8926 270.1032,201.8926 262.6593,231.8884
 " stroke="rgb(193,172,179)" stroke-linejoin="arcs"  stroke-width="5" fill="rgb(193,172,179)"/><path d="M 250.5408 321.2304 c -42,0 -4.6666666666667,0 -70,0 
C 252.87413333333,321.2304 215.5408,321.2304 249.1971,332.9608
 " stroke="rgb(193,172,179)" stroke-linejoin="arcs"  stroke-width="5" fill="rgb(193,172,179)"/><path d="M 254.1624 292.8592 c 27.4,4 91.333333333333,2 137,15 
C 359.19573333333,296.7342 295.2624,298.7342 252.1797,307.9996
 " stroke="rgb(193,172,179)" stroke-linejoin="arcs"  stroke-width="5" fill="rgb(193,172,179)"/><path d="M 270.9339 174.1912 c -31.466666666667,-3.4 -78.666666666667,-5.6666666666667 -118,-17 
C 204.06723333333,170.64953333333 251.26723333333,172.9162 266.5032,205.0176
 " stroke="rgb(193,172,179)" stroke-linejoin="arcs"  stroke-width="5" fill="rgb(193,172,179)"/><path d="M 266.5032 205.0176 c -13.066666666667,-10 -71.866666666667,-5 -98,-25 
C 204.43653333333,203.1426 263.23653333333,198.1426 262.6593,231.8884
 " stroke="rgb(193,172,179)" stroke-linejoin="arcs"  stroke-width="5" fill="rgb(193,172,179)"/><path d="M 252.1797 307.9996 c -41.8,-5.6 -38,-5.6 -57,-28 
C 219.8797,305.8996 216.0797,305.8996 250.5408,321.2304
 " stroke="rgb(193,172,179)" stroke-linejoin="arcs"  stroke-width="5" fill="rgb(193,172,179)"/><polygon 
stroke="rgb(62,152,155)"
fill="rgb(62,152,155)"
stroke-width="60"
stroke-linejoin="round" 
opacity="1"
points="278 , 136 280 , 136 274 , 141 266 , 148 276 , 139 270 , 147 276 , 138 285 , 134 293 , 142 302 , 136 305 , 140 295 , 136 289 , 142 ">
</polygon><polygon 
stroke="rgb(82,172,175)"
fill="rgb(82,172,175)"
stroke-width="60"
stroke-linejoin="round" 
opacity="1"
points="403.5375 , 230.4 403.5375 , 234.4 411.5375 , 234.4 413.5375 , 232.4 403.5375 , 239.4 395.5375 , 233.4 404.5375 , 242.4 409.5375 , 244.4 399.5375 , 226.4 405.5375 , 241.4 407.5375 , 228.4 408.5375 , 233.4 398.5375 , 237.4 408.5375 , 234.4 402.5375 , 239.4 400.5375 , 244.4 402.5375 , 232.4 396.5375 , 236.4 386.5375 , 230.4 381.5375 , 234.4 380.5375 , 230.4 381.5375 , 244.4 378.5375 , 244.4 386.5375 , 232.4 ">
</polygon><polygon 
stroke="rgb(72,162,165)"
fill="rgb(72,162,165)"
stroke-width="80"
stroke-linejoin="round" 
opacity="1"
points="207.6593 , 210.8884 191.6593 , 203.8884 168.6593 , 191.8884 153.6593 , 189.8884 159.6593 , 171.8884 178.6593 , 204.8884 182.6593 , 178.8884 185.6593 , 212.8884 199.6593 , 223.8884 228.6593 , 223.8884 201.6593 , 197.8884 210.6593 , 177.8884 227.6593 , 211.8884 ">
</polygon><polygon 
stroke="rgb(62,152,155)"
fill="rgb(62,152,155)"
stroke-width="70"
stroke-linejoin="round" 
opacity="1"
points="219.6593 , 186.8884 239.6593 , 180.8884 241.6593 , 195.8884 224.6593 , 206.8884 217.6593 , 203.8884 228.6593 , 208.8884 243.6593 , 214.8884 262.6593 , 205.8884 250.6593 , 192.8884 240.6593 , 202.8884 221.6593 , 200.8884 240.6593 , 197.8884 249.6593 , 186.8884 239.6593 , 205.8884 234.6593 , 214.8884 253.6593 , 180.8884 249.6593 , 216.8884 245.6593 , 182.8884 ">
</polygon><polygon 
stroke="rgb(62,152,155)"
fill="rgb(62,152,155)"
stroke-width="60"
stroke-linejoin="round" 
opacity="1"
points="307.5032 , 195.0176 304.5032 , 185.0176 299.5032 , 183.0176 298.5032 , 181.0176 289.5032 , 196.0176 281.5032 , 191.0176 272.5032 , 181.0176 277.5032 , 199.0176 271.5032 , 190.0176 262.5032 , 198.0176 261.5032 , 192.0176 265.5032 , 193.0176 264.5032 , 196.0176 267.5032 , 189.0176 263.5032 , 195.0176 266.5032 , 197.0176 258.5032 , 199.0176 257.5032 , 189.0176 250.5032 , 181.0176 247.5032 , 192.0176 242.5032 , 194.0176 249.5032 , 192.0176 255.5032 , 195.0176 256.5032 , 186.0176 257.5032 , 199.0176 251.5032 , 184.0176 256.5032 , 196.0176 ">
</polygon><polygon 
stroke="rgb(72,162,165)"
fill="rgb(72,162,165)"
stroke-width="70"
stroke-linejoin="round" 
opacity="1"
points="135.9339 , 168.1912 127.9339 , 143.1912 147.9339 , 158.1912 145.9339 , 176.1912 153.9339 , 171.1912 163.9339 , 140.1912 175.9339 , 170.1912 156.9339 , 172.1912 165.9339 , 141.1912 182.9339 , 152.1912 198.9339 , 170.1912 195.9339 , 165.1912 187.9339 , 153.1912 186.9339 , 170.1912 177.9339 , 140.1912 194.9339 , 163.1912 214.9339 , 144.1912 232.9339 , 144.1912 231.9339 , 159.1912 238.9339 , 152.1912 245.9339 , 146.1912 ">
</polygon></svg>