<?xml version="1.0" encoding="iso-8859-1"?>
<svg version="1.1" id="Capa_1" xmlns="http://www.w3.org/2000/svg" xmlns:xlink="http://www.w3.org/1999/xlink" x="0px" y="0px"
viewBox="0 0 500 500" xml:space="preserve"><defs></defs><polygon 
stroke="rgb(158,138,80)"
fill="rgb(158,138,80)"
stroke-width="80"
stroke-linejoin="round" 
opacity="1"
points="240 , 174 219 , 190 216 , 156 244 , 181 247 , 156 223 , 184 213 , 142 183 , 191 198 , 194 200 , 187 226 , 194 ">
</polygon><polygon 
stroke="rgb(158,138,80)"
fill="rgb(158,138,80)"
stroke-width="70"
stroke-linejoin="round" 
opacity="1"
points="255 , 183 254 , 158 245 , 163 239 , 176 241 , 179 223 , 151 226 , 158 237 , 161 251 , 148 270 , 146 276 , 156 295 , 149 280 , 152 279 , 162 270 , 162 270 , 150 251 , 160 249 , 173 264 , 160 246 , 148 ">
</polygon><polygon 
stroke="rgb(148,128,70)"
fill="rgb(148,128,70)"
stroke-width="60"
stroke-linejoin="round" 
opacity="1"
points="264 , 163 268 , 166 274 , 161 267 , 176 257 , 171 247 , 162 249 , 170 257 , 159 265 , 176 259 , 173 265 , 164 ">
</polygon><polygon 
stroke="rgb(138,118,60)"
fill="rgb(138,118,60)"
stroke-width="80"
stroke-linejoin="round" 
opacity="1"
points="272.6125 , 200.10625 253.6125 , 212.10625 225.6125 , 215.10625 195.6125 , 245.10625 182.6125 , 199.10625 160.6125 , 212.10625 145.6125 , 194.10625 167.6125 , 194.10625 156.6125 , 231.10625 178.6125 , 195.10625 167.6125 , 194.10625 172.6125 , 200.10625 187.6125 , 239.10625 169.6125 , 190.10625 174.6125 , 232.10625 184.6125 , 223.10625 158.6125 , 221.10625 155.6125 , 227.10625 138.6125 , 240.10625 ">
</polygon><polygon 
stroke="rgb(138,118,60)"
fill="rgb(138,118,60)"
stroke-width="70"
stroke-linejoin="round" 
opacity="1"
points="290.6125 , 202.10625 309.6125 , 222.10625 318.6125 , 232.10625 324.6125 , 231.10625 326.6125 , 216.10625 314.6125 , 227.10625 326.6125 , 206.10625 320.6125 , 206.10625 324.6125 , 204.10625 342.6125 , 213.10625 351.6125 , 199.10625 361.6125 , 211.10625 355.6125 , 236.10625 362.6125 , 238.10625 357.6125 , 228.10625 ">
</polygon><polygon 
stroke="rgb(148,128,70)"
fill="rgb(148,128,70)"
stroke-width="60"
stroke-linejoin="round" 
opacity="1"
points="293.6125 , 220.10625 289.6125 , 217.10625 297.6125 , 228.10625 297.6125 , 218.10625 291.6125 , 208.10625 285.6125 , 228.10625 294.6125 , 225.10625 298.6125 , 208.10625 307.6125 , 216.10625 315.6125 , 215.10625 325.6125 , 218.10625 326.6125 , 220.10625 328.6125 , 222.10625 331.6125 , 221.10625 328.6125 , 209.10625 324.6125 , 220.10625 323.6125 , 224.10625 318.6125 , 215.10625 327.6125 , 212.10625 322.6125 , 213.10625 317.6125 , 224.10625 316.6125 , 224.10625 318.6125 , 214.10625 317.6125 , 226.10625 311.6125 , 213.10625 317.6125 , 209.10625 312.6125 , 226.10625 307.6125 , 222.10625 ">
</polygon><polygon 
stroke="rgb(158,138,80)"
fill="rgb(158,138,80)"
stroke-width="80"
stroke-linejoin="round" 
opacity="1"
points="248.6125 , 246.10625 234.6125 , 198.10625 216.6125 , 195.10625 202.6125 , 241.10625 201.6125 , 211.10625 173.6125 , 221.10625 189.6125 , 245.10625 187.6125 , 217.10625 176.6125 , 219.10625 203.6125 , 217.10625 190.6125 , 223.10625 179.6125 , 218.10625 187.6125 , 239.10625 180.6125 , 243.10625 156.6125 , 245.10625 ">
</polygon><polygon 
stroke="rgb(148,128,70)"
fill="rgb(148,128,70)"
stroke-width="70"
stroke-linejoin="round" 
opacity="1"
points="258.6125 , 200.10625 240.6125 , 203.10625 224.6125 , 209.10625 214.6125 , 218.10625 224.6125 , 213.10625 213.6125 , 201.10625 211.6125 , 232.10625 201.6125 , 199.10625 198.6125 , 205.10625 207.6125 , 219.10625 211.6125 , 219.10625 192.6125 , 218.10625 176.6125 , 234.10625 174.6125 , 217.10625 164.6125 , 223.10625 169.6125 , 223.10625 187.6125 , 236.10625 178.6125 , 229.10625 183.6125 , 221.10625 177.6125 , 220.10625 181.6125 , 230.10625 186.6125 , 206.10625 189.6125 , 220.10625 ">
</polygon><polygon 
stroke="rgb(158,138,80)"
fill="rgb(158,138,80)"
stroke-width="60"
stroke-linejoin="round" 
opacity="1"
points="247.6125 , 223.10625 250.6125 , 213.10625 246.6125 , 214.10625 237.6125 , 217.10625 231.6125 , 218.10625 225.6125 , 214.10625 235.6125 , 220.10625 232.6125 , 215.10625 233.6125 , 218.10625 230.6125 , 213.10625 221.6125 , 216.10625 224.6125 , 219.10625 223.6125 , 210.10625 231.6125 , 216.10625 228.6125 , 209.10625 234.6125 , 213.10625 229.6125 , 216.10625 225.6125 , 211.10625 228.6125 , 219.10625 231.6125 , 213.10625 227.6125 , 226.10625 222.6125 , 212.10625 224.6125 , 209.10625 227.6125 , 213.10625 230.6125 , 226.10625 224.6125 , 210.10625 221.6125 , 227.10625 220.6125 , 215.10625 220.6125 , 210.10625 ">
</polygon><polygon 
stroke="rgb(148,128,70)"
fill="rgb(148,128,70)"
stroke-width="70"
stroke-linejoin="round" 
opacity="1"
points="163.0576 , 209.1388 155.0576 , 228.1388 151.0576 , 193.1388 139.0576 , 203.1388 144.0576 , 200.1388 140.0576 , 200.1388 144.0576 , 208.1388 161.0576 , 196.1388 146.0576 , 224.1388 157.0576 , 229.1388 141.0576 , 223.1388 151.0576 , 208.1388 159.0576 , 200.1388 179.0576 , 230.1388 159.0576 , 205.1388 156.0576 , 203.1388 170.0576 , 197.1388 162.0576 , 226.1388 162.0576 , 219.1388 146.0576 , 208.1388 161.0576 , 206.1388 150.0576 , 219.1388 167.0576 , 206.1388 156.0576 , 197.1388 143.0576 , 199.1388 127.0576 , 195.1388 141.0576 , 211.1388 140.0576 , 190.1388 129.0576 , 199.1388 ">
</polygon><polygon 
stroke="rgb(148,128,70)"
fill="rgb(148,128,70)"
stroke-width="60"
stroke-linejoin="round" 
opacity="1"
points="150.0576 , 207.1388 150.0576 , 214.1388 154.0576 , 212.1388 149.0576 , 209.1388 152.0576 , 207.1388 154.0576 , 202.1388 151.0576 , 212.1388 158.0576 , 207.1388 151.0576 , 200.1388 151.0576 , 207.1388 148.0576 , 209.1388 146.0576 , 215.1388 136.0576 , 204.1388 128.0576 , 219.1388 136.0576 , 220.1388 134.0576 , 206.1388 137.0576 , 218.1388 133.0576 , 215.1388 129.0576 , 210.1388 130.0576 , 216.1388 128.0576 , 217.1388 127.0576 , 216.1388 131.0576 , 214.1388 126.0576 , 203.1388 133.0576 , 202.1388 124.0576 , 217.1388 ">
</polygon><polygon 
stroke="rgb(138,118,60)"
fill="rgb(138,118,60)"
stroke-width="70"
stroke-linejoin="round" 
opacity="1"
points="366.4432 , 225.6196 356.4432 , 227.6196 368.4432 , 236.6196 350.4432 , 235.6196 367.4432 , 252.6196 379.4432 , 241.6196 384.4432 , 259.6196 367.4432 , 256.6196 383.4432 , 225.6196 383.4432 , 258.6196 396.4432 , 249.6196 407.4432 , 230.6196 418.4432 , 243.6196 423.4432 , 235.6196 413.4432 , 231.6196 420.4432 , 244.6196 432.4432 , 238.6196 449.4432 , 232.6196 445.4432 , 219.6196 446.4432 , 229.6196 428.4432 , 249.6196 446.4432 , 244.6196 449.4432 , 228.6196 440.4432 , 249.6196 437.4432 , 241.6196 420.4432 , 241.6196 421.4432 , 239.6196 ">
</polygon><polygon 
stroke="rgb(138,118,60)"
fill="rgb(138,118,60)"
stroke-width="60"
stroke-linejoin="round" 
opacity="1"
points="374.4432 , 239.6196 384.4432 , 241.6196 383.4432 , 231.6196 384.4432 , 243.6196 383.4432 , 239.6196 374.4432 , 234.6196 366.4432 , 237.6196 358.4432 , 241.6196 348.4432 , 235.6196 340.4432 , 247.6196 337.4432 , 236.6196 340.4432 , 246.6196 350.4432 , 237.6196 342.4432 , 239.6196 342.4432 , 247.6196 345.4432 , 232.6196 345.4432 , 237.6196 355.4432 , 235.6196 ">
</polygon><polygon 
stroke="rgb(148,128,70)"
fill="rgb(148,128,70)"
stroke-width="80"
stroke-linejoin="round" 
opacity="1"
points="208.9177 , 189.51685 221.9177 , 166.51685 234.9177 , 162.51685 238.9177 , 183.51685 251.9177 , 149.51685 242.9177 , 197.51685 271.9177 , 193.51685 243.9177 , 159.51685 227.9177 , 194.51685 215.9177 , 193.51685 ">
</polygon><polygon 
stroke="rgb(138,118,60)"
fill="rgb(138,118,60)"
stroke-width="70"
stroke-linejoin="round" 
opacity="1"
points="218.9177 , 159.51685 207.9177 , 195.51685 225.9177 , 172.51685 240.9177 , 170.51685 246.9177 , 175.51685 237.9177 , 177.51685 227.9177 , 167.51685 207.9177 , 159.51685 198.9177 , 163.51685 184.9177 , 181.51685 164.9177 , 180.51685 154.9177 , 180.51685 138.9177 , 162.51685 148.9177 , 162.51685 135.9177 , 176.51685 146.9177 , 159.51685 141.9177 , 178.51685 153.9177 , 182.51685 146.9177 , 163.51685 154.9177 , 199.51685 148.9177 , 168.51685 134.9177 , 187.51685 146.9177 , 161.51685 ">
</polygon><polygon 
stroke="rgb(158,138,80)"
fill="rgb(158,138,80)"
stroke-width="60"
stroke-linejoin="round" 
opacity="1"
points="217.9177 , 174.51685 215.9177 , 185.51685 225.9177 , 182.51685 215.9177 , 185.51685 207.9177 , 188.51685 200.9177 , 173.51685 194.9177 , 173.51685 192.9177 , 171.51685 197.9177 , 182.51685 196.9177 , 171.51685 195.9177 , 182.51685 196.9177 , 183.51685 190.9177 , 184.51685 182.9177 , 175.51685 184.9177 , 185.51685 180.9177 , 172.51685 174.9177 , 169.51685 182.9177 , 188.51685 178.9177 , 176.51685 184.9177 , 176.51685 188.9177 , 171.51685 192.9177 , 178.51685 191.9177 , 183.51685 197.9177 , 186.51685 ">
</polygon><polygon 
stroke="rgb(158,138,80)"
fill="rgb(158,138,80)"
stroke-width="80"
stroke-linejoin="round" 
opacity="1"
points="156.4544 , 269.7152 161.4544 , 276.7152 136.4544 , 240.7152 118.4544 , 286.7152 127.4544 , 269.7152 154.4544 , 277.7152 167.4544 , 272.7152 195.4544 , 265.7152 184.4544 , 261.7152 165.4544 , 242.7152 178.4544 , 278.7152 188.4544 , 253.7152 158.4544 , 244.7152 137.4544 , 236.7152 150.4544 , 236.7152 148.4544 , 293.7152 139.4544 , 258.7152 116.4544 , 270.7152 ">
</polygon><polygon 
stroke="rgb(138,118,60)"
fill="rgb(138,118,60)"
stroke-width="70"
stroke-linejoin="round" 
opacity="1"
points="196.4544 , 245.7152 198.4544 , 268.7152 213.4544 , 280.7152 199.4544 , 274.7152 217.4544 , 263.7152 226.4544 , 283.7152 245.4544 , 279.7152 260.4544 , 252.7152 241.4544 , 258.7152 256.4544 , 266.7152 250.4544 , 272.7152 230.4544 , 258.7152 245.4544 , 278.7152 249.4544 , 266.7152 233.4544 , 268.7152 252.4544 , 245.7152 244.4544 , 267.7152 249.4544 , 283.7152 259.4544 , 277.7152 259.4544 , 277.7152 246.4544 , 273.7152 238.4544 , 279.7152 252.4544 , 279.7152 ">
</polygon><polygon 
stroke="rgb(158,138,80)"
fill="rgb(158,138,80)"
stroke-width="60"
stroke-linejoin="round" 
opacity="1"
points="187.4544 , 268.7152 179.4544 , 275.7152 173.4544 , 267.7152 176.4544 , 265.7152 181.4544 , 266.7152 178.4544 , 264.7152 181.4544 , 264.7152 183.4544 , 274.7152 187.4544 , 255.7152 181.4544 , 258.7152 187.4544 , 269.7152 196.4544 , 264.7152 ">
</polygon><polygon 
stroke="rgb(158,138,80)"
fill="rgb(158,138,80)"
stroke-width="80"
stroke-linejoin="round" 
opacity="1"
points="194.3999 , 229.91295 183.3999 , 228.91295 155.3999 , 220.91295 135.3999 , 208.91295 130.3999 , 212.91295 113.3999 , 221.91295 92.3999 , 228.91295 93.3999 , 208.91295 112.3999 , 253.91295 138.3999 , 268.91295 115.3999 , 219.91295 126.3999 , 216.91295 118.3999 , 229.91295 109.3999 , 244.91295 98.3999 , 211.91295 103.3999 , 229.91295 92.3999 , 264.91295 108.3999 , 211.91295 99.3999 , 212.91295 ">
</polygon><polygon 
stroke="rgb(138,118,60)"
fill="rgb(138,118,60)"
stroke-width="60"
stroke-linejoin="round" 
opacity="1"
points="208.3999 , 244.91295 211.3999 , 233.91295 214.3999 , 234.91295 205.3999 , 246.91295 202.3999 , 235.91295 205.3999 , 230.91295 196.3999 , 247.91295 193.3999 , 232.91295 196.3999 , 248.91295 197.3999 , 228.91295 202.3999 , 240.91295 200.3999 , 246.91295 192.3999 , 232.91295 194.3999 , 236.91295 ">
</polygon><polygon 
stroke="rgb(158,138,80)"
fill="rgb(158,138,80)"
stroke-width="80"
stroke-linejoin="round" 
opacity="1"
points="378.9248 , 147.8864 403.9248 , 168.8864 416.9248 , 203.8864 400.9248 , 190.8864 393.9248 , 148.8864 370.9248 , 196.8864 352.9248 , 154.8864 378.9248 , 153.8864 398.9248 , 144.8864 413.9248 , 204.8864 392.9248 , 175.8864 385.9248 , 192.8864 369.9248 , 180.8864 384.9248 , 177.8864 372.9248 , 178.8864 388.9248 , 166.8864 411.9248 , 195.8864 401.9248 , 153.8864 ">
</polygon><polygon 
stroke="rgb(148,128,70)"
fill="rgb(148,128,70)"
stroke-width="60"
stroke-linejoin="round" 
opacity="1"
points="362.9248 , 182.8864 362.9248 , 184.8864 370.9248 , 174.8864 361.9248 , 184.8864 361.9248 , 173.8864 359.9248 , 183.8864 362.9248 , 181.8864 367.9248 , 177.8864 364.9248 , 166.8864 365.9248 , 175.8864 363.9248 , 173.8864 362.9248 , 170.8864 359.9248 , 171.8864 350.9248 , 182.8864 ">
</polygon><polygon 
stroke="rgb(158,138,80)"
fill="rgb(158,138,80)"
stroke-width="80"
stroke-linejoin="round" 
opacity="1"
points="150.9248 , 232.8864 178.9248 , 197.8864 202.9248 , 237.8864 186.9248 , 230.8864 156.9248 , 249.8864 182.9248 , 223.8864 181.9248 , 205.8864 162.9248 , 222.8864 178.9248 , 212.8864 149.9248 , 243.8864 170.9248 , 230.8864 158.9248 , 220.8864 154.9248 , 232.8864 133.9248 , 217.8864 110.9248 , 197.8864 117.9248 , 219.8864 133.9248 , 206.8864 115.9248 , 203.8864 107.9248 , 248.8864 108.9248 , 208.8864 135.9248 , 230.8864 108.9248 , 218.8864 82.9248 , 252.8864 ">
</polygon><polygon 
stroke="rgb(138,118,60)"
fill="rgb(138,118,60)"
stroke-width="70"
stroke-linejoin="round" 
opacity="1"
points="196.9248 , 208.8864 203.9248 , 209.8864 210.9248 , 240.8864 229.9248 , 230.8864 236.9248 , 222.8864 237.9248 , 242.8864 222.9248 , 216.8864 241.9248 , 219.8864 237.9248 , 226.8864 228.9248 , 212.8864 240.9248 , 235.8864 ">
</polygon><polygon 
stroke="rgb(138,118,60)"
fill="rgb(138,118,60)"
stroke-width="60"
stroke-linejoin="round" 
opacity="1"
points="179.9248 , 216.8864 178.9248 , 223.8864 175.9248 , 218.8864 175.9248 , 232.8864 180.9248 , 231.8864 177.9248 , 216.8864 173.9248 , 228.8864 171.9248 , 232.8864 164.9248 , 228.8864 161.9248 , 231.8864 160.9248 , 233.8864 166.9248 , 225.8864 168.9248 , 222.8864 177.9248 , 220.8864 171.9248 , 226.8864 176.9248 , 235.8864 168.9248 , 227.8864 174.9248 , 222.8864 183.9248 , 216.8864 178.9248 , 221.8864 181.9248 , 227.8864 189.9248 , 221.8864 181.9248 , 229.8864 187.9248 , 221.8864 177.9248 , 235.8864 187.9248 , 227.8864 177.9248 , 236.8864 187.9248 , 228.8864 183.9248 , 221.8864 192.9248 , 235.8864 ">
</polygon><path d="M 240 480 c 8.8,-83.733333333333 7.3333333333333,-167.46666666667 22,-314 
C 288.33333333333,336.53333333333 289.8,420.26666666667 310,480
 " stroke="rgb(120,100,171)" stroke-linejoin="arcs"  stroke-width="5" fill="rgb(120,100,171)"/><path d="M 253.6125 265.10625 c 26.133333333333,-21.933333333333 16.333333333333,-21.933333333333 49,-47 
C 274.84583333333,249.04791666667 284.64583333333,249.04791666667 252.4432,282.6196
 " stroke="rgb(120,100,171)" stroke-linejoin="arcs"  stroke-width="5" fill="rgb(120,100,171)"/><path d="M 253.6125 265.10625 c -1.3333333333333,-25.6 -3,-25.6 -5,-48 
C 251.1125,245.50625 252.77916666667,245.50625 252.4432,282.6196
 " stroke="rgb(120,100,171)" stroke-linejoin="arcs"  stroke-width="5" fill="rgb(120,100,171)"/><path d="M 258.0576 208.1388 c -60.6,0.53333333333333 -20.2,0.8 -101,2 
C 247.9576,209.1888 207.5576,208.92213333333 256.3999,227.91295
 " stroke="rgb(120,100,171)" stroke-linejoin="arcs"  stroke-width="5" fill="rgb(120,100,171)"/><path d="M 252.4432 282.6196 c 15.333333333333,-11.466666666667 23,-11.466666666667 115,-43 
C 286.9432,276.52793333333 279.27653333333,276.52793333333 251.3971,299.47355
 " stroke="rgb(120,100,171)" stroke-linejoin="arcs"  stroke-width="5" fill="rgb(120,100,171)"/><path d="M 259.9177 187.51685 c -43,-1.0666666666667 -37.266666666667,-1.6 -43,-8 
C 226.95103333333,186.91685 221.2177,187.45018333333 258.0576,208.1388
 " stroke="rgb(120,100,171)" stroke-linejoin="arcs"  stroke-width="5" fill="rgb(120,100,171)"/><path d="M 250.4544 315.7152 c -4.4,-20 -44,-13.333333333333 -66,-50 
C 213.0544,308.63186666667 252.6544,301.9652 249.5953,331.39165
 " stroke="rgb(120,100,171)" stroke-linejoin="arcs"  stroke-width="5" fill="rgb(120,100,171)"/><path d="M 256.3999 227.91295 c -10,2.2 -30,5.1333333333333 -50,11 
C 231.3999,234.42128333333 251.3999,231.48795 254.9248,246.8864
 " stroke="rgb(120,100,171)" stroke-linejoin="arcs"  stroke-width="5" fill="rgb(120,100,171)"/><path d="M 254.9248 246.8864 c 94.266666666667,-19.2 80.8,-28.8 101,-72 
C 345.8248,227.0864 359.29146666667,236.6864 253.6125,265.10625
 " stroke="rgb(120,100,171)" stroke-linejoin="arcs"  stroke-width="5" fill="rgb(120,100,171)"/><path d="M 254.9248 246.8864 c -45,-2.6666666666667 -45,-5.3333333333333 -75,-20 
C 217.4248,244.05306666667 217.4248,246.71973333333 253.6125,265.10625
 " stroke="rgb(120,100,171)" stroke-linejoin="arcs"  stroke-width="5" fill="rgb(120,100,171)"/><polygon 
stroke="rgb(138,118,60)"
fill="rgb(138,118,60)"
stroke-width="80"
stroke-linejoin="round" 
opacity="1"
points="146.0576 , 185.1388 136.0576 , 205.1388 152.0576 , 218.1388 135.0576 , 229.1388 159.0576 , 218.1388 177.0576 , 189.1388 197.0576 , 201.1388 222.0576 , 239.1388 246.0576 , 189.1388 263.0576 , 189.1388 280.0576 , 182.1388 280.0576 , 213.1388 280.0576 , 215.1388 259.0576 , 225.1388 287.0576 , 198.1388 277.0576 , 240.1388 264.0576 , 199.1388 280.0576 , 198.1388 259.0576 , 231.1388 250.0576 , 239.1388 270.0576 , 240.1388 ">
</polygon><polygon 
stroke="rgb(138,118,60)"
fill="rgb(138,118,60)"
stroke-width="80"
stroke-linejoin="round" 
opacity="1"
points="373.4432 , 257.6196 343.4432 , 235.6196 355.4432 , 250.6196 382.4432 , 260.6196 378.4432 , 242.6196 380.4432 , 253.6196 357.4432 , 218.6196 330.4432 , 269.6196 302.4432 , 251.6196 295.4432 , 247.6196 309.4432 , 231.6196 327.4432 , 231.6196 300.4432 , 262.6196 290.4432 , 234.6196 273.4432 , 226.6196 267.4432 , 225.6196 269.4432 , 223.6196 278.4432 , 247.6196 ">
</polygon><polygon 
stroke="rgb(138,118,60)"
fill="rgb(138,118,60)"
stroke-width="70"
stroke-linejoin="round" 
opacity="1"
points="192.3999 , 253.91295 175.3999 , 258.91295 171.3999 , 243.91295 183.3999 , 230.91295 187.3999 , 254.91295 173.3999 , 233.91295 172.3999 , 231.91295 173.3999 , 240.91295 158.3999 , 235.91295 148.3999 , 225.91295 156.3999 , 239.91295 144.3999 , 252.91295 141.3999 , 220.91295 156.3999 , 230.91295 170.3999 , 256.91295 189.3999 , 220.91295 177.3999 , 234.91295 ">
</polygon><polygon 
stroke="rgb(138,118,60)"
fill="rgb(138,118,60)"
stroke-width="70"
stroke-linejoin="round" 
opacity="1"
points="375.9248 , 181.8864 374.9248 , 154.8864 372.9248 , 169.8864 385.9248 , 157.8864 383.9248 , 172.8864 394.9248 , 176.8864 393.9248 , 159.8864 383.9248 , 155.8864 394.9248 , 173.8864 392.9248 , 179.8864 389.9248 , 169.8864 388.9248 , 158.8864 373.9248 , 155.8864 ">
</polygon></svg>