<?xml version="1.0" encoding="iso-8859-1"?>
<svg version="1.1" id="Capa_1" xmlns="http://www.w3.org/2000/svg" xmlns:xlink="http://www.w3.org/1999/xlink" x="0px" y="0px"
viewBox="0 0 500 500" xml:space="preserve"><defs></defs><polygon 
stroke="rgb(117,165,125)"
fill="rgb(117,165,125)"
stroke-width="80"
stroke-linejoin="round" 
opacity="1"
points="310 , 165 331 , 137 350 , 168 352 , 171 348 , 140 373 , 157 358 , 175 363 , 169 371 , 151 401 , 145 424 , 133 407 , 126 415 , 147 440 , 145 449 , 143 449 , 181 441 , 160 423 , 124 397 , 142 372 , 139 397 , 124 415 , 134 435 , 138 435 , 180 429 , 178 405 , 168 397 , 179 ">
</polygon><polygon 
stroke="rgb(127,175,135)"
fill="rgb(127,175,135)"
stroke-width="60"
stroke-linejoin="round" 
opacity="1"
points="284 , 152 286 , 153 287 , 160 277 , 163 278 , 160 284 , 155 291 , 162 285 , 161 285 , 152 293 , 159 286 , 161 284 , 152 287 , 160 281 , 164 289 , 154 285 , 159 295 , 160 302 , 162 303 , 159 301 , 149 302 , 153 308 , 155 317 , 152 310 , 153 312 , 152 308 , 144 306 , 163 ">
</polygon><polygon 
stroke="rgb(107,155,115)"
fill="rgb(107,155,115)"
stroke-width="70"
stroke-linejoin="round" 
opacity="1"
points="388.50295 , 278.57445 375.50295 , 286.57445 355.50295 , 295.57445 364.50295 , 278.57445 380.50295 , 295.57445 381.50295 , 295.57445 387.50295 , 281.57445 403.50295 , 279.57445 408.50295 , 262.57445 426.50295 , 260.57445 430.50295 , 274.57445 434.50295 , 293.57445 440.50295 , 290.57445 439.50295 , 284.57445 421.50295 , 289.57445 401.50295 , 271.57445 409.50295 , 259.57445 414.50295 , 298.57445 ">
</polygon><polygon 
stroke="rgb(107,155,115)"
fill="rgb(107,155,115)"
stroke-width="60"
stroke-linejoin="round" 
opacity="1"
points="391.50295 , 272.57445 385.50295 , 279.57445 385.50295 , 284.57445 395.50295 , 288.57445 392.50295 , 282.57445 395.50295 , 277.57445 399.50295 , 283.57445 408.50295 , 269.57445 412.50295 , 285.57445 409.50295 , 274.57445 416.50295 , 284.57445 415.50295 , 283.57445 415.50295 , 279.57445 407.50295 , 269.57445 412.50295 , 286.57445 407.50295 , 274.57445 416.50295 , 279.57445 413.50295 , 283.57445 410.50295 , 277.57445 413.50295 , 283.57445 422.50295 , 281.57445 425.50295 , 276.57445 430.50295 , 286.57445 424.50295 , 279.57445 433.50295 , 277.57445 442.50295 , 285.57445 ">
</polygon><polygon 
stroke="rgb(107,155,115)"
fill="rgb(107,155,115)"
stroke-width="80"
stroke-linejoin="round" 
opacity="1"
points="293.98125 , 237.89375 300.98125 , 209.89375 322.98125 , 188.89375 352.98125 , 215.89375 372.98125 , 195.89375 398.98125 , 225.89375 368.98125 , 182.89375 391.98125 , 217.89375 373.98125 , 209.89375 376.98125 , 233.89375 402.98125 , 208.89375 ">
</polygon><polygon 
stroke="rgb(107,155,115)"
fill="rgb(107,155,115)"
stroke-width="70"
stroke-linejoin="round" 
opacity="1"
points="323.98125 , 218.89375 311.98125 , 230.89375 292.98125 , 225.89375 308.98125 , 196.89375 314.98125 , 229.89375 327.98125 , 195.89375 322.98125 , 220.89375 327.98125 , 215.89375 333.98125 , 222.89375 341.98125 , 229.89375 352.98125 , 230.89375 335.98125 , 230.89375 332.98125 , 226.89375 ">
</polygon><polygon 
stroke="rgb(127,175,135)"
fill="rgb(127,175,135)"
stroke-width="60"
stroke-linejoin="round" 
opacity="1"
points="309.98125 , 206.89375 302.98125 , 221.89375 297.98125 , 210.89375 300.98125 , 204.89375 295.98125 , 217.89375 296.98125 , 221.89375 303.98125 , 213.89375 310.98125 , 219.89375 318.98125 , 202.89375 323.98125 , 213.89375 325.98125 , 210.89375 321.98125 , 214.89375 330.98125 , 220.89375 326.98125 , 208.89375 ">
</polygon><polygon 
stroke="rgb(107,155,115)"
fill="rgb(107,155,115)"
stroke-width="80"
stroke-linejoin="round" 
opacity="1"
points="146.65 , 326.45 173.65 , 306.45 158.65 , 292.45 130.65 , 276.45 107.65 , 310.45 126.65 , 281.45 142.65 , 305.45 125.65 , 312.45 137.65 , 306.45 141.65 , 287.45 145.65 , 309.45 121.65 , 277.45 113.65 , 311.45 86.65 , 284.45 ">
</polygon><polygon 
stroke="rgb(107,155,115)"
fill="rgb(107,155,115)"
stroke-width="70"
stroke-linejoin="round" 
opacity="1"
points="161.65 , 302.45 180.65 , 303.45 188.65 , 319.45 172.65 , 318.45 161.65 , 292.45 167.65 , 287.45 147.65 , 281.45 161.65 , 294.45 147.65 , 312.45 130.65 , 293.45 144.65 , 285.45 ">
</polygon><polygon 
stroke="rgb(117,165,125)"
fill="rgb(117,165,125)"
stroke-width="60"
stroke-linejoin="round" 
opacity="1"
points="167.65 , 299.45 159.65 , 298.45 165.65 , 292.45 160.65 , 307.45 151.65 , 295.45 148.65 , 309.45 146.65 , 294.45 156.65 , 298.45 153.65 , 294.45 150.65 , 297.45 160.65 , 309.45 153.65 , 301.45 149.65 , 295.45 158.65 , 304.45 166.65 , 309.45 167.65 , 299.45 168.65 , 293.45 173.65 , 298.45 179.65 , 301.45 186.65 , 297.45 193.65 , 301.45 ">
</polygon><polygon 
stroke="rgb(117,165,125)"
fill="rgb(117,165,125)"
stroke-width="80"
stroke-linejoin="round" 
opacity="1"
points="363.2124 , 265.0764 356.2124 , 269.0764 377.2124 , 259.0764 388.2124 , 264.0764 375.2124 , 221.0764 367.2124 , 226.0764 384.2124 , 213.0764 397.2124 , 239.0764 378.2124 , 228.0764 376.2124 , 261.0764 379.2124 , 231.0764 377.2124 , 255.0764 371.2124 , 245.0764 370.2124 , 221.0764 364.2124 , 221.0764 338.2124 , 244.0764 327.2124 , 268.0764 356.2124 , 239.0764 333.2124 , 240.0764 324.2124 , 270.0764 339.2124 , 258.0764 ">
</polygon><polygon 
stroke="rgb(107,155,115)"
fill="rgb(107,155,115)"
stroke-width="70"
stroke-linejoin="round" 
opacity="1"
points="357.2124 , 260.0764 366.2124 , 232.0764 351.2124 , 250.0764 370.2124 , 242.0764 388.2124 , 236.0764 391.2124 , 245.0764 411.2124 , 251.0764 424.2124 , 260.0764 416.2124 , 244.0764 406.2124 , 222.0764 423.2124 , 258.0764 424.2124 , 233.0764 420.2124 , 222.0764 440.2124 , 240.0764 423.2124 , 243.0764 411.2124 , 220.0764 419.2124 , 257.0764 428.2124 , 249.0764 420.2124 , 235.0764 400.2124 , 231.0764 418.2124 , 251.0764 401.2124 , 238.0764 385.2124 , 248.0764 368.2124 , 234.0764 385.2124 , 229.0764 ">
</polygon><polygon 
stroke="rgb(107,155,115)"
fill="rgb(107,155,115)"
stroke-width="80"
stroke-linejoin="round" 
opacity="1"
points="303.7252 , 164.7492 302.7252 , 179.7492 294.7252 , 157.7492 265.7252 , 146.7492 258.7252 , 184.7492 259.7252 , 174.7492 259.7252 , 185.7492 284.7252 , 155.7492 275.7252 , 131.7492 292.7252 , 184.7492 270.7252 , 144.7492 249.7252 , 168.7492 277.7252 , 183.7492 255.7252 , 144.7492 248.7252 , 183.7492 232.7252 , 175.7492 257.7252 , 174.7492 257.7252 , 182.7492 246.7252 , 149.7492 239.7252 , 150.7492 245.7252 , 155.7492 218.7252 , 172.7492 199.7252 , 156.7492 197.7252 , 133.7492 179.7252 , 167.7492 ">
</polygon><polygon 
stroke="rgb(117,165,125)"
fill="rgb(117,165,125)"
stroke-width="70"
stroke-linejoin="round" 
opacity="1"
points="285.7252 , 164.7492 298.7252 , 158.7492 297.7252 , 150.7492 284.7252 , 176.7492 278.7252 , 172.7492 287.7252 , 178.7492 285.7252 , 143.7492 298.7252 , 147.7492 310.7252 , 159.7492 292.7252 , 173.7492 312.7252 , 152.7492 322.7252 , 163.7492 332.7252 , 158.7492 ">
</polygon><polygon 
stroke="rgb(127,175,135)"
fill="rgb(127,175,135)"
stroke-width="60"
stroke-linejoin="round" 
opacity="1"
points="293.7252 , 153.7492 295.7252 , 167.7492 298.7252 , 163.7492 305.7252 , 164.7492 310.7252 , 165.7492 320.7252 , 162.7492 329.7252 , 151.7492 325.7252 , 160.7492 321.7252 , 154.7492 317.7252 , 155.7492 324.7252 , 169.7492 328.7252 , 155.7492 337.7252 , 158.7492 ">
</polygon><polygon 
stroke="rgb(117,165,125)"
fill="rgb(117,165,125)"
stroke-width="80"
stroke-linejoin="round" 
opacity="1"
points="375.22985 , 258.71235 394.22985 , 224.71235 409.22985 , 266.71235 389.22985 , 259.71235 412.22985 , 278.71235 427.22985 , 246.71235 424.22985 , 251.71235 441.22985 , 239.71235 413.22985 , 284.71235 423.22985 , 275.71235 446.22985 , 236.71235 422.22985 , 227.71235 422.22985 , 227.71235 424.22985 , 255.71235 396.22985 , 268.71235 421.22985 , 272.71235 447.22985 , 267.71235 440.22985 , 262.71235 442.22985 , 284.71235 433.22985 , 237.71235 433.22985 , 234.71235 414.22985 , 266.71235 ">
</polygon><polygon 
stroke="rgb(117,165,125)"
fill="rgb(117,165,125)"
stroke-width="70"
stroke-linejoin="round" 
opacity="1"
points="369.22985 , 269.71235 378.22985 , 240.71235 382.22985 , 245.71235 370.22985 , 246.71235 384.22985 , 245.71235 395.22985 , 253.71235 383.22985 , 240.71235 390.22985 , 241.71235 381.22985 , 268.71235 387.22985 , 264.71235 380.22985 , 251.71235 393.22985 , 256.71235 395.22985 , 263.71235 387.22985 , 266.71235 367.22985 , 262.71235 354.22985 , 239.71235 353.22985 , 236.71235 353.22985 , 242.71235 334.22985 , 269.71235 314.22985 , 256.71235 302.22985 , 246.71235 295.22985 , 257.71235 294.22985 , 253.71235 307.22985 , 246.71235 302.22985 , 240.71235 317.22985 , 252.71235 301.22985 , 253.71235 ">
</polygon><polygon 
stroke="rgb(117,165,125)"
fill="rgb(117,165,125)"
stroke-width="60"
stroke-linejoin="round" 
opacity="1"
points="379.22985 , 252.71235 385.22985 , 263.71235 382.22985 , 255.71235 375.22985 , 245.71235 370.22985 , 248.71235 369.22985 , 251.71235 361.22985 , 244.71235 371.22985 , 252.71235 374.22985 , 259.71235 374.22985 , 261.71235 371.22985 , 258.71235 375.22985 , 259.71235 380.22985 , 247.71235 389.22985 , 260.71235 380.22985 , 244.71235 384.22985 , 248.71235 ">
</polygon><polygon 
stroke="rgb(107,155,115)"
fill="rgb(107,155,115)"
stroke-width="70"
stroke-linejoin="round" 
opacity="1"
points="424.81265 , 124.33915 438.81265 , 117.33915 434.81265 , 94.33915 437.81265 , 105.33915 427.81265 , 94.33915 440.81265 , 93.33915 436.81265 , 129.33915 416.81265 , 120.33915 429.81265 , 102.33915 427.81265 , 127.33915 413.81265 , 113.33915 407.81265 , 122.33915 417.81265 , 96.33915 434.81265 , 118.33915 449.81265 , 106.33915 436.81265 , 100.33915 ">
</polygon><polygon 
stroke="rgb(107,155,115)"
fill="rgb(107,155,115)"
stroke-width="60"
stroke-linejoin="round" 
opacity="1"
points="431.81265 , 105.33915 431.81265 , 112.33915 438.81265 , 110.33915 437.81265 , 106.33915 432.81265 , 109.33915 425.81265 , 103.33915 431.81265 , 123.33915 427.81265 , 119.33915 418.81265 , 118.33915 428.81265 , 118.33915 424.81265 , 103.33915 419.81265 , 104.33915 411.81265 , 109.33915 403.81265 , 113.33915 410.81265 , 107.33915 408.81265 , 111.33915 400.81265 , 114.33915 404.81265 , 116.33915 400.81265 , 111.33915 402.81265 , 107.33915 408.81265 , 116.33915 405.81265 , 123.33915 404.81265 , 112.33915 409.81265 , 116.33915 416.81265 , 115.33915 420.81265 , 121.33915 ">
</polygon><polygon 
stroke="rgb(127,175,135)"
fill="rgb(127,175,135)"
stroke-width="60"
stroke-linejoin="round" 
opacity="1"
points="308.98125 , 219.89375 318.98125 , 219.89375 315.98125 , 219.89375 324.98125 , 215.89375 330.98125 , 220.89375 323.98125 , 224.89375 329.98125 , 232.89375 329.98125 , 223.89375 339.98125 , 217.89375 349.98125 , 224.89375 355.98125 , 228.89375 361.98125 , 219.89375 361.98125 , 230.89375 351.98125 , 222.89375 356.98125 , 224.89375 364.98125 , 222.89375 371.98125 , 231.89375 380.98125 , 221.89375 381.98125 , 221.89375 374.98125 , 213.89375 365.98125 , 232.89375 357.98125 , 225.89375 366.98125 , 233.89375 367.98125 , 229.89375 366.98125 , 214.89375 373.98125 , 226.89375 368.98125 , 230.89375 372.98125 , 232.89375 375.98125 , 213.89375 ">
</polygon><polygon 
stroke="rgb(107,155,115)"
fill="rgb(107,155,115)"
stroke-width="70"
stroke-linejoin="round" 
opacity="1"
points="392.7252 , 176.7492 406.7252 , 193.7492 423.7252 , 187.7492 406.7252 , 177.7492 405.7252 , 188.7492 408.7252 , 181.7492 424.7252 , 187.7492 440.7252 , 207.7492 437.7252 , 179.7492 447.7252 , 181.7492 432.7252 , 174.7492 432.7252 , 173.7492 416.7252 , 195.7492 416.7252 , 179.7492 407.7252 , 179.7492 389.7252 , 183.7492 380.7252 , 203.7492 365.7252 , 173.7492 345.7252 , 170.7492 343.7252 , 200.7492 346.7252 , 190.7492 339.7252 , 191.7492 346.7252 , 202.7492 ">
</polygon><polygon 
stroke="rgb(117,165,125)"
fill="rgb(117,165,125)"
stroke-width="60"
stroke-linejoin="round" 
opacity="1"
points="378.7252 , 190.7492 370.7252 , 179.7492 366.7252 , 188.7492 371.7252 , 178.7492 369.7252 , 182.7492 367.7252 , 183.7492 358.7252 , 185.7492 367.7252 , 191.7492 368.7252 , 179.7492 358.7252 , 187.7492 362.7252 , 188.7492 371.7252 , 191.7492 379.7252 , 188.7492 384.7252 , 187.7492 382.7252 , 183.7492 372.7252 , 194.7492 368.7252 , 180.7492 366.7252 , 177.7492 363.7252 , 182.7492 357.7252 , 193.7492 352.7252 , 188.7492 ">
</polygon><path d="M 240 480 c 18,-86.933333333333 32.4,-173.86666666667 54,-326 
C 317.4,326.13333333333 303,413.06666666667 313,480
 " stroke="rgb(112,70,94)" stroke-linejoin="arcs"  stroke-width="5" fill="rgb(112,70,94)"/><path d="M 273.50295 292.57445 c 109.2,-2.8 46.8,-7.4666666666667 117,-14 
C 332.00295,286.85778333333 394.40295,291.52445 270.8448,309.4368
 " stroke="rgb(112,70,94)" stroke-linejoin="arcs"  stroke-width="5" fill="rgb(112,70,94)"/><path d="M 278.98125 256.89375 c 18.333333333333,-8.8 18.333333333333,-20.533333333333 25,-44 
C 299.81458333333,241.86041666667 299.81458333333,253.59375 276.2124,275.0764
 " stroke="rgb(112,70,94)" stroke-linejoin="arcs"  stroke-width="5" fill="rgb(112,70,94)"/><path d="M 265.65 341.45 c -60,-16.8 -66,-11.2 -90,-42 
C 208.65,335.5 214.65,329.9 263.09715,356.69865
 " stroke="rgb(112,70,94)" stroke-linejoin="arcs"  stroke-width="5" fill="rgb(112,70,94)"/><path d="M 276.2124 275.0764 c 13.333333333333,-11.666666666667 80,-9.3333333333333 100,-35 
C 366.2124,270.11806666667 299.54573333333,267.78473333333 273.50295,292.57445
 " stroke="rgb(112,70,94)" stroke-linejoin="arcs"  stroke-width="5" fill="rgb(112,70,94)"/><path d="M 287.7252 197.7492 c 5.1333333333333,-4.9333333333333 8.0666666666667,-4.9333333333333 11,-37 
C 296.89186666667,197.44086666667 293.95853333333,197.44086666667 284.72955,218.27905
 " stroke="rgb(112,70,94)" stroke-linejoin="arcs"  stroke-width="5" fill="rgb(112,70,94)"/><path d="M 268.22985 325.71235 c 60.266666666667,-14.2 52.733333333333,-28.4 113,-71 
C 332.26318333333,306.18735 339.79651666667,320.38735 265.65,341.45
 " stroke="rgb(112,70,94)" stroke-linejoin="arcs"  stroke-width="5" fill="rgb(112,70,94)"/><path d="M 290.81265 176.33915 c 119.6,-29.4 138,-8.4 138,-63 
C 442.61265,175.81415 424.21265,154.81415 287.7252,197.7492
 " stroke="rgb(112,70,94)" stroke-linejoin="arcs"  stroke-width="5" fill="rgb(112,70,94)"/><path d="M 278.98125 256.89375 c 11.2,-15.4 22.4,-15.4 24,-33 
C 303.78125,245.61875 292.58125,245.61875 276.2124,275.0764
 " stroke="rgb(112,70,94)" stroke-linejoin="arcs"  stroke-width="5" fill="rgb(112,70,94)"/><path d="M 287.7252 197.7492 c 25.333333333333,-5.3333333333333 69.666666666667,-2 95,-10 
C 366.89186666667,196.9992 322.55853333333,193.66586666667 284.72955,218.27905
 " stroke="rgb(112,70,94)" stroke-linejoin="arcs"  stroke-width="5" fill="rgb(112,70,94)"/><polygon 
stroke="rgb(117,165,125)"
fill="rgb(117,165,125)"
stroke-width="70"
stroke-linejoin="round" 
opacity="1"
points="298 , 162 311 , 152 313 , 157 331 , 137 329 , 148 345 , 139 333 , 135 323 , 168 310 , 157 298 , 153 279 , 169 259 , 166 ">
</polygon><polygon 
stroke="rgb(107,155,115)"
fill="rgb(107,155,115)"
stroke-width="80"
stroke-linejoin="round" 
opacity="1"
points="416.50295 , 304.57445 393.50295 , 263.57445 393.50295 , 286.57445 368.50295 , 261.57445 340.50295 , 259.57445 312.50295 , 301.57445 330.50295 , 248.57445 308.50295 , 255.57445 338.50295 , 270.57445 354.50295 , 277.57445 365.50295 , 249.57445 373.50295 , 302.57445 370.50295 , 280.57445 397.50295 , 305.57445 398.50295 , 253.57445 378.50295 , 252.57445 407.50295 , 250.57445 378.50295 , 307.57445 373.50295 , 290.57445 346.50295 , 276.57445 ">
</polygon><polygon 
stroke="rgb(117,165,125)"
fill="rgb(117,165,125)"
stroke-width="60"
stroke-linejoin="round" 
opacity="1"
points="375.2124 , 241.0764 382.2124 , 234.0764 379.2124 , 250.0764 371.2124 , 241.0764 378.2124 , 238.0764 387.2124 , 242.0764 394.2124 , 239.0764 393.2124 , 249.0764 393.2124 , 231.0764 396.2124 , 249.0764 ">
</polygon><polygon 
stroke="rgb(117,165,125)"
fill="rgb(117,165,125)"
stroke-width="80"
stroke-linejoin="round" 
opacity="1"
points="447.81265 , 117.33915 446.81265 , 120.33915 417.81265 , 88.33915 447.81265 , 137.33915 448.81265 , 103.33915 443.81265 , 106.33915 447.81265 , 142.33915 445.81265 , 85.33915 439.81265 , 86.33915 441.81265 , 138.33915 449.81265 , 105.33915 442.81265 , 92.33915 425.81265 , 134.33915 442.81265 , 122.33915 428.81265 , 127.33915 421.81265 , 121.33915 437.81265 , 111.33915 424.81265 , 97.33915 431.81265 , 93.33915 441.81265 , 102.33915 ">
</polygon><polygon 
stroke="rgb(117,165,125)"
fill="rgb(117,165,125)"
stroke-width="80"
stroke-linejoin="round" 
opacity="1"
points="331.98125 , 243.89375 333.98125 , 206.89375 354.98125 , 246.89375 341.98125 , 242.89375 369.98125 , 206.89375 376.98125 , 239.89375 357.98125 , 236.89375 376.98125 , 238.89375 372.98125 , 235.89375 356.98125 , 193.89375 368.98125 , 218.89375 374.98125 , 229.89375 377.98125 , 195.89375 386.98125 , 196.89375 402.98125 , 244.89375 411.98125 , 241.89375 ">
</polygon><polygon 
stroke="rgb(117,165,125)"
fill="rgb(117,165,125)"
stroke-width="70"
stroke-linejoin="round" 
opacity="1"
points="287.98125 , 216.89375 305.98125 , 218.89375 300.98125 , 218.89375 299.98125 , 242.89375 289.98125 , 224.89375 280.98125 , 241.89375 276.98125 , 203.89375 258.98125 , 210.89375 244.98125 , 214.89375 255.98125 , 239.89375 263.98125 , 214.89375 257.98125 , 232.89375 276.98125 , 212.89375 281.98125 , 224.89375 291.98125 , 205.89375 293.98125 , 235.89375 287.98125 , 212.89375 296.98125 , 232.89375 297.98125 , 218.89375 309.98125 , 224.89375 300.98125 , 228.89375 297.98125 , 207.89375 308.98125 , 214.89375 ">
</polygon><polygon 
stroke="rgb(117,165,125)"
fill="rgb(117,165,125)"
stroke-width="80"
stroke-linejoin="round" 
opacity="1"
points="357.7252 , 190.7492 341.7252 , 202.7492 367.7252 , 198.7492 380.7252 , 190.7492 370.7252 , 159.7492 354.7252 , 203.7492 351.7252 , 210.7492 327.7252 , 178.7492 357.7252 , 215.7492 340.7252 , 210.7492 318.7252 , 182.7492 328.7252 , 179.7492 347.7252 , 173.7492 368.7252 , 189.7492 349.7252 , 189.7492 345.7252 , 178.7492 ">
</polygon></svg>