<?xml version="1.0" encoding="iso-8859-1"?>
<svg version="1.1" id="Capa_1" xmlns="http://www.w3.org/2000/svg" xmlns:xlink="http://www.w3.org/1999/xlink" x="0px" y="0px"
viewBox="0 0 500 500" xml:space="preserve"><defs></defs><polygon 
stroke="rgb(172,104,134)"
fill="rgb(172,104,134)"
stroke-width="60"
stroke-linejoin="round" 
opacity="1"
points="296 , 176 301 , 167 294 , 174 294 , 164 291 , 176 293 , 176 291 , 169 288 , 173 290 , 168 300 , 165 305 , 179 305 , 179 295 , 164 303 , 167 310 , 173 ">
</polygon><polygon 
stroke="rgb(182,114,144)"
fill="rgb(182,114,144)"
stroke-width="80"
stroke-linejoin="round" 
opacity="1"
points="206.87875 , 347.8832 206.87875 , 375.8832 217.87875 , 351.8832 222.87875 , 350.8832 196.87875 , 351.8832 200.87875 , 349.8832 204.87875 , 366.8832 226.87875 , 335.8832 205.87875 , 334.8832 218.87875 , 376.8832 238.87875 , 337.8832 214.87875 , 352.8832 189.87875 , 351.8832 205.87875 , 361.8832 219.87875 , 378.8832 197.87875 , 326.8832 ">
</polygon><polygon 
stroke="rgb(182,114,144)"
fill="rgb(182,114,144)"
stroke-width="70"
stroke-linejoin="round" 
opacity="1"
points="209.87875 , 336.8832 215.87875 , 376.8832 208.87875 , 364.8832 202.87875 , 345.8832 183.87875 , 342.8832 165.87875 , 342.8832 147.87875 , 340.8832 147.87875 , 356.8832 127.87875 , 347.8832 132.87875 , 363.8832 147.87875 , 336.8832 132.87875 , 364.8832 113.87875 , 371.8832 118.87875 , 356.8832 115.87875 , 336.8832 107.87875 , 353.8832 114.87875 , 375.8832 95.87875 , 368.8832 78.87875 , 370.8832 92.87875 , 369.8832 109.87875 , 367.8832 94.87875 , 375.8832 87.87875 , 355.8832 90.87875 , 354.8832 106.87875 , 369.8832 108.87875 , 369.8832 121.87875 , 351.8832 113.87875 , 349.8832 ">
</polygon><polygon 
stroke="rgb(182,114,144)"
fill="rgb(182,114,144)"
stroke-width="60"
stroke-linejoin="round" 
opacity="1"
points="204.87875 , 362.8832 208.87875 , 347.8832 216.87875 , 348.8832 221.87875 , 361.8832 214.87875 , 361.8832 224.87875 , 360.8832 225.87875 , 354.8832 233.87875 , 365.8832 232.87875 , 365.8832 226.87875 , 360.8832 236.87875 , 348.8832 226.87875 , 364.8832 230.87875 , 347.8832 224.87875 , 347.8832 219.87875 , 350.8832 213.87875 , 365.8832 223.87875 , 362.8832 227.87875 , 362.8832 236.87875 , 347.8832 ">
</polygon><polygon 
stroke="rgb(172,104,134)"
fill="rgb(172,104,134)"
stroke-width="70"
stroke-linejoin="round" 
opacity="1"
points="271.24 , 324.6928 265.24 , 341.6928 283.24 , 326.6928 264.24 , 329.6928 262.24 , 325.6928 250.24 , 351.6928 270.24 , 340.6928 268.24 , 349.6928 254.24 , 320.6928 238.24 , 353.6928 232.24 , 318.6928 219.24 , 333.6928 201.24 , 325.6928 189.24 , 324.6928 197.24 , 338.6928 181.24 , 345.6928 163.24 , 344.6928 145.24 , 323.6928 147.24 , 315.6928 141.24 , 315.6928 146.24 , 349.6928 143.24 , 331.6928 129.24 , 353.6928 134.24 , 324.6928 126.24 , 327.6928 137.24 , 328.6928 140.24 , 322.6928 159.24 , 331.6928 169.24 , 338.6928 ">
</polygon><polygon 
stroke="rgb(172,104,134)"
fill="rgb(172,104,134)"
stroke-width="80"
stroke-linejoin="round" 
opacity="1"
points="365.75 , 373.75 384.75 , 331.75 390.75 , 359.75 406.75 , 340.75 421.75 , 342.75 421.75 , 359.75 397.75 , 329.75 422.75 , 331.75 436.75 , 354.75 437.75 , 364.75 423.75 , 368.75 399.75 , 362.75 370.75 , 347.75 348.75 , 357.75 321.75 , 361.75 331.75 , 324.75 343.75 , 327.75 316.75 , 351.75 324.75 , 328.75 349.75 , 323.75 342.75 , 361.75 341.75 , 351.75 353.75 , 377.75 337.75 , 331.75 ">
</polygon><polygon 
stroke="rgb(162,94,124)"
fill="rgb(162,94,124)"
stroke-width="60"
stroke-linejoin="round" 
opacity="1"
points="327.75 , 360.75 319.75 , 351.75 311.75 , 354.75 319.75 , 355.75 325.75 , 347.75 335.75 , 361.75 330.75 , 361.75 329.75 , 350.75 322.75 , 344.75 323.75 , 352.75 325.75 , 348.75 331.75 , 357.75 328.75 , 354.75 320.75 , 353.75 310.75 , 357.75 306.75 , 347.75 301.75 , 360.75 293.75 , 346.75 290.75 , 345.75 287.75 , 359.75 292.75 , 351.75 284.75 , 354.75 282.75 , 341.75 277.75 , 354.75 281.75 , 350.75 279.75 , 354.75 279.75 , 351.75 274.75 , 345.75 283.75 , 348.75 ">
</polygon><polygon 
stroke="rgb(182,114,144)"
fill="rgb(182,114,144)"
stroke-width="80"
stroke-linejoin="round" 
opacity="1"
points="269.97 , 290.9724 278.97 , 306.9724 263.97 , 261.9724 247.97 , 303.9724 265.97 , 302.9724 274.97 , 269.9724 284.97 , 308.9724 314.97 , 311.9724 337.97 , 295.9724 346.97 , 274.9724 336.97 , 267.9724 355.97 , 311.9724 347.97 , 300.9724 368.97 , 298.9724 383.97 , 281.9724 376.97 , 302.9724 360.97 , 266.9724 350.97 , 271.9724 352.97 , 321.9724 335.97 , 296.9724 343.97 , 301.9724 373.97 , 299.9724 383.97 , 291.9724 389.97 , 293.9724 401.97 , 302.9724 386.97 , 318.9724 378.97 , 304.9724 ">
</polygon><polygon 
stroke="rgb(162,94,124)"
fill="rgb(162,94,124)"
stroke-width="70"
stroke-linejoin="round" 
opacity="1"
points="261.97 , 273.9724 260.97 , 301.9724 264.97 , 296.9724 265.97 , 302.9724 254.97 , 288.9724 272.97 , 281.9724 259.97 , 311.9724 252.97 , 271.9724 257.97 , 289.9724 247.97 , 308.9724 258.97 , 290.9724 262.97 , 286.9724 277.97 , 272.9724 262.97 , 299.9724 281.97 , 302.9724 265.97 , 285.9724 252.97 , 296.9724 262.97 , 278.9724 269.97 , 272.9724 275.97 , 282.9724 270.97 , 293.9724 253.97 , 304.9724 ">
</polygon><polygon 
stroke="rgb(172,104,134)"
fill="rgb(172,104,134)"
stroke-width="60"
stroke-linejoin="round" 
opacity="1"
points="260.97 , 296.9724 266.97 , 296.9724 269.97 , 283.9724 262.97 , 296.9724 252.97 , 294.9724 245.97 , 282.9724 244.97 , 296.9724 247.97 , 296.9724 250.97 , 294.9724 250.97 , 286.9724 260.97 , 295.9724 255.97 , 297.9724 253.97 , 283.9724 ">
</polygon><polygon 
stroke="rgb(162,94,124)"
fill="rgb(162,94,124)"
stroke-width="80"
stroke-linejoin="round" 
opacity="1"
points="367.87875 , 333.8832 388.87875 , 328.8832 358.87875 , 340.8832 372.87875 , 311.8832 396.87875 , 328.8832 378.87875 , 306.8832 400.87875 , 314.8832 392.87875 , 333.8832 384.87875 , 331.8832 394.87875 , 321.8832 402.87875 , 332.8832 419.87875 , 309.8832 404.87875 , 306.8832 382.87875 , 315.8832 369.87875 , 304.8832 378.87875 , 341.8832 398.87875 , 323.8832 ">
</polygon><polygon 
stroke="rgb(182,114,144)"
fill="rgb(182,114,144)"
stroke-width="70"
stroke-linejoin="round" 
opacity="1"
points="349.87875 , 305.8832 345.87875 , 323.8832 350.87875 , 312.8832 350.87875 , 331.8832 349.87875 , 298.8832 345.87875 , 320.8832 327.87875 , 305.8832 325.87875 , 329.8832 309.87875 , 304.8832 314.87875 , 291.8832 334.87875 , 305.8832 353.87875 , 304.8832 367.87875 , 327.8832 353.87875 , 324.8832 370.87875 , 312.8832 350.87875 , 305.8832 350.87875 , 303.8832 352.87875 , 293.8832 340.87875 , 300.8832 337.87875 , 309.8832 345.87875 , 327.8832 364.87875 , 297.8832 361.87875 , 295.8832 378.87875 , 320.8832 393.87875 , 295.8832 383.87875 , 302.8832 390.87875 , 291.8832 372.87875 , 292.8832 359.87875 , 319.8832 ">
</polygon><polygon 
stroke="rgb(162,94,124)"
fill="rgb(162,94,124)"
stroke-width="80"
stroke-linejoin="round" 
opacity="1"
points="350.20125 , 113.4114 347.20125 , 161.4114 321.20125 , 116.4114 335.20125 , 154.4114 344.20125 , 106.4114 369.20125 , 163.4114 393.20125 , 124.4114 402.20125 , 131.4114 387.20125 , 146.4114 404.20125 , 157.4114 427.20125 , 127.4114 411.20125 , 144.4114 436.20125 , 161.4114 440.20125 , 162.4114 410.20125 , 153.4114 437.20125 , 151.4114 432.20125 , 112.4114 442.20125 , 106.4114 423.20125 , 125.4114 445.20125 , 127.4114 418.20125 , 131.4114 399.20125 , 152.4114 423.20125 , 118.4114 418.20125 , 116.4114 421.20125 , 143.4114 439.20125 , 110.4114 432.20125 , 138.4114 ">
</polygon><polygon 
stroke="rgb(182,114,144)"
fill="rgb(182,114,144)"
stroke-width="70"
stroke-linejoin="round" 
opacity="1"
points="330.20125 , 134.4114 341.20125 , 136.4114 351.20125 , 119.4114 358.20125 , 137.4114 351.20125 , 134.4114 362.20125 , 155.4114 362.20125 , 119.4114 361.20125 , 149.4114 358.20125 , 148.4114 355.20125 , 142.4114 355.20125 , 133.4114 350.20125 , 138.4114 360.20125 , 123.4114 361.20125 , 121.4114 377.20125 , 123.4114 368.20125 , 115.4114 366.20125 , 118.4114 378.20125 , 154.4114 363.20125 , 120.4114 373.20125 , 132.4114 369.20125 , 130.4114 382.20125 , 145.4114 380.20125 , 131.4114 366.20125 , 118.4114 386.20125 , 116.4114 366.20125 , 129.4114 359.20125 , 152.4114 362.20125 , 147.4114 361.20125 , 135.4114 ">
</polygon><polygon 
stroke="rgb(162,94,124)"
fill="rgb(162,94,124)"
stroke-width="60"
stroke-linejoin="round" 
opacity="1"
points="350.20125 , 142.4114 357.20125 , 134.4114 363.20125 , 141.4114 365.20125 , 132.4114 355.20125 , 125.4114 356.20125 , 142.4114 363.20125 , 141.4114 367.20125 , 138.4114 367.20125 , 131.4114 375.20125 , 142.4114 367.20125 , 125.4114 364.20125 , 138.4114 370.20125 , 143.4114 373.20125 , 142.4114 ">
</polygon><polygon 
stroke="rgb(182,114,144)"
fill="rgb(182,114,144)"
stroke-width="80"
stroke-linejoin="round" 
opacity="1"
points="303.38375 , 192.7788 285.38375 , 219.7788 259.38375 , 188.7788 287.38375 , 197.7788 305.38375 , 191.7788 296.38375 , 220.7788 273.38375 , 217.7788 281.38375 , 174.7788 257.38375 , 209.7788 270.38375 , 221.7788 260.38375 , 208.7788 257.38375 , 218.7788 278.38375 , 173.7788 300.38375 , 182.7788 326.38375 , 220.7788 299.38375 , 202.7788 283.38375 , 192.7788 266.38375 , 185.7788 263.38375 , 223.7788 290.38375 , 197.7788 307.38375 , 197.7788 289.38375 , 216.7788 281.38375 , 192.7788 271.38375 , 175.7788 251.38375 , 167.7788 ">
</polygon><polygon 
stroke="rgb(182,114,144)"
fill="rgb(182,114,144)"
stroke-width="70"
stroke-linejoin="round" 
opacity="1"
points="320.38375 , 194.7788 328.38375 , 206.7788 329.38375 , 175.7788 326.38375 , 185.7788 306.38375 , 201.7788 318.38375 , 198.7788 320.38375 , 180.7788 340.38375 , 194.7788 352.38375 , 192.7788 340.38375 , 206.7788 335.38375 , 196.7788 349.38375 , 207.7788 355.38375 , 213.7788 ">
</polygon><polygon 
stroke="rgb(182,114,144)"
fill="rgb(182,114,144)"
stroke-width="60"
stroke-linejoin="round" 
opacity="1"
points="304.38375 , 191.7788 295.38375 , 201.7788 298.38375 , 204.7788 297.38375 , 185.7788 297.38375 , 192.7788 304.38375 , 186.7788 311.38375 , 196.7788 316.38375 , 193.7788 319.38375 , 195.7788 324.38375 , 199.7788 318.38375 , 199.7788 317.38375 , 190.7788 317.38375 , 185.7788 314.38375 , 188.7788 313.38375 , 196.7788 311.38375 , 196.7788 307.38375 , 196.7788 317.38375 , 189.7788 326.38375 , 204.7788 ">
</polygon><polygon 
stroke="rgb(162,94,124)"
fill="rgb(162,94,124)"
stroke-width="80"
stroke-linejoin="round" 
opacity="1"
points="253.91125 , 331.5866 256.91125 , 298.5866 280.91125 , 315.5866 301.91125 , 295.5866 299.91125 , 335.5866 288.91125 , 309.5866 290.91125 , 313.5866 318.91125 , 306.5866 343.91125 , 314.5866 317.91125 , 340.5866 303.91125 , 337.5866 313.91125 , 289.5866 307.91125 , 310.5866 285.91125 , 324.5866 296.91125 , 299.5866 282.91125 , 341.5866 ">
</polygon><polygon 
stroke="rgb(162,94,124)"
fill="rgb(162,94,124)"
stroke-width="70"
stroke-linejoin="round" 
opacity="1"
points="231.91125 , 301.5866 223.91125 , 331.5866 221.91125 , 304.5866 218.91125 , 301.5866 214.91125 , 322.5866 197.91125 , 333.5866 207.91125 , 331.5866 209.91125 , 297.5866 219.91125 , 306.5866 223.91125 , 293.5866 211.91125 , 318.5866 219.91125 , 316.5866 238.91125 , 332.5866 222.91125 , 332.5866 221.91125 , 329.5866 ">
</polygon><polygon 
stroke="rgb(182,114,144)"
fill="rgb(182,114,144)"
stroke-width="80"
stroke-linejoin="round" 
opacity="1"
points="350.71 , 166.6092 344.71 , 144.6092 355.71 , 162.6092 355.71 , 142.6092 349.71 , 196.6092 354.71 , 189.6092 334.71 , 186.6092 329.71 , 178.6092 299.71 , 139.6092 306.71 , 145.6092 311.71 , 178.6092 290.71 , 176.6092 ">
</polygon><polygon 
stroke="rgb(172,104,134)"
fill="rgb(172,104,134)"
stroke-width="70"
stroke-linejoin="round" 
opacity="1"
points="345.71 , 163.6092 345.71 , 189.6092 325.71 , 179.6092 331.71 , 149.6092 340.71 , 171.6092 348.71 , 161.6092 355.71 , 177.6092 351.71 , 155.6092 362.71 , 165.6092 342.71 , 157.6092 323.71 , 165.6092 335.71 , 161.6092 335.71 , 154.6092 ">
</polygon><polygon 
stroke="rgb(182,114,144)"
fill="rgb(182,114,144)"
stroke-width="60"
stroke-linejoin="round" 
opacity="1"
points="349.71 , 177.6092 344.71 , 165.6092 340.71 , 163.6092 345.71 , 171.6092 341.71 , 165.6092 351.71 , 163.6092 358.71 , 172.6092 357.71 , 164.6092 354.71 , 167.6092 347.71 , 167.6092 345.71 , 165.6092 350.71 , 168.6092 345.71 , 178.6092 350.71 , 169.6092 340.71 , 167.6092 ">
</polygon><path d="M 240 480 c 46.666666666667,-41.2 0,-61.8 50,-309 
C 287,448.2 333.66666666667,468.8 282,480
 " stroke="rgb(150,183,134)" stroke-linejoin="arcs"  stroke-width="5" fill="rgb(150,183,134)"/><path d="M 264.87875 357.8832 c -48.8,-0.13333333333333 -56.933333333333,-0.4 -61,-1 
C 214.04541666667,357.6082 222.17875,357.87486666667 264.24,374.6928
 " stroke="rgb(150,183,134)" stroke-linejoin="arcs"  stroke-width="5" fill="rgb(150,183,134)"/><path d="M 264.24 374.6928 c 1.0666666666667,-8 0,-16 2,-40 
C 264.44,363.6928 265.50666666667,371.6928 263.91125,389.5866
 " stroke="rgb(150,183,134)" stroke-linejoin="arcs"  stroke-width="5" fill="rgb(150,183,134)"/><path d="M 263.75 402.75 c 68.133333333333,-17 53.533333333333,-13.6 73,-51 
C 324.58333333333,395.525 339.18333333333,392.125 263.61375,414.3684
 " stroke="rgb(150,183,134)" stroke-linejoin="arcs"  stroke-width="5" fill="rgb(150,183,134)"/><path d="M 265.97 338.9724 c -1.8666666666667,-18.8 -0.46666666666667,-25.066666666667 -7,-47 
C 266.20333333333,319.78073333333 264.80333333333,326.0474 264.87875,357.8832
 " stroke="rgb(150,183,134)" stroke-linejoin="arcs"  stroke-width="5" fill="rgb(150,183,134)"/><path d="M 264.87875 357.8832 c 52,-6.1333333333333 26,-15.333333333333 78,-46 
C 298.67875,348.29986666667 324.67875,357.49986666667 264.24,374.6928
 " stroke="rgb(150,183,134)" stroke-linejoin="arcs"  stroke-width="5" fill="rgb(150,183,134)"/><path d="M 283.20125 206.4114 c 56.333333333333,-23.666666666667 52,-28.4 65,-71 
C 341.70125,186.8864 346.03458333333,191.61973333333 277.71,238.6092
 " stroke="rgb(150,183,134)" stroke-linejoin="arcs"  stroke-width="5" fill="rgb(150,183,134)"/><path d="M 273.38375 267.7788 c 12.333333333333,-34.066666666667 7.4,-19.466666666667 37,-73 
C 284.48375,257.43713333333 289.41708333333,242.83713333333 270.08,294.1056
 " stroke="rgb(150,183,134)" stroke-linejoin="arcs"  stroke-width="5" fill="rgb(150,183,134)"/><path d="M 263.91125 389.5866 c -40,-25.333333333333 -13.333333333333,-15.2 -40,-76 
C 254.57791666667,383.8866 227.91125,373.75326666667 263.75,402.75
 " stroke="rgb(150,183,134)" stroke-linejoin="arcs"  stroke-width="5" fill="rgb(150,183,134)"/><path d="M 277.71 238.6092 c 58.8,-32.2 0,-23 63,-69 
C 284.01,224.2342 342.81,215.0342 273.38375,267.7788
 " stroke="rgb(150,183,134)" stroke-linejoin="arcs"  stroke-width="5" fill="rgb(150,183,134)"/><polygon 
stroke="rgb(162,94,124)"
fill="rgb(162,94,124)"
stroke-width="80"
stroke-linejoin="round" 
opacity="1"
points="289 , 198 270 , 150 263 , 185 252 , 183 235 , 166 254 , 155 237 , 153 262 , 168 240 , 170 263 , 187 263 , 165 279 , 187 298 , 155 290 , 185 267 , 170 244 , 186 261 , 199 260 , 157 257 , 187 228 , 186 237 , 157 235 , 172 230 , 169 260 , 190 ">
</polygon><polygon 
stroke="rgb(162,94,124)"
fill="rgb(162,94,124)"
stroke-width="70"
stroke-linejoin="round" 
opacity="1"
points="287 , 155 291 , 176 290 , 172 278 , 163 262 , 175 278 , 158 291 , 155 292 , 186 274 , 180 285 , 170 295 , 154 296 , 179 310 , 163 321 , 179 319 , 172 335 , 180 341 , 171 342 , 174 357 , 188 341 , 157 323 , 152 334 , 169 322 , 180 324 , 165 333 , 174 ">
</polygon><polygon 
stroke="rgb(172,104,134)"
fill="rgb(172,104,134)"
stroke-width="80"
stroke-linejoin="round" 
opacity="1"
points="279.24 , 329.6928 287.24 , 349.6928 293.24 , 304.6928 308.24 , 305.6928 337.24 , 305.6928 333.24 , 341.6928 359.24 , 332.6928 359.24 , 330.6928 378.24 , 351.6928 392.24 , 344.6928 406.24 , 352.6928 384.24 , 363.6928 410.24 , 329.6928 435.24 , 329.6928 446.24 , 332.6928 441.24 , 323.6928 439.24 , 355.6928 446.24 , 358.6928 437.24 , 363.6928 427.24 , 359.6928 406.24 , 343.6928 ">
</polygon><polygon 
stroke="rgb(182,114,144)"
fill="rgb(182,114,144)"
stroke-width="60"
stroke-linejoin="round" 
opacity="1"
points="267.24 , 341.6928 266.24 , 328.6928 274.24 , 328.6928 278.24 , 337.6928 286.24 , 332.6928 288.24 , 343.6928 279.24 , 337.6928 271.24 , 326.6928 277.24 , 329.6928 274.24 , 341.6928 283.24 , 332.6928 282.24 , 330.6928 272.24 , 342.6928 280.24 , 343.6928 273.24 , 343.6928 272.24 , 338.6928 278.24 , 342.6928 278.24 , 332.6928 276.24 , 344.6928 267.24 , 330.6928 276.24 , 339.6928 285.24 , 338.6928 277.24 , 338.6928 268.24 , 340.6928 271.24 , 344.6928 269.24 , 339.6928 269.24 , 332.6928 ">
</polygon><polygon 
stroke="rgb(182,114,144)"
fill="rgb(182,114,144)"
stroke-width="70"
stroke-linejoin="round" 
opacity="1"
points="325.75 , 364.75 331.75 , 360.75 347.75 , 337.75 344.75 , 347.75 345.75 , 368.75 359.75 , 356.75 341.75 , 360.75 341.75 , 353.75 353.75 , 349.75 354.75 , 360.75 373.75 , 354.75 373.75 , 338.75 358.75 , 356.75 368.75 , 351.75 369.75 , 360.75 371.75 , 333.75 352.75 , 359.75 341.75 , 369.75 349.75 , 347.75 360.75 , 339.75 342.75 , 354.75 351.75 , 344.75 ">
</polygon><polygon 
stroke="rgb(172,104,134)"
fill="rgb(172,104,134)"
stroke-width="60"
stroke-linejoin="round" 
opacity="1"
points="342.87875 , 309.8832 333.87875 , 307.8832 337.87875 , 302.8832 338.87875 , 312.8832 342.87875 , 307.8832 339.87875 , 320.8832 335.87875 , 302.8832 337.87875 , 305.8832 339.87875 , 318.8832 329.87875 , 303.8832 ">
</polygon><polygon 
stroke="rgb(162,94,124)"
fill="rgb(162,94,124)"
stroke-width="60"
stroke-linejoin="round" 
opacity="1"
points="227.91125 , 311.5866 236.91125 , 311.5866 236.91125 , 314.5866 245.91125 , 304.5866 255.91125 , 305.5866 253.91125 , 314.5866 248.91125 , 318.5866 239.91125 , 321.5866 239.91125 , 315.5866 232.91125 , 309.5866 240.91125 , 315.5866 247.91125 , 307.5866 238.91125 , 314.5866 235.91125 , 304.5866 228.91125 , 318.5866 222.91125 , 323.5866 222.91125 , 312.5866 230.91125 , 320.5866 ">
</polygon></svg>