<?xml version="1.0" encoding="iso-8859-1"?>
<svg version="1.1" id="Capa_1" xmlns="http://www.w3.org/2000/svg" xmlns:xlink="http://www.w3.org/1999/xlink" x="0px" y="0px"
viewBox="0 0 500 500" xml:space="preserve"><defs></defs><polygon 
stroke="rgb(127,60,107)"
fill="rgb(127,60,107)"
stroke-width="80"
stroke-linejoin="round" 
opacity="1"
points="339 , 185 325 , 176 343 , 194 324 , 177 321 , 152 297 , 208 323 , 206 299 , 185 273 , 151 279 , 164 271 , 189 272 , 199 265 , 182 271 , 190 243 , 152 224 , 208 240 , 198 270 , 197 278 , 192 303 , 170 ">
</polygon><polygon 
stroke="rgb(137,70,117)"
fill="rgb(137,70,117)"
stroke-width="70"
stroke-linejoin="round" 
opacity="1"
points="312 , 196 314 , 167 330 , 170 332 , 187 330 , 188 324 , 175 343 , 180 362 , 170 350 , 161 357 , 162 355 , 168 356 , 167 372 , 194 358 , 189 347 , 189 344 , 188 341 , 182 330 , 184 313 , 196 327 , 159 328 , 169 334 , 171 332 , 184 330 , 189 315 , 171 306 , 175 ">
</polygon><polygon 
stroke="rgb(127,60,107)"
fill="rgb(127,60,107)"
stroke-width="60"
stroke-linejoin="round" 
opacity="1"
points="324 , 170 324 , 189 315 , 188 310 , 177 313 , 169 316 , 169 307 , 185 308 , 180 310 , 176 304 , 171 310 , 172 315 , 173 310 , 183 316 , 173 ">
</polygon><polygon 
stroke="rgb(137,70,117)"
fill="rgb(137,70,117)"
stroke-width="80"
stroke-linejoin="round" 
opacity="1"
points="254.140625 , 264.290625 244.140625 , 280.290625 262.140625 , 322.290625 234.140625 , 274.290625 212.140625 , 309.290625 204.140625 , 265.290625 182.140625 , 315.290625 180.140625 , 290.290625 165.140625 , 304.290625 139.140625 , 306.290625 151.140625 , 292.290625 133.140625 , 281.290625 136.140625 , 304.290625 118.140625 , 311.290625 94.140625 , 285.290625 82.140625 , 288.290625 ">
</polygon><polygon 
stroke="rgb(127,60,107)"
fill="rgb(127,60,107)"
stroke-width="70"
stroke-linejoin="round" 
opacity="1"
points="248.140625 , 307.290625 264.140625 , 309.290625 254.140625 , 312.290625 244.140625 , 308.290625 259.140625 , 304.290625 266.140625 , 281.290625 273.140625 , 297.290625 272.140625 , 312.290625 292.140625 , 297.290625 289.140625 , 278.290625 292.140625 , 300.290625 308.140625 , 291.290625 305.140625 , 295.290625 317.140625 , 300.290625 334.140625 , 281.290625 345.140625 , 282.290625 359.140625 , 289.290625 343.140625 , 279.290625 338.140625 , 283.290625 358.140625 , 277.290625 353.140625 , 299.290625 334.140625 , 282.290625 349.140625 , 276.290625 ">
</polygon><polygon 
stroke="rgb(127,60,107)"
fill="rgb(127,60,107)"
stroke-width="80"
stroke-linejoin="round" 
opacity="1"
points="289.140625 , 323.290625 314.140625 , 289.290625 300.140625 , 280.290625 324.140625 , 307.290625 329.140625 , 304.290625 334.140625 , 311.290625 327.140625 , 323.290625 351.140625 , 302.290625 347.140625 , 304.290625 321.140625 , 306.290625 305.140625 , 286.290625 327.140625 , 328.290625 345.140625 , 297.290625 359.140625 , 296.290625 345.140625 , 307.290625 356.140625 , 300.290625 345.140625 , 274.290625 349.140625 , 303.290625 335.140625 , 309.290625 314.140625 , 316.290625 342.140625 , 325.290625 352.140625 , 290.290625 373.140625 , 326.290625 353.140625 , 304.290625 ">
</polygon><polygon 
stroke="rgb(137,70,117)"
fill="rgb(137,70,117)"
stroke-width="70"
stroke-linejoin="round" 
opacity="1"
points="285.140625 , 301.290625 289.140625 , 303.290625 299.140625 , 302.290625 289.140625 , 298.290625 299.140625 , 308.290625 290.140625 , 310.290625 271.140625 , 300.290625 262.140625 , 301.290625 256.140625 , 289.290625 246.140625 , 297.290625 254.140625 , 297.290625 261.140625 , 291.290625 247.140625 , 286.290625 230.140625 , 301.290625 226.140625 , 285.290625 214.140625 , 298.290625 201.140625 , 305.290625 197.140625 , 299.290625 212.140625 , 313.290625 203.140625 , 287.290625 205.140625 , 293.290625 196.140625 , 301.290625 184.140625 , 291.290625 177.140625 , 302.290625 ">
</polygon><polygon 
stroke="rgb(117,50,97)"
fill="rgb(117,50,97)"
stroke-width="60"
stroke-linejoin="round" 
opacity="1"
points="276.140625 , 303.290625 278.140625 , 305.290625 277.140625 , 310.290625 281.140625 , 309.290625 289.140625 , 312.290625 284.140625 , 297.290625 276.140625 , 306.290625 275.140625 , 299.290625 283.140625 , 313.290625 286.140625 , 297.290625 292.140625 , 296.290625 284.140625 , 313.290625 280.140625 , 307.290625 287.140625 , 313.290625 297.140625 , 296.290625 296.140625 , 306.290625 299.140625 , 302.290625 296.140625 , 296.290625 291.140625 , 307.290625 291.140625 , 302.290625 295.140625 , 305.290625 297.140625 , 310.290625 303.140625 , 310.290625 308.140625 , 300.290625 311.140625 , 294.290625 ">
</polygon><polygon 
stroke="rgb(127,60,107)"
fill="rgb(127,60,107)"
stroke-width="70"
stroke-linejoin="round" 
opacity="1"
points="382.225375 , 192.095375 371.225375 , 171.095375 382.225375 , 195.095375 369.225375 , 182.095375 371.225375 , 169.095375 386.225375 , 190.095375 385.225375 , 200.095375 388.225375 , 193.095375 398.225375 , 175.095375 393.225375 , 176.095375 389.225375 , 197.095375 382.225375 , 187.095375 370.225375 , 181.095375 386.225375 , 198.095375 372.225375 , 194.095375 354.225375 , 189.095375 348.225375 , 183.095375 345.225375 , 182.095375 346.225375 , 189.095375 346.225375 , 192.095375 356.225375 , 175.095375 361.225375 , 184.095375 367.225375 , 202.095375 352.225375 , 168.095375 ">
</polygon><polygon 
stroke="rgb(117,50,97)"
fill="rgb(117,50,97)"
stroke-width="60"
stroke-linejoin="round" 
opacity="1"
points="365.225375 , 183.095375 357.225375 , 178.095375 355.225375 , 181.095375 363.225375 , 183.095375 372.225375 , 177.095375 370.225375 , 194.095375 371.225375 , 192.095375 366.225375 , 179.095375 371.225375 , 189.095375 364.225375 , 176.095375 362.225375 , 184.095375 358.225375 , 185.095375 351.225375 , 174.095375 345.225375 , 174.095375 335.225375 , 193.095375 ">
</polygon><polygon 
stroke="rgb(117,50,97)"
fill="rgb(117,50,97)"
stroke-width="80"
stroke-linejoin="round" 
opacity="1"
points="333.225375 , 266.095375 309.225375 , 259.095375 285.225375 , 269.095375 270.225375 , 247.095375 298.225375 , 264.095375 306.225375 , 236.095375 294.225375 , 240.095375 269.225375 , 239.095375 287.225375 , 253.095375 269.225375 , 283.095375 254.225375 , 224.095375 273.225375 , 252.095375 278.225375 , 255.095375 298.225375 , 237.095375 322.225375 , 247.095375 ">
</polygon><polygon 
stroke="rgb(117,50,97)"
fill="rgb(117,50,97)"
stroke-width="70"
stroke-linejoin="round" 
opacity="1"
points="353.225375 , 244.095375 356.225375 , 242.095375 358.225375 , 237.095375 345.225375 , 241.095375 331.225375 , 244.095375 324.225375 , 234.095375 340.225375 , 247.095375 335.225375 , 233.095375 347.225375 , 268.095375 363.225375 , 260.095375 344.225375 , 253.095375 342.225375 , 245.095375 347.225375 , 254.095375 ">
</polygon><polygon 
stroke="rgb(127,60,107)"
fill="rgb(127,60,107)"
stroke-width="60"
stroke-linejoin="round" 
opacity="1"
points="344.225375 , 254.095375 350.225375 , 252.095375 355.225375 , 246.095375 346.225375 , 258.095375 340.225375 , 254.095375 335.225375 , 251.095375 333.225375 , 251.095375 325.225375 , 261.095375 323.225375 , 250.095375 320.225375 , 252.095375 317.225375 , 248.095375 314.225375 , 246.095375 308.225375 , 247.095375 313.225375 , 260.095375 314.225375 , 260.095375 312.225375 , 255.095375 306.225375 , 250.095375 305.225375 , 244.095375 300.225375 , 259.095375 292.225375 , 251.095375 ">
</polygon><polygon 
stroke="rgb(127,60,107)"
fill="rgb(127,60,107)"
stroke-width="70"
stroke-linejoin="round" 
opacity="1"
points="347.896 , 269.296 332.896 , 282.296 313.896 , 261.296 330.896 , 297.296 313.896 , 287.296 312.896 , 261.296 308.896 , 289.296 319.896 , 286.296 321.896 , 297.296 330.896 , 261.296 348.896 , 280.296 367.896 , 272.296 381.896 , 282.296 366.896 , 267.296 360.896 , 276.296 342.896 , 284.296 360.896 , 294.296 345.896 , 266.296 329.896 , 264.296 322.896 , 292.296 310.896 , 270.296 290.896 , 285.296 ">
</polygon><polygon 
stroke="rgb(137,70,117)"
fill="rgb(137,70,117)"
stroke-width="60"
stroke-linejoin="round" 
opacity="1"
points="325.896 , 280.296 332.896 , 283.296 334.896 , 281.296 344.896 , 286.296 346.896 , 289.296 341.896 , 272.296 344.896 , 278.296 343.896 , 278.296 340.896 , 284.296 348.896 , 273.296 356.896 , 285.296 354.896 , 275.296 344.896 , 289.296 350.896 , 282.296 341.896 , 271.296 351.896 , 281.296 355.896 , 280.296 355.896 , 276.296 349.896 , 281.296 348.896 , 286.296 342.896 , 272.296 ">
</polygon><polygon 
stroke="rgb(137,70,117)"
fill="rgb(137,70,117)"
stroke-width="80"
stroke-linejoin="round" 
opacity="1"
points="210.896 , 320.296 217.896 , 291.296 214.896 , 324.296 219.896 , 296.296 248.896 , 290.296 221.896 , 276.296 195.896 , 294.296 194.896 , 290.296 200.896 , 326.296 184.896 , 287.296 205.896 , 317.296 ">
</polygon><polygon 
stroke="rgb(117,50,97)"
fill="rgb(117,50,97)"
stroke-width="70"
stroke-linejoin="round" 
opacity="1"
points="200.896 , 297.296 194.896 , 284.296 184.896 , 305.296 201.896 , 312.296 217.896 , 314.296 236.896 , 283.296 233.896 , 312.296 223.896 , 302.296 204.896 , 287.296 222.896 , 318.296 214.896 , 311.296 194.896 , 319.296 ">
</polygon><polygon 
stroke="rgb(117,50,97)"
fill="rgb(117,50,97)"
stroke-width="60"
stroke-linejoin="round" 
opacity="1"
points="204.896 , 310.296 195.896 , 295.296 201.896 , 294.296 196.896 , 297.296 191.896 , 295.296 197.896 , 299.296 199.896 , 305.296 190.896 , 292.296 200.896 , 306.296 199.896 , 294.296 200.896 , 300.296 204.896 , 308.296 198.896 , 299.296 205.896 , 294.296 202.896 , 298.296 200.896 , 299.296 199.896 , 300.296 198.896 , 296.296 204.896 , 306.296 214.896 , 307.296 206.896 , 298.296 197.896 , 296.296 206.896 , 293.296 200.896 , 300.296 208.896 , 301.296 ">
</polygon><polygon 
stroke="rgb(127,60,107)"
fill="rgb(127,60,107)"
stroke-width="80"
stroke-linejoin="round" 
opacity="1"
points="215.875 , 371.075 221.875 , 377.075 202.875 , 381.075 215.875 , 341.075 203.875 , 335.075 217.875 , 346.075 233.875 , 334.075 223.875 , 346.075 224.875 , 388.075 209.875 , 339.075 204.875 , 346.075 226.875 , 373.075 244.875 , 369.075 268.875 , 346.075 270.875 , 346.075 259.875 , 366.075 251.875 , 358.075 246.875 , 378.075 230.875 , 339.075 ">
</polygon><polygon 
stroke="rgb(117,50,97)"
fill="rgb(117,50,97)"
stroke-width="70"
stroke-linejoin="round" 
opacity="1"
points="226.875 , 367.075 236.875 , 365.075 255.875 , 380.075 262.875 , 343.075 253.875 , 366.075 256.875 , 376.075 266.875 , 367.075 263.875 , 341.075 247.875 , 350.075 242.875 , 344.075 258.875 , 350.075 247.875 , 368.075 246.875 , 342.075 240.875 , 373.075 234.875 , 353.075 242.875 , 356.075 244.875 , 353.075 261.875 , 360.075 245.875 , 373.075 253.875 , 358.075 239.875 , 350.075 256.875 , 373.075 239.875 , 346.075 ">
</polygon><polygon 
stroke="rgb(137,70,117)"
fill="rgb(137,70,117)"
stroke-width="80"
stroke-linejoin="round" 
opacity="1"
points="269.430125 , 322.524125 287.430125 , 322.524125 295.430125 , 325.524125 303.430125 , 304.524125 311.430125 , 316.524125 318.430125 , 346.524125 339.430125 , 314.524125 341.430125 , 311.524125 343.430125 , 347.524125 314.430125 , 332.524125 310.430125 , 358.524125 335.430125 , 330.524125 320.430125 , 343.524125 293.430125 , 306.524125 ">
</polygon><polygon 
stroke="rgb(127,60,107)"
fill="rgb(127,60,107)"
stroke-width="70"
stroke-linejoin="round" 
opacity="1"
points="293.430125 , 327.524125 308.430125 , 350.524125 304.430125 , 334.524125 292.430125 , 350.524125 292.430125 , 340.524125 311.430125 , 315.524125 331.430125 , 321.524125 329.430125 , 338.524125 311.430125 , 352.524125 327.430125 , 342.524125 318.430125 , 332.524125 307.430125 , 319.524125 306.430125 , 320.524125 290.430125 , 330.524125 304.430125 , 340.524125 318.430125 , 320.524125 333.430125 , 326.524125 351.430125 , 337.524125 370.430125 , 319.524125 ">
</polygon><polygon 
stroke="rgb(117,50,97)"
fill="rgb(117,50,97)"
stroke-width="60"
stroke-linejoin="round" 
opacity="1"
points="279.430125 , 328.524125 269.430125 , 334.524125 264.430125 , 333.524125 272.430125 , 331.524125 270.430125 , 332.524125 272.430125 , 323.524125 279.430125 , 331.524125 282.430125 , 343.524125 277.430125 , 334.524125 269.430125 , 338.524125 275.430125 , 335.524125 279.430125 , 327.524125 276.430125 , 329.524125 ">
</polygon><polygon 
stroke="rgb(137,70,117)"
fill="rgb(137,70,117)"
stroke-width="80"
stroke-linejoin="round" 
opacity="1"
points="235.875 , 302.075 240.875 , 250.075 269.875 , 265.075 256.875 , 298.075 245.875 , 279.075 255.875 , 263.075 239.875 , 287.075 231.875 , 245.075 220.875 , 294.075 203.875 , 254.075 233.875 , 299.075 231.875 , 248.075 220.875 , 270.075 222.875 , 296.075 202.875 , 269.075 197.875 , 266.075 181.875 , 290.075 208.875 , 277.075 197.875 , 304.075 ">
</polygon><polygon 
stroke="rgb(117,50,97)"
fill="rgb(117,50,97)"
stroke-width="70"
stroke-linejoin="round" 
opacity="1"
points="236.875 , 282.075 239.875 , 287.075 240.875 , 291.075 257.875 , 283.075 267.875 , 294.075 247.875 , 286.075 256.875 , 282.075 258.875 , 272.075 252.875 , 265.075 242.875 , 259.075 259.875 , 276.075 263.875 , 290.075 243.875 , 267.075 258.875 , 266.075 261.875 , 264.075 269.875 , 271.075 284.875 , 270.075 266.875 , 280.075 255.875 , 273.075 264.875 , 267.075 250.875 , 282.075 ">
</polygon><polygon 
stroke="rgb(127,60,107)"
fill="rgb(127,60,107)"
stroke-width="60"
stroke-linejoin="round" 
opacity="1"
points="238.875 , 267.075 242.875 , 274.075 251.875 , 264.075 258.875 , 284.075 254.875 , 271.075 259.875 , 267.075 265.875 , 277.075 274.875 , 281.075 266.875 , 265.075 274.875 , 271.075 278.875 , 274.075 270.875 , 269.075 280.875 , 271.075 277.875 , 272.075 286.875 , 276.075 277.875 , 278.075 278.875 , 273.075 280.875 , 282.075 273.875 , 264.075 277.875 , 276.075 286.875 , 280.075 284.875 , 279.075 ">
</polygon><path d="M 240 480 c 45.333333333333,-120.4 56.666666666667,-120.4 85,-301 
C 338.66666666667,386.6 327.33333333333,386.6 318,480
 " stroke="rgb(78,147,56)" stroke-linejoin="arcs"  stroke-width="5" fill="rgb(78,147,56)"/><path d="M 306.140625 285.290625 c -15.466666666667,3.7333333333333 0,3.7333333333333 -58,8 
C 311.940625,290.02395833333 296.47395833333,290.02395833333 302.713,300.905
 " stroke="rgb(78,147,56)" stroke-linejoin="arcs"  stroke-width="5" fill="rgb(78,147,56)"/><path d="M 306.140625 285.290625 c -32.933333333333,2.5333333333333 -25.333333333333,8.8666666666667 -38,19 
C 284.60729166667,296.53229166667 277.00729166667,290.19895833333 302.713,300.905
 " stroke="rgb(78,147,56)" stroke-linejoin="arcs"  stroke-width="5" fill="rgb(78,147,56)"/><path d="M 313.225375 249.095375 c 0,-21.666666666667 19.666666666667,-34.666666666667 59,-65 
C 338.79204166667,222.55370833333 319.125375,235.55370833333 309.632,268.096
 " stroke="rgb(78,147,56)" stroke-linejoin="arcs"  stroke-width="5" fill="rgb(78,147,56)"/><path d="M 313.225375 249.095375 c 24,1.0666666666667 40,0.53333333333333 40,4 
C 357.225375,250.12870833333 341.225375,250.66204166667 309.632,268.096
 " stroke="rgb(78,147,56)" stroke-linejoin="arcs"  stroke-width="5" fill="rgb(78,147,56)"/><path d="M 295.896 328.296 c 12.333333333333,-19.6 37,-26.133333333333 37,-49 
C 336.596,308.28766666667 311.92933333333,314.821 292.430125,340.524125
 " stroke="rgb(78,147,56)" stroke-linejoin="arcs"  stroke-width="5" fill="rgb(78,147,56)"/><path d="M 295.896 328.296 c -12.133333333333,-5.6 -12.133333333333,-5.6 -91,-28 
C 292.86266666667,326.196 292.86266666667,326.196 292.430125,340.524125
 " stroke="rgb(78,147,56)" stroke-linejoin="arcs"  stroke-width="5" fill="rgb(78,147,56)"/><path d="M 288.875 352.075 c -13.6,1.8 -44.2,3.6 -51,9 
C 249.775,356.8 280.375,355 285.192375,363.174375
 " stroke="rgb(78,147,56)" stroke-linejoin="arcs"  stroke-width="5" fill="rgb(78,147,56)"/><path d="M 292.430125 340.524125 c -9.5333333333333,-1.4 -7.8,-1.8666666666667 -13,-7 
C 285.930125,339.53245833333 284.19679166667,339.999125 288.875,352.075
 " stroke="rgb(78,147,56)" stroke-linejoin="arcs"  stroke-width="5" fill="rgb(78,147,56)"/><path d="M 288.875 352.075 c -3.2,-15.6 -25.6,-26 -48,-78 
C 268.075,335.825 290.475,346.225 285.192375,363.174375
 " stroke="rgb(78,147,56)" stroke-linejoin="arcs"  stroke-width="5" fill="rgb(78,147,56)"/><polygon 
stroke="rgb(117,50,97)"
fill="rgb(117,50,97)"
stroke-width="60"
stroke-linejoin="round" 
opacity="1"
points="241.140625 , 295.290625 239.140625 , 283.290625 244.140625 , 286.290625 235.140625 , 283.290625 234.140625 , 298.290625 240.140625 , 286.290625 245.140625 , 299.290625 236.140625 , 295.290625 237.140625 , 284.290625 229.140625 , 290.290625 221.140625 , 302.290625 223.140625 , 302.290625 217.140625 , 298.290625 226.140625 , 296.290625 218.140625 , 291.290625 223.140625 , 286.290625 230.140625 , 288.290625 236.140625 , 286.290625 ">
</polygon><polygon 
stroke="rgb(127,60,107)"
fill="rgb(127,60,107)"
stroke-width="80"
stroke-linejoin="round" 
opacity="1"
points="402.225375 , 213.095375 424.225375 , 169.095375 418.225375 , 179.095375 404.225375 , 167.095375 427.225375 , 170.095375 401.225375 , 209.095375 395.225375 , 207.095375 413.225375 , 206.095375 425.225375 , 194.095375 440.225375 , 201.095375 417.225375 , 178.095375 390.225375 , 160.095375 386.225375 , 187.095375 382.225375 , 161.095375 376.225375 , 208.095375 381.225375 , 212.095375 ">
</polygon><polygon 
stroke="rgb(127,60,107)"
fill="rgb(127,60,107)"
stroke-width="80"
stroke-linejoin="round" 
opacity="1"
points="317.896 , 309.296 321.896 , 277.296 301.896 , 281.296 327.896 , 285.296 339.896 , 264.296 324.896 , 267.296 331.896 , 309.296 320.896 , 280.296 327.896 , 265.296 324.896 , 263.296 339.896 , 256.296 344.896 , 290.296 353.896 , 286.296 377.896 , 251.296 376.896 , 301.296 404.896 , 284.296 400.896 , 293.296 ">
</polygon><polygon 
stroke="rgb(117,50,97)"
fill="rgb(117,50,97)"
stroke-width="60"
stroke-linejoin="round" 
opacity="1"
points="233.875 , 371.075 233.875 , 353.075 231.875 , 371.075 234.875 , 366.075 226.875 , 358.075 218.875 , 356.075 218.875 , 369.075 217.875 , 354.075 221.875 , 355.075 230.875 , 358.075 235.875 , 370.075 240.875 , 367.075 240.875 , 352.075 244.875 , 360.075 234.875 , 362.075 235.875 , 362.075 242.875 , 360.075 250.875 , 358.075 241.875 , 370.075 238.875 , 360.075 228.875 , 352.075 234.875 , 353.075 227.875 , 358.075 ">
</polygon></svg>