<?xml version="1.0" encoding="iso-8859-1"?>
<svg version="1.1" id="Capa_1" xmlns="http://www.w3.org/2000/svg" xmlns:xlink="http://www.w3.org/1999/xlink" x="0px" y="0px"
viewBox="0 0 500 500" xml:space="preserve"><defs></defs><polygon 
stroke="rgb(142,134,139)"
fill="rgb(142,134,139)"
stroke-width="80"
stroke-linejoin="round" 
opacity="1"
points="279 , 145 301 , 169 323 , 155 339 , 111 366 , 164 390 , 147 385 , 119 361 , 125 344 , 141 366 , 136 381 , 165 391 , 148 417 , 128 388 , 153 366 , 171 363 , 135 340 , 148 348 , 140 325 , 138 305 , 118 300 , 122 325 , 161 343 , 161 338 , 117 316 , 122 301 , 130 ">
</polygon><polygon 
stroke="rgb(142,134,139)"
fill="rgb(142,134,139)"
stroke-width="70"
stroke-linejoin="round" 
opacity="1"
points="290 , 129 297 , 155 290 , 140 272 , 127 288 , 153 284 , 125 302 , 152 308 , 149 305 , 132 308 , 151 321 , 156 334 , 137 354 , 121 364 , 143 ">
</polygon><polygon 
stroke="rgb(152,144,149)"
fill="rgb(152,144,149)"
stroke-width="60"
stroke-linejoin="round" 
opacity="1"
points="269 , 138 259 , 142 253 , 142 243 , 141 237 , 150 232 , 147 241 , 145 249 , 141 244 , 144 236 , 144 240 , 151 ">
</polygon><polygon 
stroke="rgb(162,154,159)"
fill="rgb(162,154,159)"
stroke-width="70"
stroke-linejoin="round" 
opacity="1"
points="193.3664 , 254.0224 206.3664 , 253.0224 194.3664 , 223.0224 191.3664 , 235.0224 196.3664 , 258.0224 190.3664 , 230.0224 198.3664 , 222.0224 211.3664 , 229.0224 224.3664 , 228.0224 238.3664 , 248.0224 ">
</polygon><polygon 
stroke="rgb(162,154,159)"
fill="rgb(162,154,159)"
stroke-width="60"
stroke-linejoin="round" 
opacity="1"
points="181.3664 , 246.0224 177.3664 , 243.0224 173.3664 , 243.0224 163.3664 , 250.0224 154.3664 , 235.0224 148.3664 , 250.0224 153.3664 , 246.0224 148.3664 , 239.0224 144.3664 , 243.0224 146.3664 , 250.0224 155.3664 , 233.0224 157.3664 , 248.0224 159.3664 , 232.0224 149.3664 , 239.0224 145.3664 , 245.0224 154.3664 , 246.0224 164.3664 , 242.0224 165.3664 , 241.0224 175.3664 , 235.0224 174.3664 , 236.0224 175.3664 , 238.0224 180.3664 , 245.0224 173.3664 , 251.0224 169.3664 , 242.0224 172.3664 , 246.0224 ">
</polygon><polygon 
stroke="rgb(152,144,149)"
fill="rgb(152,144,149)"
stroke-width="80"
stroke-linejoin="round" 
opacity="1"
points="278.2654 , 262.120775 301.2654 , 243.120775 273.2654 , 264.120775 259.2654 , 286.120775 278.2654 , 289.120775 280.2654 , 287.120775 295.2654 , 249.120775 314.2654 , 263.120775 322.2654 , 302.120775 313.2654 , 259.120775 310.2654 , 248.120775 332.2654 , 262.120775 320.2654 , 298.120775 314.2654 , 302.120775 306.2654 , 252.120775 291.2654 , 281.120775 263.2654 , 261.120775 290.2654 , 290.120775 315.2654 , 289.120775 287.2654 , 279.120775 284.2654 , 279.120775 295.2654 , 262.120775 276.2654 , 303.120775 294.2654 , 244.120775 324.2654 , 253.120775 308.2654 , 285.120775 295.2654 , 290.120775 283.2654 , 290.120775 ">
</polygon><polygon 
stroke="rgb(142,134,139)"
fill="rgb(142,134,139)"
stroke-width="70"
stroke-linejoin="round" 
opacity="1"
points="306.2654 , 263.120775 311.2654 , 258.120775 296.2654 , 282.120775 300.2654 , 258.120775 297.2654 , 287.120775 284.2654 , 268.120775 299.2654 , 259.120775 289.2654 , 274.120775 294.2654 , 280.120775 285.2654 , 279.120775 303.2654 , 266.120775 304.2654 , 272.120775 289.2654 , 254.120775 278.2654 , 278.120775 291.2654 , 265.120775 306.2654 , 281.120775 294.2654 , 267.120775 277.2654 , 287.120775 295.2654 , 285.120775 277.2654 , 272.120775 273.2654 , 293.120775 273.2654 , 272.120775 265.2654 , 293.120775 279.2654 , 283.120775 286.2654 , 293.120775 270.2654 , 279.120775 ">
</polygon><polygon 
stroke="rgb(152,144,149)"
fill="rgb(152,144,149)"
stroke-width="60"
stroke-linejoin="round" 
opacity="1"
points="289.2654 , 264.120775 285.2654 , 269.120775 292.2654 , 276.120775 290.2654 , 273.120775 288.2654 , 270.120775 293.2654 , 275.120775 293.2654 , 267.120775 289.2654 , 269.120775 294.2654 , 282.120775 288.2654 , 266.120775 298.2654 , 279.120775 291.2654 , 264.120775 290.2654 , 270.120775 284.2654 , 275.120775 286.2654 , 275.120775 296.2654 , 282.120775 293.2654 , 283.120775 286.2654 , 275.120775 282.2654 , 280.120775 279.2654 , 270.120775 286.2654 , 271.120775 283.2654 , 265.120775 284.2654 , 272.120775 290.2654 , 270.120775 283.2654 , 268.120775 287.2654 , 280.120775 287.2654 , 266.120775 ">
</polygon><polygon 
stroke="rgb(162,154,159)"
fill="rgb(162,154,159)"
stroke-width="70"
stroke-linejoin="round" 
opacity="1"
points="400.0896 , 200.3806 387.0896 , 204.3806 398.0896 , 223.3806 400.0896 , 200.3806 381.0896 , 208.3806 383.0896 , 196.3806 403.0896 , 232.3806 416.0896 , 223.3806 422.0896 , 218.3806 425.0896 , 200.3806 423.0896 , 206.3806 435.0896 , 233.3806 438.0896 , 216.3806 444.0896 , 198.3806 ">
</polygon><polygon 
stroke="rgb(142,134,139)"
fill="rgb(142,134,139)"
stroke-width="60"
stroke-linejoin="round" 
opacity="1"
points="402.0896 , 213.3806 397.0896 , 217.3806 391.0896 , 212.3806 382.0896 , 207.3806 373.0896 , 221.3806 365.0896 , 216.3806 358.0896 , 210.3806 363.0896 , 214.3806 367.0896 , 226.3806 370.0896 , 226.3806 365.0896 , 214.3806 364.0896 , 214.3806 357.0896 , 223.3806 354.0896 , 216.3806 361.0896 , 220.3806 358.0896 , 212.3806 ">
</polygon><polygon 
stroke="rgb(162,154,159)"
fill="rgb(162,154,159)"
stroke-width="80"
stroke-linejoin="round" 
opacity="1"
points="173.0896 , 250.3806 162.0896 , 250.3806 174.0896 , 221.3806 189.0896 , 257.3806 203.0896 , 226.3806 228.0896 , 252.3806 218.0896 , 275.3806 205.0896 , 241.3806 213.0896 , 217.3806 226.0896 , 232.3806 255.0896 , 236.3806 256.0896 , 234.3806 276.0896 , 265.3806 305.0896 , 232.3806 279.0896 , 270.3806 273.0896 , 237.3806 259.0896 , 224.3806 251.0896 , 270.3806 280.0896 , 249.3806 308.0896 , 264.3806 334.0896 , 224.3806 330.0896 , 253.3806 338.0896 , 252.3806 351.0896 , 272.3806 324.0896 , 258.3806 323.0896 , 273.3806 301.0896 , 253.3806 322.0896 , 259.3806 295.0896 , 236.3806 312.0896 , 249.3806 ">
</polygon><polygon 
stroke="rgb(142,134,139)"
fill="rgb(142,134,139)"
stroke-width="60"
stroke-linejoin="round" 
opacity="1"
points="155.0896 , 238.3806 158.0896 , 252.3806 151.0896 , 247.3806 144.0896 , 240.3806 135.0896 , 241.3806 132.0896 , 255.3806 131.0896 , 239.3806 139.0896 , 240.3806 147.0896 , 237.3806 138.0896 , 241.3806 132.0896 , 236.3806 122.0896 , 250.3806 119.0896 , 236.3806 117.0896 , 253.3806 121.0896 , 245.3806 118.0896 , 242.3806 115.0896 , 236.3806 110.0896 , 237.3806 115.0896 , 250.3806 117.0896 , 242.3806 107.0896 , 246.3806 105.0896 , 249.3806 101.0896 , 249.3806 109.0896 , 254.3806 110.0896 , 249.3806 103.0896 , 248.3806 ">
</polygon><polygon 
stroke="rgb(162,154,159)"
fill="rgb(162,154,159)"
stroke-width="80"
stroke-linejoin="round" 
opacity="1"
points="360.575 , 207.421875 376.575 , 249.421875 353.575 , 224.421875 341.575 , 232.421875 371.575 , 196.421875 376.575 , 240.421875 361.575 , 210.421875 359.575 , 232.421875 331.575 , 249.421875 316.575 , 201.421875 328.575 , 196.421875 321.575 , 233.421875 329.575 , 239.421875 308.575 , 222.421875 302.575 , 211.421875 312.575 , 204.421875 295.575 , 204.421875 277.575 , 196.421875 278.575 , 243.421875 290.575 , 248.421875 280.575 , 219.421875 281.575 , 220.421875 257.575 , 226.421875 251.575 , 231.421875 280.575 , 232.421875 282.575 , 255.421875 ">
</polygon><polygon 
stroke="rgb(142,134,139)"
fill="rgb(142,134,139)"
stroke-width="60"
stroke-linejoin="round" 
opacity="1"
points="342.575 , 229.421875 338.575 , 234.421875 331.575 , 222.421875 330.575 , 234.421875 320.575 , 224.421875 314.575 , 236.421875 324.575 , 218.421875 323.575 , 222.421875 327.575 , 232.421875 335.575 , 231.421875 330.575 , 224.421875 337.575 , 230.421875 331.575 , 230.421875 341.575 , 233.421875 339.575 , 218.421875 348.575 , 222.421875 344.575 , 231.421875 340.575 , 235.421875 330.575 , 217.421875 321.575 , 219.421875 315.575 , 226.421875 310.575 , 218.421875 ">
</polygon><polygon 
stroke="rgb(152,144,149)"
fill="rgb(152,144,149)"
stroke-width="80"
stroke-linejoin="round" 
opacity="1"
points="400.3664 , 170.0224 408.3664 , 191.0224 401.3664 , 166.0224 399.3664 , 185.0224 374.3664 , 164.0224 348.3664 , 197.0224 356.3664 , 173.0224 368.3664 , 204.0224 366.3664 , 187.0224 353.3664 , 198.0224 371.3664 , 204.0224 360.3664 , 162.0224 387.3664 , 158.0224 369.3664 , 181.0224 371.3664 , 157.0224 364.3664 , 161.0224 ">
</polygon><polygon 
stroke="rgb(162,154,159)"
fill="rgb(162,154,159)"
stroke-width="70"
stroke-linejoin="round" 
opacity="1"
points="394.3664 , 176.0224 410.3664 , 168.0224 405.3664 , 180.0224 405.3664 , 172.0224 402.3664 , 163.0224 415.3664 , 180.0224 415.3664 , 179.0224 426.3664 , 168.0224 434.3664 , 186.0224 414.3664 , 165.0224 424.3664 , 194.0224 405.3664 , 196.0224 389.3664 , 167.0224 398.3664 , 167.0224 413.3664 , 159.0224 395.3664 , 160.0224 406.3664 , 197.0224 414.3664 , 195.0224 402.3664 , 194.0224 384.3664 , 186.0224 393.3664 , 196.0224 411.3664 , 163.0224 402.3664 , 189.0224 398.3664 , 165.0224 415.3664 , 169.0224 423.3664 , 176.0224 ">
</polygon><polygon 
stroke="rgb(142,134,139)"
fill="rgb(142,134,139)"
stroke-width="60"
stroke-linejoin="round" 
opacity="1"
points="403.3664 , 183.0224 408.3664 , 185.0224 413.3664 , 176.0224 419.3664 , 181.0224 415.3664 , 179.0224 417.3664 , 184.0224 423.3664 , 181.0224 420.3664 , 186.0224 421.3664 , 174.0224 425.3664 , 187.0224 430.3664 , 172.0224 433.3664 , 172.0224 432.3664 , 182.0224 428.3664 , 186.0224 438.3664 , 173.0224 ">
</polygon><polygon 
stroke="rgb(142,134,139)"
fill="rgb(142,134,139)"
stroke-width="70"
stroke-linejoin="round" 
opacity="1"
points="175.8898 , 329.949425 163.8898 , 332.949425 177.8898 , 307.949425 173.8898 , 324.949425 164.8898 , 318.949425 150.8898 , 317.949425 136.8898 , 305.949425 143.8898 , 312.949425 146.8898 , 303.949425 130.8898 , 322.949425 135.8898 , 296.949425 151.8898 , 329.949425 ">
</polygon><polygon 
stroke="rgb(142,134,139)"
fill="rgb(142,134,139)"
stroke-width="60"
stroke-linejoin="round" 
opacity="1"
points="175.8898 , 311.949425 169.8898 , 316.949425 164.8898 , 308.949425 172.8898 , 326.949425 176.8898 , 319.949425 182.8898 , 313.949425 181.8898 , 315.949425 186.8898 , 314.949425 196.8898 , 315.949425 206.8898 , 325.949425 198.8898 , 325.949425 189.8898 , 315.949425 ">
</polygon><polygon 
stroke="rgb(152,144,149)"
fill="rgb(152,144,149)"
stroke-width="80"
stroke-linejoin="round" 
opacity="1"
points="377.9552 , 324.1792 376.9552 , 307.1792 380.9552 , 285.1792 395.9552 , 324.1792 414.9552 , 301.1792 420.9552 , 334.1792 445.9552 , 336.1792 442.9552 , 286.1792 434.9552 , 335.1792 447.9552 , 282.1792 430.9552 , 327.1792 448.9552 , 292.1792 432.9552 , 316.1792 438.9552 , 286.1792 419.9552 , 309.1792 422.9552 , 330.1792 400.9552 , 325.1792 403.9552 , 284.1792 378.9552 , 297.1792 388.9552 , 322.1792 369.9552 , 312.1792 398.9552 , 323.1792 ">
</polygon><polygon 
stroke="rgb(162,154,159)"
fill="rgb(162,154,159)"
stroke-width="60"
stroke-linejoin="round" 
opacity="1"
points="394.9552 , 310.1792 403.9552 , 315.1792 413.9552 , 310.1792 409.9552 , 309.1792 409.9552 , 314.1792 417.9552 , 304.1792 423.9552 , 305.1792 426.9552 , 300.1792 423.9552 , 296.1792 426.9552 , 303.1792 431.9552 , 316.1792 ">
</polygon><polygon 
stroke="rgb(152,144,149)"
fill="rgb(152,144,149)"
stroke-width="80"
stroke-linejoin="round" 
opacity="1"
points="256.8898 , 292.949425 235.8898 , 319.949425 259.8898 , 333.949425 266.8898 , 332.949425 259.8898 , 332.949425 276.8898 , 297.949425 279.8898 , 297.949425 302.8898 , 288.949425 327.8898 , 314.949425 344.8898 , 291.949425 337.8898 , 320.949425 366.8898 , 333.949425 364.8898 , 322.949425 334.8898 , 281.949425 313.8898 , 308.949425 285.8898 , 316.949425 278.8898 , 284.949425 272.8898 , 329.949425 276.8898 , 286.949425 286.8898 , 307.949425 294.8898 , 283.949425 300.8898 , 292.949425 326.8898 , 315.949425 ">
</polygon><polygon 
stroke="rgb(142,134,139)"
fill="rgb(142,134,139)"
stroke-width="70"
stroke-linejoin="round" 
opacity="1"
points="247.8898 , 302.949425 256.8898 , 316.949425 267.8898 , 301.949425 249.8898 , 289.949425 240.8898 , 303.949425 220.8898 , 286.949425 205.8898 , 306.949425 207.8898 , 294.949425 197.8898 , 321.949425 188.8898 , 291.949425 170.8898 , 294.949425 175.8898 , 321.949425 168.8898 , 322.949425 174.8898 , 301.949425 157.8898 , 316.949425 168.8898 , 294.949425 175.8898 , 291.949425 179.8898 , 310.949425 169.8898 , 317.949425 152.8898 , 287.949425 ">
</polygon><polygon 
stroke="rgb(142,134,139)"
fill="rgb(142,134,139)"
stroke-width="60"
stroke-linejoin="round" 
opacity="1"
points="250.8898 , 316.949425 245.8898 , 303.949425 243.8898 , 309.949425 243.8898 , 297.949425 235.8898 , 306.949425 231.8898 , 314.949425 237.8898 , 314.949425 230.8898 , 296.949425 234.8898 , 306.949425 238.8898 , 304.949425 240.8898 , 304.949425 250.8898 , 311.949425 258.8898 , 316.949425 264.8898 , 307.949425 257.8898 , 304.949425 265.8898 , 302.949425 266.8898 , 303.949425 260.8898 , 312.949425 253.8898 , 316.949425 263.8898 , 309.949425 ">
</polygon><path d="M 240 480 c 2.2666666666667,-45.2 4.5333333333333,-135.6 34,-339 
C 292.53333333333,371.4 290.26666666667,461.8 299,480
 " stroke="rgb(187,150,163)" stroke-linejoin="arcs"  stroke-width="5" fill="rgb(187,150,163)"/><path d="M 259.3664 250.0224 c -74,-2.6666666666667 -44.4,-3.2 -74,-8 
C 222.3664,247.8224 192.7664,248.35573333333 256.575,273.421875
 " stroke="rgb(187,150,163)" stroke-linejoin="arcs"  stroke-width="5" fill="rgb(187,150,163)"/><path d="M 248.2654 353.120775 c 18.666666666667,-21.333333333333 5.3333333333333,-42.666666666667 40,-80 
C 257.59873333333,320.45410833333 270.93206666667,341.78744166667 246.8,369.825
 " stroke="rgb(187,150,163)" stroke-linejoin="arcs"  stroke-width="5" fill="rgb(187,150,163)"/><path d="M 254.0896 295.3806 c 74.133333333333,-21.066666666667 111.2,-21.066666666667 139,-79 
C 379.1896,284.18893333333 342.12293333333,284.18893333333 251.8898,315.949425
 " stroke="rgb(187,150,163)" stroke-linejoin="arcs"  stroke-width="5" fill="rgb(187,150,163)"/><path d="M 254.0896 295.3806 c -49.466666666667,-6.5333333333333 -21.2,-19.6 -106,-49 
C 243.4896,281.9056 215.22293333333,294.97226666667 251.8898,315.949425
 " stroke="rgb(187,150,163)" stroke-linejoin="arcs"  stroke-width="5" fill="rgb(187,150,163)"/><path d="M 256.575 273.421875 c 72.8,-25.066666666667 62.4,-25.066666666667 78,-47 
C 326.775,254.23020833333 337.175,254.23020833333 254.0896,295.3806
 " stroke="rgb(187,150,163)" stroke-linejoin="arcs"  stroke-width="5" fill="rgb(187,150,163)"/><path d="M 259.3664 250.0224 c 88.8,-34.066666666667 88.8,-14.6 148,-73 
C 362.9664,244.5474 362.9664,225.08073333333 256.575,273.421875
 " stroke="rgb(187,150,163)" stroke-linejoin="arcs"  stroke-width="5" fill="rgb(187,150,163)"/><path d="M 251.8898 315.949425 c -9.3333333333333,0.4 -9.3333333333333,0.2 -70,1 
C 249.55646666667,316.274425 249.55646666667,316.474425 249.9552,335.1792
 " stroke="rgb(187,150,163)" stroke-linejoin="arcs"  stroke-width="5" fill="rgb(187,150,163)"/><path d="M 249.9552 335.1792 c 101.2,-13.533333333333 27.6,-13.533333333333 138,-29 
C 291.3552,325.27086666667 364.9552,325.27086666667 248.2654,353.120775
 " stroke="rgb(187,150,163)" stroke-linejoin="arcs"  stroke-width="5" fill="rgb(187,150,163)"/><path d="M 251.8898 315.949425 c -0.33333333333333,-3.6 -4.6666666666667,-1.8 -5,-9 
C 247.72313333333,315.274425 252.05646666667,313.474425 249.9552,335.1792
 " stroke="rgb(187,150,163)" stroke-linejoin="arcs"  stroke-width="5" fill="rgb(187,150,163)"/><polygon 
stroke="rgb(162,154,159)"
fill="rgb(162,154,159)"
stroke-width="80"
stroke-linejoin="round" 
opacity="1"
points="188.3664 , 214.0224 162.3664 , 214.0224 144.3664 , 269.0224 140.3664 , 233.0224 141.3664 , 214.0224 169.3664 , 254.0224 195.3664 , 267.0224 188.3664 , 240.0224 192.3664 , 265.0224 188.3664 , 219.0224 167.3664 , 245.0224 176.3664 , 247.0224 175.3664 , 233.0224 164.3664 , 232.0224 164.3664 , 268.0224 193.3664 , 220.0224 189.3664 , 248.0224 169.3664 , 250.0224 142.3664 , 239.0224 119.3664 , 215.0224 136.3664 , 223.0224 152.3664 , 244.0224 173.3664 , 242.0224 203.3664 , 223.0224 229.3664 , 263.0224 ">
</polygon><polygon 
stroke="rgb(162,154,159)"
fill="rgb(162,154,159)"
stroke-width="80"
stroke-linejoin="round" 
opacity="1"
points="404.0896 , 216.3806 428.0896 , 206.3806 414.0896 , 205.3806 403.0896 , 244.3806 386.0896 , 192.3806 363.0896 , 193.3806 361.0896 , 208.3806 344.0896 , 228.3806 373.0896 , 238.3806 387.0896 , 186.3806 368.0896 , 217.3806 340.0896 , 241.3806 336.0896 , 191.3806 354.0896 , 206.3806 380.0896 , 201.3806 363.0896 , 205.3806 355.0896 , 224.3806 329.0896 , 231.3806 357.0896 , 238.3806 364.0896 , 228.3806 375.0896 , 239.3806 371.0896 , 207.3806 ">
</polygon><polygon 
stroke="rgb(162,154,159)"
fill="rgb(162,154,159)"
stroke-width="70"
stroke-linejoin="round" 
opacity="1"
points="165.0896 , 248.3806 161.0896 , 248.3806 142.0896 , 262.3806 139.0896 , 227.3806 134.0896 , 232.3806 119.0896 , 251.3806 135.0896 , 228.3806 127.0896 , 240.3806 108.0896 , 251.3806 126.0896 , 246.3806 110.0896 , 265.3806 91.0896 , 228.3806 84.0896 , 231.3806 89.0896 , 226.3806 97.0896 , 266.3806 93.0896 , 243.3806 97.0896 , 234.3806 97.0896 , 252.3806 80.0896 , 260.3806 60.0896 , 230.3806 80.0896 , 235.3806 75.0896 , 238.3806 77.0896 , 255.3806 95.0896 , 253.3806 81.0896 , 240.3806 62.0896 , 229.3806 75.0896 , 261.3806 71.0896 , 233.3806 77.0896 , 248.3806 79.0896 , 249.3806 ">
</polygon><polygon 
stroke="rgb(162,154,159)"
fill="rgb(162,154,159)"
stroke-width="70"
stroke-linejoin="round" 
opacity="1"
points="330.575 , 206.421875 334.575 , 229.421875 324.575 , 229.421875 323.575 , 209.421875 343.575 , 210.421875 344.575 , 224.421875 343.575 , 237.421875 357.575 , 228.421875 348.575 , 226.421875 329.575 , 223.421875 320.575 , 233.421875 321.575 , 211.421875 315.575 , 213.421875 ">
</polygon><polygon 
stroke="rgb(162,154,159)"
fill="rgb(162,154,159)"
stroke-width="80"
stroke-linejoin="round" 
opacity="1"
points="162.8898 , 333.949425 186.8898 , 329.949425 157.8898 , 310.949425 140.8898 , 307.949425 121.8898 , 305.949425 141.8898 , 337.949425 126.8898 , 328.949425 139.8898 , 291.949425 158.8898 , 294.949425 141.8898 , 291.949425 152.8898 , 292.949425 122.8898 , 310.949425 123.8898 , 335.949425 128.8898 , 324.949425 111.8898 , 333.949425 ">
</polygon><polygon 
stroke="rgb(162,154,159)"
fill="rgb(162,154,159)"
stroke-width="70"
stroke-linejoin="round" 
opacity="1"
points="390.9552 , 323.1792 374.9552 , 286.1792 376.9552 , 299.1792 380.9552 , 293.1792 394.9552 , 297.1792 377.9552 , 295.1792 375.9552 , 301.1792 388.9552 , 310.1792 392.9552 , 321.1792 408.9552 , 323.1792 400.9552 , 294.1792 388.9552 , 290.1792 ">
</polygon></svg>