<?xml version="1.0" encoding="iso-8859-1"?>
<svg version="1.1" id="Capa_1" xmlns="http://www.w3.org/2000/svg" xmlns:xlink="http://www.w3.org/1999/xlink" x="0px" y="0px"
viewBox="0 0 500 500" xml:space="preserve"><defs></defs><polygon 
stroke="rgb(179,167,204)"
fill="rgb(179,167,204)"
stroke-width="70"
stroke-linejoin="round" 
opacity="1"
points="249 , 172 229 , 155 241 , 182 253 , 186 239 , 164 244 , 183 250 , 180 266 , 159 275 , 184 275 , 163 278 , 172 279 , 186 294 , 181 276 , 185 264 , 168 256 , 159 240 , 172 245 , 165 230 , 160 243 , 172 240 , 183 229 , 150 209 , 185 207 , 146 ">
</polygon><polygon 
stroke="rgb(169,157,194)"
fill="rgb(169,157,194)"
stroke-width="60"
stroke-linejoin="round" 
opacity="1"
points="239 , 164 233 , 172 233 , 156 232 , 171 236 , 163 246 , 165 256 , 171 251 , 169 252 , 168 244 , 172 241 , 172 233 , 175 234 , 175 237 , 158 246 , 159 255 , 167 254 , 156 259 , 174 262 , 173 253 , 159 260 , 167 257 , 164 ">
</polygon><polygon 
stroke="rgb(169,157,194)"
fill="rgb(169,157,194)"
stroke-width="80"
stroke-linejoin="round" 
opacity="1"
points="178 , 178.5336 190 , 194.5336 172 , 193.5336 175 , 196.5336 196 , 181.5336 200 , 167.5336 175 , 182.5336 160 , 154.5336 145 , 164.5336 121 , 149.5336 123 , 153.5336 117 , 188.5336 108 , 177.5336 108 , 198.5336 100 , 181.5336 ">
</polygon><polygon 
stroke="rgb(159,147,184)"
fill="rgb(159,147,184)"
stroke-width="70"
stroke-linejoin="round" 
opacity="1"
points="214 , 164.5336 219 , 161.5336 235 , 162.5336 247 , 159.5336 227 , 176.5336 223 , 157.5336 228 , 187.5336 238 , 155.5336 218 , 166.5336 211 , 187.5336 213 , 159.5336 233 , 153.5336 246 , 155.5336 241 , 191.5336 240 , 170.5336 247 , 193.5336 253 , 168.5336 251 , 182.5336 245 , 162.5336 228 , 162.5336 232 , 156.5336 239 , 156.5336 219 , 187.5336 210 , 181.5336 215 , 165.5336 ">
</polygon><polygon 
stroke="rgb(169,157,194)"
fill="rgb(169,157,194)"
stroke-width="60"
stroke-linejoin="round" 
opacity="1"
points="206 , 175.5336 198 , 175.5336 203 , 168.5336 198 , 181.5336 201 , 163.5336 195 , 167.5336 190 , 163.5336 193 , 165.5336 185 , 164.5336 191 , 172.5336 198 , 174.5336 194 , 163.5336 204 , 180.5336 202 , 163.5336 ">
</polygon><polygon 
stroke="rgb(159,147,184)"
fill="rgb(159,147,184)"
stroke-width="80"
stroke-linejoin="round" 
opacity="1"
points="166 , 243.6768 138 , 249.6768 151 , 241.6768 141 , 250.6768 160 , 240.6768 131 , 251.6768 121 , 246.6768 144 , 232.6768 115 , 251.6768 142 , 237.6768 152 , 244.6768 170 , 250.6768 155 , 221.6768 178 , 239.6768 182 , 231.6768 209 , 244.6768 183 , 257.6768 187 , 250.6768 175 , 243.6768 186 , 210.6768 163 , 235.6768 193 , 260.6768 169 , 229.6768 ">
</polygon><polygon 
stroke="rgb(169,157,194)"
fill="rgb(169,157,194)"
stroke-width="70"
stroke-linejoin="round" 
opacity="1"
points="196 , 251.6768 200 , 257.6768 188 , 246.6768 183 , 247.6768 164 , 227.6768 178 , 241.6768 182 , 252.6768 197 , 219.6768 184 , 258.6768 193 , 250.6768 ">
</polygon><polygon 
stroke="rgb(179,167,204)"
fill="rgb(179,167,204)"
stroke-width="60"
stroke-linejoin="round" 
opacity="1"
points="195 , 235.6768 186 , 241.6768 194 , 248.6768 195 , 233.6768 199 , 234.6768 199 , 243.6768 198 , 233.6768 200 , 249.6768 202 , 249.6768 196 , 242.6768 186 , 230.6768 179 , 235.6768 177 , 232.6768 183 , 229.6768 191 , 243.6768 181 , 235.6768 176 , 244.6768 166 , 237.6768 167 , 248.6768 170 , 237.6768 175 , 236.6768 173 , 232.6768 173 , 235.6768 167 , 234.6768 159 , 248.6768 156 , 235.6768 152 , 235.6768 145 , 236.6768 148 , 232.6768 ">
</polygon><polygon 
stroke="rgb(159,147,184)"
fill="rgb(159,147,184)"
stroke-width="80"
stroke-linejoin="round" 
opacity="1"
points="354 , 307.8016 359 , 292.8016 359 , 313.8016 351 , 276.8016 339 , 306.8016 336 , 288.8016 310 , 327.8016 299 , 302.8016 294 , 305.8016 321 , 305.8016 338 , 313.8016 326 , 320.8016 310 , 314.8016 ">
</polygon><polygon 
stroke="rgb(179,167,204)"
fill="rgb(179,167,204)"
stroke-width="60"
stroke-linejoin="round" 
opacity="1"
points="378 , 291.8016 368 , 309.8016 364 , 306.8016 369 , 306.8016 375 , 295.8016 368 , 306.8016 361 , 308.8016 368 , 293.8016 360 , 296.8016 357 , 301.8016 358 , 308.8016 366 , 293.8016 358 , 303.8016 359 , 297.8016 ">
</polygon><polygon 
stroke="rgb(179,167,204)"
fill="rgb(179,167,204)"
stroke-width="70"
stroke-linejoin="round" 
opacity="1"
points="224 , 128.4048 232 , 130.4048 252 , 119.4048 262 , 147.4048 248 , 132.4048 247 , 122.4048 227 , 131.4048 243 , 123.4048 255 , 144.4048 272 , 128.4048 280 , 141.4048 291 , 114.4048 ">
</polygon><polygon 
stroke="rgb(179,167,204)"
fill="rgb(179,167,204)"
stroke-width="60"
stroke-linejoin="round" 
opacity="1"
points="208 , 124.4048 202 , 139.4048 211 , 123.4048 208 , 124.4048 199 , 130.4048 196 , 128.4048 199 , 129.4048 197 , 134.4048 194 , 130.4048 204 , 131.4048 199 , 127.4048 204 , 134.4048 201 , 134.4048 204 , 123.4048 207 , 136.4048 208 , 139.4048 218 , 126.4048 210 , 140.4048 215 , 120.4048 211 , 133.4048 207 , 123.4048 213 , 140.4048 212 , 121.4048 216 , 124.4048 217 , 134.4048 223 , 133.4048 ">
</polygon><polygon 
stroke="rgb(159,147,184)"
fill="rgb(159,147,184)"
stroke-width="80"
stroke-linejoin="round" 
opacity="1"
points="240 , 228.7904 230 , 198.7904 260 , 222.7904 261 , 205.7904 283 , 197.7904 282 , 201.7904 254 , 238.7904 261 , 197.7904 231 , 240.7904 232 , 191.7904 219 , 204.7904 209 , 214.7904 193 , 229.7904 177 , 243.7904 151 , 219.7904 149 , 222.7904 134 , 186.7904 138 , 238.7904 123 , 242.7904 93 , 242.7904 74 , 218.7904 53 , 205.7904 57 , 208.7904 84 , 188.7904 88 , 246.7904 ">
</polygon><polygon 
stroke="rgb(169,157,194)"
fill="rgb(169,157,194)"
stroke-width="70"
stroke-linejoin="round" 
opacity="1"
points="247 , 211.7904 255 , 212.7904 259 , 233.7904 276 , 200.7904 274 , 231.7904 275 , 197.7904 273 , 230.7904 254 , 208.7904 248 , 231.7904 267 , 196.7904 264 , 235.7904 282 , 217.7904 272 , 222.7904 278 , 206.7904 264 , 226.7904 252 , 229.7904 271 , 212.7904 257 , 231.7904 237 , 234.7904 253 , 215.7904 241 , 222.7904 240 , 231.7904 246 , 218.7904 236 , 205.7904 ">
</polygon><polygon 
stroke="rgb(179,167,204)"
fill="rgb(179,167,204)"
stroke-width="60"
stroke-linejoin="round" 
opacity="1"
points="273 , 223.7904 275 , 219.7904 279 , 210.7904 276 , 214.7904 283 , 207.7904 274 , 210.7904 269 , 221.7904 276 , 217.7904 278 , 219.7904 278 , 208.7904 277 , 226.7904 282 , 221.7904 282 , 222.7904 281 , 209.7904 285 , 212.7904 287 , 221.7904 296 , 206.7904 298 , 221.7904 293 , 211.7904 288 , 224.7904 280 , 214.7904 270 , 214.7904 268 , 226.7904 263 , 225.7904 262 , 223.7904 264 , 207.7904 273 , 218.7904 272 , 206.7904 279 , 206.7904 272 , 216.7904 ">
</polygon><polygon 
stroke="rgb(169,157,194)"
fill="rgb(169,157,194)"
stroke-width="70"
stroke-linejoin="round" 
opacity="1"
points="165 , 163.7904 149 , 155.7904 155 , 141.7904 171 , 158.7904 181 , 138.7904 172 , 139.7904 181 , 134.7904 198 , 173.7904 193 , 144.7904 191 , 141.7904 187 , 162.7904 201 , 134.7904 211 , 145.7904 197 , 166.7904 203 , 135.7904 193 , 166.7904 203 , 137.7904 212 , 172.7904 230 , 138.7904 247 , 154.7904 265 , 157.7904 283 , 143.7904 283 , 153.7904 269 , 167.7904 268 , 155.7904 248 , 171.7904 245 , 156.7904 ">
</polygon><polygon 
stroke="rgb(169,157,194)"
fill="rgb(169,157,194)"
stroke-width="60"
stroke-linejoin="round" 
opacity="1"
points="157 , 162.7904 154 , 143.7904 162 , 153.7904 157 , 147.7904 165 , 154.7904 170 , 144.7904 176 , 151.7904 173 , 145.7904 177 , 155.7904 180 , 160.7904 177 , 151.7904 175 , 158.7904 182 , 145.7904 192 , 144.7904 185 , 151.7904 179 , 143.7904 173 , 151.7904 182 , 149.7904 178 , 152.7904 187 , 148.7904 180 , 150.7904 181 , 159.7904 184 , 159.7904 182 , 150.7904 192 , 161.7904 195 , 155.7904 ">
</polygon><polygon 
stroke="rgb(179,167,204)"
fill="rgb(179,167,204)"
stroke-width="80"
stroke-linejoin="round" 
opacity="1"
points="194 , 255.5336 176 , 267.5336 181 , 265.5336 161 , 281.5336 177 , 245.5336 204 , 264.5336 191 , 255.5336 185 , 261.5336 194 , 250.5336 220 , 278.5336 250 , 257.5336 275 , 257.5336 249 , 269.5336 259 , 276.5336 254 , 265.5336 258 , 253.5336 279 , 289.5336 299 , 296.5336 317 , 295.5336 311 , 262.5336 328 , 240.5336 336 , 279.5336 317 , 256.5336 340 , 282.5336 367 , 246.5336 395 , 259.5336 ">
</polygon><polygon 
stroke="rgb(179,167,204)"
fill="rgb(179,167,204)"
stroke-width="70"
stroke-linejoin="round" 
opacity="1"
points="203 , 253.5336 196 , 253.5336 185 , 278.5336 201 , 286.5336 197 , 266.5336 190 , 249.5336 184 , 253.5336 196 , 256.5336 211 , 261.5336 220 , 251.5336 230 , 275.5336 241 , 272.5336 236 , 251.5336 247 , 265.5336 241 , 272.5336 227 , 267.5336 242 , 251.5336 251 , 279.5336 251 , 283.5336 250 , 261.5336 ">
</polygon><polygon 
stroke="rgb(169,157,194)"
fill="rgb(169,157,194)"
stroke-width="60"
stroke-linejoin="round" 
opacity="1"
points="211 , 279.5336 219 , 263.5336 209 , 273.5336 206 , 277.5336 199 , 268.5336 206 , 275.5336 201 , 277.5336 204 , 266.5336 198 , 277.5336 204 , 264.5336 202 , 279.5336 194 , 267.5336 190 , 269.5336 186 , 262.5336 194 , 270.5336 190 , 274.5336 183 , 273.5336 178 , 262.5336 169 , 267.5336 179 , 266.5336 182 , 269.5336 190 , 275.5336 187 , 269.5336 190 , 260.5336 ">
</polygon><polygon 
stroke="rgb(159,147,184)"
fill="rgb(159,147,184)"
stroke-width="80"
stroke-linejoin="round" 
opacity="1"
points="182 , 295.4 155 , 333.4 155 , 335.4 155 , 304.4 127 , 310.4 134 , 336.4 120 , 283.4 106 , 318.4 79 , 282.4 93 , 311.4 105 , 321.4 91 , 293.4 89 , 320.4 119 , 278.4 134 , 306.4 110 , 314.4 ">
</polygon><polygon 
stroke="rgb(179,167,204)"
fill="rgb(179,167,204)"
stroke-width="70"
stroke-linejoin="round" 
opacity="1"
points="169 , 289.4 152 , 304.4 164 , 306.4 182 , 298.4 166 , 324.4 175 , 292.4 177 , 322.4 183 , 312.4 168 , 306.4 165 , 304.4 ">
</polygon><polygon 
stroke="rgb(179,167,204)"
fill="rgb(179,167,204)"
stroke-width="80"
stroke-linejoin="round" 
opacity="1"
points="296 , 267.7904 302 , 248.7904 273 , 269.7904 251 , 225.7904 255 , 257.7904 258 , 221.7904 265 , 229.7904 282 , 270.7904 276 , 227.7904 278 , 246.7904 288 , 260.7904 299 , 230.7904 306 , 273.7904 292 , 219.7904 304 , 227.7904 290 , 242.7904 ">
</polygon><polygon 
stroke="rgb(169,157,194)"
fill="rgb(169,157,194)"
stroke-width="70"
stroke-linejoin="round" 
opacity="1"
points="271 , 251.7904 255 , 259.7904 263 , 252.7904 259 , 242.7904 270 , 242.7904 259 , 245.7904 265 , 264.7904 275 , 255.7904 256 , 228.7904 236 , 255.7904 228 , 226.7904 221 , 252.7904 214 , 254.7904 214 , 258.7904 ">
</polygon><polygon 
stroke="rgb(169,157,194)"
fill="rgb(169,157,194)"
stroke-width="60"
stroke-linejoin="round" 
opacity="1"
points="260 , 252.7904 251 , 240.7904 260 , 234.7904 256 , 236.7904 263 , 245.7904 258 , 238.7904 253 , 254.7904 245 , 235.7904 247 , 240.7904 238 , 253.7904 230 , 245.7904 222 , 245.7904 217 , 250.7904 220 , 237.7904 230 , 244.7904 237 , 248.7904 230 , 239.7904 234 , 234.7904 230 , 253.7904 235 , 253.7904 242 , 249.7904 243 , 237.7904 240 , 249.7904 241 , 243.7904 242 , 236.7904 ">
</polygon><path d="M 240 480 c 0,-146.53333333333 0,-83.733333333333 0,-314 
C 292,423.26666666667 292,360.46666666667 318,480
 " stroke="rgb(120,150,160)" stroke-linejoin="arcs"  stroke-width="5" fill="rgb(120,150,160)"/><path d="M 240 251.5336 c -34.666666666667,-26 -5.3333333333333,-31.2 -40,-78 
C 238.66666666667,230.0836 209.33333333333,235.2836 240,273.0112
 " stroke="rgb(120,150,160)" stroke-linejoin="arcs"  stroke-width="5" fill="rgb(120,150,160)"/><path d="M 240 307.6768 c 0,-36.266666666667 -13.066666666667,-22.666666666667 -49,-68 
C 231.83333333333,293.51013333333 244.9,279.91013333333 240,321.6184
 " stroke="rgb(120,150,160)" stroke-linejoin="arcs"  stroke-width="5" fill="rgb(120,150,160)"/><path d="M 240 333.8016 c 117,-6.6 63,-4.4 135,-33 
C 316.5,333.5266 370.5,331.3266 240,344.6032
 " stroke="rgb(120,150,160)" stroke-linejoin="arcs"  stroke-width="5" fill="rgb(120,150,160)"/><path d="M 240 198.4048 c -7.4666666666667,-27.2 -26.133333333333,-18.133333333333 -28,-68 
C 216.66666666667,188.77146666667 235.33333333333,179.7048 240,226.7904
 " stroke="rgb(120,150,160)" stroke-linejoin="arcs"  stroke-width="5" fill="rgb(120,150,160)"/><path d="M 240 226.7904 c 21.666666666667,-1.3333333333333 15,-3.3333333333333 25,-10 
C 257.5,224.70706666667 264.16666666667,226.70706666667 240,251.5336
 " stroke="rgb(120,150,160)" stroke-linejoin="arcs"  stroke-width="5" fill="rgb(120,150,160)"/><path d="M 240 226.7904 c -69.333333333333,-38.933333333333 0,-34.066666666667 -80,-73 
C 248,201.84873333333 178.66666666667,196.98206666667 240,251.5336
 " stroke="rgb(120,150,160)" stroke-linejoin="arcs"  stroke-width="5" fill="rgb(120,150,160)"/><path d="M 240 251.5336 c -10.4,8.4 -20.8,9.6 -39,18 
C 223.1,263.3836 233.5,262.1836 240,273.0112
 " stroke="rgb(120,150,160)" stroke-linejoin="arcs"  stroke-width="5" fill="rgb(120,150,160)"/><path d="M 240 354.4 c -34.666666666667,-9.4 -24.266666666667,-18.8 -52,-47 
C 220.93333333333,341.475 210.53333333333,350.875 240,363.5688
 " stroke="rgb(120,150,160)" stroke-linejoin="arcs"  stroke-width="5" fill="rgb(120,150,160)"/><path d="M 240 226.7904 c 0,8.4 5.6,8.4 28,18 
C 248.4,237.4404 242.8,237.4404 240,251.5336
 " stroke="rgb(120,150,160)" stroke-linejoin="arcs"  stroke-width="5" fill="rgb(120,150,160)"/><polygon 
stroke="rgb(169,157,194)"
fill="rgb(169,157,194)"
stroke-width="80"
stroke-linejoin="round" 
opacity="1"
points="241 , 193 244 , 176 257 , 148 252 , 158 272 , 146 280 , 141 284 , 176 263 , 167 238 , 156 229 , 154 206 , 184 214 , 136 191 , 171 180 , 140 182 , 168 205 , 138 193 , 194 214 , 165 195 , 147 199 , 178 211 , 155 228 , 158 ">
</polygon><polygon 
stroke="rgb(159,147,184)"
fill="rgb(159,147,184)"
stroke-width="70"
stroke-linejoin="round" 
opacity="1"
points="373 , 313.8016 383 , 292.8016 374 , 300.8016 366 , 290.8016 377 , 281.8016 380 , 320.8016 397 , 295.8016 410 , 300.8016 404 , 307.8016 388 , 291.8016 389 , 314.8016 380 , 285.8016 370 , 319.8016 387 , 299.8016 368 , 281.8016 372 , 317.8016 392 , 299.8016 385 , 318.8016 373 , 311.8016 362 , 292.8016 369 , 281.8016 352 , 320.8016 369 , 307.8016 387 , 290.8016 394 , 292.8016 410 , 299.8016 406 , 293.8016 389 , 298.8016 ">
</polygon><polygon 
stroke="rgb(169,157,194)"
fill="rgb(169,157,194)"
stroke-width="80"
stroke-linejoin="round" 
opacity="1"
points="224 , 157.4048 213 , 146.4048 190 , 122.4048 167 , 124.4048 180 , 157.4048 189 , 128.4048 192 , 154.4048 194 , 105.4048 165 , 133.4048 183 , 150.4048 212 , 122.4048 215 , 112.4048 ">
</polygon><polygon 
stroke="rgb(179,167,204)"
fill="rgb(179,167,204)"
stroke-width="80"
stroke-linejoin="round" 
opacity="1"
points="147 , 158.7904 144 , 138.7904 141 , 179.7904 117 , 127.7904 146 , 157.7904 172 , 183.7904 167 , 169.7904 194 , 168.7904 178 , 157.7904 166 , 164.7904 173 , 147.7904 190 , 146.7904 209 , 175.7904 231 , 138.7904 248 , 137.7904 231 , 173.7904 228 , 176.7904 254 , 126.7904 239 , 130.7904 247 , 137.7904 226 , 183.7904 243 , 137.7904 267 , 125.7904 257 , 157.7904 251 , 167.7904 221 , 178.7904 ">
</polygon><polygon 
stroke="rgb(169,157,194)"
fill="rgb(169,157,194)"
stroke-width="60"
stroke-linejoin="round" 
opacity="1"
points="179 , 317.4 171 , 307.4 161 , 311.4 154 , 297.4 162 , 317.4 161 , 303.4 162 , 306.4 152 , 304.4 146 , 301.4 136 , 310.4 140 , 299.4 149 , 307.4 143 , 314.4 138 , 298.4 142 , 304.4 145 , 300.4 149 , 301.4 149 , 315.4 144 , 304.4 146 , 303.4 150 , 315.4 151 , 305.4 149 , 315.4 158 , 311.4 152 , 310.4 146 , 312.4 155 , 298.4 153 , 304.4 ">
</polygon></svg>