<?xml version="1.0" encoding="iso-8859-1"?>
<svg version="1.1" id="Capa_1" xmlns="http://www.w3.org/2000/svg" xmlns:xlink="http://www.w3.org/1999/xlink" x="0px" y="0px"
viewBox="0 0 500 500" xml:space="preserve"><defs></defs><polygon 
stroke="rgb(164,62,182)"
fill="rgb(164,62,182)"
stroke-width="70"
stroke-linejoin="round" 
opacity="1"
points="312 , 179 292 , 195 291 , 170 283 , 164 292 , 199 290 , 186 272 , 178 284 , 172 282 , 162 286 , 183 303 , 186 322 , 182 333 , 183 313 , 167 328 , 184 332 , 192 346 , 188 342 , 163 351 , 192 341 , 187 321 , 176 314 , 163 327 , 179 343 , 164 356 , 167 357 , 167 ">
</polygon><polygon 
stroke="rgb(154,52,172)"
fill="rgb(154,52,172)"
stroke-width="60"
stroke-linejoin="round" 
opacity="1"
points="314 , 170 323 , 187 324 , 181 318 , 170 309 , 188 309 , 172 301 , 170 311 , 186 321 , 173 325 , 181 315 , 171 323 , 170 319 , 169 315 , 177 323 , 172 ">
</polygon><polygon 
stroke="rgb(164,62,182)"
fill="rgb(164,62,182)"
stroke-width="80"
stroke-linejoin="round" 
opacity="1"
points="239.5 , 224.934375 250.5 , 275.934375 257.5 , 233.934375 230.5 , 268.934375 231.5 , 277.934375 255.5 , 224.934375 263.5 , 243.934375 251.5 , 242.934375 279.5 , 261.934375 279.5 , 264.934375 304.5 , 273.934375 289.5 , 276.934375 283.5 , 270.934375 311.5 , 240.934375 311.5 , 228.934375 318.5 , 247.934375 307.5 , 223.934375 305.5 , 218.934375 318.5 , 229.934375 316.5 , 232.934375 ">
</polygon><polygon 
stroke="rgb(164,62,182)"
fill="rgb(164,62,182)"
stroke-width="70"
stroke-linejoin="round" 
opacity="1"
points="217.5 , 256.934375 219.5 , 251.934375 220.5 , 268.934375 232.5 , 265.934375 232.5 , 264.934375 227.5 , 253.934375 213.5 , 254.934375 222.5 , 233.934375 241.5 , 241.934375 221.5 , 229.934375 211.5 , 244.934375 216.5 , 264.934375 216.5 , 239.934375 235.5 , 249.934375 221.5 , 260.934375 ">
</polygon><polygon 
stroke="rgb(164,62,182)"
fill="rgb(164,62,182)"
stroke-width="60"
stroke-linejoin="round" 
opacity="1"
points="216.5 , 252.934375 221.5 , 251.934375 213.5 , 252.934375 205.5 , 246.934375 200.5 , 249.934375 190.5 , 253.934375 190.5 , 244.934375 186.5 , 254.934375 188.5 , 255.934375 196.5 , 249.934375 200.5 , 258.934375 203.5 , 250.934375 208.5 , 256.934375 214.5 , 238.934375 206.5 , 243.934375 216.5 , 245.934375 221.5 , 248.934375 218.5 , 238.934375 209.5 , 253.934375 211.5 , 248.934375 215.5 , 238.934375 206.5 , 258.934375 198.5 , 253.934375 195.5 , 254.934375 196.5 , 244.934375 193.5 , 239.934375 ">
</polygon><polygon 
stroke="rgb(154,52,172)"
fill="rgb(154,52,172)"
stroke-width="80"
stroke-linejoin="round" 
opacity="1"
points="355.5 , 263.934375 359.5 , 249.934375 358.5 , 261.934375 337.5 , 240.934375 343.5 , 238.934375 320.5 , 287.934375 304.5 , 286.934375 284.5 , 290.934375 308.5 , 285.934375 319.5 , 236.934375 315.5 , 262.934375 ">
</polygon><polygon 
stroke="rgb(154,52,172)"
fill="rgb(154,52,172)"
stroke-width="70"
stroke-linejoin="round" 
opacity="1"
points="353.5 , 244.934375 337.5 , 284.934375 329.5 , 262.934375 313.5 , 258.934375 301.5 , 249.934375 303.5 , 250.934375 317.5 , 256.934375 300.5 , 266.934375 281.5 , 277.934375 293.5 , 247.934375 300.5 , 273.934375 309.5 , 270.934375 316.5 , 250.934375 302.5 , 254.934375 322.5 , 282.934375 ">
</polygon><polygon 
stroke="rgb(164,62,182)"
fill="rgb(164,62,182)"
stroke-width="60"
stroke-linejoin="round" 
opacity="1"
points="373.5 , 257.934375 367.5 , 273.934375 371.5 , 268.934375 374.5 , 254.934375 376.5 , 260.934375 386.5 , 269.934375 385.5 , 259.934375 376.5 , 272.934375 371.5 , 263.934375 375.5 , 271.934375 371.5 , 261.934375 381.5 , 262.934375 387.5 , 254.934375 393.5 , 262.934375 386.5 , 257.934375 391.5 , 269.934375 388.5 , 269.934375 382.5 , 274.934375 372.5 , 271.934375 364.5 , 259.934375 368.5 , 271.934375 366.5 , 256.934375 361.5 , 267.934375 357.5 , 257.934375 359.5 , 258.934375 356.5 , 259.934375 347.5 , 254.934375 338.5 , 262.934375 344.5 , 267.934375 ">
</polygon><polygon 
stroke="rgb(154,52,172)"
fill="rgb(154,52,172)"
stroke-width="80"
stroke-linejoin="round" 
opacity="1"
points="194.016 , 274.1856 181.016 , 274.1856 159.016 , 224.1856 189.016 , 238.1856 164.016 , 273.1856 143.016 , 227.1856 114.016 , 283.1856 108.016 , 249.1856 82.016 , 239.1856 79.016 , 265.1856 ">
</polygon><polygon 
stroke="rgb(174,72,192)"
fill="rgb(174,72,192)"
stroke-width="70"
stroke-linejoin="round" 
opacity="1"
points="172.016 , 243.1856 169.016 , 268.1856 173.016 , 262.1856 187.016 , 241.1856 194.016 , 273.1856 186.016 , 236.1856 206.016 , 271.1856 200.016 , 248.1856 195.016 , 251.1856 189.016 , 248.1856 175.016 , 250.1856 194.016 , 237.1856 206.016 , 236.1856 189.016 , 267.1856 196.016 , 270.1856 ">
</polygon><polygon 
stroke="rgb(164,62,182)"
fill="rgb(164,62,182)"
stroke-width="60"
stroke-linejoin="round" 
opacity="1"
points="179.016 , 250.1856 186.016 , 246.1856 187.016 , 249.1856 187.016 , 257.1856 186.016 , 247.1856 181.016 , 256.1856 186.016 , 254.1856 178.016 , 247.1856 186.016 , 260.1856 177.016 , 253.1856 185.016 , 256.1856 175.016 , 245.1856 173.016 , 256.1856 177.016 , 257.1856 173.016 , 252.1856 181.016 , 263.1856 174.016 , 256.1856 179.016 , 263.1856 187.016 , 259.1856 191.016 , 264.1856 187.016 , 254.1856 192.016 , 245.1856 189.016 , 248.1856 192.016 , 260.1856 191.016 , 262.1856 186.016 , 261.1856 179.016 , 254.1856 183.016 , 256.1856 ">
</polygon><polygon 
stroke="rgb(154,52,172)"
fill="rgb(154,52,172)"
stroke-width="80"
stroke-linejoin="round" 
opacity="1"
points="228.248 , 309.9618 219.248 , 298.9618 214.248 , 265.9618 205.248 , 299.9618 181.248 , 269.9618 197.248 , 305.9618 203.248 , 284.9618 209.248 , 275.9618 231.248 , 267.9618 242.248 , 300.9618 214.248 , 265.9618 212.248 , 293.9618 188.248 , 308.9618 170.248 , 291.9618 180.248 , 291.9618 197.248 , 291.9618 168.248 , 257.9618 166.248 , 276.9618 ">
</polygon><polygon 
stroke="rgb(154,52,172)"
fill="rgb(154,52,172)"
stroke-width="60"
stroke-linejoin="round" 
opacity="1"
points="212.248 , 284.9618 209.248 , 284.9618 201.248 , 296.9618 210.248 , 295.9618 216.248 , 292.9618 222.248 , 282.9618 220.248 , 290.9618 215.248 , 292.9618 209.248 , 277.9618 205.248 , 284.9618 203.248 , 285.9618 202.248 , 281.9618 ">
</polygon><polygon 
stroke="rgb(154,52,172)"
fill="rgb(154,52,172)"
stroke-width="80"
stroke-linejoin="round" 
opacity="1"
points="415.428 , 146.346675 423.428 , 172.346675 396.428 , 139.346675 378.428 , 126.346675 351.428 , 156.346675 332.428 , 126.346675 328.428 , 156.346675 304.428 , 143.346675 298.428 , 152.346675 280.428 , 158.346675 276.428 , 165.346675 267.428 , 177.346675 249.428 , 157.346675 220.428 , 141.346675 244.428 , 155.346675 267.428 , 127.346675 248.428 , 151.346675 237.428 , 134.346675 244.428 , 134.346675 256.428 , 144.346675 265.428 , 174.346675 272.428 , 170.346675 289.428 , 137.346675 288.428 , 175.346675 261.428 , 174.346675 253.428 , 147.346675 ">
</polygon><polygon 
stroke="rgb(154,52,172)"
fill="rgb(154,52,172)"
stroke-width="60"
stroke-linejoin="round" 
opacity="1"
points="424.428 , 146.346675 429.428 , 155.346675 438.428 , 149.346675 429.428 , 154.346675 423.428 , 157.346675 425.428 , 152.346675 416.428 , 147.346675 418.428 , 144.346675 414.428 , 151.346675 405.428 , 159.346675 410.428 , 159.346675 403.428 , 155.346675 408.428 , 155.346675 407.428 , 143.346675 405.428 , 146.346675 396.428 , 148.346675 386.428 , 146.346675 379.428 , 157.346675 377.428 , 157.346675 376.428 , 159.346675 ">
</polygon><polygon 
stroke="rgb(174,72,192)"
fill="rgb(174,72,192)"
stroke-width="80"
stroke-linejoin="round" 
opacity="1"
points="309.444 , 322.273525 327.444 , 297.273525 313.444 , 326.273525 292.444 , 307.273525 288.444 , 321.273525 278.444 , 327.273525 300.444 , 340.273525 282.444 , 303.273525 279.444 , 343.273525 300.444 , 351.273525 308.444 , 323.273525 337.444 , 339.273525 336.444 , 326.273525 365.444 , 314.273525 ">
</polygon><polygon 
stroke="rgb(164,62,182)"
fill="rgb(164,62,182)"
stroke-width="80"
stroke-linejoin="round" 
opacity="1"
points="335.248 , 258.9618 363.248 , 294.9618 370.248 , 308.9618 375.248 , 311.9618 347.248 , 298.9618 360.248 , 297.9618 380.248 , 302.9618 408.248 , 316.9618 425.248 , 282.9618 405.248 , 293.9618 422.248 , 297.9618 421.248 , 315.9618 449.248 , 278.9618 ">
</polygon><polygon 
stroke="rgb(154,52,172)"
fill="rgb(154,52,172)"
stroke-width="70"
stroke-linejoin="round" 
opacity="1"
points="306.248 , 293.9618 293.248 , 274.9618 279.248 , 274.9618 265.248 , 303.9618 261.248 , 277.9618 271.248 , 268.9618 289.248 , 292.9618 280.248 , 305.9618 292.248 , 296.9618 297.248 , 284.9618 278.248 , 302.9618 272.248 , 287.9618 272.248 , 291.9618 265.248 , 303.9618 246.248 , 306.9618 238.248 , 306.9618 225.248 , 272.9618 222.248 , 308.9618 213.248 , 284.9618 202.248 , 291.9618 201.248 , 306.9618 220.248 , 303.9618 202.248 , 270.9618 210.248 , 271.9618 221.248 , 272.9618 208.248 , 304.9618 216.248 , 277.9618 234.248 , 307.9618 251.248 , 289.9618 ">
</polygon><polygon 
stroke="rgb(154,52,172)"
fill="rgb(154,52,172)"
stroke-width="60"
stroke-linejoin="round" 
opacity="1"
points="324.248 , 279.9618 323.248 , 284.9618 316.248 , 283.9618 307.248 , 287.9618 310.248 , 295.9618 314.248 , 288.9618 317.248 , 293.9618 318.248 , 282.9618 319.248 , 282.9618 329.248 , 289.9618 330.248 , 283.9618 325.248 , 289.9618 329.248 , 287.9618 330.248 , 281.9618 328.248 , 296.9618 327.248 , 287.9618 334.248 , 288.9618 338.248 , 289.9618 ">
</polygon><polygon 
stroke="rgb(174,72,192)"
fill="rgb(174,72,192)"
stroke-width="80"
stroke-linejoin="round" 
opacity="1"
points="225.636 , 221.468225 246.636 , 201.468225 276.636 , 184.468225 255.636 , 188.468225 243.636 , 188.468225 215.636 , 162.468225 186.636 , 211.468225 215.636 , 161.468225 229.636 , 205.468225 231.636 , 164.468225 223.636 , 168.468225 248.636 , 209.468225 238.636 , 199.468225 221.636 , 210.468225 229.636 , 182.468225 203.636 , 197.468225 174.636 , 211.468225 195.636 , 201.468225 175.636 , 213.468225 184.636 , 212.468225 177.636 , 183.468225 184.636 , 207.468225 154.636 , 221.468225 134.636 , 179.468225 158.636 , 203.468225 170.636 , 167.468225 168.636 , 181.468225 162.636 , 209.468225 152.636 , 185.468225 ">
</polygon><polygon 
stroke="rgb(174,72,192)"
fill="rgb(174,72,192)"
stroke-width="70"
stroke-linejoin="round" 
opacity="1"
points="253.636 , 189.468225 269.636 , 191.468225 257.636 , 210.468225 242.636 , 202.468225 231.636 , 182.468225 222.636 , 209.468225 209.636 , 188.468225 218.636 , 210.468225 210.636 , 209.468225 218.636 , 176.468225 224.636 , 177.468225 209.636 , 180.468225 222.636 , 200.468225 233.636 , 194.468225 234.636 , 182.468225 233.636 , 195.468225 ">
</polygon><polygon 
stroke="rgb(154,52,172)"
fill="rgb(154,52,172)"
stroke-width="80"
stroke-linejoin="round" 
opacity="1"
points="345.444 , 311.273525 317.444 , 340.273525 315.444 , 333.273525 340.444 , 329.273525 342.444 , 343.273525 337.444 , 308.273525 325.444 , 329.273525 325.444 , 315.273525 315.444 , 310.273525 316.444 , 343.273525 311.444 , 368.273525 304.444 , 310.273525 306.444 , 319.273525 283.444 , 349.273525 295.444 , 348.273525 321.444 , 319.273525 318.444 , 366.273525 299.444 , 364.273525 281.444 , 368.273525 ">
</polygon><polygon 
stroke="rgb(164,62,182)"
fill="rgb(164,62,182)"
stroke-width="70"
stroke-linejoin="round" 
opacity="1"
points="363.444 , 357.273525 374.444 , 350.273525 366.444 , 318.273525 359.444 , 326.273525 358.444 , 322.273525 355.444 , 340.273525 370.444 , 329.273525 368.444 , 320.273525 372.444 , 339.273525 376.444 , 346.273525 385.444 , 356.273525 367.444 , 334.273525 ">
</polygon><polygon 
stroke="rgb(174,72,192)"
fill="rgb(174,72,192)"
stroke-width="60"
stroke-linejoin="round" 
opacity="1"
points="361.444 , 332.273525 365.444 , 345.273525 355.444 , 331.273525 365.444 , 344.273525 372.444 , 334.273525 371.444 , 341.273525 376.444 , 346.273525 376.444 , 346.273525 377.444 , 338.273525 381.444 , 344.273525 380.444 , 334.273525 374.444 , 342.273525 381.444 , 340.273525 381.444 , 340.273525 380.444 , 331.273525 373.444 , 334.273525 377.444 , 346.273525 374.444 , 339.273525 375.444 , 336.273525 380.444 , 346.273525 371.444 , 347.273525 366.444 , 344.273525 357.444 , 342.273525 348.444 , 336.273525 ">
</polygon><path d="M 240 480 c 32,-140.46666666667 26.666666666667,-100.33333333333 80,-301 
C 315.66666666667,407.66666666667 321,367.53333333333 316,480
 " stroke="rgb(70,160,142)" stroke-linejoin="arcs"  stroke-width="5" fill="rgb(70,160,142)"/><path d="M 289.5 290.934375 c -63,-22.4 -8.4,-11.2 -63,-42 
C 287.4,284.984375 232.8,273.784375 285.248,305.9618
 " stroke="rgb(70,160,142)" stroke-linejoin="arcs"  stroke-width="5" fill="rgb(70,160,142)"/><path d="M 289.5 290.934375 c 60.133333333333,-12.133333333333 43.733333333333,-10.4 82,-26 
C 341.43333333333,283.784375 357.83333333333,282.05104166667 285.248,305.9618
 " stroke="rgb(70,160,142)" stroke-linejoin="arcs"  stroke-width="5" fill="rgb(70,160,142)"/><path d="M 278.016 331.1856 c -59.4,-41.066666666667 -99,-15.4 -99,-77 
C 188.916,325.4106 228.516,299.74393333333 274.892,342.014075
 " stroke="rgb(70,160,142)" stroke-linejoin="arcs"  stroke-width="5" fill="rgb(70,160,142)"/><path d="M 285.248 305.9618 c -21.333333333333,-3.6 -25.6,-4.8 -64,-18 
C 266.048,303.4118 270.31466666667,304.6118 281.444,319.273525
 " stroke="rgb(70,160,142)" stroke-linejoin="arcs"  stroke-width="5" fill="rgb(70,160,142)"/><path d="M 312.428 207.346675 c 0,-15.2 70.666666666667,-7.6 106,-57 
C 393.69466666667,206.871675 323.028,199.271675 305.664,232.3974
 " stroke="rgb(70,160,142)" stroke-linejoin="arcs"  stroke-width="5" fill="rgb(70,160,142)"/><path d="M 281.444 319.273525 c 22.8,2.8 34.2,2 57,6 
C 321.344,322.023525 309.944,322.823525 278.016,331.1856
 " stroke="rgb(70,160,142)" stroke-linejoin="arcs"  stroke-width="5" fill="rgb(70,160,142)"/><path d="M 285.248 305.9618 c 12.8,-3.4 8.5333333333333,-5.6666666666667 32,-17 
C 296.98133333333,302.42013333333 301.248,304.6868 281.444,319.273525
 " stroke="rgb(70,160,142)" stroke-linejoin="arcs"  stroke-width="5" fill="rgb(70,160,142)"/><path d="M 299.636 254.468225 c -4.3333333333333,-8.4 -21.666666666667,-8.4 -65,-63 
C 284.46933333333,253.943225 301.80266666667,253.943225 294.272,273.8752
 " stroke="rgb(70,160,142)" stroke-linejoin="arcs"  stroke-width="5" fill="rgb(70,160,142)"/><path d="M 281.444 319.273525 c 34,5.0666666666667 28.333333333333,10.133333333333 85,19 
C 318.27733333333,331.78185833333 323.944,326.71519166667 278.016,331.1856
 " stroke="rgb(70,160,142)" stroke-linejoin="arcs"  stroke-width="5" fill="rgb(70,160,142)"/><polygon 
stroke="rgb(174,72,192)"
fill="rgb(174,72,192)"
stroke-width="80"
stroke-linejoin="round" 
opacity="1"
points="290 , 198 277 , 159 297 , 177 294 , 150 271 , 194 277 , 187 286 , 170 307 , 157 294 , 179 285 , 162 271 , 171 247 , 190 267 , 153 246 , 185 233 , 203 215 , 197 ">
</polygon><polygon 
stroke="rgb(154,52,172)"
fill="rgb(154,52,172)"
stroke-width="70"
stroke-linejoin="round" 
opacity="1"
points="224.248 , 276.9618 240.248 , 305.9618 225.248 , 287.9618 217.248 , 267.9618 234.248 , 297.9618 239.248 , 292.9618 235.248 , 298.9618 253.248 , 303.9618 270.248 , 295.9618 262.248 , 306.9618 249.248 , 301.9618 247.248 , 284.9618 248.248 , 278.9618 257.248 , 298.9618 267.248 , 287.9618 256.248 , 305.9618 237.248 , 268.9618 ">
</polygon><polygon 
stroke="rgb(174,72,192)"
fill="rgb(174,72,192)"
stroke-width="70"
stroke-linejoin="round" 
opacity="1"
points="436.428 , 150.346675 428.428 , 167.346675 414.428 , 133.346675 419.428 , 167.346675 407.428 , 150.346675 403.428 , 147.346675 408.428 , 152.346675 426.428 , 144.346675 420.428 , 162.346675 413.428 , 135.346675 395.428 , 136.346675 393.428 , 138.346675 390.428 , 154.346675 378.428 , 134.346675 365.428 , 136.346675 380.428 , 170.346675 360.428 , 149.346675 362.428 , 134.346675 356.428 , 162.346675 347.428 , 130.346675 342.428 , 161.346675 362.428 , 141.346675 ">
</polygon><polygon 
stroke="rgb(154,52,172)"
fill="rgb(154,52,172)"
stroke-width="70"
stroke-linejoin="round" 
opacity="1"
points="325.444 , 345.273525 317.444 , 342.273525 324.444 , 326.273525 324.444 , 345.273525 318.444 , 325.273525 299.444 , 342.273525 294.444 , 337.273525 296.444 , 329.273525 284.444 , 305.273525 293.444 , 312.273525 303.444 , 333.273525 308.444 , 330.273525 315.444 , 320.273525 309.444 , 309.273525 296.444 , 332.273525 311.444 , 323.273525 308.444 , 334.273525 306.444 , 339.273525 294.444 , 315.273525 302.444 , 337.273525 296.444 , 335.273525 287.444 , 337.273525 276.444 , 337.273525 266.444 , 326.273525 275.444 , 325.273525 272.444 , 339.273525 264.444 , 318.273525 252.444 , 312.273525 ">
</polygon><polygon 
stroke="rgb(164,62,182)"
fill="rgb(164,62,182)"
stroke-width="60"
stroke-linejoin="round" 
opacity="1"
points="330.444 , 333.273525 331.444 , 322.273525 331.444 , 333.273525 321.444 , 327.273525 329.444 , 319.273525 322.444 , 329.273525 330.444 , 328.273525 333.444 , 319.273525 325.444 , 333.273525 335.444 , 328.273525 330.444 , 316.273525 328.444 , 327.273525 321.444 , 319.273525 314.444 , 335.273525 319.444 , 331.273525 327.444 , 317.273525 327.444 , 330.273525 319.444 , 321.273525 312.444 , 332.273525 322.444 , 316.273525 328.444 , 331.273525 324.444 , 321.273525 319.444 , 321.273525 ">
</polygon><polygon 
stroke="rgb(164,62,182)"
fill="rgb(164,62,182)"
stroke-width="60"
stroke-linejoin="round" 
opacity="1"
points="244.636 , 200.468225 251.636 , 190.468225 250.636 , 191.468225 243.636 , 185.468225 240.636 , 185.468225 245.636 , 197.468225 250.636 , 201.468225 259.636 , 186.468225 260.636 , 182.468225 257.636 , 186.468225 264.636 , 182.468225 270.636 , 197.468225 ">
</polygon></svg>