<?xml version="1.0" encoding="iso-8859-1"?>
<svg version="1.1" id="Capa_1" xmlns="http://www.w3.org/2000/svg" xmlns:xlink="http://www.w3.org/1999/xlink" x="0px" y="0px"
viewBox="0 0 500 500" xml:space="preserve"><defs></defs><polygon 
stroke="rgb(128,207,94)"
fill="rgb(128,207,94)"
stroke-width="80"
stroke-linejoin="round" 
opacity="1"
points="264 , 156 275 , 117 280 , 155 284 , 161 289 , 121 295 , 122 300 , 159 302 , 146 294 , 132 312 , 160 332 , 129 334 , 125 363 , 142 370 , 114 ">
</polygon><polygon 
stroke="rgb(128,207,94)"
fill="rgb(128,207,94)"
stroke-width="70"
stroke-linejoin="round" 
opacity="1"
points="286 , 154 281 , 163 290 , 140 277 , 150 270 , 163 261 , 124 273 , 145 260 , 136 259 , 133 245 , 158 226 , 145 211 , 156 195 , 153 197 , 161 203 , 158 221 , 164 210 , 162 203 , 142 196 , 142 191 , 141 202 , 159 208 , 160 203 , 127 199 , 147 215 , 151 201 , 161 185 , 134 166 , 147 ">
</polygon><polygon 
stroke="rgb(118,197,84)"
fill="rgb(118,197,84)"
stroke-width="80"
stroke-linejoin="round" 
opacity="1"
points="246.544 , 325.2352 220.544 , 334.2352 224.544 , 312.2352 238.544 , 298.2352 250.544 , 321.2352 225.544 , 324.2352 204.544 , 291.2352 188.544 , 295.2352 170.544 , 305.2352 148.544 , 290.2352 178.544 , 343.2352 200.544 , 297.2352 227.544 , 311.2352 213.544 , 306.2352 209.544 , 307.2352 190.544 , 334.2352 164.544 , 328.2352 152.544 , 334.2352 168.544 , 321.2352 141.544 , 301.2352 153.544 , 327.2352 148.544 , 336.2352 145.544 , 329.2352 142.544 , 333.2352 144.544 , 321.2352 158.544 , 294.2352 129.544 , 292.2352 121.544 , 316.2352 107.544 , 317.2352 ">
</polygon><polygon 
stroke="rgb(108,187,74)"
fill="rgb(108,187,74)"
stroke-width="60"
stroke-linejoin="round" 
opacity="1"
points="213.544 , 328.2352 223.544 , 319.2352 216.544 , 312.2352 217.544 , 330.2352 221.544 , 315.2352 223.544 , 324.2352 229.544 , 328.2352 235.544 , 325.2352 232.544 , 327.2352 233.544 , 312.2352 234.544 , 310.2352 226.544 , 313.2352 222.544 , 329.2352 214.544 , 314.2352 204.544 , 315.2352 198.544 , 325.2352 193.544 , 320.2352 183.544 , 328.2352 176.544 , 321.2352 173.544 , 311.2352 ">
</polygon><polygon 
stroke="rgb(108,187,74)"
fill="rgb(108,187,74)"
stroke-width="80"
stroke-linejoin="round" 
opacity="1"
points="278.27675 , 352.4224 278.27675 , 333.4224 252.27675 , 338.4224 277.27675 , 334.4224 290.27675 , 350.4224 261.27675 , 361.4224 268.27675 , 351.4224 285.27675 , 360.4224 301.27675 , 369.4224 303.27675 , 346.4224 298.27675 , 337.4224 321.27675 , 328.4224 310.27675 , 374.4224 304.27675 , 345.4224 299.27675 , 338.4224 322.27675 , 372.4224 327.27675 , 374.4224 314.27675 , 331.4224 317.27675 , 333.4224 333.27675 , 347.4224 316.27675 , 336.4224 332.27675 , 362.4224 342.27675 , 342.4224 ">
</polygon><polygon 
stroke="rgb(128,207,94)"
fill="rgb(128,207,94)"
stroke-width="70"
stroke-linejoin="round" 
opacity="1"
points="264.27675 , 369.4224 244.27675 , 355.4224 262.27675 , 369.4224 260.27675 , 335.4224 263.27675 , 367.4224 272.27675 , 347.4224 287.27675 , 361.4224 272.27675 , 342.4224 263.27675 , 340.4224 248.27675 , 350.4224 265.27675 , 373.4224 283.27675 , 334.4224 283.27675 , 340.4224 264.27675 , 368.4224 245.27675 , 363.4224 238.27675 , 368.4224 ">
</polygon><polygon 
stroke="rgb(108,187,74)"
fill="rgb(108,187,74)"
stroke-width="80"
stroke-linejoin="round" 
opacity="1"
points="159.10725 , 309.6368 132.10725 , 335.6368 150.10725 , 298.6368 152.10725 , 321.6368 150.10725 , 291.6368 171.10725 , 315.6368 151.10725 , 328.6368 154.10725 , 341.6368 161.10725 , 333.6368 146.10725 , 332.6368 151.10725 , 343.6368 170.10725 , 292.6368 157.10725 , 306.6368 143.10725 , 300.6368 137.10725 , 324.6368 125.10725 , 296.6368 130.10725 , 288.6368 131.10725 , 293.6368 129.10725 , 294.6368 144.10725 , 301.6368 125.10725 , 343.6368 110.10725 , 296.6368 123.10725 , 298.6368 146.10725 , 309.6368 ">
</polygon><polygon 
stroke="rgb(128,207,94)"
fill="rgb(128,207,94)"
stroke-width="70"
stroke-linejoin="round" 
opacity="1"
points="170.10725 , 312.6368 186.10725 , 323.6368 203.10725 , 316.6368 184.10725 , 298.6368 167.10725 , 333.6368 178.10725 , 331.6368 171.10725 , 312.6368 181.10725 , 313.6368 198.10725 , 311.6368 199.10725 , 322.6368 207.10725 , 305.6368 209.10725 , 321.6368 ">
</polygon><polygon 
stroke="rgb(128,207,94)"
fill="rgb(128,207,94)"
stroke-width="60"
stroke-linejoin="round" 
opacity="1"
points="166.10725 , 326.6368 172.10725 , 320.6368 162.10725 , 327.6368 161.10725 , 311.6368 164.10725 , 311.6368 171.10725 , 320.6368 170.10725 , 315.6368 162.10725 , 312.6368 158.10725 , 320.6368 155.10725 , 312.6368 156.10725 , 324.6368 161.10725 , 321.6368 155.10725 , 310.6368 152.10725 , 310.6368 159.10725 , 307.6368 167.10725 , 317.6368 166.10725 , 323.6368 170.10725 , 309.6368 179.10725 , 317.6368 182.10725 , 310.6368 176.10725 , 317.6368 184.10725 , 322.6368 192.10725 , 326.6368 183.10725 , 317.6368 175.10725 , 315.6368 180.10725 , 313.6368 183.10725 , 313.6368 ">
</polygon><polygon 
stroke="rgb(118,197,84)"
fill="rgb(118,197,84)"
stroke-width="80"
stroke-linejoin="round" 
opacity="1"
points="391.34375 , 231.4 379.34375 , 190.4 404.34375 , 187.4 393.34375 , 193.4 391.34375 , 210.4 412.34375 , 233.4 414.34375 , 177.4 418.34375 , 220.4 390.34375 , 224.4 397.34375 , 213.4 401.34375 , 208.4 384.34375 , 207.4 397.34375 , 203.4 367.34375 , 199.4 364.34375 , 193.4 346.34375 , 176.4 327.34375 , 189.4 338.34375 , 179.4 323.34375 , 229.4 307.34375 , 213.4 333.34375 , 197.4 325.34375 , 217.4 296.34375 , 205.4 273.34375 , 205.4 276.34375 , 230.4 ">
</polygon><polygon 
stroke="rgb(118,197,84)"
fill="rgb(118,197,84)"
stroke-width="70"
stroke-linejoin="round" 
opacity="1"
points="359.34375 , 206.4 376.34375 , 206.4 391.34375 , 194.4 385.34375 , 185.4 378.34375 , 212.4 378.34375 , 214.4 366.34375 , 206.4 353.34375 , 219.4 363.34375 , 206.4 372.34375 , 215.4 369.34375 , 206.4 354.34375 , 214.4 367.34375 , 201.4 369.34375 , 190.4 377.34375 , 188.4 373.34375 , 184.4 374.34375 , 207.4 374.34375 , 202.4 374.34375 , 193.4 391.34375 , 198.4 377.34375 , 213.4 376.34375 , 211.4 371.34375 , 207.4 368.34375 , 220.4 354.34375 , 187.4 365.34375 , 190.4 383.34375 , 210.4 394.34375 , 199.4 412.34375 , 184.4 ">
</polygon><polygon 
stroke="rgb(128,207,94)"
fill="rgb(128,207,94)"
stroke-width="60"
stroke-linejoin="round" 
opacity="1"
points="376.34375 , 197.4 384.34375 , 209.4 393.34375 , 211.4 398.34375 , 202.4 390.34375 , 207.4 396.34375 , 205.4 392.34375 , 211.4 388.34375 , 212.4 390.34375 , 200.4 385.34375 , 206.4 378.34375 , 210.4 387.34375 , 202.4 382.34375 , 195.4 382.34375 , 194.4 381.34375 , 212.4 ">
</polygon><polygon 
stroke="rgb(118,197,84)"
fill="rgb(118,197,84)"
stroke-width="80"
stroke-linejoin="round" 
opacity="1"
points="318.27675 , 296.4224 310.27675 , 336.4224 328.27675 , 280.4224 345.27675 , 276.4224 339.27675 , 297.4224 342.27675 , 279.4224 346.27675 , 286.4224 325.27675 , 276.4224 352.27675 , 317.4224 368.27675 , 281.4224 348.27675 , 284.4224 348.27675 , 329.4224 359.27675 , 325.4224 336.27675 , 278.4224 330.27675 , 313.4224 303.27675 , 292.4224 306.27675 , 308.4224 280.27675 , 319.4224 281.27675 , 330.4224 294.27675 , 278.4224 271.27675 , 289.4224 ">
</polygon><polygon 
stroke="rgb(108,187,74)"
fill="rgb(108,187,74)"
stroke-width="70"
stroke-linejoin="round" 
opacity="1"
points="362.27675 , 297.4224 353.27675 , 321.4224 337.27675 , 316.4224 356.27675 , 317.4224 349.27675 , 301.4224 336.27675 , 317.4224 335.27675 , 319.4224 340.27675 , 309.4224 342.27675 , 289.4224 330.27675 , 306.4224 310.27675 , 307.4224 312.27675 , 322.4224 294.27675 , 287.4224 312.27675 , 287.4224 309.27675 , 289.4224 308.27675 , 294.4224 310.27675 , 294.4224 290.27675 , 304.4224 307.27675 , 289.4224 294.27675 , 293.4224 312.27675 , 305.4224 325.27675 , 290.4224 305.27675 , 326.4224 286.27675 , 301.4224 295.27675 , 290.4224 ">
</polygon><polygon 
stroke="rgb(128,207,94)"
fill="rgb(128,207,94)"
stroke-width="60"
stroke-linejoin="round" 
opacity="1"
points="356.27675 , 311.4224 346.27675 , 299.4224 345.27675 , 296.4224 336.27675 , 313.4224 341.27675 , 316.4224 341.27675 , 306.4224 343.27675 , 303.4224 349.27675 , 312.4224 340.27675 , 306.4224 342.27675 , 310.4224 339.27675 , 306.4224 338.27675 , 300.4224 332.27675 , 312.4224 329.27675 , 301.4224 337.27675 , 308.4224 342.27675 , 299.4224 347.27675 , 307.4224 350.27675 , 298.4224 345.27675 , 308.4224 336.27675 , 315.4224 331.27675 , 306.4224 329.27675 , 315.4224 333.27675 , 310.4224 326.27675 , 307.4224 334.27675 , 297.4224 338.27675 , 309.4224 ">
</polygon><polygon 
stroke="rgb(118,197,84)"
fill="rgb(118,197,84)"
stroke-width="80"
stroke-linejoin="round" 
opacity="1"
points="292.128 , 189.3584 288.128 , 201.3584 271.128 , 177.3584 269.128 , 210.3584 268.128 , 226.3584 288.128 , 179.3584 274.128 , 205.3584 263.128 , 224.3584 235.128 , 218.3584 235.128 , 182.3584 238.128 , 211.3584 217.128 , 175.3584 233.128 , 225.3584 ">
</polygon><polygon 
stroke="rgb(128,207,94)"
fill="rgb(128,207,94)"
stroke-width="70"
stroke-linejoin="round" 
opacity="1"
points="288.128 , 217.3584 305.128 , 180.3584 325.128 , 209.3584 337.128 , 215.3584 337.128 , 191.3584 318.128 , 202.3584 329.128 , 198.3584 318.128 , 205.3584 311.128 , 211.3584 292.128 , 196.3584 312.128 , 178.3584 310.128 , 211.3584 327.128 , 215.3584 343.128 , 208.3584 358.128 , 193.3584 345.128 , 203.3584 348.128 , 188.3584 344.128 , 200.3584 340.128 , 218.3584 324.128 , 188.3584 316.128 , 182.3584 318.128 , 184.3584 332.128 , 214.3584 ">
</polygon><polygon 
stroke="rgb(108,187,74)"
fill="rgb(108,187,74)"
stroke-width="60"
stroke-linejoin="round" 
opacity="1"
points="294.128 , 208.3584 295.128 , 205.3584 291.128 , 192.3584 297.128 , 196.3584 295.128 , 200.3584 289.128 , 193.3584 290.128 , 188.3584 289.128 , 204.3584 297.128 , 200.3584 293.128 , 191.3584 302.128 , 201.3584 307.128 , 205.3584 306.128 , 189.3584 297.128 , 188.3584 291.128 , 196.3584 299.128 , 188.3584 302.128 , 204.3584 306.128 , 189.3584 300.128 , 193.3584 300.128 , 189.3584 307.128 , 194.3584 315.128 , 189.3584 305.128 , 192.3584 312.128 , 198.3584 322.128 , 208.3584 327.128 , 208.3584 ">
</polygon><polygon 
stroke="rgb(108,187,74)"
fill="rgb(108,187,74)"
stroke-width="80"
stroke-linejoin="round" 
opacity="1"
points="278.43025 , 195.0992 301.43025 , 189.0992 309.43025 , 176.0992 298.43025 , 156.0992 310.43025 , 176.0992 307.43025 , 164.0992 305.43025 , 177.0992 317.43025 , 165.0992 322.43025 , 206.0992 335.43025 , 156.0992 337.43025 , 205.0992 334.43025 , 177.0992 353.43025 , 209.0992 339.43025 , 155.0992 340.43025 , 194.0992 367.43025 , 209.0992 344.43025 , 201.0992 365.43025 , 192.0992 388.43025 , 182.0992 ">
</polygon><polygon 
stroke="rgb(118,197,84)"
fill="rgb(118,197,84)"
stroke-width="70"
stroke-linejoin="round" 
opacity="1"
points="288.43025 , 168.0992 287.43025 , 160.0992 274.43025 , 191.0992 255.43025 , 184.0992 244.43025 , 190.0992 232.43025 , 166.0992 249.43025 , 181.0992 236.43025 , 195.0992 243.43025 , 165.0992 234.43025 , 199.0992 229.43025 , 180.0992 249.43025 , 195.0992 258.43025 , 190.0992 256.43025 , 180.0992 252.43025 , 177.0992 269.43025 , 184.0992 279.43025 , 183.0992 260.43025 , 185.0992 278.43025 , 170.0992 273.43025 , 165.0992 290.43025 , 184.0992 278.43025 , 189.0992 273.43025 , 163.0992 274.43025 , 159.0992 279.43025 , 192.0992 285.43025 , 173.0992 ">
</polygon><polygon 
stroke="rgb(108,187,74)"
fill="rgb(108,187,74)"
stroke-width="60"
stroke-linejoin="round" 
opacity="1"
points="281.43025 , 187.0992 273.43025 , 188.0992 280.43025 , 188.0992 276.43025 , 183.0992 277.43025 , 179.0992 270.43025 , 171.0992 262.43025 , 188.0992 255.43025 , 173.0992 264.43025 , 177.0992 267.43025 , 176.0992 259.43025 , 172.0992 263.43025 , 173.0992 270.43025 , 184.0992 267.43025 , 189.0992 263.43025 , 185.0992 267.43025 , 189.0992 268.43025 , 176.0992 267.43025 , 181.0992 259.43025 , 171.0992 255.43025 , 186.0992 252.43025 , 182.0992 255.43025 , 184.0992 263.43025 , 179.0992 262.43025 , 175.0992 257.43025 , 177.0992 267.43025 , 169.0992 268.43025 , 184.0992 270.43025 , 187.0992 275.43025 , 177.0992 278.43025 , 179.0992 ">
</polygon><polygon 
stroke="rgb(128,207,94)"
fill="rgb(128,207,94)"
stroke-width="80"
stroke-linejoin="round" 
opacity="1"
points="156.128 , 204.3584 153.128 , 202.3584 138.128 , 221.3584 162.128 , 235.3584 180.128 , 196.3584 176.128 , 207.3584 202.128 , 253.3584 203.128 , 214.3584 225.128 , 244.3584 203.128 , 238.3584 213.128 , 227.3584 190.128 , 240.3584 163.128 , 198.3584 156.128 , 238.3584 130.128 , 224.3584 125.128 , 254.3584 116.128 , 206.3584 98.128 , 231.3584 118.128 , 212.3584 139.128 , 221.3584 143.128 , 219.3584 ">
</polygon><polygon 
stroke="rgb(108,187,74)"
fill="rgb(108,187,74)"
stroke-width="70"
stroke-linejoin="round" 
opacity="1"
points="155.128 , 245.3584 170.128 , 235.3584 150.128 , 240.3584 164.128 , 221.3584 150.128 , 236.3584 160.128 , 237.3584 147.128 , 227.3584 163.128 , 243.3584 158.128 , 236.3584 140.128 , 212.3584 158.128 , 211.3584 145.128 , 233.3584 163.128 , 218.3584 147.128 , 227.3584 130.128 , 225.3584 116.128 , 215.3584 120.128 , 224.3584 119.128 , 216.3584 105.128 , 217.3584 96.128 , 206.3584 115.128 , 206.3584 111.128 , 234.3584 119.128 , 222.3584 ">
</polygon><polygon 
stroke="rgb(128,207,94)"
fill="rgb(128,207,94)"
stroke-width="60"
stroke-linejoin="round" 
opacity="1"
points="178.128 , 220.3584 172.128 , 231.3584 165.128 , 233.3584 155.128 , 219.3584 151.128 , 235.3584 150.128 , 218.3584 144.128 , 234.3584 142.128 , 232.3584 137.128 , 229.3584 139.128 , 225.3584 148.128 , 216.3584 152.128 , 220.3584 144.128 , 217.3584 ">
</polygon><polygon 
stroke="rgb(128,207,94)"
fill="rgb(128,207,94)"
stroke-width="80"
stroke-linejoin="round" 
opacity="1"
points="143.022 , 334.4256 169.022 , 334.4256 188.022 , 347.4256 162.022 , 301.4256 190.022 , 307.4256 182.022 , 326.4256 211.022 , 331.4256 209.022 , 320.4256 231.022 , 304.4256 207.022 , 322.4256 210.022 , 306.4256 194.022 , 341.4256 188.022 , 325.4256 190.022 , 308.4256 178.022 , 306.4256 171.022 , 329.4256 169.022 , 333.4256 ">
</polygon><path d="M 240 480 c 12.333333333333,-89.6 0,-112 37,-336 
C 297,396 309.33333333333,418.4 310,480
 " stroke="rgb(117,120,167)" stroke-linejoin="arcs"  stroke-width="5" fill="rgb(117,120,167)"/><path d="M 251.544 333.2352 c -20.533333333333,-2.6 -3.7333333333333,-1.7333333333333 -28,-13 
C 250.61066666667,333.12686666667 233.81066666667,332.2602 250.27675,348.4224
 " stroke="rgb(117,120,167)" stroke-linejoin="arcs"  stroke-width="5" fill="rgb(117,120,167)"/><path d="M 250.27675 348.4224 c 7,3.2 6.5333333333333,0.8 7,6 
C 257.51008333333,349.9724 257.97675,352.3724 249.25,362.4
 " stroke="rgb(117,120,167)" stroke-linejoin="arcs"  stroke-width="5" fill="rgb(117,120,167)"/><path d="M 253.10725 316.6368 c -74.666666666667,0.46666666666667 -10.666666666667,0.46666666666667 -80,1 
C 250.44058333333,317.22846666667 186.44058333333,317.22846666667 251.544,333.2352
 " stroke="rgb(117,120,167)" stroke-linejoin="arcs"  stroke-width="5" fill="rgb(117,120,167)"/><path d="M 257.34375 278.4 c 73.2,-14.8 81.333333333333,-39.466666666667 122,-74 
C 350.87708333333,248.18333333333 342.74375,272.85 255.022,298.4256
 " stroke="rgb(117,120,167)" stroke-linejoin="arcs"  stroke-width="5" fill="rgb(117,120,167)"/><path d="M 250.27675 348.4224 c 25.866666666667,-11.2 77.6,-14 97,-42 
C 337.57675,339.6724 285.84341666667,342.4724 249.25,362.4
 " stroke="rgb(117,120,167)" stroke-linejoin="arcs"  stroke-width="5" fill="rgb(117,120,167)"/><path d="M 260.128 256.3584 c 2.4666666666667,-15.466666666667 24.666666666667,-7.7333333333333 37,-58 
C 288.49466666667,255.87506666667 266.29466666667,248.14173333333 257.34375,278.4
 " stroke="rgb(117,120,167)" stroke-linejoin="arcs"  stroke-width="5" fill="rgb(117,120,167)"/><path d="M 263.43025 232.0992 c 2.6666666666667,-14.133333333333 10,-28.266666666667 10,-53 
C 274.43025,210.45753333333 267.09691666667,224.59086666667 260.128,256.3584
 " stroke="rgb(117,120,167)" stroke-linejoin="arcs"  stroke-width="5" fill="rgb(117,120,167)"/><path d="M 260.128 256.3584 c -41.533333333333,-14.466666666667 -89,-4.1333333333333 -89,-31 
C 180.028,256.10006666667 227.49466666667,245.76673333333 257.34375,278.4
 " stroke="rgb(117,120,167)" stroke-linejoin="arcs"  stroke-width="5" fill="rgb(117,120,167)"/><path d="M 255.022 298.4256 c -48.533333333333,4 -30.333333333333,4 -91,20 
C 233.78866666667,304.9256 215.58866666667,304.9256 253.10725,316.6368
 " stroke="rgb(117,120,167)" stroke-linejoin="arcs"  stroke-width="5" fill="rgb(117,120,167)"/><polygon 
stroke="rgb(108,187,74)"
fill="rgb(108,187,74)"
stroke-width="60"
stroke-linejoin="round" 
opacity="1"
points="270 , 138 261 , 134 268 , 154 276 , 151 273 , 140 273 , 149 267 , 151 263 , 145 272 , 152 264 , 151 263 , 153 262 , 154 252 , 153 254 , 146 252 , 152 254 , 149 248 , 144 238 , 145 234 , 153 ">
</polygon><polygon 
stroke="rgb(118,197,84)"
fill="rgb(118,197,84)"
stroke-width="70"
stroke-linejoin="round" 
opacity="1"
points="237.544 , 326.2352 236.544 , 326.2352 249.544 , 330.2352 238.544 , 304.2352 257.544 , 329.2352 271.544 , 309.2352 263.544 , 333.2352 269.544 , 338.2352 258.544 , 313.2352 241.544 , 330.2352 238.544 , 312.2352 255.544 , 302.2352 263.544 , 324.2352 248.544 , 328.2352 267.544 , 308.2352 253.544 , 304.2352 267.544 , 319.2352 ">
</polygon><polygon 
stroke="rgb(118,197,84)"
fill="rgb(118,197,84)"
stroke-width="60"
stroke-linejoin="round" 
opacity="1"
points="251.27675 , 348.4224 251.27675 , 359.4224 252.27675 , 363.4224 243.27675 , 360.4224 234.27675 , 358.4224 237.27675 , 364.4224 244.27675 , 360.4224 243.27675 , 361.4224 250.27675 , 357.4224 242.27675 , 362.4224 248.27675 , 352.4224 ">
</polygon><polygon 
stroke="rgb(128,207,94)"
fill="rgb(128,207,94)"
stroke-width="70"
stroke-linejoin="round" 
opacity="1"
points="168.022 , 312.4256 174.022 , 311.4256 163.022 , 311.4256 183.022 , 312.4256 175.022 , 301.4256 174.022 , 324.4256 183.022 , 299.4256 191.022 , 302.4256 208.022 , 337.4256 202.022 , 301.4256 185.022 , 327.4256 185.022 , 326.4256 177.022 , 299.4256 174.022 , 305.4256 183.022 , 319.4256 185.022 , 324.4256 165.022 , 305.4256 147.022 , 321.4256 135.022 , 314.4256 123.022 , 336.4256 126.022 , 311.4256 131.022 , 331.4256 121.022 , 332.4256 137.022 , 305.4256 139.022 , 330.4256 ">
</polygon><polygon 
stroke="rgb(118,197,84)"
fill="rgb(118,197,84)"
stroke-width="60"
stroke-linejoin="round" 
opacity="1"
points="166.022 , 319.4256 167.022 , 326.4256 176.022 , 324.4256 173.022 , 321.4256 168.022 , 326.4256 174.022 , 322.4256 168.022 , 313.4256 161.022 , 328.4256 170.022 , 327.4256 177.022 , 323.4256 182.022 , 310.4256 ">
</polygon></svg>