<?xml version="1.0" encoding="iso-8859-1"?>
<svg version="1.1" id="Capa_1" xmlns="http://www.w3.org/2000/svg" xmlns:xlink="http://www.w3.org/1999/xlink" x="0px" y="0px"
viewBox="0 0 500 500" xml:space="preserve"><defs></defs><polygon 
stroke="rgb(158,119,63)"
fill="rgb(158,119,63)"
stroke-width="80"
stroke-linejoin="round" 
opacity="1"
points="292 , 123 319 , 141 311 , 129 317 , 112 293 , 115 297 , 107 307 , 143 307 , 134 310 , 136 296 , 119 311 , 142 333 , 119 330 , 100 352 , 109 326 , 119 335 , 127 355 , 150 333 , 102 ">
</polygon><polygon 
stroke="rgb(178,139,83)"
fill="rgb(178,139,83)"
stroke-width="70"
stroke-linejoin="round" 
opacity="1"
points="278 , 112 284 , 115 277 , 128 292 , 122 293 , 123 285 , 114 303 , 124 308 , 148 325 , 119 321 , 117 330 , 112 337 , 148 331 , 150 ">
</polygon><polygon 
stroke="rgb(158,119,63)"
fill="rgb(158,119,63)"
stroke-width="60"
stroke-linejoin="round" 
opacity="1"
points="273 , 136 269 , 130 275 , 120 270 , 121 261 , 138 262 , 139 258 , 132 261 , 128 268 , 140 266 , 132 257 , 129 254 , 130 257 , 129 247 , 120 245 , 130 237 , 136 234 , 124 225 , 125 231 , 132 241 , 137 244 , 132 251 , 132 248 , 123 239 , 134 ">
</polygon><polygon 
stroke="rgb(168,129,73)"
fill="rgb(168,129,73)"
stroke-width="80"
stroke-linejoin="round" 
opacity="1"
points="210.084 , 277.55375 220.084 , 237.55375 193.084 , 283.55375 182.084 , 254.55375 176.084 , 270.55375 154.084 , 244.55375 168.084 , 245.55375 156.084 , 252.55375 153.084 , 263.55375 155.084 , 293.55375 130.084 , 286.55375 108.084 , 257.55375 136.084 , 237.55375 140.084 , 258.55375 156.084 , 295.55375 138.084 , 238.55375 148.084 , 253.55375 137.084 , 255.55375 122.084 , 258.55375 128.084 , 260.55375 ">
</polygon><polygon 
stroke="rgb(158,119,63)"
fill="rgb(158,119,63)"
stroke-width="70"
stroke-linejoin="round" 
opacity="1"
points="173.084 , 267.55375 189.084 , 267.55375 182.084 , 282.55375 180.084 , 263.55375 166.084 , 250.55375 156.084 , 250.55375 171.084 , 260.55375 170.084 , 272.55375 172.084 , 272.55375 168.084 , 281.55375 160.084 , 257.55375 168.084 , 258.55375 186.084 , 256.55375 195.084 , 277.55375 191.084 , 263.55375 181.084 , 277.55375 200.084 , 283.55375 210.084 , 282.55375 205.084 , 261.55375 224.084 , 272.55375 205.084 , 248.55375 218.084 , 254.55375 199.084 , 248.55375 207.084 , 249.55375 191.084 , 264.55375 191.084 , 254.55375 191.084 , 252.55375 ">
</polygon><polygon 
stroke="rgb(168,129,73)"
fill="rgb(168,129,73)"
stroke-width="60"
stroke-linejoin="round" 
opacity="1"
points="190.084 , 270.55375 196.084 , 261.55375 196.084 , 273.55375 201.084 , 259.55375 211.084 , 259.55375 221.084 , 275.55375 221.084 , 274.55375 213.084 , 264.55375 203.084 , 272.55375 196.084 , 270.55375 198.084 , 261.55375 203.084 , 269.55375 198.084 , 261.55375 201.084 , 262.55375 210.084 , 266.55375 220.084 , 256.55375 218.084 , 258.55375 226.084 , 260.55375 235.084 , 264.55375 225.084 , 261.55375 218.084 , 256.55375 218.084 , 270.55375 ">
</polygon><polygon 
stroke="rgb(158,119,63)"
fill="rgb(158,119,63)"
stroke-width="80"
stroke-linejoin="round" 
opacity="1"
points="392.104 , 92.01 393.104 , 130.01 415.104 , 104.01 396.104 , 86.01 367.104 , 92.01 362.104 , 124.01 384.104 , 100.01 356.104 , 95.01 349.104 , 79.01 326.104 , 113.01 332.104 , 122.01 314.104 , 88.01 292.104 , 104.01 289.104 , 132.01 312.104 , 107.01 ">
</polygon><polygon 
stroke="rgb(178,139,83)"
fill="rgb(178,139,83)"
stroke-width="70"
stroke-linejoin="round" 
opacity="1"
points="408.104 , 126.01 406.104 , 103.01 417.104 , 118.01 397.104 , 90.01 414.104 , 109.01 425.104 , 115.01 435.104 , 106.01 435.104 , 122.01 440.104 , 93.01 442.104 , 97.01 443.104 , 112.01 434.104 , 94.01 433.104 , 105.01 428.104 , 112.01 411.104 , 121.01 407.104 , 102.01 392.104 , 114.01 380.104 , 112.01 373.104 , 103.01 ">
</polygon><polygon 
stroke="rgb(168,129,73)"
fill="rgb(168,129,73)"
stroke-width="60"
stroke-linejoin="round" 
opacity="1"
points="413.104 , 116.01 405.104 , 106.01 413.104 , 99.01 412.104 , 116.01 415.104 , 102.01 413.104 , 101.01 408.104 , 99.01 415.104 , 107.01 407.104 , 104.01 397.104 , 118.01 407.104 , 108.01 412.104 , 104.01 419.104 , 101.01 410.104 , 106.01 414.104 , 104.01 408.104 , 104.01 409.104 , 117.01 412.104 , 101.01 412.104 , 115.01 404.104 , 106.01 ">
</polygon><polygon 
stroke="rgb(168,129,73)"
fill="rgb(168,129,73)"
stroke-width="70"
stroke-linejoin="round" 
opacity="1"
points="301.856 , 297.24 306.856 , 284.24 324.856 , 307.24 311.856 , 299.24 292.856 , 284.24 272.856 , 305.24 260.856 , 314.24 245.856 , 297.24 234.856 , 299.24 235.856 , 308.24 251.856 , 289.24 245.856 , 301.24 261.856 , 275.24 244.856 , 298.24 259.856 , 287.24 262.856 , 287.24 245.856 , 298.24 230.856 , 298.24 225.856 , 289.24 220.856 , 290.24 235.856 , 279.24 248.856 , 282.24 235.856 , 307.24 221.856 , 284.24 209.856 , 288.24 223.856 , 282.24 242.856 , 284.24 222.856 , 313.24 235.856 , 290.24 ">
</polygon><polygon 
stroke="rgb(178,139,83)"
fill="rgb(178,139,83)"
stroke-width="60"
stroke-linejoin="round" 
opacity="1"
points="305.856 , 285.24 295.856 , 288.24 298.856 , 289.24 301.856 , 296.24 309.856 , 294.24 301.856 , 298.24 307.856 , 291.24 300.856 , 301.24 300.856 , 289.24 290.856 , 301.24 290.856 , 293.24 291.856 , 287.24 294.856 , 299.24 298.856 , 290.24 ">
</polygon><polygon 
stroke="rgb(178,139,83)"
fill="rgb(178,139,83)"
stroke-width="80"
stroke-linejoin="round" 
opacity="1"
points="204.856 , 209.24 209.856 , 206.24 239.856 , 199.24 221.856 , 240.24 198.856 , 224.24 176.856 , 238.24 198.856 , 240.24 202.856 , 195.24 184.856 , 231.24 213.856 , 201.24 207.856 , 202.24 237.856 , 203.24 232.856 , 225.24 229.856 , 252.24 223.856 , 255.24 204.856 , 237.24 199.856 , 251.24 181.856 , 233.24 204.856 , 195.24 190.856 , 199.24 175.856 , 221.24 169.856 , 199.24 150.856 , 218.24 138.856 , 213.24 151.856 , 215.24 160.856 , 234.24 152.856 , 226.24 142.856 , 206.24 168.856 , 246.24 151.856 , 211.24 ">
</polygon><polygon 
stroke="rgb(168,129,73)"
fill="rgb(168,129,73)"
stroke-width="70"
stroke-linejoin="round" 
opacity="1"
points="187.856 , 245.24 179.856 , 209.24 198.856 , 205.24 203.856 , 223.24 185.856 , 209.24 171.856 , 235.24 171.856 , 236.24 182.856 , 214.24 184.856 , 221.24 188.856 , 228.24 172.856 , 218.24 186.856 , 228.24 193.856 , 229.24 202.856 , 231.24 202.856 , 240.24 206.856 , 228.24 ">
</polygon><polygon 
stroke="rgb(168,129,73)"
fill="rgb(168,129,73)"
stroke-width="60"
stroke-linejoin="round" 
opacity="1"
points="205.856 , 226.24 200.856 , 219.24 210.856 , 225.24 219.856 , 225.24 224.856 , 216.24 223.856 , 216.24 228.856 , 228.24 218.856 , 226.24 213.856 , 228.24 222.856 , 220.24 232.856 , 215.24 230.856 , 225.24 235.856 , 235.24 229.856 , 234.24 225.856 , 220.24 219.856 , 234.24 221.856 , 222.24 213.856 , 232.24 206.856 , 231.24 198.856 , 228.24 193.856 , 233.24 ">
</polygon><polygon 
stroke="rgb(178,139,83)"
fill="rgb(178,139,83)"
stroke-width="80"
stroke-linejoin="round" 
opacity="1"
points="394.676 , 215.25875 371.676 , 217.25875 342.676 , 180.25875 356.676 , 206.25875 379.676 , 191.25875 389.676 , 223.25875 374.676 , 225.25875 393.676 , 185.25875 381.676 , 177.25875 390.676 , 210.25875 399.676 , 227.25875 395.676 , 204.25875 379.676 , 182.25875 355.676 , 222.25875 334.676 , 226.25875 349.676 , 222.25875 360.676 , 221.25875 337.676 , 169.25875 329.676 , 198.25875 314.676 , 213.25875 327.676 , 210.25875 356.676 , 209.25875 361.676 , 222.25875 346.676 , 209.25875 322.676 , 192.25875 294.676 , 217.25875 ">
</polygon><polygon 
stroke="rgb(178,139,83)"
fill="rgb(178,139,83)"
stroke-width="70"
stroke-linejoin="round" 
opacity="1"
points="353.676 , 217.25875 337.676 , 198.25875 344.676 , 181.25875 344.676 , 212.25875 340.676 , 192.25875 350.676 , 182.25875 346.676 , 207.25875 335.676 , 204.25875 341.676 , 182.25875 326.676 , 197.25875 328.676 , 201.25875 311.676 , 205.25875 314.676 , 212.25875 301.676 , 187.25875 310.676 , 200.25875 296.676 , 207.25875 283.676 , 184.25875 281.676 , 213.25875 281.676 , 197.25875 285.676 , 218.25875 299.676 , 184.25875 283.676 , 209.25875 263.676 , 194.25875 249.676 , 208.25875 239.676 , 188.25875 221.676 , 180.25875 ">
</polygon><polygon 
stroke="rgb(168,129,73)"
fill="rgb(168,129,73)"
stroke-width="60"
stroke-linejoin="round" 
opacity="1"
points="368.676 , 193.25875 374.676 , 207.25875 367.676 , 193.25875 361.676 , 198.25875 363.676 , 205.25875 355.676 , 199.25875 365.676 , 208.25875 369.676 , 191.25875 369.676 , 192.25875 372.676 , 203.25875 375.676 , 198.25875 367.676 , 197.25875 358.676 , 206.25875 351.676 , 195.25875 347.676 , 191.25875 350.676 , 191.25875 346.676 , 202.25875 338.676 , 202.25875 347.676 , 190.25875 347.676 , 188.25875 354.676 , 195.25875 ">
</polygon><polygon 
stroke="rgb(178,139,83)"
fill="rgb(178,139,83)"
stroke-width="80"
stroke-linejoin="round" 
opacity="1"
points="256.852 , 340.08625 245.852 , 312.08625 272.852 , 341.08625 286.852 , 345.08625 316.852 , 348.08625 301.852 , 301.08625 281.852 , 309.08625 299.852 , 324.08625 294.852 , 303.08625 294.852 , 330.08625 304.852 , 321.08625 321.852 , 331.08625 307.852 , 350.08625 307.852 , 301.08625 335.852 , 333.08625 349.852 , 318.08625 377.852 , 316.08625 351.852 , 298.08625 339.852 , 314.08625 326.852 , 343.08625 347.852 , 310.08625 334.852 , 357.08625 343.852 , 352.08625 ">
</polygon><polygon 
stroke="rgb(178,139,83)"
fill="rgb(178,139,83)"
stroke-width="60"
stroke-linejoin="round" 
opacity="1"
points="259.852 , 334.08625 257.852 , 322.08625 250.852 , 320.08625 250.852 , 337.08625 245.852 , 324.08625 237.852 , 331.08625 247.852 , 321.08625 252.852 , 335.08625 247.852 , 317.08625 255.852 , 333.08625 248.852 , 332.08625 251.852 , 325.08625 260.852 , 331.08625 256.852 , 335.08625 257.852 , 325.08625 264.852 , 317.08625 269.852 , 330.08625 269.852 , 319.08625 259.852 , 329.08625 268.852 , 331.08625 273.852 , 317.08625 265.852 , 332.08625 274.852 , 320.08625 281.852 , 322.08625 273.852 , 331.08625 277.852 , 320.08625 281.852 , 325.08625 283.852 , 317.08625 290.852 , 331.08625 ">
</polygon><polygon 
stroke="rgb(168,129,73)"
fill="rgb(168,129,73)"
stroke-width="80"
stroke-linejoin="round" 
opacity="1"
points="411 , 367.25 393 , 355.25 422 , 357.25 415 , 368.25 433 , 372.25 442 , 365.25 432 , 370.25 430 , 339.25 446 , 378.25 435 , 360.25 426 , 357.25 437 , 334.25 428 , 358.25 400 , 367.25 414 , 329.25 ">
</polygon><polygon 
stroke="rgb(168,129,73)"
fill="rgb(168,129,73)"
stroke-width="70"
stroke-linejoin="round" 
opacity="1"
points="388 , 357.25 374 , 333.25 367 , 354.25 358 , 362.25 378 , 366.25 383 , 346.25 363 , 340.25 343 , 346.25 347 , 345.25 333 , 346.25 352 , 329.25 366 , 339.25 381 , 338.25 398 , 357.25 405 , 333.25 406 , 367.25 418 , 343.25 ">
</polygon><polygon 
stroke="rgb(158,119,63)"
fill="rgb(158,119,63)"
stroke-width="80"
stroke-linejoin="round" 
opacity="1"
points="375.676 , 178.25875 371.676 , 195.25875 343.676 , 193.25875 365.676 , 206.25875 385.676 , 165.25875 384.676 , 177.25875 391.676 , 174.25875 419.676 , 185.25875 408.676 , 165.25875 423.676 , 170.25875 396.676 , 175.25875 394.676 , 198.25875 412.676 , 166.25875 429.676 , 206.25875 410.676 , 176.25875 419.676 , 166.25875 442.676 , 191.25875 444.676 , 186.25875 448.676 , 207.25875 441.676 , 205.25875 449.676 , 204.25875 444.676 , 208.25875 430.676 , 160.25875 428.676 , 181.25875 446.676 , 190.25875 440.676 , 199.25875 418.676 , 200.25875 433.676 , 209.25875 ">
</polygon><polygon 
stroke="rgb(178,139,83)"
fill="rgb(178,139,83)"
stroke-width="70"
stroke-linejoin="round" 
opacity="1"
points="385.676 , 170.25875 384.676 , 170.25875 394.676 , 184.25875 394.676 , 169.25875 399.676 , 192.25875 397.676 , 180.25875 416.676 , 169.25875 430.676 , 202.25875 414.676 , 181.25875 432.676 , 189.25875 430.676 , 183.25875 424.676 , 199.25875 423.676 , 179.25875 408.676 , 173.25875 400.676 , 172.25875 417.676 , 199.25875 422.676 , 169.25875 439.676 , 203.25875 442.676 , 202.25875 428.676 , 201.25875 428.676 , 170.25875 426.676 , 197.25875 423.676 , 183.25875 406.676 , 166.25875 404.676 , 167.25875 388.676 , 184.25875 ">
</polygon><polygon 
stroke="rgb(158,119,63)"
fill="rgb(158,119,63)"
stroke-width="80"
stroke-linejoin="round" 
opacity="1"
points="246.608 , 264.87 244.608 , 260.87 259.608 , 280.87 270.608 , 278.87 246.608 , 274.87 220.608 , 297.87 206.608 , 247.87 215.608 , 262.87 233.608 , 248.87 242.608 , 287.87 229.608 , 258.87 248.608 , 283.87 248.608 , 292.87 241.608 , 273.87 263.608 , 293.87 253.608 , 244.87 256.608 , 297.87 279.608 , 268.87 290.608 , 269.87 287.608 , 256.87 312.608 , 270.87 299.608 , 257.87 ">
</polygon><polygon 
stroke="rgb(178,139,83)"
fill="rgb(178,139,83)"
stroke-width="70"
stroke-linejoin="round" 
opacity="1"
points="264.608 , 279.87 262.608 , 289.87 257.608 , 261.87 241.608 , 284.87 249.608 , 286.87 256.608 , 287.87 274.608 , 278.87 292.608 , 270.87 299.608 , 273.87 301.608 , 250.87 292.608 , 269.87 281.608 , 284.87 ">
</polygon><polygon 
stroke="rgb(158,119,63)"
fill="rgb(158,119,63)"
stroke-width="60"
stroke-linejoin="round" 
opacity="1"
points="265.608 , 275.87 259.608 , 276.87 261.608 , 274.87 263.608 , 262.87 254.608 , 266.87 256.608 , 266.87 252.608 , 277.87 245.608 , 275.87 242.608 , 262.87 248.608 , 272.87 241.608 , 276.87 250.608 , 272.87 257.608 , 261.87 255.608 , 267.87 256.608 , 278.87 261.608 , 272.87 263.608 , 260.87 265.608 , 279.87 269.608 , 277.87 272.608 , 263.87 274.608 , 270.87 ">
</polygon><path d="M 240 480 c 24,-116.66666666667 5.3333333333333,-163.33333333333 40,-350 
C 292.33333333333,343.66666666667 311,390.33333333333 307,480
 " stroke="rgb(192,101,136)" stroke-linejoin="arcs"  stroke-width="5" fill="rgb(192,101,136)"/><path d="M 259.084 283.55375 c -19.2,-6.8 -72,-4.5333333333333 -72,-17 
C 194.284,281.14541666667 247.084,278.87875 257.856,300.24
 " stroke="rgb(192,101,136)" stroke-linejoin="arcs"  stroke-width="5" fill="rgb(192,101,136)"/><path d="M 271.104 182.01 c 78.933333333333,-19.733333333333 78.933333333333,-34.533333333333 148,-74 
C 364.83733333333,156.72666666667 364.83733333333,171.52666666667 267.676,205.25875
 " stroke="rgb(192,101,136)" stroke-linejoin="arcs"  stroke-width="5" fill="rgb(192,101,136)"/><path d="M 257.856 300.24 c 5.2,-2.6666666666667 31.2,-1.6666666666667 39,-5 
C 292.956,299.19833333333 266.956,298.19833333333 256.852,316.08625
 " stroke="rgb(192,101,136)" stroke-linejoin="arcs"  stroke-width="5" fill="rgb(192,101,136)"/><path d="M 257.856 300.24 c -54.133333333333,-20 -34.8,-15 -58,-75 
C 228.856,294.615 209.52266666667,289.615 256.852,316.08625
 " stroke="rgb(192,101,136)" stroke-linejoin="arcs"  stroke-width="5" fill="rgb(192,101,136)"/><path d="M 267.676 205.25875 c 0,-3.7333333333333 80,-0.93333333333333 100,-7 
C 357.676,205.20041666667 277.676,202.40041666667 264.832,226.88
 " stroke="rgb(192,101,136)" stroke-linejoin="arcs"  stroke-width="5" fill="rgb(192,101,136)"/><path d="M 256.852 316.08625 c -2.8,4.4 -0.4,4.4 -6,11 
C 257.052,321.86125 254.652,321.86125 256,331.25
 " stroke="rgb(192,101,136)" stroke-linejoin="arcs"  stroke-width="5" fill="rgb(192,101,136)"/><path d="M 256 331.25 c 27.8,3.6 129.73333333333,3.6 139,18 
C 399.63333333333,337.1 297.7,337.1 255.228,345.88875
 " stroke="rgb(192,101,136)" stroke-linejoin="arcs"  stroke-width="5" fill="rgb(192,101,136)"/><path d="M 267.676 205.25875 c 77.333333333333,-10.266666666667 46.4,-4.4 116,-22 
C 325.676,203.60875 356.60933333333,197.74208333333 264.832,226.88
 " stroke="rgb(192,101,136)" stroke-linejoin="arcs"  stroke-width="5" fill="rgb(192,101,136)"/><path d="M 260.608 265.87 c 8,1.3333333333333 3.2,1.3333333333333 8,5 
C 264.608,267.82833333333 269.408,267.82833333333 259.084,283.55375
 " stroke="rgb(192,101,136)" stroke-linejoin="arcs"  stroke-width="5" fill="rgb(192,101,136)"/><polygon 
stroke="rgb(168,129,73)"
fill="rgb(168,129,73)"
stroke-width="80"
stroke-linejoin="round" 
opacity="1"
points="305.856 , 267.24 301.856 , 290.24 302.856 , 314.24 332.856 , 298.24 344.856 , 273.24 362.856 , 294.24 370.856 , 283.24 342.856 , 315.24 328.856 , 280.24 331.856 , 290.24 311.856 , 288.24 329.856 , 324.24 315.856 , 283.24 321.856 , 305.24 300.856 , 310.24 281.856 , 278.24 288.856 , 313.24 318.856 , 293.24 305.856 , 303.24 323.856 , 266.24 353.856 , 281.24 378.856 , 288.24 377.856 , 315.24 392.856 , 292.24 ">
</polygon><polygon 
stroke="rgb(178,139,83)"
fill="rgb(178,139,83)"
stroke-width="70"
stroke-linejoin="round" 
opacity="1"
points="269.852 , 310.08625 249.852 , 341.08625 253.852 , 341.08625 265.852 , 326.08625 285.852 , 340.08625 277.852 , 307.08625 265.852 , 345.08625 275.852 , 315.08625 260.852 , 312.08625 252.852 , 325.08625 232.852 , 328.08625 252.852 , 315.08625 263.852 , 322.08625 270.852 , 315.08625 262.852 , 320.08625 262.852 , 307.08625 263.852 , 323.08625 259.852 , 341.08625 261.852 , 319.08625 241.852 , 336.08625 ">
</polygon><polygon 
stroke="rgb(178,139,83)"
fill="rgb(178,139,83)"
stroke-width="60"
stroke-linejoin="round" 
opacity="1"
points="399 , 353.25 408 , 351.25 412 , 358.25 421 , 340.25 417 , 355.25 426 , 359.25 436 , 359.25 434 , 343.25 434 , 339.25 430 , 347.25 433 , 350.25 440 , 357.25 432 , 350.25 430 , 358.25 424 , 343.25 433 , 357.25 431 , 343.25 438 , 348.25 441 , 339.25 447 , 349.25 448 , 340.25 448 , 344.25 441 , 345.25 438 , 345.25 431 , 355.25 435 , 349.25 444 , 359.25 448 , 349.25 438 , 354.25 432 , 348.25 ">
</polygon><polygon 
stroke="rgb(178,139,83)"
fill="rgb(178,139,83)"
stroke-width="60"
stroke-linejoin="round" 
opacity="1"
points="391.676 , 180.25875 386.676 , 193.25875 381.676 , 193.25875 371.676 , 186.25875 368.676 , 177.25875 373.676 , 180.25875 368.676 , 191.25875 374.676 , 182.25875 369.676 , 182.25875 368.676 , 191.25875 363.676 , 189.25875 358.676 , 180.25875 351.676 , 190.25875 352.676 , 179.25875 355.676 , 180.25875 350.676 , 182.25875 341.676 , 179.25875 340.676 , 181.25875 ">
</polygon></svg>