<?xml version="1.0" encoding="iso-8859-1"?>
<svg version="1.1" id="Capa_1" xmlns="http://www.w3.org/2000/svg" xmlns:xlink="http://www.w3.org/1999/xlink" x="0px" y="0px"
viewBox="0 0 500 500" xml:space="preserve"><defs></defs><polygon 
stroke="rgb(156,131,181)"
fill="rgb(156,131,181)"
stroke-width="70"
stroke-linejoin="round" 
opacity="1"
points="268 , 152 267 , 165 270 , 157 267 , 162 260 , 177 252 , 176 265 , 140 258 , 163 242 , 161 257 , 153 264 , 163 247 , 150 241 , 170 228 , 156 208 , 148 228 , 142 210 , 154 203 , 141 222 , 175 ">
</polygon><polygon 
stroke="rgb(166,141,191)"
fill="rgb(166,141,191)"
stroke-width="60"
stroke-linejoin="round" 
opacity="1"
points="264 , 162 262 , 153 265 , 165 271 , 152 277 , 148 281 , 167 290 , 167 289 , 147 289 , 156 294 , 151 294 , 157 300 , 166 306 , 166 ">
</polygon><polygon 
stroke="rgb(166,141,191)"
fill="rgb(166,141,191)"
stroke-width="80"
stroke-linejoin="round" 
opacity="1"
points="124.368 , 248.4736 131.368 , 253.4736 159.368 , 238.4736 149.368 , 237.4736 160.368 , 216.4736 144.368 , 218.4736 121.368 , 222.4736 100.368 , 269.4736 118.368 , 264.4736 147.368 , 243.4736 137.368 , 231.4736 151.368 , 258.4736 179.368 , 270.4736 153.368 , 214.4736 144.368 , 238.4736 119.368 , 221.4736 ">
</polygon><polygon 
stroke="rgb(146,121,171)"
fill="rgb(146,121,171)"
stroke-width="70"
stroke-linejoin="round" 
opacity="1"
points="145.368 , 225.4736 139.368 , 257.4736 144.368 , 237.4736 143.368 , 261.4736 161.368 , 255.4736 152.368 , 239.4736 140.368 , 234.4736 132.368 , 248.4736 129.368 , 237.4736 122.368 , 228.4736 137.368 , 263.4736 155.368 , 228.4736 164.368 , 232.4736 160.368 , 225.4736 171.368 , 249.4736 158.368 , 259.4736 160.368 , 258.4736 157.368 , 246.4736 159.368 , 227.4736 ">
</polygon><polygon 
stroke="rgb(156,131,181)"
fill="rgb(156,131,181)"
stroke-width="80"
stroke-linejoin="round" 
opacity="1"
points="177.064 , 255.6754 182.064 , 259.6754 209.064 , 263.6754 221.064 , 225.6754 238.064 , 223.6754 222.064 , 269.6754 228.064 , 247.6754 199.064 , 257.6754 221.064 , 268.6754 209.064 , 249.6754 236.064 , 232.6754 266.064 , 269.6754 253.064 , 240.6754 268.064 , 274.6754 ">
</polygon><polygon 
stroke="rgb(166,141,191)"
fill="rgb(166,141,191)"
stroke-width="70"
stroke-linejoin="round" 
opacity="1"
points="154.064 , 232.6754 138.064 , 247.6754 151.064 , 227.6754 171.064 , 256.6754 190.064 , 233.6754 175.064 , 243.6754 177.064 , 252.6754 161.064 , 249.6754 167.064 , 232.6754 183.064 , 241.6754 ">
</polygon><polygon 
stroke="rgb(156,131,181)"
fill="rgb(156,131,181)"
stroke-width="60"
stroke-linejoin="round" 
opacity="1"
points="156.064 , 243.6754 162.064 , 253.6754 153.064 , 241.6754 160.064 , 256.6754 155.064 , 247.6754 158.064 , 244.6754 163.064 , 251.6754 169.064 , 237.6754 168.064 , 242.6754 168.064 , 256.6754 176.064 , 243.6754 173.064 , 247.6754 179.064 , 244.6754 170.064 , 244.6754 170.064 , 244.6754 166.064 , 242.6754 156.064 , 240.6754 152.064 , 239.6754 159.064 , 249.6754 159.064 , 251.6754 153.064 , 248.6754 148.064 , 240.6754 ">
</polygon><polygon 
stroke="rgb(156,131,181)"
fill="rgb(156,131,181)"
stroke-width="80"
stroke-linejoin="round" 
opacity="1"
points="342.8575 , 202.747675 352.8575 , 248.747675 373.8575 , 222.747675 352.8575 , 218.747675 363.8575 , 241.747675 345.8575 , 249.747675 335.8575 , 226.747675 306.8575 , 233.747675 319.8575 , 213.747675 295.8575 , 240.747675 311.8575 , 194.747675 289.8575 , 253.747675 289.8575 , 209.747675 318.8575 , 248.747675 312.8575 , 225.747675 304.8575 , 246.747675 324.8575 , 222.747675 337.8575 , 237.747675 339.8575 , 238.747675 328.8575 , 212.747675 328.8575 , 236.747675 314.8575 , 216.747675 332.8575 , 227.747675 353.8575 , 243.747675 353.8575 , 199.747675 334.8575 , 227.747675 315.8575 , 215.747675 ">
</polygon><polygon 
stroke="rgb(146,121,171)"
fill="rgb(146,121,171)"
stroke-width="70"
stroke-linejoin="round" 
opacity="1"
points="327.8575 , 205.747675 319.8575 , 204.747675 301.8575 , 205.747675 287.8575 , 225.747675 271.8575 , 205.747675 255.8575 , 234.747675 253.8575 , 205.747675 268.8575 , 227.747675 277.8575 , 209.747675 278.8575 , 243.747675 279.8575 , 221.747675 287.8575 , 207.747675 291.8575 , 208.747675 282.8575 , 216.747675 278.8575 , 204.747675 270.8575 , 234.747675 262.8575 , 214.747675 246.8575 , 230.747675 256.8575 , 241.747675 260.8575 , 206.747675 280.8575 , 205.747675 ">
</polygon><polygon 
stroke="rgb(166,141,191)"
fill="rgb(166,141,191)"
stroke-width="60"
stroke-linejoin="round" 
opacity="1"
points="329.8575 , 232.747675 335.8575 , 232.747675 325.8575 , 218.747675 320.8575 , 226.747675 310.8575 , 219.747675 308.8575 , 224.747675 305.8575 , 220.747675 314.8575 , 216.747675 317.8575 , 234.747675 318.8575 , 226.747675 323.8575 , 219.747675 ">
</polygon><polygon 
stroke="rgb(156,131,181)"
fill="rgb(156,131,181)"
stroke-width="80"
stroke-linejoin="round" 
opacity="1"
points="330.6465 , 136.350025 353.6465 , 126.350025 376.6465 , 123.350025 395.6465 , 115.350025 400.6465 , 111.350025 402.6465 , 106.350025 379.6465 , 127.350025 400.6465 , 90.350025 390.6465 , 134.350025 415.6465 , 124.350025 392.6465 , 108.350025 377.6465 , 113.350025 372.6465 , 132.350025 391.6465 , 125.350025 416.6465 , 86.350025 429.6465 , 143.350025 428.6465 , 110.350025 425.6465 , 89.350025 423.6465 , 110.350025 412.6465 , 96.350025 383.6465 , 132.350025 393.6465 , 99.350025 389.6465 , 122.350025 386.6465 , 95.350025 384.6465 , 111.350025 377.6465 , 110.350025 389.6465 , 100.350025 381.6465 , 92.350025 398.6465 , 93.350025 387.6465 , 94.350025 ">
</polygon><polygon 
stroke="rgb(146,121,171)"
fill="rgb(146,121,171)"
stroke-width="70"
stroke-linejoin="round" 
opacity="1"
points="327.6465 , 131.350025 346.6465 , 105.350025 352.6465 , 102.350025 365.6465 , 135.350025 363.6465 , 132.350025 364.6465 , 110.350025 345.6465 , 105.350025 347.6465 , 117.350025 364.6465 , 96.350025 351.6465 , 111.350025 335.6465 , 113.350025 326.6465 , 131.350025 326.6465 , 95.350025 336.6465 , 135.350025 339.6465 , 104.350025 326.6465 , 103.350025 333.6465 , 97.350025 ">
</polygon><polygon 
stroke="rgb(166,141,191)"
fill="rgb(166,141,191)"
stroke-width="60"
stroke-linejoin="round" 
opacity="1"
points="325.6465 , 105.350025 330.6465 , 106.350025 323.6465 , 116.350025 313.6465 , 109.350025 315.6465 , 111.350025 306.6465 , 121.350025 303.6465 , 111.350025 307.6465 , 108.350025 315.6465 , 108.350025 325.6465 , 107.350025 331.6465 , 111.350025 338.6465 , 121.350025 344.6465 , 121.350025 ">
</polygon><polygon 
stroke="rgb(146,121,171)"
fill="rgb(146,121,171)"
stroke-width="70"
stroke-linejoin="round" 
opacity="1"
points="255.1955 , 228.829575 237.1955 , 225.829575 223.1955 , 219.829575 241.1955 , 208.829575 236.1955 , 206.829575 247.1955 , 226.829575 240.1955 , 229.829575 239.1955 , 206.829575 246.1955 , 228.829575 256.1955 , 227.829575 246.1955 , 207.829575 227.1955 , 222.829575 247.1955 , 230.829575 232.1955 , 220.829575 ">
</polygon><polygon 
stroke="rgb(166,141,191)"
fill="rgb(166,141,191)"
stroke-width="60"
stroke-linejoin="round" 
opacity="1"
points="274.1955 , 221.829575 271.1955 , 211.829575 278.1955 , 208.829575 274.1955 , 209.829575 278.1955 , 212.829575 287.1955 , 208.829575 280.1955 , 215.829575 279.1955 , 212.829575 270.1955 , 210.829575 274.1955 , 224.829575 281.1955 , 212.829575 291.1955 , 211.829575 299.1955 , 216.829575 304.1955 , 222.829575 312.1955 , 220.829575 303.1955 , 219.829575 293.1955 , 211.829575 294.1955 , 213.829575 ">
</polygon><polygon 
stroke="rgb(166,141,191)"
fill="rgb(166,141,191)"
stroke-width="80"
stroke-linejoin="round" 
opacity="1"
points="141.4 , 311.575 111.4 , 327.575 121.4 , 352.575 92.4 , 326.575 94.4 , 327.575 66.4 , 325.575 60.4 , 333.575 50.4 , 359.575 67.4 , 357.575 59.4 , 326.575 67.4 , 321.575 63.4 , 343.575 84.4 , 359.575 69.4 , 329.575 92.4 , 312.575 111.4 , 307.575 95.4 , 364.575 74.4 , 317.575 98.4 , 317.575 121.4 , 333.575 108.4 , 308.575 105.4 , 328.575 114.4 , 347.575 137.4 , 341.575 138.4 , 362.575 131.4 , 336.575 ">
</polygon><polygon 
stroke="rgb(166,141,191)"
fill="rgb(166,141,191)"
stroke-width="60"
stroke-linejoin="round" 
opacity="1"
points="159.4 , 340.575 155.4 , 325.575 149.4 , 329.575 151.4 , 341.575 156.4 , 336.575 153.4 , 337.575 163.4 , 326.575 173.4 , 324.575 170.4 , 335.575 169.4 , 340.575 169.4 , 330.575 159.4 , 334.575 160.4 , 339.575 154.4 , 326.575 159.4 , 336.575 163.4 , 331.575 159.4 , 331.575 165.4 , 328.575 156.4 , 342.575 163.4 , 331.575 162.4 , 333.575 ">
</polygon><polygon 
stroke="rgb(156,131,181)"
fill="rgb(156,131,181)"
stroke-width="70"
stroke-linejoin="round" 
opacity="1"
points="260.8575 , 169.747675 279.8575 , 165.747675 260.8575 , 142.747675 261.8575 , 142.747675 243.8575 , 165.747675 255.8575 , 152.747675 268.8575 , 145.747675 274.8575 , 156.747675 266.8575 , 139.747675 254.8575 , 138.747675 261.8575 , 175.747675 270.8575 , 163.747675 252.8575 , 178.747675 257.8575 , 164.747675 248.8575 , 172.747675 261.8575 , 162.747675 253.8575 , 177.747675 245.8575 , 167.747675 249.8575 , 158.747675 263.8575 , 146.747675 276.8575 , 166.747675 269.8575 , 139.747675 270.8575 , 167.747675 289.8575 , 176.747675 ">
</polygon><polygon 
stroke="rgb(156,131,181)"
fill="rgb(156,131,181)"
stroke-width="60"
stroke-linejoin="round" 
opacity="1"
points="273.8575 , 159.747675 283.8575 , 166.747675 286.8575 , 158.747675 286.8575 , 165.747675 277.8575 , 162.747675 277.8575 , 163.747675 287.8575 , 154.747675 287.8575 , 156.747675 291.8575 , 149.747675 301.8575 , 164.747675 295.8575 , 154.747675 289.8575 , 159.747675 283.8575 , 157.747675 293.8575 , 148.747675 297.8575 , 168.747675 289.8575 , 150.747675 285.8575 , 165.747675 281.8575 , 148.747675 274.8575 , 154.747675 273.8575 , 150.747675 277.8575 , 164.747675 267.8575 , 149.747675 261.8575 , 154.747675 253.8575 , 154.747675 246.8575 , 164.747675 249.8575 , 162.747675 240.8575 , 168.747675 230.8575 , 152.747675 239.8575 , 158.747675 ">
</polygon><polygon 
stroke="rgb(146,121,171)"
fill="rgb(146,121,171)"
stroke-width="70"
stroke-linejoin="round" 
opacity="1"
points="161.608 , 171.4862 154.608 , 177.4862 166.608 , 179.4862 181.608 , 177.4862 173.608 , 178.4862 179.608 , 157.4862 167.608 , 167.4862 164.608 , 148.4862 158.608 , 158.4862 152.608 , 157.4862 ">
</polygon><polygon 
stroke="rgb(146,121,171)"
fill="rgb(146,121,171)"
stroke-width="80"
stroke-linejoin="round" 
opacity="1"
points="339.48 , 235.8048 347.48 , 227.8048 363.48 , 258.8048 342.48 , 244.8048 314.48 , 282.8048 305.48 , 267.8048 318.48 , 241.8048 334.48 , 286.8048 314.48 , 287.8048 342.48 , 248.8048 ">
</polygon><polygon 
stroke="rgb(156,131,181)"
fill="rgb(156,131,181)"
stroke-width="70"
stroke-linejoin="round" 
opacity="1"
points="349.48 , 251.8048 364.48 , 243.8048 365.48 , 272.8048 351.48 , 275.8048 367.48 , 256.8048 381.48 , 256.8048 397.48 , 275.8048 381.48 , 258.8048 392.48 , 240.8048 400.48 , 269.8048 383.48 , 252.8048 373.48 , 273.8048 370.48 , 263.8048 379.48 , 257.8048 381.48 , 255.8048 376.48 , 264.8048 375.48 , 249.8048 362.48 , 246.8048 ">
</polygon><polygon 
stroke="rgb(166,141,191)"
fill="rgb(166,141,191)"
stroke-width="60"
stroke-linejoin="round" 
opacity="1"
points="356.48 , 266.8048 347.48 , 250.8048 346.48 , 263.8048 349.48 , 247.8048 358.48 , 266.8048 362.48 , 251.8048 356.48 , 264.8048 349.48 , 266.8048 345.48 , 253.8048 339.48 , 264.8048 348.48 , 262.8048 354.48 , 252.8048 358.48 , 260.8048 354.48 , 264.8048 358.48 , 261.8048 356.48 , 265.8048 365.48 , 262.8048 355.48 , 251.8048 360.48 , 256.8048 356.48 , 265.8048 365.48 , 256.8048 357.48 , 248.8048 ">
</polygon><path d="M 240 480 c 7.2,-172.26666666667 1.2,-129.2 18,-323 
C 301.2,375.8 307.2,332.73333333333 291,480
 " stroke="rgb(117,159,131)" stroke-linejoin="arcs"  stroke-width="5" fill="rgb(117,159,131)"/><path d="M 250.368 248.4736 c -101.73333333333,-0.66666666666667 -7.2666666666667,-2.3333333333333 -109,-5 
C 254.00133333333,246.76526666667 159.53466666667,248.43193333333 249.1125,265.003125
 " stroke="rgb(117,159,131)" stroke-linejoin="arcs"  stroke-width="5" fill="rgb(117,159,131)"/><path d="M 248.064 279.6754 c -16.8,-4.2666666666667 -22.4,-17.066666666667 -84,-32 
C 234.064,266.60873333333 239.664,279.40873333333 247.1955,292.829575
 " stroke="rgb(117,159,131)" stroke-linejoin="arcs"  stroke-width="5" fill="rgb(117,159,131)"/><path d="M 251.8575 229.747675 c 13.8,-2.6666666666667 4.6,-2 69,-5 
C 263.3575,228.372675 272.5575,227.70600833333 250.368,248.4736
 " stroke="rgb(117,159,131)" stroke-linejoin="arcs"  stroke-width="5" fill="rgb(117,159,131)"/><path d="M 255.6465 184.350025 c 0,-36.8 10.266666666667,-27.6 77,-69 
C 273.61316666667,165.375025 263.3465,156.175025 253.608,208.4862
 " stroke="rgb(117,159,131)" stroke-linejoin="arcs"  stroke-width="5" fill="rgb(117,159,131)"/><path d="M 247.1955 292.829575 c 20.533333333333,-20.8 14.933333333333,-20.8 28,-78 
C 264.92883333333,281.779575 270.52883333333,281.779575 246.48,304.8048
 " stroke="rgb(117,159,131)" stroke-linejoin="arcs"  stroke-width="5" fill="rgb(117,159,131)"/><path d="M 245.4 326.575 c -18.6,3.7333333333333 -37.2,1.0666666666667 -93,8 
C 217.5,328.64166666667 236.1,331.30833333333 244.9815,337.048275
 " stroke="rgb(117,159,131)" stroke-linejoin="arcs"  stroke-width="5" fill="rgb(117,159,131)"/><path d="M 251.8575 229.747675 c 9.6,-28.4 20.8,-28.4 24,-71 
C 275.0575,210.222675 263.8575,210.222675 250.368,248.4736
 " stroke="rgb(117,159,131)" stroke-linejoin="arcs"  stroke-width="5" fill="rgb(117,159,131)"/><path d="M 253.608 208.4862 c -34.4,-8.2 -5.7333333333333,-10.933333333333 -86,-41 
C 256.47466666667,202.67786666667 227.808,205.4112 251.8575,229.747675
 " stroke="rgb(117,159,131)" stroke-linejoin="arcs"  stroke-width="5" fill="rgb(117,159,131)"/><path d="M 246.48 304.8048 c 64,-21.933333333333 72,-12.533333333333 120,-47 
C 330.48,298.14646666667 322.48,288.74646666667 245.8905,315.940225
 " stroke="rgb(117,159,131)" stroke-linejoin="arcs"  stroke-width="5" fill="rgb(117,159,131)"/><polygon 
stroke="rgb(166,141,191)"
fill="rgb(166,141,191)"
stroke-width="80"
stroke-linejoin="round" 
opacity="1"
points="235 , 178 256 , 131 260 , 140 253 , 166 234 , 179 209 , 139 220 , 171 246 , 159 275 , 131 271 , 173 264 , 145 277 , 135 254 , 174 265 , 145 282 , 152 277 , 182 287 , 174 294 , 150 289 , 147 312 , 135 286 , 135 265 , 167 262 , 184 251 , 128 226 , 184 231 , 166 246 , 185 274 , 179 262 , 173 250 , 145 ">
</polygon><polygon 
stroke="rgb(146,121,171)"
fill="rgb(146,121,171)"
stroke-width="60"
stroke-linejoin="round" 
opacity="1"
points="151.368 , 243.4736 147.368 , 235.4736 140.368 , 242.4736 140.368 , 239.4736 137.368 , 239.4736 138.368 , 252.4736 129.368 , 241.4736 119.368 , 246.4736 127.368 , 243.4736 119.368 , 233.4736 115.368 , 235.4736 120.368 , 240.4736 115.368 , 248.4736 107.368 , 238.4736 117.368 , 253.4736 114.368 , 237.4736 111.368 , 240.4736 102.368 , 248.4736 105.368 , 246.4736 109.368 , 239.4736 111.368 , 236.4736 ">
</polygon><polygon 
stroke="rgb(146,121,171)"
fill="rgb(146,121,171)"
stroke-width="80"
stroke-linejoin="round" 
opacity="1"
points="252.1955 , 216.829575 275.1955 , 231.829575 252.1955 , 242.829575 237.1955 , 185.829575 237.1955 , 196.829575 244.1955 , 230.829575 214.1955 , 237.829575 203.1955 , 202.829575 222.1955 , 211.829575 204.1955 , 209.829575 215.1955 , 231.829575 185.1955 , 195.829575 211.1955 , 190.829575 185.1955 , 222.829575 212.1955 , 227.829575 213.1955 , 239.829575 231.1955 , 211.829575 219.1955 , 198.829575 193.1955 , 206.829575 213.1955 , 241.829575 204.1955 , 185.829575 193.1955 , 231.829575 ">
</polygon><polygon 
stroke="rgb(166,141,191)"
fill="rgb(166,141,191)"
stroke-width="70"
stroke-linejoin="round" 
opacity="1"
points="148.4 , 346.575 140.4 , 348.575 147.4 , 326.575 149.4 , 323.575 144.4 , 341.575 151.4 , 320.575 163.4 , 352.575 143.4 , 350.575 138.4 , 350.575 144.4 , 353.575 156.4 , 352.575 144.4 , 321.575 161.4 , 321.575 170.4 , 345.575 172.4 , 340.575 179.4 , 343.575 177.4 , 335.575 175.4 , 328.575 181.4 , 349.575 197.4 , 324.575 ">
</polygon><polygon 
stroke="rgb(166,141,191)"
fill="rgb(166,141,191)"
stroke-width="80"
stroke-linejoin="round" 
opacity="1"
points="305.8575 , 184.747675 304.8575 , 170.747675 332.8575 , 133.747675 319.8575 , 147.747675 338.8575 , 149.747675 346.8575 , 182.747675 371.8575 , 186.747675 393.8575 , 134.747675 420.8575 , 171.747675 428.8575 , 187.747675 398.8575 , 143.747675 398.8575 , 149.747675 ">
</polygon><polygon 
stroke="rgb(166,141,191)"
fill="rgb(166,141,191)"
stroke-width="80"
stroke-linejoin="round" 
opacity="1"
points="193.608 , 161.4862 191.608 , 155.4862 221.608 , 166.4862 196.608 , 188.4862 169.608 , 179.4862 139.608 , 149.4862 139.608 , 173.4862 118.608 , 164.4862 144.608 , 152.4862 136.608 , 192.4862 123.608 , 172.4862 97.608 , 148.4862 110.608 , 175.4862 94.608 , 190.4862 ">
</polygon><polygon 
stroke="rgb(156,131,181)"
fill="rgb(156,131,181)"
stroke-width="60"
stroke-linejoin="round" 
opacity="1"
points="176.608 , 157.4862 174.608 , 172.4862 172.608 , 163.4862 175.608 , 162.4862 182.608 , 171.4862 175.608 , 167.4862 181.608 , 163.4862 178.608 , 167.4862 178.608 , 165.4862 172.608 , 168.4862 166.608 , 162.4862 158.608 , 164.4862 158.608 , 160.4862 159.608 , 177.4862 158.608 , 174.4862 165.608 , 164.4862 169.608 , 174.4862 175.608 , 162.4862 175.608 , 170.4862 171.608 , 176.4862 165.608 , 157.4862 164.608 , 164.4862 166.608 , 165.4862 159.608 , 162.4862 168.608 , 164.4862 165.608 , 164.4862 167.608 , 160.4862 ">
</polygon></svg>