<?xml version="1.0" encoding="iso-8859-1"?>
<svg version="1.1" id="Capa_1" xmlns="http://www.w3.org/2000/svg" xmlns:xlink="http://www.w3.org/1999/xlink" x="0px" y="0px"
viewBox="0 0 500 500" xml:space="preserve"><defs></defs><polygon 
stroke="rgb(120,187,163)"
fill="rgb(120,187,163)"
stroke-width="80"
stroke-linejoin="round" 
opacity="1"
points="275 , 150 303 , 127 310 , 163 297 , 136 279 , 147 305 , 141 322 , 135 308 , 164 313 , 134 342 , 163 371 , 163 347 , 171 ">
</polygon><polygon 
stroke="rgb(130,197,173)"
fill="rgb(130,197,173)"
stroke-width="70"
stroke-linejoin="round" 
opacity="1"
points="262 , 130 282 , 137 271 , 142 289 , 144 305 , 161 311 , 154 316 , 126 304 , 122 319 , 150 307 , 155 315 , 133 335 , 130 322 , 162 330 , 136 334 , 141 314 , 140 321 , 156 303 , 123 297 , 160 292 , 129 305 , 148 311 , 123 313 , 137 299 , 143 303 , 153 303 , 158 310 , 129 ">
</polygon><polygon 
stroke="rgb(120,187,163)"
fill="rgb(120,187,163)"
stroke-width="60"
stroke-linejoin="round" 
opacity="1"
points="283 , 150 274 , 133 284 , 142 283 , 145 276 , 144 281 , 137 282 , 147 286 , 133 292 , 135 293 , 132 296 , 138 303 , 147 303 , 141 298 , 137 294 , 135 299 , 148 297 , 146 297 , 145 289 , 145 288 , 143 292 , 132 294 , 144 290 , 143 287 , 132 288 , 146 281 , 140 291 , 132 298 , 152 304 , 143 308 , 133 ">
</polygon><polygon 
stroke="rgb(140,207,183)"
fill="rgb(140,207,183)"
stroke-width="80"
stroke-linejoin="round" 
opacity="1"
points="235.9424 , 147.48255 250.9424 , 144.48255 255.9424 , 157.48255 280.9424 , 124.48255 306.9424 , 121.48255 319.9424 , 162.48255 292.9424 , 138.48255 272.9424 , 114.48255 302.9424 , 110.48255 291.9424 , 113.48255 275.9424 , 111.48255 300.9424 , 147.48255 301.9424 , 107.48255 280.9424 , 146.48255 260.9424 , 115.48255 270.9424 , 154.48255 279.9424 , 154.48255 258.9424 , 123.48255 228.9424 , 108.48255 215.9424 , 103.48255 232.9424 , 109.48255 241.9424 , 139.48255 241.9424 , 145.48255 222.9424 , 127.48255 203.9424 , 103.48255 212.9424 , 130.48255 ">
</polygon><polygon 
stroke="rgb(140,207,183)"
fill="rgb(140,207,183)"
stroke-width="70"
stroke-linejoin="round" 
opacity="1"
points="237.9424 , 113.48255 253.9424 , 150.48255 265.9424 , 137.48255 271.9424 , 126.48255 269.9424 , 128.48255 261.9424 , 139.48255 256.9424 , 118.48255 265.9424 , 120.48255 257.9424 , 149.48255 248.9424 , 143.48255 237.9424 , 123.48255 240.9424 , 141.48255 220.9424 , 135.48255 202.9424 , 150.48255 202.9424 , 127.48255 211.9424 , 114.48255 ">
</polygon><polygon 
stroke="rgb(140,207,183)"
fill="rgb(140,207,183)"
stroke-width="60"
stroke-linejoin="round" 
opacity="1"
points="216.9424 , 130.48255 218.9424 , 133.48255 222.9424 , 132.48255 225.9424 , 123.48255 232.9424 , 129.48255 231.9424 , 136.48255 236.9424 , 127.48255 242.9424 , 129.48255 239.9424 , 141.48255 232.9424 , 136.48255 233.9424 , 138.48255 ">
</polygon><polygon 
stroke="rgb(140,207,183)"
fill="rgb(140,207,183)"
stroke-width="80"
stroke-linejoin="round" 
opacity="1"
points="312.5 , 236.01875 326.5 , 195.01875 296.5 , 216.01875 314.5 , 197.01875 292.5 , 236.01875 268.5 , 251.01875 297.5 , 234.01875 283.5 , 226.01875 253.5 , 222.01875 223.5 , 235.01875 194.5 , 225.01875 221.5 , 199.01875 199.5 , 243.01875 189.5 , 246.01875 175.5 , 204.01875 204.5 , 241.01875 208.5 , 244.01875 233.5 , 238.01875 257.5 , 222.01875 ">
</polygon><polygon 
stroke="rgb(130,197,173)"
fill="rgb(130,197,173)"
stroke-width="70"
stroke-linejoin="round" 
opacity="1"
points="342.5 , 209.01875 357.5 , 233.01875 362.5 , 240.01875 355.5 , 219.01875 344.5 , 210.01875 362.5 , 204.01875 363.5 , 212.01875 364.5 , 228.01875 368.5 , 221.01875 371.5 , 242.01875 359.5 , 215.01875 360.5 , 222.01875 344.5 , 243.01875 329.5 , 216.01875 314.5 , 228.01875 300.5 , 225.01875 312.5 , 217.01875 292.5 , 211.01875 310.5 , 243.01875 322.5 , 211.01875 324.5 , 205.01875 339.5 , 206.01875 343.5 , 221.01875 338.5 , 237.01875 326.5 , 215.01875 326.5 , 221.01875 346.5 , 224.01875 330.5 , 237.01875 332.5 , 236.01875 ">
</polygon><polygon 
stroke="rgb(140,207,183)"
fill="rgb(140,207,183)"
stroke-width="80"
stroke-linejoin="round" 
opacity="1"
points="231.5 , 166.01875 250.5 , 197.01875 226.5 , 180.01875 213.5 , 199.01875 215.5 , 176.01875 232.5 , 173.01875 245.5 , 216.01875 234.5 , 210.01875 261.5 , 169.01875 245.5 , 188.01875 253.5 , 197.01875 264.5 , 208.01875 284.5 , 164.01875 287.5 , 171.01875 266.5 , 199.01875 ">
</polygon><polygon 
stroke="rgb(130,197,173)"
fill="rgb(130,197,173)"
stroke-width="70"
stroke-linejoin="round" 
opacity="1"
points="222.5 , 170.01875 206.5 , 205.01875 188.5 , 181.01875 171.5 , 203.01875 188.5 , 189.01875 188.5 , 174.01875 179.5 , 192.01875 190.5 , 195.01875 174.5 , 203.01875 168.5 , 192.01875 149.5 , 202.01875 131.5 , 183.01875 150.5 , 179.01875 155.5 , 190.01875 150.5 , 166.01875 143.5 , 194.01875 123.5 , 194.01875 142.5 , 175.01875 158.5 , 201.01875 145.5 , 203.01875 163.5 , 182.01875 172.5 , 203.01875 185.5 , 199.01875 188.5 , 204.01875 168.5 , 167.01875 178.5 , 188.01875 174.5 , 171.01875 176.5 , 181.01875 169.5 , 195.01875 171.5 , 192.01875 ">
</polygon><polygon 
stroke="rgb(130,197,173)"
fill="rgb(130,197,173)"
stroke-width="60"
stroke-linejoin="round" 
opacity="1"
points="216.5 , 194.01875 219.5 , 185.01875 217.5 , 186.01875 216.5 , 183.01875 210.5 , 187.01875 206.5 , 185.01875 197.5 , 177.01875 196.5 , 191.01875 187.5 , 182.01875 186.5 , 183.01875 196.5 , 180.01875 198.5 , 185.01875 205.5 , 181.01875 199.5 , 177.01875 193.5 , 182.01875 189.5 , 177.01875 197.5 , 191.01875 192.5 , 195.01875 201.5 , 176.01875 ">
</polygon><polygon 
stroke="rgb(130,197,173)"
fill="rgb(130,197,173)"
stroke-width="60"
stroke-linejoin="round" 
opacity="1"
points="383.5 , 205.01875 384.5 , 207.01875 391.5 , 198.01875 392.5 , 194.01875 392.5 , 210.01875 388.5 , 201.01875 398.5 , 208.01875 404.5 , 199.01875 410.5 , 210.01875 405.5 , 194.01875 413.5 , 193.01875 412.5 , 207.01875 410.5 , 204.01875 413.5 , 203.01875 ">
</polygon><polygon 
stroke="rgb(140,207,183)"
fill="rgb(140,207,183)"
stroke-width="80"
stroke-linejoin="round" 
opacity="1"
points="252.9424 , 114.48255 253.9424 , 67.48255 248.9424 , 117.48255 241.9424 , 102.48255 263.9424 , 75.48255 282.9424 , 104.48255 296.9424 , 112.48255 305.9424 , 81.48255 283.9424 , 100.48255 308.9424 , 77.48255 288.9424 , 95.48255 293.9424 , 100.48255 316.9424 , 107.48255 307.9424 , 86.48255 291.9424 , 69.48255 319.9424 , 95.48255 347.9424 , 110.48255 319.9424 , 85.48255 331.9424 , 68.48255 349.9424 , 68.48255 347.9424 , 99.48255 334.9424 , 109.48255 344.9424 , 83.48255 332.9424 , 111.48255 ">
</polygon><polygon 
stroke="rgb(120,187,163)"
fill="rgb(120,187,163)"
stroke-width="70"
stroke-linejoin="round" 
opacity="1"
points="230.9424 , 94.48255 232.9424 , 70.48255 230.9424 , 79.48255 216.9424 , 103.48255 222.9424 , 88.48255 206.9424 , 90.48255 214.9424 , 70.48255 229.9424 , 96.48255 248.9424 , 75.48255 230.9424 , 86.48255 210.9424 , 98.48255 201.9424 , 71.48255 185.9424 , 77.48255 184.9424 , 97.48255 202.9424 , 108.48255 190.9424 , 105.48255 180.9424 , 92.48255 184.9424 , 78.48255 171.9424 , 94.48255 184.9424 , 79.48255 180.9424 , 84.48255 160.9424 , 74.48255 174.9424 , 101.48255 179.9424 , 73.48255 187.9424 , 68.48255 199.9424 , 73.48255 206.9424 , 74.48255 224.9424 , 101.48255 ">
</polygon><polygon 
stroke="rgb(140,207,183)"
fill="rgb(140,207,183)"
stroke-width="60"
stroke-linejoin="round" 
opacity="1"
points="248.9424 , 84.48255 256.9424 , 91.48255 246.9424 , 90.48255 236.9424 , 84.48255 241.9424 , 80.48255 238.9424 , 89.48255 235.9424 , 79.48255 227.9424 , 92.48255 217.9424 , 86.48255 211.9424 , 86.48255 202.9424 , 81.48255 211.9424 , 78.48255 209.9424 , 96.48255 207.9424 , 90.48255 215.9424 , 94.48255 ">
</polygon><polygon 
stroke="rgb(130,197,173)"
fill="rgb(130,197,173)"
stroke-width="80"
stroke-linejoin="round" 
opacity="1"
points="230.4392 , 97.5764 222.4392 , 111.5764 227.4392 , 90.5764 205.4392 , 121.5764 202.4392 , 106.5764 195.4392 , 126.5764 199.4392 , 131.5764 209.4392 , 128.5764 209.4392 , 106.5764 218.4392 , 149.5764 189.4392 , 130.5764 219.4392 , 130.5764 230.4392 , 108.5764 203.4392 , 107.5764 206.4392 , 148.5764 177.4392 , 148.5764 153.4392 , 114.5764 141.4392 , 147.5764 139.4392 , 112.5764 120.4392 , 109.5764 121.4392 , 133.5764 148.4392 , 144.5764 130.4392 , 146.5764 114.4392 , 94.5764 141.4392 , 103.5764 137.4392 , 119.5764 131.4392 , 90.5764 102.4392 , 90.5764 89.4392 , 108.5764 ">
</polygon><polygon 
stroke="rgb(140,207,183)"
fill="rgb(140,207,183)"
stroke-width="70"
stroke-linejoin="round" 
opacity="1"
points="244.4392 , 130.5764 253.4392 , 137.5764 261.4392 , 112.5764 262.4392 , 126.5764 252.4392 , 125.5764 248.4392 , 137.5764 229.4392 , 107.5764 230.4392 , 109.5764 240.4392 , 114.5764 244.4392 , 108.5764 256.4392 , 123.5764 250.4392 , 107.5764 248.4392 , 101.5764 256.4392 , 104.5764 273.4392 , 103.5764 271.4392 , 100.5764 269.4392 , 120.5764 274.4392 , 122.5764 277.4392 , 129.5764 279.4392 , 115.5764 276.4392 , 105.5764 293.4392 , 132.5764 ">
</polygon><polygon 
stroke="rgb(140,207,183)"
fill="rgb(140,207,183)"
stroke-width="80"
stroke-linejoin="round" 
opacity="1"
points="219.0896 , 240.09095 245.0896 , 285.09095 270.0896 , 253.09095 245.0896 , 249.09095 256.0896 , 264.09095 262.0896 , 258.09095 285.0896 , 279.09095 315.0896 , 256.09095 295.0896 , 287.09095 300.0896 , 231.09095 ">
</polygon><polygon 
stroke="rgb(120,187,163)"
fill="rgb(120,187,163)"
stroke-width="60"
stroke-linejoin="round" 
opacity="1"
points="188.0896 , 257.09095 198.0896 , 255.09095 204.0896 , 253.09095 205.0896 , 265.09095 197.0896 , 265.09095 187.0896 , 263.09095 181.0896 , 261.09095 189.0896 , 270.09095 199.0896 , 252.09095 208.0896 , 251.09095 213.0896 , 263.09095 214.0896 , 259.09095 219.0896 , 255.09095 223.0896 , 253.09095 213.0896 , 262.09095 214.0896 , 265.09095 209.0896 , 258.09095 218.0896 , 251.09095 217.0896 , 262.09095 227.0896 , 257.09095 223.0896 , 268.09095 217.0896 , 252.09095 220.0896 , 258.09095 230.0896 , 265.09095 229.0896 , 266.09095 220.0896 , 259.09095 ">
</polygon><polygon 
stroke="rgb(130,197,173)"
fill="rgb(130,197,173)"
stroke-width="80"
stroke-linejoin="round" 
opacity="1"
points="238.5 , 243.01875 242.5 , 278.01875 218.5 , 266.01875 205.5 , 264.01875 185.5 , 238.01875 161.5 , 254.01875 155.5 , 274.01875 171.5 , 269.01875 159.5 , 259.01875 170.5 , 234.01875 196.5 , 275.01875 217.5 , 249.01875 224.5 , 269.01875 250.5 , 272.01875 261.5 , 260.01875 263.5 , 255.01875 270.5 , 270.01875 256.5 , 257.01875 259.5 , 266.01875 246.5 , 270.01875 ">
</polygon><polygon 
stroke="rgb(130,197,173)"
fill="rgb(130,197,173)"
stroke-width="70"
stroke-linejoin="round" 
opacity="1"
points="237.5 , 260.01875 234.5 , 270.01875 219.5 , 238.01875 235.5 , 246.01875 231.5 , 234.01875 237.5 , 263.01875 254.5 , 246.01875 244.5 , 260.01875 247.5 , 270.01875 262.5 , 244.01875 272.5 , 257.01875 277.5 , 260.01875 294.5 , 241.01875 297.5 , 266.01875 307.5 , 270.01875 302.5 , 236.01875 315.5 , 258.01875 ">
</polygon><polygon 
stroke="rgb(140,207,183)"
fill="rgb(140,207,183)"
stroke-width="60"
stroke-linejoin="round" 
opacity="1"
points="232.5 , 257.01875 235.5 , 251.01875 227.5 , 252.01875 217.5 , 256.01875 221.5 , 250.01875 222.5 , 252.01875 220.5 , 248.01875 221.5 , 251.01875 231.5 , 244.01875 221.5 , 243.01875 212.5 , 247.01875 212.5 , 241.01875 203.5 , 246.01875 203.5 , 260.01875 202.5 , 255.01875 199.5 , 243.01875 201.5 , 251.01875 197.5 , 240.01875 197.5 , 252.01875 203.5 , 259.01875 193.5 , 251.01875 198.5 , 253.01875 188.5 , 240.01875 188.5 , 241.01875 191.5 , 253.01875 181.5 , 249.01875 184.5 , 254.01875 184.5 , 257.01875 185.5 , 254.01875 ">
</polygon><polygon 
stroke="rgb(130,197,173)"
fill="rgb(130,197,173)"
stroke-width="70"
stroke-linejoin="round" 
opacity="1"
points="403.3 , 332.25 385.3 , 356.25 369.3 , 345.25 373.3 , 347.25 381.3 , 362.25 372.3 , 329.25 376.3 , 364.25 356.3 , 349.25 342.3 , 368.25 353.3 , 368.25 370.3 , 329.25 361.3 , 358.25 ">
</polygon><polygon 
stroke="rgb(130,197,173)"
fill="rgb(130,197,173)"
stroke-width="60"
stroke-linejoin="round" 
opacity="1"
points="377.3 , 338.25 371.3 , 350.25 380.3 , 358.25 375.3 , 353.25 378.3 , 358.25 376.3 , 352.25 379.3 , 357.25 388.3 , 353.25 384.3 , 355.25 390.3 , 343.25 396.3 , 347.25 399.3 , 357.25 395.3 , 344.25 391.3 , 343.25 401.3 , 341.25 399.3 , 351.25 407.3 , 354.25 409.3 , 349.25 408.3 , 356.25 400.3 , 344.25 409.3 , 354.25 416.3 , 344.25 418.3 , 341.25 418.3 , 350.25 ">
</polygon><path d="M 240 480 c 39.2,-45.066666666667 19.6,-180.26666666667 42,-338 
C 315.6,329.73333333333 335.2,464.93333333333 302,480
 " stroke="rgb(186,132,128)" stroke-linejoin="arcs"  stroke-width="5" fill="rgb(186,132,128)"/><path d="M 278.9424 165.48255 c -14.933333333333,-17.6 -22.4,-6.6 -56,-33 
C 262.1424,163.00755 269.60906666667,152.00755 276.4392,188.5764
 " stroke="rgb(186,132,128)" stroke-linejoin="arcs"  stroke-width="5" fill="rgb(186,132,128)"/><path d="M 271.5 255.01875 c 0,-17.066666666667 36.666666666667,-10.666666666667 55,-32 
C 313.66666666667,248.35208333333 277,241.95208333333 270.4584,276.0508
 " stroke="rgb(186,132,128)" stroke-linejoin="arcs"  stroke-width="5" fill="rgb(186,132,128)"/><path d="M 271.5 255.01875 c -50.4,-18.4 -58.8,-13.8 -63,-69 
C 219,249.84375 227.4,245.24375 270.4584,276.0508
 " stroke="rgb(186,132,128)" stroke-linejoin="arcs"  stroke-width="5" fill="rgb(186,132,128)"/><path d="M 271.5 255.01875 c 40.333333333333,-20.8 56.466666666667,-24.266666666667 121,-52 
C 340.06666666667,237.25208333333 323.93333333333,240.71875 270.4584,276.0508
 " stroke="rgb(186,132,128)" stroke-linejoin="arcs"  stroke-width="5" fill="rgb(186,132,128)"/><path d="M 278.9424 165.48255 c -28,-30.8 -24.266666666667,-10.266666666667 -28,-77 
C 257.47573333333,164.84088333333 253.7424,144.30755 276.4392,188.5764
 " stroke="rgb(186,132,128)" stroke-linejoin="arcs"  stroke-width="5" fill="rgb(186,132,128)"/><path d="M 276.4392 188.5764 c -11.6,-31.733333333333 -15.466666666667,-31.733333333333 -29,-68 
C 263.87253333333,165.34306666667 267.7392,165.34306666667 274.4148,211.23085
 " stroke="rgb(186,132,128)" stroke-linejoin="arcs"  stroke-width="5" fill="rgb(186,132,128)"/><path d="M 268.0896 335.09095 c -30.8,-10 -41.066666666667,-15 -77,-75 
C 234.72293333333,329.46595 244.9896,334.46595 267.3,353.25
 " stroke="rgb(186,132,128)" stroke-linejoin="arcs"  stroke-width="5" fill="rgb(186,132,128)"/><path d="M 271.5 255.01875 c -22.666666666667,-2.3333333333333 0,-1.6666666666667 -34,-5 
C 274.9,253.97708333333 252.23333333333,253.31041666667 270.4584,276.0508
 " stroke="rgb(186,132,128)" stroke-linejoin="arcs"  stroke-width="5" fill="rgb(186,132,128)"/><path d="M 267.3 353.25 c 95.2,-1 71.4,-1.6666666666667 119,-5 
C 350.6,352.20833333333 374.4,352.875 266.3844,370.56405
 " stroke="rgb(186,132,128)" stroke-linejoin="arcs"  stroke-width="5" fill="rgb(186,132,128)"/><polygon 
stroke="rgb(130,197,173)"
fill="rgb(130,197,173)"
stroke-width="60"
stroke-linejoin="round" 
opacity="1"
points="320.5 , 220.01875 322.5 , 214.01875 325.5 , 218.01875 318.5 , 228.01875 317.5 , 227.01875 322.5 , 217.01875 319.5 , 219.01875 310.5 , 231.01875 316.5 , 229.01875 309.5 , 231.01875 315.5 , 225.01875 320.5 , 220.01875 318.5 , 226.01875 315.5 , 214.01875 314.5 , 221.01875 308.5 , 224.01875 310.5 , 221.01875 304.5 , 216.01875 310.5 , 218.01875 313.5 , 228.01875 303.5 , 230.01875 313.5 , 221.01875 304.5 , 232.01875 297.5 , 218.01875 303.5 , 220.01875 297.5 , 221.01875 303.5 , 225.01875 312.5 , 226.01875 305.5 , 220.01875 ">
</polygon><polygon 
stroke="rgb(130,197,173)"
fill="rgb(130,197,173)"
stroke-width="80"
stroke-linejoin="round" 
opacity="1"
points="381.5 , 184.01875 400.5 , 191.01875 380.5 , 186.01875 397.5 , 186.01875 421.5 , 223.01875 394.5 , 184.01875 370.5 , 226.01875 366.5 , 217.01875 343.5 , 190.01875 370.5 , 175.01875 346.5 , 187.01875 346.5 , 202.01875 355.5 , 227.01875 368.5 , 198.01875 341.5 , 197.01875 341.5 , 213.01875 368.5 , 216.01875 360.5 , 223.01875 374.5 , 179.01875 395.5 , 190.01875 403.5 , 229.01875 402.5 , 217.01875 401.5 , 210.01875 394.5 , 195.01875 375.5 , 174.01875 402.5 , 195.01875 379.5 , 174.01875 ">
</polygon><polygon 
stroke="rgb(130,197,173)"
fill="rgb(130,197,173)"
stroke-width="70"
stroke-linejoin="round" 
opacity="1"
points="382.5 , 221.01875 363.5 , 210.01875 356.5 , 204.01875 356.5 , 193.01875 367.5 , 205.01875 376.5 , 205.01875 384.5 , 198.01875 398.5 , 188.01875 418.5 , 193.01875 398.5 , 194.01875 405.5 , 220.01875 385.5 , 207.01875 380.5 , 208.01875 389.5 , 200.01875 397.5 , 220.01875 380.5 , 185.01875 363.5 , 188.01875 370.5 , 185.01875 356.5 , 199.01875 366.5 , 202.01875 ">
</polygon><polygon 
stroke="rgb(140,207,183)"
fill="rgb(140,207,183)"
stroke-width="60"
stroke-linejoin="round" 
opacity="1"
points="239.4392 , 128.5764 233.4392 , 110.5764 226.4392 , 117.5764 226.4392 , 128.5764 235.4392 , 116.5764 232.4392 , 122.5764 235.4392 , 116.5764 226.4392 , 121.5764 235.4392 , 117.5764 241.4392 , 126.5764 242.4392 , 130.5764 245.4392 , 115.5764 250.4392 , 119.5764 254.4392 , 122.5764 246.4392 , 130.5764 249.4392 , 129.5764 257.4392 , 130.5764 250.4392 , 115.5764 247.4392 , 128.5764 253.4392 , 110.5764 258.4392 , 118.5764 262.4392 , 125.5764 270.4392 , 130.5764 263.4392 , 121.5764 ">
</polygon><polygon 
stroke="rgb(140,207,183)"
fill="rgb(140,207,183)"
stroke-width="70"
stroke-linejoin="round" 
opacity="1"
points="207.0896 , 245.09095 206.0896 , 264.09095 201.0896 , 241.09095 184.0896 , 264.09095 194.0896 , 274.09095 203.0896 , 280.09095 187.0896 , 265.09095 193.0896 , 275.09095 211.0896 , 246.09095 199.0896 , 252.09095 206.0896 , 254.09095 187.0896 , 255.09095 173.0896 , 270.09095 186.0896 , 261.09095 191.0896 , 240.09095 194.0896 , 261.09095 190.0896 , 244.09095 199.0896 , 248.09095 204.0896 , 255.09095 216.0896 , 270.09095 224.0896 , 240.09095 ">
</polygon><polygon 
stroke="rgb(130,197,173)"
fill="rgb(130,197,173)"
stroke-width="80"
stroke-linejoin="round" 
opacity="1"
points="378.3 , 350.25 400.3 , 377.25 402.3 , 366.25 391.3 , 355.25 377.3 , 348.25 358.3 , 344.25 387.3 , 333.25 398.3 , 376.25 370.3 , 319.25 342.3 , 336.25 319.3 , 365.25 345.3 , 327.25 346.3 , 343.25 ">
</polygon></svg>