<?xml version="1.0" encoding="iso-8859-1"?>
<svg version="1.1" id="Capa_1" xmlns="http://www.w3.org/2000/svg" xmlns:xlink="http://www.w3.org/1999/xlink" x="0px" y="0px"
viewBox="0 0 500 500" xml:space="preserve"><defs></defs><polygon 
stroke="rgb(182,206,136)"
fill="rgb(182,206,136)"
stroke-width="80"
stroke-linejoin="round" 
opacity="1"
points="294 , 151 309 , 170 314 , 136 312 , 172 342 , 174 371 , 122 394 , 168 369 , 134 376 , 143 349 , 141 ">
</polygon><polygon 
stroke="rgb(162,186,116)"
fill="rgb(162,186,116)"
stroke-width="70"
stroke-linejoin="round" 
opacity="1"
points="265 , 162 282 , 131 288 , 159 268 , 161 277 , 152 276 , 161 259 , 144 246 , 158 263 , 144 278 , 161 283 , 166 269 , 142 252 , 144 272 , 155 291 , 170 311 , 142 322 , 149 313 , 159 314 , 154 306 , 146 288 , 144 293 , 162 310 , 137 292 , 148 289 , 149 301 , 166 282 , 138 ">
</polygon><polygon 
stroke="rgb(162,186,116)"
fill="rgb(162,186,116)"
stroke-width="80"
stroke-linejoin="round" 
opacity="1"
points="305.7923 , 313.949475 285.7923 , 335.949475 276.7923 , 341.949475 298.7923 , 350.949475 280.7923 , 319.949475 289.7923 , 326.949475 280.7923 , 319.949475 300.7923 , 311.949475 310.7923 , 299.949475 304.7923 , 342.949475 327.7923 , 310.949475 339.7923 , 330.949475 359.7923 , 340.949475 329.7923 , 340.949475 355.7923 , 325.949475 375.7923 , 327.949475 403.7923 , 311.949475 375.7923 , 316.949475 376.7923 , 298.949475 390.7923 , 314.949475 388.7923 , 351.949475 408.7923 , 303.949475 437.7923 , 330.949475 413.7923 , 320.949475 415.7923 , 330.949475 426.7923 , 304.949475 425.7923 , 338.949475 406.7923 , 312.949475 420.7923 , 302.949475 401.7923 , 349.949475 ">
</polygon><polygon 
stroke="rgb(172,196,126)"
fill="rgb(172,196,126)"
stroke-width="70"
stroke-linejoin="round" 
opacity="1"
points="306.7923 , 322.949475 326.7923 , 313.949475 321.7923 , 339.949475 307.7923 , 319.949475 312.7923 , 321.949475 318.7923 , 321.949475 330.7923 , 343.949475 344.7923 , 316.949475 334.7923 , 306.949475 319.7923 , 342.949475 311.7923 , 316.949475 324.7923 , 336.949475 342.7923 , 316.949475 331.7923 , 337.949475 325.7923 , 314.949475 318.7923 , 329.949475 315.7923 , 322.949475 302.7923 , 334.949475 298.7923 , 326.949475 307.7923 , 343.949475 312.7923 , 322.949475 298.7923 , 322.949475 ">
</polygon><polygon 
stroke="rgb(162,186,116)"
fill="rgb(162,186,116)"
stroke-width="70"
stroke-linejoin="round" 
opacity="1"
points="273.7923 , 293.949475 262.7923 , 322.949475 272.7923 , 310.949475 265.7923 , 290.949475 250.7923 , 303.949475 247.7923 , 308.949475 232.7923 , 303.949475 250.7923 , 320.949475 244.7923 , 296.949475 251.7923 , 309.949475 271.7923 , 315.949475 282.7923 , 295.949475 267.7923 , 322.949475 257.7923 , 302.949475 247.7923 , 303.949475 263.7923 , 326.949475 276.7923 , 296.949475 266.7923 , 300.949475 279.7923 , 293.949475 293.7923 , 319.949475 301.7923 , 318.949475 284.7923 , 321.949475 264.7923 , 326.949475 274.7923 , 310.949475 254.7923 , 322.949475 244.7923 , 306.949475 233.7923 , 295.949475 223.7923 , 314.949475 206.7923 , 323.949475 223.7923 , 323.949475 ">
</polygon><polygon 
stroke="rgb(182,206,136)"
fill="rgb(182,206,136)"
stroke-width="60"
stroke-linejoin="round" 
opacity="1"
points="261.7923 , 314.949475 254.7923 , 302.949475 257.7923 , 311.949475 267.7923 , 309.949475 273.7923 , 301.949475 280.7923 , 305.949475 289.7923 , 309.949475 292.7923 , 313.949475 294.7923 , 305.949475 292.7923 , 301.949475 296.7923 , 316.949475 291.7923 , 296.949475 290.7923 , 297.949475 281.7923 , 309.949475 279.7923 , 300.949475 274.7923 , 316.949475 267.7923 , 298.949475 267.7923 , 309.949475 260.7923 , 303.949475 255.7923 , 302.949475 251.7923 , 314.949475 242.7923 , 309.949475 ">
</polygon><polygon 
stroke="rgb(162,186,116)"
fill="rgb(162,186,116)"
stroke-width="80"
stroke-linejoin="round" 
opacity="1"
points="298.4 , 383.625 301.4 , 361.625 322.4 , 364.625 347.4 , 382.625 324.4 , 371.625 354.4 , 349.625 358.4 , 366.625 374.4 , 359.625 353.4 , 361.625 337.4 , 340.625 309.4 , 380.625 303.4 , 381.625 327.4 , 346.625 301.4 , 382.625 295.4 , 356.625 297.4 , 357.625 302.4 , 336.625 306.4 , 373.625 309.4 , 340.625 303.4 , 389.625 287.4 , 338.625 305.4 , 351.625 293.4 , 350.625 281.4 , 351.625 ">
</polygon><polygon 
stroke="rgb(162,186,116)"
fill="rgb(162,186,116)"
stroke-width="70"
stroke-linejoin="round" 
opacity="1"
points="280.4 , 377.625 269.4 , 347.625 283.4 , 378.625 277.4 , 365.625 289.4 , 365.625 283.4 , 347.625 282.4 , 346.625 284.4 , 350.625 282.4 , 371.625 272.4 , 369.625 291.4 , 384.625 310.4 , 362.625 308.4 , 355.625 327.4 , 380.625 314.4 , 350.625 301.4 , 366.625 302.4 , 371.625 ">
</polygon><polygon 
stroke="rgb(182,206,136)"
fill="rgb(182,206,136)"
stroke-width="60"
stroke-linejoin="round" 
opacity="1"
points="273.4 , 355.625 280.4 , 363.625 290.4 , 367.625 293.4 , 355.625 287.4 , 373.625 295.4 , 354.625 291.4 , 374.625 296.4 , 373.625 292.4 , 359.625 290.4 , 356.625 290.4 , 373.625 291.4 , 373.625 ">
</polygon><polygon 
stroke="rgb(172,196,126)"
fill="rgb(172,196,126)"
stroke-width="60"
stroke-linejoin="round" 
opacity="1"
points="243.7923 , 284.949475 236.7923 , 277.949475 238.7923 , 272.949475 228.7923 , 268.949475 234.7923 , 284.949475 243.7923 , 285.949475 236.7923 , 265.949475 245.7923 , 276.949475 235.7923 , 281.949475 235.7923 , 272.949475 232.7923 , 267.949475 ">
</polygon><polygon 
stroke="rgb(182,206,136)"
fill="rgb(182,206,136)"
stroke-width="80"
stroke-linejoin="round" 
opacity="1"
points="213.2241 , 252.328325 239.2241 , 246.328325 249.2241 , 225.328325 257.2241 , 250.328325 235.2241 , 275.328325 208.2241 , 270.328325 236.2241 , 221.328325 240.2241 , 261.328325 236.2241 , 246.328325 229.2241 , 257.328325 234.2241 , 269.328325 210.2241 , 266.328325 209.2241 , 244.328325 225.2241 , 278.328325 213.2241 , 244.328325 238.2241 , 261.328325 212.2241 , 246.328325 207.2241 , 273.328325 180.2241 , 278.328325 159.2241 , 222.328325 188.2241 , 244.328325 ">
</polygon><polygon 
stroke="rgb(162,186,116)"
fill="rgb(162,186,116)"
stroke-width="70"
stroke-linejoin="round" 
opacity="1"
points="251.2241 , 231.328325 267.2241 , 257.328325 264.2241 , 257.328325 253.2241 , 234.328325 239.2241 , 254.328325 250.2241 , 232.328325 253.2241 , 256.328325 255.2241 , 247.328325 243.2241 , 260.328325 230.2241 , 240.328325 239.2241 , 253.328325 232.2241 , 248.328325 252.2241 , 251.328325 267.2241 , 271.328325 256.2241 , 248.328325 ">
</polygon><polygon 
stroke="rgb(162,186,116)"
fill="rgb(162,186,116)"
stroke-width="60"
stroke-linejoin="round" 
opacity="1"
points="244.2241 , 247.328325 249.2241 , 256.328325 245.2241 , 255.328325 245.2241 , 251.328325 254.2241 , 244.328325 248.2241 , 247.328325 247.2241 , 256.328325 244.2241 , 260.328325 236.2241 , 258.328325 230.2241 , 257.328325 226.2241 , 251.328325 236.2241 , 258.328325 241.2241 , 251.328325 251.2241 , 258.328325 242.2241 , 249.328325 234.2241 , 250.328325 242.2241 , 258.328325 243.2241 , 252.328325 247.2241 , 250.328325 252.2241 , 253.328325 ">
</polygon><polygon 
stroke="rgb(182,206,136)"
fill="rgb(182,206,136)"
stroke-width="80"
stroke-linejoin="round" 
opacity="1"
points="197.4375 , 226.009375 201.4375 , 186.009375 177.4375 , 228.009375 189.4375 , 203.009375 201.4375 , 219.009375 229.4375 , 173.009375 231.4375 , 191.009375 238.4375 , 177.009375 252.4375 , 201.009375 243.4375 , 212.009375 231.4375 , 184.009375 227.4375 , 227.009375 242.4375 , 186.009375 227.4375 , 211.009375 222.4375 , 172.009375 241.4375 , 223.009375 216.4375 , 176.009375 246.4375 , 229.009375 249.4375 , 193.009375 ">
</polygon><polygon 
stroke="rgb(182,206,136)"
fill="rgb(182,206,136)"
stroke-width="80"
stroke-linejoin="round" 
opacity="1"
points="137.7923 , 302.949475 136.7923 , 284.949475 119.7923 , 283.949475 139.7923 , 310.949475 148.7923 , 296.949475 154.7923 , 293.949475 173.7923 , 266.949475 173.7923 , 299.949475 183.7923 , 305.949475 193.7923 , 281.949475 196.7923 , 299.949475 188.7923 , 309.949475 165.7923 , 299.949475 182.7923 , 287.949475 212.7923 , 288.949475 210.7923 , 294.949475 223.7923 , 272.949475 211.7923 , 268.949475 217.7923 , 267.949475 232.7923 , 306.949475 208.7923 , 304.949475 214.7923 , 322.949475 225.7923 , 308.949475 215.7923 , 288.949475 ">
</polygon><polygon 
stroke="rgb(162,186,116)"
fill="rgb(162,186,116)"
stroke-width="80"
stroke-linejoin="round" 
opacity="1"
points="191.4 , 321.625 215.4 , 333.625 240.4 , 306.625 265.4 , 332.625 282.4 , 314.625 279.4 , 322.625 282.4 , 308.625 297.4 , 278.625 317.4 , 289.625 307.4 , 303.625 301.4 , 277.625 298.4 , 327.625 290.4 , 334.625 316.4 , 304.625 293.4 , 280.625 300.4 , 316.625 282.4 , 302.625 258.4 , 281.625 250.4 , 331.625 240.4 , 319.625 242.4 , 290.625 259.4 , 289.625 264.4 , 293.625 243.4 , 282.625 231.4 , 290.625 201.4 , 292.625 206.4 , 280.625 ">
</polygon><polygon 
stroke="rgb(182,206,136)"
fill="rgb(182,206,136)"
stroke-width="70"
stroke-linejoin="round" 
opacity="1"
points="194.4 , 319.625 208.4 , 287.625 195.4 , 321.625 180.4 , 295.625 179.4 , 295.625 184.4 , 316.625 173.4 , 316.625 186.4 , 302.625 186.4 , 323.625 172.4 , 307.625 154.4 , 327.625 153.4 , 287.625 142.4 , 308.625 156.4 , 320.625 174.4 , 312.625 193.4 , 310.625 191.4 , 324.625 180.4 , 312.625 170.4 , 293.625 166.4 , 323.625 174.4 , 290.625 175.4 , 322.625 177.4 , 289.625 187.4 , 306.625 170.4 , 310.625 ">
</polygon><polygon 
stroke="rgb(162,186,116)"
fill="rgb(162,186,116)"
stroke-width="60"
stroke-linejoin="round" 
opacity="1"
points="203.4 , 304.625 205.4 , 314.625 197.4 , 308.625 199.4 , 302.625 194.4 , 301.625 191.4 , 306.625 188.4 , 298.625 196.4 , 300.625 203.4 , 310.625 206.4 , 298.625 215.4 , 304.625 220.4 , 297.625 213.4 , 311.625 206.4 , 315.625 202.4 , 299.625 194.4 , 305.625 186.4 , 302.625 183.4 , 311.625 191.4 , 305.625 190.4 , 313.625 183.4 , 317.625 ">
</polygon><polygon 
stroke="rgb(162,186,116)"
fill="rgb(162,186,116)"
stroke-width="80"
stroke-linejoin="round" 
opacity="1"
points="206.7923 , 292.949475 205.7923 , 334.949475 175.7923 , 318.949475 166.7923 , 316.949475 166.7923 , 306.949475 191.7923 , 317.949475 171.7923 , 317.949475 156.7923 , 303.949475 181.7923 , 288.949475 203.7923 , 332.949475 225.7923 , 310.949475 196.7923 , 311.949475 183.7923 , 320.949475 163.7923 , 286.949475 ">
</polygon><polygon 
stroke="rgb(172,196,126)"
fill="rgb(172,196,126)"
stroke-width="70"
stroke-linejoin="round" 
opacity="1"
points="187.7923 , 302.949475 183.7923 , 306.949475 190.7923 , 308.949475 204.7923 , 320.949475 190.7923 , 324.949475 185.7923 , 325.949475 191.7923 , 301.949475 200.7923 , 327.949475 188.7923 , 289.949475 185.7923 , 300.949475 195.7923 , 320.949475 187.7923 , 315.949475 171.7923 , 304.949475 162.7923 , 317.949475 154.7923 , 307.949475 174.7923 , 307.949475 172.7923 , 324.949475 171.7923 , 309.949475 ">
</polygon><polygon 
stroke="rgb(182,206,136)"
fill="rgb(182,206,136)"
stroke-width="60"
stroke-linejoin="round" 
opacity="1"
points="200.7923 , 301.949475 207.7923 , 305.949475 210.7923 , 311.949475 205.7923 , 313.949475 208.7923 , 317.949475 218.7923 , 297.949475 220.7923 , 315.949475 220.7923 , 314.949475 229.7923 , 301.949475 231.7923 , 301.949475 240.7923 , 310.949475 ">
</polygon><path d="M 240 480 c 33.6,-43.866666666667 30.8,-175.46666666667 42,-329 
C 325.8,334.53333333333 328.6,466.13333333333 289,480
 " stroke="rgb(179,127,176)" stroke-linejoin="arcs"  stroke-width="5" fill="rgb(179,127,176)"/><path d="M 270.7923 338.949475 c 17.333333333333,-3.2 20,-4 20,-12 
C 292.7923,336.449475 290.12563333333,337.249475 269.4,356.625
 " stroke="rgb(179,127,176)" stroke-linejoin="arcs"  stroke-width="5" fill="rgb(179,127,176)"/><path d="M 270.7923 338.949475 c 0,-4.2666666666667 0,-17.066666666667 0,-32 
C 270.7923,325.88280833333 270.7923,338.68280833333 269.4,356.625
 " stroke="rgb(179,127,176)" stroke-linejoin="arcs"  stroke-width="5" fill="rgb(179,127,176)"/><path d="M 269.4 356.625 c 1.4,3.2 6.0666666666667,3.2 7,8 
C 276.16666666667,360.825 271.5,360.825 267.8397,373.478025
 " stroke="rgb(179,127,176)" stroke-linejoin="arcs"  stroke-width="5" fill="rgb(179,127,176)"/><path d="M 270.7923 338.949475 c -10.666666666667,-21 -2.6666666666667,-29.4 -20,-63 
C 270.12563333333,317.424475 262.12563333333,325.824475 269.4,356.625
 " stroke="rgb(179,127,176)" stroke-linejoin="arcs"  stroke-width="5" fill="rgb(179,127,176)"/><path d="M 273.2241 301.328325 c -9.8666666666667,-6.6666666666667 -14.8,-26.666666666667 -37,-50 
C 262.1241,280.91165833333 267.05743333333,300.91165833333 272.0544,320.5008
 " stroke="rgb(179,127,176)" stroke-linejoin="arcs"  stroke-width="5" fill="rgb(179,127,176)"/><path d="M 275.4375 261.009375 c -71.133333333333,-24.8 0,-8.2666666666667 -97,-62 
C 285.1375,260.49270833333 214.00416666667,243.959375 274.3392,281.4814
 " stroke="rgb(179,127,176)" stroke-linejoin="arcs"  stroke-width="5" fill="rgb(179,127,176)"/><path d="M 270.7923 338.949475 c -71.4,-14 -71.4,-11.2 -119,-42 
C 211.2923,332.999475 211.2923,330.199475 269.4,356.625
 " stroke="rgb(179,127,176)" stroke-linejoin="arcs"  stroke-width="5" fill="rgb(179,127,176)"/><path d="M 269.4 356.625 c -14.2,-26.133333333333 -23.666666666667,-26.133333333333 -71,-49 
C 252.83333333333,336.61666666667 262.3,336.61666666667 267.8397,373.478025
 " stroke="rgb(179,127,176)" stroke-linejoin="arcs"  stroke-width="5" fill="rgb(179,127,176)"/><path d="M 270.7923 338.949475 c -36.4,-6.2 -57.2,-12.4 -78,-31 
C 221.3923,330.424475 242.1923,336.624475 269.4,356.625
 " stroke="rgb(179,127,176)" stroke-linejoin="arcs"  stroke-width="5" fill="rgb(179,127,176)"/><polygon 
stroke="rgb(162,186,116)"
fill="rgb(162,186,116)"
stroke-width="60"
stroke-linejoin="round" 
opacity="1"
points="280 , 158 275 , 143 267 , 158 273 , 148 265 , 144 268 , 144 272 , 150 274 , 159 280 , 156 284 , 141 280 , 142 287 , 156 293 , 146 285 , 144 291 , 151 289 , 160 288 , 161 289 , 150 279 , 153 269 , 156 270 , 146 267 , 150 270 , 159 279 , 154 273 , 155 264 , 151 263 , 157 261 , 152 ">
</polygon><polygon 
stroke="rgb(182,206,136)"
fill="rgb(182,206,136)"
stroke-width="60"
stroke-linejoin="round" 
opacity="1"
points="280.7923 , 319.949475 285.7923 , 324.949475 290.7923 , 332.949475 282.7923 , 334.949475 275.7923 , 325.949475 277.7923 , 320.949475 273.7923 , 323.949475 276.7923 , 316.949475 277.7923 , 324.949475 268.7923 , 323.949475 258.7923 , 326.949475 252.7923 , 329.949475 251.7923 , 324.949475 255.7923 , 316.949475 257.7923 , 331.949475 252.7923 , 334.949475 256.7923 , 328.949475 247.7923 , 331.949475 240.7923 , 317.949475 244.7923 , 316.949475 251.7923 , 332.949475 257.7923 , 328.949475 ">
</polygon><polygon 
stroke="rgb(162,186,116)"
fill="rgb(162,186,116)"
stroke-width="80"
stroke-linejoin="round" 
opacity="1"
points="290.7923 , 310.949475 290.7923 , 305.949475 319.7923 , 287.949475 343.7923 , 329.949475 330.7923 , 313.949475 334.7923 , 301.949475 307.7923 , 312.949475 295.7923 , 292.949475 320.7923 , 287.949475 302.7923 , 308.949475 279.7923 , 297.949475 ">
</polygon><polygon 
stroke="rgb(182,206,136)"
fill="rgb(182,206,136)"
stroke-width="80"
stroke-linejoin="round" 
opacity="1"
points="273.7923 , 287.949475 246.7923 , 292.949475 238.7923 , 264.949475 221.7923 , 295.949475 212.7923 , 286.949475 189.7923 , 274.949475 195.7923 , 263.949475 169.7923 , 271.949475 179.7923 , 286.949475 161.7923 , 299.949475 178.7923 , 271.949475 178.7923 , 283.949475 177.7923 , 297.949475 194.7923 , 280.949475 ">
</polygon><polygon 
stroke="rgb(182,206,136)"
fill="rgb(182,206,136)"
stroke-width="70"
stroke-linejoin="round" 
opacity="1"
points="269.7923 , 290.949475 264.7923 , 295.949475 275.7923 , 270.949475 270.7923 , 294.949475 270.7923 , 281.949475 273.7923 , 295.949475 266.7923 , 258.949475 251.7923 , 289.949475 255.7923 , 263.949475 268.7923 , 292.949475 282.7923 , 283.949475 266.7923 , 283.949475 281.7923 , 262.949475 267.7923 , 263.949475 283.7923 , 258.949475 ">
</polygon><polygon 
stroke="rgb(172,196,126)"
fill="rgb(172,196,126)"
stroke-width="70"
stroke-linejoin="round" 
opacity="1"
points="187.4375 , 181.009375 202.4375 , 186.009375 200.4375 , 200.009375 199.4375 , 180.009375 197.4375 , 214.009375 187.4375 , 200.009375 195.4375 , 192.009375 209.4375 , 200.009375 192.4375 , 202.009375 182.4375 , 185.009375 201.4375 , 207.009375 201.4375 , 181.009375 208.4375 , 191.009375 221.4375 , 209.009375 225.4375 , 205.009375 212.4375 , 204.009375 204.4375 , 196.009375 222.4375 , 201.009375 ">
</polygon><polygon 
stroke="rgb(162,186,116)"
fill="rgb(162,186,116)"
stroke-width="60"
stroke-linejoin="round" 
opacity="1"
points="178.4375 , 193.009375 177.4375 , 189.009375 173.4375 , 208.009375 182.4375 , 191.009375 184.4375 , 203.009375 191.4375 , 190.009375 192.4375 , 194.009375 197.4375 , 204.009375 204.4375 , 197.009375 214.4375 , 207.009375 209.4375 , 201.009375 200.4375 , 209.009375 202.4375 , 198.009375 205.4375 , 208.009375 198.4375 , 203.009375 193.4375 , 204.009375 193.4375 , 190.009375 191.4375 , 204.009375 ">
</polygon><polygon 
stroke="rgb(172,196,126)"
fill="rgb(172,196,126)"
stroke-width="70"
stroke-linejoin="round" 
opacity="1"
points="142.7923 , 292.949475 138.7923 , 283.949475 146.7923 , 298.949475 166.7923 , 306.949475 184.7923 , 284.949475 201.7923 , 280.949475 201.7923 , 285.949475 187.7923 , 276.949475 170.7923 , 313.949475 173.7923 , 312.949475 161.7923 , 284.949475 143.7923 , 303.949475 162.7923 , 309.949475 144.7923 , 296.949475 128.7923 , 300.949475 ">
</polygon><polygon 
stroke="rgb(182,206,136)"
fill="rgb(182,206,136)"
stroke-width="60"
stroke-linejoin="round" 
opacity="1"
points="150.7923 , 304.949475 158.7923 , 302.949475 151.7923 , 288.949475 156.7923 , 292.949475 158.7923 , 303.949475 157.7923 , 286.949475 152.7923 , 299.949475 152.7923 , 306.949475 150.7923 , 298.949475 140.7923 , 292.949475 138.7923 , 291.949475 142.7923 , 286.949475 139.7923 , 298.949475 129.7923 , 289.949475 128.7923 , 302.949475 137.7923 , 302.949475 147.7923 , 301.949475 151.7923 , 296.949475 146.7923 , 300.949475 148.7923 , 288.949475 ">
</polygon></svg>