<?xml version="1.0" encoding="iso-8859-1"?>
<svg version="1.1" id="Capa_1" xmlns="http://www.w3.org/2000/svg" xmlns:xlink="http://www.w3.org/1999/xlink" x="0px" y="0px"
viewBox="0 0 500 500" xml:space="preserve"><defs></defs><polygon 
stroke="rgb(85,48,59)"
fill="rgb(85,48,59)"
stroke-width="80"
stroke-linejoin="round" 
opacity="1"
points="219 , 165 223 , 174 252 , 197 272 , 182 262 , 194 271 , 192 266 , 166 237 , 151 227 , 181 240 , 164 231 , 141 229 , 168 229 , 163 ">
</polygon><polygon 
stroke="rgb(95,58,69)"
fill="rgb(95,58,69)"
stroke-width="70"
stroke-linejoin="round" 
opacity="1"
points="255 , 173 266 , 181 254 , 158 237 , 173 248 , 153 233 , 150 238 , 167 223 , 190 211 , 156 207 , 166 210 , 183 213 , 159 220 , 181 209 , 189 221 , 177 216 , 153 222 , 158 203 , 168 215 , 152 217 , 188 ">
</polygon><polygon 
stroke="rgb(85,48,59)"
fill="rgb(85,48,59)"
stroke-width="80"
stroke-linejoin="round" 
opacity="1"
points="168.6096 , 261.584 182.6096 , 211.584 173.6096 , 232.584 156.6096 , 226.584 174.6096 , 225.584 196.6096 , 239.584 195.6096 , 268.584 176.6096 , 211.584 154.6096 , 238.584 156.6096 , 266.584 148.6096 , 249.584 173.6096 , 267.584 185.6096 , 243.584 156.6096 , 253.584 157.6096 , 231.584 143.6096 , 267.584 142.6096 , 252.584 135.6096 , 217.584 139.6096 , 240.584 165.6096 , 235.584 189.6096 , 266.584 188.6096 , 244.584 209.6096 , 215.584 223.6096 , 264.584 214.6096 , 230.584 187.6096 , 270.584 174.6096 , 227.584 175.6096 , 216.584 ">
</polygon><polygon 
stroke="rgb(105,68,79)"
fill="rgb(105,68,79)"
stroke-width="70"
stroke-linejoin="round" 
opacity="1"
points="206.6096 , 230.584 186.6096 , 253.584 190.6096 , 234.584 170.6096 , 233.584 164.6096 , 250.584 164.6096 , 259.584 182.6096 , 251.584 177.6096 , 242.584 180.6096 , 232.584 196.6096 , 224.584 209.6096 , 236.584 206.6096 , 261.584 202.6096 , 253.584 197.6096 , 224.584 198.6096 , 223.584 178.6096 , 239.584 196.6096 , 256.584 178.6096 , 236.584 168.6096 , 233.584 156.6096 , 242.584 149.6096 , 257.584 143.6096 , 243.584 147.6096 , 248.584 ">
</polygon><polygon 
stroke="rgb(95,58,69)"
fill="rgb(95,58,69)"
stroke-width="80"
stroke-linejoin="round" 
opacity="1"
points="346.8831 , 376.949 357.8831 , 399.949 372.8831 , 368.949 366.8831 , 397.949 391.8831 , 365.949 387.8831 , 383.949 404.8831 , 385.949 397.8831 , 350.949 387.8831 , 392.949 361.8831 , 362.949 332.8831 , 402.949 354.8831 , 405.949 341.8831 , 375.949 313.8831 , 404.949 307.8831 , 390.949 303.8831 , 350.949 307.8831 , 398.949 320.8831 , 391.949 299.8831 , 401.949 275.8831 , 358.949 278.8831 , 345.949 256.8831 , 353.949 243.8831 , 353.949 ">
</polygon><polygon 
stroke="rgb(105,68,79)"
fill="rgb(105,68,79)"
stroke-width="70"
stroke-linejoin="round" 
opacity="1"
points="336.8831 , 363.949 341.8831 , 359.949 322.8831 , 365.949 306.8831 , 364.949 304.8831 , 379.949 296.8831 , 386.949 276.8831 , 389.949 260.8831 , 363.949 261.8831 , 392.949 241.8831 , 377.949 226.8831 , 380.949 240.8831 , 371.949 227.8831 , 358.949 221.8831 , 356.949 220.8831 , 363.949 205.8831 , 379.949 221.8831 , 359.949 201.8831 , 356.949 217.8831 , 377.949 216.8831 , 388.949 205.8831 , 390.949 202.8831 , 369.949 186.8831 , 366.949 169.8831 , 376.949 160.8831 , 378.949 146.8831 , 374.949 164.8831 , 390.949 168.8831 , 369.949 180.8831 , 369.949 ">
</polygon><polygon 
stroke="rgb(105,68,79)"
fill="rgb(105,68,79)"
stroke-width="60"
stroke-linejoin="round" 
opacity="1"
points="338.8831 , 369.949 332.8831 , 378.949 338.8831 , 375.949 334.8831 , 385.949 340.8831 , 378.949 350.8831 , 374.949 346.8831 , 367.949 343.8831 , 368.949 343.8831 , 367.949 342.8831 , 366.949 336.8831 , 379.949 ">
</polygon><polygon 
stroke="rgb(85,48,59)"
fill="rgb(85,48,59)"
stroke-width="80"
stroke-linejoin="round" 
opacity="1"
points="250.8232 , 163.248 265.8232 , 156.248 247.8232 , 163.248 222.8232 , 192.248 239.8232 , 202.248 209.8232 , 196.248 215.8232 , 150.248 243.8232 , 163.248 242.8232 , 179.248 230.8232 , 147.248 221.8232 , 185.248 212.8232 , 161.248 209.8232 , 184.248 221.8232 , 205.248 ">
</polygon><polygon 
stroke="rgb(85,48,59)"
fill="rgb(85,48,59)"
stroke-width="70"
stroke-linejoin="round" 
opacity="1"
points="265.8232 , 160.248 269.8232 , 158.248 255.8232 , 155.248 247.8232 , 193.248 266.8232 , 193.248 250.8232 , 187.248 233.8232 , 158.248 247.8232 , 194.248 258.8232 , 191.248 253.8232 , 180.248 238.8232 , 187.248 220.8232 , 160.248 239.8232 , 195.248 259.8232 , 170.248 271.8232 , 171.248 273.8232 , 160.248 288.8232 , 184.248 299.8232 , 163.248 308.8232 , 165.248 315.8232 , 182.248 303.8232 , 186.248 287.8232 , 163.248 273.8232 , 163.248 ">
</polygon><polygon 
stroke="rgb(95,58,69)"
fill="rgb(95,58,69)"
stroke-width="60"
stroke-linejoin="round" 
opacity="1"
points="281.8232 , 180.248 271.8232 , 179.248 267.8232 , 170.248 261.8232 , 179.248 253.8232 , 175.248 248.8232 , 185.248 258.8232 , 178.248 263.8232 , 183.248 258.8232 , 180.248 257.8232 , 167.248 263.8232 , 175.248 263.8232 , 173.248 ">
</polygon><polygon 
stroke="rgb(85,48,59)"
fill="rgb(85,48,59)"
stroke-width="80"
stroke-linejoin="round" 
opacity="1"
points="307.2097 , 342.383 320.2097 , 326.383 318.2097 , 329.383 324.2097 , 322.383 315.2097 , 328.383 323.2097 , 310.383 321.2097 , 322.383 313.2097 , 344.383 299.2097 , 336.383 288.2097 , 322.383 263.2097 , 340.383 251.2097 , 318.383 269.2097 , 294.383 299.2097 , 294.383 313.2097 , 330.383 316.2097 , 294.383 328.2097 , 301.383 325.2097 , 337.383 ">
</polygon><polygon 
stroke="rgb(105,68,79)"
fill="rgb(105,68,79)"
stroke-width="70"
stroke-linejoin="round" 
opacity="1"
points="285.2097 , 310.383 292.2097 , 321.383 285.2097 , 325.383 303.2097 , 301.383 287.2097 , 310.383 289.2097 , 335.383 270.2097 , 323.383 250.2097 , 321.383 234.2097 , 322.383 254.2097 , 301.383 237.2097 , 323.383 246.2097 , 303.383 252.2097 , 319.383 269.2097 , 340.383 249.2097 , 303.383 260.2097 , 328.383 249.2097 , 323.383 231.2097 , 335.383 ">
</polygon><polygon 
stroke="rgb(95,58,69)"
fill="rgb(95,58,69)"
stroke-width="60"
stroke-linejoin="round" 
opacity="1"
points="287.2097 , 329.383 291.2097 , 322.383 285.2097 , 326.383 277.2097 , 317.383 277.2097 , 325.383 284.2097 , 327.383 280.2097 , 314.383 272.2097 , 311.383 271.2097 , 327.383 269.2097 , 321.383 268.2097 , 314.383 259.2097 , 311.383 254.2097 , 326.383 258.2097 , 312.383 261.2097 , 331.383 264.2097 , 321.383 263.2097 , 329.383 262.2097 , 325.383 272.2097 , 317.383 268.2097 , 319.383 278.2097 , 320.383 284.2097 , 311.383 291.2097 , 318.383 284.2097 , 318.383 286.2097 , 322.383 287.2097 , 316.383 287.2097 , 311.383 293.2097 , 317.383 290.2097 , 316.383 280.2097 , 324.383 ">
</polygon><polygon 
stroke="rgb(85,48,59)"
fill="rgb(85,48,59)"
stroke-width="70"
stroke-linejoin="round" 
opacity="1"
points="220.3544 , 242.496 203.3544 , 255.496 205.3544 , 256.496 185.3544 , 249.496 181.3544 , 253.496 179.3544 , 273.496 173.3544 , 251.496 166.3544 , 245.496 185.3544 , 242.496 177.3544 , 245.496 ">
</polygon><polygon 
stroke="rgb(95,58,69)"
fill="rgb(95,58,69)"
stroke-width="60"
stroke-linejoin="round" 
opacity="1"
points="225.3544 , 251.496 225.3544 , 248.496 229.3544 , 246.496 238.3544 , 262.496 229.3544 , 258.496 226.3544 , 253.496 221.3544 , 255.496 213.3544 , 247.496 215.3544 , 252.496 206.3544 , 254.496 213.3544 , 258.496 214.3544 , 251.496 204.3544 , 264.496 213.3544 , 257.496 218.3544 , 251.496 228.3544 , 262.496 238.3544 , 250.496 230.3544 , 247.496 ">
</polygon><polygon 
stroke="rgb(105,68,79)"
fill="rgb(105,68,79)"
stroke-width="80"
stroke-linejoin="round" 
opacity="1"
points="170.8831 , 326.949 175.8831 , 318.949 198.8831 , 350.949 187.8831 , 300.949 202.8831 , 315.949 207.8831 , 335.949 213.8831 , 316.949 219.8831 , 323.949 245.8831 , 342.949 252.8831 , 297.949 249.8831 , 336.949 277.8831 , 339.949 294.8831 , 312.949 280.8831 , 331.949 287.8831 , 329.949 ">
</polygon><polygon 
stroke="rgb(85,48,59)"
fill="rgb(85,48,59)"
stroke-width="70"
stroke-linejoin="round" 
opacity="1"
points="148.8831 , 310.949 153.8831 , 343.949 161.8831 , 303.949 159.8831 , 304.949 147.8831 , 313.949 129.8831 , 339.949 122.8831 , 326.949 113.8831 , 342.949 109.8831 , 310.949 108.8831 , 309.949 118.8831 , 323.949 135.8831 , 341.949 129.8831 , 329.949 141.8831 , 343.949 135.8831 , 330.949 119.8831 , 342.949 118.8831 , 324.949 111.8831 , 333.949 98.8831 , 321.949 114.8831 , 324.949 130.8831 , 330.949 112.8831 , 308.949 106.8831 , 328.949 98.8831 , 326.949 85.8831 , 315.949 85.8831 , 310.949 73.8831 , 319.949 ">
</polygon><polygon 
stroke="rgb(105,68,79)"
fill="rgb(105,68,79)"
stroke-width="60"
stroke-linejoin="round" 
opacity="1"
points="134.8831 , 323.949 131.8831 , 331.949 124.8831 , 330.949 127.8831 , 315.949 127.8831 , 330.949 134.8831 , 330.949 141.8831 , 329.949 150.8831 , 316.949 157.8831 , 332.949 162.8831 , 326.949 168.8831 , 333.949 172.8831 , 331.949 178.8831 , 317.949 169.8831 , 333.949 ">
</polygon><polygon 
stroke="rgb(85,48,59)"
fill="rgb(85,48,59)"
stroke-width="80"
stroke-linejoin="round" 
opacity="1"
points="292.9159 , 216.581 291.9159 , 183.581 288.9159 , 210.581 281.9159 , 183.581 270.9159 , 208.581 265.9159 , 220.581 293.9159 , 220.581 320.9159 , 196.581 307.9159 , 217.581 307.9159 , 207.581 292.9159 , 217.581 274.9159 , 202.581 303.9159 , 230.581 290.9159 , 228.581 273.9159 , 194.581 275.9159 , 187.581 246.9159 , 220.581 ">
</polygon><polygon 
stroke="rgb(95,58,69)"
fill="rgb(95,58,69)"
stroke-width="70"
stroke-linejoin="round" 
opacity="1"
points="308.9159 , 199.581 323.9159 , 226.581 335.9159 , 226.581 349.9159 , 202.581 345.9159 , 202.581 331.9159 , 192.581 312.9159 , 189.581 328.9159 , 187.581 319.9159 , 188.581 322.9159 , 219.581 320.9159 , 222.581 328.9159 , 218.581 309.9159 , 221.581 299.9159 , 210.581 300.9159 , 187.581 294.9159 , 203.581 287.9159 , 199.581 299.9159 , 198.581 308.9159 , 195.581 292.9159 , 192.581 278.9159 , 208.581 272.9159 , 214.581 273.9159 , 204.581 292.9159 , 188.581 272.9159 , 196.581 ">
</polygon><polygon 
stroke="rgb(95,58,69)"
fill="rgb(95,58,69)"
stroke-width="60"
stroke-linejoin="round" 
opacity="1"
points="297.9159 , 203.581 307.9159 , 209.581 306.9159 , 203.581 296.9159 , 214.581 303.9159 , 201.581 294.9159 , 203.581 299.9159 , 209.581 299.9159 , 199.581 303.9159 , 209.581 309.9159 , 214.581 304.9159 , 210.581 ">
</polygon><polygon 
stroke="rgb(85,48,59)"
fill="rgb(85,48,59)"
stroke-width="80"
stroke-linejoin="round" 
opacity="1"
points="288.3544 , 279.496 262.3544 , 293.496 251.3544 , 289.496 266.3544 , 267.496 264.3544 , 309.496 249.3544 , 279.496 237.3544 , 261.496 256.3544 , 285.496 230.3544 , 281.496 255.3544 , 277.496 225.3544 , 274.496 214.3544 , 319.496 203.3544 , 312.496 173.3544 , 298.496 200.3544 , 286.496 215.3544 , 315.496 207.3544 , 299.496 207.3544 , 314.496 222.3544 , 303.496 230.3544 , 300.496 215.3544 , 314.496 208.3544 , 265.496 220.3544 , 271.496 226.3544 , 311.496 230.3544 , 302.496 215.3544 , 306.496 230.3544 , 292.496 216.3544 , 320.496 ">
</polygon><polygon 
stroke="rgb(85,48,59)"
fill="rgb(85,48,59)"
stroke-width="70"
stroke-linejoin="round" 
opacity="1"
points="290.3544 , 277.496 277.3544 , 298.496 261.3544 , 291.496 245.3544 , 304.496 251.3544 , 286.496 240.3544 , 270.496 224.3544 , 271.496 234.3544 , 276.496 221.3544 , 280.496 202.3544 , 284.496 210.3544 , 272.496 198.3544 , 295.496 194.3544 , 309.496 202.3544 , 277.496 209.3544 , 272.496 210.3544 , 272.496 215.3544 , 271.496 208.3544 , 283.496 199.3544 , 307.496 183.3544 , 298.496 201.3544 , 297.496 221.3544 , 290.496 220.3544 , 288.496 225.3544 , 310.496 208.3544 , 293.496 204.3544 , 294.496 205.3544 , 303.496 217.3544 , 292.496 221.3544 , 278.496 210.3544 , 271.496 ">
</polygon><polygon 
stroke="rgb(105,68,79)"
fill="rgb(105,68,79)"
stroke-width="60"
stroke-linejoin="round" 
opacity="1"
points="283.3544 , 281.496 276.3544 , 280.496 279.3544 , 300.496 280.3544 , 287.496 286.3544 , 287.496 285.3544 , 284.496 283.3544 , 293.496 279.3544 , 285.496 276.3544 , 283.496 271.3544 , 287.496 263.3544 , 289.496 255.3544 , 284.496 256.3544 , 285.496 ">
</polygon><polygon 
stroke="rgb(95,58,69)"
fill="rgb(95,58,69)"
stroke-width="80"
stroke-linejoin="round" 
opacity="1"
points="231.4875 , 237.625 205.4875 , 255.625 192.4875 , 241.625 180.4875 , 267.625 204.4875 , 228.625 216.4875 , 241.625 210.4875 , 231.625 233.4875 , 277.625 205.4875 , 238.625 180.4875 , 244.625 184.4875 , 274.625 179.4875 , 254.625 162.4875 , 273.625 142.4875 , 243.625 ">
</polygon><polygon 
stroke="rgb(95,58,69)"
fill="rgb(95,58,69)"
stroke-width="70"
stroke-linejoin="round" 
opacity="1"
points="254.4875 , 249.625 271.4875 , 254.625 265.4875 , 265.625 276.4875 , 254.625 264.4875 , 254.625 247.4875 , 239.625 237.4875 , 263.625 247.4875 , 229.625 252.4875 , 256.625 262.4875 , 250.625 254.4875 , 231.625 265.4875 , 241.625 247.4875 , 253.625 245.4875 , 256.625 245.4875 , 246.625 239.4875 , 236.625 249.4875 , 250.625 242.4875 , 247.625 ">
</polygon><polygon 
stroke="rgb(85,48,59)"
fill="rgb(85,48,59)"
stroke-width="60"
stroke-linejoin="round" 
opacity="1"
points="256.4875 , 237.625 254.4875 , 237.625 253.4875 , 244.625 256.4875 , 240.625 255.4875 , 255.625 262.4875 , 238.625 261.4875 , 247.625 264.4875 , 253.625 264.4875 , 238.625 266.4875 , 254.625 261.4875 , 249.625 266.4875 , 241.625 265.4875 , 248.625 261.4875 , 243.625 255.4875 , 244.625 256.4875 , 257.625 261.4875 , 242.625 ">
</polygon><path d="M 240 480 c 2.4,-62 3.4666666666667,-82.666666666667 4,-310 
C 284.46666666667,424.33333333333 283.4,445 287,480
 " stroke="rgb(99,131,180)" stroke-linejoin="arcs"  stroke-width="5" fill="rgb(99,131,180)"/><path d="M 243.6096 283.584 c -26.6,-8.4 -45.6,-11.2 -57,-42 
C 203.7096,277.634 222.7096,280.434 243.4875,305.625
 " stroke="rgb(99,131,180)" stroke-linejoin="arcs"  stroke-width="5" fill="rgb(99,131,180)"/><path d="M 242.8831 373.949 c 91,0.66666666666667 98,0.26666666666667 105,2 
C 351.3831,374.46566666667 344.3831,374.86566666667 242.7,387
 " stroke="rgb(99,131,180)" stroke-linejoin="arcs"  stroke-width="5" fill="rgb(99,131,180)"/><path d="M 243.8232 232.248 c 9.3333333333333,-19 20.533333333333,-7.6 28,-57 
C 267.15653333333,231.773 255.95653333333,220.373 243.7213,259.187
 " stroke="rgb(99,131,180)" stroke-linejoin="arcs"  stroke-width="5" fill="rgb(99,131,180)"/><path d="M 243.2097 343.383 c 24.666666666667,-8.8 37,-8.8 37,-22 
C 283.9097,337.333 271.57636666667,337.333 243.0528,359.472
 " stroke="rgb(99,131,180)" stroke-linejoin="arcs"  stroke-width="5" fill="rgb(99,131,180)"/><path d="M 243.3544 325.496 c -9.2,-9.4666666666667 -13.8,-9.4666666666667 -23,-71 
C 231.8544,324.90433333333 236.4544,324.90433333333 243.2097,343.383
 " stroke="rgb(99,131,180)" stroke-linejoin="arcs"  stroke-width="5" fill="rgb(99,131,180)"/><path d="M 242.8831 373.949 c -88.4,-13.333333333333 -54.4,-16.666666666667 -102,-50 
C 198.6831,363.53233333333 164.6831,366.86566666667 242.7,387
 " stroke="rgb(99,131,180)" stroke-linejoin="arcs"  stroke-width="5" fill="rgb(99,131,180)"/><path d="M 243.9159 202.581 c 0,2.6666666666667 48,1.3333333333333 48,5 
C 296.7159,204.53933333333 248.7159,205.87266666667 243.8232,232.248
 " stroke="rgb(99,131,180)" stroke-linejoin="arcs"  stroke-width="5" fill="rgb(99,131,180)"/><path d="M 243.3544 325.496 c 8.2666666666667,-4.6666666666667 2.0666666666667,-18.666666666667 31,-35 
C 248.52106666667,311.20433333333 254.72106666667,325.20433333333 243.2097,343.383
 " stroke="rgb(99,131,180)" stroke-linejoin="arcs"  stroke-width="5" fill="rgb(99,131,180)"/><path d="M 243.4875 305.625 c 5.3333333333333,-27.066666666667 4.6666666666667,-11.6 10,-58 
C 249.15416666667,301.275 249.82083333333,285.80833333333 243.3544,325.496
 " stroke="rgb(99,131,180)" stroke-linejoin="arcs"  stroke-width="5" fill="rgb(99,131,180)"/><polygon 
stroke="rgb(105,68,79)"
fill="rgb(105,68,79)"
stroke-width="60"
stroke-linejoin="round" 
opacity="1"
points="240 , 169 233 , 177 230 , 170 229 , 162 234 , 176 241 , 171 246 , 176 251 , 175 258 , 178 250 , 167 254 , 176 252 , 178 242 , 164 238 , 171 237 , 174 242 , 169 245 , 178 247 , 168 ">
</polygon><polygon 
stroke="rgb(105,68,79)"
fill="rgb(105,68,79)"
stroke-width="60"
stroke-linejoin="round" 
opacity="1"
points="177.6096 , 233.584 176.6096 , 237.584 179.6096 , 248.584 180.6096 , 249.584 178.6096 , 250.584 171.6096 , 237.584 178.6096 , 249.584 168.6096 , 242.584 174.6096 , 246.584 168.6096 , 233.584 158.6096 , 235.584 162.6096 , 249.584 168.6096 , 246.584 164.6096 , 245.584 173.6096 , 239.584 ">
</polygon><polygon 
stroke="rgb(105,68,79)"
fill="rgb(105,68,79)"
stroke-width="80"
stroke-linejoin="round" 
opacity="1"
points="245.3544 , 231.496 275.3544 , 225.496 284.3544 , 276.496 260.3544 , 257.496 279.3544 , 249.496 304.3544 , 242.496 294.3544 , 258.496 270.3544 , 272.496 260.3544 , 278.496 284.3544 , 249.496 269.3544 , 254.496 276.3544 , 270.496 261.3544 , 248.496 267.3544 , 235.496 280.3544 , 275.496 280.3544 , 238.496 302.3544 , 260.496 289.3544 , 275.496 273.3544 , 247.496 295.3544 , 232.496 ">
</polygon></svg>