<?xml version="1.0" encoding="iso-8859-1"?>
<svg version="1.1" id="Capa_1" xmlns="http://www.w3.org/2000/svg" xmlns:xlink="http://www.w3.org/1999/xlink" x="0px" y="0px"
viewBox="0 0 500 500" xml:space="preserve"><defs></defs><polygon 
stroke="rgb(107,123,171)"
fill="rgb(107,123,171)"
stroke-width="70"
stroke-linejoin="round" 
opacity="1"
points="268 , 152 279 , 155 273 , 157 273 , 141 263 , 160 252 , 150 241 , 156 252 , 127 264 , 128 271 , 155 257 , 134 264 , 132 269 , 141 249 , 163 261 , 162 272 , 147 261 , 149 268 , 151 281 , 155 273 , 147 289 , 144 290 , 138 302 , 133 ">
</polygon><polygon 
stroke="rgb(107,123,171)"
fill="rgb(107,123,171)"
stroke-width="60"
stroke-linejoin="round" 
opacity="1"
points="252 , 157 256 , 144 246 , 143 241 , 140 237 , 157 237 , 146 227 , 143 225 , 155 222 , 151 219 , 153 221 , 144 220 , 138 230 , 153 233 , 149 242 , 150 233 , 139 223 , 142 229 , 144 239 , 144 231 , 149 221 , 149 220 , 148 226 , 151 232 , 152 227 , 155 ">
</polygon><polygon 
stroke="rgb(127,143,191)"
fill="rgb(127,143,191)"
stroke-width="80"
stroke-linejoin="round" 
opacity="1"
points="160.181 , 117.0712 187.181 , 109.0712 166.181 , 115.0712 149.181 , 102.0712 159.181 , 149.0712 133.181 , 107.0712 140.181 , 134.0712 162.181 , 128.0712 182.181 , 125.0712 186.181 , 114.0712 179.181 , 141.0712 156.181 , 144.0712 175.181 , 133.0712 189.181 , 111.0712 181.181 , 116.0712 211.181 , 140.0712 212.181 , 150.0712 184.181 , 156.0712 210.181 , 157.0712 231.181 , 118.0712 ">
</polygon><polygon 
stroke="rgb(107,123,171)"
fill="rgb(107,123,171)"
stroke-width="70"
stroke-linejoin="round" 
opacity="1"
points="168.181 , 113.0712 186.181 , 141.0712 175.181 , 113.0712 165.181 , 136.0712 159.181 , 142.0712 158.181 , 147.0712 160.181 , 142.0712 174.181 , 135.0712 194.181 , 136.0712 179.181 , 136.0712 160.181 , 116.0712 158.181 , 112.0712 156.181 , 145.0712 175.181 , 129.0712 186.181 , 120.0712 206.181 , 119.0712 189.181 , 146.0712 192.181 , 126.0712 188.181 , 138.0712 205.181 , 151.0712 216.181 , 115.0712 204.181 , 123.0712 210.181 , 132.0712 195.181 , 138.0712 201.181 , 114.0712 ">
</polygon><polygon 
stroke="rgb(107,123,171)"
fill="rgb(107,123,171)"
stroke-width="60"
stroke-linejoin="round" 
opacity="1"
points="180.181 , 142.0712 174.181 , 137.0712 181.181 , 138.0712 178.181 , 135.0712 177.181 , 131.0712 167.181 , 133.0712 170.181 , 141.0712 164.181 , 140.0712 165.181 , 123.0712 155.181 , 141.0712 162.181 , 136.0712 169.181 , 127.0712 174.181 , 140.0712 ">
</polygon><polygon 
stroke="rgb(107,123,171)"
fill="rgb(107,123,171)"
stroke-width="80"
stroke-linejoin="round" 
opacity="1"
points="248.825 , 277.1 245.825 , 316.1 224.825 , 322.1 224.825 , 301.1 213.825 , 277.1 224.825 , 321.1 251.825 , 297.1 238.825 , 317.1 214.825 , 292.1 188.825 , 293.1 197.825 , 308.1 222.825 , 296.1 206.825 , 286.1 187.825 , 285.1 182.825 , 283.1 194.825 , 319.1 189.825 , 309.1 196.825 , 332.1 177.825 , 323.1 194.825 , 297.1 ">
</polygon><polygon 
stroke="rgb(117,133,181)"
fill="rgb(117,133,181)"
stroke-width="70"
stroke-linejoin="round" 
opacity="1"
points="257.825 , 298.1 240.825 , 319.1 244.825 , 288.1 247.825 , 300.1 267.825 , 294.1 249.825 , 294.1 253.825 , 309.1 259.825 , 292.1 241.825 , 317.1 245.825 , 295.1 238.825 , 315.1 247.825 , 302.1 230.825 , 290.1 223.825 , 292.1 238.825 , 309.1 219.825 , 295.1 211.825 , 289.1 208.825 , 310.1 188.825 , 302.1 172.825 , 304.1 170.825 , 301.1 188.825 , 288.1 180.825 , 323.1 165.825 , 298.1 175.825 , 294.1 190.825 , 290.1 185.825 , 306.1 191.825 , 321.1 ">
</polygon><polygon 
stroke="rgb(127,143,191)"
fill="rgb(127,143,191)"
stroke-width="70"
stroke-linejoin="round" 
opacity="1"
points="175.614125 , 148.15115 156.614125 , 155.15115 162.614125 , 165.15115 164.614125 , 157.15115 163.614125 , 164.15115 151.614125 , 172.15115 134.614125 , 152.15115 120.614125 , 143.15115 133.614125 , 157.15115 134.614125 , 155.15115 153.614125 , 161.15115 160.614125 , 148.15115 164.614125 , 143.15115 157.614125 , 140.15115 177.614125 , 143.15115 192.614125 , 169.15115 202.614125 , 173.15115 207.614125 , 164.15115 209.614125 , 137.15115 205.614125 , 137.15115 190.614125 , 169.15115 197.614125 , 167.15115 188.614125 , 151.15115 173.614125 , 175.15115 157.614125 , 161.15115 171.614125 , 172.15115 172.614125 , 161.15115 166.614125 , 172.15115 ">
</polygon><polygon 
stroke="rgb(117,133,181)"
fill="rgb(117,133,181)"
stroke-width="60"
stroke-linejoin="round" 
opacity="1"
points="153.614125 , 148.15115 149.614125 , 156.15115 151.614125 , 157.15115 154.614125 , 150.15115 149.614125 , 157.15115 151.614125 , 150.15115 145.614125 , 159.15115 140.614125 , 161.15115 131.614125 , 164.15115 124.614125 , 153.15115 129.614125 , 162.15115 ">
</polygon><polygon 
stroke="rgb(117,133,181)"
fill="rgb(117,133,181)"
stroke-width="80"
stroke-linejoin="round" 
opacity="1"
points="159.111 , 250.4384 185.111 , 253.4384 173.111 , 249.4384 144.111 , 274.4384 144.111 , 240.4384 137.111 , 260.4384 110.111 , 292.4384 87.111 , 270.4384 76.111 , 242.4384 104.111 , 266.4384 130.111 , 258.4384 157.111 , 291.4384 184.111 , 290.4384 187.111 , 239.4384 179.111 , 289.4384 162.111 , 232.4384 158.111 , 256.4384 146.111 , 233.4384 150.111 , 254.4384 171.111 , 237.4384 166.111 , 237.4384 157.111 , 269.4384 127.111 , 254.4384 101.111 , 261.4384 79.111 , 250.4384 58.111 , 277.4384 ">
</polygon><polygon 
stroke="rgb(107,123,171)"
fill="rgb(107,123,171)"
stroke-width="70"
stroke-linejoin="round" 
opacity="1"
points="141.111 , 257.4384 144.111 , 245.4384 141.111 , 274.4384 127.111 , 262.4384 137.111 , 280.4384 120.111 , 250.4384 119.111 , 264.4384 112.111 , 275.4384 113.111 , 250.4384 129.111 , 268.4384 123.111 , 257.4384 118.111 , 250.4384 127.111 , 268.4384 147.111 , 280.4384 162.111 , 246.4384 174.111 , 258.4384 171.111 , 254.4384 184.111 , 281.4384 186.111 , 269.4384 169.111 , 276.4384 152.111 , 280.4384 170.111 , 273.4384 158.111 , 262.4384 162.111 , 247.4384 157.111 , 274.4384 158.111 , 260.4384 168.111 , 248.4384 185.111 , 262.4384 177.111 , 280.4384 ">
</polygon><polygon 
stroke="rgb(117,133,181)"
fill="rgb(117,133,181)"
stroke-width="60"
stroke-linejoin="round" 
opacity="1"
points="131.111 , 265.4384 123.111 , 264.4384 121.111 , 257.4384 117.111 , 269.4384 125.111 , 266.4384 133.111 , 260.4384 134.111 , 263.4384 130.111 , 258.4384 120.111 , 253.4384 119.111 , 254.4384 110.111 , 264.4384 119.111 , 272.4384 123.111 , 253.4384 120.111 , 266.4384 128.111 , 260.4384 127.111 , 256.4384 129.111 , 255.4384 121.111 , 261.4384 130.111 , 263.4384 126.111 , 260.4384 134.111 , 268.4384 ">
</polygon><polygon 
stroke="rgb(127,143,191)"
fill="rgb(127,143,191)"
stroke-width="80"
stroke-linejoin="round" 
opacity="1"
points="353.614125 , 163.15115 346.614125 , 146.15115 330.614125 , 181.15115 353.614125 , 142.15115 324.614125 , 140.15115 304.614125 , 183.15115 285.614125 , 185.15115 276.614125 , 147.15115 273.614125 , 191.15115 292.614125 , 198.15115 268.614125 , 165.15115 245.614125 , 167.15115 246.614125 , 183.15115 217.614125 , 159.15115 204.614125 , 143.15115 210.614125 , 178.15115 215.614125 , 188.15115 236.614125 , 192.15115 230.614125 , 149.15115 230.614125 , 156.15115 232.614125 , 160.15115 209.614125 , 166.15115 236.614125 , 160.15115 259.614125 , 149.15115 275.614125 , 198.15115 ">
</polygon><polygon 
stroke="rgb(107,123,171)"
fill="rgb(107,123,171)"
stroke-width="70"
stroke-linejoin="round" 
opacity="1"
points="357.614125 , 155.15115 349.614125 , 154.15115 331.614125 , 150.15115 323.614125 , 149.15115 308.614125 , 172.15115 288.614125 , 153.15115 271.614125 , 153.15115 263.614125 , 171.15115 272.614125 , 183.15115 278.614125 , 155.15115 286.614125 , 182.15115 281.614125 , 162.15115 277.614125 , 169.15115 266.614125 , 162.15115 260.614125 , 187.15115 243.614125 , 182.15115 252.614125 , 154.15115 239.614125 , 179.15115 223.614125 , 165.15115 241.614125 , 169.15115 229.614125 , 149.15115 232.614125 , 167.15115 ">
</polygon><polygon 
stroke="rgb(127,143,191)"
fill="rgb(127,143,191)"
stroke-width="80"
stroke-linejoin="round" 
opacity="1"
points="296.393125 , 312.43235 267.393125 , 322.43235 248.393125 , 301.43235 263.393125 , 314.43235 259.393125 , 302.43235 253.393125 , 297.43235 267.393125 , 322.43235 242.393125 , 327.43235 216.393125 , 293.43235 207.393125 , 327.43235 212.393125 , 336.43235 210.393125 , 296.43235 230.393125 , 348.43235 215.393125 , 343.43235 204.393125 , 315.43235 228.393125 , 316.43235 218.393125 , 321.43235 247.393125 , 304.43235 265.393125 , 312.43235 273.393125 , 348.43235 ">
</polygon><polygon 
stroke="rgb(107,123,171)"
fill="rgb(107,123,171)"
stroke-width="80"
stroke-linejoin="round" 
opacity="1"
points="240.181 , 169.0712 220.181 , 123.0712 210.181 , 134.0712 205.181 , 127.0712 212.181 , 157.0712 206.181 , 157.0712 178.181 , 125.0712 197.181 , 146.0712 208.181 , 129.0712 229.181 , 145.0712 241.181 , 143.0712 241.181 , 155.0712 227.181 , 144.0712 212.181 , 159.0712 188.181 , 140.0712 208.181 , 116.0712 202.181 , 123.0712 219.181 , 132.0712 201.181 , 171.0712 217.181 , 132.0712 193.181 , 135.0712 164.181 , 162.0712 143.181 , 151.0712 154.181 , 171.0712 141.181 , 172.0712 130.181 , 138.0712 139.181 , 150.0712 ">
</polygon><polygon 
stroke="rgb(127,143,191)"
fill="rgb(127,143,191)"
stroke-width="70"
stroke-linejoin="round" 
opacity="1"
points="235.181 , 140.0712 236.181 , 145.0712 231.181 , 142.0712 229.181 , 139.0712 248.181 , 158.0712 234.181 , 159.0712 227.181 , 139.0712 214.181 , 142.0712 221.181 , 132.0712 223.181 , 159.0712 230.181 , 132.0712 218.181 , 126.0712 207.181 , 136.0712 204.181 , 161.0712 212.181 , 131.0712 199.181 , 124.0712 ">
</polygon><polygon 
stroke="rgb(127,143,191)"
fill="rgb(127,143,191)"
stroke-width="60"
stroke-linejoin="round" 
opacity="1"
points="220.181 , 140.0712 215.181 , 150.0712 216.181 , 151.0712 226.181 , 149.0712 226.181 , 148.0712 231.181 , 136.0712 223.181 , 136.0712 232.181 , 136.0712 242.181 , 136.0712 233.181 , 153.0712 242.181 , 137.0712 245.181 , 137.0712 250.181 , 153.0712 245.181 , 138.0712 245.181 , 153.0712 246.181 , 149.0712 255.181 , 136.0712 249.181 , 139.0712 246.181 , 134.0712 240.181 , 146.0712 250.181 , 134.0712 258.181 , 153.0712 267.181 , 142.0712 ">
</polygon><polygon 
stroke="rgb(117,133,181)"
fill="rgb(117,133,181)"
stroke-width="80"
stroke-linejoin="round" 
opacity="1"
points="274.665625 , 193.44375 289.665625 , 233.44375 308.665625 , 200.44375 286.665625 , 231.44375 274.665625 , 233.44375 254.665625 , 251.44375 241.665625 , 226.44375 240.665625 , 241.44375 217.665625 , 198.44375 190.665625 , 223.44375 214.665625 , 223.44375 226.665625 , 235.44375 242.665625 , 247.44375 267.665625 , 248.44375 265.665625 , 220.44375 281.665625 , 250.44375 270.665625 , 239.44375 279.665625 , 216.44375 297.665625 , 212.44375 297.665625 , 199.44375 303.665625 , 244.44375 277.665625 , 235.44375 ">
</polygon><polygon 
stroke="rgb(117,133,181)"
fill="rgb(117,133,181)"
stroke-width="70"
stroke-linejoin="round" 
opacity="1"
points="291.665625 , 239.44375 295.665625 , 240.44375 281.665625 , 228.44375 298.665625 , 230.44375 278.665625 , 237.44375 292.665625 , 219.44375 288.665625 , 221.44375 297.665625 , 206.44375 282.665625 , 208.44375 262.665625 , 204.44375 259.665625 , 237.44375 248.665625 , 222.44375 257.665625 , 228.44375 263.665625 , 202.44375 265.665625 , 224.44375 253.665625 , 204.44375 267.665625 , 223.44375 ">
</polygon><polygon 
stroke="rgb(127,143,191)"
fill="rgb(127,143,191)"
stroke-width="80"
stroke-linejoin="round" 
opacity="1"
points="375.614125 , 168.15115 371.614125 , 191.15115 342.614125 , 215.15115 343.614125 , 217.15115 319.614125 , 217.15115 291.614125 , 193.15115 292.614125 , 181.15115 304.614125 , 164.15115 278.614125 , 164.15115 269.614125 , 211.15115 274.614125 , 194.15115 294.614125 , 176.15115 298.614125 , 176.15115 323.614125 , 216.15115 297.614125 , 197.15115 302.614125 , 214.15115 322.614125 , 182.15115 296.614125 , 180.15115 287.614125 , 177.15115 297.614125 , 192.15115 283.614125 , 173.15115 260.614125 , 194.15115 284.614125 , 203.15115 306.614125 , 202.15115 307.614125 , 195.15115 ">
</polygon><polygon 
stroke="rgb(107,123,171)"
fill="rgb(107,123,171)"
stroke-width="70"
stroke-linejoin="round" 
opacity="1"
points="368.614125 , 185.15115 350.614125 , 175.15115 330.614125 , 193.15115 313.614125 , 187.15115 312.614125 , 210.15115 303.614125 , 207.15115 308.614125 , 186.15115 297.614125 , 204.15115 295.614125 , 197.15115 276.614125 , 188.15115 272.614125 , 206.15115 257.614125 , 182.15115 269.614125 , 212.15115 285.614125 , 193.15115 267.614125 , 191.15115 ">
</polygon><polygon 
stroke="rgb(107,123,171)"
fill="rgb(107,123,171)"
stroke-width="60"
stroke-linejoin="round" 
opacity="1"
points="348.614125 , 200.15115 341.614125 , 202.15115 335.614125 , 194.15115 345.614125 , 187.15115 341.614125 , 201.15115 333.614125 , 195.15115 331.614125 , 190.15115 331.614125 , 188.15115 331.614125 , 200.15115 322.614125 , 184.15115 321.614125 , 195.15115 313.614125 , 186.15115 315.614125 , 197.15115 312.614125 , 182.15115 306.614125 , 187.15115 311.614125 , 198.15115 305.614125 , 192.15115 ">
</polygon><path d="M 240 480 c 0.6,-44.4 6.6,-111 9,-333 
C 298.6,390 292.6,456.6 287,480
 " stroke="rgb(155,94,131)" stroke-linejoin="arcs"  stroke-width="5" fill="rgb(155,94,131)"/><path d="M 248.181 209.0712 c -10.4,-10.266666666667 -41.6,-35.933333333333 -78,-77 
C 214.381,182.76286666667 245.581,208.42953333333 247.707375,236.86005
 " stroke="rgb(155,94,131)" stroke-linejoin="arcs"  stroke-width="5" fill="rgb(155,94,131)"/><path d="M 243.825 380.1 c 0,-40 6.5333333333333,-15 7,-75 
C 251.05833333333,374.475 244.525,349.475 243.270375,394.43565
 " stroke="rgb(155,94,131)" stroke-linejoin="arcs"  stroke-width="5" fill="rgb(155,94,131)"/><path d="M 248.614125 179.15115 c -70.4,-8.8 -88,-10.266666666667 -88,-22 
C 169.414125,171.63448333333 187.014125,173.10115 248.181,209.0712
 " stroke="rgb(155,94,131)" stroke-linejoin="arcs"  stroke-width="5" fill="rgb(155,94,131)"/><path d="M 246.111 308.4384 c -96.2,-21.466666666667 -74,-12.266666666667 -111,-46 
C 183.211,301.92173333333 161.011,292.72173333333 245.542875,328.70145
 " stroke="rgb(155,94,131)" stroke-linejoin="arcs"  stroke-width="5" fill="rgb(155,94,131)"/><path d="M 248.614125 179.15115 c 12,-3.6666666666667 48,-2.2 90,-11 
C 305.614125,178.32615 269.614125,176.85948333333 248.181,209.0712
 " stroke="rgb(155,94,131)" stroke-linejoin="arcs"  stroke-width="5" fill="rgb(155,94,131)"/><path d="M 244.393125 364.43235 c 23,-8.6 18.4,-8.6 23,-43 
C 265.093125,361.20735 269.693125,361.20735 243.825,380.1
 " stroke="rgb(155,94,131)" stroke-linejoin="arcs"  stroke-width="5" fill="rgb(155,94,131)"/><path d="M 248.181 209.0712 c 0,-8.8 -30,-30.8 -30,-66 
C 221.181,186.5212 251.181,208.5212 247.707375,236.86005
 " stroke="rgb(155,94,131)" stroke-linejoin="arcs"  stroke-width="5" fill="rgb(155,94,131)"/><path d="M 246.665625 286.44375 c 37.333333333333,-25.6 44.8,-21.333333333333 56,-64 
C 297.065625,273.11041666667 289.59895833333,268.84375 246.111,308.4384
 " stroke="rgb(155,94,131)" stroke-linejoin="arcs"  stroke-width="5" fill="rgb(155,94,131)"/><path d="M 248.614125 179.15115 c 98.933333333333,1.7333333333333 98.933333333333,5.2 106,13 
C 358.14745833333,185.97615 358.14745833333,182.50948333333 248.181,209.0712
 " stroke="rgb(155,94,131)" stroke-linejoin="arcs"  stroke-width="5" fill="rgb(155,94,131)"/><polygon 
stroke="rgb(127,143,191)"
fill="rgb(127,143,191)"
stroke-width="80"
stroke-linejoin="round" 
opacity="1"
points="223 , 140 215 , 119 193 , 122 188 , 136 211 , 130 227 , 143 212 , 137 203 , 149 193 , 160 183 , 156 190 , 129 186 , 135 163 , 142 176 , 164 160 , 157 ">
</polygon><polygon 
stroke="rgb(127,143,191)"
fill="rgb(127,143,191)"
stroke-width="60"
stroke-linejoin="round" 
opacity="1"
points="241.825 , 296.1 245.825 , 301.1 243.825 , 310.1 253.825 , 295.1 260.825 , 295.1 263.825 , 311.1 258.825 , 307.1 260.825 , 314.1 262.825 , 300.1 254.825 , 307.1 260.825 , 309.1 259.825 , 297.1 268.825 , 313.1 274.825 , 297.1 266.825 , 314.1 259.825 , 300.1 261.825 , 299.1 253.825 , 315.1 248.825 , 298.1 252.825 , 298.1 262.825 , 300.1 262.825 , 297.1 254.825 , 297.1 260.825 , 299.1 254.825 , 315.1 244.825 , 296.1 242.825 , 307.1 247.825 , 297.1 248.825 , 299.1 247.825 , 306.1 ">
</polygon><polygon 
stroke="rgb(117,133,181)"
fill="rgb(117,133,181)"
stroke-width="80"
stroke-linejoin="round" 
opacity="1"
points="162.614125 , 186.15115 158.614125 , 158.15115 149.614125 , 129.15115 170.614125 , 135.15115 199.614125 , 139.15115 179.614125 , 161.15115 196.614125 , 162.15115 193.614125 , 160.15115 196.614125 , 131.15115 201.614125 , 166.15115 178.614125 , 128.15115 192.614125 , 138.15115 195.614125 , 144.15115 172.614125 , 147.15115 148.614125 , 149.15115 137.614125 , 133.15115 123.614125 , 181.15115 132.614125 , 185.15115 152.614125 , 129.15115 152.614125 , 175.15115 181.614125 , 163.15115 200.614125 , 132.15115 227.614125 , 131.15115 201.614125 , 153.15115 171.614125 , 182.15115 181.614125 , 136.15115 200.614125 , 183.15115 202.614125 , 173.15115 222.614125 , 140.15115 ">
</polygon><polygon 
stroke="rgb(107,123,171)"
fill="rgb(107,123,171)"
stroke-width="60"
stroke-linejoin="round" 
opacity="1"
points="340.614125 , 171.15115 340.614125 , 171.15115 341.614125 , 177.15115 346.614125 , 176.15115 338.614125 , 171.15115 344.614125 , 168.15115 343.614125 , 159.15115 339.614125 , 176.15115 349.614125 , 162.15115 351.614125 , 160.15115 359.614125 , 177.15115 360.614125 , 168.15115 358.614125 , 162.15115 348.614125 , 171.15115 357.614125 , 173.15115 360.614125 , 169.15115 355.614125 , 166.15115 348.614125 , 174.15115 ">
</polygon><polygon 
stroke="rgb(127,143,191)"
fill="rgb(127,143,191)"
stroke-width="70"
stroke-linejoin="round" 
opacity="1"
points="286.393125 , 339.43235 280.393125 , 328.43235 270.393125 , 312.43235 261.393125 , 326.43235 242.393125 , 319.43235 227.393125 , 306.43235 215.393125 , 315.43235 214.393125 , 332.43235 199.393125 , 306.43235 182.393125 , 321.43235 199.393125 , 341.43235 184.393125 , 341.43235 173.393125 , 316.43235 182.393125 , 310.43235 166.393125 , 326.43235 171.393125 , 327.43235 166.393125 , 320.43235 185.393125 , 315.43235 196.393125 , 336.43235 ">
</polygon><polygon 
stroke="rgb(117,133,181)"
fill="rgb(117,133,181)"
stroke-width="60"
stroke-linejoin="round" 
opacity="1"
points="257.393125 , 320.43235 247.393125 , 315.43235 255.393125 , 316.43235 248.393125 , 327.43235 253.393125 , 318.43235 255.393125 , 329.43235 245.393125 , 317.43235 248.393125 , 311.43235 256.393125 , 324.43235 248.393125 , 326.43235 ">
</polygon><polygon 
stroke="rgb(107,123,171)"
fill="rgb(107,123,171)"
stroke-width="60"
stroke-linejoin="round" 
opacity="1"
points="303.665625 , 218.44375 298.665625 , 220.44375 288.665625 , 223.44375 283.665625 , 219.44375 278.665625 , 230.44375 279.665625 , 228.44375 282.665625 , 228.44375 287.665625 , 215.44375 287.665625 , 217.44375 293.665625 , 227.44375 295.665625 , 228.44375 295.665625 , 218.44375 304.665625 , 225.44375 298.665625 , 227.44375 297.665625 , 222.44375 294.665625 , 230.44375 290.665625 , 213.44375 294.665625 , 214.44375 304.665625 , 224.44375 304.665625 , 231.44375 313.665625 , 212.44375 307.665625 , 212.44375 301.665625 , 212.44375 297.665625 , 212.44375 307.665625 , 232.44375 299.665625 , 226.44375 ">
</polygon></svg>