<?xml version="1.0" encoding="iso-8859-1"?>
<svg version="1.1" id="Capa_1" xmlns="http://www.w3.org/2000/svg" xmlns:xlink="http://www.w3.org/1999/xlink" x="0px" y="0px"
viewBox="0 0 500 500" xml:space="preserve"><defs></defs><polygon 
stroke="rgb(110,184,44)"
fill="rgb(110,184,44)"
stroke-width="80"
stroke-linejoin="round" 
opacity="1"
points="316 , 151 339 , 171 309 , 130 279 , 163 302 , 165 313 , 158 310 , 135 331 , 120 322 , 163 333 , 154 349 , 141 346 , 166 339 , 171 323 , 141 319 , 165 310 , 136 314 , 124 307 , 115 277 , 133 286 , 164 284 , 143 263 , 169 249 , 133 233 , 166 ">
</polygon><polygon 
stroke="rgb(130,204,64)"
fill="rgb(130,204,64)"
stroke-width="70"
stroke-linejoin="round" 
opacity="1"
points="331 , 154 351 , 132 337 , 137 319 , 127 303 , 123 293 , 155 287 , 156 293 , 137 299 , 163 280 , 127 264 , 128 254 , 162 236 , 129 240 , 136 222 , 125 226 , 141 242 , 128 241 , 137 246 , 162 238 , 135 234 , 135 240 , 135 222 , 146 220 , 154 220 , 135 ">
</polygon><polygon 
stroke="rgb(110,184,44)"
fill="rgb(110,184,44)"
stroke-width="80"
stroke-linejoin="round" 
opacity="1"
points="416.1056 , 247.650425 390.1056 , 236.650425 384.1056 , 211.650425 368.1056 , 254.650425 379.1056 , 239.650425 350.1056 , 248.650425 371.1056 , 242.650425 392.1056 , 214.650425 367.1056 , 247.650425 382.1056 , 263.650425 386.1056 , 209.650425 407.1056 , 237.650425 436.1056 , 247.650425 411.1056 , 238.650425 424.1056 , 224.650425 446.1056 , 211.650425 423.1056 , 260.650425 411.1056 , 233.650425 399.1056 , 258.650425 420.1056 , 244.650425 397.1056 , 227.650425 379.1056 , 236.650425 367.1056 , 230.650425 350.1056 , 248.650425 320.1056 , 240.650425 310.1056 , 262.650425 337.1056 , 263.650425 ">
</polygon><polygon 
stroke="rgb(120,194,54)"
fill="rgb(120,194,54)"
stroke-width="60"
stroke-linejoin="round" 
opacity="1"
points="430.1056 , 239.650425 440.1056 , 229.650425 441.1056 , 227.650425 442.1056 , 242.650425 445.1056 , 243.650425 444.1056 , 244.650425 436.1056 , 227.650425 444.1056 , 227.650425 434.1056 , 227.650425 441.1056 , 242.650425 434.1056 , 243.650425 437.1056 , 226.650425 435.1056 , 241.650425 430.1056 , 235.650425 437.1056 , 231.650425 438.1056 , 235.650425 428.1056 , 233.650425 423.1056 , 244.650425 ">
</polygon><polygon 
stroke="rgb(120,194,54)"
fill="rgb(120,194,54)"
stroke-width="80"
stroke-linejoin="round" 
opacity="1"
points="314.9312 , 261.8496 301.9312 , 261.8496 307.9312 , 219.8496 310.9312 , 252.8496 336.9312 , 238.8496 327.9312 , 231.8496 310.9312 , 233.8496 321.9312 , 228.8496 338.9312 , 263.8496 336.9312 , 227.8496 320.9312 , 247.8496 318.9312 , 212.8496 327.9312 , 213.8496 344.9312 , 218.8496 335.9312 , 252.8496 335.9312 , 236.8496 331.9312 , 260.8496 333.9312 , 245.8496 363.9312 , 234.8496 364.9312 , 236.8496 366.9312 , 264.8496 370.9312 , 253.8496 375.9312 , 247.8496 ">
</polygon><polygon 
stroke="rgb(120,194,54)"
fill="rgb(120,194,54)"
stroke-width="70"
stroke-linejoin="round" 
opacity="1"
points="345.9312 , 246.8496 337.9312 , 221.8496 344.9312 , 225.8496 337.9312 , 229.8496 333.9312 , 239.8496 317.9312 , 222.8496 299.9312 , 247.8496 290.9312 , 234.8496 274.9312 , 229.8496 257.9312 , 252.8496 252.9312 , 218.8496 263.9312 , 233.8496 275.9312 , 247.8496 276.9312 , 230.8496 288.9312 , 248.8496 273.9312 , 256.8496 261.9312 , 245.8496 254.9312 , 235.8496 268.9312 , 237.8496 268.9312 , 250.8496 285.9312 , 253.8496 ">
</polygon><polygon 
stroke="rgb(120,194,54)"
fill="rgb(120,194,54)"
stroke-width="60"
stroke-linejoin="round" 
opacity="1"
points="322.9312 , 235.8496 319.9312 , 229.8496 317.9312 , 244.8496 308.9312 , 242.8496 305.9312 , 239.8496 300.9312 , 229.8496 307.9312 , 230.8496 315.9312 , 243.8496 309.9312 , 239.8496 314.9312 , 242.8496 ">
</polygon><polygon 
stroke="rgb(110,184,44)"
fill="rgb(110,184,44)"
stroke-width="80"
stroke-linejoin="round" 
opacity="1"
points="258.2832 , 264.537475 269.2832 , 253.537475 271.2832 , 279.537475 244.2832 , 255.537475 246.2832 , 251.537475 257.2832 , 307.537475 282.2832 , 298.537475 276.2832 , 276.537475 303.2832 , 251.537475 292.2832 , 296.537475 311.2832 , 294.537475 306.2832 , 262.537475 302.2832 , 279.537475 330.2832 , 305.537475 321.2832 , 290.537475 305.2832 , 287.537475 330.2832 , 309.537475 339.2832 , 291.537475 361.2832 , 308.537475 389.2832 , 309.537475 396.2832 , 265.537475 375.2832 , 290.537475 364.2832 , 307.537475 ">
</polygon><polygon 
stroke="rgb(120,194,54)"
fill="rgb(120,194,54)"
stroke-width="70"
stroke-linejoin="round" 
opacity="1"
points="247.2832 , 266.537475 246.2832 , 281.537475 232.2832 , 284.537475 229.2832 , 275.537475 218.2832 , 268.537475 208.2832 , 278.537475 202.2832 , 287.537475 211.2832 , 285.537475 206.2832 , 274.537475 195.2832 , 277.537475 194.2832 , 273.537475 175.2832 , 286.537475 184.2832 , 277.537475 164.2832 , 287.537475 163.2832 , 277.537475 177.2832 , 281.537475 164.2832 , 287.537475 ">
</polygon><polygon 
stroke="rgb(130,204,64)"
fill="rgb(130,204,64)"
stroke-width="60"
stroke-linejoin="round" 
opacity="1"
points="253.2832 , 274.537475 259.2832 , 273.537475 251.2832 , 279.537475 250.2832 , 269.537475 250.2832 , 279.537475 253.2832 , 276.537475 244.2832 , 280.537475 248.2832 , 284.537475 240.2832 , 271.537475 239.2832 , 270.537475 235.2832 , 278.537475 244.2832 , 278.537475 245.2832 , 274.537475 247.2832 , 277.537475 246.2832 , 283.537475 245.2832 , 278.537475 246.2832 , 285.537475 244.2832 , 280.537475 245.2832 , 269.537475 246.2832 , 288.537475 ">
</polygon><polygon 
stroke="rgb(130,204,64)"
fill="rgb(130,204,64)"
stroke-width="80"
stroke-linejoin="round" 
opacity="1"
points="370.6688 , 122.377275 341.6688 , 133.377275 331.6688 , 150.377275 341.6688 , 112.377275 321.6688 , 153.377275 345.6688 , 137.377275 341.6688 , 120.377275 340.6688 , 164.377275 363.6688 , 169.377275 377.6688 , 171.377275 403.6688 , 158.377275 374.6688 , 127.377275 384.6688 , 147.377275 403.6688 , 128.377275 393.6688 , 144.377275 377.6688 , 169.377275 366.6688 , 129.377275 343.6688 , 118.377275 331.6688 , 112.377275 348.6688 , 114.377275 352.6688 , 133.377275 380.6688 , 141.377275 352.6688 , 146.377275 353.6688 , 157.377275 327.6688 , 146.377275 312.6688 , 115.377275 305.6688 , 165.377275 321.6688 , 151.377275 294.6688 , 139.377275 266.6688 , 147.377275 ">
</polygon><polygon 
stroke="rgb(130,204,64)"
fill="rgb(130,204,64)"
stroke-width="70"
stroke-linejoin="round" 
opacity="1"
points="331.6688 , 121.377275 343.6688 , 141.377275 361.6688 , 126.377275 379.6688 , 143.377275 386.6688 , 148.377275 391.6688 , 139.377275 390.6688 , 134.377275 372.6688 , 136.377275 391.6688 , 140.377275 392.6688 , 156.377275 386.6688 , 157.377275 399.6688 , 160.377275 407.6688 , 160.377275 399.6688 , 134.377275 414.6688 , 140.377275 400.6688 , 156.377275 394.6688 , 128.377275 383.6688 , 127.377275 376.6688 , 154.377275 366.6688 , 143.377275 385.6688 , 152.377275 398.6688 , 136.377275 398.6688 , 140.377275 380.6688 , 139.377275 ">
</polygon><polygon 
stroke="rgb(130,204,64)"
fill="rgb(130,204,64)"
stroke-width="60"
stroke-linejoin="round" 
opacity="1"
points="340.6688 , 140.377275 340.6688 , 145.377275 338.6688 , 144.377275 330.6688 , 131.377275 336.6688 , 143.377275 334.6688 , 135.377275 328.6688 , 132.377275 325.6688 , 145.377275 331.6688 , 145.377275 340.6688 , 148.377275 338.6688 , 144.377275 342.6688 , 137.377275 ">
</polygon><polygon 
stroke="rgb(110,184,44)"
fill="rgb(110,184,44)"
stroke-width="80"
stroke-linejoin="round" 
opacity="1"
points="281.2832 , 346.537475 311.2832 , 342.537475 339.2832 , 318.537475 335.2832 , 296.537475 352.2832 , 305.537475 371.2832 , 326.537475 381.2832 , 308.537475 409.2832 , 324.537475 417.2832 , 306.537475 443.2832 , 322.537475 435.2832 , 318.537475 423.2832 , 326.537475 414.2832 , 343.537475 ">
</polygon><polygon 
stroke="rgb(130,204,64)"
fill="rgb(130,204,64)"
stroke-width="70"
stroke-linejoin="round" 
opacity="1"
points="266.2832 , 333.537475 264.2832 , 321.537475 246.2832 , 320.537475 228.2832 , 311.537475 241.2832 , 336.537475 253.2832 , 331.537475 268.2832 , 312.537475 250.2832 , 327.537475 254.2832 , 315.537475 237.2832 , 323.537475 252.2832 , 332.537475 237.2832 , 305.537475 249.2832 , 309.537475 269.2832 , 328.537475 285.2832 , 330.537475 293.2832 , 308.537475 303.2832 , 319.537475 305.2832 , 307.537475 ">
</polygon><polygon 
stroke="rgb(120,194,54)"
fill="rgb(120,194,54)"
stroke-width="60"
stroke-linejoin="round" 
opacity="1"
points="281.2832 , 318.537475 283.2832 , 320.537475 281.2832 , 321.537475 289.2832 , 315.537475 287.2832 , 317.537475 279.2832 , 327.537475 282.2832 , 329.537475 285.2832 , 324.537475 287.2832 , 321.537475 286.2832 , 329.537475 293.2832 , 318.537475 283.2832 , 328.537475 288.2832 , 320.537475 292.2832 , 330.537475 300.2832 , 320.537475 302.2832 , 326.537475 ">
</polygon><polygon 
stroke="rgb(120,194,54)"
fill="rgb(120,194,54)"
stroke-width="70"
stroke-linejoin="round" 
opacity="1"
points="397.1824 , 260.517325 404.1824 , 266.517325 400.1824 , 247.517325 408.1824 , 261.517325 403.1824 , 253.517325 419.1824 , 248.517325 415.1824 , 247.517325 417.1824 , 231.517325 425.1824 , 231.517325 436.1824 , 242.517325 432.1824 , 246.517325 440.1824 , 260.517325 437.1824 , 252.517325 434.1824 , 230.517325 447.1824 , 259.517325 437.1824 , 265.517325 443.1824 , 258.517325 447.1824 , 255.517325 449.1824 , 236.517325 431.1824 , 257.517325 413.1824 , 238.517325 416.1824 , 253.517325 421.1824 , 263.517325 ">
</polygon><polygon 
stroke="rgb(130,204,64)"
fill="rgb(130,204,64)"
stroke-width="60"
stroke-linejoin="round" 
opacity="1"
points="394.1824 , 249.517325 403.1824 , 258.517325 412.1824 , 253.517325 405.1824 , 260.517325 398.1824 , 240.517325 390.1824 , 255.517325 393.1824 , 254.517325 392.1824 , 251.517325 387.1824 , 248.517325 384.1824 , 245.517325 384.1824 , 246.517325 386.1824 , 242.517325 389.1824 , 249.517325 381.1824 , 249.517325 390.1824 , 256.517325 398.1824 , 243.517325 408.1824 , 243.517325 406.1824 , 247.517325 410.1824 , 246.517325 411.1824 , 260.517325 406.1824 , 247.517325 415.1824 , 240.517325 410.1824 , 253.517325 413.1824 , 249.517325 423.1824 , 254.517325 ">
</polygon><polygon 
stroke="rgb(110,184,44)"
fill="rgb(110,184,44)"
stroke-width="80"
stroke-linejoin="round" 
opacity="1"
points="377.9312 , 261.8496 394.9312 , 261.8496 400.9312 , 256.8496 411.9312 , 253.8496 416.9312 , 286.8496 404.9312 , 273.8496 378.9312 , 292.8496 377.9312 , 301.8496 381.9312 , 265.8496 394.9312 , 248.8496 409.9312 , 266.8496 388.9312 , 288.8496 409.9312 , 296.8496 437.9312 , 285.8496 446.9312 , 304.8496 432.9312 , 262.8496 435.9312 , 269.8496 443.9312 , 279.8496 423.9312 , 298.8496 443.9312 , 270.8496 429.9312 , 254.8496 446.9312 , 271.8496 438.9312 , 290.8496 418.9312 , 294.8496 389.9312 , 282.8496 368.9312 , 254.8496 369.9312 , 294.8496 354.9312 , 266.8496 346.9312 , 288.8496 365.9312 , 299.8496 ">
</polygon><polygon 
stroke="rgb(120,194,54)"
fill="rgb(120,194,54)"
stroke-width="70"
stroke-linejoin="round" 
opacity="1"
points="362.9312 , 266.8496 356.9312 , 267.8496 337.9312 , 262.8496 320.9312 , 294.8496 313.9312 , 281.8496 308.9312 , 271.8496 325.9312 , 285.8496 321.9312 , 260.8496 319.9312 , 261.8496 307.9312 , 289.8496 319.9312 , 263.8496 311.9312 , 287.8496 303.9312 , 287.8496 322.9312 , 278.8496 322.9312 , 260.8496 314.9312 , 287.8496 324.9312 , 292.8496 339.9312 , 269.8496 348.9312 , 295.8496 344.9312 , 270.8496 324.9312 , 275.8496 342.9312 , 274.8496 344.9312 , 255.8496 325.9312 , 276.8496 327.9312 , 275.8496 315.9312 , 290.8496 ">
</polygon><polygon 
stroke="rgb(120,194,54)"
fill="rgb(120,194,54)"
stroke-width="60"
stroke-linejoin="round" 
opacity="1"
points="378.9312 , 277.8496 385.9312 , 285.8496 393.9312 , 273.8496 383.9312 , 280.8496 379.9312 , 265.8496 374.9312 , 268.8496 373.9312 , 265.8496 368.9312 , 277.8496 365.9312 , 283.8496 371.9312 , 272.8496 ">
</polygon><polygon 
stroke="rgb(110,184,44)"
fill="rgb(110,184,44)"
stroke-width="80"
stroke-linejoin="round" 
opacity="1"
points="263.6944 , 241.2102 273.6944 , 203.2102 253.6944 , 205.2102 258.6944 , 225.2102 287.6944 , 241.2102 273.6944 , 199.2102 269.6944 , 204.2102 246.6944 , 198.2102 255.6944 , 248.2102 268.6944 , 226.2102 282.6944 , 226.2102 275.6944 , 242.2102 250.6944 , 223.2102 253.6944 , 196.2102 225.6944 , 206.2102 230.6944 , 241.2102 259.6944 , 220.2102 261.6944 , 195.2102 259.6944 , 249.2102 257.6944 , 209.2102 257.6944 , 193.2102 283.6944 , 213.2102 288.6944 , 230.2102 301.6944 , 218.2102 311.6944 , 198.2102 329.6944 , 193.2102 ">
</polygon><polygon 
stroke="rgb(120,194,54)"
fill="rgb(120,194,54)"
stroke-width="80"
stroke-linejoin="round" 
opacity="1"
points="370.9408 , 273.1314 387.9408 , 274.1314 417.9408 , 280.1314 397.9408 , 254.1314 380.9408 , 268.1314 365.9408 , 240.1314 362.9408 , 254.1314 347.9408 , 238.1314 325.9408 , 275.1314 309.9408 , 239.1314 316.9408 , 287.1314 326.9408 , 263.1314 336.9408 , 261.1314 344.9408 , 285.1314 318.9408 , 294.1314 305.9408 , 291.1314 331.9408 , 286.1314 308.9408 , 249.1314 317.9408 , 267.1314 339.9408 , 283.1314 309.9408 , 260.1314 279.9408 , 275.1314 280.9408 , 284.1314 262.9408 , 259.1314 ">
</polygon><polygon 
stroke="rgb(120,194,54)"
fill="rgb(120,194,54)"
stroke-width="70"
stroke-linejoin="round" 
opacity="1"
points="390.9408 , 248.1314 396.9408 , 249.1314 381.9408 , 249.1314 376.9408 , 246.1314 382.9408 , 267.1314 386.9408 , 277.1314 378.9408 , 274.1314 359.9408 , 285.1314 355.9408 , 286.1314 370.9408 , 263.1314 367.9408 , 254.1314 376.9408 , 272.1314 389.9408 , 249.1314 370.9408 , 255.1314 352.9408 , 270.1314 350.9408 , 264.1314 358.9408 , 258.1314 354.9408 , 251.1314 336.9408 , 279.1314 316.9408 , 250.1314 317.9408 , 281.1314 325.9408 , 286.1314 343.9408 , 254.1314 333.9408 , 283.1314 338.9408 , 269.1314 358.9408 , 268.1314 ">
</polygon><path d="M 240 480 c 51.2,-67.4 96,-112.33333333333 96,-337 
C 392,388.66666666667 347.2,433.6 306,480
 " stroke="rgb(119,174,73)" stroke-linejoin="arcs"  stroke-width="5" fill="rgb(119,174,73)"/><path d="M 333.1056 232.650425 c 52.266666666667,1.6 39.2,0.53333333333333 98,4 
C 382.1056,233.68375833333 395.17226666667,234.750425 330.9312,257.8496
 " stroke="rgb(119,174,73)" stroke-linejoin="arcs"  stroke-width="5" fill="rgb(119,174,73)"/><path d="M 330.9312 257.8496 c -0.26666666666667,-10.133333333333 -0.6,-7.6 -1,-19 
C 330.4312,252.6246 330.76453333333,250.09126666667 328.2,280.959375
 " stroke="rgb(119,174,73)" stroke-linejoin="arcs"  stroke-width="5" fill="rgb(119,174,73)"/><path d="M 312.2832 355.537475 c 0,-15.2 -19.666666666667,-10.133333333333 -59,-76 
C 298.51653333333,354.90414166667 318.1832,349.837475 307.2,370.475
 " stroke="rgb(119,174,73)" stroke-linejoin="arcs"  stroke-width="5" fill="rgb(119,174,73)"/><path d="M 335.6688 175.377275 c 1.0666666666667,-11.333333333333 4.2666666666667,-9.0666666666667 8,-34 
C 340.73546666667,170.56060833333 337.53546666667,168.29394166667 334.6944,205.2102
 " stroke="rgb(119,174,73)" stroke-linejoin="arcs"  stroke-width="5" fill="rgb(119,174,73)"/><path d="M 312.2832 355.537475 c -3.6,-18.133333333333 -14.4,-4.5333333333333 -27,-34 
C 300.5832,355.25414166667 311.3832,341.65414166667 307.2,370.475
 " stroke="rgb(119,174,73)" stroke-linejoin="arcs"  stroke-width="5" fill="rgb(119,174,73)"/><path d="M 321.1824 321.517325 c 26.8,-28.4 22.333333333333,-23.666666666667 67,-71 
C 350.21573333333,306.72565833333 354.6824,301.992325 316.9536,339.2688
 " stroke="rgb(119,174,73)" stroke-linejoin="arcs"  stroke-width="5" fill="rgb(119,174,73)"/><path d="M 330.9312 257.8496 c 30,9.6 6,7.2 45,18 
C 341.4312,267.2996 365.4312,269.6996 328.2,280.959375
 " stroke="rgb(119,174,73)" stroke-linejoin="arcs"  stroke-width="5" fill="rgb(119,174,73)"/><path d="M 334.6944 205.2102 c -25.6,8 -12.8,8 -48,15 
C 326.6944,215.0852 313.8944,215.0852 333.1056,232.650425
 " stroke="rgb(119,174,73)" stroke-linejoin="arcs"  stroke-width="5" fill="rgb(119,174,73)"/><path d="M 324.9408 302.1314 c 49.6,-7.2 37.2,-14.4 62,-36 
C 368.3408,292.2314 380.7408,299.4314 321.1824,321.517325
 " stroke="rgb(119,174,73)" stroke-linejoin="arcs"  stroke-width="5" fill="rgb(119,174,73)"/><polygon 
stroke="rgb(130,204,64)"
fill="rgb(130,204,64)"
stroke-width="60"
stroke-linejoin="round" 
opacity="1"
points="327 , 140 334 , 144 336 , 134 329 , 149 324 , 148 331 , 134 328 , 147 329 , 145 336 , 152 343 , 153 336 , 142 343 , 142 343 , 146 344 , 135 335 , 142 336 , 153 345 , 139 ">
</polygon><polygon 
stroke="rgb(130,204,64)"
fill="rgb(130,204,64)"
stroke-width="70"
stroke-linejoin="round" 
opacity="1"
points="435.1056 , 251.650425 423.1056 , 253.650425 408.1056 , 253.650425 424.1056 , 218.650425 425.1056 , 254.650425 438.1056 , 223.650425 418.1056 , 255.650425 412.1056 , 248.650425 403.1056 , 219.650425 393.1056 , 233.650425 378.1056 , 221.650425 392.1056 , 237.650425 380.1056 , 219.650425 362.1056 , 249.650425 358.1056 , 227.650425 377.1056 , 241.650425 374.1056 , 243.650425 359.1056 , 252.650425 366.1056 , 256.650425 ">
</polygon><polygon 
stroke="rgb(130,204,64)"
fill="rgb(130,204,64)"
stroke-width="80"
stroke-linejoin="round" 
opacity="1"
points="376.1824 , 250.517325 356.1824 , 272.517325 359.1824 , 246.517325 386.1824 , 236.517325 395.1824 , 248.517325 424.1824 , 246.517325 421.1824 , 239.517325 421.1824 , 236.517325 406.1824 , 265.517325 399.1824 , 242.517325 403.1824 , 257.517325 430.1824 , 234.517325 443.1824 , 257.517325 444.1824 , 265.517325 443.1824 , 266.517325 438.1824 , 232.517325 444.1824 , 269.517325 424.1824 , 271.517325 407.1824 , 242.517325 436.1824 , 278.517325 437.1824 , 277.517325 427.1824 , 240.517325 427.1824 , 265.517325 447.1824 , 271.517325 422.1824 , 277.517325 ">
</polygon><polygon 
stroke="rgb(110,184,44)"
fill="rgb(110,184,44)"
stroke-width="70"
stroke-linejoin="round" 
opacity="1"
points="287.6944 , 235.2102 304.6944 , 217.2102 284.6944 , 240.2102 285.6944 , 223.2102 267.6944 , 216.2102 253.6944 , 213.2102 242.6944 , 230.2102 237.6944 , 222.2102 242.6944 , 203.2102 226.6944 , 218.2102 233.6944 , 227.2102 218.6944 , 237.2102 210.6944 , 222.2102 191.6944 , 233.2102 188.6944 , 214.2102 181.6944 , 223.2102 183.6944 , 234.2102 193.6944 , 204.2102 195.6944 , 233.2102 186.6944 , 210.2102 185.6944 , 212.2102 ">
</polygon><polygon 
stroke="rgb(110,184,44)"
fill="rgb(110,184,44)"
stroke-width="60"
stroke-linejoin="round" 
opacity="1"
points="295.6944 , 211.2102 285.6944 , 216.2102 276.6944 , 225.2102 279.6944 , 217.2102 285.6944 , 221.2102 278.6944 , 221.2102 286.6944 , 223.2102 282.6944 , 218.2102 289.6944 , 223.2102 288.6944 , 219.2102 294.6944 , 211.2102 287.6944 , 221.2102 297.6944 , 213.2102 299.6944 , 223.2102 301.6944 , 212.2102 292.6944 , 219.2102 297.6944 , 229.2102 301.6944 , 226.2102 301.6944 , 215.2102 293.6944 , 229.2102 295.6944 , 224.2102 288.6944 , 217.2102 289.6944 , 220.2102 297.6944 , 220.2102 292.6944 , 228.2102 291.6944 , 216.2102 ">
</polygon><polygon 
stroke="rgb(120,194,54)"
fill="rgb(120,194,54)"
stroke-width="60"
stroke-linejoin="round" 
opacity="1"
points="390.9408 , 260.1314 383.9408 , 269.1314 383.9408 , 274.1314 382.9408 , 274.1314 375.9408 , 268.1314 379.9408 , 259.1314 375.9408 , 263.1314 378.9408 , 269.1314 382.9408 , 258.1314 379.9408 , 262.1314 386.9408 , 274.1314 376.9408 , 262.1314 380.9408 , 259.1314 370.9408 , 268.1314 364.9408 , 265.1314 362.9408 , 256.1314 364.9408 , 264.1314 355.9408 , 270.1314 365.9408 , 267.1314 362.9408 , 256.1314 ">
</polygon></svg>