<?xml version="1.0" encoding="iso-8859-1"?>
<svg version="1.1" id="Capa_1" xmlns="http://www.w3.org/2000/svg" xmlns:xlink="http://www.w3.org/1999/xlink" x="0px" y="0px"
viewBox="0 0 500 500" xml:space="preserve"><defs></defs><polygon 
stroke="rgb(200,155,66)"
fill="rgb(200,155,66)"
stroke-width="80"
stroke-linejoin="round" 
opacity="1"
points="220 , 120 232 , 169 226 , 124 196 , 155 202 , 162 173 , 143 159 , 125 142 , 124 144 , 122 157 , 122 135 , 118 110 , 159 ">
</polygon><polygon 
stroke="rgb(190,145,56)"
fill="rgb(190,145,56)"
stroke-width="70"
stroke-linejoin="round" 
opacity="1"
points="253 , 163 273 , 141 291 , 153 297 , 154 290 , 149 294 , 145 287 , 163 268 , 164 249 , 133 230 , 161 247 , 136 238 , 148 227 , 124 226 , 150 236 , 132 246 , 134 230 , 143 212 , 132 208 , 138 221 , 156 238 , 139 229 , 135 213 , 143 198 , 133 183 , 164 175 , 150 ">
</polygon><polygon 
stroke="rgb(210,165,76)"
fill="rgb(210,165,76)"
stroke-width="60"
stroke-linejoin="round" 
opacity="1"
points="242 , 139 248 , 150 247 , 145 246 , 134 241 , 147 231 , 138 235 , 137 241 , 141 237 , 145 235 , 144 237 , 139 228 , 143 218 , 141 215 , 142 213 , 151 219 , 135 223 , 151 221 , 153 224 , 137 231 , 144 ">
</polygon><polygon 
stroke="rgb(190,145,56)"
fill="rgb(190,145,56)"
stroke-width="80"
stroke-linejoin="round" 
opacity="1"
points="153.336 , 373.8144 138.336 , 378.8144 168.336 , 368.8144 191.336 , 374.8144 220.336 , 347.8144 202.336 , 386.8144 211.336 , 345.8144 184.336 , 370.8144 174.336 , 387.8144 163.336 , 374.8144 164.336 , 398.8144 158.336 , 390.8144 155.336 , 378.8144 172.336 , 352.8144 193.336 , 343.8144 171.336 , 372.8144 186.336 , 342.8144 170.336 , 373.8144 174.336 , 380.8144 180.336 , 378.8144 170.336 , 397.8144 153.336 , 372.8144 125.336 , 351.8144 104.336 , 362.8144 ">
</polygon><polygon 
stroke="rgb(200,155,66)"
fill="rgb(200,155,66)"
stroke-width="60"
stroke-linejoin="round" 
opacity="1"
points="176.336 , 369.8144 167.336 , 362.8144 174.336 , 371.8144 176.336 , 377.8144 186.336 , 378.8144 186.336 , 360.8144 177.336 , 361.8144 187.336 , 373.8144 191.336 , 359.8144 185.336 , 360.8144 181.336 , 363.8144 184.336 , 368.8144 ">
</polygon><polygon 
stroke="rgb(200,155,66)"
fill="rgb(200,155,66)"
stroke-width="80"
stroke-linejoin="round" 
opacity="1"
points="229.75 , 295.15 258.75 , 306.15 269.75 , 250.15 268.75 , 303.15 265.75 , 275.15 290.75 , 296.15 287.75 , 289.15 260.75 , 279.15 240.75 , 295.15 254.75 , 272.15 271.75 , 266.15 265.75 , 285.15 286.75 , 297.15 293.75 , 257.15 ">
</polygon><polygon 
stroke="rgb(200,155,66)"
fill="rgb(200,155,66)"
stroke-width="70"
stroke-linejoin="round" 
opacity="1"
points="239.75 , 298.15 251.75 , 287.15 238.75 , 280.15 230.75 , 275.15 240.75 , 276.15 224.75 , 260.15 221.75 , 286.15 210.75 , 261.15 194.75 , 273.15 190.75 , 283.15 180.75 , 286.15 194.75 , 278.15 202.75 , 278.15 189.75 , 299.15 187.75 , 296.15 201.75 , 260.15 183.75 , 286.15 190.75 , 285.15 186.75 , 264.15 181.75 , 262.15 199.75 , 266.15 205.75 , 297.15 223.75 , 270.15 208.75 , 271.15 211.75 , 298.15 217.75 , 288.15 237.75 , 262.15 246.75 , 266.15 243.75 , 279.15 ">
</polygon><polygon 
stroke="rgb(200,155,66)"
fill="rgb(200,155,66)"
stroke-width="80"
stroke-linejoin="round" 
opacity="1"
points="154.608 , 269.7712 168.608 , 260.7712 198.608 , 245.7712 194.608 , 256.7712 167.608 , 231.7712 175.608 , 256.7712 145.608 , 245.7712 134.608 , 270.7712 160.608 , 251.7712 181.608 , 251.7712 166.608 , 275.7712 182.608 , 242.7712 206.608 , 229.7712 200.608 , 236.7712 200.608 , 231.7712 192.608 , 263.7712 172.608 , 271.7712 188.608 , 229.7712 165.608 , 275.7712 153.608 , 260.7712 162.608 , 227.7712 184.608 , 269.7712 166.608 , 280.7712 160.608 , 233.7712 176.608 , 280.7712 200.608 , 237.7712 ">
</polygon><polygon 
stroke="rgb(200,155,66)"
fill="rgb(200,155,66)"
stroke-width="70"
stroke-linejoin="round" 
opacity="1"
points="165.608 , 263.7712 149.608 , 268.7712 135.608 , 235.7712 152.608 , 248.7712 156.608 , 240.7712 142.608 , 242.7712 162.608 , 258.7712 180.608 , 251.7712 170.608 , 266.7712 161.608 , 242.7712 178.608 , 271.7712 168.608 , 241.7712 163.608 , 235.7712 166.608 , 273.7712 174.608 , 246.7712 172.608 , 266.7712 182.608 , 261.7712 ">
</polygon><polygon 
stroke="rgb(200,155,66)"
fill="rgb(200,155,66)"
stroke-width="70"
stroke-linejoin="round" 
opacity="1"
points="219 , 345.6 223 , 308.6 218 , 337.6 218 , 329.6 202 , 335.6 186 , 348.6 171 , 323.6 165 , 343.6 164 , 321.6 160 , 311.6 144 , 310.6 124 , 345.6 121 , 319.6 117 , 339.6 133 , 312.6 140 , 337.6 137 , 337.6 131 , 324.6 145 , 340.6 163 , 331.6 183 , 342.6 191 , 325.6 190 , 312.6 197 , 318.6 208 , 330.6 220 , 325.6 234 , 310.6 254 , 337.6 247 , 338.6 ">
</polygon><polygon 
stroke="rgb(190,145,56)"
fill="rgb(190,145,56)"
stroke-width="60"
stroke-linejoin="round" 
opacity="1"
points="237 , 337.6 229 , 323.6 224 , 335.6 232 , 329.6 225 , 331.6 230 , 332.6 228 , 318.6 231 , 332.6 225 , 338.6 224 , 325.6 232 , 320.6 233 , 332.6 230 , 324.6 223 , 330.6 221 , 329.6 215 , 321.6 219 , 327.6 214 , 331.6 218 , 329.6 209 , 320.6 203 , 335.6 201 , 328.6 204 , 335.6 214 , 322.6 210 , 324.6 208 , 335.6 ">
</polygon><polygon 
stroke="rgb(190,145,56)"
fill="rgb(190,145,56)"
stroke-width="70"
stroke-linejoin="round" 
opacity="1"
points="301.182 , 354.5388 311.182 , 369.5388 300.182 , 357.5388 291.182 , 372.5388 287.182 , 339.5388 287.182 , 353.5388 299.182 , 345.5388 299.182 , 372.5388 299.182 , 335.5388 295.182 , 369.5388 277.182 , 365.5388 257.182 , 345.5388 247.182 , 368.5388 252.182 , 354.5388 242.182 , 368.5388 222.182 , 337.5388 222.182 , 369.5388 218.182 , 346.5388 198.182 , 347.5388 198.182 , 340.5388 205.182 , 362.5388 219.182 , 340.5388 ">
</polygon><polygon 
stroke="rgb(210,165,76)"
fill="rgb(210,165,76)"
stroke-width="60"
stroke-linejoin="round" 
opacity="1"
points="292.182 , 360.5388 294.182 , 349.5388 294.182 , 346.5388 290.182 , 350.5388 287.182 , 360.5388 286.182 , 352.5388 277.182 , 349.5388 277.182 , 350.5388 274.182 , 360.5388 271.182 , 352.5388 272.182 , 344.5388 276.182 , 353.5388 270.182 , 349.5388 269.182 , 355.5388 269.182 , 351.5388 275.182 , 358.5388 280.182 , 347.5388 277.182 , 352.5388 270.182 , 362.5388 273.182 , 356.5388 278.182 , 353.5388 274.182 , 351.5388 276.182 , 358.5388 273.182 , 343.5388 ">
</polygon><polygon 
stroke="rgb(200,155,66)"
fill="rgb(200,155,66)"
stroke-width="80"
stroke-linejoin="round" 
opacity="1"
points="270 , 332.6 282 , 334.6 307 , 328.6 296 , 310.6 275 , 317.6 291 , 355.6 315 , 337.6 322 , 325.6 345 , 344.6 342 , 326.6 323 , 307.6 303 , 320.6 274 , 298.6 ">
</polygon><polygon 
stroke="rgb(190,145,56)"
fill="rgb(190,145,56)"
stroke-width="70"
stroke-linejoin="round" 
opacity="1"
points="272 , 321.6 262 , 342.6 269 , 342.6 256 , 312.6 247 , 317.6 243 , 348.6 224 , 341.6 239 , 322.6 255 , 308.6 236 , 348.6 222 , 339.6 214 , 330.6 224 , 328.6 209 , 348.6 213 , 327.6 205 , 348.6 218 , 336.6 210 , 341.6 224 , 339.6 209 , 343.6 228 , 343.6 231 , 325.6 235 , 344.6 233 , 348.6 242 , 320.6 239 , 326.6 253 , 310.6 258 , 313.6 243 , 310.6 ">
</polygon><polygon 
stroke="rgb(200,155,66)"
fill="rgb(200,155,66)"
stroke-width="60"
stroke-linejoin="round" 
opacity="1"
points="272 , 331.6 265 , 330.6 261 , 319.6 260 , 320.6 264 , 332.6 258 , 318.6 252 , 323.6 243 , 327.6 240 , 321.6 236 , 325.6 237 , 318.6 ">
</polygon><polygon 
stroke="rgb(190,145,56)"
fill="rgb(190,145,56)"
stroke-width="70"
stroke-linejoin="round" 
opacity="1"
points="364.106 , 246.9524 372.106 , 260.9524 353.106 , 242.9524 340.106 , 264.9524 350.106 , 237.9524 345.106 , 260.9524 355.106 , 240.9524 370.106 , 247.9524 385.106 , 252.9524 383.106 , 246.9524 379.106 , 248.9524 393.106 , 255.9524 379.106 , 262.9524 377.106 , 264.9524 368.106 , 259.9524 381.106 , 251.9524 384.106 , 239.9524 372.106 , 236.9524 367.106 , 261.9524 358.106 , 260.9524 342.106 , 228.9524 349.106 , 263.9524 340.106 , 258.9524 347.106 , 246.9524 363.106 , 264.9524 375.106 , 247.9524 392.106 , 249.9524 388.106 , 229.9524 392.106 , 241.9524 385.106 , 229.9524 ">
</polygon><polygon 
stroke="rgb(190,145,56)"
fill="rgb(190,145,56)"
stroke-width="60"
stroke-linejoin="round" 
opacity="1"
points="357.106 , 246.9524 361.106 , 249.9524 357.106 , 256.9524 367.106 , 238.9524 365.106 , 239.9524 355.106 , 249.9524 352.106 , 255.9524 362.106 , 240.9524 362.106 , 241.9524 359.106 , 238.9524 364.106 , 239.9524 354.106 , 250.9524 355.106 , 241.9524 349.106 , 257.9524 346.106 , 252.9524 341.106 , 244.9524 349.106 , 243.9524 354.106 , 246.9524 354.106 , 243.9524 352.106 , 249.9524 362.106 , 243.9524 363.106 , 242.9524 371.106 , 240.9524 370.106 , 249.9524 366.106 , 253.9524 364.106 , 257.9524 ">
</polygon><polygon 
stroke="rgb(200,155,66)"
fill="rgb(200,155,66)"
stroke-width="80"
stroke-linejoin="round" 
opacity="1"
points="173.182 , 366.5388 182.182 , 355.5388 183.182 , 368.5388 197.182 , 365.5388 215.182 , 362.5388 229.182 , 371.5388 259.182 , 331.5388 258.182 , 360.5388 269.182 , 355.5388 296.182 , 357.5388 320.182 , 381.5388 295.182 , 369.5388 283.182 , 376.5388 305.182 , 343.5388 333.182 , 328.5388 343.182 , 368.5388 335.182 , 331.5388 315.182 , 356.5388 330.182 , 366.5388 358.182 , 377.5388 382.182 , 345.5388 388.182 , 328.5388 379.182 , 336.5388 381.182 , 338.5388 384.182 , 332.5388 378.182 , 333.5388 362.182 , 339.5388 377.182 , 382.5388 391.182 , 374.5388 ">
</polygon><polygon 
stroke="rgb(190,145,56)"
fill="rgb(190,145,56)"
stroke-width="60"
stroke-linejoin="round" 
opacity="1"
points="188.182 , 357.5388 188.182 , 348.5388 185.182 , 356.5388 194.182 , 361.5388 198.182 , 364.5388 196.182 , 366.5388 191.182 , 354.5388 192.182 , 350.5388 188.182 , 355.5388 185.182 , 363.5388 186.182 , 357.5388 186.182 , 347.5388 185.182 , 354.5388 192.182 , 349.5388 185.182 , 353.5388 175.182 , 361.5388 178.182 , 348.5388 178.182 , 348.5388 176.182 , 366.5388 ">
</polygon><polygon 
stroke="rgb(190,145,56)"
fill="rgb(190,145,56)"
stroke-width="80"
stroke-linejoin="round" 
opacity="1"
points="232.344 , 180.0736 212.344 , 179.0736 203.344 , 182.0736 207.344 , 216.0736 211.344 , 174.0736 218.344 , 167.0736 188.344 , 189.0736 191.344 , 209.0736 176.344 , 207.0736 180.344 , 168.0736 ">
</polygon><polygon 
stroke="rgb(190,145,56)"
fill="rgb(190,145,56)"
stroke-width="70"
stroke-linejoin="round" 
opacity="1"
points="231.344 , 177.0736 212.344 , 178.0736 215.344 , 197.0736 197.344 , 197.0736 190.344 , 170.0736 187.344 , 176.0736 173.344 , 205.0736 172.344 , 191.0736 173.344 , 174.0736 180.344 , 180.0736 190.344 , 192.0736 195.344 , 191.0736 193.344 , 178.0736 213.344 , 175.0736 212.344 , 177.0736 232.344 , 176.0736 241.344 , 199.0736 ">
</polygon><path d="M 240 480 c 8,-44.8 5.3333333333333,-89.6 8,-336 
C 297.33333333333,418.4 300,463.2 280,480
 " stroke="rgb(65,153,162)" stroke-linejoin="arcs"  stroke-width="5" fill="rgb(65,153,162)"/><path d="M 246.336 355.8144 c -13.8,4.3333333333333 -55.2,1.7333333333333 -69,13 
C 198.036,359.17273333333 239.436,361.77273333333 246.182,372.5388
 " stroke="rgb(65,153,162)" stroke-linejoin="arcs"  stroke-width="5" fill="rgb(65,153,162)"/><path d="M 246.75 294.15 c -0.6,-5.6 -0.8,-4.6666666666667 -1,-14 
C 246.05,291.23333333333 246.25,290.3 246.608,316.7712
 " stroke="rgb(65,153,162)" stroke-linejoin="arcs"  stroke-width="5" fill="rgb(65,153,162)"/><path d="M 246.608 316.7712 c -21.6,-25.2 -70.2,-29.4 -81,-63 
C 184.508,295.2462 233.108,299.4462 246.474,337.2756
 " stroke="rgb(65,153,162)" stroke-linejoin="arcs"  stroke-width="5" fill="rgb(65,153,162)"/><path d="M 246 387.6 c -1,-31.466666666667 -10,-7.8666666666667 -15,-59 
C 237.5,387.10833333333 246.5,363.50833333333 245.778,401.1492
 " stroke="rgb(65,153,162)" stroke-linejoin="arcs"  stroke-width="5" fill="rgb(65,153,162)"/><path d="M 246.182 372.5388 c 32,-2.5333333333333 26.666666666667,-8.8666666666667 40,-19 
C 276.84866666667,366.04713333333 282.182,372.38046666667 246,387.6
 " stroke="rgb(65,153,162)" stroke-linejoin="arcs"  stroke-width="5" fill="rgb(65,153,162)"/><path d="M 246 387.6 c 15.2,-15.733333333333 1.2666666666667,-23.6 19,-59 
C 249.16666666667,371.375 263.1,379.24166666667 245.778,401.1492
 " stroke="rgb(65,153,162)" stroke-linejoin="arcs"  stroke-width="5" fill="rgb(65,153,162)"/><path d="M 247.106 241.9524 c 26.666666666667,0.93333333333333 40,2.8 100,7 
C 297.106,245.6274 283.77266666667,243.76073333333 246.912,269.2608
 " stroke="rgb(65,153,162)" stroke-linejoin="arcs"  stroke-width="5" fill="rgb(65,153,162)"/><path d="M 246.182 372.5388 c -56.933333333333,-5.3333333333333 -56.933333333333,-4.2666666666667 -61,-16 
C 195.34866666667,370.27213333333 195.34866666667,369.20546666667 246,387.6
 " stroke="rgb(65,153,162)" stroke-linejoin="arcs"  stroke-width="5" fill="rgb(65,153,162)"/><path d="M 247.344 212.0736 c -0.93333333333333,-5 -0.66666666666667,-3.3333333333333 -1,-25 
C 246.77733333333,211.86526666667 246.51066666667,210.1986 247.106,241.9524
 " stroke="rgb(65,153,162)" stroke-linejoin="arcs"  stroke-width="5" fill="rgb(65,153,162)"/><polygon 
stroke="rgb(190,145,56)"
fill="rgb(190,145,56)"
stroke-width="70"
stroke-linejoin="round" 
opacity="1"
points="167.336 , 353.8144 155.336 , 364.8144 164.336 , 352.8144 156.336 , 377.8144 176.336 , 365.8144 183.336 , 382.8144 176.336 , 351.8144 192.336 , 356.8144 180.336 , 377.8144 199.336 , 378.8144 203.336 , 355.8144 188.336 , 357.8144 196.336 , 354.8144 184.336 , 369.8144 184.336 , 371.8144 191.336 , 361.8144 179.336 , 348.8144 173.336 , 382.8144 159.336 , 375.8144 141.336 , 366.8144 129.336 , 360.8144 111.336 , 374.8144 97.336 , 364.8144 90.336 , 353.8144 104.336 , 381.8144 122.336 , 380.8144 116.336 , 358.8144 ">
</polygon><polygon 
stroke="rgb(210,165,76)"
fill="rgb(210,165,76)"
stroke-width="60"
stroke-linejoin="round" 
opacity="1"
points="253.75 , 275.15 246.75 , 283.15 244.75 , 280.15 251.75 , 274.15 259.75 , 285.15 267.75 , 290.15 273.75 , 289.15 263.75 , 282.15 268.75 , 289.15 274.75 , 273.15 265.75 , 286.15 262.75 , 274.15 261.75 , 272.15 252.75 , 271.15 258.75 , 282.15 267.75 , 276.15 272.75 , 275.15 267.75 , 276.15 257.75 , 277.15 261.75 , 270.15 260.75 , 278.15 253.75 , 284.15 ">
</polygon><polygon 
stroke="rgb(190,145,56)"
fill="rgb(190,145,56)"
stroke-width="60"
stroke-linejoin="round" 
opacity="1"
points="175.608 , 262.7712 175.608 , 258.7712 175.608 , 245.7712 184.608 , 243.7712 190.608 , 257.7712 198.608 , 255.7712 190.608 , 251.7712 183.608 , 256.7712 193.608 , 263.7712 201.608 , 243.7712 197.608 , 261.7712 196.608 , 259.7712 197.608 , 263.7712 203.608 , 251.7712 211.608 , 249.7712 211.608 , 246.7712 ">
</polygon><polygon 
stroke="rgb(210,165,76)"
fill="rgb(210,165,76)"
stroke-width="80"
stroke-linejoin="round" 
opacity="1"
points="218 , 341.6 218 , 349.6 207 , 323.6 211 , 334.6 209 , 329.6 238 , 313.6 219 , 353.6 241 , 356.6 241 , 325.6 233 , 354.6 260 , 319.6 251 , 346.6 243 , 352.6 218 , 339.6 246 , 335.6 242 , 358.6 267 , 355.6 284 , 307.6 300 , 341.6 315 , 338.6 290 , 321.6 305 , 350.6 319 , 338.6 345 , 349.6 357 , 354.6 381 , 324.6 384 , 337.6 403 , 349.6 393 , 333.6 ">
</polygon><polygon 
stroke="rgb(200,155,66)"
fill="rgb(200,155,66)"
stroke-width="80"
stroke-linejoin="round" 
opacity="1"
points="283.182 , 353.5388 309.182 , 324.5388 304.182 , 331.5388 323.182 , 382.5388 342.182 , 373.5388 341.182 , 373.5388 331.182 , 365.5388 360.182 , 332.5388 375.182 , 380.5388 354.182 , 327.5388 381.182 , 383.5388 357.182 , 351.5388 333.182 , 362.5388 354.182 , 336.5388 347.182 , 345.5388 346.182 , 375.5388 360.182 , 374.5388 335.182 , 328.5388 348.182 , 349.5388 338.182 , 353.5388 343.182 , 371.5388 346.182 , 370.5388 335.182 , 325.5388 362.182 , 346.5388 368.182 , 334.5388 ">
</polygon><polygon 
stroke="rgb(200,155,66)"
fill="rgb(200,155,66)"
stroke-width="80"
stroke-linejoin="round" 
opacity="1"
points="346.106 , 246.9524 369.106 , 238.9524 381.106 , 258.9524 372.106 , 229.9524 360.106 , 247.9524 382.106 , 249.9524 370.106 , 225.9524 395.106 , 228.9524 399.106 , 218.9524 429.106 , 265.9524 449.106 , 236.9524 440.106 , 236.9524 419.106 , 247.9524 446.106 , 229.9524 430.106 , 241.9524 437.106 , 239.9524 442.106 , 265.9524 446.106 , 230.9524 423.106 , 227.9524 419.106 , 219.9524 407.106 , 238.9524 432.106 , 278.9524 425.106 , 223.9524 422.106 , 232.9524 425.106 , 251.9524 ">
</polygon><polygon 
stroke="rgb(190,145,56)"
fill="rgb(190,145,56)"
stroke-width="70"
stroke-linejoin="round" 
opacity="1"
points="187.182 , 371.5388 188.182 , 368.5388 173.182 , 350.5388 176.182 , 355.5388 193.182 , 356.5388 189.182 , 360.5388 174.182 , 364.5388 193.182 , 355.5388 189.182 , 346.5388 183.182 , 370.5388 203.182 , 370.5388 200.182 , 337.5388 192.182 , 376.5388 182.182 , 353.5388 201.182 , 368.5388 ">
</polygon><polygon 
stroke="rgb(190,145,56)"
fill="rgb(190,145,56)"
stroke-width="60"
stroke-linejoin="round" 
opacity="1"
points="236.344 , 196.0736 233.344 , 196.0736 227.344 , 196.0736 228.344 , 183.0736 223.344 , 177.0736 228.344 , 181.0736 235.344 , 195.0736 235.344 , 195.0736 235.344 , 183.0736 244.344 , 196.0736 245.344 , 191.0736 249.344 , 184.0736 255.344 , 187.0736 250.344 , 190.0736 246.344 , 196.0736 237.344 , 196.0736 243.344 , 193.0736 244.344 , 183.0736 237.344 , 192.0736 237.344 , 195.0736 239.344 , 178.0736 231.344 , 181.0736 241.344 , 182.0736 236.344 , 184.0736 244.344 , 184.0736 245.344 , 186.0736 247.344 , 178.0736 237.344 , 185.0736 233.344 , 177.0736 ">
</polygon></svg>