<?xml version="1.0" encoding="iso-8859-1"?>
<svg version="1.1" id="Capa_1" xmlns="http://www.w3.org/2000/svg" xmlns:xlink="http://www.w3.org/1999/xlink" x="0px" y="0px"
viewBox="0 0 500 500" xml:space="preserve"><defs></defs><polygon 
stroke="rgb(110,180,117)"
fill="rgb(110,180,117)"
stroke-width="80"
stroke-linejoin="round" 
opacity="1"
points="229 , 182 199 , 168 224 , 150 214 , 171 206 , 158 211 , 189 210 , 190 228 , 186 202 , 164 176 , 176 150 , 161 ">
</polygon><polygon 
stroke="rgb(100,170,107)"
fill="rgb(100,170,107)"
stroke-width="70"
stroke-linejoin="round" 
opacity="1"
points="264 , 181 284 , 180 279 , 182 279 , 162 280 , 164 272 , 161 290 , 182 276 , 199 283 , 184 266 , 173 266 , 178 283 , 184 270 , 179 ">
</polygon><polygon 
stroke="rgb(110,180,117)"
fill="rgb(110,180,117)"
stroke-width="60"
stroke-linejoin="round" 
opacity="1"
points="254 , 182 264 , 184 263 , 179 273 , 176 275 , 188 265 , 181 263 , 176 257 , 179 250 , 170 259 , 179 264 , 173 268 , 173 278 , 177 287 , 178 281 , 178 280 , 175 270 , 187 273 , 178 277 , 176 271 , 184 280 , 178 270 , 173 270 , 173 275 , 172 272 , 180 267 , 179 264 , 175 259 , 183 ">
</polygon><polygon 
stroke="rgb(100,170,107)"
fill="rgb(100,170,107)"
stroke-width="80"
stroke-linejoin="round" 
opacity="1"
points="140.768225 , 362.2088 144.768225 , 339.2088 139.768225 , 369.2088 164.768225 , 341.2088 192.768225 , 375.2088 195.768225 , 359.2088 210.768225 , 360.2088 187.768225 , 341.2088 208.768225 , 376.2088 217.768225 , 382.2088 211.768225 , 365.2088 218.768225 , 383.2088 201.768225 , 341.2088 217.768225 , 343.2088 245.768225 , 373.2088 259.768225 , 395.2088 ">
</polygon><polygon 
stroke="rgb(110,180,117)"
fill="rgb(110,180,117)"
stroke-width="60"
stroke-linejoin="round" 
opacity="1"
points="157.768225 , 355.2088 164.768225 , 357.2088 171.768225 , 374.2088 167.768225 , 361.2088 171.768225 , 366.2088 163.768225 , 357.2088 154.768225 , 360.2088 159.768225 , 360.2088 155.768225 , 362.2088 149.768225 , 355.2088 146.768225 , 363.2088 150.768225 , 367.2088 152.768225 , 363.2088 154.768225 , 367.2088 162.768225 , 366.2088 155.768225 , 360.2088 163.768225 , 371.2088 163.768225 , 371.2088 157.768225 , 360.2088 163.768225 , 363.2088 158.768225 , 366.2088 162.768225 , 371.2088 164.768225 , 372.2088 ">
</polygon><polygon 
stroke="rgb(100,170,107)"
fill="rgb(100,170,107)"
stroke-width="80"
stroke-linejoin="round" 
opacity="1"
points="163.768225 , 367.2088 151.768225 , 345.2088 165.768225 , 338.2088 167.768225 , 348.2088 197.768225 , 333.2088 227.768225 , 364.2088 218.768225 , 372.2088 231.768225 , 380.2088 261.768225 , 346.2088 244.768225 , 354.2088 236.768225 , 321.2088 217.768225 , 375.2088 241.768225 , 345.2088 254.768225 , 373.2088 264.768225 , 374.2088 269.768225 , 347.2088 272.768225 , 369.2088 245.768225 , 332.2088 250.768225 , 342.2088 245.768225 , 346.2088 249.768225 , 369.2088 257.768225 , 368.2088 257.768225 , 373.2088 287.768225 , 377.2088 283.768225 , 355.2088 305.768225 , 357.2088 ">
</polygon><polygon 
stroke="rgb(110,180,117)"
fill="rgb(110,180,117)"
stroke-width="70"
stroke-linejoin="round" 
opacity="1"
points="163.768225 , 355.2088 155.768225 , 368.2088 135.768225 , 368.2088 137.768225 , 360.2088 157.768225 , 362.2088 152.768225 , 341.2088 165.768225 , 337.2088 161.768225 , 357.2088 172.768225 , 362.2088 181.768225 , 343.2088 200.768225 , 352.2088 195.768225 , 347.2088 177.768225 , 347.2088 185.768225 , 370.2088 175.768225 , 370.2088 162.768225 , 340.2088 178.768225 , 346.2088 158.768225 , 350.2088 158.768225 , 338.2088 178.768225 , 358.2088 183.768225 , 366.2088 194.768225 , 336.2088 196.768225 , 346.2088 207.768225 , 330.2088 193.768225 , 347.2088 209.768225 , 334.2088 214.768225 , 349.2088 219.768225 , 360.2088 218.768225 , 369.2088 ">
</polygon><polygon 
stroke="rgb(100,170,107)"
fill="rgb(100,170,107)"
stroke-width="80"
stroke-linejoin="round" 
opacity="1"
points="386.3616 , 218.5808 387.3616 , 213.5808 373.3616 , 188.5808 354.3616 , 193.5808 344.3616 , 179.5808 319.3616 , 203.5808 312.3616 , 209.5808 288.3616 , 210.5808 295.3616 , 189.5808 273.3616 , 197.5808 299.3616 , 207.5808 271.3616 , 212.5808 270.3616 , 184.5808 244.3616 , 239.5808 216.3616 , 185.5808 191.3616 , 233.5808 176.3616 , 235.5808 185.3616 , 186.5808 186.3616 , 204.5808 189.3616 , 211.5808 166.3616 , 198.5808 167.3616 , 190.5808 151.3616 , 237.5808 138.3616 , 187.5808 136.3616 , 224.5808 134.3616 , 220.5808 116.3616 , 220.5808 119.3616 , 215.5808 116.3616 , 235.5808 93.3616 , 182.5808 ">
</polygon><polygon 
stroke="rgb(90,160,97)"
fill="rgb(90,160,97)"
stroke-width="70"
stroke-linejoin="round" 
opacity="1"
points="342.3616 , 221.5808 332.3616 , 189.5808 331.3616 , 213.5808 319.3616 , 200.5808 299.3616 , 210.5808 317.3616 , 226.5808 312.3616 , 197.5808 293.3616 , 203.5808 274.3616 , 201.5808 273.3616 , 190.5808 273.3616 , 223.5808 292.3616 , 217.5808 280.3616 , 220.5808 293.3616 , 218.5808 313.3616 , 201.5808 330.3616 , 207.5808 320.3616 , 191.5808 336.3616 , 224.5808 344.3616 , 226.5808 341.3616 , 201.5808 321.3616 , 203.5808 336.3616 , 205.5808 356.3616 , 220.5808 342.3616 , 225.5808 327.3616 , 218.5808 ">
</polygon><polygon 
stroke="rgb(100,170,107)"
fill="rgb(100,170,107)"
stroke-width="60"
stroke-linejoin="round" 
opacity="1"
points="366.3616 , 217.5808 367.3616 , 203.5808 377.3616 , 204.5808 370.3616 , 206.5808 362.3616 , 203.5808 355.3616 , 206.5808 357.3616 , 202.5808 363.3616 , 213.5808 365.3616 , 218.5808 356.3616 , 201.5808 352.3616 , 202.5808 357.3616 , 206.5808 351.3616 , 219.5808 360.3616 , 209.5808 365.3616 , 204.5808 371.3616 , 199.5808 363.3616 , 202.5808 369.3616 , 210.5808 361.3616 , 201.5808 368.3616 , 214.5808 ">
</polygon><polygon 
stroke="rgb(110,180,117)"
fill="rgb(110,180,117)"
stroke-width="80"
stroke-linejoin="round" 
opacity="1"
points="366.1408 , 321.8544 351.1408 , 318.8544 342.1408 , 322.8544 371.1408 , 278.8544 398.1408 , 305.8544 385.1408 , 307.8544 410.1408 , 319.8544 437.1408 , 283.8544 444.1408 , 293.8544 449.1408 , 284.8544 441.1408 , 285.8544 436.1408 , 321.8544 442.1408 , 322.8544 443.1408 , 297.8544 447.1408 , 301.8544 447.1408 , 276.8544 439.1408 , 319.8544 416.1408 , 285.8544 446.1408 , 295.8544 ">
</polygon><polygon 
stroke="rgb(100,170,107)"
fill="rgb(100,170,107)"
stroke-width="60"
stroke-linejoin="round" 
opacity="1"
points="371.1408 , 295.8544 380.1408 , 296.8544 388.1408 , 310.8544 397.1408 , 303.8544 393.1408 , 296.8544 383.1408 , 295.8544 380.1408 , 309.8544 390.1408 , 302.8544 383.1408 , 302.8544 383.1408 , 307.8544 382.1408 , 310.8544 379.1408 , 301.8544 369.1408 , 301.8544 359.1408 , 303.8544 352.1408 , 292.8544 362.1408 , 293.8544 354.1408 , 308.8544 353.1408 , 301.8544 349.1408 , 298.8544 359.1408 , 301.8544 367.1408 , 306.8544 377.1408 , 307.8544 376.1408 , 311.8544 ">
</polygon><polygon 
stroke="rgb(100,170,107)"
fill="rgb(100,170,107)"
stroke-width="80"
stroke-linejoin="round" 
opacity="1"
points="153.583675 , 263.9924 141.583675 , 262.9924 121.583675 , 258.9924 117.583675 , 215.9924 131.583675 , 208.9924 149.583675 , 217.9924 150.583675 , 240.9924 170.583675 , 261.9924 169.583675 , 231.9924 189.583675 , 225.9924 188.583675 , 218.9924 ">
</polygon><polygon 
stroke="rgb(100,170,107)"
fill="rgb(100,170,107)"
stroke-width="70"
stroke-linejoin="round" 
opacity="1"
points="119.583675 , 221.9924 134.583675 , 249.9924 153.583675 , 237.9924 173.583675 , 227.9924 184.583675 , 246.9924 191.583675 , 215.9924 172.583675 , 249.9924 160.583675 , 231.9924 166.583675 , 253.9924 147.583675 , 227.9924 164.583675 , 247.9924 170.583675 , 228.9924 187.583675 , 253.9924 202.583675 , 246.9924 195.583675 , 214.9924 215.583675 , 231.9924 214.583675 , 219.9924 205.583675 , 248.9924 206.583675 , 216.9924 205.583675 , 224.9924 218.583675 , 238.9924 223.583675 , 223.9924 242.583675 , 213.9924 252.583675 , 243.9924 268.583675 , 234.9924 278.583675 , 239.9924 264.583675 , 215.9924 277.583675 , 229.9924 269.583675 , 226.9924 ">
</polygon><polygon 
stroke="rgb(90,160,97)"
fill="rgb(90,160,97)"
stroke-width="60"
stroke-linejoin="round" 
opacity="1"
points="136.583675 , 229.9924 134.583675 , 233.9924 130.583675 , 230.9924 126.583675 , 236.9924 134.583675 , 230.9924 141.583675 , 223.9924 143.583675 , 230.9924 153.583675 , 223.9924 143.583675 , 229.9924 150.583675 , 234.9924 143.583675 , 237.9924 133.583675 , 234.9924 138.583675 , 243.9924 129.583675 , 226.9924 129.583675 , 235.9924 130.583675 , 225.9924 137.583675 , 239.9924 135.583675 , 241.9924 136.583675 , 235.9924 128.583675 , 234.9924 118.583675 , 226.9924 ">
</polygon><polygon 
stroke="rgb(110,180,117)"
fill="rgb(110,180,117)"
stroke-width="80"
stroke-linejoin="round" 
opacity="1"
points="311.489575 , 248.1756 316.489575 , 271.1756 291.489575 , 282.1756 267.489575 , 273.1756 264.489575 , 285.1756 241.489575 , 295.1756 230.489575 , 261.1756 214.489575 , 249.1756 201.489575 , 296.1756 175.489575 , 275.1756 168.489575 , 294.1756 197.489575 , 278.1756 205.489575 , 274.1756 197.489575 , 248.1756 213.489575 , 259.1756 200.489575 , 244.1756 184.489575 , 292.1756 190.489575 , 261.1756 218.489575 , 272.1756 233.489575 , 288.1756 261.489575 , 244.1756 267.489575 , 301.1756 267.489575 , 242.1756 296.489575 , 293.1756 309.489575 , 273.1756 294.489575 , 269.1756 301.489575 , 291.1756 285.489575 , 281.1756 275.489575 , 247.1756 301.489575 , 249.1756 ">
</polygon><polygon 
stroke="rgb(100,170,107)"
fill="rgb(100,170,107)"
stroke-width="70"
stroke-linejoin="round" 
opacity="1"
points="332.489575 , 257.1756 324.489575 , 271.1756 321.489575 , 289.1756 314.489575 , 285.1756 311.489575 , 261.1756 327.489575 , 290.1756 330.489575 , 284.1756 347.489575 , 251.1756 358.489575 , 277.1756 357.489575 , 263.1756 345.489575 , 254.1756 334.489575 , 270.1756 315.489575 , 270.1756 318.489575 , 264.1756 308.489575 , 259.1756 290.489575 , 262.1756 275.489575 , 282.1756 292.489575 , 257.1756 286.489575 , 269.1756 302.489575 , 280.1756 285.489575 , 253.1756 271.489575 , 276.1756 289.489575 , 258.1756 284.489575 , 287.1756 302.489575 , 258.1756 317.489575 , 291.1756 337.489575 , 280.1756 352.489575 , 268.1756 337.489575 , 276.1756 318.489575 , 271.1756 ">
</polygon><polygon 
stroke="rgb(100,170,107)"
fill="rgb(100,170,107)"
stroke-width="60"
stroke-linejoin="round" 
opacity="1"
points="333.489575 , 280.1756 327.489575 , 272.1756 322.489575 , 264.1756 315.489575 , 270.1756 310.489575 , 271.1756 318.489575 , 274.1756 320.489575 , 274.1756 320.489575 , 275.1756 318.489575 , 278.1756 328.489575 , 268.1756 334.489575 , 268.1756 ">
</polygon><polygon 
stroke="rgb(90,160,97)"
fill="rgb(90,160,97)"
stroke-width="80"
stroke-linejoin="round" 
opacity="1"
points="302.7662 , 147.2736 321.7662 , 198.2736 311.7662 , 207.2736 309.7662 , 162.2736 288.7662 , 182.2736 312.7662 , 206.2736 328.7662 , 168.2736 306.7662 , 185.2736 311.7662 , 200.2736 314.7662 , 169.2736 303.7662 , 188.2736 320.7662 , 172.2736 305.7662 , 160.2736 305.7662 , 177.2736 282.7662 , 181.2736 292.7662 , 174.2736 265.7662 , 186.2736 286.7662 , 168.2736 290.7662 , 191.2736 262.7662 , 197.2736 275.7662 , 155.2736 275.7662 , 147.2736 301.7662 , 165.2736 311.7662 , 174.2736 287.7662 , 202.2736 281.7662 , 192.2736 283.7662 , 191.2736 ">
</polygon><polygon 
stroke="rgb(110,180,117)"
fill="rgb(110,180,117)"
stroke-width="70"
stroke-linejoin="round" 
opacity="1"
points="322.7662 , 177.2736 339.7662 , 185.2736 333.7662 , 167.2736 340.7662 , 172.2736 337.7662 , 162.2736 348.7662 , 193.2736 366.7662 , 167.2736 360.7662 , 163.2736 367.7662 , 174.2736 378.7662 , 164.2736 395.7662 , 179.2736 399.7662 , 172.2736 392.7662 , 165.2736 394.7662 , 189.2736 408.7662 , 196.2736 419.7662 , 183.2736 437.7662 , 175.2736 427.7662 , 177.2736 425.7662 , 191.2736 427.7662 , 183.2736 ">
</polygon><polygon 
stroke="rgb(110,180,117)"
fill="rgb(110,180,117)"
stroke-width="60"
stroke-linejoin="round" 
opacity="1"
points="334.7662 , 176.2736 327.7662 , 180.2736 330.7662 , 168.2736 331.7662 , 184.2736 326.7662 , 173.2736 317.7662 , 187.2736 327.7662 , 183.2736 336.7662 , 185.2736 327.7662 , 171.2736 330.7662 , 178.2736 338.7662 , 181.2736 333.7662 , 170.2736 328.7662 , 182.2736 324.7662 , 182.2736 334.7662 , 171.2736 329.7662 , 173.2736 334.7662 , 168.2736 332.7662 , 167.2736 330.7662 , 187.2736 337.7662 , 176.2736 347.7662 , 184.2736 357.7662 , 182.2736 348.7662 , 178.2736 344.7662 , 180.2736 339.7662 , 182.2736 335.7662 , 187.2736 328.7662 , 167.2736 ">
</polygon><polygon 
stroke="rgb(110,180,117)"
fill="rgb(110,180,117)"
stroke-width="80"
stroke-linejoin="round" 
opacity="1"
points="172.489575 , 347.1756 163.489575 , 320.1756 181.489575 , 373.1756 186.489575 , 343.1756 168.489575 , 338.1756 148.489575 , 318.1756 122.489575 , 366.1756 118.489575 , 317.1756 95.489575 , 368.1756 66.489575 , 361.1756 87.489575 , 353.1756 80.489575 , 351.1756 67.489575 , 325.1756 79.489575 , 375.1756 54.489575 , 344.1756 65.489575 , 333.1756 59.489575 , 348.1756 52.489575 , 339.1756 68.489575 , 369.1756 53.489575 , 368.1756 54.489575 , 338.1756 67.489575 , 347.1756 78.489575 , 351.1756 ">
</polygon><polygon 
stroke="rgb(110,180,117)"
fill="rgb(110,180,117)"
stroke-width="70"
stroke-linejoin="round" 
opacity="1"
points="200.489575 , 335.1756 203.489575 , 352.1756 211.489575 , 332.1756 228.489575 , 360.1756 245.489575 , 336.1756 234.489575 , 336.1756 249.489575 , 364.1756 234.489575 , 330.1756 254.489575 , 333.1756 246.489575 , 334.1756 232.489575 , 345.1756 215.489575 , 338.1756 224.489575 , 352.1756 204.489575 , 334.1756 209.489575 , 332.1756 196.489575 , 328.1756 207.489575 , 333.1756 224.489575 , 347.1756 204.489575 , 350.1756 207.489575 , 357.1756 210.489575 , 356.1756 226.489575 , 347.1756 246.489575 , 353.1756 247.489575 , 329.1756 236.489575 , 346.1756 240.489575 , 350.1756 242.489575 , 334.1756 222.489575 , 349.1756 238.489575 , 339.1756 ">
</polygon><polygon 
stroke="rgb(100,170,107)"
fill="rgb(100,170,107)"
stroke-width="60"
stroke-linejoin="round" 
opacity="1"
points="193.489575 , 357.1756 187.489575 , 337.1756 177.489575 , 351.1756 174.489575 , 357.1756 165.489575 , 347.1756 172.489575 , 346.1756 168.489575 , 345.1756 166.489575 , 340.1756 171.489575 , 344.1756 175.489575 , 344.1756 173.489575 , 356.1756 ">
</polygon><polygon 
stroke="rgb(100,170,107)"
fill="rgb(100,170,107)"
stroke-width="80"
stroke-linejoin="round" 
opacity="1"
points="201.768225 , 323.2088 184.768225 , 332.2088 213.768225 , 322.2088 220.768225 , 309.2088 222.768225 , 318.2088 235.768225 , 313.2088 258.768225 , 346.2088 231.768225 , 308.2088 207.768225 , 346.2088 211.768225 , 289.2088 197.768225 , 294.2088 172.768225 , 304.2088 142.768225 , 286.2088 122.768225 , 323.2088 118.768225 , 323.2088 ">
</polygon><polygon 
stroke="rgb(100,170,107)"
fill="rgb(100,170,107)"
stroke-width="70"
stroke-linejoin="round" 
opacity="1"
points="233.768225 , 303.2088 224.768225 , 314.2088 227.768225 , 319.2088 235.768225 , 331.2088 217.768225 , 323.2088 226.768225 , 334.2088 222.768225 , 327.2088 224.768225 , 333.2088 215.768225 , 314.2088 222.768225 , 314.2088 223.768225 , 296.2088 231.768225 , 319.2088 249.768225 , 318.2088 230.768225 , 334.2088 214.768225 , 318.2088 216.768225 , 306.2088 207.768225 , 331.2088 188.768225 , 318.2088 182.768225 , 313.2088 188.768225 , 298.2088 176.768225 , 317.2088 157.768225 , 331.2088 145.768225 , 322.2088 144.768225 , 318.2088 133.768225 , 329.2088 118.768225 , 330.2088 98.768225 , 301.2088 82.768225 , 328.2088 ">
</polygon><polygon 
stroke="rgb(100,170,107)"
fill="rgb(100,170,107)"
stroke-width="60"
stroke-linejoin="round" 
opacity="1"
points="231.768225 , 312.2088 240.768225 , 318.2088 236.768225 , 309.2088 232.768225 , 323.2088 238.768225 , 308.2088 229.768225 , 311.2088 238.768225 , 311.2088 235.768225 , 308.2088 237.768225 , 321.2088 235.768225 , 311.2088 233.768225 , 308.2088 230.768225 , 311.2088 235.768225 , 319.2088 229.768225 , 319.2088 232.768225 , 319.2088 224.768225 , 308.2088 223.768225 , 319.2088 220.768225 , 316.2088 226.768225 , 315.2088 233.768225 , 316.2088 235.768225 , 308.2088 240.768225 , 318.2088 235.768225 , 318.2088 238.768225 , 313.2088 243.768225 , 315.2088 ">
</polygon><path d="M 240 480 c 2.8,-140.46666666667 6.5333333333333,-80.266666666667 7,-301 
C 305.53333333333,428.73333333333 301.8,368.53333333333 307,480
 " stroke="rgb(132,105,83)" stroke-linejoin="arcs"  stroke-width="5" fill="rgb(132,105,83)"/><path d="M 244.768225 350.2088 c -23.466666666667,2 0,2 -88,15 
C 253.568225,354.0838 230.10155833333,354.0838 244.375,359.6
 " stroke="rgb(132,105,83)" stroke-linejoin="arcs"  stroke-width="5" fill="rgb(132,105,83)"/><path d="M 244.768225 350.2088 c -15.8,0 -26.333333333333,0 -79,0 
C 226.33489166667,350.2088 236.868225,350.2088 244.375,359.6
 " stroke="rgb(132,105,83)" stroke-linejoin="arcs"  stroke-width="5" fill="rgb(132,105,83)"/><path d="M 246.3616 281.5808 c 29.866666666667,-33.6 0,-9.6 112,-72 
C 257.5616,280.9808 287.42826666667,256.9808 246.103125,299.4
 " stroke="rgb(132,105,83)" stroke-linejoin="arcs"  stroke-width="5" fill="rgb(132,105,83)"/><path d="M 245.1408 339.8544 c 0,-7.6 56,-20.266666666667 120,-38 
C 313.1408,324.33773333333 257.1408,337.0044 244.768225,350.2088
 " stroke="rgb(132,105,83)" stroke-linejoin="arcs"  stroke-width="5" fill="rgb(132,105,83)"/><path d="M 246.583675 260.9924 c 0,-5.4 -92,-10.8 -115,-27 
C 166.083675,253.5674 258.083675,258.9674 246.3616,281.5808
 " stroke="rgb(132,105,83)" stroke-linejoin="arcs"  stroke-width="5" fill="rgb(132,105,83)"/><path d="M 245.489575 328.1756 c 51.2,-30.4 64,-22.8 96,-57 
C 319.089575,312.5006 306.289575,304.9006 245.1408,339.8544
 " stroke="rgb(132,105,83)" stroke-linejoin="arcs"  stroke-width="5" fill="rgb(132,105,83)"/><path d="M 246.7662 237.2736 c 73.733333333333,-24 36.866666666667,-16 79,-60 
C 291.53286666667,228.7736 328.39953333333,220.7736 246.583675,260.9924
 " stroke="rgb(132,105,83)" stroke-linejoin="arcs"  stroke-width="5" fill="rgb(132,105,83)"/><path d="M 245.489575 328.1756 c -21,8.8666666666667 -33,2.5333333333333 -45,19 
C 216.989575,333.08393333333 228.989575,339.41726666667 245.1408,339.8544
 " stroke="rgb(132,105,83)" stroke-linejoin="arcs"  stroke-width="5" fill="rgb(132,105,83)"/><path d="M 244.768225 350.2088 c -6.8,-11.333333333333 -14.733333333333,-4.5333333333333 -17,-34 
C 231.73489166667,349.92546666667 239.668225,343.12546666667 244.375,359.6
 " stroke="rgb(132,105,83)" stroke-linejoin="arcs"  stroke-width="5" fill="rgb(132,105,83)"/><polygon 
stroke="rgb(110,180,117)"
fill="rgb(110,180,117)"
stroke-width="70"
stroke-linejoin="round" 
opacity="1"
points="163.768225 , 370.2088 173.768225 , 357.2088 182.768225 , 370.2088 192.768225 , 374.2088 180.768225 , 365.2088 165.768225 , 362.2088 161.768225 , 383.2088 145.768225 , 347.2088 136.768225 , 374.2088 117.768225 , 374.2088 101.768225 , 347.2088 121.768225 , 356.2088 101.768225 , 352.2088 97.768225 , 353.2088 115.768225 , 366.2088 115.768225 , 349.2088 106.768225 , 372.2088 126.768225 , 377.2088 122.768225 , 357.2088 128.768225 , 357.2088 141.768225 , 362.2088 126.768225 , 372.2088 128.768225 , 362.2088 120.768225 , 358.2088 109.768225 , 352.2088 117.768225 , 350.2088 101.768225 , 375.2088 ">
</polygon><polygon 
stroke="rgb(100,170,107)"
fill="rgb(100,170,107)"
stroke-width="60"
stroke-linejoin="round" 
opacity="1"
points="164.768225 , 342.2088 163.768225 , 348.2088 171.768225 , 352.2088 167.768225 , 356.2088 165.768225 , 342.2088 173.768225 , 351.2088 164.768225 , 348.2088 161.768225 , 352.2088 161.768225 , 343.2088 151.768225 , 341.2088 151.768225 , 357.2088 151.768225 , 360.2088 160.768225 , 344.2088 151.768225 , 354.2088 144.768225 , 352.2088 146.768225 , 350.2088 153.768225 , 354.2088 160.768225 , 345.2088 155.768225 , 360.2088 151.768225 , 350.2088 148.768225 , 350.2088 145.768225 , 352.2088 154.768225 , 353.2088 155.768225 , 346.2088 160.768225 , 349.2088 163.768225 , 354.2088 173.768225 , 355.2088 171.768225 , 353.2088 ">
</polygon><polygon 
stroke="rgb(110,180,117)"
fill="rgb(110,180,117)"
stroke-width="70"
stroke-linejoin="round" 
opacity="1"
points="354.1408 , 295.8544 335.1408 , 296.8544 329.1408 , 288.8544 326.1408 , 315.8544 310.1408 , 281.8544 296.1408 , 307.8544 276.1408 , 298.8544 272.1408 , 319.8544 252.1408 , 293.8544 271.1408 , 303.8544 262.1408 , 295.8544 ">
</polygon></svg>