<?xml version="1.0" encoding="iso-8859-1"?>
<svg version="1.1" id="Capa_1" xmlns="http://www.w3.org/2000/svg" xmlns:xlink="http://www.w3.org/1999/xlink" x="0px" y="0px"
viewBox="0 0 500 500" xml:space="preserve"><defs></defs><polygon 
stroke="rgb(139,135,192)"
fill="rgb(139,135,192)"
stroke-width="80"
stroke-linejoin="round" 
opacity="1"
points="313 , 132 289 , 178 282 , 169 310 , 157 297 , 159 312 , 173 320 , 139 349 , 169 361 , 161 376 , 173 351 , 137 ">
</polygon><polygon 
stroke="rgb(129,125,182)"
fill="rgb(129,125,182)"
stroke-width="70"
stroke-linejoin="round" 
opacity="1"
points="294 , 156 310 , 145 318 , 154 322 , 130 306 , 147 304 , 129 293 , 169 292 , 138 272 , 142 287 , 138 297 , 150 277 , 135 269 , 155 270 , 168 288 , 138 287 , 146 290 , 141 295 , 134 277 , 160 291 , 144 ">
</polygon><polygon 
stroke="rgb(129,125,182)"
fill="rgb(129,125,182)"
stroke-width="60"
stroke-linejoin="round" 
opacity="1"
points="303 , 158 302 , 159 301 , 148 306 , 155 315 , 146 321 , 151 322 , 150 314 , 158 306 , 144 316 , 140 326 , 152 ">
</polygon><polygon 
stroke="rgb(149,145,202)"
fill="rgb(149,145,202)"
stroke-width="80"
stroke-linejoin="round" 
opacity="1"
points="342.6768 , 292.5968 322.6768 , 287.5968 347.6768 , 301.5968 339.6768 , 265.5968 312.6768 , 321.5968 315.6768 , 293.5968 308.6768 , 322.5968 316.6768 , 268.5968 342.6768 , 270.5968 337.6768 , 314.5968 324.6768 , 296.5968 346.6768 , 297.5968 339.6768 , 272.5968 342.6768 , 295.5968 347.6768 , 289.5968 371.6768 , 314.5968 356.6768 , 307.5968 341.6768 , 286.5968 351.6768 , 282.5968 351.6768 , 288.5968 339.6768 , 325.5968 342.6768 , 303.5968 319.6768 , 290.5968 339.6768 , 308.5968 323.6768 , 291.5968 340.6768 , 289.5968 349.6768 , 321.5968 ">
</polygon><polygon 
stroke="rgb(139,135,192)"
fill="rgb(139,135,192)"
stroke-width="70"
stroke-linejoin="round" 
opacity="1"
points="334.6768 , 299.5968 348.6768 , 302.5968 339.6768 , 288.5968 322.6768 , 313.5968 323.6768 , 313.5968 309.6768 , 277.5968 311.6768 , 302.5968 293.6768 , 281.5968 283.6768 , 285.5968 291.6768 , 289.5968 307.6768 , 296.5968 298.6768 , 310.5968 304.6768 , 282.5968 292.6768 , 286.5968 293.6768 , 313.5968 285.6768 , 277.5968 288.6768 , 291.5968 279.6768 , 295.5968 267.6768 , 276.5968 267.6768 , 296.5968 270.6768 , 295.5968 258.6768 , 275.5968 251.6768 , 312.5968 240.6768 , 303.5968 244.6768 , 291.5968 242.6768 , 296.5968 230.6768 , 278.5968 ">
</polygon><polygon 
stroke="rgb(139,135,192)"
fill="rgb(139,135,192)"
stroke-width="60"
stroke-linejoin="round" 
opacity="1"
points="348.6768 , 288.5968 355.6768 , 302.5968 353.6768 , 297.5968 346.6768 , 296.5968 349.6768 , 300.5968 341.6768 , 303.5968 347.6768 , 305.5968 340.6768 , 293.5968 346.6768 , 293.5968 339.6768 , 288.5968 329.6768 , 293.5968 334.6768 , 305.5968 344.6768 , 300.5968 351.6768 , 287.5968 349.6768 , 287.5968 341.6768 , 302.5968 334.6768 , 294.5968 342.6768 , 290.5968 337.6768 , 286.5968 331.6768 , 290.5968 339.6768 , 285.5968 342.6768 , 305.5968 344.6768 , 305.5968 341.6768 , 299.5968 335.6768 , 289.5968 338.6768 , 286.5968 343.6768 , 296.5968 ">
</polygon><polygon 
stroke="rgb(149,145,202)"
fill="rgb(149,145,202)"
stroke-width="80"
stroke-linejoin="round" 
opacity="1"
points="247.18405 , 226.69655 257.18405 , 206.69655 234.18405 , 206.69655 245.18405 , 200.69655 230.18405 , 194.69655 259.18405 , 186.69655 278.18405 , 227.69655 300.18405 , 214.69655 281.18405 , 189.69655 292.18405 , 237.69655 270.18405 , 202.69655 ">
</polygon><polygon 
stroke="rgb(129,125,182)"
fill="rgb(129,125,182)"
stroke-width="70"
stroke-linejoin="round" 
opacity="1"
points="231.18405 , 223.69655 226.18405 , 208.69655 229.18405 , 202.69655 240.18405 , 192.69655 259.18405 , 216.69655 278.18405 , 223.69655 264.18405 , 213.69655 255.18405 , 226.69655 239.18405 , 216.69655 238.18405 , 195.69655 252.18405 , 214.69655 265.18405 , 222.69655 253.18405 , 202.69655 263.18405 , 197.69655 244.18405 , 226.69655 248.18405 , 192.69655 248.18405 , 198.69655 267.18405 , 203.69655 273.18405 , 219.69655 257.18405 , 217.69655 240.18405 , 226.69655 237.18405 , 208.69655 223.18405 , 225.69655 235.18405 , 227.69655 220.18405 , 204.69655 219.18405 , 211.69655 201.18405 , 216.69655 213.18405 , 221.69655 224.18405 , 224.69655 227.18405 , 222.69655 ">
</polygon><polygon 
stroke="rgb(139,135,192)"
fill="rgb(139,135,192)"
stroke-width="60"
stroke-linejoin="round" 
opacity="1"
points="259.18405 , 217.69655 254.18405 , 213.69655 257.18405 , 209.69655 252.18405 , 198.69655 258.18405 , 207.69655 256.18405 , 209.69655 251.18405 , 217.69655 261.18405 , 201.69655 268.18405 , 197.69655 273.18405 , 211.69655 282.18405 , 204.69655 276.18405 , 204.69655 277.18405 , 209.69655 272.18405 , 205.69655 275.18405 , 212.69655 281.18405 , 210.69655 285.18405 , 202.69655 283.18405 , 197.69655 292.18405 , 215.69655 286.18405 , 207.69655 ">
</polygon><polygon 
stroke="rgb(129,125,182)"
fill="rgb(129,125,182)"
stroke-width="60"
stroke-linejoin="round" 
opacity="1"
points="382.5456 , 211.0416 385.5456 , 201.0416 385.5456 , 194.0416 383.5456 , 200.0416 390.5456 , 195.0416 387.5456 , 194.0416 377.5456 , 212.0416 367.5456 , 212.0416 366.5456 , 196.0416 360.5456 , 195.0416 369.5456 , 194.0416 360.5456 , 202.0416 368.5456 , 207.0416 364.5456 , 201.0416 368.5456 , 195.0416 372.5456 , 203.0416 365.5456 , 202.0416 361.5456 , 204.0416 ">
</polygon><polygon 
stroke="rgb(139,135,192)"
fill="rgb(139,135,192)"
stroke-width="80"
stroke-linejoin="round" 
opacity="1"
points="289.6768 , 316.5968 318.6768 , 338.5968 320.6768 , 343.5968 302.6768 , 325.5968 308.6768 , 342.5968 309.6768 , 365.5968 316.6768 , 322.5968 338.6768 , 337.5968 318.6768 , 350.5968 288.6768 , 330.5968 271.6768 , 353.5968 301.6768 , 367.5968 274.6768 , 324.5968 278.6768 , 324.5968 293.6768 , 349.5968 269.6768 , 358.5968 259.6768 , 317.5968 235.6768 , 369.5968 238.6768 , 326.5968 259.6768 , 338.5968 282.6768 , 353.5968 ">
</polygon><polygon 
stroke="rgb(139,135,192)"
fill="rgb(139,135,192)"
stroke-width="70"
stroke-linejoin="round" 
opacity="1"
points="287.6768 , 335.5968 283.6768 , 355.5968 291.6768 , 342.5968 282.6768 , 327.5968 282.6768 , 360.5968 291.6768 , 349.5968 301.6768 , 354.5968 298.6768 , 342.5968 300.6768 , 337.5968 297.6768 , 329.5968 277.6768 , 343.5968 297.6768 , 348.5968 284.6768 , 347.5968 271.6768 , 337.5968 252.6768 , 321.5968 ">
</polygon><polygon 
stroke="rgb(149,145,202)"
fill="rgb(149,145,202)"
stroke-width="60"
stroke-linejoin="round" 
opacity="1"
points="296.6768 , 334.5968 295.6768 , 335.5968 305.6768 , 333.5968 314.6768 , 331.5968 312.6768 , 334.5968 315.6768 , 338.5968 313.6768 , 341.5968 307.6768 , 332.5968 304.6768 , 332.5968 306.6768 , 346.5968 315.6768 , 341.5968 319.6768 , 335.5968 313.6768 , 335.5968 303.6768 , 333.5968 310.6768 , 348.5968 315.6768 , 340.5968 319.6768 , 331.5968 323.6768 , 344.5968 328.6768 , 344.5968 336.6768 , 341.5968 ">
</polygon><polygon 
stroke="rgb(149,145,202)"
fill="rgb(149,145,202)"
stroke-width="80"
stroke-linejoin="round" 
opacity="1"
points="128.16535 , 297.01885 100.16535 , 263.01885 112.16535 , 268.01885 106.16535 , 255.01885 110.16535 , 294.01885 121.16535 , 255.01885 100.16535 , 275.01885 76.16535 , 251.01885 103.16535 , 285.01885 110.16535 , 256.01885 117.16535 , 261.01885 138.16535 , 248.01885 122.16535 , 291.01885 102.16535 , 264.01885 127.16535 , 302.01885 114.16535 , 266.01885 96.16535 , 284.01885 110.16535 , 303.01885 81.16535 , 289.01885 97.16535 , 265.01885 ">
</polygon><polygon 
stroke="rgb(139,135,192)"
fill="rgb(139,135,192)"
stroke-width="70"
stroke-linejoin="round" 
opacity="1"
points="176.16535 , 262.01885 160.16535 , 264.01885 174.16535 , 279.01885 169.16535 , 287.01885 174.16535 , 275.01885 155.16535 , 283.01885 170.16535 , 279.01885 175.16535 , 289.01885 194.16535 , 295.01885 181.16535 , 262.01885 178.16535 , 257.01885 164.16535 , 279.01885 158.16535 , 278.01885 151.16535 , 257.01885 143.16535 , 293.01885 153.16535 , 281.01885 151.16535 , 276.01885 153.16535 , 295.01885 143.16535 , 293.01885 124.16535 , 258.01885 144.16535 , 266.01885 ">
</polygon><polygon 
stroke="rgb(129,125,182)"
fill="rgb(129,125,182)"
stroke-width="60"
stroke-linejoin="round" 
opacity="1"
points="161.16535 , 271.01885 164.16535 , 267.01885 159.16535 , 276.01885 163.16535 , 283.01885 163.16535 , 280.01885 156.16535 , 268.01885 149.16535 , 281.01885 154.16535 , 280.01885 157.16535 , 285.01885 153.16535 , 278.01885 159.16535 , 280.01885 166.16535 , 272.01885 160.16535 , 267.01885 160.16535 , 268.01885 161.16535 , 276.01885 160.16535 , 279.01885 153.16535 , 287.01885 152.16535 , 283.01885 155.16535 , 286.01885 165.16535 , 277.01885 ">
</polygon><polygon 
stroke="rgb(139,135,192)"
fill="rgb(139,135,192)"
stroke-width="80"
stroke-linejoin="round" 
opacity="1"
points="245.16535 , 317.01885 227.16535 , 334.01885 241.16535 , 305.01885 214.16535 , 339.01885 236.16535 , 358.01885 258.16535 , 349.01885 269.16535 , 361.01885 259.16535 , 356.01885 249.16535 , 337.01885 224.16535 , 348.01885 ">
</polygon><polygon 
stroke="rgb(129,125,182)"
fill="rgb(129,125,182)"
stroke-width="70"
stroke-linejoin="round" 
opacity="1"
points="213.16535 , 318.01885 218.16535 , 355.01885 199.16535 , 342.01885 214.16535 , 323.01885 218.16535 , 340.01885 231.16535 , 324.01885 246.16535 , 315.01885 254.16535 , 331.01885 235.16535 , 335.01885 249.16535 , 317.01885 248.16535 , 349.01885 265.16535 , 343.01885 251.16535 , 347.01885 270.16535 , 327.01885 254.16535 , 322.01885 267.16535 , 322.01885 252.16535 , 337.01885 260.16535 , 333.01885 280.16535 , 351.01885 275.16535 , 339.01885 ">
</polygon><polygon 
stroke="rgb(139,135,192)"
fill="rgb(139,135,192)"
stroke-width="60"
stroke-linejoin="round" 
opacity="1"
points="242.16535 , 327.01885 234.16535 , 332.01885 242.16535 , 325.01885 250.16535 , 336.01885 240.16535 , 333.01885 245.16535 , 341.01885 239.16535 , 328.01885 248.16535 , 341.01885 257.16535 , 341.01885 267.16535 , 334.01885 273.16535 , 337.01885 273.16535 , 336.01885 278.16535 , 342.01885 ">
</polygon><polygon 
stroke="rgb(129,125,182)"
fill="rgb(129,125,182)"
stroke-width="80"
stroke-linejoin="round" 
opacity="1"
points="343.76815 , 109.47365 352.76815 , 126.47365 361.76815 , 112.47365 372.76815 , 143.47365 369.76815 , 131.47365 389.76815 , 102.47365 366.76815 , 147.47365 349.76815 , 96.47365 357.76815 , 97.47365 363.76815 , 148.47365 335.76815 , 116.47365 344.76815 , 146.47365 354.76815 , 117.47365 333.76815 , 154.47365 354.76815 , 95.47365 350.76815 , 99.47365 354.76815 , 152.47365 349.76815 , 114.47365 378.76815 , 141.47365 408.76815 , 106.47365 397.76815 , 106.47365 400.76815 , 122.47365 415.76815 , 119.47365 390.76815 , 137.47365 417.76815 , 106.47365 421.76815 , 120.47365 ">
</polygon><polygon 
stroke="rgb(139,135,192)"
fill="rgb(139,135,192)"
stroke-width="70"
stroke-linejoin="round" 
opacity="1"
points="368.76815 , 116.47365 373.76815 , 114.47365 374.76815 , 140.47365 394.76815 , 123.47365 394.76815 , 131.47365 395.76815 , 128.47365 385.76815 , 125.47365 382.76815 , 135.47365 385.76815 , 110.47365 393.76815 , 108.47365 403.76815 , 110.47365 415.76815 , 112.47365 417.76815 , 140.47365 417.76815 , 142.47365 419.76815 , 119.47365 404.76815 , 110.47365 399.76815 , 121.47365 380.76815 , 109.47365 375.76815 , 143.47365 361.76815 , 118.47365 370.76815 , 127.47365 386.76815 , 105.47365 400.76815 , 127.47365 ">
</polygon><polygon 
stroke="rgb(139,135,192)"
fill="rgb(139,135,192)"
stroke-width="60"
stroke-linejoin="round" 
opacity="1"
points="354.76815 , 134.47365 344.76815 , 119.47365 345.76815 , 117.47365 355.76815 , 121.47365 357.76815 , 117.47365 360.76815 , 123.47365 357.76815 , 129.47365 361.76815 , 122.47365 351.76815 , 115.47365 348.76815 , 121.47365 342.76815 , 117.47365 339.76815 , 123.47365 341.76815 , 128.47365 345.76815 , 132.47365 346.76815 , 115.47365 ">
</polygon><polygon 
stroke="rgb(149,145,202)"
fill="rgb(149,145,202)"
stroke-width="80"
stroke-linejoin="round" 
opacity="1"
points="167.5456 , 267.0416 146.5456 , 266.0416 146.5456 , 244.0416 117.5456 , 261.0416 132.5456 , 254.0416 153.5456 , 265.0416 137.5456 , 263.0416 155.5456 , 264.0416 144.5456 , 252.0416 144.5456 , 250.0416 137.5456 , 263.0416 161.5456 , 270.0416 157.5456 , 214.0416 174.5456 , 243.0416 146.5456 , 235.0416 158.5456 , 240.0416 130.5456 , 254.0416 118.5456 , 257.0416 119.5456 , 265.0416 101.5456 , 240.0416 71.5456 , 239.0416 66.5456 , 264.0416 94.5456 , 226.0416 ">
</polygon><polygon 
stroke="rgb(149,145,202)"
fill="rgb(149,145,202)"
stroke-width="70"
stroke-linejoin="round" 
opacity="1"
points="185.5456 , 249.0416 166.5456 , 253.0416 167.5456 , 245.0416 184.5456 , 258.0416 173.5456 , 246.0416 186.5456 , 241.0416 170.5456 , 234.0416 150.5456 , 227.0416 161.5456 , 250.0416 172.5456 , 233.0416 170.5456 , 257.0416 166.5456 , 237.0416 183.5456 , 262.0416 165.5456 , 244.0416 152.5456 , 250.0416 169.5456 , 236.0416 182.5456 , 249.0416 174.5456 , 229.0416 167.5456 , 238.0416 148.5456 , 238.0416 168.5456 , 236.0416 184.5456 , 232.0416 181.5456 , 229.0416 182.5456 , 223.0416 176.5456 , 261.0416 194.5456 , 248.0416 177.5456 , 244.0416 173.5456 , 226.0416 165.5456 , 244.0416 165.5456 , 230.0416 ">
</polygon><polygon 
stroke="rgb(149,145,202)"
fill="rgb(149,145,202)"
stroke-width="60"
stroke-linejoin="round" 
opacity="1"
points="205.5456 , 244.0416 198.5456 , 244.0416 202.5456 , 246.0416 206.5456 , 235.0416 209.5456 , 238.0416 218.5456 , 236.0416 216.5456 , 242.0416 208.5456 , 248.0416 201.5456 , 243.0416 198.5456 , 235.0416 190.5456 , 242.0416 200.5456 , 243.0416 199.5456 , 241.0416 ">
</polygon><polygon 
stroke="rgb(149,145,202)"
fill="rgb(149,145,202)"
stroke-width="80"
stroke-linejoin="round" 
opacity="1"
points="428.5456 , 232.0416 436.5456 , 243.0416 407.5456 , 253.0416 420.5456 , 234.0416 411.5456 , 209.0416 382.5456 , 251.0416 380.5456 , 259.0416 359.5456 , 225.0416 331.5456 , 233.0416 338.5456 , 230.0416 363.5456 , 209.0416 ">
</polygon><polygon 
stroke="rgb(139,135,192)"
fill="rgb(139,135,192)"
stroke-width="60"
stroke-linejoin="round" 
opacity="1"
points="409.5456 , 243.0416 413.5456 , 234.0416 418.5456 , 234.0416 409.5456 , 240.0416 401.5456 , 239.0416 398.5456 , 226.0416 394.5456 , 228.0416 392.5456 , 224.0416 390.5456 , 242.0416 391.5456 , 242.0416 388.5456 , 224.0416 390.5456 , 240.0416 383.5456 , 226.0416 377.5456 , 238.0416 375.5456 , 237.0416 384.5456 , 228.0416 381.5456 , 234.0416 383.5456 , 223.0416 ">
</polygon><path d="M 240 480 c 45.933333333333,-110.33333333333 0,-88.266666666667 53,-331 
C 291,415.73333333333 336.93333333333,393.66666666667 309,480
 " stroke="rgb(161,187,75)" stroke-linejoin="arcs"  stroke-width="5" fill="rgb(161,187,75)"/><path d="M 264.6768 338.5968 c 11.066666666667,-22.933333333333 16.6,-20.066666666667 83,-43 
C 289.5768,323.90513333333 284.04346666667,321.03846666667 264.16535,352.01885
 " stroke="rgb(161,187,75)" stroke-linejoin="arcs"  stroke-width="5" fill="rgb(161,187,75)"/><path d="M 275.18405 241.69655 c -5.2,-6.8 -5.2,-18.133333333333 -26,-34 
C 272.58405,227.81321666667 272.58405,239.14655 271.5456,266.0416
 " stroke="rgb(161,187,75)" stroke-linejoin="arcs"  stroke-width="5" fill="rgb(161,187,75)"/><path d="M 271.5456 266.0416 c 0,-33.6 28.266666666667,-12.6 106,-63 
C 310.41226666667,261.3166 282.1456,240.3166 268.81875,287.60625
 " stroke="rgb(161,187,75)" stroke-linejoin="arcs"  stroke-width="5" fill="rgb(161,187,75)"/><path d="M 264.6768 338.5968 c 22,1.4 11,0.6 33,3 
C 278.9768,339.5718 289.9768,340.3718 264.16535,352.01885
 " stroke="rgb(161,187,75)" stroke-linejoin="arcs"  stroke-width="5" fill="rgb(161,187,75)"/><path d="M 264.16535 352.01885 c -14.133333333333,-35 -77.733333333333,-15 -106,-75 
C 197.03201666667,346.39385 260.63201666667,326.39385 263.85,364.15
 " stroke="rgb(161,187,75)" stroke-linejoin="arcs"  stroke-width="5" fill="rgb(161,187,75)"/><path d="M 264.16535 352.01885 c -32,-4.5333333333333 -6.4,-6.8 -32,-17 
C 260.96535,347.34385 235.36535,349.61051666667 263.85,364.15
 " stroke="rgb(161,187,75)" stroke-linejoin="arcs"  stroke-width="5" fill="rgb(161,187,75)"/><path d="M 285.76815 183.47365 c 25.2,-19.333333333333 46.2,-15.466666666667 63,-58 
C 338.26815,175.25698333333 317.26815,171.39031666667 279.8772,214.2732
 " stroke="rgb(161,187,75)" stroke-linejoin="arcs"  stroke-width="5" fill="rgb(161,187,75)"/><path d="M 271.5456 266.0416 c -45,-12.266666666667 -50,-12.266666666667 -75,-23 
C 229.0456,256.64993333333 234.0456,256.64993333333 268.81875,287.60625
 " stroke="rgb(161,187,75)" stroke-linejoin="arcs"  stroke-width="5" fill="rgb(161,187,75)"/><path d="M 271.5456 266.0416 c 128,-4.4 128,-8.8 128,-33 
C 412.3456,261.3666 412.3456,265.7666 268.81875,287.60625
 " stroke="rgb(161,187,75)" stroke-linejoin="arcs"  stroke-width="5" fill="rgb(161,187,75)"/><polygon 
stroke="rgb(129,125,182)"
fill="rgb(129,125,182)"
stroke-width="80"
stroke-linejoin="round" 
opacity="1"
points="385.5456 , 232.0416 362.5456 , 206.0416 360.5456 , 224.0416 389.5456 , 209.0416 362.5456 , 200.0416 349.5456 , 185.0416 359.5456 , 182.0416 389.5456 , 186.0416 388.5456 , 195.0416 364.5456 , 185.0416 370.5456 , 174.0416 387.5456 , 174.0416 393.5456 , 207.0416 406.5456 , 218.0416 421.5456 , 207.0416 441.5456 , 183.0416 429.5456 , 230.0416 431.5456 , 207.0416 439.5456 , 175.0416 427.5456 , 179.0416 399.5456 , 188.0416 414.5456 , 195.0416 405.5456 , 212.0416 423.5456 , 193.0416 398.5456 , 223.0416 373.5456 , 214.0416 359.5456 , 200.0416 ">
</polygon><polygon 
stroke="rgb(149,145,202)"
fill="rgb(149,145,202)"
stroke-width="70"
stroke-linejoin="round" 
opacity="1"
points="380.5456 , 209.0416 396.5456 , 219.0416 385.5456 , 184.0416 377.5456 , 222.0416 368.5456 , 198.0416 386.5456 , 209.0416 377.5456 , 212.0416 389.5456 , 188.0416 378.5456 , 186.0416 367.5456 , 208.0416 351.5456 , 218.0416 339.5456 , 221.0416 353.5456 , 190.0416 350.5456 , 208.0416 334.5456 , 220.0416 338.5456 , 214.0416 334.5456 , 218.0416 317.5456 , 187.0416 318.5456 , 196.0416 314.5456 , 188.0416 307.5456 , 186.0416 321.5456 , 211.0416 336.5456 , 211.0416 320.5456 , 183.0416 304.5456 , 222.0416 ">
</polygon><polygon 
stroke="rgb(149,145,202)"
fill="rgb(149,145,202)"
stroke-width="70"
stroke-linejoin="round" 
opacity="1"
points="400.5456 , 227.0416 404.5456 , 228.0416 395.5456 , 252.0416 386.5456 , 242.0416 367.5456 , 248.0416 365.5456 , 237.0416 348.5456 , 214.0416 344.5456 , 248.0416 360.5456 , 224.0416 380.5456 , 241.0416 381.5456 , 239.0416 366.5456 , 221.0416 363.5456 , 229.0416 366.5456 , 251.0416 373.5456 , 240.0416 391.5456 , 225.0416 372.5456 , 242.0416 392.5456 , 233.0416 394.5456 , 217.0416 386.5456 , 246.0416 379.5456 , 250.0416 361.5456 , 218.0416 362.5456 , 221.0416 362.5456 , 235.0416 ">
</polygon></svg>