<?xml version="1.0" encoding="iso-8859-1"?>
<svg version="1.1" id="Capa_1" xmlns="http://www.w3.org/2000/svg" xmlns:xlink="http://www.w3.org/1999/xlink" x="0px" y="0px"
viewBox="0 0 500 500" xml:space="preserve"><defs></defs><polygon 
stroke="rgb(174,170,177)"
fill="rgb(174,170,177)"
stroke-width="80"
stroke-linejoin="round" 
opacity="1"
points="280 , 109 287 , 131 310 , 131 339 , 162 319 , 137 292 , 122 279 , 132 263 , 161 293 , 139 307 , 155 281 , 134 296 , 128 301 , 164 293 , 166 315 , 109 324 , 144 316 , 145 337 , 133 310 , 106 302 , 161 328 , 147 303 , 132 310 , 126 301 , 164 290 , 106 316 , 147 308 , 163 310 , 148 287 , 127 296 , 126 ">
</polygon><polygon 
stroke="rgb(164,160,167)"
fill="rgb(164,160,167)"
stroke-width="70"
stroke-linejoin="round" 
opacity="1"
points="253 , 136 271 , 140 263 , 147 272 , 116 266 , 150 279 , 118 261 , 122 257 , 125 270 , 147 285 , 153 ">
</polygon><polygon 
stroke="rgb(174,170,177)"
fill="rgb(174,170,177)"
stroke-width="60"
stroke-linejoin="round" 
opacity="1"
points="263 , 132 256 , 144 246 , 126 252 , 142 255 , 138 258 , 129 263 , 141 267 , 141 259 , 141 254 , 127 249 , 133 251 , 146 247 , 135 ">
</polygon><polygon 
stroke="rgb(174,170,177)"
fill="rgb(174,170,177)"
stroke-width="80"
stroke-linejoin="round" 
opacity="1"
points="175.4112 , 240.0192 181.4112 , 218.0192 203.4112 , 242.0192 195.4112 , 228.0192 209.4112 , 247.0192 209.4112 , 221.0192 181.4112 , 253.0192 180.4112 , 206.0192 182.4112 , 227.0192 167.4112 , 242.0192 170.4112 , 219.0192 185.4112 , 202.0192 211.4112 , 198.0192 220.4112 , 256.0192 198.4112 , 204.0192 209.4112 , 238.0192 ">
</polygon><polygon 
stroke="rgb(184,180,187)"
fill="rgb(184,180,187)"
stroke-width="70"
stroke-linejoin="round" 
opacity="1"
points="143.4112 , 240.0192 155.4112 , 232.0192 135.4112 , 223.0192 119.4112 , 218.0192 133.4112 , 231.0192 151.4112 , 233.0192 155.4112 , 229.0192 148.4112 , 220.0192 155.4112 , 218.0192 139.4112 , 216.0192 152.4112 , 214.0192 158.4112 , 228.0192 163.4112 , 209.0192 161.4112 , 241.0192 156.4112 , 219.0192 176.4112 , 229.0192 190.4112 , 223.0192 202.4112 , 236.0192 ">
</polygon><polygon 
stroke="rgb(184,180,187)"
fill="rgb(184,180,187)"
stroke-width="80"
stroke-linejoin="round" 
opacity="1"
points="377.7264 , 166.6224 373.7264 , 161.6224 384.7264 , 207.6224 379.7264 , 191.6224 394.7264 , 179.6224 420.7264 , 215.6224 398.7264 , 163.6224 388.7264 , 182.6224 405.7264 , 213.6224 390.7264 , 215.6224 363.7264 , 170.6224 365.7264 , 174.6224 388.7264 , 182.6224 384.7264 , 169.6224 414.7264 , 205.6224 409.7264 , 183.6224 385.7264 , 175.6224 360.7264 , 209.6224 374.7264 , 179.6224 377.7264 , 212.6224 ">
</polygon><polygon 
stroke="rgb(164,160,167)"
fill="rgb(164,160,167)"
stroke-width="70"
stroke-linejoin="round" 
opacity="1"
points="357.7264 , 190.6224 365.7264 , 173.6224 360.7264 , 192.6224 356.7264 , 204.6224 365.7264 , 203.6224 370.7264 , 168.6224 358.7264 , 185.6224 358.7264 , 173.6224 374.7264 , 206.6224 354.7264 , 169.6224 370.7264 , 185.6224 389.7264 , 181.6224 388.7264 , 198.6224 371.7264 , 173.6224 355.7264 , 202.6224 349.7264 , 171.6224 364.7264 , 193.6224 383.7264 , 199.6224 394.7264 , 207.6224 392.7264 , 176.6224 395.7264 , 185.6224 377.7264 , 183.6224 379.7264 , 207.6224 377.7264 , 206.6224 392.7264 , 192.6224 390.7264 , 189.6224 398.7264 , 178.6224 410.7264 , 169.6224 ">
</polygon><polygon 
stroke="rgb(174,170,177)"
fill="rgb(174,170,177)"
stroke-width="80"
stroke-linejoin="round" 
opacity="1"
points="386.1358 , 199.4528 384.1358 , 144.4528 392.1358 , 150.4528 363.1358 , 185.4528 354.1358 , 161.4528 339.1358 , 197.4528 324.1358 , 199.4528 296.1358 , 192.4528 306.1358 , 158.4528 327.1358 , 148.4528 329.1358 , 200.4528 323.1358 , 148.4528 331.1358 , 171.4528 324.1358 , 152.4528 307.1358 , 159.4528 299.1358 , 186.4528 271.1358 , 176.4528 ">
</polygon><polygon 
stroke="rgb(174,170,177)"
fill="rgb(174,170,177)"
stroke-width="60"
stroke-linejoin="round" 
opacity="1"
points="414.1358 , 163.4528 410.1358 , 161.4528 412.1358 , 175.4528 408.1358 , 164.4528 416.1358 , 178.4528 410.1358 , 170.4528 404.1358 , 172.4528 410.1358 , 162.4528 400.1358 , 161.4528 403.1358 , 178.4528 409.1358 , 172.4528 419.1358 , 181.4528 414.1358 , 178.4528 407.1358 , 169.4528 402.1358 , 166.4528 406.1358 , 166.4528 398.1358 , 177.4528 404.1358 , 165.4528 405.1358 , 166.4528 404.1358 , 164.4528 ">
</polygon><polygon 
stroke="rgb(174,170,177)"
fill="rgb(174,170,177)"
stroke-width="80"
stroke-linejoin="round" 
opacity="1"
points="216.4112 , 257.0192 241.4112 , 249.0192 255.4112 , 289.0192 229.4112 , 294.0192 237.4112 , 265.0192 227.4112 , 277.0192 254.4112 , 278.0192 247.4112 , 279.0192 253.4112 , 277.0192 257.4112 , 254.0192 253.4112 , 277.0192 250.4112 , 285.0192 262.4112 , 261.0192 291.4112 , 289.0192 278.4112 , 294.0192 270.4112 , 271.0192 243.4112 , 299.0192 223.4112 , 273.0192 195.4112 , 292.0192 ">
</polygon><polygon 
stroke="rgb(174,170,177)"
fill="rgb(174,170,177)"
stroke-width="70"
stroke-linejoin="round" 
opacity="1"
points="205.4112 , 283.0192 221.4112 , 249.0192 207.4112 , 254.0192 202.4112 , 278.0192 217.4112 , 284.0192 227.4112 , 257.0192 231.4112 , 253.0192 222.4112 , 277.0192 219.4112 , 267.0192 231.4112 , 266.0192 228.4112 , 257.0192 218.4112 , 263.0192 213.4112 , 283.0192 194.4112 , 271.0192 193.4112 , 249.0192 197.4112 , 283.0192 186.4112 , 287.0192 185.4112 , 249.0192 183.4112 , 285.0192 195.4112 , 266.0192 ">
</polygon><polygon 
stroke="rgb(164,160,167)"
fill="rgb(164,160,167)"
stroke-width="60"
stroke-linejoin="round" 
opacity="1"
points="226.4112 , 262.0192 231.4112 , 269.0192 236.4112 , 264.0192 227.4112 , 263.0192 236.4112 , 261.0192 226.4112 , 279.0192 233.4112 , 261.0192 235.4112 , 265.0192 229.4112 , 271.0192 222.4112 , 278.0192 221.4112 , 261.0192 213.4112 , 275.0192 213.4112 , 260.0192 206.4112 , 263.0192 207.4112 , 264.0192 201.4112 , 273.0192 210.4112 , 274.0192 201.4112 , 267.0192 194.4112 , 260.0192 189.4112 , 266.0192 181.4112 , 264.0192 175.4112 , 269.0192 185.4112 , 265.0192 176.4112 , 275.0192 170.4112 , 277.0192 ">
</polygon><polygon 
stroke="rgb(174,170,177)"
fill="rgb(174,170,177)"
stroke-width="80"
stroke-linejoin="round" 
opacity="1"
points="297.046025 , 254.9364 282.046025 , 245.9364 282.046025 , 252.9364 261.046025 , 259.9364 291.046025 , 298.9364 315.046025 , 281.9364 334.046025 , 254.9364 321.046025 , 270.9364 345.046025 , 274.9364 350.046025 , 300.9364 341.046025 , 286.9364 370.046025 , 252.9364 362.046025 , 265.9364 347.046025 , 277.9364 369.046025 , 286.9364 370.046025 , 265.9364 344.046025 , 268.9364 318.046025 , 275.9364 335.046025 , 257.9364 315.046025 , 299.9364 315.046025 , 242.9364 294.046025 , 279.9364 309.046025 , 287.9364 290.046025 , 263.9364 287.046025 , 254.9364 ">
</polygon><polygon 
stroke="rgb(174,170,177)"
fill="rgb(174,170,177)"
stroke-width="70"
stroke-linejoin="round" 
opacity="1"
points="317.046025 , 264.9364 313.046025 , 258.9364 322.046025 , 277.9364 325.046025 , 275.9364 306.046025 , 277.9364 293.046025 , 263.9364 281.046025 , 258.9364 292.046025 , 264.9364 303.046025 , 274.9364 322.046025 , 277.9364 303.046025 , 290.9364 292.046025 , 264.9364 291.046025 , 262.9364 288.046025 , 287.9364 272.046025 , 263.9364 258.046025 , 255.9364 256.046025 , 275.9364 273.046025 , 286.9364 256.046025 , 252.9364 239.046025 , 252.9364 234.046025 , 268.9364 239.046025 , 267.9364 243.046025 , 271.9364 235.046025 , 286.9364 219.046025 , 285.9364 224.046025 , 267.9364 223.046025 , 263.9364 242.046025 , 278.9364 229.046025 , 269.9364 214.046025 , 258.9364 ">
</polygon><polygon 
stroke="rgb(184,180,187)"
fill="rgb(184,180,187)"
stroke-width="60"
stroke-linejoin="round" 
opacity="1"
points="290.046025 , 272.9364 289.046025 , 261.9364 284.046025 , 262.9364 282.046025 , 280.9364 272.046025 , 273.9364 275.046025 , 269.9364 265.046025 , 275.9364 261.046025 , 281.9364 268.046025 , 262.9364 270.046025 , 266.9364 278.046025 , 266.9364 272.046025 , 267.9364 274.046025 , 261.9364 275.046025 , 279.9364 274.046025 , 281.9364 267.046025 , 273.9364 277.046025 , 272.9364 270.046025 , 281.9364 277.046025 , 272.9364 270.046025 , 270.9364 273.046025 , 275.9364 280.046025 , 264.9364 278.046025 , 268.9364 274.046025 , 269.9364 ">
</polygon><polygon 
stroke="rgb(184,180,187)"
fill="rgb(184,180,187)"
stroke-width="70"
stroke-linejoin="round" 
opacity="1"
points="222.575 , 256.2 240.575 , 276.2 220.575 , 250.2 208.575 , 260.2 205.575 , 274.2 224.575 , 277.2 243.575 , 259.2 251.575 , 247.2 244.575 , 264.2 248.575 , 282.2 234.575 , 245.2 228.575 , 283.2 219.575 , 248.2 233.575 , 244.2 225.575 , 272.2 225.575 , 280.2 ">
</polygon><polygon 
stroke="rgb(184,180,187)"
fill="rgb(184,180,187)"
stroke-width="60"
stroke-linejoin="round" 
opacity="1"
points="200.575 , 273.2 205.575 , 269.2 214.575 , 272.2 217.575 , 257.2 223.575 , 254.2 224.575 , 258.2 227.575 , 257.2 219.575 , 257.2 225.575 , 257.2 228.575 , 268.2 236.575 , 259.2 241.575 , 256.2 247.575 , 269.2 238.575 , 263.2 237.575 , 256.2 231.575 , 269.2 238.575 , 270.2 240.575 , 259.2 249.575 , 257.2 ">
</polygon><polygon 
stroke="rgb(164,160,167)"
fill="rgb(164,160,167)"
stroke-width="80"
stroke-linejoin="round" 
opacity="1"
points="205.8066 , 225.9856 207.8066 , 232.9856 210.8066 , 181.9856 215.8066 , 183.9856 198.8066 , 190.9856 169.8066 , 221.9856 176.8066 , 226.9856 179.8066 , 213.9856 168.8066 , 221.9856 183.8066 , 195.9856 184.8066 , 211.9856 170.8066 , 203.9856 174.8066 , 194.9856 170.8066 , 221.9856 146.8066 , 235.9856 171.8066 , 235.9856 177.8066 , 182.9856 157.8066 , 186.9856 ">
</polygon><polygon 
stroke="rgb(184,180,187)"
fill="rgb(184,180,187)"
stroke-width="70"
stroke-linejoin="round" 
opacity="1"
points="231.8066 , 203.9856 243.8066 , 211.9856 253.8066 , 209.9856 252.8066 , 185.9856 246.8066 , 192.9856 261.8066 , 224.9856 253.8066 , 186.9856 243.8066 , 185.9856 232.8066 , 216.9856 250.8066 , 202.9856 230.8066 , 186.9856 ">
</polygon><polygon 
stroke="rgb(184,180,187)"
fill="rgb(184,180,187)"
stroke-width="60"
stroke-linejoin="round" 
opacity="1"
points="207.8066 , 215.9856 208.8066 , 215.9856 202.8066 , 195.9856 210.8066 , 198.9856 214.8066 , 201.9856 213.8066 , 201.9856 222.8066 , 196.9856 226.8066 , 206.9856 223.8066 , 200.9856 233.8066 , 198.9856 229.8066 , 206.9856 232.8066 , 201.9856 239.8066 , 213.9856 247.8066 , 206.9856 237.8066 , 200.9856 244.8066 , 214.9856 250.8066 , 197.9856 243.8066 , 198.9856 240.8066 , 211.9856 232.8066 , 196.9856 226.8066 , 197.9856 ">
</polygon><polygon 
stroke="rgb(174,170,177)"
fill="rgb(174,170,177)"
stroke-width="80"
stroke-linejoin="round" 
opacity="1"
points="231.046025 , 340.9364 204.046025 , 328.9364 187.046025 , 337.9364 189.046025 , 308.9364 203.046025 , 342.9364 228.046025 , 334.9364 230.046025 , 342.9364 254.046025 , 335.9364 279.046025 , 337.9364 255.046025 , 302.9364 225.046025 , 320.9364 209.046025 , 341.9364 204.046025 , 338.9364 217.046025 , 343.9364 195.046025 , 327.9364 223.046025 , 310.9364 229.046025 , 325.9364 204.046025 , 342.9364 209.046025 , 329.9364 182.046025 , 317.9364 185.046025 , 304.9364 165.046025 , 295.9364 138.046025 , 289.9364 149.046025 , 347.9364 172.046025 , 320.9364 189.046025 , 318.9364 ">
</polygon><polygon 
stroke="rgb(174,170,177)"
fill="rgb(174,170,177)"
stroke-width="70"
stroke-linejoin="round" 
opacity="1"
points="225.046025 , 306.9364 209.046025 , 336.9364 204.046025 , 309.9364 195.046025 , 326.9364 184.046025 , 303.9364 168.046025 , 321.9364 168.046025 , 326.9364 174.046025 , 327.9364 176.046025 , 297.9364 173.046025 , 310.9364 180.046025 , 312.9364 182.046025 , 308.9364 195.046025 , 336.9364 194.046025 , 320.9364 181.046025 , 300.9364 193.046025 , 322.9364 213.046025 , 328.9364 218.046025 , 306.9364 205.046025 , 330.9364 202.046025 , 310.9364 214.046025 , 337.9364 205.046025 , 307.9364 194.046025 , 312.9364 208.046025 , 321.9364 211.046025 , 301.9364 208.046025 , 313.9364 194.046025 , 313.9364 194.046025 , 312.9364 177.046025 , 300.9364 194.046025 , 314.9364 ">
</polygon><polygon 
stroke="rgb(174,170,177)"
fill="rgb(174,170,177)"
stroke-width="60"
stroke-linejoin="round" 
opacity="1"
points="230.046025 , 314.9364 221.046025 , 309.9364 219.046025 , 314.9364 216.046025 , 317.9364 219.046025 , 307.9364 215.046025 , 309.9364 214.046025 , 327.9364 224.046025 , 320.9364 217.046025 , 310.9364 208.046025 , 327.9364 203.046025 , 314.9364 206.046025 , 320.9364 ">
</polygon><polygon 
stroke="rgb(174,170,177)"
fill="rgb(174,170,177)"
stroke-width="80"
stroke-linejoin="round" 
opacity="1"
points="170.828125 , 157.25 183.828125 , 154.25 200.828125 , 203.25 225.828125 , 181.25 218.828125 , 155.25 244.828125 , 202.25 233.828125 , 186.25 258.828125 , 208.25 280.828125 , 179.25 286.828125 , 159.25 ">
</polygon><polygon 
stroke="rgb(164,160,167)"
fill="rgb(164,160,167)"
stroke-width="70"
stroke-linejoin="round" 
opacity="1"
points="161.828125 , 197.25 166.828125 , 162.25 171.828125 , 199.25 190.828125 , 187.25 172.828125 , 186.25 164.828125 , 163.25 160.828125 , 187.25 147.828125 , 171.25 147.828125 , 165.25 132.828125 , 186.25 112.828125 , 183.25 102.828125 , 201.25 86.828125 , 164.25 79.828125 , 191.25 72.828125 , 161.25 81.828125 , 196.25 80.828125 , 182.25 64.828125 , 184.25 63.828125 , 199.25 55.828125 , 179.25 74.828125 , 176.25 93.828125 , 192.25 110.828125 , 183.25 126.828125 , 200.25 124.828125 , 185.25 ">
</polygon><path d="M 240 480 c 15.466666666667,-160.53333333333 27.066666666667,-137.6 29,-344 
C 310.06666666667,371.4 298.46666666667,348.46666666667 281,480
 " stroke="rgb(50,83,165)" stroke-linejoin="arcs"  stroke-width="5" fill="rgb(50,83,165)"/><path d="M 262.4112 300.0192 c -90.133333333333,-38.933333333333 -76.266666666667,-34.066666666667 -104,-73 
C 196.54453333333,275.07753333333 182.67786666667,270.21086666667 261.046025,312.9364
 " stroke="rgb(50,83,165)" stroke-linejoin="arcs"  stroke-width="5" fill="rgb(50,83,165)"/><path d="M 266.7264 235.6224 c 53.866666666667,-9.6 60.6,-19.2 101,-48 
C 337.4264,222.4224 330.69306666667,232.0224 265.828125,254.25
 " stroke="rgb(50,83,165)" stroke-linejoin="arcs"  stroke-width="5" fill="rgb(50,83,165)"/><path d="M 268.1358 191.4528 c 29.6,-8 98.666666666667,-8 148,-20 
C 381.60246666667,185.9528 312.5358,185.9528 267.497075,214.7932
 " stroke="rgb(50,83,165)" stroke-linejoin="arcs"  stroke-width="5" fill="rgb(50,83,165)"/><path d="M 262.4112 300.0192 c -32.066666666667,-6.2 -29.6,-14.466666666667 -37,-31 
C 236.5112,289.42753333333 234.04453333333,297.6942 261.046025,312.9364
 " stroke="rgb(50,83,165)" stroke-linejoin="arcs"  stroke-width="5" fill="rgb(50,83,165)"/><path d="M 261.046025 312.9364 c 23.4,-8.2 33.8,-19.133333333333 39,-41 
C 298.746025,298.92806666667 288.346025,309.8614 259.575,325.2
 " stroke="rgb(50,83,165)" stroke-linejoin="arcs"  stroke-width="5" fill="rgb(50,83,165)"/><path d="M 259.575 325.2 c -6.5333333333333,-33.066666666667 0,-33.066666666667 -49,-62 
C 264.475,299.88333333333 257.94166666667,299.88333333333 258.002475,337.1196
 " stroke="rgb(50,83,165)" stroke-linejoin="arcs"  stroke-width="5" fill="rgb(50,83,165)"/><path d="M 264.8066 270.9856 c -17.666666666667,-8.6666666666667 0,-13 -53,-65 
C 270.1066,266.1106 252.43993333333,270.44393333333 263.666175,286.1388
 " stroke="rgb(50,83,165)" stroke-linejoin="arcs"  stroke-width="5" fill="rgb(50,83,165)"/><path d="M 261.046025 312.9364 c -19.733333333333,2.3333333333333 -2.4666666666667,1 -37,5 
C 262.27935833333,314.5614 245.01269166667,315.89473333333 259.575,325.2
 " stroke="rgb(50,83,165)" stroke-linejoin="arcs"  stroke-width="5" fill="rgb(50,83,165)"/><path d="M 265.828125 254.25 c -72.8,-38.933333333333 -22.4,-34.066666666667 -84,-73 
C 251.828125,229.30833333333 201.428125,224.44166666667 264.8066,270.9856
 " stroke="rgb(50,83,165)" stroke-linejoin="arcs"  stroke-width="5" fill="rgb(50,83,165)"/><polygon 
stroke="rgb(174,170,177)"
fill="rgb(174,170,177)"
stroke-width="60"
stroke-linejoin="round" 
opacity="1"
points="155.4112 , 222.0192 153.4112 , 237.0192 163.4112 , 235.0192 172.4112 , 229.0192 164.4112 , 233.0192 165.4112 , 217.0192 165.4112 , 231.0192 166.4112 , 217.0192 157.4112 , 231.0192 150.4112 , 228.0192 155.4112 , 224.0192 154.4112 , 218.0192 154.4112 , 230.0192 144.4112 , 236.0192 149.4112 , 226.0192 151.4112 , 219.0192 156.4112 , 234.0192 165.4112 , 228.0192 160.4112 , 224.0192 163.4112 , 227.0192 167.4112 , 228.0192 174.4112 , 234.0192 170.4112 , 234.0192 169.4112 , 224.0192 ">
</polygon><polygon 
stroke="rgb(184,180,187)"
fill="rgb(184,180,187)"
stroke-width="60"
stroke-linejoin="round" 
opacity="1"
points="361.7264 , 194.6224 360.7264 , 186.6224 368.7264 , 181.6224 370.7264 , 194.6224 372.7264 , 189.6224 367.7264 , 197.6224 370.7264 , 183.6224 373.7264 , 188.6224 377.7264 , 188.6224 384.7264 , 190.6224 379.7264 , 185.6224 371.7264 , 191.6224 371.7264 , 193.6224 371.7264 , 193.6224 372.7264 , 190.6224 373.7264 , 192.6224 ">
</polygon><polygon 
stroke="rgb(184,180,187)"
fill="rgb(184,180,187)"
stroke-width="70"
stroke-linejoin="round" 
opacity="1"
points="421.1358 , 182.4528 402.1358 , 156.4528 414.1358 , 179.4528 415.1358 , 156.4528 403.1358 , 186.4528 396.1358 , 161.4528 402.1358 , 168.4528 388.1358 , 175.4528 396.1358 , 156.4528 393.1358 , 161.4528 390.1358 , 169.4528 371.1358 , 153.4528 367.1358 , 181.4528 372.1358 , 177.4528 357.1358 , 173.4528 361.1358 , 178.4528 379.1358 , 183.4528 392.1358 , 181.4528 ">
</polygon><polygon 
stroke="rgb(174,170,177)"
fill="rgb(174,170,177)"
stroke-width="80"
stroke-linejoin="round" 
opacity="1"
points="214.575 , 245.2 192.575 , 275.2 207.575 , 293.2 215.575 , 258.2 228.575 , 242.2 232.575 , 281.2 254.575 , 242.2 280.575 , 240.2 294.575 , 244.2 278.575 , 242.2 308.575 , 245.2 338.575 , 276.2 335.575 , 284.2 364.575 , 263.2 340.575 , 260.2 340.575 , 283.2 ">
</polygon><polygon 
stroke="rgb(184,180,187)"
fill="rgb(184,180,187)"
stroke-width="60"
stroke-linejoin="round" 
opacity="1"
points="171.828125 , 182.25 178.828125 , 172.25 173.828125 , 174.25 168.828125 , 177.25 175.828125 , 176.25 185.828125 , 172.25 189.828125 , 190.25 187.828125 , 174.25 197.828125 , 183.25 205.828125 , 171.25 196.828125 , 176.25 189.828125 , 183.25 182.828125 , 181.25 183.828125 , 182.25 173.828125 , 185.25 167.828125 , 171.25 161.828125 , 184.25 156.828125 , 181.25 166.828125 , 185.25 171.828125 , 189.25 180.828125 , 183.25 180.828125 , 183.25 188.828125 , 178.25 179.828125 , 175.25 179.828125 , 186.25 181.828125 , 182.25 185.828125 , 188.25 ">
</polygon></svg>