<?xml version="1.0" encoding="iso-8859-1"?>
<svg version="1.1" id="Capa_1" xmlns="http://www.w3.org/2000/svg" xmlns:xlink="http://www.w3.org/1999/xlink" x="0px" y="0px"
viewBox="0 0 500 500" xml:space="preserve"><defs></defs><polygon 
stroke="rgb(96,113,122)"
fill="rgb(96,113,122)"
stroke-width="70"
stroke-linejoin="round" 
opacity="1"
points="330 , 137 332 , 142 330 , 149 313 , 142 293 , 148 283 , 123 280 , 140 294 , 126 296 , 132 300 , 140 284 , 156 299 , 127 314 , 146 305 , 157 323 , 153 312 , 152 ">
</polygon><polygon 
stroke="rgb(96,113,122)"
fill="rgb(96,113,122)"
stroke-width="60"
stroke-linejoin="round" 
opacity="1"
points="225.1596 , 277.2928 221.1596 , 281.2928 212.1596 , 289.2928 221.1596 , 281.2928 211.1596 , 277.2928 209.1596 , 285.2928 201.1596 , 292.2928 195.1596 , 284.2928 196.1596 , 284.2928 197.1596 , 276.2928 200.1596 , 279.2928 210.1596 , 289.2928 208.1596 , 292.2928 198.1596 , 287.2928 204.1596 , 287.2928 196.1596 , 292.2928 187.1596 , 287.2928 179.1596 , 291.2928 170.1596 , 275.2928 175.1596 , 275.2928 176.1596 , 291.2928 181.1596 , 289.2928 180.1596 , 288.2928 187.1596 , 289.2928 183.1596 , 280.2928 181.1596 , 280.2928 ">
</polygon><polygon 
stroke="rgb(96,113,122)"
fill="rgb(96,113,122)"
stroke-width="80"
stroke-linejoin="round" 
opacity="1"
points="426.0681 , 95.8683 427.0681 , 129.8683 410.0681 , 136.8683 436.0681 , 110.8683 447.0681 , 123.8683 448.0681 , 121.8683 421.0681 , 131.8683 392.0681 , 87.8683 416.0681 , 129.8683 413.0681 , 128.8683 440.0681 , 127.8683 436.0681 , 94.8683 438.0681 , 135.8683 449.0681 , 94.8683 441.0681 , 121.8683 435.0681 , 104.8683 439.0681 , 118.8683 411.0681 , 90.8683 387.0681 , 139.8683 374.0681 , 111.8683 395.0681 , 86.8683 383.0681 , 129.8683 372.0681 , 104.8683 364.0681 , 88.8683 378.0681 , 123.8683 402.0681 , 120.8683 425.0681 , 88.8683 426.0681 , 138.8683 ">
</polygon><polygon 
stroke="rgb(106,123,132)"
fill="rgb(106,123,132)"
stroke-width="60"
stroke-linejoin="round" 
opacity="1"
points="446.0681 , 120.8683 446.0681 , 113.8683 445.0681 , 109.8683 437.0681 , 117.8683 443.0681 , 104.8683 444.0681 , 104.8683 440.0681 , 116.8683 442.0681 , 116.8683 449.0681 , 116.8683 447.0681 , 106.8683 449.0681 , 112.8683 443.0681 , 104.8683 445.0681 , 114.8683 445.0681 , 109.8683 436.0681 , 104.8683 430.0681 , 108.8683 429.0681 , 102.8683 436.0681 , 119.8683 439.0681 , 118.8683 449.0681 , 101.8683 446.0681 , 102.8683 437.0681 , 101.8683 445.0681 , 107.8683 440.0681 , 116.8683 435.0681 , 105.8683 426.0681 , 106.8683 425.0681 , 118.8683 430.0681 , 104.8683 438.0681 , 118.8683 444.0681 , 105.8683 ">
</polygon><polygon 
stroke="rgb(96,113,122)"
fill="rgb(96,113,122)"
stroke-width="80"
stroke-linejoin="round" 
opacity="1"
points="394.8384 , 277.8752 386.8384 , 248.8752 361.8384 , 253.8752 340.8384 , 262.8752 321.8384 , 242.8752 293.8384 , 255.8752 276.8384 , 245.8752 264.8384 , 267.8752 286.8384 , 257.8752 271.8384 , 237.8752 271.8384 , 245.8752 283.8384 , 235.8752 254.8384 , 278.8752 254.8384 , 262.8752 271.8384 , 232.8752 247.8384 , 289.8752 230.8384 , 290.8752 256.8384 , 259.8752 263.8384 , 236.8752 280.8384 , 281.8752 254.8384 , 288.8752 228.8384 , 271.8752 209.8384 , 250.8752 236.8384 , 290.8752 215.8384 , 236.8752 ">
</polygon><polygon 
stroke="rgb(96,113,122)"
fill="rgb(96,113,122)"
stroke-width="70"
stroke-linejoin="round" 
opacity="1"
points="408.8384 , 271.8752 427.8384 , 249.8752 445.8384 , 260.8752 444.8384 , 260.8752 437.8384 , 274.8752 448.8384 , 277.8752 439.8384 , 271.8752 449.8384 , 274.8752 444.8384 , 269.8752 428.8384 , 259.8752 421.8384 , 246.8752 419.8384 , 250.8752 402.8384 , 256.8752 398.8384 , 263.8752 403.8384 , 247.8752 ">
</polygon><polygon 
stroke="rgb(116,133,142)"
fill="rgb(116,133,142)"
stroke-width="70"
stroke-linejoin="round" 
opacity="1"
points="317.5072 , 318.3136 325.5072 , 319.3136 310.5072 , 344.3136 315.5072 , 328.3136 305.5072 , 320.3136 322.5072 , 345.3136 329.5072 , 346.3136 347.5072 , 337.3136 332.5072 , 344.3136 332.5072 , 349.3136 336.5072 , 325.3136 342.5072 , 318.3136 355.5072 , 330.3136 343.5072 , 315.3136 336.5072 , 322.3136 319.5072 , 340.3136 304.5072 , 338.3136 301.5072 , 335.3136 ">
</polygon><polygon 
stroke="rgb(106,123,132)"
fill="rgb(106,123,132)"
stroke-width="60"
stroke-linejoin="round" 
opacity="1"
points="317.5072 , 332.3136 315.5072 , 323.3136 306.5072 , 334.3136 300.5072 , 321.3136 296.5072 , 337.3136 289.5072 , 324.3136 294.5072 , 339.3136 293.5072 , 333.3136 295.5072 , 321.3136 300.5072 , 336.3136 299.5072 , 322.3136 300.5072 , 332.3136 300.5072 , 336.3136 301.5072 , 330.3136 302.5072 , 333.3136 297.5072 , 339.3136 307.5072 , 326.3136 299.5072 , 338.3136 ">
</polygon><polygon 
stroke="rgb(116,133,142)"
fill="rgb(116,133,142)"
stroke-width="60"
stroke-linejoin="round" 
opacity="1"
points="365.5625 , 280.0375 360.5625 , 279.0375 367.5625 , 291.0375 373.5625 , 274.0375 368.5625 , 286.0375 362.5625 , 281.0375 354.5625 , 288.0375 352.5625 , 279.0375 360.5625 , 284.0375 366.5625 , 289.0375 369.5625 , 274.0375 373.5625 , 286.0375 368.5625 , 287.0375 366.5625 , 275.0375 363.5625 , 274.0375 356.5625 , 286.0375 365.5625 , 282.0375 372.5625 , 280.0375 379.5625 , 277.0375 386.5625 , 273.0375 394.5625 , 276.0375 389.5625 , 289.0375 379.5625 , 280.0375 386.5625 , 287.0375 383.5625 , 284.0375 386.5625 , 276.0375 ">
</polygon><polygon 
stroke="rgb(106,123,132)"
fill="rgb(106,123,132)"
stroke-width="80"
stroke-linejoin="round" 
opacity="1"
points="302.5133 , 364.9489 309.5133 , 323.9489 293.5133 , 321.9489 311.5133 , 308.9489 341.5133 , 352.9489 356.5133 , 321.9489 364.5133 , 356.9489 348.5133 , 327.9489 360.5133 , 341.9489 332.5133 , 358.9489 318.5133 , 366.9489 300.5133 , 339.9489 283.5133 , 357.9489 304.5133 , 307.9489 304.5133 , 349.9489 311.5133 , 310.9489 341.5133 , 355.9489 333.5133 , 334.9489 ">
</polygon><polygon 
stroke="rgb(106,123,132)"
fill="rgb(106,123,132)"
stroke-width="60"
stroke-linejoin="round" 
opacity="1"
points="289.5133 , 337.9489 285.5133 , 333.9489 284.5133 , 347.9489 292.5133 , 330.9489 296.5133 , 333.9489 286.5133 , 329.9489 291.5133 , 341.9489 288.5133 , 340.9489 297.5133 , 332.9489 295.5133 , 337.9489 286.5133 , 338.9489 277.5133 , 328.9489 271.5133 , 334.9489 261.5133 , 331.9489 265.5133 , 337.9489 264.5133 , 341.9489 267.5133 , 342.9489 260.5133 , 328.9489 252.5133 , 346.9489 258.5133 , 327.9489 261.5133 , 328.9489 265.5133 , 343.9489 257.5133 , 338.9489 266.5133 , 331.9489 271.5133 , 333.9489 ">
</polygon><polygon 
stroke="rgb(106,123,132)"
fill="rgb(106,123,132)"
stroke-width="80"
stroke-linejoin="round" 
opacity="1"
points="249.95 , 316.4 236.95 , 345.4 262.95 , 317.4 235.95 , 342.4 209.95 , 298.4 225.95 , 299.4 200.95 , 314.4 202.95 , 314.4 228.95 , 310.4 231.95 , 344.4 204.95 , 326.4 189.95 , 310.4 162.95 , 328.4 180.95 , 327.4 200.95 , 328.4 190.95 , 287.4 218.95 , 312.4 205.95 , 343.4 183.95 , 308.4 178.95 , 337.4 170.95 , 298.4 172.95 , 331.4 ">
</polygon><polygon 
stroke="rgb(116,133,142)"
fill="rgb(116,133,142)"
stroke-width="60"
stroke-linejoin="round" 
opacity="1"
points="269.95 , 312.4 267.95 , 309.4 266.95 , 322.4 271.95 , 308.4 274.95 , 325.4 281.95 , 314.4 283.95 , 321.4 275.95 , 316.4 276.95 , 322.4 286.95 , 324.4 287.95 , 326.4 289.95 , 306.4 295.95 , 306.4 ">
</polygon><polygon 
stroke="rgb(116,133,142)"
fill="rgb(116,133,142)"
stroke-width="80"
stroke-linejoin="round" 
opacity="1"
points="449.1037 , 211.4981 443.1037 , 221.4981 421.1037 , 199.4981 435.1037 , 230.4981 433.1037 , 198.4981 405.1037 , 192.4981 395.1037 , 191.4981 403.1037 , 238.4981 432.1037 , 235.4981 436.1037 , 205.4981 445.1037 , 195.4981 428.1037 , 206.4981 401.1037 , 188.4981 420.1037 , 207.4981 399.1037 , 232.4981 405.1037 , 236.4981 418.1037 , 203.4981 432.1037 , 188.4981 406.1037 , 226.4981 425.1037 , 234.4981 412.1037 , 220.4981 ">
</polygon><polygon 
stroke="rgb(96,113,122)"
fill="rgb(96,113,122)"
stroke-width="70"
stroke-linejoin="round" 
opacity="1"
points="447.1037 , 220.4981 443.1037 , 200.4981 446.1037 , 194.4981 429.1037 , 211.4981 415.1037 , 223.4981 395.1037 , 203.4981 391.1037 , 204.4981 404.1037 , 189.4981 393.1037 , 216.4981 381.1037 , 217.4981 385.1037 , 188.4981 404.1037 , 196.4981 413.1037 , 192.4981 406.1037 , 202.4981 399.1037 , 190.4981 419.1037 , 204.4981 419.1037 , 198.4981 414.1037 , 197.4981 400.1037 , 195.4981 399.1037 , 203.4981 ">
</polygon><polygon 
stroke="rgb(96,113,122)"
fill="rgb(96,113,122)"
stroke-width="60"
stroke-linejoin="round" 
opacity="1"
points="439.1037 , 210.4981 433.1037 , 200.4981 427.1037 , 212.4981 426.1037 , 203.4981 424.1037 , 208.4981 425.1037 , 199.4981 419.1037 , 199.4981 414.1037 , 198.4981 413.1037 , 211.4981 403.1037 , 209.4981 401.1037 , 214.4981 404.1037 , 205.4981 414.1037 , 204.4981 419.1037 , 209.4981 409.1037 , 213.4981 405.1037 , 214.4981 405.1037 , 204.4981 395.1037 , 199.4981 398.1037 , 218.4981 396.1037 , 212.4981 400.1037 , 206.4981 ">
</polygon><polygon 
stroke="rgb(116,133,142)"
fill="rgb(116,133,142)"
stroke-width="80"
stroke-linejoin="round" 
opacity="1"
points="405.8384 , 304.8752 435.8384 , 290.8752 429.8384 , 292.8752 439.8384 , 277.8752 440.8384 , 284.8752 440.8384 , 255.8752 430.8384 , 251.8752 417.8384 , 286.8752 415.8384 , 301.8752 421.8384 , 259.8752 420.8384 , 254.8752 441.8384 , 308.8752 448.8384 , 285.8752 429.8384 , 252.8752 417.8384 , 262.8752 434.8384 , 301.8752 423.8384 , 304.8752 417.8384 , 307.8752 439.8384 , 284.8752 440.8384 , 257.8752 426.8384 , 268.8752 399.8384 , 310.8752 412.8384 , 258.8752 393.8384 , 294.8752 419.8384 , 257.8752 420.8384 , 261.8752 446.8384 , 259.8752 449.8384 , 262.8752 428.8384 , 276.8752 ">
</polygon><polygon 
stroke="rgb(96,113,122)"
fill="rgb(96,113,122)"
stroke-width="70"
stroke-linejoin="round" 
opacity="1"
points="432.8384 , 268.8752 420.8384 , 295.8752 404.8384 , 292.8752 423.8384 , 263.8752 415.8384 , 285.8752 397.8384 , 288.8752 408.8384 , 274.8752 391.8384 , 287.8752 373.8384 , 289.8752 353.8384 , 287.8752 334.8384 , 262.8752 330.8384 , 278.8752 342.8384 , 297.8752 324.8384 , 265.8752 ">
</polygon><polygon 
stroke="rgb(106,123,132)"
fill="rgb(106,123,132)"
stroke-width="60"
stroke-linejoin="round" 
opacity="1"
points="411.8384 , 284.8752 405.8384 , 282.8752 415.8384 , 271.8752 411.8384 , 278.8752 420.8384 , 286.8752 412.8384 , 289.8752 411.8384 , 287.8752 415.8384 , 280.8752 417.8384 , 285.8752 409.8384 , 281.8752 405.8384 , 288.8752 414.8384 , 280.8752 421.8384 , 274.8752 422.8384 , 288.8752 412.8384 , 284.8752 410.8384 , 277.8752 402.8384 , 285.8752 ">
</polygon><path d="M 240 480 c 38.8,-91.2 19.4,-68.4 97,-342 
C 310.4,432.6 329.8,409.8 289,480
 " stroke="rgb(118,169,191)" stroke-linejoin="arcs"  stroke-width="5" fill="rgb(118,169,191)"/><path d="M 289.1596 315.2928 c -30.333333333333,-8 -65,-16 -65,-30 
C 230.6596,303.0428 265.32626666667,311.0428 284.5133,333.9489
 " stroke="rgb(118,169,191)" stroke-linejoin="arcs"  stroke-width="5" fill="rgb(118,169,191)"/><path d="M 326.0681 176.8683 c 77.4,-21.666666666667 51.6,-8.6666666666667 129,-65 
C 390.5681,176.32663333333 416.3681,163.32663333333 316.4748,211.5984
 " stroke="rgb(118,169,191)" stroke-linejoin="arcs"  stroke-width="5" fill="rgb(118,169,191)"/><path d="M 300.8384 269.8752 c 14.4,-0.93333333333333 28.8,-3.7333333333333 108,-7 
C 340.4384,267.01686666667 326.0384,269.81686666667 294.5625,294.0375
 " stroke="rgb(118,169,191)" stroke-linejoin="arcs"  stroke-width="5" fill="rgb(118,169,191)"/><path d="M 280.5072 350.3136 c 25.133333333333,-6.6666666666667 0,-2.6666666666667 29,-20 
C 283.4072,350.14693333333 308.54053333333,346.14693333333 277.0249,364.6947
 " stroke="rgb(118,169,191)" stroke-linejoin="arcs"  stroke-width="5" fill="rgb(118,169,191)"/><path d="M 294.5625 294.0375 c 9.2,-6.0666666666667 64.4,-6.9333333333333 69,-13 
C 365.8625,288.72916666667 310.6625,289.59583333333 289.1596,315.2928
 " stroke="rgb(118,169,191)" stroke-linejoin="arcs"  stroke-width="5" fill="rgb(118,169,191)"/><path d="M 284.5133 333.9489 c 0.26666666666667,1.3333333333333 1.0666666666667,1.8666666666667 2,4 
C 285.77996666667,336.31556666667 284.97996666667,335.78223333333 280.5072,350.3136
 " stroke="rgb(118,169,191)" stroke-linejoin="arcs"  stroke-width="5" fill="rgb(118,169,191)"/><path d="M 273.95 377.4 c -5,-8.1333333333333 -2,-8.1333333333333 -5,-61 
C 272.45,376.89166666667 269.45,376.89166666667 271.1661,388.7373
 " stroke="rgb(118,169,191)" stroke-linejoin="arcs"  stroke-width="5" fill="rgb(118,169,191)"/><path d="M 308.1037 242.4981 c 94,-13.6 141,-13.6 141,-34 
C 463.2037,233.1481 416.2037,233.1481 300.8384,269.8752
 " stroke="rgb(118,169,191)" stroke-linejoin="arcs"  stroke-width="5" fill="rgb(118,169,191)"/><path d="M 300.8384 269.8752 c 85.066666666667,5.8666666666667 61.866666666667,4.4 116,11 
C 374.30506666667,275.6502 397.50506666667,277.11686666667 294.5625,294.0375
 " stroke="rgb(118,169,191)" stroke-linejoin="arcs"  stroke-width="5" fill="rgb(118,169,191)"/><polygon 
stroke="rgb(96,113,122)"
fill="rgb(96,113,122)"
stroke-width="80"
stroke-linejoin="round" 
opacity="1"
points="314 , 128 335 , 137 331 , 132 320 , 108 330 , 145 341 , 112 325 , 146 338 , 112 311 , 151 322 , 151 ">
</polygon><polygon 
stroke="rgb(106,123,132)"
fill="rgb(106,123,132)"
stroke-width="60"
stroke-linejoin="round" 
opacity="1"
points="342 , 139 342 , 148 338 , 133 339 , 130 348 , 140 341 , 132 348 , 147 354 , 145 353 , 146 356 , 135 347 , 138 351 , 129 ">
</polygon><polygon 
stroke="rgb(106,123,132)"
fill="rgb(106,123,132)"
stroke-width="80"
stroke-linejoin="round" 
opacity="1"
points="223.1596 , 313.2928 215.1596 , 285.2928 245.1596 , 255.2928 238.1596 , 289.2928 250.1596 , 311.2928 253.1596 , 314.2928 273.1596 , 267.2928 264.1596 , 293.2928 290.1596 , 270.2928 276.1596 , 259.2928 267.1596 , 280.2928 265.1596 , 294.2928 286.1596 , 310.2928 ">
</polygon><polygon 
stroke="rgb(96,113,122)"
fill="rgb(96,113,122)"
stroke-width="70"
stroke-linejoin="round" 
opacity="1"
points="223.1596 , 275.2928 229.1596 , 271.2928 232.1596 , 276.2928 230.1596 , 302.2928 213.1596 , 265.2928 209.1596 , 275.2928 214.1596 , 286.2928 194.1596 , 300.2928 208.1596 , 278.2928 202.1596 , 289.2928 222.1596 , 270.2928 222.1596 , 296.2928 208.1596 , 270.2928 209.1596 , 301.2928 189.1596 , 288.2928 198.1596 , 295.2928 200.1596 , 294.2928 210.1596 , 271.2928 193.1596 , 295.2928 191.1596 , 288.2928 206.1596 , 287.2928 205.1596 , 277.2928 186.1596 , 271.2928 198.1596 , 279.2928 180.1596 , 305.2928 185.1596 , 296.2928 198.1596 , 285.2928 195.1596 , 272.2928 195.1596 , 277.2928 188.1596 , 276.2928 ">
</polygon><polygon 
stroke="rgb(116,133,142)"
fill="rgb(116,133,142)"
stroke-width="70"
stroke-linejoin="round" 
opacity="1"
points="443.0681 , 124.8683 440.0681 , 121.8683 441.0681 , 97.8683 434.0681 , 117.8683 418.0681 , 121.8683 401.0681 , 98.8683 405.0681 , 106.8683 424.0681 , 127.8683 426.0681 , 113.8683 427.0681 , 95.8683 408.0681 , 126.8683 388.0681 , 91.8683 380.0681 , 95.8683 378.0681 , 94.8683 376.0681 , 101.8683 366.0681 , 94.8683 376.0681 , 105.8683 388.0681 , 107.8683 408.0681 , 108.8683 420.0681 , 102.8683 404.0681 , 91.8683 386.0681 , 98.8683 382.0681 , 122.8683 369.0681 , 107.8683 354.0681 , 104.8683 ">
</polygon><polygon 
stroke="rgb(96,113,122)"
fill="rgb(96,113,122)"
stroke-width="60"
stroke-linejoin="round" 
opacity="1"
points="415.8384 , 260.8752 421.8384 , 256.8752 421.8384 , 253.8752 416.8384 , 260.8752 409.8384 , 266.8752 410.8384 , 254.8752 411.8384 , 265.8752 407.8384 , 264.8752 417.8384 , 270.8752 418.8384 , 260.8752 427.8384 , 258.8752 430.8384 , 262.8752 436.8384 , 263.8752 434.8384 , 261.8752 430.8384 , 253.8752 431.8384 , 269.8752 438.8384 , 272.8752 441.8384 , 266.8752 436.8384 , 268.8752 429.8384 , 270.8752 434.8384 , 268.8752 ">
</polygon><polygon 
stroke="rgb(106,123,132)"
fill="rgb(106,123,132)"
stroke-width="80"
stroke-linejoin="round" 
opacity="1"
points="279.5072 , 354.3136 276.5072 , 342.3136 302.5072 , 311.3136 288.5072 , 330.3136 259.5072 , 358.3136 283.5072 , 358.3136 310.5072 , 329.3136 284.5072 , 325.3136 280.5072 , 346.3136 281.5072 , 307.3136 300.5072 , 325.3136 291.5072 , 302.3136 302.5072 , 341.3136 323.5072 , 358.3136 331.5072 , 343.3136 310.5072 , 343.3136 301.5072 , 338.3136 272.5072 , 359.3136 248.5072 , 331.3136 253.5072 , 311.3136 235.5072 , 331.3136 265.5072 , 333.3136 278.5072 , 304.3136 284.5072 , 325.3136 270.5072 , 316.3136 242.5072 , 331.3136 245.5072 , 307.3136 ">
</polygon><polygon 
stroke="rgb(116,133,142)"
fill="rgb(116,133,142)"
stroke-width="80"
stroke-linejoin="round" 
opacity="1"
points="350.5625 , 255.0375 327.5625 , 301.0375 349.5625 , 302.0375 319.5625 , 288.0375 346.5625 , 291.0375 325.5625 , 291.0375 334.5625 , 256.0375 335.5625 , 279.0375 319.5625 , 261.0375 301.5625 , 271.0375 285.5625 , 265.0375 288.5625 , 285.0375 299.5625 , 255.0375 275.5625 , 307.0375 275.5625 , 254.0375 287.5625 , 276.0375 269.5625 , 251.0375 252.5625 , 251.0375 ">
</polygon><polygon 
stroke="rgb(96,113,122)"
fill="rgb(96,113,122)"
stroke-width="70"
stroke-linejoin="round" 
opacity="1"
points="371.5625 , 286.0375 354.5625 , 281.0375 364.5625 , 272.0375 370.5625 , 278.0375 356.5625 , 288.0375 370.5625 , 276.0375 375.5625 , 270.0375 380.5625 , 291.0375 387.5625 , 298.0375 373.5625 , 296.0375 359.5625 , 300.0375 339.5625 , 284.0375 332.5625 , 285.0375 ">
</polygon><polygon 
stroke="rgb(96,113,122)"
fill="rgb(96,113,122)"
stroke-width="70"
stroke-linejoin="round" 
opacity="1"
points="294.5133 , 323.9489 281.5133 , 349.9489 267.5133 , 352.9489 254.5133 , 345.9489 272.5133 , 325.9489 260.5133 , 355.9489 252.5133 , 334.9489 239.5133 , 321.9489 221.5133 , 355.9489 234.5133 , 323.9489 ">
</polygon><polygon 
stroke="rgb(116,133,142)"
fill="rgb(116,133,142)"
stroke-width="70"
stroke-linejoin="round" 
opacity="1"
points="259.95 , 336.4 255.95 , 331.4 235.95 , 329.4 238.95 , 304.4 227.95 , 336.4 233.95 , 334.4 221.95 , 296.4 218.95 , 308.4 200.95 , 317.4 216.95 , 324.4 214.95 , 312.4 229.95 , 322.4 215.95 , 314.4 208.95 , 305.4 199.95 , 303.4 179.95 , 301.4 185.95 , 312.4 195.95 , 315.4 201.95 , 335.4 198.95 , 335.4 191.95 , 311.4 198.95 , 309.4 196.95 , 302.4 214.95 , 332.4 210.95 , 313.4 205.95 , 334.4 198.95 , 307.4 210.95 , 316.4 217.95 , 299.4 ">
</polygon></svg>