<?xml version="1.0" encoding="iso-8859-1"?>
<svg version="1.1" id="Capa_1" xmlns="http://www.w3.org/2000/svg" xmlns:xlink="http://www.w3.org/1999/xlink" x="0px" y="0px"
viewBox="0 0 500 500" xml:space="preserve"><defs></defs><polygon 
stroke="rgb(123,161,89)"
fill="rgb(123,161,89)"
stroke-width="80"
stroke-linejoin="round" 
opacity="1"
points="279 , 169 285 , 121 263 , 132 264 , 155 253 , 135 232 , 159 249 , 135 234 , 173 210 , 178 203 , 154 196 , 140 181 , 171 160 , 173 140 , 145 154 , 163 132 , 135 112 , 166 127 , 175 106 , 146 96 , 166 88 , 164 87 , 146 87 , 175 81 , 123 96 , 144 ">
</polygon><polygon 
stroke="rgb(123,161,89)"
fill="rgb(123,161,89)"
stroke-width="70"
stroke-linejoin="round" 
opacity="1"
points="291 , 148 311 , 160 302 , 154 310 , 132 306 , 159 290 , 164 300 , 138 298 , 134 313 , 160 294 , 167 311 , 145 304 , 170 296 , 149 280 , 171 280 , 156 283 , 161 269 , 135 272 , 140 260 , 150 274 , 159 288 , 158 291 , 156 272 , 171 ">
</polygon><polygon 
stroke="rgb(123,161,89)"
fill="rgb(123,161,89)"
stroke-width="80"
stroke-linejoin="round" 
opacity="1"
points="185.425 , 174.09375 180.425 , 213.09375 179.425 , 194.09375 170.425 , 190.09375 164.425 , 198.09375 149.425 , 165.09375 134.425 , 188.09375 133.425 , 178.09375 123.425 , 179.09375 143.425 , 174.09375 159.425 , 158.09375 171.425 , 209.09375 188.425 , 185.09375 173.425 , 179.09375 164.425 , 188.09375 169.425 , 157.09375 148.425 , 203.09375 168.425 , 160.09375 164.425 , 199.09375 162.425 , 168.09375 156.425 , 215.09375 161.425 , 192.09375 159.425 , 199.09375 188.425 , 171.09375 201.425 , 163.09375 220.425 , 213.09375 250.425 , 208.09375 226.425 , 161.09375 256.425 , 206.09375 ">
</polygon><polygon 
stroke="rgb(133,171,99)"
fill="rgb(133,171,99)"
stroke-width="70"
stroke-linejoin="round" 
opacity="1"
points="142.425 , 182.09375 135.425 , 190.09375 140.425 , 205.09375 133.425 , 175.09375 134.425 , 191.09375 148.425 , 189.09375 135.425 , 178.09375 141.425 , 199.09375 136.425 , 176.09375 144.425 , 192.09375 139.425 , 203.09375 150.425 , 188.09375 143.425 , 185.09375 124.425 , 166.09375 120.425 , 202.09375 112.425 , 180.09375 116.425 , 192.09375 131.425 , 196.09375 121.425 , 184.09375 115.425 , 179.09375 98.425 , 192.09375 106.425 , 193.09375 97.425 , 189.09375 95.425 , 172.09375 79.425 , 186.09375 96.425 , 202.09375 97.425 , 185.09375 ">
</polygon><polygon 
stroke="rgb(143,181,109)"
fill="rgb(143,181,109)"
stroke-width="60"
stroke-linejoin="round" 
opacity="1"
points="162.425 , 179.09375 160.425 , 181.09375 155.425 , 184.09375 149.425 , 193.09375 145.425 , 192.09375 137.425 , 175.09375 141.425 , 192.09375 149.425 , 184.09375 154.425 , 187.09375 147.425 , 180.09375 139.425 , 193.09375 141.425 , 193.09375 132.425 , 183.09375 138.425 , 195.09375 133.425 , 186.09375 132.425 , 178.09375 134.425 , 195.09375 129.425 , 179.09375 119.425 , 178.09375 120.425 , 184.09375 116.425 , 194.09375 106.425 , 176.09375 113.425 , 178.09375 108.425 , 186.09375 98.425 , 188.09375 ">
</polygon><polygon 
stroke="rgb(123,161,89)"
fill="rgb(123,161,89)"
stroke-width="80"
stroke-linejoin="round" 
opacity="1"
points="193.6128 , 258.1728 170.6128 , 281.1728 171.6128 , 259.1728 186.6128 , 279.1728 204.6128 , 281.1728 190.6128 , 286.1728 217.6128 , 233.1728 246.6128 , 282.1728 224.6128 , 252.1728 238.6128 , 268.1728 209.6128 , 260.1728 207.6128 , 281.1728 204.6128 , 243.1728 223.6128 , 278.1728 225.6128 , 229.1728 235.6128 , 273.1728 256.6128 , 232.1728 255.6128 , 263.1728 246.6128 , 245.1728 267.6128 , 243.1728 295.6128 , 241.1728 318.6128 , 238.1728 318.6128 , 239.1728 336.6128 , 251.1728 349.6128 , 275.1728 372.6128 , 269.1728 355.6128 , 245.1728 374.6128 , 257.1728 404.6128 , 287.1728 378.6128 , 245.1728 ">
</polygon><polygon 
stroke="rgb(133,171,99)"
fill="rgb(133,171,99)"
stroke-width="70"
stroke-linejoin="round" 
opacity="1"
points="198.6128 , 274.1728 179.6128 , 267.1728 196.6128 , 264.1728 202.6128 , 266.1728 219.6128 , 245.1728 229.6128 , 271.1728 236.6128 , 275.1728 225.6128 , 247.1728 244.6128 , 237.1728 263.6128 , 265.1728 264.6128 , 273.1728 259.6128 , 244.1728 259.6128 , 238.1728 254.6128 , 272.1728 252.6128 , 246.1728 235.6128 , 250.1728 233.6128 , 245.1728 223.6128 , 249.1728 225.6128 , 243.1728 236.6128 , 250.1728 ">
</polygon><polygon 
stroke="rgb(133,171,99)"
fill="rgb(133,171,99)"
stroke-width="60"
stroke-linejoin="round" 
opacity="1"
points="195.6128 , 253.1728 190.6128 , 247.1728 195.6128 , 252.1728 205.6128 , 247.1728 197.6128 , 259.1728 201.6128 , 257.1728 192.6128 , 255.1728 195.6128 , 252.1728 191.6128 , 254.1728 194.6128 , 256.1728 197.6128 , 261.1728 207.6128 , 247.1728 201.6128 , 256.1728 208.6128 , 256.1728 207.6128 , 261.1728 211.6128 , 250.1728 203.6128 , 249.1728 203.6128 , 257.1728 194.6128 , 262.1728 194.6128 , 261.1728 197.6128 , 252.1728 187.6128 , 247.1728 184.6128 , 264.1728 184.6128 , 261.1728 184.6128 , 264.1728 190.6128 , 255.1728 194.6128 , 252.1728 202.6128 , 247.1728 207.6128 , 262.1728 ">
</polygon><polygon 
stroke="rgb(143,181,109)"
fill="rgb(143,181,109)"
stroke-width="80"
stroke-linejoin="round" 
opacity="1"
points="120.425 , 247.09375 130.425 , 196.09375 122.425 , 212.09375 151.425 , 200.09375 151.425 , 188.09375 176.425 , 232.09375 150.425 , 190.09375 138.425 , 235.09375 144.425 , 238.09375 122.425 , 237.09375 128.425 , 225.09375 134.425 , 200.09375 159.425 , 228.09375 143.425 , 216.09375 126.425 , 211.09375 97.425 , 246.09375 113.425 , 191.09375 113.425 , 236.09375 130.425 , 207.09375 139.425 , 199.09375 115.425 , 245.09375 141.425 , 233.09375 163.425 , 218.09375 159.425 , 203.09375 ">
</polygon><polygon 
stroke="rgb(133,171,99)"
fill="rgb(133,171,99)"
stroke-width="70"
stroke-linejoin="round" 
opacity="1"
points="140.425 , 232.09375 148.425 , 236.09375 132.425 , 234.09375 152.425 , 226.09375 139.425 , 204.09375 150.425 , 197.09375 167.425 , 202.09375 170.425 , 205.09375 180.425 , 233.09375 160.425 , 222.09375 159.425 , 205.09375 140.425 , 215.09375 132.425 , 218.09375 148.425 , 216.09375 161.425 , 217.09375 148.425 , 209.09375 128.425 , 226.09375 140.425 , 237.09375 121.425 , 232.09375 106.425 , 207.09375 87.425 , 237.09375 85.425 , 225.09375 101.425 , 222.09375 ">
</polygon><polygon 
stroke="rgb(133,171,99)"
fill="rgb(133,171,99)"
stroke-width="60"
stroke-linejoin="round" 
opacity="1"
points="146.425 , 218.09375 150.425 , 213.09375 142.425 , 219.09375 137.425 , 226.09375 137.425 , 210.09375 147.425 , 226.09375 143.425 , 216.09375 137.425 , 227.09375 127.425 , 210.09375 119.425 , 215.09375 127.425 , 216.09375 137.425 , 214.09375 128.425 , 211.09375 127.425 , 209.09375 119.425 , 221.09375 117.425 , 208.09375 122.425 , 208.09375 121.425 , 211.09375 117.425 , 222.09375 107.425 , 226.09375 114.425 , 214.09375 120.425 , 220.09375 ">
</polygon><polygon 
stroke="rgb(143,181,109)"
fill="rgb(143,181,109)"
stroke-width="80"
stroke-linejoin="round" 
opacity="1"
points="336.8258 , 357.24955 334.8258 , 337.24955 346.8258 , 368.24955 349.8258 , 357.24955 361.8258 , 360.24955 386.8258 , 333.24955 407.8258 , 322.24955 429.8258 , 322.24955 404.8258 , 331.24955 422.8258 , 355.24955 407.8258 , 331.24955 384.8258 , 354.24955 408.8258 , 358.24955 398.8258 , 317.24955 405.8258 , 322.24955 432.8258 , 364.24955 403.8258 , 357.24955 433.8258 , 331.24955 447.8258 , 372.24955 421.8258 , 352.24955 ">
</polygon><polygon 
stroke="rgb(133,171,99)"
fill="rgb(133,171,99)"
stroke-width="70"
stroke-linejoin="round" 
opacity="1"
points="343.8258 , 343.24955 324.8258 , 361.24955 315.8258 , 349.24955 316.8258 , 328.24955 329.8258 , 323.24955 316.8258 , 345.24955 307.8258 , 340.24955 326.8258 , 352.24955 320.8258 , 345.24955 331.8258 , 343.24955 337.8258 , 331.24955 353.8258 , 346.24955 344.8258 , 326.24955 336.8258 , 343.24955 350.8258 , 358.24955 338.8258 , 346.24955 331.8258 , 361.24955 332.8258 , 340.24955 ">
</polygon><polygon 
stroke="rgb(143,181,109)"
fill="rgb(143,181,109)"
stroke-width="60"
stroke-linejoin="round" 
opacity="1"
points="330.8258 , 336.24955 325.8258 , 350.24955 324.8258 , 333.24955 322.8258 , 340.24955 319.8258 , 349.24955 326.8258 , 344.24955 328.8258 , 343.24955 325.8258 , 332.24955 330.8258 , 337.24955 328.8258 , 345.24955 334.8258 , 346.24955 333.8258 , 346.24955 333.8258 , 341.24955 332.8258 , 340.24955 336.8258 , 348.24955 328.8258 , 347.24955 321.8258 , 342.24955 ">
</polygon><polygon 
stroke="rgb(123,161,89)"
fill="rgb(123,161,89)"
stroke-width="80"
stroke-linejoin="round" 
opacity="1"
points="153.1136 , 185.4816 163.1136 , 188.4816 135.1136 , 176.4816 112.1136 , 189.4816 119.1136 , 169.4816 122.1136 , 198.4816 110.1136 , 168.4816 132.1136 , 154.4816 140.1136 , 190.4816 127.1136 , 157.4816 122.1136 , 163.4816 121.1136 , 156.4816 130.1136 , 196.4816 124.1136 , 192.4816 130.1136 , 191.4816 144.1136 , 179.4816 121.1136 , 170.4816 118.1136 , 176.4816 98.1136 , 175.4816 82.1136 , 157.4816 82.1136 , 180.4816 53.1136 , 169.4816 57.1136 , 193.4816 75.1136 , 155.4816 77.1136 , 199.4816 56.1136 , 186.4816 54.113600000001 , 171.4816 60.113600000001 , 197.4816 57.113600000001 , 190.4816 73.113600000001 , 165.4816 ">
</polygon><polygon 
stroke="rgb(143,181,109)"
fill="rgb(143,181,109)"
stroke-width="70"
stroke-linejoin="round" 
opacity="1"
points="187.1136 , 154.4816 170.1136 , 151.4816 178.1136 , 154.4816 184.1136 , 160.4816 174.1136 , 186.4816 191.1136 , 178.4816 173.1136 , 180.4816 154.1136 , 166.4816 168.1136 , 170.4816 155.1136 , 159.4816 150.1136 , 162.4816 170.1136 , 165.4816 186.1136 , 181.4816 204.1136 , 172.4816 212.1136 , 163.4816 228.1136 , 155.4816 222.1136 , 166.4816 207.1136 , 187.4816 195.1136 , 182.4816 182.1136 , 164.4816 170.1136 , 184.4816 155.1136 , 164.4816 136.1136 , 184.4816 116.1136 , 183.4816 135.1136 , 156.4816 ">
</polygon><polygon 
stroke="rgb(123,161,89)"
fill="rgb(123,161,89)"
stroke-width="60"
stroke-linejoin="round" 
opacity="1"
points="168.1136 , 179.4816 176.1136 , 162.4816 167.1136 , 180.4816 160.1136 , 172.4816 153.1136 , 168.4816 149.1136 , 174.4816 151.1136 , 176.4816 144.1136 , 163.4816 146.1136 , 181.4816 140.1136 , 163.4816 149.1136 , 163.4816 148.1136 , 172.4816 138.1136 , 164.4816 135.1136 , 175.4816 125.1136 , 174.4816 123.1136 , 175.4816 113.1136 , 174.4816 103.1136 , 163.4816 110.1136 , 177.4816 104.1136 , 169.4816 96.1136 , 166.4816 88.1136 , 166.4816 81.1136 , 167.4816 ">
</polygon><polygon 
stroke="rgb(123,161,89)"
fill="rgb(123,161,89)"
stroke-width="70"
stroke-linejoin="round" 
opacity="1"
points="387.8 , 321.4 390.8 , 288.4 403.8 , 304.4 395.8 , 291.4 401.8 , 320.4 397.8 , 291.4 387.8 , 315.4 385.8 , 303.4 389.8 , 295.4 381.8 , 294.4 387.8 , 301.4 380.8 , 318.4 364.8 , 295.4 378.8 , 314.4 384.8 , 289.4 388.8 , 289.4 ">
</polygon><polygon 
stroke="rgb(133,171,99)"
fill="rgb(133,171,99)"
stroke-width="60"
stroke-linejoin="round" 
opacity="1"
points="374.8 , 303.4 373.8 , 298.4 371.8 , 299.4 379.8 , 292.4 369.8 , 298.4 370.8 , 303.4 377.8 , 299.4 387.8 , 311.4 384.8 , 308.4 385.8 , 303.4 379.8 , 299.4 385.8 , 312.4 382.8 , 301.4 ">
</polygon><polygon 
stroke="rgb(133,171,99)"
fill="rgb(133,171,99)"
stroke-width="80"
stroke-linejoin="round" 
opacity="1"
points="230.1184 , 265.3424 212.1184 , 238.3424 235.1184 , 256.3424 225.1184 , 260.3424 206.1184 , 289.3424 225.1184 , 273.3424 213.1184 , 252.3424 235.1184 , 260.3424 228.1184 , 252.3424 247.1184 , 261.3424 238.1184 , 281.3424 243.1184 , 257.3424 ">
</polygon><polygon 
stroke="rgb(123,161,89)"
fill="rgb(123,161,89)"
stroke-width="70"
stroke-linejoin="round" 
opacity="1"
points="246.1184 , 259.3424 250.1184 , 264.3424 231.1184 , 263.3424 231.1184 , 254.3424 226.1184 , 256.3424 233.1184 , 269.3424 228.1184 , 255.3424 234.1184 , 251.3424 239.1184 , 249.3424 236.1184 , 280.3424 247.1184 , 251.3424 252.1184 , 261.3424 244.1184 , 279.3424 ">
</polygon><polygon 
stroke="rgb(123,161,89)"
fill="rgb(123,161,89)"
stroke-width="60"
stroke-linejoin="round" 
opacity="1"
points="243.1184 , 254.3424 240.1184 , 274.3424 240.1184 , 266.3424 237.1184 , 263.3424 244.1184 , 254.3424 252.1184 , 266.3424 258.1184 , 262.3424 249.1184 , 261.3424 253.1184 , 258.3424 253.1184 , 263.3424 ">
</polygon><polygon 
stroke="rgb(143,181,109)"
fill="rgb(143,181,109)"
stroke-width="80"
stroke-linejoin="round" 
opacity="1"
points="321.8 , 312.4 318.8 , 330.4 305.8 , 333.4 275.8 , 316.4 293.8 , 310.4 316.8 , 322.4 287.8 , 338.4 287.8 , 313.4 264.8 , 339.4 286.8 , 339.4 272.8 , 336.4 284.8 , 341.4 303.8 , 314.4 291.8 , 314.4 301.8 , 352.4 285.8 , 314.4 311.8 , 319.4 296.8 , 337.4 270.8 , 316.4 ">
</polygon><polygon 
stroke="rgb(143,181,109)"
fill="rgb(143,181,109)"
stroke-width="70"
stroke-linejoin="round" 
opacity="1"
points="345.8 , 338.4 357.8 , 334.4 372.8 , 352.4 365.8 , 340.4 360.8 , 348.4 380.8 , 319.4 389.8 , 340.4 370.8 , 329.4 356.8 , 319.4 376.8 , 330.4 367.8 , 329.4 366.8 , 333.4 ">
</polygon><polygon 
stroke="rgb(133,171,99)"
fill="rgb(133,171,99)"
stroke-width="60"
stroke-linejoin="round" 
opacity="1"
points="347.8 , 338.4 352.8 , 325.4 344.8 , 328.4 340.8 , 337.4 343.8 , 332.4 340.8 , 345.4 343.8 , 332.4 336.8 , 333.4 338.8 , 335.4 341.8 , 340.4 342.8 , 330.4 340.8 , 339.4 346.8 , 325.4 349.8 , 341.4 349.8 , 338.4 354.8 , 341.4 345.8 , 327.4 339.8 , 334.4 342.8 , 342.4 352.8 , 340.4 361.8 , 334.4 369.8 , 332.4 375.8 , 332.4 375.8 , 345.4 ">
</polygon><polygon 
stroke="rgb(123,161,89)"
fill="rgb(123,161,89)"
stroke-width="80"
stroke-linejoin="round" 
opacity="1"
points="195.8352 , 267.8632 211.8352 , 300.8632 186.8352 , 251.8632 169.8352 , 308.8632 166.8352 , 278.8632 147.8352 , 294.8632 174.8352 , 255.8632 147.8352 , 280.8632 175.8352 , 256.8632 159.8352 , 296.8632 150.8352 , 263.8632 136.8352 , 258.8632 114.8352 , 269.8632 136.8352 , 294.8632 130.8352 , 290.8632 113.8352 , 279.8632 121.8352 , 291.8632 123.8352 , 253.8632 152.8352 , 254.8632 151.8352 , 293.8632 135.8352 , 301.8632 140.8352 , 298.8632 163.8352 , 276.8632 172.8352 , 276.8632 142.8352 , 259.8632 137.8352 , 289.8632 144.8352 , 278.8632 ">
</polygon><polygon 
stroke="rgb(123,161,89)"
fill="rgb(123,161,89)"
stroke-width="70"
stroke-linejoin="round" 
opacity="1"
points="222.8352 , 286.8632 240.8352 , 265.8632 248.8352 , 267.8632 244.8352 , 262.8632 228.8352 , 283.8632 226.8352 , 290.8632 226.8352 , 270.8632 206.8352 , 299.8632 215.8352 , 274.8632 200.8352 , 286.8632 184.8352 , 287.8632 169.8352 , 277.8632 164.8352 , 261.8632 ">
</polygon><path d="M 240 480 c 21.466666666667,-87.733333333333 0,-153.53333333333 46,-329 
C 288,346.46666666667 309.46666666667,412.26666666667 309,480
 " stroke="rgb(150,174,59)" stroke-linejoin="arcs"  stroke-width="5" fill="rgb(150,174,59)"/><path d="M 262.425 264.09375 c -47.6,-15.8 -54.4,-10.533333333333 -102,-79 
C 218.225,263.43541666667 225.025,258.16875 259.8352,282.8632
 " stroke="rgb(150,174,59)" stroke-linejoin="arcs"  stroke-width="5" fill="rgb(150,174,59)"/><path d="M 265.6128 244.1728 c -43.2,6.0666666666667 -62.4,4.3333333333333 -72,13 
C 210.4128,250.13113333333 229.6128,251.86446666667 262.425,264.09375
 " stroke="rgb(150,174,59)" stroke-linejoin="arcs"  stroke-width="5" fill="rgb(150,174,59)"/><path d="M 262.425 264.09375 c -68.4,-9.4 -98.8,-6.2666666666667 -114,-47 
C 175.025,263.70208333333 205.425,260.56875 259.8352,282.8632
 " stroke="rgb(150,174,59)" stroke-linejoin="arcs"  stroke-width="5" fill="rgb(150,174,59)"/><path d="M 254.8258 333.24955 c 51.6,1.8 34.4,4.8 86,9 
C 297.8258,339.17455 315.0258,336.17455 253.8,348.4
 " stroke="rgb(150,174,59)" stroke-linejoin="arcs"  stroke-width="5" fill="rgb(150,174,59)"/><path d="M 274.1136 200.4816 c -69.333333333333,-11.6 -41.6,-7.7333333333333 -104,-29 
C 242.9136,196.37326666667 215.18026666667,192.5066 269.4814,223.00165
 " stroke="rgb(150,174,59)" stroke-linejoin="arcs"  stroke-width="5" fill="rgb(150,174,59)"/><path d="M 253.8 348.4 c 91.666666666667,-6.1333333333333 50,-15.333333333333 125,-46 
C 316.3,338.81666666667 357.96666666667,348.01666666667 252.9582,362.89245
 " stroke="rgb(150,174,59)" stroke-linejoin="arcs"  stroke-width="5" fill="rgb(150,174,59)"/><path d="M 256.1184 317.3424 c -9.8,-10.6 0,-28.266666666667 -21,-53 
C 258.2184,295.70073333333 248.4184,313.3674 254.8258,333.24955
 " stroke="rgb(150,174,59)" stroke-linejoin="arcs"  stroke-width="5" fill="rgb(150,174,59)"/><path d="M 253.8 348.4 c 18.4,-4.3333333333333 0,-1.7333333333333 92,-13 
C 263,348.29166666667 281.4,345.69166666667 252.9582,362.89245
 " stroke="rgb(150,174,59)" stroke-linejoin="arcs"  stroke-width="5" fill="rgb(150,174,59)"/><path d="M 259.8352 282.8632 c -25.8,-0.46666666666667 -31.533333333333,-0.13333333333333 -43,-1 
C 232.60186666667,282.85486666667 238.3352,282.52153333333 257.7606,300.57985
 " stroke="rgb(150,174,59)" stroke-linejoin="arcs"  stroke-width="5" fill="rgb(150,174,59)"/><polygon 
stroke="rgb(123,161,89)"
fill="rgb(123,161,89)"
stroke-width="60"
stroke-linejoin="round" 
opacity="1"
points="292 , 159 284 , 156 283 , 150 280 , 156 288 , 153 297 , 141 303 , 153 294 , 160 296 , 149 303 , 144 308 , 141 ">
</polygon><polygon 
stroke="rgb(143,181,109)"
fill="rgb(143,181,109)"
stroke-width="80"
stroke-linejoin="round" 
opacity="1"
points="376.8 , 292.4 376.8 , 278.4 397.8 , 272.4 380.8 , 331.4 372.8 , 329.4 344.8 , 306.4 365.8 , 280.4 385.8 , 275.4 379.8 , 297.4 395.8 , 316.4 403.8 , 285.4 425.8 , 311.4 438.8 , 304.4 ">
</polygon><polygon 
stroke="rgb(123,161,89)"
fill="rgb(123,161,89)"
stroke-width="60"
stroke-linejoin="round" 
opacity="1"
points="225.8352 , 282.8632 230.8352 , 276.8632 237.8352 , 291.8632 240.8352 , 274.8632 230.8352 , 275.8632 220.8352 , 290.8632 224.8352 , 272.8632 220.8352 , 276.8632 225.8352 , 280.8632 232.8352 , 291.8632 237.8352 , 283.8632 234.8352 , 288.8632 228.8352 , 275.8632 227.8352 , 282.8632 223.8352 , 280.8632 217.8352 , 277.8632 212.8352 , 289.8632 213.8352 , 276.8632 205.8352 , 285.8632 208.8352 , 282.8632 204.8352 , 280.8632 208.8352 , 278.8632 ">
</polygon></svg>