<?xml version="1.0" encoding="iso-8859-1"?>
<svg version="1.1" id="Capa_1" xmlns="http://www.w3.org/2000/svg" xmlns:xlink="http://www.w3.org/1999/xlink" x="0px" y="0px"
viewBox="0 0 500 500" xml:space="preserve"><defs></defs><polygon 
stroke="rgb(137,103,98)"
fill="rgb(137,103,98)"
stroke-width="70"
stroke-linejoin="round" 
opacity="1"
points="303 , 145 289 , 139 281 , 141 264 , 142 271 , 137 253 , 166 267 , 162 271 , 159 254 , 166 258 , 148 257 , 145 274 , 163 290 , 148 284 , 148 276 , 160 284 , 169 270 , 172 257 , 155 ">
</polygon><polygon 
stroke="rgb(147,113,108)"
fill="rgb(147,113,108)"
stroke-width="60"
stroke-linejoin="round" 
opacity="1"
points="304 , 145 308 , 153 316 , 155 323 , 164 314 , 150 305 , 147 314 , 147 318 , 144 317 , 157 320 , 163 ">
</polygon><polygon 
stroke="rgb(147,113,108)"
fill="rgb(147,113,108)"
stroke-width="70"
stroke-linejoin="round" 
opacity="1"
points="372.0976 , 233.3072 370.0976 , 215.3072 368.0976 , 242.3072 367.0976 , 224.3072 372.0976 , 215.3072 366.0976 , 253.3072 374.0976 , 236.3072 389.0976 , 249.3072 397.0976 , 248.3072 408.0976 , 233.3072 405.0976 , 230.3072 409.0976 , 223.3072 401.0976 , 238.3072 393.0976 , 215.3072 388.0976 , 231.3072 407.0976 , 233.3072 401.0976 , 214.3072 402.0976 , 223.3072 384.0976 , 253.3072 399.0976 , 231.3072 ">
</polygon><polygon 
stroke="rgb(127,93,88)"
fill="rgb(127,93,88)"
stroke-width="80"
stroke-linejoin="round" 
opacity="1"
points="335.772525 , 232.8328 343.772525 , 267.8328 325.772525 , 235.8328 314.772525 , 239.8328 330.772525 , 258.8328 302.772525 , 254.8328 315.772525 , 228.8328 285.772525 , 238.8328 307.772525 , 243.8328 280.772525 , 230.8328 268.772525 , 234.8328 297.772525 , 221.8328 320.772525 , 221.8328 344.772525 , 251.8328 369.772525 , 235.8328 399.772525 , 250.8328 420.772525 , 263.8328 426.772525 , 226.8328 399.772525 , 256.8328 381.772525 , 272.8328 371.772525 , 218.8328 394.772525 , 215.8328 419.772525 , 268.8328 436.772525 , 213.8328 435.772525 , 250.8328 449.772525 , 222.8328 422.772525 , 244.8328 440.772525 , 246.8328 ">
</polygon><polygon 
stroke="rgb(137,103,98)"
fill="rgb(137,103,98)"
stroke-width="60"
stroke-linejoin="round" 
opacity="1"
points="355.772525 , 240.8328 347.772525 , 240.8328 338.772525 , 242.8328 340.772525 , 250.8328 336.772525 , 242.8328 345.772525 , 237.8328 348.772525 , 249.8328 349.772525 , 245.8328 357.772525 , 237.8328 367.772525 , 251.8328 371.772525 , 242.8328 373.772525 , 249.8328 ">
</polygon><polygon 
stroke="rgb(127,93,88)"
fill="rgb(127,93,88)"
stroke-width="80"
stroke-linejoin="round" 
opacity="1"
points="366.975225 , 184.8512 369.975225 , 201.8512 363.975225 , 182.8512 345.975225 , 185.8512 338.975225 , 157.8512 342.975225 , 158.8512 346.975225 , 190.8512 366.975225 , 157.8512 370.975225 , 176.8512 343.975225 , 187.8512 373.975225 , 164.8512 391.975225 , 183.8512 394.975225 , 192.8512 367.975225 , 178.8512 341.975225 , 172.8512 360.975225 , 211.8512 ">
</polygon><polygon 
stroke="rgb(137,103,98)"
fill="rgb(137,103,98)"
stroke-width="70"
stroke-linejoin="round" 
opacity="1"
points="362.975225 , 166.8512 346.975225 , 193.8512 357.975225 , 200.8512 339.975225 , 178.8512 348.975225 , 184.8512 333.975225 , 200.8512 325.975225 , 201.8512 341.975225 , 190.8512 333.975225 , 193.8512 346.975225 , 173.8512 336.975225 , 165.8512 337.975225 , 202.8512 355.975225 , 162.8512 365.975225 , 164.8512 382.975225 , 191.8512 369.975225 , 196.8512 373.975225 , 198.8512 384.975225 , 164.8512 397.975225 , 201.8512 398.975225 , 194.8512 386.975225 , 170.8512 391.975225 , 189.8512 376.975225 , 195.8512 357.975225 , 188.8512 345.975225 , 165.8512 343.975225 , 196.8512 357.975225 , 200.8512 ">
</polygon><polygon 
stroke="rgb(137,103,98)"
fill="rgb(137,103,98)"
stroke-width="60"
stroke-linejoin="round" 
opacity="1"
points="351.975225 , 184.8512 359.975225 , 173.8512 363.975225 , 189.8512 365.975225 , 186.8512 370.975225 , 172.8512 376.975225 , 178.8512 381.975225 , 191.8512 375.975225 , 190.8512 375.975225 , 173.8512 367.975225 , 186.8512 365.975225 , 175.8512 361.975225 , 177.8512 356.975225 , 174.8512 ">
</polygon><polygon 
stroke="rgb(147,113,108)"
fill="rgb(147,113,108)"
stroke-width="80"
stroke-linejoin="round" 
opacity="1"
points="221.225675 , 147.9716 234.225675 , 189.9716 250.225675 , 156.9716 225.225675 , 179.9716 209.225675 , 171.9716 212.225675 , 195.9716 189.225675 , 147.9716 167.225675 , 157.9716 197.225675 , 140.9716 211.225675 , 191.9716 221.225675 , 184.9716 231.225675 , 183.9716 231.225675 , 170.9716 201.225675 , 182.9716 182.225675 , 138.9716 167.225675 , 190.9716 159.225675 , 142.9716 159.225675 , 195.9716 150.225675 , 189.9716 131.225675 , 145.9716 123.225675 , 191.9716 113.225675 , 158.9716 ">
</polygon><polygon 
stroke="rgb(147,113,108)"
fill="rgb(147,113,108)"
stroke-width="70"
stroke-linejoin="round" 
opacity="1"
points="223.225675 , 172.9716 230.225675 , 154.9716 227.225675 , 152.9716 218.225675 , 184.9716 201.225675 , 163.9716 204.225675 , 163.9716 211.225675 , 185.9716 212.225675 , 185.9716 224.225675 , 156.9716 211.225675 , 185.9716 208.225675 , 170.9716 196.225675 , 172.9716 201.225675 , 183.9716 214.225675 , 187.9716 220.225675 , 187.9716 225.225675 , 174.9716 236.225675 , 179.9716 250.225675 , 147.9716 237.225675 , 185.9716 242.225675 , 170.9716 253.225675 , 153.9716 234.225675 , 182.9716 247.225675 , 167.9716 232.225675 , 170.9716 212.225675 , 152.9716 216.225675 , 187.9716 220.225675 , 162.9716 ">
</polygon><polygon 
stroke="rgb(137,103,98)"
fill="rgb(137,103,98)"
stroke-width="60"
stroke-linejoin="round" 
opacity="1"
points="214.225675 , 165.9716 221.225675 , 174.9716 230.225675 , 171.9716 223.225675 , 175.9716 231.225675 , 175.9716 233.225675 , 167.9716 236.225675 , 160.9716 233.225675 , 170.9716 236.225675 , 158.9716 229.225675 , 172.9716 ">
</polygon><polygon 
stroke="rgb(127,93,88)"
fill="rgb(127,93,88)"
stroke-width="70"
stroke-linejoin="round" 
opacity="1"
points="257.975225 , 174.8512 259.975225 , 147.8512 278.975225 , 174.8512 293.975225 , 149.8512 281.975225 , 184.8512 265.975225 , 159.8512 267.975225 , 147.8512 264.975225 , 154.8512 280.975225 , 144.8512 289.975225 , 184.8512 299.975225 , 163.8512 303.975225 , 148.8512 323.975225 , 177.8512 323.975225 , 178.8512 331.975225 , 167.8512 331.975225 , 166.8512 348.975225 , 149.8512 335.975225 , 180.8512 323.975225 , 183.8512 322.975225 , 181.8512 302.975225 , 145.8512 304.975225 , 151.8512 313.975225 , 144.8512 327.975225 , 147.8512 314.975225 , 169.8512 299.975225 , 146.8512 295.975225 , 176.8512 300.975225 , 168.8512 ">
</polygon><polygon 
stroke="rgb(147,113,108)"
fill="rgb(147,113,108)"
stroke-width="60"
stroke-linejoin="round" 
opacity="1"
points="270.975225 , 154.8512 262.975225 , 159.8512 256.975225 , 173.8512 257.975225 , 161.8512 255.975225 , 167.8512 263.975225 , 164.8512 253.975225 , 159.8512 259.975225 , 156.8512 258.975225 , 170.8512 268.975225 , 162.8512 259.975225 , 169.8512 ">
</polygon><polygon 
stroke="rgb(127,93,88)"
fill="rgb(127,93,88)"
stroke-width="70"
stroke-linejoin="round" 
opacity="1"
points="305.3658 , 229.4456 291.3658 , 223.4456 286.3658 , 237.4456 266.3658 , 223.4456 254.3658 , 245.4456 266.3658 , 250.4456 268.3658 , 229.4456 287.3658 , 244.4456 293.3658 , 244.4456 274.3658 , 247.4456 278.3658 , 216.4456 267.3658 , 244.4456 277.3658 , 233.4456 ">
</polygon><polygon 
stroke="rgb(127,93,88)"
fill="rgb(127,93,88)"
stroke-width="80"
stroke-linejoin="round" 
opacity="1"
points="280.375 , 291.3 277.375 , 318.3 299.375 , 312.3 322.375 , 317.3 316.375 , 309.3 317.375 , 273.3 293.375 , 266.3 320.375 , 298.3 294.375 , 279.3 306.375 , 292.3 330.375 , 296.3 349.375 , 265.3 351.375 , 305.3 339.375 , 314.3 348.375 , 313.3 346.375 , 300.3 326.375 , 319.3 299.375 , 317.3 283.375 , 319.3 289.375 , 314.3 261.375 , 286.3 269.375 , 301.3 297.375 , 267.3 285.375 , 292.3 288.375 , 267.3 307.375 , 287.3 326.375 , 277.3 332.375 , 297.3 309.375 , 293.3 294.375 , 277.3 ">
</polygon><polygon 
stroke="rgb(127,93,88)"
fill="rgb(127,93,88)"
stroke-width="70"
stroke-linejoin="round" 
opacity="1"
points="310.375 , 280.3 306.375 , 305.3 300.375 , 299.3 291.375 , 281.3 291.375 , 296.3 300.375 , 311.3 308.375 , 279.3 296.375 , 285.3 288.375 , 282.3 304.375 , 311.3 313.375 , 282.3 330.375 , 279.3 321.375 , 298.3 308.375 , 305.3 319.375 , 283.3 301.375 , 307.3 304.375 , 313.3 291.375 , 313.3 308.375 , 302.3 294.375 , 281.3 293.375 , 281.3 289.375 , 288.3 304.375 , 275.3 301.375 , 281.3 291.375 , 310.3 ">
</polygon><polygon 
stroke="rgb(127,93,88)"
fill="rgb(127,93,88)"
stroke-width="60"
stroke-linejoin="round" 
opacity="1"
points="295.375 , 302.3 289.375 , 299.3 296.375 , 292.3 305.375 , 297.3 301.375 , 301.3 298.375 , 287.3 308.375 , 296.3 305.375 , 293.3 313.375 , 290.3 317.375 , 290.3 ">
</polygon><polygon 
stroke="rgb(147,113,108)"
fill="rgb(147,113,108)"
stroke-width="80"
stroke-linejoin="round" 
opacity="1"
points="282.975225 , 161.8512 292.975225 , 196.8512 268.975225 , 153.8512 288.975225 , 193.8512 270.975225 , 152.8512 247.975225 , 176.8512 252.975225 , 194.8512 251.975225 , 183.8512 279.975225 , 158.8512 271.975225 , 152.8512 282.975225 , 192.8512 272.975225 , 159.8512 267.975225 , 157.8512 289.975225 , 153.8512 306.975225 , 150.8512 294.975225 , 151.8512 318.975225 , 184.8512 302.975225 , 155.8512 279.975225 , 169.8512 258.975225 , 197.8512 245.975225 , 182.8512 235.975225 , 158.8512 248.975225 , 169.8512 254.975225 , 159.8512 ">
</polygon><polygon 
stroke="rgb(147,113,108)"
fill="rgb(147,113,108)"
stroke-width="70"
stroke-linejoin="round" 
opacity="1"
points="284.975225 , 190.8512 296.975225 , 180.8512 278.975225 , 165.8512 281.975225 , 159.8512 295.975225 , 188.8512 300.975225 , 162.8512 297.975225 , 154.8512 306.975225 , 161.8512 326.975225 , 168.8512 307.975225 , 165.8512 309.975225 , 185.8512 324.975225 , 165.8512 343.975225 , 168.8512 333.975225 , 181.8512 334.975225 , 169.8512 ">
</polygon><polygon 
stroke="rgb(137,103,98)"
fill="rgb(137,103,98)"
stroke-width="70"
stroke-linejoin="round" 
opacity="1"
points="359.975225 , 230.8512 350.975225 , 241.8512 330.975225 , 243.8512 339.975225 , 219.8512 340.975225 , 237.8512 326.975225 , 214.8512 329.975225 , 214.8512 316.975225 , 249.8512 307.975225 , 214.8512 310.975225 , 229.8512 302.975225 , 245.8512 ">
</polygon><polygon 
stroke="rgb(127,93,88)"
fill="rgb(127,93,88)"
stroke-width="60"
stroke-linejoin="round" 
opacity="1"
points="340.975225 , 236.8512 339.975225 , 234.8512 331.975225 , 239.8512 329.975225 , 236.8512 337.975225 , 220.8512 330.975225 , 227.8512 337.975225 , 226.8512 332.975225 , 230.8512 338.975225 , 230.8512 345.975225 , 237.8512 340.975225 , 231.8512 ">
</polygon><path d="M 240 480 c 42.6,-130.4 52.066666666667,-152.13333333333 71,-326 
C 349.06666666667,349.86666666667 339.6,371.6 288,480
 " stroke="rgb(60,85,130)" stroke-linejoin="arcs"  stroke-width="5" fill="rgb(60,85,130)"/><path d="M 290.0976 306.3072 c 5.6666666666667,-9.7333333333333 39.666666666667,-19.466666666667 85,-73 
C 338.26426666667,295.96553333333 304.26426666667,305.69886666667 287.309075,320.0644
 " stroke="rgb(60,85,130)" stroke-linejoin="arcs"  stroke-width="5" fill="rgb(60,85,130)"/><path d="M 292.772525 291.8328 c 4.6666666666667,-9.8 0,-13.066666666667 70,-49 
C 299.772525,284.89113333333 304.43919166667,288.1578 290.0976,306.3072
 " stroke="rgb(60,85,130)" stroke-linejoin="arcs"  stroke-width="5" fill="rgb(60,85,130)"/><path d="M 302.975225 222.8512 c 22.4,-18.666666666667 16.8,-16 42,-40 
C 323.975225,211.8512 329.575225,209.18453333333 300.4352,242.1504
 " stroke="rgb(60,85,130)" stroke-linejoin="arcs"  stroke-width="5" fill="rgb(60,85,130)"/><path d="M 308.225675 178.9716 c -22.666666666667,-1.4666666666667 -45.333333333333,-1.4666666666667 -85,-11 
C 271.39234166667,178.87993333333 294.05900833333,178.87993333333 305.5614,201.8568
 " stroke="rgb(60,85,130)" stroke-linejoin="arcs"  stroke-width="5" fill="rgb(60,85,130)"/><path d="M 302.975225 222.8512 c -12.6,-30.933333333333 -5.4,-19.333333333333 -27,-58 
C 300.275225,210.76786666667 293.075225,199.16786666667 300.4352,242.1504
 " stroke="rgb(60,85,130)" stroke-linejoin="arcs"  stroke-width="5" fill="rgb(60,85,130)"/><path d="M 295.3658 276.4456 c 12.133333333333,-22.4 12.133333333333,-8.4 14,-42 
C 308.89913333333,273.2956 308.89913333333,259.2956 292.772525,291.8328
 " stroke="rgb(60,85,130)" stroke-linejoin="arcs"  stroke-width="5" fill="rgb(60,85,130)"/><path d="M 284.375 333.3 c 9.3333333333333,-16 2.8,-18.666666666667 14,-40 
C 288.575,319.63333333333 295.10833333333,322.3 281.263425,346.2096
 " stroke="rgb(60,85,130)" stroke-linejoin="arcs"  stroke-width="5" fill="rgb(60,85,130)"/><path d="M 302.975225 222.8512 c -9.6,-6.6666666666667 -5.3333333333333,-20 -16,-50 
C 299.24189166667,209.1012 294.975225,222.43453333333 300.4352,242.1504
 " stroke="rgb(60,85,130)" stroke-linejoin="arcs"  stroke-width="5" fill="rgb(60,85,130)"/><path d="M 302.975225 222.8512 c 8.8,4.2666666666667 26.4,3.2 44,8 
C 333.775225,227.0512 316.175225,228.11786666667 300.4352,242.1504
 " stroke="rgb(60,85,130)" stroke-linejoin="arcs"  stroke-width="5" fill="rgb(60,85,130)"/><polygon 
stroke="rgb(137,103,98)"
fill="rgb(137,103,98)"
stroke-width="80"
stroke-linejoin="round" 
opacity="1"
points="302 , 125 307 , 133 334 , 164 315 , 152 304 , 133 317 , 179 318 , 154 309 , 144 316 , 169 288 , 141 285 , 180 273 , 167 289 , 147 291 , 160 306 , 180 288 , 169 269 , 133 281 , 134 289 , 169 316 , 174 292 , 181 277 , 140 304 , 138 ">
</polygon><polygon 
stroke="rgb(137,103,98)"
fill="rgb(137,103,98)"
stroke-width="80"
stroke-linejoin="round" 
opacity="1"
points="396.0976 , 223.3072 380.0976 , 254.3072 392.0976 , 227.3072 422.0976 , 203.3072 422.0976 , 227.3072 426.0976 , 242.3072 446.0976 , 253.3072 427.0976 , 212.3072 439.0976 , 222.3072 433.0976 , 243.3072 435.0976 , 240.3072 434.0976 , 235.3072 406.0976 , 234.3072 421.0976 , 246.3072 416.0976 , 225.3072 394.0976 , 244.3072 401.0976 , 210.3072 404.0976 , 214.3072 378.0976 , 221.3072 390.0976 , 257.3072 369.0976 , 218.3072 362.0976 , 238.3072 377.0976 , 216.3072 406.0976 , 205.3072 ">
</polygon><polygon 
stroke="rgb(147,113,108)"
fill="rgb(147,113,108)"
stroke-width="60"
stroke-linejoin="round" 
opacity="1"
points="380.0976 , 225.3072 373.0976 , 233.3072 368.0976 , 226.3072 376.0976 , 237.3072 370.0976 , 242.3072 375.0976 , 228.3072 371.0976 , 238.3072 369.0976 , 241.3072 372.0976 , 243.3072 381.0976 , 235.3072 371.0976 , 238.3072 361.0976 , 235.3072 358.0976 , 225.3072 351.0976 , 224.3072 357.0976 , 227.3072 352.0976 , 239.3072 354.0976 , 240.3072 ">
</polygon><polygon 
stroke="rgb(137,103,98)"
fill="rgb(137,103,98)"
stroke-width="70"
stroke-linejoin="round" 
opacity="1"
points="363.772525 , 239.8328 343.772525 , 251.8328 330.772525 , 248.8328 319.772525 , 226.8328 330.772525 , 247.8328 312.772525 , 253.8328 329.772525 , 247.8328 342.772525 , 248.8328 331.772525 , 257.8328 318.772525 , 228.8328 324.772525 , 241.8328 319.772525 , 261.8328 311.772525 , 226.8328 320.772525 , 242.8328 336.772525 , 235.8328 ">
</polygon><polygon 
stroke="rgb(137,103,98)"
fill="rgb(137,103,98)"
stroke-width="80"
stroke-linejoin="round" 
opacity="1"
points="264.975225 , 155.8512 280.975225 , 141.8512 298.975225 , 147.8512 295.975225 , 158.8512 297.975225 , 156.8512 297.975225 , 153.8512 297.975225 , 142.8512 301.975225 , 140.8512 282.975225 , 174.8512 309.975225 , 143.8512 293.975225 , 164.8512 275.975225 , 166.8512 292.975225 , 138.8512 ">
</polygon><polygon 
stroke="rgb(147,113,108)"
fill="rgb(147,113,108)"
stroke-width="80"
stroke-linejoin="round" 
opacity="1"
points="303.3658 , 227.4456 327.3658 , 251.4456 342.3658 , 216.4456 372.3658 , 242.4456 384.3658 , 260.4456 400.3658 , 206.4456 381.3658 , 231.4456 375.3658 , 205.4456 397.3658 , 244.4456 373.3658 , 211.4456 352.3658 , 228.4456 361.3658 , 233.4456 ">
</polygon><polygon 
stroke="rgb(147,113,108)"
fill="rgb(147,113,108)"
stroke-width="60"
stroke-linejoin="round" 
opacity="1"
points="314.3658 , 238.4456 304.3658 , 239.4456 303.3658 , 236.4456 311.3658 , 235.4456 314.3658 , 242.4456 309.3658 , 240.4456 304.3658 , 230.4456 309.3658 , 242.4456 319.3658 , 239.4456 318.3658 , 232.4456 309.3658 , 240.4456 306.3658 , 244.4456 308.3658 , 244.4456 303.3658 , 233.4456 305.3658 , 229.4456 296.3658 , 231.4456 302.3658 , 226.4456 298.3658 , 243.4456 302.3658 , 238.4456 310.3658 , 236.4456 317.3658 , 230.4456 318.3658 , 229.4456 310.3658 , 237.4456 315.3658 , 231.4456 ">
</polygon><polygon 
stroke="rgb(137,103,98)"
fill="rgb(137,103,98)"
stroke-width="60"
stroke-linejoin="round" 
opacity="1"
points="280.975225 , 178.8512 288.975225 , 172.8512 283.975225 , 163.8512 276.975225 , 163.8512 278.975225 , 181.8512 279.975225 , 180.8512 276.975225 , 166.8512 278.975225 , 168.8512 280.975225 , 182.8512 288.975225 , 178.8512 291.975225 , 171.8512 289.975225 , 175.8512 283.975225 , 180.8512 279.975225 , 163.8512 284.975225 , 172.8512 ">
</polygon><polygon 
stroke="rgb(147,113,108)"
fill="rgb(147,113,108)"
stroke-width="80"
stroke-linejoin="round" 
opacity="1"
points="319.975225 , 218.8512 291.975225 , 248.8512 275.975225 , 230.8512 299.975225 , 209.8512 288.975225 , 219.8512 296.975225 , 210.8512 278.975225 , 233.8512 301.975225 , 208.8512 277.975225 , 219.8512 255.975225 , 226.8512 264.975225 , 207.8512 281.975225 , 218.8512 298.975225 , 233.8512 274.975225 , 245.8512 264.975225 , 219.8512 235.975225 , 260.8512 226.975225 , 259.8512 238.975225 , 215.8512 252.975225 , 246.8512 247.975225 , 208.8512 245.975225 , 212.8512 242.975225 , 221.8512 227.975225 , 236.8512 245.975225 , 249.8512 247.975225 , 231.8512 254.975225 , 235.8512 232.975225 , 259.8512 ">
</polygon></svg>