<?xml version="1.0" encoding="iso-8859-1"?>
<svg version="1.1" id="Capa_1" xmlns="http://www.w3.org/2000/svg" xmlns:xlink="http://www.w3.org/1999/xlink" x="0px" y="0px"
viewBox="0 0 500 500" xml:space="preserve"><defs></defs><polygon 
stroke="rgb(136,74,72)"
fill="rgb(136,74,72)"
stroke-width="80"
stroke-linejoin="round" 
opacity="1"
points="287 , 130 282 , 184 266 , 182 237 , 130 209 , 182 187 , 137 165 , 179 156 , 143 131 , 146 131 , 135 142 , 141 133 , 183 139 , 128 134 , 161 130 , 175 157 , 150 131 , 163 122 , 139 137 , 158 113 , 187 100 , 153 118 , 153 102 , 150 ">
</polygon><polygon 
stroke="rgb(146,84,82)"
fill="rgb(146,84,82)"
stroke-width="70"
stroke-linejoin="round" 
opacity="1"
points="334 , 141 352 , 149 344 , 158 340 , 143 337 , 138 334 , 167 333 , 141 347 , 161 340 , 175 360 , 147 349 , 142 336 , 158 339 , 158 347 , 140 353 , 144 370 , 154 ">
</polygon><polygon 
stroke="rgb(136,74,72)"
fill="rgb(136,74,72)"
stroke-width="60"
stroke-linejoin="round" 
opacity="1"
points="317 , 152 317 , 154 315 , 147 307 , 167 299 , 154 296 , 155 306 , 151 309 , 161 319 , 166 318 , 166 326 , 150 321 , 148 314 , 148 324 , 154 325 , 158 325 , 159 323 , 152 315 , 156 316 , 156 311 , 150 316 , 147 306 , 161 313 , 154 307 , 151 303 , 165 295 , 164 302 , 154 293 , 157 286 , 162 291 , 165 ">
</polygon><polygon 
stroke="rgb(136,74,72)"
fill="rgb(136,74,72)"
stroke-width="70"
stroke-linejoin="round" 
opacity="1"
points="445.995 , 179.5094 449.995 , 168.5094 442.995 , 174.5094 436.995 , 154.5094 443.995 , 176.5094 435.995 , 153.5094 427.995 , 154.5094 447.995 , 147.5094 449.995 , 143.5094 432.995 , 161.5094 413.995 , 154.5094 393.995 , 171.5094 413.995 , 167.5094 399.995 , 169.5094 409.995 , 182.5094 417.995 , 169.5094 399.995 , 177.5094 391.995 , 143.5094 398.995 , 171.5094 388.995 , 179.5094 ">
</polygon><polygon 
stroke="rgb(146,84,82)"
fill="rgb(146,84,82)"
stroke-width="60"
stroke-linejoin="round" 
opacity="1"
points="442.995 , 155.5094 446.995 , 162.5094 437.995 , 157.5094 438.995 , 154.5094 429.995 , 155.5094 433.995 , 159.5094 423.995 , 164.5094 432.995 , 157.5094 442.995 , 163.5094 447.995 , 160.5094 449.995 , 160.5094 447.995 , 162.5094 442.995 , 153.5094 435.995 , 170.5094 438.995 , 162.5094 432.995 , 170.5094 435.995 , 165.5094 441.995 , 160.5094 439.995 , 171.5094 435.995 , 156.5094 427.995 , 161.5094 426.995 , 166.5094 425.995 , 172.5094 428.995 , 167.5094 420.995 , 160.5094 430.995 , 153.5094 431.995 , 164.5094 432.995 , 156.5094 425.995 , 157.5094 ">
</polygon><polygon 
stroke="rgb(136,74,72)"
fill="rgb(136,74,72)"
stroke-width="80"
stroke-linejoin="round" 
opacity="1"
points="205.375 , 305.875 233.375 , 263.875 203.375 , 297.875 230.375 , 296.875 229.375 , 297.875 243.375 , 305.875 260.375 , 301.875 284.375 , 316.875 267.375 , 293.875 254.375 , 266.875 284.375 , 318.875 283.375 , 281.875 262.375 , 305.875 290.375 , 272.875 297.375 , 306.875 312.375 , 280.875 289.375 , 276.875 289.375 , 280.875 308.375 , 282.875 302.375 , 300.875 282.375 , 263.875 309.375 , 305.875 ">
</polygon><polygon 
stroke="rgb(156,94,92)"
fill="rgb(156,94,92)"
stroke-width="70"
stroke-linejoin="round" 
opacity="1"
points="209.375 , 300.875 216.375 , 296.875 204.375 , 283.875 206.375 , 297.875 189.375 , 309.875 187.375 , 274.875 194.375 , 304.875 187.375 , 309.875 196.375 , 274.875 206.375 , 302.875 191.375 , 273.875 199.375 , 297.875 194.375 , 308.875 211.375 , 297.875 195.375 , 294.875 ">
</polygon><polygon 
stroke="rgb(136,74,72)"
fill="rgb(136,74,72)"
stroke-width="80"
stroke-linejoin="round" 
opacity="1"
points="213.995 , 162.5094 241.995 , 148.5094 223.995 , 119.5094 235.995 , 135.5094 261.995 , 112.5094 250.995 , 124.5094 267.995 , 130.5094 244.995 , 114.5094 226.995 , 160.5094 248.995 , 163.5094 248.995 , 159.5094 235.995 , 161.5094 250.995 , 112.5094 224.995 , 128.5094 232.995 , 148.5094 252.995 , 133.5094 267.995 , 117.5094 ">
</polygon><polygon 
stroke="rgb(156,94,92)"
fill="rgb(156,94,92)"
stroke-width="70"
stroke-linejoin="round" 
opacity="1"
points="189.995 , 122.5094 205.995 , 153.5094 197.995 , 118.5094 180.995 , 125.5094 179.995 , 155.5094 173.995 , 150.5094 181.995 , 122.5094 180.995 , 137.5094 200.995 , 139.5094 206.995 , 129.5094 186.995 , 124.5094 202.995 , 123.5094 217.995 , 135.5094 228.995 , 127.5094 ">
</polygon><polygon 
stroke="rgb(136,74,72)"
fill="rgb(136,74,72)"
stroke-width="60"
stroke-linejoin="round" 
opacity="1"
points="188.995 , 137.5094 196.995 , 136.5094 202.995 , 134.5094 194.995 , 131.5094 197.995 , 131.5094 203.995 , 141.5094 196.995 , 141.5094 189.995 , 136.5094 186.995 , 139.5094 185.995 , 128.5094 175.995 , 141.5094 182.995 , 143.5094 180.995 , 146.5094 187.995 , 129.5094 195.995 , 146.5094 199.995 , 138.5094 205.995 , 146.5094 207.995 , 132.5094 204.995 , 143.5094 209.995 , 135.5094 210.995 , 140.5094 216.995 , 133.5094 214.995 , 148.5094 214.995 , 145.5094 220.995 , 129.5094 225.995 , 136.5094 234.995 , 147.5094 237.995 , 138.5094 ">
</polygon><polygon 
stroke="rgb(156,94,92)"
fill="rgb(156,94,92)"
stroke-width="70"
stroke-linejoin="round" 
opacity="1"
points="184.956875 , 343.521825 176.956875 , 324.521825 158.956875 , 338.521825 156.956875 , 322.521825 175.956875 , 357.521825 161.956875 , 336.521825 170.956875 , 355.521825 186.956875 , 360.521825 166.956875 , 345.521825 165.956875 , 356.521825 161.956875 , 330.521825 169.956875 , 348.521825 186.956875 , 344.521825 166.956875 , 328.521825 182.956875 , 355.521825 180.956875 , 351.521825 192.956875 , 338.521825 177.956875 , 333.521825 158.956875 , 324.521825 170.956875 , 332.521825 158.956875 , 325.521825 171.956875 , 347.521825 188.956875 , 352.521825 ">
</polygon><polygon 
stroke="rgb(136,74,72)"
fill="rgb(136,74,72)"
stroke-width="80"
stroke-linejoin="round" 
opacity="1"
points="256.88 , 331.4096 237.88 , 347.4096 216.88 , 329.4096 226.88 , 300.4096 236.88 , 314.4096 229.88 , 323.4096 218.88 , 290.4096 245.88 , 307.4096 258.88 , 305.4096 276.88 , 303.4096 299.88 , 344.4096 280.88 , 315.4096 287.88 , 320.4096 294.88 , 319.4096 285.88 , 344.4096 285.88 , 297.4096 273.88 , 333.4096 272.88 , 289.4096 297.88 , 320.4096 269.88 , 307.4096 280.88 , 348.4096 284.88 , 338.4096 ">
</polygon><polygon 
stroke="rgb(146,84,82)"
fill="rgb(146,84,82)"
stroke-width="70"
stroke-linejoin="round" 
opacity="1"
points="287.88 , 314.4096 275.88 , 317.4096 292.88 , 302.4096 304.88 , 310.4096 306.88 , 317.4096 315.88 , 332.4096 301.88 , 306.4096 313.88 , 300.4096 303.88 , 310.4096 291.88 , 312.4096 303.88 , 328.4096 313.88 , 335.4096 308.88 , 312.4096 306.88 , 312.4096 292.88 , 308.4096 277.88 , 325.4096 271.88 , 302.4096 ">
</polygon><polygon 
stroke="rgb(136,74,72)"
fill="rgb(136,74,72)"
stroke-width="60"
stroke-linejoin="round" 
opacity="1"
points="267.88 , 316.4096 262.88 , 312.4096 265.88 , 318.4096 262.88 , 327.4096 258.88 , 322.4096 263.88 , 310.4096 273.88 , 311.4096 276.88 , 309.4096 271.88 , 326.4096 269.88 , 309.4096 270.88 , 318.4096 262.88 , 318.4096 271.88 , 319.4096 268.88 , 320.4096 277.88 , 328.4096 274.88 , 317.4096 267.88 , 323.4096 275.88 , 310.4096 274.88 , 326.4096 270.88 , 327.4096 264.88 , 310.4096 268.88 , 312.4096 263.88 , 316.4096 264.88 , 319.4096 272.88 , 309.4096 266.88 , 317.4096 267.88 , 324.4096 262.88 , 313.4096 270.88 , 324.4096 262.88 , 310.4096 ">
</polygon><polygon 
stroke="rgb(156,94,92)"
fill="rgb(156,94,92)"
stroke-width="80"
stroke-linejoin="round" 
opacity="1"
points="147.223125 , 299.586775 162.223125 , 334.586775 140.223125 , 301.586775 135.223125 , 314.586775 143.223125 , 326.586775 140.223125 , 320.586775 123.223125 , 323.586775 99.223125 , 309.586775 81.223125 , 306.586775 109.223125 , 336.586775 110.223125 , 309.586775 87.223125 , 283.586775 66.223125 , 301.586775 51.223125 , 282.586775 66.223125 , 284.586775 95.223125 , 286.586775 ">
</polygon><polygon 
stroke="rgb(146,84,82)"
fill="rgb(146,84,82)"
stroke-width="70"
stroke-linejoin="round" 
opacity="1"
points="165.223125 , 299.586775 176.223125 , 302.586775 196.223125 , 312.586775 190.223125 , 304.586775 197.223125 , 296.586775 202.223125 , 321.586775 216.223125 , 297.586775 210.223125 , 301.586775 196.223125 , 293.586775 214.223125 , 314.586775 ">
</polygon><polygon 
stroke="rgb(146,84,82)"
fill="rgb(146,84,82)"
stroke-width="60"
stroke-linejoin="round" 
opacity="1"
points="415.065 , 262.1018 406.065 , 263.1018 407.065 , 271.1018 410.065 , 280.1018 401.065 , 275.1018 407.065 , 270.1018 405.065 , 275.1018 397.065 , 272.1018 389.065 , 262.1018 394.065 , 261.1018 385.065 , 277.1018 377.065 , 281.1018 368.065 , 266.1018 366.065 , 263.1018 373.065 , 281.1018 374.065 , 274.1018 371.065 , 278.1018 372.065 , 268.1018 379.065 , 265.1018 378.065 , 275.1018 384.065 , 262.1018 375.065 , 262.1018 377.065 , 281.1018 374.065 , 273.1018 369.065 , 271.1018 370.065 , 280.1018 367.065 , 261.1018 374.065 , 278.1018 ">
</polygon><polygon 
stroke="rgb(156,94,92)"
fill="rgb(156,94,92)"
stroke-width="80"
stroke-linejoin="round" 
opacity="1"
points="156.065 , 285.1018 165.065 , 270.1018 193.065 , 238.1018 183.065 , 279.1018 154.065 , 242.1018 146.065 , 272.1018 132.065 , 240.1018 110.065 , 285.1018 83.065 , 240.1018 75.065 , 264.1018 91.065 , 284.1018 90.065 , 234.1018 65.065 , 260.1018 59.065 , 278.1018 60.065 , 250.1018 52.065 , 268.1018 53.065000000001 , 275.1018 ">
</polygon><polygon 
stroke="rgb(156,94,92)"
fill="rgb(156,94,92)"
stroke-width="70"
stroke-linejoin="round" 
opacity="1"
points="167.065 , 244.1018 177.065 , 278.1018 183.065 , 252.1018 168.065 , 263.1018 153.065 , 253.1018 154.065 , 264.1018 158.065 , 277.1018 164.065 , 272.1018 154.065 , 270.1018 160.065 , 257.1018 163.065 , 274.1018 ">
</polygon><polygon 
stroke="rgb(136,74,72)"
fill="rgb(136,74,72)"
stroke-width="80"
stroke-linejoin="round" 
opacity="1"
points="204.956875 , 290.521825 205.956875 , 301.521825 193.956875 , 255.521825 213.956875 , 266.521825 238.956875 , 262.521825 209.956875 , 274.521825 232.956875 , 263.521825 217.956875 , 256.521825 239.956875 , 298.521825 242.956875 , 305.521825 244.956875 , 314.521825 214.956875 , 310.521825 201.956875 , 289.521825 231.956875 , 255.521825 219.956875 , 289.521825 205.956875 , 306.521825 ">
</polygon><polygon 
stroke="rgb(156,94,92)"
fill="rgb(156,94,92)"
stroke-width="70"
stroke-linejoin="round" 
opacity="1"
points="215.956875 , 275.521825 218.956875 , 298.521825 213.956875 , 270.521825 218.956875 , 300.521825 229.956875 , 281.521825 248.956875 , 293.521825 257.956875 , 305.521825 269.956875 , 268.521825 276.956875 , 278.521825 287.956875 , 274.521825 302.956875 , 302.521825 312.956875 , 267.521825 314.956875 , 268.521825 300.956875 , 288.521825 283.956875 , 288.521825 277.956875 , 279.521825 290.956875 , 270.521825 294.956875 , 275.521825 ">
</polygon><polygon 
stroke="rgb(136,74,72)"
fill="rgb(136,74,72)"
stroke-width="60"
stroke-linejoin="round" 
opacity="1"
points="208.956875 , 277.521825 206.956875 , 279.521825 210.956875 , 294.521825 209.956875 , 287.521825 205.956875 , 288.521825 211.956875 , 287.521825 213.956875 , 275.521825 205.956875 , 277.521825 213.956875 , 281.521825 221.956875 , 290.521825 228.956875 , 289.521825 237.956875 , 283.521825 239.956875 , 287.521825 242.956875 , 288.521825 251.956875 , 281.521825 250.956875 , 288.521825 248.956875 , 294.521825 240.956875 , 282.521825 ">
</polygon><path d="M 240 480 c 25,-43.066666666667 15,-172.26666666667 75,-323 
C 296,327.73333333333 306,456.93333333333 307,480
 " stroke="rgb(142,96,100)" stroke-linejoin="arcs"  stroke-width="5" fill="rgb(142,96,100)"/><path d="M 298.995 201.5094 c 130,-12.666666666667 110,-20.266666666667 150,-38 
C 423.995,185.99273333333 443.995,193.59273333333 292.370625,223.158475
 " stroke="rgb(142,96,100)" stroke-linejoin="arcs"  stroke-width="5" fill="rgb(142,96,100)"/><path d="M 264.375 358.875 c -18.666666666667,-22.333333333333 -14,-31.266666666667 -70,-67 
C 257.375,335.98333333333 252.70833333333,344.91666666667 262.055625,375.420675
 " stroke="rgb(142,96,100)" stroke-linejoin="arcs"  stroke-width="5" fill="rgb(142,96,100)"/><path d="M 298.995 201.5094 c -14.8,-8.4 -29.6,-16.8 -111,-63 
C 280.495,192.5844 295.295,200.9844 292.370625,223.158475
 " stroke="rgb(142,96,100)" stroke-linejoin="arcs"  stroke-width="5" fill="rgb(142,96,100)"/><path d="M 266.956875 341.521825 c -75.4,0.26666666666667 -63.8,0.2 -87,1 
C 211.856875,341.846825 200.256875,341.91349166667 264.375,358.875
 " stroke="rgb(142,96,100)" stroke-linejoin="arcs"  stroke-width="5" fill="rgb(142,96,100)"/><path d="M 269.88 323.4096 c 0,-2 0,-1.3333333333333 7,-5 
C 270.58,322.70126666667 270.58,322.0346 266.956875,341.521825
 " stroke="rgb(142,96,100)" stroke-linejoin="arcs"  stroke-width="5" fill="rgb(142,96,100)"/><path d="M 273.223125 304.586775 c -98.933333333333,1.8666666666667 -70.666666666667,0.93333333333333 -106,7 
C 213.15645833333,306.39510833333 184.88979166667,307.32844166667 269.88,323.4096
 " stroke="rgb(142,96,100)" stroke-linejoin="arcs"  stroke-width="5" fill="rgb(142,96,100)"/><path d="M 277.065 285.1018 c 9.6666666666667,-6.5333333333333 145,-7.4666666666667 145,-14 
C 436.565,279.38513333333 301.23166666667,280.31846666667 273.223125,304.586775
 " stroke="rgb(142,96,100)" stroke-linejoin="arcs"  stroke-width="5" fill="rgb(142,96,100)"/><path d="M 277.065 285.1018 c 0,-8.4 -62.4,-7 -117,-21 
C 226.365,280.7268 288.765,279.3268 273.223125,304.586775
 " stroke="rgb(142,96,100)" stroke-linejoin="arcs"  stroke-width="5" fill="rgb(142,96,100)"/><path d="M 266.956875 341.521825 c -60,-14.933333333333 -44,-11.2 -60,-56 
C 228.956875,337.321825 212.956875,333.58849166667 264.375,358.875
 " stroke="rgb(142,96,100)" stroke-linejoin="arcs"  stroke-width="5" fill="rgb(142,96,100)"/><polygon 
stroke="rgb(146,84,82)"
fill="rgb(146,84,82)"
stroke-width="80"
stroke-linejoin="round" 
opacity="1"
points="432.995 , 164.5094 449.995 , 175.5094 429.995 , 147.5094 427.995 , 191.5094 413.995 , 159.5094 403.995 , 139.5094 408.995 , 176.5094 391.995 , 190.5094 366.995 , 166.5094 367.995 , 151.5094 361.995 , 162.5094 370.995 , 144.5094 341.995 , 146.5094 371.995 , 185.5094 396.995 , 149.5094 384.995 , 162.5094 370.995 , 149.5094 382.995 , 134.5094 ">
</polygon><polygon 
stroke="rgb(156,94,92)"
fill="rgb(156,94,92)"
stroke-width="60"
stroke-linejoin="round" 
opacity="1"
points="188.375 , 296.875 197.375 , 301.875 197.375 , 293.875 194.375 , 290.875 201.375 , 294.875 209.375 , 291.875 210.375 , 292.875 207.375 , 288.875 205.375 , 294.875 205.375 , 299.875 215.375 , 289.875 208.375 , 300.875 208.375 , 285.875 214.375 , 284.875 211.375 , 287.875 207.375 , 293.875 203.375 , 295.875 209.375 , 287.875 211.375 , 299.875 203.375 , 281.875 207.375 , 287.875 209.375 , 299.875 204.375 , 298.875 211.375 , 293.875 ">
</polygon><polygon 
stroke="rgb(156,94,92)"
fill="rgb(156,94,92)"
stroke-width="80"
stroke-linejoin="round" 
opacity="1"
points="157.956875 , 322.521825 159.956875 , 338.521825 180.956875 , 341.521825 175.956875 , 327.521825 149.956875 , 312.521825 131.956875 , 328.521825 147.956875 , 315.521825 142.956875 , 370.521825 112.956875 , 340.521825 117.956875 , 360.521825 102.956875 , 358.521825 98.956875 , 313.521825 84.956875 , 340.521825 86.956875 , 325.521825 57.956875 , 364.521825 55.956875 , 314.521825 58.956875 , 341.521825 ">
</polygon><polygon 
stroke="rgb(156,94,92)"
fill="rgb(156,94,92)"
stroke-width="60"
stroke-linejoin="round" 
opacity="1"
points="169.956875 , 351.521825 160.956875 , 334.521825 160.956875 , 347.521825 155.956875 , 342.521825 152.956875 , 343.521825 145.956875 , 345.521825 141.956875 , 335.521825 136.956875 , 339.521825 129.956875 , 352.521825 129.956875 , 347.521825 138.956875 , 333.521825 ">
</polygon><polygon 
stroke="rgb(136,74,72)"
fill="rgb(136,74,72)"
stroke-width="60"
stroke-linejoin="round" 
opacity="1"
points="157.223125 , 303.586775 160.223125 , 303.586775 167.223125 , 317.586775 175.223125 , 308.586775 166.223125 , 314.586775 163.223125 , 311.586775 162.223125 , 305.586775 168.223125 , 315.586775 177.223125 , 304.586775 185.223125 , 315.586775 189.223125 , 303.586775 179.223125 , 317.586775 184.223125 , 305.586775 181.223125 , 304.586775 175.223125 , 319.586775 178.223125 , 301.586775 172.223125 , 318.586775 172.223125 , 317.586775 175.223125 , 320.586775 165.223125 , 319.586775 168.223125 , 301.586775 166.223125 , 302.586775 161.223125 , 303.586775 160.223125 , 315.586775 158.223125 , 301.586775 162.223125 , 305.586775 169.223125 , 314.586775 159.223125 , 317.586775 167.223125 , 314.586775 174.223125 , 311.586775 ">
</polygon><polygon 
stroke="rgb(146,84,82)"
fill="rgb(146,84,82)"
stroke-width="80"
stroke-linejoin="round" 
opacity="1"
points="433.065 , 296.1018 409.065 , 249.1018 406.065 , 293.1018 419.065 , 282.1018 390.065 , 285.1018 415.065 , 247.1018 406.065 , 265.1018 432.065 , 297.1018 429.065 , 262.1018 418.065 , 273.1018 401.065 , 241.1018 371.065 , 270.1018 350.065 , 266.1018 363.065 , 297.1018 391.065 , 279.1018 384.065 , 279.1018 376.065 , 279.1018 363.065 , 283.1018 350.065 , 298.1018 347.065 , 275.1018 330.065 , 269.1018 307.065 , 278.1018 337.065 , 288.1018 347.065 , 252.1018 344.065 , 292.1018 344.065 , 251.1018 373.065 , 255.1018 378.065 , 296.1018 367.065 , 257.1018 ">
</polygon><polygon 
stroke="rgb(156,94,92)"
fill="rgb(156,94,92)"
stroke-width="70"
stroke-linejoin="round" 
opacity="1"
points="421.065 , 284.1018 429.065 , 289.1018 409.065 , 255.1018 421.065 , 279.1018 438.065 , 266.1018 426.065 , 284.1018 439.065 , 257.1018 436.065 , 282.1018 439.065 , 291.1018 447.065 , 255.1018 444.065 , 285.1018 442.065 , 280.1018 439.065 , 276.1018 448.065 , 277.1018 447.065 , 289.1018 440.065 , 252.1018 445.065 , 254.1018 ">
</polygon><polygon 
stroke="rgb(146,84,82)"
fill="rgb(146,84,82)"
stroke-width="60"
stroke-linejoin="round" 
opacity="1"
points="167.065 , 269.1018 170.065 , 269.1018 165.065 , 258.1018 170.065 , 263.1018 173.065 , 257.1018 179.065 , 262.1018 185.065 , 257.1018 180.065 , 257.1018 183.065 , 257.1018 190.065 , 271.1018 189.065 , 264.1018 ">
</polygon></svg>