<?xml version="1.0" encoding="iso-8859-1"?>
<svg version="1.1" id="Capa_1" xmlns="http://www.w3.org/2000/svg" xmlns:xlink="http://www.w3.org/1999/xlink" x="0px" y="0px"
viewBox="0 0 500 500" xml:space="preserve"><defs></defs><polygon 
stroke="rgb(184,162,185)"
fill="rgb(184,162,185)"
stroke-width="80"
stroke-linejoin="round" 
opacity="1"
points="317 , 188 295 , 160 297 , 193 320 , 198 292 , 192 270 , 195 296 , 152 282 , 171 286 , 154 291 , 156 318 , 176 332 , 187 338 , 152 356 , 172 ">
</polygon><polygon 
stroke="rgb(164,142,165)"
fill="rgb(164,142,165)"
stroke-width="70"
stroke-linejoin="round" 
opacity="1"
points="322 , 165 313 , 177 295 , 165 288 , 172 277 , 171 258 , 170 239 , 173 237 , 181 257 , 170 246 , 186 254 , 185 239 , 194 244 , 184 225 , 166 223 , 196 205 , 185 199 , 166 206 , 172 214 , 191 230 , 192 ">
</polygon><polygon 
stroke="rgb(174,152,175)"
fill="rgb(174,152,175)"
stroke-width="60"
stroke-linejoin="round" 
opacity="1"
points="322 , 179 332 , 184 335 , 179 329 , 173 326 , 173 317 , 174 310 , 180 310 , 189 307 , 183 297 , 187 299 , 180 289 , 189 287 , 185 289 , 178 296 , 175 304 , 170 ">
</polygon><polygon 
stroke="rgb(164,142,165)"
fill="rgb(164,142,165)"
stroke-width="80"
stroke-linejoin="round" 
opacity="1"
points="228.1875 , 255.6875 245.1875 , 251.6875 226.1875 , 213.6875 254.1875 , 218.6875 251.1875 , 212.6875 222.1875 , 213.6875 197.1875 , 240.6875 174.1875 , 264.6875 188.1875 , 234.6875 180.1875 , 213.6875 192.1875 , 232.6875 218.1875 , 252.6875 229.1875 , 225.6875 252.1875 , 237.6875 237.1875 , 244.6875 216.1875 , 226.6875 231.1875 , 231.6875 236.1875 , 223.6875 266.1875 , 243.6875 266.1875 , 245.6875 295.1875 , 262.6875 ">
</polygon><polygon 
stroke="rgb(164,142,165)"
fill="rgb(164,142,165)"
stroke-width="60"
stroke-linejoin="round" 
opacity="1"
points="362.2688 , 158.26 366.2688 , 158.26 369.2688 , 154.26 377.2688 , 145.26 379.2688 , 146.26 381.2688 , 149.26 380.2688 , 159.26 371.2688 , 152.26 365.2688 , 147.26 365.2688 , 153.26 375.2688 , 151.26 376.2688 , 156.26 379.2688 , 159.26 369.2688 , 151.26 ">
</polygon><polygon 
stroke="rgb(164,142,165)"
fill="rgb(164,142,165)"
stroke-width="80"
stroke-linejoin="round" 
opacity="1"
points="209.1875 , 300.6875 232.1875 , 289.6875 219.1875 , 320.6875 230.1875 , 299.6875 248.1875 , 299.6875 242.1875 , 302.6875 229.1875 , 270.6875 223.1875 , 261.6875 219.1875 , 300.6875 230.1875 , 287.6875 210.1875 , 278.6875 215.1875 , 312.6875 201.1875 , 292.6875 171.1875 , 270.6875 141.1875 , 314.6875 141.1875 , 295.6875 144.1875 , 283.6875 132.1875 , 310.6875 122.1875 , 296.6875 123.1875 , 318.6875 ">
</polygon><polygon 
stroke="rgb(174,152,175)"
fill="rgb(174,152,175)"
stroke-width="70"
stroke-linejoin="round" 
opacity="1"
points="181.1875 , 300.6875 185.1875 , 284.6875 193.1875 , 299.6875 183.1875 , 286.6875 173.1875 , 306.6875 166.1875 , 302.6875 182.1875 , 271.6875 171.1875 , 291.6875 181.1875 , 292.6875 197.1875 , 275.6875 210.1875 , 310.6875 204.1875 , 309.6875 198.1875 , 304.6875 187.1875 , 288.6875 171.1875 , 304.6875 152.1875 , 283.6875 172.1875 , 309.6875 179.1875 , 284.6875 172.1875 , 306.6875 160.1875 , 272.6875 ">
</polygon><polygon 
stroke="rgb(184,162,185)"
fill="rgb(184,162,185)"
stroke-width="60"
stroke-linejoin="round" 
opacity="1"
points="187.1875 , 294.6875 188.1875 , 285.6875 191.1875 , 286.6875 200.1875 , 287.6875 202.1875 , 287.6875 198.1875 , 286.6875 207.1875 , 297.6875 203.1875 , 283.6875 201.1875 , 288.6875 202.1875 , 283.6875 209.1875 , 298.6875 212.1875 , 296.6875 216.1875 , 296.6875 214.1875 , 285.6875 207.1875 , 291.6875 212.1875 , 283.6875 218.1875 , 283.6875 222.1875 , 291.6875 215.1875 , 289.6875 207.1875 , 300.6875 209.1875 , 285.6875 199.1875 , 298.6875 ">
</polygon><polygon 
stroke="rgb(164,142,165)"
fill="rgb(164,142,165)"
stroke-width="60"
stroke-linejoin="round" 
opacity="1"
points="359.2 , 356.5 360.2 , 355.5 367.2 , 345.5 376.2 , 353.5 384.2 , 350.5 390.2 , 348.5 383.2 , 352.5 377.2 , 352.5 371.2 , 353.5 370.2 , 364.5 362.2 , 360.5 370.2 , 350.5 370.2 , 363.5 379.2 , 346.5 375.2 , 354.5 384.2 , 346.5 388.2 , 352.5 396.2 , 358.5 397.2 , 346.5 404.2 , 363.5 413.2 , 344.5 ">
</polygon><polygon 
stroke="rgb(174,152,175)"
fill="rgb(174,152,175)"
stroke-width="80"
stroke-linejoin="round" 
opacity="1"
points="401.1875 , 290.6875 383.1875 , 278.6875 398.1875 , 289.6875 419.1875 , 270.6875 392.1875 , 239.6875 373.1875 , 281.6875 345.1875 , 252.6875 342.1875 , 282.6875 345.1875 , 258.6875 350.1875 , 239.6875 367.1875 , 285.6875 ">
</polygon><polygon 
stroke="rgb(164,142,165)"
fill="rgb(164,142,165)"
stroke-width="70"
stroke-linejoin="round" 
opacity="1"
points="388.1875 , 241.6875 386.1875 , 273.6875 405.1875 , 259.6875 391.1875 , 263.6875 401.1875 , 247.6875 407.1875 , 264.6875 406.1875 , 267.6875 405.1875 , 277.6875 417.1875 , 274.6875 398.1875 , 242.6875 412.1875 , 261.6875 401.1875 , 260.6875 407.1875 , 263.6875 395.1875 , 243.6875 396.1875 , 254.6875 385.1875 , 273.6875 390.1875 , 280.6875 404.1875 , 243.6875 ">
</polygon><polygon 
stroke="rgb(184,162,185)"
fill="rgb(184,162,185)"
stroke-width="60"
stroke-linejoin="round" 
opacity="1"
points="370.1875 , 253.6875 374.1875 , 256.6875 382.1875 , 270.6875 372.1875 , 267.6875 374.1875 , 261.6875 375.1875 , 262.6875 373.1875 , 266.6875 365.1875 , 260.6875 371.1875 , 253.6875 372.1875 , 262.6875 381.1875 , 266.6875 382.1875 , 261.6875 386.1875 , 260.6875 392.1875 , 262.6875 397.1875 , 262.6875 394.1875 , 270.6875 388.1875 , 258.6875 396.1875 , 270.6875 393.1875 , 268.6875 398.1875 , 259.6875 399.1875 , 252.6875 405.1875 , 253.6875 ">
</polygon><polygon 
stroke="rgb(184,162,185)"
fill="rgb(184,162,185)"
stroke-width="80"
stroke-linejoin="round" 
opacity="1"
points="212.2 , 312.5 216.2 , 328.5 229.2 , 313.5 236.2 , 327.5 223.2 , 324.5 226.2 , 317.5 218.2 , 339.5 242.2 , 357.5 238.2 , 330.5 244.2 , 306.5 256.2 , 328.5 266.2 , 334.5 287.2 , 317.5 301.2 , 351.5 286.2 , 357.5 309.2 , 349.5 324.2 , 332.5 310.2 , 337.5 324.2 , 331.5 314.2 , 353.5 322.2 , 301.5 302.2 , 343.5 ">
</polygon><polygon 
stroke="rgb(184,162,185)"
fill="rgb(184,162,185)"
stroke-width="60"
stroke-linejoin="round" 
opacity="1"
points="216.2 , 329.5 224.2 , 326.5 234.2 , 335.5 243.2 , 325.5 241.2 , 327.5 250.2 , 327.5 245.2 , 320.5 238.2 , 334.5 233.2 , 332.5 239.2 , 324.5 249.2 , 319.5 254.2 , 335.5 ">
</polygon><polygon 
stroke="rgb(164,142,165)"
fill="rgb(164,142,165)"
stroke-width="70"
stroke-linejoin="round" 
opacity="1"
points="360.7919 , 346.0175 375.7919 , 316.0175 381.7919 , 338.0175 398.7919 , 327.0175 392.7919 , 322.0175 399.7919 , 336.0175 408.7919 , 307.0175 427.7919 , 324.0175 412.7919 , 318.0175 418.7919 , 334.0175 435.7919 , 331.0175 429.7919 , 311.0175 422.7919 , 314.0175 408.7919 , 343.0175 405.7919 , 345.0175 413.7919 , 308.0175 423.7919 , 322.0175 443.7919 , 327.0175 443.7919 , 333.0175 444.7919 , 323.0175 449.7919 , 308.0175 446.7919 , 311.0175 448.7919 , 313.0175 439.7919 , 330.0175 423.7919 , 346.0175 438.7919 , 320.0175 440.7919 , 307.0175 420.7919 , 318.0175 410.7919 , 342.0175 ">
</polygon><polygon 
stroke="rgb(174,152,175)"
fill="rgb(174,152,175)"
stroke-width="60"
stroke-linejoin="round" 
opacity="1"
points="374.7919 , 320.0175 376.7919 , 321.0175 370.7919 , 336.0175 362.7919 , 328.0175 365.7919 , 325.0175 371.7919 , 331.0175 361.7919 , 327.0175 351.7919 , 336.0175 355.7919 , 318.0175 352.7919 , 318.0175 357.7919 , 327.0175 353.7919 , 333.0175 ">
</polygon><polygon 
stroke="rgb(164,142,165)"
fill="rgb(164,142,165)"
stroke-width="80"
stroke-linejoin="round" 
opacity="1"
points="296.2688 , 162.26 303.2688 , 118.26 316.2688 , 115.26 308.2688 , 154.26 286.2688 , 126.26 279.2688 , 153.26 255.2688 , 153.26 240.2688 , 137.26 255.2688 , 112.26 254.2688 , 150.26 275.2688 , 130.26 292.2688 , 123.26 292.2688 , 142.26 ">
</polygon><polygon 
stroke="rgb(174,152,175)"
fill="rgb(174,152,175)"
stroke-width="70"
stroke-linejoin="round" 
opacity="1"
points="332.2688 , 133.26 316.2688 , 147.26 296.2688 , 137.26 279.2688 , 135.26 261.2688 , 158.26 253.2688 , 148.26 262.2688 , 135.26 242.2688 , 134.26 247.2688 , 122.26 246.2688 , 154.26 ">
</polygon><polygon 
stroke="rgb(174,152,175)"
fill="rgb(174,152,175)"
stroke-width="60"
stroke-linejoin="round" 
opacity="1"
points="309.2688 , 133.26 306.2688 , 132.26 309.2688 , 151.26 317.2688 , 135.26 319.2688 , 146.26 311.2688 , 149.26 319.2688 , 152.26 318.2688 , 150.26 312.2688 , 143.26 308.2688 , 136.26 302.2688 , 151.26 305.2688 , 150.26 298.2688 , 136.26 305.2688 , 152.26 314.2688 , 147.26 324.2688 , 137.26 330.2688 , 143.26 322.2688 , 150.26 328.2688 , 134.26 ">
</polygon><polygon 
stroke="rgb(174,152,175)"
fill="rgb(174,152,175)"
stroke-width="80"
stroke-linejoin="round" 
opacity="1"
points="315.9104 , 211.28 302.9104 , 169.28 317.9104 , 196.28 341.9104 , 195.28 368.9104 , 164.28 377.9104 , 201.28 383.9104 , 168.28 374.9104 , 179.28 348.9104 , 191.28 338.9104 , 207.28 365.9104 , 209.28 358.9104 , 187.28 373.9104 , 202.28 384.9104 , 217.28 398.9104 , 196.28 415.9104 , 164.28 403.9104 , 218.28 412.9104 , 161.28 386.9104 , 196.28 375.9104 , 208.28 346.9104 , 180.28 340.9104 , 190.28 319.9104 , 198.28 303.9104 , 198.28 ">
</polygon><polygon 
stroke="rgb(174,152,175)"
fill="rgb(174,152,175)"
stroke-width="70"
stroke-linejoin="round" 
opacity="1"
points="310.9104 , 192.28 291.9104 , 191.28 273.9104 , 185.28 266.9104 , 172.28 255.9104 , 203.28 274.9104 , 186.28 277.9104 , 194.28 267.9104 , 174.28 253.9104 , 201.28 269.9104 , 209.28 255.9104 , 174.28 236.9104 , 178.28 254.9104 , 196.28 263.9104 , 176.28 282.9104 , 208.28 298.9104 , 192.28 279.9104 , 180.28 264.9104 , 174.28 263.9104 , 192.28 265.9104 , 199.28 273.9104 , 179.28 265.9104 , 186.28 268.9104 , 191.28 284.9104 , 181.28 271.9104 , 195.28 269.9104 , 206.28 ">
</polygon><polygon 
stroke="rgb(184,162,185)"
fill="rgb(184,162,185)"
stroke-width="60"
stroke-linejoin="round" 
opacity="1"
points="301.9104 , 181.28 301.9104 , 195.28 292.9104 , 184.28 292.9104 , 184.28 289.9104 , 197.28 298.9104 , 192.28 306.9104 , 190.28 300.9104 , 182.28 307.9104 , 198.28 315.9104 , 185.28 ">
</polygon><path d="M 240 480 c 20.8,-80 36.4,-160 78,-300 
C 336.4,349 320.8,429 308,480
 " stroke="rgb(138,66,191)" stroke-linejoin="arcs"  stroke-width="5" fill="rgb(138,66,191)"/><path d="M 291.1875 274.6875 c -42.933333333333,-6.6 0,-4.4 -92,-33 
C 300.3875,274.4125 257.45416666667,272.2125 286.7376,291.42
 " stroke="rgb(138,66,191)" stroke-linejoin="arcs"  stroke-width="5" fill="rgb(138,66,191)"/><path d="M 306.2688 220.26 c 49.4,-22.333333333333 26.6,-8.9333333333333 57,-67 
C 338.5688,219.70166666667 361.3688,206.30166666667 300.9297,239.1525
 " stroke="rgb(138,66,191)" stroke-linejoin="arcs"  stroke-width="5" fill="rgb(138,66,191)"/><path d="M 291.1875 274.6875 c -14.266666666667,4.5333333333333 -57.066666666667,2.2666666666667 -107,17 
C 244.82083333333,279.07916666667 287.62083333333,281.34583333333 286.7376,291.42
 " stroke="rgb(138,66,191)" stroke-linejoin="arcs"  stroke-width="5" fill="rgb(138,66,191)"/><path d="M 271.2 352.5 c 75.2,0.66666666666667 62.666666666667,0.53333333333333 94,2 
C 343.26666666667,353.28333333333 355.8,353.41666666667 267.7641,366.5325
 " stroke="rgb(138,66,191)" stroke-linejoin="arcs"  stroke-width="5" fill="rgb(138,66,191)"/><path d="M 291.1875 274.6875 c 89,-4.6666666666667 5.9333333333333,-7.4666666666667 89,-14 
C 306.02083333333,268.97083333333 389.0875,271.77083333333 286.7376,291.42
 " stroke="rgb(138,66,191)" stroke-linejoin="arcs"  stroke-width="5" fill="rgb(138,66,191)"/><path d="M 271.2 352.5 c -29.866666666667,-8.3333333333333 -42.666666666667,-10 -64,-25 
C 234.93333333333,345.625 247.73333333333,347.29166666667 267.7641,366.5325
 " stroke="rgb(138,66,191)" stroke-linejoin="arcs"  stroke-width="5" fill="rgb(138,66,191)"/><path d="M 274.7919 338.0175 c 14,-4 35,-2.4 105,-12 
C 320.2919,337.1175 299.2919,335.5175 271.2,352.5
 " stroke="rgb(138,66,191)" stroke-linejoin="arcs"  stroke-width="5" fill="rgb(138,66,191)"/><path d="M 306.2688 220.26 c 8.8,-15.6 5.8666666666667,-36.4 11,-78 
C 313.23546666667,193.61 316.1688,214.41 300.9297,239.1525
 " stroke="rgb(138,66,191)" stroke-linejoin="arcs"  stroke-width="5" fill="rgb(138,66,191)"/><path d="M 295.9104 257.28 c 10.666666666667,-17.866666666667 6.4,-31.266666666667 16,-67 
C 303.9104,234.38833333333 308.17706666667,247.78833333333 291.1875,274.6875
 " stroke="rgb(138,66,191)" stroke-linejoin="arcs"  stroke-width="5" fill="rgb(138,66,191)"/><polygon 
stroke="rgb(184,162,185)"
fill="rgb(184,162,185)"
stroke-width="70"
stroke-linejoin="round" 
opacity="1"
points="198.1875 , 239.6875 202.1875 , 259.6875 212.1875 , 232.6875 205.1875 , 227.6875 191.1875 , 239.6875 202.1875 , 226.6875 199.1875 , 250.6875 181.1875 , 251.6875 164.1875 , 222.6875 174.1875 , 241.6875 187.1875 , 260.6875 202.1875 , 247.6875 197.1875 , 222.6875 190.1875 , 239.6875 210.1875 , 259.6875 225.1875 , 229.6875 209.1875 , 224.6875 208.1875 , 222.6875 197.1875 , 235.6875 200.1875 , 260.6875 198.1875 , 250.6875 217.1875 , 240.6875 ">
</polygon><polygon 
stroke="rgb(164,142,165)"
fill="rgb(164,142,165)"
stroke-width="60"
stroke-linejoin="round" 
opacity="1"
points="195.1875 , 249.6875 205.1875 , 231.6875 210.1875 , 235.6875 209.1875 , 244.6875 201.1875 , 237.6875 199.1875 , 237.6875 201.1875 , 233.6875 194.1875 , 246.6875 203.1875 , 237.6875 211.1875 , 250.6875 215.1875 , 247.6875 221.1875 , 246.6875 214.1875 , 248.6875 ">
</polygon><polygon 
stroke="rgb(184,162,185)"
fill="rgb(184,162,185)"
stroke-width="80"
stroke-linejoin="round" 
opacity="1"
points="342.2688 , 144.26 315.2688 , 159.26 344.2688 , 158.26 342.2688 , 177.26 358.2688 , 156.26 382.2688 , 158.26 405.2688 , 148.26 431.2688 , 134.26 444.2688 , 137.26 444.2688 , 160.26 439.2688 , 151.26 447.2688 , 145.26 446.2688 , 151.26 438.2688 , 141.26 444.2688 , 176.26 ">
</polygon><polygon 
stroke="rgb(184,162,185)"
fill="rgb(184,162,185)"
stroke-width="70"
stroke-linejoin="round" 
opacity="1"
points="349.2688 , 162.26 362.2688 , 137.26 378.2688 , 153.26 373.2688 , 164.26 383.2688 , 134.26 384.2688 , 152.26 403.2688 , 142.26 392.2688 , 161.26 386.2688 , 159.26 387.2688 , 173.26 398.2688 , 161.26 408.2688 , 162.26 422.2688 , 141.26 415.2688 , 149.26 416.2688 , 163.26 424.2688 , 160.26 439.2688 , 149.26 433.2688 , 165.26 435.2688 , 149.26 424.2688 , 140.26 413.2688 , 154.26 420.2688 , 143.26 419.2688 , 161.26 408.2688 , 168.26 418.2688 , 154.26 416.2688 , 156.26 409.2688 , 148.26 420.2688 , 154.26 ">
</polygon><polygon 
stroke="rgb(184,162,185)"
fill="rgb(184,162,185)"
stroke-width="80"
stroke-linejoin="round" 
opacity="1"
points="358.2 , 369.5 358.2 , 361.5 384.2 , 372.5 397.2 , 331.5 389.2 , 331.5 368.2 , 339.5 361.2 , 375.5 341.2 , 352.5 333.2 , 329.5 309.2 , 324.5 319.2 , 362.5 335.2 , 356.5 308.2 , 355.5 282.2 , 360.5 296.2 , 375.5 321.2 , 336.5 344.2 , 344.5 330.2 , 337.5 338.2 , 350.5 347.2 , 375.5 343.2 , 329.5 373.2 , 363.5 378.2 , 335.5 370.2 , 351.5 ">
</polygon><polygon 
stroke="rgb(184,162,185)"
fill="rgb(184,162,185)"
stroke-width="70"
stroke-linejoin="round" 
opacity="1"
points="375.2 , 360.5 394.2 , 368.5 407.2 , 352.5 402.2 , 374.5 383.2 , 341.5 376.2 , 350.5 368.2 , 368.5 376.2 , 357.5 377.2 , 339.5 393.2 , 371.5 393.2 , 359.5 389.2 , 345.5 386.2 , 371.5 367.2 , 363.5 381.2 , 340.5 385.2 , 362.5 367.2 , 342.5 353.2 , 370.5 ">
</polygon><polygon 
stroke="rgb(164,142,165)"
fill="rgb(164,142,165)"
stroke-width="70"
stroke-linejoin="round" 
opacity="1"
points="226.2 , 328.5 227.2 , 307.5 214.2 , 327.5 226.2 , 333.5 208.2 , 321.5 221.2 , 307.5 218.2 , 315.5 214.2 , 344.5 231.2 , 334.5 219.2 , 333.5 237.2 , 346.5 224.2 , 344.5 228.2 , 346.5 223.2 , 332.5 224.2 , 330.5 234.2 , 346.5 215.2 , 330.5 208.2 , 324.5 197.2 , 307.5 216.2 , 347.5 210.2 , 326.5 ">
</polygon><polygon 
stroke="rgb(174,152,175)"
fill="rgb(174,152,175)"
stroke-width="80"
stroke-linejoin="round" 
opacity="1"
points="356.7919 , 356.0175 352.7919 , 325.0175 332.7919 , 315.0175 302.7919 , 330.0175 296.7919 , 312.0175 266.7919 , 301.0175 252.7919 , 333.0175 261.7919 , 332.0175 255.7919 , 344.0175 251.7919 , 305.0175 261.7919 , 330.0175 289.7919 , 298.0175 267.7919 , 315.0175 244.7919 , 356.0175 246.7919 , 351.0175 216.7919 , 318.0175 187.7919 , 307.0175 182.7919 , 338.0175 166.7919 , 303.0175 169.7919 , 348.0175 194.7919 , 318.0175 168.7919 , 321.0175 198.7919 , 350.0175 217.7919 , 338.0175 187.7919 , 350.0175 ">
</polygon></svg>