<?xml version="1.0" encoding="iso-8859-1"?>
<!-- Generator: Adobe Illustrator 19.0.0, SVG Export Plug-In . SVG Version: 6.00 Build 0)  -->
<svg version="1.1" id="Layer_1" xmlns="http://www.w3.org/2000/svg" xmlns:xlink="http://www.w3.org/1999/xlink" x="0px" y="0px"
	 viewBox="0 0 512 512" style="enable-background:new 0 0 512 512;" xml:space="preserve">
<path style="fill:#CEC73C;" d="M84.542,347.768c-31.503-21.503-50.644-57.243-50.644-95.898c0-64,52.067-116.067,116.067-116.067
	c26.655,0,51.728,8.791,72.485,25.412c17.559,14.056,30.723,33.039,37.74,54.203h35.265c-7.887-31.604-26.26-60.192-51.819-80.666
	c-26.452-21.186-59.717-32.847-93.672-32.847C67.265,101.906,0,169.182,0,251.871c0,54.452,29.401,104.44,76.87,130.971"/>
<g>
	<path style="fill:#BAB031;" d="M308.608,440.231h-202.56c-7.093,0-12.843-5.75-12.843-12.843v-30.113h228.247v30.113
		C321.452,434.481,315.702,440.231,308.608,440.231z"/>
	<path style="fill:#BAB031;" d="M221.651,240.201h-28.646c-12.972,0-23.488-10.516-23.488-23.488v-8.824
		c0-5.879,4.766-10.645,10.645-10.645h54.332c5.879,0,10.645,4.766,10.645,10.645v8.824
		C245.139,229.685,234.623,240.201,221.651,240.201z"/>
</g>
<path style="fill:#CEC73C;" d="M459.202,142.131l-4.943-21.688l-21.625,2.732L321.729,303.799l-18.514-84.571
	c-1.209-5.522-6.099-9.458-11.751-9.458h-168.27c-5.653,0-10.543,3.936-11.751,9.458L73.411,392.949
	c-2.021,9.234,5.01,17.973,14.463,17.973h247.505c5.942,0,11.31-3.554,13.63-9.024L459.202,142.131z"/>
<path style="fill:#BAB031;" d="M128.734,410.922l23.729-201.151h-29.269c-5.653,0-10.543,3.936-11.751,9.458L73.411,392.95
	c-2.021,9.234,5.01,17.973,14.463,17.973h40.86V410.922z"/>
<polygon style="fill:#CEC73C;" points="512,130.521 426.592,71.769 432.633,123.175 459.202,142.13 "/>
<g>
	<polygon style="fill:#BAB031;" points="321.729,303.799 327.684,330.994 440.264,128.619 426.592,71.769 432.633,123.175 	"/>
	<path style="fill:#BAB031;" d="M182.385,285.403l67.881,56.867v-8.876c0-36.444-29.543-65.986-65.986-65.986h-19.889v19.889
		c0,36.444,29.543,65.986,65.986,65.986h8.876L182.385,285.403z"/>
</g>
<g>
</g>
<g>
</g>
<g>
</g>
<g>
</g>
<g>
</g>
<g>
</g>
<g>
</g>
<g>
</g>
<g>
</g>
<g>
</g>
<g>
</g>
<g>
</g>
<g>
</g>
<g>
</g>
<g>
</g>
</svg>
