<?xml version="1.0" encoding="iso-8859-1"?>
<!-- Generator: Adobe Illustrator 19.0.0, SVG Export Plug-In . SVG Version: 6.00 Build 0)  -->
<svg version="1.1" id="Capa_1" xmlns="http://www.w3.org/2000/svg" xmlns:xlink="http://www.w3.org/1999/xlink" x="0px" y="0px"
	 viewBox="0 0 512 512" style="enable-background:new 0 0 512 512;" xml:space="preserve">
<rect y="479.38" style="fill:#CDD6E0;" width="512" height="32.32"/>
<path style="fill:#F2F2F2;" d="M440.469,207.839v303.872H71.499V207.839c1.707-0.853,3.413-1.813,4.917-3.104L256.043,49.759
	l179.627,154.976C437.163,206.025,438.763,206.985,440.469,207.839"/>
<rect x="274.56" y="372.425" style="fill:#54C0EB;" width="137.227" height="82.421"/>
<g>
	<rect x="267.84" y="454.847" style="fill:#CDD6E0;" width="150.72" height="9.621"/>
	<rect x="98.005" y="52.777" style="fill:#CDD6E0;" width="57.984" height="80.832"/>
</g>
<rect x="85.333" y="30.047" style="fill:#E2E2E2;" width="83.296" height="22.731"/>
<path style="fill:#FF7058;" d="M103.787,511.721V386.612c0-39.232,31.808-71.04,71.04-71.04c39.243,0,71.04,31.808,71.04,71.04
	v125.109H103.787z"/>
<path style="fill:#F1543F;" d="M114.453,391.945c0-39.232,31.808-71.04,71.04-71.04c9.248,0,18.037,1.813,26.144,5.024
	c-10.752-6.517-23.328-10.357-36.811-10.357c-39.232,0-71.04,31.808-71.04,71.04v125.109h10.667V391.945z"/>
<rect x="71.499" y="232.905" style="fill:#CDD6E0;" width="368.971" height="21.333"/>
<g>
	<path style="fill:#40596B;" d="M462.176,223.615c-5.259,0-10.528-1.813-14.837-5.525L256,53.012L64.661,218.089
		c-9.515,8.192-23.851,7.125-32.053-2.379s-7.147-23.851,2.368-32.043L241.163,5.791c8.533-7.349,21.152-7.349,29.675,0
		l206.208,177.888c9.493,8.192,10.56,22.539,2.357,32.043C474.901,220.927,468.565,223.615,462.176,223.615"/>
	<path style="fill:#40596B;" d="M234.805,428.361c0,4.629-3.744,8.373-8.363,8.373s-8.373-3.755-8.373-8.373
		s3.755-8.373,8.373-8.373S234.805,423.743,234.805,428.361"/>
</g>
<path style="fill:#FFD15C;" d="M295.509,155.337c0,21.813-17.696,39.52-39.52,39.52s-39.52-17.707-39.52-39.52
	c0-21.835,17.696-39.52,39.52-39.52S295.509,133.513,295.509,155.337"/>
<path style="fill:#F8B64C;" d="M226.731,160.468c0-18.997,15.392-34.4,34.4-34.4c18.101,0,32.789,14.059,34.123,31.829
	c0.064-0.875,0.256-1.685,0.256-2.56c0-21.835-17.696-39.52-39.52-39.52s-39.52,17.685-39.52,39.52
	c0,21.813,17.696,39.52,39.52,39.52c0.875,0,1.696-0.213,2.549-0.245C240.768,193.279,226.731,178.591,226.731,160.468"/>
<g>
</g>
<g>
</g>
<g>
</g>
<g>
</g>
<g>
</g>
<g>
</g>
<g>
</g>
<g>
</g>
<g>
</g>
<g>
</g>
<g>
</g>
<g>
</g>
<g>
</g>
<g>
</g>
<g>
</g>
</svg>
