<?xml version="1.0" encoding="iso-8859-1"?>
<!-- Generator: Adobe Illustrator 19.0.0, SVG Export Plug-In . SVG Version: 6.00 Build 0)  -->
<svg version="1.1" id="Capa_1" xmlns="http://www.w3.org/2000/svg" xmlns:xlink="http://www.w3.org/1999/xlink" x="0px" y="0px"
	 viewBox="0 0 512.001 512.001" style="enable-background:new 0 0 512.001 512.001;" xml:space="preserve">
<rect x="21.547" y="476.726" style="fill:#ACB3BA;" width="469.013" height="34.677"/>
<rect x="80.022" y="59.019" style="fill:#FFD15C;" width="64.736" height="92.416"/>
<rect x="65.686" y="19.553" style="fill:#F8B64C;" width="93.408" height="39.467"/>
<rect x="60.449" y="243.574" style="fill:#FFD15C;" width="391.147" height="267.84"/>
<path style="fill:#FF7058;" d="M241.238,5.995L8.139,203.265c-16.256,13.749-6.528,40.288,14.752,40.288h466.208
	c21.291,0,31.019-26.539,14.763-40.288L270.763,5.995C262.23-1.215,249.761-1.215,241.238,5.995"/>
<path style="fill:#40596B;" d="M322.945,511.403H189.089V368.79c0-36.971,29.963-66.923,66.912-66.923
	c36.971,0,66.933,29.963,66.933,66.923v142.613H322.945z"/>
<rect x="60.449" y="243.574" style="fill:#F8B64C;" width="391.147" height="16"/>
<path style="fill:#F2F2F2;" d="M287.937,87.777c0,17.632-14.293,31.936-31.936,31.936c-17.632,0-31.925-14.304-31.925-31.936
	s14.283-31.936,31.925-31.936S287.937,70.145,287.937,87.777"/>
<path style="fill:#E1E3E5;" d="M229.377,91.083c0-16.533,13.397-29.931,29.931-29.931c12.053,0,22.379,7.168,27.125,17.429
	c-3.968-13.12-16.011-22.731-30.432-22.731c-17.643,0-31.936,14.293-31.936,31.925c0,14.421,9.611,26.453,22.731,30.432
	C236.545,113.462,229.377,103.126,229.377,91.083"/>
<path style="fill:#ACB3BA;" d="M212.843,426.806c0,3.147-2.549,5.696-5.696,5.696c-3.157,0-5.696-2.549-5.696-5.696
	c0-3.147,2.539-5.685,5.696-5.685C210.283,421.121,212.843,423.659,212.843,426.806"/>
<g>
</g>
<g>
</g>
<g>
</g>
<g>
</g>
<g>
</g>
<g>
</g>
<g>
</g>
<g>
</g>
<g>
</g>
<g>
</g>
<g>
</g>
<g>
</g>
<g>
</g>
<g>
</g>
<g>
</g>
</svg>
